<?xml version="1.0" encoding="UTF-8" standalone="no"?>
<!DOCTYPE svg PUBLIC "-//W3C//DTD SVG 1.1//EN"
 "http://www.w3.org/Graphics/SVG/1.1/DTD/svg11.dtd">
<!-- Generated by graphviz version 2.44.0 ()
 -->
<!-- Title: modules/materials/ADLinearElastic/include/Marmot/ADLinearElastic.h Pages: 1 -->
<svg width="744pt" height="352pt"
 viewBox="0.00 0.00 743.50 352.00" xmlns="http://www.w3.org/2000/svg" xmlns:xlink="http://www.w3.org/1999/xlink">
<g id="graph0" class="graph" transform="scale(1 1) rotate(0) translate(4 348)">
<title>modules/materials/ADLinearElastic/include/Marmot/ADLinearElastic.h</title>
<polygon fill="white" stroke="transparent" points="-4,4 -4,-348 739.5,-348 739.5,4 -4,4"/>
<!-- Node1 -->
<g id="node1" class="node">
<title>Node1</title>
<g id="a_node1"><a xlink:title=" ">
<polygon fill="#bfbfbf" stroke="black" points="336.5,-302.5 336.5,-343.5 476.5,-343.5 476.5,-302.5 336.5,-302.5"/>
<text text-anchor="start" x="344.5" y="-331.5" font-family="Helvetica,sans-Serif" font-size="10.00">modules/materials/ADLinear</text>
<text text-anchor="start" x="344.5" y="-320.5" font-family="Helvetica,sans-Serif" font-size="10.00">Elastic/include/Marmot</text>
<text text-anchor="middle" x="406.5" y="-309.5" font-family="Helvetica,sans-Serif" font-size="10.00">/ADLinearElastic.h</text>
</a>
</g>
</g>
<!-- Node2 -->
<g id="node2" class="node">
<title>Node2</title>
<g id="a_node2"><a xlink:href="MarmotMaterialHypoElasticAD_8h.html" target="_top" xlink:title=" ">
<polygon fill="white" stroke="black" points="102,-235.5 102,-265.5 245,-265.5 245,-235.5 102,-235.5"/>
<text text-anchor="start" x="110" y="-253.5" font-family="Helvetica,sans-Serif" font-size="10.00">Marmot/MarmotMaterialHypo</text>
<text text-anchor="middle" x="173.5" y="-242.5" font-family="Helvetica,sans-Serif" font-size="10.00">ElasticAD.h</text>
</a>
</g>
</g>
<!-- Node1&#45;&gt;Node2 -->
<g id="edge1" class="edge">
<title>Node1&#45;&gt;Node2</title>
<path fill="none" stroke="midnightblue" d="M341.91,-302.46C306.73,-291.81 263.61,-278.76 229.81,-268.54"/>
<polygon fill="midnightblue" stroke="midnightblue" points="230.67,-265.14 220.09,-265.6 228.65,-271.84 230.67,-265.14"/>
</g>
<!-- Node7 -->
<g id="node7" class="node">
<title>Node7</title>
<g id="a_node7"><a xlink:title=" ">
<polygon fill="white" stroke="#bfbfbf" points="270,-0.5 270,-19.5 311,-19.5 311,-0.5 270,-0.5"/>
<text text-anchor="middle" x="290.5" y="-7.5" font-family="Helvetica,sans-Serif" font-size="10.00">string</text>
</a>
</g>
</g>
<!-- Node1&#45;&gt;Node7 -->
<g id="edge15" class="edge">
<title>Node1&#45;&gt;Node7</title>
<path fill="none" stroke="midnightblue" d="M369.43,-302.31C355.28,-293.06 340.24,-280.78 330.5,-266 310.04,-234.94 311.5,-221.69 311.5,-184.5 311.5,-184.5 311.5,-184.5 311.5,-121 311.5,-88.38 302.48,-51.28 296.27,-29.57"/>
<polygon fill="midnightblue" stroke="midnightblue" points="299.54,-28.32 293.33,-19.73 292.83,-30.32 299.54,-28.32"/>
</g>
<!-- Node8 -->
<g id="node8" class="node">
<title>Node8</title>
<g id="a_node8"><a xlink:title=" ">
<polygon fill="white" stroke="#bfbfbf" points="161.5,-174 161.5,-193 283.5,-193 283.5,-174 161.5,-174"/>
<text text-anchor="middle" x="222.5" y="-181" font-family="Helvetica,sans-Serif" font-size="10.00">autodiff/forward/dual.hpp</text>
</a>
</g>
</g>
<!-- Node1&#45;&gt;Node8 -->
<g id="edge12" class="edge">
<title>Node1&#45;&gt;Node8</title>
<path fill="none" stroke="midnightblue" d="M359.83,-302.48C339.69,-292.96 316.46,-280.43 297.5,-266 272.49,-246.95 248.83,-218.99 235,-201.27"/>
<polygon fill="midnightblue" stroke="midnightblue" points="237.56,-198.86 228.71,-193.04 232,-203.11 237.56,-198.86"/>
</g>
<!-- Node9 -->
<g id="node9" class="node">
<title>Node9</title>
<g id="a_node9"><a xlink:href="MarmotTypedefs_8h.html" target="_top" xlink:title=" ">
<polygon fill="white" stroke="black" points="340,-241 340,-260 473,-260 473,-241 340,-241"/>
<text text-anchor="middle" x="406.5" y="-248" font-family="Helvetica,sans-Serif" font-size="10.00">Marmot/MarmotTypedefs.h</text>
</a>
</g>
</g>
<!-- Node1&#45;&gt;Node9 -->
<g id="edge8" class="edge">
<title>Node1&#45;&gt;Node9</title>
<path fill="none" stroke="midnightblue" d="M406.5,-302.36C406.5,-292.3 406.5,-280.1 406.5,-270.18"/>
<polygon fill="midnightblue" stroke="midnightblue" points="410,-270.17 406.5,-260.17 403,-270.17 410,-270.17"/>
</g>
<!-- Node13 -->
<g id="node13" class="node">
<title>Node13</title>
<g id="a_node13"><a xlink:title=" ">
<polygon fill="white" stroke="#bfbfbf" points="491.5,-241 491.5,-260 601.5,-260 601.5,-241 491.5,-241"/>
<text text-anchor="middle" x="546.5" y="-248" font-family="Helvetica,sans-Serif" font-size="10.00">Eigen/src/Core/Map.h</text>
</a>
</g>
</g>
<!-- Node1&#45;&gt;Node13 -->
<g id="edge13" class="edge">
<title>Node1&#45;&gt;Node13</title>
<path fill="none" stroke="midnightblue" d="M445.5,-302.36C469.35,-290.35 499.23,-275.3 520.28,-264.7"/>
<polygon fill="midnightblue" stroke="midnightblue" points="521.92,-267.8 529.28,-260.17 518.77,-261.55 521.92,-267.8"/>
</g>
<!-- Node14 -->
<g id="node14" class="node">
<title>Node14</title>
<g id="a_node14"><a xlink:title=" ">
<polygon fill="white" stroke="#bfbfbf" points="619.5,-241 619.5,-260 673.5,-260 673.5,-241 619.5,-241"/>
<text text-anchor="middle" x="646.5" y="-248" font-family="Helvetica,sans-Serif" font-size="10.00">iostream</text>
</a>
</g>
</g>
<!-- Node1&#45;&gt;Node14 -->
<g id="edge14" class="edge">
<title>Node1&#45;&gt;Node14</title>
<path fill="none" stroke="midnightblue" d="M476.97,-304.79C516.55,-294.59 566.65,-280.79 610.5,-266 612.63,-265.28 614.81,-264.51 617,-263.7"/>
<polygon fill="midnightblue" stroke="midnightblue" points="618.4,-266.91 626.47,-260.04 615.88,-260.38 618.4,-266.91"/>
</g>
<!-- Node15 -->
<g id="node15" class="node">
<title>Node15</title>
<g id="a_node15"><a xlink:title=" ">
<polygon fill="white" stroke="#bfbfbf" points="691.5,-241 691.5,-260 735.5,-260 735.5,-241 691.5,-241"/>
<text text-anchor="middle" x="713.5" y="-248" font-family="Helvetica,sans-Serif" font-size="10.00">vector</text>
</a>
</g>
</g>
<!-- Node1&#45;&gt;Node15 -->
<g id="edge16" class="edge">
<title>Node1&#45;&gt;Node15</title>
<path fill="none" stroke="midnightblue" d="M476.59,-312.49C533.1,-303.7 614.13,-288.57 682.5,-266 684.17,-265.45 685.86,-264.83 687.56,-264.17"/>
<polygon fill="midnightblue" stroke="midnightblue" points="689.27,-267.25 697.06,-260.07 686.5,-260.82 689.27,-267.25"/>
</g>
<!-- Node3 -->
<g id="node3" class="node">
<title>Node3</title>
<g id="a_node3"><a xlink:href="MarmotMaterialHypoElastic_8h.html" target="_top" xlink:title=" ">
<polygon fill="white" stroke="black" points="0,-168.5 0,-198.5 143,-198.5 143,-168.5 0,-168.5"/>
<text text-anchor="start" x="8" y="-186.5" font-family="Helvetica,sans-Serif" font-size="10.00">Marmot/MarmotMaterialHypo</text>
<text text-anchor="middle" x="71.5" y="-175.5" font-family="Helvetica,sans-Serif" font-size="10.00">Elastic.h</text>
</a>
</g>
</g>
<!-- Node2&#45;&gt;Node3 -->
<g id="edge2" class="edge">
<title>Node2&#45;&gt;Node3</title>
<path fill="none" stroke="midnightblue" d="M151.37,-235.4C136.93,-226.2 117.9,-214.07 102.03,-203.95"/>
<polygon fill="midnightblue" stroke="midnightblue" points="103.9,-201 93.59,-198.58 100.14,-206.9 103.9,-201"/>
</g>
<!-- Node2&#45;&gt;Node8 -->
<g id="edge7" class="edge">
<title>Node2&#45;&gt;Node8</title>
<path fill="none" stroke="midnightblue" d="M184.13,-235.4C191.7,-225.36 201.89,-211.84 209.87,-201.25"/>
<polygon fill="midnightblue" stroke="midnightblue" points="212.72,-203.29 215.95,-193.19 207.13,-199.07 212.72,-203.29"/>
</g>
<!-- Node4 -->
<g id="node4" class="node">
<title>Node4</title>
<g id="a_node4"><a xlink:href="MarmotMaterialMechanical_8h.html" target="_top" xlink:title=" ">
<polygon fill="white" stroke="black" points="45,-112.5 45,-131.5 222,-131.5 222,-112.5 45,-112.5"/>
<text text-anchor="middle" x="133.5" y="-119.5" font-family="Helvetica,sans-Serif" font-size="10.00">Marmot/MarmotMaterialMechanical.h</text>
</a>
</g>
</g>
<!-- Node3&#45;&gt;Node4 -->
<g id="edge3" class="edge">
<title>Node3&#45;&gt;Node4</title>
<path fill="none" stroke="midnightblue" d="M86.19,-168.4C95.48,-159.49 107.5,-147.95 117.1,-138.74"/>
<polygon fill="midnightblue" stroke="midnightblue" points="119.69,-141.11 124.48,-131.66 114.84,-136.06 119.69,-141.11"/>
</g>
<!-- Node5 -->
<g id="node5" class="node">
<title>Node5</title>
<g id="a_node5"><a xlink:href="MarmotMaterial_8h.html" target="_top" xlink:title=" ">
<polygon fill="white" stroke="black" points="90.5,-56.5 90.5,-75.5 218.5,-75.5 218.5,-56.5 90.5,-56.5"/>
<text text-anchor="middle" x="154.5" y="-63.5" font-family="Helvetica,sans-Serif" font-size="10.00">Marmot/MarmotMaterial.h</text>
</a>
</g>
</g>
<!-- Node4&#45;&gt;Node5 -->
<g id="edge4" class="edge">
<title>Node4&#45;&gt;Node5</title>
<path fill="none" stroke="midnightblue" d="M136.97,-112.08C139.81,-104.77 143.93,-94.18 147.46,-85.1"/>
<polygon fill="midnightblue" stroke="midnightblue" points="150.73,-86.34 151.1,-75.75 144.21,-83.8 150.73,-86.34"/>
</g>
<!-- Node6 -->
<g id="node6" class="node">
<title>Node6</title>
<g id="a_node6"><a xlink:href="MarmotUtils_8h.html" target="_top" xlink:title=" ">
<polygon fill="white" stroke="black" points="98,-0.5 98,-19.5 211,-19.5 211,-0.5 98,-0.5"/>
<text text-anchor="middle" x="154.5" y="-7.5" font-family="Helvetica,sans-Serif" font-size="10.00">Marmot/MarmotUtils.h</text>
</a>
</g>
</g>
<!-- Node5&#45;&gt;Node6 -->
<g id="edge5" class="edge">
<title>Node5&#45;&gt;Node6</title>
<path fill="none" stroke="midnightblue" d="M154.5,-56.08C154.5,-49.01 154.5,-38.86 154.5,-29.99"/>
<polygon fill="midnightblue" stroke="midnightblue" points="158,-29.75 154.5,-19.75 151,-29.75 158,-29.75"/>
</g>
<!-- Node5&#45;&gt;Node7 -->
<g id="edge6" class="edge">
<title>Node5&#45;&gt;Node7</title>
<path fill="none" stroke="midnightblue" d="M176.05,-56.44C198.8,-47.41 234.82,-33.11 260.38,-22.96"/>
<polygon fill="midnightblue" stroke="midnightblue" points="261.94,-26.11 269.94,-19.16 259.36,-19.6 261.94,-26.11"/>
</g>
<!-- Node10 -->
<g id="node10" class="node">
<title>Node10</title>
<g id="a_node10"><a xlink:title=" ">
<polygon fill="white" stroke="#bfbfbf" points="339.5,-174 339.5,-193 403.5,-193 403.5,-174 339.5,-174"/>
<text text-anchor="middle" x="371.5" y="-181" font-family="Helvetica,sans-Serif" font-size="10.00">Eigen/Core</text>
</a>
</g>
</g>
<!-- Node9&#45;&gt;Node10 -->
<g id="edge9" class="edge">
<title>Node9&#45;&gt;Node10</title>
<path fill="none" stroke="midnightblue" d="M401.78,-240.73C396.48,-230.89 387.74,-214.66 381.01,-202.16"/>
<polygon fill="midnightblue" stroke="midnightblue" points="383.97,-200.27 376.15,-193.13 377.8,-203.59 383.97,-200.27"/>
</g>
<!-- Node11 -->
<g id="node11" class="node">
<title>Node11</title>
<g id="a_node11"><a xlink:title=" ">
<polygon fill="white" stroke="#bfbfbf" points="422,-174 422,-193 493,-193 493,-174 422,-174"/>
<text text-anchor="middle" x="457.5" y="-181" font-family="Helvetica,sans-Serif" font-size="10.00">Eigen/Dense</text>
</a>
</g>
</g>
<!-- Node9&#45;&gt;Node11 -->
<g id="edge10" class="edge">
<title>Node9&#45;&gt;Node11</title>
<path fill="none" stroke="midnightblue" d="M413.38,-240.73C421.33,-230.6 434.6,-213.69 444.51,-201.06"/>
<polygon fill="midnightblue" stroke="midnightblue" points="447.31,-203.16 450.73,-193.13 441.8,-198.83 447.31,-203.16"/>
</g>
<!-- Node12 -->
<g id="node12" class="node">
<title>Node12</title>
<g id="a_node12"><a xlink:title=" ">
<polygon fill="white" stroke="#bfbfbf" points="511,-168.5 511,-198.5 642,-198.5 642,-168.5 511,-168.5"/>
<text text-anchor="start" x="519" y="-186.5" font-family="Helvetica,sans-Serif" font-size="10.00">unsupported/Eigen/CXX11</text>
<text text-anchor="middle" x="576.5" y="-175.5" font-family="Helvetica,sans-Serif" font-size="10.00">/Tensor</text>
</a>
</g>
</g>
<!-- Node9&#45;&gt;Node12 -->
<g id="edge11" class="edge">
<title>Node9&#45;&gt;Node12</title>
<path fill="none" stroke="midnightblue" d="M429.07,-240.87C454.8,-231.03 497.54,-214.69 530.4,-202.13"/>
<polygon fill="midnightblue" stroke="midnightblue" points="531.72,-205.37 539.81,-198.53 529.22,-198.83 531.72,-205.37"/>
</g>
</g>
</svg>
