<?xml version="1.0" encoding="UTF-8" standalone="no"?>
<!DOCTYPE svg PUBLIC "-//W3C//DTD SVG 1.1//EN"
 "http://www.w3.org/Graphics/SVG/1.1/DTD/svg11.dtd">
<!-- Generated by graphviz version 2.44.0 ()
 -->
<!-- Title: modules/materials/ADVonMises/include/Marmot/ADVonMises.h Pages: 1 -->
<!--zoomable 341 -->
<svg id="main" version="1.1" xmlns="http://www.w3.org/2000/svg" xmlns:xlink="http://www.w3.org/1999/xlink" xml:space="preserve" onload="init(evt)">
<style type="text/css"><![CDATA[
.edge:hover path { stroke: red; }
.edge:hover polygon { stroke: red; fill: red; }
]]></style>
<script type="text/javascript"><![CDATA[
var edges = document.getElementsByTagName('g');
if (edges && edges.length) {
  for (var i=0;i<edges.length;i++) {
    if (edges[i].id.substr(0,4)=='edge') {
      edges[i].setAttribute('class','edge');
    }
  }
}
]]></script>
        <defs>
                <circle id="rim" cx="0" cy="0" r="7"/>
                <circle id="rim2" cx="0" cy="0" r="3.5"/>
                <g id="zoomPlus">
                        <use xlink:href="#rim" fill="#404040">
                                <set attributeName="fill" to="#808080" begin="zoomplus.mouseover" end="zoomplus.mouseout"/>
                        </use>
                        <path d="M-4,0h8M0,-4v8" fill="none" stroke="white" stroke-width="1.5" pointer-events="none"/>
                </g>
                <g id="zoomMin">
                        <use xlink:href="#rim" fill="#404040">
                                <set attributeName="fill" to="#808080" begin="zoomminus.mouseover" end="zoomminus.mouseout"/>
                        </use>
                        <path d="M-4,0h8" fill="none" stroke="white" stroke-width="1.5" pointer-events="none"/>
                </g>
                <g id="dirArrow">
                        <path fill="none" stroke="white" stroke-width="1.5" d="M0,-3.0v7 M-2.5,-0.5L0,-3.0L2.5,-0.5"/>
                </g>
               <g id="resetDef">
                       <use xlink:href="#rim2" fill="#404040">
                               <set attributeName="fill" to="#808080" begin="reset.mouseover" end="reset.mouseout"/>
                       </use>
               </g>
        </defs>

<script type="text/javascript">
var viewWidth = 1086;
var viewHeight = 341;
var sectionId = 'dynsection-0';
</script>
<script xlink:href="svgpan.js"/>
<svg id="graph" class="graph">
<g id="viewport">
<title>modules/materials/ADVonMises/include/Marmot/ADVonMises.h</title>
<polygon fill="white" stroke="transparent" points="-4,4 -4,-337 1081.5,-337 1081.5,4 -4,4"/>
<!-- Node1 -->
<g id="node1" class="node">
<title>Node1</title>
<g id="a_node1"><a xlink:title=" ">
<polygon fill="#bfbfbf" stroke="black" points="587.5,-302.5 587.5,-332.5 743.5,-332.5 743.5,-302.5 587.5,-302.5"/>
<text text-anchor="start" x="595.5" y="-320.5" font-family="Helvetica,sans-Serif" font-size="10.00">modules/materials/ADVonMises</text>
<text text-anchor="middle" x="665.5" y="-309.5" font-family="Helvetica,sans-Serif" font-size="10.00">/include/Marmot/ADVonMises.h</text>
</a>
</g>
</g>
<!-- Node2 -->
<g id="node2" class="node">
<title>Node2</title>
<g id="a_node2"><a xlink:href="MarmotConstants_8h.html" target="_top" xlink:title=" ">
<polygon fill="white" stroke="black" points="0,-241 0,-260 137,-260 137,-241 0,-241"/>
<text text-anchor="middle" x="68.5" y="-248" font-family="Helvetica,sans-Serif" font-size="10.00">Marmot/MarmotConstants.h</text>
</a>
</g>
</g>
<!-- Node1&#45;&gt;Node2 -->
<g id="edge1" class="edge">
<title>Node1&#45;&gt;Node2</title>
<path fill="none" stroke="midnightblue" d="M587.41,-309.08C491.16,-299.77 322.65,-282.97 178.5,-266 166.27,-264.56 153.29,-262.94 140.7,-261.31"/>
<polygon fill="midnightblue" stroke="midnightblue" points="141.08,-257.83 130.71,-260.01 140.17,-264.77 141.08,-257.83"/>
</g>
<!-- Node4 -->
<g id="node4" class="node">
<title>Node4</title>
<g id="a_node4"><a xlink:href="MarmotMaterialHypoElasticAD_8h.html" target="_top" xlink:title=" ">
<polygon fill="white" stroke="black" points="235,-235.5 235,-265.5 378,-265.5 378,-235.5 235,-235.5"/>
<text text-anchor="start" x="243" y="-253.5" font-family="Helvetica,sans-Serif" font-size="10.00">Marmot/MarmotMaterialHypo</text>
<text text-anchor="middle" x="306.5" y="-242.5" font-family="Helvetica,sans-Serif" font-size="10.00">ElasticAD.h</text>
</a>
</g>
</g>
<!-- Node1&#45;&gt;Node4 -->
<g id="edge3" class="edge">
<title>Node1&#45;&gt;Node4</title>
<path fill="none" stroke="midnightblue" d="M588.04,-302.48C529.1,-291.8 448.18,-277.15 388.21,-266.29"/>
<polygon fill="midnightblue" stroke="midnightblue" points="388.48,-262.79 378.02,-264.45 387.24,-269.68 388.48,-262.79"/>
</g>
<!-- Node9 -->
<g id="node9" class="node">
<title>Node9</title>
<g id="a_node9"><a xlink:title=" ">
<polygon fill="white" stroke="#bfbfbf" points="595,-0.5 595,-19.5 636,-19.5 636,-0.5 595,-0.5"/>
<text text-anchor="middle" x="615.5" y="-7.5" font-family="Helvetica,sans-Serif" font-size="10.00">string</text>
</a>
</g>
</g>
<!-- Node1&#45;&gt;Node9 -->
<g id="edge23" class="edge">
<title>Node1&#45;&gt;Node9</title>
<path fill="none" stroke="midnightblue" d="M674.9,-302.13C689.39,-278.58 715.5,-229.84 715.5,-184.5 715.5,-184.5 715.5,-184.5 715.5,-121 715.5,-76.98 671.12,-42.8 641.49,-24.87"/>
<polygon fill="midnightblue" stroke="midnightblue" points="642.87,-21.63 632.46,-19.64 639.36,-27.68 642.87,-21.63"/>
</g>
<!-- Node10 -->
<g id="node10" class="node">
<title>Node10</title>
<g id="a_node10"><a xlink:title=" ">
<polygon fill="white" stroke="#bfbfbf" points="94.5,-174 94.5,-193 216.5,-193 216.5,-174 94.5,-174"/>
<text text-anchor="middle" x="155.5" y="-181" font-family="Helvetica,sans-Serif" font-size="10.00">autodiff/forward/dual.hpp</text>
</a>
</g>
</g>
<!-- Node1&#45;&gt;Node10 -->
<g id="edge20" class="edge">
<title>Node1&#45;&gt;Node10</title>
<path fill="none" stroke="midnightblue" d="M587.44,-314.33C478.26,-310.16 286.46,-298.34 225.5,-266 198,-251.41 176.6,-221.2 165.04,-201.94"/>
<polygon fill="midnightblue" stroke="midnightblue" points="167.93,-199.94 159.91,-193.01 161.86,-203.42 167.93,-199.94"/>
</g>
<!-- Node11 -->
<g id="node11" class="node">
<title>Node11</title>
<g id="a_node11"><a xlink:href="MarmotStateVarVectorManager_8h.html" target="_top" xlink:title=" ">
<polygon fill="white" stroke="black" points="477.5,-235.5 477.5,-265.5 629.5,-265.5 629.5,-235.5 477.5,-235.5"/>
<text text-anchor="start" x="485.5" y="-253.5" font-family="Helvetica,sans-Serif" font-size="10.00">Marmot/MarmotStateVarVector</text>
<text text-anchor="middle" x="553.5" y="-242.5" font-family="Helvetica,sans-Serif" font-size="10.00">Manager.h</text>
</a>
</g>
</g>
<!-- Node1&#45;&gt;Node11 -->
<g id="edge10" class="edge">
<title>Node1&#45;&gt;Node11</title>
<path fill="none" stroke="midnightblue" d="M641.2,-302.4C625.2,-293.11 604.06,-280.84 586.54,-270.67"/>
<polygon fill="midnightblue" stroke="midnightblue" points="588.16,-267.57 577.75,-265.58 584.65,-273.62 588.16,-267.57"/>
</g>
<!-- Node14 -->
<g id="node14" class="node">
<title>Node14</title>
<g id="a_node14"><a xlink:title=" ">
<polygon fill="white" stroke="#bfbfbf" points="643.5,-174 643.5,-193 687.5,-193 687.5,-174 643.5,-174"/>
<text text-anchor="middle" x="665.5" y="-181" font-family="Helvetica,sans-Serif" font-size="10.00">vector</text>
</a>
</g>
</g>
<!-- Node1&#45;&gt;Node14 -->
<g id="edge24" class="edge">
<title>Node1&#45;&gt;Node14</title>
<path fill="none" stroke="midnightblue" d="M665.5,-302.37C665.5,-278.5 665.5,-230.18 665.5,-203.41"/>
<polygon fill="midnightblue" stroke="midnightblue" points="669,-203.1 665.5,-193.1 662,-203.1 669,-203.1"/>
</g>
<!-- Node15 -->
<g id="node15" class="node">
<title>Node15</title>
<g id="a_node15"><a xlink:href="MarmotTypedefs_8h.html" target="_top" xlink:title=" ">
<polygon fill="white" stroke="black" points="744,-241 744,-260 877,-260 877,-241 744,-241"/>
<text text-anchor="middle" x="810.5" y="-248" font-family="Helvetica,sans-Serif" font-size="10.00">Marmot/MarmotTypedefs.h</text>
</a>
</g>
</g>
<!-- Node1&#45;&gt;Node15 -->
<g id="edge16" class="edge">
<title>Node1&#45;&gt;Node15</title>
<path fill="none" stroke="midnightblue" d="M696.96,-302.4C722.4,-290.99 757.9,-275.08 782.4,-264.1"/>
<polygon fill="midnightblue" stroke="midnightblue" points="783.83,-267.29 791.52,-260.01 780.97,-260.9 783.83,-267.29"/>
</g>
<!-- Node19 -->
<g id="node19" class="node">
<title>Node19</title>
<g id="a_node19"><a xlink:title=" ">
<polygon fill="white" stroke="#bfbfbf" points="895.5,-241 895.5,-260 1005.5,-260 1005.5,-241 895.5,-241"/>
<text text-anchor="middle" x="950.5" y="-248" font-family="Helvetica,sans-Serif" font-size="10.00">Eigen/src/Core/Map.h</text>
</a>
</g>
</g>
<!-- Node1&#45;&gt;Node19 -->
<g id="edge21" class="edge">
<title>Node1&#45;&gt;Node19</title>
<path fill="none" stroke="midnightblue" d="M726.99,-302.48C779.85,-290.42 854.98,-273.29 903.23,-262.28"/>
<polygon fill="midnightblue" stroke="midnightblue" points="904.13,-265.66 913.11,-260.03 902.58,-258.84 904.13,-265.66"/>
</g>
<!-- Node20 -->
<g id="node20" class="node">
<title>Node20</title>
<g id="a_node20"><a xlink:title=" ">
<polygon fill="white" stroke="#bfbfbf" points="1023.5,-241 1023.5,-260 1077.5,-260 1077.5,-241 1023.5,-241"/>
<text text-anchor="middle" x="1050.5" y="-248" font-family="Helvetica,sans-Serif" font-size="10.00">iostream</text>
</a>
</g>
</g>
<!-- Node1&#45;&gt;Node20 -->
<g id="edge22" class="edge">
<title>Node1&#45;&gt;Node20</title>
<path fill="none" stroke="midnightblue" d="M743.51,-310.59C814.96,-303.91 923.17,-290.62 1014.5,-266 1017,-265.32 1019.57,-264.52 1022.12,-263.65"/>
<polygon fill="midnightblue" stroke="midnightblue" points="1023.6,-266.84 1031.73,-260.04 1021.14,-260.28 1023.6,-266.84"/>
</g>
<!-- Node3 -->
<g id="node3" class="node">
<title>Node3</title>
<g id="a_node3"><a xlink:title=" ">
<polygon fill="white" stroke="#bfbfbf" points="32.5,-174 32.5,-193 76.5,-193 76.5,-174 32.5,-174"/>
<text text-anchor="middle" x="54.5" y="-181" font-family="Helvetica,sans-Serif" font-size="10.00">cmath</text>
</a>
</g>
</g>
<!-- Node2&#45;&gt;Node3 -->
<g id="edge2" class="edge">
<title>Node2&#45;&gt;Node3</title>
<path fill="none" stroke="midnightblue" d="M66.61,-240.73C64.53,-231.09 61.13,-215.3 58.46,-202.91"/>
<polygon fill="midnightblue" stroke="midnightblue" points="61.89,-202.17 56.36,-193.13 55.04,-203.64 61.89,-202.17"/>
</g>
<!-- Node5 -->
<g id="node5" class="node">
<title>Node5</title>
<g id="a_node5"><a xlink:href="MarmotMaterialHypoElastic_8h.html" target="_top" xlink:title=" ">
<polygon fill="white" stroke="black" points="235,-168.5 235,-198.5 378,-198.5 378,-168.5 235,-168.5"/>
<text text-anchor="start" x="243" y="-186.5" font-family="Helvetica,sans-Serif" font-size="10.00">Marmot/MarmotMaterialHypo</text>
<text text-anchor="middle" x="306.5" y="-175.5" font-family="Helvetica,sans-Serif" font-size="10.00">Elastic.h</text>
</a>
</g>
</g>
<!-- Node4&#45;&gt;Node5 -->
<g id="edge4" class="edge">
<title>Node4&#45;&gt;Node5</title>
<path fill="none" stroke="midnightblue" d="M306.5,-235.4C306.5,-227.64 306.5,-217.81 306.5,-208.86"/>
<polygon fill="midnightblue" stroke="midnightblue" points="310,-208.58 306.5,-198.58 303,-208.58 310,-208.58"/>
</g>
<!-- Node4&#45;&gt;Node10 -->
<g id="edge9" class="edge">
<title>Node4&#45;&gt;Node10</title>
<path fill="none" stroke="midnightblue" d="M273.74,-235.4C247.24,-223.99 210.28,-208.08 184.77,-197.1"/>
<polygon fill="midnightblue" stroke="midnightblue" points="185.83,-193.75 175.26,-193.01 183.06,-200.18 185.83,-193.75"/>
</g>
<!-- Node6 -->
<g id="node6" class="node">
<title>Node6</title>
<g id="a_node6"><a xlink:href="MarmotMaterialMechanical_8h.html" target="_top" xlink:title=" ">
<polygon fill="white" stroke="black" points="202,-112.5 202,-131.5 379,-131.5 379,-112.5 202,-112.5"/>
<text text-anchor="middle" x="290.5" y="-119.5" font-family="Helvetica,sans-Serif" font-size="10.00">Marmot/MarmotMaterialMechanical.h</text>
</a>
</g>
</g>
<!-- Node5&#45;&gt;Node6 -->
<g id="edge5" class="edge">
<title>Node5&#45;&gt;Node6</title>
<path fill="none" stroke="midnightblue" d="M302.71,-168.4C300.55,-160.38 297.82,-150.23 295.49,-141.57"/>
<polygon fill="midnightblue" stroke="midnightblue" points="298.8,-140.41 292.83,-131.66 292.05,-142.22 298.8,-140.41"/>
</g>
<!-- Node7 -->
<g id="node7" class="node">
<title>Node7</title>
<g id="a_node7"><a xlink:href="MarmotMaterial_8h.html" target="_top" xlink:title=" ">
<polygon fill="white" stroke="black" points="250.5,-56.5 250.5,-75.5 378.5,-75.5 378.5,-56.5 250.5,-56.5"/>
<text text-anchor="middle" x="314.5" y="-63.5" font-family="Helvetica,sans-Serif" font-size="10.00">Marmot/MarmotMaterial.h</text>
</a>
</g>
</g>
<!-- Node6&#45;&gt;Node7 -->
<g id="edge6" class="edge">
<title>Node6&#45;&gt;Node7</title>
<path fill="none" stroke="midnightblue" d="M294.46,-112.08C297.71,-104.77 302.42,-94.18 306.45,-85.1"/>
<polygon fill="midnightblue" stroke="midnightblue" points="309.75,-86.31 310.61,-75.75 303.35,-83.47 309.75,-86.31"/>
</g>
<!-- Node8 -->
<g id="node8" class="node">
<title>Node8</title>
<g id="a_node8"><a xlink:href="MarmotUtils_8h.html" target="_top" xlink:title=" ">
<polygon fill="white" stroke="black" points="304,-0.5 304,-19.5 417,-19.5 417,-0.5 304,-0.5"/>
<text text-anchor="middle" x="360.5" y="-7.5" font-family="Helvetica,sans-Serif" font-size="10.00">Marmot/MarmotUtils.h</text>
</a>
</g>
</g>
<!-- Node7&#45;&gt;Node8 -->
<g id="edge7" class="edge">
<title>Node7&#45;&gt;Node8</title>
<path fill="none" stroke="midnightblue" d="M322.1,-56.08C328.73,-48.3 338.52,-36.8 346.56,-27.37"/>
<polygon fill="midnightblue" stroke="midnightblue" points="349.23,-29.63 353.05,-19.75 343.9,-25.09 349.23,-29.63"/>
</g>
<!-- Node7&#45;&gt;Node9 -->
<g id="edge8" class="edge">
<title>Node7&#45;&gt;Node9</title>
<path fill="none" stroke="midnightblue" d="M362.19,-56.44C424.54,-45.26 531.97,-25.99 584.61,-16.54"/>
<polygon fill="midnightblue" stroke="midnightblue" points="585.45,-19.95 594.68,-14.74 584.21,-13.06 585.45,-19.95"/>
</g>
<!-- Node11&#45;&gt;Node8 -->
<g id="edge11" class="edge">
<title>Node11&#45;&gt;Node8</title>
<path fill="none" stroke="midnightblue" d="M484.87,-235.4C463.24,-227.87 440.99,-216.4 425.5,-199 381.77,-149.88 413.11,-116.57 387.5,-56 383.42,-46.35 377.56,-36.29 372.34,-28.13"/>
<polygon fill="midnightblue" stroke="midnightblue" points="375.1,-25.97 366.65,-19.57 369.27,-29.84 375.1,-25.97"/>
</g>
<!-- Node11&#45;&gt;Node9 -->
<g id="edge13" class="edge">
<title>Node11&#45;&gt;Node9</title>
<path fill="none" stroke="midnightblue" d="M569.39,-235.19C578.66,-225.86 589.64,-212.86 595.5,-199 619.95,-141.14 619.02,-64.73 617,-29.84"/>
<polygon fill="midnightblue" stroke="midnightblue" points="620.47,-29.42 616.3,-19.68 613.49,-29.9 620.47,-29.42"/>
</g>
<!-- Node12 -->
<g id="node12" class="node">
<title>Node12</title>
<g id="a_node12"><a xlink:title=" ">
<polygon fill="white" stroke="#bfbfbf" points="435,-174 435,-193 486,-193 486,-174 435,-174"/>
<text text-anchor="middle" x="460.5" y="-181" font-family="Helvetica,sans-Serif" font-size="10.00">memory</text>
</a>
</g>
</g>
<!-- Node11&#45;&gt;Node12 -->
<g id="edge12" class="edge">
<title>Node11&#45;&gt;Node12</title>
<path fill="none" stroke="midnightblue" d="M533.32,-235.4C517.87,-224.6 496.64,-209.76 481.08,-198.89"/>
<polygon fill="midnightblue" stroke="midnightblue" points="482.87,-195.87 472.67,-193.01 478.86,-201.6 482.87,-195.87"/>
</g>
<!-- Node13 -->
<g id="node13" class="node">
<title>Node13</title>
<g id="a_node13"><a xlink:title=" ">
<polygon fill="white" stroke="#bfbfbf" points="504,-174 504,-193 587,-193 587,-174 504,-174"/>
<text text-anchor="middle" x="545.5" y="-181" font-family="Helvetica,sans-Serif" font-size="10.00">unordered_map</text>
</a>
</g>
</g>
<!-- Node11&#45;&gt;Node13 -->
<g id="edge14" class="edge">
<title>Node11&#45;&gt;Node13</title>
<path fill="none" stroke="midnightblue" d="M551.76,-235.4C550.6,-225.96 549.06,-213.45 547.8,-203.19"/>
<polygon fill="midnightblue" stroke="midnightblue" points="551.27,-202.69 546.57,-193.19 544.32,-203.55 551.27,-202.69"/>
</g>
<!-- Node11&#45;&gt;Node14 -->
<g id="edge15" class="edge">
<title>Node11&#45;&gt;Node14</title>
<path fill="none" stroke="midnightblue" d="M577.8,-235.4C596.85,-224.34 623.18,-209.06 642.01,-198.13"/>
<polygon fill="midnightblue" stroke="midnightblue" points="643.95,-201.05 650.84,-193.01 640.44,-195 643.95,-201.05"/>
</g>
<!-- Node16 -->
<g id="node16" class="node">
<title>Node16</title>
<g id="a_node16"><a xlink:title=" ">
<polygon fill="white" stroke="#bfbfbf" points="743.5,-174 743.5,-193 807.5,-193 807.5,-174 743.5,-174"/>
<text text-anchor="middle" x="775.5" y="-181" font-family="Helvetica,sans-Serif" font-size="10.00">Eigen/Core</text>
</a>
</g>
</g>
<!-- Node15&#45;&gt;Node16 -->
<g id="edge17" class="edge">
<title>Node15&#45;&gt;Node16</title>
<path fill="none" stroke="midnightblue" d="M805.78,-240.73C800.48,-230.89 791.74,-214.66 785.01,-202.16"/>
<polygon fill="midnightblue" stroke="midnightblue" points="787.97,-200.27 780.15,-193.13 781.8,-203.59 787.97,-200.27"/>
</g>
<!-- Node17 -->
<g id="node17" class="node">
<title>Node17</title>
<g id="a_node17"><a xlink:title=" ">
<polygon fill="white" stroke="#bfbfbf" points="826,-174 826,-193 897,-193 897,-174 826,-174"/>
<text text-anchor="middle" x="861.5" y="-181" font-family="Helvetica,sans-Serif" font-size="10.00">Eigen/Dense</text>
</a>
</g>
</g>
<!-- Node15&#45;&gt;Node17 -->
<g id="edge18" class="edge">
<title>Node15&#45;&gt;Node17</title>
<path fill="none" stroke="midnightblue" d="M817.38,-240.73C825.33,-230.6 838.6,-213.69 848.51,-201.06"/>
<polygon fill="midnightblue" stroke="midnightblue" points="851.31,-203.16 854.73,-193.13 845.8,-198.83 851.31,-203.16"/>
</g>
<!-- Node18 -->
<g id="node18" class="node">
<title>Node18</title>
<g id="a_node18"><a xlink:title=" ">
<polygon fill="white" stroke="#bfbfbf" points="915,-168.5 915,-198.5 1046,-198.5 1046,-168.5 915,-168.5"/>
<text text-anchor="start" x="923" y="-186.5" font-family="Helvetica,sans-Serif" font-size="10.00">unsupported/Eigen/CXX11</text>
<text text-anchor="middle" x="980.5" y="-175.5" font-family="Helvetica,sans-Serif" font-size="10.00">/Tensor</text>
</a>
</g>
</g>
<!-- Node15&#45;&gt;Node18 -->
<g id="edge19" class="edge">
<title>Node15&#45;&gt;Node18</title>
<path fill="none" stroke="midnightblue" d="M833.07,-240.87C858.8,-231.03 901.54,-214.69 934.4,-202.13"/>
<polygon fill="midnightblue" stroke="midnightblue" points="935.72,-205.37 943.81,-198.53 933.22,-198.83 935.72,-205.37"/>
</g>
</g>
</svg>
        <g id="navigator" transform="translate(0 0)" fill="#404254">
                <rect fill="#f2f5e9" fill-opacity="0.5" stroke="#606060" stroke-width=".5" x="0" y="0" width="60" height="60"/>
                <use id="zoomplus" xlink:href="#zoomPlus" x="17" y="9" onmousedown="handleZoom(evt,'in')"/>
                <use id="zoomminus" xlink:href="#zoomMin" x="42" y="9" onmousedown="handleZoom(evt,'out')"/>
                <use id="reset" xlink:href="#resetDef" x="30" y="36" onmousedown="handleReset()"/>
                <g id="arrowUp" xlink:href="#dirArrow" transform="translate(30 24)" onmousedown="handlePan(0,-1)">
                  <use xlink:href="#rim" fill="#404040">
                        <set attributeName="fill" to="#808080" begin="arrowUp.mouseover" end="arrowUp.mouseout"/>
                  </use>
                  <path fill="none" stroke="white" stroke-width="1.5" d="M0,-3.0v7 M-2.5,-0.5L0,-3.0L2.5,-0.5"/>
                </g>
                <g id="arrowRight" xlink:href="#dirArrow" transform="rotate(90) translate(36 -43)" onmousedown="handlePan(1,0)">
                  <use xlink:href="#rim" fill="#404040">
                        <set attributeName="fill" to="#808080" begin="arrowRight.mouseover" end="arrowRight.mouseout"/>
                  </use>
                  <path fill="none" stroke="white" stroke-width="1.5" d="M0,-3.0v7 M-2.5,-0.5L0,-3.0L2.5,-0.5"/>
                </g>
                <g id="arrowDown" xlink:href="#dirArrow" transform="rotate(180) translate(-30 -48)" onmousedown="handlePan(0,1)">
                  <use xlink:href="#rim" fill="#404040">
                        <set attributeName="fill" to="#808080" begin="arrowDown.mouseover" end="arrowDown.mouseout"/>
                  </use>
                  <path fill="none" stroke="white" stroke-width="1.5" d="M0,-3.0v7 M-2.5,-0.5L0,-3.0L2.5,-0.5"/>
                </g>
                <g id="arrowLeft" xlink:href="#dirArrow" transform="rotate(270) translate(-36 17)" onmousedown="handlePan(-1,0)">
                  <use xlink:href="#rim" fill="#404040">
                        <set attributeName="fill" to="#808080" begin="arrowLeft.mouseover" end="arrowLeft.mouseout"/>
                  </use>
                  <path fill="none" stroke="white" stroke-width="1.5" d="M0,-3.0v7 M-2.5,-0.5L0,-3.0L2.5,-0.5"/>
                </g>
        </g>
        <svg viewBox="0 0 15 15" width="100%" height="30px" preserveAspectRatio="xMaxYMin meet">
         <g id="arrow_out" transform="scale(0.3 0.3)">
          <a xlink:href="ADVonMises_8h__incl_org.svg" target="_base">
           <rect id="button" ry="5" rx="5" y="6" x="6" height="38" width="38"
                fill="#f2f5e9" fill-opacity="0.5" stroke="#606060" stroke-width="1.0"/>
           <path id="arrow"
             d="M 11.500037,31.436501 C 11.940474,20.09759 22.043105,11.32322 32.158766,21.979434 L 37.068811,17.246167 C 37.068811,17.246167 37.088388,32 37.088388,32 L 22.160133,31.978069 C 22.160133,31.978069 26.997745,27.140456 26.997745,27.140456 C 18.528582,18.264221 13.291696,25.230495 11.500037,31.436501 z"
             style="fill:#404040;"/>
          </a>
         </g>
        </svg>
</svg>
