<?xml version="1.0" encoding="UTF-8" standalone="no"?>
<!DOCTYPE svg PUBLIC "-//W3C//DTD SVG 1.1//EN"
 "http://www.w3.org/Graphics/SVG/1.1/DTD/svg11.dtd">
<!-- Generated by graphviz version 2.44.0 ()
 -->
<!-- Title: modules/materials/B4/src/B4Registration.cpp Pages: 1 -->
<svg width="1740pt" height="363pt"
 viewBox="0.00 0.00 1739.50 363.00" xmlns="http://www.w3.org/2000/svg" xmlns:xlink="http://www.w3.org/1999/xlink">
<g id="graph0" class="graph" transform="scale(1 1) rotate(0) translate(4 359)">
<title>modules/materials/B4/src/B4Registration.cpp</title>
<polygon fill="white" stroke="transparent" points="-4,4 -4,-359 1735.5,-359 1735.5,4 -4,4"/>
<!-- Node1 -->
<g id="node1" class="node">
<title>Node1</title>
<g id="a_node1"><a xlink:title=" ">
<polygon fill="#bfbfbf" stroke="black" points="931.5,-324.5 931.5,-354.5 1049.5,-354.5 1049.5,-324.5 931.5,-324.5"/>
<text text-anchor="start" x="939.5" y="-342.5" font-family="Helvetica,sans-Serif" font-size="10.00">modules/materials/B4</text>
<text text-anchor="middle" x="990.5" y="-331.5" font-family="Helvetica,sans-Serif" font-size="10.00">/src/B4Registration.cpp</text>
</a>
</g>
</g>
<!-- Node2 -->
<g id="node2" class="node">
<title>Node2</title>
<g id="a_node2"><a xlink:href="B4_8h.html" target="_top" xlink:title=" ">
<polygon fill="white" stroke="black" points="884.5,-263 884.5,-282 956.5,-282 956.5,-263 884.5,-263"/>
<text text-anchor="middle" x="920.5" y="-270" font-family="Helvetica,sans-Serif" font-size="10.00">Marmot/B4.h</text>
</a>
</g>
</g>
<!-- Node1&#45;&gt;Node2 -->
<g id="edge1" class="edge">
<title>Node1&#45;&gt;Node2</title>
<path fill="none" stroke="midnightblue" d="M975.31,-324.4C964.18,-314.06 949.06,-300.02 937.53,-289.31"/>
<polygon fill="midnightblue" stroke="midnightblue" points="939.57,-286.43 929.86,-282.19 934.81,-291.56 939.57,-286.43"/>
</g>
<!-- Node22 -->
<g id="node22" class="node">
<title>Node22</title>
<g id="a_node22"><a xlink:href="MarmotMaterialRegistrationHelper_8h.html" target="_top" xlink:title=" ">
<polygon fill="white" stroke="black" points="1066.5,-257.5 1066.5,-287.5 1238.5,-287.5 1238.5,-257.5 1066.5,-257.5"/>
<text text-anchor="start" x="1074.5" y="-275.5" font-family="Helvetica,sans-Serif" font-size="10.00">Marmot/MarmotMaterialRegistration</text>
<text text-anchor="middle" x="1152.5" y="-264.5" font-family="Helvetica,sans-Serif" font-size="10.00">Helper.h</text>
</a>
</g>
</g>
<!-- Node1&#45;&gt;Node22 -->
<g id="edge27" class="edge">
<title>Node1&#45;&gt;Node22</title>
<path fill="none" stroke="midnightblue" d="M1025.65,-324.4C1049.75,-314.73 1081.91,-301.82 1107.82,-291.43"/>
<polygon fill="midnightblue" stroke="midnightblue" points="1109.44,-294.55 1117.42,-287.58 1106.83,-288.05 1109.44,-294.55"/>
</g>
<!-- Node3 -->
<g id="node3" class="node">
<title>Node3</title>
<g id="a_node3"><a xlink:href="MarmotKelvinChain_8h.html" target="_top" xlink:title=" ">
<polygon fill="white" stroke="black" points="403,-129 403,-148 548,-148 548,-129 403,-129"/>
<text text-anchor="middle" x="475.5" y="-136" font-family="Helvetica,sans-Serif" font-size="10.00">Marmot/MarmotKelvinChain.h</text>
</a>
</g>
</g>
<!-- Node2&#45;&gt;Node3 -->
<g id="edge2" class="edge">
<title>Node2&#45;&gt;Node3</title>
<path fill="none" stroke="midnightblue" d="M884.09,-269.79C825.63,-266.1 707.92,-254.78 614.5,-221 568.61,-204.41 520.72,-172.59 494.87,-154"/>
<polygon fill="midnightblue" stroke="midnightblue" points="496.82,-151.09 486.68,-148.02 492.69,-156.74 496.82,-151.09"/>
</g>
<!-- Node11 -->
<g id="node11" class="node">
<title>Node11</title>
<g id="a_node11"><a xlink:href="MarmotMaterialHypoElastic_8h.html" target="_top" xlink:title=" ">
<polygon fill="white" stroke="black" points="899,-190.5 899,-220.5 1042,-220.5 1042,-190.5 899,-190.5"/>
<text text-anchor="start" x="907" y="-208.5" font-family="Helvetica,sans-Serif" font-size="10.00">Marmot/MarmotMaterialHypo</text>
<text text-anchor="middle" x="970.5" y="-197.5" font-family="Helvetica,sans-Serif" font-size="10.00">Elastic.h</text>
</a>
</g>
</g>
<!-- Node2&#45;&gt;Node11 -->
<g id="edge11" class="edge">
<title>Node2&#45;&gt;Node11</title>
<path fill="none" stroke="midnightblue" d="M927.24,-262.73C933.94,-254.03 944.47,-240.34 953.46,-228.65"/>
<polygon fill="midnightblue" stroke="midnightblue" points="956.34,-230.65 959.66,-220.59 950.79,-226.38 956.34,-230.65"/>
</g>
<!-- Node15 -->
<g id="node15" class="node">
<title>Node15</title>
<g id="a_node15"><a xlink:title=" ">
<polygon fill="white" stroke="#bfbfbf" points="1168,-6 1168,-25 1209,-25 1209,-6 1168,-6"/>
<text text-anchor="middle" x="1188.5" y="-13" font-family="Helvetica,sans-Serif" font-size="10.00">string</text>
</a>
</g>
</g>
<!-- Node2&#45;&gt;Node15 -->
<g id="edge25" class="edge">
<title>Node2&#45;&gt;Node15</title>
<path fill="none" stroke="midnightblue" d="M956.59,-263.92C984.74,-256.61 1023.61,-243.29 1051.5,-221 1117.86,-167.97 1163.76,-74 1180.97,-34.64"/>
<polygon fill="midnightblue" stroke="midnightblue" points="1184.27,-35.83 1184.97,-25.26 1177.83,-33.08 1184.27,-35.83"/>
</g>
<!-- Node16 -->
<g id="node16" class="node">
<title>Node16</title>
<g id="a_node16"><a xlink:href="MarmotSolidification_8h.html" target="_top" xlink:title=" ">
<polygon fill="white" stroke="black" points="623.5,-196 623.5,-215 771.5,-215 771.5,-196 623.5,-196"/>
<text text-anchor="middle" x="697.5" y="-203" font-family="Helvetica,sans-Serif" font-size="10.00">Marmot/MarmotSolidification.h</text>
</a>
</g>
</g>
<!-- Node2&#45;&gt;Node16 -->
<g id="edge16" class="edge">
<title>Node2&#45;&gt;Node16</title>
<path fill="none" stroke="midnightblue" d="M890.89,-262.87C851.21,-251.3 780.69,-230.75 736.66,-217.91"/>
<polygon fill="midnightblue" stroke="midnightblue" points="737.46,-214.5 726.88,-215.06 735.5,-221.22 737.46,-214.5"/>
</g>
<!-- Node17 -->
<g id="node17" class="node">
<title>Node17</title>
<g id="a_node17"><a xlink:href="MarmotStateVarVectorManager_8h.html" target="_top" xlink:title=" ">
<polygon fill="white" stroke="black" points="682.5,-123.5 682.5,-153.5 834.5,-153.5 834.5,-123.5 682.5,-123.5"/>
<text text-anchor="start" x="690.5" y="-141.5" font-family="Helvetica,sans-Serif" font-size="10.00">Marmot/MarmotStateVarVector</text>
<text text-anchor="middle" x="758.5" y="-130.5" font-family="Helvetica,sans-Serif" font-size="10.00">Manager.h</text>
</a>
</g>
</g>
<!-- Node2&#45;&gt;Node17 -->
<g id="edge18" class="edge">
<title>Node2&#45;&gt;Node17</title>
<path fill="none" stroke="midnightblue" d="M907.14,-262.85C892.41,-253.15 868.19,-236.72 848.5,-221 824.36,-201.72 798.36,-177.81 780.55,-160.88"/>
<polygon fill="midnightblue" stroke="midnightblue" points="782.62,-158.02 772.97,-153.64 777.78,-163.08 782.62,-158.02"/>
</g>
<!-- Node20 -->
<g id="node20" class="node">
<title>Node20</title>
<g id="a_node20"><a xlink:title=" ">
<polygon fill="white" stroke="#bfbfbf" points="930.5,-67.5 930.5,-86.5 974.5,-86.5 974.5,-67.5 930.5,-67.5"/>
<text text-anchor="middle" x="952.5" y="-74.5" font-family="Helvetica,sans-Serif" font-size="10.00">vector</text>
</a>
</g>
</g>
<!-- Node2&#45;&gt;Node20 -->
<g id="edge26" class="edge">
<title>Node2&#45;&gt;Node20</title>
<path fill="none" stroke="midnightblue" d="M914.08,-262.92C897.22,-239.25 854.78,-171.58 881.5,-123 889.98,-107.58 906.23,-96.7 921.04,-89.51"/>
<polygon fill="midnightblue" stroke="midnightblue" points="922.76,-92.57 930.47,-85.3 919.91,-86.18 922.76,-92.57"/>
</g>
<!-- Node21 -->
<g id="node21" class="node">
<title>Node21</title>
<g id="a_node21"><a xlink:title=" ">
<polygon fill="white" stroke="#bfbfbf" points="1677.5,-6 1677.5,-25 1731.5,-25 1731.5,-6 1677.5,-6"/>
<text text-anchor="middle" x="1704.5" y="-13" font-family="Helvetica,sans-Serif" font-size="10.00">iostream</text>
</a>
</g>
</g>
<!-- Node2&#45;&gt;Node21 -->
<g id="edge24" class="edge">
<title>Node2&#45;&gt;Node21</title>
<path fill="none" stroke="midnightblue" d="M956.66,-267.87C1024.55,-260.79 1175.61,-243.83 1301.5,-221 1431.66,-197.39 1468.71,-203.2 1591.5,-154 1645.7,-132.28 1675.6,-137.73 1704.5,-87 1713.38,-71.41 1712.09,-50.55 1709.36,-35.57"/>
<polygon fill="midnightblue" stroke="midnightblue" points="1712.71,-34.47 1707.15,-25.45 1705.87,-35.97 1712.71,-34.47"/>
</g>
<!-- Node4 -->
<g id="node4" class="node">
<title>Node4</title>
<g id="a_node4"><a xlink:href="MarmotNumericalIntegration_8h.html" target="_top" xlink:title=" ">
<polygon fill="white" stroke="black" points="305,-67.5 305,-86.5 488,-86.5 488,-67.5 305,-67.5"/>
<text text-anchor="middle" x="396.5" y="-74.5" font-family="Helvetica,sans-Serif" font-size="10.00">Marmot/MarmotNumericalIntegration.h</text>
</a>
</g>
</g>
<!-- Node3&#45;&gt;Node4 -->
<g id="edge3" class="edge">
<title>Node3&#45;&gt;Node4</title>
<path fill="none" stroke="midnightblue" d="M464.18,-128.98C451.63,-119.52 431.15,-104.1 416,-92.69"/>
<polygon fill="midnightblue" stroke="midnightblue" points="417.89,-89.73 407.8,-86.51 413.68,-95.32 417.89,-89.73"/>
</g>
<!-- Node5 -->
<g id="node5" class="node">
<title>Node5</title>
<g id="a_node5"><a xlink:title=" ">
<polygon fill="white" stroke="#bfbfbf" points="367,-6 367,-25 426,-25 426,-6 367,-6"/>
<text text-anchor="middle" x="396.5" y="-13" font-family="Helvetica,sans-Serif" font-size="10.00">functional</text>
</a>
</g>
</g>
<!-- Node3&#45;&gt;Node5 -->
<g id="edge10" class="edge">
<title>Node3&#45;&gt;Node5</title>
<path fill="none" stroke="midnightblue" d="M417.43,-128.92C370.67,-120.68 310.35,-106.59 295.5,-87 274.66,-59.51 320.2,-38.67 356.73,-27.01"/>
<polygon fill="midnightblue" stroke="midnightblue" points="358.18,-30.23 366.73,-23.97 356.15,-23.53 358.18,-30.23"/>
</g>
<!-- Node6 -->
<g id="node6" class="node">
<title>Node6</title>
<g id="a_node6"><a xlink:href="MarmotTypedefs_8h.html" target="_top" xlink:title=" ">
<polygon fill="white" stroke="black" points="115,-67.5 115,-86.5 248,-86.5 248,-67.5 115,-67.5"/>
<text text-anchor="middle" x="181.5" y="-74.5" font-family="Helvetica,sans-Serif" font-size="10.00">Marmot/MarmotTypedefs.h</text>
</a>
</g>
</g>
<!-- Node3&#45;&gt;Node6 -->
<g id="edge5" class="edge">
<title>Node3&#45;&gt;Node6</title>
<path fill="none" stroke="midnightblue" d="M433.38,-128.98C380.65,-118.3 290.37,-100.03 233.43,-88.51"/>
<polygon fill="midnightblue" stroke="midnightblue" points="234.04,-85.06 223.54,-86.51 232.65,-91.92 234.04,-85.06"/>
</g>
<!-- Node10 -->
<g id="node10" class="node">
<title>Node10</title>
<g id="a_node10"><a xlink:title=" ">
<polygon fill="white" stroke="#bfbfbf" points="506.5,-67.5 506.5,-86.5 626.5,-86.5 626.5,-67.5 506.5,-67.5"/>
<text text-anchor="middle" x="566.5" y="-74.5" font-family="Helvetica,sans-Serif" font-size="10.00">autodiff/forward/real.hpp</text>
</a>
</g>
</g>
<!-- Node3&#45;&gt;Node10 -->
<g id="edge9" class="edge">
<title>Node3&#45;&gt;Node10</title>
<path fill="none" stroke="midnightblue" d="M488.54,-128.98C503.27,-119.34 527.47,-103.52 545.01,-92.05"/>
<polygon fill="midnightblue" stroke="midnightblue" points="547.03,-94.91 553.49,-86.51 543.2,-89.05 547.03,-94.91"/>
</g>
<!-- Node4&#45;&gt;Node5 -->
<g id="edge4" class="edge">
<title>Node4&#45;&gt;Node5</title>
<path fill="none" stroke="midnightblue" d="M396.5,-67.48C396.5,-59.08 396.5,-45.98 396.5,-35.16"/>
<polygon fill="midnightblue" stroke="midnightblue" points="400,-35.01 396.5,-25.01 393,-35.01 400,-35.01"/>
</g>
<!-- Node7 -->
<g id="node7" class="node">
<title>Node7</title>
<g id="a_node7"><a xlink:title=" ">
<polygon fill="white" stroke="#bfbfbf" points="149.5,-6 149.5,-25 213.5,-25 213.5,-6 149.5,-6"/>
<text text-anchor="middle" x="181.5" y="-13" font-family="Helvetica,sans-Serif" font-size="10.00">Eigen/Core</text>
</a>
</g>
</g>
<!-- Node6&#45;&gt;Node7 -->
<g id="edge6" class="edge">
<title>Node6&#45;&gt;Node7</title>
<path fill="none" stroke="midnightblue" d="M181.5,-67.48C181.5,-59.08 181.5,-45.98 181.5,-35.16"/>
<polygon fill="midnightblue" stroke="midnightblue" points="185,-35.01 181.5,-25.01 178,-35.01 185,-35.01"/>
</g>
<!-- Node8 -->
<g id="node8" class="node">
<title>Node8</title>
<g id="a_node8"><a xlink:title=" ">
<polygon fill="white" stroke="#bfbfbf" points="232,-6 232,-25 303,-25 303,-6 232,-6"/>
<text text-anchor="middle" x="267.5" y="-13" font-family="Helvetica,sans-Serif" font-size="10.00">Eigen/Dense</text>
</a>
</g>
</g>
<!-- Node6&#45;&gt;Node8 -->
<g id="edge7" class="edge">
<title>Node6&#45;&gt;Node8</title>
<path fill="none" stroke="midnightblue" d="M193.82,-67.48C207.62,-57.93 230.2,-42.31 246.73,-30.87"/>
<polygon fill="midnightblue" stroke="midnightblue" points="248.97,-33.58 255.2,-25.01 244.99,-27.82 248.97,-33.58"/>
</g>
<!-- Node9 -->
<g id="node9" class="node">
<title>Node9</title>
<g id="a_node9"><a xlink:title=" ">
<polygon fill="white" stroke="#bfbfbf" points="0,-0.5 0,-30.5 131,-30.5 131,-0.5 0,-0.5"/>
<text text-anchor="start" x="8" y="-18.5" font-family="Helvetica,sans-Serif" font-size="10.00">unsupported/Eigen/CXX11</text>
<text text-anchor="middle" x="65.5" y="-7.5" font-family="Helvetica,sans-Serif" font-size="10.00">/Tensor</text>
</a>
</g>
</g>
<!-- Node6&#45;&gt;Node9 -->
<g id="edge8" class="edge">
<title>Node6&#45;&gt;Node9</title>
<path fill="none" stroke="midnightblue" d="M164.88,-67.48C148.51,-59.08 122.96,-45.97 101.87,-35.15"/>
<polygon fill="midnightblue" stroke="midnightblue" points="103.33,-31.97 92.84,-30.52 100.14,-38.2 103.33,-31.97"/>
</g>
<!-- Node12 -->
<g id="node12" class="node">
<title>Node12</title>
<g id="a_node12"><a xlink:href="MarmotMaterialMechanical_8h.html" target="_top" xlink:title=" ">
<polygon fill="white" stroke="black" points="890,-129 890,-148 1067,-148 1067,-129 890,-129"/>
<text text-anchor="middle" x="978.5" y="-136" font-family="Helvetica,sans-Serif" font-size="10.00">Marmot/MarmotMaterialMechanical.h</text>
</a>
</g>
</g>
<!-- Node11&#45;&gt;Node12 -->
<g id="edge12" class="edge">
<title>Node11&#45;&gt;Node12</title>
<path fill="none" stroke="midnightblue" d="M972.24,-190.4C973.4,-180.96 974.94,-168.45 976.2,-158.19"/>
<polygon fill="midnightblue" stroke="midnightblue" points="979.68,-158.55 977.43,-148.19 972.73,-157.69 979.68,-158.55"/>
</g>
<!-- Node13 -->
<g id="node13" class="node">
<title>Node13</title>
<g id="a_node13"><a xlink:href="MarmotMaterial_8h.html" target="_top" xlink:title=" ">
<polygon fill="white" stroke="black" points="992.5,-67.5 992.5,-86.5 1120.5,-86.5 1120.5,-67.5 992.5,-67.5"/>
<text text-anchor="middle" x="1056.5" y="-74.5" font-family="Helvetica,sans-Serif" font-size="10.00">Marmot/MarmotMaterial.h</text>
</a>
</g>
</g>
<!-- Node12&#45;&gt;Node13 -->
<g id="edge13" class="edge">
<title>Node12&#45;&gt;Node13</title>
<path fill="none" stroke="midnightblue" d="M989.68,-128.98C1002.07,-119.52 1022.29,-104.1 1037.25,-92.69"/>
<polygon fill="midnightblue" stroke="midnightblue" points="1039.52,-95.36 1045.35,-86.51 1035.27,-89.79 1039.52,-95.36"/>
</g>
<!-- Node14 -->
<g id="node14" class="node">
<title>Node14</title>
<g id="a_node14"><a xlink:href="MarmotUtils_8h.html" target="_top" xlink:title=" ">
<polygon fill="white" stroke="black" points="1000,-6 1000,-25 1113,-25 1113,-6 1000,-6"/>
<text text-anchor="middle" x="1056.5" y="-13" font-family="Helvetica,sans-Serif" font-size="10.00">Marmot/MarmotUtils.h</text>
</a>
</g>
</g>
<!-- Node13&#45;&gt;Node14 -->
<g id="edge14" class="edge">
<title>Node13&#45;&gt;Node14</title>
<path fill="none" stroke="midnightblue" d="M1056.5,-67.48C1056.5,-59.08 1056.5,-45.98 1056.5,-35.16"/>
<polygon fill="midnightblue" stroke="midnightblue" points="1060,-35.01 1056.5,-25.01 1053,-35.01 1060,-35.01"/>
</g>
<!-- Node13&#45;&gt;Node15 -->
<g id="edge15" class="edge">
<title>Node13&#45;&gt;Node15</title>
<path fill="none" stroke="midnightblue" d="M1075.41,-67.48C1097.66,-57.45 1134.81,-40.7 1160.43,-29.15"/>
<polygon fill="midnightblue" stroke="midnightblue" points="1161.94,-32.31 1169.62,-25.01 1159.07,-25.93 1161.94,-32.31"/>
</g>
<!-- Node16&#45;&gt;Node3 -->
<g id="edge17" class="edge">
<title>Node16&#45;&gt;Node3</title>
<path fill="none" stroke="midnightblue" d="M668.02,-195.87C628.52,-184.3 558.32,-163.75 514.48,-150.91"/>
<polygon fill="midnightblue" stroke="midnightblue" points="515.33,-147.51 504.75,-148.06 513.36,-154.23 515.33,-147.51"/>
</g>
<!-- Node17&#45;&gt;Node14 -->
<g id="edge19" class="edge">
<title>Node17&#45;&gt;Node14</title>
<path fill="none" stroke="midnightblue" d="M760.1,-123.22C762.7,-107.03 769.42,-81.06 786.5,-67 816.85,-42.01 920.12,-28.26 989.78,-21.64"/>
<polygon fill="midnightblue" stroke="midnightblue" points="990.17,-25.12 999.8,-20.71 989.52,-18.15 990.17,-25.12"/>
</g>
<!-- Node17&#45;&gt;Node15 -->
<g id="edge21" class="edge">
<title>Node17&#45;&gt;Node15</title>
<path fill="none" stroke="midnightblue" d="M766.49,-123.34C776.68,-106.75 795.97,-79.89 820.5,-67 940.14,-4.09 989.22,-53.53 1122.5,-31 1134.07,-29.04 1146.68,-26.4 1157.74,-23.91"/>
<polygon fill="midnightblue" stroke="midnightblue" points="1158.84,-27.25 1167.79,-21.59 1157.26,-20.43 1158.84,-27.25"/>
</g>
<!-- Node18 -->
<g id="node18" class="node">
<title>Node18</title>
<g id="a_node18"><a xlink:title=" ">
<polygon fill="white" stroke="#bfbfbf" points="683,-67.5 683,-86.5 734,-86.5 734,-67.5 683,-67.5"/>
<text text-anchor="middle" x="708.5" y="-74.5" font-family="Helvetica,sans-Serif" font-size="10.00">memory</text>
</a>
</g>
</g>
<!-- Node17&#45;&gt;Node18 -->
<g id="edge20" class="edge">
<title>Node17&#45;&gt;Node18</title>
<path fill="none" stroke="midnightblue" d="M746.65,-123.4C739.39,-114.75 730.05,-103.64 722.43,-94.58"/>
<polygon fill="midnightblue" stroke="midnightblue" points="724.89,-92.06 715.78,-86.66 719.53,-96.57 724.89,-92.06"/>
</g>
<!-- Node19 -->
<g id="node19" class="node">
<title>Node19</title>
<g id="a_node19"><a xlink:title=" ">
<polygon fill="white" stroke="#bfbfbf" points="829,-67.5 829,-86.5 912,-86.5 912,-67.5 829,-67.5"/>
<text text-anchor="middle" x="870.5" y="-74.5" font-family="Helvetica,sans-Serif" font-size="10.00">unordered_map</text>
</a>
</g>
</g>
<!-- Node17&#45;&gt;Node19 -->
<g id="edge22" class="edge">
<title>Node17&#45;&gt;Node19</title>
<path fill="none" stroke="midnightblue" d="M785.04,-123.4C803.16,-113.77 827.04,-101.09 844.94,-91.58"/>
<polygon fill="midnightblue" stroke="midnightblue" points="847.01,-94.44 854.2,-86.66 843.73,-88.26 847.01,-94.44"/>
</g>
<!-- Node17&#45;&gt;Node20 -->
<g id="edge23" class="edge">
<title>Node17&#45;&gt;Node20</title>
<path fill="none" stroke="midnightblue" d="M804.48,-123.4C840.27,-112.42 889.01,-97.47 920.62,-87.78"/>
<polygon fill="midnightblue" stroke="midnightblue" points="921.71,-91.1 930.24,-84.83 919.66,-84.41 921.71,-91.1"/>
</g>
<!-- Node23 -->
<g id="node23" class="node">
<title>Node23</title>
<g id="a_node23"><a xlink:href="Marmot_8h.html" target="_top" xlink:title=" ">
<polygon fill="white" stroke="black" points="1199,-196 1199,-215 1292,-215 1292,-196 1199,-196"/>
<text text-anchor="middle" x="1245.5" y="-203" font-family="Helvetica,sans-Serif" font-size="10.00">Marmot/Marmot.h</text>
</a>
</g>
</g>
<!-- Node22&#45;&gt;Node23 -->
<g id="edge28" class="edge">
<title>Node22&#45;&gt;Node23</title>
<path fill="none" stroke="midnightblue" d="M1172.68,-257.4C1188.13,-246.6 1209.36,-231.76 1224.92,-220.89"/>
<polygon fill="midnightblue" stroke="midnightblue" points="1227.14,-223.6 1233.33,-215.01 1223.13,-217.87 1227.14,-223.6"/>
</g>
<!-- Node23&#45;&gt;Node5 -->
<g id="edge40" class="edge">
<title>Node23&#45;&gt;Node5</title>
<path fill="none" stroke="midnightblue" d="M1198.72,-201.01C1064.03,-190.87 684.15,-161.66 673.5,-154 639.25,-129.36 668.21,-93.65 635.5,-67 605.41,-42.49 496.2,-27.21 436.37,-20.5"/>
<polygon fill="midnightblue" stroke="midnightblue" points="436.47,-16.99 426.15,-19.38 435.71,-23.95 436.47,-16.99"/>
</g>
<!-- Node23&#45;&gt;Node13 -->
<g id="edge39" class="edge">
<title>Node23&#45;&gt;Node13</title>
<path fill="none" stroke="midnightblue" d="M1232.51,-195.81C1200.47,-174.36 1117.41,-118.76 1077.94,-92.35"/>
<polygon fill="midnightblue" stroke="midnightblue" points="1079.59,-89.24 1069.33,-86.59 1075.7,-95.06 1079.59,-89.24"/>
</g>
<!-- Node23&#45;&gt;Node15 -->
<g id="edge42" class="edge">
<title>Node23&#45;&gt;Node15</title>
<path fill="none" stroke="midnightblue" d="M1292.01,-197.86C1382.52,-183.09 1568.04,-142.71 1503.5,-67 1467.19,-24.4 1291.85,-17.59 1219.66,-16.61"/>
<polygon fill="midnightblue" stroke="midnightblue" points="1219.42,-13.11 1209.39,-16.5 1219.35,-20.11 1219.42,-13.11"/>
</g>
<!-- Node23&#45;&gt;Node19 -->
<g id="edge43" class="edge">
<title>Node23&#45;&gt;Node19</title>
<path fill="none" stroke="midnightblue" d="M1221.28,-195.85C1196.43,-186.64 1156.93,-171.07 1124.5,-154 1102.03,-142.17 1099.95,-132.75 1076.5,-123 1062.31,-117.1 978.11,-99.58 921.84,-88.22"/>
<polygon fill="midnightblue" stroke="midnightblue" points="922.52,-84.79 912.03,-86.24 921.14,-91.65 922.52,-84.79"/>
</g>
<!-- Node23&#45;&gt;Node21 -->
<g id="edge41" class="edge">
<title>Node23&#45;&gt;Node21</title>
<path fill="none" stroke="midnightblue" d="M1292.12,-198.36C1394.03,-183.99 1631.82,-144.91 1685.5,-87 1698.54,-72.94 1702.8,-50.87 1704.11,-35.18"/>
<polygon fill="midnightblue" stroke="midnightblue" points="1707.61,-35.25 1704.62,-25.08 1700.62,-34.89 1707.61,-35.25"/>
</g>
<!-- Node24 -->
<g id="node24" class="node">
<title>Node24</title>
<g id="a_node24"><a xlink:href="MarmotElement_8h.html" target="_top" xlink:title=" ">
<polygon fill="white" stroke="black" points="1198.5,-129 1198.5,-148 1326.5,-148 1326.5,-129 1198.5,-129"/>
<text text-anchor="middle" x="1262.5" y="-136" font-family="Helvetica,sans-Serif" font-size="10.00">Marmot/MarmotElement.h</text>
</a>
</g>
</g>
<!-- Node23&#45;&gt;Node24 -->
<g id="edge29" class="edge">
<title>Node23&#45;&gt;Node24</title>
<path fill="none" stroke="midnightblue" d="M1247.79,-195.73C1250.32,-186.09 1254.44,-170.3 1257.69,-157.91"/>
<polygon fill="midnightblue" stroke="midnightblue" points="1261.1,-158.69 1260.24,-148.13 1254.33,-156.92 1261.1,-158.69"/>
</g>
<!-- Node24&#45;&gt;Node14 -->
<g id="edge35" class="edge">
<title>Node24&#45;&gt;Node14</title>
<path fill="none" stroke="midnightblue" d="M1248.01,-128.99C1212.86,-108.34 1122.78,-55.43 1079.89,-30.24"/>
<polygon fill="midnightblue" stroke="midnightblue" points="1081.64,-27.21 1071.25,-25.16 1078.1,-33.24 1081.64,-27.21"/>
</g>
<!-- Node24&#45;&gt;Node15 -->
<g id="edge37" class="edge">
<title>Node24&#45;&gt;Node15</title>
<path fill="none" stroke="midnightblue" d="M1257.18,-128.8C1245.07,-109 1215.28,-60.28 1199.2,-33.99"/>
<polygon fill="midnightblue" stroke="midnightblue" points="1201.98,-31.83 1193.77,-25.12 1196.01,-35.48 1201.98,-31.83"/>
</g>
<!-- Node24&#45;&gt;Node20 -->
<g id="edge38" class="edge">
<title>Node24&#45;&gt;Node20</title>
<path fill="none" stroke="midnightblue" d="M1205.77,-129C1151.36,-120.44 1066.74,-106.11 984.76,-87.11"/>
<polygon fill="midnightblue" stroke="midnightblue" points="985.31,-83.64 974.78,-84.77 983.72,-90.46 985.31,-83.64"/>
</g>
<!-- Node25 -->
<g id="node25" class="node">
<title>Node25</title>
<g id="a_node25"><a xlink:href="MarmotElementProperty_8h.html" target="_top" xlink:title=" ">
<polygon fill="white" stroke="black" points="1330.5,-67.5 1330.5,-86.5 1494.5,-86.5 1494.5,-67.5 1330.5,-67.5"/>
<text text-anchor="middle" x="1412.5" y="-74.5" font-family="Helvetica,sans-Serif" font-size="10.00">Marmot/MarmotElementProperty.h</text>
</a>
</g>
</g>
<!-- Node24&#45;&gt;Node25 -->
<g id="edge30" class="edge">
<title>Node24&#45;&gt;Node25</title>
<path fill="none" stroke="midnightblue" d="M1283.99,-128.98C1309.61,-118.81 1352.61,-101.76 1381.74,-90.2"/>
<polygon fill="midnightblue" stroke="midnightblue" points="1383.04,-93.45 1391.05,-86.51 1380.46,-86.94 1383.04,-93.45"/>
</g>
<!-- Node26 -->
<g id="node26" class="node">
<title>Node26</title>
<g id="a_node26"><a xlink:href="MarmotJournal_8h.html" target="_top" xlink:title=" ">
<polygon fill="white" stroke="black" points="1551,-67.5 1551,-86.5 1676,-86.5 1676,-67.5 1551,-67.5"/>
<text text-anchor="middle" x="1613.5" y="-74.5" font-family="Helvetica,sans-Serif" font-size="10.00">Marmot/MarmotJournal.h</text>
</a>
</g>
</g>
<!-- Node24&#45;&gt;Node26 -->
<g id="edge31" class="edge">
<title>Node24&#45;&gt;Node26</title>
<path fill="none" stroke="midnightblue" d="M1312.79,-128.98C1376.26,-118.22 1485.31,-99.73 1553.19,-88.22"/>
<polygon fill="midnightblue" stroke="midnightblue" points="1554.03,-91.63 1563.3,-86.51 1552.86,-84.73 1554.03,-91.63"/>
</g>
<!-- Node28 -->
<g id="node28" class="node">
<title>Node28</title>
<g id="a_node28"><a xlink:title=" ">
<polygon fill="white" stroke="#bfbfbf" points="1253,-67.5 1253,-86.5 1312,-86.5 1312,-67.5 1253,-67.5"/>
<text text-anchor="middle" x="1282.5" y="-74.5" font-family="Helvetica,sans-Serif" font-size="10.00">stdexcept</text>
</a>
</g>
</g>
<!-- Node24&#45;&gt;Node28 -->
<g id="edge36" class="edge">
<title>Node24&#45;&gt;Node28</title>
<path fill="none" stroke="midnightblue" d="M1265.37,-128.98C1268.22,-120.49 1272.68,-107.2 1276.34,-96.32"/>
<polygon fill="midnightblue" stroke="midnightblue" points="1279.77,-97.1 1279.64,-86.51 1273.14,-94.87 1279.77,-97.1"/>
</g>
<!-- Node26&#45;&gt;Node15 -->
<g id="edge34" class="edge">
<title>Node26&#45;&gt;Node15</title>
<path fill="none" stroke="midnightblue" d="M1552.61,-67.48C1460.48,-54.58 1289.02,-30.57 1219.24,-20.8"/>
<polygon fill="midnightblue" stroke="midnightblue" points="1219.71,-17.33 1209.32,-19.41 1218.74,-24.27 1219.71,-17.33"/>
</g>
<!-- Node26&#45;&gt;Node21 -->
<g id="edge32" class="edge">
<title>Node26&#45;&gt;Node21</title>
<path fill="none" stroke="midnightblue" d="M1626.54,-67.48C1641.27,-57.84 1665.47,-42.02 1683.01,-30.55"/>
<polygon fill="midnightblue" stroke="midnightblue" points="1685.03,-33.41 1691.49,-25.01 1681.2,-27.55 1685.03,-33.41"/>
</g>
<!-- Node27 -->
<g id="node27" class="node">
<title>Node27</title>
<g id="a_node27"><a xlink:title=" ">
<polygon fill="white" stroke="#bfbfbf" points="1587.5,-6 1587.5,-25 1639.5,-25 1639.5,-6 1587.5,-6"/>
<text text-anchor="middle" x="1613.5" y="-13" font-family="Helvetica,sans-Serif" font-size="10.00">sstream</text>
</a>
</g>
</g>
<!-- Node26&#45;&gt;Node27 -->
<g id="edge33" class="edge">
<title>Node26&#45;&gt;Node27</title>
<path fill="none" stroke="midnightblue" d="M1613.5,-67.48C1613.5,-59.08 1613.5,-45.98 1613.5,-35.16"/>
<polygon fill="midnightblue" stroke="midnightblue" points="1617,-35.01 1613.5,-25.01 1610,-35.01 1617,-35.01"/>
</g>
</g>
</svg>
