<?xml version="1.0" encoding="UTF-8" standalone="no"?>
<!DOCTYPE svg PUBLIC "-//W3C//DTD SVG 1.1//EN"
 "http://www.w3.org/Graphics/SVG/1.1/DTD/svg11.dtd">
<!-- Generated by graphviz version 2.44.0 ()
 -->
<!-- Title: modules/materials/B4/src/B4Shrinkage.cpp Pages: 1 -->
<!--zoomable 285 -->
<svg id="main" version="1.1" xmlns="http://www.w3.org/2000/svg" xmlns:xlink="http://www.w3.org/1999/xlink" xml:space="preserve" onload="init(evt)">
<style type="text/css"><![CDATA[
.edge:hover path { stroke: red; }
.edge:hover polygon { stroke: red; fill: red; }
]]></style>
<script type="text/javascript"><![CDATA[
var edges = document.getElementsByTagName('g');
if (edges && edges.length) {
  for (var i=0;i<edges.length;i++) {
    if (edges[i].id.substr(0,4)=='edge') {
      edges[i].setAttribute('class','edge');
    }
  }
}
]]></script>
        <defs>
                <circle id="rim" cx="0" cy="0" r="7"/>
                <circle id="rim2" cx="0" cy="0" r="3.5"/>
                <g id="zoomPlus">
                        <use xlink:href="#rim" fill="#404040">
                                <set attributeName="fill" to="#808080" begin="zoomplus.mouseover" end="zoomplus.mouseout"/>
                        </use>
                        <path d="M-4,0h8M0,-4v8" fill="none" stroke="white" stroke-width="1.5" pointer-events="none"/>
                </g>
                <g id="zoomMin">
                        <use xlink:href="#rim" fill="#404040">
                                <set attributeName="fill" to="#808080" begin="zoomminus.mouseover" end="zoomminus.mouseout"/>
                        </use>
                        <path d="M-4,0h8" fill="none" stroke="white" stroke-width="1.5" pointer-events="none"/>
                </g>
                <g id="dirArrow">
                        <path fill="none" stroke="white" stroke-width="1.5" d="M0,-3.0v7 M-2.5,-0.5L0,-3.0L2.5,-0.5"/>
                </g>
               <g id="resetDef">
                       <use xlink:href="#rim2" fill="#404040">
                               <set attributeName="fill" to="#808080" begin="reset.mouseover" end="reset.mouseout"/>
                       </use>
               </g>
        </defs>

<script type="text/javascript">
var viewWidth = 1131;
var viewHeight = 285;
var sectionId = 'dynsection-0';
</script>
<script xlink:href="svgpan.js"/>
<svg id="graph" class="graph">
<g id="viewport">
<title>modules/materials/B4/src/B4Shrinkage.cpp</title>
<polygon fill="white" stroke="transparent" points="-4,4 -4,-281 1127,-281 1127,4 -4,4"/>
<!-- Node1 -->
<g id="node1" class="node">
<title>Node1</title>
<g id="a_node1"><a xlink:title=" ">
<polygon fill="#bfbfbf" stroke="black" points="314.5,-246.5 314.5,-276.5 425.5,-276.5 425.5,-246.5 314.5,-246.5"/>
<text text-anchor="start" x="322.5" y="-264.5" font-family="Helvetica,sans-Serif" font-size="10.00">modules/materials/B4</text>
<text text-anchor="middle" x="370" y="-253.5" font-family="Helvetica,sans-Serif" font-size="10.00">/src/B4Shrinkage.cpp</text>
</a>
</g>
</g>
<!-- Node2 -->
<g id="node2" class="node">
<title>Node2</title>
<g id="a_node2"><a xlink:href="B4Shrinkage_8h.html" target="_top" xlink:title=" ">
<polygon fill="white" stroke="black" points="182,-134.5 182,-153.5 298,-153.5 298,-134.5 182,-134.5"/>
<text text-anchor="middle" x="240" y="-141.5" font-family="Helvetica,sans-Serif" font-size="10.00">Marmot/B4Shrinkage.h</text>
</a>
</g>
</g>
<!-- Node1&#45;&gt;Node2 -->
<g id="edge1" class="edge">
<title>Node1&#45;&gt;Node2</title>
<path fill="none" stroke="midnightblue" d="M316.04,-246.49C295.66,-238.75 273.84,-227.12 259,-210 247.82,-197.1 243.21,-177.93 241.31,-163.74"/>
<polygon fill="midnightblue" stroke="midnightblue" points="244.78,-163.25 240.3,-153.65 237.82,-163.95 244.78,-163.25"/>
</g>
<!-- Node3 -->
<g id="node3" class="node">
<title>Node3</title>
<g id="a_node3"><a xlink:href="MarmotTypedefs_8h.html" target="_top" xlink:title=" ">
<polygon fill="white" stroke="black" points="87.5,-73 87.5,-92 220.5,-92 220.5,-73 87.5,-73"/>
<text text-anchor="middle" x="154" y="-80" font-family="Helvetica,sans-Serif" font-size="10.00">Marmot/MarmotTypedefs.h</text>
</a>
</g>
</g>
<!-- Node1&#45;&gt;Node3 -->
<g id="edge15" class="edge">
<title>Node1&#45;&gt;Node3</title>
<path fill="none" stroke="midnightblue" d="M314.99,-246.48C268.89,-231.63 205.54,-203.33 173,-154 162.65,-138.32 157.92,-117.16 155.77,-102.13"/>
<polygon fill="midnightblue" stroke="midnightblue" points="159.22,-101.54 154.57,-92.02 152.27,-102.36 159.22,-101.54"/>
</g>
<!-- Node7 -->
<g id="node7" class="node">
<title>Node7</title>
<g id="a_node7"><a xlink:href="MarmotMath_8h.html" target="_top" xlink:title=" ">
<polygon fill="white" stroke="black" points="442.5,-134.5 442.5,-153.5 557.5,-153.5 557.5,-134.5 442.5,-134.5"/>
<text text-anchor="middle" x="500" y="-141.5" font-family="Helvetica,sans-Serif" font-size="10.00">Marmot/MarmotMath.h</text>
</a>
</g>
</g>
<!-- Node1&#45;&gt;Node7 -->
<g id="edge6" class="edge">
<title>Node1&#45;&gt;Node7</title>
<path fill="none" stroke="midnightblue" d="M380.91,-246.3C392.8,-231.35 412.82,-207.57 433,-190 446.48,-178.26 463.16,-167.05 476.51,-158.75"/>
<polygon fill="midnightblue" stroke="midnightblue" points="478.41,-161.69 485.13,-153.5 474.77,-155.71 478.41,-161.69"/>
</g>
<!-- Node15 -->
<g id="node15" class="node">
<title>Node15</title>
<g id="a_node15"><a xlink:href="MarmotUtility_8h.html" target="_top" xlink:title=" ">
<polygon fill="white" stroke="black" points="268,-190.5 268,-209.5 386,-209.5 386,-190.5 268,-190.5"/>
<text text-anchor="middle" x="327" y="-197.5" font-family="Helvetica,sans-Serif" font-size="10.00">Marmot/MarmotUtility.h</text>
</a>
</g>
</g>
<!-- Node1&#45;&gt;Node15 -->
<g id="edge16" class="edge">
<title>Node1&#45;&gt;Node15</title>
<path fill="none" stroke="midnightblue" d="M359.81,-246.4C353.63,-237.84 345.7,-226.87 339.18,-217.86"/>
<polygon fill="midnightblue" stroke="midnightblue" points="341.95,-215.71 333.26,-209.66 336.28,-219.81 341.95,-215.71"/>
</g>
<!-- Node16 -->
<g id="node16" class="node">
<title>Node16</title>
<g id="a_node16"><a xlink:href="MarmotVoigt_8h.html" target="_top" xlink:title=" ">
<polygon fill="white" stroke="black" points="442,-190.5 442,-209.5 558,-209.5 558,-190.5 442,-190.5"/>
<text text-anchor="middle" x="500" y="-197.5" font-family="Helvetica,sans-Serif" font-size="10.00">Marmot/MarmotVoigt.h</text>
</a>
</g>
</g>
<!-- Node1&#45;&gt;Node16 -->
<g id="edge18" class="edge">
<title>Node1&#45;&gt;Node16</title>
<path fill="none" stroke="midnightblue" d="M400.81,-246.4C422.33,-236.55 450.84,-223.5 471.77,-213.92"/>
<polygon fill="midnightblue" stroke="midnightblue" points="473.45,-217 481.08,-209.66 470.53,-210.64 473.45,-217"/>
</g>
<!-- Node18 -->
<g id="node18" class="node">
<title>Node18</title>
<g id="a_node18"><a xlink:title=" ">
<polygon fill="white" stroke="#bfbfbf" points="1069,-73 1069,-92 1123,-92 1123,-73 1069,-73"/>
<text text-anchor="middle" x="1096" y="-80" font-family="Helvetica,sans-Serif" font-size="10.00">iostream</text>
</a>
</g>
</g>
<!-- Node1&#45;&gt;Node18 -->
<g id="edge25" class="edge">
<title>Node1&#45;&gt;Node18</title>
<path fill="none" stroke="midnightblue" d="M425.56,-257.05C567.34,-247.42 938.72,-216.73 1043,-154 1063.65,-141.58 1078.93,-117.8 1087.65,-101.31"/>
<polygon fill="midnightblue" stroke="midnightblue" points="1090.89,-102.66 1092.22,-92.15 1084.62,-99.54 1090.89,-102.66"/>
</g>
<!-- Node2&#45;&gt;Node3 -->
<g id="edge2" class="edge">
<title>Node2&#45;&gt;Node3</title>
<path fill="none" stroke="midnightblue" d="M227.68,-134.48C213.88,-124.93 191.3,-109.31 174.77,-97.87"/>
<polygon fill="midnightblue" stroke="midnightblue" points="176.51,-94.82 166.3,-92.01 172.53,-100.58 176.51,-94.82"/>
</g>
<!-- Node4 -->
<g id="node4" class="node">
<title>Node4</title>
<g id="a_node4"><a xlink:title=" ">
<polygon fill="white" stroke="#bfbfbf" points="0,-6 0,-25 64,-25 64,-6 0,-6"/>
<text text-anchor="middle" x="32" y="-13" font-family="Helvetica,sans-Serif" font-size="10.00">Eigen/Core</text>
</a>
</g>
</g>
<!-- Node3&#45;&gt;Node4 -->
<g id="edge3" class="edge">
<title>Node3&#45;&gt;Node4</title>
<path fill="none" stroke="midnightblue" d="M137.8,-72.87C117.2,-61.89 81.41,-42.82 57.22,-29.94"/>
<polygon fill="midnightblue" stroke="midnightblue" points="58.74,-26.78 48.27,-25.17 55.45,-32.96 58.74,-26.78"/>
</g>
<!-- Node5 -->
<g id="node5" class="node">
<title>Node5</title>
<g id="a_node5"><a xlink:title=" ">
<polygon fill="white" stroke="#bfbfbf" points="82.5,-6 82.5,-25 153.5,-25 153.5,-6 82.5,-6"/>
<text text-anchor="middle" x="118" y="-13" font-family="Helvetica,sans-Serif" font-size="10.00">Eigen/Dense</text>
</a>
</g>
</g>
<!-- Node3&#45;&gt;Node5 -->
<g id="edge4" class="edge">
<title>Node3&#45;&gt;Node5</title>
<path fill="none" stroke="midnightblue" d="M149.14,-72.73C143.69,-62.89 134.7,-46.66 127.78,-34.16"/>
<polygon fill="midnightblue" stroke="midnightblue" points="130.69,-32.18 122.78,-25.13 124.56,-35.57 130.69,-32.18"/>
</g>
<!-- Node6 -->
<g id="node6" class="node">
<title>Node6</title>
<g id="a_node6"><a xlink:title=" ">
<polygon fill="white" stroke="#bfbfbf" points="171.5,-0.5 171.5,-30.5 302.5,-30.5 302.5,-0.5 171.5,-0.5"/>
<text text-anchor="start" x="179.5" y="-18.5" font-family="Helvetica,sans-Serif" font-size="10.00">unsupported/Eigen/CXX11</text>
<text text-anchor="middle" x="237" y="-7.5" font-family="Helvetica,sans-Serif" font-size="10.00">/Tensor</text>
</a>
</g>
</g>
<!-- Node3&#45;&gt;Node6 -->
<g id="edge5" class="edge">
<title>Node3&#45;&gt;Node6</title>
<path fill="none" stroke="midnightblue" d="M165.19,-72.73C176.84,-63.61 195.5,-49 210.87,-36.96"/>
<polygon fill="midnightblue" stroke="midnightblue" points="213.29,-39.51 219.01,-30.59 208.98,-34 213.29,-39.51"/>
</g>
<!-- Node7&#45;&gt;Node3 -->
<g id="edge9" class="edge">
<title>Node7&#45;&gt;Node3</title>
<path fill="none" stroke="midnightblue" d="M446.66,-134.49C392.15,-125.7 305.08,-111.42 230,-98 222.82,-96.72 215.26,-95.33 207.82,-93.93"/>
<polygon fill="midnightblue" stroke="midnightblue" points="208.25,-90.45 197.77,-92.03 206.95,-97.33 208.25,-90.45"/>
</g>
<!-- Node8 -->
<g id="node8" class="node">
<title>Node8</title>
<g id="a_node8"><a xlink:href="MarmotConstants_8h.html" target="_top" xlink:title=" ">
<polygon fill="white" stroke="black" points="238.5,-73 238.5,-92 375.5,-92 375.5,-73 238.5,-73"/>
<text text-anchor="middle" x="307" y="-80" font-family="Helvetica,sans-Serif" font-size="10.00">Marmot/MarmotConstants.h</text>
</a>
</g>
</g>
<!-- Node7&#45;&gt;Node8 -->
<g id="edge7" class="edge">
<title>Node7&#45;&gt;Node8</title>
<path fill="none" stroke="midnightblue" d="M472.35,-134.48C438.81,-124.14 382.13,-106.66 344.63,-95.1"/>
<polygon fill="midnightblue" stroke="midnightblue" points="345.19,-91.61 334.6,-92.01 343.13,-98.3 345.19,-91.61"/>
</g>
<!-- Node10 -->
<g id="node10" class="node">
<title>Node10</title>
<g id="a_node10"><a xlink:title=" ">
<polygon fill="white" stroke="#bfbfbf" points="394,-73 394,-92 516,-92 516,-73 394,-73"/>
<text text-anchor="middle" x="455" y="-80" font-family="Helvetica,sans-Serif" font-size="10.00">autodiff/forward/dual.hpp</text>
</a>
</g>
</g>
<!-- Node7&#45;&gt;Node10 -->
<g id="edge10" class="edge">
<title>Node7&#45;&gt;Node10</title>
<path fill="none" stroke="midnightblue" d="M493.55,-134.48C486.8,-125.55 476.03,-111.31 467.59,-100.14"/>
<polygon fill="midnightblue" stroke="midnightblue" points="470.26,-97.87 461.44,-92.01 464.68,-102.1 470.26,-97.87"/>
</g>
<!-- Node11 -->
<g id="node11" class="node">
<title>Node11</title>
<g id="a_node11"><a xlink:title=" ">
<polygon fill="white" stroke="#bfbfbf" points="534,-73 534,-92 654,-92 654,-73 534,-73"/>
<text text-anchor="middle" x="594" y="-80" font-family="Helvetica,sans-Serif" font-size="10.00">autodiff/forward/real.hpp</text>
</a>
</g>
</g>
<!-- Node7&#45;&gt;Node11 -->
<g id="edge11" class="edge">
<title>Node7&#45;&gt;Node11</title>
<path fill="none" stroke="midnightblue" d="M513.47,-134.48C528.68,-124.84 553.69,-109.02 571.8,-97.55"/>
<polygon fill="midnightblue" stroke="midnightblue" points="573.98,-100.31 580.56,-92.01 570.24,-94.4 573.98,-100.31"/>
</g>
<!-- Node12 -->
<g id="node12" class="node">
<title>Node12</title>
<g id="a_node12"><a xlink:title=" ">
<polygon fill="white" stroke="#bfbfbf" points="672,-73 672,-92 728,-92 728,-73 672,-73"/>
<text text-anchor="middle" x="700" y="-80" font-family="Helvetica,sans-Serif" font-size="10.00">algorithm</text>
</a>
</g>
</g>
<!-- Node7&#45;&gt;Node12 -->
<g id="edge12" class="edge">
<title>Node7&#45;&gt;Node12</title>
<path fill="none" stroke="midnightblue" d="M534.97,-134.47C568.2,-126.1 619.41,-112.51 663,-98 665.26,-97.25 667.59,-96.43 669.93,-95.59"/>
<polygon fill="midnightblue" stroke="midnightblue" points="671.27,-98.82 679.4,-92.01 668.8,-92.27 671.27,-98.82"/>
</g>
<!-- Node13 -->
<g id="node13" class="node">
<title>Node13</title>
<g id="a_node13"><a xlink:title=" ">
<polygon fill="white" stroke="#bfbfbf" points="746,-67.5 746,-97.5 850,-97.5 850,-67.5 746,-67.5"/>
<text text-anchor="start" x="754" y="-85.5" font-family="Helvetica,sans-Serif" font-size="10.00">autodiff/forward/dual</text>
<text text-anchor="middle" x="798" y="-74.5" font-family="Helvetica,sans-Serif" font-size="10.00">/dual.hpp</text>
</a>
</g>
</g>
<!-- Node7&#45;&gt;Node13 -->
<g id="edge13" class="edge">
<title>Node7&#45;&gt;Node13</title>
<path fill="none" stroke="midnightblue" d="M548.7,-134.43C594.55,-126.2 665.37,-113.11 735.85,-98.19"/>
<polygon fill="midnightblue" stroke="midnightblue" points="736.74,-101.58 745.79,-96.08 735.28,-94.74 736.74,-101.58"/>
</g>
<!-- Node14 -->
<g id="node14" class="node">
<title>Node14</title>
<g id="a_node14"><a xlink:title=" ">
<polygon fill="white" stroke="#bfbfbf" points="868.5,-73 868.5,-92 921.5,-92 921.5,-73 868.5,-73"/>
<text text-anchor="middle" x="895" y="-80" font-family="Helvetica,sans-Serif" font-size="10.00">complex</text>
</a>
</g>
</g>
<!-- Node7&#45;&gt;Node14 -->
<g id="edge14" class="edge">
<title>Node7&#45;&gt;Node14</title>
<path fill="none" stroke="midnightblue" d="M557.75,-140.35C629.41,-136.02 754.88,-125.01 859,-98 861.51,-97.35 864.08,-96.57 866.64,-95.7"/>
<polygon fill="midnightblue" stroke="midnightblue" points="868.11,-98.89 876.25,-92.11 865.66,-92.33 868.11,-98.89"/>
</g>
<!-- Node9 -->
<g id="node9" class="node">
<title>Node9</title>
<g id="a_node9"><a xlink:title=" ">
<polygon fill="white" stroke="#bfbfbf" points="321,-6 321,-25 365,-25 365,-6 321,-6"/>
<text text-anchor="middle" x="343" y="-13" font-family="Helvetica,sans-Serif" font-size="10.00">cmath</text>
</a>
</g>
</g>
<!-- Node8&#45;&gt;Node9 -->
<g id="edge8" class="edge">
<title>Node8&#45;&gt;Node9</title>
<path fill="none" stroke="midnightblue" d="M311.86,-72.73C317.31,-62.89 326.3,-46.66 333.22,-34.16"/>
<polygon fill="midnightblue" stroke="midnightblue" points="336.44,-35.57 338.22,-25.13 330.31,-32.18 336.44,-35.57"/>
</g>
<!-- Node15&#45;&gt;Node3 -->
<g id="edge17" class="edge">
<title>Node15&#45;&gt;Node3</title>
<path fill="none" stroke="midnightblue" d="M326.75,-190.15C325.88,-176.31 322.2,-149.52 307,-134 292.26,-118.96 241.95,-104.15 202.99,-94.49"/>
<polygon fill="midnightblue" stroke="midnightblue" points="203.4,-90.99 192.86,-92.03 201.75,-97.79 203.4,-90.99"/>
</g>
<!-- Node16&#45;&gt;Node3 -->
<g id="edge24" class="edge">
<title>Node16&#45;&gt;Node3</title>
<path fill="none" stroke="midnightblue" d="M478.75,-190.5C446.14,-177.58 381.68,-152.55 326,-134 281.79,-119.27 230.46,-104.5 195.46,-94.77"/>
<polygon fill="midnightblue" stroke="midnightblue" points="196.17,-91.33 185.6,-92.04 194.3,-98.08 196.17,-91.33"/>
</g>
<!-- Node16&#45;&gt;Node7 -->
<g id="edge23" class="edge">
<title>Node16&#45;&gt;Node7</title>
<path fill="none" stroke="midnightblue" d="M500,-190.08C500,-183.01 500,-172.86 500,-163.99"/>
<polygon fill="midnightblue" stroke="midnightblue" points="503.5,-163.75 500,-153.75 496.5,-163.75 503.5,-163.75"/>
</g>
<!-- Node17 -->
<g id="node17" class="node">
<title>Node17</title>
<g id="a_node17"><a xlink:href="MarmotJournal_8h.html" target="_top" xlink:title=" ">
<polygon fill="white" stroke="black" points="908.5,-134.5 908.5,-153.5 1033.5,-153.5 1033.5,-134.5 908.5,-134.5"/>
<text text-anchor="middle" x="971" y="-141.5" font-family="Helvetica,sans-Serif" font-size="10.00">Marmot/MarmotJournal.h</text>
</a>
</g>
</g>
<!-- Node16&#45;&gt;Node17 -->
<g id="edge19" class="edge">
<title>Node16&#45;&gt;Node17</title>
<path fill="none" stroke="midnightblue" d="M558.23,-192.32C644.19,-182.47 804.96,-164.04 898.47,-153.32"/>
<polygon fill="midnightblue" stroke="midnightblue" points="898.88,-156.79 908.41,-152.18 898.08,-149.84 898.88,-156.79"/>
</g>
<!-- Node17&#45;&gt;Node18 -->
<g id="edge20" class="edge">
<title>Node17&#45;&gt;Node18</title>
<path fill="none" stroke="midnightblue" d="M988.91,-134.48C1009.89,-124.49 1044.85,-107.85 1069.09,-96.31"/>
<polygon fill="midnightblue" stroke="midnightblue" points="1070.6,-99.47 1078.12,-92.01 1067.59,-93.15 1070.6,-99.47"/>
</g>
<!-- Node19 -->
<g id="node19" class="node">
<title>Node19</title>
<g id="a_node19"><a xlink:title=" ">
<polygon fill="white" stroke="#bfbfbf" points="999,-73 999,-92 1051,-92 1051,-73 999,-73"/>
<text text-anchor="middle" x="1025" y="-80" font-family="Helvetica,sans-Serif" font-size="10.00">sstream</text>
</a>
</g>
</g>
<!-- Node17&#45;&gt;Node19 -->
<g id="edge21" class="edge">
<title>Node17&#45;&gt;Node19</title>
<path fill="none" stroke="midnightblue" d="M978.74,-134.48C987,-125.37 1000.28,-110.74 1010.49,-99.48"/>
<polygon fill="midnightblue" stroke="midnightblue" points="1013.15,-101.77 1017.28,-92.01 1007.97,-97.06 1013.15,-101.77"/>
</g>
<!-- Node20 -->
<g id="node20" class="node">
<title>Node20</title>
<g id="a_node20"><a xlink:title=" ">
<polygon fill="white" stroke="#bfbfbf" points="939.5,-73 939.5,-92 980.5,-92 980.5,-73 939.5,-73"/>
<text text-anchor="middle" x="960" y="-80" font-family="Helvetica,sans-Serif" font-size="10.00">string</text>
</a>
</g>
</g>
<!-- Node17&#45;&gt;Node20 -->
<g id="edge22" class="edge">
<title>Node17&#45;&gt;Node20</title>
<path fill="none" stroke="midnightblue" d="M969.42,-134.48C967.87,-126.08 965.45,-112.98 963.45,-102.16"/>
<polygon fill="midnightblue" stroke="midnightblue" points="966.83,-101.21 961.57,-92.01 959.95,-102.48 966.83,-101.21"/>
</g>
</g>
</svg>
        <g id="navigator" transform="translate(0 0)" fill="#404254">
                <rect fill="#f2f5e9" fill-opacity="0.5" stroke="#606060" stroke-width=".5" x="0" y="0" width="60" height="60"/>
                <use id="zoomplus" xlink:href="#zoomPlus" x="17" y="9" onmousedown="handleZoom(evt,'in')"/>
                <use id="zoomminus" xlink:href="#zoomMin" x="42" y="9" onmousedown="handleZoom(evt,'out')"/>
                <use id="reset" xlink:href="#resetDef" x="30" y="36" onmousedown="handleReset()"/>
                <g id="arrowUp" xlink:href="#dirArrow" transform="translate(30 24)" onmousedown="handlePan(0,-1)">
                  <use xlink:href="#rim" fill="#404040">
                        <set attributeName="fill" to="#808080" begin="arrowUp.mouseover" end="arrowUp.mouseout"/>
                  </use>
                  <path fill="none" stroke="white" stroke-width="1.5" d="M0,-3.0v7 M-2.5,-0.5L0,-3.0L2.5,-0.5"/>
                </g>
                <g id="arrowRight" xlink:href="#dirArrow" transform="rotate(90) translate(36 -43)" onmousedown="handlePan(1,0)">
                  <use xlink:href="#rim" fill="#404040">
                        <set attributeName="fill" to="#808080" begin="arrowRight.mouseover" end="arrowRight.mouseout"/>
                  </use>
                  <path fill="none" stroke="white" stroke-width="1.5" d="M0,-3.0v7 M-2.5,-0.5L0,-3.0L2.5,-0.5"/>
                </g>
                <g id="arrowDown" xlink:href="#dirArrow" transform="rotate(180) translate(-30 -48)" onmousedown="handlePan(0,1)">
                  <use xlink:href="#rim" fill="#404040">
                        <set attributeName="fill" to="#808080" begin="arrowDown.mouseover" end="arrowDown.mouseout"/>
                  </use>
                  <path fill="none" stroke="white" stroke-width="1.5" d="M0,-3.0v7 M-2.5,-0.5L0,-3.0L2.5,-0.5"/>
                </g>
                <g id="arrowLeft" xlink:href="#dirArrow" transform="rotate(270) translate(-36 17)" onmousedown="handlePan(-1,0)">
                  <use xlink:href="#rim" fill="#404040">
                        <set attributeName="fill" to="#808080" begin="arrowLeft.mouseover" end="arrowLeft.mouseout"/>
                  </use>
                  <path fill="none" stroke="white" stroke-width="1.5" d="M0,-3.0v7 M-2.5,-0.5L0,-3.0L2.5,-0.5"/>
                </g>
        </g>
        <svg viewBox="0 0 15 15" width="100%" height="30px" preserveAspectRatio="xMaxYMin meet">
         <g id="arrow_out" transform="scale(0.3 0.3)">
          <a xlink:href="B4Shrinkage_8cpp__incl_org.svg" target="_base">
           <rect id="button" ry="5" rx="5" y="6" x="6" height="38" width="38"
                fill="#f2f5e9" fill-opacity="0.5" stroke="#606060" stroke-width="1.0"/>
           <path id="arrow"
             d="M 11.500037,31.436501 C 11.940474,20.09759 22.043105,11.32322 32.158766,21.979434 L 37.068811,17.246167 C 37.068811,17.246167 37.088388,32 37.088388,32 L 22.160133,31.978069 C 22.160133,31.978069 26.997745,27.140456 26.997745,27.140456 C 18.528582,18.264221 13.291696,25.230495 11.500037,31.436501 z"
             style="fill:#404040;"/>
          </a>
         </g>
        </svg>
</svg>
