<?xml version="1.0" encoding="UTF-8" standalone="no"?>
<!DOCTYPE svg PUBLIC "-//W3C//DTD SVG 1.1//EN"
 "http://www.w3.org/Graphics/SVG/1.1/DTD/svg11.dtd">
<!-- Generated by graphviz version 2.44.0 ()
 -->
<!-- Title: MarmotMaterialMechanical Pages: 1 -->
<svg width="469pt" height="207pt"
 viewBox="0.00 0.00 469.00 207.00" xmlns="http://www.w3.org/2000/svg" xmlns:xlink="http://www.w3.org/1999/xlink">
<g id="graph0" class="graph" transform="scale(1 1) rotate(0) translate(4 203)">
<title>MarmotMaterialMechanical</title>
<polygon fill="white" stroke="transparent" points="-4,4 -4,-203 465,-203 465,4 -4,4"/>
<!-- Node1 -->
<g id="node1" class="node">
<title>Node1</title>
<g id="a_node1"><a xlink:title=" ">
<polygon fill="#bfbfbf" stroke="black" points="158.5,-123.5 158.5,-142.5 292.5,-142.5 292.5,-123.5 158.5,-123.5"/>
<text text-anchor="middle" x="225.5" y="-130.5" font-family="Helvetica,sans-Serif" font-size="10.00">MarmotMaterialMechanical</text>
</a>
</g>
</g>
<!-- Node3 -->
<g id="node3" class="node">
<title>Node3</title>
<g id="a_node3"><a xlink:href="classMarmotMaterialHyperElastic.html" target="_top" xlink:title=" ">
<polygon fill="white" stroke="black" points="0,-67.5 0,-86.5 139,-86.5 139,-67.5 0,-67.5"/>
<text text-anchor="middle" x="69.5" y="-74.5" font-family="Helvetica,sans-Serif" font-size="10.00">MarmotMaterialHyperElastic</text>
</a>
</g>
</g>
<!-- Node1&#45;&gt;Node3 -->
<g id="edge2" class="edge">
<title>Node1&#45;&gt;Node3</title>
<path fill="none" stroke="midnightblue" d="M191.33,-120.17C161.96,-110 120.3,-95.59 94.1,-86.52"/>
<polygon fill="midnightblue" stroke="midnightblue" points="190.19,-123.48 200.78,-123.44 192.48,-116.86 190.19,-123.48"/>
</g>
<!-- Node4 -->
<g id="node4" class="node">
<title>Node4</title>
<g id="a_node4"><a xlink:href="classMarmotMaterialHypoElastic.html" target="_top" xlink:title=" ">
<polygon fill="white" stroke="black" points="157.5,-67.5 157.5,-86.5 293.5,-86.5 293.5,-67.5 157.5,-67.5"/>
<text text-anchor="middle" x="225.5" y="-74.5" font-family="Helvetica,sans-Serif" font-size="10.00">MarmotMaterialHypoElastic</text>
</a>
</g>
</g>
<!-- Node1&#45;&gt;Node4 -->
<g id="edge3" class="edge">
<title>Node1&#45;&gt;Node4</title>
<path fill="none" stroke="midnightblue" d="M225.5,-112.8C225.5,-103.91 225.5,-93.78 225.5,-86.75"/>
<polygon fill="midnightblue" stroke="midnightblue" points="222,-113.08 225.5,-123.08 229,-113.08 222,-113.08"/>
</g>
<!-- Node7 -->
<g id="node7" class="node">
<title>Node7</title>
<g id="a_node7"><a xlink:href="classMarmotMaterialHypoElasticAD.html" target="_top" xlink:title=" ">
<polygon fill="white" stroke="black" points="312,-67.5 312,-86.5 461,-86.5 461,-67.5 312,-67.5"/>
<text text-anchor="middle" x="386.5" y="-74.5" font-family="Helvetica,sans-Serif" font-size="10.00">MarmotMaterialHypoElasticAD</text>
</a>
</g>
</g>
<!-- Node1&#45;&gt;Node7 -->
<g id="edge6" class="edge">
<title>Node1&#45;&gt;Node7</title>
<path fill="none" stroke="midnightblue" d="M260.76,-120.17C291.08,-110 334.07,-95.59 361.11,-86.52"/>
<polygon fill="midnightblue" stroke="midnightblue" points="259.38,-116.95 251.01,-123.44 261.6,-123.58 259.38,-116.95"/>
</g>
<!-- Node2 -->
<g id="node2" class="node">
<title>Node2</title>
<g id="a_node2"><a xlink:href="classMarmotMaterial.html" target="_top" xlink:title=" ">
<polygon fill="white" stroke="black" points="183.5,-179.5 183.5,-198.5 267.5,-198.5 267.5,-179.5 183.5,-179.5"/>
<text text-anchor="middle" x="225.5" y="-186.5" font-family="Helvetica,sans-Serif" font-size="10.00">MarmotMaterial</text>
</a>
</g>
</g>
<!-- Node2&#45;&gt;Node1 -->
<g id="edge1" class="edge">
<title>Node2&#45;&gt;Node1</title>
<path fill="none" stroke="midnightblue" d="M225.5,-168.8C225.5,-159.91 225.5,-149.78 225.5,-142.75"/>
<polygon fill="midnightblue" stroke="midnightblue" points="222,-169.08 225.5,-179.08 229,-169.08 222,-169.08"/>
</g>
<!-- Node5 -->
<g id="node5" class="node">
<title>Node5</title>
<g id="a_node5"><a xlink:href="classMarmot_1_1Materials_1_1LinearElastic.html" target="_top" xlink:title="Implementation of a linear elastic material for 3D stress states.">
<polygon fill="white" stroke="black" points="118.5,-0.5 118.5,-30.5 216.5,-30.5 216.5,-0.5 118.5,-0.5"/>
<text text-anchor="start" x="126.5" y="-18.5" font-family="Helvetica,sans-Serif" font-size="10.00">Marmot::Materials::</text>
<text text-anchor="middle" x="167.5" y="-7.5" font-family="Helvetica,sans-Serif" font-size="10.00">LinearElastic</text>
</a>
</g>
</g>
<!-- Node4&#45;&gt;Node5 -->
<g id="edge4" class="edge">
<title>Node4&#45;&gt;Node5</title>
<path fill="none" stroke="midnightblue" d="M209.99,-60.09C201.01,-50.88 189.82,-39.39 181.17,-30.52"/>
<polygon fill="midnightblue" stroke="midnightblue" points="207.7,-62.76 217.19,-67.48 212.72,-57.87 207.7,-62.76"/>
</g>
<!-- Node6 -->
<g id="node6" class="node">
<title>Node6</title>
<g id="a_node6"><a xlink:href="classMarmot_1_1Materials_1_1VonMisesModel.html" target="_top" xlink:title=" ">
<polygon fill="white" stroke="black" points="234.5,-0.5 234.5,-30.5 332.5,-30.5 332.5,-0.5 234.5,-0.5"/>
<text text-anchor="start" x="242.5" y="-18.5" font-family="Helvetica,sans-Serif" font-size="10.00">Marmot::Materials::</text>
<text text-anchor="middle" x="283.5" y="-7.5" font-family="Helvetica,sans-Serif" font-size="10.00">VonMisesModel</text>
</a>
</g>
</g>
<!-- Node4&#45;&gt;Node6 -->
<g id="edge5" class="edge">
<title>Node4&#45;&gt;Node6</title>
<path fill="none" stroke="midnightblue" d="M241.01,-60.09C249.99,-50.88 261.18,-39.39 269.83,-30.52"/>
<polygon fill="midnightblue" stroke="midnightblue" points="238.28,-57.87 233.81,-67.48 243.3,-62.76 238.28,-57.87"/>
</g>
</g>
</svg>
