<?xml version="1.0" encoding="UTF-8" standalone="no"?>
<!DOCTYPE svg PUBLIC "-//W3C//DTD SVG 1.1//EN"
 "http://www.w3.org/Graphics/SVG/1.1/DTD/svg11.dtd">
<!-- Generated by graphviz version 2.44.0 ()
 -->
<!-- Title: Marmot::Materials::FiniteStrainJ2Plasticity::FiniteStrainJ2PlasticityStateVarManager Pages: 1 -->
<svg width="162pt" height="117pt"
 viewBox="0.00 0.00 162.00 117.00" xmlns="http://www.w3.org/2000/svg" xmlns:xlink="http://www.w3.org/1999/xlink">
<g id="graph0" class="graph" transform="scale(1 1) rotate(0) translate(4 113)">
<title>Marmot::Materials::FiniteStrainJ2Plasticity::FiniteStrainJ2PlasticityStateVarManager</title>
<polygon fill="white" stroke="transparent" points="-4,4 -4,-113 158,-113 158,4 -4,4"/>
<!-- Node1 -->
<g id="node1" class="node">
<title>Node1</title>
<g id="a_node1"><a xlink:title=" ">
<polygon fill="#bfbfbf" stroke="black" points="5,-0.5 5,-52.5 149,-52.5 149,-0.5 5,-0.5"/>
<text text-anchor="start" x="13" y="-40.5" font-family="Helvetica,sans-Serif" font-size="10.00">Marmot::Materials::</text>
<text text-anchor="start" x="13" y="-29.5" font-family="Helvetica,sans-Serif" font-size="10.00">FiniteStrainJ2Plasticity</text>
<text text-anchor="start" x="13" y="-18.5" font-family="Helvetica,sans-Serif" font-size="10.00">::FiniteStrainJ2PlasticityState</text>
<text text-anchor="middle" x="77" y="-7.5" font-family="Helvetica,sans-Serif" font-size="10.00">VarManager</text>
</a>
</g>
</g>
<!-- Node2 -->
<g id="node2" class="node">
<title>Node2</title>
<g id="a_node2"><a xlink:href="classMarmotStateVarVectorManager.html" target="_top" xlink:title="A convenience auxiliary class for managing multiple statevars with arbitrary length in a single conse...">
<polygon fill="white" stroke="black" points="0,-89.5 0,-108.5 154,-108.5 154,-89.5 0,-89.5"/>
<text text-anchor="middle" x="77" y="-96.5" font-family="Helvetica,sans-Serif" font-size="10.00">MarmotStateVarVectorManager</text>
</a>
</g>
</g>
<!-- Node2&#45;&gt;Node1 -->
<g id="edge1" class="edge">
<title>Node2&#45;&gt;Node1</title>
<path fill="none" stroke="midnightblue" d="M77,-79.1C77,-70.96 77,-61.33 77,-52.6"/>
<polygon fill="midnightblue" stroke="midnightblue" points="73.5,-79.36 77,-89.36 80.5,-79.36 73.5,-79.36"/>
</g>
</g>
</svg>
