<?xml version="1.0" encoding="UTF-8" standalone="no"?>
<!DOCTYPE svg PUBLIC "-//W3C//DTD SVG 1.1//EN"
 "http://www.w3.org/Graphics/SVG/1.1/DTD/svg11.dtd">
<!-- Generated by graphviz version 2.44.0 ()
 -->
<!-- Title: MarmotMaterialMechanical Pages: 1 -->
<svg width="622pt" height="127pt"
 viewBox="0.00 0.00 622.00 126.50" xmlns="http://www.w3.org/2000/svg" xmlns:xlink="http://www.w3.org/1999/xlink">
<g id="graph0" class="graph" transform="scale(1 1) rotate(0) translate(4 122.5)">
<title>MarmotMaterialMechanical</title>
<polygon fill="white" stroke="transparent" points="-4,4 -4,-122.5 618,-122.5 618,4 -4,4"/>
<!-- Node1 -->
<g id="node1" class="node">
<title>Node1</title>
<g id="a_node1"><a xlink:title=" ">
<polygon fill="#bfbfbf" stroke="black" points="120,-63.5 120,-82.5 254,-82.5 254,-63.5 120,-63.5"/>
<text text-anchor="middle" x="187" y="-70.5" font-family="Helvetica,sans-Serif" font-size="10.00">MarmotMaterialMechanical</text>
</a>
</g>
</g>
<!-- Node3 -->
<g id="node3" class="node">
<title>Node3</title>
<g id="a_node3"><a xlink:href="classMarmotMaterialHyperElastic.html" target="_top" xlink:title=" ">
<polygon fill="white" stroke="black" points="290,-82.5 290,-101.5 429,-101.5 429,-82.5 290,-82.5"/>
<text text-anchor="middle" x="359.5" y="-89.5" font-family="Helvetica,sans-Serif" font-size="10.00">MarmotMaterialHyperElastic</text>
</a>
</g>
</g>
<!-- Node1&#45;&gt;Node3 -->
<g id="edge2" class="edge">
<title>Node1&#45;&gt;Node3</title>
<path fill="none" stroke="midnightblue" d="M264.56,-81.53C272.95,-82.47 281.46,-83.41 289.74,-84.34"/>
<polygon fill="midnightblue" stroke="midnightblue" points="264.73,-78.03 254.41,-80.4 263.96,-84.99 264.73,-78.03"/>
</g>
<!-- Node4 -->
<g id="node4" class="node">
<title>Node4</title>
<g id="a_node4"><a xlink:href="classMarmotMaterialHypoElastic.html" target="_top" xlink:title=" ">
<polygon fill="white" stroke="black" points="291.5,-44.5 291.5,-63.5 427.5,-63.5 427.5,-44.5 291.5,-44.5"/>
<text text-anchor="middle" x="359.5" y="-51.5" font-family="Helvetica,sans-Serif" font-size="10.00">MarmotMaterialHypoElastic</text>
</a>
</g>
</g>
<!-- Node1&#45;&gt;Node4 -->
<g id="edge3" class="edge">
<title>Node1&#45;&gt;Node4</title>
<path fill="none" stroke="midnightblue" d="M264.48,-64.48C273.47,-63.48 282.59,-62.46 291.43,-61.47"/>
<polygon fill="midnightblue" stroke="midnightblue" points="263.96,-61.01 254.41,-65.6 264.73,-67.97 263.96,-61.01"/>
</g>
<!-- Node2 -->
<g id="node2" class="node">
<title>Node2</title>
<g id="a_node2"><a xlink:href="classMarmotMaterial.html" target="_top" xlink:title=" ">
<polygon fill="white" stroke="black" points="0,-63.5 0,-82.5 84,-82.5 84,-63.5 0,-63.5"/>
<text text-anchor="middle" x="42" y="-70.5" font-family="Helvetica,sans-Serif" font-size="10.00">MarmotMaterial</text>
</a>
</g>
</g>
<!-- Node2&#45;&gt;Node1 -->
<g id="edge1" class="edge">
<title>Node2&#45;&gt;Node1</title>
<path fill="none" stroke="midnightblue" d="M94.56,-73C102.8,-73 111.42,-73 119.95,-73"/>
<polygon fill="midnightblue" stroke="midnightblue" points="94.36,-69.5 84.36,-73 94.36,-76.5 94.36,-69.5"/>
</g>
<!-- Node5 -->
<g id="node5" class="node">
<title>Node5</title>
<g id="a_node5"><a xlink:href="classMarmot_1_1Materials_1_1LinearElastic.html" target="_top" xlink:title="Implementation of a linear elastic material for 3D stress states.">
<polygon fill="white" stroke="black" points="490.5,-88 490.5,-118 588.5,-118 588.5,-88 490.5,-88"/>
<text text-anchor="start" x="498.5" y="-106" font-family="Helvetica,sans-Serif" font-size="10.00">Marmot::Materials::</text>
<text text-anchor="middle" x="539.5" y="-95" font-family="Helvetica,sans-Serif" font-size="10.00">LinearElastic</text>
</a>
</g>
</g>
<!-- Node4&#45;&gt;Node5 -->
<g id="edge4" class="edge">
<title>Node4&#45;&gt;Node5</title>
<path fill="none" stroke="midnightblue" d="M405.19,-66.3C431.15,-73.45 463.86,-82.45 490.38,-89.75"/>
<polygon fill="midnightblue" stroke="midnightblue" points="405.81,-62.84 395.24,-63.56 403.96,-69.59 405.81,-62.84"/>
</g>
<!-- Node6 -->
<g id="node6" class="node">
<title>Node6</title>
<g id="a_node6"><a xlink:href="classMarmot_1_1Materials_1_1VonMisesModel.html" target="_top" xlink:title=" ">
<polygon fill="white" stroke="black" points="490.5,-39 490.5,-69 588.5,-69 588.5,-39 490.5,-39"/>
<text text-anchor="start" x="498.5" y="-57" font-family="Helvetica,sans-Serif" font-size="10.00">Marmot::Materials::</text>
<text text-anchor="middle" x="539.5" y="-46" font-family="Helvetica,sans-Serif" font-size="10.00">VonMisesModel</text>
</a>
</g>
</g>
<!-- Node4&#45;&gt;Node6 -->
<g id="edge5" class="edge">
<title>Node4&#45;&gt;Node6</title>
<path fill="none" stroke="midnightblue" d="M437.94,-54C455.77,-54 474.22,-54 490.38,-54"/>
<polygon fill="midnightblue" stroke="midnightblue" points="437.54,-50.5 427.54,-54 437.54,-57.5 437.54,-50.5"/>
</g>
<!-- Node7 -->
<g id="node7" class="node">
<title>Node7</title>
<g id="a_node7"><a xlink:href="classMarmotMaterialHypoElasticAD.html" target="_top" xlink:title=" ">
<polygon fill="white" stroke="black" points="465,-0.5 465,-19.5 614,-19.5 614,-0.5 465,-0.5"/>
<text text-anchor="middle" x="539.5" y="-7.5" font-family="Helvetica,sans-Serif" font-size="10.00">MarmotMaterialHypoElasticAD</text>
</a>
</g>
</g>
<!-- Node4&#45;&gt;Node7 -->
<g id="edge6" class="edge">
<title>Node4&#45;&gt;Node7</title>
<path fill="none" stroke="midnightblue" d="M408.92,-42.03C437.53,-34.96 473.26,-26.13 499.95,-19.53"/>
<polygon fill="midnightblue" stroke="midnightblue" points="407.99,-38.66 399.12,-44.45 409.67,-45.45 407.99,-38.66"/>
</g>
</g>
</svg>
