<?xml version="1.0" encoding="UTF-8" standalone="no"?>
<!DOCTYPE svg PUBLIC "-//W3C//DTD SVG 1.1//EN"
 "http://www.w3.org/Graphics/SVG/1.1/DTD/svg11.dtd">
<!-- Generated by graphviz version 2.46.0 (20210122.1329)
 -->
<!-- Title: MarmotMaterial Pages: 1 -->
<!--zoomable 116 -->
<svg id="main" version="1.1" xmlns="http://www.w3.org/2000/svg" xmlns:xlink="http://www.w3.org/1999/xlink" xml:space="preserve" onload="init(evt)">
<style type="text/css"><![CDATA[
.edge:hover path { stroke: red; }
.edge:hover polygon { stroke: red; fill: red; }
]]></style>
<script type="text/javascript"><![CDATA[
var edges = document.getElementsByTagName('g');
if (edges && edges.length) {
  for (var i=0;i<edges.length;i++) {
    if (edges[i].id.substr(0,4)=='edge') {
      edges[i].setAttribute('class','edge');
    }
  }
}
]]></script>
        <defs>
                <circle id="rim" cx="0" cy="0" r="7"/>
                <circle id="rim2" cx="0" cy="0" r="3.5"/>
                <g id="zoomPlus">
                        <use xlink:href="#rim" fill="#404040">
                                <set attributeName="fill" to="#808080" begin="zoomplus.mouseover" end="zoomplus.mouseout"/>
                        </use>
                        <path d="M-4,0h8M0,-4v8" fill="none" stroke="white" stroke-width="1.5" pointer-events="none"/>
                </g>
                <g id="zoomMin">
                        <use xlink:href="#rim" fill="#404040">
                                <set attributeName="fill" to="#808080" begin="zoomminus.mouseover" end="zoomminus.mouseout"/>
                        </use>
                        <path d="M-4,0h8" fill="none" stroke="white" stroke-width="1.5" pointer-events="none"/>
                </g>
                <g id="dirArrow">
                        <path fill="none" stroke="white" stroke-width="1.5" d="M0,-3.0v7 M-2.5,-0.5L0,-3.0L2.5,-0.5"/>
                </g>
               <g id="resetDef">
                       <use xlink:href="#rim2" fill="#404040">
                               <set attributeName="fill" to="#808080" begin="reset.mouseover" end="reset.mouseout"/>
                       </use>
               </g>
        </defs>

<script type="text/javascript">
var viewWidth = 601;
var viewHeight = 116;
var sectionId = 'dynsection-0';
</script>
<script xlink:href="svgpan.js"/>
<svg id="graph" class="graph">
<g id="viewport">
<title>MarmotMaterial</title>
<polygon fill="white" stroke="transparent" points="-4,4 -4,-111.5 597,-111.5 597,4 -4,4"/>
<!-- Node1 -->
<g id="node1" class="node">
<title>Node1</title>
<g id="a_node1"><a xlink:title=" ">
<polygon fill="#bfbfbf" stroke="black" points="0,-60.5 0,-79.5 84,-79.5 84,-60.5 0,-60.5"/>
<text text-anchor="middle" x="42" y="-67.5" font-family="Helvetica,sans-Serif" font-size="10.00">MarmotMaterial</text>
</a>
</g>
</g>
<!-- Node2 -->
<g id="node2" class="node">
<title>Node2</title>
<g id="a_node2"><a xlink:href="classMarmotMaterialGradientEnhancedMechanical.html" target="_top" xlink:title=" ">
<polygon fill="white" stroke="black" points="120,-77 120,-107 284,-107 284,-77 120,-77"/>
<text text-anchor="start" x="128" y="-95" font-family="Helvetica,sans-Serif" font-size="10.00">MarmotMaterialGradientEnhanced</text>
<text text-anchor="middle" x="202" y="-84" font-family="Helvetica,sans-Serif" font-size="10.00">Mechanical</text>
</a>
</g>
</g>
<!-- Node1&#45;&gt;Node2 -->
<g id="edge1" class="edge">
<title>Node1&#45;&gt;Node2</title>
<path fill="none" stroke="midnightblue" d="M94.27,-77.14C102.51,-78.29 111.22,-79.5 119.96,-80.72"/>
<polygon fill="midnightblue" stroke="midnightblue" points="94.49,-73.64 84.1,-75.72 93.52,-80.57 94.49,-73.64"/>
</g>
<!-- Node4 -->
<g id="node4" class="node">
<title>Node4</title>
<g id="a_node4"><a xlink:href="classMarmotMaterialMechanical.html" target="_top" xlink:title=" ">
<polygon fill="white" stroke="black" points="135,-38.5 135,-57.5 269,-57.5 269,-38.5 135,-38.5"/>
<text text-anchor="middle" x="202" y="-45.5" font-family="Helvetica,sans-Serif" font-size="10.00">MarmotMaterialMechanical</text>
</a>
</g>
</g>
<!-- Node1&#45;&gt;Node4 -->
<g id="edge3" class="edge">
<title>Node1&#45;&gt;Node4</title>
<path fill="none" stroke="midnightblue" d="M94.19,-62.87C107.1,-61.07 121.16,-59.12 134.71,-57.23"/>
<polygon fill="midnightblue" stroke="midnightblue" points="93.52,-59.43 84.1,-64.28 94.49,-66.36 93.52,-59.43"/>
</g>
<!-- Node3 -->
<g id="node3" class="node">
<title>Node3</title>
<g id="a_node3"><a xlink:href="classMarmotMaterialGradientEnhancedHypoElastic.html" target="_top" xlink:title=" ">
<polygon fill="white" stroke="black" points="320,-77 320,-107 484,-107 484,-77 320,-77"/>
<text text-anchor="start" x="328" y="-95" font-family="Helvetica,sans-Serif" font-size="10.00">MarmotMaterialGradientEnhanced</text>
<text text-anchor="middle" x="402" y="-84" font-family="Helvetica,sans-Serif" font-size="10.00">HypoElastic</text>
</a>
</g>
</g>
<!-- Node2&#45;&gt;Node3 -->
<g id="edge2" class="edge">
<title>Node2&#45;&gt;Node3</title>
<path fill="none" stroke="midnightblue" d="M294.36,-92C302.82,-92 311.35,-92 319.7,-92"/>
<polygon fill="midnightblue" stroke="midnightblue" points="294.11,-88.5 284.11,-92 294.11,-95.5 294.11,-88.5"/>
</g>
<!-- Node5 -->
<g id="node5" class="node">
<title>Node5</title>
<g id="a_node5"><a xlink:href="classMarmotMaterialHyperElastic.html" target="_top" xlink:title=" ">
<polygon fill="white" stroke="black" points="332.5,-38.5 332.5,-57.5 471.5,-57.5 471.5,-38.5 332.5,-38.5"/>
<text text-anchor="middle" x="402" y="-45.5" font-family="Helvetica,sans-Serif" font-size="10.00">MarmotMaterialHyperElastic</text>
</a>
</g>
</g>
<!-- Node4&#45;&gt;Node5 -->
<g id="edge4" class="edge">
<title>Node4&#45;&gt;Node5</title>
<path fill="none" stroke="midnightblue" d="M279.37,-48C296.86,-48 315.35,-48 332.49,-48"/>
<polygon fill="midnightblue" stroke="midnightblue" points="279.21,-44.5 269.21,-48 279.21,-51.5 279.21,-44.5"/>
</g>
<!-- Node6 -->
<g id="node6" class="node">
<title>Node6</title>
<g id="a_node6"><a xlink:href="classMarmotMaterialHypoElastic.html" target="_top" xlink:title=" ">
<polygon fill="white" stroke="black" points="334,-0.5 334,-19.5 470,-19.5 470,-0.5 334,-0.5"/>
<text text-anchor="middle" x="402" y="-7.5" font-family="Helvetica,sans-Serif" font-size="10.00">MarmotMaterialHypoElastic</text>
</a>
</g>
</g>
<!-- Node4&#45;&gt;Node6 -->
<g id="edge5" class="edge">
<title>Node4&#45;&gt;Node6</title>
<path fill="none" stroke="midnightblue" d="M262.87,-36.51C291.12,-31.09 324.44,-24.69 351.27,-19.54"/>
<polygon fill="midnightblue" stroke="midnightblue" points="261.87,-33.14 252.71,-38.46 263.19,-40.01 261.87,-33.14"/>
</g>
<!-- Node7 -->
<g id="node7" class="node">
<title>Node7</title>
<g id="a_node7"><a xlink:href="classLinearElastic.html" target="_top" xlink:title="Implementation of a linear elastic material for 3D stress states.">
<polygon fill="white" stroke="black" points="520,-0.5 520,-19.5 593,-19.5 593,-0.5 520,-0.5"/>
<text text-anchor="middle" x="556.5" y="-7.5" font-family="Helvetica,sans-Serif" font-size="10.00">LinearElastic</text>
</a>
</g>
</g>
<!-- Node6&#45;&gt;Node7 -->
<g id="edge6" class="edge">
<title>Node6&#45;&gt;Node7</title>
<path fill="none" stroke="midnightblue" d="M480.38,-10C494.2,-10 507.98,-10 519.88,-10"/>
<polygon fill="midnightblue" stroke="midnightblue" points="480.33,-6.5 470.33,-10 480.33,-13.5 480.33,-6.5"/>
</g>
</g>
</svg>
        <g id="navigator" transform="translate(0 0)" fill="#404254">
                <rect fill="#f2f5e9" fill-opacity="0.5" stroke="#606060" stroke-width=".5" x="0" y="0" width="60" height="60"/>
                <use id="zoomplus" xlink:href="#zoomPlus" x="17" y="9" onmousedown="handleZoom(evt,'in')"/>
                <use id="zoomminus" xlink:href="#zoomMin" x="42" y="9" onmousedown="handleZoom(evt,'out')"/>
                <use id="reset" xlink:href="#resetDef" x="30" y="36" onmousedown="handleReset()"/>
                <g id="arrowUp" xlink:href="#dirArrow" transform="translate(30 24)" onmousedown="handlePan(0,-1)">
                  <use xlink:href="#rim" fill="#404040">
                        <set attributeName="fill" to="#808080" begin="arrowUp.mouseover" end="arrowUp.mouseout"/>
                  </use>
                  <path fill="none" stroke="white" stroke-width="1.5" d="M0,-3.0v7 M-2.5,-0.5L0,-3.0L2.5,-0.5"/>
                </g>
                <g id="arrowRight" xlink:href="#dirArrow" transform="rotate(90) translate(36 -43)" onmousedown="handlePan(1,0)">
                  <use xlink:href="#rim" fill="#404040">
                        <set attributeName="fill" to="#808080" begin="arrowRight.mouseover" end="arrowRight.mouseout"/>
                  </use>
                  <path fill="none" stroke="white" stroke-width="1.5" d="M0,-3.0v7 M-2.5,-0.5L0,-3.0L2.5,-0.5"/>
                </g>
                <g id="arrowDown" xlink:href="#dirArrow" transform="rotate(180) translate(-30 -48)" onmousedown="handlePan(0,1)">
                  <use xlink:href="#rim" fill="#404040">
                        <set attributeName="fill" to="#808080" begin="arrowDown.mouseover" end="arrowDown.mouseout"/>
                  </use>
                  <path fill="none" stroke="white" stroke-width="1.5" d="M0,-3.0v7 M-2.5,-0.5L0,-3.0L2.5,-0.5"/>
                </g>
                <g id="arrowLeft" xlink:href="#dirArrow" transform="rotate(270) translate(-36 17)" onmousedown="handlePan(-1,0)">
                  <use xlink:href="#rim" fill="#404040">
                        <set attributeName="fill" to="#808080" begin="arrowLeft.mouseover" end="arrowLeft.mouseout"/>
                  </use>
                  <path fill="none" stroke="white" stroke-width="1.5" d="M0,-3.0v7 M-2.5,-0.5L0,-3.0L2.5,-0.5"/>
                </g>
        </g>
        <svg viewBox="0 0 15 15" width="100%" height="30px" preserveAspectRatio="xMaxYMin meet">
         <g id="arrow_out" transform="scale(0.3 0.3)">
          <a xlink:href="classMarmotMaterial__inherit__graph_org.svg" target="_base">
           <rect id="button" ry="5" rx="5" y="6" x="6" height="38" width="38"
                fill="#f2f5e9" fill-opacity="0.5" stroke="#606060" stroke-width="1.0"/>
           <path id="arrow"
             d="M 11.500037,31.436501 C 11.940474,20.09759 22.043105,11.32322 32.158766,21.979434 L 37.068811,17.246167 C 37.068811,17.246167 37.088388,32 37.088388,32 L 22.160133,31.978069 C 22.160133,31.978069 26.997745,27.140456 26.997745,27.140456 C 18.528582,18.264221 13.291696,25.230495 11.500037,31.436501 z"
             style="fill:#404040;"/>
          </a>
         </g>
        </svg>
</svg>
