<?xml version="1.0" encoding="UTF-8" standalone="no"?>
<!DOCTYPE svg PUBLIC "-//W3C//DTD SVG 1.1//EN"
 "http://www.w3.org/Graphics/SVG/1.1/DTD/svg11.dtd">
<!-- Generated by graphviz version 2.44.0 ()
 -->
<!-- Title: MarmotMaterialHypoElastic Pages: 1 -->
<svg width="619pt" height="127pt"
 viewBox="0.00 0.00 619.00 126.50" xmlns="http://www.w3.org/2000/svg" xmlns:xlink="http://www.w3.org/1999/xlink">
<g id="graph0" class="graph" transform="scale(1 1) rotate(0) translate(4 122.5)">
<title>MarmotMaterialHypoElastic</title>
<polygon fill="white" stroke="transparent" points="-4,4 -4,-122.5 615,-122.5 615,4 -4,4"/>
<!-- Node1 -->
<g id="node1" class="node">
<title>Node1</title>
<g id="a_node1"><a xlink:title=" ">
<polygon fill="#bfbfbf" stroke="black" points="290,-44.5 290,-63.5 426,-63.5 426,-44.5 290,-44.5"/>
<text text-anchor="middle" x="358" y="-51.5" font-family="Helvetica,sans-Serif" font-size="10.00">MarmotMaterialHypoElastic</text>
</a>
</g>
</g>
<!-- Node4 -->
<g id="node4" class="node">
<title>Node4</title>
<g id="a_node4"><a xlink:href="classMarmot_1_1Materials_1_1LinearElastic.html" target="_top" xlink:title="Implementation of a linear elastic material for 3D stress states.">
<polygon fill="white" stroke="black" points="487.5,-88 487.5,-118 585.5,-118 585.5,-88 487.5,-88"/>
<text text-anchor="start" x="495.5" y="-106" font-family="Helvetica,sans-Serif" font-size="10.00">Marmot::Materials::</text>
<text text-anchor="middle" x="536.5" y="-95" font-family="Helvetica,sans-Serif" font-size="10.00">LinearElastic</text>
</a>
</g>
</g>
<!-- Node1&#45;&gt;Node4 -->
<g id="edge3" class="edge">
<title>Node1&#45;&gt;Node4</title>
<path fill="none" stroke="midnightblue" d="M403.28,-66.29C428.91,-73.41 461.2,-82.37 487.45,-89.66"/>
<polygon fill="midnightblue" stroke="midnightblue" points="404.02,-62.87 393.45,-63.56 402.15,-69.61 404.02,-62.87"/>
</g>
<!-- Node5 -->
<g id="node5" class="node">
<title>Node5</title>
<g id="a_node5"><a xlink:href="classMarmot_1_1Materials_1_1VonMisesModel.html" target="_top" xlink:title=" ">
<polygon fill="white" stroke="black" points="487.5,-39 487.5,-69 585.5,-69 585.5,-39 487.5,-39"/>
<text text-anchor="start" x="495.5" y="-57" font-family="Helvetica,sans-Serif" font-size="10.00">Marmot::Materials::</text>
<text text-anchor="middle" x="536.5" y="-46" font-family="Helvetica,sans-Serif" font-size="10.00">VonMisesModel</text>
</a>
</g>
</g>
<!-- Node1&#45;&gt;Node5 -->
<g id="edge4" class="edge">
<title>Node1&#45;&gt;Node5</title>
<path fill="none" stroke="midnightblue" d="M436.36,-54C453.71,-54 471.63,-54 487.38,-54"/>
<polygon fill="midnightblue" stroke="midnightblue" points="436.23,-50.5 426.23,-54 436.23,-57.5 436.23,-50.5"/>
</g>
<!-- Node6 -->
<g id="node6" class="node">
<title>Node6</title>
<g id="a_node6"><a xlink:href="classMarmotMaterialHypoElasticAD.html" target="_top" xlink:title=" ">
<polygon fill="white" stroke="black" points="462,-0.5 462,-19.5 611,-19.5 611,-0.5 462,-0.5"/>
<text text-anchor="middle" x="536.5" y="-7.5" font-family="Helvetica,sans-Serif" font-size="10.00">MarmotMaterialHypoElasticAD</text>
</a>
</g>
</g>
<!-- Node1&#45;&gt;Node6 -->
<g id="edge5" class="edge">
<title>Node1&#45;&gt;Node6</title>
<path fill="none" stroke="midnightblue" d="M407.01,-42.03C435.38,-34.96 470.81,-26.13 497.28,-19.53"/>
<polygon fill="midnightblue" stroke="midnightblue" points="406.15,-38.64 397.3,-44.45 407.85,-45.43 406.15,-38.64"/>
</g>
<!-- Node2 -->
<g id="node2" class="node">
<title>Node2</title>
<g id="a_node2"><a xlink:href="classMarmotMaterialMechanical.html" target="_top" xlink:title=" ">
<polygon fill="white" stroke="black" points="120,-44.5 120,-63.5 254,-63.5 254,-44.5 120,-44.5"/>
<text text-anchor="middle" x="187" y="-51.5" font-family="Helvetica,sans-Serif" font-size="10.00">MarmotMaterialMechanical</text>
</a>
</g>
</g>
<!-- Node2&#45;&gt;Node1 -->
<g id="edge1" class="edge">
<title>Node2&#45;&gt;Node1</title>
<path fill="none" stroke="midnightblue" d="M264.51,-54C272.94,-54 281.47,-54 289.77,-54"/>
<polygon fill="midnightblue" stroke="midnightblue" points="264.31,-50.5 254.31,-54 264.31,-57.5 264.31,-50.5"/>
</g>
<!-- Node3 -->
<g id="node3" class="node">
<title>Node3</title>
<g id="a_node3"><a xlink:href="classMarmotMaterial.html" target="_top" xlink:title=" ">
<polygon fill="white" stroke="black" points="0,-44.5 0,-63.5 84,-63.5 84,-44.5 0,-44.5"/>
<text text-anchor="middle" x="42" y="-51.5" font-family="Helvetica,sans-Serif" font-size="10.00">MarmotMaterial</text>
</a>
</g>
</g>
<!-- Node3&#45;&gt;Node2 -->
<g id="edge2" class="edge">
<title>Node3&#45;&gt;Node2</title>
<path fill="none" stroke="midnightblue" d="M94.56,-54C102.8,-54 111.42,-54 119.95,-54"/>
<polygon fill="midnightblue" stroke="midnightblue" points="94.36,-50.5 84.36,-54 94.36,-57.5 94.36,-50.5"/>
</g>
</g>
</svg>
