<?xml version="1.0" encoding="UTF-8" standalone="no"?>
<!DOCTYPE svg PUBLIC "-//W3C//DTD SVG 1.1//EN"
 "http://www.w3.org/Graphics/SVG/1.1/DTD/svg11.dtd">
<!-- Generated by graphviz version 2.44.0 ()
 -->
<!-- Title: MarmotStateVarVectorManager Pages: 1 -->
<svg width="392pt" height="110pt"
 viewBox="0.00 0.00 392.00 110.00" xmlns="http://www.w3.org/2000/svg" xmlns:xlink="http://www.w3.org/1999/xlink">
<g id="graph0" class="graph" transform="scale(1 1) rotate(0) translate(4 106)">
<title>MarmotStateVarVectorManager</title>
<polygon fill="white" stroke="transparent" points="-4,4 -4,-106 388,-106 388,4 -4,4"/>
<!-- Node1 -->
<g id="node1" class="node">
<title>Node1</title>
<g id="a_node1"><a xlink:title="A convenience auxiliary class for managing multiple statevars with arbitrary length in a single conse...">
<polygon fill="#bfbfbf" stroke="black" points="0,-41.5 0,-60.5 154,-60.5 154,-41.5 0,-41.5"/>
<text text-anchor="middle" x="77" y="-48.5" font-family="Helvetica,sans-Serif" font-size="10.00">MarmotStateVarVectorManager</text>
</a>
</g>
</g>
<!-- Node2 -->
<g id="node2" class="node">
<title>Node2</title>
<g id="a_node2"><a xlink:href="classMarmot_1_1Elements_1_1DisplacementFiniteElement_1_1QuadraturePoint_1_1QPStateVarManager.html" target="_top" xlink:title=" ">
<polygon fill="white" stroke="black" points="190,-60.5 190,-101.5 384,-101.5 384,-60.5 190,-60.5"/>
<text text-anchor="start" x="198" y="-89.5" font-family="Helvetica,sans-Serif" font-size="10.00">Marmot::Elements::Displacement</text>
<text text-anchor="start" x="198" y="-78.5" font-family="Helvetica,sans-Serif" font-size="10.00">FiniteElement&lt; nDim, nNodes</text>
<text text-anchor="middle" x="287" y="-67.5" font-family="Helvetica,sans-Serif" font-size="10.00"> &gt;::QuadraturePoint::QPStateVarManager</text>
</a>
</g>
</g>
<!-- Node1&#45;&gt;Node2 -->
<g id="edge1" class="edge">
<title>Node1&#45;&gt;Node2</title>
<path fill="none" stroke="midnightblue" d="M154.12,-61.98C165.69,-63.65 177.76,-65.39 189.69,-67.11"/>
<polygon fill="midnightblue" stroke="midnightblue" points="154.5,-58.5 144.1,-60.53 153.5,-65.43 154.5,-58.5"/>
</g>
<!-- Node3 -->
<g id="node3" class="node">
<title>Node3</title>
<g id="a_node3"><a xlink:href="classMarmot_1_1Materials_1_1VonMisesModel_1_1VonMisesModelStateVarManager.html" target="_top" xlink:title=" ">
<polygon fill="white" stroke="black" points="206.5,-0.5 206.5,-41.5 367.5,-41.5 367.5,-0.5 206.5,-0.5"/>
<text text-anchor="start" x="214.5" y="-29.5" font-family="Helvetica,sans-Serif" font-size="10.00">Marmot::Materials::</text>
<text text-anchor="start" x="214.5" y="-18.5" font-family="Helvetica,sans-Serif" font-size="10.00">VonMisesModel::VonMisesModel</text>
<text text-anchor="middle" x="287" y="-7.5" font-family="Helvetica,sans-Serif" font-size="10.00">StateVarManager</text>
</a>
</g>
</g>
<!-- Node1&#45;&gt;Node3 -->
<g id="edge2" class="edge">
<title>Node1&#45;&gt;Node3</title>
<path fill="none" stroke="midnightblue" d="M154.45,-39.97C171.32,-37.54 189.23,-34.96 206.23,-32.51"/>
<polygon fill="midnightblue" stroke="midnightblue" points="153.5,-36.57 144.1,-41.47 154.5,-43.5 153.5,-36.57"/>
</g>
</g>
</svg>
