<?xml version="1.0" encoding="UTF-8" standalone="no"?>
<!DOCTYPE svg PUBLIC "-//W3C//DTD SVG 1.1//EN"
 "http://www.w3.org/Graphics/SVG/1.1/DTD/svg11.dtd">
<!-- Generated by graphviz version 2.46.0 (20210122.1329)
 -->
<!-- Title: MarmotMaterialMechanical Pages: 1 -->
<svg width="302pt" height="196pt"
 viewBox="0.00 0.00 301.50 196.00" xmlns="http://www.w3.org/2000/svg" xmlns:xlink="http://www.w3.org/1999/xlink">
<g id="graph0" class="graph" transform="scale(1 1) rotate(0) translate(4 192)">
<title>MarmotMaterialMechanical</title>
<polygon fill="white" stroke="transparent" points="-4,4 -4,-192 297.5,-192 297.5,4 -4,4"/>
<!-- Node1 -->
<g id="node1" class="node">
<title>Node1</title>
<g id="a_node1"><a xlink:title=" ">
<polygon fill="#bfbfbf" stroke="black" points="80.5,-112.5 80.5,-131.5 214.5,-131.5 214.5,-112.5 80.5,-112.5"/>
<text text-anchor="middle" x="147.5" y="-119.5" font-family="Helvetica,sans-Serif" font-size="10.00">MarmotMaterialMechanical</text>
</a>
</g>
</g>
<!-- Node3 -->
<g id="node3" class="node">
<title>Node3</title>
<g id="a_node3"><a xlink:href="classMarmotMaterialHyperElastic.html" target="_top" xlink:title=" ">
<polygon fill="white" stroke="black" points="0,-56.5 0,-75.5 139,-75.5 139,-56.5 0,-56.5"/>
<text text-anchor="middle" x="69.5" y="-63.5" font-family="Helvetica,sans-Serif" font-size="10.00">MarmotMaterialHyperElastic</text>
</a>
</g>
</g>
<!-- Node1&#45;&gt;Node3 -->
<g id="edge2" class="edge">
<title>Node1&#45;&gt;Node3</title>
<path fill="none" stroke="midnightblue" d="M126.73,-106.62C112.48,-96.76 94.04,-83.99 82,-75.65"/>
<polygon fill="midnightblue" stroke="midnightblue" points="124.75,-109.51 134.97,-112.32 128.74,-103.75 124.75,-109.51"/>
</g>
<!-- Node4 -->
<g id="node4" class="node">
<title>Node4</title>
<g id="a_node4"><a xlink:href="classMarmotMaterialHypoElastic.html" target="_top" xlink:title=" ">
<polygon fill="white" stroke="black" points="157.5,-56.5 157.5,-75.5 293.5,-75.5 293.5,-56.5 157.5,-56.5"/>
<text text-anchor="middle" x="225.5" y="-63.5" font-family="Helvetica,sans-Serif" font-size="10.00">MarmotMaterialHypoElastic</text>
</a>
</g>
</g>
<!-- Node1&#45;&gt;Node4 -->
<g id="edge3" class="edge">
<title>Node1&#45;&gt;Node4</title>
<path fill="none" stroke="midnightblue" d="M168.27,-106.62C182.52,-96.76 200.96,-83.99 213,-75.65"/>
<polygon fill="midnightblue" stroke="midnightblue" points="166.26,-103.75 160.03,-112.32 170.25,-109.51 166.26,-103.75"/>
</g>
<!-- Node2 -->
<g id="node2" class="node">
<title>Node2</title>
<g id="a_node2"><a xlink:href="classMarmotMaterial.html" target="_top" xlink:title=" ">
<polygon fill="white" stroke="black" points="105.5,-168.5 105.5,-187.5 189.5,-187.5 189.5,-168.5 105.5,-168.5"/>
<text text-anchor="middle" x="147.5" y="-175.5" font-family="Helvetica,sans-Serif" font-size="10.00">MarmotMaterial</text>
</a>
</g>
</g>
<!-- Node2&#45;&gt;Node1 -->
<g id="edge1" class="edge">
<title>Node2&#45;&gt;Node1</title>
<path fill="none" stroke="midnightblue" d="M147.5,-157.8C147.5,-148.91 147.5,-138.78 147.5,-131.75"/>
<polygon fill="midnightblue" stroke="midnightblue" points="144,-158.08 147.5,-168.08 151,-158.08 144,-158.08"/>
</g>
<!-- Node5 -->
<g id="node5" class="node">
<title>Node5</title>
<g id="a_node5"><a xlink:href="classLinearElastic.html" target="_top" xlink:title="Implementation of a linear elastic material for 3D stress states.">
<polygon fill="white" stroke="black" points="189,-0.5 189,-19.5 262,-19.5 262,-0.5 189,-0.5"/>
<text text-anchor="middle" x="225.5" y="-7.5" font-family="Helvetica,sans-Serif" font-size="10.00">LinearElastic</text>
</a>
</g>
</g>
<!-- Node4&#45;&gt;Node5 -->
<g id="edge4" class="edge">
<title>Node4&#45;&gt;Node5</title>
<path fill="none" stroke="midnightblue" d="M225.5,-45.8C225.5,-36.91 225.5,-26.78 225.5,-19.75"/>
<polygon fill="midnightblue" stroke="midnightblue" points="222,-46.08 225.5,-56.08 229,-46.08 222,-46.08"/>
</g>
</g>
</svg>
