<?xml version="1.0" encoding="UTF-8" standalone="no"?>
<!DOCTYPE svg PUBLIC "-//W3C//DTD SVG 1.1//EN"
 "http://www.w3.org/Graphics/SVG/1.1/DTD/svg11.dtd">
<!-- Generated by graphviz version 2.44.0 ()
 -->
<!-- Title: MarmotMaterialHypoElastic Pages: 1 -->
<svg width="222pt" height="207pt"
 viewBox="0.00 0.00 222.00 207.00" xmlns="http://www.w3.org/2000/svg" xmlns:xlink="http://www.w3.org/1999/xlink">
<g id="graph0" class="graph" transform="scale(1 1) rotate(0) translate(4 203)">
<title>MarmotMaterialHypoElastic</title>
<polygon fill="white" stroke="transparent" points="-4,4 -4,-203 218,-203 218,4 -4,4"/>
<!-- Node1 -->
<g id="node1" class="node">
<title>Node1</title>
<g id="a_node1"><a xlink:title=" ">
<polygon fill="#bfbfbf" stroke="black" points="39,-67.5 39,-86.5 175,-86.5 175,-67.5 39,-67.5"/>
<text text-anchor="middle" x="107" y="-74.5" font-family="Helvetica,sans-Serif" font-size="10.00">MarmotMaterialHypoElastic</text>
</a>
</g>
</g>
<!-- Node4 -->
<g id="node4" class="node">
<title>Node4</title>
<g id="a_node4"><a xlink:href="classMarmot_1_1Materials_1_1LinearElastic.html" target="_top" xlink:title="Implementation of a linear elastic material for 3D stress states.">
<polygon fill="white" stroke="black" points="0,-0.5 0,-30.5 98,-30.5 98,-0.5 0,-0.5"/>
<text text-anchor="start" x="8" y="-18.5" font-family="Helvetica,sans-Serif" font-size="10.00">Marmot::Materials::</text>
<text text-anchor="middle" x="49" y="-7.5" font-family="Helvetica,sans-Serif" font-size="10.00">LinearElastic</text>
</a>
</g>
</g>
<!-- Node1&#45;&gt;Node4 -->
<g id="edge3" class="edge">
<title>Node1&#45;&gt;Node4</title>
<path fill="none" stroke="midnightblue" d="M91.49,-60.09C82.51,-50.88 71.32,-39.39 62.67,-30.52"/>
<polygon fill="midnightblue" stroke="midnightblue" points="89.2,-62.76 98.69,-67.48 94.22,-57.87 89.2,-62.76"/>
</g>
<!-- Node5 -->
<g id="node5" class="node">
<title>Node5</title>
<g id="a_node5"><a xlink:href="classMarmot_1_1Materials_1_1VonMisesModel.html" target="_top" xlink:title=" ">
<polygon fill="white" stroke="black" points="116,-0.5 116,-30.5 214,-30.5 214,-0.5 116,-0.5"/>
<text text-anchor="start" x="124" y="-18.5" font-family="Helvetica,sans-Serif" font-size="10.00">Marmot::Materials::</text>
<text text-anchor="middle" x="165" y="-7.5" font-family="Helvetica,sans-Serif" font-size="10.00">VonMisesModel</text>
</a>
</g>
</g>
<!-- Node1&#45;&gt;Node5 -->
<g id="edge4" class="edge">
<title>Node1&#45;&gt;Node5</title>
<path fill="none" stroke="midnightblue" d="M122.51,-60.09C131.49,-50.88 142.68,-39.39 151.33,-30.52"/>
<polygon fill="midnightblue" stroke="midnightblue" points="119.78,-57.87 115.31,-67.48 124.8,-62.76 119.78,-57.87"/>
</g>
<!-- Node2 -->
<g id="node2" class="node">
<title>Node2</title>
<g id="a_node2"><a xlink:href="classMarmotMaterialMechanical.html" target="_top" xlink:title=" ">
<polygon fill="white" stroke="black" points="40,-123.5 40,-142.5 174,-142.5 174,-123.5 40,-123.5"/>
<text text-anchor="middle" x="107" y="-130.5" font-family="Helvetica,sans-Serif" font-size="10.00">MarmotMaterialMechanical</text>
</a>
</g>
</g>
<!-- Node2&#45;&gt;Node1 -->
<g id="edge1" class="edge">
<title>Node2&#45;&gt;Node1</title>
<path fill="none" stroke="midnightblue" d="M107,-112.8C107,-103.91 107,-93.78 107,-86.75"/>
<polygon fill="midnightblue" stroke="midnightblue" points="103.5,-113.08 107,-123.08 110.5,-113.08 103.5,-113.08"/>
</g>
<!-- Node3 -->
<g id="node3" class="node">
<title>Node3</title>
<g id="a_node3"><a xlink:href="classMarmotMaterial.html" target="_top" xlink:title=" ">
<polygon fill="white" stroke="black" points="65,-179.5 65,-198.5 149,-198.5 149,-179.5 65,-179.5"/>
<text text-anchor="middle" x="107" y="-186.5" font-family="Helvetica,sans-Serif" font-size="10.00">MarmotMaterial</text>
</a>
</g>
</g>
<!-- Node3&#45;&gt;Node2 -->
<g id="edge2" class="edge">
<title>Node3&#45;&gt;Node2</title>
<path fill="none" stroke="midnightblue" d="M107,-168.8C107,-159.91 107,-149.78 107,-142.75"/>
<polygon fill="midnightblue" stroke="midnightblue" points="103.5,-169.08 107,-179.08 110.5,-169.08 103.5,-169.08"/>
</g>
</g>
</svg>
