<?xml version="1.0" encoding="UTF-8" standalone="no"?>
<!DOCTYPE svg PUBLIC "-//W3C//DTD SVG 1.1//EN"
 "http://www.w3.org/Graphics/SVG/1.1/DTD/svg11.dtd">
<!-- Generated by graphviz version 2.44.0 ()
 -->
<!-- Title: MarmotMaterial Pages: 1 -->
<!--zoomable 154 -->
<svg id="main" version="1.1" xmlns="http://www.w3.org/2000/svg" xmlns:xlink="http://www.w3.org/1999/xlink" xml:space="preserve" onload="init(evt)">
<style type="text/css"><![CDATA[
.edge:hover path { stroke: red; }
.edge:hover polygon { stroke: red; fill: red; }
]]></style>
<script type="text/javascript"><![CDATA[
var edges = document.getElementsByTagName('g');
if (edges && edges.length) {
  for (var i=0;i<edges.length;i++) {
    if (edges[i].id.substr(0,4)=='edge') {
      edges[i].setAttribute('class','edge');
    }
  }
}
]]></script>
        <defs>
                <circle id="rim" cx="0" cy="0" r="7"/>
                <circle id="rim2" cx="0" cy="0" r="3.5"/>
                <g id="zoomPlus">
                        <use xlink:href="#rim" fill="#404040">
                                <set attributeName="fill" to="#808080" begin="zoomplus.mouseover" end="zoomplus.mouseout"/>
                        </use>
                        <path d="M-4,0h8M0,-4v8" fill="none" stroke="white" stroke-width="1.5" pointer-events="none"/>
                </g>
                <g id="zoomMin">
                        <use xlink:href="#rim" fill="#404040">
                                <set attributeName="fill" to="#808080" begin="zoomminus.mouseover" end="zoomminus.mouseout"/>
                        </use>
                        <path d="M-4,0h8" fill="none" stroke="white" stroke-width="1.5" pointer-events="none"/>
                </g>
                <g id="dirArrow">
                        <path fill="none" stroke="white" stroke-width="1.5" d="M0,-3.0v7 M-2.5,-0.5L0,-3.0L2.5,-0.5"/>
                </g>
               <g id="resetDef">
                       <use xlink:href="#rim2" fill="#404040">
                               <set attributeName="fill" to="#808080" begin="reset.mouseover" end="reset.mouseout"/>
                       </use>
               </g>
        </defs>

<script type="text/javascript">
var viewWidth = 626;
var viewHeight = 154;
var sectionId = 'dynsection-0';
</script>
<script xlink:href="svgpan.js"/>
<svg id="graph" class="graph">
<g id="viewport">
<title>MarmotMaterial</title>
<polygon fill="white" stroke="transparent" points="-4,4 -4,-149.5 622,-149.5 622,4 -4,4"/>
<!-- Node1 -->
<g id="node1" class="node">
<title>Node1</title>
<g id="a_node1"><a xlink:title=" ">
<polygon fill="#bfbfbf" stroke="black" points="0,-79.5 0,-98.5 84,-98.5 84,-79.5 0,-79.5"/>
<text text-anchor="middle" x="42" y="-86.5" font-family="Helvetica,sans-Serif" font-size="10.00">MarmotMaterial</text>
</a>
</g>
</g>
<!-- Node2 -->
<g id="node2" class="node">
<title>Node2</title>
<g id="a_node2"><a xlink:href="classMarmotMaterialGradientEnhancedMechanical.html" target="_top" xlink:title=" ">
<polygon fill="white" stroke="black" points="120,-105 120,-135 284,-135 284,-105 120,-105"/>
<text text-anchor="start" x="128" y="-123" font-family="Helvetica,sans-Serif" font-size="10.00">MarmotMaterialGradientEnhanced</text>
<text text-anchor="middle" x="202" y="-112" font-family="Helvetica,sans-Serif" font-size="10.00">Mechanical</text>
</a>
</g>
</g>
<!-- Node1&#45;&gt;Node2 -->
<g id="edge1" class="edge">
<title>Node1&#45;&gt;Node2</title>
<path fill="none" stroke="midnightblue" d="M93.94,-98.99C103.64,-100.9 113.98,-102.93 124.27,-104.95"/>
<polygon fill="midnightblue" stroke="midnightblue" points="94.59,-95.55 84.1,-97.06 93.24,-102.42 94.59,-95.55"/>
</g>
<!-- Node4 -->
<g id="node4" class="node">
<title>Node4</title>
<g id="a_node4"><a xlink:href="classMarmotMaterialMechanical.html" target="_top" xlink:title=" ">
<polygon fill="white" stroke="black" points="135,-57.5 135,-76.5 269,-76.5 269,-57.5 135,-57.5"/>
<text text-anchor="middle" x="202" y="-64.5" font-family="Helvetica,sans-Serif" font-size="10.00">MarmotMaterialMechanical</text>
</a>
</g>
</g>
<!-- Node1&#45;&gt;Node4 -->
<g id="edge3" class="edge">
<title>Node1&#45;&gt;Node4</title>
<path fill="none" stroke="midnightblue" d="M94.19,-81.87C107.1,-80.07 121.16,-78.12 134.71,-76.23"/>
<polygon fill="midnightblue" stroke="midnightblue" points="93.52,-78.43 84.1,-83.28 94.49,-85.36 93.52,-78.43"/>
</g>
<!-- Node3 -->
<g id="node3" class="node">
<title>Node3</title>
<g id="a_node3"><a xlink:href="classMarmotMaterialGradientEnhancedHypoElastic.html" target="_top" xlink:title=" ">
<polygon fill="white" stroke="black" points="320,-115 320,-145 484,-145 484,-115 320,-115"/>
<text text-anchor="start" x="328" y="-133" font-family="Helvetica,sans-Serif" font-size="10.00">MarmotMaterialGradientEnhanced</text>
<text text-anchor="middle" x="402" y="-122" font-family="Helvetica,sans-Serif" font-size="10.00">HypoElastic</text>
</a>
</g>
</g>
<!-- Node2&#45;&gt;Node3 -->
<g id="edge2" class="edge">
<title>Node2&#45;&gt;Node3</title>
<path fill="none" stroke="midnightblue" d="M294.36,-124.61C302.82,-125.04 311.35,-125.47 319.7,-125.89"/>
<polygon fill="midnightblue" stroke="midnightblue" points="294.27,-121.11 284.11,-124.1 293.92,-128.1 294.27,-121.11"/>
</g>
<!-- Node5 -->
<g id="node5" class="node">
<title>Node5</title>
<g id="a_node5"><a xlink:href="classMarmotMaterialHyperElastic.html" target="_top" xlink:title=" ">
<polygon fill="white" stroke="black" points="332.5,-76.5 332.5,-95.5 471.5,-95.5 471.5,-76.5 332.5,-76.5"/>
<text text-anchor="middle" x="402" y="-83.5" font-family="Helvetica,sans-Serif" font-size="10.00">MarmotMaterialHyperElastic</text>
</a>
</g>
</g>
<!-- Node4&#45;&gt;Node5 -->
<g id="edge4" class="edge">
<title>Node4&#45;&gt;Node5</title>
<path fill="none" stroke="midnightblue" d="M279.37,-74.33C296.86,-76.01 315.35,-77.78 332.49,-79.43"/>
<polygon fill="midnightblue" stroke="midnightblue" points="279.5,-70.82 269.21,-73.35 278.83,-77.79 279.5,-70.82"/>
</g>
<!-- Node6 -->
<g id="node6" class="node">
<title>Node6</title>
<g id="a_node6"><a xlink:href="classMarmotMaterialHypoElastic.html" target="_top" xlink:title=" ">
<polygon fill="white" stroke="black" points="334,-38.5 334,-57.5 470,-57.5 470,-38.5 334,-38.5"/>
<text text-anchor="middle" x="402" y="-45.5" font-family="Helvetica,sans-Serif" font-size="10.00">MarmotMaterialHypoElastic</text>
</a>
</g>
</g>
<!-- Node4&#45;&gt;Node6 -->
<g id="edge5" class="edge">
<title>Node4&#45;&gt;Node6</title>
<path fill="none" stroke="midnightblue" d="M279.35,-59.67C297.31,-57.95 316.32,-56.13 333.84,-54.44"/>
<polygon fill="midnightblue" stroke="midnightblue" points="278.83,-56.21 269.21,-60.65 279.5,-63.18 278.83,-56.21"/>
</g>
<!-- Node9 -->
<g id="node9" class="node">
<title>Node9</title>
<g id="a_node9"><a xlink:href="classMarmotMaterialHypoElasticAD.html" target="_top" xlink:title=" ">
<polygon fill="white" stroke="black" points="327.5,-0.5 327.5,-19.5 476.5,-19.5 476.5,-0.5 327.5,-0.5"/>
<text text-anchor="middle" x="402" y="-7.5" font-family="Helvetica,sans-Serif" font-size="10.00">MarmotMaterialHypoElasticAD</text>
</a>
</g>
</g>
<!-- Node4&#45;&gt;Node9 -->
<g id="edge8" class="edge">
<title>Node4&#45;&gt;Node9</title>
<path fill="none" stroke="midnightblue" d="M239.89,-54.14C262.8,-46.38 292.94,-36.55 320,-29 331.96,-25.66 345.03,-22.42 357.11,-19.59"/>
<polygon fill="midnightblue" stroke="midnightblue" points="238.56,-50.9 230.23,-57.44 240.82,-57.52 238.56,-50.9"/>
</g>
<!-- Node7 -->
<g id="node7" class="node">
<title>Node7</title>
<g id="a_node7"><a xlink:href="classMarmot_1_1Materials_1_1LinearElastic.html" target="_top" xlink:title="Implementation of a linear elastic material for 3D stress states.">
<polygon fill="white" stroke="black" points="520,-58 520,-88 618,-88 618,-58 520,-58"/>
<text text-anchor="start" x="528" y="-76" font-family="Helvetica,sans-Serif" font-size="10.00">Marmot::Materials::</text>
<text text-anchor="middle" x="569" y="-65" font-family="Helvetica,sans-Serif" font-size="10.00">LinearElastic</text>
</a>
</g>
</g>
<!-- Node6&#45;&gt;Node7 -->
<g id="edge6" class="edge">
<title>Node6&#45;&gt;Node7</title>
<path fill="none" stroke="midnightblue" d="M476.06,-59.07C490.93,-61.32 506.22,-63.64 519.95,-65.72"/>
<polygon fill="midnightblue" stroke="midnightblue" points="476.26,-55.56 465.85,-57.52 475.21,-62.48 476.26,-55.56"/>
</g>
<!-- Node8 -->
<g id="node8" class="node">
<title>Node8</title>
<g id="a_node8"><a xlink:href="classMarmot_1_1Materials_1_1VonMisesModel.html" target="_top" xlink:title=" ">
<polygon fill="white" stroke="black" points="520,-9 520,-39 618,-39 618,-9 520,-9"/>
<text text-anchor="start" x="528" y="-27" font-family="Helvetica,sans-Serif" font-size="10.00">Marmot::Materials::</text>
<text text-anchor="middle" x="569" y="-16" font-family="Helvetica,sans-Serif" font-size="10.00">VonMisesModel</text>
</a>
</g>
</g>
<!-- Node6&#45;&gt;Node8 -->
<g id="edge7" class="edge">
<title>Node6&#45;&gt;Node8</title>
<path fill="none" stroke="midnightblue" d="M478.78,-36.98C492.74,-34.95 506.96,-32.88 519.83,-31.01"/>
<polygon fill="midnightblue" stroke="midnightblue" points="478.08,-33.54 468.69,-38.45 479.09,-40.47 478.08,-33.54"/>
</g>
</g>
</svg>
        <g id="navigator" transform="translate(0 0)" fill="#404254">
                <rect fill="#f2f5e9" fill-opacity="0.5" stroke="#606060" stroke-width=".5" x="0" y="0" width="60" height="60"/>
                <use id="zoomplus" xlink:href="#zoomPlus" x="17" y="9" onmousedown="handleZoom(evt,'in')"/>
                <use id="zoomminus" xlink:href="#zoomMin" x="42" y="9" onmousedown="handleZoom(evt,'out')"/>
                <use id="reset" xlink:href="#resetDef" x="30" y="36" onmousedown="handleReset()"/>
                <g id="arrowUp" xlink:href="#dirArrow" transform="translate(30 24)" onmousedown="handlePan(0,-1)">
                  <use xlink:href="#rim" fill="#404040">
                        <set attributeName="fill" to="#808080" begin="arrowUp.mouseover" end="arrowUp.mouseout"/>
                  </use>
                  <path fill="none" stroke="white" stroke-width="1.5" d="M0,-3.0v7 M-2.5,-0.5L0,-3.0L2.5,-0.5"/>
                </g>
                <g id="arrowRight" xlink:href="#dirArrow" transform="rotate(90) translate(36 -43)" onmousedown="handlePan(1,0)">
                  <use xlink:href="#rim" fill="#404040">
                        <set attributeName="fill" to="#808080" begin="arrowRight.mouseover" end="arrowRight.mouseout"/>
                  </use>
                  <path fill="none" stroke="white" stroke-width="1.5" d="M0,-3.0v7 M-2.5,-0.5L0,-3.0L2.5,-0.5"/>
                </g>
                <g id="arrowDown" xlink:href="#dirArrow" transform="rotate(180) translate(-30 -48)" onmousedown="handlePan(0,1)">
                  <use xlink:href="#rim" fill="#404040">
                        <set attributeName="fill" to="#808080" begin="arrowDown.mouseover" end="arrowDown.mouseout"/>
                  </use>
                  <path fill="none" stroke="white" stroke-width="1.5" d="M0,-3.0v7 M-2.5,-0.5L0,-3.0L2.5,-0.5"/>
                </g>
                <g id="arrowLeft" xlink:href="#dirArrow" transform="rotate(270) translate(-36 17)" onmousedown="handlePan(-1,0)">
                  <use xlink:href="#rim" fill="#404040">
                        <set attributeName="fill" to="#808080" begin="arrowLeft.mouseover" end="arrowLeft.mouseout"/>
                  </use>
                  <path fill="none" stroke="white" stroke-width="1.5" d="M0,-3.0v7 M-2.5,-0.5L0,-3.0L2.5,-0.5"/>
                </g>
        </g>
        <svg viewBox="0 0 15 15" width="100%" height="30px" preserveAspectRatio="xMaxYMin meet">
         <g id="arrow_out" transform="scale(0.3 0.3)">
          <a xlink:href="classMarmotMaterial__inherit__graph_org.svg" target="_base">
           <rect id="button" ry="5" rx="5" y="6" x="6" height="38" width="38"
                fill="#f2f5e9" fill-opacity="0.5" stroke="#606060" stroke-width="1.0"/>
           <path id="arrow"
             d="M 11.500037,31.436501 C 11.940474,20.09759 22.043105,11.32322 32.158766,21.979434 L 37.068811,17.246167 C 37.068811,17.246167 37.088388,32 37.088388,32 L 22.160133,31.978069 C 22.160133,31.978069 26.997745,27.140456 26.997745,27.140456 C 18.528582,18.264221 13.291696,25.230495 11.500037,31.436501 z"
             style="fill:#404040;"/>
          </a>
         </g>
        </svg>
</svg>
