<?xml version="1.0" encoding="UTF-8" standalone="no"?>
<!DOCTYPE svg PUBLIC "-//W3C//DTD SVG 1.1//EN"
 "http://www.w3.org/Graphics/SVG/1.1/DTD/svg11.dtd">
<!-- Generated by graphviz version 3.0.0 (20220413.0106)
 -->
<!-- Title: Marmot::Elements::DisplacementFiniteElement&lt; nDim, nNodes &gt;::QuadraturePoint::QPStateVarManager Pages: 1 -->
<svg width="202pt" height="106pt"
 viewBox="0.00 0.00 202.00 106.00" xmlns="http://www.w3.org/2000/svg" xmlns:xlink="http://www.w3.org/1999/xlink">
<g id="graph0" class="graph" transform="scale(1 1) rotate(0) translate(4 102)">
<title>Marmot::Elements::DisplacementFiniteElement&lt; nDim, nNodes &gt;::QuadraturePoint::QPStateVarManager</title>
<polygon fill="white" stroke="transparent" points="-4,4 -4,-102 198,-102 198,4 -4,4"/>
<!-- Node1 -->
<g id="node1" class="node">
<title>Node1</title>
<g id="a_node1"><a xlink:title=" ">
<polygon fill="#bfbfbf" stroke="black" points="0,-0.5 0,-41.5 194,-41.5 194,-0.5 0,-0.5"/>
<text text-anchor="start" x="8" y="-29.5" font-family="Helvetica,sans-Serif" font-size="10.00">Marmot::Elements::Displacement</text>
<text text-anchor="start" x="8" y="-18.5" font-family="Helvetica,sans-Serif" font-size="10.00">FiniteElement&lt; nDim, nNodes</text>
<text text-anchor="middle" x="97" y="-7.5" font-family="Helvetica,sans-Serif" font-size="10.00"> &gt;::QuadraturePoint::QPStateVarManager</text>
</a>
</g>
</g>
<!-- Node2 -->
<g id="node2" class="node">
<title>Node2</title>
<g id="a_node2"><a xlink:href="classMarmotStateVarVectorManager.html" target="_top" xlink:title="A convenience auxiliary class for managing multiple statevars with arbitrary length in a single conse...">
<polygon fill="white" stroke="black" points="20,-78.5 20,-97.5 174,-97.5 174,-78.5 20,-78.5"/>
<text text-anchor="middle" x="97" y="-85.5" font-family="Helvetica,sans-Serif" font-size="10.00">MarmotStateVarVectorManager</text>
</a>
</g>
</g>
<!-- Node2&#45;&gt;Node1 -->
<g id="edge1" class="edge">
<title>Node2&#45;&gt;Node1</title>
<path fill="none" stroke="midnightblue" d="M97,-68.04C97,-59.71 97,-49.94 97,-41.54"/>
<polygon fill="midnightblue" stroke="midnightblue" points="93.5,-68.23 97,-78.23 100.5,-68.23 93.5,-68.23"/>
</g>
</g>
</svg>
