<?xml version="1.0" encoding="UTF-8" standalone="no"?>
<!DOCTYPE svg PUBLIC "-//W3C//DTD SVG 1.1//EN"
 "http://www.w3.org/Graphics/SVG/1.1/DTD/svg11.dtd">
<!-- Generated by graphviz version 2.44.0 ()
 -->
<!-- Title: Marmot::Elements::AxiSymmetricDisplacementFiniteStrainULElement&lt; nNodes &gt; Pages: 1 -->
<svg width="799pt" height="81pt"
 viewBox="0.00 0.00 799.00 80.50" xmlns="http://www.w3.org/2000/svg" xmlns:xlink="http://www.w3.org/1999/xlink">
<g id="graph0" class="graph" transform="scale(1 1) rotate(0) translate(4 76.5)">
<title>Marmot::Elements::AxiSymmetricDisplacementFiniteStrainULElement&lt; nNodes &gt;</title>
<polygon fill="white" stroke="transparent" points="-4,4 -4,-76.5 795,-76.5 795,4 -4,4"/>
<!-- Node1 -->
<g id="node1" class="node">
<title>Node1</title>
<g id="a_node1"><a xlink:title=" ">
<polygon fill="#bfbfbf" stroke="black" points="617,-16 617,-57 791,-57 791,-16 617,-16"/>
<text text-anchor="start" x="625" y="-45" font-family="Helvetica,sans-Serif" font-size="10.00">Marmot::Elements::AxiSymmetric</text>
<text text-anchor="start" x="625" y="-34" font-family="Helvetica,sans-Serif" font-size="10.00">DisplacementFiniteStrainULElement</text>
<text text-anchor="middle" x="704" y="-23" font-family="Helvetica,sans-Serif" font-size="10.00">&lt; nNodes &gt;</text>
</a>
</g>
</g>
<!-- Node2 -->
<g id="node2" class="node">
<title>Node2</title>
<g id="a_node2"><a xlink:href="classMarmot_1_1Elements_1_1DisplacementFiniteStrainULElement.html" target="_top" xlink:title=" ">
<polygon fill="white" stroke="black" points="422,-16 422,-57 580,-57 580,-16 422,-16"/>
<text text-anchor="start" x="430" y="-45" font-family="Helvetica,sans-Serif" font-size="10.00">Marmot::Elements::Displacement</text>
<text text-anchor="start" x="430" y="-34" font-family="Helvetica,sans-Serif" font-size="10.00">FiniteStrainULElement&lt; 2,</text>
<text text-anchor="middle" x="501" y="-23" font-family="Helvetica,sans-Serif" font-size="10.00"> nNodes &gt;</text>
</a>
</g>
</g>
<!-- Node2&#45;&gt;Node1 -->
<g id="edge1" class="edge">
<title>Node2&#45;&gt;Node1</title>
<path fill="none" stroke="midnightblue" d="M590.51,-36.5C599.29,-36.5 608.19,-36.5 616.94,-36.5"/>
<polygon fill="midnightblue" stroke="midnightblue" points="590.29,-33 580.29,-36.5 590.29,-40 590.29,-33"/>
</g>
<!-- Node3 -->
<g id="node3" class="node">
<title>Node3</title>
<g id="a_node3"><a xlink:href="classMarmotElement.html" target="_top" xlink:title=" ">
<polygon fill="white" stroke="black" points="21,-53 21,-72 106,-72 106,-53 21,-53"/>
<text text-anchor="middle" x="63.5" y="-60" font-family="Helvetica,sans-Serif" font-size="10.00">MarmotElement</text>
</a>
</g>
</g>
<!-- Node3&#45;&gt;Node2 -->
<g id="edge2" class="edge">
<title>Node3&#45;&gt;Node2</title>
<path fill="none" stroke="midnightblue" d="M116.45,-64.98C131.76,-65.61 148.55,-66.19 164,-66.5 234.21,-67.91 252.02,-72.36 322,-66.5 354.95,-63.74 390.97,-58.16 421.94,-52.56"/>
<polygon fill="midnightblue" stroke="midnightblue" points="116.26,-61.47 106.12,-64.55 115.97,-68.47 116.26,-61.47"/>
</g>
<!-- Node5 -->
<g id="node5" class="node">
<title>Node5</title>
<g id="a_node5"><a xlink:href="classMarmot_1_1Elements_1_1DisplacementFiniteStrainULElement.html" target="_top" xlink:title=" ">
<polygon fill="white" stroke="black" points="164,-16 164,-57 322,-57 322,-16 164,-16"/>
<text text-anchor="start" x="172" y="-45" font-family="Helvetica,sans-Serif" font-size="10.00">Marmot::Elements::Displacement</text>
<text text-anchor="start" x="172" y="-34" font-family="Helvetica,sans-Serif" font-size="10.00">FiniteStrainULElement&lt; nDim,</text>
<text text-anchor="middle" x="243" y="-23" font-family="Helvetica,sans-Serif" font-size="10.00"> nNodes &gt;</text>
</a>
</g>
</g>
<!-- Node3&#45;&gt;Node5 -->
<g id="edge5" class="edge">
<title>Node3&#45;&gt;Node5</title>
<path fill="none" stroke="midnightblue" d="M116.12,-54.94C131.01,-52.76 147.6,-50.33 163.72,-47.97"/>
<polygon fill="midnightblue" stroke="midnightblue" points="115.5,-51.49 106.12,-56.4 116.52,-58.42 115.5,-51.49"/>
</g>
<!-- Node4 -->
<g id="node4" class="node">
<title>Node4</title>
<g id="a_node4"><a xlink:href="classMarmotGeometryElement.html" target="_top" xlink:title=" ">
<polygon fill="white" stroke="black" points="0,-0.5 0,-30.5 127,-30.5 127,-0.5 0,-0.5"/>
<text text-anchor="start" x="8" y="-18.5" font-family="Helvetica,sans-Serif" font-size="10.00">MarmotGeometryElement</text>
<text text-anchor="middle" x="63.5" y="-7.5" font-family="Helvetica,sans-Serif" font-size="10.00">&lt; nDim, nNodes &gt;</text>
</a>
</g>
</g>
<!-- Node4&#45;&gt;Node2 -->
<g id="edge3" class="edge">
<title>Node4&#45;&gt;Node2</title>
<path fill="none" stroke="midnightblue" d="M137.19,-8.16C146.21,-7.48 155.31,-6.89 164,-6.5 234.15,-3.33 252.02,-0.64 322,-6.5 354.95,-9.26 390.97,-14.84 421.94,-20.44"/>
<polygon fill="midnightblue" stroke="midnightblue" points="136.76,-4.68 127.07,-8.97 137.32,-11.66 136.76,-4.68"/>
</g>
<!-- Node4&#45;&gt;Node5 -->
<g id="edge6" class="edge">
<title>Node4&#45;&gt;Node5</title>
<path fill="none" stroke="midnightblue" d="M137.24,-24.11C146,-25.14 154.98,-26.2 163.81,-27.25"/>
<polygon fill="midnightblue" stroke="midnightblue" points="137.42,-20.6 127.08,-22.9 136.6,-27.55 137.42,-20.6"/>
</g>
<!-- Node5&#45;&gt;Node2 -->
<g id="edge4" class="edge">
<title>Node5&#45;&gt;Node2</title>
<path fill="none" stroke="orange" stroke-dasharray="5,2" d="M332.35,-36.5C361.44,-36.5 393.56,-36.5 421.84,-36.5"/>
<polygon fill="orange" stroke="orange" points="332.2,-33 322.2,-36.5 332.2,-40 332.2,-33"/>
<text text-anchor="middle" x="372" y="-39.5" font-family="Helvetica,sans-Serif" font-size="10.00"> &lt; 2, nNodes &gt;</text>
</g>
</g>
</svg>
