<?xml version="1.0" encoding="UTF-8" standalone="no"?>
<!DOCTYPE svg PUBLIC "-//W3C//DTD SVG 1.1//EN"
 "http://www.w3.org/Graphics/SVG/1.1/DTD/svg11.dtd">
<!-- Generated by graphviz version 2.44.0 ()
 -->
<!-- Title: Marmot::Elements::DisplacementFiniteStrainULElement&lt; nDim, nNodes &gt;::QuadraturePoint::QPStateVarManager Pages: 1 -->
<svg width="166pt" height="117pt"
 viewBox="0.00 0.00 166.00 117.00" xmlns="http://www.w3.org/2000/svg" xmlns:xlink="http://www.w3.org/1999/xlink">
<g id="graph0" class="graph" transform="scale(1 1) rotate(0) translate(4 113)">
<title>Marmot::Elements::DisplacementFiniteStrainULElement&lt; nDim, nNodes &gt;::QuadraturePoint::QPStateVarManager</title>
<polygon fill="white" stroke="transparent" points="-4,4 -4,-113 162,-113 162,4 -4,4"/>
<!-- Node1 -->
<g id="node1" class="node">
<title>Node1</title>
<g id="a_node1"><a xlink:title=" ">
<polygon fill="#bfbfbf" stroke="black" points="0,-0.5 0,-52.5 158,-52.5 158,-0.5 0,-0.5"/>
<text text-anchor="start" x="8" y="-40.5" font-family="Helvetica,sans-Serif" font-size="10.00">Marmot::Elements::Displacement</text>
<text text-anchor="start" x="8" y="-29.5" font-family="Helvetica,sans-Serif" font-size="10.00">FiniteStrainULElement&lt; nDim,</text>
<text text-anchor="start" x="8" y="-18.5" font-family="Helvetica,sans-Serif" font-size="10.00"> nNodes &gt;::QuadraturePoint</text>
<text text-anchor="middle" x="79" y="-7.5" font-family="Helvetica,sans-Serif" font-size="10.00">::QPStateVarManager</text>
</a>
</g>
</g>
<!-- Node2 -->
<g id="node2" class="node">
<title>Node2</title>
<g id="a_node2"><a xlink:href="classMarmotStateVarVectorManager.html" target="_top" xlink:title="A convenience auxiliary class for managing multiple statevars with arbitrary length in a single conse...">
<polygon fill="white" stroke="black" points="2,-89.5 2,-108.5 156,-108.5 156,-89.5 2,-89.5"/>
<text text-anchor="middle" x="79" y="-96.5" font-family="Helvetica,sans-Serif" font-size="10.00">MarmotStateVarVectorManager</text>
</a>
</g>
</g>
<!-- Node2&#45;&gt;Node1 -->
<g id="edge1" class="edge">
<title>Node2&#45;&gt;Node1</title>
<path fill="none" stroke="midnightblue" d="M79,-79.1C79,-70.96 79,-61.33 79,-52.6"/>
<polygon fill="midnightblue" stroke="midnightblue" points="75.5,-79.36 79,-89.36 82.5,-79.36 75.5,-79.36"/>
</g>
</g>
</svg>
