<?xml version="1.0" encoding="UTF-8" standalone="no"?>
<!DOCTYPE svg PUBLIC "-//W3C//DTD SVG 1.1//EN"
 "http://www.w3.org/Graphics/SVG/1.1/DTD/svg11.dtd">
<!-- Generated by graphviz version 2.44.0 ()
 -->
<!-- Title: MarmotMaterial Pages: 1 -->
<svg width="626pt" height="145pt"
 viewBox="0.00 0.00 626.00 145.00" xmlns="http://www.w3.org/2000/svg" xmlns:xlink="http://www.w3.org/1999/xlink">
<g id="graph0" class="graph" transform="scale(1 1) rotate(0) translate(4 141)">
<title>MarmotMaterial</title>
<polygon fill="white" stroke="transparent" points="-4,4 -4,-141 622,-141 622,4 -4,4"/>
<!-- Node1 -->
<g id="node1" class="node">
<title>Node1</title>
<g id="a_node1"><a xlink:title=" ">
<polygon fill="#bfbfbf" stroke="black" points="0,-90 0,-109 84,-109 84,-90 0,-90"/>
<text text-anchor="middle" x="42" y="-97" font-family="Helvetica,sans-Serif" font-size="10.00">MarmotMaterial</text>
</a>
</g>
</g>
<!-- Node2 -->
<g id="node2" class="node">
<title>Node2</title>
<g id="a_node2"><a xlink:href="classMarmotMaterialGradientEnhancedMechanical.html" target="_top" xlink:title=" ">
<polygon fill="white" stroke="black" points="120,-106.5 120,-136.5 284,-136.5 284,-106.5 120,-106.5"/>
<text text-anchor="start" x="128" y="-124.5" font-family="Helvetica,sans-Serif" font-size="10.00">MarmotMaterialGradientEnhanced</text>
<text text-anchor="middle" x="202" y="-113.5" font-family="Helvetica,sans-Serif" font-size="10.00">Mechanical</text>
</a>
</g>
</g>
<!-- Node1&#45;&gt;Node2 -->
<g id="edge1" class="edge">
<title>Node1&#45;&gt;Node2</title>
<path fill="none" stroke="midnightblue" d="M94.27,-106.64C102.51,-107.79 111.22,-109 119.96,-110.22"/>
<polygon fill="midnightblue" stroke="midnightblue" points="94.49,-103.14 84.1,-105.22 93.52,-110.07 94.49,-103.14"/>
</g>
<!-- Node4 -->
<g id="node4" class="node">
<title>Node4</title>
<g id="a_node4"><a xlink:href="classMarmotMaterialMechanical.html" target="_top" xlink:title=" ">
<polygon fill="white" stroke="black" points="135,-68 135,-87 269,-87 269,-68 135,-68"/>
<text text-anchor="middle" x="202" y="-75" font-family="Helvetica,sans-Serif" font-size="10.00">MarmotMaterialMechanical</text>
</a>
</g>
</g>
<!-- Node1&#45;&gt;Node4 -->
<g id="edge3" class="edge">
<title>Node1&#45;&gt;Node4</title>
<path fill="none" stroke="midnightblue" d="M94.19,-92.37C107.1,-90.57 121.16,-88.62 134.71,-86.73"/>
<polygon fill="midnightblue" stroke="midnightblue" points="93.52,-88.93 84.1,-93.78 94.49,-95.86 93.52,-88.93"/>
</g>
<!-- Node3 -->
<g id="node3" class="node">
<title>Node3</title>
<g id="a_node3"><a xlink:href="classMarmotMaterialGradientEnhancedHypoElastic.html" target="_top" xlink:title=" ">
<polygon fill="white" stroke="black" points="320,-106.5 320,-136.5 484,-136.5 484,-106.5 320,-106.5"/>
<text text-anchor="start" x="328" y="-124.5" font-family="Helvetica,sans-Serif" font-size="10.00">MarmotMaterialGradientEnhanced</text>
<text text-anchor="middle" x="402" y="-113.5" font-family="Helvetica,sans-Serif" font-size="10.00">HypoElastic</text>
</a>
</g>
</g>
<!-- Node2&#45;&gt;Node3 -->
<g id="edge2" class="edge">
<title>Node2&#45;&gt;Node3</title>
<path fill="none" stroke="midnightblue" d="M294.36,-121.5C302.82,-121.5 311.35,-121.5 319.7,-121.5"/>
<polygon fill="midnightblue" stroke="midnightblue" points="294.11,-118 284.11,-121.5 294.11,-125 294.11,-118"/>
</g>
<!-- Node5 -->
<g id="node5" class="node">
<title>Node5</title>
<g id="a_node5"><a xlink:href="classMarmotMaterialHyperElastic.html" target="_top" xlink:title=" ">
<polygon fill="white" stroke="black" points="332.5,-68 332.5,-87 471.5,-87 471.5,-68 332.5,-68"/>
<text text-anchor="middle" x="402" y="-75" font-family="Helvetica,sans-Serif" font-size="10.00">MarmotMaterialHyperElastic</text>
</a>
</g>
</g>
<!-- Node4&#45;&gt;Node5 -->
<g id="edge4" class="edge">
<title>Node4&#45;&gt;Node5</title>
<path fill="none" stroke="midnightblue" d="M279.37,-77.5C296.86,-77.5 315.35,-77.5 332.49,-77.5"/>
<polygon fill="midnightblue" stroke="midnightblue" points="279.21,-74 269.21,-77.5 279.21,-81 279.21,-74"/>
</g>
<!-- Node6 -->
<g id="node6" class="node">
<title>Node6</title>
<g id="a_node6"><a xlink:href="classMarmotMaterialHypoElastic.html" target="_top" xlink:title=" ">
<polygon fill="white" stroke="black" points="334,-30 334,-49 470,-49 470,-30 334,-30"/>
<text text-anchor="middle" x="402" y="-37" font-family="Helvetica,sans-Serif" font-size="10.00">MarmotMaterialHypoElastic</text>
</a>
</g>
</g>
<!-- Node4&#45;&gt;Node6 -->
<g id="edge5" class="edge">
<title>Node4&#45;&gt;Node6</title>
<path fill="none" stroke="midnightblue" d="M262.87,-66.01C291.12,-60.59 324.44,-54.19 351.27,-49.04"/>
<polygon fill="midnightblue" stroke="midnightblue" points="261.87,-62.64 252.71,-67.96 263.19,-69.51 261.87,-62.64"/>
</g>
<!-- Node7 -->
<g id="node7" class="node">
<title>Node7</title>
<g id="a_node7"><a xlink:href="classMarmot_1_1Materials_1_1LinearElastic.html" target="_top" xlink:title="Implementation of a linear elastic material for 3D stress states.">
<polygon fill="white" stroke="black" points="520,-49.5 520,-79.5 618,-79.5 618,-49.5 520,-49.5"/>
<text text-anchor="start" x="528" y="-67.5" font-family="Helvetica,sans-Serif" font-size="10.00">Marmot::Materials::</text>
<text text-anchor="middle" x="569" y="-56.5" font-family="Helvetica,sans-Serif" font-size="10.00">LinearElastic</text>
</a>
</g>
</g>
<!-- Node6&#45;&gt;Node7 -->
<g id="edge6" class="edge">
<title>Node6&#45;&gt;Node7</title>
<path fill="none" stroke="midnightblue" d="M476.06,-50.57C490.93,-52.82 506.22,-55.14 519.95,-57.22"/>
<polygon fill="midnightblue" stroke="midnightblue" points="476.26,-47.06 465.85,-49.02 475.21,-53.98 476.26,-47.06"/>
</g>
<!-- Node8 -->
<g id="node8" class="node">
<title>Node8</title>
<g id="a_node8"><a xlink:href="classMarmot_1_1Materials_1_1VonMisesModel.html" target="_top" xlink:title=" ">
<polygon fill="white" stroke="black" points="520,-0.5 520,-30.5 618,-30.5 618,-0.5 520,-0.5"/>
<text text-anchor="start" x="528" y="-18.5" font-family="Helvetica,sans-Serif" font-size="10.00">Marmot::Materials::</text>
<text text-anchor="middle" x="569" y="-7.5" font-family="Helvetica,sans-Serif" font-size="10.00">VonMisesModel</text>
</a>
</g>
</g>
<!-- Node6&#45;&gt;Node8 -->
<g id="edge7" class="edge">
<title>Node6&#45;&gt;Node8</title>
<path fill="none" stroke="midnightblue" d="M478.78,-28.48C492.74,-26.45 506.96,-24.38 519.83,-22.51"/>
<polygon fill="midnightblue" stroke="midnightblue" points="478.08,-25.04 468.69,-29.95 479.09,-31.97 478.08,-25.04"/>
</g>
</g>
</svg>
