<?xml version="1.0" encoding="UTF-8" standalone="no"?>
<!DOCTYPE svg PUBLIC "-//W3C//DTD SVG 1.1//EN"
 "http://www.w3.org/Graphics/SVG/1.1/DTD/svg11.dtd">
<!-- Generated by graphviz version 2.44.0 ()
 -->
<!-- Title: Marmot::Elements::DisplacementFiniteElement&lt; nDim, nNodes &gt; Pages: 1 -->
<svg width="238pt" height="106pt"
 viewBox="0.00 0.00 238.00 106.00" xmlns="http://www.w3.org/2000/svg" xmlns:xlink="http://www.w3.org/1999/xlink">
<g id="graph0" class="graph" transform="scale(1 1) rotate(0) translate(4 102)">
<title>Marmot::Elements::DisplacementFiniteElement&lt; nDim, nNodes &gt;</title>
<polygon fill="white" stroke="transparent" points="-4,4 -4,-102 234,-102 234,4 -4,4"/>
<!-- Node1 -->
<g id="node1" class="node">
<title>Node1</title>
<g id="a_node1"><a xlink:title=" ">
<polygon fill="#bfbfbf" stroke="black" points="25.5,-0.5 25.5,-30.5 183.5,-30.5 183.5,-0.5 25.5,-0.5"/>
<text text-anchor="start" x="33.5" y="-18.5" font-family="Helvetica,sans-Serif" font-size="10.00">Marmot::Elements::Displacement</text>
<text text-anchor="middle" x="104.5" y="-7.5" font-family="Helvetica,sans-Serif" font-size="10.00">FiniteElement&lt; nDim, nNodes &gt;</text>
</a>
</g>
</g>
<!-- Node2 -->
<g id="node2" class="node">
<title>Node2</title>
<g id="a_node2"><a xlink:href="classMarmotElement.html" target="_top" xlink:title=" ">
<polygon fill="white" stroke="black" points="0,-73 0,-92 85,-92 85,-73 0,-73"/>
<text text-anchor="middle" x="42.5" y="-80" font-family="Helvetica,sans-Serif" font-size="10.00">MarmotElement</text>
</a>
</g>
</g>
<!-- Node2&#45;&gt;Node1 -->
<g id="edge1" class="edge">
<title>Node2&#45;&gt;Node1</title>
<path fill="none" stroke="midnightblue" d="M57.95,-65.3C68.13,-54.63 81.32,-40.8 91.06,-30.59"/>
<polygon fill="midnightblue" stroke="midnightblue" points="55.23,-63.08 50.86,-72.73 60.3,-67.91 55.23,-63.08"/>
</g>
<!-- Node3 -->
<g id="node3" class="node">
<title>Node3</title>
<g id="a_node3"><a xlink:href="classMarmotGeometryElement.html" target="_top" xlink:title=" ">
<polygon fill="white" stroke="black" points="103,-67.5 103,-97.5 230,-97.5 230,-67.5 103,-67.5"/>
<text text-anchor="start" x="111" y="-85.5" font-family="Helvetica,sans-Serif" font-size="10.00">MarmotGeometryElement</text>
<text text-anchor="middle" x="166.5" y="-74.5" font-family="Helvetica,sans-Serif" font-size="10.00">&lt; nDim, nNodes &gt;</text>
</a>
</g>
</g>
<!-- Node3&#45;&gt;Node1 -->
<g id="edge2" class="edge">
<title>Node3&#45;&gt;Node1</title>
<path fill="none" stroke="midnightblue" d="M146.02,-60.02C136.78,-50.34 126.13,-39.17 117.93,-30.58"/>
<polygon fill="midnightblue" stroke="midnightblue" points="143.61,-62.58 153.05,-67.4 148.68,-57.74 143.61,-62.58"/>
</g>
</g>
</svg>
