<?xml version="1.0" encoding="UTF-8" standalone="no"?>
<!DOCTYPE svg PUBLIC "-//W3C//DTD SVG 1.1//EN"
 "http://www.w3.org/Graphics/SVG/1.1/DTD/svg11.dtd">
<!-- Generated by graphviz version 2.44.0 ()
 -->
<!-- Title: modules/materials/CompressibleNeoHooke/include/Marmot/CompressibleNeoHooke.h Pages: 1 -->
<svg width="384pt" height="229pt"
 viewBox="0.00 0.00 384.00 229.00" xmlns="http://www.w3.org/2000/svg" xmlns:xlink="http://www.w3.org/1999/xlink">
<g id="graph0" class="graph" transform="scale(1 1) rotate(0) translate(4 225)">
<title>modules/materials/CompressibleNeoHooke/include/Marmot/CompressibleNeoHooke.h</title>
<polygon fill="white" stroke="transparent" points="-4,4 -4,-225 380,-225 380,4 -4,4"/>
<!-- Node1 -->
<g id="node1" class="node">
<title>Node1</title>
<g id="a_node1"><a xlink:title=" ">
<polygon fill="#bfbfbf" stroke="black" points="181,-179.5 181,-220.5 376,-220.5 376,-179.5 181,-179.5"/>
<text text-anchor="start" x="189" y="-208.5" font-family="Helvetica,sans-Serif" font-size="10.00">modules/materials/Compressible</text>
<text text-anchor="start" x="189" y="-197.5" font-family="Helvetica,sans-Serif" font-size="10.00">NeoHooke/include/Marmot/Compressible</text>
<text text-anchor="middle" x="278.5" y="-186.5" font-family="Helvetica,sans-Serif" font-size="10.00">NeoHooke.h</text>
</a>
</g>
</g>
<!-- Node2 -->
<g id="node2" class="node">
<title>Node2</title>
<g id="a_node2"><a xlink:href="MarmotMaterialFiniteStrain_8h.html" target="_top" xlink:title=" ">
<polygon fill="white" stroke="black" points="156.5,-112.5 156.5,-142.5 300.5,-142.5 300.5,-112.5 156.5,-112.5"/>
<text text-anchor="start" x="164.5" y="-130.5" font-family="Helvetica,sans-Serif" font-size="10.00">Marmot/MarmotMaterialFinite</text>
<text text-anchor="middle" x="228.5" y="-119.5" font-family="Helvetica,sans-Serif" font-size="10.00">Strain.h</text>
</a>
</g>
</g>
<!-- Node1&#45;&gt;Node2 -->
<g id="edge1" class="edge">
<title>Node1&#45;&gt;Node2</title>
<path fill="none" stroke="midnightblue" d="M264.57,-179.36C258.35,-170.59 250.99,-160.21 244.54,-151.12"/>
<polygon fill="midnightblue" stroke="midnightblue" points="247.35,-149.02 238.71,-142.89 241.64,-153.07 247.35,-149.02"/>
</g>
<!-- Node6 -->
<g id="node6" class="node">
<title>Node6</title>
<g id="a_node6"><a xlink:title=" ">
<polygon fill="white" stroke="#bfbfbf" points="305,-0.5 305,-19.5 346,-19.5 346,-0.5 305,-0.5"/>
<text text-anchor="middle" x="325.5" y="-7.5" font-family="Helvetica,sans-Serif" font-size="10.00">string</text>
</a>
</g>
</g>
<!-- Node1&#45;&gt;Node6 -->
<g id="edge7" class="edge">
<title>Node1&#45;&gt;Node6</title>
<path fill="none" stroke="midnightblue" d="M300.07,-179.3C322.88,-156.87 357.45,-117.88 371.5,-76 374.33,-67.57 374.95,-64.19 371.5,-56 366.47,-44.05 356.56,-33.69 347.21,-25.93"/>
<polygon fill="midnightblue" stroke="midnightblue" points="349.34,-23.15 339.29,-19.81 345.06,-28.69 349.34,-23.15"/>
</g>
<!-- Node3 -->
<g id="node3" class="node">
<title>Node3</title>
<g id="a_node3"><a xlink:title=" ">
<polygon fill="white" stroke="#bfbfbf" points="0,-56.5 0,-75.5 83,-75.5 83,-56.5 0,-56.5"/>
<text text-anchor="middle" x="41.5" y="-63.5" font-family="Helvetica,sans-Serif" font-size="10.00">Fastor/Fastor.h</text>
</a>
</g>
</g>
<!-- Node2&#45;&gt;Node3 -->
<g id="edge2" class="edge">
<title>Node2&#45;&gt;Node3</title>
<path fill="none" stroke="midnightblue" d="M184.18,-112.4C151.87,-102.12 108.6,-88.35 78.21,-78.68"/>
<polygon fill="midnightblue" stroke="midnightblue" points="79.03,-75.27 68.44,-75.57 76.91,-81.94 79.03,-75.27"/>
</g>
<!-- Node4 -->
<g id="node4" class="node">
<title>Node4</title>
<g id="a_node4"><a xlink:href="MarmotMaterial_8h.html" target="_top" xlink:title=" ">
<polygon fill="white" stroke="black" points="101.5,-56.5 101.5,-75.5 229.5,-75.5 229.5,-56.5 101.5,-56.5"/>
<text text-anchor="middle" x="165.5" y="-63.5" font-family="Helvetica,sans-Serif" font-size="10.00">Marmot/MarmotMaterial.h</text>
</a>
</g>
</g>
<!-- Node2&#45;&gt;Node4 -->
<g id="edge3" class="edge">
<title>Node2&#45;&gt;Node4</title>
<path fill="none" stroke="midnightblue" d="M213.57,-112.4C204.13,-103.49 191.92,-91.95 182.17,-82.74"/>
<polygon fill="midnightblue" stroke="midnightblue" points="184.34,-79.98 174.67,-75.66 179.53,-85.07 184.34,-79.98"/>
</g>
<!-- Node7 -->
<g id="node7" class="node">
<title>Node7</title>
<g id="a_node7"><a xlink:title=" ">
<polygon fill="white" stroke="#bfbfbf" points="248,-56.5 248,-75.5 363,-75.5 363,-56.5 248,-56.5"/>
<text text-anchor="middle" x="305.5" y="-63.5" font-family="Helvetica,sans-Serif" font-size="10.00">Fastor/tensor/Tensor.h</text>
</a>
</g>
</g>
<!-- Node2&#45;&gt;Node7 -->
<g id="edge6" class="edge">
<title>Node2&#45;&gt;Node7</title>
<path fill="none" stroke="midnightblue" d="M246.75,-112.4C258.63,-103.22 274.11,-91.26 286.19,-81.92"/>
<polygon fill="midnightblue" stroke="midnightblue" points="288.52,-84.54 294.3,-75.66 284.24,-79 288.52,-84.54"/>
</g>
<!-- Node5 -->
<g id="node5" class="node">
<title>Node5</title>
<g id="a_node5"><a xlink:href="MarmotUtils_8h.html" target="_top" xlink:title=" ">
<polygon fill="white" stroke="black" points="109,-0.5 109,-19.5 222,-19.5 222,-0.5 109,-0.5"/>
<text text-anchor="middle" x="165.5" y="-7.5" font-family="Helvetica,sans-Serif" font-size="10.00">Marmot/MarmotUtils.h</text>
</a>
</g>
</g>
<!-- Node4&#45;&gt;Node5 -->
<g id="edge4" class="edge">
<title>Node4&#45;&gt;Node5</title>
<path fill="none" stroke="midnightblue" d="M165.5,-56.08C165.5,-49.01 165.5,-38.86 165.5,-29.99"/>
<polygon fill="midnightblue" stroke="midnightblue" points="169,-29.75 165.5,-19.75 162,-29.75 169,-29.75"/>
</g>
<!-- Node4&#45;&gt;Node6 -->
<g id="edge5" class="edge">
<title>Node4&#45;&gt;Node6</title>
<path fill="none" stroke="midnightblue" d="M190.85,-56.44C219.19,-46.88 265.06,-31.4 295.26,-21.21"/>
<polygon fill="midnightblue" stroke="midnightblue" points="296.49,-24.49 304.85,-17.97 294.25,-17.85 296.49,-24.49"/>
</g>
</g>
</svg>
