<?xml version="1.0" encoding="UTF-8" standalone="no"?>
<!DOCTYPE svg PUBLIC "-//W3C//DTD SVG 1.1//EN"
 "http://www.w3.org/Graphics/SVG/1.1/DTD/svg11.dtd">
<!-- Generated by graphviz version 2.46.0 (20210122.1329)
 -->
<!-- Title: modules Pages: 1 -->
<svg width="168pt" height="204pt"
 viewBox="0.00 0.00 168.00 204.00" xmlns="http://www.w3.org/2000/svg" xmlns:xlink="http://www.w3.org/1999/xlink">
<g id="graph0" class="graph" transform="scale(1 1) rotate(0) translate(4 200)">
<title>modules</title>
<polygon fill="white" stroke="transparent" points="-4,4 -4,-200 164,-200 164,4 -4,4"/>
<g id="clust1" class="cluster">
<title>clusterdir_e05d7e2b1ecd646af5bb94391405f3b5</title>
<g id="a_clust1"><a xlink:href="dir_e05d7e2b1ecd646af5bb94391405f3b5.html" target="_top">
<polygon fill="#eeeeff" stroke="black" points="8,-64 8,-188 152,-188 152,-64 8,-64"/>
</a>
</g>
</g>
<!-- dir_e05d7e2b1ecd646af5bb94391405f3b5 -->
<g id="node1" class="node">
<title>dir_e05d7e2b1ecd646af5bb94391405f3b5</title>
<text text-anchor="middle" x="117" y="-159.5" font-family="Helvetica,sans-Serif" font-size="10.00">modules</text>
</g>
<!-- dir_6d4da112a1331882b0b6514a341190a0 -->
<g id="node2" class="node">
<title>dir_6d4da112a1331882b0b6514a341190a0</title>
<g id="a_node2"><a xlink:href="dir_6d4da112a1331882b0b6514a341190a0.html" target="_top" xlink:title="core">
<polygon fill="white" stroke="red" points="70,-108 16,-108 16,-72 70,-72 70,-108"/>
<text text-anchor="middle" x="43" y="-87.5" font-family="Helvetica,sans-Serif" font-size="10.00">core</text>
</a>
</g>
</g>
<!-- dir_d44c64559bbebec7f509842c48db8b23 -->
<g id="node4" class="node">
<title>dir_d44c64559bbebec7f509842c48db8b23</title>
<g id="a_node4"><a xlink:href="dir_d44c64559bbebec7f509842c48db8b23.html" target="_top" xlink:title="include">
<polygon fill="white" stroke="red" points="97,-36 43,-36 43,0 97,0 97,-36"/>
<text text-anchor="middle" x="70" y="-15.5" font-family="Helvetica,sans-Serif" font-size="10.00">include</text>
</a>
</g>
</g>
<!-- dir_6d4da112a1331882b0b6514a341190a0&#45;&gt;dir_d44c64559bbebec7f509842c48db8b23 -->
<g id="edge1" class="edge">
<title>dir_6d4da112a1331882b0b6514a341190a0&#45;&gt;dir_d44c64559bbebec7f509842c48db8b23</title>
<path fill="none" stroke="black" d="M49.67,-71.7C52.71,-63.81 56.38,-54.3 59.76,-45.55"/>
<polygon fill="black" stroke="black" points="63.07,-46.69 63.4,-36.1 56.54,-44.17 63.07,-46.69"/>
<g id="a_edge1&#45;headlabel"><a xlink:href="dir_000005_000002.html" target="_top" xlink:title="16">
<text text-anchor="middle" x="64.42" y="-48.57" font-family="Helvetica,sans-Serif" font-size="10.00">16</text>
</a>
</g>
</g>
<!-- dir_a55c496f430aa4275197c786dabe211f -->
<g id="node3" class="node">
<title>dir_a55c496f430aa4275197c786dabe211f</title>
<g id="a_node3"><a xlink:href="dir_a55c496f430aa4275197c786dabe211f.html" target="_top" xlink:title="materials">
<polygon fill="white" stroke="red" points="72,-180 16,-180 16,-144 72,-144 72,-180"/>
<text text-anchor="middle" x="44" y="-159.5" font-family="Helvetica,sans-Serif" font-size="10.00">materials</text>
</a>
</g>
</g>
<!-- dir_a55c496f430aa4275197c786dabe211f&#45;&gt;dir_6d4da112a1331882b0b6514a341190a0 -->
<g id="edge2" class="edge">
<title>dir_a55c496f430aa4275197c786dabe211f&#45;&gt;dir_6d4da112a1331882b0b6514a341190a0</title>
<path fill="none" stroke="black" d="M43.75,-143.7C43.64,-135.98 43.51,-126.71 43.39,-118.11"/>
<polygon fill="black" stroke="black" points="46.89,-118.05 43.24,-108.1 39.89,-118.15 46.89,-118.05"/>
<g id="a_edge2&#45;headlabel"><a xlink:href="dir_000008_000005.html" target="_top" xlink:title="4">
<text text-anchor="middle" x="49.78" y="-119.11" font-family="Helvetica,sans-Serif" font-size="10.00">4</text>
</a>
</g>
</g>
<!-- dir_a55c496f430aa4275197c786dabe211f&#45;&gt;dir_d44c64559bbebec7f509842c48db8b23 -->
<g id="edge3" class="edge">
<title>dir_a55c496f430aa4275197c786dabe211f&#45;&gt;dir_d44c64559bbebec7f509842c48db8b23</title>
<path fill="none" stroke="black" d="M59.18,-143.7C66.73,-133.94 75.07,-121.1 79,-108 85.09,-87.73 82.15,-63.83 78.06,-45.9"/>
<polygon fill="black" stroke="black" points="81.43,-44.94 75.58,-36.1 74.64,-46.66 81.43,-44.94"/>
<g id="a_edge3&#45;headlabel"><a xlink:href="dir_000008_000002.html" target="_top" xlink:title="2">
<text text-anchor="middle" x="85.06" y="-45.23" font-family="Helvetica,sans-Serif" font-size="10.00">2</text>
</a>
</g>
</g>
</g>
</svg>
