<?xml version="1.0" encoding="UTF-8" standalone="no"?>
<!DOCTYPE svg PUBLIC "-//W3C//DTD SVG 1.1//EN"
 "http://www.w3.org/Graphics/SVG/1.1/DTD/svg11.dtd">
<!-- Generated by graphviz version 2.47.1 (20210421.1823)
 -->
<!-- Title: modules/core/MarmotMechanicsCore/include/Marmot Pages: 1 -->
<svg width="134pt" height="223pt"
 viewBox="0.00 0.00 134.00 223.00" xmlns="http://www.w3.org/2000/svg" xmlns:xlink="http://www.w3.org/1999/xlink">
<g id="graph0" class="graph" transform="scale(1 1) rotate(0) translate(4 219)">
<title>modules/core/MarmotMechanicsCore/include/Marmot</title>
<polygon fill="white" stroke="transparent" points="-4,4 -4,-219 130,-219 130,4 -4,4"/>
<g id="clust1" class="cluster">
<title>clusterdir_7d9e0bddc3df5047c06a16b0d057f1c8</title>
<g id="a_clust1"><a xlink:href="dir_7d9e0bddc3df5047c06a16b0d057f1c8.html" target="_top" xlink:title="include">
<polygon fill="#ddddee" stroke="black" points="48,-136 48,-207 118,-207 118,-136 48,-136"/>
<text text-anchor="middle" x="83" y="-195" font-family="Helvetica,sans-Serif" font-size="10.00">include</text>
</a>
</g>
</g>
<!-- dir_d0d496183679f761e8bac416323bbe4d -->
<g id="node1" class="node">
<title>dir_d0d496183679f761e8bac416323bbe4d</title>
<g id="a_node1"><a xlink:href="dir_d0d496183679f761e8bac416323bbe4d.html" target="_top" xlink:title="Marmot">
<polygon fill="#eeeeff" stroke="black" points="110,-180 56,-180 56,-144 110,-144 110,-180"/>
<text text-anchor="middle" x="83" y="-159.5" font-family="Helvetica,sans-Serif" font-size="10.00">Marmot</text>
</a>
</g>
</g>
<!-- dir_39413a3592d49ba1372e049fbfe3e31f -->
<g id="node2" class="node">
<title>dir_39413a3592d49ba1372e049fbfe3e31f</title>
<g id="a_node2"><a xlink:href="dir_39413a3592d49ba1372e049fbfe3e31f.html" target="_top" xlink:title="MarmotMathCore">
<polygon fill="white" stroke="red" points="92,-108 0,-108 0,-72 92,-72 92,-108"/>
<text text-anchor="middle" x="46" y="-87.5" font-family="Helvetica,sans-Serif" font-size="10.00">MarmotMathCore</text>
</a>
</g>
</g>
<!-- dir_d0d496183679f761e8bac416323bbe4d&#45;&gt;dir_39413a3592d49ba1372e049fbfe3e31f -->
<g id="edge1" class="edge">
<title>dir_d0d496183679f761e8bac416323bbe4d&#45;&gt;dir_39413a3592d49ba1372e049fbfe3e31f</title>
<path fill="none" stroke="black" d="M73.85,-143.7C69.6,-135.64 64.44,-125.89 59.73,-116.98"/>
<polygon fill="black" stroke="black" points="62.81,-115.31 55.04,-108.1 56.62,-118.58 62.81,-115.31"/>
<g id="a_edge1&#45;headlabel"><a xlink:href="dir_000017_000006.html" target="_top" xlink:title="12">
<text text-anchor="middle" x="67" y="-114.66" font-family="Helvetica,sans-Serif" font-size="10.00">12</text>
</a>
</g>
</g>
<!-- dir_d44c64559bbebec7f509842c48db8b23 -->
<g id="node3" class="node">
<title>dir_d44c64559bbebec7f509842c48db8b23</title>
<g id="a_node3"><a xlink:href="dir_d44c64559bbebec7f509842c48db8b23.html" target="_top" xlink:title="include">
<polygon fill="white" stroke="red" points="110,-36 56,-36 56,0 110,0 110,-36"/>
<text text-anchor="middle" x="83" y="-15.5" font-family="Helvetica,sans-Serif" font-size="10.00">include</text>
</a>
</g>
</g>
<!-- dir_d0d496183679f761e8bac416323bbe4d&#45;&gt;dir_d44c64559bbebec7f509842c48db8b23 -->
<g id="edge2" class="edge">
<title>dir_d0d496183679f761e8bac416323bbe4d&#45;&gt;dir_d44c64559bbebec7f509842c48db8b23</title>
<path fill="none" stroke="black" d="M90.48,-143.7C94.47,-133.52 98.97,-120.27 101,-108 103.61,-92.21 103.61,-87.79 101,-72 99.56,-63.28 96.87,-54.06 94,-45.8"/>
<polygon fill="black" stroke="black" points="97.23,-44.46 90.48,-36.3 90.67,-46.89 97.23,-44.46"/>
<g id="a_edge2&#45;headlabel"><a xlink:href="dir_000017_000002.html" target="_top" xlink:title="10">
<text text-anchor="middle" x="101.14" y="-44.34" font-family="Helvetica,sans-Serif" font-size="10.00">10</text>
</a>
</g>
</g>
<!-- dir_39413a3592d49ba1372e049fbfe3e31f&#45;&gt;dir_d44c64559bbebec7f509842c48db8b23 -->
<g id="edge3" class="edge">
<title>dir_39413a3592d49ba1372e049fbfe3e31f&#45;&gt;dir_d44c64559bbebec7f509842c48db8b23</title>
<path fill="none" stroke="black" d="M55.15,-71.7C59.4,-63.64 64.56,-53.89 69.27,-44.98"/>
<polygon fill="black" stroke="black" points="72.38,-46.58 73.96,-36.1 66.19,-43.31 72.38,-46.58"/>
<g id="a_edge3&#45;headlabel"><a xlink:href="dir_000006_000002.html" target="_top" xlink:title="1">
<text text-anchor="middle" x="73.21" y="-48.59" font-family="Helvetica,sans-Serif" font-size="10.00">1</text>
</a>
</g>
</g>
</g>
</svg>
