<?xml version="1.0" encoding="UTF-8" standalone="no"?>
<!DOCTYPE svg PUBLIC "-//W3C//DTD SVG 1.1//EN"
 "http://www.w3.org/Graphics/SVG/1.1/DTD/svg11.dtd">
<!-- Generated by graphviz version 2.44.0 ()
 -->
<!-- Title: modules/core/MarmotMechanicsCore/src Pages: 1 -->
<svg width="158pt" height="295pt"
 viewBox="0.00 0.00 158.00 295.00" xmlns="http://www.w3.org/2000/svg" xmlns:xlink="http://www.w3.org/1999/xlink">
<g id="graph0" class="graph" transform="scale(1 1) rotate(0) translate(4 291)">
<title>modules/core/MarmotMechanicsCore/src</title>
<polygon fill="white" stroke="transparent" points="-4,4 -4,-291 154,-291 154,4 -4,4"/>
<g id="clust1" class="cluster">
<title>clusterdir_9969c29766c3ca5ea49aac3cac97384d</title>
<g id="a_clust1"><a xlink:href="dir_9969c29766c3ca5ea49aac3cac97384d.html" target="_top" xlink:title="MarmotMechanicsCore">
<polygon fill="#ddddee" stroke="black" points="25,-208 25,-279 142,-279 142,-208 25,-208"/>
<text text-anchor="middle" x="83.5" y="-267" font-family="Helvetica,sans-Serif" font-size="10.00">MarmotMechanicsCore</text>
</a>
</g>
</g>
<!-- dir_44fa5c34dc4af4cf8679eba293af8a34 -->
<g id="node1" class="node">
<title>dir_44fa5c34dc4af4cf8679eba293af8a34</title>
<g id="a_node1"><a xlink:href="dir_44fa5c34dc4af4cf8679eba293af8a34.html" target="_top" xlink:title="src">
<polygon fill="#eeeeff" stroke="black" points="110,-252 56,-252 56,-216 110,-216 110,-252"/>
<text text-anchor="middle" x="83" y="-231.5" font-family="Helvetica,sans-Serif" font-size="10.00">src</text>
</a>
</g>
</g>
<!-- dir_d44c64559bbebec7f509842c48db8b23 -->
<g id="node2" class="node">
<title>dir_d44c64559bbebec7f509842c48db8b23</title>
<g id="a_node2"><a xlink:href="dir_d44c64559bbebec7f509842c48db8b23.html" target="_top" xlink:title="include">
<polygon fill="white" stroke="red" points="110,-180 56,-180 56,-144 110,-144 110,-180"/>
<text text-anchor="middle" x="83" y="-159.5" font-family="Helvetica,sans-Serif" font-size="10.00">include</text>
</a>
</g>
</g>
<!-- dir_44fa5c34dc4af4cf8679eba293af8a34&#45;&gt;dir_d44c64559bbebec7f509842c48db8b23 -->
<g id="edge1" class="edge">
<title>dir_44fa5c34dc4af4cf8679eba293af8a34&#45;&gt;dir_d44c64559bbebec7f509842c48db8b23</title>
<path fill="none" stroke="black" d="M83,-215.7C83,-207.98 83,-198.71 83,-190.11"/>
<polygon fill="black" stroke="black" points="86.5,-190.1 83,-180.1 79.5,-190.1 86.5,-190.1"/>
<g id="a_edge1&#45;headlabel"><a xlink:href="dir_000028_000002.html" target="_top" xlink:title="5">
<text text-anchor="middle" x="89.34" y="-191.2" font-family="Helvetica,sans-Serif" font-size="10.00">5</text>
</a>
</g>
</g>
<!-- dir_7d9e0bddc3df5047c06a16b0d057f1c8 -->
<g id="node3" class="node">
<title>dir_7d9e0bddc3df5047c06a16b0d057f1c8</title>
<g id="a_node3"><a xlink:href="dir_7d9e0bddc3df5047c06a16b0d057f1c8.html" target="_top" xlink:title="include">
<polygon fill="white" stroke="red" points="54,-108 0,-108 0,-72 54,-72 54,-108"/>
<text text-anchor="middle" x="27" y="-87.5" font-family="Helvetica,sans-Serif" font-size="10.00">include</text>
</a>
</g>
</g>
<!-- dir_44fa5c34dc4af4cf8679eba293af8a34&#45;&gt;dir_7d9e0bddc3df5047c06a16b0d057f1c8 -->
<g id="edge2" class="edge">
<title>dir_44fa5c34dc4af4cf8679eba293af8a34&#45;&gt;dir_7d9e0bddc3df5047c06a16b0d057f1c8</title>
<path fill="none" stroke="black" d="M68.89,-215.83C61.38,-205.9 52.57,-192.86 47,-180 38.46,-160.29 33.36,-136.49 30.44,-118.46"/>
<polygon fill="black" stroke="black" points="33.87,-117.7 28.94,-108.33 26.95,-118.73 33.87,-117.7"/>
<g id="a_edge2&#45;headlabel"><a xlink:href="dir_000028_000026.html" target="_top" xlink:title="35">
<text text-anchor="middle" x="37.21" y="-118.34" font-family="Helvetica,sans-Serif" font-size="10.00">35</text>
</a>
</g>
</g>
<!-- dir_39413a3592d49ba1372e049fbfe3e31f -->
<g id="node4" class="node">
<title>dir_39413a3592d49ba1372e049fbfe3e31f</title>
<g id="a_node4"><a xlink:href="dir_39413a3592d49ba1372e049fbfe3e31f.html" target="_top" xlink:title="MarmotMathCore">
<polygon fill="white" stroke="red" points="137,-36 45,-36 45,0 137,0 137,-36"/>
<text text-anchor="middle" x="91" y="-15.5" font-family="Helvetica,sans-Serif" font-size="10.00">MarmotMathCore</text>
</a>
</g>
</g>
<!-- dir_44fa5c34dc4af4cf8679eba293af8a34&#45;&gt;dir_39413a3592d49ba1372e049fbfe3e31f -->
<g id="edge3" class="edge">
<title>dir_44fa5c34dc4af4cf8679eba293af8a34&#45;&gt;dir_39413a3592d49ba1372e049fbfe3e31f</title>
<path fill="none" stroke="black" d="M98.61,-215.77C106.37,-206.03 114.95,-193.18 119,-180 133.21,-133.8 116.1,-77.78 103.07,-45.48"/>
<polygon fill="black" stroke="black" points="106.29,-44.12 99.2,-36.25 99.84,-46.83 106.29,-44.12"/>
<g id="a_edge3&#45;headlabel"><a xlink:href="dir_000028_000014.html" target="_top" xlink:title="26">
<text text-anchor="middle" x="110.3" y="-43.83" font-family="Helvetica,sans-Serif" font-size="10.00">26</text>
</a>
</g>
</g>
<!-- dir_d44c64559bbebec7f509842c48db8b23&#45;&gt;dir_7d9e0bddc3df5047c06a16b0d057f1c8 -->
<g id="edge4" class="edge">
<title>dir_d44c64559bbebec7f509842c48db8b23&#45;&gt;dir_7d9e0bddc3df5047c06a16b0d057f1c8</title>
<path fill="none" stroke="black" d="M63.24,-143.7C55.82,-135.47 47.62,-125.48 40.82,-116.42"/>
<polygon fill="black" stroke="black" points="43.49,-114.15 34.79,-108.1 37.82,-118.26 43.49,-114.15"/>
<g id="a_edge4&#45;headlabel"><a xlink:href="dir_000002_000026.html" target="_top" xlink:title="1">
<text text-anchor="middle" x="47.9" y="-112.89" font-family="Helvetica,sans-Serif" font-size="10.00">1</text>
</a>
</g>
</g>
<!-- dir_d44c64559bbebec7f509842c48db8b23&#45;&gt;dir_39413a3592d49ba1372e049fbfe3e31f -->
<g id="edge5" class="edge">
<title>dir_d44c64559bbebec7f509842c48db8b23&#45;&gt;dir_39413a3592d49ba1372e049fbfe3e31f</title>
<path fill="none" stroke="black" d="M79.38,-143.87C78.19,-119.67 80.4,-75.21 84,-46.39"/>
<polygon fill="black" stroke="black" points="87.51,-46.58 85.44,-36.19 80.57,-45.6 87.51,-46.58"/>
<g id="a_edge5&#45;headlabel"><a xlink:href="dir_000002_000014.html" target="_top" xlink:title="1">
<text text-anchor="middle" x="89.81" y="-48.04" font-family="Helvetica,sans-Serif" font-size="10.00">1</text>
</a>
</g>
</g>
<!-- dir_7d9e0bddc3df5047c06a16b0d057f1c8&#45;&gt;dir_d44c64559bbebec7f509842c48db8b23 -->
<g id="edge6" class="edge">
<title>dir_7d9e0bddc3df5047c06a16b0d057f1c8&#45;&gt;dir_d44c64559bbebec7f509842c48db8b23</title>
<path fill="none" stroke="black" d="M46.58,-108.1C53.99,-116.3 62.19,-126.28 69.02,-135.36"/>
<polygon fill="black" stroke="black" points="66.36,-137.66 75.07,-143.7 72.03,-133.55 66.36,-137.66"/>
<g id="a_edge6&#45;headlabel"><a xlink:href="dir_000026_000002.html" target="_top" xlink:title="11">
<text text-anchor="middle" x="61.96" y="-133.92" font-family="Helvetica,sans-Serif" font-size="10.00">11</text>
</a>
</g>
</g>
<!-- dir_7d9e0bddc3df5047c06a16b0d057f1c8&#45;&gt;dir_39413a3592d49ba1372e049fbfe3e31f -->
<g id="edge7" class="edge">
<title>dir_7d9e0bddc3df5047c06a16b0d057f1c8&#45;&gt;dir_39413a3592d49ba1372e049fbfe3e31f</title>
<path fill="none" stroke="black" d="M36.9,-71.7C43.85,-63.14 53.25,-52.66 62.32,-43.3"/>
<polygon fill="black" stroke="black" points="64.9,-45.67 69.47,-36.1 59.94,-40.73 64.9,-45.67"/>
<g id="a_edge7&#45;headlabel"><a xlink:href="dir_000026_000014.html" target="_top" xlink:title="18">
<text text-anchor="middle" x="64.39" y="-47.72" font-family="Helvetica,sans-Serif" font-size="10.00">18</text>
</a>
</g>
</g>
<!-- dir_39413a3592d49ba1372e049fbfe3e31f&#45;&gt;dir_d44c64559bbebec7f509842c48db8b23 -->
<g id="edge8" class="edge">
<title>dir_39413a3592d49ba1372e049fbfe3e31f&#45;&gt;dir_d44c64559bbebec7f509842c48db8b23</title>
<path fill="none" stroke="black" d="M94.62,-36.19C95.81,-60.42 93.59,-104.89 89.99,-133.68"/>
<polygon fill="black" stroke="black" points="86.49,-133.48 88.55,-143.87 93.42,-134.46 86.49,-133.48"/>
<g id="a_edge8&#45;headlabel"><a xlink:href="dir_000014_000002.html" target="_top" xlink:title="1">
<text text-anchor="middle" x="84.18" y="-127.02" font-family="Helvetica,sans-Serif" font-size="10.00">1</text>
</a>
</g>
</g>
<!-- dir_39413a3592d49ba1372e049fbfe3e31f&#45;&gt;dir_7d9e0bddc3df5047c06a16b0d057f1c8 -->
<g id="edge9" class="edge">
<title>dir_39413a3592d49ba1372e049fbfe3e31f&#45;&gt;dir_7d9e0bddc3df5047c06a16b0d057f1c8</title>
<path fill="none" stroke="black" d="M81.26,-36.1C74.35,-44.64 64.97,-55.11 55.89,-64.48"/>
<polygon fill="black" stroke="black" points="53.29,-62.13 48.74,-71.7 58.26,-67.06 53.29,-62.13"/>
<g id="a_edge9&#45;headlabel"><a xlink:href="dir_000014_000026.html" target="_top" xlink:title="1">
<text text-anchor="middle" x="53.81" y="-55.08" font-family="Helvetica,sans-Serif" font-size="10.00">1</text>
</a>
</g>
</g>
</g>
</svg>
