<?xml version="1.0" encoding="UTF-8" standalone="no"?>
<!DOCTYPE svg PUBLIC "-//W3C//DTD SVG 1.1//EN"
 "http://www.w3.org/Graphics/SVG/1.1/DTD/svg11.dtd">
<!-- Generated by graphviz version 3.0.0 (20220413.0106)
 -->
<!-- Title: modules/core/MarmotFiniteElementCore/include/Marmot Pages: 1 -->
<svg width="308pt" height="151pt"
 viewBox="0.00 0.00 308.00 151.00" xmlns="http://www.w3.org/2000/svg" xmlns:xlink="http://www.w3.org/1999/xlink">
<g id="graph0" class="graph" transform="scale(1 1) rotate(0) translate(4 147)">
<title>modules/core/MarmotFiniteElementCore/include/Marmot</title>
<polygon fill="white" stroke="transparent" points="-4,4 -4,-147 304,-147 304,4 -4,4"/>
<g id="clust1" class="cluster">
<title>clusterdir_7a1ab5031ed028ea4c059c711d14cf0d</title>
<g id="a_clust1"><a xlink:href="dir_7a1ab5031ed028ea4c059c711d14cf0d.html" target="_top" xlink:title="include">
<polygon fill="#cbdbe8" stroke="#7f7f7f" stroke-dasharray="5,2" points="134,-64 134,-135 204,-135 204,-64 134,-64"/>
<text text-anchor="middle" x="169" y="-123" font-family="Helvetica,sans-Serif" font-size="10.00">include</text>
</a>
</g>
</g>
<!-- dir_e6c99e61a88c6eeecbcab6235d9f46dc -->
<g id="node1" class="node">
<title>dir_e6c99e61a88c6eeecbcab6235d9f46dc</title>
<g id="a_node1"><a xlink:href="dir_e6c99e61a88c6eeecbcab6235d9f46dc.html" target="_top" xlink:title="Marmot">
<polygon fill="#cbdbe8" stroke="#404040" stroke-width="2" points="196,-108 142,-108 142,-72 196,-72 196,-108"/>
<text text-anchor="middle" x="169" y="-87.5" font-family="Helvetica,sans-Serif" font-size="10.00">Marmot</text>
</a>
</g>
</g>
<!-- dir_39413a3592d49ba1372e049fbfe3e31f -->
<g id="node2" class="node">
<title>dir_39413a3592d49ba1372e049fbfe3e31f</title>
<g id="a_node2"><a xlink:href="dir_39413a3592d49ba1372e049fbfe3e31f.html" target="_top" xlink:title="MarmotMathCore">
<polygon fill="none" stroke="red" stroke-dasharray="5,2" points="92,-36 0,-36 0,0 92,0 92,-36"/>
<text text-anchor="middle" x="46" y="-15.5" font-family="Helvetica,sans-Serif" font-size="10.00">MarmotMathCore</text>
</a>
</g>
</g>
<!-- dir_e6c99e61a88c6eeecbcab6235d9f46dc&#45;&gt;dir_39413a3592d49ba1372e049fbfe3e31f -->
<g id="edge1" class="edge">
<title>dir_e6c99e61a88c6eeecbcab6235d9f46dc&#45;&gt;dir_39413a3592d49ba1372e049fbfe3e31f</title>
<path fill="none" stroke="black" d="M141.7,-73.46C125.04,-63.98 103.46,-51.7 85.01,-41.2"/>
<polygon fill="black" stroke="black" points="86.66,-38.12 76.24,-36.21 83.2,-44.2 86.66,-38.12"/>
<g id="a_edge1&#45;headlabel"><a xlink:href="dir_000016_000022.html" target="_top" xlink:title="3">
<text text-anchor="middle" x="91.19" y="-34.93" font-family="Helvetica,sans-Serif" font-size="10.00">3</text>
</a>
</g>
</g>
<!-- dir_9969c29766c3ca5ea49aac3cac97384d -->
<g id="node3" class="node">
<title>dir_9969c29766c3ca5ea49aac3cac97384d</title>
<g id="a_node3"><a xlink:href="dir_9969c29766c3ca5ea49aac3cac97384d.html" target="_top" xlink:title="MarmotMechanicsCore">
<polygon fill="none" stroke="red" stroke-dasharray="5,2" points="227.5,-36 110.5,-36 110.5,0 227.5,0 227.5,-36"/>
<text text-anchor="middle" x="169" y="-15.5" font-family="Helvetica,sans-Serif" font-size="10.00">MarmotMechanicsCore</text>
</a>
</g>
</g>
<!-- dir_e6c99e61a88c6eeecbcab6235d9f46dc&#45;&gt;dir_9969c29766c3ca5ea49aac3cac97384d -->
<g id="edge2" class="edge">
<title>dir_e6c99e61a88c6eeecbcab6235d9f46dc&#45;&gt;dir_9969c29766c3ca5ea49aac3cac97384d</title>
<path fill="none" stroke="black" d="M169,-71.7C169,-63.98 169,-54.71 169,-46.11"/>
<polygon fill="black" stroke="black" points="172.5,-46.1 169,-36.1 165.5,-46.1 172.5,-46.1"/>
<g id="a_edge2&#45;headlabel"><a xlink:href="dir_000016_000023.html" target="_top" xlink:title="1">
<text text-anchor="middle" x="175.34" y="-47.2" font-family="Helvetica,sans-Serif" font-size="10.00">1</text>
</a>
</g>
</g>
<!-- dir_d44c64559bbebec7f509842c48db8b23 -->
<g id="node4" class="node">
<title>dir_d44c64559bbebec7f509842c48db8b23</title>
<g id="a_node4"><a xlink:href="dir_d44c64559bbebec7f509842c48db8b23.html" target="_top" xlink:title="include">
<polygon fill="none" stroke="red" points="300,-36 246,-36 246,0 300,0 300,-36"/>
<text text-anchor="middle" x="273" y="-15.5" font-family="Helvetica,sans-Serif" font-size="10.00">include</text>
</a>
</g>
</g>
<!-- dir_e6c99e61a88c6eeecbcab6235d9f46dc&#45;&gt;dir_d44c64559bbebec7f509842c48db8b23 -->
<g id="edge3" class="edge">
<title>dir_e6c99e61a88c6eeecbcab6235d9f46dc&#45;&gt;dir_d44c64559bbebec7f509842c48db8b23</title>
<path fill="none" stroke="black" d="M194.44,-71.88C207.79,-62.89 224.32,-51.76 238.78,-42.03"/>
<polygon fill="black" stroke="black" points="241.12,-44.68 247.46,-36.19 237.21,-38.87 241.12,-44.68"/>
<g id="a_edge3&#45;headlabel"><a xlink:href="dir_000016_000007.html" target="_top" xlink:title="2">
<text text-anchor="middle" x="239.72" y="-46.54" font-family="Helvetica,sans-Serif" font-size="10.00">2</text>
</a>
</g>
</g>
</g>
</svg>
