<?xml version="1.0" encoding="UTF-8" standalone="no"?>
<!DOCTYPE svg PUBLIC "-//W3C//DTD SVG 1.1//EN"
 "http://www.w3.org/Graphics/SVG/1.1/DTD/svg11.dtd">
<!-- Generated by graphviz version 3.0.0 (20220413.0106)
 -->
<!-- Title: modules/core/MarmotMechanicsCore Pages: 1 -->
<svg width="450pt" height="247pt"
 viewBox="0.00 0.00 450.00 247.00" xmlns="http://www.w3.org/2000/svg" xmlns:xlink="http://www.w3.org/1999/xlink">
<g id="graph0" class="graph" transform="scale(1 1) rotate(0) translate(4 243)">
<title>modules/core/MarmotMechanicsCore</title>
<polygon fill="white" stroke="transparent" points="-4,4 -4,-243 446,-243 446,4 -4,4"/>
<g id="clust1" class="cluster">
<title>clusterdir_6d4da112a1331882b0b6514a341190a0</title>
<g id="a_clust1"><a xlink:href="dir_6d4da112a1331882b0b6514a341190a0.html" target="_top" xlink:title="core">
<polygon fill="#cbdbe8" stroke="#7f7f7f" stroke-dasharray="5,2" points="8,-8 8,-231 380,-231 380,-8 8,-8"/>
<text text-anchor="middle" x="194" y="-219" font-family="Helvetica,sans-Serif" font-size="10.00">core</text>
</a>
</g>
</g>
<g id="clust2" class="cluster">
<title>clusterdir_9969c29766c3ca5ea49aac3cac97384d</title>
<g id="a_clust2"><a xlink:href="dir_9969c29766c3ca5ea49aac3cac97384d.html" target="_top">
<polygon fill="#cbdbe8" stroke="#404040" stroke-width="2" points="16,-80 16,-204 372,-204 372,-80 16,-80"/>
</a>
</g>
</g>
<!-- dir_39413a3592d49ba1372e049fbfe3e31f -->
<g id="node1" class="node">
<title>dir_39413a3592d49ba1372e049fbfe3e31f</title>
<g id="a_node1"><a xlink:href="dir_39413a3592d49ba1372e049fbfe3e31f.html" target="_top" xlink:title="MarmotMathCore">
<polygon fill="#3e6a8f" stroke="red" points="198,-52 106,-52 106,-16 198,-16 198,-52"/>
<text text-anchor="middle" x="152" y="-31.5" font-family="Helvetica,sans-Serif" font-size="10.00">MarmotMathCore</text>
</a>
</g>
</g>
<!-- dir_9969c29766c3ca5ea49aac3cac97384d -->
<g id="node2" class="node">
<title>dir_9969c29766c3ca5ea49aac3cac97384d</title>
<text text-anchor="middle" x="305" y="-175.5" font-family="Helvetica,sans-Serif" font-size="10.00">MarmotMechanicsCore</text>
</g>
<!-- dir_f1b1db24a065556929791500418aeb43 -->
<g id="node3" class="node">
<title>dir_f1b1db24a065556929791500418aeb43</title>
<g id="a_node3"><a xlink:href="dir_f1b1db24a065556929791500418aeb43.html" target="_top" xlink:title="doc">
<polygon fill="#3e6a8f" stroke="#404040" points="228,-196 174,-196 174,-160 228,-160 228,-196"/>
<text text-anchor="middle" x="201" y="-175.5" font-family="Helvetica,sans-Serif" font-size="10.00">doc</text>
</a>
</g>
</g>
<!-- dir_7d9e0bddc3df5047c06a16b0d057f1c8 -->
<g id="node4" class="node">
<title>dir_7d9e0bddc3df5047c06a16b0d057f1c8</title>
<g id="a_node4"><a xlink:href="dir_7d9e0bddc3df5047c06a16b0d057f1c8.html" target="_top" xlink:title="include">
<polygon fill="#3e6a8f" stroke="#404040" points="202,-124 148,-124 148,-88 202,-88 202,-124"/>
<text text-anchor="middle" x="175" y="-103.5" font-family="Helvetica,sans-Serif" font-size="10.00">include</text>
</a>
</g>
</g>
<!-- dir_7d9e0bddc3df5047c06a16b0d057f1c8&#45;&gt;dir_39413a3592d49ba1372e049fbfe3e31f -->
<g id="edge2" class="edge">
<title>dir_7d9e0bddc3df5047c06a16b0d057f1c8&#45;&gt;dir_39413a3592d49ba1372e049fbfe3e31f</title>
<path fill="none" stroke="black" d="M169.31,-87.7C166.75,-79.9 163.67,-70.51 160.82,-61.83"/>
<polygon fill="black" stroke="black" points="164.07,-60.51 157.62,-52.1 157.42,-62.7 164.07,-60.51"/>
<g id="a_edge2&#45;headlabel"><a xlink:href="dir_000010_000022.html" target="_top" xlink:title="14">
<text text-anchor="middle" x="167.89" y="-60.54" font-family="Helvetica,sans-Serif" font-size="10.00">14</text>
</a>
</g>
</g>
<!-- dir_d44c64559bbebec7f509842c48db8b23 -->
<g id="node7" class="node">
<title>dir_d44c64559bbebec7f509842c48db8b23</title>
<g id="a_node7"><a xlink:href="dir_d44c64559bbebec7f509842c48db8b23.html" target="_top" xlink:title="include">
<polygon fill="none" stroke="red" points="442,-52 388,-52 388,-16 442,-16 442,-52"/>
<text text-anchor="middle" x="415" y="-31.5" font-family="Helvetica,sans-Serif" font-size="10.00">include</text>
</a>
</g>
</g>
<!-- dir_7d9e0bddc3df5047c06a16b0d057f1c8&#45;&gt;dir_d44c64559bbebec7f509842c48db8b23 -->
<g id="edge1" class="edge">
<title>dir_7d9e0bddc3df5047c06a16b0d057f1c8&#45;&gt;dir_d44c64559bbebec7f509842c48db8b23</title>
<path fill="none" stroke="black" d="M202.07,-100.41C240.68,-93.38 313.69,-78.32 378.33,-54.05"/>
<polygon fill="black" stroke="black" points="379.72,-57.26 387.8,-50.41 377.21,-50.73 379.72,-57.26"/>
<g id="a_edge1&#45;headlabel"><a xlink:href="dir_000010_000007.html" target="_top" xlink:title="10">
<text text-anchor="middle" x="377.39" y="-58.71" font-family="Helvetica,sans-Serif" font-size="10.00">10</text>
</a>
</g>
</g>
<!-- dir_44fa5c34dc4af4cf8679eba293af8a34 -->
<g id="node5" class="node">
<title>dir_44fa5c34dc4af4cf8679eba293af8a34</title>
<g id="a_node5"><a xlink:href="dir_44fa5c34dc4af4cf8679eba293af8a34.html" target="_top" xlink:title="src">
<polygon fill="#3e6a8f" stroke="#404040" points="156,-196 102,-196 102,-160 156,-160 156,-196"/>
<text text-anchor="middle" x="129" y="-175.5" font-family="Helvetica,sans-Serif" font-size="10.00">src</text>
</a>
</g>
</g>
<!-- dir_44fa5c34dc4af4cf8679eba293af8a34&#45;&gt;dir_39413a3592d49ba1372e049fbfe3e31f -->
<g id="edge3" class="edge">
<title>dir_44fa5c34dc4af4cf8679eba293af8a34&#45;&gt;dir_39413a3592d49ba1372e049fbfe3e31f</title>
<path fill="none" stroke="black" d="M129.85,-159.69C131.03,-140.18 133.64,-107.59 139,-80 140.12,-74.21 141.66,-68.09 143.27,-62.3"/>
<polygon fill="black" stroke="black" points="146.73,-62.93 146.2,-52.35 140.02,-60.95 146.73,-62.93"/>
<g id="a_edge3&#45;headlabel"><a xlink:href="dir_000028_000022.html" target="_top" xlink:title="20">
<text text-anchor="middle" x="148.44" y="-64.68" font-family="Helvetica,sans-Serif" font-size="10.00">20</text>
</a>
</g>
</g>
<!-- dir_44fa5c34dc4af4cf8679eba293af8a34&#45;&gt;dir_7d9e0bddc3df5047c06a16b0d057f1c8 -->
<g id="edge4" class="edge">
<title>dir_44fa5c34dc4af4cf8679eba293af8a34&#45;&gt;dir_7d9e0bddc3df5047c06a16b0d057f1c8</title>
<path fill="none" stroke="black" d="M140.37,-159.7C145.72,-151.56 152.2,-141.69 158.11,-132.7"/>
<polygon fill="black" stroke="black" points="161.19,-134.38 163.76,-124.1 155.34,-130.54 161.19,-134.38"/>
<g id="a_edge4&#45;headlabel"><a xlink:href="dir_000028_000010.html" target="_top" xlink:title="30">
<text text-anchor="middle" x="161.59" y="-136.45" font-family="Helvetica,sans-Serif" font-size="10.00">30</text>
</a>
</g>
</g>
<!-- dir_44fa5c34dc4af4cf8679eba293af8a34&#45;&gt;dir_d44c64559bbebec7f509842c48db8b23 -->
<g id="edge5" class="edge">
<title>dir_44fa5c34dc4af4cf8679eba293af8a34&#45;&gt;dir_d44c64559bbebec7f509842c48db8b23</title>
<path fill="none" stroke="black" d="M156,-164.26C201.17,-142.85 295.02,-97.91 379.1,-54.51"/>
<polygon fill="black" stroke="black" points="380.72,-57.61 387.99,-49.91 377.5,-51.4 380.72,-57.61"/>
<g id="a_edge5&#45;headlabel"><a xlink:href="dir_000028_000007.html" target="_top" xlink:title="5">
<text text-anchor="middle" x="378.83" y="-59.29" font-family="Helvetica,sans-Serif" font-size="10.00">5</text>
</a>
</g>
</g>
<!-- dir_416960a058739096120dd0e909285a2b -->
<g id="node6" class="node">
<title>dir_416960a058739096120dd0e909285a2b</title>
<g id="a_node6"><a xlink:href="dir_416960a058739096120dd0e909285a2b.html" target="_top" xlink:title="testScript">
<polygon fill="#3e6a8f" stroke="#404040" points="83.5,-196 24.5,-196 24.5,-160 83.5,-160 83.5,-196"/>
<text text-anchor="middle" x="54" y="-175.5" font-family="Helvetica,sans-Serif" font-size="10.00">testScript</text>
</a>
</g>
</g>
</g>
</svg>
