<?xml version="1.0" encoding="UTF-8" standalone="no"?>
<!DOCTYPE svg PUBLIC "-//W3C//DTD SVG 1.1//EN"
 "http://www.w3.org/Graphics/SVG/1.1/DTD/svg11.dtd">
<!-- Generated by graphviz version 2.44.0 ()
 -->
<!-- Title: modules/materials/ADLinearElastic/include Pages: 1 -->
<svg width="182pt" height="159pt"
 viewBox="0.00 0.00 182.00 159.00" xmlns="http://www.w3.org/2000/svg" xmlns:xlink="http://www.w3.org/1999/xlink">
<g id="graph0" class="graph" transform="scale(1 1) rotate(0) translate(4 155)">
<title>modules/materials/ADLinearElastic/include</title>
<polygon fill="white" stroke="transparent" points="-4,4 -4,-155 178,-155 178,4 -4,4"/>
<g id="clust1" class="cluster">
<title>clusterdir_66ef614a772dffad2e180958dd6e79b3</title>
<g id="a_clust1"><a xlink:href="dir_66ef614a772dffad2e180958dd6e79b3.html" target="_top" xlink:title="ADLinearElastic">
<polygon fill="#ddddee" stroke="black" points="8,-56 8,-143 166,-143 166,-56 8,-56"/>
<text text-anchor="middle" x="87" y="-131" font-family="Helvetica,sans-Serif" font-size="10.00">ADLinearElastic</text>
</a>
</g>
</g>
<g id="clust2" class="cluster">
<title>clusterdir_36f0eba417753e7c491122b69b2b7676</title>
<g id="a_clust2"><a xlink:href="dir_36f0eba417753e7c491122b69b2b7676.html" target="_top">
<polygon fill="#eeeeff" stroke="black" points="16,-64 16,-116 158,-116 158,-64 16,-64"/>
</a>
</g>
</g>
<!-- dir_36f0eba417753e7c491122b69b2b7676 -->
<g id="node1" class="node">
<title>dir_36f0eba417753e7c491122b69b2b7676</title>
<text text-anchor="middle" x="123" y="-87.5" font-family="Helvetica,sans-Serif" font-size="10.00">include</text>
</g>
<!-- dir_c19e68b9dea4224a6b7e2285233f03f8 -->
<g id="node2" class="node">
<title>dir_c19e68b9dea4224a6b7e2285233f03f8</title>
<g id="a_node2"><a xlink:href="dir_c19e68b9dea4224a6b7e2285233f03f8.html" target="_top" xlink:title="Marmot">
<polygon fill="white" stroke="black" points="78,-108 24,-108 24,-72 78,-72 78,-108"/>
<text text-anchor="middle" x="51" y="-87.5" font-family="Helvetica,sans-Serif" font-size="10.00">Marmot</text>
</a>
</g>
</g>
<!-- dir_6d4da112a1331882b0b6514a341190a0 -->
<g id="node3" class="node">
<title>dir_6d4da112a1331882b0b6514a341190a0</title>
<g id="a_node3"><a xlink:href="dir_6d4da112a1331882b0b6514a341190a0.html" target="_top" xlink:title="core">
<polygon fill="white" stroke="red" points="78,-36 24,-36 24,0 78,0 78,-36"/>
<text text-anchor="middle" x="51" y="-15.5" font-family="Helvetica,sans-Serif" font-size="10.00">core</text>
</a>
</g>
</g>
<!-- dir_c19e68b9dea4224a6b7e2285233f03f8&#45;&gt;dir_6d4da112a1331882b0b6514a341190a0 -->
<g id="edge1" class="edge">
<title>dir_c19e68b9dea4224a6b7e2285233f03f8&#45;&gt;dir_6d4da112a1331882b0b6514a341190a0</title>
<path fill="none" stroke="black" d="M51,-71.7C51,-63.98 51,-54.71 51,-46.11"/>
<polygon fill="black" stroke="black" points="54.5,-46.1 51,-36.1 47.5,-46.1 54.5,-46.1"/>
<g id="a_edge1&#45;headlabel"><a xlink:href="dir_000040_000005.html" target="_top" xlink:title="2">
<text text-anchor="middle" x="57.34" y="-47.2" font-family="Helvetica,sans-Serif" font-size="10.00">2</text>
</a>
</g>
</g>
</g>
</svg>
