<?xml version="1.0" encoding="UTF-8" standalone="no"?>
<!DOCTYPE svg PUBLIC "-//W3C//DTD SVG 1.1//EN"
 "http://www.w3.org/Graphics/SVG/1.1/DTD/svg11.dtd">
<!-- Generated by graphviz version 2.47.1 (20210421.1823)
 -->
<!-- Title: modules/core Pages: 1 -->
<svg width="220pt" height="231pt"
 viewBox="0.00 0.00 220.00 231.00" xmlns="http://www.w3.org/2000/svg" xmlns:xlink="http://www.w3.org/1999/xlink">
<g id="graph0" class="graph" transform="scale(1 1) rotate(0) translate(4 227)">
<title>modules/core</title>
<polygon fill="white" stroke="transparent" points="-4,4 -4,-227 216,-227 216,4 -4,4"/>
<g id="clust1" class="cluster">
<title>clusterdir_e05d7e2b1ecd646af5bb94391405f3b5</title>
<g id="a_clust1"><a xlink:href="dir_e05d7e2b1ecd646af5bb94391405f3b5.html" target="_top" xlink:title="modules">
<polygon fill="#ddddee" stroke="black" points="8,-56 8,-215 204,-215 204,-56 8,-56"/>
<text text-anchor="middle" x="106" y="-203" font-family="Helvetica,sans-Serif" font-size="10.00">modules</text>
</a>
</g>
</g>
<g id="clust2" class="cluster">
<title>clusterdir_6d4da112a1331882b0b6514a341190a0</title>
<g id="a_clust2"><a xlink:href="dir_6d4da112a1331882b0b6514a341190a0.html" target="_top">
<polygon fill="#eeeeff" stroke="black" points="16,-64 16,-188 196,-188 196,-64 16,-64"/>
</a>
</g>
</g>
<!-- dir_6d4da112a1331882b0b6514a341190a0 -->
<g id="node1" class="node">
<title>dir_6d4da112a1331882b0b6514a341190a0</title>
<text text-anchor="middle" x="161" y="-159.5" font-family="Helvetica,sans-Serif" font-size="10.00">core</text>
</g>
<!-- dir_39413a3592d49ba1372e049fbfe3e31f -->
<g id="node2" class="node">
<title>dir_39413a3592d49ba1372e049fbfe3e31f</title>
<g id="a_node2"><a xlink:href="dir_39413a3592d49ba1372e049fbfe3e31f.html" target="_top" xlink:title="MarmotMathCore">
<polygon fill="white" stroke="red" points="116,-180 24,-180 24,-144 116,-144 116,-180"/>
<text text-anchor="middle" x="70" y="-159.5" font-family="Helvetica,sans-Serif" font-size="10.00">MarmotMathCore</text>
</a>
</g>
</g>
<!-- dir_9969c29766c3ca5ea49aac3cac97384d -->
<g id="node3" class="node">
<title>dir_9969c29766c3ca5ea49aac3cac97384d</title>
<g id="a_node3"><a xlink:href="dir_9969c29766c3ca5ea49aac3cac97384d.html" target="_top" xlink:title="MarmotMechanicsCore">
<polygon fill="white" stroke="red" points="141.5,-108 24.5,-108 24.5,-72 141.5,-72 141.5,-108"/>
<text text-anchor="middle" x="83" y="-87.5" font-family="Helvetica,sans-Serif" font-size="10.00">MarmotMechanicsCore</text>
</a>
</g>
</g>
<!-- dir_39413a3592d49ba1372e049fbfe3e31f&#45;&gt;dir_9969c29766c3ca5ea49aac3cac97384d -->
<g id="edge3" class="edge">
<title>dir_39413a3592d49ba1372e049fbfe3e31f&#45;&gt;dir_9969c29766c3ca5ea49aac3cac97384d</title>
<path fill="none" stroke="black" d="M67.3,-143.7C67.94,-135.9 69.46,-126.51 71.43,-117.83"/>
<polygon fill="black" stroke="black" points="74.83,-118.66 73.93,-108.1 68.05,-116.92 74.83,-118.66"/>
<g id="a_edge3&#45;headlabel"><a xlink:href="dir_000006_000008.html" target="_top" xlink:title="1">
<text text-anchor="middle" x="76.69" y="-120.35" font-family="Helvetica,sans-Serif" font-size="10.00">1</text>
</a>
</g>
</g>
<!-- dir_d44c64559bbebec7f509842c48db8b23 -->
<g id="node4" class="node">
<title>dir_d44c64559bbebec7f509842c48db8b23</title>
<g id="a_node4"><a xlink:href="dir_d44c64559bbebec7f509842c48db8b23.html" target="_top" xlink:title="include">
<polygon fill="white" stroke="red" points="153,-36 99,-36 99,0 153,0 153,-36"/>
<text text-anchor="middle" x="126" y="-15.5" font-family="Helvetica,sans-Serif" font-size="10.00">include</text>
</a>
</g>
</g>
<!-- dir_39413a3592d49ba1372e049fbfe3e31f&#45;&gt;dir_d44c64559bbebec7f509842c48db8b23 -->
<g id="edge4" class="edge">
<title>dir_39413a3592d49ba1372e049fbfe3e31f&#45;&gt;dir_d44c64559bbebec7f509842c48db8b23</title>
<path fill="none" stroke="black" d="M112.11,-143.87C127.18,-135.45 142.53,-123.67 151,-108 161.99,-87.67 157.77,-78.1 151,-56 149.83,-52.19 148.13,-48.42 146.15,-44.82"/>
<polygon fill="black" stroke="black" points="149.09,-42.93 140.8,-36.33 143.16,-46.65 149.09,-42.93"/>
<g id="a_edge4&#45;headlabel"><a xlink:href="dir_000006_000002.html" target="_top" xlink:title="1">
<text text-anchor="middle" x="153.41" y="-41.96" font-family="Helvetica,sans-Serif" font-size="10.00">1</text>
</a>
</g>
</g>
<!-- dir_9969c29766c3ca5ea49aac3cac97384d&#45;&gt;dir_39413a3592d49ba1372e049fbfe3e31f -->
<g id="edge1" class="edge">
<title>dir_9969c29766c3ca5ea49aac3cac97384d&#45;&gt;dir_39413a3592d49ba1372e049fbfe3e31f</title>
<path fill="none" stroke="black" d="M85.72,-108.1C85.09,-115.88 83.58,-125.26 81.62,-133.95"/>
<polygon fill="black" stroke="black" points="78.21,-133.14 79.13,-143.7 84.99,-134.87 78.21,-133.14"/>
<g id="a_edge1&#45;headlabel"><a xlink:href="dir_000008_000006.html" target="_top" xlink:title="32">
<text text-anchor="middle" x="76.35" y="-126.46" font-family="Helvetica,sans-Serif" font-size="10.00">32</text>
</a>
</g>
</g>
<!-- dir_9969c29766c3ca5ea49aac3cac97384d&#45;&gt;dir_d44c64559bbebec7f509842c48db8b23 -->
<g id="edge2" class="edge">
<title>dir_9969c29766c3ca5ea49aac3cac97384d&#45;&gt;dir_d44c64559bbebec7f509842c48db8b23</title>
<path fill="none" stroke="black" d="M93.63,-71.7C98.63,-63.56 104.69,-53.69 110.21,-44.7"/>
<polygon fill="black" stroke="black" points="113.24,-46.46 115.49,-36.1 107.28,-42.79 113.24,-46.46"/>
<g id="a_edge2&#45;headlabel"><a xlink:href="dir_000008_000002.html" target="_top" xlink:title="15">
<text text-anchor="middle" x="113.78" y="-48.51" font-family="Helvetica,sans-Serif" font-size="10.00">15</text>
</a>
</g>
</g>
</g>
</svg>
