<?xml version="1.0" encoding="UTF-8" standalone="no"?>
<!DOCTYPE svg PUBLIC "-//W3C//DTD SVG 1.1//EN"
 "http://www.w3.org/Graphics/SVG/1.1/DTD/svg11.dtd">
<!-- Generated by graphviz version 2.47.1 (20210421.1823)
 -->
<!-- Title: modules/core/MarmotMechanicsCore Pages: 1 -->
<!--zoomable 231 -->
<svg id="main" version="1.1" xmlns="http://www.w3.org/2000/svg" xmlns:xlink="http://www.w3.org/1999/xlink" xml:space="preserve" onload="init(evt)">
<style type="text/css"><![CDATA[
.edge:hover path { stroke: red; }
.edge:hover polygon { stroke: red; fill: red; }
]]></style>
<script type="text/javascript"><![CDATA[
var edges = document.getElementsByTagName('g');
if (edges && edges.length) {
  for (var i=0;i<edges.length;i++) {
    if (edges[i].id.substr(0,4)=='edge') {
      edges[i].setAttribute('class','edge');
    }
  }
}
]]></script>
        <defs>
                <circle id="rim" cx="0" cy="0" r="7"/>
                <circle id="rim2" cx="0" cy="0" r="3.5"/>
                <g id="zoomPlus">
                        <use xlink:href="#rim" fill="#404040">
                                <set attributeName="fill" to="#808080" begin="zoomplus.mouseover" end="zoomplus.mouseout"/>
                        </use>
                        <path d="M-4,0h8M0,-4v8" fill="none" stroke="white" stroke-width="1.5" pointer-events="none"/>
                </g>
                <g id="zoomMin">
                        <use xlink:href="#rim" fill="#404040">
                                <set attributeName="fill" to="#808080" begin="zoomminus.mouseover" end="zoomminus.mouseout"/>
                        </use>
                        <path d="M-4,0h8" fill="none" stroke="white" stroke-width="1.5" pointer-events="none"/>
                </g>
                <g id="dirArrow">
                        <path fill="none" stroke="white" stroke-width="1.5" d="M0,-3.0v7 M-2.5,-0.5L0,-3.0L2.5,-0.5"/>
                </g>
               <g id="resetDef">
                       <use xlink:href="#rim2" fill="#404040">
                               <set attributeName="fill" to="#808080" begin="reset.mouseover" end="reset.mouseout"/>
                       </use>
               </g>
        </defs>

<script type="text/javascript">
var viewWidth = 502;
var viewHeight = 231;
var sectionId = 'dynsection-0';
</script>
<script xlink:href="svgpan.js"/>
<svg id="graph" class="graph">
<g id="viewport">
<title>modules/core/MarmotMechanicsCore</title>
<polygon fill="white" stroke="transparent" points="-4,4 -4,-227 498.21,-227 498.21,4 -4,4"/>
<g id="clust1" class="cluster">
<title>clusterdir_6d4da112a1331882b0b6514a341190a0</title>
<g id="a_clust1"><a xlink:href="dir_6d4da112a1331882b0b6514a341190a0.html" target="_top" xlink:title="core">
<polygon fill="#ddddee" stroke="black" points="8,-56 8,-215 480,-215 480,-56 8,-56"/>
<text text-anchor="middle" x="244" y="-203" font-family="Helvetica,sans-Serif" font-size="10.00">core</text>
</a>
</g>
</g>
<g id="clust2" class="cluster">
<title>clusterdir_9969c29766c3ca5ea49aac3cac97384d</title>
<g id="a_clust2"><a xlink:href="dir_9969c29766c3ca5ea49aac3cac97384d.html" target="_top">
<polygon fill="#eeeeff" stroke="black" points="16,-64 16,-188 372,-188 372,-64 16,-64"/>
</a>
</g>
</g>
<!-- dir_39413a3592d49ba1372e049fbfe3e31f -->
<g id="node1" class="node">
<title>dir_39413a3592d49ba1372e049fbfe3e31f</title>
<g id="a_node1"><a xlink:href="dir_39413a3592d49ba1372e049fbfe3e31f.html" target="_top" xlink:title="MarmotMathCore">
<polygon fill="white" stroke="red" points="472,-108 380,-108 380,-72 472,-72 472,-108"/>
<text text-anchor="middle" x="426" y="-87.5" font-family="Helvetica,sans-Serif" font-size="10.00">MarmotMathCore</text>
</a>
</g>
</g>
<!-- dir_7d9e0bddc3df5047c06a16b0d057f1c8 -->
<g id="node4" class="node">
<title>dir_7d9e0bddc3df5047c06a16b0d057f1c8</title>
<g id="a_node4"><a xlink:href="dir_7d9e0bddc3df5047c06a16b0d057f1c8.html" target="_top" xlink:title="include">
<polygon fill="white" stroke="red" points="362,-108 308,-108 308,-72 362,-72 362,-108"/>
<text text-anchor="middle" x="335" y="-87.5" font-family="Helvetica,sans-Serif" font-size="10.00">include</text>
</a>
</g>
</g>
<!-- dir_39413a3592d49ba1372e049fbfe3e31f&#45;&gt;dir_7d9e0bddc3df5047c06a16b0d057f1c8 -->
<g id="edge6" class="edge">
<title>dir_39413a3592d49ba1372e049fbfe3e31f&#45;&gt;dir_7d9e0bddc3df5047c06a16b0d057f1c8</title>
<path fill="none" stroke="black" d="M379.51,-90C377.05,-90 374.59,-90 372.13,-90"/>
<polygon fill="black" stroke="black" points="372.02,-86.5 362.02,-90 372.02,-93.5 372.02,-86.5"/>
<g id="a_edge6&#45;headlabel"><a xlink:href="dir_000006_000016.html" target="_top" xlink:title="1">
<text text-anchor="middle" x="375.61" y="-81.16" font-family="Helvetica,sans-Serif" font-size="10.00">1</text>
</a>
</g>
</g>
<!-- dir_d44c64559bbebec7f509842c48db8b23 -->
<g id="node7" class="node">
<title>dir_d44c64559bbebec7f509842c48db8b23</title>
<g id="a_node7"><a xlink:href="dir_d44c64559bbebec7f509842c48db8b23.html" target="_top" xlink:title="include">
<polygon fill="white" stroke="red" points="453,-36 399,-36 399,0 453,0 453,-36"/>
<text text-anchor="middle" x="426" y="-15.5" font-family="Helvetica,sans-Serif" font-size="10.00">include</text>
</a>
</g>
</g>
<!-- dir_39413a3592d49ba1372e049fbfe3e31f&#45;&gt;dir_d44c64559bbebec7f509842c48db8b23 -->
<g id="edge7" class="edge">
<title>dir_39413a3592d49ba1372e049fbfe3e31f&#45;&gt;dir_d44c64559bbebec7f509842c48db8b23</title>
<path fill="none" stroke="black" d="M426,-71.7C426,-63.98 426,-54.71 426,-46.11"/>
<polygon fill="black" stroke="black" points="429.5,-46.1 426,-36.1 422.5,-46.1 429.5,-46.1"/>
<g id="a_edge7&#45;headlabel"><a xlink:href="dir_000006_000002.html" target="_top" xlink:title="1">
<text text-anchor="middle" x="432.34" y="-47.2" font-family="Helvetica,sans-Serif" font-size="10.00">1</text>
</a>
</g>
</g>
<!-- dir_9969c29766c3ca5ea49aac3cac97384d -->
<g id="node2" class="node">
<title>dir_9969c29766c3ca5ea49aac3cac97384d</title>
<text text-anchor="middle" x="305" y="-159.5" font-family="Helvetica,sans-Serif" font-size="10.00">MarmotMechanicsCore</text>
</g>
<!-- dir_f1b1db24a065556929791500418aeb43 -->
<g id="node3" class="node">
<title>dir_f1b1db24a065556929791500418aeb43</title>
<g id="a_node3"><a xlink:href="dir_f1b1db24a065556929791500418aeb43.html" target="_top" xlink:title="doc">
<polygon fill="white" stroke="black" points="228,-180 174,-180 174,-144 228,-144 228,-180"/>
<text text-anchor="middle" x="201" y="-159.5" font-family="Helvetica,sans-Serif" font-size="10.00">doc</text>
</a>
</g>
</g>
<!-- dir_7d9e0bddc3df5047c06a16b0d057f1c8&#45;&gt;dir_39413a3592d49ba1372e049fbfe3e31f -->
<g id="edge5" class="edge">
<title>dir_7d9e0bddc3df5047c06a16b0d057f1c8&#45;&gt;dir_39413a3592d49ba1372e049fbfe3e31f</title>
<path fill="none" stroke="black" d="M362.02,-90C364.48,-90 366.94,-90 369.4,-90"/>
<polygon fill="black" stroke="black" points="369.51,-93.5 379.51,-90 369.51,-86.5 369.51,-93.5"/>
<g id="a_edge5&#45;headlabel"><a xlink:href="dir_000016_000006.html" target="_top" xlink:title="12">
<text text-anchor="middle" x="365.92" y="-93.84" font-family="Helvetica,sans-Serif" font-size="10.00">12</text>
</a>
</g>
</g>
<!-- dir_7d9e0bddc3df5047c06a16b0d057f1c8&#45;&gt;dir_d44c64559bbebec7f509842c48db8b23 -->
<g id="edge4" class="edge">
<title>dir_7d9e0bddc3df5047c06a16b0d057f1c8&#45;&gt;dir_d44c64559bbebec7f509842c48db8b23</title>
<path fill="none" stroke="black" d="M349.65,-71.69C354.58,-66.36 360.28,-60.67 366,-56 373.45,-49.92 381.98,-44.08 390.22,-38.92"/>
<polygon fill="black" stroke="black" points="392.26,-41.78 398.99,-33.6 388.63,-35.79 392.26,-41.78"/>
<g id="a_edge4&#45;headlabel"><a xlink:href="dir_000016_000002.html" target="_top" xlink:title="10">
<text text-anchor="middle" x="390.66" y="-43.57" font-family="Helvetica,sans-Serif" font-size="10.00">10</text>
</a>
</g>
</g>
<!-- dir_44fa5c34dc4af4cf8679eba293af8a34 -->
<g id="node5" class="node">
<title>dir_44fa5c34dc4af4cf8679eba293af8a34</title>
<g id="a_node5"><a xlink:href="dir_44fa5c34dc4af4cf8679eba293af8a34.html" target="_top" xlink:title="src">
<polygon fill="white" stroke="black" points="156,-180 102,-180 102,-144 156,-144 156,-180"/>
<text text-anchor="middle" x="129" y="-159.5" font-family="Helvetica,sans-Serif" font-size="10.00">src</text>
</a>
</g>
</g>
<!-- dir_44fa5c34dc4af4cf8679eba293af8a34&#45;&gt;dir_39413a3592d49ba1372e049fbfe3e31f -->
<g id="edge1" class="edge">
<title>dir_44fa5c34dc4af4cf8679eba293af8a34&#45;&gt;dir_39413a3592d49ba1372e049fbfe3e31f</title>
<path fill="none" stroke="black" d="M156.21,-147.21C159.13,-146.02 162.1,-144.91 165,-144 252.55,-116.43 281.74,-130.32 369.89,-109.43"/>
<polygon fill="black" stroke="black" points="370.89,-112.79 379.77,-107.01 369.22,-105.99 370.89,-112.79"/>
<g id="a_edge1&#45;headlabel"><a xlink:href="dir_000018_000006.html" target="_top" xlink:title="20">
<text text-anchor="middle" x="368.08" y="-113.91" font-family="Helvetica,sans-Serif" font-size="10.00">20</text>
</a>
</g>
</g>
<!-- dir_44fa5c34dc4af4cf8679eba293af8a34&#45;&gt;dir_7d9e0bddc3df5047c06a16b0d057f1c8 -->
<g id="edge2" class="edge">
<title>dir_44fa5c34dc4af4cf8679eba293af8a34&#45;&gt;dir_7d9e0bddc3df5047c06a16b0d057f1c8</title>
<path fill="none" stroke="black" d="M156.35,-147.61C159.24,-146.33 162.17,-145.1 165,-144 209.96,-126.47 263.29,-110.62 298.08,-100.91"/>
<polygon fill="black" stroke="black" points="299.1,-104.26 307.81,-98.22 297.24,-97.51 299.1,-104.26"/>
<g id="a_edge2&#45;headlabel"><a xlink:href="dir_000018_000016.html" target="_top" xlink:title="27">
<text text-anchor="middle" x="296.39" y="-105.45" font-family="Helvetica,sans-Serif" font-size="10.00">27</text>
</a>
</g>
</g>
<!-- dir_44fa5c34dc4af4cf8679eba293af8a34&#45;&gt;dir_d44c64559bbebec7f509842c48db8b23 -->
<g id="edge3" class="edge">
<title>dir_44fa5c34dc4af4cf8679eba293af8a34&#45;&gt;dir_d44c64559bbebec7f509842c48db8b23</title>
<path fill="none" stroke="black" d="M156.16,-147.04C159.09,-145.88 162.07,-144.83 165,-144 233.62,-124.51 436.47,-161.2 484,-108 499.4,-90.77 495.11,-76.27 484,-56 479,-46.89 470.71,-39.7 461.93,-34.17"/>
<polygon fill="black" stroke="black" points="463.52,-31.05 453.09,-29.19 460.08,-37.15 463.52,-31.05"/>
<g id="a_edge3&#45;headlabel"><a xlink:href="dir_000018_000002.html" target="_top" xlink:title="5">
<text text-anchor="middle" x="468.05" y="-27.84" font-family="Helvetica,sans-Serif" font-size="10.00">5</text>
</a>
</g>
</g>
<!-- dir_416960a058739096120dd0e909285a2b -->
<g id="node6" class="node">
<title>dir_416960a058739096120dd0e909285a2b</title>
<g id="a_node6"><a xlink:href="dir_416960a058739096120dd0e909285a2b.html" target="_top" xlink:title="testScript">
<polygon fill="white" stroke="black" points="83.5,-180 24.5,-180 24.5,-144 83.5,-144 83.5,-180"/>
<text text-anchor="middle" x="54" y="-159.5" font-family="Helvetica,sans-Serif" font-size="10.00">testScript</text>
</a>
</g>
</g>
</g>
</svg>
        <g id="navigator" transform="translate(0 0)" fill="#404254">
                <rect fill="#f2f5e9" fill-opacity="0.5" stroke="#606060" stroke-width=".5" x="0" y="0" width="60" height="60"/>
                <use id="zoomplus" xlink:href="#zoomPlus" x="17" y="9" onmousedown="handleZoom(evt,'in')"/>
                <use id="zoomminus" xlink:href="#zoomMin" x="42" y="9" onmousedown="handleZoom(evt,'out')"/>
                <use id="reset" xlink:href="#resetDef" x="30" y="36" onmousedown="handleReset()"/>
                <g id="arrowUp" xlink:href="#dirArrow" transform="translate(30 24)" onmousedown="handlePan(0,-1)">
                  <use xlink:href="#rim" fill="#404040">
                        <set attributeName="fill" to="#808080" begin="arrowUp.mouseover" end="arrowUp.mouseout"/>
                  </use>
                  <path fill="none" stroke="white" stroke-width="1.5" d="M0,-3.0v7 M-2.5,-0.5L0,-3.0L2.5,-0.5"/>
                </g>
                <g id="arrowRight" xlink:href="#dirArrow" transform="rotate(90) translate(36 -43)" onmousedown="handlePan(1,0)">
                  <use xlink:href="#rim" fill="#404040">
                        <set attributeName="fill" to="#808080" begin="arrowRight.mouseover" end="arrowRight.mouseout"/>
                  </use>
                  <path fill="none" stroke="white" stroke-width="1.5" d="M0,-3.0v7 M-2.5,-0.5L0,-3.0L2.5,-0.5"/>
                </g>
                <g id="arrowDown" xlink:href="#dirArrow" transform="rotate(180) translate(-30 -48)" onmousedown="handlePan(0,1)">
                  <use xlink:href="#rim" fill="#404040">
                        <set attributeName="fill" to="#808080" begin="arrowDown.mouseover" end="arrowDown.mouseout"/>
                  </use>
                  <path fill="none" stroke="white" stroke-width="1.5" d="M0,-3.0v7 M-2.5,-0.5L0,-3.0L2.5,-0.5"/>
                </g>
                <g id="arrowLeft" xlink:href="#dirArrow" transform="rotate(270) translate(-36 17)" onmousedown="handlePan(-1,0)">
                  <use xlink:href="#rim" fill="#404040">
                        <set attributeName="fill" to="#808080" begin="arrowLeft.mouseover" end="arrowLeft.mouseout"/>
                  </use>
                  <path fill="none" stroke="white" stroke-width="1.5" d="M0,-3.0v7 M-2.5,-0.5L0,-3.0L2.5,-0.5"/>
                </g>
        </g>
        <svg viewBox="0 0 15 15" width="100%" height="30px" preserveAspectRatio="xMaxYMin meet">
         <g id="arrow_out" transform="scale(0.3 0.3)">
          <a xlink:href="dir_9969c29766c3ca5ea49aac3cac97384d_dep_org.svg" target="_base">
           <rect id="button" ry="5" rx="5" y="6" x="6" height="38" width="38"
                fill="#f2f5e9" fill-opacity="0.5" stroke="#606060" stroke-width="1.0"/>
           <path id="arrow"
             d="M 11.500037,31.436501 C 11.940474,20.09759 22.043105,11.32322 32.158766,21.979434 L 37.068811,17.246167 C 37.068811,17.246167 37.088388,32 37.088388,32 L 22.160133,31.978069 C 22.160133,31.978069 26.997745,27.140456 26.997745,27.140456 C 18.528582,18.264221 13.291696,25.230495 11.500037,31.436501 z"
             style="fill:#404040;"/>
          </a>
         </g>
        </svg>
</svg>
