<?xml version="1.0" encoding="UTF-8" standalone="no"?>
<!DOCTYPE svg PUBLIC "-//W3C//DTD SVG 1.1//EN"
 "http://www.w3.org/Graphics/SVG/1.1/DTD/svg11.dtd">
<!-- Generated by graphviz version 2.44.0 ()
 -->
<!-- Title: modules/core/MarmotFiniteElementCore Pages: 1 -->
<svg width="258pt" height="375pt"
 viewBox="0.00 0.00 258.00 375.00" xmlns="http://www.w3.org/2000/svg" xmlns:xlink="http://www.w3.org/1999/xlink">
<g id="graph0" class="graph" transform="scale(1 1) rotate(0) translate(4 371)">
<title>modules/core/MarmotFiniteElementCore</title>
<polygon fill="white" stroke="transparent" points="-4,4 -4,-371 254,-371 254,4 -4,4"/>
<g id="clust1" class="cluster">
<title>clusterdir_6d4da112a1331882b0b6514a341190a0</title>
<g id="a_clust1"><a xlink:href="dir_6d4da112a1331882b0b6514a341190a0.html" target="_top" xlink:title="core">
<polygon fill="#ddddee" stroke="black" points="8,-200 8,-359 242,-359 242,-200 8,-200"/>
<text text-anchor="middle" x="125" y="-347" font-family="Helvetica,sans-Serif" font-size="10.00">core</text>
</a>
</g>
</g>
<g id="clust2" class="cluster">
<title>clusterdir_a6282ced73efdb7b36cfc8bdf7a60b20</title>
<g id="a_clust2"><a xlink:href="dir_a6282ced73efdb7b36cfc8bdf7a60b20.html" target="_top">
<polygon fill="#eeeeff" stroke="black" points="16,-208 16,-332 234,-332 234,-208 16,-208"/>
</a>
</g>
</g>
<!-- dir_a6282ced73efdb7b36cfc8bdf7a60b20 -->
<g id="node1" class="node">
<title>dir_a6282ced73efdb7b36cfc8bdf7a60b20</title>
<text text-anchor="middle" x="161" y="-303.5" font-family="Helvetica,sans-Serif" font-size="10.00">MarmotFiniteElementCore</text>
</g>
<!-- dir_7a1ab5031ed028ea4c059c711d14cf0d -->
<g id="node2" class="node">
<title>dir_7a1ab5031ed028ea4c059c711d14cf0d</title>
<g id="a_node2"><a xlink:href="dir_7a1ab5031ed028ea4c059c711d14cf0d.html" target="_top" xlink:title="include">
<polygon fill="white" stroke="red" points="78,-252 24,-252 24,-216 78,-216 78,-252"/>
<text text-anchor="middle" x="51" y="-231.5" font-family="Helvetica,sans-Serif" font-size="10.00">include</text>
</a>
</g>
</g>
<!-- dir_9969c29766c3ca5ea49aac3cac97384d -->
<g id="node4" class="node">
<title>dir_9969c29766c3ca5ea49aac3cac97384d</title>
<g id="a_node4"><a xlink:href="dir_9969c29766c3ca5ea49aac3cac97384d.html" target="_top" xlink:title="MarmotMechanicsCore">
<polygon fill="white" stroke="red" points="196.5,-180 79.5,-180 79.5,-144 196.5,-144 196.5,-180"/>
<text text-anchor="middle" x="138" y="-159.5" font-family="Helvetica,sans-Serif" font-size="10.00">MarmotMechanicsCore</text>
</a>
</g>
</g>
<!-- dir_7a1ab5031ed028ea4c059c711d14cf0d&#45;&gt;dir_9969c29766c3ca5ea49aac3cac97384d -->
<g id="edge1" class="edge">
<title>dir_7a1ab5031ed028ea4c059c711d14cf0d&#45;&gt;dir_9969c29766c3ca5ea49aac3cac97384d</title>
<path fill="none" stroke="black" d="M72.51,-215.7C83.46,-206.88 96.95,-196.03 108.82,-186.47"/>
<polygon fill="black" stroke="black" points="111.14,-189.1 116.74,-180.1 106.76,-183.65 111.14,-189.1"/>
<g id="a_edge1&#45;headlabel"><a xlink:href="dir_000007_000012.html" target="_top" xlink:title="1">
<text text-anchor="middle" x="110.12" y="-191.07" font-family="Helvetica,sans-Serif" font-size="10.00">1</text>
</a>
</g>
</g>
<!-- dir_d44c64559bbebec7f509842c48db8b23 -->
<g id="node5" class="node">
<title>dir_d44c64559bbebec7f509842c48db8b23</title>
<g id="a_node5"><a xlink:href="dir_d44c64559bbebec7f509842c48db8b23.html" target="_top" xlink:title="include">
<polygon fill="white" stroke="red" points="114,-36 60,-36 60,0 114,0 114,-36"/>
<text text-anchor="middle" x="87" y="-15.5" font-family="Helvetica,sans-Serif" font-size="10.00">include</text>
</a>
</g>
</g>
<!-- dir_7a1ab5031ed028ea4c059c711d14cf0d&#45;&gt;dir_d44c64559bbebec7f509842c48db8b23 -->
<g id="edge2" class="edge">
<title>dir_7a1ab5031ed028ea4c059c711d14cf0d&#45;&gt;dir_d44c64559bbebec7f509842c48db8b23</title>
<path fill="none" stroke="black" d="M43.5,-215.75C31.46,-185.38 11.19,-120.95 32,-72 36.73,-60.86 45.08,-50.93 53.87,-42.76"/>
<polygon fill="black" stroke="black" points="56.35,-45.24 61.62,-36.05 51.77,-39.95 56.35,-45.24"/>
<g id="a_edge2&#45;headlabel"><a xlink:href="dir_000007_000002.html" target="_top" xlink:title="2">
<text text-anchor="middle" x="55.49" y="-47.24" font-family="Helvetica,sans-Serif" font-size="10.00">2</text>
</a>
</g>
</g>
<!-- dir_39413a3592d49ba1372e049fbfe3e31f -->
<g id="node6" class="node">
<title>dir_39413a3592d49ba1372e049fbfe3e31f</title>
<g id="a_node6"><a xlink:href="dir_39413a3592d49ba1372e049fbfe3e31f.html" target="_top" xlink:title="MarmotMathCore">
<polygon fill="white" stroke="red" points="133,-108 41,-108 41,-72 133,-72 133,-108"/>
<text text-anchor="middle" x="87" y="-87.5" font-family="Helvetica,sans-Serif" font-size="10.00">MarmotMathCore</text>
</a>
</g>
</g>
<!-- dir_7a1ab5031ed028ea4c059c711d14cf0d&#45;&gt;dir_39413a3592d49ba1372e049fbfe3e31f -->
<g id="edge3" class="edge">
<title>dir_7a1ab5031ed028ea4c059c711d14cf0d&#45;&gt;dir_39413a3592d49ba1372e049fbfe3e31f</title>
<path fill="none" stroke="black" d="M54.14,-215.82C57.55,-197.8 63.41,-168.73 70,-144 72.3,-135.37 75.15,-126.06 77.86,-117.69"/>
<polygon fill="black" stroke="black" points="81.23,-118.65 81.05,-108.06 74.59,-116.45 81.23,-118.65"/>
<g id="a_edge3&#45;headlabel"><a xlink:href="dir_000007_000010.html" target="_top" xlink:title="3">
<text text-anchor="middle" x="82.8" y="-120.45" font-family="Helvetica,sans-Serif" font-size="10.00">3</text>
</a>
</g>
</g>
<!-- dir_b03b27ba81a49fd6f9c9588f67883179 -->
<g id="node3" class="node">
<title>dir_b03b27ba81a49fd6f9c9588f67883179</title>
<g id="a_node3"><a xlink:href="dir_b03b27ba81a49fd6f9c9588f67883179.html" target="_top" xlink:title="src">
<polygon fill="white" stroke="black" points="78,-324 24,-324 24,-288 78,-288 78,-324"/>
<text text-anchor="middle" x="51" y="-303.5" font-family="Helvetica,sans-Serif" font-size="10.00">src</text>
</a>
</g>
</g>
<!-- dir_b03b27ba81a49fd6f9c9588f67883179&#45;&gt;dir_7a1ab5031ed028ea4c059c711d14cf0d -->
<g id="edge6" class="edge">
<title>dir_b03b27ba81a49fd6f9c9588f67883179&#45;&gt;dir_7a1ab5031ed028ea4c059c711d14cf0d</title>
<path fill="none" stroke="black" d="M51,-287.7C51,-279.98 51,-270.71 51,-262.11"/>
<polygon fill="black" stroke="black" points="54.5,-262.1 51,-252.1 47.5,-262.1 54.5,-262.1"/>
<g id="a_edge6&#45;headlabel"><a xlink:href="dir_000009_000007.html" target="_top" xlink:title="8">
<text text-anchor="middle" x="57.34" y="-263.2" font-family="Helvetica,sans-Serif" font-size="10.00">8</text>
</a>
</g>
</g>
<!-- dir_b03b27ba81a49fd6f9c9588f67883179&#45;&gt;dir_9969c29766c3ca5ea49aac3cac97384d -->
<g id="edge7" class="edge">
<title>dir_b03b27ba81a49fd6f9c9588f67883179&#45;&gt;dir_9969c29766c3ca5ea49aac3cac97384d</title>
<path fill="none" stroke="black" d="M63.34,-287.56C70.46,-277.32 79.46,-264.07 87,-252 99.9,-231.36 113.56,-207.39 123.5,-189.52"/>
<polygon fill="black" stroke="black" points="126.83,-190.74 128.6,-180.29 120.7,-187.35 126.83,-190.74"/>
<g id="a_edge7&#45;headlabel"><a xlink:href="dir_000009_000012.html" target="_top" xlink:title="1">
<text text-anchor="middle" x="127.57" y="-192.76" font-family="Helvetica,sans-Serif" font-size="10.00">1</text>
</a>
</g>
</g>
<!-- dir_b03b27ba81a49fd6f9c9588f67883179&#45;&gt;dir_39413a3592d49ba1372e049fbfe3e31f -->
<g id="edge8" class="edge">
<title>dir_b03b27ba81a49fd6f9c9588f67883179&#45;&gt;dir_39413a3592d49ba1372e049fbfe3e31f</title>
<path fill="none" stroke="black" d="M35.39,-287.77C27.63,-278.03 19.05,-265.18 15,-252 8.21,-229.91 8.35,-222.13 15,-200 24.62,-167.98 47.04,-136.69 64.33,-115.91"/>
<polygon fill="black" stroke="black" points="67.07,-118.09 70.9,-108.21 61.74,-113.54 67.07,-118.09"/>
<g id="a_edge8&#45;headlabel"><a xlink:href="dir_000009_000010.html" target="_top" xlink:title="4">
<text text-anchor="middle" x="66.89" y="-120.17" font-family="Helvetica,sans-Serif" font-size="10.00">4</text>
</a>
</g>
</g>
<!-- dir_9969c29766c3ca5ea49aac3cac97384d&#45;&gt;dir_d44c64559bbebec7f509842c48db8b23 -->
<g id="edge4" class="edge">
<title>dir_9969c29766c3ca5ea49aac3cac97384d&#45;&gt;dir_d44c64559bbebec7f509842c48db8b23</title>
<path fill="none" stroke="black" d="M143.02,-143.82C147.49,-125.3 151.92,-95.34 142,-72 137.27,-60.86 128.92,-50.93 120.13,-42.76"/>
<polygon fill="black" stroke="black" points="122.23,-39.95 112.38,-36.05 117.65,-45.24 122.23,-39.95"/>
<g id="a_edge4&#45;headlabel"><a xlink:href="dir_000012_000002.html" target="_top" xlink:title="15">
<text text-anchor="middle" x="126.81" y="-37.65" font-family="Helvetica,sans-Serif" font-size="10.00">15</text>
</a>
</g>
</g>
<!-- dir_9969c29766c3ca5ea49aac3cac97384d&#45;&gt;dir_39413a3592d49ba1372e049fbfe3e31f -->
<g id="edge5" class="edge">
<title>dir_9969c29766c3ca5ea49aac3cac97384d&#45;&gt;dir_39413a3592d49ba1372e049fbfe3e31f</title>
<path fill="none" stroke="black" d="M119.48,-143.7C112.71,-135.56 105.31,-125.69 99.19,-116.7"/>
<polygon fill="black" stroke="black" points="101.97,-114.56 93.57,-108.1 96.11,-118.39 101.97,-114.56"/>
<g id="a_edge5&#45;headlabel"><a xlink:href="dir_000012_000010.html" target="_top" xlink:title="38">
<text text-anchor="middle" x="106.31" y="-113.51" font-family="Helvetica,sans-Serif" font-size="10.00">38</text>
</a>
</g>
</g>
<!-- dir_39413a3592d49ba1372e049fbfe3e31f&#45;&gt;dir_9969c29766c3ca5ea49aac3cac97384d -->
<g id="edge9" class="edge">
<title>dir_39413a3592d49ba1372e049fbfe3e31f&#45;&gt;dir_9969c29766c3ca5ea49aac3cac97384d</title>
<path fill="none" stroke="black" d="M105.36,-108.1C112.11,-116.21 119.52,-126.08 125.66,-135.08"/>
<polygon fill="black" stroke="black" points="122.9,-137.25 131.31,-143.7 128.75,-133.41 122.9,-137.25"/>
<g id="a_edge9&#45;headlabel"><a xlink:href="dir_000010_000012.html" target="_top" xlink:title="1">
<text text-anchor="middle" x="118.55" y="-133.3" font-family="Helvetica,sans-Serif" font-size="10.00">1</text>
</a>
</g>
</g>
<!-- dir_39413a3592d49ba1372e049fbfe3e31f&#45;&gt;dir_d44c64559bbebec7f509842c48db8b23 -->
<g id="edge10" class="edge">
<title>dir_39413a3592d49ba1372e049fbfe3e31f&#45;&gt;dir_d44c64559bbebec7f509842c48db8b23</title>
<path fill="none" stroke="black" d="M87,-71.7C87,-63.98 87,-54.71 87,-46.11"/>
<polygon fill="black" stroke="black" points="90.5,-46.1 87,-36.1 83.5,-46.1 90.5,-46.1"/>
<g id="a_edge10&#45;headlabel"><a xlink:href="dir_000010_000002.html" target="_top" xlink:title="1">
<text text-anchor="middle" x="93.34" y="-47.2" font-family="Helvetica,sans-Serif" font-size="10.00">1</text>
</a>
</g>
</g>
</g>
</svg>
