<?xml version="1.0" encoding="UTF-8" standalone="no"?>
<!DOCTYPE svg PUBLIC "-//W3C//DTD SVG 1.1//EN"
 "http://www.w3.org/Graphics/SVG/1.1/DTD/svg11.dtd">
<!-- Generated by graphviz version 2.44.0 ()
 -->
<!-- Title: modules/materials/LinearViscoelasticPowerLaw/src Pages: 1 -->
<svg width="167pt" height="295pt"
 viewBox="0.00 0.00 167.00 295.00" xmlns="http://www.w3.org/2000/svg" xmlns:xlink="http://www.w3.org/1999/xlink">
<g id="graph0" class="graph" transform="scale(1 1) rotate(0) translate(4 291)">
<title>modules/materials/LinearViscoelasticPowerLaw/src</title>
<polygon fill="white" stroke="transparent" points="-4,4 -4,-291 163,-291 163,4 -4,4"/>
<g id="clust1" class="cluster">
<title>clusterdir_0ed2ed42fec84478d47cb7fd5e634746</title>
<g id="a_clust1"><a xlink:href="dir_0ed2ed42fec84478d47cb7fd5e634746.html" target="_top" xlink:title="LinearViscoelasticPowerLaw">
<polygon fill="#ddddee" stroke="black" points="8,-208 8,-279 151,-279 151,-208 8,-208"/>
<text text-anchor="middle" x="79.5" y="-267" font-family="Helvetica,sans-Serif" font-size="10.00">LinearViscoelasticPowerLaw</text>
</a>
</g>
</g>
<!-- dir_f67db67d82652158b0b1c8f0eff9558e -->
<g id="node1" class="node">
<title>dir_f67db67d82652158b0b1c8f0eff9558e</title>
<g id="a_node1"><a xlink:href="dir_f67db67d82652158b0b1c8f0eff9558e.html" target="_top" xlink:title="src">
<polygon fill="#eeeeff" stroke="black" points="106,-252 52,-252 52,-216 106,-216 106,-252"/>
<text text-anchor="middle" x="79" y="-231.5" font-family="Helvetica,sans-Serif" font-size="10.00">src</text>
</a>
</g>
</g>
<!-- dir_6d4da112a1331882b0b6514a341190a0 -->
<g id="node2" class="node">
<title>dir_6d4da112a1331882b0b6514a341190a0</title>
<g id="a_node2"><a xlink:href="dir_6d4da112a1331882b0b6514a341190a0.html" target="_top" xlink:title="core">
<polygon fill="white" stroke="red" points="106,-108 52,-108 52,-72 106,-72 106,-108"/>
<text text-anchor="middle" x="79" y="-87.5" font-family="Helvetica,sans-Serif" font-size="10.00">core</text>
</a>
</g>
</g>
<!-- dir_f67db67d82652158b0b1c8f0eff9558e&#45;&gt;dir_6d4da112a1331882b0b6514a341190a0 -->
<g id="edge3" class="edge">
<title>dir_f67db67d82652158b0b1c8f0eff9558e&#45;&gt;dir_6d4da112a1331882b0b6514a341190a0</title>
<path fill="none" stroke="black" d="M63.39,-215.77C55.63,-206.03 47.05,-193.18 43,-180 38.3,-164.71 38.3,-159.29 43,-144 46.01,-134.22 51.51,-124.62 57.32,-116.33"/>
<polygon fill="black" stroke="black" points="60.19,-118.33 63.39,-108.23 54.59,-114.13 60.19,-118.33"/>
<g id="a_edge3&#45;headlabel"><a xlink:href="dir_000063_000005.html" target="_top" xlink:title="6">
<text text-anchor="middle" x="60.31" y="-120.41" font-family="Helvetica,sans-Serif" font-size="10.00">6</text>
</a>
</g>
</g>
<!-- dir_d44c64559bbebec7f509842c48db8b23 -->
<g id="node3" class="node">
<title>dir_d44c64559bbebec7f509842c48db8b23</title>
<g id="a_node3"><a xlink:href="dir_d44c64559bbebec7f509842c48db8b23.html" target="_top" xlink:title="include">
<polygon fill="white" stroke="red" points="106,-36 52,-36 52,0 106,0 106,-36"/>
<text text-anchor="middle" x="79" y="-15.5" font-family="Helvetica,sans-Serif" font-size="10.00">include</text>
</a>
</g>
</g>
<!-- dir_f67db67d82652158b0b1c8f0eff9558e&#45;&gt;dir_d44c64559bbebec7f509842c48db8b23 -->
<g id="edge4" class="edge">
<title>dir_f67db67d82652158b0b1c8f0eff9558e&#45;&gt;dir_d44c64559bbebec7f509842c48db8b23</title>
<path fill="none" stroke="black" d="M94.61,-215.77C102.37,-206.03 110.95,-193.18 115,-180 129.11,-134.12 129.11,-117.88 115,-72 111.99,-62.22 106.49,-52.62 100.68,-44.33"/>
<polygon fill="black" stroke="black" points="103.41,-42.13 94.61,-36.23 97.81,-46.33 103.41,-42.13"/>
<g id="a_edge4&#45;headlabel"><a xlink:href="dir_000063_000002.html" target="_top" xlink:title="1">
<text text-anchor="middle" x="107.83" y="-40.8" font-family="Helvetica,sans-Serif" font-size="10.00">1</text>
</a>
</g>
</g>
<!-- dir_b8e04ac549c25694f6b48720b5891df8 -->
<g id="node4" class="node">
<title>dir_b8e04ac549c25694f6b48720b5891df8</title>
<g id="a_node4"><a xlink:href="dir_b8e04ac549c25694f6b48720b5891df8.html" target="_top" xlink:title="include">
<polygon fill="white" stroke="red" points="106,-180 52,-180 52,-144 106,-144 106,-180"/>
<text text-anchor="middle" x="79" y="-159.5" font-family="Helvetica,sans-Serif" font-size="10.00">include</text>
</a>
</g>
</g>
<!-- dir_f67db67d82652158b0b1c8f0eff9558e&#45;&gt;dir_b8e04ac549c25694f6b48720b5891df8 -->
<g id="edge5" class="edge">
<title>dir_f67db67d82652158b0b1c8f0eff9558e&#45;&gt;dir_b8e04ac549c25694f6b48720b5891df8</title>
<path fill="none" stroke="black" d="M79,-215.7C79,-207.98 79,-198.71 79,-190.11"/>
<polygon fill="black" stroke="black" points="82.5,-190.1 79,-180.1 75.5,-190.1 82.5,-190.1"/>
<g id="a_edge5&#45;headlabel"><a xlink:href="dir_000063_000061.html" target="_top" xlink:title="2">
<text text-anchor="middle" x="85.34" y="-191.2" font-family="Helvetica,sans-Serif" font-size="10.00">2</text>
</a>
</g>
</g>
<!-- dir_6d4da112a1331882b0b6514a341190a0&#45;&gt;dir_d44c64559bbebec7f509842c48db8b23 -->
<g id="edge1" class="edge">
<title>dir_6d4da112a1331882b0b6514a341190a0&#45;&gt;dir_d44c64559bbebec7f509842c48db8b23</title>
<path fill="none" stroke="black" d="M73.08,-71.7C72.29,-63.98 72.06,-54.71 72.4,-46.11"/>
<polygon fill="black" stroke="black" points="75.9,-46.32 73.1,-36.1 68.92,-45.84 75.9,-46.32"/>
<g id="a_edge1&#45;headlabel"><a xlink:href="dir_000005_000002.html" target="_top" xlink:title="22">
<text text-anchor="middle" x="78.48" y="-47.61" font-family="Helvetica,sans-Serif" font-size="10.00">22</text>
</a>
</g>
</g>
<!-- dir_d44c64559bbebec7f509842c48db8b23&#45;&gt;dir_6d4da112a1331882b0b6514a341190a0 -->
<g id="edge2" class="edge">
<title>dir_d44c64559bbebec7f509842c48db8b23&#45;&gt;dir_6d4da112a1331882b0b6514a341190a0</title>
<path fill="none" stroke="black" d="M84.9,-36.1C85.7,-43.79 85.94,-53.05 85.6,-61.67"/>
<polygon fill="black" stroke="black" points="82.11,-61.48 84.92,-71.7 89.09,-61.96 82.11,-61.48"/>
<g id="a_edge2&#45;headlabel"><a xlink:href="dir_000002_000005.html" target="_top" xlink:title="2">
<text text-anchor="middle" x="79.52" y="-55.2" font-family="Helvetica,sans-Serif" font-size="10.00">2</text>
</a>
</g>
</g>
<!-- dir_b8e04ac549c25694f6b48720b5891df8&#45;&gt;dir_6d4da112a1331882b0b6514a341190a0 -->
<g id="edge6" class="edge">
<title>dir_b8e04ac549c25694f6b48720b5891df8&#45;&gt;dir_6d4da112a1331882b0b6514a341190a0</title>
<path fill="none" stroke="black" d="M79,-143.7C79,-135.98 79,-126.71 79,-118.11"/>
<polygon fill="black" stroke="black" points="82.5,-118.1 79,-108.1 75.5,-118.1 82.5,-118.1"/>
<g id="a_edge6&#45;headlabel"><a xlink:href="dir_000061_000005.html" target="_top" xlink:title="3">
<text text-anchor="middle" x="85.34" y="-119.2" font-family="Helvetica,sans-Serif" font-size="10.00">3</text>
</a>
</g>
</g>
</g>
</svg>
