<?xml version="1.0" encoding="UTF-8" standalone="no"?>
<!DOCTYPE svg PUBLIC "-//W3C//DTD SVG 1.1//EN"
 "http://www.w3.org/Graphics/SVG/1.1/DTD/svg11.dtd">
<!-- Generated by graphviz version 3.0.0 (20220413.0106)
 -->
<!-- Title: modules/elements/DisplacementFiniteElement/include Pages: 1 -->
<svg width="194pt" height="159pt"
 viewBox="0.00 0.00 194.00 159.00" xmlns="http://www.w3.org/2000/svg" xmlns:xlink="http://www.w3.org/1999/xlink">
<g id="graph0" class="graph" transform="scale(1 1) rotate(0) translate(4 155)">
<title>modules/elements/DisplacementFiniteElement/include</title>
<polygon fill="white" stroke="transparent" points="-4,4 -4,-155 190,-155 190,4 -4,4"/>
<g id="clust1" class="cluster">
<title>clusterdir_aa8ebc4e3c197f41b5e3ba6b0a36891e</title>
<g id="a_clust1"><a xlink:href="dir_aa8ebc4e3c197f41b5e3ba6b0a36891e.html" target="_top" xlink:title="DisplacementFiniteElement">
<polygon fill="#cbdbe8" stroke="#7f7f7f" stroke-dasharray="5,2" points="20,-56 20,-143 178,-143 178,-56 20,-56"/>
<text text-anchor="middle" x="99" y="-131" font-family="Helvetica,sans-Serif" font-size="10.00">DisplacementFiniteElement</text>
</a>
</g>
</g>
<g id="clust2" class="cluster">
<title>clusterdir_65861e114da7fe4cba8452e4cfaa99aa</title>
<g id="a_clust2"><a xlink:href="dir_65861e114da7fe4cba8452e4cfaa99aa.html" target="_top">
<polygon fill="#cbdbe8" stroke="#404040" stroke-width="2" points="28,-64 28,-116 170,-116 170,-64 28,-64"/>
</a>
</g>
</g>
<!-- dir_65861e114da7fe4cba8452e4cfaa99aa -->
<g id="node1" class="node">
<title>dir_65861e114da7fe4cba8452e4cfaa99aa</title>
<text text-anchor="middle" x="135" y="-87.5" font-family="Helvetica,sans-Serif" font-size="10.00">include</text>
</g>
<!-- dir_d2a6722ee7f0d10f1666decc98dee330 -->
<g id="node2" class="node">
<title>dir_d2a6722ee7f0d10f1666decc98dee330</title>
<g id="a_node2"><a xlink:href="dir_d2a6722ee7f0d10f1666decc98dee330.html" target="_top" xlink:title="Marmot">
<polygon fill="#3e6a8f" stroke="#404040" points="90,-108 36,-108 36,-72 90,-72 90,-108"/>
<text text-anchor="middle" x="63" y="-87.5" font-family="Helvetica,sans-Serif" font-size="10.00">Marmot</text>
</a>
</g>
</g>
<!-- dir_d44c64559bbebec7f509842c48db8b23 -->
<g id="node3" class="node">
<title>dir_d44c64559bbebec7f509842c48db8b23</title>
<g id="a_node3"><a xlink:href="dir_d44c64559bbebec7f509842c48db8b23.html" target="_top" xlink:title="include">
<polygon fill="none" stroke="red" points="54,-36 0,-36 0,0 54,0 54,-36"/>
<text text-anchor="middle" x="27" y="-15.5" font-family="Helvetica,sans-Serif" font-size="10.00">include</text>
</a>
</g>
</g>
<!-- dir_d2a6722ee7f0d10f1666decc98dee330&#45;&gt;dir_d44c64559bbebec7f509842c48db8b23 -->
<g id="edge2" class="edge">
<title>dir_d2a6722ee7f0d10f1666decc98dee330&#45;&gt;dir_d44c64559bbebec7f509842c48db8b23</title>
<path fill="none" stroke="black" d="M54.1,-71.7C50,-63.73 45.05,-54.1 40.51,-45.26"/>
<polygon fill="black" stroke="black" points="43.48,-43.4 35.8,-36.1 37.26,-46.6 43.48,-43.4"/>
<g id="a_edge2&#45;headlabel"><a xlink:href="dir_000019_000007.html" target="_top" xlink:title="4">
<text text-anchor="middle" x="47.65" y="-42.79" font-family="Helvetica,sans-Serif" font-size="10.00">4</text>
</a>
</g>
</g>
<!-- dir_6d4da112a1331882b0b6514a341190a0 -->
<g id="node4" class="node">
<title>dir_6d4da112a1331882b0b6514a341190a0</title>
<g id="a_node4"><a xlink:href="dir_6d4da112a1331882b0b6514a341190a0.html" target="_top" xlink:title="core">
<polygon fill="none" stroke="red" stroke-dasharray="5,2" points="126,-36 72,-36 72,0 126,0 126,-36"/>
<text text-anchor="middle" x="99" y="-15.5" font-family="Helvetica,sans-Serif" font-size="10.00">core</text>
</a>
</g>
</g>
<!-- dir_d2a6722ee7f0d10f1666decc98dee330&#45;&gt;dir_6d4da112a1331882b0b6514a341190a0 -->
<g id="edge1" class="edge">
<title>dir_d2a6722ee7f0d10f1666decc98dee330&#45;&gt;dir_6d4da112a1331882b0b6514a341190a0</title>
<path fill="none" stroke="black" d="M71.9,-71.7C76,-63.73 80.95,-54.1 85.49,-45.26"/>
<polygon fill="black" stroke="black" points="88.74,-46.6 90.2,-36.1 82.52,-43.4 88.74,-46.6"/>
<g id="a_edge1&#45;headlabel"><a xlink:href="dir_000019_000000.html" target="_top" xlink:title="5">
<text text-anchor="middle" x="89.62" y="-48.59" font-family="Helvetica,sans-Serif" font-size="10.00">5</text>
</a>
</g>
</g>
</g>
</svg>
