<?xml version="1.0" encoding="UTF-8" standalone="no"?>
<!DOCTYPE svg PUBLIC "-//W3C//DTD SVG 1.1//EN"
 "http://www.w3.org/Graphics/SVG/1.1/DTD/svg11.dtd">
<!-- Generated by graphviz version 2.44.0 ()
 -->
<!-- Title: modules/core/MarmotMechanicsCore Pages: 1 -->
<svg width="391pt" height="231pt"
 viewBox="0.00 0.00 391.00 231.00" xmlns="http://www.w3.org/2000/svg" xmlns:xlink="http://www.w3.org/1999/xlink">
<g id="graph0" class="graph" transform="scale(1 1) rotate(0) translate(4 227)">
<title>modules/core/MarmotMechanicsCore</title>
<polygon fill="white" stroke="transparent" points="-4,4 -4,-227 387,-227 387,4 -4,4"/>
<g id="clust1" class="cluster">
<title>clusterdir_6d4da112a1331882b0b6514a341190a0</title>
<g id="a_clust1"><a xlink:href="dir_6d4da112a1331882b0b6514a341190a0.html" target="_top" xlink:title="core">
<polygon fill="#ddddee" stroke="black" points="8,-56 8,-215 302,-215 302,-56 8,-56"/>
<text text-anchor="middle" x="155" y="-203" font-family="Helvetica,sans-Serif" font-size="10.00">core</text>
</a>
</g>
</g>
<g id="clust2" class="cluster">
<title>clusterdir_9969c29766c3ca5ea49aac3cac97384d</title>
<g id="a_clust2"><a xlink:href="dir_9969c29766c3ca5ea49aac3cac97384d.html" target="_top">
<polygon fill="#eeeeff" stroke="black" points="16,-64 16,-188 294,-188 294,-64 16,-64"/>
</a>
</g>
</g>
<!-- dir_9969c29766c3ca5ea49aac3cac97384d -->
<g id="node1" class="node">
<title>dir_9969c29766c3ca5ea49aac3cac97384d</title>
<text text-anchor="middle" x="227" y="-159.5" font-family="Helvetica,sans-Serif" font-size="10.00">MarmotMechanicsCore</text>
</g>
<!-- dir_f1b1db24a065556929791500418aeb43 -->
<g id="node2" class="node">
<title>dir_f1b1db24a065556929791500418aeb43</title>
<g id="a_node2"><a xlink:href="dir_f1b1db24a065556929791500418aeb43.html" target="_top" xlink:title="doc">
<polygon fill="white" stroke="black" points="150,-180 96,-180 96,-144 150,-144 150,-180"/>
<text text-anchor="middle" x="123" y="-159.5" font-family="Helvetica,sans-Serif" font-size="10.00">doc</text>
</a>
</g>
</g>
<!-- dir_7d9e0bddc3df5047c06a16b0d057f1c8 -->
<g id="node3" class="node">
<title>dir_7d9e0bddc3df5047c06a16b0d057f1c8</title>
<g id="a_node3"><a xlink:href="dir_7d9e0bddc3df5047c06a16b0d057f1c8.html" target="_top" xlink:title="include">
<polygon fill="white" stroke="red" points="286,-108 232,-108 232,-72 286,-72 286,-108"/>
<text text-anchor="middle" x="259" y="-87.5" font-family="Helvetica,sans-Serif" font-size="10.00">include</text>
</a>
</g>
</g>
<!-- dir_d44c64559bbebec7f509842c48db8b23 -->
<g id="node5" class="node">
<title>dir_d44c64559bbebec7f509842c48db8b23</title>
<g id="a_node5"><a xlink:href="dir_d44c64559bbebec7f509842c48db8b23.html" target="_top" xlink:title="include">
<polygon fill="white" stroke="red" points="364,-108 310,-108 310,-72 364,-72 364,-108"/>
<text text-anchor="middle" x="337" y="-87.5" font-family="Helvetica,sans-Serif" font-size="10.00">include</text>
</a>
</g>
</g>
<!-- dir_7d9e0bddc3df5047c06a16b0d057f1c8&#45;&gt;dir_d44c64559bbebec7f509842c48db8b23 -->
<g id="edge6" class="edge">
<title>dir_7d9e0bddc3df5047c06a16b0d057f1c8&#45;&gt;dir_d44c64559bbebec7f509842c48db8b23</title>
<path fill="none" stroke="black" d="M286.12,-90C290.71,-90 295.31,-90 299.91,-90"/>
<polygon fill="black" stroke="black" points="299.97,-93.5 309.97,-90 299.97,-86.5 299.97,-93.5"/>
<g id="a_edge6&#45;headlabel"><a xlink:href="dir_000026_000002.html" target="_top" xlink:title="11">
<text text-anchor="middle" x="296.37" y="-93.84" font-family="Helvetica,sans-Serif" font-size="10.00">11</text>
</a>
</g>
</g>
<!-- dir_39413a3592d49ba1372e049fbfe3e31f -->
<g id="node6" class="node">
<title>dir_39413a3592d49ba1372e049fbfe3e31f</title>
<g id="a_node6"><a xlink:href="dir_39413a3592d49ba1372e049fbfe3e31f.html" target="_top" xlink:title="MarmotMathCore">
<polygon fill="white" stroke="red" points="383,-36 291,-36 291,0 383,0 383,-36"/>
<text text-anchor="middle" x="337" y="-15.5" font-family="Helvetica,sans-Serif" font-size="10.00">MarmotMathCore</text>
</a>
</g>
</g>
<!-- dir_7d9e0bddc3df5047c06a16b0d057f1c8&#45;&gt;dir_39413a3592d49ba1372e049fbfe3e31f -->
<g id="edge7" class="edge">
<title>dir_7d9e0bddc3df5047c06a16b0d057f1c8&#45;&gt;dir_39413a3592d49ba1372e049fbfe3e31f</title>
<path fill="none" stroke="black" d="M272.37,-71.7C281.19,-62.97 292.97,-52.24 304.11,-42.75"/>
<polygon fill="black" stroke="black" points="306.62,-45.21 312.05,-36.1 302.13,-39.84 306.62,-45.21"/>
<g id="a_edge7&#45;headlabel"><a xlink:href="dir_000026_000014.html" target="_top" xlink:title="18">
<text text-anchor="middle" x="305.69" y="-47.19" font-family="Helvetica,sans-Serif" font-size="10.00">18</text>
</a>
</g>
</g>
<!-- dir_44fa5c34dc4af4cf8679eba293af8a34 -->
<g id="node4" class="node">
<title>dir_44fa5c34dc4af4cf8679eba293af8a34</title>
<g id="a_node4"><a xlink:href="dir_44fa5c34dc4af4cf8679eba293af8a34.html" target="_top" xlink:title="src">
<polygon fill="white" stroke="black" points="78,-180 24,-180 24,-144 78,-144 78,-180"/>
<text text-anchor="middle" x="51" y="-159.5" font-family="Helvetica,sans-Serif" font-size="10.00">src</text>
</a>
</g>
</g>
<!-- dir_44fa5c34dc4af4cf8679eba293af8a34&#45;&gt;dir_7d9e0bddc3df5047c06a16b0d057f1c8 -->
<g id="edge2" class="edge">
<title>dir_44fa5c34dc4af4cf8679eba293af8a34&#45;&gt;dir_7d9e0bddc3df5047c06a16b0d057f1c8</title>
<path fill="none" stroke="black" d="M78.34,-147.6C81.24,-146.32 84.16,-145.1 87,-144 132.6,-126.31 186.75,-110.44 221.94,-100.77"/>
<polygon fill="black" stroke="black" points="223.05,-104.1 231.78,-98.1 221.21,-97.34 223.05,-104.1"/>
<g id="a_edge2&#45;headlabel"><a xlink:href="dir_000028_000026.html" target="_top" xlink:title="35">
<text text-anchor="middle" x="220.33" y="-105.28" font-family="Helvetica,sans-Serif" font-size="10.00">35</text>
</a>
</g>
</g>
<!-- dir_44fa5c34dc4af4cf8679eba293af8a34&#45;&gt;dir_d44c64559bbebec7f509842c48db8b23 -->
<g id="edge1" class="edge">
<title>dir_44fa5c34dc4af4cf8679eba293af8a34&#45;&gt;dir_d44c64559bbebec7f509842c48db8b23</title>
<path fill="none" stroke="black" d="M78.21,-147.21C81.13,-146.02 84.1,-144.91 87,-144 177.74,-115.42 206.84,-135.21 298,-108 298.72,-107.79 299.44,-107.56 300.16,-107.33"/>
<polygon fill="black" stroke="black" points="301.39,-110.61 309.61,-103.92 299.02,-104.02 301.39,-110.61"/>
<g id="a_edge1&#45;headlabel"><a xlink:href="dir_000028_000002.html" target="_top" xlink:title="5">
<text text-anchor="middle" x="298.98" y="-112" font-family="Helvetica,sans-Serif" font-size="10.00">5</text>
</a>
</g>
</g>
<!-- dir_44fa5c34dc4af4cf8679eba293af8a34&#45;&gt;dir_39413a3592d49ba1372e049fbfe3e31f -->
<g id="edge3" class="edge">
<title>dir_44fa5c34dc4af4cf8679eba293af8a34&#45;&gt;dir_39413a3592d49ba1372e049fbfe3e31f</title>
<path fill="none" stroke="black" d="M78.17,-147.08C81.1,-145.91 84.08,-144.85 87,-144 148.51,-126.1 330.63,-156.04 373,-108 388.29,-90.67 381.7,-77.41 373,-56 371.24,-51.68 368.72,-47.59 365.8,-43.81"/>
<polygon fill="black" stroke="black" points="368.2,-41.24 358.95,-36.07 362.96,-45.88 368.2,-41.24"/>
<g id="a_edge3&#45;headlabel"><a xlink:href="dir_000028_000014.html" target="_top" xlink:title="26">
<text text-anchor="middle" x="372.71" y="-39.55" font-family="Helvetica,sans-Serif" font-size="10.00">26</text>
</a>
</g>
</g>
<!-- dir_d44c64559bbebec7f509842c48db8b23&#45;&gt;dir_7d9e0bddc3df5047c06a16b0d057f1c8 -->
<g id="edge4" class="edge">
<title>dir_d44c64559bbebec7f509842c48db8b23&#45;&gt;dir_7d9e0bddc3df5047c06a16b0d057f1c8</title>
<path fill="none" stroke="black" d="M309.97,-90C305.37,-90 300.78,-90 296.18,-90"/>
<polygon fill="black" stroke="black" points="296.12,-86.5 286.12,-90 296.12,-93.5 296.12,-86.5"/>
<g id="a_edge4&#45;headlabel"><a xlink:href="dir_000002_000026.html" target="_top" xlink:title="1">
<text text-anchor="middle" x="299.71" y="-81.16" font-family="Helvetica,sans-Serif" font-size="10.00">1</text>
</a>
</g>
</g>
<!-- dir_d44c64559bbebec7f509842c48db8b23&#45;&gt;dir_39413a3592d49ba1372e049fbfe3e31f -->
<g id="edge5" class="edge">
<title>dir_d44c64559bbebec7f509842c48db8b23&#45;&gt;dir_39413a3592d49ba1372e049fbfe3e31f</title>
<path fill="none" stroke="black" d="M331.08,-71.7C330.29,-63.98 330.06,-54.71 330.4,-46.11"/>
<polygon fill="black" stroke="black" points="333.9,-46.32 331.1,-36.1 326.92,-45.84 333.9,-46.32"/>
<g id="a_edge5&#45;headlabel"><a xlink:href="dir_000002_000014.html" target="_top" xlink:title="1">
<text text-anchor="middle" x="336.48" y="-47.61" font-family="Helvetica,sans-Serif" font-size="10.00">1</text>
</a>
</g>
</g>
<!-- dir_39413a3592d49ba1372e049fbfe3e31f&#45;&gt;dir_7d9e0bddc3df5047c06a16b0d057f1c8 -->
<g id="edge9" class="edge">
<title>dir_39413a3592d49ba1372e049fbfe3e31f&#45;&gt;dir_7d9e0bddc3df5047c06a16b0d057f1c8</title>
<path fill="none" stroke="black" d="M323.84,-36.1C315.05,-44.8 303.29,-55.52 292.15,-65.03"/>
<polygon fill="black" stroke="black" points="289.61,-62.59 284.2,-71.7 294.11,-67.96 289.61,-62.59"/>
<g id="a_edge9&#45;headlabel"><a xlink:href="dir_000014_000026.html" target="_top" xlink:title="1">
<text text-anchor="middle" x="290.54" y="-55.61" font-family="Helvetica,sans-Serif" font-size="10.00">1</text>
</a>
</g>
</g>
<!-- dir_39413a3592d49ba1372e049fbfe3e31f&#45;&gt;dir_d44c64559bbebec7f509842c48db8b23 -->
<g id="edge8" class="edge">
<title>dir_39413a3592d49ba1372e049fbfe3e31f&#45;&gt;dir_d44c64559bbebec7f509842c48db8b23</title>
<path fill="none" stroke="black" d="M342.9,-36.1C343.7,-43.79 343.94,-53.05 343.6,-61.67"/>
<polygon fill="black" stroke="black" points="340.11,-61.48 342.92,-71.7 347.09,-61.96 340.11,-61.48"/>
<g id="a_edge8&#45;headlabel"><a xlink:href="dir_000014_000002.html" target="_top" xlink:title="1">
<text text-anchor="middle" x="337.52" y="-55.2" font-family="Helvetica,sans-Serif" font-size="10.00">1</text>
</a>
</g>
</g>
</g>
</svg>
