<?xml version="1.0" encoding="UTF-8" standalone="no"?>
<!DOCTYPE svg PUBLIC "-//W3C//DTD SVG 1.1//EN"
 "http://www.w3.org/Graphics/SVG/1.1/DTD/svg11.dtd">
<!-- Generated by graphviz version 2.44.0 ()
 -->
<!-- Title: modules/core/MarmotMechanicsCore/include Pages: 1 -->
<svg width="255pt" height="178pt"
 viewBox="0.00 0.00 255.00 178.06" xmlns="http://www.w3.org/2000/svg" xmlns:xlink="http://www.w3.org/1999/xlink">
<g id="graph0" class="graph" transform="scale(1 1) rotate(0) translate(4 174.06)">
<title>modules/core/MarmotMechanicsCore/include</title>
<polygon fill="white" stroke="transparent" points="-4,4 -4,-174.06 251,-174.06 251,4 -4,4"/>
<g id="clust1" class="cluster">
<title>clusterdir_9969c29766c3ca5ea49aac3cac97384d</title>
<g id="a_clust1"><a xlink:href="dir_9969c29766c3ca5ea49aac3cac97384d.html" target="_top" xlink:title="MarmotMechanicsCore">
<polygon fill="#ddddee" stroke="black" points="8,-56 8,-143 166,-143 166,-56 8,-56"/>
<text text-anchor="middle" x="87" y="-131" font-family="Helvetica,sans-Serif" font-size="10.00">MarmotMechanicsCore</text>
</a>
</g>
</g>
<g id="clust2" class="cluster">
<title>clusterdir_7d9e0bddc3df5047c06a16b0d057f1c8</title>
<g id="a_clust2"><a xlink:href="dir_7d9e0bddc3df5047c06a16b0d057f1c8.html" target="_top">
<polygon fill="#eeeeff" stroke="black" points="16,-64 16,-116 158,-116 158,-64 16,-64"/>
</a>
</g>
</g>
<!-- dir_7d9e0bddc3df5047c06a16b0d057f1c8 -->
<g id="node1" class="node">
<title>dir_7d9e0bddc3df5047c06a16b0d057f1c8</title>
<text text-anchor="middle" x="123" y="-87.5" font-family="Helvetica,sans-Serif" font-size="10.00">include</text>
</g>
<!-- dir_d0d496183679f761e8bac416323bbe4d -->
<g id="node2" class="node">
<title>dir_d0d496183679f761e8bac416323bbe4d</title>
<g id="a_node2"><a xlink:href="dir_d0d496183679f761e8bac416323bbe4d.html" target="_top" xlink:title="Marmot">
<polygon fill="white" stroke="black" points="78,-108 24,-108 24,-72 78,-72 78,-108"/>
<text text-anchor="middle" x="51" y="-87.5" font-family="Helvetica,sans-Serif" font-size="10.00">Marmot</text>
</a>
</g>
</g>
<!-- dir_d44c64559bbebec7f509842c48db8b23 -->
<g id="node3" class="node">
<title>dir_d44c64559bbebec7f509842c48db8b23</title>
<g id="a_node3"><a xlink:href="dir_d44c64559bbebec7f509842c48db8b23.html" target="_top" xlink:title="include">
<polygon fill="white" stroke="red" points="228,-108 174,-108 174,-72 228,-72 228,-108"/>
<text text-anchor="middle" x="201" y="-87.5" font-family="Helvetica,sans-Serif" font-size="10.00">include</text>
</a>
</g>
</g>
<!-- dir_d0d496183679f761e8bac416323bbe4d&#45;&gt;dir_d44c64559bbebec7f509842c48db8b23 -->
<g id="edge3" class="edge">
<title>dir_d0d496183679f761e8bac416323bbe4d&#45;&gt;dir_d44c64559bbebec7f509842c48db8b23</title>
<path fill="none" stroke="black" d="M56.73,-108.04C63.23,-125.14 75.67,-149.82 96,-161 118.2,-173.21 130.63,-172.88 153,-161 170.3,-151.81 182.51,-133.29 190.28,-117.47"/>
<polygon fill="black" stroke="black" points="193.59,-118.63 194.55,-108.08 187.22,-115.73 193.59,-118.63"/>
<g id="a_edge3&#45;headlabel"><a xlink:href="dir_000027_000002.html" target="_top" xlink:title="11">
<text text-anchor="middle" x="194.69" y="-120.58" font-family="Helvetica,sans-Serif" font-size="10.00">11</text>
</a>
</g>
</g>
<!-- dir_39413a3592d49ba1372e049fbfe3e31f -->
<g id="node4" class="node">
<title>dir_39413a3592d49ba1372e049fbfe3e31f</title>
<g id="a_node4"><a xlink:href="dir_39413a3592d49ba1372e049fbfe3e31f.html" target="_top" xlink:title="MarmotMathCore">
<polygon fill="white" stroke="red" points="247,-36 155,-36 155,0 247,0 247,-36"/>
<text text-anchor="middle" x="201" y="-15.5" font-family="Helvetica,sans-Serif" font-size="10.00">MarmotMathCore</text>
</a>
</g>
</g>
<!-- dir_d0d496183679f761e8bac416323bbe4d&#45;&gt;dir_39413a3592d49ba1372e049fbfe3e31f -->
<g id="edge4" class="edge">
<title>dir_d0d496183679f761e8bac416323bbe4d&#45;&gt;dir_39413a3592d49ba1372e049fbfe3e31f</title>
<path fill="none" stroke="black" d="M58.19,-71.93C63.58,-66.24 70.68,-60.27 78,-56 98.34,-44.14 122.98,-35.53 144.91,-29.62"/>
<polygon fill="black" stroke="black" points="145.96,-32.97 154.77,-27.1 144.22,-26.19 145.96,-32.97"/>
<g id="a_edge4&#45;headlabel"><a xlink:href="dir_000027_000014.html" target="_top" xlink:title="18">
<text text-anchor="middle" x="143.18" y="-34.11" font-family="Helvetica,sans-Serif" font-size="10.00">18</text>
</a>
</g>
</g>
<!-- dir_d44c64559bbebec7f509842c48db8b23&#45;&gt;dir_d0d496183679f761e8bac416323bbe4d -->
<g id="edge1" class="edge">
<title>dir_d44c64559bbebec7f509842c48db8b23&#45;&gt;dir_d0d496183679f761e8bac416323bbe4d</title>
<path fill="none" stroke="black" d="M194.55,-108.08C187.35,-125.2 173.89,-149.9 153,-161 130.63,-172.88 118.2,-173.21 96,-161 79.16,-151.74 67.74,-133.22 60.62,-117.42"/>
<polygon fill="black" stroke="black" points="63.79,-115.94 56.73,-108.04 57.33,-118.62 63.79,-115.94"/>
<g id="a_edge1&#45;headlabel"><a xlink:href="dir_000002_000027.html" target="_top" xlink:title="1">
<text text-anchor="middle" x="67.79" y="-115.67" font-family="Helvetica,sans-Serif" font-size="10.00">1</text>
</a>
</g>
</g>
<!-- dir_d44c64559bbebec7f509842c48db8b23&#45;&gt;dir_39413a3592d49ba1372e049fbfe3e31f -->
<g id="edge2" class="edge">
<title>dir_d44c64559bbebec7f509842c48db8b23&#45;&gt;dir_39413a3592d49ba1372e049fbfe3e31f</title>
<path fill="none" stroke="black" d="M195.08,-71.7C194.29,-63.98 194.06,-54.71 194.4,-46.11"/>
<polygon fill="black" stroke="black" points="197.9,-46.32 195.1,-36.1 190.92,-45.84 197.9,-46.32"/>
<g id="a_edge2&#45;headlabel"><a xlink:href="dir_000002_000014.html" target="_top" xlink:title="1">
<text text-anchor="middle" x="200.48" y="-47.61" font-family="Helvetica,sans-Serif" font-size="10.00">1</text>
</a>
</g>
</g>
<!-- dir_39413a3592d49ba1372e049fbfe3e31f&#45;&gt;dir_d0d496183679f761e8bac416323bbe4d -->
<g id="edge6" class="edge">
<title>dir_39413a3592d49ba1372e049fbfe3e31f&#45;&gt;dir_d0d496183679f761e8bac416323bbe4d</title>
<path fill="none" stroke="black" d="M154.93,-31.54C135.94,-37.34 114.25,-45.36 96,-56 91.54,-58.6 87.16,-61.84 82.96,-65.25"/>
<polygon fill="black" stroke="black" points="80.46,-62.78 75.12,-71.93 85,-68.11 80.46,-62.78"/>
<g id="a_edge6&#45;headlabel"><a xlink:href="dir_000014_000027.html" target="_top" xlink:title="1">
<text text-anchor="middle" x="81.36" y="-55.79" font-family="Helvetica,sans-Serif" font-size="10.00">1</text>
</a>
</g>
</g>
<!-- dir_39413a3592d49ba1372e049fbfe3e31f&#45;&gt;dir_d44c64559bbebec7f509842c48db8b23 -->
<g id="edge5" class="edge">
<title>dir_39413a3592d49ba1372e049fbfe3e31f&#45;&gt;dir_d44c64559bbebec7f509842c48db8b23</title>
<path fill="none" stroke="black" d="M206.9,-36.1C207.7,-43.79 207.94,-53.05 207.6,-61.67"/>
<polygon fill="black" stroke="black" points="204.11,-61.48 206.92,-71.7 211.09,-61.96 204.11,-61.48"/>
<g id="a_edge5&#45;headlabel"><a xlink:href="dir_000014_000002.html" target="_top" xlink:title="1">
<text text-anchor="middle" x="201.52" y="-55.2" font-family="Helvetica,sans-Serif" font-size="10.00">1</text>
</a>
</g>
</g>
</g>
</svg>
