<?xml version="1.0" encoding="UTF-8" standalone="no"?>
<!DOCTYPE svg PUBLIC "-//W3C//DTD SVG 1.1//EN"
 "http://www.w3.org/Graphics/SVG/1.1/DTD/svg11.dtd">
<!-- Generated by graphviz version 3.0.0 (20220413.0106)
 -->
<!-- Title: modules Pages: 1 -->
<svg width="242pt" height="204pt"
 viewBox="0.00 0.00 242.00 204.00" xmlns="http://www.w3.org/2000/svg" xmlns:xlink="http://www.w3.org/1999/xlink">
<g id="graph0" class="graph" transform="scale(1 1) rotate(0) translate(4 200)">
<title>modules</title>
<polygon fill="white" stroke="transparent" points="-4,4 -4,-200 238,-200 238,4 -4,4"/>
<g id="clust1" class="cluster">
<title>clusterdir_e05d7e2b1ecd646af5bb94391405f3b5</title>
<g id="a_clust1"><a xlink:href="dir_e05d7e2b1ecd646af5bb94391405f3b5.html" target="_top">
<polygon fill="#cbdbe8" stroke="#404040" stroke-width="2" points="8,-64 8,-188 226,-188 226,-64 8,-64"/>
</a>
</g>
</g>
<!-- dir_e05d7e2b1ecd646af5bb94391405f3b5 -->
<g id="node1" class="node">
<title>dir_e05d7e2b1ecd646af5bb94391405f3b5</title>
<text text-anchor="middle" x="191" y="-159.5" font-family="Helvetica,sans-Serif" font-size="10.00">modules</text>
</g>
<!-- dir_6d4da112a1331882b0b6514a341190a0 -->
<g id="node2" class="node">
<title>dir_6d4da112a1331882b0b6514a341190a0</title>
<g id="a_node2"><a xlink:href="dir_6d4da112a1331882b0b6514a341190a0.html" target="_top" xlink:title="core">
<polygon fill="#3e6a8f" stroke="#404040" points="70,-108 16,-108 16,-72 70,-72 70,-108"/>
<text text-anchor="middle" x="43" y="-87.5" font-family="Helvetica,sans-Serif" font-size="10.00">core</text>
</a>
</g>
</g>
<!-- dir_d44c64559bbebec7f509842c48db8b23 -->
<g id="node5" class="node">
<title>dir_d44c64559bbebec7f509842c48db8b23</title>
<g id="a_node5"><a xlink:href="dir_d44c64559bbebec7f509842c48db8b23.html" target="_top" xlink:title="include">
<polygon fill="none" stroke="red" points="125,-36 71,-36 71,0 125,0 125,-36"/>
<text text-anchor="middle" x="98" y="-15.5" font-family="Helvetica,sans-Serif" font-size="10.00">include</text>
</a>
</g>
</g>
<!-- dir_6d4da112a1331882b0b6514a341190a0&#45;&gt;dir_d44c64559bbebec7f509842c48db8b23 -->
<g id="edge1" class="edge">
<title>dir_6d4da112a1331882b0b6514a341190a0&#45;&gt;dir_d44c64559bbebec7f509842c48db8b23</title>
<path fill="none" stroke="black" d="M56.6,-71.7C63.12,-63.39 71.07,-53.28 78.25,-44.14"/>
<polygon fill="black" stroke="black" points="81.13,-46.13 84.56,-36.1 75.63,-41.81 81.13,-46.13"/>
<g id="a_edge1&#45;headlabel"><a xlink:href="dir_000000_000007.html" target="_top" xlink:title="19">
<text text-anchor="middle" x="81.15" y="-48.21" font-family="Helvetica,sans-Serif" font-size="10.00">19</text>
</a>
</g>
</g>
<!-- dir_6224fa5a9999cbdd113adab36163ebac -->
<g id="node3" class="node">
<title>dir_6224fa5a9999cbdd113adab36163ebac</title>
<g id="a_node3"><a xlink:href="dir_6224fa5a9999cbdd113adab36163ebac.html" target="_top" xlink:title="elements">
<polygon fill="#3e6a8f" stroke="#404040" points="72,-180 16,-180 16,-144 72,-144 72,-180"/>
<text text-anchor="middle" x="44" y="-159.5" font-family="Helvetica,sans-Serif" font-size="10.00">elements</text>
</a>
</g>
</g>
<!-- dir_6224fa5a9999cbdd113adab36163ebac&#45;&gt;dir_6d4da112a1331882b0b6514a341190a0 -->
<g id="edge3" class="edge">
<title>dir_6224fa5a9999cbdd113adab36163ebac&#45;&gt;dir_6d4da112a1331882b0b6514a341190a0</title>
<path fill="none" stroke="black" d="M43.75,-143.7C43.64,-135.98 43.51,-126.71 43.39,-118.11"/>
<polygon fill="black" stroke="black" points="46.89,-118.05 43.24,-108.1 39.89,-118.15 46.89,-118.05"/>
<g id="a_edge3&#45;headlabel"><a xlink:href="dir_000006_000000.html" target="_top" xlink:title="7">
<text text-anchor="middle" x="49.78" y="-119.11" font-family="Helvetica,sans-Serif" font-size="10.00">7</text>
</a>
</g>
</g>
<!-- dir_6224fa5a9999cbdd113adab36163ebac&#45;&gt;dir_d44c64559bbebec7f509842c48db8b23 -->
<g id="edge2" class="edge">
<title>dir_6224fa5a9999cbdd113adab36163ebac&#45;&gt;dir_d44c64559bbebec7f509842c48db8b23</title>
<path fill="none" stroke="black" d="M57.75,-143.79C65.07,-133.85 73.63,-120.81 79,-108 87.28,-88.24 92.12,-64.44 94.84,-46.42"/>
<polygon fill="black" stroke="black" points="98.34,-46.68 96.24,-36.3 91.41,-45.73 98.34,-46.68"/>
<g id="a_edge2&#45;headlabel"><a xlink:href="dir_000006_000007.html" target="_top" xlink:title="5">
<text text-anchor="middle" x="100.66" y="-48.13" font-family="Helvetica,sans-Serif" font-size="10.00">5</text>
</a>
</g>
</g>
<!-- dir_a55c496f430aa4275197c786dabe211f -->
<g id="node4" class="node">
<title>dir_a55c496f430aa4275197c786dabe211f</title>
<g id="a_node4"><a xlink:href="dir_a55c496f430aa4275197c786dabe211f.html" target="_top" xlink:title="materials">
<polygon fill="#3e6a8f" stroke="#404040" points="146,-180 90,-180 90,-144 146,-144 146,-180"/>
<text text-anchor="middle" x="118" y="-159.5" font-family="Helvetica,sans-Serif" font-size="10.00">materials</text>
</a>
</g>
</g>
<!-- dir_a55c496f430aa4275197c786dabe211f&#45;&gt;dir_6d4da112a1331882b0b6514a341190a0 -->
<g id="edge4" class="edge">
<title>dir_a55c496f430aa4275197c786dabe211f&#45;&gt;dir_6d4da112a1331882b0b6514a341190a0</title>
<path fill="none" stroke="black" d="M99.46,-143.7C90.2,-135.05 78.84,-124.45 68.74,-115.03"/>
<polygon fill="black" stroke="black" points="71.02,-112.37 61.33,-108.1 66.25,-117.49 71.02,-112.37"/>
<g id="a_edge4&#45;headlabel"><a xlink:href="dir_000024_000000.html" target="_top" xlink:title="4">
<text text-anchor="middle" x="75.59" y="-110.25" font-family="Helvetica,sans-Serif" font-size="10.00">4</text>
</a>
</g>
</g>
<!-- dir_a55c496f430aa4275197c786dabe211f&#45;&gt;dir_d44c64559bbebec7f509842c48db8b23 -->
<g id="edge5" class="edge">
<title>dir_a55c496f430aa4275197c786dabe211f&#45;&gt;dir_d44c64559bbebec7f509842c48db8b23</title>
<path fill="none" stroke="black" d="M118.17,-143.68C118.08,-124.15 117.06,-91.55 112,-64 110.93,-58.17 109.34,-52.03 107.62,-46.22"/>
<polygon fill="black" stroke="black" points="110.82,-44.74 104.44,-36.28 104.15,-46.87 110.82,-44.74"/>
<g id="a_edge5&#45;headlabel"><a xlink:href="dir_000024_000007.html" target="_top" xlink:title="2">
<text text-anchor="middle" x="114.61" y="-44.8" font-family="Helvetica,sans-Serif" font-size="10.00">2</text>
</a>
</g>
</g>
</g>
</svg>
