<?xml version="1.0" encoding="UTF-8" standalone="no"?>
<!DOCTYPE svg PUBLIC "-//W3C//DTD SVG 1.1//EN"
 "http://www.w3.org/Graphics/SVG/1.1/DTD/svg11.dtd">
<!-- Generated by graphviz version 2.44.0 ()
 -->
<!-- Title: modules/materials Pages: 1 -->
<svg width="282pt" height="231pt"
 viewBox="0.00 0.00 282.00 231.00" xmlns="http://www.w3.org/2000/svg" xmlns:xlink="http://www.w3.org/1999/xlink">
<g id="graph0" class="graph" transform="scale(1 1) rotate(0) translate(4 227)">
<title>modules/materials</title>
<polygon fill="white" stroke="transparent" points="-4,4 -4,-227 278,-227 278,4 -4,4"/>
<g id="clust1" class="cluster">
<title>clusterdir_e05d7e2b1ecd646af5bb94391405f3b5</title>
<g id="a_clust1"><a xlink:href="dir_e05d7e2b1ecd646af5bb94391405f3b5.html" target="_top" xlink:title="modules">
<polygon fill="#ddddee" stroke="black" points="8,-128 8,-215 266,-215 266,-128 8,-128"/>
<text text-anchor="middle" x="137" y="-203" font-family="Helvetica,sans-Serif" font-size="10.00">modules</text>
</a>
</g>
</g>
<g id="clust2" class="cluster">
<title>clusterdir_a55c496f430aa4275197c786dabe211f</title>
<g id="a_clust2"><a xlink:href="dir_a55c496f430aa4275197c786dabe211f.html" target="_top">
<polygon fill="#eeeeff" stroke="black" points="16,-136 16,-188 258,-188 258,-136 16,-136"/>
</a>
</g>
</g>
<!-- dir_a55c496f430aa4275197c786dabe211f -->
<g id="node1" class="node">
<title>dir_a55c496f430aa4275197c786dabe211f</title>
<text text-anchor="middle" x="222" y="-159.5" font-family="Helvetica,sans-Serif" font-size="10.00">materials</text>
</g>
<!-- dir_d7d0bb0bcbd88dad2113f443530919ad -->
<g id="node2" class="node">
<title>dir_d7d0bb0bcbd88dad2113f443530919ad</title>
<g id="a_node2"><a xlink:href="dir_d7d0bb0bcbd88dad2113f443530919ad.html" target="_top" xlink:title="LinearElastic">
<polygon fill="white" stroke="red" points="97.5,-180 24.5,-180 24.5,-144 97.5,-144 97.5,-180"/>
<text text-anchor="middle" x="61" y="-159.5" font-family="Helvetica,sans-Serif" font-size="10.00">LinearElastic</text>
</a>
</g>
</g>
<!-- dir_6d4da112a1331882b0b6514a341190a0 -->
<g id="node4" class="node">
<title>dir_6d4da112a1331882b0b6514a341190a0</title>
<g id="a_node4"><a xlink:href="dir_6d4da112a1331882b0b6514a341190a0.html" target="_top" xlink:title="core">
<polygon fill="white" stroke="red" points="130,-108 76,-108 76,-72 130,-72 130,-108"/>
<text text-anchor="middle" x="103" y="-87.5" font-family="Helvetica,sans-Serif" font-size="10.00">core</text>
</a>
</g>
</g>
<!-- dir_d7d0bb0bcbd88dad2113f443530919ad&#45;&gt;dir_6d4da112a1331882b0b6514a341190a0 -->
<g id="edge4" class="edge">
<title>dir_d7d0bb0bcbd88dad2113f443530919ad&#45;&gt;dir_6d4da112a1331882b0b6514a341190a0</title>
<path fill="none" stroke="black" d="M71.38,-143.7C76.26,-135.56 82.19,-125.69 87.58,-116.7"/>
<polygon fill="black" stroke="black" points="90.59,-118.48 92.74,-108.1 84.59,-114.88 90.59,-118.48"/>
<g id="a_edge4&#45;headlabel"><a xlink:href="dir_000015_000005.html" target="_top" xlink:title="7">
<text text-anchor="middle" x="91.18" y="-120.52" font-family="Helvetica,sans-Serif" font-size="10.00">7</text>
</a>
</g>
</g>
<!-- dir_d44c64559bbebec7f509842c48db8b23 -->
<g id="node5" class="node">
<title>dir_d44c64559bbebec7f509842c48db8b23</title>
<g id="a_node5"><a xlink:href="dir_d44c64559bbebec7f509842c48db8b23.html" target="_top" xlink:title="include">
<polygon fill="white" stroke="red" points="130,-36 76,-36 76,0 130,0 130,-36"/>
<text text-anchor="middle" x="103" y="-15.5" font-family="Helvetica,sans-Serif" font-size="10.00">include</text>
</a>
</g>
</g>
<!-- dir_d7d0bb0bcbd88dad2113f443530919ad&#45;&gt;dir_d44c64559bbebec7f509842c48db8b23 -->
<g id="edge5" class="edge">
<title>dir_d7d0bb0bcbd88dad2113f443530919ad&#45;&gt;dir_d44c64559bbebec7f509842c48db8b23</title>
<path fill="none" stroke="black" d="M59.54,-143.75C58.59,-125.42 58.77,-95.86 67,-72 70.34,-62.32 75.93,-52.75 81.72,-44.47"/>
<polygon fill="black" stroke="black" points="84.6,-46.46 87.74,-36.34 78.97,-42.29 84.6,-46.46"/>
<g id="a_edge5&#45;headlabel"><a xlink:href="dir_000015_000002.html" target="_top" xlink:title="2">
<text text-anchor="middle" x="84.74" y="-48.54" font-family="Helvetica,sans-Serif" font-size="10.00">2</text>
</a>
</g>
</g>
<!-- dir_480ae59bc4698372f3423da8b38d3be1 -->
<g id="node3" class="node">
<title>dir_480ae59bc4698372f3423da8b38d3be1</title>
<g id="a_node3"><a xlink:href="dir_480ae59bc4698372f3423da8b38d3be1.html" target="_top" xlink:title="VonMises">
<polygon fill="white" stroke="red" points="176,-180 116,-180 116,-144 176,-144 176,-180"/>
<text text-anchor="middle" x="146" y="-159.5" font-family="Helvetica,sans-Serif" font-size="10.00">VonMises</text>
</a>
</g>
</g>
<!-- dir_480ae59bc4698372f3423da8b38d3be1&#45;&gt;dir_6d4da112a1331882b0b6514a341190a0 -->
<g id="edge1" class="edge">
<title>dir_480ae59bc4698372f3423da8b38d3be1&#45;&gt;dir_6d4da112a1331882b0b6514a341190a0</title>
<path fill="none" stroke="black" d="M135.37,-143.7C130.37,-135.56 124.31,-125.69 118.79,-116.7"/>
<polygon fill="black" stroke="black" points="121.72,-114.79 113.51,-108.1 115.76,-118.46 121.72,-114.79"/>
<g id="a_edge1&#45;headlabel"><a xlink:href="dir_000032_000005.html" target="_top" xlink:title="9">
<text text-anchor="middle" x="126.02" y="-113.87" font-family="Helvetica,sans-Serif" font-size="10.00">9</text>
</a>
</g>
</g>
<!-- dir_480ae59bc4698372f3423da8b38d3be1&#45;&gt;dir_d44c64559bbebec7f509842c48db8b23 -->
<g id="edge2" class="edge">
<title>dir_480ae59bc4698372f3423da8b38d3be1&#45;&gt;dir_d44c64559bbebec7f509842c48db8b23</title>
<path fill="none" stroke="black" d="M147.21,-143.73C147.92,-125.4 147.37,-95.84 139,-72 135.61,-62.34 130,-52.78 124.21,-44.49"/>
<polygon fill="black" stroke="black" points="126.96,-42.32 118.2,-36.36 121.34,-46.48 126.96,-42.32"/>
<g id="a_edge2&#45;headlabel"><a xlink:href="dir_000032_000002.html" target="_top" xlink:title="1">
<text text-anchor="middle" x="131.38" y="-41.02" font-family="Helvetica,sans-Serif" font-size="10.00">1</text>
</a>
</g>
</g>
<!-- dir_6d4da112a1331882b0b6514a341190a0&#45;&gt;dir_d44c64559bbebec7f509842c48db8b23 -->
<g id="edge3" class="edge">
<title>dir_6d4da112a1331882b0b6514a341190a0&#45;&gt;dir_d44c64559bbebec7f509842c48db8b23</title>
<path fill="none" stroke="black" d="M103,-71.7C103,-63.98 103,-54.71 103,-46.11"/>
<polygon fill="black" stroke="black" points="106.5,-46.1 103,-36.1 99.5,-46.1 106.5,-46.1"/>
<g id="a_edge3&#45;headlabel"><a xlink:href="dir_000005_000002.html" target="_top" xlink:title="20">
<text text-anchor="middle" x="109.34" y="-47.2" font-family="Helvetica,sans-Serif" font-size="10.00">20</text>
</a>
</g>
</g>
</g>
</svg>
