<?xml version="1.0" encoding="UTF-8" standalone="no"?>
<!DOCTYPE svg PUBLIC "-//W3C//DTD SVG 1.1//EN"
 "http://www.w3.org/Graphics/SVG/1.1/DTD/svg11.dtd">
<!-- Generated by graphviz version 2.47.1 (20210421.1823)
 -->
<!-- Title: modules/core/MarmotMechanicsCore/include Pages: 1 -->
<svg width="274pt" height="177pt"
 viewBox="0.00 0.00 274.00 177.48" xmlns="http://www.w3.org/2000/svg" xmlns:xlink="http://www.w3.org/1999/xlink">
<g id="graph0" class="graph" transform="scale(1 1) rotate(0) translate(4 173.48)">
<title>modules/core/MarmotMechanicsCore/include</title>
<polygon fill="white" stroke="transparent" points="-4,4 -4,-173.48 270,-173.48 270,4 -4,4"/>
<g id="clust1" class="cluster">
<title>clusterdir_9969c29766c3ca5ea49aac3cac97384d</title>
<g id="a_clust1"><a xlink:href="dir_9969c29766c3ca5ea49aac3cac97384d.html" target="_top" xlink:title="MarmotMechanicsCore">
<polygon fill="#ddddee" stroke="black" points="8,-56 8,-143 166,-143 166,-56 8,-56"/>
<text text-anchor="middle" x="87" y="-131" font-family="Helvetica,sans-Serif" font-size="10.00">MarmotMechanicsCore</text>
</a>
</g>
</g>
<g id="clust2" class="cluster">
<title>clusterdir_7d9e0bddc3df5047c06a16b0d057f1c8</title>
<g id="a_clust2"><a xlink:href="dir_7d9e0bddc3df5047c06a16b0d057f1c8.html" target="_top">
<polygon fill="#eeeeff" stroke="black" points="16,-64 16,-116 158,-116 158,-64 16,-64"/>
</a>
</g>
</g>
<!-- dir_7d9e0bddc3df5047c06a16b0d057f1c8 -->
<g id="node1" class="node">
<title>dir_7d9e0bddc3df5047c06a16b0d057f1c8</title>
<text text-anchor="middle" x="123" y="-87.5" font-family="Helvetica,sans-Serif" font-size="10.00">include</text>
</g>
<!-- dir_d0d496183679f761e8bac416323bbe4d -->
<g id="node2" class="node">
<title>dir_d0d496183679f761e8bac416323bbe4d</title>
<g id="a_node2"><a xlink:href="dir_d0d496183679f761e8bac416323bbe4d.html" target="_top" xlink:title="Marmot">
<polygon fill="white" stroke="black" points="78,-108 24,-108 24,-72 78,-72 78,-108"/>
<text text-anchor="middle" x="51" y="-87.5" font-family="Helvetica,sans-Serif" font-size="10.00">Marmot</text>
</a>
</g>
</g>
<!-- dir_d44c64559bbebec7f509842c48db8b23 -->
<g id="node3" class="node">
<title>dir_d44c64559bbebec7f509842c48db8b23</title>
<g id="a_node3"><a xlink:href="dir_d44c64559bbebec7f509842c48db8b23.html" target="_top" xlink:title="include">
<polygon fill="white" stroke="red" points="162,-36 108,-36 108,0 162,0 162,-36"/>
<text text-anchor="middle" x="135" y="-15.5" font-family="Helvetica,sans-Serif" font-size="10.00">include</text>
</a>
</g>
</g>
<!-- dir_d0d496183679f761e8bac416323bbe4d&#45;&gt;dir_d44c64559bbebec7f509842c48db8b23 -->
<g id="edge2" class="edge">
<title>dir_d0d496183679f761e8bac416323bbe4d&#45;&gt;dir_d44c64559bbebec7f509842c48db8b23</title>
<path fill="none" stroke="black" d="M69.04,-71.9C74.7,-66.7 81.03,-61.02 87,-56 92.3,-51.54 98.05,-46.93 103.67,-42.53"/>
<polygon fill="black" stroke="black" points="105.96,-45.18 111.73,-36.3 101.68,-39.65 105.96,-45.18"/>
<g id="a_edge2&#45;headlabel"><a xlink:href="dir_000017_000002.html" target="_top" xlink:title="10">
<text text-anchor="middle" x="104.86" y="-47.13" font-family="Helvetica,sans-Serif" font-size="10.00">10</text>
</a>
</g>
</g>
<!-- dir_39413a3592d49ba1372e049fbfe3e31f -->
<g id="node4" class="node">
<title>dir_39413a3592d49ba1372e049fbfe3e31f</title>
<g id="a_node4"><a xlink:href="dir_39413a3592d49ba1372e049fbfe3e31f.html" target="_top" xlink:title="MarmotMathCore">
<polygon fill="white" stroke="red" points="266,-108 174,-108 174,-72 266,-72 266,-108"/>
<text text-anchor="middle" x="220" y="-87.5" font-family="Helvetica,sans-Serif" font-size="10.00">MarmotMathCore</text>
</a>
</g>
</g>
<!-- dir_d0d496183679f761e8bac416323bbe4d&#45;&gt;dir_39413a3592d49ba1372e049fbfe3e31f -->
<g id="edge1" class="edge">
<title>dir_d0d496183679f761e8bac416323bbe4d&#45;&gt;dir_39413a3592d49ba1372e049fbfe3e31f</title>
<path fill="none" stroke="black" d="M56.73,-108.04C63.23,-125.14 75.67,-149.82 96,-161 118.2,-173.21 129.74,-171.03 153,-161 173.88,-152 191.27,-132.93 203.1,-116.82"/>
<polygon fill="black" stroke="black" points="206.23,-118.46 209.09,-108.26 200.49,-114.45 206.23,-118.46"/>
<g id="a_edge1&#45;headlabel"><a xlink:href="dir_000017_000006.html" target="_top" xlink:title="12">
<text text-anchor="middle" x="206.5" y="-120.53" font-family="Helvetica,sans-Serif" font-size="10.00">12</text>
</a>
</g>
</g>
<!-- dir_39413a3592d49ba1372e049fbfe3e31f&#45;&gt;dir_d0d496183679f761e8bac416323bbe4d -->
<g id="edge3" class="edge">
<title>dir_39413a3592d49ba1372e049fbfe3e31f&#45;&gt;dir_d0d496183679f761e8bac416323bbe4d</title>
<path fill="none" stroke="black" d="M209.09,-108.26C197.6,-125.52 177.74,-150.33 153,-161 129.74,-171.03 118.2,-173.21 96,-161 79.16,-151.74 67.74,-133.22 60.62,-117.42"/>
<polygon fill="black" stroke="black" points="63.79,-115.94 56.73,-108.04 57.33,-118.62 63.79,-115.94"/>
<g id="a_edge3&#45;headlabel"><a xlink:href="dir_000006_000017.html" target="_top" xlink:title="1">
<text text-anchor="middle" x="67.79" y="-115.67" font-family="Helvetica,sans-Serif" font-size="10.00">1</text>
</a>
</g>
</g>
<!-- dir_39413a3592d49ba1372e049fbfe3e31f&#45;&gt;dir_d44c64559bbebec7f509842c48db8b23 -->
<g id="edge4" class="edge">
<title>dir_39413a3592d49ba1372e049fbfe3e31f&#45;&gt;dir_d44c64559bbebec7f509842c48db8b23</title>
<path fill="none" stroke="black" d="M198.99,-71.7C188.28,-62.88 175.11,-52.03 163.5,-42.47"/>
<polygon fill="black" stroke="black" points="165.71,-39.76 155.77,-36.1 161.26,-45.16 165.71,-39.76"/>
<g id="a_edge4&#45;headlabel"><a xlink:href="dir_000006_000002.html" target="_top" xlink:title="1">
<text text-anchor="middle" x="170.29" y="-37.35" font-family="Helvetica,sans-Serif" font-size="10.00">1</text>
</a>
</g>
</g>
</g>
</svg>
