<?xml version="1.0" encoding="UTF-8" standalone="no"?>
<!DOCTYPE svg PUBLIC "-//W3C//DTD SVG 1.1//EN"
 "http://www.w3.org/Graphics/SVG/1.1/DTD/svg11.dtd">
<!-- Generated by graphviz version 2.44.0 ()
 -->
<!-- Title: modules/core/MarmotFiniteElementCore/src Pages: 1 -->
<svg width="256pt" height="367pt"
 viewBox="0.00 0.00 256.31 367.00" xmlns="http://www.w3.org/2000/svg" xmlns:xlink="http://www.w3.org/1999/xlink">
<g id="graph0" class="graph" transform="scale(1 1) rotate(0) translate(4 363)">
<title>modules/core/MarmotFiniteElementCore/src</title>
<polygon fill="white" stroke="transparent" points="-4,4 -4,-363 252.31,-363 252.31,4 -4,4"/>
<g id="clust1" class="cluster">
<title>clusterdir_a6282ced73efdb7b36cfc8bdf7a60b20</title>
<g id="a_clust1"><a xlink:href="dir_a6282ced73efdb7b36cfc8bdf7a60b20.html" target="_top" xlink:title="MarmotFiniteElementCore">
<polygon fill="#ddddee" stroke="black" points="10.81,-280 10.81,-351 139.81,-351 139.81,-280 10.81,-280"/>
<text text-anchor="middle" x="75.31" y="-339" font-family="Helvetica,sans-Serif" font-size="10.00">MarmotFiniteElementCore</text>
</a>
</g>
</g>
<!-- dir_b03b27ba81a49fd6f9c9588f67883179 -->
<g id="node1" class="node">
<title>dir_b03b27ba81a49fd6f9c9588f67883179</title>
<g id="a_node1"><a xlink:href="dir_b03b27ba81a49fd6f9c9588f67883179.html" target="_top" xlink:title="src">
<polygon fill="#eeeeff" stroke="black" points="101.81,-324 47.81,-324 47.81,-288 101.81,-288 101.81,-324"/>
<text text-anchor="middle" x="74.81" y="-303.5" font-family="Helvetica,sans-Serif" font-size="10.00">src</text>
</a>
</g>
</g>
<!-- dir_7a1ab5031ed028ea4c059c711d14cf0d -->
<g id="node2" class="node">
<title>dir_7a1ab5031ed028ea4c059c711d14cf0d</title>
<g id="a_node2"><a xlink:href="dir_7a1ab5031ed028ea4c059c711d14cf0d.html" target="_top" xlink:title="include">
<polygon fill="white" stroke="red" points="74.81,-252 20.81,-252 20.81,-216 74.81,-216 74.81,-252"/>
<text text-anchor="middle" x="47.81" y="-231.5" font-family="Helvetica,sans-Serif" font-size="10.00">include</text>
</a>
</g>
</g>
<!-- dir_b03b27ba81a49fd6f9c9588f67883179&#45;&gt;dir_7a1ab5031ed028ea4c059c711d14cf0d -->
<g id="edge6" class="edge">
<title>dir_b03b27ba81a49fd6f9c9588f67883179&#45;&gt;dir_7a1ab5031ed028ea4c059c711d14cf0d</title>
<path fill="none" stroke="black" d="M68.13,-287.7C65.09,-279.81 61.42,-270.3 58.05,-261.55"/>
<polygon fill="black" stroke="black" points="61.27,-260.17 54.4,-252.1 54.74,-262.69 61.27,-260.17"/>
<g id="a_edge6&#45;headlabel"><a xlink:href="dir_000009_000007.html" target="_top" xlink:title="9">
<text text-anchor="middle" x="65.21" y="-260.01" font-family="Helvetica,sans-Serif" font-size="10.00">9</text>
</a>
</g>
</g>
<!-- dir_9969c29766c3ca5ea49aac3cac97384d -->
<g id="node3" class="node">
<title>dir_9969c29766c3ca5ea49aac3cac97384d</title>
<g id="a_node3"><a xlink:href="dir_9969c29766c3ca5ea49aac3cac97384d.html" target="_top" xlink:title="MarmotMechanicsCore">
<polygon fill="white" stroke="red" points="248.31,-180 131.31,-180 131.31,-144 248.31,-144 248.31,-180"/>
<text text-anchor="middle" x="189.81" y="-159.5" font-family="Helvetica,sans-Serif" font-size="10.00">MarmotMechanicsCore</text>
</a>
</g>
</g>
<!-- dir_b03b27ba81a49fd6f9c9588f67883179&#45;&gt;dir_9969c29766c3ca5ea49aac3cac97384d -->
<g id="edge7" class="edge">
<title>dir_b03b27ba81a49fd6f9c9588f67883179&#45;&gt;dir_9969c29766c3ca5ea49aac3cac97384d</title>
<path fill="none" stroke="black" d="M88.68,-287.87C108.8,-263.03 146.2,-216.85 169.45,-188.14"/>
<polygon fill="black" stroke="black" points="172.31,-190.16 175.89,-180.19 166.87,-185.76 172.31,-190.16"/>
<g id="a_edge7&#45;headlabel"><a xlink:href="dir_000009_000012.html" target="_top" xlink:title="1">
<text text-anchor="middle" x="172.26" y="-192.24" font-family="Helvetica,sans-Serif" font-size="10.00">1</text>
</a>
</g>
</g>
<!-- dir_d44c64559bbebec7f509842c48db8b23 -->
<g id="node4" class="node">
<title>dir_d44c64559bbebec7f509842c48db8b23</title>
<g id="a_node4"><a xlink:href="dir_d44c64559bbebec7f509842c48db8b23.html" target="_top" xlink:title="include">
<polygon fill="white" stroke="red" points="91.81,-36 37.81,-36 37.81,0 91.81,0 91.81,-36"/>
<text text-anchor="middle" x="64.81" y="-15.5" font-family="Helvetica,sans-Serif" font-size="10.00">include</text>
</a>
</g>
</g>
<!-- dir_b03b27ba81a49fd6f9c9588f67883179&#45;&gt;dir_d44c64559bbebec7f509842c48db8b23 -->
<g id="edge8" class="edge">
<title>dir_b03b27ba81a49fd6f9c9588f67883179&#45;&gt;dir_d44c64559bbebec7f509842c48db8b23</title>
<path fill="none" stroke="black" d="M47.8,-290.07C34.3,-281 19.29,-268.07 11.81,-252 -21.05,-181.43 22.74,-89.12 48.46,-44.86"/>
<polygon fill="black" stroke="black" points="51.53,-46.56 53.65,-36.18 45.52,-42.97 51.53,-46.56"/>
<g id="a_edge8&#45;headlabel"><a xlink:href="dir_000009_000002.html" target="_top" xlink:title="1">
<text text-anchor="middle" x="52.13" y="-48.6" font-family="Helvetica,sans-Serif" font-size="10.00">1</text>
</a>
</g>
</g>
<!-- dir_39413a3592d49ba1372e049fbfe3e31f -->
<g id="node5" class="node">
<title>dir_39413a3592d49ba1372e049fbfe3e31f</title>
<g id="a_node5"><a xlink:href="dir_39413a3592d49ba1372e049fbfe3e31f.html" target="_top" xlink:title="MarmotMathCore">
<polygon fill="white" stroke="red" points="148.81,-108 56.81,-108 56.81,-72 148.81,-72 148.81,-108"/>
<text text-anchor="middle" x="102.81" y="-87.5" font-family="Helvetica,sans-Serif" font-size="10.00">MarmotMathCore</text>
</a>
</g>
</g>
<!-- dir_b03b27ba81a49fd6f9c9588f67883179&#45;&gt;dir_39413a3592d49ba1372e049fbfe3e31f -->
<g id="edge9" class="edge">
<title>dir_b03b27ba81a49fd6f9c9588f67883179&#45;&gt;dir_39413a3592d49ba1372e049fbfe3e31f</title>
<path fill="none" stroke="black" d="M77.95,-287.85C79.79,-277.49 82.08,-264.01 83.81,-252 90.54,-205.2 96.62,-150.48 100,-118.4"/>
<polygon fill="black" stroke="black" points="103.48,-118.74 101.04,-108.43 96.52,-118.01 103.48,-118.74"/>
<g id="a_edge9&#45;headlabel"><a xlink:href="dir_000009_000010.html" target="_top" xlink:title="4">
<text text-anchor="middle" x="105.94" y="-120.11" font-family="Helvetica,sans-Serif" font-size="10.00">4</text>
</a>
</g>
</g>
<!-- dir_7a1ab5031ed028ea4c059c711d14cf0d&#45;&gt;dir_9969c29766c3ca5ea49aac3cac97384d -->
<g id="edge1" class="edge">
<title>dir_7a1ab5031ed028ea4c059c711d14cf0d&#45;&gt;dir_9969c29766c3ca5ea49aac3cac97384d</title>
<path fill="none" stroke="black" d="M74.85,-219.67C95.03,-209.72 123.01,-195.93 146.31,-184.44"/>
<polygon fill="black" stroke="black" points="147.89,-187.56 155.32,-180 144.8,-181.28 147.89,-187.56"/>
<g id="a_edge1&#45;headlabel"><a xlink:href="dir_000007_000012.html" target="_top" xlink:title="1">
<text text-anchor="middle" x="145.93" y="-189.2" font-family="Helvetica,sans-Serif" font-size="10.00">1</text>
</a>
</g>
</g>
<!-- dir_7a1ab5031ed028ea4c059c711d14cf0d&#45;&gt;dir_d44c64559bbebec7f509842c48db8b23 -->
<g id="edge2" class="edge">
<title>dir_7a1ab5031ed028ea4c059c711d14cf0d&#45;&gt;dir_d44c64559bbebec7f509842c48db8b23</title>
<path fill="none" stroke="black" d="M46.09,-215.95C43.49,-186.41 39.68,-123.92 47.81,-72 49.17,-63.31 51.71,-54.1 54.42,-45.84"/>
<polygon fill="black" stroke="black" points="57.75,-46.93 57.74,-36.33 51.14,-44.62 57.75,-46.93"/>
<g id="a_edge2&#45;headlabel"><a xlink:href="dir_000007_000002.html" target="_top" xlink:title="2">
<text text-anchor="middle" x="59.24" y="-48.76" font-family="Helvetica,sans-Serif" font-size="10.00">2</text>
</a>
</g>
</g>
<!-- dir_7a1ab5031ed028ea4c059c711d14cf0d&#45;&gt;dir_39413a3592d49ba1372e049fbfe3e31f -->
<g id="edge3" class="edge">
<title>dir_7a1ab5031ed028ea4c059c711d14cf0d&#45;&gt;dir_39413a3592d49ba1372e049fbfe3e31f</title>
<path fill="none" stroke="black" d="M54.44,-215.87C63.9,-191.46 81.34,-146.43 92.49,-117.64"/>
<polygon fill="black" stroke="black" points="95.8,-118.78 96.15,-108.19 89.27,-116.25 95.8,-118.78"/>
<g id="a_edge3&#45;headlabel"><a xlink:href="dir_000007_000010.html" target="_top" xlink:title="4">
<text text-anchor="middle" x="97.15" y="-120.66" font-family="Helvetica,sans-Serif" font-size="10.00">4</text>
</a>
</g>
</g>
<!-- dir_9969c29766c3ca5ea49aac3cac97384d&#45;&gt;dir_d44c64559bbebec7f509842c48db8b23 -->
<g id="edge4" class="edge">
<title>dir_9969c29766c3ca5ea49aac3cac97384d&#45;&gt;dir_d44c64559bbebec7f509842c48db8b23</title>
<path fill="none" stroke="black" d="M187.29,-143.82C183.69,-124.47 175.45,-92.99 157.81,-72 142.87,-54.23 120.37,-41.19 101.25,-32.48"/>
<polygon fill="black" stroke="black" points="102.46,-29.2 91.89,-28.44 99.68,-35.62 102.46,-29.2"/>
<g id="a_edge4&#45;headlabel"><a xlink:href="dir_000012_000002.html" target="_top" xlink:title="15">
<text text-anchor="middle" x="106.89" y="-25.51" font-family="Helvetica,sans-Serif" font-size="10.00">15</text>
</a>
</g>
</g>
<!-- dir_9969c29766c3ca5ea49aac3cac97384d&#45;&gt;dir_39413a3592d49ba1372e049fbfe3e31f -->
<g id="edge5" class="edge">
<title>dir_9969c29766c3ca5ea49aac3cac97384d&#45;&gt;dir_39413a3592d49ba1372e049fbfe3e31f</title>
<path fill="none" stroke="black" d="M162.39,-143.7C150.63,-134.97 137.13,-124.24 125.89,-114.75"/>
<polygon fill="black" stroke="black" points="128.03,-111.97 118.17,-108.1 123.47,-117.28 128.03,-111.97"/>
<g id="a_edge5&#45;headlabel"><a xlink:href="dir_000012_000010.html" target="_top" xlink:title="43">
<text text-anchor="middle" x="132.61" y="-109.66" font-family="Helvetica,sans-Serif" font-size="10.00">43</text>
</a>
</g>
</g>
<!-- dir_39413a3592d49ba1372e049fbfe3e31f&#45;&gt;dir_9969c29766c3ca5ea49aac3cac97384d -->
<g id="edge10" class="edge">
<title>dir_39413a3592d49ba1372e049fbfe3e31f&#45;&gt;dir_9969c29766c3ca5ea49aac3cac97384d</title>
<path fill="none" stroke="black" d="M129.96,-108.1C141.69,-116.8 155.19,-127.52 166.46,-137.03"/>
<polygon fill="black" stroke="black" points="164.35,-139.83 174.22,-143.7 168.91,-134.52 164.35,-139.83"/>
<g id="a_edge10&#45;headlabel"><a xlink:href="dir_000010_000012.html" target="_top" xlink:title="1">
<text text-anchor="middle" x="159.77" y="-137.14" font-family="Helvetica,sans-Serif" font-size="10.00">1</text>
</a>
</g>
</g>
<!-- dir_39413a3592d49ba1372e049fbfe3e31f&#45;&gt;dir_d44c64559bbebec7f509842c48db8b23 -->
<g id="edge11" class="edge">
<title>dir_39413a3592d49ba1372e049fbfe3e31f&#45;&gt;dir_d44c64559bbebec7f509842c48db8b23</title>
<path fill="none" stroke="black" d="M93.41,-71.7C89.04,-63.64 83.75,-53.89 78.91,-44.98"/>
<polygon fill="black" stroke="black" points="81.94,-43.22 74.09,-36.1 75.79,-46.56 81.94,-43.22"/>
<g id="a_edge11&#45;headlabel"><a xlink:href="dir_000010_000002.html" target="_top" xlink:title="1">
<text text-anchor="middle" x="86.15" y="-42.53" font-family="Helvetica,sans-Serif" font-size="10.00">1</text>
</a>
</g>
</g>
</g>
</svg>
