<?xml version="1.0" encoding="UTF-8" standalone="no"?>
<!DOCTYPE svg PUBLIC "-//W3C//DTD SVG 1.1//EN"
 "http://www.w3.org/Graphics/SVG/1.1/DTD/svg11.dtd">
<!-- Generated by graphviz version 3.0.0 (20220413.0106)
 -->
<!-- Title: modules/core/MarmotFiniteElementCore/src Pages: 1 -->
<svg width="381pt" height="167pt"
 viewBox="0.00 0.00 380.50 167.00" xmlns="http://www.w3.org/2000/svg" xmlns:xlink="http://www.w3.org/1999/xlink">
<g id="graph0" class="graph" transform="scale(1 1) rotate(0) translate(4 163)">
<title>modules/core/MarmotFiniteElementCore/src</title>
<polygon fill="white" stroke="transparent" points="-4,4 -4,-163 376.5,-163 376.5,4 -4,4"/>
<g id="clust1" class="cluster">
<title>clusterdir_a6282ced73efdb7b36cfc8bdf7a60b20</title>
<g id="a_clust1"><a xlink:href="dir_a6282ced73efdb7b36cfc8bdf7a60b20.html" target="_top" xlink:title="MarmotFiniteElementCore">
<polygon fill="#cbdbe8" stroke="#7f7f7f" stroke-dasharray="5,2" points="8,-8 8,-151 137,-151 137,-8 8,-8"/>
<text text-anchor="middle" x="72.5" y="-139" font-family="Helvetica,sans-Serif" font-size="10.00">MarmotFiniteElementCore</text>
</a>
</g>
</g>
<!-- dir_7a1ab5031ed028ea4c059c711d14cf0d -->
<g id="node1" class="node">
<title>dir_7a1ab5031ed028ea4c059c711d14cf0d</title>
<g id="a_node1"><a xlink:href="dir_7a1ab5031ed028ea4c059c711d14cf0d.html" target="_top" xlink:title="include">
<polygon fill="#3e6a8f" stroke="red" points="127,-52 73,-52 73,-16 127,-16 127,-52"/>
<text text-anchor="middle" x="100" y="-31.5" font-family="Helvetica,sans-Serif" font-size="10.00">include</text>
</a>
</g>
</g>
<!-- dir_b03b27ba81a49fd6f9c9588f67883179 -->
<g id="node2" class="node">
<title>dir_b03b27ba81a49fd6f9c9588f67883179</title>
<g id="a_node2"><a xlink:href="dir_b03b27ba81a49fd6f9c9588f67883179.html" target="_top" xlink:title="src">
<polygon fill="#cbdbe8" stroke="#404040" stroke-width="2" points="129,-124 75,-124 75,-88 129,-88 129,-124"/>
<text text-anchor="middle" x="102" y="-103.5" font-family="Helvetica,sans-Serif" font-size="10.00">src</text>
</a>
</g>
</g>
<!-- dir_b03b27ba81a49fd6f9c9588f67883179&#45;&gt;dir_7a1ab5031ed028ea4c059c711d14cf0d -->
<g id="edge2" class="edge">
<title>dir_b03b27ba81a49fd6f9c9588f67883179&#45;&gt;dir_7a1ab5031ed028ea4c059c711d14cf0d</title>
<path fill="none" stroke="black" d="M101.51,-87.7C101.29,-79.98 101.02,-70.71 100.77,-62.11"/>
<polygon fill="black" stroke="black" points="104.27,-62 100.49,-52.1 97.28,-62.2 104.27,-62"/>
<g id="a_edge2&#45;headlabel"><a xlink:href="dir_000026_000008.html" target="_top" xlink:title="8">
<text text-anchor="middle" x="107.21" y="-63.01" font-family="Helvetica,sans-Serif" font-size="10.00">8</text>
</a>
</g>
</g>
<!-- dir_39413a3592d49ba1372e049fbfe3e31f -->
<g id="node3" class="node">
<title>dir_39413a3592d49ba1372e049fbfe3e31f</title>
<g id="a_node3"><a xlink:href="dir_39413a3592d49ba1372e049fbfe3e31f.html" target="_top" xlink:title="MarmotMathCore">
<polygon fill="none" stroke="red" stroke-dasharray="5,2" points="237,-52 145,-52 145,-16 237,-16 237,-52"/>
<text text-anchor="middle" x="191" y="-31.5" font-family="Helvetica,sans-Serif" font-size="10.00">MarmotMathCore</text>
</a>
</g>
</g>
<!-- dir_b03b27ba81a49fd6f9c9588f67883179&#45;&gt;dir_39413a3592d49ba1372e049fbfe3e31f -->
<g id="edge1" class="edge">
<title>dir_b03b27ba81a49fd6f9c9588f67883179&#45;&gt;dir_39413a3592d49ba1372e049fbfe3e31f</title>
<path fill="none" stroke="black" d="M124,-87.7C135.21,-78.88 149,-68.03 161.15,-58.47"/>
<polygon fill="black" stroke="black" points="163.56,-61.04 169.25,-52.1 159.23,-55.54 163.56,-61.04"/>
<g id="a_edge1&#45;headlabel"><a xlink:href="dir_000026_000022.html" target="_top" xlink:title="4">
<text text-anchor="middle" x="162.49" y="-62.99" font-family="Helvetica,sans-Serif" font-size="10.00">4</text>
</a>
</g>
</g>
<!-- dir_9969c29766c3ca5ea49aac3cac97384d -->
<g id="node4" class="node">
<title>dir_9969c29766c3ca5ea49aac3cac97384d</title>
<g id="a_node4"><a xlink:href="dir_9969c29766c3ca5ea49aac3cac97384d.html" target="_top" xlink:title="MarmotMechanicsCore">
<polygon fill="none" stroke="red" stroke-dasharray="5,2" points="372.5,-52 255.5,-52 255.5,-16 372.5,-16 372.5,-52"/>
<text text-anchor="middle" x="314" y="-31.5" font-family="Helvetica,sans-Serif" font-size="10.00">MarmotMechanicsCore</text>
</a>
</g>
</g>
<!-- dir_b03b27ba81a49fd6f9c9588f67883179&#45;&gt;dir_9969c29766c3ca5ea49aac3cac97384d -->
<g id="edge3" class="edge">
<title>dir_b03b27ba81a49fd6f9c9588f67883179&#45;&gt;dir_9969c29766c3ca5ea49aac3cac97384d</title>
<path fill="none" stroke="black" d="M129.28,-95.99C160.34,-85.74 212.06,-68.66 252.88,-55.18"/>
<polygon fill="black" stroke="black" points="254.08,-58.47 262.47,-52.01 251.88,-51.83 254.08,-58.47"/>
<g id="a_edge3&#45;headlabel"><a xlink:href="dir_000026_000023.html" target="_top" xlink:title="1">
<text text-anchor="middle" x="251.55" y="-59.8" font-family="Helvetica,sans-Serif" font-size="10.00">1</text>
</a>
</g>
</g>
</g>
</svg>
