<?xml version="1.0" encoding="UTF-8" standalone="no"?>
<!DOCTYPE svg PUBLIC "-//W3C//DTD SVG 1.1//EN"
 "http://www.w3.org/Graphics/SVG/1.1/DTD/svg11.dtd">
<!-- Generated by graphviz version 2.44.0 ()
 -->
<!-- Title: modules/core/MarmotMechanicsCore/include/Marmot Pages: 1 -->
<svg width="134pt" height="223pt"
 viewBox="0.00 0.00 134.00 223.00" xmlns="http://www.w3.org/2000/svg" xmlns:xlink="http://www.w3.org/1999/xlink">
<g id="graph0" class="graph" transform="scale(1 1) rotate(0) translate(4 219)">
<title>modules/core/MarmotMechanicsCore/include/Marmot</title>
<polygon fill="white" stroke="transparent" points="-4,4 -4,-219 130,-219 130,4 -4,4"/>
<g id="clust1" class="cluster">
<title>clusterdir_7d9e0bddc3df5047c06a16b0d057f1c8</title>
<g id="a_clust1"><a xlink:href="dir_7d9e0bddc3df5047c06a16b0d057f1c8.html" target="_top" xlink:title="include">
<polygon fill="#ddddee" stroke="black" points="8,-136 8,-207 78,-207 78,-136 8,-136"/>
<text text-anchor="middle" x="43" y="-195" font-family="Helvetica,sans-Serif" font-size="10.00">include</text>
</a>
</g>
</g>
<!-- dir_d0d496183679f761e8bac416323bbe4d -->
<g id="node1" class="node">
<title>dir_d0d496183679f761e8bac416323bbe4d</title>
<g id="a_node1"><a xlink:href="dir_d0d496183679f761e8bac416323bbe4d.html" target="_top" xlink:title="Marmot">
<polygon fill="#eeeeff" stroke="black" points="70,-180 16,-180 16,-144 70,-144 70,-180"/>
<text text-anchor="middle" x="43" y="-159.5" font-family="Helvetica,sans-Serif" font-size="10.00">Marmot</text>
</a>
</g>
</g>
<!-- dir_d44c64559bbebec7f509842c48db8b23 -->
<g id="node2" class="node">
<title>dir_d44c64559bbebec7f509842c48db8b23</title>
<g id="a_node2"><a xlink:href="dir_d44c64559bbebec7f509842c48db8b23.html" target="_top" xlink:title="include">
<polygon fill="white" stroke="red" points="70,-36 16,-36 16,0 70,0 70,-36"/>
<text text-anchor="middle" x="43" y="-15.5" font-family="Helvetica,sans-Serif" font-size="10.00">include</text>
</a>
</g>
</g>
<!-- dir_d0d496183679f761e8bac416323bbe4d&#45;&gt;dir_d44c64559bbebec7f509842c48db8b23 -->
<g id="edge1" class="edge">
<title>dir_d0d496183679f761e8bac416323bbe4d&#45;&gt;dir_d44c64559bbebec7f509842c48db8b23</title>
<path fill="none" stroke="black" d="M35.52,-143.7C31.53,-133.52 27.03,-120.27 25,-108 22.39,-92.21 22.39,-87.79 25,-72 26.44,-63.28 29.13,-54.06 32,-45.8"/>
<polygon fill="black" stroke="black" points="35.33,-46.89 35.52,-36.3 28.77,-44.46 35.33,-46.89"/>
<g id="a_edge1&#45;headlabel"><a xlink:href="dir_000021_000002.html" target="_top" xlink:title="10">
<text text-anchor="middle" x="36.74" y="-48.75" font-family="Helvetica,sans-Serif" font-size="10.00">10</text>
</a>
</g>
</g>
<!-- dir_39413a3592d49ba1372e049fbfe3e31f -->
<g id="node3" class="node">
<title>dir_39413a3592d49ba1372e049fbfe3e31f</title>
<g id="a_node3"><a xlink:href="dir_39413a3592d49ba1372e049fbfe3e31f.html" target="_top" xlink:title="MarmotMathCore">
<polygon fill="white" stroke="red" points="126,-108 34,-108 34,-72 126,-72 126,-108"/>
<text text-anchor="middle" x="80" y="-87.5" font-family="Helvetica,sans-Serif" font-size="10.00">MarmotMathCore</text>
</a>
</g>
</g>
<!-- dir_d0d496183679f761e8bac416323bbe4d&#45;&gt;dir_39413a3592d49ba1372e049fbfe3e31f -->
<g id="edge2" class="edge">
<title>dir_d0d496183679f761e8bac416323bbe4d&#45;&gt;dir_39413a3592d49ba1372e049fbfe3e31f</title>
<path fill="none" stroke="black" d="M52.15,-143.7C56.4,-135.64 61.56,-125.89 66.27,-116.98"/>
<polygon fill="black" stroke="black" points="69.38,-118.58 70.96,-108.1 63.19,-115.31 69.38,-118.58"/>
<g id="a_edge2&#45;headlabel"><a xlink:href="dir_000021_000010.html" target="_top" xlink:title="16">
<text text-anchor="middle" x="70.21" y="-120.59" font-family="Helvetica,sans-Serif" font-size="10.00">16</text>
</a>
</g>
</g>
<!-- dir_39413a3592d49ba1372e049fbfe3e31f&#45;&gt;dir_d44c64559bbebec7f509842c48db8b23 -->
<g id="edge3" class="edge">
<title>dir_39413a3592d49ba1372e049fbfe3e31f&#45;&gt;dir_d44c64559bbebec7f509842c48db8b23</title>
<path fill="none" stroke="black" d="M70.85,-71.7C66.6,-63.64 61.44,-53.89 56.73,-44.98"/>
<polygon fill="black" stroke="black" points="59.81,-43.31 52.04,-36.1 53.62,-46.58 59.81,-43.31"/>
<g id="a_edge3&#45;headlabel"><a xlink:href="dir_000010_000002.html" target="_top" xlink:title="1">
<text text-anchor="middle" x="64" y="-42.66" font-family="Helvetica,sans-Serif" font-size="10.00">1</text>
</a>
</g>
</g>
</g>
</svg>
