<?xml version="1.0" encoding="UTF-8" standalone="no"?>
<!DOCTYPE svg PUBLIC "-//W3C//DTD SVG 1.1//EN"
 "http://www.w3.org/Graphics/SVG/1.1/DTD/svg11.dtd">
<!-- Generated by graphviz version 2.46.1 (20210215.1649)
 -->
<!-- Title: modules/materials/LinearElastic Pages: 1 -->
<svg width="274pt" height="303pt"
 viewBox="0.00 0.00 274.00 303.00" xmlns="http://www.w3.org/2000/svg" xmlns:xlink="http://www.w3.org/1999/xlink">
<g id="graph0" class="graph" transform="scale(1 1) rotate(0) translate(4 299)">
<title>modules/materials/LinearElastic</title>
<polygon fill="white" stroke="transparent" points="-4,4 -4,-299 270,-299 270,4 -4,4"/>
<g id="clust1" class="cluster">
<title>clusterdir_a55c496f430aa4275197c786dabe211f</title>
<g id="a_clust1"><a xlink:href="dir_a55c496f430aa4275197c786dabe211f.html" target="_top" xlink:title="materials">
<polygon fill="#ddddee" stroke="black" points="8,-128 8,-287 258,-287 258,-128 8,-128"/>
<text text-anchor="middle" x="133" y="-275" font-family="Helvetica,sans-Serif" font-size="10.00">materials</text>
</a>
</g>
</g>
<g id="clust2" class="cluster">
<title>clusterdir_d7d0bb0bcbd88dad2113f443530919ad</title>
<g id="a_clust2"><a xlink:href="dir_d7d0bb0bcbd88dad2113f443530919ad.html" target="_top">
<polygon fill="#eeeeff" stroke="black" points="16,-136 16,-260 250,-260 250,-136 16,-136"/>
</a>
</g>
</g>
<!-- dir_d7d0bb0bcbd88dad2113f443530919ad -->
<g id="node1" class="node">
<title>dir_d7d0bb0bcbd88dad2113f443530919ad</title>
<text text-anchor="middle" x="205" y="-231.5" font-family="Helvetica,sans-Serif" font-size="10.00">LinearElastic</text>
</g>
<!-- dir_d2c041fb6dd0331839de628ce6b785f5 -->
<g id="node2" class="node">
<title>dir_d2c041fb6dd0331839de628ce6b785f5</title>
<g id="a_node2"><a xlink:href="dir_d2c041fb6dd0331839de628ce6b785f5.html" target="_top" xlink:title="doc">
<polygon fill="white" stroke="black" points="150,-252 96,-252 96,-216 150,-216 150,-252"/>
<text text-anchor="middle" x="123" y="-231.5" font-family="Helvetica,sans-Serif" font-size="10.00">doc</text>
</a>
</g>
</g>
<!-- dir_4ad232a7e12cdd3f2d4a36a5c765228e -->
<g id="node3" class="node">
<title>dir_4ad232a7e12cdd3f2d4a36a5c765228e</title>
<g id="a_node3"><a xlink:href="dir_4ad232a7e12cdd3f2d4a36a5c765228e.html" target="_top" xlink:title="include">
<polygon fill="white" stroke="red" points="78,-180 24,-180 24,-144 78,-144 78,-180"/>
<text text-anchor="middle" x="51" y="-159.5" font-family="Helvetica,sans-Serif" font-size="10.00">include</text>
</a>
</g>
</g>
<!-- dir_6d4da112a1331882b0b6514a341190a0 -->
<g id="node5" class="node">
<title>dir_6d4da112a1331882b0b6514a341190a0</title>
<g id="a_node5"><a xlink:href="dir_6d4da112a1331882b0b6514a341190a0.html" target="_top" xlink:title="core">
<polygon fill="white" stroke="red" points="116,-108 62,-108 62,-72 116,-72 116,-108"/>
<text text-anchor="middle" x="89" y="-87.5" font-family="Helvetica,sans-Serif" font-size="10.00">core</text>
</a>
</g>
</g>
<!-- dir_4ad232a7e12cdd3f2d4a36a5c765228e&#45;&gt;dir_6d4da112a1331882b0b6514a341190a0 -->
<g id="edge5" class="edge">
<title>dir_4ad232a7e12cdd3f2d4a36a5c765228e&#45;&gt;dir_6d4da112a1331882b0b6514a341190a0</title>
<path fill="none" stroke="black" d="M60.39,-143.7C64.76,-135.64 70.06,-125.89 74.9,-116.98"/>
<polygon fill="black" stroke="black" points="78.02,-118.56 79.71,-108.1 71.87,-115.22 78.02,-118.56"/>
<g id="a_edge5&#45;headlabel"><a xlink:href="dir_000015_000005.html" target="_top" xlink:title="2">
<text text-anchor="middle" x="78.8" y="-120.58" font-family="Helvetica,sans-Serif" font-size="10.00">2</text>
</a>
</g>
</g>
<!-- dir_0e161d7bce32a8af2535eaa8e1c4d8c9 -->
<g id="node4" class="node">
<title>dir_0e161d7bce32a8af2535eaa8e1c4d8c9</title>
<g id="a_node4"><a xlink:href="dir_0e161d7bce32a8af2535eaa8e1c4d8c9.html" target="_top" xlink:title="src">
<polygon fill="white" stroke="black" points="78,-252 24,-252 24,-216 78,-216 78,-252"/>
<text text-anchor="middle" x="51" y="-231.5" font-family="Helvetica,sans-Serif" font-size="10.00">src</text>
</a>
</g>
</g>
<!-- dir_0e161d7bce32a8af2535eaa8e1c4d8c9&#45;&gt;dir_4ad232a7e12cdd3f2d4a36a5c765228e -->
<g id="edge2" class="edge">
<title>dir_0e161d7bce32a8af2535eaa8e1c4d8c9&#45;&gt;dir_4ad232a7e12cdd3f2d4a36a5c765228e</title>
<path fill="none" stroke="black" d="M51,-215.7C51,-207.98 51,-198.71 51,-190.11"/>
<polygon fill="black" stroke="black" points="54.5,-190.1 51,-180.1 47.5,-190.1 54.5,-190.1"/>
<g id="a_edge2&#45;headlabel"><a xlink:href="dir_000017_000015.html" target="_top" xlink:title="2">
<text text-anchor="middle" x="57.34" y="-191.2" font-family="Helvetica,sans-Serif" font-size="10.00">2</text>
</a>
</g>
</g>
<!-- dir_0e161d7bce32a8af2535eaa8e1c4d8c9&#45;&gt;dir_6d4da112a1331882b0b6514a341190a0 -->
<g id="edge3" class="edge">
<title>dir_0e161d7bce32a8af2535eaa8e1c4d8c9&#45;&gt;dir_6d4da112a1331882b0b6514a341190a0</title>
<path fill="none" stroke="black" d="M66.49,-215.74C74.22,-205.98 82.8,-193.14 87,-180 93.39,-160.04 93.57,-136.25 92.33,-118.29"/>
<polygon fill="black" stroke="black" points="95.8,-117.86 91.44,-108.2 88.83,-118.47 95.8,-117.86"/>
<g id="a_edge3&#45;headlabel"><a xlink:href="dir_000017_000005.html" target="_top" xlink:title="5">
<text text-anchor="middle" x="98.94" y="-118.69" font-family="Helvetica,sans-Serif" font-size="10.00">5</text>
</a>
</g>
</g>
<!-- dir_d44c64559bbebec7f509842c48db8b23 -->
<g id="node6" class="node">
<title>dir_d44c64559bbebec7f509842c48db8b23</title>
<g id="a_node6"><a xlink:href="dir_d44c64559bbebec7f509842c48db8b23.html" target="_top" xlink:title="include">
<polygon fill="white" stroke="red" points="143,-36 89,-36 89,0 143,0 143,-36"/>
<text text-anchor="middle" x="116" y="-15.5" font-family="Helvetica,sans-Serif" font-size="10.00">include</text>
</a>
</g>
</g>
<!-- dir_0e161d7bce32a8af2535eaa8e1c4d8c9&#45;&gt;dir_d44c64559bbebec7f509842c48db8b23 -->
<g id="edge4" class="edge">
<title>dir_0e161d7bce32a8af2535eaa8e1c4d8c9&#45;&gt;dir_d44c64559bbebec7f509842c48db8b23</title>
<path fill="none" stroke="black" d="M71.96,-215.98C82.58,-206.4 94.9,-193.63 103,-180 128.03,-137.89 129.12,-120.81 125,-72 124.28,-63.5 122.93,-54.31 121.49,-46.01"/>
<polygon fill="black" stroke="black" points="124.91,-45.29 119.65,-36.09 118.03,-46.56 124.91,-45.29"/>
<g id="a_edge4&#45;headlabel"><a xlink:href="dir_000017_000002.html" target="_top" xlink:title="2">
<text text-anchor="middle" x="128.36" y="-45.81" font-family="Helvetica,sans-Serif" font-size="10.00">2</text>
</a>
</g>
</g>
<!-- dir_6d4da112a1331882b0b6514a341190a0&#45;&gt;dir_d44c64559bbebec7f509842c48db8b23 -->
<g id="edge1" class="edge">
<title>dir_6d4da112a1331882b0b6514a341190a0&#45;&gt;dir_d44c64559bbebec7f509842c48db8b23</title>
<path fill="none" stroke="black" d="M95.67,-71.7C98.71,-63.81 102.38,-54.3 105.76,-45.55"/>
<polygon fill="black" stroke="black" points="109.07,-46.69 109.4,-36.1 102.54,-44.17 109.07,-46.69"/>
<g id="a_edge1&#45;headlabel"><a xlink:href="dir_000005_000002.html" target="_top" xlink:title="15">
<text text-anchor="middle" x="110.42" y="-48.57" font-family="Helvetica,sans-Serif" font-size="10.00">15</text>
</a>
</g>
</g>
</g>
</svg>
