<?xml version="1.0" encoding="UTF-8" standalone="no"?>
<!DOCTYPE svg PUBLIC "-//W3C//DTD SVG 1.1//EN"
 "http://www.w3.org/Graphics/SVG/1.1/DTD/svg11.dtd">
<!-- Generated by graphviz version 3.0.0 (20220413.0106)
 -->
<!-- Title: modules/core/MarmotFiniteElementCore/src Pages: 1 -->
<svg width="272pt" height="167pt"
 viewBox="0.00 0.00 271.50 167.00" xmlns="http://www.w3.org/2000/svg" xmlns:xlink="http://www.w3.org/1999/xlink">
<g id="graph0" class="graph" transform="scale(1 1) rotate(0) translate(4 163)">
<title>modules/core/MarmotFiniteElementCore/src</title>
<polygon fill="white" stroke="transparent" points="-4,4 -4,-163 267.5,-163 267.5,4 -4,4"/>
<g id="clust1" class="cluster">
<title>clusterdir_a6282ced73efdb7b36cfc8bdf7a60b20</title>
<g id="a_clust1"><a xlink:href="dir_a6282ced73efdb7b36cfc8bdf7a60b20.html" target="_top" xlink:title="MarmotFiniteElementCore">
<polygon fill="#cbdbe8" stroke="#7f7f7f" stroke-dasharray="5,2" points="8,-8 8,-151 137,-151 137,-8 8,-8"/>
<text text-anchor="middle" x="72.5" y="-139" font-family="Helvetica,sans-Serif" font-size="10.00">MarmotFiniteElementCore</text>
</a>
</g>
</g>
<!-- dir_7a1ab5031ed028ea4c059c711d14cf0d -->
<g id="node1" class="node">
<title>dir_7a1ab5031ed028ea4c059c711d14cf0d</title>
<g id="a_node1"><a xlink:href="dir_7a1ab5031ed028ea4c059c711d14cf0d.html" target="_top" xlink:title="include">
<polygon fill="#3e6a8f" stroke="red" points="128,-52 74,-52 74,-16 128,-16 128,-52"/>
<text text-anchor="middle" x="101" y="-31.5" font-family="Helvetica,sans-Serif" font-size="10.00">include</text>
</a>
</g>
</g>
<!-- dir_b03b27ba81a49fd6f9c9588f67883179 -->
<g id="node2" class="node">
<title>dir_b03b27ba81a49fd6f9c9588f67883179</title>
<g id="a_node2"><a xlink:href="dir_b03b27ba81a49fd6f9c9588f67883179.html" target="_top" xlink:title="src">
<polygon fill="#cbdbe8" stroke="#404040" stroke-width="2" points="128,-124 74,-124 74,-88 128,-88 128,-124"/>
<text text-anchor="middle" x="101" y="-103.5" font-family="Helvetica,sans-Serif" font-size="10.00">src</text>
</a>
</g>
</g>
<!-- dir_b03b27ba81a49fd6f9c9588f67883179&#45;&gt;dir_7a1ab5031ed028ea4c059c711d14cf0d -->
<g id="edge1" class="edge">
<title>dir_b03b27ba81a49fd6f9c9588f67883179&#45;&gt;dir_7a1ab5031ed028ea4c059c711d14cf0d</title>
<path fill="none" stroke="black" d="M101,-87.7C101,-79.98 101,-70.71 101,-62.11"/>
<polygon fill="black" stroke="black" points="104.5,-62.1 101,-52.1 97.5,-62.1 104.5,-62.1"/>
<g id="a_edge1&#45;headlabel"><a xlink:href="dir_000026_000008.html" target="_top" xlink:title="8">
<text text-anchor="middle" x="107.34" y="-63.2" font-family="Helvetica,sans-Serif" font-size="10.00">8</text>
</a>
</g>
</g>
<!-- dir_9969c29766c3ca5ea49aac3cac97384d -->
<g id="node3" class="node">
<title>dir_9969c29766c3ca5ea49aac3cac97384d</title>
<g id="a_node3"><a xlink:href="dir_9969c29766c3ca5ea49aac3cac97384d.html" target="_top" xlink:title="MarmotMechanicsCore">
<polygon fill="none" stroke="red" stroke-dasharray="5,2" points="263.5,-52 146.5,-52 146.5,-16 263.5,-16 263.5,-52"/>
<text text-anchor="middle" x="205" y="-31.5" font-family="Helvetica,sans-Serif" font-size="10.00">MarmotMechanicsCore</text>
</a>
</g>
</g>
<!-- dir_b03b27ba81a49fd6f9c9588f67883179&#45;&gt;dir_9969c29766c3ca5ea49aac3cac97384d -->
<g id="edge2" class="edge">
<title>dir_b03b27ba81a49fd6f9c9588f67883179&#45;&gt;dir_9969c29766c3ca5ea49aac3cac97384d</title>
<path fill="none" stroke="black" d="M126.44,-87.88C139.79,-78.89 156.32,-67.76 170.78,-58.03"/>
<polygon fill="black" stroke="black" points="173.12,-60.68 179.46,-52.19 169.21,-54.87 173.12,-60.68"/>
<g id="a_edge2&#45;headlabel"><a xlink:href="dir_000026_000023.html" target="_top" xlink:title="1">
<text text-anchor="middle" x="171.72" y="-62.54" font-family="Helvetica,sans-Serif" font-size="10.00">1</text>
</a>
</g>
</g>
</g>
</svg>
