<?xml version="1.0" encoding="UTF-8" standalone="no"?>
<!DOCTYPE svg PUBLIC "-//W3C//DTD SVG 1.1//EN"
 "http://www.w3.org/Graphics/SVG/1.1/DTD/svg11.dtd">
<!-- Generated by graphviz version 3.0.0 (20220413.0106)
 -->
<!-- Title: modules/materials/LinearElastic Pages: 1 -->
<svg width="328pt" height="231pt"
 viewBox="0.00 0.00 328.00 231.00" xmlns="http://www.w3.org/2000/svg" xmlns:xlink="http://www.w3.org/1999/xlink">
<g id="graph0" class="graph" transform="scale(1 1) rotate(0) translate(4 227)">
<title>modules/materials/LinearElastic</title>
<polygon fill="white" stroke="transparent" points="-4,4 -4,-227 324,-227 324,4 -4,4"/>
<g id="clust1" class="cluster">
<title>clusterdir_a55c496f430aa4275197c786dabe211f</title>
<g id="a_clust1"><a xlink:href="dir_a55c496f430aa4275197c786dabe211f.html" target="_top" xlink:title="materials">
<polygon fill="#cfe2ff" stroke="#7f7f7f" stroke-dasharray="5,2" points="8,-56 8,-215 258,-215 258,-56 8,-56"/>
<text text-anchor="middle" x="133" y="-203" font-family="Helvetica,sans-Serif" font-size="10.00">materials</text>
</a>
</g>
</g>
<g id="clust2" class="cluster">
<title>clusterdir_d7d0bb0bcbd88dad2113f443530919ad</title>
<g id="a_clust2"><a xlink:href="dir_d7d0bb0bcbd88dad2113f443530919ad.html" target="_top">
<polygon fill="#cfe2ff" stroke="#404040" stroke-width="2" points="16,-64 16,-188 250,-188 250,-64 16,-64"/>
</a>
</g>
</g>
<!-- dir_d7d0bb0bcbd88dad2113f443530919ad -->
<g id="node1" class="node">
<title>dir_d7d0bb0bcbd88dad2113f443530919ad</title>
<text text-anchor="middle" x="205" y="-159.5" font-family="Helvetica,sans-Serif" font-size="10.00">LinearElastic</text>
</g>
<!-- dir_d2c041fb6dd0331839de628ce6b785f5 -->
<g id="node2" class="node">
<title>dir_d2c041fb6dd0331839de628ce6b785f5</title>
<g id="a_node2"><a xlink:href="dir_d2c041fb6dd0331839de628ce6b785f5.html" target="_top" xlink:title="doc">
<polygon fill="#227aff" stroke="#404040" points="150,-180 96,-180 96,-144 150,-144 150,-180"/>
<text text-anchor="middle" x="123" y="-159.5" font-family="Helvetica,sans-Serif" font-size="10.00">doc</text>
</a>
</g>
</g>
<!-- dir_4ad232a7e12cdd3f2d4a36a5c765228e -->
<g id="node3" class="node">
<title>dir_4ad232a7e12cdd3f2d4a36a5c765228e</title>
<g id="a_node3"><a xlink:href="dir_4ad232a7e12cdd3f2d4a36a5c765228e.html" target="_top" xlink:title="include">
<polygon fill="#227aff" stroke="#404040" points="78,-108 24,-108 24,-72 78,-72 78,-108"/>
<text text-anchor="middle" x="51" y="-87.5" font-family="Helvetica,sans-Serif" font-size="10.00">include</text>
</a>
</g>
</g>
<!-- dir_6d4da112a1331882b0b6514a341190a0 -->
<g id="node5" class="node">
<title>dir_6d4da112a1331882b0b6514a341190a0</title>
<g id="a_node5"><a xlink:href="dir_6d4da112a1331882b0b6514a341190a0.html" target="_top" xlink:title="core">
<polygon fill="none" stroke="red" stroke-dasharray="5,2" points="105,-36 51,-36 51,0 105,0 105,-36"/>
<text text-anchor="middle" x="78" y="-15.5" font-family="Helvetica,sans-Serif" font-size="10.00">core</text>
</a>
</g>
</g>
<!-- dir_4ad232a7e12cdd3f2d4a36a5c765228e&#45;&gt;dir_6d4da112a1331882b0b6514a341190a0 -->
<g id="edge1" class="edge">
<title>dir_4ad232a7e12cdd3f2d4a36a5c765228e&#45;&gt;dir_6d4da112a1331882b0b6514a341190a0</title>
<path fill="none" stroke="black" d="M57.67,-71.7C60.71,-63.81 64.38,-54.3 67.76,-45.55"/>
<polygon fill="black" stroke="black" points="71.07,-46.69 71.4,-36.1 64.54,-44.17 71.07,-46.69"/>
<g id="a_edge1&#45;headlabel"><a xlink:href="dir_000006_000000.html" target="_top" xlink:title="2">
<text text-anchor="middle" x="72.42" y="-48.57" font-family="Helvetica,sans-Serif" font-size="10.00">2</text>
</a>
</g>
</g>
<!-- dir_0e161d7bce32a8af2535eaa8e1c4d8c9 -->
<g id="node4" class="node">
<title>dir_0e161d7bce32a8af2535eaa8e1c4d8c9</title>
<g id="a_node4"><a xlink:href="dir_0e161d7bce32a8af2535eaa8e1c4d8c9.html" target="_top" xlink:title="src">
<polygon fill="#227aff" stroke="#404040" points="78,-180 24,-180 24,-144 78,-144 78,-180"/>
<text text-anchor="middle" x="51" y="-159.5" font-family="Helvetica,sans-Serif" font-size="10.00">src</text>
</a>
</g>
</g>
<!-- dir_0e161d7bce32a8af2535eaa8e1c4d8c9&#45;&gt;dir_4ad232a7e12cdd3f2d4a36a5c765228e -->
<g id="edge2" class="edge">
<title>dir_0e161d7bce32a8af2535eaa8e1c4d8c9&#45;&gt;dir_4ad232a7e12cdd3f2d4a36a5c765228e</title>
<path fill="none" stroke="black" d="M51,-143.7C51,-135.98 51,-126.71 51,-118.11"/>
<polygon fill="black" stroke="black" points="54.5,-118.1 51,-108.1 47.5,-118.1 54.5,-118.1"/>
<g id="a_edge2&#45;headlabel"><a xlink:href="dir_000016_000006.html" target="_top" xlink:title="2">
<text text-anchor="middle" x="57.34" y="-119.2" font-family="Helvetica,sans-Serif" font-size="10.00">2</text>
</a>
</g>
</g>
<!-- dir_0e161d7bce32a8af2535eaa8e1c4d8c9&#45;&gt;dir_6d4da112a1331882b0b6514a341190a0 -->
<g id="edge3" class="edge">
<title>dir_0e161d7bce32a8af2535eaa8e1c4d8c9&#45;&gt;dir_6d4da112a1331882b0b6514a341190a0</title>
<path fill="none" stroke="black" d="M66.61,-143.77C74.37,-134.03 82.95,-121.18 87,-108 93.22,-87.77 90.27,-63.87 86.15,-45.92"/>
<polygon fill="black" stroke="black" points="89.51,-44.95 83.65,-36.12 82.73,-46.68 89.51,-44.95"/>
<g id="a_edge3&#45;headlabel"><a xlink:href="dir_000016_000000.html" target="_top" xlink:title="5">
<text text-anchor="middle" x="93.15" y="-45.23" font-family="Helvetica,sans-Serif" font-size="10.00">5</text>
</a>
</g>
</g>
<!-- dir_d44c64559bbebec7f509842c48db8b23 -->
<g id="node6" class="node">
<title>dir_d44c64559bbebec7f509842c48db8b23</title>
<g id="a_node6"><a xlink:href="dir_d44c64559bbebec7f509842c48db8b23.html" target="_top" xlink:title="include">
<polygon fill="none" stroke="red" points="320,-108 266,-108 266,-72 320,-72 320,-108"/>
<text text-anchor="middle" x="293" y="-87.5" font-family="Helvetica,sans-Serif" font-size="10.00">include</text>
</a>
</g>
</g>
<!-- dir_0e161d7bce32a8af2535eaa8e1c4d8c9&#45;&gt;dir_d44c64559bbebec7f509842c48db8b23 -->
<g id="edge4" class="edge">
<title>dir_0e161d7bce32a8af2535eaa8e1c4d8c9&#45;&gt;dir_d44c64559bbebec7f509842c48db8b23</title>
<path fill="none" stroke="black" d="M78.25,-147.34C81.17,-146.12 84.12,-144.98 87,-144 158.91,-119.63 181.73,-131.28 254,-108 254.86,-107.72 255.73,-107.43 256.6,-107.13"/>
<polygon fill="black" stroke="black" points="257.87,-110.4 265.99,-103.59 255.4,-103.85 257.87,-110.4"/>
<g id="a_edge4&#45;headlabel"><a xlink:href="dir_000016_000004.html" target="_top" xlink:title="2">
<text text-anchor="middle" x="255.51" y="-111.82" font-family="Helvetica,sans-Serif" font-size="10.00">2</text>
</a>
</g>
</g>
</g>
</svg>
