<?xml version="1.0" encoding="UTF-8" standalone="no"?>
<!DOCTYPE svg PUBLIC "-//W3C//DTD SVG 1.1//EN"
 "http://www.w3.org/Graphics/SVG/1.1/DTD/svg11.dtd">
<!-- Generated by graphviz version 2.44.0 ()
 -->
<!-- Title: modules Pages: 1 -->
<svg width="296pt" height="148pt"
 viewBox="0.00 0.00 296.00 148.00" xmlns="http://www.w3.org/2000/svg" xmlns:xlink="http://www.w3.org/1999/xlink">
<g id="graph0" class="graph" transform="scale(1 1) rotate(0) translate(4 144)">
<title>modules</title>
<polygon fill="white" stroke="transparent" points="-4,4 -4,-144 292,-144 292,4 -4,4"/>
<g id="clust1" class="cluster">
<title>clusterdir_e05d7e2b1ecd646af5bb94391405f3b5</title>
<g id="a_clust1"><a xlink:href="dir_e05d7e2b1ecd646af5bb94391405f3b5.html" target="_top">
<polygon fill="#eeeeff" stroke="black" points="8,-8 8,-132 226,-132 226,-8 8,-8"/>
</a>
</g>
</g>
<!-- dir_e05d7e2b1ecd646af5bb94391405f3b5 -->
<g id="node1" class="node">
<title>dir_e05d7e2b1ecd646af5bb94391405f3b5</title>
<text text-anchor="middle" x="191" y="-103.5" font-family="Helvetica,sans-Serif" font-size="10.00">modules</text>
</g>
<!-- dir_6d4da112a1331882b0b6514a341190a0 -->
<g id="node2" class="node">
<title>dir_6d4da112a1331882b0b6514a341190a0</title>
<g id="a_node2"><a xlink:href="dir_6d4da112a1331882b0b6514a341190a0.html" target="_top" xlink:title="core">
<polygon fill="white" stroke="red" points="145,-52 91,-52 91,-16 145,-16 145,-52"/>
<text text-anchor="middle" x="118" y="-31.5" font-family="Helvetica,sans-Serif" font-size="10.00">core</text>
</a>
</g>
</g>
<!-- dir_d44c64559bbebec7f509842c48db8b23 -->
<g id="node5" class="node">
<title>dir_d44c64559bbebec7f509842c48db8b23</title>
<g id="a_node5"><a xlink:href="dir_d44c64559bbebec7f509842c48db8b23.html" target="_top" xlink:title="include">
<polygon fill="white" stroke="red" points="288,-52 234,-52 234,-16 288,-16 288,-52"/>
<text text-anchor="middle" x="261" y="-31.5" font-family="Helvetica,sans-Serif" font-size="10.00">include</text>
</a>
</g>
</g>
<!-- dir_6d4da112a1331882b0b6514a341190a0&#45;&gt;dir_d44c64559bbebec7f509842c48db8b23 -->
<g id="edge1" class="edge">
<title>dir_6d4da112a1331882b0b6514a341190a0&#45;&gt;dir_d44c64559bbebec7f509842c48db8b23</title>
<path fill="none" stroke="black" d="M145.09,-34C171.32,-34 197.55,-34 223.78,-34"/>
<polygon fill="black" stroke="black" points="223.83,-37.5 233.83,-34 223.83,-30.5 223.83,-37.5"/>
<g id="a_edge1&#45;headlabel"><a xlink:href="dir_000005_000002.html" target="_top" xlink:title="22">
<text text-anchor="middle" x="220.24" y="-37.84" font-family="Helvetica,sans-Serif" font-size="10.00">22</text>
</a>
</g>
</g>
<!-- dir_6224fa5a9999cbdd113adab36163ebac -->
<g id="node3" class="node">
<title>dir_6224fa5a9999cbdd113adab36163ebac</title>
<g id="a_node3"><a xlink:href="dir_6224fa5a9999cbdd113adab36163ebac.html" target="_top" xlink:title="elements">
<polygon fill="white" stroke="red" points="146,-124 90,-124 90,-88 146,-88 146,-124"/>
<text text-anchor="middle" x="118" y="-103.5" font-family="Helvetica,sans-Serif" font-size="10.00">elements</text>
</a>
</g>
</g>
<!-- dir_6224fa5a9999cbdd113adab36163ebac&#45;&gt;dir_6d4da112a1331882b0b6514a341190a0 -->
<g id="edge2" class="edge">
<title>dir_6224fa5a9999cbdd113adab36163ebac&#45;&gt;dir_6d4da112a1331882b0b6514a341190a0</title>
<path fill="none" stroke="black" d="M118,-87.7C118,-79.98 118,-70.71 118,-62.11"/>
<polygon fill="black" stroke="black" points="121.5,-62.1 118,-52.1 114.5,-62.1 121.5,-62.1"/>
<g id="a_edge2&#45;headlabel"><a xlink:href="dir_000029_000005.html" target="_top" xlink:title="22">
<text text-anchor="middle" x="124.34" y="-63.2" font-family="Helvetica,sans-Serif" font-size="10.00">22</text>
</a>
</g>
</g>
<!-- dir_6224fa5a9999cbdd113adab36163ebac&#45;&gt;dir_d44c64559bbebec7f509842c48db8b23 -->
<g id="edge3" class="edge">
<title>dir_6224fa5a9999cbdd113adab36163ebac&#45;&gt;dir_d44c64559bbebec7f509842c48db8b23</title>
<path fill="none" stroke="black" d="M146.19,-91.89C170.2,-80.7 203.68,-64.98 224.92,-54.49"/>
<polygon fill="black" stroke="black" points="226.63,-57.54 234,-49.93 223.49,-51.29 226.63,-57.54"/>
<g id="a_edge3&#45;headlabel"><a xlink:href="dir_000029_000002.html" target="_top" xlink:title="10">
<text text-anchor="middle" x="224.69" y="-59.19" font-family="Helvetica,sans-Serif" font-size="10.00">10</text>
</a>
</g>
</g>
<!-- dir_a55c496f430aa4275197c786dabe211f -->
<g id="node4" class="node">
<title>dir_a55c496f430aa4275197c786dabe211f</title>
<g id="a_node4"><a xlink:href="dir_a55c496f430aa4275197c786dabe211f.html" target="_top" xlink:title="materials">
<polygon fill="white" stroke="red" points="72,-124 16,-124 16,-88 72,-88 72,-124"/>
<text text-anchor="middle" x="44" y="-103.5" font-family="Helvetica,sans-Serif" font-size="10.00">materials</text>
</a>
</g>
</g>
<!-- dir_a55c496f430aa4275197c786dabe211f&#45;&gt;dir_6d4da112a1331882b0b6514a341190a0 -->
<g id="edge5" class="edge">
<title>dir_a55c496f430aa4275197c786dabe211f&#45;&gt;dir_6d4da112a1331882b0b6514a341190a0</title>
<path fill="none" stroke="black" d="M62.29,-87.7C71.43,-79.05 82.64,-68.45 92.6,-59.03"/>
<polygon fill="black" stroke="black" points="95.06,-61.52 99.92,-52.1 90.25,-56.43 95.06,-61.52"/>
<g id="a_edge5&#45;headlabel"><a xlink:href="dir_000018_000005.html" target="_top" xlink:title="79">
<text text-anchor="middle" x="94.4" y="-63.55" font-family="Helvetica,sans-Serif" font-size="10.00">79</text>
</a>
</g>
</g>
<!-- dir_a55c496f430aa4275197c786dabe211f&#45;&gt;dir_d44c64559bbebec7f509842c48db8b23 -->
<g id="edge6" class="edge">
<title>dir_a55c496f430aa4275197c786dabe211f&#45;&gt;dir_d44c64559bbebec7f509842c48db8b23</title>
<path fill="none" stroke="black" d="M72.05,-91.43C75.04,-90.19 78.06,-89.02 81,-88 142.22,-66.76 164.3,-75.61 224.26,-54"/>
<polygon fill="black" stroke="black" points="225.67,-57.21 233.8,-50.42 223.21,-50.65 225.67,-57.21"/>
<g id="a_edge6&#45;headlabel"><a xlink:href="dir_000018_000002.html" target="_top" xlink:title="11">
<text text-anchor="middle" x="223.3" y="-58.63" font-family="Helvetica,sans-Serif" font-size="10.00">11</text>
</a>
</g>
</g>
<!-- dir_d44c64559bbebec7f509842c48db8b23&#45;&gt;dir_6d4da112a1331882b0b6514a341190a0 -->
<g id="edge4" class="edge">
<title>dir_d44c64559bbebec7f509842c48db8b23&#45;&gt;dir_6d4da112a1331882b0b6514a341190a0</title>
<path fill="none" stroke="black" d="M233.83,-34C207.6,-34 181.37,-34 155.14,-34"/>
<polygon fill="black" stroke="black" points="155.09,-30.5 145.09,-34 155.09,-37.5 155.09,-30.5"/>
<g id="a_edge4&#45;headlabel"><a xlink:href="dir_000002_000005.html" target="_top" xlink:title="2">
<text text-anchor="middle" x="158.69" y="-25.16" font-family="Helvetica,sans-Serif" font-size="10.00">2</text>
</a>
</g>
</g>
</g>
</svg>
