<?xml version="1.0" encoding="UTF-8" standalone="no"?>
<!DOCTYPE svg PUBLIC "-//W3C//DTD SVG 1.1//EN"
 "http://www.w3.org/Graphics/SVG/1.1/DTD/svg11.dtd">
<!-- Generated by graphviz version 2.44.0 ()
 -->
<!-- Title: modules/core/MarmotMathCore Pages: 1 -->
<svg width="410pt" height="231pt"
 viewBox="0.00 0.00 409.50 231.00" xmlns="http://www.w3.org/2000/svg" xmlns:xlink="http://www.w3.org/1999/xlink">
<g id="graph0" class="graph" transform="scale(1 1) rotate(0) translate(4 227)">
<title>modules/core/MarmotMathCore</title>
<polygon fill="white" stroke="transparent" points="-4,4 -4,-227 405.5,-227 405.5,4 -4,4"/>
<g id="clust1" class="cluster">
<title>clusterdir_6d4da112a1331882b0b6514a341190a0</title>
<g id="a_clust1"><a xlink:href="dir_6d4da112a1331882b0b6514a341190a0.html" target="_top" xlink:title="core">
<polygon fill="#ddddee" stroke="black" points="8,-56 8,-215 276,-215 276,-56 8,-56"/>
<text text-anchor="middle" x="142" y="-203" font-family="Helvetica,sans-Serif" font-size="10.00">core</text>
</a>
</g>
</g>
<g id="clust2" class="cluster">
<title>clusterdir_39413a3592d49ba1372e049fbfe3e31f</title>
<g id="a_clust2"><a xlink:href="dir_39413a3592d49ba1372e049fbfe3e31f.html" target="_top">
<polygon fill="#eeeeff" stroke="black" points="16,-64 16,-188 268,-188 268,-64 16,-64"/>
</a>
</g>
</g>
<!-- dir_39413a3592d49ba1372e049fbfe3e31f -->
<g id="node1" class="node">
<title>dir_39413a3592d49ba1372e049fbfe3e31f</title>
<text text-anchor="middle" x="214" y="-159.5" font-family="Helvetica,sans-Serif" font-size="10.00">MarmotMathCore</text>
</g>
<!-- dir_baf372f6fd22c950eefa7a286c465775 -->
<g id="node2" class="node">
<title>dir_baf372f6fd22c950eefa7a286c465775</title>
<g id="a_node2"><a xlink:href="dir_baf372f6fd22c950eefa7a286c465775.html" target="_top" xlink:title="doc">
<polygon fill="white" stroke="black" points="150,-180 96,-180 96,-144 150,-144 150,-180"/>
<text text-anchor="middle" x="123" y="-159.5" font-family="Helvetica,sans-Serif" font-size="10.00">doc</text>
</a>
</g>
</g>
<!-- dir_30dc539d7f9137a8c9255c38053dcb4a -->
<g id="node3" class="node">
<title>dir_30dc539d7f9137a8c9255c38053dcb4a</title>
<g id="a_node3"><a xlink:href="dir_30dc539d7f9137a8c9255c38053dcb4a.html" target="_top" xlink:title="include">
<polygon fill="white" stroke="red" points="260,-108 206,-108 206,-72 260,-72 260,-108"/>
<text text-anchor="middle" x="233" y="-87.5" font-family="Helvetica,sans-Serif" font-size="10.00">include</text>
</a>
</g>
</g>
<!-- dir_9969c29766c3ca5ea49aac3cac97384d -->
<g id="node5" class="node">
<title>dir_9969c29766c3ca5ea49aac3cac97384d</title>
<g id="a_node5"><a xlink:href="dir_9969c29766c3ca5ea49aac3cac97384d.html" target="_top" xlink:title="MarmotMechanicsCore">
<polygon fill="white" stroke="red" points="401.5,-108 284.5,-108 284.5,-72 401.5,-72 401.5,-108"/>
<text text-anchor="middle" x="343" y="-87.5" font-family="Helvetica,sans-Serif" font-size="10.00">MarmotMechanicsCore</text>
</a>
</g>
</g>
<!-- dir_30dc539d7f9137a8c9255c38053dcb4a&#45;&gt;dir_9969c29766c3ca5ea49aac3cac97384d -->
<g id="edge4" class="edge">
<title>dir_30dc539d7f9137a8c9255c38053dcb4a&#45;&gt;dir_9969c29766c3ca5ea49aac3cac97384d</title>
<path fill="none" stroke="black" d="M260.07,-90C264.75,-90 269.43,-90 274.12,-90"/>
<polygon fill="black" stroke="black" points="274.37,-93.5 284.37,-90 274.37,-86.5 274.37,-93.5"/>
<g id="a_edge4&#45;headlabel"><a xlink:href="dir_000023_000016.html" target="_top" xlink:title="1">
<text text-anchor="middle" x="270.77" y="-93.84" font-family="Helvetica,sans-Serif" font-size="10.00">1</text>
</a>
</g>
</g>
<!-- dir_d44c64559bbebec7f509842c48db8b23 -->
<g id="node6" class="node">
<title>dir_d44c64559bbebec7f509842c48db8b23</title>
<g id="a_node6"><a xlink:href="dir_d44c64559bbebec7f509842c48db8b23.html" target="_top" xlink:title="include">
<polygon fill="white" stroke="red" points="370,-36 316,-36 316,0 370,0 370,-36"/>
<text text-anchor="middle" x="343" y="-15.5" font-family="Helvetica,sans-Serif" font-size="10.00">include</text>
</a>
</g>
</g>
<!-- dir_30dc539d7f9137a8c9255c38053dcb4a&#45;&gt;dir_d44c64559bbebec7f509842c48db8b23 -->
<g id="edge5" class="edge">
<title>dir_30dc539d7f9137a8c9255c38053dcb4a&#45;&gt;dir_d44c64559bbebec7f509842c48db8b23</title>
<path fill="none" stroke="black" d="M245.42,-71.9C251.84,-66.58 259.6,-60.84 267,-56 279.44,-47.86 293.79,-39.77 306.77,-33.24"/>
<polygon fill="black" stroke="black" points="308.47,-36.31 315.93,-28.78 305.41,-30.01 308.47,-36.31"/>
<g id="a_edge5&#45;headlabel"><a xlink:href="dir_000023_000002.html" target="_top" xlink:title="1">
<text text-anchor="middle" x="306.48" y="-37.93" font-family="Helvetica,sans-Serif" font-size="10.00">1</text>
</a>
</g>
</g>
<!-- dir_821c78d2b394672aa3770e4376196bb6 -->
<g id="node4" class="node">
<title>dir_821c78d2b394672aa3770e4376196bb6</title>
<g id="a_node4"><a xlink:href="dir_821c78d2b394672aa3770e4376196bb6.html" target="_top" xlink:title="src">
<polygon fill="white" stroke="black" points="78,-180 24,-180 24,-144 78,-144 78,-180"/>
<text text-anchor="middle" x="51" y="-159.5" font-family="Helvetica,sans-Serif" font-size="10.00">src</text>
</a>
</g>
</g>
<!-- dir_821c78d2b394672aa3770e4376196bb6&#45;&gt;dir_30dc539d7f9137a8c9255c38053dcb4a -->
<g id="edge1" class="edge">
<title>dir_821c78d2b394672aa3770e4376196bb6&#45;&gt;dir_30dc539d7f9137a8c9255c38053dcb4a</title>
<path fill="none" stroke="black" d="M78.01,-147.92C81.02,-146.55 84.07,-145.22 87,-144 123.68,-128.72 166.5,-113.47 196.24,-103.28"/>
<polygon fill="black" stroke="black" points="197.46,-106.56 205.8,-100.03 195.21,-99.94 197.46,-106.56"/>
<g id="a_edge1&#45;headlabel"><a xlink:href="dir_000025_000023.html" target="_top" xlink:title="7">
<text text-anchor="middle" x="194.98" y="-107.91" font-family="Helvetica,sans-Serif" font-size="10.00">7</text>
</a>
</g>
</g>
<!-- dir_9969c29766c3ca5ea49aac3cac97384d&#45;&gt;dir_30dc539d7f9137a8c9255c38053dcb4a -->
<g id="edge2" class="edge">
<title>dir_9969c29766c3ca5ea49aac3cac97384d&#45;&gt;dir_30dc539d7f9137a8c9255c38053dcb4a</title>
<path fill="none" stroke="black" d="M284.37,-90C279.68,-90 275,-90 270.32,-90"/>
<polygon fill="black" stroke="black" points="270.07,-86.5 260.07,-90 270.07,-93.5 270.07,-86.5"/>
<g id="a_edge2&#45;headlabel"><a xlink:href="dir_000016_000023.html" target="_top" xlink:title="44">
<text text-anchor="middle" x="273.66" y="-81.16" font-family="Helvetica,sans-Serif" font-size="10.00">44</text>
</a>
</g>
</g>
<!-- dir_9969c29766c3ca5ea49aac3cac97384d&#45;&gt;dir_d44c64559bbebec7f509842c48db8b23 -->
<g id="edge3" class="edge">
<title>dir_9969c29766c3ca5ea49aac3cac97384d&#45;&gt;dir_d44c64559bbebec7f509842c48db8b23</title>
<path fill="none" stroke="black" d="M337.08,-71.7C336.29,-63.98 336.06,-54.71 336.4,-46.11"/>
<polygon fill="black" stroke="black" points="339.9,-46.32 337.1,-36.1 332.92,-45.84 339.9,-46.32"/>
<g id="a_edge3&#45;headlabel"><a xlink:href="dir_000016_000002.html" target="_top" xlink:title="16">
<text text-anchor="middle" x="342.48" y="-47.61" font-family="Helvetica,sans-Serif" font-size="10.00">16</text>
</a>
</g>
</g>
<!-- dir_d44c64559bbebec7f509842c48db8b23&#45;&gt;dir_30dc539d7f9137a8c9255c38053dcb4a -->
<g id="edge7" class="edge">
<title>dir_d44c64559bbebec7f509842c48db8b23&#45;&gt;dir_30dc539d7f9137a8c9255c38053dcb4a</title>
<path fill="none" stroke="black" d="M318.23,-36.11C307.76,-42.06 295.67,-49.01 285,-56 279.63,-59.52 274.06,-63.5 268.62,-67.46"/>
<polygon fill="black" stroke="black" points="266.24,-64.87 260.21,-73.58 270.36,-70.53 266.24,-64.87"/>
<g id="a_edge7&#45;headlabel"><a xlink:href="dir_000002_000023.html" target="_top" xlink:title="1">
<text text-anchor="middle" x="267.47" y="-57.96" font-family="Helvetica,sans-Serif" font-size="10.00">1</text>
</a>
</g>
</g>
<!-- dir_d44c64559bbebec7f509842c48db8b23&#45;&gt;dir_9969c29766c3ca5ea49aac3cac97384d -->
<g id="edge6" class="edge">
<title>dir_d44c64559bbebec7f509842c48db8b23&#45;&gt;dir_9969c29766c3ca5ea49aac3cac97384d</title>
<path fill="none" stroke="black" d="M348.9,-36.1C349.7,-43.79 349.94,-53.05 349.6,-61.67"/>
<polygon fill="black" stroke="black" points="346.11,-61.48 348.92,-71.7 353.09,-61.96 346.11,-61.48"/>
<g id="a_edge6&#45;headlabel"><a xlink:href="dir_000002_000016.html" target="_top" xlink:title="1">
<text text-anchor="middle" x="343.52" y="-55.2" font-family="Helvetica,sans-Serif" font-size="10.00">1</text>
</a>
</g>
</g>
</g>
</svg>
