<?xml version="1.0" encoding="UTF-8" standalone="no"?>
<!DOCTYPE svg PUBLIC "-//W3C//DTD SVG 1.1//EN"
 "http://www.w3.org/Graphics/SVG/1.1/DTD/svg11.dtd">
<!-- Generated by graphviz version 3.0.0 (20220413.0106)
 -->
<!-- Title: modules/core/MarmotFiniteElementCore Pages: 1 -->
<svg width="384pt" height="231pt"
 viewBox="0.00 0.00 384.00 231.00" xmlns="http://www.w3.org/2000/svg" xmlns:xlink="http://www.w3.org/1999/xlink">
<g id="graph0" class="graph" transform="scale(1 1) rotate(0) translate(4 227)">
<title>modules/core/MarmotFiniteElementCore</title>
<polygon fill="white" stroke="transparent" points="-4,4 -4,-227 380,-227 380,4 -4,4"/>
<g id="clust1" class="cluster">
<title>clusterdir_6d4da112a1331882b0b6514a341190a0</title>
<g id="a_clust1"><a xlink:href="dir_6d4da112a1331882b0b6514a341190a0.html" target="_top" xlink:title="core">
<polygon fill="#cbdbe8" stroke="#7f7f7f" stroke-dasharray="5,2" points="8,-56 8,-215 368,-215 368,-56 8,-56"/>
<text text-anchor="middle" x="188" y="-203" font-family="Helvetica,sans-Serif" font-size="10.00">core</text>
</a>
</g>
</g>
<g id="clust2" class="cluster">
<title>clusterdir_a6282ced73efdb7b36cfc8bdf7a60b20</title>
<g id="a_clust2"><a xlink:href="dir_a6282ced73efdb7b36cfc8bdf7a60b20.html" target="_top">
<polygon fill="#cbdbe8" stroke="#404040" stroke-width="2" points="16,-64 16,-188 234,-188 234,-64 16,-64"/>
</a>
</g>
</g>
<!-- dir_9969c29766c3ca5ea49aac3cac97384d -->
<g id="node1" class="node">
<title>dir_9969c29766c3ca5ea49aac3cac97384d</title>
<g id="a_node1"><a xlink:href="dir_9969c29766c3ca5ea49aac3cac97384d.html" target="_top" xlink:title="MarmotMechanicsCore">
<polygon fill="#3e6a8f" stroke="red" points="359.5,-108 242.5,-108 242.5,-72 359.5,-72 359.5,-108"/>
<text text-anchor="middle" x="301" y="-87.5" font-family="Helvetica,sans-Serif" font-size="10.00">MarmotMechanicsCore</text>
</a>
</g>
</g>
<!-- dir_a6282ced73efdb7b36cfc8bdf7a60b20 -->
<g id="node2" class="node">
<title>dir_a6282ced73efdb7b36cfc8bdf7a60b20</title>
<text text-anchor="middle" x="161" y="-159.5" font-family="Helvetica,sans-Serif" font-size="10.00">MarmotFiniteElementCore</text>
</g>
<!-- dir_7a1ab5031ed028ea4c059c711d14cf0d -->
<g id="node3" class="node">
<title>dir_7a1ab5031ed028ea4c059c711d14cf0d</title>
<g id="a_node3"><a xlink:href="dir_7a1ab5031ed028ea4c059c711d14cf0d.html" target="_top" xlink:title="include">
<polygon fill="#3e6a8f" stroke="#404040" points="78,-108 24,-108 24,-72 78,-72 78,-108"/>
<text text-anchor="middle" x="51" y="-87.5" font-family="Helvetica,sans-Serif" font-size="10.00">include</text>
</a>
</g>
</g>
<!-- dir_d44c64559bbebec7f509842c48db8b23 -->
<g id="node5" class="node">
<title>dir_d44c64559bbebec7f509842c48db8b23</title>
<g id="a_node5"><a xlink:href="dir_d44c64559bbebec7f509842c48db8b23.html" target="_top" xlink:title="include">
<polygon fill="none" stroke="red" points="78,-36 24,-36 24,0 78,0 78,-36"/>
<text text-anchor="middle" x="51" y="-15.5" font-family="Helvetica,sans-Serif" font-size="10.00">include</text>
</a>
</g>
</g>
<!-- dir_7a1ab5031ed028ea4c059c711d14cf0d&#45;&gt;dir_d44c64559bbebec7f509842c48db8b23 -->
<g id="edge1" class="edge">
<title>dir_7a1ab5031ed028ea4c059c711d14cf0d&#45;&gt;dir_d44c64559bbebec7f509842c48db8b23</title>
<path fill="none" stroke="black" d="M51,-71.7C51,-63.98 51,-54.71 51,-46.11"/>
<polygon fill="black" stroke="black" points="54.5,-46.1 51,-36.1 47.5,-46.1 54.5,-46.1"/>
<g id="a_edge1&#45;headlabel"><a xlink:href="dir_000008_000007.html" target="_top" xlink:title="2">
<text text-anchor="middle" x="57.34" y="-47.2" font-family="Helvetica,sans-Serif" font-size="10.00">2</text>
</a>
</g>
</g>
<!-- dir_b03b27ba81a49fd6f9c9588f67883179 -->
<g id="node4" class="node">
<title>dir_b03b27ba81a49fd6f9c9588f67883179</title>
<g id="a_node4"><a xlink:href="dir_b03b27ba81a49fd6f9c9588f67883179.html" target="_top" xlink:title="src">
<polygon fill="#3e6a8f" stroke="#404040" points="78,-180 24,-180 24,-144 78,-144 78,-180"/>
<text text-anchor="middle" x="51" y="-159.5" font-family="Helvetica,sans-Serif" font-size="10.00">src</text>
</a>
</g>
</g>
<!-- dir_b03b27ba81a49fd6f9c9588f67883179&#45;&gt;dir_9969c29766c3ca5ea49aac3cac97384d -->
<g id="edge3" class="edge">
<title>dir_b03b27ba81a49fd6f9c9588f67883179&#45;&gt;dir_9969c29766c3ca5ea49aac3cac97384d</title>
<path fill="none" stroke="black" d="M78.23,-147.77C81.49,-146.4 84.79,-145.11 88,-144 149.63,-122.68 169.62,-124.67 232.32,-109.39"/>
<polygon fill="black" stroke="black" points="233.47,-112.71 242.33,-106.89 231.78,-105.91 233.47,-112.71"/>
<g id="a_edge3&#45;headlabel"><a xlink:href="dir_000026_000023.html" target="_top" xlink:title="1">
<text text-anchor="middle" x="230.67" y="-113.83" font-family="Helvetica,sans-Serif" font-size="10.00">1</text>
</a>
</g>
</g>
<!-- dir_b03b27ba81a49fd6f9c9588f67883179&#45;&gt;dir_7a1ab5031ed028ea4c059c711d14cf0d -->
<g id="edge2" class="edge">
<title>dir_b03b27ba81a49fd6f9c9588f67883179&#45;&gt;dir_7a1ab5031ed028ea4c059c711d14cf0d</title>
<path fill="none" stroke="black" d="M51,-143.7C51,-135.98 51,-126.71 51,-118.11"/>
<polygon fill="black" stroke="black" points="54.5,-118.1 51,-108.1 47.5,-118.1 54.5,-118.1"/>
<g id="a_edge2&#45;headlabel"><a xlink:href="dir_000026_000008.html" target="_top" xlink:title="8">
<text text-anchor="middle" x="57.34" y="-119.2" font-family="Helvetica,sans-Serif" font-size="10.00">8</text>
</a>
</g>
</g>
</g>
</svg>
