<?xml version="1.0" encoding="UTF-8" standalone="no"?>
<!DOCTYPE svg PUBLIC "-//W3C//DTD SVG 1.1//EN"
 "http://www.w3.org/Graphics/SVG/1.1/DTD/svg11.dtd">
<!-- Generated by graphviz version 3.0.0 (20220413.0106)
 -->
<!-- Title: modules/materials/LinearElastic/src Pages: 1 -->
<svg width="223pt" height="167pt"
 viewBox="0.00 0.00 223.00 167.00" xmlns="http://www.w3.org/2000/svg" xmlns:xlink="http://www.w3.org/1999/xlink">
<g id="graph0" class="graph" transform="scale(1 1) rotate(0) translate(4 163)">
<title>modules/materials/LinearElastic/src</title>
<polygon fill="white" stroke="transparent" points="-4,4 -4,-163 219,-163 219,4 -4,4"/>
<g id="clust1" class="cluster">
<title>clusterdir_d7d0bb0bcbd88dad2113f443530919ad</title>
<g id="a_clust1"><a xlink:href="dir_d7d0bb0bcbd88dad2113f443530919ad.html" target="_top" xlink:title="LinearElastic">
<polygon fill="#cbdbe8" stroke="#7f7f7f" stroke-dasharray="5,2" points="8,-8 8,-151 81,-151 81,-8 8,-8"/>
<text text-anchor="middle" x="44.5" y="-139" font-family="Helvetica,sans-Serif" font-size="10.00">LinearElastic</text>
</a>
</g>
</g>
<!-- dir_4ad232a7e12cdd3f2d4a36a5c765228e -->
<g id="node1" class="node">
<title>dir_4ad232a7e12cdd3f2d4a36a5c765228e</title>
<g id="a_node1"><a xlink:href="dir_4ad232a7e12cdd3f2d4a36a5c765228e.html" target="_top" xlink:title="include">
<polygon fill="#3e6a8f" stroke="red" points="71,-52 17,-52 17,-16 71,-16 71,-52"/>
<text text-anchor="middle" x="44" y="-31.5" font-family="Helvetica,sans-Serif" font-size="10.00">include</text>
</a>
</g>
</g>
<!-- dir_0e161d7bce32a8af2535eaa8e1c4d8c9 -->
<g id="node2" class="node">
<title>dir_0e161d7bce32a8af2535eaa8e1c4d8c9</title>
<g id="a_node2"><a xlink:href="dir_0e161d7bce32a8af2535eaa8e1c4d8c9.html" target="_top" xlink:title="src">
<polygon fill="#cbdbe8" stroke="#404040" stroke-width="2" points="73,-124 19,-124 19,-88 73,-88 73,-124"/>
<text text-anchor="middle" x="46" y="-103.5" font-family="Helvetica,sans-Serif" font-size="10.00">src</text>
</a>
</g>
</g>
<!-- dir_0e161d7bce32a8af2535eaa8e1c4d8c9&#45;&gt;dir_4ad232a7e12cdd3f2d4a36a5c765228e -->
<g id="edge1" class="edge">
<title>dir_0e161d7bce32a8af2535eaa8e1c4d8c9&#45;&gt;dir_4ad232a7e12cdd3f2d4a36a5c765228e</title>
<path fill="none" stroke="black" d="M45.51,-87.7C45.29,-79.98 45.02,-70.71 44.77,-62.11"/>
<polygon fill="black" stroke="black" points="48.27,-62 44.49,-52.1 41.28,-62.2 48.27,-62"/>
<g id="a_edge1&#45;headlabel"><a xlink:href="dir_000030_000012.html" target="_top" xlink:title="2">
<text text-anchor="middle" x="51.21" y="-63.01" font-family="Helvetica,sans-Serif" font-size="10.00">2</text>
</a>
</g>
</g>
<!-- dir_6d4da112a1331882b0b6514a341190a0 -->
<g id="node3" class="node">
<title>dir_6d4da112a1331882b0b6514a341190a0</title>
<g id="a_node3"><a xlink:href="dir_6d4da112a1331882b0b6514a341190a0.html" target="_top" xlink:title="core">
<polygon fill="none" stroke="red" stroke-dasharray="5,2" points="143,-52 89,-52 89,-16 143,-16 143,-52"/>
<text text-anchor="middle" x="116" y="-31.5" font-family="Helvetica,sans-Serif" font-size="10.00">core</text>
</a>
</g>
</g>
<!-- dir_0e161d7bce32a8af2535eaa8e1c4d8c9&#45;&gt;dir_6d4da112a1331882b0b6514a341190a0 -->
<g id="edge2" class="edge">
<title>dir_0e161d7bce32a8af2535eaa8e1c4d8c9&#45;&gt;dir_6d4da112a1331882b0b6514a341190a0</title>
<path fill="none" stroke="black" d="M63.3,-87.7C71.86,-79.14 82.34,-68.66 91.7,-59.3"/>
<polygon fill="black" stroke="black" points="94.3,-61.65 98.9,-52.1 89.35,-56.7 94.3,-61.65"/>
<g id="a_edge2&#45;headlabel"><a xlink:href="dir_000030_000000.html" target="_top" xlink:title="5">
<text text-anchor="middle" x="93.77" y="-63.7" font-family="Helvetica,sans-Serif" font-size="10.00">5</text>
</a>
</g>
</g>
<!-- dir_d44c64559bbebec7f509842c48db8b23 -->
<g id="node4" class="node">
<title>dir_d44c64559bbebec7f509842c48db8b23</title>
<g id="a_node4"><a xlink:href="dir_d44c64559bbebec7f509842c48db8b23.html" target="_top" xlink:title="include">
<polygon fill="none" stroke="red" points="215,-52 161,-52 161,-16 215,-16 215,-52"/>
<text text-anchor="middle" x="188" y="-31.5" font-family="Helvetica,sans-Serif" font-size="10.00">include</text>
</a>
</g>
</g>
<!-- dir_0e161d7bce32a8af2535eaa8e1c4d8c9&#45;&gt;dir_d44c64559bbebec7f509842c48db8b23 -->
<g id="edge3" class="edge">
<title>dir_0e161d7bce32a8af2535eaa8e1c4d8c9&#45;&gt;dir_d44c64559bbebec7f509842c48db8b23</title>
<path fill="none" stroke="black" d="M73.04,-91.67C95.31,-80.69 127.07,-65.03 151.57,-52.96"/>
<polygon fill="black" stroke="black" points="153.15,-56.08 160.57,-48.52 150.06,-49.8 153.15,-56.08"/>
<g id="a_edge3&#45;headlabel"><a xlink:href="dir_000030_000007.html" target="_top" xlink:title="2">
<text text-anchor="middle" x="151.18" y="-57.72" font-family="Helvetica,sans-Serif" font-size="10.00">2</text>
</a>
</g>
</g>
</g>
</svg>
