<?xml version="1.0" encoding="UTF-8" standalone="no"?>
<!DOCTYPE svg PUBLIC "-//W3C//DTD SVG 1.1//EN"
 "http://www.w3.org/Graphics/SVG/1.1/DTD/svg11.dtd">
<!-- Generated by graphviz version 2.44.0 ()
 -->
<!-- Title: modules/materials/ADLinearElastic/src Pages: 1 -->
<svg width="110pt" height="295pt"
 viewBox="0.00 0.00 110.00 295.00" xmlns="http://www.w3.org/2000/svg" xmlns:xlink="http://www.w3.org/1999/xlink">
<g id="graph0" class="graph" transform="scale(1 1) rotate(0) translate(4 291)">
<title>modules/materials/ADLinearElastic/src</title>
<polygon fill="white" stroke="transparent" points="-4,4 -4,-291 106,-291 106,4 -4,4"/>
<g id="clust1" class="cluster">
<title>clusterdir_66ef614a772dffad2e180958dd6e79b3</title>
<g id="a_clust1"><a xlink:href="dir_66ef614a772dffad2e180958dd6e79b3.html" target="_top" xlink:title="ADLinearElastic">
<polygon fill="#ddddee" stroke="black" points="8,-208 8,-279 94,-279 94,-208 8,-208"/>
<text text-anchor="middle" x="51" y="-267" font-family="Helvetica,sans-Serif" font-size="10.00">ADLinearElastic</text>
</a>
</g>
</g>
<!-- dir_ae3fef37cb968774ab3a4c5684e0785a -->
<g id="node1" class="node">
<title>dir_ae3fef37cb968774ab3a4c5684e0785a</title>
<g id="a_node1"><a xlink:href="dir_ae3fef37cb968774ab3a4c5684e0785a.html" target="_top" xlink:title="src">
<polygon fill="#eeeeff" stroke="black" points="78,-252 24,-252 24,-216 78,-216 78,-252"/>
<text text-anchor="middle" x="51" y="-231.5" font-family="Helvetica,sans-Serif" font-size="10.00">src</text>
</a>
</g>
</g>
<!-- dir_6d4da112a1331882b0b6514a341190a0 -->
<g id="node2" class="node">
<title>dir_6d4da112a1331882b0b6514a341190a0</title>
<g id="a_node2"><a xlink:href="dir_6d4da112a1331882b0b6514a341190a0.html" target="_top" xlink:title="core">
<polygon fill="white" stroke="red" points="78,-108 24,-108 24,-72 78,-72 78,-108"/>
<text text-anchor="middle" x="51" y="-87.5" font-family="Helvetica,sans-Serif" font-size="10.00">core</text>
</a>
</g>
</g>
<!-- dir_ae3fef37cb968774ab3a4c5684e0785a&#45;&gt;dir_6d4da112a1331882b0b6514a341190a0 -->
<g id="edge3" class="edge">
<title>dir_ae3fef37cb968774ab3a4c5684e0785a&#45;&gt;dir_6d4da112a1331882b0b6514a341190a0</title>
<path fill="none" stroke="black" d="M35.39,-215.77C27.63,-206.03 19.05,-193.18 15,-180 10.3,-164.71 10.3,-159.29 15,-144 18.01,-134.22 23.51,-124.62 29.32,-116.33"/>
<polygon fill="black" stroke="black" points="32.19,-118.33 35.39,-108.23 26.59,-114.13 32.19,-118.33"/>
<g id="a_edge3&#45;headlabel"><a xlink:href="dir_000041_000005.html" target="_top" xlink:title="5">
<text text-anchor="middle" x="32.31" y="-120.41" font-family="Helvetica,sans-Serif" font-size="10.00">5</text>
</a>
</g>
</g>
<!-- dir_d44c64559bbebec7f509842c48db8b23 -->
<g id="node3" class="node">
<title>dir_d44c64559bbebec7f509842c48db8b23</title>
<g id="a_node3"><a xlink:href="dir_d44c64559bbebec7f509842c48db8b23.html" target="_top" xlink:title="include">
<polygon fill="white" stroke="red" points="78,-36 24,-36 24,0 78,0 78,-36"/>
<text text-anchor="middle" x="51" y="-15.5" font-family="Helvetica,sans-Serif" font-size="10.00">include</text>
</a>
</g>
</g>
<!-- dir_ae3fef37cb968774ab3a4c5684e0785a&#45;&gt;dir_d44c64559bbebec7f509842c48db8b23 -->
<g id="edge4" class="edge">
<title>dir_ae3fef37cb968774ab3a4c5684e0785a&#45;&gt;dir_d44c64559bbebec7f509842c48db8b23</title>
<path fill="none" stroke="black" d="M66.61,-215.77C74.37,-206.03 82.95,-193.18 87,-180 101.11,-134.12 101.11,-117.88 87,-72 83.99,-62.22 78.49,-52.62 72.68,-44.33"/>
<polygon fill="black" stroke="black" points="75.41,-42.13 66.61,-36.23 69.81,-46.33 75.41,-42.13"/>
<g id="a_edge4&#45;headlabel"><a xlink:href="dir_000041_000002.html" target="_top" xlink:title="2">
<text text-anchor="middle" x="79.83" y="-40.8" font-family="Helvetica,sans-Serif" font-size="10.00">2</text>
</a>
</g>
</g>
<!-- dir_36f0eba417753e7c491122b69b2b7676 -->
<g id="node4" class="node">
<title>dir_36f0eba417753e7c491122b69b2b7676</title>
<g id="a_node4"><a xlink:href="dir_36f0eba417753e7c491122b69b2b7676.html" target="_top" xlink:title="include">
<polygon fill="white" stroke="red" points="78,-180 24,-180 24,-144 78,-144 78,-180"/>
<text text-anchor="middle" x="51" y="-159.5" font-family="Helvetica,sans-Serif" font-size="10.00">include</text>
</a>
</g>
</g>
<!-- dir_ae3fef37cb968774ab3a4c5684e0785a&#45;&gt;dir_36f0eba417753e7c491122b69b2b7676 -->
<g id="edge5" class="edge">
<title>dir_ae3fef37cb968774ab3a4c5684e0785a&#45;&gt;dir_36f0eba417753e7c491122b69b2b7676</title>
<path fill="none" stroke="black" d="M51,-215.7C51,-207.98 51,-198.71 51,-190.11"/>
<polygon fill="black" stroke="black" points="54.5,-190.1 51,-180.1 47.5,-190.1 54.5,-190.1"/>
<g id="a_edge5&#45;headlabel"><a xlink:href="dir_000041_000039.html" target="_top" xlink:title="2">
<text text-anchor="middle" x="57.34" y="-191.2" font-family="Helvetica,sans-Serif" font-size="10.00">2</text>
</a>
</g>
</g>
<!-- dir_6d4da112a1331882b0b6514a341190a0&#45;&gt;dir_d44c64559bbebec7f509842c48db8b23 -->
<g id="edge1" class="edge">
<title>dir_6d4da112a1331882b0b6514a341190a0&#45;&gt;dir_d44c64559bbebec7f509842c48db8b23</title>
<path fill="none" stroke="black" d="M45.08,-71.7C44.29,-63.98 44.06,-54.71 44.4,-46.11"/>
<polygon fill="black" stroke="black" points="47.9,-46.32 45.1,-36.1 40.92,-45.84 47.9,-46.32"/>
<g id="a_edge1&#45;headlabel"><a xlink:href="dir_000005_000002.html" target="_top" xlink:title="22">
<text text-anchor="middle" x="50.48" y="-47.61" font-family="Helvetica,sans-Serif" font-size="10.00">22</text>
</a>
</g>
</g>
<!-- dir_d44c64559bbebec7f509842c48db8b23&#45;&gt;dir_6d4da112a1331882b0b6514a341190a0 -->
<g id="edge2" class="edge">
<title>dir_d44c64559bbebec7f509842c48db8b23&#45;&gt;dir_6d4da112a1331882b0b6514a341190a0</title>
<path fill="none" stroke="black" d="M56.9,-36.1C57.7,-43.79 57.94,-53.05 57.6,-61.67"/>
<polygon fill="black" stroke="black" points="54.11,-61.48 56.92,-71.7 61.09,-61.96 54.11,-61.48"/>
<g id="a_edge2&#45;headlabel"><a xlink:href="dir_000002_000005.html" target="_top" xlink:title="2">
<text text-anchor="middle" x="51.52" y="-55.2" font-family="Helvetica,sans-Serif" font-size="10.00">2</text>
</a>
</g>
</g>
<!-- dir_36f0eba417753e7c491122b69b2b7676&#45;&gt;dir_6d4da112a1331882b0b6514a341190a0 -->
<g id="edge6" class="edge">
<title>dir_36f0eba417753e7c491122b69b2b7676&#45;&gt;dir_6d4da112a1331882b0b6514a341190a0</title>
<path fill="none" stroke="black" d="M51,-143.7C51,-135.98 51,-126.71 51,-118.11"/>
<polygon fill="black" stroke="black" points="54.5,-118.1 51,-108.1 47.5,-118.1 54.5,-118.1"/>
<g id="a_edge6&#45;headlabel"><a xlink:href="dir_000039_000005.html" target="_top" xlink:title="2">
<text text-anchor="middle" x="57.34" y="-119.2" font-family="Helvetica,sans-Serif" font-size="10.00">2</text>
</a>
</g>
</g>
</g>
</svg>
