<?xml version="1.0" encoding="UTF-8" standalone="no"?>
<!DOCTYPE svg PUBLIC "-//W3C//DTD SVG 1.1//EN"
 "http://www.w3.org/Graphics/SVG/1.1/DTD/svg11.dtd">
<!-- Generated by graphviz version 2.44.0 ()
 -->
<!-- Title: modules/materials/VonMises/src Pages: 1 -->
<svg width="133pt" height="295pt"
 viewBox="0.00 0.00 133.00 295.00" xmlns="http://www.w3.org/2000/svg" xmlns:xlink="http://www.w3.org/1999/xlink">
<g id="graph0" class="graph" transform="scale(1 1) rotate(0) translate(4 291)">
<title>modules/materials/VonMises/src</title>
<polygon fill="white" stroke="transparent" points="-4,4 -4,-291 129,-291 129,4 -4,4"/>
<g id="clust1" class="cluster">
<title>clusterdir_480ae59bc4698372f3423da8b38d3be1</title>
<g id="a_clust1"><a xlink:href="dir_480ae59bc4698372f3423da8b38d3be1.html" target="_top" xlink:title="VonMises">
<polygon fill="#ddddee" stroke="black" points="47,-208 47,-279 117,-279 117,-208 47,-208"/>
<text text-anchor="middle" x="82" y="-267" font-family="Helvetica,sans-Serif" font-size="10.00">VonMises</text>
</a>
</g>
</g>
<!-- dir_21c286079624b4d247a3971d3bc51f98 -->
<g id="node1" class="node">
<title>dir_21c286079624b4d247a3971d3bc51f98</title>
<g id="a_node1"><a xlink:href="dir_21c286079624b4d247a3971d3bc51f98.html" target="_top" xlink:title="src">
<polygon fill="#eeeeff" stroke="black" points="109,-252 55,-252 55,-216 109,-216 109,-252"/>
<text text-anchor="middle" x="82" y="-231.5" font-family="Helvetica,sans-Serif" font-size="10.00">src</text>
</a>
</g>
</g>
<!-- dir_31cb458bc90a7705e39921677ac3f88d -->
<g id="node2" class="node">
<title>dir_31cb458bc90a7705e39921677ac3f88d</title>
<g id="a_node2"><a xlink:href="dir_31cb458bc90a7705e39921677ac3f88d.html" target="_top" xlink:title="include">
<polygon fill="white" stroke="red" points="54,-180 0,-180 0,-144 54,-144 54,-180"/>
<text text-anchor="middle" x="27" y="-159.5" font-family="Helvetica,sans-Serif" font-size="10.00">include</text>
</a>
</g>
</g>
<!-- dir_21c286079624b4d247a3971d3bc51f98&#45;&gt;dir_31cb458bc90a7705e39921677ac3f88d -->
<g id="edge3" class="edge">
<title>dir_21c286079624b4d247a3971d3bc51f98&#45;&gt;dir_31cb458bc90a7705e39921677ac3f88d</title>
<path fill="none" stroke="black" d="M68.4,-215.7C61.88,-207.39 53.93,-197.28 46.75,-188.14"/>
<polygon fill="black" stroke="black" points="49.37,-185.81 40.44,-180.1 43.87,-190.13 49.37,-185.81"/>
<g id="a_edge3&#45;headlabel"><a xlink:href="dir_000034_000032.html" target="_top" xlink:title="3">
<text text-anchor="middle" x="53.82" y="-184.38" font-family="Helvetica,sans-Serif" font-size="10.00">3</text>
</a>
</g>
</g>
<!-- dir_6d4da112a1331882b0b6514a341190a0 -->
<g id="node3" class="node">
<title>dir_6d4da112a1331882b0b6514a341190a0</title>
<g id="a_node3"><a xlink:href="dir_6d4da112a1331882b0b6514a341190a0.html" target="_top" xlink:title="core">
<polygon fill="white" stroke="red" points="92,-108 38,-108 38,-72 92,-72 92,-108"/>
<text text-anchor="middle" x="65" y="-87.5" font-family="Helvetica,sans-Serif" font-size="10.00">core</text>
</a>
</g>
</g>
<!-- dir_21c286079624b4d247a3971d3bc51f98&#45;&gt;dir_6d4da112a1331882b0b6514a341190a0 -->
<g id="edge4" class="edge">
<title>dir_21c286079624b4d247a3971d3bc51f98&#45;&gt;dir_6d4da112a1331882b0b6514a341190a0</title>
<path fill="none" stroke="black" d="M79.95,-215.87C77.05,-191.67 71.73,-147.21 68.28,-118.39"/>
<polygon fill="black" stroke="black" points="71.72,-117.7 67.06,-108.19 64.77,-118.53 71.72,-117.7"/>
<g id="a_edge4&#45;headlabel"><a xlink:href="dir_000034_000005.html" target="_top" xlink:title="6">
<text text-anchor="middle" x="74.97" y="-118.43" font-family="Helvetica,sans-Serif" font-size="10.00">6</text>
</a>
</g>
</g>
<!-- dir_d44c64559bbebec7f509842c48db8b23 -->
<g id="node4" class="node">
<title>dir_d44c64559bbebec7f509842c48db8b23</title>
<g id="a_node4"><a xlink:href="dir_d44c64559bbebec7f509842c48db8b23.html" target="_top" xlink:title="include">
<polygon fill="white" stroke="red" points="119,-36 65,-36 65,0 119,0 119,-36"/>
<text text-anchor="middle" x="92" y="-15.5" font-family="Helvetica,sans-Serif" font-size="10.00">include</text>
</a>
</g>
</g>
<!-- dir_21c286079624b4d247a3971d3bc51f98&#45;&gt;dir_d44c64559bbebec7f509842c48db8b23 -->
<g id="edge5" class="edge">
<title>dir_21c286079624b4d247a3971d3bc51f98&#45;&gt;dir_d44c64559bbebec7f509842c48db8b23</title>
<path fill="none" stroke="black" d="M86.36,-215.65C93.25,-186.18 105.42,-124.45 101,-72 100.28,-63.5 98.93,-54.31 97.49,-46.01"/>
<polygon fill="black" stroke="black" points="100.91,-45.29 95.65,-36.09 94.03,-46.56 100.91,-45.29"/>
<g id="a_edge5&#45;headlabel"><a xlink:href="dir_000034_000002.html" target="_top" xlink:title="1">
<text text-anchor="middle" x="104.36" y="-45.81" font-family="Helvetica,sans-Serif" font-size="10.00">1</text>
</a>
</g>
</g>
<!-- dir_31cb458bc90a7705e39921677ac3f88d&#45;&gt;dir_6d4da112a1331882b0b6514a341190a0 -->
<g id="edge1" class="edge">
<title>dir_31cb458bc90a7705e39921677ac3f88d&#45;&gt;dir_6d4da112a1331882b0b6514a341190a0</title>
<path fill="none" stroke="black" d="M36.39,-143.7C40.76,-135.64 46.06,-125.89 50.9,-116.98"/>
<polygon fill="black" stroke="black" points="54.02,-118.56 55.71,-108.1 47.87,-115.22 54.02,-118.56"/>
<g id="a_edge1&#45;headlabel"><a xlink:href="dir_000032_000005.html" target="_top" xlink:title="3">
<text text-anchor="middle" x="54.8" y="-120.58" font-family="Helvetica,sans-Serif" font-size="10.00">3</text>
</a>
</g>
</g>
<!-- dir_6d4da112a1331882b0b6514a341190a0&#45;&gt;dir_d44c64559bbebec7f509842c48db8b23 -->
<g id="edge2" class="edge">
<title>dir_6d4da112a1331882b0b6514a341190a0&#45;&gt;dir_d44c64559bbebec7f509842c48db8b23</title>
<path fill="none" stroke="black" d="M71.67,-71.7C74.71,-63.81 78.38,-54.3 81.76,-45.55"/>
<polygon fill="black" stroke="black" points="85.07,-46.69 85.4,-36.1 78.54,-44.17 85.07,-46.69"/>
<g id="a_edge2&#45;headlabel"><a xlink:href="dir_000005_000002.html" target="_top" xlink:title="19">
<text text-anchor="middle" x="86.42" y="-48.57" font-family="Helvetica,sans-Serif" font-size="10.00">19</text>
</a>
</g>
</g>
</g>
</svg>
