<?xml version="1.0" encoding="UTF-8" standalone="no"?>
<!DOCTYPE svg PUBLIC "-//W3C//DTD SVG 1.1//EN"
 "http://www.w3.org/Graphics/SVG/1.1/DTD/svg11.dtd">
<!-- Generated by graphviz version 2.44.0 ()
 -->
<!-- Title: modules/elements/DisplacementFiniteElement Pages: 1 -->
<svg width="286pt" height="303pt"
 viewBox="0.00 0.00 286.00 303.00" xmlns="http://www.w3.org/2000/svg" xmlns:xlink="http://www.w3.org/1999/xlink">
<g id="graph0" class="graph" transform="scale(1 1) rotate(0) translate(4 299)">
<title>modules/elements/DisplacementFiniteElement</title>
<polygon fill="white" stroke="transparent" points="-4,4 -4,-299 282,-299 282,4 -4,4"/>
<g id="clust1" class="cluster">
<title>clusterdir_6224fa5a9999cbdd113adab36163ebac</title>
<g id="a_clust1"><a xlink:href="dir_6224fa5a9999cbdd113adab36163ebac.html" target="_top" xlink:title="elements">
<polygon fill="#ddddee" stroke="black" points="30,-128 30,-287 270,-287 270,-128 30,-128"/>
<text text-anchor="middle" x="150" y="-275" font-family="Helvetica,sans-Serif" font-size="10.00">elements</text>
</a>
</g>
</g>
<g id="clust2" class="cluster">
<title>clusterdir_aa8ebc4e3c197f41b5e3ba6b0a36891e</title>
<g id="a_clust2"><a xlink:href="dir_aa8ebc4e3c197f41b5e3ba6b0a36891e.html" target="_top">
<polygon fill="#eeeeff" stroke="black" points="38,-136 38,-260 262,-260 262,-136 38,-136"/>
</a>
</g>
</g>
<!-- dir_aa8ebc4e3c197f41b5e3ba6b0a36891e -->
<g id="node1" class="node">
<title>dir_aa8ebc4e3c197f41b5e3ba6b0a36891e</title>
<text text-anchor="middle" x="186" y="-231.5" font-family="Helvetica,sans-Serif" font-size="10.00">DisplacementFiniteElement</text>
</g>
<!-- dir_65861e114da7fe4cba8452e4cfaa99aa -->
<g id="node2" class="node">
<title>dir_65861e114da7fe4cba8452e4cfaa99aa</title>
<g id="a_node2"><a xlink:href="dir_65861e114da7fe4cba8452e4cfaa99aa.html" target="_top" xlink:title="include">
<polygon fill="white" stroke="red" points="100,-180 46,-180 46,-144 100,-144 100,-180"/>
<text text-anchor="middle" x="73" y="-159.5" font-family="Helvetica,sans-Serif" font-size="10.00">include</text>
</a>
</g>
</g>
<!-- dir_6d4da112a1331882b0b6514a341190a0 -->
<g id="node4" class="node">
<title>dir_6d4da112a1331882b0b6514a341190a0</title>
<g id="a_node4"><a xlink:href="dir_6d4da112a1331882b0b6514a341190a0.html" target="_top" xlink:title="core">
<polygon fill="white" stroke="red" points="54,-108 0,-108 0,-72 54,-72 54,-108"/>
<text text-anchor="middle" x="27" y="-87.5" font-family="Helvetica,sans-Serif" font-size="10.00">core</text>
</a>
</g>
</g>
<!-- dir_65861e114da7fe4cba8452e4cfaa99aa&#45;&gt;dir_6d4da112a1331882b0b6514a341190a0 -->
<g id="edge6" class="edge">
<title>dir_65861e114da7fe4cba8452e4cfaa99aa&#45;&gt;dir_6d4da112a1331882b0b6514a341190a0</title>
<path fill="none" stroke="black" d="M61.63,-143.7C56.28,-135.56 49.8,-125.69 43.89,-116.7"/>
<polygon fill="black" stroke="black" points="46.66,-114.54 38.24,-108.1 40.81,-118.38 46.66,-114.54"/>
<g id="a_edge6&#45;headlabel"><a xlink:href="dir_000031_000005.html" target="_top" xlink:title="9">
<text text-anchor="middle" x="51" y="-113.48" font-family="Helvetica,sans-Serif" font-size="10.00">9</text>
</a>
</g>
</g>
<!-- dir_d44c64559bbebec7f509842c48db8b23 -->
<g id="node5" class="node">
<title>dir_d44c64559bbebec7f509842c48db8b23</title>
<g id="a_node5"><a xlink:href="dir_d44c64559bbebec7f509842c48db8b23.html" target="_top" xlink:title="include">
<polygon fill="white" stroke="red" points="81,-36 27,-36 27,0 81,0 81,-36"/>
<text text-anchor="middle" x="54" y="-15.5" font-family="Helvetica,sans-Serif" font-size="10.00">include</text>
</a>
</g>
</g>
<!-- dir_65861e114da7fe4cba8452e4cfaa99aa&#45;&gt;dir_d44c64559bbebec7f509842c48db8b23 -->
<g id="edge7" class="edge">
<title>dir_65861e114da7fe4cba8452e4cfaa99aa&#45;&gt;dir_d44c64559bbebec7f509842c48db8b23</title>
<path fill="none" stroke="black" d="M71.37,-143.9C69.59,-125.96 66.52,-96.94 63,-72 61.81,-63.55 60.32,-54.38 58.9,-46.08"/>
<polygon fill="black" stroke="black" points="62.33,-45.4 57.16,-36.15 55.44,-46.6 62.33,-45.4"/>
<g id="a_edge7&#45;headlabel"><a xlink:href="dir_000031_000002.html" target="_top" xlink:title="4">
<text text-anchor="middle" x="65.75" y="-45.95" font-family="Helvetica,sans-Serif" font-size="10.00">4</text>
</a>
</g>
</g>
<!-- dir_ddb471d4552cbee057f4721b127e0b23 -->
<g id="node3" class="node">
<title>dir_ddb471d4552cbee057f4721b127e0b23</title>
<g id="a_node3"><a xlink:href="dir_ddb471d4552cbee057f4721b127e0b23.html" target="_top" xlink:title="src">
<polygon fill="white" stroke="black" points="100,-252 46,-252 46,-216 100,-216 100,-252"/>
<text text-anchor="middle" x="73" y="-231.5" font-family="Helvetica,sans-Serif" font-size="10.00">src</text>
</a>
</g>
</g>
<!-- dir_ddb471d4552cbee057f4721b127e0b23&#45;&gt;dir_65861e114da7fe4cba8452e4cfaa99aa -->
<g id="edge3" class="edge">
<title>dir_ddb471d4552cbee057f4721b127e0b23&#45;&gt;dir_65861e114da7fe4cba8452e4cfaa99aa</title>
<path fill="none" stroke="black" d="M73,-215.7C73,-207.98 73,-198.71 73,-190.11"/>
<polygon fill="black" stroke="black" points="76.5,-190.1 73,-180.1 69.5,-190.1 76.5,-190.1"/>
<g id="a_edge3&#45;headlabel"><a xlink:href="dir_000033_000031.html" target="_top" xlink:title="1">
<text text-anchor="middle" x="79.34" y="-191.2" font-family="Helvetica,sans-Serif" font-size="10.00">1</text>
</a>
</g>
</g>
<!-- dir_ddb471d4552cbee057f4721b127e0b23&#45;&gt;dir_6d4da112a1331882b0b6514a341190a0 -->
<g id="edge1" class="edge">
<title>dir_ddb471d4552cbee057f4721b127e0b23&#45;&gt;dir_6d4da112a1331882b0b6514a341190a0</title>
<path fill="none" stroke="black" d="M57.97,-215.58C50.38,-205.78 41.78,-192.94 37,-180 29.68,-160.22 27.31,-136.42 26.7,-118.41"/>
<polygon fill="black" stroke="black" points="30.2,-118.23 26.52,-108.29 23.2,-118.35 30.2,-118.23"/>
<g id="a_edge1&#45;headlabel"><a xlink:href="dir_000033_000005.html" target="_top" xlink:title="2">
<text text-anchor="middle" x="33.1" y="-119.27" font-family="Helvetica,sans-Serif" font-size="10.00">2</text>
</a>
</g>
</g>
<!-- dir_ddb471d4552cbee057f4721b127e0b23&#45;&gt;dir_d44c64559bbebec7f509842c48db8b23 -->
<g id="edge2" class="edge">
<title>dir_ddb471d4552cbee057f4721b127e0b23&#45;&gt;dir_d44c64559bbebec7f509842c48db8b23</title>
<path fill="none" stroke="black" d="M88.61,-215.77C96.37,-206.03 104.95,-193.18 109,-180 115.79,-157.91 114.35,-150.48 109,-128 101.74,-97.51 84.52,-65.87 71.26,-44.59"/>
<polygon fill="black" stroke="black" points="74.2,-42.68 65.87,-36.14 68.3,-46.45 74.2,-42.68"/>
<g id="a_edge2&#45;headlabel"><a xlink:href="dir_000033_000002.html" target="_top" xlink:title="1">
<text text-anchor="middle" x="78.52" y="-41.68" font-family="Helvetica,sans-Serif" font-size="10.00">1</text>
</a>
</g>
</g>
<!-- dir_6d4da112a1331882b0b6514a341190a0&#45;&gt;dir_d44c64559bbebec7f509842c48db8b23 -->
<g id="edge4" class="edge">
<title>dir_6d4da112a1331882b0b6514a341190a0&#45;&gt;dir_d44c64559bbebec7f509842c48db8b23</title>
<path fill="none" stroke="black" d="M27.76,-71.7C30.01,-63.73 33.51,-54.1 37.31,-45.26"/>
<polygon fill="black" stroke="black" points="40.52,-46.65 41.51,-36.1 34.16,-43.74 40.52,-46.65"/>
<g id="a_edge4&#45;headlabel"><a xlink:href="dir_000005_000002.html" target="_top" xlink:title="22">
<text text-anchor="middle" x="41.61" y="-48.6" font-family="Helvetica,sans-Serif" font-size="10.00">22</text>
</a>
</g>
</g>
<!-- dir_d44c64559bbebec7f509842c48db8b23&#45;&gt;dir_6d4da112a1331882b0b6514a341190a0 -->
<g id="edge5" class="edge">
<title>dir_d44c64559bbebec7f509842c48db8b23&#45;&gt;dir_6d4da112a1331882b0b6514a341190a0</title>
<path fill="none" stroke="black" d="M53.3,-36.1C51.07,-44.04 47.58,-53.67 43.79,-62.51"/>
<polygon fill="black" stroke="black" points="40.56,-61.15 39.59,-71.7 46.93,-64.06 40.56,-61.15"/>
<g id="a_edge5&#45;headlabel"><a xlink:href="dir_000002_000005.html" target="_top" xlink:title="2">
<text text-anchor="middle" x="39.47" y="-54.2" font-family="Helvetica,sans-Serif" font-size="10.00">2</text>
</a>
</g>
</g>
</g>
</svg>
