<?xml version="1.0" encoding="UTF-8" standalone="no"?>
<!DOCTYPE svg PUBLIC "-//W3C//DTD SVG 1.1//EN"
 "http://www.w3.org/Graphics/SVG/1.1/DTD/svg11.dtd">
<!-- Generated by graphviz version 2.46.0 (20210122.1329)
 -->
<!-- Title: modules/core/MarmotMechanicsCore/src Pages: 1 -->
<svg width="141pt" height="223pt"
 viewBox="0.00 0.00 141.00 223.00" xmlns="http://www.w3.org/2000/svg" xmlns:xlink="http://www.w3.org/1999/xlink">
<g id="graph0" class="graph" transform="scale(1 1) rotate(0) translate(4 219)">
<title>modules/core/MarmotMechanicsCore/src</title>
<polygon fill="white" stroke="transparent" points="-4,4 -4,-219 137,-219 137,4 -4,4"/>
<g id="clust1" class="cluster">
<title>clusterdir_9969c29766c3ca5ea49aac3cac97384d</title>
<g id="a_clust1"><a xlink:href="dir_9969c29766c3ca5ea49aac3cac97384d.html" target="_top" xlink:title="MarmotMechanicsCore">
<polygon fill="#ddddee" stroke="black" points="8,-64 8,-207 125,-207 125,-64 8,-64"/>
<text text-anchor="middle" x="66.5" y="-195" font-family="Helvetica,sans-Serif" font-size="10.00">MarmotMechanicsCore</text>
</a>
</g>
</g>
<!-- dir_7d9e0bddc3df5047c06a16b0d057f1c8 -->
<g id="node1" class="node">
<title>dir_7d9e0bddc3df5047c06a16b0d057f1c8</title>
<g id="a_node1"><a xlink:href="dir_7d9e0bddc3df5047c06a16b0d057f1c8.html" target="_top" xlink:title="include">
<polygon fill="white" stroke="red" points="93,-108 39,-108 39,-72 93,-72 93,-108"/>
<text text-anchor="middle" x="66" y="-87.5" font-family="Helvetica,sans-Serif" font-size="10.00">include</text>
</a>
</g>
</g>
<!-- dir_d44c64559bbebec7f509842c48db8b23 -->
<g id="node3" class="node">
<title>dir_d44c64559bbebec7f509842c48db8b23</title>
<g id="a_node3"><a xlink:href="dir_d44c64559bbebec7f509842c48db8b23.html" target="_top" xlink:title="include">
<polygon fill="white" stroke="red" points="120,-36 66,-36 66,0 120,0 120,-36"/>
<text text-anchor="middle" x="93" y="-15.5" font-family="Helvetica,sans-Serif" font-size="10.00">include</text>
</a>
</g>
</g>
<!-- dir_7d9e0bddc3df5047c06a16b0d057f1c8&#45;&gt;dir_d44c64559bbebec7f509842c48db8b23 -->
<g id="edge3" class="edge">
<title>dir_7d9e0bddc3df5047c06a16b0d057f1c8&#45;&gt;dir_d44c64559bbebec7f509842c48db8b23</title>
<path fill="none" stroke="black" d="M72.67,-71.7C75.71,-63.81 79.38,-54.3 82.76,-45.55"/>
<polygon fill="black" stroke="black" points="86.07,-46.69 86.4,-36.1 79.54,-44.17 86.07,-46.69"/>
<g id="a_edge3&#45;headlabel"><a xlink:href="dir_000011_000002.html" target="_top" xlink:title="11">
<text text-anchor="middle" x="87.42" y="-48.57" font-family="Helvetica,sans-Serif" font-size="10.00">11</text>
</a>
</g>
</g>
<!-- dir_44fa5c34dc4af4cf8679eba293af8a34 -->
<g id="node2" class="node">
<title>dir_44fa5c34dc4af4cf8679eba293af8a34</title>
<g id="a_node2"><a xlink:href="dir_44fa5c34dc4af4cf8679eba293af8a34.html" target="_top" xlink:title="src">
<polygon fill="#eeeeff" stroke="black" points="105,-180 51,-180 51,-144 105,-144 105,-180"/>
<text text-anchor="middle" x="78" y="-159.5" font-family="Helvetica,sans-Serif" font-size="10.00">src</text>
</a>
</g>
</g>
<!-- dir_44fa5c34dc4af4cf8679eba293af8a34&#45;&gt;dir_7d9e0bddc3df5047c06a16b0d057f1c8 -->
<g id="edge1" class="edge">
<title>dir_44fa5c34dc4af4cf8679eba293af8a34&#45;&gt;dir_7d9e0bddc3df5047c06a16b0d057f1c8</title>
<path fill="none" stroke="black" d="M75.03,-143.7C73.71,-135.98 72.12,-126.71 70.65,-118.11"/>
<polygon fill="black" stroke="black" points="74.07,-117.37 68.93,-108.1 67.17,-118.55 74.07,-117.37"/>
<g id="a_edge1&#45;headlabel"><a xlink:href="dir_000013_000011.html" target="_top" xlink:title="48">
<text text-anchor="middle" x="77.48" y="-117.93" font-family="Helvetica,sans-Serif" font-size="10.00">48</text>
</a>
</g>
</g>
<!-- dir_44fa5c34dc4af4cf8679eba293af8a34&#45;&gt;dir_d44c64559bbebec7f509842c48db8b23 -->
<g id="edge2" class="edge">
<title>dir_44fa5c34dc4af4cf8679eba293af8a34&#45;&gt;dir_d44c64559bbebec7f509842c48db8b23</title>
<path fill="none" stroke="black" d="M87.95,-143.98C93.27,-133.89 99.27,-120.64 102,-108 106.4,-87.63 103.71,-64.17 100.16,-46.45"/>
<polygon fill="black" stroke="black" points="103.48,-45.24 97.9,-36.24 96.65,-46.76 103.48,-45.24"/>
<g id="a_edge2&#45;headlabel"><a xlink:href="dir_000013_000002.html" target="_top" xlink:title="5">
<text text-anchor="middle" x="107.03" y="-45.64" font-family="Helvetica,sans-Serif" font-size="10.00">5</text>
</a>
</g>
</g>
</g>
</svg>
