<?xml version="1.0" encoding="UTF-8" standalone="no"?>
<!DOCTYPE svg PUBLIC "-//W3C//DTD SVG 1.1//EN"
 "http://www.w3.org/Graphics/SVG/1.1/DTD/svg11.dtd">
<!-- Generated by graphviz version 2.44.0 ()
 -->
<!-- Title: modules/core/MarmotFiniteElementCore Pages: 1 -->
<svg width="260pt" height="375pt"
 viewBox="0.00 0.00 259.50 375.00" xmlns="http://www.w3.org/2000/svg" xmlns:xlink="http://www.w3.org/1999/xlink">
<g id="graph0" class="graph" transform="scale(1 1) rotate(0) translate(4 371)">
<title>modules/core/MarmotFiniteElementCore</title>
<polygon fill="white" stroke="transparent" points="-4,4 -4,-371 255.5,-371 255.5,4 -4,4"/>
<g id="clust1" class="cluster">
<title>clusterdir_6d4da112a1331882b0b6514a341190a0</title>
<g id="a_clust1"><a xlink:href="dir_6d4da112a1331882b0b6514a341190a0.html" target="_top" xlink:title="core">
<polygon fill="#ddddee" stroke="black" points="8,-200 8,-359 242,-359 242,-200 8,-200"/>
<text text-anchor="middle" x="125" y="-347" font-family="Helvetica,sans-Serif" font-size="10.00">core</text>
</a>
</g>
</g>
<g id="clust2" class="cluster">
<title>clusterdir_a6282ced73efdb7b36cfc8bdf7a60b20</title>
<g id="a_clust2"><a xlink:href="dir_a6282ced73efdb7b36cfc8bdf7a60b20.html" target="_top">
<polygon fill="#eeeeff" stroke="black" points="16,-208 16,-332 234,-332 234,-208 16,-208"/>
</a>
</g>
</g>
<!-- dir_a6282ced73efdb7b36cfc8bdf7a60b20 -->
<g id="node1" class="node">
<title>dir_a6282ced73efdb7b36cfc8bdf7a60b20</title>
<text text-anchor="middle" x="161" y="-303.5" font-family="Helvetica,sans-Serif" font-size="10.00">MarmotFiniteElementCore</text>
</g>
<!-- dir_7a1ab5031ed028ea4c059c711d14cf0d -->
<g id="node2" class="node">
<title>dir_7a1ab5031ed028ea4c059c711d14cf0d</title>
<g id="a_node2"><a xlink:href="dir_7a1ab5031ed028ea4c059c711d14cf0d.html" target="_top" xlink:title="include">
<polygon fill="white" stroke="red" points="78,-252 24,-252 24,-216 78,-216 78,-252"/>
<text text-anchor="middle" x="51" y="-231.5" font-family="Helvetica,sans-Serif" font-size="10.00">include</text>
</a>
</g>
</g>
<!-- dir_9969c29766c3ca5ea49aac3cac97384d -->
<g id="node4" class="node">
<title>dir_9969c29766c3ca5ea49aac3cac97384d</title>
<g id="a_node4"><a xlink:href="dir_9969c29766c3ca5ea49aac3cac97384d.html" target="_top" xlink:title="MarmotMechanicsCore">
<polygon fill="white" stroke="red" points="251.5,-180 134.5,-180 134.5,-144 251.5,-144 251.5,-180"/>
<text text-anchor="middle" x="193" y="-159.5" font-family="Helvetica,sans-Serif" font-size="10.00">MarmotMechanicsCore</text>
</a>
</g>
</g>
<!-- dir_7a1ab5031ed028ea4c059c711d14cf0d&#45;&gt;dir_9969c29766c3ca5ea49aac3cac97384d -->
<g id="edge1" class="edge">
<title>dir_7a1ab5031ed028ea4c059c711d14cf0d&#45;&gt;dir_9969c29766c3ca5ea49aac3cac97384d</title>
<path fill="none" stroke="black" d="M78.04,-219.67C98.22,-209.72 126.2,-195.93 149.51,-184.44"/>
<polygon fill="black" stroke="black" points="151.09,-187.56 158.51,-180 147.99,-181.28 151.09,-187.56"/>
<g id="a_edge1&#45;headlabel"><a xlink:href="dir_000007_000012.html" target="_top" xlink:title="1">
<text text-anchor="middle" x="149.12" y="-189.2" font-family="Helvetica,sans-Serif" font-size="10.00">1</text>
</a>
</g>
</g>
<!-- dir_d44c64559bbebec7f509842c48db8b23 -->
<g id="node5" class="node">
<title>dir_d44c64559bbebec7f509842c48db8b23</title>
<g id="a_node5"><a xlink:href="dir_d44c64559bbebec7f509842c48db8b23.html" target="_top" xlink:title="include">
<polygon fill="white" stroke="red" points="95,-36 41,-36 41,0 95,0 95,-36"/>
<text text-anchor="middle" x="68" y="-15.5" font-family="Helvetica,sans-Serif" font-size="10.00">include</text>
</a>
</g>
</g>
<!-- dir_7a1ab5031ed028ea4c059c711d14cf0d&#45;&gt;dir_d44c64559bbebec7f509842c48db8b23 -->
<g id="edge2" class="edge">
<title>dir_7a1ab5031ed028ea4c059c711d14cf0d&#45;&gt;dir_d44c64559bbebec7f509842c48db8b23</title>
<path fill="none" stroke="black" d="M49.28,-215.95C46.68,-186.41 42.88,-123.92 51,-72 52.36,-63.31 54.9,-54.1 57.61,-45.84"/>
<polygon fill="black" stroke="black" points="60.94,-46.93 60.93,-36.33 54.33,-44.62 60.94,-46.93"/>
<g id="a_edge2&#45;headlabel"><a xlink:href="dir_000007_000002.html" target="_top" xlink:title="2">
<text text-anchor="middle" x="62.43" y="-48.76" font-family="Helvetica,sans-Serif" font-size="10.00">2</text>
</a>
</g>
</g>
<!-- dir_39413a3592d49ba1372e049fbfe3e31f -->
<g id="node6" class="node">
<title>dir_39413a3592d49ba1372e049fbfe3e31f</title>
<g id="a_node6"><a xlink:href="dir_39413a3592d49ba1372e049fbfe3e31f.html" target="_top" xlink:title="MarmotMathCore">
<polygon fill="white" stroke="red" points="152,-108 60,-108 60,-72 152,-72 152,-108"/>
<text text-anchor="middle" x="106" y="-87.5" font-family="Helvetica,sans-Serif" font-size="10.00">MarmotMathCore</text>
</a>
</g>
</g>
<!-- dir_7a1ab5031ed028ea4c059c711d14cf0d&#45;&gt;dir_39413a3592d49ba1372e049fbfe3e31f -->
<g id="edge3" class="edge">
<title>dir_7a1ab5031ed028ea4c059c711d14cf0d&#45;&gt;dir_39413a3592d49ba1372e049fbfe3e31f</title>
<path fill="none" stroke="black" d="M57.63,-215.87C67.09,-191.46 84.53,-146.43 95.68,-117.64"/>
<polygon fill="black" stroke="black" points="98.99,-118.78 99.34,-108.19 92.47,-116.25 98.99,-118.78"/>
<g id="a_edge3&#45;headlabel"><a xlink:href="dir_000007_000010.html" target="_top" xlink:title="4">
<text text-anchor="middle" x="100.34" y="-120.66" font-family="Helvetica,sans-Serif" font-size="10.00">4</text>
</a>
</g>
</g>
<!-- dir_b03b27ba81a49fd6f9c9588f67883179 -->
<g id="node3" class="node">
<title>dir_b03b27ba81a49fd6f9c9588f67883179</title>
<g id="a_node3"><a xlink:href="dir_b03b27ba81a49fd6f9c9588f67883179.html" target="_top" xlink:title="src">
<polygon fill="white" stroke="black" points="78,-324 24,-324 24,-288 78,-288 78,-324"/>
<text text-anchor="middle" x="51" y="-303.5" font-family="Helvetica,sans-Serif" font-size="10.00">src</text>
</a>
</g>
</g>
<!-- dir_b03b27ba81a49fd6f9c9588f67883179&#45;&gt;dir_7a1ab5031ed028ea4c059c711d14cf0d -->
<g id="edge6" class="edge">
<title>dir_b03b27ba81a49fd6f9c9588f67883179&#45;&gt;dir_7a1ab5031ed028ea4c059c711d14cf0d</title>
<path fill="none" stroke="black" d="M51,-287.7C51,-279.98 51,-270.71 51,-262.11"/>
<polygon fill="black" stroke="black" points="54.5,-262.1 51,-252.1 47.5,-262.1 54.5,-262.1"/>
<g id="a_edge6&#45;headlabel"><a xlink:href="dir_000009_000007.html" target="_top" xlink:title="9">
<text text-anchor="middle" x="57.34" y="-263.2" font-family="Helvetica,sans-Serif" font-size="10.00">9</text>
</a>
</g>
</g>
<!-- dir_b03b27ba81a49fd6f9c9588f67883179&#45;&gt;dir_9969c29766c3ca5ea49aac3cac97384d -->
<g id="edge7" class="edge">
<title>dir_b03b27ba81a49fd6f9c9588f67883179&#45;&gt;dir_9969c29766c3ca5ea49aac3cac97384d</title>
<path fill="none" stroke="black" d="M76.06,-287.89C89.67,-278.08 106.44,-265.14 120,-252 140.45,-232.2 160.74,-206.88 174.72,-188.31"/>
<polygon fill="black" stroke="black" points="177.71,-190.16 180.86,-180.05 172.09,-185.98 177.71,-190.16"/>
<g id="a_edge7&#45;headlabel"><a xlink:href="dir_000009_000012.html" target="_top" xlink:title="1">
<text text-anchor="middle" x="177.84" y="-192.24" font-family="Helvetica,sans-Serif" font-size="10.00">1</text>
</a>
</g>
</g>
<!-- dir_b03b27ba81a49fd6f9c9588f67883179&#45;&gt;dir_d44c64559bbebec7f509842c48db8b23 -->
<g id="edge8" class="edge">
<title>dir_b03b27ba81a49fd6f9c9588f67883179&#45;&gt;dir_d44c64559bbebec7f509842c48db8b23</title>
<path fill="none" stroke="black" d="M35.39,-287.77C27.63,-278.03 19.05,-265.18 15,-252 8.21,-229.91 12.43,-222.97 15,-200 21.48,-142.03 25.43,-127.3 44,-72 46.96,-63.19 50.89,-53.87 54.71,-45.54"/>
<polygon fill="black" stroke="black" points="57.97,-46.84 59.09,-36.31 51.64,-43.85 57.97,-46.84"/>
<g id="a_edge8&#45;headlabel"><a xlink:href="dir_000009_000002.html" target="_top" xlink:title="1">
<text text-anchor="middle" x="59" y="-48.81" font-family="Helvetica,sans-Serif" font-size="10.00">1</text>
</a>
</g>
</g>
<!-- dir_b03b27ba81a49fd6f9c9588f67883179&#45;&gt;dir_39413a3592d49ba1372e049fbfe3e31f -->
<g id="edge9" class="edge">
<title>dir_b03b27ba81a49fd6f9c9588f67883179&#45;&gt;dir_39413a3592d49ba1372e049fbfe3e31f</title>
<path fill="none" stroke="black" d="M66,-287.57C73.58,-277.76 82.18,-264.92 87,-252 103.7,-207.22 106.61,-151.01 106.67,-118.24"/>
<polygon fill="black" stroke="black" points="110.17,-118.04 106.6,-108.07 103.17,-118.09 110.17,-118.04"/>
<g id="a_edge9&#45;headlabel"><a xlink:href="dir_000009_000010.html" target="_top" xlink:title="4">
<text text-anchor="middle" x="113.03" y="-119.12" font-family="Helvetica,sans-Serif" font-size="10.00">4</text>
</a>
</g>
</g>
<!-- dir_9969c29766c3ca5ea49aac3cac97384d&#45;&gt;dir_d44c64559bbebec7f509842c48db8b23 -->
<g id="edge4" class="edge">
<title>dir_9969c29766c3ca5ea49aac3cac97384d&#45;&gt;dir_d44c64559bbebec7f509842c48db8b23</title>
<path fill="none" stroke="black" d="M190.48,-143.82C186.89,-124.47 178.64,-92.99 161,-72 146.07,-54.23 123.57,-41.19 104.44,-32.48"/>
<polygon fill="black" stroke="black" points="105.65,-29.2 95.09,-28.44 102.88,-35.62 105.65,-29.2"/>
<g id="a_edge4&#45;headlabel"><a xlink:href="dir_000012_000002.html" target="_top" xlink:title="15">
<text text-anchor="middle" x="110.08" y="-25.51" font-family="Helvetica,sans-Serif" font-size="10.00">15</text>
</a>
</g>
</g>
<!-- dir_9969c29766c3ca5ea49aac3cac97384d&#45;&gt;dir_39413a3592d49ba1372e049fbfe3e31f -->
<g id="edge5" class="edge">
<title>dir_9969c29766c3ca5ea49aac3cac97384d&#45;&gt;dir_39413a3592d49ba1372e049fbfe3e31f</title>
<path fill="none" stroke="black" d="M165.58,-143.7C153.83,-134.97 140.33,-124.24 129.09,-114.75"/>
<polygon fill="black" stroke="black" points="131.23,-111.97 121.36,-108.1 126.66,-117.28 131.23,-111.97"/>
<g id="a_edge5&#45;headlabel"><a xlink:href="dir_000012_000010.html" target="_top" xlink:title="43">
<text text-anchor="middle" x="135.8" y="-109.66" font-family="Helvetica,sans-Serif" font-size="10.00">43</text>
</a>
</g>
</g>
<!-- dir_39413a3592d49ba1372e049fbfe3e31f&#45;&gt;dir_9969c29766c3ca5ea49aac3cac97384d -->
<g id="edge10" class="edge">
<title>dir_39413a3592d49ba1372e049fbfe3e31f&#45;&gt;dir_9969c29766c3ca5ea49aac3cac97384d</title>
<path fill="none" stroke="black" d="M133.15,-108.1C144.88,-116.8 158.38,-127.52 169.65,-137.03"/>
<polygon fill="black" stroke="black" points="167.54,-139.83 177.41,-143.7 172.11,-134.52 167.54,-139.83"/>
<g id="a_edge10&#45;headlabel"><a xlink:href="dir_000010_000012.html" target="_top" xlink:title="1">
<text text-anchor="middle" x="162.97" y="-137.14" font-family="Helvetica,sans-Serif" font-size="10.00">1</text>
</a>
</g>
</g>
<!-- dir_39413a3592d49ba1372e049fbfe3e31f&#45;&gt;dir_d44c64559bbebec7f509842c48db8b23 -->
<g id="edge11" class="edge">
<title>dir_39413a3592d49ba1372e049fbfe3e31f&#45;&gt;dir_d44c64559bbebec7f509842c48db8b23</title>
<path fill="none" stroke="black" d="M96.61,-71.7C92.24,-63.64 86.94,-53.89 82.1,-44.98"/>
<polygon fill="black" stroke="black" points="85.13,-43.22 77.29,-36.1 78.98,-46.56 85.13,-43.22"/>
<g id="a_edge11&#45;headlabel"><a xlink:href="dir_000010_000002.html" target="_top" xlink:title="1">
<text text-anchor="middle" x="89.34" y="-42.53" font-family="Helvetica,sans-Serif" font-size="10.00">1</text>
</a>
</g>
</g>
</g>
</svg>
