<?xml version="1.0" encoding="UTF-8" standalone="no"?>
<!DOCTYPE svg PUBLIC "-//W3C//DTD SVG 1.1//EN"
 "http://www.w3.org/Graphics/SVG/1.1/DTD/svg11.dtd">
<!-- Generated by graphviz version 2.44.0 ()
 -->
<!-- Title: modules/materials/FiniteStrainJ2Plasticity/src Pages: 1 -->
<svg width="156pt" height="295pt"
 viewBox="0.00 0.00 156.00 295.00" xmlns="http://www.w3.org/2000/svg" xmlns:xlink="http://www.w3.org/1999/xlink">
<g id="graph0" class="graph" transform="scale(1 1) rotate(0) translate(4 291)">
<title>modules/materials/FiniteStrainJ2Plasticity/src</title>
<polygon fill="white" stroke="transparent" points="-4,4 -4,-291 152,-291 152,4 -4,4"/>
<g id="clust1" class="cluster">
<title>clusterdir_984035e4ceb50f91b954fb0fb05c5bde</title>
<g id="a_clust1"><a xlink:href="dir_984035e4ceb50f91b954fb0fb05c5bde.html" target="_top" xlink:title="FiniteStrainJ2Plasticity">
<polygon fill="#ddddee" stroke="black" points="24,-208 24,-279 140,-279 140,-208 24,-208"/>
<text text-anchor="middle" x="82" y="-267" font-family="Helvetica,sans-Serif" font-size="10.00">FiniteStrainJ2Plasticity</text>
</a>
</g>
</g>
<!-- dir_2b7eae534f678d5734455dd0140e1689 -->
<g id="node1" class="node">
<title>dir_2b7eae534f678d5734455dd0140e1689</title>
<g id="a_node1"><a xlink:href="dir_2b7eae534f678d5734455dd0140e1689.html" target="_top" xlink:title="src">
<polygon fill="#eeeeff" stroke="black" points="109,-252 55,-252 55,-216 109,-216 109,-252"/>
<text text-anchor="middle" x="82" y="-231.5" font-family="Helvetica,sans-Serif" font-size="10.00">src</text>
</a>
</g>
</g>
<!-- dir_a665675ccca5bc93d793daac371d7424 -->
<g id="node2" class="node">
<title>dir_a665675ccca5bc93d793daac371d7424</title>
<g id="a_node2"><a xlink:href="dir_a665675ccca5bc93d793daac371d7424.html" target="_top" xlink:title="include">
<polygon fill="white" stroke="red" points="54,-180 0,-180 0,-144 54,-144 54,-180"/>
<text text-anchor="middle" x="27" y="-159.5" font-family="Helvetica,sans-Serif" font-size="10.00">include</text>
</a>
</g>
</g>
<!-- dir_2b7eae534f678d5734455dd0140e1689&#45;&gt;dir_a665675ccca5bc93d793daac371d7424 -->
<g id="edge4" class="edge">
<title>dir_2b7eae534f678d5734455dd0140e1689&#45;&gt;dir_a665675ccca5bc93d793daac371d7424</title>
<path fill="none" stroke="black" d="M68.4,-215.7C61.88,-207.39 53.93,-197.28 46.75,-188.14"/>
<polygon fill="black" stroke="black" points="49.37,-185.81 40.44,-180.1 43.87,-190.13 49.37,-185.81"/>
<g id="a_edge4&#45;headlabel"><a xlink:href="dir_000056_000054.html" target="_top" xlink:title="2">
<text text-anchor="middle" x="53.82" y="-184.38" font-family="Helvetica,sans-Serif" font-size="10.00">2</text>
</a>
</g>
</g>
<!-- dir_6d4da112a1331882b0b6514a341190a0 -->
<g id="node3" class="node">
<title>dir_6d4da112a1331882b0b6514a341190a0</title>
<g id="a_node3"><a xlink:href="dir_6d4da112a1331882b0b6514a341190a0.html" target="_top" xlink:title="core">
<polygon fill="white" stroke="red" points="92,-108 38,-108 38,-72 92,-72 92,-108"/>
<text text-anchor="middle" x="65" y="-87.5" font-family="Helvetica,sans-Serif" font-size="10.00">core</text>
</a>
</g>
</g>
<!-- dir_2b7eae534f678d5734455dd0140e1689&#45;&gt;dir_6d4da112a1331882b0b6514a341190a0 -->
<g id="edge5" class="edge">
<title>dir_2b7eae534f678d5734455dd0140e1689&#45;&gt;dir_6d4da112a1331882b0b6514a341190a0</title>
<path fill="none" stroke="black" d="M79.95,-215.87C77.05,-191.67 71.73,-147.21 68.28,-118.39"/>
<polygon fill="black" stroke="black" points="71.72,-117.7 67.06,-108.19 64.77,-118.53 71.72,-117.7"/>
<g id="a_edge5&#45;headlabel"><a xlink:href="dir_000056_000005.html" target="_top" xlink:title="8">
<text text-anchor="middle" x="74.97" y="-118.43" font-family="Helvetica,sans-Serif" font-size="10.00">8</text>
</a>
</g>
</g>
<!-- dir_d44c64559bbebec7f509842c48db8b23 -->
<g id="node4" class="node">
<title>dir_d44c64559bbebec7f509842c48db8b23</title>
<g id="a_node4"><a xlink:href="dir_d44c64559bbebec7f509842c48db8b23.html" target="_top" xlink:title="include">
<polygon fill="white" stroke="red" points="92,-36 38,-36 38,0 92,0 92,-36"/>
<text text-anchor="middle" x="65" y="-15.5" font-family="Helvetica,sans-Serif" font-size="10.00">include</text>
</a>
</g>
</g>
<!-- dir_2b7eae534f678d5734455dd0140e1689&#45;&gt;dir_d44c64559bbebec7f509842c48db8b23 -->
<g id="edge6" class="edge">
<title>dir_2b7eae534f678d5734455dd0140e1689&#45;&gt;dir_d44c64559bbebec7f509842c48db8b23</title>
<path fill="none" stroke="black" d="M88.6,-215.66C99.02,-185.7 116.55,-122.58 101,-72 97.99,-62.22 92.49,-52.62 86.68,-44.33"/>
<polygon fill="black" stroke="black" points="89.41,-42.13 80.61,-36.23 83.81,-46.33 89.41,-42.13"/>
<g id="a_edge6&#45;headlabel"><a xlink:href="dir_000056_000002.html" target="_top" xlink:title="1">
<text text-anchor="middle" x="93.83" y="-40.8" font-family="Helvetica,sans-Serif" font-size="10.00">1</text>
</a>
</g>
</g>
<!-- dir_a665675ccca5bc93d793daac371d7424&#45;&gt;dir_6d4da112a1331882b0b6514a341190a0 -->
<g id="edge1" class="edge">
<title>dir_a665675ccca5bc93d793daac371d7424&#45;&gt;dir_6d4da112a1331882b0b6514a341190a0</title>
<path fill="none" stroke="black" d="M36.39,-143.7C40.76,-135.64 46.06,-125.89 50.9,-116.98"/>
<polygon fill="black" stroke="black" points="54.02,-118.56 55.71,-108.1 47.87,-115.22 54.02,-118.56"/>
<g id="a_edge1&#45;headlabel"><a xlink:href="dir_000054_000005.html" target="_top" xlink:title="8">
<text text-anchor="middle" x="54.8" y="-120.58" font-family="Helvetica,sans-Serif" font-size="10.00">8</text>
</a>
</g>
</g>
<!-- dir_6d4da112a1331882b0b6514a341190a0&#45;&gt;dir_d44c64559bbebec7f509842c48db8b23 -->
<g id="edge2" class="edge">
<title>dir_6d4da112a1331882b0b6514a341190a0&#45;&gt;dir_d44c64559bbebec7f509842c48db8b23</title>
<path fill="none" stroke="black" d="M59.08,-71.7C58.29,-63.98 58.06,-54.71 58.4,-46.11"/>
<polygon fill="black" stroke="black" points="61.9,-46.32 59.1,-36.1 54.92,-45.84 61.9,-46.32"/>
<g id="a_edge2&#45;headlabel"><a xlink:href="dir_000005_000002.html" target="_top" xlink:title="22">
<text text-anchor="middle" x="64.48" y="-47.61" font-family="Helvetica,sans-Serif" font-size="10.00">22</text>
</a>
</g>
</g>
<!-- dir_d44c64559bbebec7f509842c48db8b23&#45;&gt;dir_6d4da112a1331882b0b6514a341190a0 -->
<g id="edge3" class="edge">
<title>dir_d44c64559bbebec7f509842c48db8b23&#45;&gt;dir_6d4da112a1331882b0b6514a341190a0</title>
<path fill="none" stroke="black" d="M70.9,-36.1C71.7,-43.79 71.94,-53.05 71.6,-61.67"/>
<polygon fill="black" stroke="black" points="68.11,-61.48 70.92,-71.7 75.09,-61.96 68.11,-61.48"/>
<g id="a_edge3&#45;headlabel"><a xlink:href="dir_000002_000005.html" target="_top" xlink:title="2">
<text text-anchor="middle" x="65.52" y="-55.2" font-family="Helvetica,sans-Serif" font-size="10.00">2</text>
</a>
</g>
</g>
</g>
</svg>
