<?xml version="1.0" encoding="UTF-8" standalone="no"?>
<!DOCTYPE svg PUBLIC "-//W3C//DTD SVG 1.1//EN"
 "http://www.w3.org/Graphics/SVG/1.1/DTD/svg11.dtd">
<!-- Generated by graphviz version 3.0.0 (20220413.0106)
 -->
<!-- Title: modules/core/MarmotMechanicsCore/src Pages: 1 -->
<svg width="305pt" height="167pt"
 viewBox="0.00 0.00 305.00 167.00" xmlns="http://www.w3.org/2000/svg" xmlns:xlink="http://www.w3.org/1999/xlink">
<g id="graph0" class="graph" transform="scale(1 1) rotate(0) translate(4 163)">
<title>modules/core/MarmotMechanicsCore/src</title>
<polygon fill="white" stroke="transparent" points="-4,4 -4,-163 301,-163 301,4 -4,4"/>
<g id="clust1" class="cluster">
<title>clusterdir_9969c29766c3ca5ea49aac3cac97384d</title>
<g id="a_clust1"><a xlink:href="dir_9969c29766c3ca5ea49aac3cac97384d.html" target="_top" xlink:title="MarmotMechanicsCore">
<polygon fill="#cbdbe8" stroke="#7f7f7f" stroke-dasharray="5,2" points="8,-8 8,-151 125,-151 125,-8 8,-8"/>
<text text-anchor="middle" x="66.5" y="-139" font-family="Helvetica,sans-Serif" font-size="10.00">MarmotMechanicsCore</text>
</a>
</g>
</g>
<!-- dir_7d9e0bddc3df5047c06a16b0d057f1c8 -->
<g id="node1" class="node">
<title>dir_7d9e0bddc3df5047c06a16b0d057f1c8</title>
<g id="a_node1"><a xlink:href="dir_7d9e0bddc3df5047c06a16b0d057f1c8.html" target="_top" xlink:title="include">
<polygon fill="#3e6a8f" stroke="red" points="115,-52 61,-52 61,-16 115,-16 115,-52"/>
<text text-anchor="middle" x="88" y="-31.5" font-family="Helvetica,sans-Serif" font-size="10.00">include</text>
</a>
</g>
</g>
<!-- dir_44fa5c34dc4af4cf8679eba293af8a34 -->
<g id="node2" class="node">
<title>dir_44fa5c34dc4af4cf8679eba293af8a34</title>
<g id="a_node2"><a xlink:href="dir_44fa5c34dc4af4cf8679eba293af8a34.html" target="_top" xlink:title="src">
<polygon fill="#cbdbe8" stroke="#404040" stroke-width="2" points="117,-124 63,-124 63,-88 117,-88 117,-124"/>
<text text-anchor="middle" x="90" y="-103.5" font-family="Helvetica,sans-Serif" font-size="10.00">src</text>
</a>
</g>
</g>
<!-- dir_44fa5c34dc4af4cf8679eba293af8a34&#45;&gt;dir_7d9e0bddc3df5047c06a16b0d057f1c8 -->
<g id="edge2" class="edge">
<title>dir_44fa5c34dc4af4cf8679eba293af8a34&#45;&gt;dir_7d9e0bddc3df5047c06a16b0d057f1c8</title>
<path fill="none" stroke="black" d="M89.51,-87.7C89.29,-79.98 89.02,-70.71 88.77,-62.11"/>
<polygon fill="black" stroke="black" points="92.27,-62 88.49,-52.1 85.28,-62.2 92.27,-62"/>
<g id="a_edge2&#45;headlabel"><a xlink:href="dir_000028_000010.html" target="_top" xlink:title="30">
<text text-anchor="middle" x="95.21" y="-63.01" font-family="Helvetica,sans-Serif" font-size="10.00">30</text>
</a>
</g>
</g>
<!-- dir_39413a3592d49ba1372e049fbfe3e31f -->
<g id="node3" class="node">
<title>dir_39413a3592d49ba1372e049fbfe3e31f</title>
<g id="a_node3"><a xlink:href="dir_39413a3592d49ba1372e049fbfe3e31f.html" target="_top" xlink:title="MarmotMathCore">
<polygon fill="none" stroke="red" stroke-dasharray="5,2" points="225,-52 133,-52 133,-16 225,-16 225,-52"/>
<text text-anchor="middle" x="179" y="-31.5" font-family="Helvetica,sans-Serif" font-size="10.00">MarmotMathCore</text>
</a>
</g>
</g>
<!-- dir_44fa5c34dc4af4cf8679eba293af8a34&#45;&gt;dir_39413a3592d49ba1372e049fbfe3e31f -->
<g id="edge1" class="edge">
<title>dir_44fa5c34dc4af4cf8679eba293af8a34&#45;&gt;dir_39413a3592d49ba1372e049fbfe3e31f</title>
<path fill="none" stroke="black" d="M112,-87.7C123.21,-78.88 137,-68.03 149.15,-58.47"/>
<polygon fill="black" stroke="black" points="151.56,-61.04 157.25,-52.1 147.23,-55.54 151.56,-61.04"/>
<g id="a_edge1&#45;headlabel"><a xlink:href="dir_000028_000022.html" target="_top" xlink:title="20">
<text text-anchor="middle" x="150.49" y="-62.99" font-family="Helvetica,sans-Serif" font-size="10.00">20</text>
</a>
</g>
</g>
<!-- dir_d44c64559bbebec7f509842c48db8b23 -->
<g id="node4" class="node">
<title>dir_d44c64559bbebec7f509842c48db8b23</title>
<g id="a_node4"><a xlink:href="dir_d44c64559bbebec7f509842c48db8b23.html" target="_top" xlink:title="include">
<polygon fill="none" stroke="red" points="297,-52 243,-52 243,-16 297,-16 297,-52"/>
<text text-anchor="middle" x="270" y="-31.5" font-family="Helvetica,sans-Serif" font-size="10.00">include</text>
</a>
</g>
</g>
<!-- dir_44fa5c34dc4af4cf8679eba293af8a34&#45;&gt;dir_d44c64559bbebec7f509842c48db8b23 -->
<g id="edge3" class="edge">
<title>dir_44fa5c34dc4af4cf8679eba293af8a34&#45;&gt;dir_d44c64559bbebec7f509842c48db8b23</title>
<path fill="none" stroke="black" d="M117.08,-95.84C144.35,-86.43 187.77,-70.99 233.51,-52.04"/>
<polygon fill="black" stroke="black" points="235.11,-55.16 242.99,-48.07 232.41,-48.7 235.11,-55.16"/>
<g id="a_edge3&#45;headlabel"><a xlink:href="dir_000028_000007.html" target="_top" xlink:title="5">
<text text-anchor="middle" x="232.89" y="-56.66" font-family="Helvetica,sans-Serif" font-size="10.00">5</text>
</a>
</g>
</g>
</g>
</svg>
