<?xml version="1.0" encoding="UTF-8" standalone="no"?>
<!DOCTYPE svg PUBLIC "-//W3C//DTD SVG 1.1//EN"
 "http://www.w3.org/Graphics/SVG/1.1/DTD/svg11.dtd">
<!-- Generated by graphviz version 2.44.0 ()
 -->
<!-- Title: modules/core/MarmotMathCore/include/Marmot Pages: 1 -->
<svg width="153pt" height="223pt"
 viewBox="0.00 0.00 152.50 223.00" xmlns="http://www.w3.org/2000/svg" xmlns:xlink="http://www.w3.org/1999/xlink">
<g id="graph0" class="graph" transform="scale(1 1) rotate(0) translate(4 219)">
<title>modules/core/MarmotMathCore/include/Marmot</title>
<polygon fill="white" stroke="transparent" points="-4,4 -4,-219 148.5,-219 148.5,4 -4,4"/>
<g id="clust1" class="cluster">
<title>clusterdir_30dc539d7f9137a8c9255c38053dcb4a</title>
<g id="a_clust1"><a xlink:href="dir_30dc539d7f9137a8c9255c38053dcb4a.html" target="_top" xlink:title="include">
<polygon fill="#ddddee" stroke="black" points="66.5,-136 66.5,-207 136.5,-207 136.5,-136 66.5,-136"/>
<text text-anchor="middle" x="101.5" y="-195" font-family="Helvetica,sans-Serif" font-size="10.00">include</text>
</a>
</g>
</g>
<!-- dir_31b2eb882efef22caa0966fb4f2fb905 -->
<g id="node1" class="node">
<title>dir_31b2eb882efef22caa0966fb4f2fb905</title>
<g id="a_node1"><a xlink:href="dir_31b2eb882efef22caa0966fb4f2fb905.html" target="_top" xlink:title="Marmot">
<polygon fill="#eeeeff" stroke="black" points="128.5,-180 74.5,-180 74.5,-144 128.5,-144 128.5,-180"/>
<text text-anchor="middle" x="101.5" y="-159.5" font-family="Helvetica,sans-Serif" font-size="10.00">Marmot</text>
</a>
</g>
</g>
<!-- dir_9969c29766c3ca5ea49aac3cac97384d -->
<g id="node2" class="node">
<title>dir_9969c29766c3ca5ea49aac3cac97384d</title>
<g id="a_node2"><a xlink:href="dir_9969c29766c3ca5ea49aac3cac97384d.html" target="_top" xlink:title="MarmotMechanicsCore">
<polygon fill="white" stroke="red" points="117,-108 0,-108 0,-72 117,-72 117,-108"/>
<text text-anchor="middle" x="58.5" y="-87.5" font-family="Helvetica,sans-Serif" font-size="10.00">MarmotMechanicsCore</text>
</a>
</g>
</g>
<!-- dir_31b2eb882efef22caa0966fb4f2fb905&#45;&gt;dir_9969c29766c3ca5ea49aac3cac97384d -->
<g id="edge2" class="edge">
<title>dir_31b2eb882efef22caa0966fb4f2fb905&#45;&gt;dir_9969c29766c3ca5ea49aac3cac97384d</title>
<path fill="none" stroke="black" d="M90.87,-143.7C85.87,-135.56 79.81,-125.69 74.29,-116.7"/>
<polygon fill="black" stroke="black" points="77.22,-114.79 69.01,-108.1 71.26,-118.46 77.22,-114.79"/>
<g id="a_edge2&#45;headlabel"><a xlink:href="dir_000018_000012.html" target="_top" xlink:title="1">
<text text-anchor="middle" x="81.52" y="-113.87" font-family="Helvetica,sans-Serif" font-size="10.00">1</text>
</a>
</g>
</g>
<!-- dir_d44c64559bbebec7f509842c48db8b23 -->
<g id="node3" class="node">
<title>dir_d44c64559bbebec7f509842c48db8b23</title>
<g id="a_node3"><a xlink:href="dir_d44c64559bbebec7f509842c48db8b23.html" target="_top" xlink:title="include">
<polygon fill="white" stroke="red" points="128.5,-36 74.5,-36 74.5,0 128.5,0 128.5,-36"/>
<text text-anchor="middle" x="101.5" y="-15.5" font-family="Helvetica,sans-Serif" font-size="10.00">include</text>
</a>
</g>
</g>
<!-- dir_31b2eb882efef22caa0966fb4f2fb905&#45;&gt;dir_d44c64559bbebec7f509842c48db8b23 -->
<g id="edge3" class="edge">
<title>dir_31b2eb882efef22caa0966fb4f2fb905&#45;&gt;dir_d44c64559bbebec7f509842c48db8b23</title>
<path fill="none" stroke="black" d="M112.13,-143.56C117.6,-133.54 123.7,-120.51 126.5,-108 130,-92.39 130,-87.61 126.5,-72 124.49,-63.01 120.77,-53.75 116.8,-45.53"/>
<polygon fill="black" stroke="black" points="119.82,-43.73 112.13,-36.44 113.59,-46.94 119.82,-43.73"/>
<g id="a_edge3&#45;headlabel"><a xlink:href="dir_000018_000002.html" target="_top" xlink:title="1">
<text text-anchor="middle" x="123.98" y="-43.13" font-family="Helvetica,sans-Serif" font-size="10.00">1</text>
</a>
</g>
</g>
<!-- dir_9969c29766c3ca5ea49aac3cac97384d&#45;&gt;dir_d44c64559bbebec7f509842c48db8b23 -->
<g id="edge1" class="edge">
<title>dir_9969c29766c3ca5ea49aac3cac97384d&#45;&gt;dir_d44c64559bbebec7f509842c48db8b23</title>
<path fill="none" stroke="black" d="M69.13,-71.7C74.13,-63.56 80.19,-53.69 85.71,-44.7"/>
<polygon fill="black" stroke="black" points="88.74,-46.46 90.99,-36.1 82.78,-42.79 88.74,-46.46"/>
<g id="a_edge1&#45;headlabel"><a xlink:href="dir_000012_000002.html" target="_top" xlink:title="15">
<text text-anchor="middle" x="89.28" y="-48.51" font-family="Helvetica,sans-Serif" font-size="10.00">15</text>
</a>
</g>
</g>
</g>
</svg>
