<?xml version="1.0" encoding="UTF-8" standalone="no"?>
<!DOCTYPE svg PUBLIC "-//W3C//DTD SVG 1.1//EN"
 "http://www.w3.org/Graphics/SVG/1.1/DTD/svg11.dtd">
<!-- Generated by graphviz version 2.44.0 ()
 -->
<!-- Title: modules/elements/DisplacementFiniteStrainULElement/src Pages: 1 -->
<svg width="198pt" height="295pt"
 viewBox="0.00 0.00 198.00 295.00" xmlns="http://www.w3.org/2000/svg" xmlns:xlink="http://www.w3.org/1999/xlink">
<g id="graph0" class="graph" transform="scale(1 1) rotate(0) translate(4 291)">
<title>modules/elements/DisplacementFiniteStrainULElement/src</title>
<polygon fill="white" stroke="transparent" points="-4,4 -4,-291 194,-291 194,4 -4,4"/>
<g id="clust1" class="cluster">
<title>clusterdir_83b500d4701d42dbdf84cce71aa9e7c4</title>
<g id="a_clust1"><a xlink:href="dir_83b500d4701d42dbdf84cce71aa9e7c4.html" target="_top" xlink:title="DisplacementFiniteStrainULElement">
<polygon fill="#ddddee" stroke="black" points="8,-208 8,-279 182,-279 182,-208 8,-208"/>
<text text-anchor="middle" x="95" y="-267" font-family="Helvetica,sans-Serif" font-size="10.00">DisplacementFiniteStrainULElement</text>
</a>
</g>
</g>
<!-- dir_ea6a0b8d98130d5554e2a7d68a56d184 -->
<g id="node1" class="node">
<title>dir_ea6a0b8d98130d5554e2a7d68a56d184</title>
<g id="a_node1"><a xlink:href="dir_ea6a0b8d98130d5554e2a7d68a56d184.html" target="_top" xlink:title="src">
<polygon fill="#eeeeff" stroke="black" points="122,-252 68,-252 68,-216 122,-216 122,-252"/>
<text text-anchor="middle" x="95" y="-231.5" font-family="Helvetica,sans-Serif" font-size="10.00">src</text>
</a>
</g>
</g>
<!-- dir_6d4da112a1331882b0b6514a341190a0 -->
<g id="node2" class="node">
<title>dir_6d4da112a1331882b0b6514a341190a0</title>
<g id="a_node2"><a xlink:href="dir_6d4da112a1331882b0b6514a341190a0.html" target="_top" xlink:title="core">
<polygon fill="white" stroke="red" points="131,-108 77,-108 77,-72 131,-72 131,-108"/>
<text text-anchor="middle" x="104" y="-87.5" font-family="Helvetica,sans-Serif" font-size="10.00">core</text>
</a>
</g>
</g>
<!-- dir_ea6a0b8d98130d5554e2a7d68a56d184&#45;&gt;dir_6d4da112a1331882b0b6514a341190a0 -->
<g id="edge5" class="edge">
<title>dir_ea6a0b8d98130d5554e2a7d68a56d184&#45;&gt;dir_6d4da112a1331882b0b6514a341190a0</title>
<path fill="none" stroke="black" d="M96.09,-215.87C97.62,-191.67 100.44,-147.21 102.26,-118.39"/>
<polygon fill="black" stroke="black" points="105.77,-118.39 102.91,-108.19 98.78,-117.95 105.77,-118.39"/>
<g id="a_edge5&#45;headlabel"><a xlink:href="dir_000037_000005.html" target="_top" xlink:title="1">
<text text-anchor="middle" x="108.38" y="-119.66" font-family="Helvetica,sans-Serif" font-size="10.00">1</text>
</a>
</g>
</g>
<!-- dir_d44c64559bbebec7f509842c48db8b23 -->
<g id="node3" class="node">
<title>dir_d44c64559bbebec7f509842c48db8b23</title>
<g id="a_node3"><a xlink:href="dir_d44c64559bbebec7f509842c48db8b23.html" target="_top" xlink:title="include">
<polygon fill="white" stroke="red" points="131,-36 77,-36 77,0 131,0 131,-36"/>
<text text-anchor="middle" x="104" y="-15.5" font-family="Helvetica,sans-Serif" font-size="10.00">include</text>
</a>
</g>
</g>
<!-- dir_ea6a0b8d98130d5554e2a7d68a56d184&#45;&gt;dir_d44c64559bbebec7f509842c48db8b23 -->
<g id="edge6" class="edge">
<title>dir_ea6a0b8d98130d5554e2a7d68a56d184&#45;&gt;dir_d44c64559bbebec7f509842c48db8b23</title>
<path fill="none" stroke="black" d="M86.98,-215.74C74.24,-185.88 52.34,-122.93 68,-72 71.01,-62.22 76.51,-52.62 82.32,-44.33"/>
<polygon fill="black" stroke="black" points="85.19,-46.33 88.39,-36.23 79.59,-42.13 85.19,-46.33"/>
<g id="a_edge6&#45;headlabel"><a xlink:href="dir_000037_000002.html" target="_top" xlink:title="1">
<text text-anchor="middle" x="85.31" y="-48.41" font-family="Helvetica,sans-Serif" font-size="10.00">1</text>
</a>
</g>
</g>
<!-- dir_9f0d6c30d9ce9c8a9da6d32621d66618 -->
<g id="node4" class="node">
<title>dir_9f0d6c30d9ce9c8a9da6d32621d66618</title>
<g id="a_node4"><a xlink:href="dir_9f0d6c30d9ce9c8a9da6d32621d66618.html" target="_top" xlink:title="include">
<polygon fill="white" stroke="red" points="177,-180 123,-180 123,-144 177,-144 177,-180"/>
<text text-anchor="middle" x="150" y="-159.5" font-family="Helvetica,sans-Serif" font-size="10.00">include</text>
</a>
</g>
</g>
<!-- dir_ea6a0b8d98130d5554e2a7d68a56d184&#45;&gt;dir_9f0d6c30d9ce9c8a9da6d32621d66618 -->
<g id="edge7" class="edge">
<title>dir_ea6a0b8d98130d5554e2a7d68a56d184&#45;&gt;dir_9f0d6c30d9ce9c8a9da6d32621d66618</title>
<path fill="none" stroke="black" d="M108.6,-215.7C115.12,-207.39 123.07,-197.28 130.25,-188.14"/>
<polygon fill="black" stroke="black" points="133.13,-190.13 136.56,-180.1 127.63,-185.81 133.13,-190.13"/>
<g id="a_edge7&#45;headlabel"><a xlink:href="dir_000037_000035.html" target="_top" xlink:title="1">
<text text-anchor="middle" x="133.15" y="-192.21" font-family="Helvetica,sans-Serif" font-size="10.00">1</text>
</a>
</g>
</g>
<!-- dir_6d4da112a1331882b0b6514a341190a0&#45;&gt;dir_d44c64559bbebec7f509842c48db8b23 -->
<g id="edge1" class="edge">
<title>dir_6d4da112a1331882b0b6514a341190a0&#45;&gt;dir_d44c64559bbebec7f509842c48db8b23</title>
<path fill="none" stroke="black" d="M98.08,-71.7C97.29,-63.98 97.06,-54.71 97.4,-46.11"/>
<polygon fill="black" stroke="black" points="100.9,-46.32 98.1,-36.1 93.92,-45.84 100.9,-46.32"/>
<g id="a_edge1&#45;headlabel"><a xlink:href="dir_000005_000002.html" target="_top" xlink:title="22">
<text text-anchor="middle" x="103.48" y="-47.61" font-family="Helvetica,sans-Serif" font-size="10.00">22</text>
</a>
</g>
</g>
<!-- dir_d44c64559bbebec7f509842c48db8b23&#45;&gt;dir_6d4da112a1331882b0b6514a341190a0 -->
<g id="edge4" class="edge">
<title>dir_d44c64559bbebec7f509842c48db8b23&#45;&gt;dir_6d4da112a1331882b0b6514a341190a0</title>
<path fill="none" stroke="black" d="M109.9,-36.1C110.7,-43.79 110.94,-53.05 110.6,-61.67"/>
<polygon fill="black" stroke="black" points="107.11,-61.48 109.92,-71.7 114.09,-61.96 107.11,-61.48"/>
<g id="a_edge4&#45;headlabel"><a xlink:href="dir_000002_000005.html" target="_top" xlink:title="2">
<text text-anchor="middle" x="104.52" y="-55.2" font-family="Helvetica,sans-Serif" font-size="10.00">2</text>
</a>
</g>
</g>
<!-- dir_9f0d6c30d9ce9c8a9da6d32621d66618&#45;&gt;dir_6d4da112a1331882b0b6514a341190a0 -->
<g id="edge2" class="edge">
<title>dir_9f0d6c30d9ce9c8a9da6d32621d66618&#45;&gt;dir_6d4da112a1331882b0b6514a341190a0</title>
<path fill="none" stroke="black" d="M138.63,-143.7C133.28,-135.56 126.8,-125.69 120.89,-116.7"/>
<polygon fill="black" stroke="black" points="123.66,-114.54 115.24,-108.1 117.81,-118.38 123.66,-114.54"/>
<g id="a_edge2&#45;headlabel"><a xlink:href="dir_000035_000005.html" target="_top" xlink:title="10">
<text text-anchor="middle" x="128" y="-113.48" font-family="Helvetica,sans-Serif" font-size="10.00">10</text>
</a>
</g>
</g>
<!-- dir_9f0d6c30d9ce9c8a9da6d32621d66618&#45;&gt;dir_d44c64559bbebec7f509842c48db8b23 -->
<g id="edge3" class="edge">
<title>dir_9f0d6c30d9ce9c8a9da6d32621d66618&#45;&gt;dir_d44c64559bbebec7f509842c48db8b23</title>
<path fill="none" stroke="black" d="M150.48,-143.71C150.44,-125.35 148.79,-95.77 140,-72 136.45,-62.4 130.8,-52.85 125.02,-44.56"/>
<polygon fill="black" stroke="black" points="127.77,-42.4 119.03,-36.42 122.14,-46.55 127.77,-42.4"/>
<g id="a_edge3&#45;headlabel"><a xlink:href="dir_000035_000002.html" target="_top" xlink:title="4">
<text text-anchor="middle" x="132.19" y="-41.11" font-family="Helvetica,sans-Serif" font-size="10.00">4</text>
</a>
</g>
</g>
</g>
</svg>
