<?xml version="1.0" encoding="UTF-8" standalone="no"?>
<!DOCTYPE svg PUBLIC "-//W3C//DTD SVG 1.1//EN"
 "http://www.w3.org/Graphics/SVG/1.1/DTD/svg11.dtd">
<!-- Generated by graphviz version 2.44.0 ()
 -->
<!-- Title: modules/core/MarmotMathCore/include Pages: 1 -->
<svg width="300pt" height="177pt"
 viewBox="0.00 0.00 299.50 177.15" xmlns="http://www.w3.org/2000/svg" xmlns:xlink="http://www.w3.org/1999/xlink">
<g id="graph0" class="graph" transform="scale(1 1) rotate(0) translate(4 173.15)">
<title>modules/core/MarmotMathCore/include</title>
<polygon fill="white" stroke="transparent" points="-4,4 -4,-173.15 295.5,-173.15 295.5,4 -4,4"/>
<g id="clust1" class="cluster">
<title>clusterdir_39413a3592d49ba1372e049fbfe3e31f</title>
<g id="a_clust1"><a xlink:href="dir_39413a3592d49ba1372e049fbfe3e31f.html" target="_top" xlink:title="MarmotMathCore">
<polygon fill="#ddddee" stroke="black" points="8,-56 8,-143 166,-143 166,-56 8,-56"/>
<text text-anchor="middle" x="87" y="-131" font-family="Helvetica,sans-Serif" font-size="10.00">MarmotMathCore</text>
</a>
</g>
</g>
<g id="clust2" class="cluster">
<title>clusterdir_30dc539d7f9137a8c9255c38053dcb4a</title>
<g id="a_clust2"><a xlink:href="dir_30dc539d7f9137a8c9255c38053dcb4a.html" target="_top">
<polygon fill="#eeeeff" stroke="black" points="16,-64 16,-116 158,-116 158,-64 16,-64"/>
</a>
</g>
</g>
<!-- dir_30dc539d7f9137a8c9255c38053dcb4a -->
<g id="node1" class="node">
<title>dir_30dc539d7f9137a8c9255c38053dcb4a</title>
<text text-anchor="middle" x="123" y="-87.5" font-family="Helvetica,sans-Serif" font-size="10.00">include</text>
</g>
<!-- dir_31b2eb882efef22caa0966fb4f2fb905 -->
<g id="node2" class="node">
<title>dir_31b2eb882efef22caa0966fb4f2fb905</title>
<g id="a_node2"><a xlink:href="dir_31b2eb882efef22caa0966fb4f2fb905.html" target="_top" xlink:title="Marmot">
<polygon fill="white" stroke="black" points="78,-108 24,-108 24,-72 78,-72 78,-108"/>
<text text-anchor="middle" x="51" y="-87.5" font-family="Helvetica,sans-Serif" font-size="10.00">Marmot</text>
</a>
</g>
</g>
<!-- dir_9969c29766c3ca5ea49aac3cac97384d -->
<g id="node3" class="node">
<title>dir_9969c29766c3ca5ea49aac3cac97384d</title>
<g id="a_node3"><a xlink:href="dir_9969c29766c3ca5ea49aac3cac97384d.html" target="_top" xlink:title="MarmotMechanicsCore">
<polygon fill="white" stroke="red" points="291.5,-108 174.5,-108 174.5,-72 291.5,-72 291.5,-108"/>
<text text-anchor="middle" x="233" y="-87.5" font-family="Helvetica,sans-Serif" font-size="10.00">MarmotMechanicsCore</text>
</a>
</g>
</g>
<!-- dir_31b2eb882efef22caa0966fb4f2fb905&#45;&gt;dir_9969c29766c3ca5ea49aac3cac97384d -->
<g id="edge5" class="edge">
<title>dir_31b2eb882efef22caa0966fb4f2fb905&#45;&gt;dir_9969c29766c3ca5ea49aac3cac97384d</title>
<path fill="none" stroke="black" d="M56.73,-108.04C63.23,-125.14 75.67,-149.82 96,-161 118.2,-173.21 129.32,-169.99 153,-161 176.87,-151.94 198.18,-132.13 212.79,-115.73"/>
<polygon fill="black" stroke="black" points="215.55,-117.88 219.41,-108.01 210.24,-113.33 215.55,-117.88"/>
<g id="a_edge5&#45;headlabel"><a xlink:href="dir_000024_000016.html" target="_top" xlink:title="1">
<text text-anchor="middle" x="215.37" y="-119.96" font-family="Helvetica,sans-Serif" font-size="10.00">1</text>
</a>
</g>
</g>
<!-- dir_d44c64559bbebec7f509842c48db8b23 -->
<g id="node4" class="node">
<title>dir_d44c64559bbebec7f509842c48db8b23</title>
<g id="a_node4"><a xlink:href="dir_d44c64559bbebec7f509842c48db8b23.html" target="_top" xlink:title="include">
<polygon fill="white" stroke="red" points="260,-36 206,-36 206,0 260,0 260,-36"/>
<text text-anchor="middle" x="233" y="-15.5" font-family="Helvetica,sans-Serif" font-size="10.00">include</text>
</a>
</g>
</g>
<!-- dir_31b2eb882efef22caa0966fb4f2fb905&#45;&gt;dir_d44c64559bbebec7f509842c48db8b23 -->
<g id="edge6" class="edge">
<title>dir_31b2eb882efef22caa0966fb4f2fb905&#45;&gt;dir_d44c64559bbebec7f509842c48db8b23</title>
<path fill="none" stroke="black" d="M58.04,-71.66C63.41,-65.94 70.54,-60.03 78,-56 114.85,-36.1 162.74,-26.62 195.64,-22.31"/>
<polygon fill="black" stroke="black" points="196.25,-25.76 205.76,-21.08 195.41,-18.81 196.25,-25.76"/>
<g id="a_edge6&#45;headlabel"><a xlink:href="dir_000024_000002.html" target="_top" xlink:title="1">
<text text-anchor="middle" x="193.02" y="-26.51" font-family="Helvetica,sans-Serif" font-size="10.00">1</text>
</a>
</g>
</g>
<!-- dir_9969c29766c3ca5ea49aac3cac97384d&#45;&gt;dir_31b2eb882efef22caa0966fb4f2fb905 -->
<g id="edge2" class="edge">
<title>dir_9969c29766c3ca5ea49aac3cac97384d&#45;&gt;dir_31b2eb882efef22caa0966fb4f2fb905</title>
<path fill="none" stroke="black" d="M219.41,-108.01C205.08,-125.35 180.78,-150.45 153,-161 129.32,-169.99 118.2,-173.21 96,-161 79.16,-151.74 67.74,-133.22 60.62,-117.42"/>
<polygon fill="black" stroke="black" points="63.79,-115.94 56.73,-108.04 57.33,-118.62 63.79,-115.94"/>
<g id="a_edge2&#45;headlabel"><a xlink:href="dir_000016_000024.html" target="_top" xlink:title="44">
<text text-anchor="middle" x="67.79" y="-115.67" font-family="Helvetica,sans-Serif" font-size="10.00">44</text>
</a>
</g>
</g>
<!-- dir_9969c29766c3ca5ea49aac3cac97384d&#45;&gt;dir_d44c64559bbebec7f509842c48db8b23 -->
<g id="edge1" class="edge">
<title>dir_9969c29766c3ca5ea49aac3cac97384d&#45;&gt;dir_d44c64559bbebec7f509842c48db8b23</title>
<path fill="none" stroke="black" d="M227.08,-71.7C226.29,-63.98 226.06,-54.71 226.4,-46.11"/>
<polygon fill="black" stroke="black" points="229.9,-46.32 227.1,-36.1 222.92,-45.84 229.9,-46.32"/>
<g id="a_edge1&#45;headlabel"><a xlink:href="dir_000016_000002.html" target="_top" xlink:title="16">
<text text-anchor="middle" x="232.48" y="-47.61" font-family="Helvetica,sans-Serif" font-size="10.00">16</text>
</a>
</g>
</g>
<!-- dir_d44c64559bbebec7f509842c48db8b23&#45;&gt;dir_31b2eb882efef22caa0966fb4f2fb905 -->
<g id="edge4" class="edge">
<title>dir_d44c64559bbebec7f509842c48db8b23&#45;&gt;dir_31b2eb882efef22caa0966fb4f2fb905</title>
<path fill="none" stroke="black" d="M205.85,-22.83C177.07,-27.37 131.43,-36.87 96,-56 91.45,-58.45 87.03,-61.61 82.81,-64.99"/>
<polygon fill="black" stroke="black" points="80.32,-62.52 74.96,-71.66 84.85,-67.85 80.32,-62.52"/>
<g id="a_edge4&#45;headlabel"><a xlink:href="dir_000002_000024.html" target="_top" xlink:title="1">
<text text-anchor="middle" x="81.22" y="-55.53" font-family="Helvetica,sans-Serif" font-size="10.00">1</text>
</a>
</g>
</g>
<!-- dir_d44c64559bbebec7f509842c48db8b23&#45;&gt;dir_9969c29766c3ca5ea49aac3cac97384d -->
<g id="edge3" class="edge">
<title>dir_d44c64559bbebec7f509842c48db8b23&#45;&gt;dir_9969c29766c3ca5ea49aac3cac97384d</title>
<path fill="none" stroke="black" d="M238.9,-36.1C239.7,-43.79 239.94,-53.05 239.6,-61.67"/>
<polygon fill="black" stroke="black" points="236.11,-61.48 238.92,-71.7 243.09,-61.96 236.11,-61.48"/>
<g id="a_edge3&#45;headlabel"><a xlink:href="dir_000002_000016.html" target="_top" xlink:title="1">
<text text-anchor="middle" x="233.52" y="-55.2" font-family="Helvetica,sans-Serif" font-size="10.00">1</text>
</a>
</g>
</g>
</g>
</svg>
