<?xml version="1.0" encoding="UTF-8" standalone="no"?>
<!DOCTYPE svg PUBLIC "-//W3C//DTD SVG 1.1//EN"
 "http://www.w3.org/Graphics/SVG/1.1/DTD/svg11.dtd">
<!-- Generated by graphviz version 2.44.0 ()
 -->
<!-- Title: modules/materials/CompressibleNeoHooke/src Pages: 1 -->
<svg width="146pt" height="295pt"
 viewBox="0.00 0.00 146.00 295.00" xmlns="http://www.w3.org/2000/svg" xmlns:xlink="http://www.w3.org/1999/xlink">
<g id="graph0" class="graph" transform="scale(1 1) rotate(0) translate(4 291)">
<title>modules/materials/CompressibleNeoHooke/src</title>
<polygon fill="white" stroke="transparent" points="-4,4 -4,-291 142,-291 142,4 -4,4"/>
<g id="clust1" class="cluster">
<title>clusterdir_29de6dc9ea64e7254bbbda11ff5bd6c8</title>
<g id="a_clust1"><a xlink:href="dir_29de6dc9ea64e7254bbbda11ff5bd6c8.html" target="_top" xlink:title="CompressibleNeoHooke">
<polygon fill="#ddddee" stroke="black" points="8,-208 8,-279 130,-279 130,-208 8,-208"/>
<text text-anchor="middle" x="69" y="-267" font-family="Helvetica,sans-Serif" font-size="10.00">CompressibleNeoHooke</text>
</a>
</g>
</g>
<!-- dir_c8507447a9e5c8fba388bcd15aa4612e -->
<g id="node1" class="node">
<title>dir_c8507447a9e5c8fba388bcd15aa4612e</title>
<g id="a_node1"><a xlink:href="dir_c8507447a9e5c8fba388bcd15aa4612e.html" target="_top" xlink:title="src">
<polygon fill="#eeeeff" stroke="black" points="96,-252 42,-252 42,-216 96,-216 96,-252"/>
<text text-anchor="middle" x="69" y="-231.5" font-family="Helvetica,sans-Serif" font-size="10.00">src</text>
</a>
</g>
</g>
<!-- dir_6d4da112a1331882b0b6514a341190a0 -->
<g id="node2" class="node">
<title>dir_6d4da112a1331882b0b6514a341190a0</title>
<g id="a_node2"><a xlink:href="dir_6d4da112a1331882b0b6514a341190a0.html" target="_top" xlink:title="core">
<polygon fill="white" stroke="red" points="96,-108 42,-108 42,-72 96,-72 96,-108"/>
<text text-anchor="middle" x="69" y="-87.5" font-family="Helvetica,sans-Serif" font-size="10.00">core</text>
</a>
</g>
</g>
<!-- dir_c8507447a9e5c8fba388bcd15aa4612e&#45;&gt;dir_6d4da112a1331882b0b6514a341190a0 -->
<g id="edge2" class="edge">
<title>dir_c8507447a9e5c8fba388bcd15aa4612e&#45;&gt;dir_6d4da112a1331882b0b6514a341190a0</title>
<path fill="none" stroke="black" d="M53.39,-215.77C45.63,-206.03 37.05,-193.18 33,-180 28.3,-164.71 28.3,-159.29 33,-144 36.01,-134.22 41.51,-124.62 47.32,-116.33"/>
<polygon fill="black" stroke="black" points="50.19,-118.33 53.39,-108.23 44.59,-114.13 50.19,-118.33"/>
<g id="a_edge2&#45;headlabel"><a xlink:href="dir_000052_000005.html" target="_top" xlink:title="5">
<text text-anchor="middle" x="50.31" y="-120.41" font-family="Helvetica,sans-Serif" font-size="10.00">5</text>
</a>
</g>
</g>
<!-- dir_a71af90556d13f85baa09aa1db86ef9e -->
<g id="node3" class="node">
<title>dir_a71af90556d13f85baa09aa1db86ef9e</title>
<g id="a_node3"><a xlink:href="dir_a71af90556d13f85baa09aa1db86ef9e.html" target="_top" xlink:title="include">
<polygon fill="white" stroke="red" points="96,-180 42,-180 42,-144 96,-144 96,-180"/>
<text text-anchor="middle" x="69" y="-159.5" font-family="Helvetica,sans-Serif" font-size="10.00">include</text>
</a>
</g>
</g>
<!-- dir_c8507447a9e5c8fba388bcd15aa4612e&#45;&gt;dir_a71af90556d13f85baa09aa1db86ef9e -->
<g id="edge3" class="edge">
<title>dir_c8507447a9e5c8fba388bcd15aa4612e&#45;&gt;dir_a71af90556d13f85baa09aa1db86ef9e</title>
<path fill="none" stroke="black" d="M69,-215.7C69,-207.98 69,-198.71 69,-190.11"/>
<polygon fill="black" stroke="black" points="72.5,-190.1 69,-180.1 65.5,-190.1 72.5,-190.1"/>
<g id="a_edge3&#45;headlabel"><a xlink:href="dir_000052_000050.html" target="_top" xlink:title="2">
<text text-anchor="middle" x="75.34" y="-191.2" font-family="Helvetica,sans-Serif" font-size="10.00">2</text>
</a>
</g>
</g>
<!-- dir_d44c64559bbebec7f509842c48db8b23 -->
<g id="node4" class="node">
<title>dir_d44c64559bbebec7f509842c48db8b23</title>
<g id="a_node4"><a xlink:href="dir_d44c64559bbebec7f509842c48db8b23.html" target="_top" xlink:title="include">
<polygon fill="white" stroke="red" points="96,-36 42,-36 42,0 96,0 96,-36"/>
<text text-anchor="middle" x="69" y="-15.5" font-family="Helvetica,sans-Serif" font-size="10.00">include</text>
</a>
</g>
</g>
<!-- dir_c8507447a9e5c8fba388bcd15aa4612e&#45;&gt;dir_d44c64559bbebec7f509842c48db8b23 -->
<g id="edge4" class="edge">
<title>dir_c8507447a9e5c8fba388bcd15aa4612e&#45;&gt;dir_d44c64559bbebec7f509842c48db8b23</title>
<path fill="none" stroke="black" d="M84.61,-215.77C92.37,-206.03 100.95,-193.18 105,-180 119.11,-134.12 119.11,-117.88 105,-72 101.99,-62.22 96.49,-52.62 90.68,-44.33"/>
<polygon fill="black" stroke="black" points="93.41,-42.13 84.61,-36.23 87.81,-46.33 93.41,-42.13"/>
<g id="a_edge4&#45;headlabel"><a xlink:href="dir_000052_000002.html" target="_top" xlink:title="1">
<text text-anchor="middle" x="97.83" y="-40.8" font-family="Helvetica,sans-Serif" font-size="10.00">1</text>
</a>
</g>
</g>
<!-- dir_6d4da112a1331882b0b6514a341190a0&#45;&gt;dir_d44c64559bbebec7f509842c48db8b23 -->
<g id="edge1" class="edge">
<title>dir_6d4da112a1331882b0b6514a341190a0&#45;&gt;dir_d44c64559bbebec7f509842c48db8b23</title>
<path fill="none" stroke="black" d="M63.08,-71.7C62.29,-63.98 62.06,-54.71 62.4,-46.11"/>
<polygon fill="black" stroke="black" points="65.9,-46.32 63.1,-36.1 58.92,-45.84 65.9,-46.32"/>
<g id="a_edge1&#45;headlabel"><a xlink:href="dir_000005_000002.html" target="_top" xlink:title="22">
<text text-anchor="middle" x="68.48" y="-47.61" font-family="Helvetica,sans-Serif" font-size="10.00">22</text>
</a>
</g>
</g>
<!-- dir_a71af90556d13f85baa09aa1db86ef9e&#45;&gt;dir_6d4da112a1331882b0b6514a341190a0 -->
<g id="edge5" class="edge">
<title>dir_a71af90556d13f85baa09aa1db86ef9e&#45;&gt;dir_6d4da112a1331882b0b6514a341190a0</title>
<path fill="none" stroke="black" d="M69,-143.7C69,-135.98 69,-126.71 69,-118.11"/>
<polygon fill="black" stroke="black" points="72.5,-118.1 69,-108.1 65.5,-118.1 72.5,-118.1"/>
<g id="a_edge5&#45;headlabel"><a xlink:href="dir_000050_000005.html" target="_top" xlink:title="1">
<text text-anchor="middle" x="75.34" y="-119.2" font-family="Helvetica,sans-Serif" font-size="10.00">1</text>
</a>
</g>
</g>
<!-- dir_d44c64559bbebec7f509842c48db8b23&#45;&gt;dir_6d4da112a1331882b0b6514a341190a0 -->
<g id="edge6" class="edge">
<title>dir_d44c64559bbebec7f509842c48db8b23&#45;&gt;dir_6d4da112a1331882b0b6514a341190a0</title>
<path fill="none" stroke="black" d="M74.9,-36.1C75.7,-43.79 75.94,-53.05 75.6,-61.67"/>
<polygon fill="black" stroke="black" points="72.11,-61.48 74.92,-71.7 79.09,-61.96 72.11,-61.48"/>
<g id="a_edge6&#45;headlabel"><a xlink:href="dir_000002_000005.html" target="_top" xlink:title="2">
<text text-anchor="middle" x="69.52" y="-55.2" font-family="Helvetica,sans-Serif" font-size="10.00">2</text>
</a>
</g>
</g>
</g>
</svg>
