<?xml version="1.0" encoding="UTF-8" standalone="no"?>
<!DOCTYPE svg PUBLIC "-//W3C//DTD SVG 1.1//EN"
 "http://www.w3.org/Graphics/SVG/1.1/DTD/svg11.dtd">
<!-- Generated by graphviz version 2.44.0 ()
 -->
<!-- Title: modules/elements/DisplacementFiniteStrainULElement/src/DisplacementFiniteStrainULElement.cpp Pages: 1 -->
<svg width="1856pt" height="486pt"
 viewBox="0.00 0.00 1855.50 486.00" xmlns="http://www.w3.org/2000/svg" xmlns:xlink="http://www.w3.org/1999/xlink">
<g id="graph0" class="graph" transform="scale(1 1) rotate(0) translate(4 482)">
<title>modules/elements/DisplacementFiniteStrainULElement/src/DisplacementFiniteStrainULElement.cpp</title>
<polygon fill="white" stroke="transparent" points="-4,4 -4,-482 1851.5,-482 1851.5,4 -4,4"/>
<!-- Node1 -->
<g id="node1" class="node">
<title>Node1</title>
<g id="a_node1"><a xlink:title=" ">
<polygon fill="#bfbfbf" stroke="black" points="847,-436.5 847,-477.5 1042,-477.5 1042,-436.5 847,-436.5"/>
<text text-anchor="start" x="855" y="-465.5" font-family="Helvetica,sans-Serif" font-size="10.00">modules/elements/Displacement</text>
<text text-anchor="start" x="855" y="-454.5" font-family="Helvetica,sans-Serif" font-size="10.00">FiniteStrainULElement/src</text>
<text text-anchor="middle" x="944.5" y="-443.5" font-family="Helvetica,sans-Serif" font-size="10.00">/DisplacementFiniteStrainULElement.cpp</text>
</a>
</g>
</g>
<!-- Node2 -->
<g id="node2" class="node">
<title>Node2</title>
<g id="a_node2"><a xlink:href="DisplacementFiniteStrainULElement_8h.html" target="_top" xlink:title=" ">
<polygon fill="white" stroke="black" points="876.5,-369.5 876.5,-399.5 1012.5,-399.5 1012.5,-369.5 876.5,-369.5"/>
<text text-anchor="start" x="884.5" y="-387.5" font-family="Helvetica,sans-Serif" font-size="10.00">Marmot/DisplacementFinite</text>
<text text-anchor="middle" x="944.5" y="-376.5" font-family="Helvetica,sans-Serif" font-size="10.00">StrainULElement.h</text>
</a>
</g>
</g>
<!-- Node1&#45;&gt;Node2 -->
<g id="edge1" class="edge">
<title>Node1&#45;&gt;Node2</title>
<path fill="none" stroke="midnightblue" d="M944.5,-436.36C944.5,-428.23 944.5,-418.7 944.5,-410.11"/>
<polygon fill="midnightblue" stroke="midnightblue" points="948,-409.89 944.5,-399.89 941,-409.89 948,-409.89"/>
</g>
<!-- Node3 -->
<g id="node3" class="node">
<title>Node3</title>
<g id="a_node3"><a xlink:href="Marmot_8h.html" target="_top" xlink:title=" ">
<polygon fill="white" stroke="black" points="1439,-308 1439,-327 1532,-327 1532,-308 1439,-308"/>
<text text-anchor="middle" x="1485.5" y="-315" font-family="Helvetica,sans-Serif" font-size="10.00">Marmot/Marmot.h</text>
</a>
</g>
</g>
<!-- Node1&#45;&gt;Node3 -->
<g id="edge77" class="edge">
<title>Node1&#45;&gt;Node3</title>
<path fill="none" stroke="midnightblue" d="M1021.44,-436.45C1136.72,-407.15 1350.51,-352.81 1442.06,-329.54"/>
<polygon fill="midnightblue" stroke="midnightblue" points="1443,-332.91 1451.83,-327.06 1441.27,-326.13 1443,-332.91"/>
</g>
<!-- Node33 -->
<g id="node33" class="node">
<title>Node33</title>
<g id="a_node33"><a xlink:href="MarmotFiniteElement_8h.html" target="_top" xlink:title=" ">
<polygon fill="white" stroke="black" points="48.5,-246.5 48.5,-265.5 200.5,-265.5 200.5,-246.5 48.5,-246.5"/>
<text text-anchor="middle" x="124.5" y="-253.5" font-family="Helvetica,sans-Serif" font-size="10.00">Marmot/MarmotFiniteElement.h</text>
</a>
</g>
</g>
<!-- Node1&#45;&gt;Node33 -->
<g id="edge78" class="edge">
<title>Node1&#45;&gt;Node33</title>
<path fill="none" stroke="midnightblue" d="M846.85,-451.26C662.84,-440.62 273.52,-409.52 165.5,-333 146.05,-319.22 134.94,-293.24 129.32,-275.53"/>
<polygon fill="midnightblue" stroke="midnightblue" points="132.64,-274.39 126.5,-265.76 125.91,-276.33 132.64,-274.39"/>
</g>
<!-- Node2&#45;&gt;Node3 -->
<g id="edge2" class="edge">
<title>Node2&#45;&gt;Node3</title>
<path fill="none" stroke="midnightblue" d="M1012.88,-377.45C1102.89,-369.16 1265.94,-352.98 1404.5,-333 1413.13,-331.76 1422.25,-330.28 1431.13,-328.75"/>
<polygon fill="midnightblue" stroke="midnightblue" points="1431.78,-332.19 1441.02,-327.02 1430.57,-325.3 1431.78,-332.19"/>
</g>
<!-- Node4 -->
<g id="node4" class="node">
<title>Node4</title>
<g id="a_node4"><a xlink:href="MarmotElement_8h.html" target="_top" xlink:title=" ">
<polygon fill="white" stroke="black" points="1461.5,-246.5 1461.5,-265.5 1589.5,-265.5 1589.5,-246.5 1461.5,-246.5"/>
<text text-anchor="middle" x="1525.5" y="-253.5" font-family="Helvetica,sans-Serif" font-size="10.00">Marmot/MarmotElement.h</text>
</a>
</g>
</g>
<!-- Node2&#45;&gt;Node4 -->
<g id="edge22" class="edge">
<title>Node2&#45;&gt;Node4</title>
<path fill="none" stroke="midnightblue" d="M1012.64,-380.6C1093.31,-375.88 1231.14,-363.71 1345.5,-333 1375.59,-324.92 1455.17,-289.3 1497.73,-269.83"/>
<polygon fill="midnightblue" stroke="midnightblue" points="1499.33,-272.95 1506.96,-265.59 1496.41,-266.58 1499.33,-272.95"/>
</g>
<!-- Node5 -->
<g id="node5" class="node">
<title>Node5</title>
<g id="a_node5"><a xlink:href="MarmotElementProperty_8h.html" target="_top" xlink:title=" ">
<polygon fill="white" stroke="black" points="1321.5,-190.5 1321.5,-209.5 1485.5,-209.5 1485.5,-190.5 1321.5,-190.5"/>
<text text-anchor="middle" x="1403.5" y="-197.5" font-family="Helvetica,sans-Serif" font-size="10.00">Marmot/MarmotElementProperty.h</text>
</a>
</g>
</g>
<!-- Node2&#45;&gt;Node5 -->
<g id="edge23" class="edge">
<title>Node2&#45;&gt;Node5</title>
<path fill="none" stroke="midnightblue" d="M1012.89,-377.45C1111.41,-368.22 1284.09,-349.89 1307.5,-333 1342.48,-307.76 1323.95,-280 1350.5,-246 1359.44,-234.55 1371.68,-223.93 1382.15,-215.88"/>
<polygon fill="midnightblue" stroke="midnightblue" points="1384.46,-218.52 1390.41,-209.76 1380.29,-212.9 1384.46,-218.52"/>
</g>
<!-- Node6 -->
<g id="node6" class="node">
<title>Node6</title>
<g id="a_node6"><a xlink:href="MarmotJournal_8h.html" target="_top" xlink:title=" ">
<polygon fill="white" stroke="black" points="1026,-134.5 1026,-153.5 1151,-153.5 1151,-134.5 1026,-134.5"/>
<text text-anchor="middle" x="1088.5" y="-141.5" font-family="Helvetica,sans-Serif" font-size="10.00">Marmot/MarmotJournal.h</text>
</a>
</g>
</g>
<!-- Node2&#45;&gt;Node6 -->
<g id="edge59" class="edge">
<title>Node2&#45;&gt;Node6</title>
<path fill="none" stroke="midnightblue" d="M1012.7,-382.26C1094.15,-379.17 1223.23,-368.62 1253.5,-333 1277.35,-304.94 1296.57,-260.12 1235.5,-190 1223.24,-175.93 1180.51,-163.8 1144.25,-155.69"/>
<polygon fill="midnightblue" stroke="midnightblue" points="1144.74,-152.22 1134.23,-153.51 1143.26,-159.06 1144.74,-152.22"/>
</g>
<!-- Node7 -->
<g id="node7" class="node">
<title>Node7</title>
<g id="a_node7"><a xlink:title=" ">
<polygon fill="white" stroke="#bfbfbf" points="980.5,-73 980.5,-92 1034.5,-92 1034.5,-73 980.5,-73"/>
<text text-anchor="middle" x="1007.5" y="-80" font-family="Helvetica,sans-Serif" font-size="10.00">iostream</text>
</a>
</g>
</g>
<!-- Node2&#45;&gt;Node7 -->
<g id="edge73" class="edge">
<title>Node2&#45;&gt;Node7</title>
<path fill="none" stroke="midnightblue" d="M933.24,-369.26C916.63,-346.78 887.5,-301.08 887.5,-257 887.5,-257 887.5,-257 887.5,-199 887.5,-149.31 941.57,-114.29 977.12,-96.63"/>
<polygon fill="midnightblue" stroke="midnightblue" points="979.08,-99.57 986.6,-92.11 976.06,-93.26 979.08,-99.57"/>
</g>
<!-- Node12 -->
<g id="node12" class="node">
<title>Node12</title>
<g id="a_node12"><a xlink:title=" ">
<polygon fill="white" stroke="#bfbfbf" points="963.5,-190.5 963.5,-209.5 1007.5,-209.5 1007.5,-190.5 963.5,-190.5"/>
<text text-anchor="middle" x="985.5" y="-197.5" font-family="Helvetica,sans-Serif" font-size="10.00">vector</text>
</a>
</g>
</g>
<!-- Node2&#45;&gt;Node12 -->
<g id="edge76" class="edge">
<title>Node2&#45;&gt;Node12</title>
<path fill="none" stroke="midnightblue" d="M941.23,-369.23C936.05,-343.55 928.12,-288.3 944.5,-246 948.95,-234.5 957.87,-224.13 966.25,-216.25"/>
<polygon fill="midnightblue" stroke="midnightblue" points="968.74,-218.73 973.96,-209.51 964.13,-213.46 968.74,-218.73"/>
</g>
<!-- Node16 -->
<g id="node16" class="node">
<title>Node16</title>
<g id="a_node16"><a xlink:href="MarmotConstants_8h.html" target="_top" xlink:title=" ">
<polygon fill="white" stroke="black" points="814,-73 814,-92 951,-92 951,-73 814,-73"/>
<text text-anchor="middle" x="882.5" y="-80" font-family="Helvetica,sans-Serif" font-size="10.00">Marmot/MarmotConstants.h</text>
</a>
</g>
</g>
<!-- Node2&#45;&gt;Node16 -->
<g id="edge20" class="edge">
<title>Node2&#45;&gt;Node16</title>
<path fill="none" stroke="midnightblue" d="M1012.66,-381.95C1209.06,-377.16 1763.95,-361.18 1790.5,-333 1849.4,-270.48 1742.41,-215.84 1660.5,-190 1365.87,-97.07 1277.1,-143.29 971.5,-98 962.4,-96.65 952.79,-95.16 943.39,-93.66"/>
<polygon fill="midnightblue" stroke="midnightblue" points="943.72,-90.17 933.29,-92.03 942.61,-97.08 943.72,-90.17"/>
</g>
<!-- Node18 -->
<g id="node18" class="node">
<title>Node18</title>
<g id="a_node18"><a xlink:href="MarmotFastorTensorBasics_8h.html" target="_top" xlink:title=" ">
<polygon fill="white" stroke="black" points="505,-302.5 505,-332.5 648,-332.5 648,-302.5 505,-302.5"/>
<text text-anchor="start" x="513" y="-320.5" font-family="Helvetica,sans-Serif" font-size="10.00">Marmot/MarmotFastorTensor</text>
<text text-anchor="middle" x="576.5" y="-309.5" font-family="Helvetica,sans-Serif" font-size="10.00">Basics.h</text>
</a>
</g>
</g>
<!-- Node2&#45;&gt;Node18 -->
<g id="edge24" class="edge">
<title>Node2&#45;&gt;Node18</title>
<path fill="none" stroke="midnightblue" d="M876.14,-371.43C814.46,-360.53 723.61,-344.48 658.14,-332.92"/>
<polygon fill="midnightblue" stroke="midnightblue" points="658.72,-329.47 648.26,-331.17 657.5,-336.36 658.72,-329.47"/>
</g>
<!-- Node21 -->
<g id="node21" class="node">
<title>Node21</title>
<g id="a_node21"><a xlink:href="MarmotTensor_8h.html" target="_top" xlink:title=" ">
<polygon fill="white" stroke="black" points="387,-246.5 387,-265.5 510,-265.5 510,-246.5 387,-246.5"/>
<text text-anchor="middle" x="448.5" y="-253.5" font-family="Helvetica,sans-Serif" font-size="10.00">Marmot/MarmotTensor.h</text>
</a>
</g>
</g>
<!-- Node2&#45;&gt;Node21 -->
<g id="edge71" class="edge">
<title>Node2&#45;&gt;Node21</title>
<path fill="none" stroke="midnightblue" d="M876.41,-383C766.79,-381.03 557.22,-372.08 495.5,-333 474.56,-319.74 461.45,-293.44 454.56,-275.53"/>
<polygon fill="midnightblue" stroke="midnightblue" points="457.78,-274.14 451.13,-265.89 451.18,-276.48 457.78,-274.14"/>
</g>
<!-- Node22 -->
<g id="node22" class="node">
<title>Node22</title>
<g id="a_node22"><a xlink:href="MarmotTypedefs_8h.html" target="_top" xlink:title=" ">
<polygon fill="white" stroke="black" points="58,-73 58,-92 191,-92 191,-73 58,-73"/>
<text text-anchor="middle" x="124.5" y="-80" font-family="Helvetica,sans-Serif" font-size="10.00">Marmot/MarmotTypedefs.h</text>
</a>
</g>
</g>
<!-- Node2&#45;&gt;Node22 -->
<g id="edge72" class="edge">
<title>Node2&#45;&gt;Node22</title>
<path fill="none" stroke="midnightblue" d="M876.4,-382.7C712.2,-380.2 298.26,-370.28 165.5,-333 95.45,-313.33 20.5,-329.76 20.5,-257 20.5,-257 20.5,-257 20.5,-199 20.5,-152.29 68.05,-115.94 98.84,-97.3"/>
<polygon fill="midnightblue" stroke="midnightblue" points="100.91,-100.15 107.79,-92.09 97.39,-94.1 100.91,-100.15"/>
</g>
<!-- Node26 -->
<g id="node26" class="node">
<title>Node26</title>
<g id="a_node26"><a xlink:href="MarmotMath_8h.html" target="_top" xlink:title=" ">
<polygon fill="white" stroke="black" points="425,-134.5 425,-153.5 540,-153.5 540,-134.5 425,-134.5"/>
<text text-anchor="middle" x="482.5" y="-141.5" font-family="Helvetica,sans-Serif" font-size="10.00">Marmot/MarmotMath.h</text>
</a>
</g>
</g>
<!-- Node2&#45;&gt;Node26 -->
<g id="edge64" class="edge">
<title>Node2&#45;&gt;Node26</title>
<path fill="none" stroke="midnightblue" d="M918.81,-369.47C904.15,-360.5 886.23,-347.79 873.5,-333 845.24,-300.15 862.84,-273.68 829.5,-246 749.05,-179.2 626.28,-156.57 550.39,-148.91"/>
<polygon fill="midnightblue" stroke="midnightblue" points="550.29,-145.39 540,-147.93 549.63,-152.36 550.29,-145.39"/>
</g>
<!-- Node2&#45;&gt;Node33 -->
<g id="edge46" class="edge">
<title>Node2&#45;&gt;Node33</title>
<path fill="none" stroke="midnightblue" d="M876.45,-384.09C719.06,-384.61 334.3,-380.79 215.5,-333 183.66,-320.19 154.7,-291.83 138.37,-273.61"/>
<polygon fill="midnightblue" stroke="midnightblue" points="140.61,-270.85 131.41,-265.59 135.32,-275.44 140.61,-270.85"/>
</g>
<!-- Node34 -->
<g id="node34" class="node">
<title>Node34</title>
<g id="a_node34"><a xlink:href="MarmotGeometryElement_8h.html" target="_top" xlink:title=" ">
<polygon fill="white" stroke="black" points="224.5,-308 224.5,-327 394.5,-327 394.5,-308 224.5,-308"/>
<text text-anchor="middle" x="309.5" y="-315" font-family="Helvetica,sans-Serif" font-size="10.00">Marmot/MarmotGeometryElement.h</text>
</a>
</g>
</g>
<!-- Node2&#45;&gt;Node34 -->
<g id="edge49" class="edge">
<title>Node2&#45;&gt;Node34</title>
<path fill="none" stroke="midnightblue" d="M876.3,-376.61C780.68,-366.94 601.33,-348.75 448.5,-333 433.16,-331.42 416.86,-329.73 401.03,-328.08"/>
<polygon fill="midnightblue" stroke="midnightblue" points="401.02,-324.56 390.71,-327.01 400.3,-331.52 401.02,-324.56"/>
</g>
<!-- Node36 -->
<g id="node36" class="node">
<title>Node36</title>
<g id="a_node36"><a xlink:href="MarmotGeostaticStress_8h.html" target="_top" xlink:title=" ">
<polygon fill="white" stroke="black" points="1617.5,-308 1617.5,-327 1781.5,-327 1781.5,-308 1617.5,-308"/>
<text text-anchor="middle" x="1699.5" y="-315" font-family="Helvetica,sans-Serif" font-size="10.00">Marmot/MarmotGeostaticStress.h</text>
</a>
</g>
</g>
<!-- Node2&#45;&gt;Node36 -->
<g id="edge55" class="edge">
<title>Node2&#45;&gt;Node36</title>
<path fill="none" stroke="midnightblue" d="M1012.89,-377.85C1123.71,-368.66 1349.39,-349.81 1540.5,-333 1562.17,-331.09 1585.5,-328.99 1607.43,-327"/>
<polygon fill="midnightblue" stroke="midnightblue" points="1607.75,-330.48 1617.39,-326.09 1607.12,-323.51 1607.75,-330.48"/>
</g>
<!-- Node37 -->
<g id="node37" class="node">
<title>Node37</title>
<g id="a_node37"><a xlink:href="MarmotMaterialFiniteStrain_8h.html" target="_top" xlink:title=" ">
<polygon fill="white" stroke="black" points="677.5,-302.5 677.5,-332.5 821.5,-332.5 821.5,-302.5 677.5,-302.5"/>
<text text-anchor="start" x="685.5" y="-320.5" font-family="Helvetica,sans-Serif" font-size="10.00">Marmot/MarmotMaterialFinite</text>
<text text-anchor="middle" x="749.5" y="-309.5" font-family="Helvetica,sans-Serif" font-size="10.00">Strain.h</text>
</a>
</g>
</g>
<!-- Node2&#45;&gt;Node37 -->
<g id="edge60" class="edge">
<title>Node2&#45;&gt;Node37</title>
<path fill="none" stroke="midnightblue" d="M902.19,-369.4C872.55,-359.52 832.76,-346.25 801.23,-335.74"/>
<polygon fill="midnightblue" stroke="midnightblue" points="802.32,-332.42 791.73,-332.58 800.11,-339.06 802.32,-332.42"/>
</g>
<!-- Node39 -->
<g id="node39" class="node">
<title>Node39</title>
<g id="a_node39"><a xlink:href="MarmotStateVarVectorManager_8h.html" target="_top" xlink:title=" ">
<polygon fill="white" stroke="black" points="1092.5,-302.5 1092.5,-332.5 1244.5,-332.5 1244.5,-302.5 1092.5,-302.5"/>
<text text-anchor="start" x="1100.5" y="-320.5" font-family="Helvetica,sans-Serif" font-size="10.00">Marmot/MarmotStateVarVector</text>
<text text-anchor="middle" x="1168.5" y="-309.5" font-family="Helvetica,sans-Serif" font-size="10.00">Manager.h</text>
</a>
</g>
</g>
<!-- Node2&#45;&gt;Node39 -->
<g id="edge65" class="edge">
<title>Node2&#45;&gt;Node39</title>
<path fill="none" stroke="midnightblue" d="M992.83,-369.48C1027.16,-359.51 1073.43,-346.09 1109.87,-335.51"/>
<polygon fill="midnightblue" stroke="midnightblue" points="1111.24,-338.76 1119.87,-332.61 1109.29,-332.04 1111.24,-338.76"/>
</g>
<!-- Node40 -->
<g id="node40" class="node">
<title>Node40</title>
<g id="a_node40"><a xlink:title=" ">
<polygon fill="white" stroke="#bfbfbf" points="954,-246.5 954,-265.5 1005,-265.5 1005,-246.5 954,-246.5"/>
<text text-anchor="middle" x="979.5" y="-253.5" font-family="Helvetica,sans-Serif" font-size="10.00">memory</text>
</a>
</g>
</g>
<!-- Node2&#45;&gt;Node40 -->
<g id="edge74" class="edge">
<title>Node2&#45;&gt;Node40</title>
<path fill="none" stroke="midnightblue" d="M948.38,-369.48C954.7,-346.62 967.24,-301.3 974.32,-275.71"/>
<polygon fill="midnightblue" stroke="midnightblue" points="977.77,-276.36 977.07,-265.79 971.03,-274.49 977.77,-276.36"/>
</g>
<!-- Node41 -->
<g id="node41" class="node">
<title>Node41</title>
<g id="a_node41"><a xlink:title=" ">
<polygon fill="white" stroke="#bfbfbf" points="991.5,-308 991.5,-327 1053.5,-327 1053.5,-308 991.5,-308"/>
<text text-anchor="middle" x="1022.5" y="-315" font-family="Helvetica,sans-Serif" font-size="10.00">type_traits</text>
</a>
</g>
</g>
<!-- Node2&#45;&gt;Node41 -->
<g id="edge75" class="edge">
<title>Node2&#45;&gt;Node41</title>
<path fill="none" stroke="midnightblue" d="M961.42,-369.4C974.07,-358.86 991.33,-344.48 1004.27,-333.69"/>
<polygon fill="midnightblue" stroke="midnightblue" points="1006.62,-336.29 1012.07,-327.19 1002.14,-330.91 1006.62,-336.29"/>
</g>
<!-- Node3&#45;&gt;Node4 -->
<g id="edge3" class="edge">
<title>Node3&#45;&gt;Node4</title>
<path fill="none" stroke="midnightblue" d="M1491.23,-307.98C1497.17,-299.14 1506.62,-285.09 1514.09,-273.98"/>
<polygon fill="midnightblue" stroke="midnightblue" points="1517.11,-275.76 1519.78,-265.51 1511.3,-271.86 1517.11,-275.76"/>
</g>
<!-- Node3&#45;&gt;Node7 -->
<g id="edge17" class="edge">
<title>Node3&#45;&gt;Node7</title>
<path fill="none" stroke="midnightblue" d="M1527.2,-307.97C1551.57,-300.83 1580.9,-288.11 1598.5,-266 1619.75,-239.3 1631.58,-216.03 1609.5,-190 1528.5,-94.49 1175.3,-127.12 1053.5,-98 1049.87,-97.13 1046.1,-96.12 1042.36,-95.05"/>
<polygon fill="midnightblue" stroke="midnightblue" points="1043.21,-91.66 1032.63,-92.13 1041.2,-98.36 1043.21,-91.66"/>
</g>
<!-- Node9 -->
<g id="node9" class="node">
<title>Node9</title>
<g id="a_node9"><a xlink:title=" ">
<polygon fill="white" stroke="#bfbfbf" points="1235,-73 1235,-92 1276,-92 1276,-73 1235,-73"/>
<text text-anchor="middle" x="1255.5" y="-80" font-family="Helvetica,sans-Serif" font-size="10.00">string</text>
</a>
</g>
</g>
<!-- Node3&#45;&gt;Node9 -->
<g id="edge18" class="edge">
<title>Node3&#45;&gt;Node9</title>
<path fill="none" stroke="midnightblue" d="M1512.99,-307.92C1542.57,-298.48 1590.84,-282.44 1631.5,-266 1651.04,-258.1 1655.27,-254.64 1674.5,-246 1711.18,-229.52 1735.44,-243.62 1757.5,-210 1776.03,-181.76 1780.16,-159.05 1757.5,-134 1725.79,-98.94 1390.64,-87.1 1286.32,-84.25"/>
<polygon fill="midnightblue" stroke="midnightblue" points="1286.22,-80.75 1276.13,-83.98 1286.03,-87.74 1286.22,-80.75"/>
</g>
<!-- Node13 -->
<g id="node13" class="node">
<title>Node13</title>
<g id="a_node13"><a xlink:href="MarmotMaterial_8h.html" target="_top" xlink:title=" ">
<polygon fill="white" stroke="black" points="1061.5,-246.5 1061.5,-265.5 1189.5,-265.5 1189.5,-246.5 1061.5,-246.5"/>
<text text-anchor="middle" x="1125.5" y="-253.5" font-family="Helvetica,sans-Serif" font-size="10.00">Marmot/MarmotMaterial.h</text>
</a>
</g>
</g>
<!-- Node3&#45;&gt;Node13 -->
<g id="edge13" class="edge">
<title>Node3&#45;&gt;Node13</title>
<path fill="none" stroke="midnightblue" d="M1438.81,-308.78C1374.52,-298.16 1258.64,-279 1187.25,-267.21"/>
<polygon fill="midnightblue" stroke="midnightblue" points="1187.49,-263.7 1177.06,-265.52 1186.35,-270.61 1187.49,-263.7"/>
</g>
<!-- Node14 -->
<g id="node14" class="node">
<title>Node14</title>
<g id="a_node14"><a xlink:title=" ">
<polygon fill="white" stroke="#bfbfbf" points="1684,-246.5 1684,-265.5 1743,-265.5 1743,-246.5 1684,-246.5"/>
<text text-anchor="middle" x="1713.5" y="-253.5" font-family="Helvetica,sans-Serif" font-size="10.00">functional</text>
</a>
</g>
</g>
<!-- Node3&#45;&gt;Node14 -->
<g id="edge16" class="edge">
<title>Node3&#45;&gt;Node14</title>
<path fill="none" stroke="midnightblue" d="M1518.17,-307.98C1559.29,-297.24 1629.88,-278.82 1673.99,-267.31"/>
<polygon fill="midnightblue" stroke="midnightblue" points="1675,-270.66 1683.8,-264.75 1673.24,-263.89 1675,-270.66"/>
</g>
<!-- Node15 -->
<g id="node15" class="node">
<title>Node15</title>
<g id="a_node15"><a xlink:title=" ">
<polygon fill="white" stroke="#bfbfbf" points="1360,-246.5 1360,-265.5 1443,-265.5 1443,-246.5 1360,-246.5"/>
<text text-anchor="middle" x="1401.5" y="-253.5" font-family="Helvetica,sans-Serif" font-size="10.00">unordered_map</text>
</a>
</g>
</g>
<!-- Node3&#45;&gt;Node15 -->
<g id="edge19" class="edge">
<title>Node3&#45;&gt;Node15</title>
<path fill="none" stroke="midnightblue" d="M1473.46,-307.98C1459.99,-298.43 1437.93,-282.81 1421.78,-271.37"/>
<polygon fill="midnightblue" stroke="midnightblue" points="1423.7,-268.43 1413.51,-265.51 1419.65,-274.15 1423.7,-268.43"/>
</g>
<!-- Node4&#45;&gt;Node5 -->
<g id="edge4" class="edge">
<title>Node4&#45;&gt;Node5</title>
<path fill="none" stroke="midnightblue" d="M1506.17,-246.44C1486.18,-237.6 1454.76,-223.69 1431.94,-213.59"/>
<polygon fill="midnightblue" stroke="midnightblue" points="1433.3,-210.36 1422.74,-209.52 1430.47,-216.76 1433.3,-210.36"/>
</g>
<!-- Node4&#45;&gt;Node6 -->
<g id="edge5" class="edge">
<title>Node4&#45;&gt;Node6</title>
<path fill="none" stroke="midnightblue" d="M1524.07,-246.1C1521.23,-231.68 1513.46,-203.46 1494.5,-190 1434.53,-147.42 1238.58,-162.27 1165.5,-154 1164.04,-153.83 1162.56,-153.67 1161.07,-153.5"/>
<polygon fill="midnightblue" stroke="midnightblue" points="1161.44,-150.02 1151.11,-152.36 1160.65,-156.97 1161.44,-150.02"/>
</g>
<!-- Node4&#45;&gt;Node9 -->
<g id="edge11" class="edge">
<title>Node4&#45;&gt;Node9</title>
<path fill="none" stroke="midnightblue" d="M1553.9,-246.44C1585.02,-235.57 1628.2,-215.16 1609.5,-190 1570.1,-137 1365.23,-100.38 1286.43,-88.06"/>
<polygon fill="midnightblue" stroke="midnightblue" points="1286.59,-84.55 1276.18,-86.49 1285.53,-91.47 1286.59,-84.55"/>
</g>
<!-- Node10 -->
<g id="node10" class="node">
<title>Node10</title>
<g id="a_node10"><a xlink:href="MarmotUtils_8h.html" target="_top" xlink:title=" ">
<polygon fill="white" stroke="black" points="1114,-190.5 1114,-209.5 1227,-209.5 1227,-190.5 1114,-190.5"/>
<text text-anchor="middle" x="1170.5" y="-197.5" font-family="Helvetica,sans-Serif" font-size="10.00">Marmot/MarmotUtils.h</text>
</a>
</g>
</g>
<!-- Node4&#45;&gt;Node10 -->
<g id="edge9" class="edge">
<title>Node4&#45;&gt;Node10</title>
<path fill="none" stroke="midnightblue" d="M1469.25,-246.44C1406.02,-236.83 1303.48,-221.23 1236.51,-211.04"/>
<polygon fill="midnightblue" stroke="midnightblue" points="1236.9,-207.56 1226.49,-209.52 1235.85,-214.48 1236.9,-207.56"/>
</g>
<!-- Node11 -->
<g id="node11" class="node">
<title>Node11</title>
<g id="a_node11"><a xlink:title=" ">
<polygon fill="white" stroke="#bfbfbf" points="1542,-190.5 1542,-209.5 1601,-209.5 1601,-190.5 1542,-190.5"/>
<text text-anchor="middle" x="1571.5" y="-197.5" font-family="Helvetica,sans-Serif" font-size="10.00">stdexcept</text>
</a>
</g>
</g>
<!-- Node4&#45;&gt;Node11 -->
<g id="edge10" class="edge">
<title>Node4&#45;&gt;Node11</title>
<path fill="none" stroke="midnightblue" d="M1533.1,-246.08C1539.73,-238.3 1549.52,-226.8 1557.56,-217.37"/>
<polygon fill="midnightblue" stroke="midnightblue" points="1560.23,-219.63 1564.05,-209.75 1554.9,-215.09 1560.23,-219.63"/>
</g>
<!-- Node4&#45;&gt;Node12 -->
<g id="edge12" class="edge">
<title>Node4&#45;&gt;Node12</title>
<path fill="none" stroke="midnightblue" d="M1461.34,-247.1C1458.01,-246.72 1454.72,-246.35 1451.5,-246 1289,-228.28 1094.23,-210.63 1018.17,-203.87"/>
<polygon fill="midnightblue" stroke="midnightblue" points="1018.1,-200.35 1007.83,-202.96 1017.48,-207.33 1018.1,-200.35"/>
</g>
<!-- Node6&#45;&gt;Node7 -->
<g id="edge6" class="edge">
<title>Node6&#45;&gt;Node7</title>
<path fill="none" stroke="midnightblue" d="M1076.89,-134.48C1064.02,-125.02 1043.03,-109.6 1027.49,-98.19"/>
<polygon fill="midnightblue" stroke="midnightblue" points="1029.22,-95.11 1019.08,-92.01 1025.07,-100.75 1029.22,-95.11"/>
</g>
<!-- Node8 -->
<g id="node8" class="node">
<title>Node8</title>
<g id="a_node8"><a xlink:title=" ">
<polygon fill="white" stroke="#bfbfbf" points="1062.5,-73 1062.5,-92 1114.5,-92 1114.5,-73 1062.5,-73"/>
<text text-anchor="middle" x="1088.5" y="-80" font-family="Helvetica,sans-Serif" font-size="10.00">sstream</text>
</a>
</g>
</g>
<!-- Node6&#45;&gt;Node8 -->
<g id="edge7" class="edge">
<title>Node6&#45;&gt;Node8</title>
<path fill="none" stroke="midnightblue" d="M1088.5,-134.48C1088.5,-126.08 1088.5,-112.98 1088.5,-102.16"/>
<polygon fill="midnightblue" stroke="midnightblue" points="1092,-102.01 1088.5,-92.01 1085,-102.01 1092,-102.01"/>
</g>
<!-- Node6&#45;&gt;Node9 -->
<g id="edge8" class="edge">
<title>Node6&#45;&gt;Node9</title>
<path fill="none" stroke="midnightblue" d="M1112.43,-134.48C1142.05,-123.92 1192.55,-105.93 1224.94,-94.39"/>
<polygon fill="midnightblue" stroke="midnightblue" points="1226.53,-97.54 1234.78,-90.88 1224.18,-90.94 1226.53,-97.54"/>
</g>
<!-- Node13&#45;&gt;Node9 -->
<g id="edge15" class="edge">
<title>Node13&#45;&gt;Node9</title>
<path fill="none" stroke="midnightblue" d="M1118.36,-246.18C1108.85,-233.28 1094.35,-208.78 1104.5,-190 1118.39,-164.3 1135.5,-170.65 1159.5,-154 1186.46,-135.3 1216.89,-112.69 1236.12,-98.21"/>
<polygon fill="midnightblue" stroke="midnightblue" points="1238.25,-100.99 1244.12,-92.17 1234.03,-95.4 1238.25,-100.99"/>
</g>
<!-- Node13&#45;&gt;Node10 -->
<g id="edge14" class="edge">
<title>Node13&#45;&gt;Node10</title>
<path fill="none" stroke="midnightblue" d="M1132.93,-246.08C1139.35,-238.38 1148.81,-227.03 1156.62,-217.65"/>
<polygon fill="midnightblue" stroke="midnightblue" points="1159.49,-219.67 1163.21,-209.75 1154.12,-215.19 1159.49,-219.67"/>
</g>
<!-- Node17 -->
<g id="node17" class="node">
<title>Node17</title>
<g id="a_node17"><a xlink:title=" ">
<polygon fill="white" stroke="#bfbfbf" points="860.5,-6 860.5,-25 904.5,-25 904.5,-6 860.5,-6"/>
<text text-anchor="middle" x="882.5" y="-13" font-family="Helvetica,sans-Serif" font-size="10.00">cmath</text>
</a>
</g>
</g>
<!-- Node16&#45;&gt;Node17 -->
<g id="edge21" class="edge">
<title>Node16&#45;&gt;Node17</title>
<path fill="none" stroke="midnightblue" d="M882.5,-72.73C882.5,-63.18 882.5,-47.62 882.5,-35.28"/>
<polygon fill="midnightblue" stroke="midnightblue" points="886,-35.13 882.5,-25.13 879,-35.13 886,-35.13"/>
</g>
<!-- Node19 -->
<g id="node19" class="node">
<title>Node19</title>
<g id="a_node19"><a xlink:title=" ">
<polygon fill="white" stroke="#bfbfbf" points="732.5,-6 732.5,-25 796.5,-25 796.5,-6 732.5,-6"/>
<text text-anchor="middle" x="764.5" y="-13" font-family="Helvetica,sans-Serif" font-size="10.00">Eigen/Core</text>
</a>
</g>
</g>
<!-- Node18&#45;&gt;Node19 -->
<g id="edge25" class="edge">
<title>Node18&#45;&gt;Node19</title>
<path fill="none" stroke="midnightblue" d="M578.08,-302.42C580.24,-287.55 585.1,-263.85 595.5,-246 642.66,-165.08 699.73,-179.71 745.5,-98 756.46,-78.43 761.11,-52.83 763.08,-35.58"/>
<polygon fill="midnightblue" stroke="midnightblue" points="766.61,-35.44 764.05,-25.16 759.64,-34.79 766.61,-35.44"/>
</g>
<!-- Node20 -->
<g id="node20" class="node">
<title>Node20</title>
<g id="a_node20"><a xlink:title=" ">
<polygon fill="white" stroke="#bfbfbf" points="605,-246.5 605,-265.5 688,-265.5 688,-246.5 605,-246.5"/>
<text text-anchor="middle" x="646.5" y="-253.5" font-family="Helvetica,sans-Serif" font-size="10.00">Fastor/Fastor.h</text>
</a>
</g>
</g>
<!-- Node18&#45;&gt;Node20 -->
<g id="edge26" class="edge">
<title>Node18&#45;&gt;Node20</title>
<path fill="none" stroke="midnightblue" d="M593.09,-302.4C603.79,-293.31 617.69,-281.49 628.63,-272.19"/>
<polygon fill="midnightblue" stroke="midnightblue" points="630.96,-274.8 636.31,-265.66 626.43,-269.47 630.96,-274.8"/>
</g>
<!-- Node18&#45;&gt;Node21 -->
<g id="edge27" class="edge">
<title>Node18&#45;&gt;Node21</title>
<path fill="none" stroke="midnightblue" d="M546.17,-302.4C524.98,-292.55 496.91,-279.5 476.3,-269.92"/>
<polygon fill="midnightblue" stroke="midnightblue" points="477.67,-266.7 467.13,-265.66 474.72,-273.05 477.67,-266.7"/>
</g>
<!-- Node30 -->
<g id="node30" class="node">
<title>Node30</title>
<g id="a_node30"><a xlink:title=" ">
<polygon fill="white" stroke="#bfbfbf" points="632.5,-67.5 632.5,-97.5 736.5,-97.5 736.5,-67.5 632.5,-67.5"/>
<text text-anchor="start" x="640.5" y="-85.5" font-family="Helvetica,sans-Serif" font-size="10.00">autodiff/forward/dual</text>
<text text-anchor="middle" x="684.5" y="-74.5" font-family="Helvetica,sans-Serif" font-size="10.00">/dual.hpp</text>
</a>
</g>
</g>
<!-- Node18&#45;&gt;Node30 -->
<g id="edge45" class="edge">
<title>Node18&#45;&gt;Node30</title>
<path fill="none" stroke="midnightblue" d="M569.52,-302.45C563.32,-288.03 556.14,-265.06 562.5,-246 581.97,-187.63 631.54,-133.37 661.16,-104.71"/>
<polygon fill="midnightblue" stroke="midnightblue" points="663.74,-107.08 668.58,-97.66 658.92,-102 663.74,-107.08"/>
</g>
<!-- Node21&#45;&gt;Node6 -->
<g id="edge28" class="edge">
<title>Node21&#45;&gt;Node6</title>
<path fill="none" stroke="midnightblue" d="M498.19,-246.46C614.31,-226.5 903.12,-176.86 1028.65,-155.29"/>
<polygon fill="midnightblue" stroke="midnightblue" points="1029.58,-158.68 1038.84,-153.53 1028.4,-151.78 1029.58,-158.68"/>
</g>
<!-- Node21&#45;&gt;Node22 -->
<g id="edge29" class="edge">
<title>Node21&#45;&gt;Node22</title>
<path fill="none" stroke="midnightblue" d="M435.33,-246.47C403.15,-225.8 317.65,-171.96 242.5,-134 214.01,-119.61 180.45,-105.51 156.42,-95.88"/>
<polygon fill="midnightblue" stroke="midnightblue" points="157.65,-92.61 147.07,-92.17 155.07,-99.11 157.65,-92.61"/>
</g>
<!-- Node25 -->
<g id="node25" class="node">
<title>Node25</title>
<g id="a_node25"><a xlink:href="MarmotVoigt_8h.html" target="_top" xlink:title=" ">
<polygon fill="white" stroke="black" points="386.5,-190.5 386.5,-209.5 502.5,-209.5 502.5,-190.5 386.5,-190.5"/>
<text text-anchor="middle" x="444.5" y="-197.5" font-family="Helvetica,sans-Serif" font-size="10.00">Marmot/MarmotVoigt.h</text>
</a>
</g>
</g>
<!-- Node21&#45;&gt;Node25 -->
<g id="edge33" class="edge">
<title>Node21&#45;&gt;Node25</title>
<path fill="none" stroke="midnightblue" d="M447.84,-246.08C447.32,-239.01 446.56,-228.86 445.91,-219.99"/>
<polygon fill="midnightblue" stroke="midnightblue" points="449.38,-219.47 445.15,-209.75 442.4,-219.98 449.38,-219.47"/>
</g>
<!-- Node32 -->
<g id="node32" class="node">
<title>Node32</title>
<g id="a_node32"><a xlink:title=" ">
<polygon fill="white" stroke="#bfbfbf" points="521,-190.5 521,-209.5 560,-209.5 560,-190.5 521,-190.5"/>
<text text-anchor="middle" x="540.5" y="-197.5" font-family="Helvetica,sans-Serif" font-size="10.00">utility</text>
</a>
</g>
</g>
<!-- Node21&#45;&gt;Node32 -->
<g id="edge44" class="edge">
<title>Node21&#45;&gt;Node32</title>
<path fill="none" stroke="midnightblue" d="M463.28,-246.32C477.77,-237.82 500.07,-224.73 516.99,-214.8"/>
<polygon fill="midnightblue" stroke="midnightblue" points="518.9,-217.74 525.76,-209.65 515.36,-211.7 518.9,-217.74"/>
</g>
<!-- Node22&#45;&gt;Node19 -->
<g id="edge30" class="edge">
<title>Node22&#45;&gt;Node19</title>
<path fill="none" stroke="midnightblue" d="M164.46,-72.99C175.75,-70.8 188.08,-68.61 199.5,-67 393.83,-39.6 627.98,-24.26 722.2,-18.8"/>
<polygon fill="midnightblue" stroke="midnightblue" points="722.41,-22.3 732.2,-18.23 722.01,-15.31 722.41,-22.3"/>
</g>
<!-- Node23 -->
<g id="node23" class="node">
<title>Node23</title>
<g id="a_node23"><a xlink:title=" ">
<polygon fill="white" stroke="#bfbfbf" points="149,-6 149,-25 220,-25 220,-6 149,-6"/>
<text text-anchor="middle" x="184.5" y="-13" font-family="Helvetica,sans-Serif" font-size="10.00">Eigen/Dense</text>
</a>
</g>
</g>
<!-- Node22&#45;&gt;Node23 -->
<g id="edge31" class="edge">
<title>Node22&#45;&gt;Node23</title>
<path fill="none" stroke="midnightblue" d="M132.59,-72.73C142.04,-62.5 157.86,-45.36 169.55,-32.69"/>
<polygon fill="midnightblue" stroke="midnightblue" points="172.33,-34.85 176.54,-25.13 167.18,-30.1 172.33,-34.85"/>
</g>
<!-- Node24 -->
<g id="node24" class="node">
<title>Node24</title>
<g id="a_node24"><a xlink:title=" ">
<polygon fill="white" stroke="#bfbfbf" points="0,-0.5 0,-30.5 131,-30.5 131,-0.5 0,-0.5"/>
<text text-anchor="start" x="8" y="-18.5" font-family="Helvetica,sans-Serif" font-size="10.00">unsupported/Eigen/CXX11</text>
<text text-anchor="middle" x="65.5" y="-7.5" font-family="Helvetica,sans-Serif" font-size="10.00">/Tensor</text>
</a>
</g>
</g>
<!-- Node22&#45;&gt;Node24 -->
<g id="edge32" class="edge">
<title>Node22&#45;&gt;Node24</title>
<path fill="none" stroke="midnightblue" d="M116.54,-72.73C108.57,-63.95 95.98,-50.08 85.3,-38.31"/>
<polygon fill="midnightblue" stroke="midnightblue" points="87.6,-35.64 78.29,-30.59 82.42,-40.35 87.6,-35.64"/>
</g>
<!-- Node25&#45;&gt;Node6 -->
<g id="edge34" class="edge">
<title>Node25&#45;&gt;Node6</title>
<path fill="none" stroke="midnightblue" d="M502.58,-191C505.6,-190.64 508.58,-190.31 511.5,-190 692.26,-170.83 905.7,-156.28 1015.36,-149.39"/>
<polygon fill="midnightblue" stroke="midnightblue" points="1015.88,-152.87 1025.64,-148.75 1015.44,-145.88 1015.88,-152.87"/>
</g>
<!-- Node25&#45;&gt;Node22 -->
<g id="edge43" class="edge">
<title>Node25&#45;&gt;Node22</title>
<path fill="none" stroke="midnightblue" d="M437.57,-190.24C425.8,-176.03 400.46,-148.12 372.5,-134 368.13,-131.79 249.63,-108.18 178.04,-94.04"/>
<polygon fill="midnightblue" stroke="midnightblue" points="178.33,-90.53 167.84,-92.02 176.97,-97.39 178.33,-90.53"/>
</g>
<!-- Node25&#45;&gt;Node26 -->
<g id="edge35" class="edge">
<title>Node25&#45;&gt;Node26</title>
<path fill="none" stroke="midnightblue" d="M450.77,-190.08C456.14,-182.46 464.02,-171.26 470.58,-161.94"/>
<polygon fill="midnightblue" stroke="midnightblue" points="473.45,-163.94 476.34,-153.75 467.72,-159.91 473.45,-163.94"/>
</g>
<!-- Node26&#45;&gt;Node16 -->
<g id="edge36" class="edge">
<title>Node26&#45;&gt;Node16</title>
<path fill="none" stroke="midnightblue" d="M539.81,-134.48C612.58,-123.65 737.95,-105 815.19,-93.51"/>
<polygon fill="midnightblue" stroke="midnightblue" points="815.92,-96.94 825.3,-92.01 814.89,-90.02 815.92,-96.94"/>
</g>
<!-- Node26&#45;&gt;Node22 -->
<g id="edge37" class="edge">
<title>Node26&#45;&gt;Node22</title>
<path fill="none" stroke="midnightblue" d="M425.22,-134.46C367.99,-125.8 277.52,-111.74 199.5,-98 192.32,-96.73 184.76,-95.34 177.32,-93.94"/>
<polygon fill="midnightblue" stroke="midnightblue" points="177.77,-90.46 167.29,-92.03 176.46,-97.34 177.77,-90.46"/>
</g>
<!-- Node27 -->
<g id="node27" class="node">
<title>Node27</title>
<g id="a_node27"><a xlink:title=" ">
<polygon fill="white" stroke="#bfbfbf" points="280.5,-73 280.5,-92 402.5,-92 402.5,-73 280.5,-73"/>
<text text-anchor="middle" x="341.5" y="-80" font-family="Helvetica,sans-Serif" font-size="10.00">autodiff/forward/dual.hpp</text>
</a>
</g>
</g>
<!-- Node26&#45;&gt;Node27 -->
<g id="edge38" class="edge">
<title>Node26&#45;&gt;Node27</title>
<path fill="none" stroke="midnightblue" d="M462.3,-134.48C438.43,-124.4 398.5,-107.55 371.13,-96"/>
<polygon fill="midnightblue" stroke="midnightblue" points="372.24,-92.67 361.66,-92.01 369.52,-99.12 372.24,-92.67"/>
</g>
<!-- Node28 -->
<g id="node28" class="node">
<title>Node28</title>
<g id="a_node28"><a xlink:title=" ">
<polygon fill="white" stroke="#bfbfbf" points="420.5,-73 420.5,-92 540.5,-92 540.5,-73 420.5,-73"/>
<text text-anchor="middle" x="480.5" y="-80" font-family="Helvetica,sans-Serif" font-size="10.00">autodiff/forward/real.hpp</text>
</a>
</g>
</g>
<!-- Node26&#45;&gt;Node28 -->
<g id="edge39" class="edge">
<title>Node26&#45;&gt;Node28</title>
<path fill="none" stroke="midnightblue" d="M482.21,-134.48C481.93,-126.08 481.49,-112.98 481.13,-102.16"/>
<polygon fill="midnightblue" stroke="midnightblue" points="484.62,-101.89 480.79,-92.01 477.62,-102.12 484.62,-101.89"/>
</g>
<!-- Node29 -->
<g id="node29" class="node">
<title>Node29</title>
<g id="a_node29"><a xlink:title=" ">
<polygon fill="white" stroke="#bfbfbf" points="558.5,-73 558.5,-92 614.5,-92 614.5,-73 558.5,-73"/>
<text text-anchor="middle" x="586.5" y="-80" font-family="Helvetica,sans-Serif" font-size="10.00">algorithm</text>
</a>
</g>
</g>
<!-- Node26&#45;&gt;Node29 -->
<g id="edge40" class="edge">
<title>Node26&#45;&gt;Node29</title>
<path fill="none" stroke="midnightblue" d="M497.4,-134.48C514.47,-124.71 542.66,-108.58 562.76,-97.08"/>
<polygon fill="midnightblue" stroke="midnightblue" points="564.69,-100.01 571.63,-92.01 561.21,-93.94 564.69,-100.01"/>
</g>
<!-- Node26&#45;&gt;Node30 -->
<g id="edge41" class="edge">
<title>Node26&#45;&gt;Node30</title>
<path fill="none" stroke="midnightblue" d="M511.44,-134.48C541.48,-125.63 589.28,-111.55 627.03,-100.43"/>
<polygon fill="midnightblue" stroke="midnightblue" points="628.29,-103.71 636.89,-97.52 626.31,-96.99 628.29,-103.71"/>
</g>
<!-- Node31 -->
<g id="node31" class="node">
<title>Node31</title>
<g id="a_node31"><a xlink:title=" ">
<polygon fill="white" stroke="#bfbfbf" points="209,-73 209,-92 262,-92 262,-73 209,-73"/>
<text text-anchor="middle" x="235.5" y="-80" font-family="Helvetica,sans-Serif" font-size="10.00">complex</text>
</a>
</g>
</g>
<!-- Node26&#45;&gt;Node31 -->
<g id="edge42" class="edge">
<title>Node26&#45;&gt;Node31</title>
<path fill="none" stroke="midnightblue" d="M430.27,-134.46C387.17,-126.79 324.69,-114.25 271.5,-98 269.22,-97.3 266.88,-96.52 264.54,-95.69"/>
<polygon fill="midnightblue" stroke="midnightblue" points="265.68,-92.38 255.09,-92.1 263.19,-98.92 265.68,-92.38"/>
</g>
<!-- Node33&#45;&gt;Node12 -->
<g id="edge48" class="edge">
<title>Node33&#45;&gt;Node12</title>
<path fill="none" stroke="midnightblue" d="M200.6,-249.29C216.12,-248.16 232.33,-247.02 247.5,-246 520.56,-227.69 850.68,-208.66 953.42,-202.82"/>
<polygon fill="midnightblue" stroke="midnightblue" points="953.67,-206.31 963.46,-202.25 953.27,-199.32 953.67,-206.31"/>
</g>
<!-- Node33&#45;&gt;Node22 -->
<g id="edge47" class="edge">
<title>Node33&#45;&gt;Node22</title>
<path fill="none" stroke="midnightblue" d="M124.5,-246.26C124.5,-219.65 124.5,-139.21 124.5,-102.34"/>
<polygon fill="midnightblue" stroke="midnightblue" points="128,-102.02 124.5,-92.02 121,-102.02 128,-102.02"/>
</g>
<!-- Node34&#45;&gt;Node7 -->
<g id="edge53" class="edge">
<title>Node34&#45;&gt;Node7</title>
<path fill="none" stroke="midnightblue" d="M311.31,-307.99C316.75,-284.77 335.21,-220.01 377.5,-190 404.2,-171.06 927.59,-105.31 959.5,-98 963.44,-97.1 967.54,-96.04 971.6,-94.92"/>
<polygon fill="midnightblue" stroke="midnightblue" points="972.88,-98.2 981.52,-92.06 970.94,-91.47 972.88,-98.2"/>
</g>
<!-- Node34&#45;&gt;Node22 -->
<g id="edge51" class="edge">
<title>Node34&#45;&gt;Node22</title>
<path fill="none" stroke="midnightblue" d="M296.7,-307.79C283.47,-298.42 262.67,-282.61 247.5,-266 197.76,-211.54 153.1,-135.45 134.14,-101.31"/>
<polygon fill="midnightblue" stroke="midnightblue" points="136.98,-99.21 129.1,-92.13 130.84,-102.58 136.98,-99.21"/>
</g>
<!-- Node34&#45;&gt;Node25 -->
<g id="edge52" class="edge">
<title>Node34&#45;&gt;Node25</title>
<path fill="none" stroke="midnightblue" d="M316.92,-307.68C328.88,-293.72 353.52,-266.1 377.5,-246 391.2,-234.52 407.88,-223.31 421.17,-214.95"/>
<polygon fill="midnightblue" stroke="midnightblue" points="423.09,-217.88 429.76,-209.65 419.41,-211.92 423.09,-217.88"/>
</g>
<!-- Node34&#45;&gt;Node33 -->
<g id="edge50" class="edge">
<title>Node34&#45;&gt;Node33</title>
<path fill="none" stroke="midnightblue" d="M282.99,-307.98C250.85,-297.64 196.51,-280.16 160.57,-268.6"/>
<polygon fill="midnightblue" stroke="midnightblue" points="161.55,-265.24 150.96,-265.51 159.4,-271.9 161.55,-265.24"/>
</g>
<!-- Node35 -->
<g id="node35" class="node">
<title>Node35</title>
<g id="a_node35"><a xlink:title=" ">
<polygon fill="white" stroke="#bfbfbf" points="257,-246.5 257,-265.5 292,-265.5 292,-246.5 257,-246.5"/>
<text text-anchor="middle" x="274.5" y="-253.5" font-family="Helvetica,sans-Serif" font-size="10.00">map</text>
</a>
</g>
</g>
<!-- Node34&#45;&gt;Node35 -->
<g id="edge54" class="edge">
<title>Node34&#45;&gt;Node35</title>
<path fill="none" stroke="midnightblue" d="M304.49,-307.98C299.34,-299.23 291.19,-285.37 284.68,-274.31"/>
<polygon fill="midnightblue" stroke="midnightblue" points="287.59,-272.35 279.51,-265.51 281.56,-275.9 287.59,-272.35"/>
</g>
<!-- Node36&#45;&gt;Node6 -->
<g id="edge56" class="edge">
<title>Node36&#45;&gt;Node6</title>
<path fill="none" stroke="midnightblue" d="M1713.93,-307.97C1734.22,-294.86 1767.07,-268.88 1751.5,-246 1732.41,-217.96 1642.54,-197.68 1609.5,-190 1416.65,-145.2 1362.52,-173.5 1165.5,-154 1164.04,-153.86 1162.55,-153.71 1161.06,-153.55"/>
<polygon fill="midnightblue" stroke="midnightblue" points="1161.41,-150.07 1151.09,-152.5 1160.67,-157.03 1161.41,-150.07"/>
</g>
<!-- Node36&#45;&gt;Node14 -->
<g id="edge58" class="edge">
<title>Node36&#45;&gt;Node14</title>
<path fill="none" stroke="midnightblue" d="M1701.51,-307.98C1703.5,-299.49 1706.63,-286.2 1709.19,-275.32"/>
<polygon fill="midnightblue" stroke="midnightblue" points="1712.61,-276.04 1711.5,-265.51 1705.8,-274.44 1712.61,-276.04"/>
</g>
<!-- Node36&#45;&gt;Node19 -->
<g id="edge57" class="edge">
<title>Node36&#45;&gt;Node19</title>
<path fill="none" stroke="midnightblue" d="M1729.45,-308C1772.7,-293.67 1847.5,-260.32 1847.5,-201 1847.5,-201 1847.5,-201 1847.5,-143 1847.5,-31.64 962.01,-44.78 851.5,-31 836.83,-29.17 820.85,-26.66 806.63,-24.24"/>
<polygon fill="midnightblue" stroke="midnightblue" points="807.09,-20.77 796.63,-22.5 805.89,-27.66 807.09,-20.77"/>
</g>
<!-- Node37&#45;&gt;Node13 -->
<g id="edge62" class="edge">
<title>Node37&#45;&gt;Node13</title>
<path fill="none" stroke="midnightblue" d="M821.55,-305.1C891.02,-294.11 995.14,-277.63 1061.69,-267.1"/>
<polygon fill="midnightblue" stroke="midnightblue" points="1062.3,-270.54 1071.63,-265.52 1061.21,-263.63 1062.3,-270.54"/>
</g>
<!-- Node37&#45;&gt;Node20 -->
<g id="edge61" class="edge">
<title>Node37&#45;&gt;Node20</title>
<path fill="none" stroke="midnightblue" d="M725.09,-302.4C708.58,-292.86 686.88,-280.32 670.46,-270.84"/>
<polygon fill="midnightblue" stroke="midnightblue" points="671.9,-267.63 661.49,-265.66 668.4,-273.69 671.9,-267.63"/>
</g>
<!-- Node38 -->
<g id="node38" class="node">
<title>Node38</title>
<g id="a_node38"><a xlink:title=" ">
<polygon fill="white" stroke="#bfbfbf" points="706,-246.5 706,-265.5 821,-265.5 821,-246.5 706,-246.5"/>
<text text-anchor="middle" x="763.5" y="-253.5" font-family="Helvetica,sans-Serif" font-size="10.00">Fastor/tensor/Tensor.h</text>
</a>
</g>
</g>
<!-- Node37&#45;&gt;Node38 -->
<g id="edge63" class="edge">
<title>Node37&#45;&gt;Node38</title>
<path fill="none" stroke="midnightblue" d="M752.82,-302.4C754.71,-294.38 757.09,-284.23 759.13,-275.57"/>
<polygon fill="midnightblue" stroke="midnightblue" points="762.58,-276.19 761.46,-265.66 755.77,-274.59 762.58,-276.19"/>
</g>
<!-- Node39&#45;&gt;Node9 -->
<g id="edge68" class="edge">
<title>Node39&#45;&gt;Node9</title>
<path fill="none" stroke="midnightblue" d="M1183.81,-302.16C1193.32,-292.61 1205.26,-279.41 1213.5,-266 1246.08,-212.99 1253.42,-137.25 1255.05,-102.39"/>
<polygon fill="midnightblue" stroke="midnightblue" points="1258.55,-102.34 1255.41,-92.22 1251.56,-102.09 1258.55,-102.34"/>
</g>
<!-- Node39&#45;&gt;Node10 -->
<g id="edge66" class="edge">
<title>Node39&#45;&gt;Node10</title>
<path fill="none" stroke="midnightblue" d="M1179.67,-302.43C1186.59,-292.79 1194.83,-279.37 1198.5,-266 1200.85,-257.43 1200.94,-254.55 1198.5,-246 1195.6,-235.84 1189.67,-225.75 1184.01,-217.7"/>
<polygon fill="midnightblue" stroke="midnightblue" points="1186.72,-215.48 1177.91,-209.59 1181.12,-219.69 1186.72,-215.48"/>
</g>
<!-- Node39&#45;&gt;Node12 -->
<g id="edge70" class="edge">
<title>Node39&#45;&gt;Node12</title>
<path fill="none" stroke="midnightblue" d="M1126.65,-302.47C1103.72,-293.78 1075.4,-281.35 1052.5,-266 1031.79,-252.12 1011.78,-231.46 999.11,-217.17"/>
<polygon fill="midnightblue" stroke="midnightblue" points="1001.73,-214.86 992.54,-209.59 996.44,-219.44 1001.73,-214.86"/>
</g>
<!-- Node39&#45;&gt;Node15 -->
<g id="edge69" class="edge">
<title>Node39&#45;&gt;Node15</title>
<path fill="none" stroke="midnightblue" d="M1223.42,-302.47C1264.67,-291.94 1320.38,-277.72 1358.43,-268"/>
<polygon fill="midnightblue" stroke="midnightblue" points="1359.37,-271.37 1368.19,-265.51 1357.63,-264.59 1359.37,-271.37"/>
</g>
<!-- Node39&#45;&gt;Node40 -->
<g id="edge67" class="edge">
<title>Node39&#45;&gt;Node40</title>
<path fill="none" stroke="midnightblue" d="M1123.71,-302.4C1090.46,-291.93 1045.74,-277.85 1014.96,-268.16"/>
<polygon fill="midnightblue" stroke="midnightblue" points="1015.68,-264.72 1005.09,-265.06 1013.58,-271.4 1015.68,-264.72"/>
</g>
</g>
</svg>
