<?xml version="1.0" encoding="UTF-8" standalone="no"?>
<!DOCTYPE svg PUBLIC "-//W3C//DTD SVG 1.1//EN"
 "http://www.w3.org/Graphics/SVG/1.1/DTD/svg11.dtd">
<!-- Generated by graphviz version 2.44.0 ()
 -->
<!-- Title: modules/elements/DisplacementFiniteStrainULElement/src/DisplacementFiniteStrainULElement.cpp Pages: 1 -->
<svg width="2273pt" height="486pt"
 viewBox="0.00 0.00 2272.50 486.00" xmlns="http://www.w3.org/2000/svg" xmlns:xlink="http://www.w3.org/1999/xlink">
<g id="graph0" class="graph" transform="scale(1 1) rotate(0) translate(4 482)">
<title>modules/elements/DisplacementFiniteStrainULElement/src/DisplacementFiniteStrainULElement.cpp</title>
<polygon fill="white" stroke="transparent" points="-4,4 -4,-482 2268.5,-482 2268.5,4 -4,4"/>
<!-- Node1 -->
<g id="node1" class="node">
<title>Node1</title>
<g id="a_node1"><a xlink:title=" ">
<polygon fill="#bfbfbf" stroke="black" points="1110,-436.5 1110,-477.5 1305,-477.5 1305,-436.5 1110,-436.5"/>
<text text-anchor="start" x="1118" y="-465.5" font-family="Helvetica,sans-Serif" font-size="10.00">modules/elements/Displacement</text>
<text text-anchor="start" x="1118" y="-454.5" font-family="Helvetica,sans-Serif" font-size="10.00">FiniteStrainULElement/src</text>
<text text-anchor="middle" x="1207.5" y="-443.5" font-family="Helvetica,sans-Serif" font-size="10.00">/DisplacementFiniteStrainULElement.cpp</text>
</a>
</g>
</g>
<!-- Node2 -->
<g id="node2" class="node">
<title>Node2</title>
<g id="a_node2"><a xlink:href="DisplacementFiniteStrainULElement_8h.html" target="_top" xlink:title=" ">
<polygon fill="white" stroke="black" points="1139.5,-369.5 1139.5,-399.5 1275.5,-399.5 1275.5,-369.5 1139.5,-369.5"/>
<text text-anchor="start" x="1147.5" y="-387.5" font-family="Helvetica,sans-Serif" font-size="10.00">Marmot/DisplacementFinite</text>
<text text-anchor="middle" x="1207.5" y="-376.5" font-family="Helvetica,sans-Serif" font-size="10.00">StrainULElement.h</text>
</a>
</g>
</g>
<!-- Node1&#45;&gt;Node2 -->
<g id="edge1" class="edge">
<title>Node1&#45;&gt;Node2</title>
<path fill="none" stroke="midnightblue" d="M1207.5,-436.36C1207.5,-428.23 1207.5,-418.7 1207.5,-410.11"/>
<polygon fill="midnightblue" stroke="midnightblue" points="1211,-409.89 1207.5,-399.89 1204,-409.89 1211,-409.89"/>
</g>
<!-- Node3 -->
<g id="node3" class="node">
<title>Node3</title>
<g id="a_node3"><a xlink:href="Marmot_8h.html" target="_top" xlink:title=" ">
<polygon fill="white" stroke="black" points="1633,-308 1633,-327 1726,-327 1726,-308 1633,-308"/>
<text text-anchor="middle" x="1679.5" y="-315" font-family="Helvetica,sans-Serif" font-size="10.00">Marmot/Marmot.h</text>
</a>
</g>
</g>
<!-- Node1&#45;&gt;Node3 -->
<g id="edge78" class="edge">
<title>Node1&#45;&gt;Node3</title>
<path fill="none" stroke="midnightblue" d="M1274.62,-436.45C1374.7,-407.29 1559.84,-353.36 1640.38,-329.9"/>
<polygon fill="midnightblue" stroke="midnightblue" points="1641.5,-333.22 1650.12,-327.06 1639.54,-326.5 1641.5,-333.22"/>
</g>
<!-- Node33 -->
<g id="node33" class="node">
<title>Node33</title>
<g id="a_node33"><a xlink:href="MarmotFiniteElement_8h.html" target="_top" xlink:title=" ">
<polygon fill="white" stroke="black" points="425.5,-246.5 425.5,-265.5 577.5,-265.5 577.5,-246.5 425.5,-246.5"/>
<text text-anchor="middle" x="501.5" y="-253.5" font-family="Helvetica,sans-Serif" font-size="10.00">Marmot/MarmotFiniteElement.h</text>
</a>
</g>
</g>
<!-- Node1&#45;&gt;Node33 -->
<g id="edge79" class="edge">
<title>Node1&#45;&gt;Node33</title>
<path fill="none" stroke="midnightblue" d="M1109.74,-449.76C944.27,-437.35 618.45,-404.39 531.5,-333 514.23,-318.82 506.86,-293.32 503.74,-275.8"/>
<polygon fill="midnightblue" stroke="midnightblue" points="507.16,-275.02 502.24,-265.63 500.23,-276.04 507.16,-275.02"/>
</g>
<!-- Node2&#45;&gt;Node3 -->
<g id="edge2" class="edge">
<title>Node2&#45;&gt;Node3</title>
<path fill="none" stroke="midnightblue" d="M1275.75,-375.27C1352.79,-365.82 1481.81,-349.48 1592.5,-333 1602.27,-331.55 1612.64,-329.9 1622.68,-328.26"/>
<polygon fill="midnightblue" stroke="midnightblue" points="1623.29,-331.71 1632.59,-326.63 1622.15,-324.8 1623.29,-331.71"/>
</g>
<!-- Node4 -->
<g id="node4" class="node">
<title>Node4</title>
<g id="a_node4"><a xlink:href="MarmotElement_8h.html" target="_top" xlink:title=" ">
<polygon fill="white" stroke="black" points="1800.5,-246.5 1800.5,-265.5 1928.5,-265.5 1928.5,-246.5 1800.5,-246.5"/>
<text text-anchor="middle" x="1864.5" y="-253.5" font-family="Helvetica,sans-Serif" font-size="10.00">Marmot/MarmotElement.h</text>
</a>
</g>
</g>
<!-- Node2&#45;&gt;Node4 -->
<g id="edge22" class="edge">
<title>Node2&#45;&gt;Node4</title>
<path fill="none" stroke="midnightblue" d="M1275.54,-380.62C1398.06,-374.84 1650.86,-360 1734.5,-333 1777.26,-319.19 1821.21,-289.66 1845.47,-271.75"/>
<polygon fill="midnightblue" stroke="midnightblue" points="1847.59,-274.53 1853.48,-265.73 1843.38,-268.94 1847.59,-274.53"/>
</g>
<!-- Node5 -->
<g id="node5" class="node">
<title>Node5</title>
<g id="a_node5"><a xlink:href="MarmotElementProperty_8h.html" target="_top" xlink:title=" ">
<polygon fill="white" stroke="black" points="1984.5,-190.5 1984.5,-209.5 2148.5,-209.5 2148.5,-190.5 1984.5,-190.5"/>
<text text-anchor="middle" x="2066.5" y="-197.5" font-family="Helvetica,sans-Serif" font-size="10.00">Marmot/MarmotElementProperty.h</text>
</a>
</g>
</g>
<!-- Node2&#45;&gt;Node5 -->
<g id="edge23" class="edge">
<title>Node2&#45;&gt;Node5</title>
<path fill="none" stroke="midnightblue" d="M1275.84,-380.87C1383.7,-375.97 1599.73,-363.05 1780.5,-333 1903.32,-312.59 1965.77,-355.32 2052.5,-266 2064.18,-253.98 2067.11,-234.68 2067.46,-220.23"/>
<polygon fill="midnightblue" stroke="midnightblue" points="2070.96,-219.86 2067.31,-209.92 2063.96,-219.97 2070.96,-219.86"/>
</g>
<!-- Node6 -->
<g id="node6" class="node">
<title>Node6</title>
<g id="a_node6"><a xlink:href="MarmotJournal_8h.html" target="_top" xlink:title=" ">
<polygon fill="white" stroke="black" points="1387,-134.5 1387,-153.5 1512,-153.5 1512,-134.5 1387,-134.5"/>
<text text-anchor="middle" x="1449.5" y="-141.5" font-family="Helvetica,sans-Serif" font-size="10.00">Marmot/MarmotJournal.h</text>
</a>
</g>
</g>
<!-- Node2&#45;&gt;Node6 -->
<g id="edge60" class="edge">
<title>Node2&#45;&gt;Node6</title>
<path fill="none" stroke="midnightblue" d="M1254.97,-369.4C1274.5,-361.49 1295.92,-349.75 1310.5,-333 1354.42,-282.54 1313.55,-240.44 1357.5,-190 1370.8,-174.73 1390.48,-164.14 1408.23,-157.09"/>
<polygon fill="midnightblue" stroke="midnightblue" points="1409.68,-160.28 1417.84,-153.53 1407.24,-153.72 1409.68,-160.28"/>
</g>
<!-- Node7 -->
<g id="node7" class="node">
<title>Node7</title>
<g id="a_node7"><a xlink:title=" ">
<polygon fill="white" stroke="#bfbfbf" points="1199.5,-73 1199.5,-92 1253.5,-92 1253.5,-73 1199.5,-73"/>
<text text-anchor="middle" x="1226.5" y="-80" font-family="Helvetica,sans-Serif" font-size="10.00">iostream</text>
</a>
</g>
</g>
<!-- Node2&#45;&gt;Node7 -->
<g id="edge74" class="edge">
<title>Node2&#45;&gt;Node7</title>
<path fill="none" stroke="midnightblue" d="M1238.84,-369.44C1253.42,-361.11 1269.31,-349.01 1277.5,-333 1283.78,-320.73 1282.4,-314.88 1277.5,-302 1269.89,-281.99 1254.13,-285.59 1245.5,-266 1221.03,-210.48 1222.45,-136.55 1224.79,-102.34"/>
<polygon fill="midnightblue" stroke="midnightblue" points="1228.28,-102.59 1225.58,-92.34 1221.3,-102.04 1228.28,-102.59"/>
</g>
<!-- Node12 -->
<g id="node12" class="node">
<title>Node12</title>
<g id="a_node12"><a xlink:title=" ">
<polygon fill="white" stroke="#bfbfbf" points="1366.5,-190.5 1366.5,-209.5 1410.5,-209.5 1410.5,-190.5 1366.5,-190.5"/>
<text text-anchor="middle" x="1388.5" y="-197.5" font-family="Helvetica,sans-Serif" font-size="10.00">vector</text>
</a>
</g>
</g>
<!-- Node2&#45;&gt;Node12 -->
<g id="edge77" class="edge">
<title>Node2&#45;&gt;Node12</title>
<path fill="none" stroke="midnightblue" d="M1275.7,-372.58C1301.54,-365.28 1329.32,-353.16 1348.5,-333 1378.53,-301.44 1386.08,-248.07 1387.93,-219.83"/>
<polygon fill="midnightblue" stroke="midnightblue" points="1391.44,-219.87 1388.42,-209.71 1384.44,-219.53 1391.44,-219.87"/>
</g>
<!-- Node16 -->
<g id="node16" class="node">
<title>Node16</title>
<g id="a_node16"><a xlink:href="MarmotConstants_8h.html" target="_top" xlink:title=" ">
<polygon fill="white" stroke="black" points="0,-73 0,-92 137,-92 137,-73 0,-73"/>
<text text-anchor="middle" x="68.5" y="-80" font-family="Helvetica,sans-Serif" font-size="10.00">Marmot/MarmotConstants.h</text>
</a>
</g>
</g>
<!-- Node2&#45;&gt;Node16 -->
<g id="edge20" class="edge">
<title>Node2&#45;&gt;Node16</title>
<path fill="none" stroke="midnightblue" d="M1139.3,-383.05C950.39,-381.31 429.89,-372.91 364.5,-333 330.99,-312.55 319.5,-296.25 319.5,-257 319.5,-257 319.5,-257 319.5,-199 319.5,-154.27 186.32,-113.42 113.98,-94.53"/>
<polygon fill="midnightblue" stroke="midnightblue" points="114.75,-91.12 104.2,-92.01 113.01,-97.9 114.75,-91.12"/>
</g>
<!-- Node18 -->
<g id="node18" class="node">
<title>Node18</title>
<g id="a_node18"><a xlink:href="MarmotFastorTensorBasics_8h.html" target="_top" xlink:title=" ">
<polygon fill="white" stroke="black" points="845,-302.5 845,-332.5 988,-332.5 988,-302.5 845,-302.5"/>
<text text-anchor="start" x="853" y="-320.5" font-family="Helvetica,sans-Serif" font-size="10.00">Marmot/MarmotFastorTensor</text>
<text text-anchor="middle" x="916.5" y="-309.5" font-family="Helvetica,sans-Serif" font-size="10.00">Basics.h</text>
</a>
</g>
</g>
<!-- Node2&#45;&gt;Node18 -->
<g id="edge24" class="edge">
<title>Node2&#45;&gt;Node18</title>
<path fill="none" stroke="midnightblue" d="M1144.72,-369.48C1099.09,-359.28 1037.21,-345.46 989.4,-334.78"/>
<polygon fill="midnightblue" stroke="midnightblue" points="989.95,-331.32 979.42,-332.55 988.42,-338.15 989.95,-331.32"/>
</g>
<!-- Node21 -->
<g id="node21" class="node">
<title>Node21</title>
<g id="a_node21"><a xlink:href="MarmotTensor_8h.html" target="_top" xlink:title=" ">
<polygon fill="white" stroke="black" points="764,-246.5 764,-265.5 887,-265.5 887,-246.5 764,-246.5"/>
<text text-anchor="middle" x="825.5" y="-253.5" font-family="Helvetica,sans-Serif" font-size="10.00">Marmot/MarmotTensor.h</text>
</a>
</g>
</g>
<!-- Node2&#45;&gt;Node21 -->
<g id="edge72" class="edge">
<title>Node2&#45;&gt;Node21</title>
<path fill="none" stroke="midnightblue" d="M1139.15,-383.77C1043.52,-382.62 876.83,-374.5 835.5,-333 820.79,-318.23 820.34,-293.07 822.2,-275.77"/>
<polygon fill="midnightblue" stroke="midnightblue" points="825.69,-276.12 823.64,-265.73 818.76,-275.13 825.69,-276.12"/>
</g>
<!-- Node22 -->
<g id="node22" class="node">
<title>Node22</title>
<g id="a_node22"><a xlink:href="MarmotTypedefs_8h.html" target="_top" xlink:title=" ">
<polygon fill="white" stroke="black" points="702,-73 702,-92 835,-92 835,-73 702,-73"/>
<text text-anchor="middle" x="768.5" y="-80" font-family="Helvetica,sans-Serif" font-size="10.00">Marmot/MarmotTypedefs.h</text>
</a>
</g>
</g>
<!-- Node2&#45;&gt;Node22 -->
<g id="edge73" class="edge">
<title>Node2&#45;&gt;Node22</title>
<path fill="none" stroke="midnightblue" d="M1139.36,-382.29C991.09,-379.02 643.54,-367.79 531.5,-333 475.01,-315.46 445.98,-317.29 416.5,-266 393.16,-225.4 450.89,-188.55 565.5,-134 591.79,-121.49 664.76,-104.84 715.63,-94.15"/>
<polygon fill="midnightblue" stroke="midnightblue" points="716.42,-97.56 725.5,-92.09 714.99,-90.71 716.42,-97.56"/>
</g>
<!-- Node26 -->
<g id="node26" class="node">
<title>Node26</title>
<g id="a_node26"><a xlink:href="MarmotMath_8h.html" target="_top" xlink:title=" ">
<polygon fill="white" stroke="black" points="386,-134.5 386,-153.5 501,-153.5 501,-134.5 386,-134.5"/>
<text text-anchor="middle" x="443.5" y="-141.5" font-family="Helvetica,sans-Serif" font-size="10.00">Marmot/MarmotMath.h</text>
</a>
</g>
</g>
<!-- Node2&#45;&gt;Node26 -->
<g id="edge65" class="edge">
<title>Node2&#45;&gt;Node26</title>
<path fill="none" stroke="midnightblue" d="M1139.4,-381.84C946.6,-376.81 409.26,-360.39 383.5,-333 336.78,-283.33 398.98,-197.25 428.97,-161.4"/>
<polygon fill="midnightblue" stroke="midnightblue" points="431.64,-163.66 435.49,-153.79 426.33,-159.11 431.64,-163.66"/>
</g>
<!-- Node2&#45;&gt;Node33 -->
<g id="edge47" class="edge">
<title>Node2&#45;&gt;Node33</title>
<path fill="none" stroke="midnightblue" d="M1139.4,-384.22C996.63,-384.76 671.05,-380.53 572.5,-333 545.63,-320.04 523.87,-292.16 511.82,-274.01"/>
<polygon fill="midnightblue" stroke="midnightblue" points="514.75,-272.09 506.42,-265.54 508.84,-275.85 514.75,-272.09"/>
</g>
<!-- Node34 -->
<g id="node34" class="node">
<title>Node34</title>
<g id="a_node34"><a xlink:href="MarmotGeometryElement_8h.html" target="_top" xlink:title=" ">
<polygon fill="white" stroke="black" points="581.5,-308 581.5,-327 751.5,-327 751.5,-308 581.5,-308"/>
<text text-anchor="middle" x="666.5" y="-315" font-family="Helvetica,sans-Serif" font-size="10.00">Marmot/MarmotGeometryElement.h</text>
</a>
</g>
</g>
<!-- Node2&#45;&gt;Node34 -->
<g id="edge50" class="edge">
<title>Node2&#45;&gt;Node34</title>
<path fill="none" stroke="midnightblue" d="M1139.26,-375.3C1039.5,-363.32 854.19,-341.05 747.61,-328.24"/>
<polygon fill="midnightblue" stroke="midnightblue" points="747.89,-324.75 737.54,-327.04 747.06,-331.7 747.89,-324.75"/>
</g>
<!-- Node36 -->
<g id="node36" class="node">
<title>Node36</title>
<g id="a_node36"><a xlink:href="MarmotGeostaticStress_8h.html" target="_top" xlink:title=" ">
<polygon fill="white" stroke="black" points="2100.5,-308 2100.5,-327 2264.5,-327 2264.5,-308 2100.5,-308"/>
<text text-anchor="middle" x="2182.5" y="-315" font-family="Helvetica,sans-Serif" font-size="10.00">Marmot/MarmotGeostaticStress.h</text>
</a>
</g>
</g>
<!-- Node2&#45;&gt;Node36 -->
<g id="edge56" class="edge">
<title>Node2&#45;&gt;Node36</title>
<path fill="none" stroke="midnightblue" d="M1275.78,-381.73C1423.82,-377.41 1785.28,-364.33 2086.5,-333 2097.91,-331.81 2110.04,-330.23 2121.7,-328.55"/>
<polygon fill="midnightblue" stroke="midnightblue" points="2122.41,-331.98 2131.79,-327.06 2121.39,-325.06 2122.41,-331.98"/>
</g>
<!-- Node37 -->
<g id="node37" class="node">
<title>Node37</title>
<g id="a_node37"><a xlink:href="MarmotMaterialFiniteStrain_8h.html" target="_top" xlink:title=" ">
<polygon fill="white" stroke="black" points="1006.5,-302.5 1006.5,-332.5 1150.5,-332.5 1150.5,-302.5 1006.5,-302.5"/>
<text text-anchor="start" x="1014.5" y="-320.5" font-family="Helvetica,sans-Serif" font-size="10.00">Marmot/MarmotMaterialFinite</text>
<text text-anchor="middle" x="1078.5" y="-309.5" font-family="Helvetica,sans-Serif" font-size="10.00">Strain.h</text>
</a>
</g>
</g>
<!-- Node2&#45;&gt;Node37 -->
<g id="edge61" class="edge">
<title>Node2&#45;&gt;Node37</title>
<path fill="none" stroke="midnightblue" d="M1179.51,-369.4C1160.75,-359.94 1135.83,-347.39 1115.45,-337.12"/>
<polygon fill="midnightblue" stroke="midnightblue" points="1116.94,-333.95 1106.44,-332.58 1113.79,-340.2 1116.94,-333.95"/>
</g>
<!-- Node39 -->
<g id="node39" class="node">
<title>Node39</title>
<g id="a_node39"><a xlink:href="MarmotStateVarVectorManager_8h.html" target="_top" xlink:title=" ">
<polygon fill="white" stroke="black" points="1431.5,-302.5 1431.5,-332.5 1583.5,-332.5 1583.5,-302.5 1431.5,-302.5"/>
<text text-anchor="start" x="1439.5" y="-320.5" font-family="Helvetica,sans-Serif" font-size="10.00">Marmot/MarmotStateVarVector</text>
<text text-anchor="middle" x="1507.5" y="-309.5" font-family="Helvetica,sans-Serif" font-size="10.00">Manager.h</text>
</a>
</g>
</g>
<!-- Node2&#45;&gt;Node39 -->
<g id="edge66" class="edge">
<title>Node2&#45;&gt;Node39</title>
<path fill="none" stroke="midnightblue" d="M1272.23,-369.48C1319.36,-359.26 1383.32,-345.41 1432.65,-334.72"/>
<polygon fill="midnightblue" stroke="midnightblue" points="1433.6,-338.09 1442.63,-332.55 1432.12,-331.25 1433.6,-338.09"/>
</g>
<!-- Node40 -->
<g id="node40" class="node">
<title>Node40</title>
<g id="a_node40"><a xlink:title=" ">
<polygon fill="white" stroke="#bfbfbf" points="1255,-246.5 1255,-265.5 1306,-265.5 1306,-246.5 1255,-246.5"/>
<text text-anchor="middle" x="1280.5" y="-253.5" font-family="Helvetica,sans-Serif" font-size="10.00">memory</text>
</a>
</g>
</g>
<!-- Node2&#45;&gt;Node40 -->
<g id="edge75" class="edge">
<title>Node2&#45;&gt;Node40</title>
<path fill="none" stroke="midnightblue" d="M1200.8,-369.44C1193.68,-352.27 1185.03,-322.95 1197.5,-302 1207.9,-284.53 1227.71,-273.43 1245.36,-266.62"/>
<polygon fill="midnightblue" stroke="midnightblue" points="1246.61,-269.89 1254.88,-263.27 1244.28,-263.29 1246.61,-269.89"/>
</g>
<!-- Node41 -->
<g id="node41" class="node">
<title>Node41</title>
<g id="a_node41"><a xlink:title=" ">
<polygon fill="white" stroke="#bfbfbf" points="1206.5,-308 1206.5,-327 1268.5,-327 1268.5,-308 1206.5,-308"/>
<text text-anchor="middle" x="1237.5" y="-315" font-family="Helvetica,sans-Serif" font-size="10.00">type_traits</text>
</a>
</g>
</g>
<!-- Node2&#45;&gt;Node41 -->
<g id="edge76" class="edge">
<title>Node2&#45;&gt;Node41</title>
<path fill="none" stroke="midnightblue" d="M1214.01,-369.4C1218.46,-359.76 1224.39,-346.91 1229.18,-336.54"/>
<polygon fill="midnightblue" stroke="midnightblue" points="1232.47,-337.74 1233.49,-327.19 1226.12,-334.81 1232.47,-337.74"/>
</g>
<!-- Node3&#45;&gt;Node4 -->
<g id="edge3" class="edge">
<title>Node3&#45;&gt;Node4</title>
<path fill="none" stroke="midnightblue" d="M1706.01,-307.98C1738.15,-297.64 1792.49,-280.16 1828.43,-268.6"/>
<polygon fill="midnightblue" stroke="midnightblue" points="1829.6,-271.9 1838.04,-265.51 1827.45,-265.24 1829.6,-271.9"/>
</g>
<!-- Node3&#45;&gt;Node7 -->
<g id="edge17" class="edge">
<title>Node3&#45;&gt;Node7</title>
<path fill="none" stroke="midnightblue" d="M1635.78,-307.92C1577.79,-296.27 1481.16,-275.76 1467.5,-266 1435,-242.77 1448.57,-217.4 1419.5,-190 1371.55,-144.8 1300.78,-112.22 1259.59,-95.74"/>
<polygon fill="midnightblue" stroke="midnightblue" points="1260.87,-92.48 1250.28,-92.08 1258.31,-98.99 1260.87,-92.48"/>
</g>
<!-- Node9 -->
<g id="node9" class="node">
<title>Node9</title>
<g id="a_node9"><a xlink:title=" ">
<polygon fill="white" stroke="#bfbfbf" points="1690,-73 1690,-92 1731,-92 1731,-73 1690,-73"/>
<text text-anchor="middle" x="1710.5" y="-80" font-family="Helvetica,sans-Serif" font-size="10.00">string</text>
</a>
</g>
</g>
<!-- Node3&#45;&gt;Node9 -->
<g id="edge18" class="edge">
<title>Node3&#45;&gt;Node9</title>
<path fill="none" stroke="midnightblue" d="M1726.19,-308.93C1798.69,-296.95 1930.78,-274.16 1937.5,-266 2003.49,-185.84 1817.57,-116.85 1741.4,-92.69"/>
<polygon fill="midnightblue" stroke="midnightblue" points="1742.01,-89.22 1731.42,-89.59 1739.93,-95.9 1742.01,-89.22"/>
</g>
<!-- Node13 -->
<g id="node13" class="node">
<title>Node13</title>
<g id="a_node13"><a xlink:href="MarmotMaterial_8h.html" target="_top" xlink:title=" ">
<polygon fill="white" stroke="black" points="1476.5,-246.5 1476.5,-265.5 1604.5,-265.5 1604.5,-246.5 1476.5,-246.5"/>
<text text-anchor="middle" x="1540.5" y="-253.5" font-family="Helvetica,sans-Serif" font-size="10.00">Marmot/MarmotMaterial.h</text>
</a>
</g>
</g>
<!-- Node3&#45;&gt;Node13 -->
<g id="edge13" class="edge">
<title>Node3&#45;&gt;Node13</title>
<path fill="none" stroke="midnightblue" d="M1659.58,-307.98C1636.05,-297.9 1596.69,-281.05 1569.71,-269.5"/>
<polygon fill="midnightblue" stroke="midnightblue" points="1570.95,-266.23 1560.38,-265.51 1568.19,-272.66 1570.95,-266.23"/>
</g>
<!-- Node14 -->
<g id="node14" class="node">
<title>Node14</title>
<g id="a_node14"><a xlink:title=" ">
<polygon fill="white" stroke="#bfbfbf" points="1985,-246.5 1985,-265.5 2044,-265.5 2044,-246.5 1985,-246.5"/>
<text text-anchor="middle" x="2014.5" y="-253.5" font-family="Helvetica,sans-Serif" font-size="10.00">functional</text>
</a>
</g>
</g>
<!-- Node3&#45;&gt;Node14 -->
<g id="edge16" class="edge">
<title>Node3&#45;&gt;Node14</title>
<path fill="none" stroke="midnightblue" d="M1726.2,-308.84C1783.74,-299.3 1884.47,-282.26 1970.5,-266 1971.94,-265.73 1973.4,-265.45 1974.87,-265.16"/>
<polygon fill="midnightblue" stroke="midnightblue" points="1975.57,-268.59 1984.7,-263.22 1974.21,-261.73 1975.57,-268.59"/>
</g>
<!-- Node15 -->
<g id="node15" class="node">
<title>Node15</title>
<g id="a_node15"><a xlink:title=" ">
<polygon fill="white" stroke="#bfbfbf" points="1699,-246.5 1699,-265.5 1782,-265.5 1782,-246.5 1699,-246.5"/>
<text text-anchor="middle" x="1740.5" y="-253.5" font-family="Helvetica,sans-Serif" font-size="10.00">unordered_map</text>
</a>
</g>
</g>
<!-- Node3&#45;&gt;Node15 -->
<g id="edge19" class="edge">
<title>Node3&#45;&gt;Node15</title>
<path fill="none" stroke="midnightblue" d="M1688.24,-307.98C1697.66,-298.78 1712.86,-283.96 1724.45,-272.66"/>
<polygon fill="midnightblue" stroke="midnightblue" points="1727.06,-275 1731.78,-265.51 1722.17,-269.99 1727.06,-275"/>
</g>
<!-- Node4&#45;&gt;Node5 -->
<g id="edge4" class="edge">
<title>Node4&#45;&gt;Node5</title>
<path fill="none" stroke="midnightblue" d="M1896.51,-246.44C1931.23,-237.16 1986.79,-222.31 2024.88,-212.13"/>
<polygon fill="midnightblue" stroke="midnightblue" points="2025.89,-215.48 2034.64,-209.52 2024.08,-208.72 2025.89,-215.48"/>
</g>
<!-- Node4&#45;&gt;Node6 -->
<g id="edge5" class="edge">
<title>Node4&#45;&gt;Node6</title>
<path fill="none" stroke="midnightblue" d="M1845.04,-246.46C1813.25,-232.81 1747.98,-205.97 1690.5,-190 1634.51,-174.44 1569.69,-162.68 1521.38,-155.09"/>
<polygon fill="midnightblue" stroke="midnightblue" points="1521.75,-151.6 1511.33,-153.53 1520.68,-158.52 1521.75,-151.6"/>
</g>
<!-- Node4&#45;&gt;Node9 -->
<g id="edge11" class="edge">
<title>Node4&#45;&gt;Node9</title>
<path fill="none" stroke="midnightblue" d="M1863.49,-246.3C1861.61,-233.11 1856.61,-207.75 1844.5,-190 1815.93,-148.14 1765.96,-114.79 1735.78,-97.19"/>
<polygon fill="midnightblue" stroke="midnightblue" points="1737.15,-93.94 1726.73,-92.03 1733.68,-100.02 1737.15,-93.94"/>
</g>
<!-- Node10 -->
<g id="node10" class="node">
<title>Node10</title>
<g id="a_node10"><a xlink:href="MarmotUtils_8h.html" target="_top" xlink:title=" ">
<polygon fill="white" stroke="black" points="1569,-190.5 1569,-209.5 1682,-209.5 1682,-190.5 1569,-190.5"/>
<text text-anchor="middle" x="1625.5" y="-197.5" font-family="Helvetica,sans-Serif" font-size="10.00">Marmot/MarmotUtils.h</text>
</a>
</g>
</g>
<!-- Node4&#45;&gt;Node10 -->
<g id="edge9" class="edge">
<title>Node4&#45;&gt;Node10</title>
<path fill="none" stroke="midnightblue" d="M1826.63,-246.44C1785.02,-237.04 1718.13,-221.93 1673.03,-211.74"/>
<polygon fill="midnightblue" stroke="midnightblue" points="1673.72,-208.31 1663.19,-209.52 1672.18,-215.13 1673.72,-208.31"/>
</g>
<!-- Node11 -->
<g id="node11" class="node">
<title>Node11</title>
<g id="a_node11"><a xlink:title=" ">
<polygon fill="white" stroke="#bfbfbf" points="1777,-190.5 1777,-209.5 1836,-209.5 1836,-190.5 1777,-190.5"/>
<text text-anchor="middle" x="1806.5" y="-197.5" font-family="Helvetica,sans-Serif" font-size="10.00">stdexcept</text>
</a>
</g>
</g>
<!-- Node4&#45;&gt;Node11 -->
<g id="edge10" class="edge">
<title>Node4&#45;&gt;Node11</title>
<path fill="none" stroke="midnightblue" d="M1855.18,-246.32C1846.61,-238.34 1833.69,-226.31 1823.31,-216.65"/>
<polygon fill="midnightblue" stroke="midnightblue" points="1825.69,-214.09 1815.99,-209.83 1820.92,-219.21 1825.69,-214.09"/>
</g>
<!-- Node4&#45;&gt;Node12 -->
<g id="edge12" class="edge">
<title>Node4&#45;&gt;Node12</title>
<path fill="none" stroke="midnightblue" d="M1800.33,-247.16C1797.01,-246.76 1793.71,-246.38 1790.5,-246 1653.11,-229.96 1489.17,-211.96 1420.86,-204.52"/>
<polygon fill="midnightblue" stroke="midnightblue" points="1421.05,-201.02 1410.73,-203.41 1420.3,-207.98 1421.05,-201.02"/>
</g>
<!-- Node6&#45;&gt;Node7 -->
<g id="edge6" class="edge">
<title>Node6&#45;&gt;Node7</title>
<path fill="none" stroke="midnightblue" d="M1417.55,-134.48C1376.85,-123.62 1306.66,-104.89 1263.63,-93.41"/>
<polygon fill="midnightblue" stroke="midnightblue" points="1264.4,-89.99 1253.83,-90.79 1262.59,-96.75 1264.4,-89.99"/>
</g>
<!-- Node8 -->
<g id="node8" class="node">
<title>Node8</title>
<g id="a_node8"><a xlink:title=" ">
<polygon fill="white" stroke="#bfbfbf" points="1423.5,-73 1423.5,-92 1475.5,-92 1475.5,-73 1423.5,-73"/>
<text text-anchor="middle" x="1449.5" y="-80" font-family="Helvetica,sans-Serif" font-size="10.00">sstream</text>
</a>
</g>
</g>
<!-- Node6&#45;&gt;Node8 -->
<g id="edge7" class="edge">
<title>Node6&#45;&gt;Node8</title>
<path fill="none" stroke="midnightblue" d="M1449.5,-134.48C1449.5,-126.08 1449.5,-112.98 1449.5,-102.16"/>
<polygon fill="midnightblue" stroke="midnightblue" points="1453,-102.01 1449.5,-92.01 1446,-102.01 1453,-102.01"/>
</g>
<!-- Node6&#45;&gt;Node9 -->
<g id="edge8" class="edge">
<title>Node6&#45;&gt;Node9</title>
<path fill="none" stroke="midnightblue" d="M1486.89,-134.48C1538.9,-122.62 1632.06,-101.38 1680.06,-90.44"/>
<polygon fill="midnightblue" stroke="midnightblue" points="1680.89,-93.84 1689.86,-88.2 1679.34,-87.01 1680.89,-93.84"/>
</g>
<!-- Node13&#45;&gt;Node9 -->
<g id="edge15" class="edge">
<title>Node13&#45;&gt;Node9</title>
<path fill="none" stroke="midnightblue" d="M1541.23,-246.21C1542.7,-232.92 1547.06,-207.41 1559.5,-190 1591.16,-145.7 1647.22,-113.32 1681.41,-96.54"/>
<polygon fill="midnightblue" stroke="midnightblue" points="1683.33,-99.49 1690.85,-92.02 1680.31,-93.18 1683.33,-99.49"/>
</g>
<!-- Node13&#45;&gt;Node10 -->
<g id="edge14" class="edge">
<title>Node13&#45;&gt;Node10</title>
<path fill="none" stroke="midnightblue" d="M1554.16,-246.32C1567.42,-237.9 1587.77,-224.97 1603.35,-215.07"/>
<polygon fill="midnightblue" stroke="midnightblue" points="1605.31,-217.97 1611.88,-209.65 1601.56,-212.06 1605.31,-217.97"/>
</g>
<!-- Node17 -->
<g id="node17" class="node">
<title>Node17</title>
<g id="a_node17"><a xlink:title=" ">
<polygon fill="white" stroke="#bfbfbf" points="46.5,-6 46.5,-25 90.5,-25 90.5,-6 46.5,-6"/>
<text text-anchor="middle" x="68.5" y="-13" font-family="Helvetica,sans-Serif" font-size="10.00">cmath</text>
</a>
</g>
</g>
<!-- Node16&#45;&gt;Node17 -->
<g id="edge21" class="edge">
<title>Node16&#45;&gt;Node17</title>
<path fill="none" stroke="midnightblue" d="M68.5,-72.73C68.5,-63.18 68.5,-47.62 68.5,-35.28"/>
<polygon fill="midnightblue" stroke="midnightblue" points="72,-35.13 68.5,-25.13 65,-35.13 72,-35.13"/>
</g>
<!-- Node19 -->
<g id="node19" class="node">
<title>Node19</title>
<g id="a_node19"><a xlink:title=" ">
<polygon fill="white" stroke="#bfbfbf" points="921.5,-6 921.5,-25 985.5,-25 985.5,-6 921.5,-6"/>
<text text-anchor="middle" x="953.5" y="-13" font-family="Helvetica,sans-Serif" font-size="10.00">Eigen/Core</text>
</a>
</g>
</g>
<!-- Node18&#45;&gt;Node19 -->
<g id="edge25" class="edge">
<title>Node18&#45;&gt;Node19</title>
<path fill="none" stroke="midnightblue" d="M924.17,-302.38C935,-281.07 953.5,-239.11 953.5,-201 953.5,-201 953.5,-201 953.5,-143 953.5,-104.7 953.5,-59.88 953.5,-35.2"/>
<polygon fill="midnightblue" stroke="midnightblue" points="957,-35.09 953.5,-25.09 950,-35.09 957,-35.09"/>
</g>
<!-- Node20 -->
<g id="node20" class="node">
<title>Node20</title>
<g id="a_node20"><a xlink:title=" ">
<polygon fill="white" stroke="#bfbfbf" points="982,-246.5 982,-265.5 1065,-265.5 1065,-246.5 982,-246.5"/>
<text text-anchor="middle" x="1023.5" y="-253.5" font-family="Helvetica,sans-Serif" font-size="10.00">Fastor/Fastor.h</text>
</a>
</g>
</g>
<!-- Node18&#45;&gt;Node20 -->
<g id="edge26" class="edge">
<title>Node18&#45;&gt;Node20</title>
<path fill="none" stroke="midnightblue" d="M941.86,-302.4C959.17,-292.77 981.98,-280.09 999.08,-270.58"/>
<polygon fill="midnightblue" stroke="midnightblue" points="1000.89,-273.58 1007.93,-265.66 997.49,-267.46 1000.89,-273.58"/>
</g>
<!-- Node18&#45;&gt;Node21 -->
<g id="edge27" class="edge">
<title>Node18&#45;&gt;Node21</title>
<path fill="none" stroke="midnightblue" d="M894.93,-302.4C880.62,-293.04 861.89,-280.79 847.49,-271.38"/>
<polygon fill="midnightblue" stroke="midnightblue" points="849.03,-268.2 838.74,-265.66 845.2,-274.06 849.03,-268.2"/>
</g>
<!-- Node30 -->
<g id="node30" class="node">
<title>Node30</title>
<g id="a_node30"><a xlink:title=" ">
<polygon fill="white" stroke="#bfbfbf" points="155.5,-67.5 155.5,-97.5 259.5,-97.5 259.5,-67.5 155.5,-67.5"/>
<text text-anchor="start" x="163.5" y="-85.5" font-family="Helvetica,sans-Serif" font-size="10.00">autodiff/forward/dual</text>
<text text-anchor="middle" x="207.5" y="-74.5" font-family="Helvetica,sans-Serif" font-size="10.00">/dual.hpp</text>
</a>
</g>
</g>
<!-- Node18&#45;&gt;Node30 -->
<g id="edge46" class="edge">
<title>Node18&#45;&gt;Node30</title>
<path fill="none" stroke="midnightblue" d="M863.53,-302.48C831.49,-293.38 790.09,-280.55 754.5,-266 736.47,-258.63 733.67,-253.03 715.5,-246 569.92,-189.63 523.14,-207.56 376.5,-154 356.7,-146.77 352.84,-142.37 333.5,-134 307.27,-122.65 277.61,-110.72 253.66,-101.31"/>
<polygon fill="midnightblue" stroke="midnightblue" points="254.69,-97.95 244.11,-97.57 252.14,-104.47 254.69,-97.95"/>
</g>
<!-- Node21&#45;&gt;Node6 -->
<g id="edge28" class="edge">
<title>Node21&#45;&gt;Node6</title>
<path fill="none" stroke="midnightblue" d="M873.94,-246.46C987.16,-226.5 1268.75,-176.86 1391.15,-155.29"/>
<polygon fill="midnightblue" stroke="midnightblue" points="1391.85,-158.72 1401.09,-153.53 1390.63,-151.82 1391.85,-158.72"/>
</g>
<!-- Node21&#45;&gt;Node7 -->
<g id="edge44" class="edge">
<title>Node21&#45;&gt;Node7</title>
<path fill="none" stroke="midnightblue" d="M836.33,-246.23C864.25,-224.06 941.69,-165.29 1015.5,-134 1073.65,-109.35 1146.14,-95.32 1189.25,-88.58"/>
<polygon fill="midnightblue" stroke="midnightblue" points="1189.92,-92.02 1199.28,-87.06 1188.87,-85.1 1189.92,-92.02"/>
</g>
<!-- Node21&#45;&gt;Node22 -->
<g id="edge29" class="edge">
<title>Node21&#45;&gt;Node22</title>
<path fill="none" stroke="midnightblue" d="M822.59,-246.26C813.71,-219.54 786.79,-138.52 774.6,-101.86"/>
<polygon fill="midnightblue" stroke="midnightblue" points="777.81,-100.41 771.33,-92.02 771.16,-102.61 777.81,-100.41"/>
</g>
<!-- Node25 -->
<g id="node25" class="node">
<title>Node25</title>
<g id="a_node25"><a xlink:href="MarmotVoigt_8h.html" target="_top" xlink:title=" ">
<polygon fill="white" stroke="black" points="654.5,-190.5 654.5,-209.5 770.5,-209.5 770.5,-190.5 654.5,-190.5"/>
<text text-anchor="middle" x="712.5" y="-197.5" font-family="Helvetica,sans-Serif" font-size="10.00">Marmot/MarmotVoigt.h</text>
</a>
</g>
</g>
<!-- Node21&#45;&gt;Node25 -->
<g id="edge33" class="edge">
<title>Node21&#45;&gt;Node25</title>
<path fill="none" stroke="midnightblue" d="M807.59,-246.44C789.25,-237.68 760.49,-223.94 739.41,-213.86"/>
<polygon fill="midnightblue" stroke="midnightblue" points="740.85,-210.67 730.32,-209.52 737.83,-216.99 740.85,-210.67"/>
</g>
<!-- Node32 -->
<g id="node32" class="node">
<title>Node32</title>
<g id="a_node32"><a xlink:title=" ">
<polygon fill="white" stroke="#bfbfbf" points="827,-190.5 827,-209.5 866,-209.5 866,-190.5 827,-190.5"/>
<text text-anchor="middle" x="846.5" y="-197.5" font-family="Helvetica,sans-Serif" font-size="10.00">utility</text>
</a>
</g>
</g>
<!-- Node21&#45;&gt;Node32 -->
<g id="edge45" class="edge">
<title>Node21&#45;&gt;Node32</title>
<path fill="none" stroke="midnightblue" d="M828.97,-246.08C831.81,-238.77 835.93,-228.18 839.46,-219.1"/>
<polygon fill="midnightblue" stroke="midnightblue" points="842.73,-220.34 843.1,-209.75 836.21,-217.8 842.73,-220.34"/>
</g>
<!-- Node22&#45;&gt;Node19 -->
<g id="edge30" class="edge">
<title>Node22&#45;&gt;Node19</title>
<path fill="none" stroke="midnightblue" d="M793.07,-72.87C825.5,-61.47 882.77,-41.35 919.38,-28.49"/>
<polygon fill="midnightblue" stroke="midnightblue" points="920.85,-31.68 929.13,-25.06 918.53,-25.08 920.85,-31.68"/>
</g>
<!-- Node23 -->
<g id="node23" class="node">
<title>Node23</title>
<g id="a_node23"><a xlink:title=" ">
<polygon fill="white" stroke="#bfbfbf" points="649,-6 649,-25 720,-25 720,-6 649,-6"/>
<text text-anchor="middle" x="684.5" y="-13" font-family="Helvetica,sans-Serif" font-size="10.00">Eigen/Dense</text>
</a>
</g>
</g>
<!-- Node22&#45;&gt;Node23 -->
<g id="edge31" class="edge">
<title>Node22&#45;&gt;Node23</title>
<path fill="none" stroke="midnightblue" d="M757.17,-72.73C743.44,-62.11 720.1,-44.05 703.58,-31.26"/>
<polygon fill="midnightblue" stroke="midnightblue" points="705.7,-28.48 695.65,-25.13 701.42,-34.02 705.7,-28.48"/>
</g>
<!-- Node24 -->
<g id="node24" class="node">
<title>Node24</title>
<g id="a_node24"><a xlink:title=" ">
<polygon fill="white" stroke="#bfbfbf" points="738,-0.5 738,-30.5 869,-30.5 869,-0.5 738,-0.5"/>
<text text-anchor="start" x="746" y="-18.5" font-family="Helvetica,sans-Serif" font-size="10.00">unsupported/Eigen/CXX11</text>
<text text-anchor="middle" x="803.5" y="-7.5" font-family="Helvetica,sans-Serif" font-size="10.00">/Tensor</text>
</a>
</g>
</g>
<!-- Node22&#45;&gt;Node24 -->
<g id="edge32" class="edge">
<title>Node22&#45;&gt;Node24</title>
<path fill="none" stroke="midnightblue" d="M773.22,-72.73C777.77,-64.29 784.85,-51.14 791.02,-39.68"/>
<polygon fill="midnightblue" stroke="midnightblue" points="794.25,-41.05 795.91,-30.59 788.09,-37.73 794.25,-41.05"/>
</g>
<!-- Node25&#45;&gt;Node6 -->
<g id="edge34" class="edge">
<title>Node25&#45;&gt;Node6</title>
<path fill="none" stroke="midnightblue" d="M770.53,-193.88C785.8,-192.57 802.27,-191.19 817.5,-190 1019.76,-174.13 1258.62,-157.77 1376.36,-149.86"/>
<polygon fill="midnightblue" stroke="midnightblue" points="1376.94,-153.33 1386.69,-149.17 1376.47,-146.35 1376.94,-153.33"/>
</g>
<!-- Node25&#45;&gt;Node22 -->
<g id="edge43" class="edge">
<title>Node25&#45;&gt;Node22</title>
<path fill="none" stroke="midnightblue" d="M716.71,-190.32C725.83,-171.51 747.58,-126.65 759.79,-101.46"/>
<polygon fill="midnightblue" stroke="midnightblue" points="763.03,-102.81 764.24,-92.28 756.73,-99.75 763.03,-102.81"/>
</g>
<!-- Node25&#45;&gt;Node26 -->
<g id="edge35" class="edge">
<title>Node25&#45;&gt;Node26</title>
<path fill="none" stroke="midnightblue" d="M669.88,-190.44C622.75,-180.98 546.81,-165.74 496.04,-155.55"/>
<polygon fill="midnightblue" stroke="midnightblue" points="496.42,-152.05 485.92,-153.52 495.04,-158.92 496.42,-152.05"/>
</g>
<!-- Node26&#45;&gt;Node16 -->
<g id="edge36" class="edge">
<title>Node26&#45;&gt;Node16</title>
<path fill="none" stroke="midnightblue" d="M385.92,-134.86C326.02,-126.25 229.55,-112.01 146.5,-98 138.86,-96.71 130.81,-95.29 122.9,-93.85"/>
<polygon fill="midnightblue" stroke="midnightblue" points="123.47,-90.4 113,-92.04 122.21,-97.28 123.47,-90.4"/>
</g>
<!-- Node26&#45;&gt;Node22 -->
<g id="edge37" class="edge">
<title>Node26&#45;&gt;Node22</title>
<path fill="none" stroke="midnightblue" d="M491.73,-134.43C541.9,-125.47 622.75,-110.96 692.5,-98 699.58,-96.68 707.03,-95.28 714.38,-93.89"/>
<polygon fill="midnightblue" stroke="midnightblue" points="715.14,-97.31 724.31,-92.01 713.83,-90.43 715.14,-97.31"/>
</g>
<!-- Node27 -->
<g id="node27" class="node">
<title>Node27</title>
<g id="a_node27"><a xlink:title=" ">
<polygon fill="white" stroke="#bfbfbf" points="561.5,-73 561.5,-92 683.5,-92 683.5,-73 561.5,-73"/>
<text text-anchor="middle" x="622.5" y="-80" font-family="Helvetica,sans-Serif" font-size="10.00">autodiff/forward/dual.hpp</text>
</a>
</g>
</g>
<!-- Node26&#45;&gt;Node27 -->
<g id="edge38" class="edge">
<title>Node26&#45;&gt;Node27</title>
<path fill="none" stroke="midnightblue" d="M469.15,-134.48C500.12,-124.18 552.37,-106.81 587.15,-95.25"/>
<polygon fill="midnightblue" stroke="midnightblue" points="588.52,-98.48 596.9,-92.01 586.31,-91.84 588.52,-98.48"/>
</g>
<!-- Node28 -->
<g id="node28" class="node">
<title>Node28</title>
<g id="a_node28"><a xlink:title=" ">
<polygon fill="white" stroke="#bfbfbf" points="277.5,-73 277.5,-92 397.5,-92 397.5,-73 277.5,-73"/>
<text text-anchor="middle" x="337.5" y="-80" font-family="Helvetica,sans-Serif" font-size="10.00">autodiff/forward/real.hpp</text>
</a>
</g>
</g>
<!-- Node26&#45;&gt;Node28 -->
<g id="edge39" class="edge">
<title>Node26&#45;&gt;Node28</title>
<path fill="none" stroke="midnightblue" d="M428.31,-134.48C410.84,-124.67 381.92,-108.43 361.42,-96.92"/>
<polygon fill="midnightblue" stroke="midnightblue" points="363.09,-93.85 352.66,-92.01 359.67,-99.96 363.09,-93.85"/>
</g>
<!-- Node29 -->
<g id="node29" class="node">
<title>Node29</title>
<g id="a_node29"><a xlink:title=" ">
<polygon fill="white" stroke="#bfbfbf" points="415.5,-73 415.5,-92 471.5,-92 471.5,-73 415.5,-73"/>
<text text-anchor="middle" x="443.5" y="-80" font-family="Helvetica,sans-Serif" font-size="10.00">algorithm</text>
</a>
</g>
</g>
<!-- Node26&#45;&gt;Node29 -->
<g id="edge40" class="edge">
<title>Node26&#45;&gt;Node29</title>
<path fill="none" stroke="midnightblue" d="M443.5,-134.48C443.5,-126.08 443.5,-112.98 443.5,-102.16"/>
<polygon fill="midnightblue" stroke="midnightblue" points="447,-102.01 443.5,-92.01 440,-102.01 447,-102.01"/>
</g>
<!-- Node26&#45;&gt;Node30 -->
<g id="edge41" class="edge">
<title>Node26&#45;&gt;Node30</title>
<path fill="none" stroke="midnightblue" d="M409.69,-134.48C373.19,-125.27 314.28,-110.42 269.44,-99.12"/>
<polygon fill="midnightblue" stroke="midnightblue" points="270.07,-95.67 259.52,-96.62 268.36,-102.45 270.07,-95.67"/>
</g>
<!-- Node31 -->
<g id="node31" class="node">
<title>Node31</title>
<g id="a_node31"><a xlink:title=" ">
<polygon fill="white" stroke="#bfbfbf" points="490,-73 490,-92 543,-92 543,-73 490,-73"/>
<text text-anchor="middle" x="516.5" y="-80" font-family="Helvetica,sans-Serif" font-size="10.00">complex</text>
</a>
</g>
</g>
<!-- Node26&#45;&gt;Node31 -->
<g id="edge42" class="edge">
<title>Node26&#45;&gt;Node31</title>
<path fill="none" stroke="midnightblue" d="M453.96,-134.48C465.45,-125.11 484.13,-109.88 498.09,-98.51"/>
<polygon fill="midnightblue" stroke="midnightblue" points="500.52,-101.04 506.06,-92.01 496.1,-95.61 500.52,-101.04"/>
</g>
<!-- Node33&#45;&gt;Node12 -->
<g id="edge49" class="edge">
<title>Node33&#45;&gt;Node12</title>
<path fill="none" stroke="midnightblue" d="M577.51,-250.37C762.2,-239.13 1228.73,-210.73 1356,-202.98"/>
<polygon fill="midnightblue" stroke="midnightblue" points="1356.48,-206.46 1366.25,-202.35 1356.05,-199.47 1356.48,-206.46"/>
</g>
<!-- Node33&#45;&gt;Node22 -->
<g id="edge48" class="edge">
<title>Node33&#45;&gt;Node22</title>
<path fill="none" stroke="midnightblue" d="M505.38,-246.46C515.89,-224.33 547.13,-164.66 591.5,-134 611.91,-119.9 672.67,-104.33 717.32,-94.26"/>
<polygon fill="midnightblue" stroke="midnightblue" points="718.15,-97.66 727.16,-92.07 716.63,-90.82 718.15,-97.66"/>
</g>
<!-- Node34&#45;&gt;Node7 -->
<g id="edge54" class="edge">
<title>Node34&#45;&gt;Node7</title>
<path fill="none" stroke="midnightblue" d="M727.17,-307.99C774.13,-300.26 840.26,-286.82 895.5,-266 1020.07,-219.04 1155.08,-131.9 1205.75,-97.75"/>
<polygon fill="midnightblue" stroke="midnightblue" points="1207.89,-100.52 1214.2,-92.01 1203.96,-94.73 1207.89,-100.52"/>
</g>
<!-- Node34&#45;&gt;Node22 -->
<g id="edge52" class="edge">
<title>Node34&#45;&gt;Node22</title>
<path fill="none" stroke="midnightblue" d="M661.76,-307.76C650.93,-286.56 626.72,-231.11 645.5,-190 665.31,-146.65 712.44,-114.18 742.27,-97.08"/>
<polygon fill="midnightblue" stroke="midnightblue" points="744.25,-99.98 751.29,-92.07 740.85,-93.86 744.25,-99.98"/>
</g>
<!-- Node34&#45;&gt;Node25 -->
<g id="edge53" class="edge">
<title>Node34&#45;&gt;Node25</title>
<path fill="none" stroke="midnightblue" d="M663.55,-307.8C659.4,-294.01 653.32,-266.61 662.5,-246 668.07,-233.5 679.02,-223.01 689.25,-215.32"/>
<polygon fill="midnightblue" stroke="midnightblue" points="691.35,-218.12 697.55,-209.53 687.34,-212.38 691.35,-218.12"/>
</g>
<!-- Node34&#45;&gt;Node33 -->
<g id="edge51" class="edge">
<title>Node34&#45;&gt;Node33</title>
<path fill="none" stroke="midnightblue" d="M642.86,-307.98C614.56,-297.77 566.97,-280.61 534.91,-269.05"/>
<polygon fill="midnightblue" stroke="midnightblue" points="535.69,-265.61 525.1,-265.51 533.32,-272.19 535.69,-265.61"/>
</g>
<!-- Node35 -->
<g id="node35" class="node">
<title>Node35</title>
<g id="a_node35"><a xlink:title=" ">
<polygon fill="white" stroke="#bfbfbf" points="672,-246.5 672,-265.5 707,-265.5 707,-246.5 672,-246.5"/>
<text text-anchor="middle" x="689.5" y="-253.5" font-family="Helvetica,sans-Serif" font-size="10.00">map</text>
</a>
</g>
</g>
<!-- Node34&#45;&gt;Node35 -->
<g id="edge55" class="edge">
<title>Node34&#45;&gt;Node35</title>
<path fill="none" stroke="midnightblue" d="M669.8,-307.98C673.11,-299.4 678.32,-285.93 682.55,-274.98"/>
<polygon fill="midnightblue" stroke="midnightblue" points="685.87,-276.1 686.21,-265.51 679.34,-273.57 685.87,-276.1"/>
</g>
<!-- Node36&#45;&gt;Node6 -->
<g id="edge57" class="edge">
<title>Node36&#45;&gt;Node6</title>
<path fill="none" stroke="midnightblue" d="M2183.93,-307.73C2187.19,-284.4 2192.35,-220.54 2157.5,-190 2110.52,-148.83 1693.44,-144.65 1522.29,-144.69"/>
<polygon fill="midnightblue" stroke="midnightblue" points="1522.11,-141.19 1512.12,-144.7 1522.12,-148.19 1522.11,-141.19"/>
</g>
<!-- Node36&#45;&gt;Node14 -->
<g id="edge59" class="edge">
<title>Node36&#45;&gt;Node14</title>
<path fill="none" stroke="midnightblue" d="M2158.43,-307.98C2129.49,-297.72 2080.74,-280.46 2048.1,-268.9"/>
<polygon fill="midnightblue" stroke="midnightblue" points="2049.12,-265.55 2038.53,-265.51 2046.78,-272.15 2049.12,-265.55"/>
</g>
<!-- Node36&#45;&gt;Node19 -->
<g id="edge58" class="edge">
<title>Node36&#45;&gt;Node19</title>
<path fill="none" stroke="midnightblue" d="M2186.68,-307.74C2195.36,-288.76 2214.5,-242.2 2214.5,-201 2214.5,-201 2214.5,-201 2214.5,-143 2214.5,-17.65 1215.2,-15.23 995.76,-16.21"/>
<polygon fill="midnightblue" stroke="midnightblue" points="995.6,-12.71 985.62,-16.26 995.64,-19.71 995.6,-12.71"/>
</g>
<!-- Node37&#45;&gt;Node13 -->
<g id="edge63" class="edge">
<title>Node37&#45;&gt;Node13</title>
<path fill="none" stroke="midnightblue" d="M1150.69,-307.2C1236.62,-296.14 1379.37,-277.75 1466.22,-266.57"/>
<polygon fill="midnightblue" stroke="midnightblue" points="1466.79,-270.02 1476.26,-265.27 1465.9,-263.08 1466.79,-270.02"/>
</g>
<!-- Node37&#45;&gt;Node20 -->
<g id="edge62" class="edge">
<title>Node37&#45;&gt;Node20</title>
<path fill="none" stroke="midnightblue" d="M1065.47,-302.4C1057.31,-293.58 1046.78,-282.18 1038.31,-273.02"/>
<polygon fill="midnightblue" stroke="midnightblue" points="1040.86,-270.63 1031.5,-265.66 1035.72,-275.38 1040.86,-270.63"/>
</g>
<!-- Node38 -->
<g id="node38" class="node">
<title>Node38</title>
<g id="a_node38"><a xlink:title=" ">
<polygon fill="white" stroke="#bfbfbf" points="1083,-246.5 1083,-265.5 1198,-265.5 1198,-246.5 1083,-246.5"/>
<text text-anchor="middle" x="1140.5" y="-253.5" font-family="Helvetica,sans-Serif" font-size="10.00">Fastor/tensor/Tensor.h</text>
</a>
</g>
</g>
<!-- Node37&#45;&gt;Node38 -->
<g id="edge64" class="edge">
<title>Node37&#45;&gt;Node38</title>
<path fill="none" stroke="midnightblue" d="M1093.19,-302.4C1102.48,-293.49 1114.5,-281.95 1124.1,-272.74"/>
<polygon fill="midnightblue" stroke="midnightblue" points="1126.69,-275.11 1131.48,-265.66 1121.84,-270.06 1126.69,-275.11"/>
</g>
<!-- Node39&#45;&gt;Node9 -->
<g id="edge69" class="edge">
<title>Node39&#45;&gt;Node9</title>
<path fill="none" stroke="midnightblue" d="M1561.23,-302.44C1605.42,-287.63 1664.79,-259.4 1690.5,-210 1708.66,-175.11 1711.27,-128.03 1711.15,-102.27"/>
<polygon fill="midnightblue" stroke="midnightblue" points="1714.65,-101.99 1710.95,-92.06 1707.65,-102.12 1714.65,-101.99"/>
</g>
<!-- Node39&#45;&gt;Node10 -->
<g id="edge67" class="edge">
<title>Node39&#45;&gt;Node10</title>
<path fill="none" stroke="midnightblue" d="M1560.48,-302.46C1579.91,-294.75 1600.35,-283.14 1613.5,-266 1623.64,-252.78 1626.14,-233.65 1626.4,-219.56"/>
<polygon fill="midnightblue" stroke="midnightblue" points="1629.9,-219.5 1626.24,-209.56 1622.9,-219.61 1629.9,-219.5"/>
</g>
<!-- Node39&#45;&gt;Node12 -->
<g id="edge71" class="edge">
<title>Node39&#45;&gt;Node12</title>
<path fill="none" stroke="midnightblue" d="M1482.55,-302.29C1467.63,-293.09 1448.85,-280.2 1434.5,-266 1420.11,-251.76 1407.13,-232.54 1398.65,-218.7"/>
<polygon fill="midnightblue" stroke="midnightblue" points="1401.44,-216.53 1393.33,-209.72 1395.42,-220.1 1401.44,-216.53"/>
</g>
<!-- Node39&#45;&gt;Node15 -->
<g id="edge70" class="edge">
<title>Node39&#45;&gt;Node15</title>
<path fill="none" stroke="midnightblue" d="M1562.42,-302.47C1603.67,-291.94 1659.38,-277.72 1697.43,-268"/>
<polygon fill="midnightblue" stroke="midnightblue" points="1698.37,-271.37 1707.19,-265.51 1696.63,-264.59 1698.37,-271.37"/>
</g>
<!-- Node39&#45;&gt;Node40 -->
<g id="edge68" class="edge">
<title>Node39&#45;&gt;Node40</title>
<path fill="none" stroke="midnightblue" d="M1453.99,-302.47C1411.34,-291.29 1352.82,-275.96 1315.84,-266.26"/>
<polygon fill="midnightblue" stroke="midnightblue" points="1316.57,-262.84 1306.01,-263.69 1314.79,-269.61 1316.57,-262.84"/>
</g>
</g>
</svg>
