<?xml version="1.0" encoding="UTF-8" standalone="no"?>
<!DOCTYPE svg PUBLIC "-//W3C//DTD SVG 1.1//EN"
 "http://www.w3.org/Graphics/SVG/1.1/DTD/svg11.dtd">
<!-- Generated by graphviz version 3.0.0 (20220413.0106)
 -->
<!-- Title: modules/elements/DisplacementFiniteElement/src/DisplacementFiniteElementRegistration.cpp Pages: 1 -->
<svg width="1767pt" height="352pt"
 viewBox="0.00 0.00 1767.34 352.00" xmlns="http://www.w3.org/2000/svg" xmlns:xlink="http://www.w3.org/1999/xlink">
<g id="graph0" class="graph" transform="scale(1 1) rotate(0) translate(4 348)">
<title>modules/elements/DisplacementFiniteElement/src/DisplacementFiniteElementRegistration.cpp</title>
<polygon fill="white" stroke="transparent" points="-4,4 -4,-348 1763.34,-348 1763.34,4 -4,4"/>
<!-- Node1 -->
<g id="node1" class="node">
<title>Node1</title>
<g id="a_node1"><a xlink:title=" ">
<polygon fill="#bfbfbf" stroke="black" points="754.84,-302.5 754.84,-343.5 933.84,-343.5 933.84,-302.5 754.84,-302.5"/>
<text text-anchor="start" x="762.84" y="-331.5" font-family="Helvetica,sans-Serif" font-size="10.00">modules/elements/Displacement</text>
<text text-anchor="start" x="762.84" y="-320.5" font-family="Helvetica,sans-Serif" font-size="10.00">FiniteElement/src/DisplacementFinite</text>
<text text-anchor="middle" x="844.34" y="-309.5" font-family="Helvetica,sans-Serif" font-size="10.00">ElementRegistration.cpp</text>
</a>
</g>
</g>
<!-- Node2 -->
<g id="node2" class="node">
<title>Node2</title>
<g id="a_node2"><a xlink:href="DisplacementFiniteElement_8h.html" target="_top" xlink:title=" ">
<polygon fill="white" stroke="black" points="878.34,-235.5 878.34,-265.5 1014.34,-265.5 1014.34,-235.5 878.34,-235.5"/>
<text text-anchor="start" x="886.34" y="-253.5" font-family="Helvetica,sans-Serif" font-size="10.00">Marmot/DisplacementFinite</text>
<text text-anchor="middle" x="946.34" y="-242.5" font-family="Helvetica,sans-Serif" font-size="10.00">Element.h</text>
</a>
</g>
</g>
<!-- Node1&#45;&gt;Node2 -->
<g id="edge1" class="edge">
<title>Node1&#45;&gt;Node2</title>
<path fill="none" stroke="midnightblue" d="M872.76,-302.36C886.72,-292.71 903.51,-281.11 917.52,-271.42"/>
<polygon fill="midnightblue" stroke="midnightblue" points="919.61,-274.24 925.84,-265.67 915.63,-268.48 919.61,-274.24"/>
</g>
<!-- Node3 -->
<g id="node3" class="node">
<title>Node3</title>
<g id="a_node3"><a xlink:href="Marmot_8h.html" target="_top" xlink:title=" ">
<polygon fill="white" stroke="black" points="164.84,-174 164.84,-193 257.84,-193 257.84,-174 164.84,-174"/>
<text text-anchor="middle" x="211.34" y="-181" font-family="Helvetica,sans-Serif" font-size="10.00">Marmot/Marmot.h</text>
</a>
</g>
</g>
<!-- Node1&#45;&gt;Node3 -->
<g id="edge43" class="edge">
<title>Node1&#45;&gt;Node3</title>
<path fill="none" stroke="midnightblue" d="M754.66,-302.52C619.19,-273.09 366.94,-218.3 260.62,-195.2"/>
<polygon fill="midnightblue" stroke="midnightblue" points="261.31,-191.77 250.79,-193.07 259.82,-198.61 261.31,-191.77"/>
</g>
<!-- Node14 -->
<g id="node14" class="node">
<title>Node14</title>
<g id="a_node14"><a xlink:href="MarmotFiniteElement_8h.html" target="_top" xlink:title=" ">
<polygon fill="white" stroke="black" points="1485.34,-112.5 1485.34,-131.5 1637.34,-131.5 1637.34,-112.5 1485.34,-112.5"/>
<text text-anchor="middle" x="1561.34" y="-119.5" font-family="Helvetica,sans-Serif" font-size="10.00">Marmot/MarmotFiniteElement.h</text>
</a>
</g>
</g>
<!-- Node1&#45;&gt;Node14 -->
<g id="edge44" class="edge">
<title>Node1&#45;&gt;Node14</title>
<path fill="none" stroke="midnightblue" d="M934.07,-316.39C1098.31,-304.47 1438.73,-271.53 1529.34,-199 1546.95,-184.91 1555,-159.39 1558.6,-141.84"/>
<polygon fill="midnightblue" stroke="midnightblue" points="1562.1,-142.11 1560.37,-131.65 1555.2,-140.91 1562.1,-142.11"/>
</g>
<!-- Node26 -->
<g id="node26" class="node">
<title>Node26</title>
<g id="a_node26"><a xlink:href="MarmotFiniteElementSpatialWrapper_8h.html" target="_top" xlink:title=" ">
<polygon fill="white" stroke="black" points="585.84,-168.5 585.84,-198.5 730.84,-198.5 730.84,-168.5 585.84,-168.5"/>
<text text-anchor="start" x="593.84" y="-186.5" font-family="Helvetica,sans-Serif" font-size="10.00">Marmot/MarmotFiniteElement</text>
<text text-anchor="middle" x="658.34" y="-175.5" font-family="Helvetica,sans-Serif" font-size="10.00">SpatialWrapper.h</text>
</a>
</g>
</g>
<!-- Node1&#45;&gt;Node26 -->
<g id="edge45" class="edge">
<title>Node1&#45;&gt;Node26</title>
<path fill="none" stroke="midnightblue" d="M817.69,-302.3C782.6,-276.35 721.2,-230.96 685.73,-204.75"/>
<polygon fill="midnightblue" stroke="midnightblue" points="687.43,-201.65 677.31,-198.52 683.27,-207.28 687.43,-201.65"/>
</g>
<!-- Node2&#45;&gt;Node3 -->
<g id="edge2" class="edge">
<title>Node2&#45;&gt;Node3</title>
<path fill="none" stroke="midnightblue" d="M877.9,-244.77C764.11,-236.72 528.9,-219.23 330.34,-199 309.98,-196.93 287.7,-194.3 267.98,-191.86"/>
<polygon fill="midnightblue" stroke="midnightblue" points="268.28,-188.37 257.92,-190.61 267.41,-195.32 268.28,-188.37"/>
</g>
<!-- Node4 -->
<g id="node4" class="node">
<title>Node4</title>
<g id="a_node4"><a xlink:href="MarmotElement_8h.html" target="_top" xlink:title=" ">
<polygon fill="white" stroke="black" points="466.34,-112.5 466.34,-131.5 594.34,-131.5 594.34,-112.5 466.34,-112.5"/>
<text text-anchor="middle" x="530.34" y="-119.5" font-family="Helvetica,sans-Serif" font-size="10.00">Marmot/MarmotElement.h</text>
</a>
</g>
</g>
<!-- Node2&#45;&gt;Node4 -->
<g id="edge16" class="edge">
<title>Node2&#45;&gt;Node4</title>
<path fill="none" stroke="midnightblue" d="M878.28,-247.05C785.59,-242.56 625.66,-230.41 577.34,-199 556.57,-185.49 543.42,-159.25 536.47,-141.42"/>
<polygon fill="midnightblue" stroke="midnightblue" points="539.69,-140.05 533.01,-131.83 533.11,-142.43 539.69,-140.05"/>
</g>
<!-- Node5 -->
<g id="node5" class="node">
<title>Node5</title>
<g id="a_node5"><a xlink:href="MarmotElementProperty_8h.html" target="_top" xlink:title=" ">
<polygon fill="white" stroke="black" points="632.34,-56.5 632.34,-75.5 796.34,-75.5 796.34,-56.5 632.34,-56.5"/>
<text text-anchor="middle" x="714.34" y="-63.5" font-family="Helvetica,sans-Serif" font-size="10.00">Marmot/MarmotElementProperty.h</text>
</a>
</g>
</g>
<!-- Node2&#45;&gt;Node5 -->
<g id="edge17" class="edge">
<title>Node2&#45;&gt;Node5</title>
<path fill="none" stroke="midnightblue" d="M904.08,-235.3C884.63,-227.1 862.37,-215.16 846.34,-199 815.98,-168.37 833.7,-142.64 803.34,-112 788.84,-97.37 768.6,-86.62 751.08,-79.3"/>
<polygon fill="midnightblue" stroke="midnightblue" points="752.27,-76.01 741.68,-75.59 749.7,-82.52 752.27,-76.01"/>
</g>
<!-- Node8 -->
<g id="node8" class="node">
<title>Node8</title>
<g id="a_node8"><a xlink:title=" ">
<polygon fill="white" stroke="#bfbfbf" points="888.34,-56.5 888.34,-75.5 932.34,-75.5 932.34,-56.5 888.34,-56.5"/>
<text text-anchor="middle" x="910.34" y="-63.5" font-family="Helvetica,sans-Serif" font-size="10.00">vector</text>
</a>
</g>
</g>
<!-- Node2&#45;&gt;Node8 -->
<g id="edge42" class="edge">
<title>Node2&#45;&gt;Node8</title>
<path fill="none" stroke="midnightblue" d="M936.17,-235.24C929.82,-225.52 922.16,-212.09 918.34,-199 906.99,-160 907.51,-111.87 908.91,-85.85"/>
<polygon fill="midnightblue" stroke="midnightblue" points="912.42,-85.77 909.58,-75.56 905.44,-85.31 912.42,-85.77"/>
</g>
<!-- Node11 -->
<g id="node11" class="node">
<title>Node11</title>
<g id="a_node11"><a xlink:title=" ">
<polygon fill="white" stroke="#bfbfbf" points="926.34,-0.5 926.34,-19.5 980.34,-19.5 980.34,-0.5 926.34,-0.5"/>
<text text-anchor="middle" x="953.34" y="-7.5" font-family="Helvetica,sans-Serif" font-size="10.00">iostream</text>
</a>
</g>
</g>
<!-- Node2&#45;&gt;Node11 -->
<g id="edge40" class="edge">
<title>Node2&#45;&gt;Node11</title>
<path fill="none" stroke="midnightblue" d="M933.55,-235.17C905.6,-202.05 844.32,-118.29 879.34,-56 887.57,-41.38 902.67,-30.95 917.11,-23.85"/>
<polygon fill="midnightblue" stroke="midnightblue" points="918.74,-26.95 926.41,-19.64 915.86,-20.57 918.74,-26.95"/>
</g>
<!-- Node13 -->
<g id="node13" class="node">
<title>Node13</title>
<g id="a_node13"><a xlink:title=" ">
<polygon fill="white" stroke="#bfbfbf" points="926.84,-174 926.84,-193 1063.84,-193 1063.84,-174 926.84,-174"/>
<text text-anchor="middle" x="995.34" y="-181" font-family="Helvetica,sans-Serif" font-size="10.00">Marmot/MarmotConstants.h</text>
</a>
</g>
</g>
<!-- Node2&#45;&gt;Node13 -->
<g id="edge15" class="edge">
<title>Node2&#45;&gt;Node13</title>
<path fill="none" stroke="midnightblue" d="M956.98,-235.4C964.54,-225.36 974.73,-211.84 982.71,-201.25"/>
<polygon fill="midnightblue" stroke="midnightblue" points="985.56,-203.29 988.79,-193.19 979.97,-199.07 985.56,-203.29"/>
</g>
<!-- Node2&#45;&gt;Node14 -->
<g id="edge18" class="edge">
<title>Node2&#45;&gt;Node14</title>
<path fill="none" stroke="midnightblue" d="M1014.41,-249.77C1143.19,-249.24 1416.99,-242.8 1499.34,-199 1523.7,-186.05 1542.06,-159.05 1552.26,-140.98"/>
<polygon fill="midnightblue" stroke="midnightblue" points="1555.43,-142.46 1557.07,-132 1549.26,-139.16 1555.43,-142.46"/>
</g>
<!-- Node15 -->
<g id="node15" class="node">
<title>Node15</title>
<g id="a_node15"><a xlink:title=" ">
<polygon fill="white" stroke="#bfbfbf" points="1442.84,-56.5 1442.84,-75.5 1575.84,-75.5 1575.84,-56.5 1442.84,-56.5"/>
<text text-anchor="middle" x="1509.34" y="-63.5" font-family="Helvetica,sans-Serif" font-size="10.00">Marmot/MarmotTypedefs.h</text>
</a>
</g>
</g>
<!-- Node2&#45;&gt;Node15 -->
<g id="edge38" class="edge">
<title>Node2&#45;&gt;Node15</title>
<path fill="none" stroke="midnightblue" d="M1014.45,-247.58C1148.14,-243.14 1434.72,-230.07 1466.34,-199 1494.11,-171.72 1462.14,-148.24 1476.34,-112 1480.39,-101.67 1487.43,-91.57 1493.96,-83.57"/>
<polygon fill="midnightblue" stroke="midnightblue" points="1496.8,-85.64 1500.7,-75.79 1491.5,-81.06 1496.8,-85.64"/>
</g>
<!-- Node16 -->
<g id="node16" class="node">
<title>Node16</title>
<g id="a_node16"><a xlink:href="MarmotGeometryElement_8h.html" target="_top" xlink:title=" ">
<polygon fill="white" stroke="black" points="1589.34,-174 1589.34,-193 1759.34,-193 1759.34,-174 1589.34,-174"/>
<text text-anchor="middle" x="1674.34" y="-181" font-family="Helvetica,sans-Serif" font-size="10.00">Marmot/MarmotGeometryElement.h</text>
</a>
</g>
</g>
<!-- Node2&#45;&gt;Node16 -->
<g id="edge21" class="edge">
<title>Node2&#45;&gt;Node16</title>
<path fill="none" stroke="midnightblue" d="M1014.64,-244.12C1124.72,-235.33 1348.21,-217.09 1537.34,-199 1553.22,-197.48 1570.11,-195.77 1586.42,-194.07"/>
<polygon fill="midnightblue" stroke="midnightblue" points="1586.91,-197.54 1596.49,-193.02 1586.18,-190.58 1586.91,-197.54"/>
</g>
<!-- Node18 -->
<g id="node18" class="node">
<title>Node18</title>
<g id="a_node18"><a xlink:href="MarmotJournal_8h.html" target="_top" xlink:title=" ">
<polygon fill="white" stroke="black" points="1055.84,-56.5 1055.84,-75.5 1180.84,-75.5 1180.84,-56.5 1055.84,-56.5"/>
<text text-anchor="middle" x="1118.34" y="-63.5" font-family="Helvetica,sans-Serif" font-size="10.00">Marmot/MarmotJournal.h</text>
</a>
</g>
</g>
<!-- Node2&#45;&gt;Node18 -->
<g id="edge26" class="edge">
<title>Node2&#45;&gt;Node18</title>
<path fill="none" stroke="midnightblue" d="M1014.6,-245.82C1083.31,-240.52 1182.47,-227.96 1206.34,-199 1239.29,-159.03 1176.34,-106.55 1140.61,-81.51"/>
<polygon fill="midnightblue" stroke="midnightblue" points="1142.42,-78.51 1132.19,-75.76 1138.47,-84.29 1142.42,-78.51"/>
</g>
<!-- Node20 -->
<g id="node20" class="node">
<title>Node20</title>
<g id="a_node20"><a xlink:href="MarmotLowerDimensionalStress_8h.html" target="_top" xlink:title=" ">
<polygon fill="white" stroke="black" points="1291.34,-168.5 1291.34,-198.5 1457.34,-198.5 1457.34,-168.5 1291.34,-168.5"/>
<text text-anchor="start" x="1299.34" y="-186.5" font-family="Helvetica,sans-Serif" font-size="10.00">Marmot/MarmotLowerDimensional</text>
<text text-anchor="middle" x="1374.34" y="-175.5" font-family="Helvetica,sans-Serif" font-size="10.00">Stress.h</text>
</a>
</g>
</g>
<!-- Node2&#45;&gt;Node20 -->
<g id="edge30" class="edge">
<title>Node2&#45;&gt;Node20</title>
<path fill="none" stroke="midnightblue" d="M1014.63,-239.13C1086.72,-228.18 1200.81,-210.85 1281.14,-198.65"/>
<polygon fill="midnightblue" stroke="midnightblue" points="1281.89,-202.08 1291.25,-197.12 1280.84,-195.16 1281.89,-202.08"/>
</g>
<!-- Node21 -->
<g id="node21" class="node">
<title>Node21</title>
<g id="a_node21"><a xlink:href="MarmotVoigt_8h.html" target="_top" xlink:title=" ">
<polygon fill="white" stroke="black" points="1283.34,-112.5 1283.34,-131.5 1399.34,-131.5 1399.34,-112.5 1283.34,-112.5"/>
<text text-anchor="middle" x="1341.34" y="-119.5" font-family="Helvetica,sans-Serif" font-size="10.00">Marmot/MarmotVoigt.h</text>
</a>
</g>
</g>
<!-- Node2&#45;&gt;Node21 -->
<g id="edge39" class="edge">
<title>Node2&#45;&gt;Node21</title>
<path fill="none" stroke="midnightblue" d="M1014.63,-246.73C1075.7,-242.19 1166.54,-230.26 1239.34,-199 1243.96,-197.02 1293.65,-159.38 1321.93,-137.83"/>
<polygon fill="midnightblue" stroke="midnightblue" points="1324.12,-140.56 1329.95,-131.71 1319.87,-135 1324.12,-140.56"/>
</g>
<!-- Node22 -->
<g id="node22" class="node">
<title>Node22</title>
<g id="a_node22"><a xlink:href="MarmotMaterialHypoElastic_8h.html" target="_top" xlink:title=" ">
<polygon fill="white" stroke="black" points="339.84,-168.5 339.84,-198.5 482.84,-198.5 482.84,-168.5 339.84,-168.5"/>
<text text-anchor="start" x="347.84" y="-186.5" font-family="Helvetica,sans-Serif" font-size="10.00">Marmot/MarmotMaterialHypo</text>
<text text-anchor="middle" x="411.34" y="-175.5" font-family="Helvetica,sans-Serif" font-size="10.00">Elastic.h</text>
</a>
</g>
</g>
<!-- Node2&#45;&gt;Node22 -->
<g id="edge34" class="edge">
<title>Node2&#45;&gt;Node22</title>
<path fill="none" stroke="midnightblue" d="M878.08,-241.27C795.49,-231.3 652.22,-213.99 529.34,-199 517.66,-197.57 505.32,-196.06 493.21,-194.58"/>
<polygon fill="midnightblue" stroke="midnightblue" points="493.45,-191.08 483.1,-193.34 492.6,-198.03 493.45,-191.08"/>
</g>
<!-- Node24 -->
<g id="node24" class="node">
<title>Node24</title>
<g id="a_node24"><a xlink:title=" ">
<polygon fill="white" stroke="#bfbfbf" points="1081.84,-174 1081.84,-193 1196.84,-193 1196.84,-174 1081.84,-174"/>
<text text-anchor="middle" x="1139.34" y="-181" font-family="Helvetica,sans-Serif" font-size="10.00">Marmot/MarmotMath.h</text>
</a>
</g>
</g>
<!-- Node2&#45;&gt;Node24 -->
<g id="edge37" class="edge">
<title>Node2&#45;&gt;Node24</title>
<path fill="none" stroke="midnightblue" d="M988.22,-235.4C1022.98,-223.69 1071.85,-207.23 1104.5,-196.23"/>
<polygon fill="midnightblue" stroke="midnightblue" points="1105.72,-199.52 1114.08,-193.01 1103.49,-192.88 1105.72,-199.52"/>
</g>
<!-- Node25 -->
<g id="node25" class="node">
<title>Node25</title>
<g id="a_node25"><a xlink:title=" ">
<polygon fill="white" stroke="#bfbfbf" points="742.84,-112.5 742.84,-131.5 793.84,-131.5 793.84,-112.5 742.84,-112.5"/>
<text text-anchor="middle" x="768.34" y="-119.5" font-family="Helvetica,sans-Serif" font-size="10.00">memory</text>
</a>
</g>
</g>
<!-- Node2&#45;&gt;Node25 -->
<g id="edge41" class="edge">
<title>Node2&#45;&gt;Node25</title>
<path fill="none" stroke="midnightblue" d="M878.58,-235.48C854.33,-227.85 828.12,-216.3 808.34,-199 790.76,-183.62 779.72,-158.6 773.79,-141.5"/>
<polygon fill="midnightblue" stroke="midnightblue" points="777,-140.04 770.62,-131.58 770.34,-142.18 777,-140.04"/>
</g>
<!-- Node3&#45;&gt;Node4 -->
<g id="edge3" class="edge">
<title>Node3&#45;&gt;Node4</title>
<path fill="none" stroke="midnightblue" d="M257.05,-173.98C314.49,-163.26 413.03,-144.88 474.77,-133.37"/>
<polygon fill="midnightblue" stroke="midnightblue" points="475.53,-136.78 484.72,-131.51 474.25,-129.9 475.53,-136.78"/>
</g>
<!-- Node7 -->
<g id="node7" class="node">
<title>Node7</title>
<g id="a_node7"><a xlink:title=" ">
<polygon fill="white" stroke="#bfbfbf" points="68.84,-0.5 68.84,-19.5 109.84,-19.5 109.84,-0.5 68.84,-0.5"/>
<text text-anchor="middle" x="89.34" y="-7.5" font-family="Helvetica,sans-Serif" font-size="10.00">string</text>
</a>
</g>
</g>
<!-- Node3&#45;&gt;Node7 -->
<g id="edge13" class="edge">
<title>Node3&#45;&gt;Node7</title>
<path fill="none" stroke="midnightblue" d="M164.65,-178.87C126.73,-173.76 73.77,-161.5 37.34,-132 9.12,-109.15 -11.15,-87.25 7.34,-56 18.49,-37.17 40.63,-25.69 59.1,-19.05"/>
<polygon fill="midnightblue" stroke="midnightblue" points="60.21,-22.36 68.61,-15.92 58.02,-15.72 60.21,-22.36"/>
</g>
<!-- Node9 -->
<g id="node9" class="node">
<title>Node9</title>
<g id="a_node9"><a xlink:href="MarmotMaterial_8h.html" target="_top" xlink:title=" ">
<polygon fill="white" stroke="black" points="16.34,-56.5 16.34,-75.5 144.34,-75.5 144.34,-56.5 16.34,-56.5"/>
<text text-anchor="middle" x="80.34" y="-63.5" font-family="Helvetica,sans-Serif" font-size="10.00">Marmot/MarmotMaterial.h</text>
</a>
</g>
</g>
<!-- Node3&#45;&gt;Node9 -->
<g id="edge8" class="edge">
<title>Node3&#45;&gt;Node9</title>
<path fill="none" stroke="midnightblue" d="M164.53,-182.45C125.66,-179.62 72.52,-168.67 45.34,-132 33.75,-116.36 48.23,-96.4 61.93,-82.75"/>
<polygon fill="midnightblue" stroke="midnightblue" points="64.37,-85.27 69.29,-75.88 59.59,-80.15 64.37,-85.27"/>
</g>
<!-- Node10 -->
<g id="node10" class="node">
<title>Node10</title>
<g id="a_node10"><a xlink:title=" ">
<polygon fill="white" stroke="#bfbfbf" points="388.84,-112.5 388.84,-131.5 447.84,-131.5 447.84,-112.5 388.84,-112.5"/>
<text text-anchor="middle" x="418.34" y="-119.5" font-family="Helvetica,sans-Serif" font-size="10.00">functional</text>
</a>
</g>
</g>
<!-- Node3&#45;&gt;Node10 -->
<g id="edge11" class="edge">
<title>Node3&#45;&gt;Node10</title>
<path fill="none" stroke="midnightblue" d="M241,-173.98C277.28,-163.55 338.81,-145.86 379.01,-134.31"/>
<polygon fill="midnightblue" stroke="midnightblue" points="380.1,-137.64 388.74,-131.51 378.16,-130.91 380.1,-137.64"/>
</g>
<!-- Node3&#45;&gt;Node11 -->
<g id="edge12" class="edge">
<title>Node3&#45;&gt;Node11</title>
<path fill="none" stroke="midnightblue" d="M202.79,-173.68C189.81,-159.24 168.27,-130.33 184.34,-112 233.29,-56.2 768.34,-21.6 915.87,-13.07"/>
<polygon fill="midnightblue" stroke="midnightblue" points="916.42,-16.55 926.2,-12.48 916.02,-9.56 916.42,-16.55"/>
</g>
<!-- Node12 -->
<g id="node12" class="node">
<title>Node12</title>
<g id="a_node12"><a xlink:title=" ">
<polygon fill="white" stroke="#bfbfbf" points="54.84,-112.5 54.84,-131.5 137.84,-131.5 137.84,-112.5 54.84,-112.5"/>
<text text-anchor="middle" x="96.34" y="-119.5" font-family="Helvetica,sans-Serif" font-size="10.00">unordered_map</text>
</a>
</g>
</g>
<!-- Node3&#45;&gt;Node12 -->
<g id="edge14" class="edge">
<title>Node3&#45;&gt;Node12</title>
<path fill="none" stroke="midnightblue" d="M194.87,-173.98C175.74,-164.08 143.97,-147.64 121.69,-136.12"/>
<polygon fill="midnightblue" stroke="midnightblue" points="123.28,-133 112.79,-131.51 120.06,-139.21 123.28,-133"/>
</g>
<!-- Node4&#45;&gt;Node5 -->
<g id="edge4" class="edge">
<title>Node4&#45;&gt;Node5</title>
<path fill="none" stroke="midnightblue" d="M559.5,-112.44C590.86,-103.24 640.87,-88.56 675.54,-78.39"/>
<polygon fill="midnightblue" stroke="midnightblue" points="676.72,-81.69 685.32,-75.52 674.74,-74.97 676.72,-81.69"/>
</g>
<!-- Node6 -->
<g id="node6" class="node">
<title>Node6</title>
<g id="a_node6"><a xlink:href="MarmotUtils_8h.html" target="_top" xlink:title=" ">
<polygon fill="white" stroke="black" points="136.84,-0.5 136.84,-19.5 249.84,-19.5 249.84,-0.5 136.84,-0.5"/>
<text text-anchor="middle" x="193.34" y="-7.5" font-family="Helvetica,sans-Serif" font-size="10.00">Marmot/MarmotUtils.h</text>
</a>
</g>
</g>
<!-- Node4&#45;&gt;Node6 -->
<g id="edge5" class="edge">
<title>Node4&#45;&gt;Node6</title>
<path fill="none" stroke="midnightblue" d="M504.18,-112.46C444.46,-92.97 297.99,-45.16 229.61,-22.84"/>
<polygon fill="midnightblue" stroke="midnightblue" points="230.32,-19.39 219.72,-19.61 228.14,-26.04 230.32,-19.39"/>
</g>
<!-- Node4&#45;&gt;Node7 -->
<g id="edge6" class="edge">
<title>Node4&#45;&gt;Node7</title>
<path fill="none" stroke="midnightblue" d="M489.2,-112.42C448.29,-103.75 383.8,-89.71 328.34,-76 253.02,-57.38 165.14,-32.71 119.83,-19.78"/>
<polygon fill="midnightblue" stroke="midnightblue" points="120.62,-16.36 110.04,-16.98 118.69,-23.09 120.62,-16.36"/>
</g>
<!-- Node4&#45;&gt;Node8 -->
<g id="edge7" class="edge">
<title>Node4&#45;&gt;Node8</title>
<path fill="none" stroke="midnightblue" d="M590.56,-112.44C671.86,-100.89 813.92,-80.7 877.7,-71.64"/>
<polygon fill="midnightblue" stroke="midnightblue" points="878.55,-75.05 887.96,-70.18 877.57,-68.12 878.55,-75.05"/>
</g>
<!-- Node9&#45;&gt;Node6 -->
<g id="edge9" class="edge">
<title>Node9&#45;&gt;Node6</title>
<path fill="none" stroke="midnightblue" d="M98.25,-56.44C116.6,-47.68 145.35,-33.94 166.44,-23.86"/>
<polygon fill="midnightblue" stroke="midnightblue" points="168.01,-26.99 175.52,-19.52 164.99,-20.67 168.01,-26.99"/>
</g>
<!-- Node9&#45;&gt;Node7 -->
<g id="edge10" class="edge">
<title>Node9&#45;&gt;Node7</title>
<path fill="none" stroke="midnightblue" d="M81.83,-56.08C83.02,-48.93 84.74,-38.64 86.23,-29.69"/>
<polygon fill="midnightblue" stroke="midnightblue" points="89.69,-30.19 87.89,-19.75 82.79,-29.04 89.69,-30.19"/>
</g>
<!-- Node14&#45;&gt;Node8 -->
<g id="edge20" class="edge">
<title>Node14&#45;&gt;Node8</title>
<path fill="none" stroke="midnightblue" d="M1485.07,-114.67C1342.53,-102.85 1041.24,-77.86 942.45,-69.66"/>
<polygon fill="midnightblue" stroke="midnightblue" points="942.73,-66.17 932.48,-68.84 942.16,-73.15 942.73,-66.17"/>
</g>
<!-- Node14&#45;&gt;Node15 -->
<g id="edge19" class="edge">
<title>Node14&#45;&gt;Node15</title>
<path fill="none" stroke="midnightblue" d="M1552.76,-112.08C1545.18,-104.22 1533.97,-92.57 1524.83,-83.08"/>
<polygon fill="midnightblue" stroke="midnightblue" points="1527.23,-80.53 1517.77,-75.75 1522.19,-85.38 1527.23,-80.53"/>
</g>
<!-- Node16&#45;&gt;Node11 -->
<g id="edge24" class="edge">
<title>Node16&#45;&gt;Node11</title>
<path fill="none" stroke="midnightblue" d="M1686.15,-173.88C1703.07,-160.44 1730.71,-133.76 1716.34,-112 1681.46,-59.15 1646.88,-70.9 1585.34,-56 1581.7,-55.12 1126.59,-23.15 991.02,-13.64"/>
<polygon fill="midnightblue" stroke="midnightblue" points="990.95,-10.13 980.73,-12.92 990.46,-17.11 990.95,-10.13"/>
</g>
<!-- Node16&#45;&gt;Node14 -->
<g id="edge22" class="edge">
<title>Node16&#45;&gt;Node14</title>
<path fill="none" stroke="midnightblue" d="M1658.15,-173.98C1639.44,-164.12 1608.42,-147.79 1586.55,-136.27"/>
<polygon fill="midnightblue" stroke="midnightblue" points="1587.98,-133.07 1577.5,-131.51 1584.72,-139.27 1587.98,-133.07"/>
</g>
<!-- Node16&#45;&gt;Node15 -->
<g id="edge23" class="edge">
<title>Node16&#45;&gt;Node15</title>
<path fill="none" stroke="midnightblue" d="M1682.49,-173.84C1694.86,-159.62 1715.41,-131.02 1700.34,-112 1685.96,-93.84 1632.94,-82.27 1586.4,-75.42"/>
<polygon fill="midnightblue" stroke="midnightblue" points="1586.67,-71.92 1576.28,-73.99 1585.69,-78.85 1586.67,-71.92"/>
</g>
<!-- Node17 -->
<g id="node17" class="node">
<title>Node17</title>
<g id="a_node17"><a xlink:title=" ">
<polygon fill="white" stroke="#bfbfbf" points="1655.84,-112.5 1655.84,-131.5 1690.84,-131.5 1690.84,-112.5 1655.84,-112.5"/>
<text text-anchor="middle" x="1673.34" y="-119.5" font-family="Helvetica,sans-Serif" font-size="10.00">map</text>
</a>
</g>
</g>
<!-- Node16&#45;&gt;Node17 -->
<g id="edge25" class="edge">
<title>Node16&#45;&gt;Node17</title>
<path fill="none" stroke="midnightblue" d="M1674.2,-173.98C1674.06,-165.58 1673.84,-152.48 1673.66,-141.66"/>
<polygon fill="midnightblue" stroke="midnightblue" points="1677.15,-141.45 1673.49,-131.51 1670.16,-141.57 1677.15,-141.45"/>
</g>
<!-- Node18&#45;&gt;Node7 -->
<g id="edge29" class="edge">
<title>Node18&#45;&gt;Node7</title>
<path fill="none" stroke="midnightblue" d="M1055.68,-61.71C1021.83,-59.96 979.3,-57.8 941.34,-56 579.62,-38.81 486.01,-69.95 127.34,-20 124.96,-19.67 122.52,-19.26 120.06,-18.79"/>
<polygon fill="midnightblue" stroke="midnightblue" points="120.63,-15.33 110.12,-16.67 119.16,-22.18 120.63,-15.33"/>
</g>
<!-- Node18&#45;&gt;Node11 -->
<g id="edge27" class="edge">
<title>Node18&#45;&gt;Node11</title>
<path fill="none" stroke="midnightblue" d="M1092.2,-56.44C1064.32,-47.32 1020,-32.81 988.94,-22.65"/>
<polygon fill="midnightblue" stroke="midnightblue" points="989.96,-19.3 979.37,-19.52 987.78,-25.95 989.96,-19.3"/>
</g>
<!-- Node19 -->
<g id="node19" class="node">
<title>Node19</title>
<g id="a_node19"><a xlink:title=" ">
<polygon fill="white" stroke="#bfbfbf" points="1092.34,-0.5 1092.34,-19.5 1144.34,-19.5 1144.34,-0.5 1092.34,-0.5"/>
<text text-anchor="middle" x="1118.34" y="-7.5" font-family="Helvetica,sans-Serif" font-size="10.00">sstream</text>
</a>
</g>
</g>
<!-- Node18&#45;&gt;Node19 -->
<g id="edge28" class="edge">
<title>Node18&#45;&gt;Node19</title>
<path fill="none" stroke="midnightblue" d="M1118.34,-56.08C1118.34,-49.01 1118.34,-38.86 1118.34,-29.99"/>
<polygon fill="midnightblue" stroke="midnightblue" points="1121.84,-29.75 1118.34,-19.75 1114.84,-29.75 1121.84,-29.75"/>
</g>
<!-- Node20&#45;&gt;Node21 -->
<g id="edge31" class="edge">
<title>Node20&#45;&gt;Node21</title>
<path fill="none" stroke="midnightblue" d="M1366.52,-168.4C1361.88,-160.02 1355.95,-149.33 1351.01,-140.42"/>
<polygon fill="midnightblue" stroke="midnightblue" points="1354.06,-138.71 1346.15,-131.66 1347.93,-142.1 1354.06,-138.71"/>
</g>
<!-- Node21&#45;&gt;Node15 -->
<g id="edge33" class="edge">
<title>Node21&#45;&gt;Node15</title>
<path fill="none" stroke="midnightblue" d="M1367.96,-112.44C1396.35,-103.32 1441.48,-88.81 1473.1,-78.65"/>
<polygon fill="midnightblue" stroke="midnightblue" points="1474.4,-81.91 1482.85,-75.52 1472.26,-75.24 1474.4,-81.91"/>
</g>
<!-- Node21&#45;&gt;Node18 -->
<g id="edge32" class="edge">
<title>Node21&#45;&gt;Node18</title>
<path fill="none" stroke="midnightblue" d="M1306.01,-112.44C1267.43,-103.1 1205.56,-88.12 1163.49,-77.93"/>
<polygon fill="midnightblue" stroke="midnightblue" points="1164.06,-74.47 1153.51,-75.52 1162.41,-81.27 1164.06,-74.47"/>
</g>
<!-- Node23 -->
<g id="node23" class="node">
<title>Node23</title>
<g id="a_node23"><a xlink:href="MarmotMaterialMechanical_8h.html" target="_top" xlink:title=" ">
<polygon fill="white" stroke="black" points="193.84,-112.5 193.84,-131.5 370.84,-131.5 370.84,-112.5 193.84,-112.5"/>
<text text-anchor="middle" x="282.34" y="-119.5" font-family="Helvetica,sans-Serif" font-size="10.00">Marmot/MarmotMaterialMechanical.h</text>
</a>
</g>
</g>
<!-- Node22&#45;&gt;Node23 -->
<g id="edge35" class="edge">
<title>Node22&#45;&gt;Node23</title>
<path fill="none" stroke="midnightblue" d="M380.77,-168.4C359.42,-158.55 331.13,-145.5 310.36,-135.92"/>
<polygon fill="midnightblue" stroke="midnightblue" points="311.66,-132.67 301.11,-131.66 308.73,-139.02 311.66,-132.67"/>
</g>
<!-- Node23&#45;&gt;Node9 -->
<g id="edge36" class="edge">
<title>Node23&#45;&gt;Node9</title>
<path fill="none" stroke="midnightblue" d="M250.34,-112.44C215.61,-103.16 160.06,-88.31 121.97,-78.13"/>
<polygon fill="midnightblue" stroke="midnightblue" points="122.77,-74.72 112.2,-75.52 120.96,-81.48 122.77,-74.72"/>
</g>
<!-- Node26&#45;&gt;Node4 -->
<g id="edge47" class="edge">
<title>Node26&#45;&gt;Node4</title>
<path fill="none" stroke="midnightblue" d="M628.01,-168.4C606.82,-158.55 578.75,-145.5 558.14,-135.92"/>
<polygon fill="midnightblue" stroke="midnightblue" points="559.51,-132.7 548.97,-131.66 556.56,-139.05 559.51,-132.7"/>
</g>
<!-- Node26&#45;&gt;Node5 -->
<g id="edge48" class="edge">
<title>Node26&#45;&gt;Node5</title>
<path fill="none" stroke="midnightblue" d="M670.8,-168.35C678.77,-158.68 688.8,-145.26 695.34,-132 702.66,-117.17 707.67,-99.02 710.7,-85.67"/>
<polygon fill="midnightblue" stroke="midnightblue" points="714.15,-86.27 712.79,-75.77 707.3,-84.83 714.15,-86.27"/>
</g>
<!-- Node26&#45;&gt;Node10 -->
<g id="edge49" class="edge">
<title>Node26&#45;&gt;Node10</title>
<path fill="none" stroke="midnightblue" d="M601.77,-168.47C557.41,-157.48 496.81,-142.45 457.62,-132.74"/>
<polygon fill="midnightblue" stroke="midnightblue" points="458.45,-129.34 447.9,-130.33 456.77,-136.13 458.45,-129.34"/>
</g>
<!-- Node26&#45;&gt;Node25 -->
<g id="edge50" class="edge">
<title>Node26&#45;&gt;Node25</title>
<path fill="none" stroke="midnightblue" d="M684.41,-168.4C702.21,-158.77 725.66,-146.09 743.24,-136.58"/>
<polygon fill="midnightblue" stroke="midnightblue" points="745.21,-139.49 752.34,-131.66 741.88,-133.34 745.21,-139.49"/>
</g>
<!-- Node27 -->
<g id="node27" class="node">
<title>Node27</title>
<g id="a_node27"><a xlink:title=" ">
<polygon fill="white" stroke="#bfbfbf" points="612.34,-112.5 612.34,-131.5 686.34,-131.5 686.34,-112.5 612.34,-112.5"/>
<text text-anchor="middle" x="649.34" y="-119.5" font-family="Helvetica,sans-Serif" font-size="10.00">Eigen/Sparse</text>
</a>
</g>
</g>
<!-- Node26&#45;&gt;Node27 -->
<g id="edge46" class="edge">
<title>Node26&#45;&gt;Node27</title>
<path fill="none" stroke="midnightblue" d="M656.21,-168.4C655,-160.38 653.46,-150.23 652.15,-141.57"/>
<polygon fill="midnightblue" stroke="midnightblue" points="655.61,-141.02 650.65,-131.66 648.69,-142.07 655.61,-141.02"/>
</g>
</g>
</svg>
