<?xml version="1.0" encoding="UTF-8" standalone="no"?>
<!DOCTYPE svg PUBLIC "-//W3C//DTD SVG 1.1//EN"
 "http://www.w3.org/Graphics/SVG/1.1/DTD/svg11.dtd">
<!-- Generated by graphviz version 2.44.0 ()
 -->
<!-- Title: modules/elements/DisplacementFiniteStrainULElement/include/Marmot/DisplacementFiniteStrainULElement.h Pages: 1 -->
<svg width="2144pt" height="430pt"
 viewBox="0.00 0.00 2144.06 430.00" xmlns="http://www.w3.org/2000/svg" xmlns:xlink="http://www.w3.org/1999/xlink">
<g id="graph0" class="graph" transform="scale(1 1) rotate(0) translate(4 426)">
<title>modules/elements/DisplacementFiniteStrainULElement/include/Marmot/DisplacementFiniteStrainULElement.h</title>
<polygon fill="white" stroke="transparent" points="-4,4 -4,-426 2140.06,-426 2140.06,4 -4,4"/>
<!-- Node1 -->
<g id="node1" class="node">
<title>Node1</title>
<g id="a_node1"><a xlink:title=" ">
<polygon fill="#bfbfbf" stroke="black" points="843.06,-380.5 843.06,-421.5 1064.06,-421.5 1064.06,-380.5 843.06,-380.5"/>
<text text-anchor="start" x="851.06" y="-409.5" font-family="Helvetica,sans-Serif" font-size="10.00">modules/elements/Displacement</text>
<text text-anchor="start" x="851.06" y="-398.5" font-family="Helvetica,sans-Serif" font-size="10.00">FiniteStrainULElement/include</text>
<text text-anchor="middle" x="953.56" y="-387.5" font-family="Helvetica,sans-Serif" font-size="10.00">/Marmot/DisplacementFiniteStrainULElement.h</text>
</a>
</g>
</g>
<!-- Node2 -->
<g id="node2" class="node">
<title>Node2</title>
<g id="a_node2"><a xlink:href="Marmot_8h.html" target="_top" xlink:title=" ">
<polygon fill="white" stroke="black" points="524.06,-252 524.06,-271 617.06,-271 617.06,-252 524.06,-252"/>
<text text-anchor="middle" x="570.56" y="-259" font-family="Helvetica,sans-Serif" font-size="10.00">Marmot/Marmot.h</text>
</a>
</g>
</g>
<!-- Node1&#45;&gt;Node2 -->
<g id="edge1" class="edge">
<title>Node1&#45;&gt;Node2</title>
<path fill="none" stroke="midnightblue" d="M899.09,-380.45C818.55,-351.53 670.1,-298.24 603.92,-274.48"/>
<polygon fill="midnightblue" stroke="midnightblue" points="604.99,-271.14 594.4,-271.06 602.63,-277.73 604.99,-271.14"/>
</g>
<!-- Node3 -->
<g id="node3" class="node">
<title>Node3</title>
<g id="a_node3"><a xlink:href="MarmotElement_8h.html" target="_top" xlink:title=" ">
<polygon fill="white" stroke="black" points="259.56,-190.5 259.56,-209.5 387.56,-209.5 387.56,-190.5 259.56,-190.5"/>
<text text-anchor="middle" x="323.56" y="-197.5" font-family="Helvetica,sans-Serif" font-size="10.00">Marmot/MarmotElement.h</text>
</a>
</g>
</g>
<!-- Node1&#45;&gt;Node3 -->
<g id="edge21" class="edge">
<title>Node1&#45;&gt;Node3</title>
<path fill="none" stroke="midnightblue" d="M842.91,-397.7C713.05,-393.33 506.85,-380.67 439.56,-344 386.34,-315.01 348.33,-250.54 332.19,-219.03"/>
<polygon fill="midnightblue" stroke="midnightblue" points="335.14,-217.11 327.56,-209.71 328.87,-220.22 335.14,-217.11"/>
</g>
<!-- Node4 -->
<g id="node4" class="node">
<title>Node4</title>
<g id="a_node4"><a xlink:href="MarmotElementProperty_8h.html" target="_top" xlink:title=" ">
<polygon fill="white" stroke="black" points="43.56,-134.5 43.56,-153.5 207.56,-153.5 207.56,-134.5 43.56,-134.5"/>
<text text-anchor="middle" x="125.56" y="-141.5" font-family="Helvetica,sans-Serif" font-size="10.00">Marmot/MarmotElementProperty.h</text>
</a>
</g>
</g>
<!-- Node1&#45;&gt;Node4 -->
<g id="edge22" class="edge">
<title>Node1&#45;&gt;Node4</title>
<path fill="none" stroke="midnightblue" d="M842.84,-399.63C654.75,-397.78 281.26,-388.42 158.56,-344 72.62,-312.89 36.23,-294.97 2.56,-210 -8.78,-181.39 21.64,-165.16 55.06,-156.07"/>
<polygon fill="midnightblue" stroke="midnightblue" points="56.16,-159.4 65.01,-153.58 54.46,-152.61 56.16,-159.4"/>
</g>
<!-- Node5 -->
<g id="node5" class="node">
<title>Node5</title>
<g id="a_node5"><a xlink:href="MarmotJournal_8h.html" target="_top" xlink:title=" ">
<polygon fill="white" stroke="black" points="820.06,-134.5 820.06,-153.5 945.06,-153.5 945.06,-134.5 820.06,-134.5"/>
<text text-anchor="middle" x="882.56" y="-141.5" font-family="Helvetica,sans-Serif" font-size="10.00">Marmot/MarmotJournal.h</text>
</a>
</g>
</g>
<!-- Node1&#45;&gt;Node5 -->
<g id="edge58" class="edge">
<title>Node1&#45;&gt;Node5</title>
<path fill="none" stroke="midnightblue" d="M937,-380.43C929.11,-370.18 920.19,-357.05 914.56,-344 887.8,-281.95 883.2,-200.28 882.56,-163.9"/>
<polygon fill="midnightblue" stroke="midnightblue" points="886.06,-163.73 882.47,-153.76 879.06,-163.79 886.06,-163.73"/>
</g>
<!-- Node6 -->
<g id="node6" class="node">
<title>Node6</title>
<g id="a_node6"><a xlink:title=" ">
<polygon fill="white" stroke="#bfbfbf" points="985.56,-73 985.56,-92 1039.56,-92 1039.56,-73 985.56,-73"/>
<text text-anchor="middle" x="1012.56" y="-80" font-family="Helvetica,sans-Serif" font-size="10.00">iostream</text>
</a>
</g>
</g>
<!-- Node1&#45;&gt;Node6 -->
<g id="edge72" class="edge">
<title>Node1&#45;&gt;Node6</title>
<path fill="none" stroke="midnightblue" d="M1038.72,-380.4C1056.78,-372.18 1073.66,-360.51 1084.56,-344 1111.76,-302.78 1045.55,-153.22 1021.15,-101.36"/>
<polygon fill="midnightblue" stroke="midnightblue" points="1024.2,-99.63 1016.75,-92.1 1017.88,-102.63 1024.2,-99.63"/>
</g>
<!-- Node11 -->
<g id="node11" class="node">
<title>Node11</title>
<g id="a_node11"><a xlink:title=" ">
<polygon fill="white" stroke="#bfbfbf" points="473.56,-134.5 473.56,-153.5 517.56,-153.5 517.56,-134.5 473.56,-134.5"/>
<text text-anchor="middle" x="495.56" y="-141.5" font-family="Helvetica,sans-Serif" font-size="10.00">vector</text>
</a>
</g>
</g>
<!-- Node1&#45;&gt;Node11 -->
<g id="edge75" class="edge">
<title>Node1&#45;&gt;Node11</title>
<path fill="none" stroke="midnightblue" d="M842.96,-383.17C727.68,-363.25 558,-326.44 515.56,-277 488.09,-245 489.56,-191.82 492.71,-163.72"/>
<polygon fill="midnightblue" stroke="midnightblue" points="496.2,-164.03 494.04,-153.66 489.26,-163.11 496.2,-164.03"/>
</g>
<!-- Node15 -->
<g id="node15" class="node">
<title>Node15</title>
<g id="a_node15"><a xlink:href="MarmotConstants_8h.html" target="_top" xlink:title=" ">
<polygon fill="white" stroke="black" points="1999.06,-73 1999.06,-92 2136.06,-92 2136.06,-73 1999.06,-73"/>
<text text-anchor="middle" x="2067.56" y="-80" font-family="Helvetica,sans-Serif" font-size="10.00">Marmot/MarmotConstants.h</text>
</a>
</g>
</g>
<!-- Node1&#45;&gt;Node15 -->
<g id="edge19" class="edge">
<title>Node1&#45;&gt;Node15</title>
<path fill="none" stroke="midnightblue" d="M1064.3,-397.63C1235.15,-392.91 1554.57,-379.51 1662.56,-344 1727.7,-322.58 1793.56,-331.07 1793.56,-262.5 1793.56,-262.5 1793.56,-262.5 1793.56,-199 1793.56,-151.29 1936.41,-112.26 2015.82,-94.25"/>
<polygon fill="midnightblue" stroke="midnightblue" points="2016.65,-97.65 2025.65,-92.06 2015.12,-90.82 2016.65,-97.65"/>
</g>
<!-- Node17 -->
<g id="node17" class="node">
<title>Node17</title>
<g id="a_node17"><a xlink:href="MarmotFastorTensorBasics_8h.html" target="_top" xlink:title=" ">
<polygon fill="white" stroke="black" points="1134.06,-313.5 1134.06,-343.5 1277.06,-343.5 1277.06,-313.5 1134.06,-313.5"/>
<text text-anchor="start" x="1142.06" y="-331.5" font-family="Helvetica,sans-Serif" font-size="10.00">Marmot/MarmotFastorTensor</text>
<text text-anchor="middle" x="1205.56" y="-320.5" font-family="Helvetica,sans-Serif" font-size="10.00">Basics.h</text>
</a>
</g>
</g>
<!-- Node1&#45;&gt;Node17 -->
<g id="edge23" class="edge">
<title>Node1&#45;&gt;Node17</title>
<path fill="none" stroke="midnightblue" d="M1023.42,-380.46C1061.63,-369.77 1108.5,-356.65 1145.13,-346.41"/>
<polygon fill="midnightblue" stroke="midnightblue" points="1146.48,-349.66 1155.17,-343.6 1144.6,-342.92 1146.48,-349.66"/>
</g>
<!-- Node20 -->
<g id="node20" class="node">
<title>Node20</title>
<g id="a_node20"><a xlink:href="MarmotTensor_8h.html" target="_top" xlink:title=" ">
<polygon fill="white" stroke="black" points="1244.06,-252 1244.06,-271 1367.06,-271 1367.06,-252 1244.06,-252"/>
<text text-anchor="middle" x="1305.56" y="-259" font-family="Helvetica,sans-Serif" font-size="10.00">Marmot/MarmotTensor.h</text>
</a>
</g>
</g>
<!-- Node1&#45;&gt;Node20 -->
<g id="edge70" class="edge">
<title>Node1&#45;&gt;Node20</title>
<path fill="none" stroke="midnightblue" d="M1064.47,-394.37C1148.58,-387.78 1254.94,-373.7 1286.56,-344 1303.57,-328.02 1306.71,-300 1306.69,-281.34"/>
<polygon fill="midnightblue" stroke="midnightblue" points="1310.19,-281.01 1306.37,-271.13 1303.19,-281.24 1310.19,-281.01"/>
</g>
<!-- Node21 -->
<g id="node21" class="node">
<title>Node21</title>
<g id="a_node21"><a xlink:href="MarmotTypedefs_8h.html" target="_top" xlink:title=" ">
<polygon fill="white" stroke="black" points="1301.06,-73 1301.06,-92 1434.06,-92 1434.06,-73 1301.06,-73"/>
<text text-anchor="middle" x="1367.56" y="-80" font-family="Helvetica,sans-Serif" font-size="10.00">Marmot/MarmotTypedefs.h</text>
</a>
</g>
</g>
<!-- Node1&#45;&gt;Node21 -->
<g id="edge71" class="edge">
<title>Node1&#45;&gt;Node21</title>
<path fill="none" stroke="midnightblue" d="M1064.24,-399.72C1254.08,-396.21 1621.56,-374.91 1621.56,-262.5 1621.56,-262.5 1621.56,-262.5 1621.56,-199 1621.56,-153.89 1487.13,-113.29 1413.86,-94.51"/>
<polygon fill="midnightblue" stroke="midnightblue" points="1414.5,-91.06 1403.95,-92 1412.79,-97.85 1414.5,-91.06"/>
</g>
<!-- Node25 -->
<g id="node25" class="node">
<title>Node25</title>
<g id="a_node25"><a xlink:href="MarmotMath_8h.html" target="_top" xlink:title=" ">
<polygon fill="white" stroke="black" points="1650.06,-134.5 1650.06,-153.5 1765.06,-153.5 1765.06,-134.5 1650.06,-134.5"/>
<text text-anchor="middle" x="1707.56" y="-141.5" font-family="Helvetica,sans-Serif" font-size="10.00">Marmot/MarmotMath.h</text>
</a>
</g>
</g>
<!-- Node1&#45;&gt;Node25 -->
<g id="edge63" class="edge">
<title>Node1&#45;&gt;Node25</title>
<path fill="none" stroke="midnightblue" d="M1064.41,-397.38C1246.03,-392.14 1591.32,-377.82 1635.56,-344 1693.59,-299.63 1704.91,-204.13 1707.07,-163.7"/>
<polygon fill="midnightblue" stroke="midnightblue" points="1710.57,-163.77 1707.48,-153.64 1703.58,-163.49 1710.57,-163.77"/>
</g>
<!-- Node32 -->
<g id="node32" class="node">
<title>Node32</title>
<g id="a_node32"><a xlink:href="MarmotFiniteElement_8h.html" target="_top" xlink:title=" ">
<polygon fill="white" stroke="black" points="895.56,-190.5 895.56,-209.5 1047.56,-209.5 1047.56,-190.5 895.56,-190.5"/>
<text text-anchor="middle" x="971.56" y="-197.5" font-family="Helvetica,sans-Serif" font-size="10.00">Marmot/MarmotFiniteElement.h</text>
</a>
</g>
</g>
<!-- Node1&#45;&gt;Node32 -->
<g id="edge45" class="edge">
<title>Node1&#45;&gt;Node32</title>
<path fill="none" stroke="midnightblue" d="M939.43,-380.31C932.91,-370.02 925.89,-356.91 922.56,-344 918.48,-328.21 916.28,-262.47 923.56,-246 928.92,-233.88 939.28,-223.5 949,-215.78"/>
<polygon fill="midnightblue" stroke="midnightblue" points="951.28,-218.45 957.25,-209.7 947.12,-212.82 951.28,-218.45"/>
</g>
<!-- Node33 -->
<g id="node33" class="node">
<title>Node33</title>
<g id="a_node33"><a xlink:href="MarmotGeometryElement_8h.html" target="_top" xlink:title=" ">
<polygon fill="white" stroke="black" points="1385.56,-252 1385.56,-271 1555.56,-271 1555.56,-252 1385.56,-252"/>
<text text-anchor="middle" x="1470.56" y="-259" font-family="Helvetica,sans-Serif" font-size="10.00">Marmot/MarmotGeometryElement.h</text>
</a>
</g>
</g>
<!-- Node1&#45;&gt;Node33 -->
<g id="edge48" class="edge">
<title>Node1&#45;&gt;Node33</title>
<path fill="none" stroke="midnightblue" d="M1064.36,-391.41C1135.43,-383.75 1228.97,-369.61 1308.56,-344 1361.25,-327.05 1417.98,-294.94 1448.34,-276.49"/>
<polygon fill="midnightblue" stroke="midnightblue" points="1450.2,-279.45 1456.89,-271.23 1446.53,-273.49 1450.2,-279.45"/>
</g>
<!-- Node35 -->
<g id="node35" class="node">
<title>Node35</title>
<g id="a_node35"><a xlink:href="MarmotGeostaticStress_8h.html" target="_top" xlink:title=" ">
<polygon fill="white" stroke="black" points="673.56,-252 673.56,-271 837.56,-271 837.56,-252 673.56,-252"/>
<text text-anchor="middle" x="755.56" y="-259" font-family="Helvetica,sans-Serif" font-size="10.00">Marmot/MarmotGeostaticStress.h</text>
</a>
</g>
</g>
<!-- Node1&#45;&gt;Node35 -->
<g id="edge54" class="edge">
<title>Node1&#45;&gt;Node35</title>
<path fill="none" stroke="midnightblue" d="M913.22,-380.25C894,-370.25 871.03,-357.4 851.56,-344 821.6,-323.37 790.03,-295.13 771.6,-277.89"/>
<polygon fill="midnightblue" stroke="midnightblue" points="774,-275.34 764.33,-271.01 769.19,-280.43 774,-275.34"/>
</g>
<!-- Node36 -->
<g id="node36" class="node">
<title>Node36</title>
<g id="a_node36"><a xlink:href="MarmotMaterialFiniteStrain_8h.html" target="_top" xlink:title=" ">
<polygon fill="white" stroke="black" points="931.56,-313.5 931.56,-343.5 1075.56,-343.5 1075.56,-313.5 931.56,-313.5"/>
<text text-anchor="start" x="939.56" y="-331.5" font-family="Helvetica,sans-Serif" font-size="10.00">Marmot/MarmotMaterialFinite</text>
<text text-anchor="middle" x="1003.56" y="-320.5" font-family="Helvetica,sans-Serif" font-size="10.00">Strain.h</text>
</a>
</g>
</g>
<!-- Node1&#45;&gt;Node36 -->
<g id="edge59" class="edge">
<title>Node1&#45;&gt;Node36</title>
<path fill="none" stroke="midnightblue" d="M967.49,-380.36C973.7,-371.59 981.07,-361.21 987.52,-352.12"/>
<polygon fill="midnightblue" stroke="midnightblue" points="990.42,-354.07 993.35,-343.89 984.71,-350.02 990.42,-354.07"/>
</g>
<!-- Node38 -->
<g id="node38" class="node">
<title>Node38</title>
<g id="a_node38"><a xlink:href="MarmotStateVarVectorManager_8h.html" target="_top" xlink:title=" ">
<polygon fill="white" stroke="black" points="109.56,-246.5 109.56,-276.5 261.56,-276.5 261.56,-246.5 109.56,-246.5"/>
<text text-anchor="start" x="117.56" y="-264.5" font-family="Helvetica,sans-Serif" font-size="10.00">Marmot/MarmotStateVarVector</text>
<text text-anchor="middle" x="185.56" y="-253.5" font-family="Helvetica,sans-Serif" font-size="10.00">Manager.h</text>
</a>
</g>
</g>
<!-- Node1&#45;&gt;Node38 -->
<g id="edge64" class="edge">
<title>Node1&#45;&gt;Node38</title>
<path fill="none" stroke="midnightblue" d="M842.96,-394.31C695.96,-385.95 444.43,-368.62 355.56,-344 304.53,-329.86 250.1,-301.04 216.95,-281.75"/>
<polygon fill="midnightblue" stroke="midnightblue" points="218.57,-278.64 208.18,-276.58 215.02,-284.67 218.57,-278.64"/>
</g>
<!-- Node39 -->
<g id="node39" class="node">
<title>Node39</title>
<g id="a_node39"><a xlink:title=" ">
<polygon fill="white" stroke="#bfbfbf" points="12.06,-190.5 12.06,-209.5 63.06,-209.5 63.06,-190.5 12.06,-190.5"/>
<text text-anchor="middle" x="37.56" y="-197.5" font-family="Helvetica,sans-Serif" font-size="10.00">memory</text>
</a>
</g>
</g>
<!-- Node1&#45;&gt;Node39 -->
<g id="edge73" class="edge">
<title>Node1&#45;&gt;Node39</title>
<path fill="none" stroke="midnightblue" d="M842.9,-400.4C707.45,-398.72 471.9,-388.74 275.56,-344 194.36,-325.5 168.24,-325.54 100.56,-277 78.44,-261.14 59.52,-235.7 48.34,-218.68"/>
<polygon fill="midnightblue" stroke="midnightblue" points="51,-216.34 42.68,-209.77 45.08,-220.09 51,-216.34"/>
</g>
<!-- Node40 -->
<g id="node40" class="node">
<title>Node40</title>
<g id="a_node40"><a xlink:title=" ">
<polygon fill="white" stroke="#bfbfbf" points="1821.56,-319 1821.56,-338 1883.56,-338 1883.56,-319 1821.56,-319"/>
<text text-anchor="middle" x="1852.56" y="-326" font-family="Helvetica,sans-Serif" font-size="10.00">type_traits</text>
</a>
</g>
</g>
<!-- Node1&#45;&gt;Node40 -->
<g id="edge74" class="edge">
<title>Node1&#45;&gt;Node40</title>
<path fill="none" stroke="midnightblue" d="M1064.2,-396.13C1261.93,-388.66 1668.27,-370.59 1807.56,-344 1811.53,-343.24 1815.63,-342.24 1819.68,-341.12"/>
<polygon fill="midnightblue" stroke="midnightblue" points="1820.93,-344.39 1829.49,-338.14 1818.9,-337.69 1820.93,-344.39"/>
</g>
<!-- Node2&#45;&gt;Node3 -->
<g id="edge2" class="edge">
<title>Node2&#45;&gt;Node3</title>
<path fill="none" stroke="midnightblue" d="M535.17,-251.98C491.33,-241.42 416.59,-223.41 368.68,-211.87"/>
<polygon fill="midnightblue" stroke="midnightblue" points="369.42,-208.45 358.88,-209.51 367.78,-215.25 369.42,-208.45"/>
</g>
<!-- Node2&#45;&gt;Node6 -->
<g id="edge16" class="edge">
<title>Node2&#45;&gt;Node6</title>
<path fill="none" stroke="midnightblue" d="M585.02,-251.95C608.13,-238.37 654.93,-211.24 695.56,-190 746.29,-163.48 757.74,-153.52 811.56,-134 867.26,-113.8 934.46,-98.69 975.33,-90.48"/>
<polygon fill="midnightblue" stroke="midnightblue" points="976.24,-93.87 985.38,-88.5 974.89,-87 976.24,-93.87"/>
</g>
<!-- Node8 -->
<g id="node8" class="node">
<title>Node8</title>
<g id="a_node8"><a xlink:title=" ">
<polygon fill="white" stroke="#bfbfbf" points="525.06,-73 525.06,-92 566.06,-92 566.06,-73 525.06,-73"/>
<text text-anchor="middle" x="545.56" y="-80" font-family="Helvetica,sans-Serif" font-size="10.00">string</text>
</a>
</g>
</g>
<!-- Node2&#45;&gt;Node8 -->
<g id="edge17" class="edge">
<title>Node2&#45;&gt;Node8</title>
<path fill="none" stroke="midnightblue" d="M553.79,-251.89C539.32,-243.42 519.41,-229.01 510.56,-210 506.81,-201.94 508.71,-198.7 510.56,-190 514.19,-172.87 520.71,-170.5 526.56,-154 532.64,-136.84 537.88,-116.75 541.31,-102.41"/>
<polygon fill="midnightblue" stroke="midnightblue" points="544.8,-102.85 543.65,-92.32 537.98,-101.27 544.8,-102.85"/>
</g>
<!-- Node12 -->
<g id="node12" class="node">
<title>Node12</title>
<g id="a_node12"><a xlink:href="MarmotMaterial_8h.html" target="_top" xlink:title=" ">
<polygon fill="white" stroke="black" points="519.56,-190.5 519.56,-209.5 647.56,-209.5 647.56,-190.5 519.56,-190.5"/>
<text text-anchor="middle" x="583.56" y="-197.5" font-family="Helvetica,sans-Serif" font-size="10.00">Marmot/MarmotMaterial.h</text>
</a>
</g>
</g>
<!-- Node2&#45;&gt;Node12 -->
<g id="edge12" class="edge">
<title>Node2&#45;&gt;Node12</title>
<path fill="none" stroke="midnightblue" d="M572.42,-251.98C574.27,-243.49 577.18,-230.2 579.56,-219.32"/>
<polygon fill="midnightblue" stroke="midnightblue" points="582.98,-220.03 581.7,-209.51 576.15,-218.53 582.98,-220.03"/>
</g>
<!-- Node13 -->
<g id="node13" class="node">
<title>Node13</title>
<g id="a_node13"><a xlink:title=" ">
<polygon fill="white" stroke="#bfbfbf" points="704.06,-190.5 704.06,-209.5 763.06,-209.5 763.06,-190.5 704.06,-190.5"/>
<text text-anchor="middle" x="733.56" y="-197.5" font-family="Helvetica,sans-Serif" font-size="10.00">functional</text>
</a>
</g>
</g>
<!-- Node2&#45;&gt;Node13 -->
<g id="edge15" class="edge">
<title>Node2&#45;&gt;Node13</title>
<path fill="none" stroke="midnightblue" d="M593.91,-251.98C621.87,-241.77 668.88,-224.61 700.55,-213.05"/>
<polygon fill="midnightblue" stroke="midnightblue" points="702.05,-216.23 710.25,-209.51 699.65,-209.65 702.05,-216.23"/>
</g>
<!-- Node14 -->
<g id="node14" class="node">
<title>Node14</title>
<g id="a_node14"><a xlink:title=" ">
<polygon fill="white" stroke="#bfbfbf" points="158.06,-190.5 158.06,-209.5 241.06,-209.5 241.06,-190.5 158.06,-190.5"/>
<text text-anchor="middle" x="199.56" y="-197.5" font-family="Helvetica,sans-Serif" font-size="10.00">unordered_map</text>
</a>
</g>
</g>
<!-- Node2&#45;&gt;Node14 -->
<g id="edge18" class="edge">
<title>Node2&#45;&gt;Node14</title>
<path fill="none" stroke="midnightblue" d="M523.88,-253.41C463.48,-244.16 354.7,-227.32 251.29,-210.1"/>
<polygon fill="midnightblue" stroke="midnightblue" points="251.74,-206.62 241.3,-208.43 250.58,-213.53 251.74,-206.62"/>
</g>
<!-- Node3&#45;&gt;Node4 -->
<g id="edge3" class="edge">
<title>Node3&#45;&gt;Node4</title>
<path fill="none" stroke="midnightblue" d="M292.18,-190.44C258.3,-181.2 204.16,-166.44 166.83,-156.26"/>
<polygon fill="midnightblue" stroke="midnightblue" points="167.35,-152.77 156.79,-153.52 165.51,-159.52 167.35,-152.77"/>
</g>
<!-- Node3&#45;&gt;Node5 -->
<g id="edge4" class="edge">
<title>Node3&#45;&gt;Node5</title>
<path fill="none" stroke="midnightblue" d="M387.68,-192.81C492.53,-182.68 699.96,-162.64 810.02,-152.01"/>
<polygon fill="midnightblue" stroke="midnightblue" points="810.42,-155.49 820.04,-151.04 809.75,-148.52 810.42,-155.49"/>
</g>
<!-- Node3&#45;&gt;Node8 -->
<g id="edge10" class="edge">
<title>Node3&#45;&gt;Node8</title>
<path fill="none" stroke="midnightblue" d="M321.95,-190.15C319.98,-176.3 318.46,-149.51 332.56,-134 356.77,-107.36 461.8,-92.49 514.77,-86.56"/>
<polygon fill="midnightblue" stroke="midnightblue" points="515.36,-90.02 524.93,-85.46 514.61,-83.06 515.36,-90.02"/>
</g>
<!-- Node9 -->
<g id="node9" class="node">
<title>Node9</title>
<g id="a_node9"><a xlink:href="MarmotUtils_8h.html" target="_top" xlink:title=" ">
<polygon fill="white" stroke="black" points="342.06,-134.5 342.06,-153.5 455.06,-153.5 455.06,-134.5 342.06,-134.5"/>
<text text-anchor="middle" x="398.56" y="-141.5" font-family="Helvetica,sans-Serif" font-size="10.00">Marmot/MarmotUtils.h</text>
</a>
</g>
</g>
<!-- Node3&#45;&gt;Node9 -->
<g id="edge8" class="edge">
<title>Node3&#45;&gt;Node9</title>
<path fill="none" stroke="midnightblue" d="M335.61,-190.32C347.02,-182.11 364.39,-169.6 377.99,-159.81"/>
<polygon fill="midnightblue" stroke="midnightblue" points="380.22,-162.52 386.29,-153.83 376.13,-156.84 380.22,-162.52"/>
</g>
<!-- Node10 -->
<g id="node10" class="node">
<title>Node10</title>
<g id="a_node10"><a xlink:title=" ">
<polygon fill="white" stroke="#bfbfbf" points="226.06,-134.5 226.06,-153.5 285.06,-153.5 285.06,-134.5 226.06,-134.5"/>
<text text-anchor="middle" x="255.56" y="-141.5" font-family="Helvetica,sans-Serif" font-size="10.00">stdexcept</text>
</a>
</g>
</g>
<!-- Node3&#45;&gt;Node10 -->
<g id="edge9" class="edge">
<title>Node3&#45;&gt;Node10</title>
<path fill="none" stroke="midnightblue" d="M312.63,-190.32C302.38,-182.18 286.84,-169.84 274.56,-160.09"/>
<polygon fill="midnightblue" stroke="midnightblue" points="276.69,-157.31 266.68,-153.83 272.34,-162.79 276.69,-157.31"/>
</g>
<!-- Node3&#45;&gt;Node11 -->
<g id="edge11" class="edge">
<title>Node3&#45;&gt;Node11</title>
<path fill="none" stroke="midnightblue" d="M350.81,-190.44C381.41,-180.84 431.02,-165.26 463.47,-155.07"/>
<polygon fill="midnightblue" stroke="midnightblue" points="464.86,-158.31 473.35,-151.97 462.77,-151.63 464.86,-158.31"/>
</g>
<!-- Node5&#45;&gt;Node6 -->
<g id="edge5" class="edge">
<title>Node5&#45;&gt;Node6</title>
<path fill="none" stroke="midnightblue" d="M901.18,-134.48C923,-124.49 959.36,-107.85 984.58,-96.31"/>
<polygon fill="midnightblue" stroke="midnightblue" points="986.33,-99.35 993.97,-92.01 983.42,-92.99 986.33,-99.35"/>
</g>
<!-- Node7 -->
<g id="node7" class="node">
<title>Node7</title>
<g id="a_node7"><a xlink:title=" ">
<polygon fill="white" stroke="#bfbfbf" points="856.56,-73 856.56,-92 908.56,-92 908.56,-73 856.56,-73"/>
<text text-anchor="middle" x="882.56" y="-80" font-family="Helvetica,sans-Serif" font-size="10.00">sstream</text>
</a>
</g>
</g>
<!-- Node5&#45;&gt;Node7 -->
<g id="edge6" class="edge">
<title>Node5&#45;&gt;Node7</title>
<path fill="none" stroke="midnightblue" d="M882.56,-134.48C882.56,-126.08 882.56,-112.98 882.56,-102.16"/>
<polygon fill="midnightblue" stroke="midnightblue" points="886.06,-102.01 882.56,-92.01 879.06,-102.01 886.06,-102.01"/>
</g>
<!-- Node5&#45;&gt;Node8 -->
<g id="edge7" class="edge">
<title>Node5&#45;&gt;Node8</title>
<path fill="none" stroke="midnightblue" d="M834.27,-134.48C763.86,-122.04 634.99,-99.29 576.22,-88.91"/>
<polygon fill="midnightblue" stroke="midnightblue" points="576.55,-85.42 566.1,-87.13 575.34,-92.31 576.55,-85.42"/>
</g>
<!-- Node12&#45;&gt;Node8 -->
<g id="edge14" class="edge">
<title>Node12&#45;&gt;Node8</title>
<path fill="none" stroke="midnightblue" d="M580.7,-190.32C574.54,-171.59 559.88,-127.05 551.58,-101.79"/>
<polygon fill="midnightblue" stroke="midnightblue" points="554.9,-100.69 548.45,-92.28 548.25,-102.87 554.9,-100.69"/>
</g>
<!-- Node12&#45;&gt;Node9 -->
<g id="edge13" class="edge">
<title>Node12&#45;&gt;Node9</title>
<path fill="none" stroke="midnightblue" d="M554.24,-190.44C522.72,-181.24 472.43,-166.56 437.57,-156.39"/>
<polygon fill="midnightblue" stroke="midnightblue" points="438.32,-152.96 427.73,-153.52 436.35,-159.68 438.32,-152.96"/>
</g>
<!-- Node16 -->
<g id="node16" class="node">
<title>Node16</title>
<g id="a_node16"><a xlink:title=" ">
<polygon fill="white" stroke="#bfbfbf" points="2045.56,-6 2045.56,-25 2089.56,-25 2089.56,-6 2045.56,-6"/>
<text text-anchor="middle" x="2067.56" y="-13" font-family="Helvetica,sans-Serif" font-size="10.00">cmath</text>
</a>
</g>
</g>
<!-- Node15&#45;&gt;Node16 -->
<g id="edge20" class="edge">
<title>Node15&#45;&gt;Node16</title>
<path fill="none" stroke="midnightblue" d="M2067.56,-72.73C2067.56,-63.18 2067.56,-47.62 2067.56,-35.28"/>
<polygon fill="midnightblue" stroke="midnightblue" points="2071.06,-35.13 2067.56,-25.13 2064.06,-35.13 2071.06,-35.13"/>
</g>
<!-- Node18 -->
<g id="node18" class="node">
<title>Node18</title>
<g id="a_node18"><a xlink:title=" ">
<polygon fill="white" stroke="#bfbfbf" points="1153.56,-6 1153.56,-25 1217.56,-25 1217.56,-6 1153.56,-6"/>
<text text-anchor="middle" x="1185.56" y="-13" font-family="Helvetica,sans-Serif" font-size="10.00">Eigen/Core</text>
</a>
</g>
</g>
<!-- Node17&#45;&gt;Node18 -->
<g id="edge24" class="edge">
<title>Node17&#45;&gt;Node18</title>
<path fill="none" stroke="midnightblue" d="M1204.65,-313.33C1201.41,-262.97 1190.45,-92.61 1186.77,-35.41"/>
<polygon fill="midnightblue" stroke="midnightblue" points="1190.26,-35.03 1186.12,-25.27 1183.27,-35.48 1190.26,-35.03"/>
</g>
<!-- Node19 -->
<g id="node19" class="node">
<title>Node19</title>
<g id="a_node19"><a xlink:title=" ">
<polygon fill="white" stroke="#bfbfbf" points="1104.06,-252 1104.06,-271 1187.06,-271 1187.06,-252 1104.06,-252"/>
<text text-anchor="middle" x="1145.56" y="-259" font-family="Helvetica,sans-Serif" font-size="10.00">Fastor/Fastor.h</text>
</a>
</g>
</g>
<!-- Node17&#45;&gt;Node19 -->
<g id="edge25" class="edge">
<title>Node17&#45;&gt;Node19</title>
<path fill="none" stroke="midnightblue" d="M1192.54,-313.4C1183.09,-303.16 1170.29,-289.3 1160.44,-278.62"/>
<polygon fill="midnightblue" stroke="midnightblue" points="1162.94,-276.17 1153.58,-271.19 1157.79,-280.92 1162.94,-276.17"/>
</g>
<!-- Node17&#45;&gt;Node20 -->
<g id="edge26" class="edge">
<title>Node17&#45;&gt;Node20</title>
<path fill="none" stroke="midnightblue" d="M1227.26,-313.4C1244.03,-302.5 1267.13,-287.48 1283.89,-276.58"/>
<polygon fill="midnightblue" stroke="midnightblue" points="1285.99,-279.39 1292.47,-271.01 1282.18,-273.52 1285.99,-279.39"/>
</g>
<!-- Node29 -->
<g id="node29" class="node">
<title>Node29</title>
<g id="a_node29"><a xlink:title=" ">
<polygon fill="white" stroke="#bfbfbf" points="1452.56,-67.5 1452.56,-97.5 1556.56,-97.5 1556.56,-67.5 1452.56,-67.5"/>
<text text-anchor="start" x="1460.56" y="-85.5" font-family="Helvetica,sans-Serif" font-size="10.00">autodiff/forward/dual</text>
<text text-anchor="middle" x="1504.56" y="-74.5" font-family="Helvetica,sans-Serif" font-size="10.00">/dual.hpp</text>
</a>
</g>
</g>
<!-- Node17&#45;&gt;Node29 -->
<g id="edge44" class="edge">
<title>Node17&#45;&gt;Node29</title>
<path fill="none" stroke="midnightblue" d="M1277.38,-328.04C1371.28,-327.04 1528.12,-318.92 1564.56,-277 1608.32,-226.65 1554.31,-144.7 1523.38,-105.61"/>
<polygon fill="midnightblue" stroke="midnightblue" points="1525.82,-103.07 1516.81,-97.5 1520.39,-107.48 1525.82,-103.07"/>
</g>
<!-- Node20&#45;&gt;Node5 -->
<g id="edge27" class="edge">
<title>Node20&#45;&gt;Node5</title>
<path fill="none" stroke="midnightblue" d="M1276.1,-251.93C1229.57,-238.43 1136.14,-211.55 1056.56,-190 1012.43,-178.05 961.81,-165.03 926.59,-156.09"/>
<polygon fill="midnightblue" stroke="midnightblue" points="927.18,-152.63 916.63,-153.57 925.46,-159.42 927.18,-152.63"/>
</g>
<!-- Node20&#45;&gt;Node21 -->
<g id="edge28" class="edge">
<title>Node20&#45;&gt;Node21</title>
<path fill="none" stroke="midnightblue" d="M1288.05,-251.99C1265.76,-239.88 1231.52,-216.22 1243.56,-190 1263.55,-146.49 1311.06,-114.07 1341.12,-97.02"/>
<polygon fill="midnightblue" stroke="midnightblue" points="1343.13,-99.91 1350.22,-92.03 1339.77,-93.77 1343.13,-99.91"/>
</g>
<!-- Node24 -->
<g id="node24" class="node">
<title>Node24</title>
<g id="a_node24"><a xlink:href="MarmotVoigt_8h.html" target="_top" xlink:title=" ">
<polygon fill="white" stroke="black" points="1347.56,-190.5 1347.56,-209.5 1463.56,-209.5 1463.56,-190.5 1347.56,-190.5"/>
<text text-anchor="middle" x="1405.56" y="-197.5" font-family="Helvetica,sans-Serif" font-size="10.00">Marmot/MarmotVoigt.h</text>
</a>
</g>
</g>
<!-- Node20&#45;&gt;Node24 -->
<g id="edge32" class="edge">
<title>Node20&#45;&gt;Node24</title>
<path fill="none" stroke="midnightblue" d="M1319.89,-251.98C1336.22,-242.25 1363.16,-226.23 1382.47,-214.74"/>
<polygon fill="midnightblue" stroke="midnightblue" points="1384.45,-217.63 1391.26,-209.51 1380.87,-211.61 1384.45,-217.63"/>
</g>
<!-- Node31 -->
<g id="node31" class="node">
<title>Node31</title>
<g id="a_node31"><a xlink:title=" ">
<polygon fill="white" stroke="#bfbfbf" points="1252.06,-190.5 1252.06,-209.5 1291.06,-209.5 1291.06,-190.5 1252.06,-190.5"/>
<text text-anchor="middle" x="1271.56" y="-197.5" font-family="Helvetica,sans-Serif" font-size="10.00">utility</text>
</a>
</g>
</g>
<!-- Node20&#45;&gt;Node31 -->
<g id="edge43" class="edge">
<title>Node20&#45;&gt;Node31</title>
<path fill="none" stroke="midnightblue" d="M1300.69,-251.98C1295.69,-243.23 1287.77,-229.37 1281.45,-218.31"/>
<polygon fill="midnightblue" stroke="midnightblue" points="1284.42,-216.46 1276.42,-209.51 1278.34,-219.93 1284.42,-216.46"/>
</g>
<!-- Node21&#45;&gt;Node18 -->
<g id="edge29" class="edge">
<title>Node21&#45;&gt;Node18</title>
<path fill="none" stroke="midnightblue" d="M1343.39,-72.87C1311.48,-61.47 1255.15,-41.35 1219.12,-28.49"/>
<polygon fill="midnightblue" stroke="midnightblue" points="1220.13,-25.13 1209.54,-25.06 1217.78,-31.72 1220.13,-25.13"/>
</g>
<!-- Node22 -->
<g id="node22" class="node">
<title>Node22</title>
<g id="a_node22"><a xlink:title=" ">
<polygon fill="white" stroke="#bfbfbf" points="1284.06,-6 1284.06,-25 1355.06,-25 1355.06,-6 1284.06,-6"/>
<text text-anchor="middle" x="1319.56" y="-13" font-family="Helvetica,sans-Serif" font-size="10.00">Eigen/Dense</text>
</a>
</g>
</g>
<!-- Node21&#45;&gt;Node22 -->
<g id="edge30" class="edge">
<title>Node21&#45;&gt;Node22</title>
<path fill="none" stroke="midnightblue" d="M1361.08,-72.73C1353.67,-62.7 1341.35,-46.01 1332.05,-33.42"/>
<polygon fill="midnightblue" stroke="midnightblue" points="1334.69,-31.09 1325.93,-25.13 1329.05,-35.25 1334.69,-31.09"/>
</g>
<!-- Node23 -->
<g id="node23" class="node">
<title>Node23</title>
<g id="a_node23"><a xlink:title=" ">
<polygon fill="white" stroke="#bfbfbf" points="1373.06,-0.5 1373.06,-30.5 1504.06,-30.5 1504.06,-0.5 1373.06,-0.5"/>
<text text-anchor="start" x="1381.06" y="-18.5" font-family="Helvetica,sans-Serif" font-size="10.00">unsupported/Eigen/CXX11</text>
<text text-anchor="middle" x="1438.56" y="-7.5" font-family="Helvetica,sans-Serif" font-size="10.00">/Tensor</text>
</a>
</g>
</g>
<!-- Node21&#45;&gt;Node23 -->
<g id="edge31" class="edge">
<title>Node21&#45;&gt;Node23</title>
<path fill="none" stroke="midnightblue" d="M1377.13,-72.73C1386.91,-63.78 1402.47,-49.54 1415.47,-37.63"/>
<polygon fill="midnightblue" stroke="midnightblue" points="1418.16,-39.92 1423.17,-30.59 1413.43,-34.76 1418.16,-39.92"/>
</g>
<!-- Node24&#45;&gt;Node5 -->
<g id="edge33" class="edge">
<title>Node24&#45;&gt;Node5</title>
<path fill="none" stroke="midnightblue" d="M1347.34,-192.99C1251.35,-183.08 1060.12,-163.33 955.35,-152.52"/>
<polygon fill="midnightblue" stroke="midnightblue" points="955.48,-149.01 945.18,-151.47 954.77,-155.97 955.48,-149.01"/>
</g>
<!-- Node24&#45;&gt;Node21 -->
<g id="edge42" class="edge">
<title>Node24&#45;&gt;Node21</title>
<path fill="none" stroke="midnightblue" d="M1402.7,-190.32C1396.54,-171.59 1381.88,-127.05 1373.58,-101.79"/>
<polygon fill="midnightblue" stroke="midnightblue" points="1376.9,-100.69 1370.45,-92.28 1370.25,-102.87 1376.9,-100.69"/>
</g>
<!-- Node24&#45;&gt;Node25 -->
<g id="edge34" class="edge">
<title>Node24&#45;&gt;Node25</title>
<path fill="none" stroke="midnightblue" d="M1453.41,-190.44C1506.76,-180.9 1593,-165.48 1649.99,-155.29"/>
<polygon fill="midnightblue" stroke="midnightblue" points="1650.7,-158.72 1659.93,-153.52 1649.47,-151.83 1650.7,-158.72"/>
</g>
<!-- Node25&#45;&gt;Node15 -->
<g id="edge35" class="edge">
<title>Node25&#45;&gt;Node15</title>
<path fill="none" stroke="midnightblue" d="M1763.54,-134.5C1820.49,-125.75 1911.27,-111.52 1989.56,-98 1997.01,-96.71 2004.86,-95.31 2012.59,-93.9"/>
<polygon fill="midnightblue" stroke="midnightblue" points="2013.43,-97.3 2022.64,-92.05 2012.17,-90.42 2013.43,-97.3"/>
</g>
<!-- Node25&#45;&gt;Node21 -->
<g id="edge36" class="edge">
<title>Node25&#45;&gt;Node21</title>
<path fill="none" stroke="midnightblue" d="M1655.41,-134.42C1602.12,-125.58 1516.99,-111.26 1443.56,-98 1436.38,-96.7 1428.82,-95.3 1421.38,-93.9"/>
<polygon fill="midnightblue" stroke="midnightblue" points="1421.81,-90.42 1411.34,-92 1420.51,-97.3 1421.81,-90.42"/>
</g>
<!-- Node26 -->
<g id="node26" class="node">
<title>Node26</title>
<g id="a_node26"><a xlink:title=" ">
<polygon fill="white" stroke="#bfbfbf" points="1646.56,-73 1646.56,-92 1768.56,-92 1768.56,-73 1646.56,-73"/>
<text text-anchor="middle" x="1707.56" y="-80" font-family="Helvetica,sans-Serif" font-size="10.00">autodiff/forward/dual.hpp</text>
</a>
</g>
</g>
<!-- Node25&#45;&gt;Node26 -->
<g id="edge37" class="edge">
<title>Node25&#45;&gt;Node26</title>
<path fill="none" stroke="midnightblue" d="M1707.56,-134.48C1707.56,-126.08 1707.56,-112.98 1707.56,-102.16"/>
<polygon fill="midnightblue" stroke="midnightblue" points="1711.06,-102.01 1707.56,-92.01 1704.06,-102.01 1711.06,-102.01"/>
</g>
<!-- Node27 -->
<g id="node27" class="node">
<title>Node27</title>
<g id="a_node27"><a xlink:title=" ">
<polygon fill="white" stroke="#bfbfbf" points="1786.56,-73 1786.56,-92 1906.56,-92 1906.56,-73 1786.56,-73"/>
<text text-anchor="middle" x="1846.56" y="-80" font-family="Helvetica,sans-Serif" font-size="10.00">autodiff/forward/real.hpp</text>
</a>
</g>
</g>
<!-- Node25&#45;&gt;Node27 -->
<g id="edge38" class="edge">
<title>Node25&#45;&gt;Node27</title>
<path fill="none" stroke="midnightblue" d="M1727.47,-134.48C1751.01,-124.4 1790.37,-107.55 1817.35,-96"/>
<polygon fill="midnightblue" stroke="midnightblue" points="1818.86,-99.16 1826.68,-92.01 1816.11,-92.73 1818.86,-99.16"/>
</g>
<!-- Node28 -->
<g id="node28" class="node">
<title>Node28</title>
<g id="a_node28"><a xlink:title=" ">
<polygon fill="white" stroke="#bfbfbf" points="1924.56,-73 1924.56,-92 1980.56,-92 1980.56,-73 1924.56,-73"/>
<text text-anchor="middle" x="1952.56" y="-80" font-family="Helvetica,sans-Serif" font-size="10.00">algorithm</text>
</a>
</g>
</g>
<!-- Node25&#45;&gt;Node28 -->
<g id="edge39" class="edge">
<title>Node25&#45;&gt;Node28</title>
<path fill="none" stroke="midnightblue" d="M1757.72,-134.48C1800.21,-126.72 1862.5,-114.02 1915.56,-98 1917.99,-97.27 1920.48,-96.45 1922.97,-95.58"/>
<polygon fill="midnightblue" stroke="midnightblue" points="1924.25,-98.83 1932.41,-92.07 1921.82,-92.27 1924.25,-98.83"/>
</g>
<!-- Node25&#45;&gt;Node29 -->
<g id="edge40" class="edge">
<title>Node25&#45;&gt;Node29</title>
<path fill="none" stroke="midnightblue" d="M1678.47,-134.48C1648.28,-125.63 1600.25,-111.55 1562.31,-100.43"/>
<polygon fill="midnightblue" stroke="midnightblue" points="1562.98,-96.98 1552.4,-97.52 1561.01,-103.69 1562.98,-96.98"/>
</g>
<!-- Node30 -->
<g id="node30" class="node">
<title>Node30</title>
<g id="a_node30"><a xlink:title=" ">
<polygon fill="white" stroke="#bfbfbf" points="1575.06,-73 1575.06,-92 1628.06,-92 1628.06,-73 1575.06,-73"/>
<text text-anchor="middle" x="1601.56" y="-80" font-family="Helvetica,sans-Serif" font-size="10.00">complex</text>
</a>
</g>
</g>
<!-- Node25&#45;&gt;Node30 -->
<g id="edge41" class="edge">
<title>Node25&#45;&gt;Node30</title>
<path fill="none" stroke="midnightblue" d="M1692.37,-134.48C1674.9,-124.67 1645.98,-108.43 1625.47,-96.92"/>
<polygon fill="midnightblue" stroke="midnightblue" points="1627.15,-93.85 1616.72,-92.01 1623.72,-99.96 1627.15,-93.85"/>
</g>
<!-- Node32&#45;&gt;Node11 -->
<g id="edge47" class="edge">
<title>Node32&#45;&gt;Node11</title>
<path fill="none" stroke="midnightblue" d="M896.4,-190.47C790.77,-178.49 602.95,-157.18 527.87,-148.67"/>
<polygon fill="midnightblue" stroke="midnightblue" points="527.97,-145.15 517.64,-147.5 527.18,-152.11 527.97,-145.15"/>
</g>
<!-- Node32&#45;&gt;Node21 -->
<g id="edge46" class="edge">
<title>Node32&#45;&gt;Node21</title>
<path fill="none" stroke="midnightblue" d="M1001,-190.41C1071.25,-169.92 1248.72,-118.16 1328.11,-95.01"/>
<polygon fill="midnightblue" stroke="midnightblue" points="1329.57,-98.23 1338.19,-92.06 1327.61,-91.51 1329.57,-98.23"/>
</g>
<!-- Node33&#45;&gt;Node6 -->
<g id="edge52" class="edge">
<title>Node33&#45;&gt;Node6</title>
<path fill="none" stroke="midnightblue" d="M1445.38,-251.88C1418.55,-242.45 1375,-226.49 1338.56,-210 1321.17,-202.13 1317.99,-197.77 1300.56,-190 1212.09,-150.56 1104.13,-113.46 1048.91,-95.24"/>
<polygon fill="midnightblue" stroke="midnightblue" points="1049.82,-91.86 1039.23,-92.06 1047.64,-98.51 1049.82,-91.86"/>
</g>
<!-- Node33&#45;&gt;Node21 -->
<g id="edge50" class="edge">
<title>Node33&#45;&gt;Node21</title>
<path fill="none" stroke="midnightblue" d="M1472.97,-251.85C1476.33,-238.15 1481.11,-210.85 1472.56,-190 1455.9,-149.38 1415.45,-115.97 1389.9,-97.95"/>
<polygon fill="midnightblue" stroke="midnightblue" points="1391.77,-94.99 1381.54,-92.24 1387.82,-100.77 1391.77,-94.99"/>
</g>
<!-- Node33&#45;&gt;Node24 -->
<g id="edge51" class="edge">
<title>Node33&#45;&gt;Node24</title>
<path fill="none" stroke="midnightblue" d="M1461.25,-251.98C1451.11,-242.7 1434.69,-227.67 1422.31,-216.33"/>
<polygon fill="midnightblue" stroke="midnightblue" points="1424.59,-213.68 1414.85,-209.51 1419.87,-218.84 1424.59,-213.68"/>
</g>
<!-- Node33&#45;&gt;Node32 -->
<g id="edge49" class="edge">
<title>Node33&#45;&gt;Node32</title>
<path fill="none" stroke="midnightblue" d="M1417.92,-251.98C1404.45,-249.91 1389.98,-247.78 1376.56,-246 1266.82,-231.45 1139.93,-217.87 1057.84,-209.52"/>
<polygon fill="midnightblue" stroke="midnightblue" points="1058.11,-206.03 1047.81,-208.5 1057.41,-212.99 1058.11,-206.03"/>
</g>
<!-- Node34 -->
<g id="node34" class="node">
<title>Node34</title>
<g id="a_node34"><a xlink:title=" ">
<polygon fill="white" stroke="#bfbfbf" points="1520.06,-190.5 1520.06,-209.5 1555.06,-209.5 1555.06,-190.5 1520.06,-190.5"/>
<text text-anchor="middle" x="1537.56" y="-197.5" font-family="Helvetica,sans-Serif" font-size="10.00">map</text>
</a>
</g>
</g>
<!-- Node33&#45;&gt;Node34 -->
<g id="edge53" class="edge">
<title>Node33&#45;&gt;Node34</title>
<path fill="none" stroke="midnightblue" d="M1480.16,-251.98C1490.61,-242.7 1507.53,-227.67 1520.29,-216.33"/>
<polygon fill="midnightblue" stroke="midnightblue" points="1522.82,-218.77 1527.98,-209.51 1518.18,-213.53 1522.82,-218.77"/>
</g>
<!-- Node35&#45;&gt;Node5 -->
<g id="edge55" class="edge">
<title>Node35&#45;&gt;Node5</title>
<path fill="none" stroke="midnightblue" d="M765.1,-251.82C786.43,-232.42 838.21,-185.33 865.34,-160.66"/>
<polygon fill="midnightblue" stroke="midnightblue" points="867.86,-163.1 872.9,-153.78 863.15,-157.92 867.86,-163.1"/>
</g>
<!-- Node35&#45;&gt;Node13 -->
<g id="edge57" class="edge">
<title>Node35&#45;&gt;Node13</title>
<path fill="none" stroke="midnightblue" d="M752.41,-251.98C749.24,-243.4 744.25,-229.93 740.21,-218.98"/>
<polygon fill="midnightblue" stroke="midnightblue" points="743.46,-217.67 736.7,-209.51 736.89,-220.1 743.46,-217.67"/>
</g>
<!-- Node35&#45;&gt;Node18 -->
<g id="edge56" class="edge">
<title>Node35&#45;&gt;Node18</title>
<path fill="none" stroke="midnightblue" d="M758.36,-251.96C769.8,-217.67 813.94,-90.65 847.56,-67 894.47,-34 1063.28,-22.04 1143.13,-18.17"/>
<polygon fill="midnightblue" stroke="midnightblue" points="1143.5,-21.65 1153.33,-17.69 1143.18,-14.66 1143.5,-21.65"/>
</g>
<!-- Node36&#45;&gt;Node12 -->
<g id="edge61" class="edge">
<title>Node36&#45;&gt;Node12</title>
<path fill="none" stroke="midnightblue" d="M931.4,-321.82C846.22,-314.25 710.35,-299.16 664.56,-277 649.46,-269.69 617.46,-237.2 598.51,-217.14"/>
<polygon fill="midnightblue" stroke="midnightblue" points="600.89,-214.56 591.5,-209.66 595.78,-219.35 600.89,-214.56"/>
</g>
<!-- Node36&#45;&gt;Node19 -->
<g id="edge60" class="edge">
<title>Node36&#45;&gt;Node19</title>
<path fill="none" stroke="midnightblue" d="M1034.37,-313.4C1059.18,-302.04 1093.74,-286.22 1117.72,-275.24"/>
<polygon fill="midnightblue" stroke="midnightblue" points="1119.34,-278.35 1126.97,-271.01 1116.42,-271.99 1119.34,-278.35"/>
</g>
<!-- Node37 -->
<g id="node37" class="node">
<title>Node37</title>
<g id="a_node37"><a xlink:title=" ">
<polygon fill="white" stroke="#bfbfbf" points="932.06,-252 932.06,-271 1047.06,-271 1047.06,-252 932.06,-252"/>
<text text-anchor="middle" x="989.56" y="-259" font-family="Helvetica,sans-Serif" font-size="10.00">Fastor/tensor/Tensor.h</text>
</a>
</g>
</g>
<!-- Node36&#45;&gt;Node37 -->
<g id="edge62" class="edge">
<title>Node36&#45;&gt;Node37</title>
<path fill="none" stroke="midnightblue" d="M1000.52,-313.4C998.49,-303.96 995.79,-291.45 993.58,-281.19"/>
<polygon fill="midnightblue" stroke="midnightblue" points="996.96,-280.23 991.43,-271.19 990.11,-281.71 996.96,-280.23"/>
</g>
<!-- Node38&#45;&gt;Node8 -->
<g id="edge67" class="edge">
<title>Node38&#45;&gt;Node8</title>
<path fill="none" stroke="midnightblue" d="M163.29,-246.42C123.04,-220.74 41.65,-167.67 34.56,-154 30.47,-146.11 28.59,-140.59 34.56,-134 66.93,-98.27 409.46,-86.87 514.87,-84.19"/>
<polygon fill="midnightblue" stroke="midnightblue" points="514.96,-87.69 524.87,-83.94 514.78,-80.69 514.96,-87.69"/>
</g>
<!-- Node38&#45;&gt;Node9 -->
<g id="edge65" class="edge">
<title>Node38&#45;&gt;Node9</title>
<path fill="none" stroke="midnightblue" d="M169.02,-246.47C153.29,-231.43 134.02,-207.39 148.56,-190 160.29,-175.97 261.74,-161.23 331.74,-152.59"/>
<polygon fill="midnightblue" stroke="midnightblue" points="332.32,-156.05 341.83,-151.36 331.48,-149.1 332.32,-156.05"/>
</g>
<!-- Node38&#45;&gt;Node11 -->
<g id="edge69" class="edge">
<title>Node38&#45;&gt;Node11</title>
<path fill="none" stroke="midnightblue" d="M261.81,-248.85C302.84,-240.96 353.68,-228.53 396.56,-210 426.86,-196.9 458.1,-174.66 477.18,-159.9"/>
<polygon fill="midnightblue" stroke="midnightblue" points="479.59,-162.46 485.27,-153.52 475.25,-156.96 479.59,-162.46"/>
</g>
<!-- Node38&#45;&gt;Node14 -->
<g id="edge68" class="edge">
<title>Node38&#45;&gt;Node14</title>
<path fill="none" stroke="midnightblue" d="M188.88,-246.4C190.76,-238.38 193.15,-228.23 195.19,-219.57"/>
<polygon fill="midnightblue" stroke="midnightblue" points="198.64,-220.19 197.52,-209.66 191.82,-218.59 198.64,-220.19"/>
</g>
<!-- Node38&#45;&gt;Node39 -->
<g id="edge66" class="edge">
<title>Node38&#45;&gt;Node39</title>
<path fill="none" stroke="midnightblue" d="M150.48,-246.4C125.54,-236.37 92.35,-223.03 68.41,-213.4"/>
<polygon fill="midnightblue" stroke="midnightblue" points="69.68,-210.14 59.09,-209.66 67.07,-216.64 69.68,-210.14"/>
</g>
</g>
</svg>
