<?xml version="1.0" encoding="UTF-8" standalone="no"?>
<!DOCTYPE svg PUBLIC "-//W3C//DTD SVG 1.1//EN"
 "http://www.w3.org/Graphics/SVG/1.1/DTD/svg11.dtd">
<!-- Generated by graphviz version 2.44.0 ()
 -->
<!-- Title: modules/elements/DisplacementFiniteElement/src/DisplacementFiniteElementRegistration.cpp Pages: 1 -->
<!--zoomable 430 -->
<svg id="main" version="1.1" xmlns="http://www.w3.org/2000/svg" xmlns:xlink="http://www.w3.org/1999/xlink" xml:space="preserve" onload="init(evt)">
<style type="text/css"><![CDATA[
.edge:hover path { stroke: red; }
.edge:hover polygon { stroke: red; fill: red; }
]]></style>
<script type="text/javascript"><![CDATA[
var edges = document.getElementsByTagName('g');
if (edges && edges.length) {
  for (var i=0;i<edges.length;i++) {
    if (edges[i].id.substr(0,4)=='edge') {
      edges[i].setAttribute('class','edge');
    }
  }
}
]]></script>
        <defs>
                <circle id="rim" cx="0" cy="0" r="7"/>
                <circle id="rim2" cx="0" cy="0" r="3.5"/>
                <g id="zoomPlus">
                        <use xlink:href="#rim" fill="#404040">
                                <set attributeName="fill" to="#808080" begin="zoomplus.mouseover" end="zoomplus.mouseout"/>
                        </use>
                        <path d="M-4,0h8M0,-4v8" fill="none" stroke="white" stroke-width="1.5" pointer-events="none"/>
                </g>
                <g id="zoomMin">
                        <use xlink:href="#rim" fill="#404040">
                                <set attributeName="fill" to="#808080" begin="zoomminus.mouseover" end="zoomminus.mouseout"/>
                        </use>
                        <path d="M-4,0h8" fill="none" stroke="white" stroke-width="1.5" pointer-events="none"/>
                </g>
                <g id="dirArrow">
                        <path fill="none" stroke="white" stroke-width="1.5" d="M0,-3.0v7 M-2.5,-0.5L0,-3.0L2.5,-0.5"/>
                </g>
               <g id="resetDef">
                       <use xlink:href="#rim2" fill="#404040">
                               <set attributeName="fill" to="#808080" begin="reset.mouseover" end="reset.mouseout"/>
                       </use>
               </g>
        </defs>

<script type="text/javascript">
var viewWidth = 2087;
var viewHeight = 430;
var sectionId = 'dynsection-0';
</script>
<script xlink:href="svgpan.js"/>
<svg id="graph" class="graph">
<g id="viewport">
<title>modules/elements/DisplacementFiniteElement/src/DisplacementFiniteElementRegistration.cpp</title>
<polygon fill="white" stroke="transparent" points="-4,4 -4,-426 2082.92,-426 2082.92,4 -4,4"/>
<!-- Node1 -->
<g id="node1" class="node">
<title>Node1</title>
<g id="a_node1"><a xlink:title=" ">
<polygon fill="#bfbfbf" stroke="black" points="725.92,-380.5 725.92,-421.5 904.92,-421.5 904.92,-380.5 725.92,-380.5"/>
<text text-anchor="start" x="733.92" y="-409.5" font-family="Helvetica,sans-Serif" font-size="10.00">modules/elements/Displacement</text>
<text text-anchor="start" x="733.92" y="-398.5" font-family="Helvetica,sans-Serif" font-size="10.00">FiniteElement/src/DisplacementFinite</text>
<text text-anchor="middle" x="815.42" y="-387.5" font-family="Helvetica,sans-Serif" font-size="10.00">ElementRegistration.cpp</text>
</a>
</g>
</g>
<!-- Node2 -->
<g id="node2" class="node">
<title>Node2</title>
<g id="a_node2"><a xlink:href="DisplacementFiniteElement_8h.html" target="_top" xlink:title=" ">
<polygon fill="white" stroke="black" points="944.42,-313.5 944.42,-343.5 1080.42,-343.5 1080.42,-313.5 944.42,-313.5"/>
<text text-anchor="start" x="952.42" y="-331.5" font-family="Helvetica,sans-Serif" font-size="10.00">Marmot/DisplacementFinite</text>
<text text-anchor="middle" x="1012.42" y="-320.5" font-family="Helvetica,sans-Serif" font-size="10.00">Element.h</text>
</a>
</g>
</g>
<!-- Node1&#45;&gt;Node2 -->
<g id="edge1" class="edge">
<title>Node1&#45;&gt;Node2</title>
<path fill="none" stroke="midnightblue" d="M870.03,-380.46C899.27,-369.99 934.98,-357.21 963.33,-347.07"/>
<polygon fill="midnightblue" stroke="midnightblue" points="964.79,-350.26 973.03,-343.6 962.43,-343.67 964.79,-350.26"/>
</g>
<!-- Node3 -->
<g id="node3" class="node">
<title>Node3</title>
<g id="a_node3"><a xlink:href="Marmot_8h.html" target="_top" xlink:title=" ">
<polygon fill="white" stroke="black" points="396.92,-252 396.92,-271 489.92,-271 489.92,-252 396.92,-252"/>
<text text-anchor="middle" x="443.42" y="-259" font-family="Helvetica,sans-Serif" font-size="10.00">Marmot/Marmot.h</text>
</a>
</g>
</g>
<!-- Node1&#45;&gt;Node3 -->
<g id="edge62" class="edge">
<title>Node1&#45;&gt;Node3</title>
<path fill="none" stroke="midnightblue" d="M762.52,-380.45C684.45,-351.59 540.7,-298.46 476.22,-274.62"/>
<polygon fill="midnightblue" stroke="midnightblue" points="477.17,-271.24 466.57,-271.06 474.74,-277.81 477.17,-271.24"/>
</g>
<!-- Node15 -->
<g id="node15" class="node">
<title>Node15</title>
<g id="a_node15"><a xlink:href="MarmotFiniteElement_8h.html" target="_top" xlink:title=" ">
<polygon fill="white" stroke="black" points="1040.42,-190.5 1040.42,-209.5 1192.42,-209.5 1192.42,-190.5 1040.42,-190.5"/>
<text text-anchor="middle" x="1116.42" y="-197.5" font-family="Helvetica,sans-Serif" font-size="10.00">Marmot/MarmotFiniteElement.h</text>
</a>
</g>
</g>
<!-- Node1&#45;&gt;Node15 -->
<g id="edge63" class="edge">
<title>Node1&#45;&gt;Node15</title>
<path fill="none" stroke="midnightblue" d="M905,-392.41C974.78,-384.61 1063.95,-369.85 1089.42,-344 1122.44,-310.48 1121.71,-250.07 1118.85,-219.62"/>
<polygon fill="midnightblue" stroke="midnightblue" points="1122.32,-219.08 1117.72,-209.53 1115.36,-219.86 1122.32,-219.08"/>
</g>
<!-- Node36 -->
<g id="node36" class="node">
<title>Node36</title>
<g id="a_node36"><a xlink:href="MarmotFiniteElementSpatialWrapper_8h.html" target="_top" xlink:title=" ">
<polygon fill="white" stroke="black" points="119.92,-246.5 119.92,-276.5 264.92,-276.5 264.92,-246.5 119.92,-246.5"/>
<text text-anchor="start" x="127.92" y="-264.5" font-family="Helvetica,sans-Serif" font-size="10.00">Marmot/MarmotFiniteElement</text>
<text text-anchor="middle" x="192.42" y="-253.5" font-family="Helvetica,sans-Serif" font-size="10.00">SpatialWrapper.h</text>
</a>
</g>
</g>
<!-- Node1&#45;&gt;Node36 -->
<g id="edge64" class="edge">
<title>Node1&#45;&gt;Node36</title>
<path fill="none" stroke="midnightblue" d="M726.82,-380.45C603.11,-353.14 380.89,-304.1 265.87,-278.71"/>
<polygon fill="midnightblue" stroke="midnightblue" points="266.61,-275.29 256.09,-276.55 265.1,-282.13 266.61,-275.29"/>
</g>
<!-- Node2&#45;&gt;Node3 -->
<g id="edge2" class="edge">
<title>Node2&#45;&gt;Node3</title>
<path fill="none" stroke="midnightblue" d="M944.23,-321.92C850.04,-313.87 674.92,-297.66 526.42,-277 517.58,-275.77 508.23,-274.3 499.13,-272.78"/>
<polygon fill="midnightblue" stroke="midnightblue" points="499.44,-269.28 488.99,-271.05 498.26,-276.18 499.44,-269.28"/>
</g>
<!-- Node4 -->
<g id="node4" class="node">
<title>Node4</title>
<g id="a_node4"><a xlink:href="MarmotElement_8h.html" target="_top" xlink:title=" ">
<polygon fill="white" stroke="black" points="225.42,-190.5 225.42,-209.5 353.42,-209.5 353.42,-190.5 225.42,-190.5"/>
<text text-anchor="middle" x="289.42" y="-197.5" font-family="Helvetica,sans-Serif" font-size="10.00">Marmot/MarmotElement.h</text>
</a>
</g>
</g>
<!-- Node2&#45;&gt;Node4 -->
<g id="edge17" class="edge">
<title>Node2&#45;&gt;Node4</title>
<path fill="none" stroke="midnightblue" d="M944.33,-326.87C804.01,-324.8 487.45,-315.81 387.42,-277 353.65,-263.9 321.94,-235.19 304.17,-217.05"/>
<polygon fill="midnightblue" stroke="midnightblue" points="306.46,-214.38 297.03,-209.56 301.39,-219.21 306.46,-214.38"/>
</g>
<!-- Node5 -->
<g id="node5" class="node">
<title>Node5</title>
<g id="a_node5"><a xlink:href="MarmotElementProperty_8h.html" target="_top" xlink:title=" ">
<polygon fill="white" stroke="black" points="37.42,-134.5 37.42,-153.5 201.42,-153.5 201.42,-134.5 37.42,-134.5"/>
<text text-anchor="middle" x="119.42" y="-141.5" font-family="Helvetica,sans-Serif" font-size="10.00">Marmot/MarmotElementProperty.h</text>
</a>
</g>
</g>
<!-- Node2&#45;&gt;Node5 -->
<g id="edge18" class="edge">
<title>Node2&#45;&gt;Node5</title>
<path fill="none" stroke="midnightblue" d="M944.2,-328.24C761.58,-329.49 264.96,-327.96 110.42,-277 53.83,-258.34 -24.87,-239.42 8.42,-190 19.4,-173.7 37.41,-163.3 55.75,-156.67"/>
<polygon fill="midnightblue" stroke="midnightblue" points="56.92,-159.97 65.34,-153.53 54.75,-153.31 56.92,-159.97"/>
</g>
<!-- Node8 -->
<g id="node8" class="node">
<title>Node8</title>
<g id="a_node8"><a xlink:title=" ">
<polygon fill="white" stroke="#bfbfbf" points="939.42,-134.5 939.42,-153.5 983.42,-153.5 983.42,-134.5 939.42,-134.5"/>
<text text-anchor="middle" x="961.42" y="-141.5" font-family="Helvetica,sans-Serif" font-size="10.00">vector</text>
</a>
</g>
</g>
<!-- Node2&#45;&gt;Node8 -->
<g id="edge61" class="edge">
<title>Node2&#45;&gt;Node8</title>
<path fill="none" stroke="midnightblue" d="M1008.5,-313.48C999.41,-280.96 976.88,-200.34 966.64,-163.68"/>
<polygon fill="midnightblue" stroke="midnightblue" points="969.95,-162.51 963.88,-153.82 963.2,-164.39 969.95,-162.51"/>
</g>
<!-- Node11 -->
<g id="node11" class="node">
<title>Node11</title>
<g id="a_node11"><a xlink:title=" ">
<polygon fill="white" stroke="#bfbfbf" points="1154.42,-73 1154.42,-92 1208.42,-92 1208.42,-73 1154.42,-73"/>
<text text-anchor="middle" x="1181.42" y="-80" font-family="Helvetica,sans-Serif" font-size="10.00">iostream</text>
</a>
</g>
</g>
<!-- Node2&#45;&gt;Node11 -->
<g id="edge59" class="edge">
<title>Node2&#45;&gt;Node11</title>
<path fill="none" stroke="midnightblue" d="M1080.77,-326.42C1163.22,-323.51 1294.64,-313.14 1325.42,-277 1380.1,-212.79 1259.61,-129.84 1205.73,-97.39"/>
<polygon fill="midnightblue" stroke="midnightblue" points="1207.19,-94.18 1196.8,-92.1 1203.62,-100.21 1207.19,-94.18"/>
</g>
<!-- Node13 -->
<g id="node13" class="node">
<title>Node13</title>
<g id="a_node13"><a xlink:href="MarmotConstants_8h.html" target="_top" xlink:title=" ">
<polygon fill="white" stroke="black" points="1941.92,-73 1941.92,-92 2078.92,-92 2078.92,-73 1941.92,-73"/>
<text text-anchor="middle" x="2010.42" y="-80" font-family="Helvetica,sans-Serif" font-size="10.00">Marmot/MarmotConstants.h</text>
</a>
</g>
</g>
<!-- Node2&#45;&gt;Node13 -->
<g id="edge15" class="edge">
<title>Node2&#45;&gt;Node13</title>
<path fill="none" stroke="midnightblue" d="M1080.6,-325.69C1222.85,-321.32 1546.8,-308.19 1652.42,-277 1791.77,-235.85 1938.26,-135.94 1990.49,-98.23"/>
<polygon fill="midnightblue" stroke="midnightblue" points="1992.84,-100.86 1998.86,-92.14 1988.72,-95.2 1992.84,-100.86"/>
</g>
<!-- Node2&#45;&gt;Node15 -->
<g id="edge19" class="edge">
<title>Node2&#45;&gt;Node15</title>
<path fill="none" stroke="midnightblue" d="M1023.95,-313.48C1043.25,-290 1082.02,-242.84 1102.7,-217.69"/>
<polygon fill="midnightblue" stroke="midnightblue" points="1105.55,-219.74 1109.19,-209.79 1100.14,-215.29 1105.55,-219.74"/>
</g>
<!-- Node16 -->
<g id="node16" class="node">
<title>Node16</title>
<g id="a_node16"><a xlink:href="MarmotTypedefs_8h.html" target="_top" xlink:title=" ">
<polygon fill="white" stroke="black" points="1243.92,-73 1243.92,-92 1376.92,-92 1376.92,-73 1243.92,-73"/>
<text text-anchor="middle" x="1310.42" y="-80" font-family="Helvetica,sans-Serif" font-size="10.00">Marmot/MarmotTypedefs.h</text>
</a>
</g>
</g>
<!-- Node2&#45;&gt;Node16 -->
<g id="edge57" class="edge">
<title>Node2&#45;&gt;Node16</title>
<path fill="none" stroke="midnightblue" d="M1080.57,-327.2C1167.88,-325.2 1311.97,-315.91 1345.42,-277 1389.55,-225.67 1344.32,-137.77 1321.68,-100.75"/>
<polygon fill="midnightblue" stroke="midnightblue" points="1324.53,-98.7 1316.24,-92.1 1318.61,-102.43 1324.53,-98.7"/>
</g>
<!-- Node20 -->
<g id="node20" class="node">
<title>Node20</title>
<g id="a_node20"><a xlink:href="MarmotGeometryElement_8h.html" target="_top" xlink:title=" ">
<polygon fill="white" stroke="black" points="1146.42,-252 1146.42,-271 1316.42,-271 1316.42,-252 1146.42,-252"/>
<text text-anchor="middle" x="1231.42" y="-259" font-family="Helvetica,sans-Serif" font-size="10.00">Marmot/MarmotGeometryElement.h</text>
</a>
</g>
</g>
<!-- Node2&#45;&gt;Node20 -->
<g id="edge25" class="edge">
<title>Node2&#45;&gt;Node20</title>
<path fill="none" stroke="midnightblue" d="M1059.67,-313.48C1099.44,-301.67 1155.61,-285 1192.74,-273.98"/>
<polygon fill="midnightblue" stroke="midnightblue" points="1194.09,-277.23 1202.68,-271.03 1192.1,-270.52 1194.09,-277.23"/>
</g>
<!-- Node21 -->
<g id="node21" class="node">
<title>Node21</title>
<g id="a_node21"><a xlink:href="MarmotVoigt_8h.html" target="_top" xlink:title=" ">
<polygon fill="white" stroke="black" points="1416.42,-190.5 1416.42,-209.5 1532.42,-209.5 1532.42,-190.5 1416.42,-190.5"/>
<text text-anchor="middle" x="1474.42" y="-197.5" font-family="Helvetica,sans-Serif" font-size="10.00">Marmot/MarmotVoigt.h</text>
</a>
</g>
</g>
<!-- Node2&#45;&gt;Node21 -->
<g id="edge58" class="edge">
<title>Node2&#45;&gt;Node21</title>
<path fill="none" stroke="midnightblue" d="M1080.65,-324.16C1177.09,-318.51 1347.65,-304.86 1402.42,-277 1428.91,-263.53 1450.93,-236.26 1463.39,-218.32"/>
<polygon fill="midnightblue" stroke="midnightblue" points="1466.36,-220.17 1469,-209.91 1460.54,-216.28 1466.36,-220.17"/>
</g>
<!-- Node22 -->
<g id="node22" class="node">
<title>Node22</title>
<g id="a_node22"><a xlink:href="MarmotJournal_8h.html" target="_top" xlink:title=" ">
<polygon fill="white" stroke="black" points="1007.92,-134.5 1007.92,-153.5 1132.92,-153.5 1132.92,-134.5 1007.92,-134.5"/>
<text text-anchor="middle" x="1070.42" y="-141.5" font-family="Helvetica,sans-Serif" font-size="10.00">Marmot/MarmotJournal.h</text>
</a>
</g>
</g>
<!-- Node2&#45;&gt;Node22 -->
<g id="edge44" class="edge">
<title>Node2&#45;&gt;Node22</title>
<path fill="none" stroke="midnightblue" d="M1011.79,-313.11C1011.2,-287.24 1012.51,-231.7 1031.42,-190 1036.41,-178.98 1044.99,-168.64 1052.83,-160.65"/>
<polygon fill="midnightblue" stroke="midnightblue" points="1055.48,-162.96 1060.26,-153.51 1050.63,-157.91 1055.48,-162.96"/>
</g>
<!-- Node24 -->
<g id="node24" class="node">
<title>Node24</title>
<g id="a_node24"><a xlink:href="MarmotMath_8h.html" target="_top" xlink:title=" ">
<polygon fill="white" stroke="black" points="1590.92,-134.5 1590.92,-153.5 1705.92,-153.5 1705.92,-134.5 1590.92,-134.5"/>
<text text-anchor="middle" x="1648.42" y="-141.5" font-family="Helvetica,sans-Serif" font-size="10.00">Marmot/MarmotMath.h</text>
</a>
</g>
</g>
<!-- Node2&#45;&gt;Node24 -->
<g id="edge50" class="edge">
<title>Node2&#45;&gt;Node24</title>
<path fill="none" stroke="midnightblue" d="M1080.46,-326.63C1232.6,-324.02 1590.1,-313.98 1629.42,-277 1660.39,-247.87 1656.71,-192.62 1652.15,-163.7"/>
<polygon fill="midnightblue" stroke="midnightblue" points="1655.57,-162.93 1650.37,-153.7 1648.67,-164.16 1655.57,-162.93"/>
</g>
<!-- Node31 -->
<g id="node31" class="node">
<title>Node31</title>
<g id="a_node31"><a xlink:href="MarmotLowerDimensionalStress_8h.html" target="_top" xlink:title=" ">
<polygon fill="white" stroke="black" points="1454.42,-246.5 1454.42,-276.5 1620.42,-276.5 1620.42,-246.5 1454.42,-246.5"/>
<text text-anchor="start" x="1462.42" y="-264.5" font-family="Helvetica,sans-Serif" font-size="10.00">Marmot/MarmotLowerDimensional</text>
<text text-anchor="middle" x="1537.42" y="-253.5" font-family="Helvetica,sans-Serif" font-size="10.00">Stress.h</text>
</a>
</g>
</g>
<!-- Node2&#45;&gt;Node31 -->
<g id="edge45" class="edge">
<title>Node2&#45;&gt;Node31</title>
<path fill="none" stroke="midnightblue" d="M1080.7,-320.1C1165.24,-310.79 1313.6,-293.96 1440.42,-277 1441.7,-276.83 1442.99,-276.65 1444.29,-276.48"/>
<polygon fill="midnightblue" stroke="midnightblue" points="1444.94,-279.92 1454.37,-275.09 1443.98,-272.99 1444.94,-279.92"/>
</g>
<!-- Node32 -->
<g id="node32" class="node">
<title>Node32</title>
<g id="a_node32"><a xlink:href="MarmotMaterialHypoElastic_8h.html" target="_top" xlink:title=" ">
<polygon fill="white" stroke="black" points="535.92,-246.5 535.92,-276.5 678.92,-276.5 678.92,-246.5 535.92,-246.5"/>
<text text-anchor="start" x="543.92" y="-264.5" font-family="Helvetica,sans-Serif" font-size="10.00">Marmot/MarmotMaterialHypo</text>
<text text-anchor="middle" x="607.42" y="-253.5" font-family="Helvetica,sans-Serif" font-size="10.00">Elastic.h</text>
</a>
</g>
</g>
<!-- Node2&#45;&gt;Node32 -->
<g id="edge47" class="edge">
<title>Node2&#45;&gt;Node32</title>
<path fill="none" stroke="midnightblue" d="M944.17,-316.55C873.73,-305.24 763.84,-287.61 688.89,-275.58"/>
<polygon fill="midnightblue" stroke="midnightblue" points="689.44,-272.12 679.02,-273.99 688.33,-279.03 689.44,-272.12"/>
</g>
<!-- Node34 -->
<g id="node34" class="node">
<title>Node34</title>
<g id="a_node34"><a xlink:href="MarmotStateVarVectorManager_8h.html" target="_top" xlink:title=" ">
<polygon fill="white" stroke="black" points="789.42,-246.5 789.42,-276.5 941.42,-276.5 941.42,-246.5 789.42,-246.5"/>
<text text-anchor="start" x="797.42" y="-264.5" font-family="Helvetica,sans-Serif" font-size="10.00">Marmot/MarmotStateVarVector</text>
<text text-anchor="middle" x="865.42" y="-253.5" font-family="Helvetica,sans-Serif" font-size="10.00">Manager.h</text>
</a>
</g>
</g>
<!-- Node2&#45;&gt;Node34 -->
<g id="edge51" class="edge">
<title>Node2&#45;&gt;Node34</title>
<path fill="none" stroke="midnightblue" d="M980.52,-313.4C958.85,-303.81 929.99,-291.05 906.58,-280.7"/>
<polygon fill="midnightblue" stroke="midnightblue" points="907.81,-277.42 897.25,-276.58 904.98,-283.82 907.81,-277.42"/>
</g>
<!-- Node35 -->
<g id="node35" class="node">
<title>Node35</title>
<g id="a_node35"><a xlink:title=" ">
<polygon fill="white" stroke="#bfbfbf" points="679.92,-190.5 679.92,-209.5 730.92,-209.5 730.92,-190.5 679.92,-190.5"/>
<text text-anchor="middle" x="705.42" y="-197.5" font-family="Helvetica,sans-Serif" font-size="10.00">memory</text>
</a>
</g>
</g>
<!-- Node2&#45;&gt;Node35 -->
<g id="edge60" class="edge">
<title>Node2&#45;&gt;Node35</title>
<path fill="none" stroke="midnightblue" d="M944.34,-322.99C896.08,-317.41 831.16,-304.93 780.42,-277 753.87,-262.38 730.64,-235.44 717.32,-217.87"/>
<polygon fill="midnightblue" stroke="midnightblue" points="720.03,-215.65 711.29,-209.66 714.38,-219.79 720.03,-215.65"/>
</g>
<!-- Node3&#45;&gt;Node4 -->
<g id="edge3" class="edge">
<title>Node3&#45;&gt;Node4</title>
<path fill="none" stroke="midnightblue" d="M421.35,-251.98C395.05,-241.81 350.91,-224.76 320.99,-213.2"/>
<polygon fill="midnightblue" stroke="midnightblue" points="322.03,-209.85 311.44,-209.51 319.51,-216.38 322.03,-209.85"/>
</g>
<!-- Node7 -->
<g id="node7" class="node">
<title>Node7</title>
<g id="a_node7"><a xlink:title=" ">
<polygon fill="white" stroke="#bfbfbf" points="500.92,-73 500.92,-92 541.92,-92 541.92,-73 500.92,-73"/>
<text text-anchor="middle" x="521.42" y="-80" font-family="Helvetica,sans-Serif" font-size="10.00">string</text>
</a>
</g>
</g>
<!-- Node3&#45;&gt;Node7 -->
<g id="edge13" class="edge">
<title>Node3&#45;&gt;Node7</title>
<path fill="none" stroke="midnightblue" d="M435.52,-251.81C416.92,-230.23 373.82,-173.13 400.42,-134 424.87,-98.03 451.59,-115.48 491.42,-98 492.61,-97.48 493.83,-96.93 495.05,-96.38"/>
<polygon fill="midnightblue" stroke="midnightblue" points="496.82,-99.41 504.39,-92 493.85,-93.08 496.82,-99.41"/>
</g>
<!-- Node9 -->
<g id="node9" class="node">
<title>Node9</title>
<g id="a_node9"><a xlink:href="MarmotMaterial_8h.html" target="_top" xlink:title=" ">
<polygon fill="white" stroke="black" points="409.42,-134.5 409.42,-153.5 537.42,-153.5 537.42,-134.5 409.42,-134.5"/>
<text text-anchor="middle" x="473.42" y="-141.5" font-family="Helvetica,sans-Serif" font-size="10.00">Marmot/MarmotMaterial.h</text>
</a>
</g>
</g>
<!-- Node3&#45;&gt;Node9 -->
<g id="edge8" class="edge">
<title>Node3&#45;&gt;Node9</title>
<path fill="none" stroke="midnightblue" d="M441.8,-251.58C439.69,-237.96 436.96,-211.32 443.42,-190 446.54,-179.7 452.87,-169.61 458.92,-161.6"/>
<polygon fill="midnightblue" stroke="midnightblue" points="461.65,-163.8 465.21,-153.82 456.2,-159.4 461.65,-163.8"/>
</g>
<!-- Node10 -->
<g id="node10" class="node">
<title>Node10</title>
<g id="a_node10"><a xlink:title=" ">
<polygon fill="white" stroke="#bfbfbf" points="147.92,-190.5 147.92,-209.5 206.92,-209.5 206.92,-190.5 147.92,-190.5"/>
<text text-anchor="middle" x="177.42" y="-197.5" font-family="Helvetica,sans-Serif" font-size="10.00">functional</text>
</a>
</g>
</g>
<!-- Node3&#45;&gt;Node10 -->
<g id="edge11" class="edge">
<title>Node3&#45;&gt;Node10</title>
<path fill="none" stroke="midnightblue" d="M404.44,-251.93C361.23,-242.4 289.21,-226.46 217.36,-210.2"/>
<polygon fill="midnightblue" stroke="midnightblue" points="217.75,-206.7 207.22,-207.9 216.2,-213.53 217.75,-206.7"/>
</g>
<!-- Node3&#45;&gt;Node11 -->
<g id="edge12" class="edge">
<title>Node3&#45;&gt;Node11</title>
<path fill="none" stroke="midnightblue" d="M444.76,-251.91C447.62,-236.73 455.81,-205.32 476.42,-190 589.8,-105.74 966.12,-121.46 1105.42,-98 1118.15,-95.86 1132.03,-93.28 1144.4,-90.9"/>
<polygon fill="midnightblue" stroke="midnightblue" points="1145.24,-94.3 1154.39,-88.95 1143.9,-87.43 1145.24,-94.3"/>
</g>
<!-- Node12 -->
<g id="node12" class="node">
<title>Node12</title>
<g id="a_node12"><a xlink:title=" ">
<polygon fill="white" stroke="#bfbfbf" points="748.92,-190.5 748.92,-209.5 831.92,-209.5 831.92,-190.5 748.92,-190.5"/>
<text text-anchor="middle" x="790.42" y="-197.5" font-family="Helvetica,sans-Serif" font-size="10.00">unordered_map</text>
</a>
</g>
</g>
<!-- Node3&#45;&gt;Node12 -->
<g id="edge14" class="edge">
<title>Node3&#45;&gt;Node12</title>
<path fill="none" stroke="midnightblue" d="M489.94,-252.32C501.83,-250.24 514.6,-248.03 526.42,-246 618.32,-230.24 643.73,-226.77 738.65,-210.29"/>
<polygon fill="midnightblue" stroke="midnightblue" points="739.43,-213.71 748.68,-208.55 738.23,-206.81 739.43,-213.71"/>
</g>
<!-- Node4&#45;&gt;Node5 -->
<g id="edge4" class="edge">
<title>Node4&#45;&gt;Node5</title>
<path fill="none" stroke="midnightblue" d="M262.48,-190.44C233.76,-181.32 188.09,-166.81 156.1,-156.65"/>
<polygon fill="midnightblue" stroke="midnightblue" points="156.82,-153.21 146.23,-153.52 154.7,-159.88 156.82,-153.21"/>
</g>
<!-- Node6 -->
<g id="node6" class="node">
<title>Node6</title>
<g id="a_node6"><a xlink:href="MarmotUtils_8h.html" target="_top" xlink:title=" ">
<polygon fill="white" stroke="black" points="369.92,-73 369.92,-92 482.92,-92 482.92,-73 369.92,-73"/>
<text text-anchor="middle" x="426.42" y="-80" font-family="Helvetica,sans-Serif" font-size="10.00">Marmot/MarmotUtils.h</text>
</a>
</g>
</g>
<!-- Node4&#45;&gt;Node6 -->
<g id="edge5" class="edge">
<title>Node4&#45;&gt;Node6</title>
<path fill="none" stroke="midnightblue" d="M291.69,-190.33C295.64,-176.74 304.98,-150.29 321.42,-134 339.49,-116.1 365.14,-103.6 386.56,-95.51"/>
<polygon fill="midnightblue" stroke="midnightblue" points="387.84,-98.78 396.07,-92.11 385.47,-92.19 387.84,-98.78"/>
</g>
<!-- Node4&#45;&gt;Node7 -->
<g id="edge6" class="edge">
<title>Node4&#45;&gt;Node7</title>
<path fill="none" stroke="midnightblue" d="M297.66,-190.08C311.02,-176.14 338.78,-149.23 367.42,-134 418.09,-107.06 437.84,-118.56 491.42,-98 492.8,-97.47 494.21,-96.9 495.62,-96.3"/>
<polygon fill="midnightblue" stroke="midnightblue" points="497.16,-99.45 504.82,-92.13 494.27,-93.08 497.16,-99.45"/>
</g>
<!-- Node4&#45;&gt;Node8 -->
<g id="edge7" class="edge">
<title>Node4&#45;&gt;Node8</title>
<path fill="none" stroke="midnightblue" d="M353.55,-193.85C493.91,-182.57 824.18,-156.03 928.94,-147.61"/>
<polygon fill="midnightblue" stroke="midnightblue" points="929.51,-151.08 939.19,-146.79 928.95,-144.1 929.51,-151.08"/>
</g>
<!-- Node9&#45;&gt;Node6 -->
<g id="edge9" class="edge">
<title>Node9&#45;&gt;Node6</title>
<path fill="none" stroke="midnightblue" d="M466.69,-134.48C459.64,-125.55 448.38,-111.31 439.57,-100.14"/>
<polygon fill="midnightblue" stroke="midnightblue" points="442.09,-97.69 433.14,-92.01 436.59,-102.03 442.09,-97.69"/>
</g>
<!-- Node9&#45;&gt;Node7 -->
<g id="edge10" class="edge">
<title>Node9&#45;&gt;Node7</title>
<path fill="none" stroke="midnightblue" d="M480.3,-134.48C487.57,-125.46 499.21,-111.02 508.26,-99.81"/>
<polygon fill="midnightblue" stroke="midnightblue" points="511,-101.99 514.55,-92.01 505.55,-97.59 511,-101.99"/>
</g>
<!-- Node14 -->
<g id="node14" class="node">
<title>Node14</title>
<g id="a_node14"><a xlink:title=" ">
<polygon fill="white" stroke="#bfbfbf" points="1988.42,-6 1988.42,-25 2032.42,-25 2032.42,-6 1988.42,-6"/>
<text text-anchor="middle" x="2010.42" y="-13" font-family="Helvetica,sans-Serif" font-size="10.00">cmath</text>
</a>
</g>
</g>
<!-- Node13&#45;&gt;Node14 -->
<g id="edge16" class="edge">
<title>Node13&#45;&gt;Node14</title>
<path fill="none" stroke="midnightblue" d="M2010.42,-72.73C2010.42,-63.18 2010.42,-47.62 2010.42,-35.28"/>
<polygon fill="midnightblue" stroke="midnightblue" points="2013.92,-35.13 2010.42,-25.13 2006.92,-35.13 2013.92,-35.13"/>
</g>
<!-- Node15&#45;&gt;Node8 -->
<g id="edge24" class="edge">
<title>Node15&#45;&gt;Node8</title>
<path fill="none" stroke="midnightblue" d="M1091.86,-190.44C1065.29,-181.19 1022.81,-166.39 993.59,-156.21"/>
<polygon fill="midnightblue" stroke="midnightblue" points="994.45,-152.8 983.85,-152.82 992.14,-159.41 994.45,-152.8"/>
</g>
<!-- Node15&#45;&gt;Node16 -->
<g id="edge20" class="edge">
<title>Node15&#45;&gt;Node16</title>
<path fill="none" stroke="midnightblue" d="M1131,-190.32C1164.44,-170.41 1246.86,-121.34 1287.29,-97.27"/>
<polygon fill="midnightblue" stroke="midnightblue" points="1289.13,-100.25 1295.93,-92.12 1285.55,-94.23 1289.13,-100.25"/>
</g>
<!-- Node17 -->
<g id="node17" class="node">
<title>Node17</title>
<g id="a_node17"><a xlink:title=" ">
<polygon fill="white" stroke="#bfbfbf" points="1394.42,-6 1394.42,-25 1458.42,-25 1458.42,-6 1394.42,-6"/>
<text text-anchor="middle" x="1426.42" y="-13" font-family="Helvetica,sans-Serif" font-size="10.00">Eigen/Core</text>
</a>
</g>
</g>
<!-- Node16&#45;&gt;Node17 -->
<g id="edge21" class="edge">
<title>Node16&#45;&gt;Node17</title>
<path fill="none" stroke="midnightblue" d="M1326.06,-72.73C1345.63,-61.77 1379.34,-42.88 1402.24,-30.05"/>
<polygon fill="midnightblue" stroke="midnightblue" points="1404.01,-33.07 1411.02,-25.13 1400.59,-26.96 1404.01,-33.07"/>
</g>
<!-- Node18 -->
<g id="node18" class="node">
<title>Node18</title>
<g id="a_node18"><a xlink:title=" ">
<polygon fill="white" stroke="#bfbfbf" points="1155.92,-6 1155.92,-25 1226.92,-25 1226.92,-6 1155.92,-6"/>
<text text-anchor="middle" x="1191.42" y="-13" font-family="Helvetica,sans-Serif" font-size="10.00">Eigen/Dense</text>
</a>
</g>
</g>
<!-- Node16&#45;&gt;Node18 -->
<g id="edge22" class="edge">
<title>Node16&#45;&gt;Node18</title>
<path fill="none" stroke="midnightblue" d="M1294.37,-72.73C1274.3,-61.77 1239.72,-42.88 1216.23,-30.05"/>
<polygon fill="midnightblue" stroke="midnightblue" points="1217.67,-26.85 1207.21,-25.13 1214.31,-32.99 1217.67,-26.85"/>
</g>
<!-- Node19 -->
<g id="node19" class="node">
<title>Node19</title>
<g id="a_node19"><a xlink:title=" ">
<polygon fill="white" stroke="#bfbfbf" points="1244.92,-0.5 1244.92,-30.5 1375.92,-30.5 1375.92,-0.5 1244.92,-0.5"/>
<text text-anchor="start" x="1252.92" y="-18.5" font-family="Helvetica,sans-Serif" font-size="10.00">unsupported/Eigen/CXX11</text>
<text text-anchor="middle" x="1310.42" y="-7.5" font-family="Helvetica,sans-Serif" font-size="10.00">/Tensor</text>
</a>
</g>
</g>
<!-- Node16&#45;&gt;Node19 -->
<g id="edge23" class="edge">
<title>Node16&#45;&gt;Node19</title>
<path fill="none" stroke="midnightblue" d="M1310.42,-72.73C1310.42,-64.54 1310.42,-51.92 1310.42,-40.71"/>
<polygon fill="midnightblue" stroke="midnightblue" points="1313.92,-40.59 1310.42,-30.59 1306.92,-40.59 1313.92,-40.59"/>
</g>
<!-- Node20&#45;&gt;Node11 -->
<g id="edge42" class="edge">
<title>Node20&#45;&gt;Node11</title>
<path fill="none" stroke="midnightblue" d="M1229.01,-251.96C1221.34,-224.81 1197.38,-140.01 1186.68,-102.12"/>
<polygon fill="midnightblue" stroke="midnightblue" points="1190.01,-101.04 1183.92,-92.37 1183.27,-102.94 1190.01,-101.04"/>
</g>
<!-- Node20&#45;&gt;Node15 -->
<g id="edge26" class="edge">
<title>Node20&#45;&gt;Node15</title>
<path fill="none" stroke="midnightblue" d="M1214.94,-251.98C1195.81,-242.08 1164.05,-225.64 1141.77,-214.12"/>
<polygon fill="midnightblue" stroke="midnightblue" points="1143.36,-211 1132.87,-209.51 1140.14,-217.21 1143.36,-211"/>
</g>
<!-- Node20&#45;&gt;Node16 -->
<g id="edge27" class="edge">
<title>Node20&#45;&gt;Node16</title>
<path fill="none" stroke="midnightblue" d="M1247.85,-251.89C1262.4,-243.33 1282.91,-228.78 1293.42,-210 1312.57,-175.8 1313.37,-128.46 1312.04,-102.47"/>
<polygon fill="midnightblue" stroke="midnightblue" points="1315.51,-101.89 1311.33,-92.16 1308.52,-102.37 1315.51,-101.89"/>
</g>
<!-- Node20&#45;&gt;Node21 -->
<g id="edge28" class="edge">
<title>Node20&#45;&gt;Node21</title>
<path fill="none" stroke="midnightblue" d="M1266.24,-251.98C1309.27,-241.44 1382.58,-223.49 1429.73,-211.94"/>
<polygon fill="midnightblue" stroke="midnightblue" points="1430.79,-215.29 1439.67,-209.51 1429.12,-208.49 1430.79,-215.29"/>
</g>
<!-- Node30 -->
<g id="node30" class="node">
<title>Node30</title>
<g id="a_node30"><a xlink:title=" ">
<polygon fill="white" stroke="#bfbfbf" points="1248.92,-190.5 1248.92,-209.5 1283.92,-209.5 1283.92,-190.5 1248.92,-190.5"/>
<text text-anchor="middle" x="1266.42" y="-197.5" font-family="Helvetica,sans-Serif" font-size="10.00">map</text>
</a>
</g>
</g>
<!-- Node20&#45;&gt;Node30 -->
<g id="edge43" class="edge">
<title>Node20&#45;&gt;Node30</title>
<path fill="none" stroke="midnightblue" d="M1236.43,-251.98C1241.58,-243.23 1249.73,-229.37 1256.24,-218.31"/>
<polygon fill="midnightblue" stroke="midnightblue" points="1259.36,-219.9 1261.41,-209.51 1253.33,-216.35 1259.36,-219.9"/>
</g>
<!-- Node21&#45;&gt;Node16 -->
<g id="edge41" class="edge">
<title>Node21&#45;&gt;Node16</title>
<path fill="none" stroke="midnightblue" d="M1466.11,-190.3C1453.25,-177.12 1427.4,-151.76 1402.42,-134 1381.94,-119.43 1356.81,-105.9 1338,-96.52"/>
<polygon fill="midnightblue" stroke="midnightblue" points="1339.31,-93.26 1328.79,-92.01 1336.23,-99.55 1339.31,-93.26"/>
</g>
<!-- Node21&#45;&gt;Node22 -->
<g id="edge29" class="edge">
<title>Node21&#45;&gt;Node22</title>
<path fill="none" stroke="midnightblue" d="M1416.11,-191.21C1344.06,-181.58 1221.46,-165.19 1143.29,-154.74"/>
<polygon fill="midnightblue" stroke="midnightblue" points="1143.41,-151.23 1133.03,-153.37 1142.48,-158.16 1143.41,-151.23"/>
</g>
<!-- Node21&#45;&gt;Node24 -->
<g id="edge33" class="edge">
<title>Node21&#45;&gt;Node24</title>
<path fill="none" stroke="midnightblue" d="M1501.99,-190.44C1531.52,-181.28 1578.54,-166.69 1611.3,-156.52"/>
<polygon fill="midnightblue" stroke="midnightblue" points="1612.46,-159.82 1620.98,-153.52 1610.39,-153.14 1612.46,-159.82"/>
</g>
<!-- Node22&#45;&gt;Node7 -->
<g id="edge32" class="edge">
<title>Node22&#45;&gt;Node7</title>
<path fill="none" stroke="midnightblue" d="M1007.84,-135.73C1002.62,-135.14 997.43,-134.56 992.42,-134 826.48,-115.53 627.52,-94.6 552.27,-86.72"/>
<polygon fill="midnightblue" stroke="midnightblue" points="552.4,-83.21 542.09,-85.66 551.67,-90.18 552.4,-83.21"/>
</g>
<!-- Node22&#45;&gt;Node11 -->
<g id="edge30" class="edge">
<title>Node22&#45;&gt;Node11</title>
<path fill="none" stroke="midnightblue" d="M1086.32,-134.48C1104.7,-124.62 1135.18,-108.29 1156.66,-96.77"/>
<polygon fill="midnightblue" stroke="midnightblue" points="1158.39,-99.82 1165.55,-92.01 1155.08,-93.65 1158.39,-99.82"/>
</g>
<!-- Node23 -->
<g id="node23" class="node">
<title>Node23</title>
<g id="a_node23"><a xlink:title=" ">
<polygon fill="white" stroke="#bfbfbf" points="1044.42,-73 1044.42,-92 1096.42,-92 1096.42,-73 1044.42,-73"/>
<text text-anchor="middle" x="1070.42" y="-80" font-family="Helvetica,sans-Serif" font-size="10.00">sstream</text>
</a>
</g>
</g>
<!-- Node22&#45;&gt;Node23 -->
<g id="edge31" class="edge">
<title>Node22&#45;&gt;Node23</title>
<path fill="none" stroke="midnightblue" d="M1070.42,-134.48C1070.42,-126.08 1070.42,-112.98 1070.42,-102.16"/>
<polygon fill="midnightblue" stroke="midnightblue" points="1073.92,-102.01 1070.42,-92.01 1066.92,-102.01 1073.92,-102.01"/>
</g>
<!-- Node24&#45;&gt;Node13 -->
<g id="edge34" class="edge">
<title>Node24&#45;&gt;Node13</title>
<path fill="none" stroke="midnightblue" d="M1705.07,-134.48C1762.45,-125.74 1853.7,-111.55 1932.42,-98 1939.88,-96.72 1947.72,-95.32 1955.45,-93.91"/>
<polygon fill="midnightblue" stroke="midnightblue" points="1956.29,-97.31 1965.5,-92.06 1955.03,-90.43 1956.29,-97.31"/>
</g>
<!-- Node24&#45;&gt;Node16 -->
<g id="edge35" class="edge">
<title>Node24&#45;&gt;Node16</title>
<path fill="none" stroke="midnightblue" d="M1597.16,-134.48C1544.31,-125.63 1459.53,-111.25 1386.42,-98 1379.33,-96.72 1371.88,-95.33 1364.52,-93.95"/>
<polygon fill="midnightblue" stroke="midnightblue" points="1365.08,-90.49 1354.6,-92.07 1363.77,-97.37 1365.08,-90.49"/>
</g>
<!-- Node25 -->
<g id="node25" class="node">
<title>Node25</title>
<g id="a_node25"><a xlink:title=" ">
<polygon fill="white" stroke="#bfbfbf" points="1589.42,-73 1589.42,-92 1711.42,-92 1711.42,-73 1589.42,-73"/>
<text text-anchor="middle" x="1650.42" y="-80" font-family="Helvetica,sans-Serif" font-size="10.00">autodiff/forward/dual.hpp</text>
</a>
</g>
</g>
<!-- Node24&#45;&gt;Node25 -->
<g id="edge36" class="edge">
<title>Node24&#45;&gt;Node25</title>
<path fill="none" stroke="midnightblue" d="M1648.71,-134.48C1648.99,-126.08 1649.43,-112.98 1649.79,-102.16"/>
<polygon fill="midnightblue" stroke="midnightblue" points="1653.3,-102.12 1650.13,-92.01 1646.3,-101.89 1653.3,-102.12"/>
</g>
<!-- Node26 -->
<g id="node26" class="node">
<title>Node26</title>
<g id="a_node26"><a xlink:title=" ">
<polygon fill="white" stroke="#bfbfbf" points="1729.42,-73 1729.42,-92 1849.42,-92 1849.42,-73 1729.42,-73"/>
<text text-anchor="middle" x="1789.42" y="-80" font-family="Helvetica,sans-Serif" font-size="10.00">autodiff/forward/real.hpp</text>
</a>
</g>
</g>
<!-- Node24&#45;&gt;Node26 -->
<g id="edge37" class="edge">
<title>Node24&#45;&gt;Node26</title>
<path fill="none" stroke="midnightblue" d="M1668.62,-134.48C1692.49,-124.4 1732.42,-107.55 1759.79,-96"/>
<polygon fill="midnightblue" stroke="midnightblue" points="1761.4,-99.12 1769.25,-92.01 1758.68,-92.67 1761.4,-99.12"/>
</g>
<!-- Node27 -->
<g id="node27" class="node">
<title>Node27</title>
<g id="a_node27"><a xlink:title=" ">
<polygon fill="white" stroke="#bfbfbf" points="1867.42,-73 1867.42,-92 1923.42,-92 1923.42,-73 1867.42,-73"/>
<text text-anchor="middle" x="1895.42" y="-80" font-family="Helvetica,sans-Serif" font-size="10.00">algorithm</text>
</a>
</g>
</g>
<!-- Node24&#45;&gt;Node27 -->
<g id="edge38" class="edge">
<title>Node24&#45;&gt;Node27</title>
<path fill="none" stroke="midnightblue" d="M1699.5,-134.46C1742.39,-126.71 1805.04,-114.06 1858.42,-98 1860.85,-97.27 1863.34,-96.45 1865.83,-95.58"/>
<polygon fill="midnightblue" stroke="midnightblue" points="1867.11,-98.84 1875.27,-92.08 1864.68,-92.28 1867.11,-98.84"/>
</g>
<!-- Node28 -->
<g id="node28" class="node">
<title>Node28</title>
<g id="a_node28"><a xlink:title=" ">
<polygon fill="white" stroke="#bfbfbf" points="1395.42,-67.5 1395.42,-97.5 1499.42,-97.5 1499.42,-67.5 1395.42,-67.5"/>
<text text-anchor="start" x="1403.42" y="-85.5" font-family="Helvetica,sans-Serif" font-size="10.00">autodiff/forward/dual</text>
<text text-anchor="middle" x="1447.42" y="-74.5" font-family="Helvetica,sans-Serif" font-size="10.00">/dual.hpp</text>
</a>
</g>
</g>
<!-- Node24&#45;&gt;Node28 -->
<g id="edge39" class="edge">
<title>Node24&#45;&gt;Node28</title>
<path fill="none" stroke="midnightblue" d="M1619.62,-134.48C1589.73,-125.63 1542.17,-111.55 1504.6,-100.43"/>
<polygon fill="midnightblue" stroke="midnightblue" points="1505.37,-97.01 1494.79,-97.52 1503.39,-103.72 1505.37,-97.01"/>
</g>
<!-- Node29 -->
<g id="node29" class="node">
<title>Node29</title>
<g id="a_node29"><a xlink:title=" ">
<polygon fill="white" stroke="#bfbfbf" points="1517.92,-73 1517.92,-92 1570.92,-92 1570.92,-73 1517.92,-73"/>
<text text-anchor="middle" x="1544.42" y="-80" font-family="Helvetica,sans-Serif" font-size="10.00">complex</text>
</a>
</g>
</g>
<!-- Node24&#45;&gt;Node29 -->
<g id="edge40" class="edge">
<title>Node24&#45;&gt;Node29</title>
<path fill="none" stroke="midnightblue" d="M1633.52,-134.48C1616.45,-124.71 1588.26,-108.58 1568.16,-97.08"/>
<polygon fill="midnightblue" stroke="midnightblue" points="1569.71,-93.94 1559.29,-92.01 1566.23,-100.01 1569.71,-93.94"/>
</g>
<!-- Node31&#45;&gt;Node21 -->
<g id="edge46" class="edge">
<title>Node31&#45;&gt;Node21</title>
<path fill="none" stroke="midnightblue" d="M1522.49,-246.4C1513.05,-237.49 1500.84,-225.95 1491.09,-216.74"/>
<polygon fill="midnightblue" stroke="midnightblue" points="1493.26,-213.98 1483.59,-209.66 1488.45,-219.07 1493.26,-213.98"/>
</g>
<!-- Node33 -->
<g id="node33" class="node">
<title>Node33</title>
<g id="a_node33"><a xlink:href="MarmotMaterialMechanical_8h.html" target="_top" xlink:title=" ">
<polygon fill="white" stroke="black" points="484.92,-190.5 484.92,-209.5 661.92,-209.5 661.92,-190.5 484.92,-190.5"/>
<text text-anchor="middle" x="573.42" y="-197.5" font-family="Helvetica,sans-Serif" font-size="10.00">Marmot/MarmotMaterialMechanical.h</text>
</a>
</g>
</g>
<!-- Node32&#45;&gt;Node33 -->
<g id="edge48" class="edge">
<title>Node32&#45;&gt;Node33</title>
<path fill="none" stroke="midnightblue" d="M599.36,-246.4C594.57,-238.02 588.46,-227.33 583.38,-218.42"/>
<polygon fill="midnightblue" stroke="midnightblue" points="586.37,-216.6 578.37,-209.66 580.29,-220.08 586.37,-216.6"/>
</g>
<!-- Node33&#45;&gt;Node9 -->
<g id="edge49" class="edge">
<title>Node33&#45;&gt;Node9</title>
<path fill="none" stroke="midnightblue" d="M557.35,-190.32C541.46,-181.74 516.91,-168.49 498.46,-158.52"/>
<polygon fill="midnightblue" stroke="midnightblue" points="499.91,-155.33 489.45,-153.65 496.58,-161.49 499.91,-155.33"/>
</g>
<!-- Node34&#45;&gt;Node6 -->
<g id="edge52" class="edge">
<title>Node34&#45;&gt;Node6</title>
<path fill="none" stroke="midnightblue" d="M864.51,-246.47C862.71,-230.51 857.36,-204.76 841.42,-190 827.69,-177.29 579.05,-118.74 473.35,-94.28"/>
<polygon fill="midnightblue" stroke="midnightblue" points="474.11,-90.87 463.58,-92.03 472.53,-97.69 474.11,-90.87"/>
</g>
<!-- Node34&#45;&gt;Node7 -->
<g id="edge54" class="edge">
<title>Node34&#45;&gt;Node7</title>
<path fill="none" stroke="midnightblue" d="M872.19,-246.32C883.4,-220.55 901.97,-165.77 874.42,-134 832.78,-85.98 630.82,-82.5 552.53,-83.01"/>
<polygon fill="midnightblue" stroke="midnightblue" points="552.29,-79.51 542.33,-83.1 552.36,-86.51 552.29,-79.51"/>
</g>
<!-- Node34&#45;&gt;Node8 -->
<g id="edge56" class="edge">
<title>Node34&#45;&gt;Node8</title>
<path fill="none" stroke="midnightblue" d="M879.4,-246.28C888.97,-236.35 901.8,-222.67 912.42,-210 925.7,-194.16 939.8,-175.21 949.45,-161.86"/>
<polygon fill="midnightblue" stroke="midnightblue" points="952.37,-163.8 955.35,-153.63 946.68,-159.72 952.37,-163.8"/>
</g>
<!-- Node34&#45;&gt;Node12 -->
<g id="edge55" class="edge">
<title>Node34&#45;&gt;Node12</title>
<path fill="none" stroke="midnightblue" d="M847.65,-246.4C836.07,-237.22 821,-225.26 809.22,-215.92"/>
<polygon fill="midnightblue" stroke="midnightblue" points="811.34,-213.13 801.33,-209.66 806.99,-218.61 811.34,-213.13"/>
</g>
<!-- Node34&#45;&gt;Node35 -->
<g id="edge53" class="edge">
<title>Node34&#45;&gt;Node35</title>
<path fill="none" stroke="midnightblue" d="M827.5,-246.4C800.3,-236.28 764.02,-222.79 738.09,-213.15"/>
<polygon fill="midnightblue" stroke="midnightblue" points="739.29,-209.86 728.7,-209.66 736.85,-216.42 739.29,-209.86"/>
</g>
<!-- Node36&#45;&gt;Node4 -->
<g id="edge66" class="edge">
<title>Node36&#45;&gt;Node4</title>
<path fill="none" stroke="midnightblue" d="M215.41,-246.4C230.81,-236.95 251.01,-224.56 266.42,-215.11"/>
<polygon fill="midnightblue" stroke="midnightblue" points="268.61,-217.87 275.3,-209.66 264.95,-211.9 268.61,-217.87"/>
</g>
<!-- Node36&#45;&gt;Node5 -->
<g id="edge67" class="edge">
<title>Node36&#45;&gt;Node5</title>
<path fill="none" stroke="midnightblue" d="M172.67,-246.38C161.17,-237.21 147.23,-224.32 138.42,-210 129.66,-195.76 124.77,-177.29 122.15,-163.68"/>
<polygon fill="midnightblue" stroke="midnightblue" points="125.56,-162.87 120.45,-153.59 118.66,-164.03 125.56,-162.87"/>
</g>
<!-- Node36&#45;&gt;Node10 -->
<g id="edge68" class="edge">
<title>Node36&#45;&gt;Node10</title>
<path fill="none" stroke="midnightblue" d="M188.86,-246.4C186.84,-238.38 184.28,-228.23 182.1,-219.57"/>
<polygon fill="midnightblue" stroke="midnightblue" points="185.44,-218.5 179.6,-209.66 178.65,-220.21 185.44,-218.5"/>
</g>
<!-- Node36&#45;&gt;Node35 -->
<g id="edge69" class="edge">
<title>Node36&#45;&gt;Node35</title>
<path fill="none" stroke="midnightblue" d="M264.96,-254.23C374.84,-244.51 579.44,-225.47 669.95,-209.98"/>
<polygon fill="midnightblue" stroke="midnightblue" points="670.67,-213.41 679.89,-208.21 669.44,-206.52 670.67,-213.41"/>
</g>
<!-- Node37 -->
<g id="node37" class="node">
<title>Node37</title>
<g id="a_node37"><a xlink:title=" ">
<polygon fill="white" stroke="#bfbfbf" points="17.42,-190.5 17.42,-209.5 91.42,-209.5 91.42,-190.5 17.42,-190.5"/>
<text text-anchor="middle" x="54.42" y="-197.5" font-family="Helvetica,sans-Serif" font-size="10.00">Eigen/Sparse</text>
</a>
</g>
</g>
<!-- Node36&#45;&gt;Node37 -->
<g id="edge65" class="edge">
<title>Node36&#45;&gt;Node37</title>
<path fill="none" stroke="midnightblue" d="M159.72,-246.4C136.66,-236.46 106.06,-223.26 83.79,-213.66"/>
<polygon fill="midnightblue" stroke="midnightblue" points="85.07,-210.4 74.5,-209.66 82.3,-216.83 85.07,-210.4"/>
</g>
</g>
</svg>
        <g id="navigator" transform="translate(0 0)" fill="#404254">
                <rect fill="#f2f5e9" fill-opacity="0.5" stroke="#606060" stroke-width=".5" x="0" y="0" width="60" height="60"/>
                <use id="zoomplus" xlink:href="#zoomPlus" x="17" y="9" onmousedown="handleZoom(evt,'in')"/>
                <use id="zoomminus" xlink:href="#zoomMin" x="42" y="9" onmousedown="handleZoom(evt,'out')"/>
                <use id="reset" xlink:href="#resetDef" x="30" y="36" onmousedown="handleReset()"/>
                <g id="arrowUp" xlink:href="#dirArrow" transform="translate(30 24)" onmousedown="handlePan(0,-1)">
                  <use xlink:href="#rim" fill="#404040">
                        <set attributeName="fill" to="#808080" begin="arrowUp.mouseover" end="arrowUp.mouseout"/>
                  </use>
                  <path fill="none" stroke="white" stroke-width="1.5" d="M0,-3.0v7 M-2.5,-0.5L0,-3.0L2.5,-0.5"/>
                </g>
                <g id="arrowRight" xlink:href="#dirArrow" transform="rotate(90) translate(36 -43)" onmousedown="handlePan(1,0)">
                  <use xlink:href="#rim" fill="#404040">
                        <set attributeName="fill" to="#808080" begin="arrowRight.mouseover" end="arrowRight.mouseout"/>
                  </use>
                  <path fill="none" stroke="white" stroke-width="1.5" d="M0,-3.0v7 M-2.5,-0.5L0,-3.0L2.5,-0.5"/>
                </g>
                <g id="arrowDown" xlink:href="#dirArrow" transform="rotate(180) translate(-30 -48)" onmousedown="handlePan(0,1)">
                  <use xlink:href="#rim" fill="#404040">
                        <set attributeName="fill" to="#808080" begin="arrowDown.mouseover" end="arrowDown.mouseout"/>
                  </use>
                  <path fill="none" stroke="white" stroke-width="1.5" d="M0,-3.0v7 M-2.5,-0.5L0,-3.0L2.5,-0.5"/>
                </g>
                <g id="arrowLeft" xlink:href="#dirArrow" transform="rotate(270) translate(-36 17)" onmousedown="handlePan(-1,0)">
                  <use xlink:href="#rim" fill="#404040">
                        <set attributeName="fill" to="#808080" begin="arrowLeft.mouseover" end="arrowLeft.mouseout"/>
                  </use>
                  <path fill="none" stroke="white" stroke-width="1.5" d="M0,-3.0v7 M-2.5,-0.5L0,-3.0L2.5,-0.5"/>
                </g>
        </g>
        <svg viewBox="0 0 15 15" width="100%" height="30px" preserveAspectRatio="xMaxYMin meet">
         <g id="arrow_out" transform="scale(0.3 0.3)">
          <a xlink:href="DisplacementFiniteElementRegistration_8cpp__incl_org.svg" target="_base">
           <rect id="button" ry="5" rx="5" y="6" x="6" height="38" width="38"
                fill="#f2f5e9" fill-opacity="0.5" stroke="#606060" stroke-width="1.0"/>
           <path id="arrow"
             d="M 11.500037,31.436501 C 11.940474,20.09759 22.043105,11.32322 32.158766,21.979434 L 37.068811,17.246167 C 37.068811,17.246167 37.088388,32 37.088388,32 L 22.160133,31.978069 C 22.160133,31.978069 26.997745,27.140456 26.997745,27.140456 C 18.528582,18.264221 13.291696,25.230495 11.500037,31.436501 z"
             style="fill:#404040;"/>
          </a>
         </g>
        </svg>
</svg>
