<?xml version="1.0" encoding="UTF-8" standalone="no"?>
<!DOCTYPE svg PUBLIC "-//W3C//DTD SVG 1.1//EN"
 "http://www.w3.org/Graphics/SVG/1.1/DTD/svg11.dtd">
<!-- Generated by graphviz version 2.44.0 ()
 -->
<!-- Title: modules/elements/DisplacementFiniteElement/src/DisplacementFiniteElementRegistration.cpp Pages: 1 -->
<svg width="1989pt" height="419pt"
 viewBox="0.00 0.00 1989.32 419.00" xmlns="http://www.w3.org/2000/svg" xmlns:xlink="http://www.w3.org/1999/xlink">
<g id="graph0" class="graph" transform="scale(1 1) rotate(0) translate(4 415)">
<title>modules/elements/DisplacementFiniteElement/src/DisplacementFiniteElementRegistration.cpp</title>
<polygon fill="white" stroke="transparent" points="-4,4 -4,-415 1985.32,-415 1985.32,4 -4,4"/>
<!-- Node1 -->
<g id="node1" class="node">
<title>Node1</title>
<g id="a_node1"><a xlink:title=" ">
<polygon fill="#bfbfbf" stroke="black" points="716.32,-369.5 716.32,-410.5 895.32,-410.5 895.32,-369.5 716.32,-369.5"/>
<text text-anchor="start" x="724.32" y="-398.5" font-family="Helvetica,sans-Serif" font-size="10.00">modules/elements/Displacement</text>
<text text-anchor="start" x="724.32" y="-387.5" font-family="Helvetica,sans-Serif" font-size="10.00">FiniteElement/src/DisplacementFinite</text>
<text text-anchor="middle" x="805.82" y="-376.5" font-family="Helvetica,sans-Serif" font-size="10.00">ElementRegistration.cpp</text>
</a>
</g>
</g>
<!-- Node2 -->
<g id="node2" class="node">
<title>Node2</title>
<g id="a_node2"><a xlink:href="DisplacementFiniteElement_8h.html" target="_top" xlink:title=" ">
<polygon fill="white" stroke="black" points="944.82,-302.5 944.82,-332.5 1080.82,-332.5 1080.82,-302.5 944.82,-302.5"/>
<text text-anchor="start" x="952.82" y="-320.5" font-family="Helvetica,sans-Serif" font-size="10.00">Marmot/DisplacementFinite</text>
<text text-anchor="middle" x="1012.82" y="-309.5" font-family="Helvetica,sans-Serif" font-size="10.00">Element.h</text>
</a>
</g>
</g>
<!-- Node1&#45;&gt;Node2 -->
<g id="edge1" class="edge">
<title>Node1&#45;&gt;Node2</title>
<path fill="none" stroke="midnightblue" d="M863.21,-369.46C894.06,-358.95 931.78,-346.1 961.63,-335.93"/>
<polygon fill="midnightblue" stroke="midnightblue" points="963.09,-339.13 971.43,-332.6 960.83,-332.51 963.09,-339.13"/>
</g>
<!-- Node3 -->
<g id="node3" class="node">
<title>Node3</title>
<g id="a_node3"><a xlink:href="Marmot_8h.html" target="_top" xlink:title=" ">
<polygon fill="white" stroke="black" points="385.32,-241 385.32,-260 478.32,-260 478.32,-241 385.32,-241"/>
<text text-anchor="middle" x="431.82" y="-248" font-family="Helvetica,sans-Serif" font-size="10.00">Marmot/Marmot.h</text>
</a>
</g>
</g>
<!-- Node1&#45;&gt;Node3 -->
<g id="edge61" class="edge">
<title>Node1&#45;&gt;Node3</title>
<path fill="none" stroke="midnightblue" d="M752.63,-369.45C674.15,-340.59 529.62,-287.46 464.8,-263.62"/>
<polygon fill="midnightblue" stroke="midnightblue" points="465.69,-260.22 455.1,-260.06 463.28,-266.79 465.69,-260.22"/>
</g>
<!-- Node15 -->
<g id="node15" class="node">
<title>Node15</title>
<g id="a_node15"><a xlink:href="MarmotFiniteElement_8h.html" target="_top" xlink:title=" ">
<polygon fill="white" stroke="black" points="1040.82,-179.5 1040.82,-198.5 1192.82,-198.5 1192.82,-179.5 1040.82,-179.5"/>
<text text-anchor="middle" x="1116.82" y="-186.5" font-family="Helvetica,sans-Serif" font-size="10.00">Marmot/MarmotFiniteElement.h</text>
</a>
</g>
</g>
<!-- Node1&#45;&gt;Node15 -->
<g id="edge62" class="edge">
<title>Node1&#45;&gt;Node15</title>
<path fill="none" stroke="midnightblue" d="M895.39,-382.17C968.16,-374.73 1062.97,-360.07 1089.82,-333 1122.95,-299.6 1122.17,-239.13 1119.28,-208.64"/>
<polygon fill="midnightblue" stroke="midnightblue" points="1122.74,-208.09 1118.14,-198.54 1115.78,-208.87 1122.74,-208.09"/>
</g>
<!-- Node35 -->
<g id="node35" class="node">
<title>Node35</title>
<g id="a_node35"><a xlink:href="MarmotFiniteElementSpatialWrapper_8h.html" target="_top" xlink:title=" ">
<polygon fill="white" stroke="black" points="137.32,-235.5 137.32,-265.5 282.32,-265.5 282.32,-235.5 137.32,-235.5"/>
<text text-anchor="start" x="145.32" y="-253.5" font-family="Helvetica,sans-Serif" font-size="10.00">Marmot/MarmotFiniteElement</text>
<text text-anchor="middle" x="209.82" y="-242.5" font-family="Helvetica,sans-Serif" font-size="10.00">SpatialWrapper.h</text>
</a>
</g>
</g>
<!-- Node1&#45;&gt;Node35 -->
<g id="edge63" class="edge">
<title>Node1&#45;&gt;Node35</title>
<path fill="none" stroke="midnightblue" d="M721.06,-369.45C602.95,-342.2 390.97,-293.29 280.75,-267.86"/>
<polygon fill="midnightblue" stroke="midnightblue" points="281.26,-264.39 270.73,-265.55 279.69,-271.21 281.26,-264.39"/>
</g>
<!-- Node2&#45;&gt;Node3 -->
<g id="edge2" class="edge">
<title>Node2&#45;&gt;Node3</title>
<path fill="none" stroke="midnightblue" d="M944.8,-310.58C850.38,-302.1 674.33,-285.38 524.82,-266 513.05,-264.47 500.46,-262.65 488.48,-260.81"/>
<polygon fill="midnightblue" stroke="midnightblue" points="489.01,-257.35 478.59,-259.27 487.93,-264.27 489.01,-257.35"/>
</g>
<!-- Node4 -->
<g id="node4" class="node">
<title>Node4</title>
<g id="a_node4"><a xlink:href="MarmotElement_8h.html" target="_top" xlink:title=" ">
<polygon fill="white" stroke="black" points="225.82,-179.5 225.82,-198.5 353.82,-198.5 353.82,-179.5 225.82,-179.5"/>
<text text-anchor="middle" x="289.82" y="-186.5" font-family="Helvetica,sans-Serif" font-size="10.00">Marmot/MarmotElement.h</text>
</a>
</g>
</g>
<!-- Node2&#45;&gt;Node4 -->
<g id="edge17" class="edge">
<title>Node2&#45;&gt;Node4</title>
<path fill="none" stroke="midnightblue" d="M944.57,-316.5C801.86,-315.64 476.79,-308.86 375.82,-266 345.24,-253.02 318.02,-224.71 302.75,-206.55"/>
<polygon fill="midnightblue" stroke="midnightblue" points="305.27,-204.11 296.25,-198.56 299.84,-208.52 305.27,-204.11"/>
</g>
<!-- Node5 -->
<g id="node5" class="node">
<title>Node5</title>
<g id="a_node5"><a xlink:href="MarmotElementProperty_8h.html" target="_top" xlink:title=" ">
<polygon fill="white" stroke="black" points="37.82,-123.5 37.82,-142.5 201.82,-142.5 201.82,-123.5 37.82,-123.5"/>
<text text-anchor="middle" x="119.82" y="-130.5" font-family="Helvetica,sans-Serif" font-size="10.00">Marmot/MarmotElementProperty.h</text>
</a>
</g>
</g>
<!-- Node2&#45;&gt;Node5 -->
<g id="edge18" class="edge">
<title>Node2&#45;&gt;Node5</title>
<path fill="none" stroke="midnightblue" d="M944.76,-316.58C764.97,-316.16 280.68,-310.77 127.82,-266 64.94,-247.59 -27.78,-233.34 8.82,-179 19.8,-162.7 37.81,-152.3 56.15,-145.67"/>
<polygon fill="midnightblue" stroke="midnightblue" points="57.32,-148.97 65.74,-142.53 55.15,-142.31 57.32,-148.97"/>
</g>
<!-- Node8 -->
<g id="node8" class="node">
<title>Node8</title>
<g id="a_node8"><a xlink:title=" ">
<polygon fill="white" stroke="#bfbfbf" points="939.82,-123.5 939.82,-142.5 983.82,-142.5 983.82,-123.5 939.82,-123.5"/>
<text text-anchor="middle" x="961.82" y="-130.5" font-family="Helvetica,sans-Serif" font-size="10.00">vector</text>
</a>
</g>
</g>
<!-- Node2&#45;&gt;Node8 -->
<g id="edge60" class="edge">
<title>Node2&#45;&gt;Node8</title>
<path fill="none" stroke="midnightblue" d="M1008.9,-302.48C999.81,-269.96 977.29,-189.34 967.04,-152.68"/>
<polygon fill="midnightblue" stroke="midnightblue" points="970.35,-151.51 964.28,-142.82 963.6,-153.39 970.35,-151.51"/>
</g>
<!-- Node11 -->
<g id="node11" class="node">
<title>Node11</title>
<g id="a_node11"><a xlink:title=" ">
<polygon fill="white" stroke="#bfbfbf" points="1167.82,-67.5 1167.82,-86.5 1221.82,-86.5 1221.82,-67.5 1167.82,-67.5"/>
<text text-anchor="middle" x="1194.82" y="-74.5" font-family="Helvetica,sans-Serif" font-size="10.00">iostream</text>
</a>
</g>
</g>
<!-- Node2&#45;&gt;Node11 -->
<g id="edge58" class="edge">
<title>Node2&#45;&gt;Node11</title>
<path fill="none" stroke="midnightblue" d="M1081.17,-315.42C1163.62,-312.51 1295.04,-302.14 1325.82,-266 1377.54,-205.27 1267.86,-124.33 1217.9,-92.11"/>
<polygon fill="midnightblue" stroke="midnightblue" points="1219.64,-89.06 1209.32,-86.67 1215.89,-94.98 1219.64,-89.06"/>
</g>
<!-- Node13 -->
<g id="node13" class="node">
<title>Node13</title>
<g id="a_node13"><a xlink:href="MarmotConstants_8h.html" target="_top" xlink:title=" ">
<polygon fill="white" stroke="black" points="1844.32,-67.5 1844.32,-86.5 1981.32,-86.5 1981.32,-67.5 1844.32,-67.5"/>
<text text-anchor="middle" x="1912.82" y="-74.5" font-family="Helvetica,sans-Serif" font-size="10.00">Marmot/MarmotConstants.h</text>
</a>
</g>
</g>
<!-- Node2&#45;&gt;Node13 -->
<g id="edge15" class="edge">
<title>Node2&#45;&gt;Node13</title>
<path fill="none" stroke="midnightblue" d="M1081.02,-315.68C1223.24,-313.23 1546.84,-303.57 1649.82,-266 1756.64,-227.03 1859.1,-132 1897.2,-94.05"/>
<polygon fill="midnightblue" stroke="midnightblue" points="1899.78,-96.42 1904.33,-86.85 1894.81,-91.49 1899.78,-96.42"/>
</g>
<!-- Node2&#45;&gt;Node15 -->
<g id="edge19" class="edge">
<title>Node2&#45;&gt;Node15</title>
<path fill="none" stroke="midnightblue" d="M1024.35,-302.48C1043.65,-279 1082.42,-231.84 1103.1,-206.69"/>
<polygon fill="midnightblue" stroke="midnightblue" points="1105.95,-208.74 1109.59,-198.79 1100.54,-204.29 1105.95,-208.74"/>
</g>
<!-- Node16 -->
<g id="node16" class="node">
<title>Node16</title>
<g id="a_node16"><a xlink:href="MarmotTypedefs_8h.html" target="_top" xlink:title=" ">
<polygon fill="white" stroke="black" points="1268.32,-67.5 1268.32,-86.5 1401.32,-86.5 1401.32,-67.5 1268.32,-67.5"/>
<text text-anchor="middle" x="1334.82" y="-74.5" font-family="Helvetica,sans-Serif" font-size="10.00">Marmot/MarmotTypedefs.h</text>
</a>
</g>
</g>
<!-- Node2&#45;&gt;Node16 -->
<g id="edge56" class="edge">
<title>Node2&#45;&gt;Node16</title>
<path fill="none" stroke="midnightblue" d="M1080.97,-316.2C1168.28,-314.2 1312.37,-304.91 1345.82,-266 1387.53,-217.49 1359.05,-133.29 1343.31,-96.31"/>
<polygon fill="midnightblue" stroke="midnightblue" points="1346.35,-94.54 1339.1,-86.82 1339.96,-97.38 1346.35,-94.54"/>
</g>
<!-- Node20 -->
<g id="node20" class="node">
<title>Node20</title>
<g id="a_node20"><a xlink:href="MarmotGeometryElement_8h.html" target="_top" xlink:title=" ">
<polygon fill="white" stroke="black" points="1146.82,-241 1146.82,-260 1316.82,-260 1316.82,-241 1146.82,-241"/>
<text text-anchor="middle" x="1231.82" y="-248" font-family="Helvetica,sans-Serif" font-size="10.00">Marmot/MarmotGeometryElement.h</text>
</a>
</g>
</g>
<!-- Node2&#45;&gt;Node20 -->
<g id="edge25" class="edge">
<title>Node2&#45;&gt;Node20</title>
<path fill="none" stroke="midnightblue" d="M1060.07,-302.48C1099.84,-290.67 1156.01,-274 1193.14,-262.98"/>
<polygon fill="midnightblue" stroke="midnightblue" points="1194.49,-266.23 1203.08,-260.03 1192.5,-259.52 1194.49,-266.23"/>
</g>
<!-- Node21 -->
<g id="node21" class="node">
<title>Node21</title>
<g id="a_node21"><a xlink:href="MarmotVoigt_8h.html" target="_top" xlink:title=" ">
<polygon fill="white" stroke="black" points="1416.82,-179.5 1416.82,-198.5 1532.82,-198.5 1532.82,-179.5 1416.82,-179.5"/>
<text text-anchor="middle" x="1474.82" y="-186.5" font-family="Helvetica,sans-Serif" font-size="10.00">Marmot/MarmotVoigt.h</text>
</a>
</g>
</g>
<!-- Node2&#45;&gt;Node21 -->
<g id="edge57" class="edge">
<title>Node2&#45;&gt;Node21</title>
<path fill="none" stroke="midnightblue" d="M1081.05,-313.16C1177.49,-307.51 1348.05,-293.86 1402.82,-266 1429.31,-252.53 1451.33,-225.26 1463.79,-207.32"/>
<polygon fill="midnightblue" stroke="midnightblue" points="1466.76,-209.17 1469.4,-198.91 1460.94,-205.28 1466.76,-209.17"/>
</g>
<!-- Node22 -->
<g id="node22" class="node">
<title>Node22</title>
<g id="a_node22"><a xlink:href="MarmotJournal_8h.html" target="_top" xlink:title=" ">
<polygon fill="white" stroke="black" points="1034.32,-123.5 1034.32,-142.5 1159.32,-142.5 1159.32,-123.5 1034.32,-123.5"/>
<text text-anchor="middle" x="1096.82" y="-130.5" font-family="Helvetica,sans-Serif" font-size="10.00">Marmot/MarmotJournal.h</text>
</a>
</g>
</g>
<!-- Node2&#45;&gt;Node22 -->
<g id="edge43" class="edge">
<title>Node2&#45;&gt;Node22</title>
<path fill="none" stroke="midnightblue" d="M1011.24,-302.41C1009.01,-276.05 1007.58,-218.41 1031.82,-179 1040.15,-165.45 1054.26,-154.95 1067.2,-147.51"/>
<polygon fill="midnightblue" stroke="midnightblue" points="1069.16,-150.44 1076.33,-142.64 1065.86,-144.26 1069.16,-150.44"/>
</g>
<!-- Node24 -->
<g id="node24" class="node">
<title>Node24</title>
<g id="a_node24"><a xlink:href="MarmotMath_8h.html" target="_top" xlink:title=" ">
<polygon fill="white" stroke="black" points="1559.32,-123.5 1559.32,-142.5 1674.32,-142.5 1674.32,-123.5 1559.32,-123.5"/>
<text text-anchor="middle" x="1616.82" y="-130.5" font-family="Helvetica,sans-Serif" font-size="10.00">Marmot/MarmotMath.h</text>
</a>
</g>
</g>
<!-- Node2&#45;&gt;Node24 -->
<g id="edge49" class="edge">
<title>Node2&#45;&gt;Node24</title>
<path fill="none" stroke="midnightblue" d="M1080.95,-316.01C1233.73,-314.2 1593.22,-305.72 1629.82,-266 1658.59,-234.78 1639.18,-180.07 1626.06,-151.89"/>
<polygon fill="midnightblue" stroke="midnightblue" points="1629.16,-150.25 1621.62,-142.8 1622.87,-153.32 1629.16,-150.25"/>
</g>
<!-- Node30 -->
<g id="node30" class="node">
<title>Node30</title>
<g id="a_node30"><a xlink:href="MarmotLowerDimensionalStress_8h.html" target="_top" xlink:title=" ">
<polygon fill="white" stroke="black" points="1454.82,-235.5 1454.82,-265.5 1620.82,-265.5 1620.82,-235.5 1454.82,-235.5"/>
<text text-anchor="start" x="1462.82" y="-253.5" font-family="Helvetica,sans-Serif" font-size="10.00">Marmot/MarmotLowerDimensional</text>
<text text-anchor="middle" x="1537.82" y="-242.5" font-family="Helvetica,sans-Serif" font-size="10.00">Stress.h</text>
</a>
</g>
</g>
<!-- Node2&#45;&gt;Node30 -->
<g id="edge44" class="edge">
<title>Node2&#45;&gt;Node30</title>
<path fill="none" stroke="midnightblue" d="M1081.1,-309.1C1165.64,-299.79 1314,-282.96 1440.82,-266 1442.1,-265.83 1443.39,-265.65 1444.69,-265.48"/>
<polygon fill="midnightblue" stroke="midnightblue" points="1445.34,-268.92 1454.77,-264.09 1444.38,-261.99 1445.34,-268.92"/>
</g>
<!-- Node31 -->
<g id="node31" class="node">
<title>Node31</title>
<g id="a_node31"><a xlink:href="MarmotMaterialHypoElastic_8h.html" target="_top" xlink:title=" ">
<polygon fill="white" stroke="black" points="534.32,-235.5 534.32,-265.5 677.32,-265.5 677.32,-235.5 534.32,-235.5"/>
<text text-anchor="start" x="542.32" y="-253.5" font-family="Helvetica,sans-Serif" font-size="10.00">Marmot/MarmotMaterialHypo</text>
<text text-anchor="middle" x="605.82" y="-242.5" font-family="Helvetica,sans-Serif" font-size="10.00">Elastic.h</text>
</a>
</g>
</g>
<!-- Node2&#45;&gt;Node31 -->
<g id="edge46" class="edge">
<title>Node2&#45;&gt;Node31</title>
<path fill="none" stroke="midnightblue" d="M944.7,-305.62C873.88,-294.31 763.03,-276.61 687.54,-264.55"/>
<polygon fill="midnightblue" stroke="midnightblue" points="688.02,-261.08 677.59,-262.96 686.92,-268 688.02,-261.08"/>
</g>
<!-- Node33 -->
<g id="node33" class="node">
<title>Node33</title>
<g id="a_node33"><a xlink:href="MarmotStateVarVectorManager_8h.html" target="_top" xlink:title=" ">
<polygon fill="white" stroke="black" points="789.82,-235.5 789.82,-265.5 941.82,-265.5 941.82,-235.5 789.82,-235.5"/>
<text text-anchor="start" x="797.82" y="-253.5" font-family="Helvetica,sans-Serif" font-size="10.00">Marmot/MarmotStateVarVector</text>
<text text-anchor="middle" x="865.82" y="-242.5" font-family="Helvetica,sans-Serif" font-size="10.00">Manager.h</text>
</a>
</g>
</g>
<!-- Node2&#45;&gt;Node33 -->
<g id="edge50" class="edge">
<title>Node2&#45;&gt;Node33</title>
<path fill="none" stroke="midnightblue" d="M980.92,-302.4C959.25,-292.81 930.39,-280.05 906.98,-269.7"/>
<polygon fill="midnightblue" stroke="midnightblue" points="908.22,-266.42 897.65,-265.58 905.38,-272.82 908.22,-266.42"/>
</g>
<!-- Node34 -->
<g id="node34" class="node">
<title>Node34</title>
<g id="a_node34"><a xlink:title=" ">
<polygon fill="white" stroke="#bfbfbf" points="680.32,-179.5 680.32,-198.5 731.32,-198.5 731.32,-179.5 680.32,-179.5"/>
<text text-anchor="middle" x="705.82" y="-186.5" font-family="Helvetica,sans-Serif" font-size="10.00">memory</text>
</a>
</g>
</g>
<!-- Node2&#45;&gt;Node34 -->
<g id="edge59" class="edge">
<title>Node2&#45;&gt;Node34</title>
<path fill="none" stroke="midnightblue" d="M944.74,-311.99C896.48,-306.41 831.56,-293.93 780.82,-266 754.27,-251.38 731.04,-224.44 717.72,-206.87"/>
<polygon fill="midnightblue" stroke="midnightblue" points="720.43,-204.65 711.69,-198.66 714.79,-208.79 720.43,-204.65"/>
</g>
<!-- Node3&#45;&gt;Node4 -->
<g id="edge3" class="edge">
<title>Node3&#45;&gt;Node4</title>
<path fill="none" stroke="midnightblue" d="M411.47,-240.98C387.43,-230.9 347.22,-214.05 319.66,-202.5"/>
<polygon fill="midnightblue" stroke="midnightblue" points="320.7,-199.15 310.13,-198.51 318,-205.6 320.7,-199.15"/>
</g>
<!-- Node7 -->
<g id="node7" class="node">
<title>Node7</title>
<g id="a_node7"><a xlink:title=" ">
<polygon fill="white" stroke="#bfbfbf" points="532.32,-67.5 532.32,-86.5 573.32,-86.5 573.32,-67.5 532.32,-67.5"/>
<text text-anchor="middle" x="552.82" y="-74.5" font-family="Helvetica,sans-Serif" font-size="10.00">string</text>
</a>
</g>
</g>
<!-- Node3&#45;&gt;Node7 -->
<g id="edge13" class="edge">
<title>Node3&#45;&gt;Node7</title>
<path fill="none" stroke="midnightblue" d="M428.61,-240.73C421.06,-218.47 404.82,-159.03 431.82,-123 437.5,-115.42 488.42,-98.23 522.37,-87.43"/>
<polygon fill="midnightblue" stroke="midnightblue" points="523.81,-90.65 532.29,-84.3 521.7,-83.97 523.81,-90.65"/>
</g>
<!-- Node9 -->
<g id="node9" class="node">
<title>Node9</title>
<g id="a_node9"><a xlink:href="MarmotMaterial_8h.html" target="_top" xlink:title=" ">
<polygon fill="white" stroke="black" points="440.82,-123.5 440.82,-142.5 568.82,-142.5 568.82,-123.5 440.82,-123.5"/>
<text text-anchor="middle" x="504.82" y="-130.5" font-family="Helvetica,sans-Serif" font-size="10.00">Marmot/MarmotMaterial.h</text>
</a>
</g>
</g>
<!-- Node3&#45;&gt;Node9 -->
<g id="edge8" class="edge">
<title>Node3&#45;&gt;Node9</title>
<path fill="none" stroke="midnightblue" d="M430.48,-240.98C428.74,-226.98 427.14,-198.67 438.82,-179 447.04,-165.14 461.4,-154.6 474.62,-147.21"/>
<polygon fill="midnightblue" stroke="midnightblue" points="476.25,-150.31 483.51,-142.59 473.02,-144.09 476.25,-150.31"/>
</g>
<!-- Node10 -->
<g id="node10" class="node">
<title>Node10</title>
<g id="a_node10"><a xlink:title=" ">
<polygon fill="white" stroke="#bfbfbf" points="148.32,-179.5 148.32,-198.5 207.32,-198.5 207.32,-179.5 148.32,-179.5"/>
<text text-anchor="middle" x="177.82" y="-186.5" font-family="Helvetica,sans-Serif" font-size="10.00">functional</text>
</a>
</g>
</g>
<!-- Node3&#45;&gt;Node10 -->
<g id="edge11" class="edge">
<title>Node3&#45;&gt;Node10</title>
<path fill="none" stroke="midnightblue" d="M395.43,-240.98C348.17,-229.91 265.99,-210.65 217.28,-199.24"/>
<polygon fill="midnightblue" stroke="midnightblue" points="217.95,-195.81 207.42,-196.93 216.35,-202.62 217.95,-195.81"/>
</g>
<!-- Node3&#45;&gt;Node11 -->
<g id="edge12" class="edge">
<title>Node3&#45;&gt;Node11</title>
<path fill="none" stroke="midnightblue" d="M478.23,-240.97C519.57,-232.64 581.3,-218.39 632.82,-199 651.05,-192.14 653.48,-185.56 671.82,-179 782.71,-139.35 815.19,-145.34 930.82,-123 1011.54,-107.4 1106.7,-91.88 1157.84,-83.78"/>
<polygon fill="midnightblue" stroke="midnightblue" points="1158.43,-87.23 1167.76,-82.21 1157.34,-80.31 1158.43,-87.23"/>
</g>
<!-- Node12 -->
<g id="node12" class="node">
<title>Node12</title>
<g id="a_node12"><a xlink:title=" ">
<polygon fill="white" stroke="#bfbfbf" points="749.32,-179.5 749.32,-198.5 832.32,-198.5 832.32,-179.5 749.32,-179.5"/>
<text text-anchor="middle" x="790.82" y="-186.5" font-family="Helvetica,sans-Serif" font-size="10.00">unordered_map</text>
</a>
</g>
</g>
<!-- Node3&#45;&gt;Node12 -->
<g id="edge14" class="edge">
<title>Node3&#45;&gt;Node12</title>
<path fill="none" stroke="midnightblue" d="M478.45,-242.12C536.97,-232.8 640.69,-216.11 738.98,-199.3"/>
<polygon fill="midnightblue" stroke="midnightblue" points="739.82,-202.7 749.09,-197.56 738.64,-195.8 739.82,-202.7"/>
</g>
<!-- Node4&#45;&gt;Node5 -->
<g id="edge4" class="edge">
<title>Node4&#45;&gt;Node5</title>
<path fill="none" stroke="midnightblue" d="M262.88,-179.44C234.16,-170.32 188.49,-155.81 156.5,-145.65"/>
<polygon fill="midnightblue" stroke="midnightblue" points="157.22,-142.21 146.63,-142.52 155.1,-148.88 157.22,-142.21"/>
</g>
<!-- Node6 -->
<g id="node6" class="node">
<title>Node6</title>
<g id="a_node6"><a xlink:href="MarmotUtils_8h.html" target="_top" xlink:title=" ">
<polygon fill="white" stroke="black" points="401.32,-67.5 401.32,-86.5 514.32,-86.5 514.32,-67.5 401.32,-67.5"/>
<text text-anchor="middle" x="457.82" y="-74.5" font-family="Helvetica,sans-Serif" font-size="10.00">Marmot/MarmotUtils.h</text>
</a>
</g>
</g>
<!-- Node4&#45;&gt;Node6 -->
<g id="edge5" class="edge">
<title>Node4&#45;&gt;Node6</title>
<path fill="none" stroke="midnightblue" d="M292.44,-179.08C296.98,-165.15 307.62,-138.23 325.82,-123 345.65,-106.41 371.9,-95.83 395.77,-89.13"/>
<polygon fill="midnightblue" stroke="midnightblue" points="396.7,-92.51 405.48,-86.58 394.92,-85.74 396.7,-92.51"/>
</g>
<!-- Node4&#45;&gt;Node7 -->
<g id="edge6" class="edge">
<title>Node4&#45;&gt;Node7</title>
<path fill="none" stroke="midnightblue" d="M297.54,-179.35C310.59,-165.3 338.46,-137.6 367.82,-123 428.42,-92.86 452.39,-104.08 522.48,-86.87"/>
<polygon fill="midnightblue" stroke="midnightblue" points="523.4,-90.25 532.21,-84.37 521.66,-83.47 523.4,-90.25"/>
</g>
<!-- Node4&#45;&gt;Node8 -->
<g id="edge7" class="edge">
<title>Node4&#45;&gt;Node8</title>
<path fill="none" stroke="midnightblue" d="M353.95,-182.85C494.32,-171.57 824.58,-145.03 929.34,-136.61"/>
<polygon fill="midnightblue" stroke="midnightblue" points="929.91,-140.08 939.59,-135.79 929.35,-133.1 929.91,-140.08"/>
</g>
<!-- Node9&#45;&gt;Node6 -->
<g id="edge9" class="edge">
<title>Node9&#45;&gt;Node6</title>
<path fill="none" stroke="midnightblue" d="M497.06,-123.08C490.28,-115.3 480.28,-103.8 472.06,-94.37"/>
<polygon fill="midnightblue" stroke="midnightblue" points="474.64,-92 465.44,-86.75 469.36,-96.59 474.64,-92"/>
</g>
<!-- Node9&#45;&gt;Node7 -->
<g id="edge10" class="edge">
<title>Node9&#45;&gt;Node7</title>
<path fill="none" stroke="midnightblue" d="M512.75,-123.08C519.67,-115.3 529.89,-103.8 538.27,-94.37"/>
<polygon fill="midnightblue" stroke="midnightblue" points="541.01,-96.55 545.04,-86.75 535.78,-91.9 541.01,-96.55"/>
</g>
<!-- Node14 -->
<g id="node14" class="node">
<title>Node14</title>
<g id="a_node14"><a xlink:title=" ">
<polygon fill="white" stroke="#bfbfbf" points="1890.82,-6 1890.82,-25 1934.82,-25 1934.82,-6 1890.82,-6"/>
<text text-anchor="middle" x="1912.82" y="-13" font-family="Helvetica,sans-Serif" font-size="10.00">cmath</text>
</a>
</g>
</g>
<!-- Node13&#45;&gt;Node14 -->
<g id="edge16" class="edge">
<title>Node13&#45;&gt;Node14</title>
<path fill="none" stroke="midnightblue" d="M1912.82,-67.48C1912.82,-59.08 1912.82,-45.98 1912.82,-35.16"/>
<polygon fill="midnightblue" stroke="midnightblue" points="1916.32,-35.01 1912.82,-25.01 1909.32,-35.01 1916.32,-35.01"/>
</g>
<!-- Node15&#45;&gt;Node8 -->
<g id="edge24" class="edge">
<title>Node15&#45;&gt;Node8</title>
<path fill="none" stroke="midnightblue" d="M1092.26,-179.44C1065.69,-170.19 1023.21,-155.39 993.99,-145.21"/>
<polygon fill="midnightblue" stroke="midnightblue" points="994.85,-141.8 984.25,-141.82 992.54,-148.41 994.85,-141.8"/>
</g>
<!-- Node15&#45;&gt;Node16 -->
<g id="edge20" class="edge">
<title>Node15&#45;&gt;Node16</title>
<path fill="none" stroke="midnightblue" d="M1133.93,-179.37C1171.89,-160.21 1263.4,-114.04 1308.63,-91.22"/>
<polygon fill="midnightblue" stroke="midnightblue" points="1310.44,-94.22 1317.79,-86.59 1307.29,-87.97 1310.44,-94.22"/>
</g>
<!-- Node17 -->
<g id="node17" class="node">
<title>Node17</title>
<g id="a_node17"><a xlink:title=" ">
<polygon fill="white" stroke="#bfbfbf" points="1418.82,-6 1418.82,-25 1482.82,-25 1482.82,-6 1418.82,-6"/>
<text text-anchor="middle" x="1450.82" y="-13" font-family="Helvetica,sans-Serif" font-size="10.00">Eigen/Core</text>
</a>
</g>
</g>
<!-- Node16&#45;&gt;Node17 -->
<g id="edge21" class="edge">
<title>Node16&#45;&gt;Node17</title>
<path fill="none" stroke="midnightblue" d="M1351.44,-67.48C1370.73,-57.58 1402.78,-41.14 1425.25,-29.62"/>
<polygon fill="midnightblue" stroke="midnightblue" points="1426.93,-32.69 1434.23,-25.01 1423.74,-26.46 1426.93,-32.69"/>
</g>
<!-- Node18 -->
<g id="node18" class="node">
<title>Node18</title>
<g id="a_node18"><a xlink:title=" ">
<polygon fill="white" stroke="#bfbfbf" points="1180.32,-6 1180.32,-25 1251.32,-25 1251.32,-6 1180.32,-6"/>
<text text-anchor="middle" x="1215.82" y="-13" font-family="Helvetica,sans-Serif" font-size="10.00">Eigen/Dense</text>
</a>
</g>
</g>
<!-- Node16&#45;&gt;Node18 -->
<g id="edge22" class="edge">
<title>Node16&#45;&gt;Node18</title>
<path fill="none" stroke="midnightblue" d="M1317.77,-67.48C1297.98,-57.58 1265.1,-41.14 1242.05,-29.62"/>
<polygon fill="midnightblue" stroke="midnightblue" points="1243.35,-26.35 1232.84,-25.01 1240.22,-32.61 1243.35,-26.35"/>
</g>
<!-- Node19 -->
<g id="node19" class="node">
<title>Node19</title>
<g id="a_node19"><a xlink:title=" ">
<polygon fill="white" stroke="#bfbfbf" points="1269.32,-0.5 1269.32,-30.5 1400.32,-30.5 1400.32,-0.5 1269.32,-0.5"/>
<text text-anchor="start" x="1277.32" y="-18.5" font-family="Helvetica,sans-Serif" font-size="10.00">unsupported/Eigen/CXX11</text>
<text text-anchor="middle" x="1334.82" y="-7.5" font-family="Helvetica,sans-Serif" font-size="10.00">/Tensor</text>
</a>
</g>
</g>
<!-- Node16&#45;&gt;Node19 -->
<g id="edge23" class="edge">
<title>Node16&#45;&gt;Node19</title>
<path fill="none" stroke="midnightblue" d="M1334.82,-67.48C1334.82,-60.47 1334.82,-50.19 1334.82,-40.7"/>
<polygon fill="midnightblue" stroke="midnightblue" points="1338.32,-40.52 1334.82,-30.52 1331.32,-40.52 1338.32,-40.52"/>
</g>
<!-- Node20&#45;&gt;Node11 -->
<g id="edge41" class="edge">
<title>Node20&#45;&gt;Node11</title>
<path fill="none" stroke="midnightblue" d="M1229.93,-240.76C1224.17,-214.04 1206.69,-133.02 1198.78,-96.36"/>
<polygon fill="midnightblue" stroke="midnightblue" points="1202.19,-95.56 1196.66,-86.52 1195.35,-97.03 1202.19,-95.56"/>
</g>
<!-- Node20&#45;&gt;Node15 -->
<g id="edge26" class="edge">
<title>Node20&#45;&gt;Node15</title>
<path fill="none" stroke="midnightblue" d="M1215.34,-240.98C1196.21,-231.08 1164.45,-214.64 1142.17,-203.12"/>
<polygon fill="midnightblue" stroke="midnightblue" points="1143.76,-200 1133.27,-198.51 1140.54,-206.21 1143.76,-200"/>
</g>
<!-- Node20&#45;&gt;Node16 -->
<g id="edge27" class="edge">
<title>Node20&#45;&gt;Node16</title>
<path fill="none" stroke="midnightblue" d="M1246.62,-240.89C1260.62,-232.03 1281.31,-217.02 1293.82,-199 1316.09,-166.93 1327.12,-121.75 1331.84,-96.65"/>
<polygon fill="midnightblue" stroke="midnightblue" points="1335.31,-97.11 1333.58,-86.66 1328.41,-95.91 1335.31,-97.11"/>
</g>
<!-- Node20&#45;&gt;Node21 -->
<g id="edge28" class="edge">
<title>Node20&#45;&gt;Node21</title>
<path fill="none" stroke="midnightblue" d="M1266.64,-240.98C1309.67,-230.44 1382.98,-212.49 1430.13,-200.94"/>
<polygon fill="midnightblue" stroke="midnightblue" points="1431.19,-204.29 1440.07,-198.51 1429.52,-197.49 1431.19,-204.29"/>
</g>
<!-- Node29 -->
<g id="node29" class="node">
<title>Node29</title>
<g id="a_node29"><a xlink:title=" ">
<polygon fill="white" stroke="#bfbfbf" points="1249.32,-179.5 1249.32,-198.5 1284.32,-198.5 1284.32,-179.5 1249.32,-179.5"/>
<text text-anchor="middle" x="1266.82" y="-186.5" font-family="Helvetica,sans-Serif" font-size="10.00">map</text>
</a>
</g>
</g>
<!-- Node20&#45;&gt;Node29 -->
<g id="edge42" class="edge">
<title>Node20&#45;&gt;Node29</title>
<path fill="none" stroke="midnightblue" d="M1236.83,-240.98C1241.98,-232.23 1250.13,-218.37 1256.64,-207.31"/>
<polygon fill="midnightblue" stroke="midnightblue" points="1259.76,-208.9 1261.81,-198.51 1253.73,-205.35 1259.76,-208.9"/>
</g>
<!-- Node21&#45;&gt;Node16 -->
<g id="edge40" class="edge">
<title>Node21&#45;&gt;Node16</title>
<path fill="none" stroke="midnightblue" d="M1465.88,-179.13C1452.64,-166.16 1426.78,-141.57 1402.82,-123 1388.37,-111.79 1371.18,-100.44 1357.71,-91.94"/>
<polygon fill="midnightblue" stroke="midnightblue" points="1359.39,-88.86 1349.05,-86.55 1355.69,-94.8 1359.39,-88.86"/>
</g>
<!-- Node21&#45;&gt;Node22 -->
<g id="edge29" class="edge">
<title>Node21&#45;&gt;Node22</title>
<path fill="none" stroke="midnightblue" d="M1416.59,-179.68C1349.28,-170.07 1238.57,-154.25 1166.68,-143.98"/>
<polygon fill="midnightblue" stroke="midnightblue" points="1166.76,-140.46 1156.37,-142.51 1165.77,-147.39 1166.76,-140.46"/>
</g>
<!-- Node21&#45;&gt;Node24 -->
<g id="edge33" class="edge">
<title>Node21&#45;&gt;Node24</title>
<path fill="none" stroke="midnightblue" d="M1497.32,-179.44C1520.9,-170.48 1558.14,-156.31 1584.78,-146.18"/>
<polygon fill="midnightblue" stroke="midnightblue" points="1586.32,-149.34 1594.42,-142.52 1583.83,-142.8 1586.32,-149.34"/>
</g>
<!-- Node22&#45;&gt;Node7 -->
<g id="edge32" class="edge">
<title>Node22&#45;&gt;Node7</title>
<path fill="none" stroke="midnightblue" d="M1034.15,-125.78C917.22,-114.17 669.81,-89.61 583.39,-81.03"/>
<polygon fill="midnightblue" stroke="midnightblue" points="583.73,-77.55 573.44,-80.05 583.04,-84.52 583.73,-77.55"/>
</g>
<!-- Node22&#45;&gt;Node11 -->
<g id="edge30" class="edge">
<title>Node22&#45;&gt;Node11</title>
<path fill="none" stroke="midnightblue" d="M1112.57,-123.32C1128.14,-114.74 1152.2,-101.49 1170.28,-91.52"/>
<polygon fill="midnightblue" stroke="midnightblue" points="1172.04,-94.55 1179.11,-86.65 1168.67,-88.42 1172.04,-94.55"/>
</g>
<!-- Node23 -->
<g id="node23" class="node">
<title>Node23</title>
<g id="a_node23"><a xlink:title=" ">
<polygon fill="white" stroke="#bfbfbf" points="1070.82,-67.5 1070.82,-86.5 1122.82,-86.5 1122.82,-67.5 1070.82,-67.5"/>
<text text-anchor="middle" x="1096.82" y="-74.5" font-family="Helvetica,sans-Serif" font-size="10.00">sstream</text>
</a>
</g>
</g>
<!-- Node22&#45;&gt;Node23 -->
<g id="edge31" class="edge">
<title>Node22&#45;&gt;Node23</title>
<path fill="none" stroke="midnightblue" d="M1096.82,-123.08C1096.82,-116.01 1096.82,-105.86 1096.82,-96.99"/>
<polygon fill="midnightblue" stroke="midnightblue" points="1100.32,-96.75 1096.82,-86.75 1093.32,-96.75 1100.32,-96.75"/>
</g>
<!-- Node24&#45;&gt;Node13 -->
<g id="edge34" class="edge">
<title>Node24&#45;&gt;Node13</title>
<path fill="none" stroke="midnightblue" d="M1663.72,-123.44C1715.9,-113.92 1800.19,-98.55 1856.05,-88.36"/>
<polygon fill="midnightblue" stroke="midnightblue" points="1856.93,-91.75 1866.14,-86.52 1855.67,-84.87 1856.93,-91.75"/>
</g>
<!-- Node24&#45;&gt;Node16 -->
<g id="edge35" class="edge">
<title>Node24&#45;&gt;Node16</title>
<path fill="none" stroke="midnightblue" d="M1572.14,-123.44C1522.53,-113.94 1442.45,-98.61 1389.23,-88.42"/>
<polygon fill="midnightblue" stroke="midnightblue" points="1389.77,-84.96 1379.29,-86.52 1388.46,-91.83 1389.77,-84.96"/>
</g>
<!-- Node25 -->
<g id="node25" class="node">
<title>Node25</title>
<g id="a_node25"><a xlink:title=" ">
<polygon fill="white" stroke="#bfbfbf" points="1703.82,-67.5 1703.82,-86.5 1825.82,-86.5 1825.82,-67.5 1703.82,-67.5"/>
<text text-anchor="middle" x="1764.82" y="-74.5" font-family="Helvetica,sans-Serif" font-size="10.00">autodiff/forward/dual.hpp</text>
</a>
</g>
</g>
<!-- Node24&#45;&gt;Node25 -->
<g id="edge36" class="edge">
<title>Node24&#45;&gt;Node25</title>
<path fill="none" stroke="midnightblue" d="M1640.27,-123.44C1664.95,-114.44 1704,-100.19 1731.8,-90.05"/>
<polygon fill="midnightblue" stroke="midnightblue" points="1733.28,-93.23 1741.48,-86.52 1730.88,-86.66 1733.28,-93.23"/>
</g>
<!-- Node26 -->
<g id="node26" class="node">
<title>Node26</title>
<g id="a_node26"><a xlink:title=" ">
<polygon fill="white" stroke="#bfbfbf" points="1419.82,-67.5 1419.82,-86.5 1539.82,-86.5 1539.82,-67.5 1419.82,-67.5"/>
<text text-anchor="middle" x="1479.82" y="-74.5" font-family="Helvetica,sans-Serif" font-size="10.00">autodiff/forward/real.hpp</text>
</a>
</g>
</g>
<!-- Node24&#45;&gt;Node26 -->
<g id="edge37" class="edge">
<title>Node24&#45;&gt;Node26</title>
<path fill="none" stroke="midnightblue" d="M1595.11,-123.44C1572.46,-114.52 1536.75,-100.44 1511.07,-90.32"/>
<polygon fill="midnightblue" stroke="midnightblue" points="1512.01,-86.93 1501.43,-86.52 1509.45,-93.44 1512.01,-86.93"/>
</g>
<!-- Node27 -->
<g id="node27" class="node">
<title>Node27</title>
<g id="a_node27"><a xlink:title=" ">
<polygon fill="white" stroke="#bfbfbf" points="1557.82,-67.5 1557.82,-86.5 1613.82,-86.5 1613.82,-67.5 1557.82,-67.5"/>
<text text-anchor="middle" x="1585.82" y="-74.5" font-family="Helvetica,sans-Serif" font-size="10.00">algorithm</text>
</a>
</g>
</g>
<!-- Node24&#45;&gt;Node27 -->
<g id="edge38" class="edge">
<title>Node24&#45;&gt;Node27</title>
<path fill="none" stroke="midnightblue" d="M1611.7,-123.08C1607.41,-115.61 1601.16,-104.72 1595.88,-95.52"/>
<polygon fill="midnightblue" stroke="midnightblue" points="1598.86,-93.68 1590.84,-86.75 1592.79,-97.17 1598.86,-93.68"/>
</g>
<!-- Node28 -->
<g id="node28" class="node">
<title>Node28</title>
<g id="a_node28"><a xlink:title=" ">
<polygon fill="white" stroke="#bfbfbf" points="1632.32,-67.5 1632.32,-86.5 1685.32,-86.5 1685.32,-67.5 1632.32,-67.5"/>
<text text-anchor="middle" x="1658.82" y="-74.5" font-family="Helvetica,sans-Serif" font-size="10.00">complex</text>
</a>
</g>
</g>
<!-- Node24&#45;&gt;Node28 -->
<g id="edge39" class="edge">
<title>Node24&#45;&gt;Node28</title>
<path fill="none" stroke="midnightblue" d="M1623.76,-123.08C1629.75,-115.38 1638.57,-104.03 1645.87,-94.65"/>
<polygon fill="midnightblue" stroke="midnightblue" points="1648.64,-96.79 1652.01,-86.75 1643.11,-92.5 1648.64,-96.79"/>
</g>
<!-- Node30&#45;&gt;Node21 -->
<g id="edge45" class="edge">
<title>Node30&#45;&gt;Node21</title>
<path fill="none" stroke="midnightblue" d="M1522.89,-235.4C1513.45,-226.49 1501.24,-214.95 1491.49,-205.74"/>
<polygon fill="midnightblue" stroke="midnightblue" points="1493.66,-202.98 1483.99,-198.66 1488.85,-208.07 1493.66,-202.98"/>
</g>
<!-- Node32 -->
<g id="node32" class="node">
<title>Node32</title>
<g id="a_node32"><a xlink:href="MarmotMaterialMechanical_8h.html" target="_top" xlink:title=" ">
<polygon fill="white" stroke="black" points="447.32,-179.5 447.32,-198.5 624.32,-198.5 624.32,-179.5 447.32,-179.5"/>
<text text-anchor="middle" x="535.82" y="-186.5" font-family="Helvetica,sans-Serif" font-size="10.00">Marmot/MarmotMaterialMechanical.h</text>
</a>
</g>
</g>
<!-- Node31&#45;&gt;Node32 -->
<g id="edge47" class="edge">
<title>Node31&#45;&gt;Node32</title>
<path fill="none" stroke="midnightblue" d="M589.23,-235.4C578.53,-226.31 564.63,-214.49 553.69,-205.19"/>
<polygon fill="midnightblue" stroke="midnightblue" points="555.89,-202.47 546.01,-198.66 551.36,-207.8 555.89,-202.47"/>
</g>
<!-- Node32&#45;&gt;Node9 -->
<g id="edge48" class="edge">
<title>Node32&#45;&gt;Node9</title>
<path fill="none" stroke="midnightblue" d="M530.7,-179.08C526.41,-171.61 520.16,-160.72 514.88,-151.52"/>
<polygon fill="midnightblue" stroke="midnightblue" points="517.86,-149.68 509.84,-142.75 511.79,-153.17 517.86,-149.68"/>
</g>
<!-- Node33&#45;&gt;Node6 -->
<g id="edge51" class="edge">
<title>Node33&#45;&gt;Node6</title>
<path fill="none" stroke="midnightblue" d="M864.9,-235.48C863.08,-219.54 857.71,-193.81 841.82,-179 817.28,-156.14 608.13,-109.67 509.24,-88.69"/>
<polygon fill="midnightblue" stroke="midnightblue" points="509.67,-85.21 499.17,-86.57 508.23,-92.06 509.67,-85.21"/>
</g>
<!-- Node33&#45;&gt;Node7 -->
<g id="edge52" class="edge">
<title>Node33&#45;&gt;Node7</title>
<path fill="none" stroke="midnightblue" d="M872.93,-235.37C879.53,-220.04 886.71,-195.53 874.82,-179 840.01,-130.61 657.08,-95.33 583.51,-82.9"/>
<polygon fill="midnightblue" stroke="midnightblue" points="583.92,-79.42 573.48,-81.23 582.77,-86.32 583.92,-79.42"/>
</g>
<!-- Node33&#45;&gt;Node8 -->
<g id="edge54" class="edge">
<title>Node33&#45;&gt;Node8</title>
<path fill="none" stroke="midnightblue" d="M879.8,-235.28C889.37,-225.35 902.2,-211.67 912.82,-199 926.1,-183.16 940.2,-164.21 949.85,-150.86"/>
<polygon fill="midnightblue" stroke="midnightblue" points="952.77,-152.8 955.75,-142.63 947.08,-148.72 952.77,-152.8"/>
</g>
<!-- Node33&#45;&gt;Node12 -->
<g id="edge53" class="edge">
<title>Node33&#45;&gt;Node12</title>
<path fill="none" stroke="midnightblue" d="M848.05,-235.4C836.47,-226.22 821.4,-214.26 809.62,-204.92"/>
<polygon fill="midnightblue" stroke="midnightblue" points="811.74,-202.13 801.73,-198.66 807.39,-207.61 811.74,-202.13"/>
</g>
<!-- Node33&#45;&gt;Node34 -->
<g id="edge55" class="edge">
<title>Node33&#45;&gt;Node34</title>
<path fill="none" stroke="midnightblue" d="M827.9,-235.4C800.7,-225.28 764.42,-211.79 738.49,-202.15"/>
<polygon fill="midnightblue" stroke="midnightblue" points="739.69,-198.86 729.1,-198.66 737.25,-205.42 739.69,-198.86"/>
</g>
<!-- Node35&#45;&gt;Node4 -->
<g id="edge65" class="edge">
<title>Node35&#45;&gt;Node4</title>
<path fill="none" stroke="midnightblue" d="M228.78,-235.4C241.24,-226.13 257.52,-214.03 270.13,-204.65"/>
<polygon fill="midnightblue" stroke="midnightblue" points="272.24,-207.43 278.18,-198.66 268.07,-201.82 272.24,-207.43"/>
</g>
<!-- Node35&#45;&gt;Node5 -->
<g id="edge66" class="edge">
<title>Node35&#45;&gt;Node5</title>
<path fill="none" stroke="midnightblue" d="M181.68,-235.46C166.97,-226.81 149.78,-214.41 138.82,-199 129.13,-185.38 124.34,-166.84 122,-153.04"/>
<polygon fill="midnightblue" stroke="midnightblue" points="125.42,-152.2 120.55,-142.78 118.48,-153.17 125.42,-152.2"/>
</g>
<!-- Node35&#45;&gt;Node10 -->
<g id="edge67" class="edge">
<title>Node35&#45;&gt;Node10</title>
<path fill="none" stroke="midnightblue" d="M202.24,-235.4C197.78,-227.11 192.1,-216.55 187.34,-207.71"/>
<polygon fill="midnightblue" stroke="midnightblue" points="190.3,-205.81 182.48,-198.66 184.13,-209.12 190.3,-205.81"/>
</g>
<!-- Node35&#45;&gt;Node34 -->
<g id="edge68" class="edge">
<title>Node35&#45;&gt;Node34</title>
<path fill="none" stroke="midnightblue" d="M282.43,-240.92C366.7,-230.94 509.84,-213.92 632.82,-199 644.98,-197.52 658.27,-195.89 670.14,-194.43"/>
<polygon fill="midnightblue" stroke="midnightblue" points="670.65,-197.89 680.15,-193.19 669.79,-190.94 670.65,-197.89"/>
</g>
<!-- Node36 -->
<g id="node36" class="node">
<title>Node36</title>
<g id="a_node36"><a xlink:title=" ">
<polygon fill="white" stroke="#bfbfbf" points="17.82,-179.5 17.82,-198.5 91.82,-198.5 91.82,-179.5 17.82,-179.5"/>
<text text-anchor="middle" x="54.82" y="-186.5" font-family="Helvetica,sans-Serif" font-size="10.00">Eigen/Sparse</text>
</a>
</g>
</g>
<!-- Node35&#45;&gt;Node36 -->
<g id="edge64" class="edge">
<title>Node35&#45;&gt;Node36</title>
<path fill="none" stroke="midnightblue" d="M173.09,-235.4C146.85,-225.33 111.89,-211.91 86.8,-202.28"/>
<polygon fill="midnightblue" stroke="midnightblue" points="87.96,-198.97 77.37,-198.66 85.45,-205.51 87.96,-198.97"/>
</g>
</g>
</svg>
