<?xml version="1.0" encoding="UTF-8" standalone="no"?>
<!DOCTYPE svg PUBLIC "-//W3C//DTD SVG 1.1//EN"
 "http://www.w3.org/Graphics/SVG/1.1/DTD/svg11.dtd">
<!-- Generated by graphviz version 3.0.0 (20220413.0106)
 -->
<!-- Title: modules/elements/DisplacementFiniteElement/include/Marmot/DisplacementFiniteElement.h Pages: 1 -->
<svg width="1486pt" height="363pt"
 viewBox="0.00 0.00 1485.50 363.00" xmlns="http://www.w3.org/2000/svg" xmlns:xlink="http://www.w3.org/1999/xlink">
<g id="graph0" class="graph" transform="scale(1 1) rotate(0) translate(4 359)">
<title>modules/elements/DisplacementFiniteElement/include/Marmot/DisplacementFiniteElement.h</title>
<polygon fill="white" stroke="transparent" points="-4,4 -4,-359 1481.5,-359 1481.5,4 -4,4"/>
<!-- Node1 -->
<g id="node1" class="node">
<title>Node1</title>
<g id="a_node1"><a xlink:title=" ">
<polygon fill="#bfbfbf" stroke="black" points="712,-313.5 712,-354.5 870,-354.5 870,-313.5 712,-313.5"/>
<text text-anchor="start" x="720" y="-342.5" font-family="Helvetica,sans-Serif" font-size="10.00">modules/elements/Displacement</text>
<text text-anchor="start" x="720" y="-331.5" font-family="Helvetica,sans-Serif" font-size="10.00">FiniteElement/include/Marmot</text>
<text text-anchor="middle" x="791" y="-320.5" font-family="Helvetica,sans-Serif" font-size="10.00">/DisplacementFiniteElement.h</text>
</a>
</g>
</g>
<!-- Node2 -->
<g id="node2" class="node">
<title>Node2</title>
<g id="a_node2"><a xlink:href="Marmot_8h.html" target="_top" xlink:title=" ">
<polygon fill="white" stroke="black" points="386.5,-190.5 386.5,-209.5 479.5,-209.5 479.5,-190.5 386.5,-190.5"/>
<text text-anchor="middle" x="433" y="-197.5" font-family="Helvetica,sans-Serif" font-size="10.00">Marmot/Marmot.h</text>
</a>
</g>
</g>
<!-- Node1&#45;&gt;Node2 -->
<g id="edge1" class="edge">
<title>Node1&#45;&gt;Node2</title>
<path fill="none" stroke="midnightblue" d="M724.11,-313.41C690.78,-303.25 650,-290.22 614,-277 559.02,-256.81 496.3,-229.48 461,-213.69"/>
<polygon fill="midnightblue" stroke="midnightblue" points="462.35,-210.47 451.8,-209.56 459.49,-216.85 462.35,-210.47"/>
</g>
<!-- Node3 -->
<g id="node3" class="node">
<title>Node3</title>
<g id="a_node3"><a xlink:href="MarmotElement_8h.html" target="_top" xlink:title=" ">
<polygon fill="white" stroke="black" points="70,-129 70,-148 198,-148 198,-129 70,-129"/>
<text text-anchor="middle" x="134" y="-136" font-family="Helvetica,sans-Serif" font-size="10.00">Marmot/MarmotElement.h</text>
</a>
</g>
</g>
<!-- Node1&#45;&gt;Node3 -->
<g id="edge16" class="edge">
<title>Node1&#45;&gt;Node3</title>
<path fill="none" stroke="midnightblue" d="M711.97,-333.1C577.22,-331.96 309.79,-323.67 230,-277 182.79,-249.39 153.17,-188.26 140.75,-157.67"/>
<polygon fill="midnightblue" stroke="midnightblue" points="143.96,-156.28 137.07,-148.23 137.44,-158.82 143.96,-156.28"/>
</g>
<!-- Node4 -->
<g id="node4" class="node">
<title>Node4</title>
<g id="a_node4"><a xlink:href="MarmotElementProperty_8h.html" target="_top" xlink:title=" ">
<polygon fill="white" stroke="black" points="0,-67.5 0,-86.5 164,-86.5 164,-67.5 0,-67.5"/>
<text text-anchor="middle" x="82" y="-74.5" font-family="Helvetica,sans-Serif" font-size="10.00">Marmot/MarmotElementProperty.h</text>
</a>
</g>
</g>
<!-- Node1&#45;&gt;Node4 -->
<g id="edge17" class="edge">
<title>Node1&#45;&gt;Node4</title>
<path fill="none" stroke="midnightblue" d="M711.92,-331.97C570.83,-329.1 281.95,-318.21 191,-277 118.55,-244.17 92.45,-227.06 61,-154 52.66,-134.63 61.96,-111.06 70.69,-95.35"/>
<polygon fill="midnightblue" stroke="midnightblue" points="73.74,-97.07 75.89,-86.69 67.74,-93.46 73.74,-97.07"/>
</g>
<!-- Node7 -->
<g id="node7" class="node">
<title>Node7</title>
<g id="a_node7"><a xlink:title=" ">
<polygon fill="white" stroke="#bfbfbf" points="659,-67.5 659,-86.5 703,-86.5 703,-67.5 659,-67.5"/>
<text text-anchor="middle" x="681" y="-74.5" font-family="Helvetica,sans-Serif" font-size="10.00">vector</text>
</a>
</g>
</g>
<!-- Node1&#45;&gt;Node7 -->
<g id="edge56" class="edge">
<title>Node1&#45;&gt;Node7</title>
<path fill="none" stroke="midnightblue" d="M781.69,-313.38C776.65,-302.67 770.38,-289.15 765,-277 735.68,-210.82 702.82,-131.3 688.42,-96.18"/>
<polygon fill="midnightblue" stroke="midnightblue" points="691.6,-94.71 684.58,-86.78 685.12,-97.36 691.6,-94.71"/>
</g>
<!-- Node10 -->
<g id="node10" class="node">
<title>Node10</title>
<g id="a_node10"><a xlink:title=" ">
<polygon fill="white" stroke="#bfbfbf" points="793,-67.5 793,-86.5 847,-86.5 847,-67.5 793,-67.5"/>
<text text-anchor="middle" x="820" y="-74.5" font-family="Helvetica,sans-Serif" font-size="10.00">iostream</text>
</a>
</g>
</g>
<!-- Node1&#45;&gt;Node10 -->
<g id="edge54" class="edge">
<title>Node1&#45;&gt;Node10</title>
<path fill="none" stroke="midnightblue" d="M782.17,-313.49C777.87,-302.93 773.17,-289.51 771,-277 768.65,-263.42 770.27,-259.76 771,-246 772.34,-221 771.13,-214.33 777,-190 785.27,-155.72 801.41,-117.8 811.39,-96.04"/>
<polygon fill="midnightblue" stroke="midnightblue" points="814.67,-97.29 815.73,-86.75 808.33,-94.33 814.67,-97.29"/>
</g>
<!-- Node12 -->
<g id="node12" class="node">
<title>Node12</title>
<g id="a_node12"><a xlink:href="MarmotConstants_8h.html" target="_top" xlink:title=" ">
<polygon fill="white" stroke="black" points="1340.5,-67.5 1340.5,-86.5 1477.5,-86.5 1477.5,-67.5 1340.5,-67.5"/>
<text text-anchor="middle" x="1409" y="-74.5" font-family="Helvetica,sans-Serif" font-size="10.00">Marmot/MarmotConstants.h</text>
</a>
</g>
</g>
<!-- Node1&#45;&gt;Node12 -->
<g id="edge14" class="edge">
<title>Node1&#45;&gt;Node12</title>
<path fill="none" stroke="midnightblue" d="M870.09,-332.77C994.03,-331.02 1226.91,-321.67 1295,-277 1361.34,-233.48 1393.47,-137.14 1404.46,-96.58"/>
<polygon fill="midnightblue" stroke="midnightblue" points="1407.9,-97.26 1407.01,-86.71 1401.12,-95.51 1407.9,-97.26"/>
</g>
<!-- Node14 -->
<g id="node14" class="node">
<title>Node14</title>
<g id="a_node14"><a xlink:href="MarmotFiniteElement_8h.html" target="_top" xlink:title=" ">
<polygon fill="white" stroke="black" points="800,-190.5 800,-209.5 952,-209.5 952,-190.5 800,-190.5"/>
<text text-anchor="middle" x="876" y="-197.5" font-family="Helvetica,sans-Serif" font-size="10.00">Marmot/MarmotFiniteElement.h</text>
</a>
</g>
</g>
<!-- Node1&#45;&gt;Node14 -->
<g id="edge18" class="edge">
<title>Node1&#45;&gt;Node14</title>
<path fill="none" stroke="midnightblue" d="M797.13,-313.2C803.39,-294.78 814.28,-267.08 829,-246 836.8,-234.82 847.69,-224.19 857.02,-216.06"/>
<polygon fill="midnightblue" stroke="midnightblue" points="859.29,-218.73 864.71,-209.62 854.79,-213.36 859.29,-218.73"/>
</g>
<!-- Node15 -->
<g id="node15" class="node">
<title>Node15</title>
<g id="a_node15"><a xlink:href="MarmotTypedefs_8h.html" target="_top" xlink:title=" ">
<polygon fill="white" stroke="black" points="1043.5,-67.5 1043.5,-86.5 1176.5,-86.5 1176.5,-67.5 1043.5,-67.5"/>
<text text-anchor="middle" x="1110" y="-74.5" font-family="Helvetica,sans-Serif" font-size="10.00">Marmot/MarmotTypedefs.h</text>
</a>
</g>
</g>
<!-- Node1&#45;&gt;Node15 -->
<g id="edge52" class="edge">
<title>Node1&#45;&gt;Node15</title>
<path fill="none" stroke="midnightblue" d="M870.2,-332.52C978.94,-330.24 1166.84,-319.98 1218,-277 1248.46,-251.41 1255.51,-226.19 1239,-190 1217.92,-143.78 1167.3,-109.27 1136.11,-91.49"/>
<polygon fill="midnightblue" stroke="midnightblue" points="1137.55,-88.29 1127.1,-86.52 1134.16,-94.42 1137.55,-88.29"/>
</g>
<!-- Node19 -->
<g id="node19" class="node">
<title>Node19</title>
<g id="a_node19"><a xlink:href="MarmotGeometryElement_8h.html" target="_top" xlink:title=" ">
<polygon fill="white" stroke="black" points="838,-252 838,-271 1008,-271 1008,-252 838,-252"/>
<text text-anchor="middle" x="923" y="-259" font-family="Helvetica,sans-Serif" font-size="10.00">Marmot/MarmotGeometryElement.h</text>
</a>
</g>
</g>
<!-- Node1&#45;&gt;Node19 -->
<g id="edge24" class="edge">
<title>Node1&#45;&gt;Node19</title>
<path fill="none" stroke="midnightblue" d="M827.77,-313.36C850.06,-301.46 877.92,-286.58 897.74,-275.99"/>
<polygon fill="midnightblue" stroke="midnightblue" points="899.59,-278.97 906.76,-271.17 896.29,-272.8 899.59,-278.97"/>
</g>
<!-- Node20 -->
<g id="node20" class="node">
<title>Node20</title>
<g id="a_node20"><a xlink:href="MarmotVoigt_8h.html" target="_top" xlink:title=" ">
<polygon fill="white" stroke="black" points="1114,-190.5 1114,-209.5 1230,-209.5 1230,-190.5 1114,-190.5"/>
<text text-anchor="middle" x="1172" y="-197.5" font-family="Helvetica,sans-Serif" font-size="10.00">Marmot/MarmotVoigt.h</text>
</a>
</g>
</g>
<!-- Node1&#45;&gt;Node20 -->
<g id="edge53" class="edge">
<title>Node1&#45;&gt;Node20</title>
<path fill="none" stroke="midnightblue" d="M870.45,-327.7C983.52,-319.35 1179.63,-301.49 1201,-277 1216.02,-259.78 1200.47,-233.97 1186.99,-217.31"/>
<polygon fill="midnightblue" stroke="midnightblue" points="1189.48,-214.83 1180.31,-209.52 1184.17,-219.39 1189.48,-214.83"/>
</g>
<!-- Node21 -->
<g id="node21" class="node">
<title>Node21</title>
<g id="a_node21"><a xlink:href="MarmotJournal_8h.html" target="_top" xlink:title=" ">
<polygon fill="white" stroke="black" points="838.5,-129 838.5,-148 963.5,-148 963.5,-129 838.5,-129"/>
<text text-anchor="middle" x="901" y="-136" font-family="Helvetica,sans-Serif" font-size="10.00">Marmot/MarmotJournal.h</text>
</a>
</g>
</g>
<!-- Node1&#45;&gt;Node21 -->
<g id="edge40" class="edge">
<title>Node1&#45;&gt;Node21</title>
<path fill="none" stroke="midnightblue" d="M784.75,-313.11C776.79,-283.65 766.74,-227.83 791,-190 803.44,-170.6 825.42,-158.55 846.48,-151.12"/>
<polygon fill="midnightblue" stroke="midnightblue" points="847.61,-154.43 856.05,-148.02 845.46,-147.77 847.61,-154.43"/>
</g>
<!-- Node23 -->
<g id="node23" class="node">
<title>Node23</title>
<g id="a_node23"><a xlink:href="MarmotMath_8h.html" target="_top" xlink:title=" ">
<polygon fill="white" stroke="black" points="1238.5,-129 1238.5,-148 1353.5,-148 1353.5,-129 1238.5,-129"/>
<text text-anchor="middle" x="1296" y="-136" font-family="Helvetica,sans-Serif" font-size="10.00">Marmot/MarmotMath.h</text>
</a>
</g>
</g>
<!-- Node1&#45;&gt;Node23 -->
<g id="edge46" class="edge">
<title>Node1&#45;&gt;Node23</title>
<path fill="none" stroke="midnightblue" d="M870.25,-328.9C999.29,-321.48 1243.39,-304.03 1272,-277 1304.65,-246.16 1302.6,-187.91 1298.99,-158.1"/>
<polygon fill="midnightblue" stroke="midnightblue" points="1302.45,-157.6 1297.59,-148.19 1295.52,-158.58 1302.45,-157.6"/>
</g>
<!-- Node27 -->
<g id="node27" class="node">
<title>Node27</title>
<g id="a_node27"><a xlink:href="MarmotLowerDimensionalStress_8h.html" target="_top" xlink:title=" ">
<polygon fill="white" stroke="black" points="1026,-246.5 1026,-276.5 1192,-276.5 1192,-246.5 1026,-246.5"/>
<text text-anchor="start" x="1034" y="-264.5" font-family="Helvetica,sans-Serif" font-size="10.00">Marmot/MarmotLowerDimensional</text>
<text text-anchor="middle" x="1109" y="-253.5" font-family="Helvetica,sans-Serif" font-size="10.00">Stress.h</text>
</a>
</g>
</g>
<!-- Node1&#45;&gt;Node27 -->
<g id="edge41" class="edge">
<title>Node1&#45;&gt;Node27</title>
<path fill="none" stroke="midnightblue" d="M870.02,-315.48C920.78,-304.23 986.26,-289.71 1035.83,-278.72"/>
<polygon fill="midnightblue" stroke="midnightblue" points="1036.84,-282.08 1045.84,-276.5 1035.32,-275.25 1036.84,-282.08"/>
</g>
<!-- Node28 -->
<g id="node28" class="node">
<title>Node28</title>
<g id="a_node28"><a xlink:href="MarmotMaterialHypoElastic_8h.html" target="_top" xlink:title=" ">
<polygon fill="white" stroke="black" points="238.5,-246.5 238.5,-276.5 381.5,-276.5 381.5,-246.5 238.5,-246.5"/>
<text text-anchor="start" x="246.5" y="-264.5" font-family="Helvetica,sans-Serif" font-size="10.00">Marmot/MarmotMaterialHypo</text>
<text text-anchor="middle" x="310" y="-253.5" font-family="Helvetica,sans-Serif" font-size="10.00">Elastic.h</text>
</a>
</g>
</g>
<!-- Node1&#45;&gt;Node28 -->
<g id="edge43" class="edge">
<title>Node1&#45;&gt;Node28</title>
<path fill="none" stroke="midnightblue" d="M711.84,-321.4C623.51,-308.45 481.28,-287.61 391.87,-274.5"/>
<polygon fill="midnightblue" stroke="midnightblue" points="392.17,-271.01 381.77,-273.02 391.16,-277.93 392.17,-271.01"/>
</g>
<!-- Node30 -->
<g id="node30" class="node">
<title>Node30</title>
<g id="a_node30"><a xlink:href="MarmotStateVarVectorManager_8h.html" target="_top" xlink:title=" ">
<polygon fill="white" stroke="black" points="478,-123.5 478,-153.5 630,-153.5 630,-123.5 478,-123.5"/>
<text text-anchor="start" x="486" y="-141.5" font-family="Helvetica,sans-Serif" font-size="10.00">Marmot/MarmotStateVarVector</text>
<text text-anchor="middle" x="554" y="-130.5" font-family="Helvetica,sans-Serif" font-size="10.00">Manager.h</text>
</a>
</g>
</g>
<!-- Node1&#45;&gt;Node30 -->
<g id="edge47" class="edge">
<title>Node1&#45;&gt;Node30</title>
<path fill="none" stroke="midnightblue" d="M744.37,-313.43C724.24,-303.9 701,-291.38 682,-277 636.56,-242.6 593.51,-191.1 570.76,-161.87"/>
<polygon fill="midnightblue" stroke="midnightblue" points="573.51,-159.69 564.64,-153.9 567.96,-163.96 573.51,-159.69"/>
</g>
<!-- Node31 -->
<g id="node31" class="node">
<title>Node31</title>
<g id="a_node31"><a xlink:title=" ">
<polygon fill="white" stroke="#bfbfbf" points="1410.5,-252 1410.5,-271 1461.5,-271 1461.5,-252 1410.5,-252"/>
<text text-anchor="middle" x="1436" y="-259" font-family="Helvetica,sans-Serif" font-size="10.00">memory</text>
</a>
</g>
</g>
<!-- Node1&#45;&gt;Node31 -->
<g id="edge55" class="edge">
<title>Node1&#45;&gt;Node31</title>
<path fill="none" stroke="midnightblue" d="M870.31,-332.08C986.88,-329.29 1210.71,-318.44 1396,-277 1399.24,-276.27 1402.58,-275.36 1405.88,-274.33"/>
<polygon fill="midnightblue" stroke="midnightblue" points="1407.2,-277.59 1415.54,-271.05 1404.94,-270.96 1407.2,-277.59"/>
</g>
<!-- Node2&#45;&gt;Node3 -->
<g id="edge2" class="edge">
<title>Node2&#45;&gt;Node3</title>
<path fill="none" stroke="midnightblue" d="M390.16,-190.48C336.54,-179.8 244.72,-161.53 186.81,-150.01"/>
<polygon fill="midnightblue" stroke="midnightblue" points="187.25,-146.53 176.76,-148.01 185.88,-153.39 187.25,-146.53"/>
</g>
<!-- Node6 -->
<g id="node6" class="node">
<title>Node6</title>
<g id="a_node6"><a xlink:title=" ">
<polygon fill="white" stroke="#bfbfbf" points="353.5,-67.5 353.5,-86.5 394.5,-86.5 394.5,-67.5 353.5,-67.5"/>
<text text-anchor="middle" x="374" y="-74.5" font-family="Helvetica,sans-Serif" font-size="10.00">string</text>
</a>
</g>
</g>
<!-- Node2&#45;&gt;Node6 -->
<g id="edge12" class="edge">
<title>Node2&#45;&gt;Node6</title>
<path fill="none" stroke="midnightblue" d="M422.64,-190.44C413.24,-182.1 399.7,-168.58 392,-154 382.53,-136.05 377.98,-113.11 375.83,-97.15"/>
<polygon fill="midnightblue" stroke="midnightblue" points="379.28,-96.47 374.66,-86.94 372.32,-97.27 379.28,-96.47"/>
</g>
<!-- Node8 -->
<g id="node8" class="node">
<title>Node8</title>
<g id="a_node8"><a xlink:href="MarmotMaterial_8h.html" target="_top" xlink:title=" ">
<polygon fill="white" stroke="black" points="216,-129 216,-148 344,-148 344,-129 216,-129"/>
<text text-anchor="middle" x="280" y="-136" font-family="Helvetica,sans-Serif" font-size="10.00">Marmot/MarmotMaterial.h</text>
</a>
</g>
</g>
<!-- Node2&#45;&gt;Node8 -->
<g id="edge7" class="edge">
<title>Node2&#45;&gt;Node8</title>
<path fill="none" stroke="midnightblue" d="M411.08,-190.48C384.95,-180.31 341.09,-163.26 311.37,-151.7"/>
<polygon fill="midnightblue" stroke="midnightblue" points="312.47,-148.37 301.88,-148.01 309.93,-154.9 312.47,-148.37"/>
</g>
<!-- Node9 -->
<g id="node9" class="node">
<title>Node9</title>
<g id="a_node9"><a xlink:title=" ">
<polygon fill="white" stroke="#bfbfbf" points="400.5,-129 400.5,-148 459.5,-148 459.5,-129 400.5,-129"/>
<text text-anchor="middle" x="430" y="-136" font-family="Helvetica,sans-Serif" font-size="10.00">functional</text>
</a>
</g>
</g>
<!-- Node2&#45;&gt;Node9 -->
<g id="edge10" class="edge">
<title>Node2&#45;&gt;Node9</title>
<path fill="none" stroke="midnightblue" d="M432.57,-190.48C432.15,-182.08 431.49,-168.98 430.94,-158.16"/>
<polygon fill="midnightblue" stroke="midnightblue" points="434.43,-157.82 430.43,-148.01 427.44,-158.17 434.43,-157.82"/>
</g>
<!-- Node2&#45;&gt;Node10 -->
<g id="edge11" class="edge">
<title>Node2&#45;&gt;Node10</title>
<path fill="none" stroke="midnightblue" d="M479.73,-192.75C525.22,-185.92 595.94,-173.3 655,-154 706.89,-137.04 764.04,-108.27 795.62,-91.42"/>
<polygon fill="midnightblue" stroke="midnightblue" points="797.42,-94.42 804.56,-86.59 794.1,-88.26 797.42,-94.42"/>
</g>
<!-- Node11 -->
<g id="node11" class="node">
<title>Node11</title>
<g id="a_node11"><a xlink:title=" ">
<polygon fill="white" stroke="#bfbfbf" points="542.5,-67.5 542.5,-86.5 625.5,-86.5 625.5,-67.5 542.5,-67.5"/>
<text text-anchor="middle" x="584" y="-74.5" font-family="Helvetica,sans-Serif" font-size="10.00">unordered_map</text>
</a>
</g>
</g>
<!-- Node2&#45;&gt;Node11 -->
<g id="edge13" class="edge">
<title>Node2&#45;&gt;Node11</title>
<path fill="none" stroke="midnightblue" d="M479.56,-195.47C534.05,-190.27 619.37,-178.38 639,-154 647.64,-143.27 644.9,-135.45 639,-123 632.87,-110.07 621.01,-99.62 609.86,-92.05"/>
<polygon fill="midnightblue" stroke="midnightblue" points="611.53,-88.97 601.2,-86.61 607.81,-94.9 611.53,-88.97"/>
</g>
<!-- Node3&#45;&gt;Node4 -->
<g id="edge3" class="edge">
<title>Node3&#45;&gt;Node4</title>
<path fill="none" stroke="midnightblue" d="M126.55,-128.98C118.67,-119.96 106.06,-105.52 96.26,-94.31"/>
<polygon fill="midnightblue" stroke="midnightblue" points="98.65,-91.74 89.44,-86.51 93.38,-96.34 98.65,-91.74"/>
</g>
<!-- Node5 -->
<g id="node5" class="node">
<title>Node5</title>
<g id="a_node5"><a xlink:href="MarmotUtils_8h.html" target="_top" xlink:title=" ">
<polygon fill="white" stroke="black" points="222.5,-67.5 222.5,-86.5 335.5,-86.5 335.5,-67.5 222.5,-67.5"/>
<text text-anchor="middle" x="279" y="-74.5" font-family="Helvetica,sans-Serif" font-size="10.00">Marmot/MarmotUtils.h</text>
</a>
</g>
</g>
<!-- Node3&#45;&gt;Node5 -->
<g id="edge4" class="edge">
<title>Node3&#45;&gt;Node5</title>
<path fill="none" stroke="midnightblue" d="M154.77,-128.98C179.43,-118.86 220.75,-101.9 248.9,-90.35"/>
<polygon fill="midnightblue" stroke="midnightblue" points="250.34,-93.54 258.26,-86.51 247.68,-87.07 250.34,-93.54"/>
</g>
<!-- Node3&#45;&gt;Node6 -->
<g id="edge5" class="edge">
<title>Node3&#45;&gt;Node6</title>
<path fill="none" stroke="midnightblue" d="M173.09,-128.96C213.51,-119.94 278.68,-104.91 343.48,-87.29"/>
<polygon fill="midnightblue" stroke="midnightblue" points="344.73,-90.58 353.45,-84.56 342.88,-83.83 344.73,-90.58"/>
</g>
<!-- Node3&#45;&gt;Node7 -->
<g id="edge6" class="edge">
<title>Node3&#45;&gt;Node7</title>
<path fill="none" stroke="midnightblue" d="M172.88,-128.94C183.87,-126.75 195.87,-124.57 207,-123 396.03,-96.36 445.94,-113.37 635,-87 639.47,-86.38 644.17,-85.6 648.78,-84.77"/>
<polygon fill="midnightblue" stroke="midnightblue" points="649.46,-88.2 658.62,-82.89 648.14,-81.33 649.46,-88.2"/>
</g>
<!-- Node8&#45;&gt;Node5 -->
<g id="edge8" class="edge">
<title>Node8&#45;&gt;Node5</title>
<path fill="none" stroke="midnightblue" d="M279.86,-128.98C279.72,-120.58 279.5,-107.48 279.31,-96.66"/>
<polygon fill="midnightblue" stroke="midnightblue" points="282.81,-96.45 279.14,-86.51 275.81,-96.57 282.81,-96.45"/>
</g>
<!-- Node8&#45;&gt;Node6 -->
<g id="edge9" class="edge">
<title>Node8&#45;&gt;Node6</title>
<path fill="none" stroke="midnightblue" d="M293.47,-128.98C308.68,-119.34 333.69,-103.52 351.8,-92.05"/>
<polygon fill="midnightblue" stroke="midnightblue" points="353.98,-94.81 360.56,-86.51 350.24,-88.9 353.98,-94.81"/>
</g>
<!-- Node13 -->
<g id="node13" class="node">
<title>Node13</title>
<g id="a_node13"><a xlink:title=" ">
<polygon fill="white" stroke="#bfbfbf" points="1387,-6 1387,-25 1431,-25 1431,-6 1387,-6"/>
<text text-anchor="middle" x="1409" y="-13" font-family="Helvetica,sans-Serif" font-size="10.00">cmath</text>
</a>
</g>
</g>
<!-- Node12&#45;&gt;Node13 -->
<g id="edge15" class="edge">
<title>Node12&#45;&gt;Node13</title>
<path fill="none" stroke="midnightblue" d="M1409,-67.48C1409,-59.08 1409,-45.98 1409,-35.16"/>
<polygon fill="midnightblue" stroke="midnightblue" points="1412.5,-35.01 1409,-25.01 1405.5,-35.01 1412.5,-35.01"/>
</g>
<!-- Node14&#45;&gt;Node7 -->
<g id="edge23" class="edge">
<title>Node14&#45;&gt;Node7</title>
<path fill="none" stroke="midnightblue" d="M862.29,-190.49C829.15,-169.93 744.46,-117.38 703.65,-92.05"/>
<polygon fill="midnightblue" stroke="midnightblue" points="705.3,-88.96 694.96,-86.66 701.61,-94.91 705.3,-88.96"/>
</g>
<!-- Node14&#45;&gt;Node15 -->
<g id="edge19" class="edge">
<title>Node14&#45;&gt;Node15</title>
<path fill="none" stroke="midnightblue" d="M895.52,-190.44C915.25,-181.68 946.52,-167.46 973,-154 1013.56,-133.38 1059.61,-107.26 1086.65,-91.63"/>
<polygon fill="midnightblue" stroke="midnightblue" points="1088.49,-94.61 1095.39,-86.56 1084.98,-88.55 1088.49,-94.61"/>
</g>
<!-- Node16 -->
<g id="node16" class="node">
<title>Node16</title>
<g id="a_node16"><a xlink:title=" ">
<polygon fill="white" stroke="#bfbfbf" points="992,-6 992,-25 1056,-25 1056,-6 992,-6"/>
<text text-anchor="middle" x="1024" y="-13" font-family="Helvetica,sans-Serif" font-size="10.00">Eigen/Core</text>
</a>
</g>
</g>
<!-- Node15&#45;&gt;Node16 -->
<g id="edge20" class="edge">
<title>Node15&#45;&gt;Node16</title>
<path fill="none" stroke="midnightblue" d="M1097.68,-67.48C1083.88,-57.93 1061.3,-42.31 1044.77,-30.87"/>
<polygon fill="midnightblue" stroke="midnightblue" points="1046.51,-27.82 1036.3,-25.01 1042.53,-33.58 1046.51,-27.82"/>
</g>
<!-- Node17 -->
<g id="node17" class="node">
<title>Node17</title>
<g id="a_node17"><a xlink:title=" ">
<polygon fill="white" stroke="#bfbfbf" points="1074.5,-6 1074.5,-25 1145.5,-25 1145.5,-6 1074.5,-6"/>
<text text-anchor="middle" x="1110" y="-13" font-family="Helvetica,sans-Serif" font-size="10.00">Eigen/Dense</text>
</a>
</g>
</g>
<!-- Node15&#45;&gt;Node17 -->
<g id="edge21" class="edge">
<title>Node15&#45;&gt;Node17</title>
<path fill="none" stroke="midnightblue" d="M1110,-67.48C1110,-59.08 1110,-45.98 1110,-35.16"/>
<polygon fill="midnightblue" stroke="midnightblue" points="1113.5,-35.01 1110,-25.01 1106.5,-35.01 1113.5,-35.01"/>
</g>
<!-- Node18 -->
<g id="node18" class="node">
<title>Node18</title>
<g id="a_node18"><a xlink:title=" ">
<polygon fill="white" stroke="#bfbfbf" points="1163.5,-0.5 1163.5,-30.5 1294.5,-30.5 1294.5,-0.5 1163.5,-0.5"/>
<text text-anchor="start" x="1171.5" y="-18.5" font-family="Helvetica,sans-Serif" font-size="10.00">unsupported/Eigen/CXX11</text>
<text text-anchor="middle" x="1229" y="-7.5" font-family="Helvetica,sans-Serif" font-size="10.00">/Tensor</text>
</a>
</g>
</g>
<!-- Node15&#45;&gt;Node18 -->
<g id="edge22" class="edge">
<title>Node15&#45;&gt;Node18</title>
<path fill="none" stroke="midnightblue" d="M1127.05,-67.48C1143.92,-59.04 1170.29,-45.86 1191.98,-35.01"/>
<polygon fill="midnightblue" stroke="midnightblue" points="1193.58,-38.13 1200.95,-30.52 1190.44,-31.86 1193.58,-38.13"/>
</g>
<!-- Node19&#45;&gt;Node10 -->
<g id="edge38" class="edge">
<title>Node19&#45;&gt;Node10</title>
<path fill="none" stroke="midnightblue" d="M955.46,-252C976.46,-244.62 1002.19,-231.64 1015,-210 1019.53,-202.35 1017.46,-198.54 1015,-190 1005.29,-156.22 1001.01,-144.23 973,-123 954.77,-109.18 896.33,-94.46 857.19,-85.75"/>
<polygon fill="midnightblue" stroke="midnightblue" points="857.71,-82.28 847.2,-83.56 856.22,-89.12 857.71,-82.28"/>
</g>
<!-- Node19&#45;&gt;Node14 -->
<g id="edge25" class="edge">
<title>Node19&#45;&gt;Node14</title>
<path fill="none" stroke="midnightblue" d="M916.27,-251.98C909.22,-243.05 897.97,-228.81 889.15,-217.64"/>
<polygon fill="midnightblue" stroke="midnightblue" points="891.67,-215.19 882.72,-209.51 886.17,-219.53 891.67,-215.19"/>
</g>
<!-- Node19&#45;&gt;Node15 -->
<g id="edge26" class="edge">
<title>Node19&#45;&gt;Node15</title>
<path fill="none" stroke="midnightblue" d="M952,-251.99C975.18,-244.05 1007.42,-230.35 1030,-210 1066.38,-177.22 1091.58,-123.98 1103.03,-96.19"/>
<polygon fill="midnightblue" stroke="midnightblue" points="1106.41,-97.16 1106.86,-86.58 1099.91,-94.57 1106.41,-97.16"/>
</g>
<!-- Node19&#45;&gt;Node20 -->
<g id="edge27" class="edge">
<title>Node19&#45;&gt;Node20</title>
<path fill="none" stroke="midnightblue" d="M958.68,-251.98C1002.87,-241.42 1078.21,-223.41 1126.51,-211.87"/>
<polygon fill="midnightblue" stroke="midnightblue" points="1127.48,-215.24 1136.39,-209.51 1125.85,-208.43 1127.48,-215.24"/>
</g>
<!-- Node26 -->
<g id="node26" class="node">
<title>Node26</title>
<g id="a_node26"><a xlink:title=" ">
<polygon fill="white" stroke="#bfbfbf" points="970.5,-190.5 970.5,-209.5 1005.5,-209.5 1005.5,-190.5 970.5,-190.5"/>
<text text-anchor="middle" x="988" y="-197.5" font-family="Helvetica,sans-Serif" font-size="10.00">map</text>
</a>
</g>
</g>
<!-- Node19&#45;&gt;Node26 -->
<g id="edge39" class="edge">
<title>Node19&#45;&gt;Node26</title>
<path fill="none" stroke="midnightblue" d="M932.31,-251.98C942.45,-242.7 958.86,-227.67 971.25,-216.33"/>
<polygon fill="midnightblue" stroke="midnightblue" points="973.69,-218.84 978.7,-209.51 968.96,-213.68 973.69,-218.84"/>
</g>
<!-- Node20&#45;&gt;Node15 -->
<g id="edge37" class="edge">
<title>Node20&#45;&gt;Node15</title>
<path fill="none" stroke="midnightblue" d="M1167.54,-190.3C1157.44,-170.59 1132.65,-122.21 1119.14,-95.84"/>
<polygon fill="midnightblue" stroke="midnightblue" points="1122.09,-93.93 1114.42,-86.62 1115.86,-97.12 1122.09,-93.93"/>
</g>
<!-- Node20&#45;&gt;Node21 -->
<g id="edge28" class="edge">
<title>Node20&#45;&gt;Node21</title>
<path fill="none" stroke="midnightblue" d="M1133.17,-190.48C1084.88,-179.87 1002.39,-161.76 949.85,-150.22"/>
<polygon fill="midnightblue" stroke="midnightblue" points="950.27,-146.74 939.76,-148.01 948.77,-153.57 950.27,-146.74"/>
</g>
<!-- Node20&#45;&gt;Node23 -->
<g id="edge32" class="edge">
<title>Node20&#45;&gt;Node23</title>
<path fill="none" stroke="midnightblue" d="M1189.77,-190.48C1210.48,-180.53 1244.95,-163.99 1268.99,-152.46"/>
<polygon fill="midnightblue" stroke="midnightblue" points="1270.77,-155.49 1278.27,-148.01 1267.74,-149.18 1270.77,-155.49"/>
</g>
<!-- Node21&#45;&gt;Node6 -->
<g id="edge31" class="edge">
<title>Node21&#45;&gt;Node6</title>
<path fill="none" stroke="midnightblue" d="M838.48,-130.44C724.98,-117.63 489.03,-90.99 404.75,-81.47"/>
<polygon fill="midnightblue" stroke="midnightblue" points="404.89,-77.97 394.56,-80.32 404.11,-84.92 404.89,-77.97"/>
</g>
<!-- Node21&#45;&gt;Node10 -->
<g id="edge29" class="edge">
<title>Node21&#45;&gt;Node10</title>
<path fill="none" stroke="midnightblue" d="M889.39,-128.98C876.52,-119.52 855.53,-104.1 839.99,-92.69"/>
<polygon fill="midnightblue" stroke="midnightblue" points="841.72,-89.61 831.58,-86.51 837.57,-95.25 841.72,-89.61"/>
</g>
<!-- Node22 -->
<g id="node22" class="node">
<title>Node22</title>
<g id="a_node22"><a xlink:title=" ">
<polygon fill="white" stroke="#bfbfbf" points="875,-67.5 875,-86.5 927,-86.5 927,-67.5 875,-67.5"/>
<text text-anchor="middle" x="901" y="-74.5" font-family="Helvetica,sans-Serif" font-size="10.00">sstream</text>
</a>
</g>
</g>
<!-- Node21&#45;&gt;Node22 -->
<g id="edge30" class="edge">
<title>Node21&#45;&gt;Node22</title>
<path fill="none" stroke="midnightblue" d="M901,-128.98C901,-120.58 901,-107.48 901,-96.66"/>
<polygon fill="midnightblue" stroke="midnightblue" points="904.5,-96.51 901,-86.51 897.5,-96.51 904.5,-96.51"/>
</g>
<!-- Node23&#45;&gt;Node12 -->
<g id="edge33" class="edge">
<title>Node23&#45;&gt;Node12</title>
<path fill="none" stroke="midnightblue" d="M1312.19,-128.98C1330.9,-119.12 1361.92,-102.79 1383.8,-91.27"/>
<polygon fill="midnightblue" stroke="midnightblue" points="1385.62,-94.27 1392.84,-86.51 1382.36,-88.07 1385.62,-94.27"/>
</g>
<!-- Node23&#45;&gt;Node15 -->
<g id="edge34" class="edge">
<title>Node23&#45;&gt;Node15</title>
<path fill="none" stroke="midnightblue" d="M1269.35,-128.98C1237.03,-118.64 1182.4,-101.16 1146.27,-89.6"/>
<polygon fill="midnightblue" stroke="midnightblue" points="1147.19,-86.22 1136.6,-86.51 1145.06,-92.89 1147.19,-86.22"/>
</g>
<!-- Node24 -->
<g id="node24" class="node">
<title>Node24</title>
<g id="a_node24"><a xlink:title=" ">
<polygon fill="white" stroke="#bfbfbf" points="1195,-67.5 1195,-86.5 1251,-86.5 1251,-67.5 1195,-67.5"/>
<text text-anchor="middle" x="1223" y="-74.5" font-family="Helvetica,sans-Serif" font-size="10.00">algorithm</text>
</a>
</g>
</g>
<!-- Node23&#45;&gt;Node24 -->
<g id="edge35" class="edge">
<title>Node23&#45;&gt;Node24</title>
<path fill="none" stroke="midnightblue" d="M1285.54,-128.98C1274.05,-119.61 1255.37,-104.38 1241.41,-93.01"/>
<polygon fill="midnightblue" stroke="midnightblue" points="1243.4,-90.11 1233.44,-86.51 1238.98,-95.54 1243.4,-90.11"/>
</g>
<!-- Node25 -->
<g id="node25" class="node">
<title>Node25</title>
<g id="a_node25"><a xlink:title=" ">
<polygon fill="white" stroke="#bfbfbf" points="1269.5,-67.5 1269.5,-86.5 1322.5,-86.5 1322.5,-67.5 1269.5,-67.5"/>
<text text-anchor="middle" x="1296" y="-74.5" font-family="Helvetica,sans-Serif" font-size="10.00">complex</text>
</a>
</g>
</g>
<!-- Node23&#45;&gt;Node25 -->
<g id="edge36" class="edge">
<title>Node23&#45;&gt;Node25</title>
<path fill="none" stroke="midnightblue" d="M1296,-128.98C1296,-120.58 1296,-107.48 1296,-96.66"/>
<polygon fill="midnightblue" stroke="midnightblue" points="1299.5,-96.51 1296,-86.51 1292.5,-96.51 1299.5,-96.51"/>
</g>
<!-- Node27&#45;&gt;Node20 -->
<g id="edge42" class="edge">
<title>Node27&#45;&gt;Node20</title>
<path fill="none" stroke="midnightblue" d="M1123.93,-246.4C1133.37,-237.49 1145.58,-225.95 1155.33,-216.74"/>
<polygon fill="midnightblue" stroke="midnightblue" points="1157.97,-219.07 1162.83,-209.66 1153.16,-213.98 1157.97,-219.07"/>
</g>
<!-- Node29 -->
<g id="node29" class="node">
<title>Node29</title>
<g id="a_node29"><a xlink:href="MarmotMaterialMechanical_8h.html" target="_top" xlink:title=" ">
<polygon fill="white" stroke="black" points="191.5,-190.5 191.5,-209.5 368.5,-209.5 368.5,-190.5 191.5,-190.5"/>
<text text-anchor="middle" x="280" y="-197.5" font-family="Helvetica,sans-Serif" font-size="10.00">Marmot/MarmotMaterialMechanical.h</text>
</a>
</g>
</g>
<!-- Node28&#45;&gt;Node29 -->
<g id="edge44" class="edge">
<title>Node28&#45;&gt;Node29</title>
<path fill="none" stroke="midnightblue" d="M302.89,-246.4C298.71,-238.11 293.39,-227.55 288.93,-218.71"/>
<polygon fill="midnightblue" stroke="midnightblue" points="291.99,-217.01 284.37,-209.66 285.74,-220.16 291.99,-217.01"/>
</g>
<!-- Node29&#45;&gt;Node8 -->
<g id="edge45" class="edge">
<title>Node29&#45;&gt;Node8</title>
<path fill="none" stroke="midnightblue" d="M280,-190.48C280,-182.08 280,-168.98 280,-158.16"/>
<polygon fill="midnightblue" stroke="midnightblue" points="283.5,-158.01 280,-148.01 276.5,-158.01 283.5,-158.01"/>
</g>
<!-- Node30&#45;&gt;Node5 -->
<g id="edge48" class="edge">
<title>Node30&#45;&gt;Node5</title>
<path fill="none" stroke="midnightblue" d="M489.18,-123.47C439.87,-112.81 373.06,-98.35 328.12,-88.63"/>
<polygon fill="midnightblue" stroke="midnightblue" points="328.83,-85.2 318.32,-86.51 327.35,-92.04 328.83,-85.2"/>
</g>
<!-- Node30&#45;&gt;Node6 -->
<g id="edge49" class="edge">
<title>Node30&#45;&gt;Node6</title>
<path fill="none" stroke="midnightblue" d="M511.34,-123.4C478.42,-112.52 433.69,-97.73 404.34,-88.03"/>
<polygon fill="midnightblue" stroke="midnightblue" points="405.24,-84.64 394.65,-84.83 403.05,-91.29 405.24,-84.64"/>
</g>
<!-- Node30&#45;&gt;Node7 -->
<g id="edge51" class="edge">
<title>Node30&#45;&gt;Node7</title>
<path fill="none" stroke="midnightblue" d="M584.1,-123.4C605.12,-113.55 632.97,-100.5 653.42,-90.92"/>
<polygon fill="midnightblue" stroke="midnightblue" points="654.95,-94.07 662.52,-86.66 651.98,-87.73 654.95,-94.07"/>
</g>
<!-- Node30&#45;&gt;Node11 -->
<g id="edge50" class="edge">
<title>Node30&#45;&gt;Node11</title>
<path fill="none" stroke="midnightblue" d="M561.11,-123.4C565.29,-115.11 570.61,-104.55 575.07,-95.71"/>
<polygon fill="midnightblue" stroke="midnightblue" points="578.26,-97.16 579.63,-86.66 572.01,-94.01 578.26,-97.16"/>
</g>
</g>
</svg>
