<?xml version="1.0" encoding="UTF-8" standalone="no"?>
<!DOCTYPE svg PUBLIC "-//W3C//DTD SVG 1.1//EN"
 "http://www.w3.org/Graphics/SVG/1.1/DTD/svg11.dtd">
<!-- Generated by graphviz version 2.44.0 ()
 -->
<!-- Title: modules/materials/FiniteStrainJ2Plasticity/src/FiniteStrainJ2PlasticityRegistration.cpp Pages: 1 -->
<svg width="1662pt" height="564pt"
 viewBox="0.00 0.00 1661.93 564.00" xmlns="http://www.w3.org/2000/svg" xmlns:xlink="http://www.w3.org/1999/xlink">
<g id="graph0" class="graph" transform="scale(1 1) rotate(0) translate(4 560)">
<title>modules/materials/FiniteStrainJ2Plasticity/src/FiniteStrainJ2PlasticityRegistration.cpp</title>
<polygon fill="white" stroke="transparent" points="-4,4 -4,-560 1657.93,-560 1657.93,4 -4,4"/>
<!-- Node1 -->
<g id="node1" class="node">
<title>Node1</title>
<g id="a_node1"><a xlink:title=" ">
<polygon fill="#bfbfbf" stroke="black" points="642.5,-514.5 642.5,-555.5 831.5,-555.5 831.5,-514.5 642.5,-514.5"/>
<text text-anchor="start" x="650.5" y="-543.5" font-family="Helvetica,sans-Serif" font-size="10.00">modules/materials/Finite</text>
<text text-anchor="start" x="650.5" y="-532.5" font-family="Helvetica,sans-Serif" font-size="10.00">StrainJ2Plasticity/src</text>
<text text-anchor="middle" x="737" y="-521.5" font-family="Helvetica,sans-Serif" font-size="10.00">/FiniteStrainJ2PlasticityRegistration.cpp</text>
</a>
</g>
</g>
<!-- Node2 -->
<g id="node2" class="node">
<title>Node2</title>
<g id="a_node2"><a xlink:href="FiniteStrainJ2Plasticity_8h.html" target="_top" xlink:title=" ">
<polygon fill="white" stroke="black" points="565,-453 565,-472 725,-472 725,-453 565,-453"/>
<text text-anchor="middle" x="645" y="-460" font-family="Helvetica,sans-Serif" font-size="10.00">Marmot/FiniteStrainJ2Plasticity.h</text>
</a>
</g>
</g>
<!-- Node1&#45;&gt;Node2 -->
<g id="edge1" class="edge">
<title>Node1&#45;&gt;Node2</title>
<path fill="none" stroke="midnightblue" d="M711.37,-514.36C696.54,-503 678.18,-488.92 664.52,-478.46"/>
<polygon fill="midnightblue" stroke="midnightblue" points="666.38,-475.48 656.32,-472.17 662.13,-481.03 666.38,-475.48"/>
</g>
<!-- Node36 -->
<g id="node36" class="node">
<title>Node36</title>
<g id="a_node36"><a xlink:href="MarmotMaterialRegistrationHelper_8h.html" target="_top" xlink:title=" ">
<polygon fill="white" stroke="black" points="880,-447.5 880,-477.5 1052,-477.5 1052,-447.5 880,-447.5"/>
<text text-anchor="start" x="888" y="-465.5" font-family="Helvetica,sans-Serif" font-size="10.00">Marmot/MarmotMaterialRegistration</text>
<text text-anchor="middle" x="966" y="-454.5" font-family="Helvetica,sans-Serif" font-size="10.00">Helper.h</text>
</a>
</g>
</g>
<!-- Node1&#45;&gt;Node36 -->
<g id="edge54" class="edge">
<title>Node1&#45;&gt;Node36</title>
<path fill="none" stroke="midnightblue" d="M800.49,-514.46C834.91,-503.86 877.07,-490.88 910.23,-480.67"/>
<polygon fill="midnightblue" stroke="midnightblue" points="911.68,-483.88 920.21,-477.6 909.62,-477.19 911.68,-483.88"/>
</g>
<!-- Node3 -->
<g id="node3" class="node">
<title>Node3</title>
<g id="a_node3"><a xlink:href="MarmotDeformationMeasures_8h.html" target="_top" xlink:title=" ">
<polygon fill="white" stroke="black" points="208,-380.5 208,-410.5 346,-410.5 346,-380.5 208,-380.5"/>
<text text-anchor="start" x="216" y="-398.5" font-family="Helvetica,sans-Serif" font-size="10.00">Marmot/MarmotDeformation</text>
<text text-anchor="middle" x="277" y="-387.5" font-family="Helvetica,sans-Serif" font-size="10.00">Measures.h</text>
</a>
</g>
</g>
<!-- Node2&#45;&gt;Node3 -->
<g id="edge2" class="edge">
<title>Node2&#45;&gt;Node3</title>
<path fill="none" stroke="midnightblue" d="M594.93,-452.96C539.2,-443.41 446.15,-427.36 356.39,-411.24"/>
<polygon fill="midnightblue" stroke="midnightblue" points="356.78,-407.75 346.32,-409.43 355.54,-414.64 356.78,-407.75"/>
</g>
<!-- Node4 -->
<g id="node4" class="node">
<title>Node4</title>
<g id="a_node4"><a xlink:href="MarmotFastorTensorBasics_8h.html" target="_top" xlink:title=" ">
<polygon fill="white" stroke="black" points="230.5,-313.5 230.5,-343.5 373.5,-343.5 373.5,-313.5 230.5,-313.5"/>
<text text-anchor="start" x="238.5" y="-331.5" font-family="Helvetica,sans-Serif" font-size="10.00">Marmot/MarmotFastorTensor</text>
<text text-anchor="middle" x="302" y="-320.5" font-family="Helvetica,sans-Serif" font-size="10.00">Basics.h</text>
</a>
</g>
</g>
<!-- Node2&#45;&gt;Node4 -->
<g id="edge32" class="edge">
<title>Node2&#45;&gt;Node4</title>
<path fill="none" stroke="midnightblue" d="M564.67,-458.11C442.84,-452.13 222.88,-437.73 199,-411 176.55,-385.87 214.35,-362.59 250.32,-347.4"/>
<polygon fill="midnightblue" stroke="midnightblue" points="251.92,-350.53 259.87,-343.53 249.29,-344.04 251.92,-350.53"/>
</g>
<!-- Node11 -->
<g id="node11" class="node">
<title>Node11</title>
<g id="a_node11"><a xlink:title=" ">
<polygon fill="white" stroke="#bfbfbf" points="1181.5,-73 1181.5,-92 1222.5,-92 1222.5,-73 1181.5,-73"/>
<text text-anchor="middle" x="1202" y="-80" font-family="Helvetica,sans-Serif" font-size="10.00">string</text>
</a>
</g>
</g>
<!-- Node2&#45;&gt;Node11 -->
<g id="edge53" class="edge">
<title>Node2&#45;&gt;Node11</title>
<path fill="none" stroke="midnightblue" d="M715.06,-452.94C785.9,-439.92 885,-407.72 885,-329.5 885,-329.5 885,-329.5 885,-204.5 885,-166.34 901.97,-154.75 934,-134 972.89,-108.81 1109,-92.61 1170.91,-86.39"/>
<polygon fill="midnightblue" stroke="midnightblue" points="1171.62,-89.84 1181.23,-85.38 1170.93,-82.87 1171.62,-89.84"/>
</g>
<!-- Node12 -->
<g id="node12" class="node">
<title>Node12</title>
<g id="a_node12"><a xlink:href="MarmotTypedefs_8h.html" target="_top" xlink:title=" ">
<polygon fill="white" stroke="black" points="56.5,-73 56.5,-92 189.5,-92 189.5,-73 56.5,-73"/>
<text text-anchor="middle" x="123" y="-80" font-family="Helvetica,sans-Serif" font-size="10.00">Marmot/MarmotTypedefs.h</text>
</a>
</g>
</g>
<!-- Node2&#45;&gt;Node12 -->
<g id="edge52" class="edge">
<title>Node2&#45;&gt;Node12</title>
<path fill="none" stroke="midnightblue" d="M564.63,-461.17C450.62,-459.28 249.09,-450.28 189,-411 154,-388.12 142,-371.31 142,-329.5 142,-329.5 142,-329.5 142,-204.5 142,-167.79 133.36,-125.56 127.73,-101.95"/>
<polygon fill="midnightblue" stroke="midnightblue" points="131.13,-101.1 125.33,-92.23 124.33,-102.78 131.13,-101.1"/>
</g>
<!-- Node16 -->
<g id="node16" class="node">
<title>Node16</title>
<g id="a_node16"><a xlink:href="MarmotMath_8h.html" target="_top" xlink:title=" ">
<polygon fill="white" stroke="black" points="441.5,-134.5 441.5,-153.5 556.5,-153.5 556.5,-134.5 441.5,-134.5"/>
<text text-anchor="middle" x="499" y="-141.5" font-family="Helvetica,sans-Serif" font-size="10.00">Marmot/MarmotMath.h</text>
</a>
</g>
</g>
<!-- Node2&#45;&gt;Node16 -->
<g id="edge45" class="edge">
<title>Node2&#45;&gt;Node16</title>
<path fill="none" stroke="midnightblue" d="M651.89,-452.83C659.03,-443.24 669.73,-427.02 674,-411 685.58,-367.57 672.23,-351.49 649,-313 610.96,-249.96 547.73,-188.77 516.94,-160.81"/>
<polygon fill="midnightblue" stroke="midnightblue" points="518.95,-157.91 509.17,-153.83 514.27,-163.12 518.95,-157.91"/>
</g>
<!-- Node25 -->
<g id="node25" class="node">
<title>Node25</title>
<g id="a_node25"><a xlink:href="MarmotEnergyDensityFunctions_8h.html" target="_top" xlink:title=" ">
<polygon fill="white" stroke="black" points="364.5,-380.5 364.5,-410.5 511.5,-410.5 511.5,-380.5 364.5,-380.5"/>
<text text-anchor="start" x="372.5" y="-398.5" font-family="Helvetica,sans-Serif" font-size="10.00">Marmot/MarmotEnergyDensity</text>
<text text-anchor="middle" x="438" y="-387.5" font-family="Helvetica,sans-Serif" font-size="10.00">Functions.h</text>
</a>
</g>
</g>
<!-- Node2&#45;&gt;Node25 -->
<g id="edge29" class="edge">
<title>Node2&#45;&gt;Node25</title>
<path fill="none" stroke="midnightblue" d="M617.51,-452.87C585.71,-442.88 532.57,-426.2 492.34,-413.56"/>
<polygon fill="midnightblue" stroke="midnightblue" points="493.26,-410.18 482.67,-410.53 491.17,-416.86 493.26,-410.18"/>
</g>
<!-- Node26 -->
<g id="node26" class="node">
<title>Node26</title>
<g id="a_node26"><a xlink:href="MarmotFiniteStrainPlasticity_8h.html" target="_top" xlink:title=" ">
<polygon fill="white" stroke="black" points="529.5,-380.5 529.5,-410.5 664.5,-410.5 664.5,-380.5 529.5,-380.5"/>
<text text-anchor="start" x="537.5" y="-398.5" font-family="Helvetica,sans-Serif" font-size="10.00">Marmot/MarmotFiniteStrain</text>
<text text-anchor="middle" x="597" y="-387.5" font-family="Helvetica,sans-Serif" font-size="10.00">Plasticity.h</text>
</a>
</g>
</g>
<!-- Node2&#45;&gt;Node26 -->
<g id="edge33" class="edge">
<title>Node2&#45;&gt;Node26</title>
<path fill="none" stroke="midnightblue" d="M638.53,-452.73C632.1,-444.03 621.99,-430.34 613.36,-418.65"/>
<polygon fill="midnightblue" stroke="midnightblue" points="616.16,-416.55 607.4,-410.59 610.53,-420.71 616.16,-416.55"/>
</g>
<!-- Node28 -->
<g id="node28" class="node">
<title>Node28</title>
<g id="a_node28"><a xlink:href="MarmotMaterialFiniteStrain_8h.html" target="_top" xlink:title=" ">
<polygon fill="white" stroke="black" points="696,-313.5 696,-343.5 840,-343.5 840,-313.5 696,-313.5"/>
<text text-anchor="start" x="704" y="-331.5" font-family="Helvetica,sans-Serif" font-size="10.00">Marmot/MarmotMaterialFinite</text>
<text text-anchor="middle" x="768" y="-320.5" font-family="Helvetica,sans-Serif" font-size="10.00">Strain.h</text>
</a>
</g>
</g>
<!-- Node2&#45;&gt;Node28 -->
<g id="edge39" class="edge">
<title>Node2&#45;&gt;Node28</title>
<path fill="none" stroke="midnightblue" d="M657.16,-452.99C670.22,-443.53 691.23,-427.43 707,-411 724.55,-392.71 741.59,-369.33 753.17,-352.31"/>
<polygon fill="midnightblue" stroke="midnightblue" points="756.36,-353.83 759.02,-343.57 750.55,-349.94 756.36,-353.83"/>
</g>
<!-- Node32 -->
<g id="node32" class="node">
<title>Node32</title>
<g id="a_node32"><a xlink:href="MarmotStateVarVectorManager_8h.html" target="_top" xlink:title=" ">
<polygon fill="white" stroke="black" points="1326,-190.5 1326,-220.5 1478,-220.5 1478,-190.5 1326,-190.5"/>
<text text-anchor="start" x="1334" y="-208.5" font-family="Helvetica,sans-Serif" font-size="10.00">Marmot/MarmotStateVarVector</text>
<text text-anchor="middle" x="1402" y="-197.5" font-family="Helvetica,sans-Serif" font-size="10.00">Manager.h</text>
</a>
</g>
</g>
<!-- Node2&#45;&gt;Node32 -->
<g id="edge46" class="edge">
<title>Node2&#45;&gt;Node32</title>
<path fill="none" stroke="midnightblue" d="M725.07,-453.52C776.24,-446.52 843.21,-433.75 899,-411 1014.97,-363.71 1018.81,-303.75 1135,-257 1192.87,-233.71 1262.19,-221.01 1315.7,-214.17"/>
<polygon fill="midnightblue" stroke="midnightblue" points="1316.34,-217.62 1325.84,-212.92 1315.48,-210.67 1316.34,-217.62"/>
</g>
<!-- Node3&#45;&gt;Node4 -->
<g id="edge3" class="edge">
<title>Node3&#45;&gt;Node4</title>
<path fill="none" stroke="midnightblue" d="M282.42,-380.4C285.5,-372.39 289.44,-362.16 292.97,-352.98"/>
<polygon fill="midnightblue" stroke="midnightblue" points="296.26,-354.17 296.59,-343.58 289.73,-351.65 296.26,-354.17"/>
</g>
<!-- Node5 -->
<g id="node5" class="node">
<title>Node5</title>
<g id="a_node5"><a xlink:title=" ">
<polygon fill="white" stroke="#bfbfbf" points="0,-6 0,-25 64,-25 64,-6 0,-6"/>
<text text-anchor="middle" x="32" y="-13" font-family="Helvetica,sans-Serif" font-size="10.00">Eigen/Core</text>
</a>
</g>
</g>
<!-- Node4&#45;&gt;Node5 -->
<g id="edge4" class="edge">
<title>Node4&#45;&gt;Node5</title>
<path fill="none" stroke="midnightblue" d="M230.37,-325.67C149.18,-319.33 28,-295.03 28,-206.5 28,-206.5 28,-206.5 28,-143 28,-104.68 29.86,-59.87 31.04,-35.19"/>
<polygon fill="midnightblue" stroke="midnightblue" points="34.54,-35.25 31.54,-25.09 27.55,-34.9 34.54,-35.25"/>
</g>
<!-- Node6 -->
<g id="node6" class="node">
<title>Node6</title>
<g id="a_node6"><a xlink:title=" ">
<polygon fill="white" stroke="#bfbfbf" points="397.5,-257.5 397.5,-276.5 480.5,-276.5 480.5,-257.5 397.5,-257.5"/>
<text text-anchor="middle" x="439" y="-264.5" font-family="Helvetica,sans-Serif" font-size="10.00">Fastor/Fastor.h</text>
</a>
</g>
</g>
<!-- Node4&#45;&gt;Node6 -->
<g id="edge5" class="edge">
<title>Node4&#45;&gt;Node6</title>
<path fill="none" stroke="midnightblue" d="M334.47,-313.4C357.35,-303.46 387.73,-290.26 409.84,-280.66"/>
<polygon fill="midnightblue" stroke="midnightblue" points="411.29,-283.85 419.07,-276.66 408.5,-277.43 411.29,-283.85"/>
</g>
<!-- Node7 -->
<g id="node7" class="node">
<title>Node7</title>
<g id="a_node7"><a xlink:href="MarmotTensor_8h.html" target="_top" xlink:title=" ">
<polygon fill="white" stroke="black" points="174.5,-257.5 174.5,-276.5 297.5,-276.5 297.5,-257.5 174.5,-257.5"/>
<text text-anchor="middle" x="236" y="-264.5" font-family="Helvetica,sans-Serif" font-size="10.00">Marmot/MarmotTensor.h</text>
</a>
</g>
</g>
<!-- Node4&#45;&gt;Node7 -->
<g id="edge6" class="edge">
<title>Node4&#45;&gt;Node7</title>
<path fill="none" stroke="midnightblue" d="M286.36,-313.4C276.37,-304.4 263.42,-292.72 253.15,-283.47"/>
<polygon fill="midnightblue" stroke="midnightblue" points="255.37,-280.75 245.6,-276.66 250.69,-285.95 255.37,-280.75"/>
</g>
<!-- Node22 -->
<g id="node22" class="node">
<title>Node22</title>
<g id="a_node22"><a xlink:title=" ">
<polygon fill="white" stroke="#bfbfbf" points="208,-67.5 208,-97.5 312,-97.5 312,-67.5 208,-67.5"/>
<text text-anchor="start" x="216" y="-85.5" font-family="Helvetica,sans-Serif" font-size="10.00">autodiff/forward/dual</text>
<text text-anchor="middle" x="260" y="-74.5" font-family="Helvetica,sans-Serif" font-size="10.00">/dual.hpp</text>
</a>
</g>
</g>
<!-- Node4&#45;&gt;Node22 -->
<g id="edge28" class="edge">
<title>Node4&#45;&gt;Node22</title>
<path fill="none" stroke="midnightblue" d="M304.33,-313.4C306.34,-299.13 308.53,-276.45 306,-257 298.88,-202.35 279.64,-140.4 268.43,-107.32"/>
<polygon fill="midnightblue" stroke="midnightblue" points="271.66,-105.96 265.1,-97.64 265.04,-108.24 271.66,-105.96"/>
</g>
<!-- Node8 -->
<g id="node8" class="node">
<title>Node8</title>
<g id="a_node8"><a xlink:href="MarmotJournal_8h.html" target="_top" xlink:title=" ">
<polygon fill="white" stroke="black" points="693.5,-134.5 693.5,-153.5 818.5,-153.5 818.5,-134.5 693.5,-134.5"/>
<text text-anchor="middle" x="756" y="-141.5" font-family="Helvetica,sans-Serif" font-size="10.00">Marmot/MarmotJournal.h</text>
</a>
</g>
</g>
<!-- Node7&#45;&gt;Node8 -->
<g id="edge7" class="edge">
<title>Node7&#45;&gt;Node8</title>
<path fill="none" stroke="midnightblue" d="M292.41,-257.44C343.29,-249.34 420.03,-236.18 486,-221 570.31,-201.59 667.63,-172.52 719.3,-156.54"/>
<polygon fill="midnightblue" stroke="midnightblue" points="720.5,-159.84 729.01,-153.53 718.42,-153.15 720.5,-159.84"/>
</g>
<!-- Node7&#45;&gt;Node12 -->
<g id="edge11" class="edge">
<title>Node7&#45;&gt;Node12</title>
<path fill="none" stroke="midnightblue" d="M230.38,-257.41C224.49,-248.39 215,-233.75 207,-221 180.1,-178.14 149.28,-127.2 133.5,-100.99"/>
<polygon fill="midnightblue" stroke="midnightblue" points="136.39,-99 128.23,-92.23 130.39,-102.61 136.39,-99"/>
</g>
<!-- Node15 -->
<g id="node15" class="node">
<title>Node15</title>
<g id="a_node15"><a xlink:href="MarmotVoigt_8h.html" target="_top" xlink:title=" ">
<polygon fill="white" stroke="black" points="361,-196 361,-215 477,-215 477,-196 361,-196"/>
<text text-anchor="middle" x="419" y="-203" font-family="Helvetica,sans-Serif" font-size="10.00">Marmot/MarmotVoigt.h</text>
</a>
</g>
</g>
<!-- Node7&#45;&gt;Node15 -->
<g id="edge15" class="edge">
<title>Node7&#45;&gt;Node15</title>
<path fill="none" stroke="midnightblue" d="M262.22,-257.48C294.02,-247.14 347.77,-229.66 383.32,-218.1"/>
<polygon fill="midnightblue" stroke="midnightblue" points="384.4,-221.43 392.83,-215.01 382.24,-214.77 384.4,-221.43"/>
</g>
<!-- Node24 -->
<g id="node24" class="node">
<title>Node24</title>
<g id="a_node24"><a xlink:title=" ">
<polygon fill="white" stroke="#bfbfbf" points="216.5,-196 216.5,-215 255.5,-215 255.5,-196 216.5,-196"/>
<text text-anchor="middle" x="236" y="-203" font-family="Helvetica,sans-Serif" font-size="10.00">utility</text>
</a>
</g>
</g>
<!-- Node7&#45;&gt;Node24 -->
<g id="edge27" class="edge">
<title>Node7&#45;&gt;Node24</title>
<path fill="none" stroke="midnightblue" d="M236,-257.48C236,-249.08 236,-235.98 236,-225.16"/>
<polygon fill="midnightblue" stroke="midnightblue" points="239.5,-225.01 236,-215.01 232.5,-225.01 239.5,-225.01"/>
</g>
<!-- Node9 -->
<g id="node9" class="node">
<title>Node9</title>
<g id="a_node9"><a xlink:title=" ">
<polygon fill="white" stroke="#bfbfbf" points="979,-73 979,-92 1033,-92 1033,-73 979,-73"/>
<text text-anchor="middle" x="1006" y="-80" font-family="Helvetica,sans-Serif" font-size="10.00">iostream</text>
</a>
</g>
</g>
<!-- Node8&#45;&gt;Node9 -->
<g id="edge8" class="edge">
<title>Node8&#45;&gt;Node9</title>
<path fill="none" stroke="midnightblue" d="M809.42,-134.46C853.12,-126.83 916.24,-114.34 970,-98 972.28,-97.31 974.63,-96.53 976.97,-95.7"/>
<polygon fill="midnightblue" stroke="midnightblue" points="978.31,-98.93 986.42,-92.11 975.83,-92.39 978.31,-98.93"/>
</g>
<!-- Node10 -->
<g id="node10" class="node">
<title>Node10</title>
<g id="a_node10"><a xlink:title=" ">
<polygon fill="white" stroke="#bfbfbf" points="909,-73 909,-92 961,-92 961,-73 909,-73"/>
<text text-anchor="middle" x="935" y="-80" font-family="Helvetica,sans-Serif" font-size="10.00">sstream</text>
</a>
</g>
</g>
<!-- Node8&#45;&gt;Node10 -->
<g id="edge9" class="edge">
<title>Node8&#45;&gt;Node10</title>
<path fill="none" stroke="midnightblue" d="M786.05,-134.47C815.36,-125.94 861.09,-112.11 900,-98 901.86,-97.33 903.76,-96.61 905.67,-95.88"/>
<polygon fill="midnightblue" stroke="midnightblue" points="907.14,-99.06 915.13,-92.09 904.55,-92.56 907.14,-99.06"/>
</g>
<!-- Node8&#45;&gt;Node11 -->
<g id="edge10" class="edge">
<title>Node8&#45;&gt;Node11</title>
<path fill="none" stroke="midnightblue" d="M818.95,-134.6C916.02,-121.65 1098.6,-97.3 1171.14,-87.62"/>
<polygon fill="midnightblue" stroke="midnightblue" points="1171.97,-91.04 1181.42,-86.25 1171.04,-84.1 1171.97,-91.04"/>
</g>
<!-- Node12&#45;&gt;Node5 -->
<g id="edge12" class="edge">
<title>Node12&#45;&gt;Node5</title>
<path fill="none" stroke="midnightblue" d="M110.73,-72.73C95.85,-62.11 70.57,-44.05 52.67,-31.26"/>
<polygon fill="midnightblue" stroke="midnightblue" points="54.25,-28.09 44.08,-25.13 50.18,-33.79 54.25,-28.09"/>
</g>
<!-- Node13 -->
<g id="node13" class="node">
<title>Node13</title>
<g id="a_node13"><a xlink:title=" ">
<polygon fill="white" stroke="#bfbfbf" points="85.5,-6 85.5,-25 156.5,-25 156.5,-6 85.5,-6"/>
<text text-anchor="middle" x="121" y="-13" font-family="Helvetica,sans-Serif" font-size="10.00">Eigen/Dense</text>
</a>
</g>
</g>
<!-- Node12&#45;&gt;Node13 -->
<g id="edge13" class="edge">
<title>Node12&#45;&gt;Node13</title>
<path fill="none" stroke="midnightblue" d="M122.73,-72.73C122.44,-63.18 121.96,-47.62 121.58,-35.28"/>
<polygon fill="midnightblue" stroke="midnightblue" points="125.07,-35.01 121.27,-25.13 118.07,-35.23 125.07,-35.01"/>
</g>
<!-- Node14 -->
<g id="node14" class="node">
<title>Node14</title>
<g id="a_node14"><a xlink:title=" ">
<polygon fill="white" stroke="#bfbfbf" points="174.5,-0.5 174.5,-30.5 305.5,-30.5 305.5,-0.5 174.5,-0.5"/>
<text text-anchor="start" x="182.5" y="-18.5" font-family="Helvetica,sans-Serif" font-size="10.00">unsupported/Eigen/CXX11</text>
<text text-anchor="middle" x="240" y="-7.5" font-family="Helvetica,sans-Serif" font-size="10.00">/Tensor</text>
</a>
</g>
</g>
<!-- Node12&#45;&gt;Node14 -->
<g id="edge14" class="edge">
<title>Node12&#45;&gt;Node14</title>
<path fill="none" stroke="midnightblue" d="M138.78,-72.73C155.88,-63.23 183.7,-47.78 205.85,-35.47"/>
<polygon fill="midnightblue" stroke="midnightblue" points="207.6,-38.51 214.64,-30.59 204.2,-32.39 207.6,-38.51"/>
</g>
<!-- Node15&#45;&gt;Node8 -->
<g id="edge16" class="edge">
<title>Node15&#45;&gt;Node8</title>
<path fill="none" stroke="midnightblue" d="M467.28,-195.98C528.09,-185.24 632.49,-166.81 697.69,-155.29"/>
<polygon fill="midnightblue" stroke="midnightblue" points="698.57,-158.69 707.81,-153.51 697.35,-151.8 698.57,-158.69"/>
</g>
<!-- Node15&#45;&gt;Node12 -->
<g id="edge26" class="edge">
<title>Node15&#45;&gt;Node12</title>
<path fill="none" stroke="midnightblue" d="M398.19,-195.99C346.83,-175 213.87,-120.65 153.56,-95.99"/>
<polygon fill="midnightblue" stroke="midnightblue" points="154.77,-92.71 144.19,-92.16 152.12,-99.18 154.77,-92.71"/>
</g>
<!-- Node15&#45;&gt;Node16 -->
<g id="edge17" class="edge">
<title>Node15&#45;&gt;Node16</title>
<path fill="none" stroke="midnightblue" d="M430.46,-195.98C443.17,-186.52 463.91,-171.1 479.25,-159.69"/>
<polygon fill="midnightblue" stroke="midnightblue" points="481.62,-162.29 487.56,-153.51 477.45,-156.67 481.62,-162.29"/>
</g>
<!-- Node16&#45;&gt;Node12 -->
<g id="edge20" class="edge">
<title>Node16&#45;&gt;Node12</title>
<path fill="none" stroke="midnightblue" d="M441.38,-135.05C380.9,-126.54 283.11,-112.33 199,-98 191.54,-96.73 183.69,-95.32 175.97,-93.88"/>
<polygon fill="midnightblue" stroke="midnightblue" points="176.43,-90.41 165.95,-92 175.13,-97.29 176.43,-90.41"/>
</g>
<!-- Node17 -->
<g id="node17" class="node">
<title>Node17</title>
<g id="a_node17"><a xlink:href="MarmotConstants_8h.html" target="_top" xlink:title=" ">
<polygon fill="white" stroke="black" points="401.5,-73 401.5,-92 538.5,-92 538.5,-73 401.5,-73"/>
<text text-anchor="middle" x="470" y="-80" font-family="Helvetica,sans-Serif" font-size="10.00">Marmot/MarmotConstants.h</text>
</a>
</g>
</g>
<!-- Node16&#45;&gt;Node17 -->
<g id="edge18" class="edge">
<title>Node16&#45;&gt;Node17</title>
<path fill="none" stroke="midnightblue" d="M494.85,-134.48C490.62,-125.82 483.96,-112.15 478.6,-101.15"/>
<polygon fill="midnightblue" stroke="midnightblue" points="481.67,-99.46 474.15,-92.01 475.38,-102.53 481.67,-99.46"/>
</g>
<!-- Node19 -->
<g id="node19" class="node">
<title>Node19</title>
<g id="a_node19"><a xlink:title=" ">
<polygon fill="white" stroke="#bfbfbf" points="557,-73 557,-92 679,-92 679,-73 557,-73"/>
<text text-anchor="middle" x="618" y="-80" font-family="Helvetica,sans-Serif" font-size="10.00">autodiff/forward/dual.hpp</text>
</a>
</g>
</g>
<!-- Node16&#45;&gt;Node19 -->
<g id="edge21" class="edge">
<title>Node16&#45;&gt;Node19</title>
<path fill="none" stroke="midnightblue" d="M516.05,-134.48C535.84,-124.58 568.72,-108.14 591.77,-96.62"/>
<polygon fill="midnightblue" stroke="midnightblue" points="593.6,-99.61 600.98,-92.01 590.47,-93.35 593.6,-99.61"/>
</g>
<!-- Node20 -->
<g id="node20" class="node">
<title>Node20</title>
<g id="a_node20"><a xlink:title=" ">
<polygon fill="white" stroke="#bfbfbf" points="697,-73 697,-92 817,-92 817,-73 697,-73"/>
<text text-anchor="middle" x="757" y="-80" font-family="Helvetica,sans-Serif" font-size="10.00">autodiff/forward/real.hpp</text>
</a>
</g>
</g>
<!-- Node16&#45;&gt;Node20 -->
<g id="edge22" class="edge">
<title>Node16&#45;&gt;Node20</title>
<path fill="none" stroke="midnightblue" d="M535.97,-134.48C581.85,-123.89 660.15,-105.84 710.18,-94.3"/>
<polygon fill="midnightblue" stroke="midnightblue" points="711.15,-97.67 720.1,-92.01 709.57,-90.85 711.15,-97.67"/>
</g>
<!-- Node21 -->
<g id="node21" class="node">
<title>Node21</title>
<g id="a_node21"><a xlink:title=" ">
<polygon fill="white" stroke="#bfbfbf" points="835,-73 835,-92 891,-92 891,-73 835,-73"/>
<text text-anchor="middle" x="863" y="-80" font-family="Helvetica,sans-Serif" font-size="10.00">algorithm</text>
</a>
</g>
</g>
<!-- Node16&#45;&gt;Node21 -->
<g id="edge23" class="edge">
<title>Node16&#45;&gt;Node21</title>
<path fill="none" stroke="midnightblue" d="M556.51,-139.22C622.46,-133.94 733.4,-122.15 826,-98 828.66,-97.31 831.39,-96.48 834.11,-95.57"/>
<polygon fill="midnightblue" stroke="midnightblue" points="835.51,-98.78 843.7,-92.06 833.11,-92.21 835.51,-98.78"/>
</g>
<!-- Node16&#45;&gt;Node22 -->
<g id="edge24" class="edge">
<title>Node16&#45;&gt;Node22</title>
<path fill="none" stroke="midnightblue" d="M464.76,-134.48C427.6,-125.22 367.5,-110.26 322,-98.93"/>
<polygon fill="midnightblue" stroke="midnightblue" points="322.78,-95.52 312.23,-96.5 321.09,-102.32 322.78,-95.52"/>
</g>
<!-- Node23 -->
<g id="node23" class="node">
<title>Node23</title>
<g id="a_node23"><a xlink:title=" ">
<polygon fill="white" stroke="#bfbfbf" points="330.5,-73 330.5,-92 383.5,-92 383.5,-73 330.5,-73"/>
<text text-anchor="middle" x="357" y="-80" font-family="Helvetica,sans-Serif" font-size="10.00">complex</text>
</a>
</g>
</g>
<!-- Node16&#45;&gt;Node23 -->
<g id="edge25" class="edge">
<title>Node16&#45;&gt;Node23</title>
<path fill="none" stroke="midnightblue" d="M478.65,-134.48C454.61,-124.4 414.4,-107.55 386.84,-96"/>
<polygon fill="midnightblue" stroke="midnightblue" points="387.88,-92.65 377.31,-92.01 385.18,-99.1 387.88,-92.65"/>
</g>
<!-- Node18 -->
<g id="node18" class="node">
<title>Node18</title>
<g id="a_node18"><a xlink:title=" ">
<polygon fill="white" stroke="#bfbfbf" points="448,-6 448,-25 492,-25 492,-6 448,-6"/>
<text text-anchor="middle" x="470" y="-13" font-family="Helvetica,sans-Serif" font-size="10.00">cmath</text>
</a>
</g>
</g>
<!-- Node17&#45;&gt;Node18 -->
<g id="edge19" class="edge">
<title>Node17&#45;&gt;Node18</title>
<path fill="none" stroke="midnightblue" d="M470,-72.73C470,-63.18 470,-47.62 470,-35.28"/>
<polygon fill="midnightblue" stroke="midnightblue" points="473.5,-35.13 470,-25.13 466.5,-35.13 473.5,-35.13"/>
</g>
<!-- Node25&#45;&gt;Node4 -->
<g id="edge31" class="edge">
<title>Node25&#45;&gt;Node4</title>
<path fill="none" stroke="midnightblue" d="M408.49,-380.4C388.62,-370.9 362.21,-358.28 340.66,-347.98"/>
<polygon fill="midnightblue" stroke="midnightblue" points="341.98,-344.73 331.45,-343.58 338.97,-351.05 341.98,-344.73"/>
</g>
<!-- Node25&#45;&gt;Node6 -->
<g id="edge30" class="edge">
<title>Node25&#45;&gt;Node6</title>
<path fill="none" stroke="midnightblue" d="M438.11,-380.48C438.29,-357.72 438.65,-312.7 438.85,-287.06"/>
<polygon fill="midnightblue" stroke="midnightblue" points="442.35,-286.82 438.93,-276.79 435.35,-286.76 442.35,-286.82"/>
</g>
<!-- Node26&#45;&gt;Node4 -->
<g id="edge34" class="edge">
<title>Node26&#45;&gt;Node4</title>
<path fill="none" stroke="midnightblue" d="M533.35,-380.48C487,-370.26 424.11,-356.41 375.6,-345.72"/>
<polygon fill="midnightblue" stroke="midnightblue" points="376.31,-342.29 365.79,-343.55 374.8,-349.12 376.31,-342.29"/>
</g>
<!-- Node27 -->
<g id="node27" class="node">
<title>Node27</title>
<g id="a_node27"><a xlink:href="MarmotTensorExponential_8h.html" target="_top" xlink:title=" ">
<polygon fill="white" stroke="black" points="466.5,-319 466.5,-338 639.5,-338 639.5,-319 466.5,-319"/>
<text text-anchor="middle" x="553" y="-326" font-family="Helvetica,sans-Serif" font-size="10.00">Marmot/MarmotTensorExponential.h</text>
</a>
</g>
</g>
<!-- Node26&#45;&gt;Node27 -->
<g id="edge35" class="edge">
<title>Node26&#45;&gt;Node27</title>
<path fill="none" stroke="midnightblue" d="M587.45,-380.4C580.73,-370.46 571.69,-357.11 564.56,-346.57"/>
<polygon fill="midnightblue" stroke="midnightblue" points="567.39,-344.51 558.89,-338.19 561.59,-348.44 567.39,-344.51"/>
</g>
<!-- Node27&#45;&gt;Node6 -->
<g id="edge36" class="edge">
<title>Node27&#45;&gt;Node6</title>
<path fill="none" stroke="midnightblue" d="M536.67,-318.98C517.79,-309.12 486.49,-292.79 464.42,-281.27"/>
<polygon fill="midnightblue" stroke="midnightblue" points="465.79,-278.03 455.3,-276.51 462.55,-284.24 465.79,-278.03"/>
</g>
<!-- Node27&#45;&gt;Node9 -->
<g id="edge38" class="edge">
<title>Node27&#45;&gt;Node9</title>
<path fill="none" stroke="midnightblue" d="M556.02,-318.6C567.22,-287.06 609.72,-180.04 685,-134 793.92,-67.39 846.43,-130.12 970,-98 972.51,-97.35 975.08,-96.56 977.63,-95.7"/>
<polygon fill="midnightblue" stroke="midnightblue" points="979.11,-98.89 987.25,-92.11 976.66,-92.33 979.11,-98.89"/>
</g>
<!-- Node27&#45;&gt;Node16 -->
<g id="edge37" class="edge">
<title>Node27&#45;&gt;Node16</title>
<path fill="none" stroke="midnightblue" d="M550.4,-318.7C542.07,-290.57 516,-202.46 504.52,-163.66"/>
<polygon fill="midnightblue" stroke="midnightblue" points="507.77,-162.31 501.58,-153.71 501.06,-164.3 507.77,-162.31"/>
</g>
<!-- Node28&#45;&gt;Node6 -->
<g id="edge40" class="edge">
<title>Node28&#45;&gt;Node6</title>
<path fill="none" stroke="midnightblue" d="M695.8,-314.44C633.83,-303.24 546.03,-287.36 490.82,-277.37"/>
<polygon fill="midnightblue" stroke="midnightblue" points="491.37,-273.91 480.9,-275.58 490.12,-280.8 491.37,-273.91"/>
</g>
<!-- Node29 -->
<g id="node29" class="node">
<title>Node29</title>
<g id="a_node29"><a xlink:href="MarmotMaterial_8h.html" target="_top" xlink:title=" ">
<polygon fill="white" stroke="black" points="928,-196 928,-215 1056,-215 1056,-196 928,-196"/>
<text text-anchor="middle" x="992" y="-203" font-family="Helvetica,sans-Serif" font-size="10.00">Marmot/MarmotMaterial.h</text>
</a>
</g>
</g>
<!-- Node28&#45;&gt;Node29 -->
<g id="edge41" class="edge">
<title>Node28&#45;&gt;Node29</title>
<path fill="none" stroke="midnightblue" d="M794.13,-313.38C837.7,-289.85 924.57,-242.93 967.21,-219.89"/>
<polygon fill="midnightblue" stroke="midnightblue" points="968.96,-222.92 976.09,-215.09 965.63,-216.77 968.96,-222.92"/>
</g>
<!-- Node31 -->
<g id="node31" class="node">
<title>Node31</title>
<g id="a_node31"><a xlink:title=" ">
<polygon fill="white" stroke="#bfbfbf" points="710.5,-257.5 710.5,-276.5 825.5,-276.5 825.5,-257.5 710.5,-257.5"/>
<text text-anchor="middle" x="768" y="-264.5" font-family="Helvetica,sans-Serif" font-size="10.00">Fastor/tensor/Tensor.h</text>
</a>
</g>
</g>
<!-- Node28&#45;&gt;Node31 -->
<g id="edge44" class="edge">
<title>Node28&#45;&gt;Node31</title>
<path fill="none" stroke="midnightblue" d="M768,-313.4C768,-305.47 768,-295.46 768,-286.86"/>
<polygon fill="midnightblue" stroke="midnightblue" points="771.5,-286.66 768,-276.66 764.5,-286.66 771.5,-286.66"/>
</g>
<!-- Node29&#45;&gt;Node11 -->
<g id="edge43" class="edge">
<title>Node29&#45;&gt;Node11</title>
<path fill="none" stroke="midnightblue" d="M978.41,-195.93C958.5,-182.33 925.56,-155.17 943,-134 971.64,-99.24 1109.08,-88.08 1171.29,-84.78"/>
<polygon fill="midnightblue" stroke="midnightblue" points="1171.48,-88.27 1181.29,-84.28 1171.13,-81.28 1171.48,-88.27"/>
</g>
<!-- Node30 -->
<g id="node30" class="node">
<title>Node30</title>
<g id="a_node30"><a xlink:href="MarmotUtils_8h.html" target="_top" xlink:title=" ">
<polygon fill="white" stroke="black" points="951.5,-134.5 951.5,-153.5 1064.5,-153.5 1064.5,-134.5 951.5,-134.5"/>
<text text-anchor="middle" x="1008" y="-141.5" font-family="Helvetica,sans-Serif" font-size="10.00">Marmot/MarmotUtils.h</text>
</a>
</g>
</g>
<!-- Node29&#45;&gt;Node30 -->
<g id="edge42" class="edge">
<title>Node29&#45;&gt;Node30</title>
<path fill="none" stroke="midnightblue" d="M994.29,-195.98C996.57,-187.49 1000.15,-174.2 1003.07,-163.32"/>
<polygon fill="midnightblue" stroke="midnightblue" points="1006.49,-164.07 1005.71,-153.51 999.74,-162.26 1006.49,-164.07"/>
</g>
<!-- Node32&#45;&gt;Node11 -->
<g id="edge49" class="edge">
<title>Node32&#45;&gt;Node11</title>
<path fill="none" stroke="midnightblue" d="M1451.32,-190.47C1486.24,-178.08 1523.51,-158.24 1503,-134 1468.64,-93.4 1303.06,-85.42 1233.2,-83.87"/>
<polygon fill="midnightblue" stroke="midnightblue" points="1232.91,-80.36 1222.84,-83.67 1232.77,-87.36 1232.91,-80.36"/>
</g>
<!-- Node32&#45;&gt;Node30 -->
<g id="edge47" class="edge">
<title>Node32&#45;&gt;Node30</title>
<path fill="none" stroke="midnightblue" d="M1325.57,-192.96C1252.62,-181.94 1143.84,-165.51 1074.42,-155.03"/>
<polygon fill="midnightblue" stroke="midnightblue" points="1074.88,-151.56 1064.47,-153.53 1073.83,-158.48 1074.88,-151.56"/>
</g>
<!-- Node33 -->
<g id="node33" class="node">
<title>Node33</title>
<g id="a_node33"><a xlink:title=" ">
<polygon fill="white" stroke="#bfbfbf" points="1442.5,-134.5 1442.5,-153.5 1493.5,-153.5 1493.5,-134.5 1442.5,-134.5"/>
<text text-anchor="middle" x="1468" y="-141.5" font-family="Helvetica,sans-Serif" font-size="10.00">memory</text>
</a>
</g>
</g>
<!-- Node32&#45;&gt;Node33 -->
<g id="edge48" class="edge">
<title>Node32&#45;&gt;Node33</title>
<path fill="none" stroke="midnightblue" d="M1417.64,-190.4C1427.63,-181.4 1440.58,-169.72 1450.85,-160.47"/>
<polygon fill="midnightblue" stroke="midnightblue" points="1453.31,-162.95 1458.4,-153.66 1448.63,-157.75 1453.31,-162.95"/>
</g>
<!-- Node34 -->
<g id="node34" class="node">
<title>Node34</title>
<g id="a_node34"><a xlink:title=" ">
<polygon fill="white" stroke="#bfbfbf" points="1550.5,-134.5 1550.5,-153.5 1633.5,-153.5 1633.5,-134.5 1550.5,-134.5"/>
<text text-anchor="middle" x="1592" y="-141.5" font-family="Helvetica,sans-Serif" font-size="10.00">unordered_map</text>
</a>
</g>
</g>
<!-- Node32&#45;&gt;Node34 -->
<g id="edge50" class="edge">
<title>Node32&#45;&gt;Node34</title>
<path fill="none" stroke="midnightblue" d="M1447.03,-190.4C1479.86,-180.12 1523.82,-166.35 1554.7,-156.68"/>
<polygon fill="midnightblue" stroke="midnightblue" points="1556.13,-159.9 1564.63,-153.57 1554.04,-153.22 1556.13,-159.9"/>
</g>
<!-- Node35 -->
<g id="node35" class="node">
<title>Node35</title>
<g id="a_node35"><a xlink:title=" ">
<polygon fill="white" stroke="#bfbfbf" points="1380,-134.5 1380,-153.5 1424,-153.5 1424,-134.5 1380,-134.5"/>
<text text-anchor="middle" x="1402" y="-141.5" font-family="Helvetica,sans-Serif" font-size="10.00">vector</text>
</a>
</g>
</g>
<!-- Node32&#45;&gt;Node35 -->
<g id="edge51" class="edge">
<title>Node32&#45;&gt;Node35</title>
<path fill="none" stroke="midnightblue" d="M1402,-190.4C1402,-182.47 1402,-172.46 1402,-163.86"/>
<polygon fill="midnightblue" stroke="midnightblue" points="1405.5,-163.66 1402,-153.66 1398.5,-163.66 1405.5,-163.66"/>
</g>
<!-- Node37 -->
<g id="node37" class="node">
<title>Node37</title>
<g id="a_node37"><a xlink:href="Marmot_8h.html" target="_top" xlink:title=" ">
<polygon fill="white" stroke="black" points="1143.5,-257.5 1143.5,-276.5 1236.5,-276.5 1236.5,-257.5 1143.5,-257.5"/>
<text text-anchor="middle" x="1190" y="-264.5" font-family="Helvetica,sans-Serif" font-size="10.00">Marmot/Marmot.h</text>
</a>
</g>
</g>
<!-- Node36&#45;&gt;Node37 -->
<g id="edge55" class="edge">
<title>Node36&#45;&gt;Node37</title>
<path fill="none" stroke="midnightblue" d="M1026.55,-447.49C1050.92,-439.68 1078.13,-428 1099,-411 1141.47,-376.41 1170.29,-316.52 1182.86,-286.41"/>
<polygon fill="midnightblue" stroke="midnightblue" points="1186.25,-287.35 1186.75,-276.76 1179.76,-284.73 1186.25,-287.35"/>
</g>
<!-- Node37&#45;&gt;Node9 -->
<g id="edge65" class="edge">
<title>Node37&#45;&gt;Node9</title>
<path fill="none" stroke="midnightblue" d="M1143.34,-265.23C1073.57,-262.98 947.22,-254.29 919,-221 904.41,-203.79 930.28,-139.32 934,-134 945.09,-118.15 962.84,-105.62 977.94,-97"/>
<polygon fill="midnightblue" stroke="midnightblue" points="979.78,-99.98 986.92,-92.15 976.45,-93.83 979.78,-99.98"/>
</g>
<!-- Node37&#45;&gt;Node11 -->
<g id="edge66" class="edge">
<title>Node37&#45;&gt;Node11</title>
<path fill="none" stroke="midnightblue" d="M1236.53,-266.04C1331.41,-265.32 1543.29,-259.32 1603,-221 1638.82,-198.01 1671.33,-165.76 1643,-134 1615.68,-103.37 1328.42,-88.75 1232.78,-84.7"/>
<polygon fill="midnightblue" stroke="midnightblue" points="1232.74,-81.2 1222.6,-84.28 1232.45,-88.19 1232.74,-81.2"/>
</g>
<!-- Node37&#45;&gt;Node29 -->
<g id="edge63" class="edge">
<title>Node37&#45;&gt;Node29</title>
<path fill="none" stroke="midnightblue" d="M1161.63,-257.48C1127.08,-247.09 1068.58,-229.51 1030.12,-217.95"/>
<polygon fill="midnightblue" stroke="midnightblue" points="1030.9,-214.54 1020.32,-215.01 1028.89,-221.24 1030.9,-214.54"/>
</g>
<!-- Node37&#45;&gt;Node34 -->
<g id="edge67" class="edge">
<title>Node37&#45;&gt;Node34</title>
<path fill="none" stroke="midnightblue" d="M1236.55,-266.26C1296.81,-264.99 1403.93,-257.2 1487,-221 1507.3,-212.15 1508.17,-203.13 1526,-190 1540.37,-179.41 1556.98,-168.09 1569.95,-159.45"/>
<polygon fill="midnightblue" stroke="midnightblue" points="1572.25,-162.12 1578.65,-153.69 1568.38,-156.29 1572.25,-162.12"/>
</g>
<!-- Node38 -->
<g id="node38" class="node">
<title>Node38</title>
<g id="a_node38"><a xlink:href="MarmotElement_8h.html" target="_top" xlink:title=" ">
<polygon fill="white" stroke="black" points="1126,-196 1126,-215 1254,-215 1254,-196 1126,-196"/>
<text text-anchor="middle" x="1190" y="-203" font-family="Helvetica,sans-Serif" font-size="10.00">Marmot/MarmotElement.h</text>
</a>
</g>
</g>
<!-- Node37&#45;&gt;Node38 -->
<g id="edge56" class="edge">
<title>Node37&#45;&gt;Node38</title>
<path fill="none" stroke="midnightblue" d="M1190,-257.48C1190,-249.08 1190,-235.98 1190,-225.16"/>
<polygon fill="midnightblue" stroke="midnightblue" points="1193.5,-225.01 1190,-215.01 1186.5,-225.01 1193.5,-225.01"/>
</g>
<!-- Node41 -->
<g id="node41" class="node">
<title>Node41</title>
<g id="a_node41"><a xlink:title=" ">
<polygon fill="white" stroke="#bfbfbf" points="1534.5,-196 1534.5,-215 1593.5,-215 1593.5,-196 1534.5,-196"/>
<text text-anchor="middle" x="1564" y="-203" font-family="Helvetica,sans-Serif" font-size="10.00">functional</text>
</a>
</g>
</g>
<!-- Node37&#45;&gt;Node41 -->
<g id="edge64" class="edge">
<title>Node37&#45;&gt;Node41</title>
<path fill="none" stroke="midnightblue" d="M1236.67,-262.34C1301.04,-256.69 1420.42,-243.99 1520,-221 1523.48,-220.2 1527.07,-219.24 1530.63,-218.2"/>
<polygon fill="midnightblue" stroke="midnightblue" points="1531.97,-221.45 1540.48,-215.13 1529.89,-214.77 1531.97,-221.45"/>
</g>
<!-- Node38&#45;&gt;Node8 -->
<g id="edge58" class="edge">
<title>Node38&#45;&gt;Node8</title>
<path fill="none" stroke="midnightblue" d="M1127.82,-195.98C1048.54,-185.11 911.73,-166.35 828.01,-154.87"/>
<polygon fill="midnightblue" stroke="midnightblue" points="828.45,-151.4 818.07,-153.51 827.5,-158.33 828.45,-151.4"/>
</g>
<!-- Node38&#45;&gt;Node11 -->
<g id="edge61" class="edge">
<title>Node38&#45;&gt;Node11</title>
<path fill="none" stroke="midnightblue" d="M1254.22,-198.41C1283.27,-192.07 1315.06,-179.36 1333,-154 1360.66,-114.89 1279.48,-95.45 1232.65,-87.7"/>
<polygon fill="midnightblue" stroke="midnightblue" points="1233.1,-84.23 1222.67,-86.14 1232.01,-91.14 1233.1,-84.23"/>
</g>
<!-- Node38&#45;&gt;Node30 -->
<g id="edge59" class="edge">
<title>Node38&#45;&gt;Node30</title>
<path fill="none" stroke="midnightblue" d="M1163.92,-195.98C1132.43,-185.68 1079.3,-168.31 1043.94,-156.75"/>
<polygon fill="midnightblue" stroke="midnightblue" points="1044.62,-153.29 1034.03,-153.51 1042.45,-159.94 1044.62,-153.29"/>
</g>
<!-- Node38&#45;&gt;Node35 -->
<g id="edge62" class="edge">
<title>Node38&#45;&gt;Node35</title>
<path fill="none" stroke="midnightblue" d="M1220.37,-195.98C1260.17,-184.81 1329.62,-165.31 1370.14,-153.94"/>
<polygon fill="midnightblue" stroke="midnightblue" points="1371.1,-157.31 1379.78,-151.24 1369.21,-150.57 1371.1,-157.31"/>
</g>
<!-- Node39 -->
<g id="node39" class="node">
<title>Node39</title>
<g id="a_node39"><a xlink:href="MarmotElementProperty_8h.html" target="_top" xlink:title=" ">
<polygon fill="white" stroke="black" points="1160,-134.5 1160,-153.5 1324,-153.5 1324,-134.5 1160,-134.5"/>
<text text-anchor="middle" x="1242" y="-141.5" font-family="Helvetica,sans-Serif" font-size="10.00">Marmot/MarmotElementProperty.h</text>
</a>
</g>
</g>
<!-- Node38&#45;&gt;Node39 -->
<g id="edge57" class="edge">
<title>Node38&#45;&gt;Node39</title>
<path fill="none" stroke="midnightblue" d="M1197.45,-195.98C1205.33,-186.96 1217.94,-172.52 1227.74,-161.31"/>
<polygon fill="midnightblue" stroke="midnightblue" points="1230.62,-163.34 1234.56,-153.51 1225.35,-158.74 1230.62,-163.34"/>
</g>
<!-- Node40 -->
<g id="node40" class="node">
<title>Node40</title>
<g id="a_node40"><a xlink:title=" ">
<polygon fill="white" stroke="#bfbfbf" points="1082.5,-134.5 1082.5,-153.5 1141.5,-153.5 1141.5,-134.5 1082.5,-134.5"/>
<text text-anchor="middle" x="1112" y="-141.5" font-family="Helvetica,sans-Serif" font-size="10.00">stdexcept</text>
</a>
</g>
</g>
<!-- Node38&#45;&gt;Node40 -->
<g id="edge60" class="edge">
<title>Node38&#45;&gt;Node40</title>
<path fill="none" stroke="midnightblue" d="M1178.82,-195.98C1166.43,-186.52 1146.21,-171.1 1131.25,-159.69"/>
<polygon fill="midnightblue" stroke="midnightblue" points="1133.23,-156.79 1123.15,-153.51 1128.98,-162.36 1133.23,-156.79"/>
</g>
</g>
</svg>
