<?xml version="1.0" encoding="UTF-8" standalone="no"?>
<!DOCTYPE svg PUBLIC "-//W3C//DTD SVG 1.1//EN"
 "http://www.w3.org/Graphics/SVG/1.1/DTD/svg11.dtd">
<!-- Generated by graphviz version 2.44.0 ()
 -->
<!-- Title: modules/materials/FiniteStrainJ2Plasticity/include/Marmot/FiniteStrainJ2Plasticity.h Pages: 1 -->
<svg width="1213pt" height="497pt"
 viewBox="0.00 0.00 1213.00 497.00" xmlns="http://www.w3.org/2000/svg" xmlns:xlink="http://www.w3.org/1999/xlink">
<g id="graph0" class="graph" transform="scale(1 1) rotate(0) translate(4 493)">
<title>modules/materials/FiniteStrainJ2Plasticity/include/Marmot/FiniteStrainJ2Plasticity.h</title>
<polygon fill="white" stroke="transparent" points="-4,4 -4,-493 1209,-493 1209,4 -4,4"/>
<!-- Node1 -->
<g id="node1" class="node">
<title>Node1</title>
<g id="a_node1"><a xlink:title=" ">
<polygon fill="#bfbfbf" stroke="black" points="435.5,-447.5 435.5,-488.5 598.5,-488.5 598.5,-447.5 435.5,-447.5"/>
<text text-anchor="start" x="443.5" y="-476.5" font-family="Helvetica,sans-Serif" font-size="10.00">modules/materials/Finite</text>
<text text-anchor="start" x="443.5" y="-465.5" font-family="Helvetica,sans-Serif" font-size="10.00">StrainJ2Plasticity/include</text>
<text text-anchor="middle" x="517" y="-454.5" font-family="Helvetica,sans-Serif" font-size="10.00">/Marmot/FiniteStrainJ2Plasticity.h</text>
</a>
</g>
</g>
<!-- Node2 -->
<g id="node2" class="node">
<title>Node2</title>
<g id="a_node2"><a xlink:href="MarmotDeformationMeasures_8h.html" target="_top" xlink:title=" ">
<polygon fill="white" stroke="black" points="96,-380.5 96,-410.5 234,-410.5 234,-380.5 96,-380.5"/>
<text text-anchor="start" x="104" y="-398.5" font-family="Helvetica,sans-Serif" font-size="10.00">Marmot/MarmotDeformation</text>
<text text-anchor="middle" x="165" y="-387.5" font-family="Helvetica,sans-Serif" font-size="10.00">Measures.h</text>
</a>
</g>
</g>
<!-- Node1&#45;&gt;Node2 -->
<g id="edge1" class="edge">
<title>Node1&#45;&gt;Node2</title>
<path fill="none" stroke="midnightblue" d="M435.36,-450.65C377.79,-439.12 301.09,-423.76 244.09,-412.34"/>
<polygon fill="midnightblue" stroke="midnightblue" points="244.54,-408.86 234.05,-410.33 243.16,-415.72 244.54,-408.86"/>
</g>
<!-- Node3 -->
<g id="node3" class="node">
<title>Node3</title>
<g id="a_node3"><a xlink:href="MarmotFastorTensorBasics_8h.html" target="_top" xlink:title=" ">
<polygon fill="white" stroke="black" points="190.5,-313.5 190.5,-343.5 333.5,-343.5 333.5,-313.5 190.5,-313.5"/>
<text text-anchor="start" x="198.5" y="-331.5" font-family="Helvetica,sans-Serif" font-size="10.00">Marmot/MarmotFastorTensor</text>
<text text-anchor="middle" x="262" y="-320.5" font-family="Helvetica,sans-Serif" font-size="10.00">Basics.h</text>
</a>
</g>
</g>
<!-- Node1&#45;&gt;Node3 -->
<g id="edge31" class="edge">
<title>Node1&#45;&gt;Node3</title>
<path fill="none" stroke="midnightblue" d="M435.44,-456.88C376.15,-447.88 302.66,-432.74 281,-411 266.16,-396.1 262.02,-371.99 261.24,-353.85"/>
<polygon fill="midnightblue" stroke="midnightblue" points="264.74,-353.67 261.11,-343.72 257.74,-353.76 264.74,-353.67"/>
</g>
<!-- Node10 -->
<g id="node10" class="node">
<title>Node10</title>
<g id="a_node10"><a xlink:title=" ">
<polygon fill="white" stroke="#bfbfbf" points="1061.5,-73 1061.5,-92 1102.5,-92 1102.5,-73 1061.5,-73"/>
<text text-anchor="middle" x="1082" y="-80" font-family="Helvetica,sans-Serif" font-size="10.00">string</text>
</a>
</g>
</g>
<!-- Node1&#45;&gt;Node10 -->
<g id="edge52" class="edge">
<title>Node1&#45;&gt;Node10</title>
<path fill="none" stroke="midnightblue" d="M598.62,-467.64C780.87,-466.87 1205,-451.92 1205,-329.5 1205,-329.5 1205,-329.5 1205,-199 1205,-148.04 1148.21,-113.01 1111.8,-95.78"/>
<polygon fill="midnightblue" stroke="midnightblue" points="1113.14,-92.55 1102.59,-91.59 1110.24,-98.92 1113.14,-92.55"/>
</g>
<!-- Node11 -->
<g id="node11" class="node">
<title>Node11</title>
<g id="a_node11"><a xlink:href="MarmotTypedefs_8h.html" target="_top" xlink:title=" ">
<polygon fill="white" stroke="black" points="66.5,-73 66.5,-92 199.5,-92 199.5,-73 66.5,-73"/>
<text text-anchor="middle" x="133" y="-80" font-family="Helvetica,sans-Serif" font-size="10.00">Marmot/MarmotTypedefs.h</text>
</a>
</g>
</g>
<!-- Node1&#45;&gt;Node11 -->
<g id="edge51" class="edge">
<title>Node1&#45;&gt;Node11</title>
<path fill="none" stroke="midnightblue" d="M435.28,-462.33C328.2,-455.19 146.99,-439.33 87,-411 39.09,-388.38 0,-382.48 0,-329.5 0,-329.5 0,-329.5 0,-199 0,-146.7 59.35,-112.74 98.75,-95.95"/>
<polygon fill="midnightblue" stroke="midnightblue" points="100.36,-99.07 108.3,-92.05 97.71,-92.59 100.36,-99.07"/>
</g>
<!-- Node15 -->
<g id="node15" class="node">
<title>Node15</title>
<g id="a_node15"><a xlink:href="MarmotMath_8h.html" target="_top" xlink:title=" ">
<polygon fill="white" stroke="black" points="523.5,-134.5 523.5,-153.5 638.5,-153.5 638.5,-134.5 523.5,-134.5"/>
<text text-anchor="middle" x="581" y="-141.5" font-family="Helvetica,sans-Serif" font-size="10.00">Marmot/MarmotMath.h</text>
</a>
</g>
</g>
<!-- Node1&#45;&gt;Node15 -->
<g id="edge44" class="edge">
<title>Node1&#45;&gt;Node15</title>
<path fill="none" stroke="midnightblue" d="M558.33,-447.48C573.52,-438.38 589.55,-426.17 600,-411 621.1,-380.37 619,-366.69 619,-329.5 619,-329.5 619,-329.5 619,-260.5 619,-224.25 601.91,-184.67 590.65,-162.53"/>
<polygon fill="midnightblue" stroke="midnightblue" points="593.73,-160.87 585.97,-153.66 587.54,-164.14 593.73,-160.87"/>
</g>
<!-- Node24 -->
<g id="node24" class="node">
<title>Node24</title>
<g id="a_node24"><a xlink:href="MarmotEnergyDensityFunctions_8h.html" target="_top" xlink:title=" ">
<polygon fill="white" stroke="black" points="443.5,-380.5 443.5,-410.5 590.5,-410.5 590.5,-380.5 443.5,-380.5"/>
<text text-anchor="start" x="451.5" y="-398.5" font-family="Helvetica,sans-Serif" font-size="10.00">Marmot/MarmotEnergyDensity</text>
<text text-anchor="middle" x="517" y="-387.5" font-family="Helvetica,sans-Serif" font-size="10.00">Functions.h</text>
</a>
</g>
</g>
<!-- Node1&#45;&gt;Node24 -->
<g id="edge28" class="edge">
<title>Node1&#45;&gt;Node24</title>
<path fill="none" stroke="midnightblue" d="M517,-447.36C517,-439.23 517,-429.7 517,-421.11"/>
<polygon fill="midnightblue" stroke="midnightblue" points="520.5,-420.89 517,-410.89 513.5,-420.89 520.5,-420.89"/>
</g>
<!-- Node25 -->
<g id="node25" class="node">
<title>Node25</title>
<g id="a_node25"><a xlink:href="MarmotFiniteStrainPlasticity_8h.html" target="_top" xlink:title=" ">
<polygon fill="white" stroke="black" points="290.5,-380.5 290.5,-410.5 425.5,-410.5 425.5,-380.5 290.5,-380.5"/>
<text text-anchor="start" x="298.5" y="-398.5" font-family="Helvetica,sans-Serif" font-size="10.00">Marmot/MarmotFiniteStrain</text>
<text text-anchor="middle" x="358" y="-387.5" font-family="Helvetica,sans-Serif" font-size="10.00">Plasticity.h</text>
</a>
</g>
</g>
<!-- Node1&#45;&gt;Node25 -->
<g id="edge32" class="edge">
<title>Node1&#45;&gt;Node25</title>
<path fill="none" stroke="midnightblue" d="M472.71,-447.36C449.71,-437.17 421.79,-424.79 399.26,-414.79"/>
<polygon fill="midnightblue" stroke="midnightblue" points="400.52,-411.52 389.96,-410.67 397.68,-417.92 400.52,-411.52"/>
</g>
<!-- Node27 -->
<g id="node27" class="node">
<title>Node27</title>
<g id="a_node27"><a xlink:href="MarmotMaterialFiniteStrain_8h.html" target="_top" xlink:title=" ">
<polygon fill="white" stroke="black" points="647,-313.5 647,-343.5 791,-343.5 791,-313.5 647,-313.5"/>
<text text-anchor="start" x="655" y="-331.5" font-family="Helvetica,sans-Serif" font-size="10.00">Marmot/MarmotMaterialFinite</text>
<text text-anchor="middle" x="719" y="-320.5" font-family="Helvetica,sans-Serif" font-size="10.00">Strain.h</text>
</a>
</g>
</g>
<!-- Node1&#45;&gt;Node27 -->
<g id="edge38" class="edge">
<title>Node1&#45;&gt;Node27</title>
<path fill="none" stroke="midnightblue" d="M565.97,-447.41C587.39,-437.84 612.3,-425.29 633,-411 658.25,-393.57 683.27,-368.78 699.76,-351.13"/>
<polygon fill="midnightblue" stroke="midnightblue" points="702.51,-353.31 706.7,-343.57 697.36,-348.57 702.51,-353.31"/>
</g>
<!-- Node31 -->
<g id="node31" class="node">
<title>Node31</title>
<g id="a_node31"><a xlink:href="MarmotStateVarVectorManager_8h.html" target="_top" xlink:title=" ">
<polygon fill="white" stroke="black" points="927,-246.5 927,-276.5 1079,-276.5 1079,-246.5 927,-246.5"/>
<text text-anchor="start" x="935" y="-264.5" font-family="Helvetica,sans-Serif" font-size="10.00">Marmot/MarmotStateVarVector</text>
<text text-anchor="middle" x="1003" y="-253.5" font-family="Helvetica,sans-Serif" font-size="10.00">Manager.h</text>
</a>
</g>
</g>
<!-- Node1&#45;&gt;Node31 -->
<g id="edge45" class="edge">
<title>Node1&#45;&gt;Node31</title>
<path fill="none" stroke="midnightblue" d="M570.7,-447.45C598.91,-436.99 633.97,-423.68 665,-411 773.92,-366.5 900.44,-309.46 963.3,-280.75"/>
<polygon fill="midnightblue" stroke="midnightblue" points="964.83,-283.9 972.47,-276.55 961.92,-277.53 964.83,-283.9"/>
</g>
<!-- Node2&#45;&gt;Node3 -->
<g id="edge2" class="edge">
<title>Node2&#45;&gt;Node3</title>
<path fill="none" stroke="midnightblue" d="M186.05,-380.4C199.65,-371.28 217.54,-359.29 232.55,-349.24"/>
<polygon fill="midnightblue" stroke="midnightblue" points="234.63,-352.05 240.99,-343.58 230.74,-346.24 234.63,-352.05"/>
</g>
<!-- Node4 -->
<g id="node4" class="node">
<title>Node4</title>
<g id="a_node4"><a xlink:title=" ">
<polygon fill="white" stroke="#bfbfbf" points="9,-6 9,-25 73,-25 73,-6 9,-6"/>
<text text-anchor="middle" x="41" y="-13" font-family="Helvetica,sans-Serif" font-size="10.00">Eigen/Core</text>
</a>
</g>
</g>
<!-- Node3&#45;&gt;Node4 -->
<g id="edge3" class="edge">
<title>Node3&#45;&gt;Node4</title>
<path fill="none" stroke="midnightblue" d="M190.2,-317.43C124.68,-303.71 38,-272.12 38,-201 38,-201 38,-201 38,-143 38,-104.69 39.39,-59.88 40.28,-35.19"/>
<polygon fill="midnightblue" stroke="midnightblue" points="43.78,-35.21 40.66,-25.09 36.79,-34.95 43.78,-35.21"/>
</g>
<!-- Node5 -->
<g id="node5" class="node">
<title>Node5</title>
<g id="a_node5"><a xlink:title=" ">
<polygon fill="white" stroke="#bfbfbf" points="507.5,-252 507.5,-271 590.5,-271 590.5,-252 507.5,-252"/>
<text text-anchor="middle" x="549" y="-259" font-family="Helvetica,sans-Serif" font-size="10.00">Fastor/Fastor.h</text>
</a>
</g>
</g>
<!-- Node3&#45;&gt;Node5 -->
<g id="edge4" class="edge">
<title>Node3&#45;&gt;Node5</title>
<path fill="none" stroke="midnightblue" d="M323.92,-313.48C377.15,-301.42 452.81,-284.29 501.4,-273.28"/>
<polygon fill="midnightblue" stroke="midnightblue" points="502.36,-276.65 511.34,-271.03 500.82,-269.82 502.36,-276.65"/>
</g>
<!-- Node6 -->
<g id="node6" class="node">
<title>Node6</title>
<g id="a_node6"><a xlink:href="MarmotTensor_8h.html" target="_top" xlink:title=" ">
<polygon fill="white" stroke="black" points="167.5,-252 167.5,-271 290.5,-271 290.5,-252 167.5,-252"/>
<text text-anchor="middle" x="229" y="-259" font-family="Helvetica,sans-Serif" font-size="10.00">Marmot/MarmotTensor.h</text>
</a>
</g>
</g>
<!-- Node3&#45;&gt;Node6 -->
<g id="edge5" class="edge">
<title>Node3&#45;&gt;Node6</title>
<path fill="none" stroke="midnightblue" d="M254.84,-313.4C249.9,-303.66 243.29,-290.65 237.99,-280.21"/>
<polygon fill="midnightblue" stroke="midnightblue" points="241.06,-278.53 233.41,-271.19 234.82,-281.7 241.06,-278.53"/>
</g>
<!-- Node21 -->
<g id="node21" class="node">
<title>Node21</title>
<g id="a_node21"><a xlink:title=" ">
<polygon fill="white" stroke="#bfbfbf" points="360,-67.5 360,-97.5 464,-97.5 464,-67.5 360,-67.5"/>
<text text-anchor="start" x="368" y="-85.5" font-family="Helvetica,sans-Serif" font-size="10.00">autodiff/forward/dual</text>
<text text-anchor="middle" x="412" y="-74.5" font-family="Helvetica,sans-Serif" font-size="10.00">/dual.hpp</text>
</a>
</g>
</g>
<!-- Node3&#45;&gt;Node21 -->
<g id="edge27" class="edge">
<title>Node3&#45;&gt;Node21</title>
<path fill="none" stroke="midnightblue" d="M282.44,-313.34C309.5,-293.46 356.75,-254.68 382,-210 400.35,-177.53 407.51,-134.28 410.28,-107.69"/>
<polygon fill="midnightblue" stroke="midnightblue" points="413.77,-107.99 411.19,-97.72 406.8,-107.35 413.77,-107.99"/>
</g>
<!-- Node7 -->
<g id="node7" class="node">
<title>Node7</title>
<g id="a_node7"><a xlink:href="MarmotJournal_8h.html" target="_top" xlink:title=" ">
<polygon fill="white" stroke="black" points="247.5,-134.5 247.5,-153.5 372.5,-153.5 372.5,-134.5 247.5,-134.5"/>
<text text-anchor="middle" x="310" y="-141.5" font-family="Helvetica,sans-Serif" font-size="10.00">Marmot/MarmotJournal.h</text>
</a>
</g>
</g>
<!-- Node6&#45;&gt;Node7 -->
<g id="edge6" class="edge">
<title>Node6&#45;&gt;Node7</title>
<path fill="none" stroke="midnightblue" d="M229.49,-251.92C230.66,-237.84 234.63,-209.42 248,-190 256.98,-176.95 271.03,-166.31 283.48,-158.65"/>
<polygon fill="midnightblue" stroke="midnightblue" points="285.27,-161.66 292.17,-153.61 281.76,-155.6 285.27,-161.66"/>
</g>
<!-- Node6&#45;&gt;Node11 -->
<g id="edge10" class="edge">
<title>Node6&#45;&gt;Node11</title>
<path fill="none" stroke="midnightblue" d="M206.62,-251.92C188.82,-243.87 164.85,-230.06 152,-210 130.71,-176.77 129.82,-128.72 131.27,-102.44"/>
<polygon fill="midnightblue" stroke="midnightblue" points="134.77,-102.54 132.01,-92.32 127.79,-102.03 134.77,-102.54"/>
</g>
<!-- Node14 -->
<g id="node14" class="node">
<title>Node14</title>
<g id="a_node14"><a xlink:href="MarmotVoigt_8h.html" target="_top" xlink:title=" ">
<polygon fill="white" stroke="black" points="257,-190.5 257,-209.5 373,-209.5 373,-190.5 257,-190.5"/>
<text text-anchor="middle" x="315" y="-197.5" font-family="Helvetica,sans-Serif" font-size="10.00">Marmot/MarmotVoigt.h</text>
</a>
</g>
</g>
<!-- Node6&#45;&gt;Node14 -->
<g id="edge14" class="edge">
<title>Node6&#45;&gt;Node14</title>
<path fill="none" stroke="midnightblue" d="M241.32,-251.98C255.12,-242.43 277.7,-226.81 294.23,-215.37"/>
<polygon fill="midnightblue" stroke="midnightblue" points="296.47,-218.08 302.7,-209.51 292.49,-212.32 296.47,-218.08"/>
</g>
<!-- Node23 -->
<g id="node23" class="node">
<title>Node23</title>
<g id="a_node23"><a xlink:title=" ">
<polygon fill="white" stroke="#bfbfbf" points="161.5,-190.5 161.5,-209.5 200.5,-209.5 200.5,-190.5 161.5,-190.5"/>
<text text-anchor="middle" x="181" y="-197.5" font-family="Helvetica,sans-Serif" font-size="10.00">utility</text>
</a>
</g>
</g>
<!-- Node6&#45;&gt;Node23 -->
<g id="edge26" class="edge">
<title>Node6&#45;&gt;Node23</title>
<path fill="none" stroke="midnightblue" d="M222.12,-251.98C214.85,-242.96 203.2,-228.52 194.16,-217.31"/>
<polygon fill="midnightblue" stroke="midnightblue" points="196.87,-215.09 187.86,-209.51 191.42,-219.49 196.87,-215.09"/>
</g>
<!-- Node8 -->
<g id="node8" class="node">
<title>Node8</title>
<g id="a_node8"><a xlink:title=" ">
<polygon fill="white" stroke="#bfbfbf" points="288,-73 288,-92 342,-92 342,-73 288,-73"/>
<text text-anchor="middle" x="315" y="-80" font-family="Helvetica,sans-Serif" font-size="10.00">iostream</text>
</a>
</g>
</g>
<!-- Node7&#45;&gt;Node8 -->
<g id="edge7" class="edge">
<title>Node7&#45;&gt;Node8</title>
<path fill="none" stroke="midnightblue" d="M310.72,-134.48C311.42,-126.08 312.52,-112.98 313.43,-102.16"/>
<polygon fill="midnightblue" stroke="midnightblue" points="316.94,-102.27 314.28,-92.01 309.96,-101.68 316.94,-102.27"/>
</g>
<!-- Node9 -->
<g id="node9" class="node">
<title>Node9</title>
<g id="a_node9"><a xlink:title=" ">
<polygon fill="white" stroke="#bfbfbf" points="218,-73 218,-92 270,-92 270,-73 218,-73"/>
<text text-anchor="middle" x="244" y="-80" font-family="Helvetica,sans-Serif" font-size="10.00">sstream</text>
</a>
</g>
</g>
<!-- Node7&#45;&gt;Node9 -->
<g id="edge8" class="edge">
<title>Node7&#45;&gt;Node9</title>
<path fill="none" stroke="midnightblue" d="M300.54,-134.48C290.25,-125.2 273.58,-110.17 261.01,-98.83"/>
<polygon fill="midnightblue" stroke="midnightblue" points="263.21,-96.11 253.44,-92.01 258.52,-101.3 263.21,-96.11"/>
</g>
<!-- Node7&#45;&gt;Node10 -->
<g id="edge9" class="edge">
<title>Node7&#45;&gt;Node10</title>
<path fill="none" stroke="midnightblue" d="M372.55,-139.87C545.46,-131.12 1019.38,-106.52 1052,-98 1053.93,-97.5 1055.89,-96.86 1057.82,-96.15"/>
<polygon fill="midnightblue" stroke="midnightblue" points="1059.41,-99.28 1067.18,-92.07 1056.61,-92.86 1059.41,-99.28"/>
</g>
<!-- Node11&#45;&gt;Node4 -->
<g id="edge11" class="edge">
<title>Node11&#45;&gt;Node4</title>
<path fill="none" stroke="midnightblue" d="M120.59,-72.73C105.42,-62.01 79.52,-43.72 61.4,-30.91"/>
<polygon fill="midnightblue" stroke="midnightblue" points="63.4,-28.04 53.21,-25.13 59.36,-33.76 63.4,-28.04"/>
</g>
<!-- Node12 -->
<g id="node12" class="node">
<title>Node12</title>
<g id="a_node12"><a xlink:title=" ">
<polygon fill="white" stroke="#bfbfbf" points="93.5,-6 93.5,-25 164.5,-25 164.5,-6 93.5,-6"/>
<text text-anchor="middle" x="129" y="-13" font-family="Helvetica,sans-Serif" font-size="10.00">Eigen/Dense</text>
</a>
</g>
</g>
<!-- Node11&#45;&gt;Node12 -->
<g id="edge12" class="edge">
<title>Node11&#45;&gt;Node12</title>
<path fill="none" stroke="midnightblue" d="M132.46,-72.73C131.87,-63.18 130.91,-47.62 130.16,-35.28"/>
<polygon fill="midnightblue" stroke="midnightblue" points="133.64,-34.89 129.53,-25.13 126.65,-35.32 133.64,-34.89"/>
</g>
<!-- Node13 -->
<g id="node13" class="node">
<title>Node13</title>
<g id="a_node13"><a xlink:title=" ">
<polygon fill="white" stroke="#bfbfbf" points="182.5,-0.5 182.5,-30.5 313.5,-30.5 313.5,-0.5 182.5,-0.5"/>
<text text-anchor="start" x="190.5" y="-18.5" font-family="Helvetica,sans-Serif" font-size="10.00">unsupported/Eigen/CXX11</text>
<text text-anchor="middle" x="248" y="-7.5" font-family="Helvetica,sans-Serif" font-size="10.00">/Tensor</text>
</a>
</g>
</g>
<!-- Node11&#45;&gt;Node13 -->
<g id="edge13" class="edge">
<title>Node11&#45;&gt;Node13</title>
<path fill="none" stroke="midnightblue" d="M148.51,-72.73C165.25,-63.27 192.42,-47.91 214.14,-35.64"/>
<polygon fill="midnightblue" stroke="midnightblue" points="216.09,-38.56 223.07,-30.59 212.65,-32.46 216.09,-38.56"/>
</g>
<!-- Node14&#45;&gt;Node7 -->
<g id="edge15" class="edge">
<title>Node14&#45;&gt;Node7</title>
<path fill="none" stroke="midnightblue" d="M314.17,-190.08C313.52,-183.01 312.58,-172.86 311.76,-163.99"/>
<polygon fill="midnightblue" stroke="midnightblue" points="315.22,-163.39 310.81,-153.75 308.25,-164.03 315.22,-163.39"/>
</g>
<!-- Node14&#45;&gt;Node11 -->
<g id="edge25" class="edge">
<title>Node14&#45;&gt;Node11</title>
<path fill="none" stroke="midnightblue" d="M299.78,-190.48C284.13,-181.63 259.12,-167.24 238,-154 208.35,-135.41 174.91,-112.63 153.9,-98.09"/>
<polygon fill="midnightblue" stroke="midnightblue" points="155.65,-95.05 145.44,-92.22 151.66,-100.8 155.65,-95.05"/>
</g>
<!-- Node14&#45;&gt;Node15 -->
<g id="edge16" class="edge">
<title>Node14&#45;&gt;Node15</title>
<path fill="none" stroke="midnightblue" d="M357.15,-190.44C403.75,-180.98 478.84,-165.74 529.05,-155.55"/>
<polygon fill="midnightblue" stroke="midnightblue" points="529.94,-158.94 539.05,-153.52 528.55,-152.08 529.94,-158.94"/>
</g>
<!-- Node15&#45;&gt;Node11 -->
<g id="edge19" class="edge">
<title>Node15&#45;&gt;Node11</title>
<path fill="none" stroke="midnightblue" d="M523.48,-137.27C450.24,-129.69 319.88,-115.26 209,-98 201.25,-96.79 193.09,-95.38 185.1,-93.93"/>
<polygon fill="midnightblue" stroke="midnightblue" points="185.59,-90.46 175.12,-92.07 184.31,-97.34 185.59,-90.46"/>
</g>
<!-- Node16 -->
<g id="node16" class="node">
<title>Node16</title>
<g id="a_node16"><a xlink:href="MarmotConstants_8h.html" target="_top" xlink:title=" ">
<polygon fill="white" stroke="black" points="765.5,-73 765.5,-92 902.5,-92 902.5,-73 765.5,-73"/>
<text text-anchor="middle" x="834" y="-80" font-family="Helvetica,sans-Serif" font-size="10.00">Marmot/MarmotConstants.h</text>
</a>
</g>
</g>
<!-- Node15&#45;&gt;Node16 -->
<g id="edge17" class="edge">
<title>Node15&#45;&gt;Node16</title>
<path fill="none" stroke="midnightblue" d="M617.25,-134.48C662.15,-123.92 738.71,-105.91 787.78,-94.37"/>
<polygon fill="midnightblue" stroke="midnightblue" points="788.89,-97.71 797.82,-92.01 787.28,-90.89 788.89,-97.71"/>
</g>
<!-- Node18 -->
<g id="node18" class="node">
<title>Node18</title>
<g id="a_node18"><a xlink:title=" ">
<polygon fill="white" stroke="#bfbfbf" points="921,-73 921,-92 1043,-92 1043,-73 921,-73"/>
<text text-anchor="middle" x="982" y="-80" font-family="Helvetica,sans-Serif" font-size="10.00">autodiff/forward/dual.hpp</text>
</a>
</g>
</g>
<!-- Node15&#45;&gt;Node18 -->
<g id="edge20" class="edge">
<title>Node15&#45;&gt;Node18</title>
<path fill="none" stroke="midnightblue" d="M638.59,-136.4C704.77,-128.52 816.54,-114.36 912,-98 918.82,-96.83 925.99,-95.48 933.04,-94.09"/>
<polygon fill="midnightblue" stroke="midnightblue" points="934.11,-97.45 943.21,-92.03 932.72,-90.58 934.11,-97.45"/>
</g>
<!-- Node19 -->
<g id="node19" class="node">
<title>Node19</title>
<g id="a_node19"><a xlink:title=" ">
<polygon fill="white" stroke="#bfbfbf" points="482,-73 482,-92 602,-92 602,-73 482,-73"/>
<text text-anchor="middle" x="542" y="-80" font-family="Helvetica,sans-Serif" font-size="10.00">autodiff/forward/real.hpp</text>
</a>
</g>
</g>
<!-- Node15&#45;&gt;Node19 -->
<g id="edge21" class="edge">
<title>Node15&#45;&gt;Node19</title>
<path fill="none" stroke="midnightblue" d="M575.41,-134.48C569.62,-125.64 560.41,-111.59 553.13,-100.48"/>
<polygon fill="midnightblue" stroke="midnightblue" points="555.99,-98.45 547.58,-92.01 550.13,-102.29 555.99,-98.45"/>
</g>
<!-- Node20 -->
<g id="node20" class="node">
<title>Node20</title>
<g id="a_node20"><a xlink:title=" ">
<polygon fill="white" stroke="#bfbfbf" points="620,-73 620,-92 676,-92 676,-73 620,-73"/>
<text text-anchor="middle" x="648" y="-80" font-family="Helvetica,sans-Serif" font-size="10.00">algorithm</text>
</a>
</g>
</g>
<!-- Node15&#45;&gt;Node20 -->
<g id="edge22" class="edge">
<title>Node15&#45;&gt;Node20</title>
<path fill="none" stroke="midnightblue" d="M590.6,-134.48C601.05,-125.2 617.97,-110.17 630.74,-98.83"/>
<polygon fill="midnightblue" stroke="midnightblue" points="633.27,-101.27 638.42,-92.01 628.62,-96.03 633.27,-101.27"/>
</g>
<!-- Node15&#45;&gt;Node21 -->
<g id="edge23" class="edge">
<title>Node15&#45;&gt;Node21</title>
<path fill="none" stroke="midnightblue" d="M556.79,-134.48C531.97,-125.74 492.69,-111.91 461.29,-100.86"/>
<polygon fill="midnightblue" stroke="midnightblue" points="462.42,-97.54 451.83,-97.52 460.1,-104.15 462.42,-97.54"/>
</g>
<!-- Node22 -->
<g id="node22" class="node">
<title>Node22</title>
<g id="a_node22"><a xlink:title=" ">
<polygon fill="white" stroke="#bfbfbf" points="694.5,-73 694.5,-92 747.5,-92 747.5,-73 694.5,-73"/>
<text text-anchor="middle" x="721" y="-80" font-family="Helvetica,sans-Serif" font-size="10.00">complex</text>
</a>
</g>
</g>
<!-- Node15&#45;&gt;Node22 -->
<g id="edge24" class="edge">
<title>Node15&#45;&gt;Node22</title>
<path fill="none" stroke="midnightblue" d="M601.06,-134.48C624.76,-124.4 664.41,-107.55 691.58,-96"/>
<polygon fill="midnightblue" stroke="midnightblue" points="693.14,-99.14 700.98,-92.01 690.41,-92.7 693.14,-99.14"/>
</g>
<!-- Node17 -->
<g id="node17" class="node">
<title>Node17</title>
<g id="a_node17"><a xlink:title=" ">
<polygon fill="white" stroke="#bfbfbf" points="812,-6 812,-25 856,-25 856,-6 812,-6"/>
<text text-anchor="middle" x="834" y="-13" font-family="Helvetica,sans-Serif" font-size="10.00">cmath</text>
</a>
</g>
</g>
<!-- Node16&#45;&gt;Node17 -->
<g id="edge18" class="edge">
<title>Node16&#45;&gt;Node17</title>
<path fill="none" stroke="midnightblue" d="M834,-72.73C834,-63.18 834,-47.62 834,-35.28"/>
<polygon fill="midnightblue" stroke="midnightblue" points="837.5,-35.13 834,-25.13 830.5,-35.13 837.5,-35.13"/>
</g>
<!-- Node24&#45;&gt;Node3 -->
<g id="edge30" class="edge">
<title>Node24&#45;&gt;Node3</title>
<path fill="none" stroke="midnightblue" d="M461.98,-380.48C422.4,-370.39 368.87,-356.74 327.15,-346.11"/>
<polygon fill="midnightblue" stroke="midnightblue" points="327.91,-342.69 317.36,-343.61 326.18,-349.47 327.91,-342.69"/>
</g>
<!-- Node24&#45;&gt;Node5 -->
<g id="edge29" class="edge">
<title>Node24&#45;&gt;Node5</title>
<path fill="none" stroke="midnightblue" d="M522.87,-380.12C526.77,-370.13 531.74,-356.43 535,-344 540.56,-322.79 544.47,-297.87 546.72,-281.23"/>
<polygon fill="midnightblue" stroke="midnightblue" points="550.21,-281.53 548.01,-271.17 543.26,-280.64 550.21,-281.53"/>
</g>
<!-- Node25&#45;&gt;Node3 -->
<g id="edge33" class="edge">
<title>Node25&#45;&gt;Node3</title>
<path fill="none" stroke="midnightblue" d="M337.17,-380.4C323.71,-371.28 306,-359.29 291.15,-349.24"/>
<polygon fill="midnightblue" stroke="midnightblue" points="293.03,-346.28 282.79,-343.58 289.11,-352.08 293.03,-346.28"/>
</g>
<!-- Node26 -->
<g id="node26" class="node">
<title>Node26</title>
<g id="a_node26"><a xlink:href="MarmotTensorExponential_8h.html" target="_top" xlink:title=" ">
<polygon fill="white" stroke="black" points="352.5,-319 352.5,-338 525.5,-338 525.5,-319 352.5,-319"/>
<text text-anchor="middle" x="439" y="-326" font-family="Helvetica,sans-Serif" font-size="10.00">Marmot/MarmotTensorExponential.h</text>
</a>
</g>
</g>
<!-- Node25&#45;&gt;Node26 -->
<g id="edge34" class="edge">
<title>Node25&#45;&gt;Node26</title>
<path fill="none" stroke="midnightblue" d="M375.58,-380.4C388.71,-369.86 406.63,-355.48 420.07,-344.69"/>
<polygon fill="midnightblue" stroke="midnightblue" points="422.56,-347.18 428.17,-338.19 418.18,-341.72 422.56,-347.18"/>
</g>
<!-- Node26&#45;&gt;Node5 -->
<g id="edge35" class="edge">
<title>Node26&#45;&gt;Node5</title>
<path fill="none" stroke="midnightblue" d="M453.84,-318.73C472.31,-307.82 504.07,-289.05 525.78,-276.22"/>
<polygon fill="midnightblue" stroke="midnightblue" points="527.57,-279.23 534.4,-271.13 524.01,-273.2 527.57,-279.23"/>
</g>
<!-- Node26&#45;&gt;Node8 -->
<g id="edge37" class="edge">
<title>Node26&#45;&gt;Node8</title>
<path fill="none" stroke="midnightblue" d="M438.32,-318.97C435.67,-290.33 423.96,-195.97 381,-134 370.48,-118.83 353.99,-106.2 340.12,-97.37"/>
<polygon fill="midnightblue" stroke="midnightblue" points="341.84,-94.32 331.47,-92.13 338.21,-100.31 341.84,-94.32"/>
</g>
<!-- Node26&#45;&gt;Node15 -->
<g id="edge36" class="edge">
<title>Node26&#45;&gt;Node15</title>
<path fill="none" stroke="midnightblue" d="M445.17,-318.83C455.91,-303.83 478.79,-272.13 499,-246 522.47,-215.65 550.9,-181.11 567.37,-161.3"/>
<polygon fill="midnightblue" stroke="midnightblue" points="570.13,-163.46 573.84,-153.54 564.75,-158.98 570.13,-163.46"/>
</g>
<!-- Node27&#45;&gt;Node5 -->
<g id="edge39" class="edge">
<title>Node27&#45;&gt;Node5</title>
<path fill="none" stroke="midnightblue" d="M682.11,-313.4C651.89,-301.84 609.56,-285.66 580.81,-274.66"/>
<polygon fill="midnightblue" stroke="midnightblue" points="581.84,-271.31 571.25,-271.01 579.34,-277.85 581.84,-271.31"/>
</g>
<!-- Node28 -->
<g id="node28" class="node">
<title>Node28</title>
<g id="a_node28"><a xlink:href="MarmotMaterial_8h.html" target="_top" xlink:title=" ">
<polygon fill="white" stroke="black" points="781,-252 781,-271 909,-271 909,-252 781,-252"/>
<text text-anchor="middle" x="845" y="-259" font-family="Helvetica,sans-Serif" font-size="10.00">Marmot/MarmotMaterial.h</text>
</a>
</g>
</g>
<!-- Node27&#45;&gt;Node28 -->
<g id="edge40" class="edge">
<title>Node27&#45;&gt;Node28</title>
<path fill="none" stroke="midnightblue" d="M746.34,-313.4C768.06,-302.19 798.2,-286.64 819.44,-275.69"/>
<polygon fill="midnightblue" stroke="midnightblue" points="821.23,-278.7 828.51,-271.01 818.02,-272.48 821.23,-278.7"/>
</g>
<!-- Node30 -->
<g id="node30" class="node">
<title>Node30</title>
<g id="a_node30"><a xlink:title=" ">
<polygon fill="white" stroke="#bfbfbf" points="647.5,-252 647.5,-271 762.5,-271 762.5,-252 647.5,-252"/>
<text text-anchor="middle" x="705" y="-259" font-family="Helvetica,sans-Serif" font-size="10.00">Fastor/tensor/Tensor.h</text>
</a>
</g>
</g>
<!-- Node27&#45;&gt;Node30 -->
<g id="edge43" class="edge">
<title>Node27&#45;&gt;Node30</title>
<path fill="none" stroke="midnightblue" d="M715.96,-313.4C713.93,-303.96 711.24,-291.45 709.03,-281.19"/>
<polygon fill="midnightblue" stroke="midnightblue" points="712.4,-280.23 706.87,-271.19 705.56,-281.71 712.4,-280.23"/>
</g>
<!-- Node28&#45;&gt;Node10 -->
<g id="edge42" class="edge">
<title>Node28&#45;&gt;Node10</title>
<path fill="none" stroke="midnightblue" d="M827.34,-251.86C803.52,-239.03 765.94,-213.87 783,-190 856.48,-87.21 935.13,-146.02 1052,-98 1053.2,-97.51 1054.43,-96.99 1055.66,-96.45"/>
<polygon fill="midnightblue" stroke="midnightblue" points="1057.4,-99.5 1065.03,-92.14 1054.48,-93.14 1057.4,-99.5"/>
</g>
<!-- Node29 -->
<g id="node29" class="node">
<title>Node29</title>
<g id="a_node29"><a xlink:href="MarmotUtils_8h.html" target="_top" xlink:title=" ">
<polygon fill="white" stroke="black" points="791.5,-190.5 791.5,-209.5 904.5,-209.5 904.5,-190.5 791.5,-190.5"/>
<text text-anchor="middle" x="848" y="-197.5" font-family="Helvetica,sans-Serif" font-size="10.00">Marmot/MarmotUtils.h</text>
</a>
</g>
</g>
<!-- Node28&#45;&gt;Node29 -->
<g id="edge41" class="edge">
<title>Node28&#45;&gt;Node29</title>
<path fill="none" stroke="midnightblue" d="M845.43,-251.98C845.85,-243.58 846.51,-230.48 847.06,-219.66"/>
<polygon fill="midnightblue" stroke="midnightblue" points="850.56,-219.67 847.57,-209.51 843.57,-219.32 850.56,-219.67"/>
</g>
<!-- Node31&#45;&gt;Node10 -->
<g id="edge48" class="edge">
<title>Node31&#45;&gt;Node10</title>
<path fill="none" stroke="midnightblue" d="M981.5,-246.33C963.77,-232.72 943.02,-211.18 953,-190 973.87,-145.72 1023.18,-113.58 1054.44,-96.79"/>
<polygon fill="midnightblue" stroke="midnightblue" points="1056.25,-99.79 1063.5,-92.07 1053.02,-93.58 1056.25,-99.79"/>
</g>
<!-- Node31&#45;&gt;Node29 -->
<g id="edge46" class="edge">
<title>Node31&#45;&gt;Node29</title>
<path fill="none" stroke="midnightblue" d="M966.27,-246.4C940.03,-236.33 905.07,-222.91 879.98,-213.28"/>
<polygon fill="midnightblue" stroke="midnightblue" points="881.14,-209.97 870.55,-209.66 878.64,-216.51 881.14,-209.97"/>
</g>
<!-- Node32 -->
<g id="node32" class="node">
<title>Node32</title>
<g id="a_node32"><a xlink:title=" ">
<polygon fill="white" stroke="#bfbfbf" points="1125.5,-190.5 1125.5,-209.5 1176.5,-209.5 1176.5,-190.5 1125.5,-190.5"/>
<text text-anchor="middle" x="1151" y="-197.5" font-family="Helvetica,sans-Serif" font-size="10.00">memory</text>
</a>
</g>
</g>
<!-- Node31&#45;&gt;Node32 -->
<g id="edge47" class="edge">
<title>Node31&#45;&gt;Node32</title>
<path fill="none" stroke="midnightblue" d="M1038.07,-246.4C1063.02,-236.37 1096.21,-223.03 1120.14,-213.4"/>
<polygon fill="midnightblue" stroke="midnightblue" points="1121.49,-216.64 1129.46,-209.66 1118.88,-210.14 1121.49,-216.64"/>
</g>
<!-- Node33 -->
<g id="node33" class="node">
<title>Node33</title>
<g id="a_node33"><a xlink:title=" ">
<polygon fill="white" stroke="#bfbfbf" points="961.5,-190.5 961.5,-209.5 1044.5,-209.5 1044.5,-190.5 961.5,-190.5"/>
<text text-anchor="middle" x="1003" y="-197.5" font-family="Helvetica,sans-Serif" font-size="10.00">unordered_map</text>
</a>
</g>
</g>
<!-- Node31&#45;&gt;Node33 -->
<g id="edge49" class="edge">
<title>Node31&#45;&gt;Node33</title>
<path fill="none" stroke="midnightblue" d="M1003,-246.4C1003,-238.47 1003,-228.46 1003,-219.86"/>
<polygon fill="midnightblue" stroke="midnightblue" points="1006.5,-219.66 1003,-209.66 999.5,-219.66 1006.5,-219.66"/>
</g>
<!-- Node34 -->
<g id="node34" class="node">
<title>Node34</title>
<g id="a_node34"><a xlink:title=" ">
<polygon fill="white" stroke="#bfbfbf" points="1063,-190.5 1063,-209.5 1107,-209.5 1107,-190.5 1063,-190.5"/>
<text text-anchor="middle" x="1085" y="-197.5" font-family="Helvetica,sans-Serif" font-size="10.00">vector</text>
</a>
</g>
</g>
<!-- Node31&#45;&gt;Node34 -->
<g id="edge50" class="edge">
<title>Node31&#45;&gt;Node34</title>
<path fill="none" stroke="midnightblue" d="M1022.43,-246.4C1035.21,-237.13 1051.89,-225.03 1064.81,-215.65"/>
<polygon fill="midnightblue" stroke="midnightblue" points="1067.03,-218.36 1073.07,-209.66 1062.92,-212.7 1067.03,-218.36"/>
</g>
</g>
</svg>
