<?xml version="1.0" encoding="UTF-8" standalone="no"?>
<!DOCTYPE svg PUBLIC "-//W3C//DTD SVG 1.1//EN"
 "http://www.w3.org/Graphics/SVG/1.1/DTD/svg11.dtd">
<!-- Generated by graphviz version 2.44.0 ()
 -->
<!-- Title: modules/materials/FiniteStrainJ2Plasticity/src/FiniteStrainJ2Plasticity.cpp Pages: 1 -->
<svg width="2075pt" height="553pt"
 viewBox="0.00 0.00 2074.50 553.00" xmlns="http://www.w3.org/2000/svg" xmlns:xlink="http://www.w3.org/1999/xlink">
<g id="graph0" class="graph" transform="scale(1 1) rotate(0) translate(4 549)">
<title>modules/materials/FiniteStrainJ2Plasticity/src/FiniteStrainJ2Plasticity.cpp</title>
<polygon fill="white" stroke="transparent" points="-4,4 -4,-549 2070.5,-549 2070.5,4 -4,4"/>
<!-- Node1 -->
<g id="node1" class="node">
<title>Node1</title>
<g id="a_node1"><a xlink:title=" ">
<polygon fill="#bfbfbf" stroke="black" points="1404.5,-503.5 1404.5,-544.5 1541.5,-544.5 1541.5,-503.5 1404.5,-503.5"/>
<text text-anchor="start" x="1412.5" y="-532.5" font-family="Helvetica,sans-Serif" font-size="10.00">modules/materials/Finite</text>
<text text-anchor="start" x="1412.5" y="-521.5" font-family="Helvetica,sans-Serif" font-size="10.00">StrainJ2Plasticity/src</text>
<text text-anchor="middle" x="1473" y="-510.5" font-family="Helvetica,sans-Serif" font-size="10.00">/FiniteStrainJ2Plasticity.cpp</text>
</a>
</g>
</g>
<!-- Node2 -->
<g id="node2" class="node">
<title>Node2</title>
<g id="a_node2"><a xlink:href="FiniteStrainJ2Plasticity_8h.html" target="_top" xlink:title=" ">
<polygon fill="white" stroke="black" points="735,-442 735,-461 895,-461 895,-442 735,-442"/>
<text text-anchor="middle" x="815" y="-449" font-family="Helvetica,sans-Serif" font-size="10.00">Marmot/FiniteStrainJ2Plasticity.h</text>
</a>
</g>
</g>
<!-- Node1&#45;&gt;Node2 -->
<g id="edge1" class="edge">
<title>Node1&#45;&gt;Node2</title>
<path fill="none" stroke="midnightblue" d="M1404.46,-516.27C1302.04,-506.13 1102.98,-486.07 934,-467 920.9,-465.52 906.99,-463.89 893.49,-462.26"/>
<polygon fill="midnightblue" stroke="midnightblue" points="893.6,-458.75 883.25,-461.03 892.76,-465.7 893.6,-458.75"/>
</g>
<!-- Node3 -->
<g id="node3" class="node">
<title>Node3</title>
<g id="a_node3"><a xlink:href="MarmotDeformationMeasures_8h.html" target="_top" xlink:title=" ">
<polygon fill="white" stroke="black" points="759,-369.5 759,-399.5 897,-399.5 897,-369.5 759,-369.5"/>
<text text-anchor="start" x="767" y="-387.5" font-family="Helvetica,sans-Serif" font-size="10.00">Marmot/MarmotDeformation</text>
<text text-anchor="middle" x="828" y="-376.5" font-family="Helvetica,sans-Serif" font-size="10.00">Measures.h</text>
</a>
</g>
</g>
<!-- Node1&#45;&gt;Node3 -->
<g id="edge55" class="edge">
<title>Node1&#45;&gt;Node3</title>
<path fill="none" stroke="midnightblue" d="M1404.28,-511.4C1342.53,-500.73 1249.46,-484.01 1169,-467 1072.22,-446.54 960.9,-419.21 892.5,-401.98"/>
<polygon fill="midnightblue" stroke="midnightblue" points="893.28,-398.57 882.73,-399.52 891.57,-405.36 893.28,-398.57"/>
</g>
<!-- Node4 -->
<g id="node4" class="node">
<title>Node4</title>
<g id="a_node4"><a xlink:href="MarmotFastorTensorBasics_8h.html" target="_top" xlink:title=" ">
<polygon fill="white" stroke="black" points="773.5,-302.5 773.5,-332.5 916.5,-332.5 916.5,-302.5 773.5,-302.5"/>
<text text-anchor="start" x="781.5" y="-320.5" font-family="Helvetica,sans-Serif" font-size="10.00">Marmot/MarmotFastorTensor</text>
<text text-anchor="middle" x="845" y="-309.5" font-family="Helvetica,sans-Serif" font-size="10.00">Basics.h</text>
</a>
</g>
</g>
<!-- Node1&#45;&gt;Node4 -->
<g id="edge57" class="edge">
<title>Node1&#45;&gt;Node4</title>
<path fill="none" stroke="midnightblue" d="M1404.5,-523.05C1228.6,-522.46 771.61,-516.16 726,-467 709.02,-448.7 728.81,-385.49 742,-369 753.34,-354.83 769.65,-344.35 785.96,-336.73"/>
<polygon fill="midnightblue" stroke="midnightblue" points="787.76,-339.76 795.53,-332.56 784.96,-333.34 787.76,-339.76"/>
</g>
<!-- Node15 -->
<g id="node15" class="node">
<title>Node15</title>
<g id="a_node15"><a xlink:href="MarmotVoigt_8h.html" target="_top" xlink:title=" ">
<polygon fill="white" stroke="black" points="679,-190.5 679,-209.5 795,-209.5 795,-190.5 679,-190.5"/>
<text text-anchor="middle" x="737" y="-197.5" font-family="Helvetica,sans-Serif" font-size="10.00">Marmot/MarmotVoigt.h</text>
</a>
</g>
</g>
<!-- Node1&#45;&gt;Node15 -->
<g id="edge76" class="edge">
<title>Node1&#45;&gt;Node15</title>
<path fill="none" stroke="midnightblue" d="M1404.4,-523.45C1270.65,-523.1 966.17,-516.38 716,-467 621.96,-448.44 567.27,-477.6 511,-400 492.66,-374.71 527.22,-308.23 534,-302 582.25,-257.65 620.65,-299.47 677,-266 697.34,-253.92 714.92,-232.84 725.71,-217.97"/>
<polygon fill="midnightblue" stroke="midnightblue" points="728.66,-219.86 731.5,-209.65 722.92,-215.85 728.66,-219.86"/>
</g>
<!-- Node22 -->
<g id="node22" class="node">
<title>Node22</title>
<g id="a_node22"><a xlink:title=" ">
<polygon fill="white" stroke="#bfbfbf" points="1083,-67.5 1083,-97.5 1187,-97.5 1187,-67.5 1083,-67.5"/>
<text text-anchor="start" x="1091" y="-85.5" font-family="Helvetica,sans-Serif" font-size="10.00">autodiff/forward/dual</text>
<text text-anchor="middle" x="1135" y="-74.5" font-family="Helvetica,sans-Serif" font-size="10.00">/dual.hpp</text>
</a>
</g>
</g>
<!-- Node1&#45;&gt;Node22 -->
<g id="edge81" class="edge">
<title>Node1&#45;&gt;Node22</title>
<path fill="none" stroke="midnightblue" d="M1482.38,-503.28C1486.86,-492.77 1491.74,-479.46 1494,-467 1501.89,-423.5 1502.83,-404.88 1477,-369 1459.71,-344.99 1444.66,-350.77 1421,-333 1317.17,-254.99 1203.69,-149.21 1156.96,-104.66"/>
<polygon fill="midnightblue" stroke="midnightblue" points="1159.19,-101.94 1149.54,-97.56 1154.35,-107 1159.19,-101.94"/>
</g>
<!-- Node25 -->
<g id="node25" class="node">
<title>Node25</title>
<g id="a_node25"><a xlink:href="MarmotEnergyDensityFunctions_8h.html" target="_top" xlink:title=" ">
<polygon fill="white" stroke="black" points="915.5,-369.5 915.5,-399.5 1062.5,-399.5 1062.5,-369.5 915.5,-369.5"/>
<text text-anchor="start" x="923.5" y="-387.5" font-family="Helvetica,sans-Serif" font-size="10.00">Marmot/MarmotEnergyDensity</text>
<text text-anchor="middle" x="989" y="-376.5" font-family="Helvetica,sans-Serif" font-size="10.00">Functions.h</text>
</a>
</g>
</g>
<!-- Node1&#45;&gt;Node25 -->
<g id="edge56" class="edge">
<title>Node1&#45;&gt;Node25</title>
<path fill="none" stroke="midnightblue" d="M1404.43,-503.52C1309.16,-476.45 1138.36,-427.93 1048.3,-402.35"/>
<polygon fill="midnightblue" stroke="midnightblue" points="1049.1,-398.94 1038.53,-399.57 1047.19,-405.67 1049.1,-398.94"/>
</g>
<!-- Node28 -->
<g id="node28" class="node">
<title>Node28</title>
<g id="a_node28"><a xlink:href="MarmotMaterialFiniteStrain_8h.html" target="_top" xlink:title=" ">
<polygon fill="white" stroke="black" points="1119,-369.5 1119,-399.5 1263,-399.5 1263,-369.5 1119,-369.5"/>
<text text-anchor="start" x="1127" y="-387.5" font-family="Helvetica,sans-Serif" font-size="10.00">Marmot/MarmotMaterialFinite</text>
<text text-anchor="middle" x="1191" y="-376.5" font-family="Helvetica,sans-Serif" font-size="10.00">Strain.h</text>
</a>
</g>
</g>
<!-- Node1&#45;&gt;Node28 -->
<g id="edge58" class="edge">
<title>Node1&#45;&gt;Node28</title>
<path fill="none" stroke="midnightblue" d="M1432.9,-503.45C1378.53,-476.94 1282.14,-429.94 1228.92,-403.99"/>
<polygon fill="midnightblue" stroke="midnightblue" points="1230.34,-400.79 1219.82,-399.55 1227.28,-407.08 1230.34,-400.79"/>
</g>
<!-- Node31 -->
<g id="node31" class="node">
<title>Node31</title>
<g id="a_node31"><a xlink:title=" ">
<polygon fill="white" stroke="#bfbfbf" points="1157.5,-308 1157.5,-327 1272.5,-327 1272.5,-308 1157.5,-308"/>
<text text-anchor="middle" x="1215" y="-315" font-family="Helvetica,sans-Serif" font-size="10.00">Fastor/tensor/Tensor.h</text>
</a>
</g>
</g>
<!-- Node1&#45;&gt;Node31 -->
<g id="edge78" class="edge">
<title>Node1&#45;&gt;Node31</title>
<path fill="none" stroke="midnightblue" d="M1477.1,-503.27C1482.6,-470.77 1488.09,-405.9 1454,-369 1399.82,-310.36 1356.02,-349.96 1278,-333 1272.58,-331.82 1266.91,-330.56 1261.29,-329.29"/>
<polygon fill="midnightblue" stroke="midnightblue" points="1261.81,-325.82 1251.28,-327.01 1260.25,-332.64 1261.81,-325.82"/>
</g>
<!-- Node36 -->
<g id="node36" class="node">
<title>Node36</title>
<g id="a_node36"><a xlink:href="MarmotNumericalDifferentiation_8h.html" target="_top" xlink:title=" ">
<polygon fill="white" stroke="black" points="1577.5,-308 1577.5,-327 1774.5,-327 1774.5,-308 1577.5,-308"/>
<text text-anchor="middle" x="1676" y="-315" font-family="Helvetica,sans-Serif" font-size="10.00">Marmot/MarmotNumericalDifferentiation.h</text>
</a>
</g>
</g>
<!-- Node1&#45;&gt;Node36 -->
<g id="edge59" class="edge">
<title>Node1&#45;&gt;Node36</title>
<path fill="none" stroke="midnightblue" d="M1509.92,-503.4C1528.15,-493.23 1550.22,-480.21 1569,-467 1586.55,-454.66 1586.99,-445.94 1606,-436 1659.89,-407.82 1701.09,-448.33 1738,-400 1756.07,-376.34 1723.98,-348.77 1699.61,-332.52"/>
<polygon fill="midnightblue" stroke="midnightblue" points="1701.4,-329.51 1691.09,-327.07 1697.63,-335.41 1701.4,-329.51"/>
</g>
<!-- Node38 -->
<g id="node38" class="node">
<title>Node38</title>
<g id="a_node38"><a xlink:href="MarmotNumericalDifferentiationForFastor_8h.html" target="_top" xlink:title=" ">
<polygon fill="white" stroke="black" points="1539.5,-369.5 1539.5,-399.5 1728.5,-399.5 1728.5,-369.5 1539.5,-369.5"/>
<text text-anchor="start" x="1547.5" y="-387.5" font-family="Helvetica,sans-Serif" font-size="10.00">Marmot/MarmotNumericalDifferentiation</text>
<text text-anchor="middle" x="1634" y="-376.5" font-family="Helvetica,sans-Serif" font-size="10.00">ForFastor.h</text>
</a>
</g>
</g>
<!-- Node1&#45;&gt;Node38 -->
<g id="edge63" class="edge">
<title>Node1&#45;&gt;Node38</title>
<path fill="none" stroke="midnightblue" d="M1495.11,-503.49C1515.28,-485.76 1545.98,-458.93 1573,-436 1584.69,-426.07 1597.78,-415.21 1608.83,-406.11"/>
<polygon fill="midnightblue" stroke="midnightblue" points="1611.31,-408.59 1616.82,-399.54 1606.87,-403.19 1611.31,-408.59"/>
</g>
<!-- Node40 -->
<g id="node40" class="node">
<title>Node40</title>
<g id="a_node40"><a xlink:href="MarmotStressMeasures_8h.html" target="_top" xlink:title=" ">
<polygon fill="white" stroke="black" points="1281,-375 1281,-394 1445,-394 1445,-375 1281,-375"/>
<text text-anchor="middle" x="1363" y="-382" font-family="Helvetica,sans-Serif" font-size="10.00">Marmot/MarmotStressMeasures.h</text>
</a>
</g>
</g>
<!-- Node1&#45;&gt;Node40 -->
<g id="edge73" class="edge">
<title>Node1&#45;&gt;Node40</title>
<path fill="none" stroke="midnightblue" d="M1457.24,-503.3C1435.45,-476.06 1396.52,-427.4 1376.19,-401.99"/>
<polygon fill="midnightblue" stroke="midnightblue" points="1378.81,-399.66 1369.83,-394.04 1373.34,-404.03 1378.81,-399.66"/>
</g>
<!-- Node41 -->
<g id="node41" class="node">
<title>Node41</title>
<g id="a_node41"><a xlink:title=" ">
<polygon fill="white" stroke="#bfbfbf" points="1615,-436.5 1615,-466.5 1755,-466.5 1755,-436.5 1615,-436.5"/>
<text text-anchor="start" x="1623" y="-454.5" font-family="Helvetica,sans-Serif" font-size="10.00">Fastor/expressions</text>
<text text-anchor="middle" x="1685" y="-443.5" font-family="Helvetica,sans-Serif" font-size="10.00">/linalg_ops/unary_trans_op.h</text>
</a>
</g>
</g>
<!-- Node1&#45;&gt;Node41 -->
<g id="edge77" class="edge">
<title>Node1&#45;&gt;Node41</title>
<path fill="none" stroke="midnightblue" d="M1531.77,-503.46C1563.51,-492.9 1602.34,-479.99 1632.97,-469.8"/>
<polygon fill="midnightblue" stroke="midnightblue" points="1634.23,-473.07 1642.61,-466.6 1632.02,-466.43 1634.23,-473.07"/>
</g>
<!-- Node42 -->
<g id="node42" class="node">
<title>Node42</title>
<g id="a_node42"><a xlink:title=" ">
<polygon fill="white" stroke="#bfbfbf" points="1773.5,-436.5 1773.5,-466.5 1884.5,-466.5 1884.5,-436.5 1773.5,-436.5"/>
<text text-anchor="start" x="1781.5" y="-454.5" font-family="Helvetica,sans-Serif" font-size="10.00">Fastor/tensor_algebra</text>
<text text-anchor="middle" x="1829" y="-443.5" font-family="Helvetica,sans-Serif" font-size="10.00">/einsum_explicit.h</text>
</a>
</g>
</g>
<!-- Node1&#45;&gt;Node42 -->
<g id="edge79" class="edge">
<title>Node1&#45;&gt;Node42</title>
<path fill="none" stroke="midnightblue" d="M1541.61,-510.38C1598.35,-499.82 1681.28,-484.06 1763.35,-467.1"/>
<polygon fill="midnightblue" stroke="midnightblue" points="1764.27,-470.48 1773.35,-465.03 1762.85,-463.63 1764.27,-470.48"/>
</g>
<!-- Node43 -->
<g id="node43" class="node">
<title>Node43</title>
<g id="a_node43"><a xlink:title=" ">
<polygon fill="white" stroke="#bfbfbf" points="1902.5,-436.5 1902.5,-466.5 2013.5,-466.5 2013.5,-436.5 1902.5,-436.5"/>
<text text-anchor="start" x="1910.5" y="-454.5" font-family="Helvetica,sans-Serif" font-size="10.00">Fastor/tensor_algebra</text>
<text text-anchor="middle" x="1958" y="-443.5" font-family="Helvetica,sans-Serif" font-size="10.00">/indicial.h</text>
</a>
</g>
</g>
<!-- Node1&#45;&gt;Node43 -->
<g id="edge80" class="edge">
<title>Node1&#45;&gt;Node43</title>
<path fill="none" stroke="midnightblue" d="M1541.84,-515.78C1623.33,-506.8 1763.29,-490.02 1892.16,-467.24"/>
<polygon fill="midnightblue" stroke="midnightblue" points="1892.98,-470.65 1902.21,-465.45 1891.75,-463.76 1892.98,-470.65"/>
</g>
<!-- Node44 -->
<g id="node44" class="node">
<title>Node44</title>
<g id="a_node44"><a xlink:title=" ">
<polygon fill="white" stroke="#bfbfbf" points="2031.5,-442 2031.5,-461 2066.5,-461 2066.5,-442 2031.5,-442"/>
<text text-anchor="middle" x="2049" y="-449" font-family="Helvetica,sans-Serif" font-size="10.00">map</text>
</a>
</g>
</g>
<!-- Node1&#45;&gt;Node44 -->
<g id="edge82" class="edge">
<title>Node1&#45;&gt;Node44</title>
<path fill="none" stroke="midnightblue" d="M1541.96,-519.47C1668.99,-512.38 1935,-494.71 2023,-467 2024.25,-466.61 2025.5,-466.15 2026.75,-465.65"/>
<polygon fill="midnightblue" stroke="midnightblue" points="2028.54,-468.67 2035.98,-461.12 2025.46,-462.38 2028.54,-468.67"/>
</g>
<!-- Node2&#45;&gt;Node3 -->
<g id="edge2" class="edge">
<title>Node2&#45;&gt;Node3</title>
<path fill="none" stroke="midnightblue" d="M816.75,-441.73C818.39,-433.54 820.92,-420.92 823.16,-409.71"/>
<polygon fill="midnightblue" stroke="midnightblue" points="826.65,-410.08 825.18,-399.59 819.79,-408.71 826.65,-410.08"/>
</g>
<!-- Node2&#45;&gt;Node4 -->
<g id="edge33" class="edge">
<title>Node2&#45;&gt;Node4</title>
<path fill="none" stroke="midnightblue" d="M796.26,-441.93C780.67,-433.66 759.55,-419.51 750,-400 743.94,-387.62 742.9,-380.81 750,-369 758.45,-354.95 772.27,-344.59 786.79,-337.05"/>
<polygon fill="midnightblue" stroke="midnightblue" points="788.36,-340.18 795.88,-332.72 785.35,-333.86 788.36,-340.18"/>
</g>
<!-- Node11 -->
<g id="node11" class="node">
<title>Node11</title>
<g id="a_node11"><a xlink:title=" ">
<polygon fill="white" stroke="#bfbfbf" points="329.5,-73 329.5,-92 370.5,-92 370.5,-73 329.5,-73"/>
<text text-anchor="middle" x="350" y="-80" font-family="Helvetica,sans-Serif" font-size="10.00">string</text>
</a>
</g>
</g>
<!-- Node2&#45;&gt;Node11 -->
<g id="edge54" class="edge">
<title>Node2&#45;&gt;Node11</title>
<path fill="none" stroke="midnightblue" d="M735,-445.88C529.65,-432.96 0,-392.45 0,-318.5 0,-318.5 0,-318.5 0,-199 0,-132.04 233.95,-97.37 319.31,-86.94"/>
<polygon fill="midnightblue" stroke="midnightblue" points="319.9,-90.4 329.41,-85.74 319.07,-83.45 319.9,-90.4"/>
</g>
<!-- Node12 -->
<g id="node12" class="node">
<title>Node12</title>
<g id="a_node12"><a xlink:href="MarmotTypedefs_8h.html" target="_top" xlink:title=" ">
<polygon fill="white" stroke="black" points="1205.5,-73 1205.5,-92 1338.5,-92 1338.5,-73 1205.5,-73"/>
<text text-anchor="middle" x="1272" y="-80" font-family="Helvetica,sans-Serif" font-size="10.00">Marmot/MarmotTypedefs.h</text>
</a>
</g>
</g>
<!-- Node2&#45;&gt;Node12 -->
<g id="edge53" class="edge">
<title>Node2&#45;&gt;Node12</title>
<path fill="none" stroke="midnightblue" d="M895.24,-449.02C948.75,-444.75 1018.78,-432.59 1072,-400 1119.24,-371.07 1113.81,-344.78 1149,-302 1162.41,-285.69 1168.27,-283.56 1180,-266 1217.7,-209.56 1250.43,-135.56 1264.57,-101.76"/>
<polygon fill="midnightblue" stroke="midnightblue" points="1267.9,-102.86 1268.48,-92.28 1261.43,-100.18 1267.9,-102.86"/>
</g>
<!-- Node16 -->
<g id="node16" class="node">
<title>Node16</title>
<g id="a_node16"><a xlink:href="MarmotMath_8h.html" target="_top" xlink:title=" ">
<polygon fill="white" stroke="black" points="877.5,-134.5 877.5,-153.5 992.5,-153.5 992.5,-134.5 877.5,-134.5"/>
<text text-anchor="middle" x="935" y="-141.5" font-family="Helvetica,sans-Serif" font-size="10.00">Marmot/MarmotMath.h</text>
</a>
</g>
</g>
<!-- Node2&#45;&gt;Node16 -->
<g id="edge46" class="edge">
<title>Node2&#45;&gt;Node16</title>
<path fill="none" stroke="midnightblue" d="M734.78,-448.03C657.03,-443.74 547.01,-432.02 520,-400 511.12,-389.47 515.48,-382.01 520,-369 532.47,-333.14 541.21,-322.76 573,-302 626.08,-267.35 652.02,-289.23 711,-266 789.05,-235.26 874.48,-183.6 913.46,-158.93"/>
<polygon fill="midnightblue" stroke="midnightblue" points="915.36,-161.87 921.91,-153.54 911.6,-155.96 915.36,-161.87"/>
</g>
<!-- Node2&#45;&gt;Node25 -->
<g id="edge30" class="edge">
<title>Node2&#45;&gt;Node25</title>
<path fill="none" stroke="midnightblue" d="M838.11,-441.87C864.44,-432.03 908.19,-415.69 941.81,-403.13"/>
<polygon fill="midnightblue" stroke="midnightblue" points="943.31,-406.31 951.45,-399.53 940.86,-399.75 943.31,-406.31"/>
</g>
<!-- Node26 -->
<g id="node26" class="node">
<title>Node26</title>
<g id="a_node26"><a xlink:href="MarmotFiniteStrainPlasticity_8h.html" target="_top" xlink:title=" ">
<polygon fill="white" stroke="black" points="529.5,-369.5 529.5,-399.5 664.5,-399.5 664.5,-369.5 529.5,-369.5"/>
<text text-anchor="start" x="537.5" y="-387.5" font-family="Helvetica,sans-Serif" font-size="10.00">Marmot/MarmotFiniteStrain</text>
<text text-anchor="middle" x="597" y="-376.5" font-family="Helvetica,sans-Serif" font-size="10.00">Plasticity.h</text>
</a>
</g>
</g>
<!-- Node2&#45;&gt;Node26 -->
<g id="edge34" class="edge">
<title>Node2&#45;&gt;Node26</title>
<path fill="none" stroke="midnightblue" d="M786.05,-441.87C752.42,-431.84 696.13,-415.06 653.69,-402.4"/>
<polygon fill="midnightblue" stroke="midnightblue" points="654.63,-399.03 644.05,-399.53 652.63,-405.74 654.63,-399.03"/>
</g>
<!-- Node2&#45;&gt;Node28 -->
<g id="edge40" class="edge">
<title>Node2&#45;&gt;Node28</title>
<path fill="none" stroke="midnightblue" d="M864.54,-441.94C926.63,-431.2 1033.93,-412.65 1108.49,-399.76"/>
<polygon fill="midnightblue" stroke="midnightblue" points="1109.53,-403.14 1118.79,-397.98 1108.34,-396.24 1109.53,-403.14"/>
</g>
<!-- Node32 -->
<g id="node32" class="node">
<title>Node32</title>
<g id="a_node32"><a xlink:href="MarmotStateVarVectorManager_8h.html" target="_top" xlink:title=" ">
<polygon fill="white" stroke="black" points="170,-302.5 170,-332.5 322,-332.5 322,-302.5 170,-302.5"/>
<text text-anchor="start" x="178" y="-320.5" font-family="Helvetica,sans-Serif" font-size="10.00">Marmot/MarmotStateVarVector</text>
<text text-anchor="middle" x="246" y="-309.5" font-family="Helvetica,sans-Serif" font-size="10.00">Manager.h</text>
</a>
</g>
</g>
<!-- Node2&#45;&gt;Node32 -->
<g id="edge47" class="edge">
<title>Node2&#45;&gt;Node32</title>
<path fill="none" stroke="midnightblue" d="M734.71,-442.08C667.83,-434.13 570.4,-420.36 487,-400 417.15,-382.95 338.69,-354.63 290.81,-336.27"/>
<polygon fill="midnightblue" stroke="midnightblue" points="291.95,-332.95 281.36,-332.62 289.43,-339.49 291.95,-332.95"/>
</g>
<!-- Node3&#45;&gt;Node4 -->
<g id="edge3" class="edge">
<title>Node3&#45;&gt;Node4</title>
<path fill="none" stroke="midnightblue" d="M831.69,-369.4C833.76,-361.47 836.4,-351.38 838.78,-342.27"/>
<polygon fill="midnightblue" stroke="midnightblue" points="842.17,-343.14 841.32,-332.58 835.4,-341.37 842.17,-343.14"/>
</g>
<!-- Node5 -->
<g id="node5" class="node">
<title>Node5</title>
<g id="a_node5"><a xlink:title=" ">
<polygon fill="white" stroke="#bfbfbf" points="800,-6 800,-25 864,-25 864,-6 800,-6"/>
<text text-anchor="middle" x="832" y="-13" font-family="Helvetica,sans-Serif" font-size="10.00">Eigen/Core</text>
</a>
</g>
</g>
<!-- Node4&#45;&gt;Node5 -->
<g id="edge4" class="edge">
<title>Node4&#45;&gt;Node5</title>
<path fill="none" stroke="midnightblue" d="M773.46,-303.61C770.26,-303.06 767.1,-302.52 764,-302 713.42,-293.48 572.43,-302.12 536,-266 472.57,-203.11 449.91,-134.84 508,-67 543.79,-25.2 710.29,-17.73 789.68,-16.58"/>
<polygon fill="midnightblue" stroke="midnightblue" points="789.87,-20.08 799.82,-16.46 789.78,-13.08 789.87,-20.08"/>
</g>
<!-- Node6 -->
<g id="node6" class="node">
<title>Node6</title>
<g id="a_node6"><a xlink:title=" ">
<polygon fill="white" stroke="#bfbfbf" points="1087.5,-246.5 1087.5,-265.5 1170.5,-265.5 1170.5,-246.5 1087.5,-246.5"/>
<text text-anchor="middle" x="1129" y="-253.5" font-family="Helvetica,sans-Serif" font-size="10.00">Fastor/Fastor.h</text>
</a>
</g>
</g>
<!-- Node4&#45;&gt;Node6 -->
<g id="edge5" class="edge">
<title>Node4&#45;&gt;Node6</title>
<path fill="none" stroke="midnightblue" d="M911.94,-302.47C962.97,-291.78 1032.15,-277.29 1078.56,-267.57"/>
<polygon fill="midnightblue" stroke="midnightblue" points="1079.33,-270.98 1088.4,-265.51 1077.89,-264.13 1079.33,-270.98"/>
</g>
<!-- Node7 -->
<g id="node7" class="node">
<title>Node7</title>
<g id="a_node7"><a xlink:href="MarmotTensor_8h.html" target="_top" xlink:title=" ">
<polygon fill="white" stroke="black" points="545.5,-246.5 545.5,-265.5 668.5,-265.5 668.5,-246.5 545.5,-246.5"/>
<text text-anchor="middle" x="607" y="-253.5" font-family="Helvetica,sans-Serif" font-size="10.00">Marmot/MarmotTensor.h</text>
</a>
</g>
</g>
<!-- Node4&#45;&gt;Node7 -->
<g id="edge6" class="edge">
<title>Node4&#45;&gt;Node7</title>
<path fill="none" stroke="midnightblue" d="M788.9,-302.47C746.76,-291.94 689.86,-277.72 650.99,-268"/>
<polygon fill="midnightblue" stroke="midnightblue" points="651.58,-264.54 641.03,-265.51 649.88,-271.33 651.58,-264.54"/>
</g>
<!-- Node4&#45;&gt;Node22 -->
<g id="edge29" class="edge">
<title>Node4&#45;&gt;Node22</title>
<path fill="none" stroke="midnightblue" d="M862.7,-302.28C912.17,-262.53 1051.96,-150.22 1109.63,-103.88"/>
<polygon fill="midnightblue" stroke="midnightblue" points="1111.92,-106.53 1117.53,-97.54 1107.54,-101.07 1111.92,-106.53"/>
</g>
<!-- Node8 -->
<g id="node8" class="node">
<title>Node8</title>
<g id="a_node8"><a xlink:href="MarmotJournal_8h.html" target="_top" xlink:title=" ">
<polygon fill="white" stroke="black" points="583.5,-134.5 583.5,-153.5 708.5,-153.5 708.5,-134.5 583.5,-134.5"/>
<text text-anchor="middle" x="646" y="-141.5" font-family="Helvetica,sans-Serif" font-size="10.00">Marmot/MarmotJournal.h</text>
</a>
</g>
</g>
<!-- Node7&#45;&gt;Node8 -->
<g id="edge7" class="edge">
<title>Node7&#45;&gt;Node8</title>
<path fill="none" stroke="midnightblue" d="M606.15,-246.25C605.25,-233.45 604.79,-209.05 612,-190 616.01,-179.4 623.35,-169.18 630.19,-161.17"/>
<polygon fill="midnightblue" stroke="midnightblue" points="632.84,-163.45 636.96,-153.7 627.65,-158.75 632.84,-163.45"/>
</g>
<!-- Node9 -->
<g id="node9" class="node">
<title>Node9</title>
<g id="a_node9"><a xlink:title=" ">
<polygon fill="white" stroke="#bfbfbf" points="517,-73 517,-92 571,-92 571,-73 517,-73"/>
<text text-anchor="middle" x="544" y="-80" font-family="Helvetica,sans-Serif" font-size="10.00">iostream</text>
</a>
</g>
</g>
<!-- Node7&#45;&gt;Node9 -->
<g id="edge27" class="edge">
<title>Node7&#45;&gt;Node9</title>
<path fill="none" stroke="midnightblue" d="M603.79,-246.26C593.97,-219.54 564.21,-138.52 550.75,-101.86"/>
<polygon fill="midnightblue" stroke="midnightblue" points="553.86,-100.2 547.13,-92.02 547.29,-102.61 553.86,-100.2"/>
</g>
<!-- Node7&#45;&gt;Node12 -->
<g id="edge11" class="edge">
<title>Node7&#45;&gt;Node12</title>
<path fill="none" stroke="midnightblue" d="M650.79,-246.48C731.21,-230.52 907.64,-194.11 1054,-154 1120.06,-135.9 1195.88,-110.25 1238.45,-95.4"/>
<polygon fill="midnightblue" stroke="midnightblue" points="1239.74,-98.65 1248.02,-92.04 1237.43,-92.05 1239.74,-98.65"/>
</g>
<!-- Node7&#45;&gt;Node15 -->
<g id="edge15" class="edge">
<title>Node7&#45;&gt;Node15</title>
<path fill="none" stroke="midnightblue" d="M627.6,-246.44C648.99,-237.56 682.68,-223.56 707.02,-213.45"/>
<polygon fill="midnightblue" stroke="midnightblue" points="708.61,-216.58 716.5,-209.52 705.92,-210.12 708.61,-216.58"/>
</g>
<!-- Node24 -->
<g id="node24" class="node">
<title>Node24</title>
<g id="a_node24"><a xlink:title=" ">
<polygon fill="white" stroke="#bfbfbf" points="621.5,-190.5 621.5,-209.5 660.5,-209.5 660.5,-190.5 621.5,-190.5"/>
<text text-anchor="middle" x="641" y="-197.5" font-family="Helvetica,sans-Serif" font-size="10.00">utility</text>
</a>
</g>
</g>
<!-- Node7&#45;&gt;Node24 -->
<g id="edge28" class="edge">
<title>Node7&#45;&gt;Node24</title>
<path fill="none" stroke="midnightblue" d="M612.61,-246.08C617.37,-238.53 624.32,-227.49 630.15,-218.23"/>
<polygon fill="midnightblue" stroke="midnightblue" points="633.12,-220.08 635.49,-209.75 627.2,-216.35 633.12,-220.08"/>
</g>
<!-- Node8&#45;&gt;Node9 -->
<g id="edge8" class="edge">
<title>Node8&#45;&gt;Node9</title>
<path fill="none" stroke="midnightblue" d="M631.39,-134.48C614.65,-124.71 587,-108.58 567.28,-97.08"/>
<polygon fill="midnightblue" stroke="midnightblue" points="568.99,-94.02 558.59,-92.01 565.46,-100.07 568.99,-94.02"/>
</g>
<!-- Node10 -->
<g id="node10" class="node">
<title>Node10</title>
<g id="a_node10"><a xlink:title=" ">
<polygon fill="white" stroke="#bfbfbf" points="589,-73 589,-92 641,-92 641,-73 589,-73"/>
<text text-anchor="middle" x="615" y="-80" font-family="Helvetica,sans-Serif" font-size="10.00">sstream</text>
</a>
</g>
</g>
<!-- Node8&#45;&gt;Node10 -->
<g id="edge9" class="edge">
<title>Node8&#45;&gt;Node10</title>
<path fill="none" stroke="midnightblue" d="M641.56,-134.48C637.05,-125.82 629.93,-112.15 624.19,-101.15"/>
<polygon fill="midnightblue" stroke="midnightblue" points="627.16,-99.26 619.43,-92.01 620.95,-102.49 627.16,-99.26"/>
</g>
<!-- Node8&#45;&gt;Node11 -->
<g id="edge10" class="edge">
<title>Node8&#45;&gt;Node11</title>
<path fill="none" stroke="midnightblue" d="M603.59,-134.48C543.19,-122.33 433.85,-100.35 380.68,-89.67"/>
<polygon fill="midnightblue" stroke="midnightblue" points="381.32,-86.23 370.83,-87.69 379.94,-93.09 381.32,-86.23"/>
</g>
<!-- Node12&#45;&gt;Node5 -->
<g id="edge12" class="edge">
<title>Node12&#45;&gt;Node5</title>
<path fill="none" stroke="midnightblue" d="M1229.46,-72.99C1218.57,-70.92 1206.87,-68.79 1196,-67 1080.07,-47.91 942.58,-30.15 874.53,-21.69"/>
<polygon fill="midnightblue" stroke="midnightblue" points="874.57,-18.17 864.22,-20.41 873.71,-25.12 874.57,-18.17"/>
</g>
<!-- Node13 -->
<g id="node13" class="node">
<title>Node13</title>
<g id="a_node13"><a xlink:title=" ">
<polygon fill="white" stroke="#bfbfbf" points="1176.5,-6 1176.5,-25 1247.5,-25 1247.5,-6 1176.5,-6"/>
<text text-anchor="middle" x="1212" y="-13" font-family="Helvetica,sans-Serif" font-size="10.00">Eigen/Dense</text>
</a>
</g>
</g>
<!-- Node12&#45;&gt;Node13 -->
<g id="edge13" class="edge">
<title>Node12&#45;&gt;Node13</title>
<path fill="none" stroke="midnightblue" d="M1263.91,-72.73C1254.46,-62.5 1238.64,-45.36 1226.95,-32.69"/>
<polygon fill="midnightblue" stroke="midnightblue" points="1229.32,-30.1 1219.96,-25.13 1224.17,-34.85 1229.32,-30.1"/>
</g>
<!-- Node14 -->
<g id="node14" class="node">
<title>Node14</title>
<g id="a_node14"><a xlink:title=" ">
<polygon fill="white" stroke="#bfbfbf" points="1265.5,-0.5 1265.5,-30.5 1396.5,-30.5 1396.5,-0.5 1265.5,-0.5"/>
<text text-anchor="start" x="1273.5" y="-18.5" font-family="Helvetica,sans-Serif" font-size="10.00">unsupported/Eigen/CXX11</text>
<text text-anchor="middle" x="1331" y="-7.5" font-family="Helvetica,sans-Serif" font-size="10.00">/Tensor</text>
</a>
</g>
</g>
<!-- Node12&#45;&gt;Node14 -->
<g id="edge14" class="edge">
<title>Node12&#45;&gt;Node14</title>
<path fill="none" stroke="midnightblue" d="M1279.96,-72.73C1287.93,-63.95 1300.52,-50.08 1311.2,-38.31"/>
<polygon fill="midnightblue" stroke="midnightblue" points="1314.08,-40.35 1318.21,-30.59 1308.9,-35.64 1314.08,-40.35"/>
</g>
<!-- Node15&#45;&gt;Node8 -->
<g id="edge16" class="edge">
<title>Node15&#45;&gt;Node8</title>
<path fill="none" stroke="midnightblue" d="M722.38,-190.32C708.05,-181.82 685.99,-168.73 669.25,-158.8"/>
<polygon fill="midnightblue" stroke="midnightblue" points="670.97,-155.75 660.58,-153.65 667.4,-161.77 670.97,-155.75"/>
</g>
<!-- Node15&#45;&gt;Node12 -->
<g id="edge26" class="edge">
<title>Node15&#45;&gt;Node12</title>
<path fill="none" stroke="midnightblue" d="M795.21,-190.54C848.89,-182.4 930.66,-169.12 1001,-154 1044.88,-144.57 1166.42,-112.08 1230.78,-94.69"/>
<polygon fill="midnightblue" stroke="midnightblue" points="1231.86,-98.02 1240.6,-92.03 1230.03,-91.26 1231.86,-98.02"/>
</g>
<!-- Node15&#45;&gt;Node16 -->
<g id="edge17" class="edge">
<title>Node15&#45;&gt;Node16</title>
<path fill="none" stroke="midnightblue" d="M768.37,-190.44C802.26,-181.2 856.4,-166.44 893.72,-156.26"/>
<polygon fill="midnightblue" stroke="midnightblue" points="895.05,-159.52 903.77,-153.52 893.2,-152.77 895.05,-159.52"/>
</g>
<!-- Node16&#45;&gt;Node12 -->
<g id="edge20" class="edge">
<title>Node16&#45;&gt;Node12</title>
<path fill="none" stroke="midnightblue" d="M986.06,-134.47C1038.71,-125.62 1123.16,-111.23 1196,-98 1203.09,-96.71 1210.54,-95.33 1217.89,-93.95"/>
<polygon fill="midnightblue" stroke="midnightblue" points="1218.64,-97.37 1227.82,-92.07 1217.34,-90.49 1218.64,-97.37"/>
</g>
<!-- Node17 -->
<g id="node17" class="node">
<title>Node17</title>
<g id="a_node17"><a xlink:href="MarmotConstants_8h.html" target="_top" xlink:title=" ">
<polygon fill="white" stroke="black" points="1549.5,-73 1549.5,-92 1686.5,-92 1686.5,-73 1549.5,-73"/>
<text text-anchor="middle" x="1618" y="-80" font-family="Helvetica,sans-Serif" font-size="10.00">Marmot/MarmotConstants.h</text>
</a>
</g>
</g>
<!-- Node16&#45;&gt;Node17 -->
<g id="edge18" class="edge">
<title>Node16&#45;&gt;Node17</title>
<path fill="none" stroke="midnightblue" d="M992.64,-137.98C1114.85,-127.33 1400.12,-102.48 1539.09,-90.37"/>
<polygon fill="midnightblue" stroke="midnightblue" points="1539.59,-93.84 1549.25,-89.49 1538.98,-86.87 1539.59,-93.84"/>
</g>
<!-- Node19 -->
<g id="node19" class="node">
<title>Node19</title>
<g id="a_node19"><a xlink:title=" ">
<polygon fill="white" stroke="#bfbfbf" points="659,-73 659,-92 781,-92 781,-73 659,-73"/>
<text text-anchor="middle" x="720" y="-80" font-family="Helvetica,sans-Serif" font-size="10.00">autodiff/forward/dual.hpp</text>
</a>
</g>
</g>
<!-- Node16&#45;&gt;Node19 -->
<g id="edge21" class="edge">
<title>Node16&#45;&gt;Node19</title>
<path fill="none" stroke="midnightblue" d="M904.2,-134.48C866.44,-124.03 802.34,-106.29 760.59,-94.73"/>
<polygon fill="midnightblue" stroke="midnightblue" points="761.32,-91.3 750.75,-92.01 759.45,-98.05 761.32,-91.3"/>
</g>
<!-- Node20 -->
<g id="node20" class="node">
<title>Node20</title>
<g id="a_node20"><a xlink:title=" ">
<polygon fill="white" stroke="#bfbfbf" points="799,-73 799,-92 919,-92 919,-73 799,-73"/>
<text text-anchor="middle" x="859" y="-80" font-family="Helvetica,sans-Serif" font-size="10.00">autodiff/forward/real.hpp</text>
</a>
</g>
</g>
<!-- Node16&#45;&gt;Node20 -->
<g id="edge22" class="edge">
<title>Node16&#45;&gt;Node20</title>
<path fill="none" stroke="midnightblue" d="M924.11,-134.48C912.03,-125.02 892.33,-109.6 877.76,-98.19"/>
<polygon fill="midnightblue" stroke="midnightblue" points="879.9,-95.42 869.87,-92.01 875.59,-100.93 879.9,-95.42"/>
</g>
<!-- Node21 -->
<g id="node21" class="node">
<title>Node21</title>
<g id="a_node21"><a xlink:title=" ">
<polygon fill="white" stroke="#bfbfbf" points="937,-73 937,-92 993,-92 993,-73 937,-73"/>
<text text-anchor="middle" x="965" y="-80" font-family="Helvetica,sans-Serif" font-size="10.00">algorithm</text>
</a>
</g>
</g>
<!-- Node16&#45;&gt;Node21 -->
<g id="edge23" class="edge">
<title>Node16&#45;&gt;Node21</title>
<path fill="none" stroke="midnightblue" d="M939.3,-134.48C943.66,-125.82 950.56,-112.15 956.1,-101.15"/>
<polygon fill="midnightblue" stroke="midnightblue" points="959.33,-102.51 960.71,-92.01 953.08,-99.36 959.33,-102.51"/>
</g>
<!-- Node16&#45;&gt;Node22 -->
<g id="edge24" class="edge">
<title>Node16&#45;&gt;Node22</title>
<path fill="none" stroke="midnightblue" d="M963.66,-134.48C993.4,-125.63 1040.72,-111.55 1078.1,-100.43"/>
<polygon fill="midnightblue" stroke="midnightblue" points="1079.28,-103.73 1087.86,-97.52 1077.28,-97.02 1079.28,-103.73"/>
</g>
<!-- Node23 -->
<g id="node23" class="node">
<title>Node23</title>
<g id="a_node23"><a xlink:title=" ">
<polygon fill="white" stroke="#bfbfbf" points="1011.5,-73 1011.5,-92 1064.5,-92 1064.5,-73 1011.5,-73"/>
<text text-anchor="middle" x="1038" y="-80" font-family="Helvetica,sans-Serif" font-size="10.00">complex</text>
</a>
</g>
</g>
<!-- Node16&#45;&gt;Node23 -->
<g id="edge25" class="edge">
<title>Node16&#45;&gt;Node23</title>
<path fill="none" stroke="midnightblue" d="M949.76,-134.48C966.66,-124.71 994.58,-108.58 1014.49,-97.08"/>
<polygon fill="midnightblue" stroke="midnightblue" points="1016.36,-100.04 1023.27,-92.01 1012.86,-93.98 1016.36,-100.04"/>
</g>
<!-- Node18 -->
<g id="node18" class="node">
<title>Node18</title>
<g id="a_node18"><a xlink:title=" ">
<polygon fill="white" stroke="#bfbfbf" points="1596,-6 1596,-25 1640,-25 1640,-6 1596,-6"/>
<text text-anchor="middle" x="1618" y="-13" font-family="Helvetica,sans-Serif" font-size="10.00">cmath</text>
</a>
</g>
</g>
<!-- Node17&#45;&gt;Node18 -->
<g id="edge19" class="edge">
<title>Node17&#45;&gt;Node18</title>
<path fill="none" stroke="midnightblue" d="M1618,-72.73C1618,-63.18 1618,-47.62 1618,-35.28"/>
<polygon fill="midnightblue" stroke="midnightblue" points="1621.5,-35.13 1618,-25.13 1614.5,-35.13 1621.5,-35.13"/>
</g>
<!-- Node25&#45;&gt;Node4 -->
<g id="edge32" class="edge">
<title>Node25&#45;&gt;Node4</title>
<path fill="none" stroke="midnightblue" d="M957.75,-369.4C936.53,-359.81 908.25,-347.05 885.32,-336.7"/>
<polygon fill="midnightblue" stroke="midnightblue" points="886.74,-333.5 876.18,-332.58 883.86,-339.88 886.74,-333.5"/>
</g>
<!-- Node25&#45;&gt;Node6 -->
<g id="edge31" class="edge">
<title>Node25&#45;&gt;Node6</title>
<path fill="none" stroke="midnightblue" d="M1004.12,-369.21C1021.54,-352.81 1051.09,-325.2 1077,-302 1088.26,-291.92 1101.09,-280.81 1111.2,-272.15"/>
<polygon fill="midnightblue" stroke="midnightblue" points="1113.62,-274.69 1118.94,-265.53 1109.07,-269.36 1113.62,-274.69"/>
</g>
<!-- Node26&#45;&gt;Node4 -->
<g id="edge35" class="edge">
<title>Node26&#45;&gt;Node4</title>
<path fill="none" stroke="midnightblue" d="M650.51,-369.48C688.92,-359.41 740.84,-345.8 781.38,-335.17"/>
<polygon fill="midnightblue" stroke="midnightblue" points="782.38,-338.53 791.16,-332.61 780.6,-331.76 782.38,-338.53"/>
</g>
<!-- Node27 -->
<g id="node27" class="node">
<title>Node27</title>
<g id="a_node27"><a xlink:href="MarmotTensorExponential_8h.html" target="_top" xlink:title=" ">
<polygon fill="white" stroke="black" points="582.5,-308 582.5,-327 755.5,-327 755.5,-308 582.5,-308"/>
<text text-anchor="middle" x="669" y="-315" font-family="Helvetica,sans-Serif" font-size="10.00">Marmot/MarmotTensorExponential.h</text>
</a>
</g>
</g>
<!-- Node26&#45;&gt;Node27 -->
<g id="edge36" class="edge">
<title>Node26&#45;&gt;Node27</title>
<path fill="none" stroke="midnightblue" d="M612.62,-369.4C624.18,-358.96 639.92,-344.75 651.83,-334"/>
<polygon fill="midnightblue" stroke="midnightblue" points="654.29,-336.49 659.37,-327.19 649.6,-331.3 654.29,-336.49"/>
</g>
<!-- Node27&#45;&gt;Node6 -->
<g id="edge37" class="edge">
<title>Node27&#45;&gt;Node6</title>
<path fill="none" stroke="midnightblue" d="M723.22,-307.95C736.54,-305.92 750.78,-303.82 764,-302 875.53,-286.62 1006.58,-271.08 1077.35,-262.89"/>
<polygon fill="midnightblue" stroke="midnightblue" points="1077.81,-266.36 1087.35,-261.74 1077.01,-259.41 1077.81,-266.36"/>
</g>
<!-- Node27&#45;&gt;Node9 -->
<g id="edge39" class="edge">
<title>Node27&#45;&gt;Node9</title>
<path fill="none" stroke="midnightblue" d="M604.31,-307.97C578.64,-301.06 551.57,-288.57 536,-266 501.07,-215.37 523.66,-136.72 536.66,-101.55"/>
<polygon fill="midnightblue" stroke="midnightblue" points="539.97,-102.7 540.31,-92.11 533.44,-100.18 539.97,-102.7"/>
</g>
<!-- Node27&#45;&gt;Node16 -->
<g id="edge38" class="edge">
<title>Node27&#45;&gt;Node16</title>
<path fill="none" stroke="midnightblue" d="M697.05,-307.94C723,-299.38 762.11,-284.78 793,-266 843.95,-235.03 895.05,-186.04 919.74,-160.95"/>
<polygon fill="midnightblue" stroke="midnightblue" points="922.33,-163.31 926.79,-153.7 917.31,-158.43 922.33,-163.31"/>
</g>
<!-- Node28&#45;&gt;Node6 -->
<g id="edge41" class="edge">
<title>Node28&#45;&gt;Node6</title>
<path fill="none" stroke="midnightblue" d="M1176.24,-369.28C1167.18,-359.78 1156,-346.58 1149,-333 1139.65,-314.85 1134.4,-291.94 1131.65,-276.05"/>
<polygon fill="midnightblue" stroke="midnightblue" points="1135.06,-275.22 1130.06,-265.88 1128.14,-276.3 1135.06,-275.22"/>
</g>
<!-- Node29 -->
<g id="node29" class="node">
<title>Node29</title>
<g id="a_node29"><a xlink:href="MarmotMaterial_8h.html" target="_top" xlink:title=" ">
<polygon fill="white" stroke="black" points="360,-308 360,-327 488,-327 488,-308 360,-308"/>
<text text-anchor="middle" x="424" y="-315" font-family="Helvetica,sans-Serif" font-size="10.00">Marmot/MarmotMaterial.h</text>
</a>
</g>
</g>
<!-- Node28&#45;&gt;Node29 -->
<g id="edge42" class="edge">
<title>Node28&#45;&gt;Node29</title>
<path fill="none" stroke="midnightblue" d="M1118.69,-374.11C1103.3,-372.27 1087.12,-370.47 1072,-369 850.68,-347.55 794.56,-351.77 573,-333 548.64,-330.94 522.07,-328.43 498.19,-326.09"/>
<polygon fill="midnightblue" stroke="midnightblue" points="498.44,-322.6 488.14,-325.1 497.75,-329.56 498.44,-322.6"/>
</g>
<!-- Node28&#45;&gt;Node31 -->
<g id="edge45" class="edge">
<title>Node28&#45;&gt;Node31</title>
<path fill="none" stroke="midnightblue" d="M1196.21,-369.4C1199.73,-359.86 1204.41,-347.18 1208.22,-336.86"/>
<polygon fill="midnightblue" stroke="midnightblue" points="1211.61,-337.79 1211.79,-327.19 1205.04,-335.36 1211.61,-337.79"/>
</g>
<!-- Node29&#45;&gt;Node11 -->
<g id="edge44" class="edge">
<title>Node29&#45;&gt;Node11</title>
<path fill="none" stroke="midnightblue" d="M424.65,-307.68C425.42,-294.19 426.02,-267.72 421,-246 408.16,-190.46 376.75,-130.25 360.35,-101.18"/>
<polygon fill="midnightblue" stroke="midnightblue" points="363.24,-99.19 355.23,-92.26 357.17,-102.67 363.24,-99.19"/>
</g>
<!-- Node30 -->
<g id="node30" class="node">
<title>Node30</title>
<g id="a_node30"><a xlink:href="MarmotUtils_8h.html" target="_top" xlink:title=" ">
<polygon fill="white" stroke="black" points="299.5,-246.5 299.5,-265.5 412.5,-265.5 412.5,-246.5 299.5,-246.5"/>
<text text-anchor="middle" x="356" y="-253.5" font-family="Helvetica,sans-Serif" font-size="10.00">Marmot/MarmotUtils.h</text>
</a>
</g>
</g>
<!-- Node29&#45;&gt;Node30 -->
<g id="edge43" class="edge">
<title>Node29&#45;&gt;Node30</title>
<path fill="none" stroke="midnightblue" d="M414.26,-307.98C403.65,-298.7 386.48,-283.67 373.52,-272.33"/>
<polygon fill="midnightblue" stroke="midnightblue" points="375.56,-269.46 365.72,-265.51 370.95,-274.73 375.56,-269.46"/>
</g>
<!-- Node32&#45;&gt;Node11 -->
<g id="edge50" class="edge">
<title>Node32&#45;&gt;Node11</title>
<path fill="none" stroke="midnightblue" d="M252.35,-302.28C270.4,-261.85 321.97,-146.3 341.95,-101.53"/>
<polygon fill="midnightblue" stroke="midnightblue" points="345.24,-102.76 346.12,-92.2 338.84,-99.91 345.24,-102.76"/>
</g>
<!-- Node32&#45;&gt;Node30 -->
<g id="edge48" class="edge">
<title>Node32&#45;&gt;Node30</title>
<path fill="none" stroke="midnightblue" d="M272.07,-302.4C289.87,-292.77 313.31,-280.09 330.9,-270.58"/>
<polygon fill="midnightblue" stroke="midnightblue" points="332.86,-273.49 339.99,-265.66 329.53,-267.34 332.86,-273.49"/>
</g>
<!-- Node33 -->
<g id="node33" class="node">
<title>Node33</title>
<g id="a_node33"><a xlink:title=" ">
<polygon fill="white" stroke="#bfbfbf" points="28.5,-246.5 28.5,-265.5 79.5,-265.5 79.5,-246.5 28.5,-246.5"/>
<text text-anchor="middle" x="54" y="-253.5" font-family="Helvetica,sans-Serif" font-size="10.00">memory</text>
</a>
</g>
</g>
<!-- Node32&#45;&gt;Node33 -->
<g id="edge49" class="edge">
<title>Node32&#45;&gt;Node33</title>
<path fill="none" stroke="midnightblue" d="M200.5,-302.4C166.48,-291.86 120.63,-277.65 89.34,-267.95"/>
<polygon fill="midnightblue" stroke="midnightblue" points="90.31,-264.59 79.73,-264.97 88.24,-271.28 90.31,-264.59"/>
</g>
<!-- Node34 -->
<g id="node34" class="node">
<title>Node34</title>
<g id="a_node34"><a xlink:title=" ">
<polygon fill="white" stroke="#bfbfbf" points="97.5,-246.5 97.5,-265.5 180.5,-265.5 180.5,-246.5 97.5,-246.5"/>
<text text-anchor="middle" x="139" y="-253.5" font-family="Helvetica,sans-Serif" font-size="10.00">unordered_map</text>
</a>
</g>
</g>
<!-- Node32&#45;&gt;Node34 -->
<g id="edge51" class="edge">
<title>Node32&#45;&gt;Node34</title>
<path fill="none" stroke="midnightblue" d="M220.64,-302.4C203.33,-292.77 180.52,-280.09 163.42,-270.58"/>
<polygon fill="midnightblue" stroke="midnightblue" points="165.01,-267.46 154.57,-265.66 161.61,-273.58 165.01,-267.46"/>
</g>
<!-- Node35 -->
<g id="node35" class="node">
<title>Node35</title>
<g id="a_node35"><a xlink:title=" ">
<polygon fill="white" stroke="#bfbfbf" points="199,-246.5 199,-265.5 243,-265.5 243,-246.5 199,-246.5"/>
<text text-anchor="middle" x="221" y="-253.5" font-family="Helvetica,sans-Serif" font-size="10.00">vector</text>
</a>
</g>
</g>
<!-- Node32&#45;&gt;Node35 -->
<g id="edge52" class="edge">
<title>Node32&#45;&gt;Node35</title>
<path fill="none" stroke="midnightblue" d="M240.08,-302.4C236.63,-294.2 232.25,-283.78 228.56,-274.99"/>
<polygon fill="midnightblue" stroke="midnightblue" points="231.74,-273.52 224.64,-265.66 225.28,-276.23 231.74,-273.52"/>
</g>
<!-- Node36&#45;&gt;Node12 -->
<g id="edge61" class="edge">
<title>Node36&#45;&gt;Node12</title>
<path fill="none" stroke="midnightblue" d="M1661.14,-307.93C1600.39,-272.89 1370.57,-140.35 1295.72,-97.18"/>
<polygon fill="midnightblue" stroke="midnightblue" points="1297.4,-94.11 1286.99,-92.15 1293.91,-100.17 1297.4,-94.11"/>
</g>
<!-- Node36&#45;&gt;Node16 -->
<g id="edge60" class="edge">
<title>Node36&#45;&gt;Node16</title>
<path fill="none" stroke="midnightblue" d="M1652.82,-307.91C1615.42,-294.16 1539.34,-266.67 1474,-246 1387.21,-218.55 1366.14,-208.43 1277,-190 1182.87,-170.54 1072.33,-157.79 1002.96,-150.99"/>
<polygon fill="midnightblue" stroke="midnightblue" points="1002.9,-147.47 992.61,-149.99 1002.23,-154.43 1002.9,-147.47"/>
</g>
<!-- Node37 -->
<g id="node37" class="node">
<title>Node37</title>
<g id="a_node37"><a xlink:title=" ">
<polygon fill="white" stroke="#bfbfbf" points="1405.5,-246.5 1405.5,-265.5 1464.5,-265.5 1464.5,-246.5 1405.5,-246.5"/>
<text text-anchor="middle" x="1435" y="-253.5" font-family="Helvetica,sans-Serif" font-size="10.00">functional</text>
</a>
</g>
</g>
<!-- Node36&#45;&gt;Node37 -->
<g id="edge62" class="edge">
<title>Node36&#45;&gt;Node37</title>
<path fill="none" stroke="midnightblue" d="M1641.47,-307.98C1597.3,-297.07 1520.99,-278.23 1474.54,-266.76"/>
<polygon fill="midnightblue" stroke="midnightblue" points="1475.09,-263.29 1464.54,-264.29 1473.41,-270.09 1475.09,-263.29"/>
</g>
<!-- Node38&#45;&gt;Node4 -->
<g id="edge66" class="edge">
<title>Node38&#45;&gt;Node4</title>
<path fill="none" stroke="midnightblue" d="M1539.22,-375.69C1383.08,-362.83 1074.41,-337.4 927.04,-325.26"/>
<polygon fill="midnightblue" stroke="midnightblue" points="926.97,-321.74 916.72,-324.41 926.39,-328.72 926.97,-321.74"/>
</g>
<!-- Node38&#45;&gt;Node6 -->
<g id="edge64" class="edge">
<title>Node38&#45;&gt;Node6</title>
<path fill="none" stroke="midnightblue" d="M1539.45,-372.87C1463.27,-363.42 1362.84,-348.7 1325,-333 1303.24,-323.97 1303.16,-312.36 1282,-302 1249.83,-286.25 1211.1,-274.92 1180.65,-267.58"/>
<polygon fill="midnightblue" stroke="midnightblue" points="1181.2,-264.11 1170.67,-265.24 1179.61,-270.92 1181.2,-264.11"/>
</g>
<!-- Node38&#45;&gt;Node12 -->
<g id="edge69" class="edge">
<title>Node38&#45;&gt;Node12</title>
<path fill="none" stroke="midnightblue" d="M1722.6,-369.5C1745.27,-362.02 1767.78,-350.56 1784,-333 1807.62,-307.42 1803,-291.82 1803,-257 1803,-257 1803,-257 1803,-199 1803,-153.11 1496.23,-110.25 1349.03,-92.33"/>
<polygon fill="midnightblue" stroke="midnightblue" points="1349.06,-88.81 1338.71,-91.08 1348.22,-95.76 1349.06,-88.81"/>
</g>
<!-- Node38&#45;&gt;Node16 -->
<g id="edge67" class="edge">
<title>Node38&#45;&gt;Node16</title>
<path fill="none" stroke="midnightblue" d="M1564.29,-369.48C1522.37,-360.44 1468.19,-347.65 1421,-333 1329.6,-304.63 1057.33,-194.75 965.58,-157.46"/>
<polygon fill="midnightblue" stroke="midnightblue" points="966.62,-154.11 956.04,-153.58 963.98,-160.59 966.62,-154.11"/>
</g>
<!-- Node38&#45;&gt;Node17 -->
<g id="edge65" class="edge">
<title>Node38&#45;&gt;Node17</title>
<path fill="none" stroke="midnightblue" d="M1728.61,-375.58C1760.16,-368.58 1793.27,-355.87 1817,-333 1842.5,-308.42 1841,-292.42 1841,-257 1841,-257 1841,-257 1841,-199 1841,-168.2 1839.89,-154.6 1817,-134 1784.39,-104.65 1737.15,-91.85 1696.87,-86.47"/>
<polygon fill="midnightblue" stroke="midnightblue" points="1697.14,-82.98 1686.79,-85.26 1696.3,-89.93 1697.14,-82.98"/>
</g>
<!-- Node38&#45;&gt;Node31 -->
<g id="edge71" class="edge">
<title>Node38&#45;&gt;Node31</title>
<path fill="none" stroke="midnightblue" d="M1539.15,-371.11C1469.28,-361.64 1372.03,-347.74 1287,-333 1279.92,-331.77 1272.46,-330.38 1265.14,-328.96"/>
<polygon fill="midnightblue" stroke="midnightblue" points="1265.78,-325.52 1255.29,-327.02 1264.42,-332.39 1265.78,-325.52"/>
</g>
<!-- Node38&#45;&gt;Node36 -->
<g id="edge68" class="edge">
<title>Node38&#45;&gt;Node36</title>
<path fill="none" stroke="midnightblue" d="M1643.11,-369.4C1649.47,-359.56 1657.99,-346.38 1664.76,-335.89"/>
<polygon fill="midnightblue" stroke="midnightblue" points="1667.89,-337.49 1670.38,-327.19 1662.02,-333.69 1667.89,-337.49"/>
</g>
<!-- Node38&#45;&gt;Node37 -->
<g id="edge72" class="edge">
<title>Node38&#45;&gt;Node37</title>
<path fill="none" stroke="midnightblue" d="M1539.38,-370.89C1494.42,-362.76 1447.56,-350.41 1434,-333 1421.36,-316.77 1424.48,-292.14 1428.86,-275.34"/>
<polygon fill="midnightblue" stroke="midnightblue" points="1432.26,-276.19 1431.76,-265.61 1425.55,-274.19 1432.26,-276.19"/>
</g>
<!-- Node39 -->
<g id="node39" class="node">
<title>Node39</title>
<g id="a_node39"><a xlink:title=" ">
<polygon fill="white" stroke="#bfbfbf" points="1443,-308 1443,-327 1559,-327 1559,-308 1443,-308"/>
<text text-anchor="middle" x="1501" y="-315" font-family="Helvetica,sans-Serif" font-size="10.00">Fastor/config/macros.h</text>
</a>
</g>
</g>
<!-- Node38&#45;&gt;Node39 -->
<g id="edge70" class="edge">
<title>Node38&#45;&gt;Node39</title>
<path fill="none" stroke="midnightblue" d="M1605.14,-369.4C1582.11,-358.14 1550.11,-342.5 1527.68,-331.54"/>
<polygon fill="midnightblue" stroke="midnightblue" points="1528.93,-328.25 1518.41,-327.01 1525.85,-334.54 1528.93,-328.25"/>
</g>
<!-- Node40&#45;&gt;Node4 -->
<g id="edge74" class="edge">
<title>Node40&#45;&gt;Node4</title>
<path fill="none" stroke="midnightblue" d="M1311.56,-374.93C1298.66,-372.89 1284.84,-370.78 1272,-369 1151.98,-352.35 1012.49,-336.51 926.47,-327.15"/>
<polygon fill="midnightblue" stroke="midnightblue" points="926.83,-323.67 916.51,-326.07 926.07,-330.63 926.83,-323.67"/>
</g>
<!-- Node40&#45;&gt;Node31 -->
<g id="edge75" class="edge">
<title>Node40&#45;&gt;Node31</title>
<path fill="none" stroke="midnightblue" d="M1343.35,-374.87C1317.91,-363.7 1273.4,-344.15 1244.05,-331.26"/>
<polygon fill="midnightblue" stroke="midnightblue" points="1245.3,-327.98 1234.73,-327.17 1242.48,-334.39 1245.3,-327.98"/>
</g>
</g>
</svg>
