<?xml version="1.0" encoding="UTF-8" standalone="no"?>
<!DOCTYPE svg PUBLIC "-//W3C//DTD SVG 1.1//EN"
 "http://www.w3.org/Graphics/SVG/1.1/DTD/svg11.dtd">
<!-- Generated by graphviz version 2.47.0 (20210316.2052)
 -->
<!-- Title: modules/core/MarmotMechanicsCore/include/Marmot/HaighWestergaard.h Pages: 1 -->
<svg width="546pt" height="173pt"
 viewBox="0.00 0.00 546.00 173.00" xmlns="http://www.w3.org/2000/svg" xmlns:xlink="http://www.w3.org/1999/xlink">
<g id="graph0" class="graph" transform="scale(1 1) rotate(0) translate(4 169)">
<title>modules/core/MarmotMechanicsCore/include/Marmot/HaighWestergaard.h</title>
<polygon fill="white" stroke="transparent" points="-4,4 -4,-169 542,-169 542,4 -4,4"/>
<!-- Node1 -->
<g id="node1" class="node">
<title>Node1</title>
<g id="a_node1"><a xlink:title=" ">
<polygon fill="#bfbfbf" stroke="black" points="184.5,-134.5 184.5,-164.5 381.5,-164.5 381.5,-134.5 184.5,-134.5"/>
<text text-anchor="start" x="192.5" y="-152.5" font-family="Helvetica,sans-Serif" font-size="10.00">modules/core/MarmotMechanics</text>
<text text-anchor="middle" x="283" y="-141.5" font-family="Helvetica,sans-Serif" font-size="10.00">Core/include/Marmot/HaighWestergaard.h</text>
</a>
</g>
</g>
<!-- Node2 -->
<g id="node2" class="node">
<title>Node2</title>
<g id="a_node2"><a xlink:href="MenetreyWillam_8h.html" target="_top" xlink:title=" ">
<polygon fill="white" stroke="black" points="0,-67.5 0,-97.5 186,-97.5 186,-67.5 0,-67.5"/>
<text text-anchor="start" x="8" y="-85.5" font-family="Helvetica,sans-Serif" font-size="10.00">modules/core/MarmotMechanics</text>
<text text-anchor="middle" x="93" y="-74.5" font-family="Helvetica,sans-Serif" font-size="10.00">Core/include/Marmot/MenetreyWillam.h</text>
</a>
</g>
</g>
<!-- Node1&#45;&gt;Node2 -->
<g id="edge1" class="edge">
<title>Node1&#45;&gt;Node2</title>
<path fill="none" stroke="midnightblue" d="M232.11,-131.09C201.44,-120.6 162.89,-107.41 134.15,-97.58"/>
<polygon fill="midnightblue" stroke="midnightblue" points="231.18,-134.47 241.77,-134.4 233.44,-127.85 231.18,-134.47"/>
</g>
<!-- Node4 -->
<g id="node4" class="node">
<title>Node4</title>
<g id="a_node4"><a xlink:href="HaighWestergaard_8cpp.html" target="_top" xlink:title=" ">
<polygon fill="white" stroke="black" points="204,-67.5 204,-97.5 362,-97.5 362,-67.5 204,-67.5"/>
<text text-anchor="start" x="212" y="-85.5" font-family="Helvetica,sans-Serif" font-size="10.00">modules/core/MarmotMechanics</text>
<text text-anchor="middle" x="283" y="-74.5" font-family="Helvetica,sans-Serif" font-size="10.00">Core/src/HaighWestergaard.cpp</text>
</a>
</g>
</g>
<!-- Node1&#45;&gt;Node4 -->
<g id="edge3" class="edge">
<title>Node1&#45;&gt;Node4</title>
<path fill="none" stroke="midnightblue" d="M283,-124.11C283,-115.15 283,-105.32 283,-97.58"/>
<polygon fill="midnightblue" stroke="midnightblue" points="279.5,-124.4 283,-134.4 286.5,-124.4 279.5,-124.4"/>
</g>
<!-- Node5 -->
<g id="node5" class="node">
<title>Node5</title>
<g id="a_node5"><a xlink:href="MarmotVoigt_8cpp.html" target="_top" xlink:title=" ">
<polygon fill="white" stroke="black" points="380,-67.5 380,-97.5 538,-97.5 538,-67.5 380,-67.5"/>
<text text-anchor="start" x="388" y="-85.5" font-family="Helvetica,sans-Serif" font-size="10.00">modules/core/MarmotMechanics</text>
<text text-anchor="middle" x="459" y="-74.5" font-family="Helvetica,sans-Serif" font-size="10.00">Core/src/MarmotVoigt.cpp</text>
</a>
</g>
</g>
<!-- Node1&#45;&gt;Node5 -->
<g id="edge4" class="edge">
<title>Node1&#45;&gt;Node5</title>
<path fill="none" stroke="midnightblue" d="M330.88,-130.82C359.17,-120.37 394.49,-107.32 420.89,-97.58"/>
<polygon fill="midnightblue" stroke="midnightblue" points="329.36,-127.65 321.19,-134.4 331.78,-134.21 329.36,-127.65"/>
</g>
<!-- Node3 -->
<g id="node3" class="node">
<title>Node3</title>
<g id="a_node3"><a xlink:href="MenetreyWillam_8cpp.html" target="_top" xlink:title=" ">
<polygon fill="white" stroke="black" points="14,-0.5 14,-30.5 172,-30.5 172,-0.5 14,-0.5"/>
<text text-anchor="start" x="22" y="-18.5" font-family="Helvetica,sans-Serif" font-size="10.00">modules/core/MarmotMechanics</text>
<text text-anchor="middle" x="93" y="-7.5" font-family="Helvetica,sans-Serif" font-size="10.00">Core/src/MenetreyWillam.cpp</text>
</a>
</g>
</g>
<!-- Node2&#45;&gt;Node3 -->
<g id="edge2" class="edge">
<title>Node2&#45;&gt;Node3</title>
<path fill="none" stroke="midnightblue" d="M93,-57.11C93,-48.15 93,-38.32 93,-30.58"/>
<polygon fill="midnightblue" stroke="midnightblue" points="89.5,-57.4 93,-67.4 96.5,-57.4 89.5,-57.4"/>
</g>
</g>
</svg>
