<?xml version="1.0" encoding="UTF-8" standalone="no"?>
<!DOCTYPE svg PUBLIC "-//W3C//DTD SVG 1.1//EN"
 "http://www.w3.org/Graphics/SVG/1.1/DTD/svg11.dtd">
<!-- Generated by graphviz version 2.44.0 ()
 -->
<!-- Title: modules/core/MarmotMechanicsCore/include/Marmot/HaighWestergaard.h Pages: 1 -->
<svg width="708pt" height="173pt"
 viewBox="0.00 0.00 707.50 173.00" xmlns="http://www.w3.org/2000/svg" xmlns:xlink="http://www.w3.org/1999/xlink">
<g id="graph0" class="graph" transform="scale(1 1) rotate(0) translate(4 169)">
<title>modules/core/MarmotMechanicsCore/include/Marmot/HaighWestergaard.h</title>
<polygon fill="white" stroke="transparent" points="-4,4 -4,-169 703.5,-169 703.5,4 -4,4"/>
<!-- Node1 -->
<g id="node1" class="node">
<title>Node1</title>
<g id="a_node1"><a xlink:title=" ">
<polygon fill="#bfbfbf" stroke="black" points="272.5,-134.5 272.5,-164.5 469.5,-164.5 469.5,-134.5 272.5,-134.5"/>
<text text-anchor="start" x="280.5" y="-152.5" font-family="Helvetica,sans-Serif" font-size="10.00">modules/core/MarmotMechanics</text>
<text text-anchor="middle" x="371" y="-141.5" font-family="Helvetica,sans-Serif" font-size="10.00">Core/include/Marmot/HaighWestergaard.h</text>
</a>
</g>
</g>
<!-- Node2 -->
<g id="node2" class="node">
<title>Node2</title>
<g id="a_node2"><a xlink:href="MenetreyWillam_8h.html" target="_top" xlink:title=" ">
<polygon fill="white" stroke="black" points="0,-67.5 0,-97.5 186,-97.5 186,-67.5 0,-67.5"/>
<text text-anchor="start" x="8" y="-85.5" font-family="Helvetica,sans-Serif" font-size="10.00">modules/core/MarmotMechanics</text>
<text text-anchor="middle" x="93" y="-74.5" font-family="Helvetica,sans-Serif" font-size="10.00">Core/include/Marmot/MenetreyWillam.h</text>
</a>
</g>
</g>
<!-- Node1&#45;&gt;Node2 -->
<g id="edge1" class="edge">
<title>Node1&#45;&gt;Node2</title>
<path fill="none" stroke="midnightblue" d="M301.22,-132.19C255.7,-121.54 196.86,-107.78 153.35,-97.61"/>
<polygon fill="midnightblue" stroke="midnightblue" points="300.49,-135.61 311.02,-134.48 302.08,-128.79 300.49,-135.61"/>
</g>
<!-- Node4 -->
<g id="node4" class="node">
<title>Node4</title>
<g id="a_node4"><a xlink:href="HaighWestergaard_8cpp.html" target="_top" xlink:title=" ">
<polygon fill="white" stroke="black" points="204,-67.5 204,-97.5 362,-97.5 362,-67.5 204,-67.5"/>
<text text-anchor="start" x="212" y="-85.5" font-family="Helvetica,sans-Serif" font-size="10.00">modules/core/MarmotMechanics</text>
<text text-anchor="middle" x="283" y="-74.5" font-family="Helvetica,sans-Serif" font-size="10.00">Core/src/HaighWestergaard.cpp</text>
</a>
</g>
</g>
<!-- Node1&#45;&gt;Node4 -->
<g id="edge3" class="edge">
<title>Node1&#45;&gt;Node4</title>
<path fill="none" stroke="midnightblue" d="M343.86,-128.45C330.32,-118.45 314.27,-106.6 302.06,-97.58"/>
<polygon fill="midnightblue" stroke="midnightblue" points="341.78,-131.27 351.91,-134.4 345.94,-125.64 341.78,-131.27"/>
</g>
<!-- Node5 -->
<g id="node5" class="node">
<title>Node5</title>
<g id="a_node5"><a xlink:href="MarmotVoigt_8cpp.html" target="_top" xlink:title=" ">
<polygon fill="white" stroke="black" points="380,-67.5 380,-97.5 538,-97.5 538,-67.5 380,-67.5"/>
<text text-anchor="start" x="388" y="-85.5" font-family="Helvetica,sans-Serif" font-size="10.00">modules/core/MarmotMechanics</text>
<text text-anchor="middle" x="459" y="-74.5" font-family="Helvetica,sans-Serif" font-size="10.00">Core/src/MarmotVoigt.cpp</text>
</a>
</g>
</g>
<!-- Node1&#45;&gt;Node5 -->
<g id="edge4" class="edge">
<title>Node1&#45;&gt;Node5</title>
<path fill="none" stroke="midnightblue" d="M398.14,-128.45C411.68,-118.45 427.73,-106.6 439.94,-97.58"/>
<polygon fill="midnightblue" stroke="midnightblue" points="396.06,-125.64 390.09,-134.4 400.22,-131.27 396.06,-125.64"/>
</g>
<!-- Node6 -->
<g id="node6" class="node">
<title>Node6</title>
<g id="a_node6"><a xlink:href="VonMises_8cpp.html" target="_top" xlink:title=" ">
<polygon fill="white" stroke="black" points="556.5,-67.5 556.5,-97.5 699.5,-97.5 699.5,-67.5 556.5,-67.5"/>
<text text-anchor="start" x="564.5" y="-85.5" font-family="Helvetica,sans-Serif" font-size="10.00">modules/materials/VonMises</text>
<text text-anchor="middle" x="628" y="-74.5" font-family="Helvetica,sans-Serif" font-size="10.00">/src/VonMises.cpp</text>
</a>
</g>
</g>
<!-- Node1&#45;&gt;Node6 -->
<g id="edge5" class="edge">
<title>Node1&#45;&gt;Node6</title>
<path fill="none" stroke="midnightblue" d="M436.3,-131.98C478.28,-121.37 532.24,-107.72 572.21,-97.61"/>
<polygon fill="midnightblue" stroke="midnightblue" points="435.29,-128.63 426.45,-134.48 437,-135.42 435.29,-128.63"/>
</g>
<!-- Node3 -->
<g id="node3" class="node">
<title>Node3</title>
<g id="a_node3"><a xlink:href="MenetreyWillam_8cpp.html" target="_top" xlink:title=" ">
<polygon fill="white" stroke="black" points="14,-0.5 14,-30.5 172,-30.5 172,-0.5 14,-0.5"/>
<text text-anchor="start" x="22" y="-18.5" font-family="Helvetica,sans-Serif" font-size="10.00">modules/core/MarmotMechanics</text>
<text text-anchor="middle" x="93" y="-7.5" font-family="Helvetica,sans-Serif" font-size="10.00">Core/src/MenetreyWillam.cpp</text>
</a>
</g>
</g>
<!-- Node2&#45;&gt;Node3 -->
<g id="edge2" class="edge">
<title>Node2&#45;&gt;Node3</title>
<path fill="none" stroke="midnightblue" d="M93,-57.11C93,-48.15 93,-38.32 93,-30.58"/>
<polygon fill="midnightblue" stroke="midnightblue" points="89.5,-57.4 93,-67.4 96.5,-57.4 89.5,-57.4"/>
</g>
</g>
</svg>
