<?xml version="1.0" encoding="UTF-8" standalone="no"?>
<!DOCTYPE svg PUBLIC "-//W3C//DTD SVG 1.1//EN"
 "http://www.w3.org/Graphics/SVG/1.1/DTD/svg11.dtd">
<!-- Generated by graphviz version 2.44.0 ()
 -->
<!-- Title: modules/core/MarmotMechanicsCore/src/HughesWinget.cpp Pages: 1 -->
<svg width="513pt" height="274pt"
 viewBox="0.00 0.00 513.00 274.00" xmlns="http://www.w3.org/2000/svg" xmlns:xlink="http://www.w3.org/1999/xlink">
<g id="graph0" class="graph" transform="scale(1 1) rotate(0) translate(4 270)">
<title>modules/core/MarmotMechanicsCore/src/HughesWinget.cpp</title>
<polygon fill="white" stroke="transparent" points="-4,4 -4,-270 509,-270 509,4 -4,4"/>
<!-- Node1 -->
<g id="node1" class="node">
<title>Node1</title>
<g id="a_node1"><a xlink:title=" ">
<polygon fill="#bfbfbf" stroke="black" points="225,-235.5 225,-265.5 383,-265.5 383,-235.5 225,-235.5"/>
<text text-anchor="start" x="233" y="-253.5" font-family="Helvetica,sans-Serif" font-size="10.00">modules/core/MarmotMechanics</text>
<text text-anchor="middle" x="304" y="-242.5" font-family="Helvetica,sans-Serif" font-size="10.00">Core/src/HughesWinget.cpp</text>
</a>
</g>
</g>
<!-- Node2 -->
<g id="node2" class="node">
<title>Node2</title>
<g id="a_node2"><a xlink:href="HughesWinget_8h.html" target="_top" xlink:title=" ">
<polygon fill="white" stroke="black" points="197,-179.5 197,-198.5 321,-198.5 321,-179.5 197,-179.5"/>
<text text-anchor="middle" x="259" y="-186.5" font-family="Helvetica,sans-Serif" font-size="10.00">Marmot/HughesWinget.h</text>
</a>
</g>
</g>
<!-- Node1&#45;&gt;Node2 -->
<g id="edge1" class="edge">
<title>Node1&#45;&gt;Node2</title>
<path fill="none" stroke="midnightblue" d="M293.34,-235.4C286.86,-226.84 278.57,-215.87 271.75,-206.86"/>
<polygon fill="midnightblue" stroke="midnightblue" points="274.37,-204.52 265.55,-198.66 268.79,-208.74 274.37,-204.52"/>
</g>
<!-- Node3 -->
<g id="node3" class="node">
<title>Node3</title>
<g id="a_node3"><a xlink:href="MarmotVoigt_8h.html" target="_top" xlink:title=" ">
<polygon fill="white" stroke="black" points="200,-123.5 200,-142.5 316,-142.5 316,-123.5 200,-123.5"/>
<text text-anchor="middle" x="258" y="-130.5" font-family="Helvetica,sans-Serif" font-size="10.00">Marmot/MarmotVoigt.h</text>
</a>
</g>
</g>
<!-- Node1&#45;&gt;Node3 -->
<g id="edge21" class="edge">
<title>Node1&#45;&gt;Node3</title>
<path fill="none" stroke="midnightblue" d="M316.09,-235.44C327.11,-220.81 340.24,-197.48 330,-179 321.91,-164.41 306.9,-153.92 292.66,-146.76"/>
<polygon fill="midnightblue" stroke="midnightblue" points="294.05,-143.55 283.5,-142.53 291.11,-149.9 294.05,-143.55"/>
</g>
<!-- Node12 -->
<g id="node12" class="node">
<title>Node12</title>
<g id="a_node12"><a xlink:href="MarmotKinematics_8h.html" target="_top" xlink:title=" ">
<polygon fill="white" stroke="black" points="37,-179.5 37,-198.5 179,-198.5 179,-179.5 37,-179.5"/>
<text text-anchor="middle" x="108" y="-186.5" font-family="Helvetica,sans-Serif" font-size="10.00">Marmot/MarmotKinematics.h</text>
</a>
</g>
</g>
<!-- Node1&#45;&gt;Node12 -->
<g id="edge11" class="edge">
<title>Node1&#45;&gt;Node12</title>
<path fill="none" stroke="midnightblue" d="M257.55,-235.4C223.54,-225.07 177.94,-211.23 146.07,-201.56"/>
<polygon fill="midnightblue" stroke="midnightblue" points="146.82,-198.13 136.23,-198.57 144.79,-204.82 146.82,-198.13"/>
</g>
<!-- Node13 -->
<g id="node13" class="node">
<title>Node13</title>
<g id="a_node13"><a xlink:href="MarmotTensor_8h.html" target="_top" xlink:title=" ">
<polygon fill="white" stroke="black" points="377.5,-179.5 377.5,-198.5 500.5,-198.5 500.5,-179.5 377.5,-179.5"/>
<text text-anchor="middle" x="439" y="-186.5" font-family="Helvetica,sans-Serif" font-size="10.00">Marmot/MarmotTensor.h</text>
</a>
</g>
</g>
<!-- Node1&#45;&gt;Node13 -->
<g id="edge15" class="edge">
<title>Node1&#45;&gt;Node13</title>
<path fill="none" stroke="midnightblue" d="M335.99,-235.4C358.44,-225.51 388.21,-212.38 409.98,-202.79"/>
<polygon fill="midnightblue" stroke="midnightblue" points="411.62,-205.89 419.36,-198.66 408.79,-199.49 411.62,-205.89"/>
</g>
<!-- Node2&#45;&gt;Node3 -->
<g id="edge2" class="edge">
<title>Node2&#45;&gt;Node3</title>
<path fill="none" stroke="midnightblue" d="M258.83,-179.08C258.7,-172.01 258.52,-161.86 258.35,-152.99"/>
<polygon fill="midnightblue" stroke="midnightblue" points="261.85,-152.68 258.16,-142.75 254.85,-152.81 261.85,-152.68"/>
</g>
<!-- Node4 -->
<g id="node4" class="node">
<title>Node4</title>
<g id="a_node4"><a xlink:href="MarmotJournal_8h.html" target="_top" xlink:title=" ">
<polygon fill="white" stroke="black" points="304.5,-67.5 304.5,-86.5 429.5,-86.5 429.5,-67.5 304.5,-67.5"/>
<text text-anchor="middle" x="367" y="-74.5" font-family="Helvetica,sans-Serif" font-size="10.00">Marmot/MarmotJournal.h</text>
</a>
</g>
</g>
<!-- Node3&#45;&gt;Node4 -->
<g id="edge3" class="edge">
<title>Node3&#45;&gt;Node4</title>
<path fill="none" stroke="midnightblue" d="M275.51,-123.32C293.07,-114.62 320.33,-101.12 340.53,-91.11"/>
<polygon fill="midnightblue" stroke="midnightblue" points="342.12,-94.23 349.53,-86.65 339.02,-87.96 342.12,-94.23"/>
</g>
<!-- Node8 -->
<g id="node8" class="node">
<title>Node8</title>
<g id="a_node8"><a xlink:href="MarmotTypedefs_8h.html" target="_top" xlink:title=" ">
<polygon fill="white" stroke="black" points="61.5,-67.5 61.5,-86.5 194.5,-86.5 194.5,-67.5 61.5,-67.5"/>
<text text-anchor="middle" x="128" y="-74.5" font-family="Helvetica,sans-Serif" font-size="10.00">Marmot/MarmotTypedefs.h</text>
</a>
</g>
</g>
<!-- Node3&#45;&gt;Node8 -->
<g id="edge7" class="edge">
<title>Node3&#45;&gt;Node8</title>
<path fill="none" stroke="midnightblue" d="M237.4,-123.44C216.01,-114.56 182.32,-100.56 157.98,-90.45"/>
<polygon fill="midnightblue" stroke="midnightblue" points="159.08,-87.12 148.5,-86.52 156.39,-93.58 159.08,-87.12"/>
</g>
<!-- Node5 -->
<g id="node5" class="node">
<title>Node5</title>
<g id="a_node5"><a xlink:title=" ">
<polygon fill="white" stroke="#bfbfbf" points="451,-6 451,-25 505,-25 505,-6 451,-6"/>
<text text-anchor="middle" x="478" y="-13" font-family="Helvetica,sans-Serif" font-size="10.00">iostream</text>
</a>
</g>
</g>
<!-- Node4&#45;&gt;Node5 -->
<g id="edge4" class="edge">
<title>Node4&#45;&gt;Node5</title>
<path fill="none" stroke="midnightblue" d="M382.9,-67.48C401.28,-57.62 431.76,-41.29 453.24,-29.77"/>
<polygon fill="midnightblue" stroke="midnightblue" points="454.97,-32.82 462.13,-25.01 451.66,-26.65 454.97,-32.82"/>
</g>
<!-- Node6 -->
<g id="node6" class="node">
<title>Node6</title>
<g id="a_node6"><a xlink:title=" ">
<polygon fill="white" stroke="#bfbfbf" points="321,-6 321,-25 373,-25 373,-6 321,-6"/>
<text text-anchor="middle" x="347" y="-13" font-family="Helvetica,sans-Serif" font-size="10.00">sstream</text>
</a>
</g>
</g>
<!-- Node4&#45;&gt;Node6 -->
<g id="edge5" class="edge">
<title>Node4&#45;&gt;Node6</title>
<path fill="none" stroke="midnightblue" d="M364.13,-67.48C361.28,-58.99 356.82,-45.7 353.16,-34.82"/>
<polygon fill="midnightblue" stroke="midnightblue" points="356.36,-33.37 349.86,-25.01 349.73,-35.6 356.36,-33.37"/>
</g>
<!-- Node7 -->
<g id="node7" class="node">
<title>Node7</title>
<g id="a_node7"><a xlink:title=" ">
<polygon fill="white" stroke="#bfbfbf" points="391.5,-6 391.5,-25 432.5,-25 432.5,-6 391.5,-6"/>
<text text-anchor="middle" x="412" y="-13" font-family="Helvetica,sans-Serif" font-size="10.00">string</text>
</a>
</g>
</g>
<!-- Node4&#45;&gt;Node7 -->
<g id="edge6" class="edge">
<title>Node4&#45;&gt;Node7</title>
<path fill="none" stroke="midnightblue" d="M373.45,-67.48C380.2,-58.55 390.97,-44.31 399.41,-33.14"/>
<polygon fill="midnightblue" stroke="midnightblue" points="402.32,-35.1 405.56,-25.01 396.74,-30.87 402.32,-35.1"/>
</g>
<!-- Node9 -->
<g id="node9" class="node">
<title>Node9</title>
<g id="a_node9"><a xlink:title=" ">
<polygon fill="white" stroke="#bfbfbf" points="0,-6 0,-25 64,-25 64,-6 0,-6"/>
<text text-anchor="middle" x="32" y="-13" font-family="Helvetica,sans-Serif" font-size="10.00">Eigen/Core</text>
</a>
</g>
</g>
<!-- Node8&#45;&gt;Node9 -->
<g id="edge8" class="edge">
<title>Node8&#45;&gt;Node9</title>
<path fill="none" stroke="midnightblue" d="M114.25,-67.48C98.63,-57.8 72.94,-41.87 54.42,-30.39"/>
<polygon fill="midnightblue" stroke="midnightblue" points="56.07,-27.3 45.73,-25.01 52.38,-33.25 56.07,-27.3"/>
</g>
<!-- Node10 -->
<g id="node10" class="node">
<title>Node10</title>
<g id="a_node10"><a xlink:title=" ">
<polygon fill="white" stroke="#bfbfbf" points="82.5,-6 82.5,-25 153.5,-25 153.5,-6 82.5,-6"/>
<text text-anchor="middle" x="118" y="-13" font-family="Helvetica,sans-Serif" font-size="10.00">Eigen/Dense</text>
</a>
</g>
</g>
<!-- Node8&#45;&gt;Node10 -->
<g id="edge9" class="edge">
<title>Node8&#45;&gt;Node10</title>
<path fill="none" stroke="midnightblue" d="M126.57,-67.48C125.16,-59.08 122.95,-45.98 121.14,-35.16"/>
<polygon fill="midnightblue" stroke="midnightblue" points="124.54,-34.29 119.43,-25.01 117.64,-35.45 124.54,-34.29"/>
</g>
<!-- Node11 -->
<g id="node11" class="node">
<title>Node11</title>
<g id="a_node11"><a xlink:title=" ">
<polygon fill="white" stroke="#bfbfbf" points="171.5,-0.5 171.5,-30.5 302.5,-30.5 302.5,-0.5 171.5,-0.5"/>
<text text-anchor="start" x="179.5" y="-18.5" font-family="Helvetica,sans-Serif" font-size="10.00">unsupported/Eigen/CXX11</text>
<text text-anchor="middle" x="237" y="-7.5" font-family="Helvetica,sans-Serif" font-size="10.00">/Tensor</text>
</a>
</g>
</g>
<!-- Node8&#45;&gt;Node11 -->
<g id="edge10" class="edge">
<title>Node8&#45;&gt;Node11</title>
<path fill="none" stroke="midnightblue" d="M143.62,-67.48C158.86,-59.15 182.58,-46.21 202.29,-35.45"/>
<polygon fill="midnightblue" stroke="midnightblue" points="204.21,-38.39 211.31,-30.52 200.86,-32.24 204.21,-38.39"/>
</g>
<!-- Node12&#45;&gt;Node3 -->
<g id="edge14" class="edge">
<title>Node12&#45;&gt;Node3</title>
<path fill="none" stroke="midnightblue" d="M131.77,-179.44C156.89,-170.4 196.71,-156.06 224.9,-145.92"/>
<polygon fill="midnightblue" stroke="midnightblue" points="226.12,-149.2 234.34,-142.52 223.75,-142.61 226.12,-149.2"/>
</g>
<!-- Node12&#45;&gt;Node4 -->
<g id="edge12" class="edge">
<title>Node12&#45;&gt;Node4</title>
<path fill="none" stroke="midnightblue" d="M116.37,-179.45C130.48,-165.53 160.46,-138.03 191,-123 224.85,-106.34 265.5,-95.42 299.19,-88.52"/>
<polygon fill="midnightblue" stroke="midnightblue" points="300.28,-91.88 309.41,-86.51 298.93,-85.01 300.28,-91.88"/>
</g>
<!-- Node12&#45;&gt;Node8 -->
<g id="edge13" class="edge">
<title>Node12&#45;&gt;Node8</title>
<path fill="none" stroke="midnightblue" d="M109.57,-179.37C112.8,-161.62 120.24,-120.67 124.62,-96.6"/>
<polygon fill="midnightblue" stroke="midnightblue" points="128.09,-97.06 126.44,-86.59 121.21,-95.8 128.09,-97.06"/>
</g>
<!-- Node13&#45;&gt;Node3 -->
<g id="edge18" class="edge">
<title>Node13&#45;&gt;Node3</title>
<path fill="none" stroke="midnightblue" d="M410.32,-179.44C379.47,-170.24 330.27,-155.56 296.17,-145.39"/>
<polygon fill="midnightblue" stroke="midnightblue" points="297.13,-142.02 286.55,-142.52 295.13,-148.73 297.13,-142.02"/>
</g>
<!-- Node13&#45;&gt;Node4 -->
<g id="edge16" class="edge">
<title>Node13&#45;&gt;Node4</title>
<path fill="none" stroke="midnightblue" d="M438.25,-179.33C436.78,-166.21 432.56,-140.91 421,-123 413.06,-110.7 400.71,-100.05 389.82,-92.2"/>
<polygon fill="midnightblue" stroke="midnightblue" points="391.75,-89.28 381.52,-86.53 387.8,-95.06 391.75,-89.28"/>
</g>
<!-- Node13&#45;&gt;Node5 -->
<g id="edge19" class="edge">
<title>Node13&#45;&gt;Node5</title>
<path fill="none" stroke="midnightblue" d="M440.99,-179.26C447.06,-152.54 465.49,-71.52 473.82,-34.86"/>
<polygon fill="midnightblue" stroke="midnightblue" points="477.26,-35.55 476.06,-25.02 470.43,-33.99 477.26,-35.55"/>
</g>
<!-- Node13&#45;&gt;Node8 -->
<g id="edge17" class="edge">
<title>Node13&#45;&gt;Node8</title>
<path fill="none" stroke="midnightblue" d="M425.01,-179.33C399.32,-163.53 345.38,-130.94 325,-123 283.29,-106.75 234.22,-95.52 195.48,-88.35"/>
<polygon fill="midnightblue" stroke="midnightblue" points="195.82,-84.85 185.36,-86.52 194.58,-91.74 195.82,-84.85"/>
</g>
<!-- Node14 -->
<g id="node14" class="node">
<title>Node14</title>
<g id="a_node14"><a xlink:title=" ">
<polygon fill="white" stroke="#bfbfbf" points="372.5,-123.5 372.5,-142.5 411.5,-142.5 411.5,-123.5 372.5,-123.5"/>
<text text-anchor="middle" x="392" y="-130.5" font-family="Helvetica,sans-Serif" font-size="10.00">utility</text>
</a>
</g>
</g>
<!-- Node13&#45;&gt;Node14 -->
<g id="edge20" class="edge">
<title>Node13&#45;&gt;Node14</title>
<path fill="none" stroke="midnightblue" d="M431.24,-179.08C424.46,-171.3 414.46,-159.8 406.24,-150.37"/>
<polygon fill="midnightblue" stroke="midnightblue" points="408.82,-148 399.62,-142.75 403.54,-152.59 408.82,-148"/>
</g>
</g>
</svg>
