<?xml version="1.0" encoding="UTF-8" standalone="no"?>
<!DOCTYPE svg PUBLIC "-//W3C//DTD SVG 1.1//EN"
 "http://www.w3.org/Graphics/SVG/1.1/DTD/svg11.dtd">
<!-- Generated by graphviz version 2.47.1 (20210421.1823)
 -->
<!-- Title: modules/core/MarmotMechanicsCore/src/HughesWinget.cpp Pages: 1 -->
<svg width="472pt" height="263pt"
 viewBox="0.00 0.00 471.50 263.00" xmlns="http://www.w3.org/2000/svg" xmlns:xlink="http://www.w3.org/1999/xlink">
<g id="graph0" class="graph" transform="scale(1 1) rotate(0) translate(4 259)">
<title>modules/core/MarmotMechanicsCore/src/HughesWinget.cpp</title>
<polygon fill="white" stroke="transparent" points="-4,4 -4,-259 467.5,-259 467.5,4 -4,4"/>
<!-- Node1 -->
<g id="node1" class="node">
<title>Node1</title>
<g id="a_node1"><a xlink:title=" ">
<polygon fill="#bfbfbf" stroke="black" points="122,-224.5 122,-254.5 280,-254.5 280,-224.5 122,-224.5"/>
<text text-anchor="start" x="130" y="-242.5" font-family="Helvetica,sans-Serif" font-size="10.00">modules/core/MarmotMechanics</text>
<text text-anchor="middle" x="201" y="-231.5" font-family="Helvetica,sans-Serif" font-size="10.00">Core/src/HughesWinget.cpp</text>
</a>
</g>
</g>
<!-- Node2 -->
<g id="node2" class="node">
<title>Node2</title>
<g id="a_node2"><a xlink:href="HughesWinget_8h.html" target="_top" xlink:title=" ">
<polygon fill="white" stroke="black" points="0,-168.5 0,-187.5 124,-187.5 124,-168.5 0,-168.5"/>
<text text-anchor="middle" x="62" y="-175.5" font-family="Helvetica,sans-Serif" font-size="10.00">Marmot/HughesWinget.h</text>
</a>
</g>
</g>
<!-- Node1&#45;&gt;Node2 -->
<g id="edge1" class="edge">
<title>Node1&#45;&gt;Node2</title>
<path fill="none" stroke="midnightblue" d="M168.06,-224.4C144.84,-214.46 114.01,-201.26 91.58,-191.66"/>
<polygon fill="midnightblue" stroke="midnightblue" points="92.8,-188.38 82.23,-187.66 90.04,-194.81 92.8,-188.38"/>
</g>
<!-- Node3 -->
<g id="node3" class="node">
<title>Node3</title>
<g id="a_node3"><a xlink:href="MarmotVoigt_8h.html" target="_top" xlink:title=" ">
<polygon fill="white" stroke="black" points="94,-112.5 94,-131.5 210,-131.5 210,-112.5 94,-112.5"/>
<text text-anchor="middle" x="152" y="-119.5" font-family="Helvetica,sans-Serif" font-size="10.00">Marmot/MarmotVoigt.h</text>
</a>
</g>
</g>
<!-- Node1&#45;&gt;Node3 -->
<g id="edge13" class="edge">
<title>Node1&#45;&gt;Node3</title>
<path fill="none" stroke="midnightblue" d="M191.33,-224.43C184.89,-214.57 176.61,-200.91 171,-188 164.41,-172.84 159.32,-154.72 156.08,-141.47"/>
<polygon fill="midnightblue" stroke="midnightblue" points="159.47,-140.6 153.8,-131.65 152.65,-142.19 159.47,-140.6"/>
</g>
<!-- Node9 -->
<g id="node9" class="node">
<title>Node9</title>
<g id="a_node9"><a xlink:href="MarmotKinematics_8h.html" target="_top" xlink:title=" ">
<polygon fill="white" stroke="black" points="180,-168.5 180,-187.5 322,-187.5 322,-168.5 180,-168.5"/>
<text text-anchor="middle" x="251" y="-175.5" font-family="Helvetica,sans-Serif" font-size="10.00">Marmot/MarmotKinematics.h</text>
</a>
</g>
</g>
<!-- Node1&#45;&gt;Node9 -->
<g id="edge8" class="edge">
<title>Node1&#45;&gt;Node9</title>
<path fill="none" stroke="midnightblue" d="M212.85,-224.4C220.11,-215.75 229.45,-204.64 237.07,-195.58"/>
<polygon fill="midnightblue" stroke="midnightblue" points="239.97,-197.57 243.72,-187.66 234.61,-193.06 239.97,-197.57"/>
</g>
<!-- Node10 -->
<g id="node10" class="node">
<title>Node10</title>
<g id="a_node10"><a xlink:title=" ">
<polygon fill="white" stroke="#bfbfbf" points="340.5,-168.5 340.5,-187.5 463.5,-187.5 463.5,-168.5 340.5,-168.5"/>
<text text-anchor="middle" x="402" y="-175.5" font-family="Helvetica,sans-Serif" font-size="10.00">Marmot/MarmotTensor.h</text>
</a>
</g>
</g>
<!-- Node1&#45;&gt;Node10 -->
<g id="edge12" class="edge">
<title>Node1&#45;&gt;Node10</title>
<path fill="none" stroke="midnightblue" d="M248.38,-224.47C283.51,-214.08 330.79,-200.08 363.58,-190.37"/>
<polygon fill="midnightblue" stroke="midnightblue" points="364.67,-193.7 373.26,-187.51 362.68,-186.99 364.67,-193.7"/>
</g>
<!-- Node2&#45;&gt;Node3 -->
<g id="edge2" class="edge">
<title>Node2&#45;&gt;Node3</title>
<path fill="none" stroke="midnightblue" d="M76.46,-168.32C90.5,-159.9 112.05,-146.97 128.54,-137.07"/>
<polygon fill="midnightblue" stroke="midnightblue" points="130.8,-139.8 137.58,-131.65 127.2,-133.8 130.8,-139.8"/>
</g>
<!-- Node4 -->
<g id="node4" class="node">
<title>Node4</title>
<g id="a_node4"><a xlink:href="MarmotJournal_8h.html" target="_top" xlink:title=" ">
<polygon fill="white" stroke="black" points="225.5,-56.5 225.5,-75.5 350.5,-75.5 350.5,-56.5 225.5,-56.5"/>
<text text-anchor="middle" x="288" y="-63.5" font-family="Helvetica,sans-Serif" font-size="10.00">Marmot/MarmotJournal.h</text>
</a>
</g>
</g>
<!-- Node3&#45;&gt;Node4 -->
<g id="edge3" class="edge">
<title>Node3&#45;&gt;Node4</title>
<path fill="none" stroke="midnightblue" d="M173.55,-112.44C196.03,-103.52 231.49,-89.44 256.98,-79.32"/>
<polygon fill="midnightblue" stroke="midnightblue" points="258.55,-82.46 266.55,-75.52 255.97,-75.95 258.55,-82.46"/>
</g>
<!-- Node8 -->
<g id="node8" class="node">
<title>Node8</title>
<g id="a_node8"><a xlink:title=" ">
<polygon fill="white" stroke="#bfbfbf" points="74.5,-56.5 74.5,-75.5 207.5,-75.5 207.5,-56.5 74.5,-56.5"/>
<text text-anchor="middle" x="141" y="-63.5" font-family="Helvetica,sans-Serif" font-size="10.00">Marmot/MarmotTypedefs.h</text>
</a>
</g>
</g>
<!-- Node3&#45;&gt;Node8 -->
<g id="edge7" class="edge">
<title>Node3&#45;&gt;Node8</title>
<path fill="none" stroke="midnightblue" d="M150.18,-112.08C148.73,-104.93 146.63,-94.64 144.81,-85.69"/>
<polygon fill="midnightblue" stroke="midnightblue" points="148.21,-84.85 142.78,-75.75 141.35,-86.25 148.21,-84.85"/>
</g>
<!-- Node5 -->
<g id="node5" class="node">
<title>Node5</title>
<g id="a_node5"><a xlink:title=" ">
<polygon fill="white" stroke="#bfbfbf" points="190,-0.5 190,-19.5 244,-19.5 244,-0.5 190,-0.5"/>
<text text-anchor="middle" x="217" y="-7.5" font-family="Helvetica,sans-Serif" font-size="10.00">iostream</text>
</a>
</g>
</g>
<!-- Node4&#45;&gt;Node5 -->
<g id="edge4" class="edge">
<title>Node4&#45;&gt;Node5</title>
<path fill="none" stroke="midnightblue" d="M276.59,-56.32C265.89,-48.18 249.66,-35.84 236.84,-26.09"/>
<polygon fill="midnightblue" stroke="midnightblue" points="238.69,-23.1 228.61,-19.83 234.46,-28.67 238.69,-23.1"/>
</g>
<!-- Node6 -->
<g id="node6" class="node">
<title>Node6</title>
<g id="a_node6"><a xlink:title=" ">
<polygon fill="white" stroke="#bfbfbf" points="262,-0.5 262,-19.5 314,-19.5 314,-0.5 262,-0.5"/>
<text text-anchor="middle" x="288" y="-7.5" font-family="Helvetica,sans-Serif" font-size="10.00">sstream</text>
</a>
</g>
</g>
<!-- Node4&#45;&gt;Node6 -->
<g id="edge5" class="edge">
<title>Node4&#45;&gt;Node6</title>
<path fill="none" stroke="midnightblue" d="M288,-56.08C288,-49.01 288,-38.86 288,-29.99"/>
<polygon fill="midnightblue" stroke="midnightblue" points="291.5,-29.75 288,-19.75 284.5,-29.75 291.5,-29.75"/>
</g>
<!-- Node7 -->
<g id="node7" class="node">
<title>Node7</title>
<g id="a_node7"><a xlink:title=" ">
<polygon fill="white" stroke="#bfbfbf" points="332.5,-0.5 332.5,-19.5 373.5,-19.5 373.5,-0.5 332.5,-0.5"/>
<text text-anchor="middle" x="353" y="-7.5" font-family="Helvetica,sans-Serif" font-size="10.00">string</text>
</a>
</g>
</g>
<!-- Node4&#45;&gt;Node7 -->
<g id="edge6" class="edge">
<title>Node4&#45;&gt;Node7</title>
<path fill="none" stroke="midnightblue" d="M298.44,-56.32C308.15,-48.26 322.82,-36.08 334.5,-26.37"/>
<polygon fill="midnightblue" stroke="midnightblue" points="336.91,-28.92 342.37,-19.83 332.44,-23.53 336.91,-28.92"/>
</g>
<!-- Node9&#45;&gt;Node3 -->
<g id="edge11" class="edge">
<title>Node9&#45;&gt;Node3</title>
<path fill="none" stroke="midnightblue" d="M235.09,-168.32C219.36,-159.74 195.06,-146.49 176.79,-136.52"/>
<polygon fill="midnightblue" stroke="midnightblue" points="178.32,-133.37 167.87,-131.65 174.97,-139.52 178.32,-133.37"/>
</g>
<!-- Node9&#45;&gt;Node4 -->
<g id="edge9" class="edge">
<title>Node9&#45;&gt;Node4</title>
<path fill="none" stroke="midnightblue" d="M253.9,-168.37C259.9,-150.54 273.77,-109.3 281.85,-85.27"/>
<polygon fill="midnightblue" stroke="midnightblue" points="285.24,-86.19 285.11,-75.59 278.6,-83.95 285.24,-86.19"/>
</g>
<!-- Node9&#45;&gt;Node8 -->
<g id="edge10" class="edge">
<title>Node9&#45;&gt;Node8</title>
<path fill="none" stroke="midnightblue" d="M248.58,-168.48C244.43,-155.08 234.82,-128.89 219,-112 206.08,-98.2 187.97,-87.4 172.45,-79.84"/>
<polygon fill="midnightblue" stroke="midnightblue" points="173.73,-76.58 163.19,-75.56 170.79,-82.93 173.73,-76.58"/>
</g>
</g>
</svg>
