<?xml version="1.0" encoding="UTF-8" standalone="no"?>
<!DOCTYPE svg PUBLIC "-//W3C//DTD SVG 1.1//EN"
 "http://www.w3.org/Graphics/SVG/1.1/DTD/svg11.dtd">
<!-- Generated by graphviz version 3.0.0 (20220413.0106)
 -->
<!-- Title: modules/core/MarmotMechanicsCore/src/HughesWinget.cpp Pages: 1 -->
<svg width="681pt" height="330pt"
 viewBox="0.00 0.00 681.00 330.00" xmlns="http://www.w3.org/2000/svg" xmlns:xlink="http://www.w3.org/1999/xlink">
<g id="graph0" class="graph" transform="scale(1 1) rotate(0) translate(4 326)">
<title>modules/core/MarmotMechanicsCore/src/HughesWinget.cpp</title>
<polygon fill="white" stroke="transparent" points="-4,4 -4,-326 677,-326 677,4 -4,4"/>
<!-- Node1 -->
<g id="node1" class="node">
<title>Node1</title>
<g id="a_node1"><a xlink:title=" ">
<polygon fill="#bfbfbf" stroke="black" points="263.5,-291.5 263.5,-321.5 421.5,-321.5 421.5,-291.5 263.5,-291.5"/>
<text text-anchor="start" x="271.5" y="-309.5" font-family="Helvetica,sans-Serif" font-size="10.00">modules/core/MarmotMechanics</text>
<text text-anchor="middle" x="342.5" y="-298.5" font-family="Helvetica,sans-Serif" font-size="10.00">Core/src/HughesWinget.cpp</text>
</a>
</g>
</g>
<!-- Node2 -->
<g id="node2" class="node">
<title>Node2</title>
<g id="a_node2"><a xlink:href="HughesWinget_8h.html" target="_top" xlink:title=" ">
<polygon fill="white" stroke="black" points="141.5,-235.5 141.5,-254.5 265.5,-254.5 265.5,-235.5 141.5,-235.5"/>
<text text-anchor="middle" x="203.5" y="-242.5" font-family="Helvetica,sans-Serif" font-size="10.00">Marmot/HughesWinget.h</text>
</a>
</g>
</g>
<!-- Node1&#45;&gt;Node2 -->
<g id="edge1" class="edge">
<title>Node1&#45;&gt;Node2</title>
<path fill="none" stroke="midnightblue" d="M309.56,-291.4C286.34,-281.46 255.51,-268.26 233.08,-258.66"/>
<polygon fill="midnightblue" stroke="midnightblue" points="234.3,-255.38 223.73,-254.66 231.54,-261.81 234.3,-255.38"/>
</g>
<!-- Node3 -->
<g id="node3" class="node">
<title>Node3</title>
<g id="a_node3"><a xlink:href="MarmotVoigt_8h.html" target="_top" xlink:title=" ">
<polygon fill="white" stroke="black" points="241.5,-179.5 241.5,-198.5 357.5,-198.5 357.5,-179.5 241.5,-179.5"/>
<text text-anchor="middle" x="299.5" y="-186.5" font-family="Helvetica,sans-Serif" font-size="10.00">Marmot/MarmotVoigt.h</text>
</a>
</g>
</g>
<!-- Node1&#45;&gt;Node3 -->
<g id="edge27" class="edge">
<title>Node1&#45;&gt;Node3</title>
<path fill="none" stroke="midnightblue" d="M332.18,-291.15C325.63,-281.39 317.47,-267.95 312.5,-255 306.76,-240.04 303.41,-222.13 301.56,-208.9"/>
<polygon fill="midnightblue" stroke="midnightblue" points="305,-208.17 300.29,-198.67 298.05,-209.03 305,-208.17"/>
</g>
<!-- Node17 -->
<g id="node17" class="node">
<title>Node17</title>
<g id="a_node17"><a xlink:href="MarmotKinematics_8h.html" target="_top" xlink:title=" ">
<polygon fill="white" stroke="black" points="321.5,-235.5 321.5,-254.5 463.5,-254.5 463.5,-235.5 321.5,-235.5"/>
<text text-anchor="middle" x="392.5" y="-242.5" font-family="Helvetica,sans-Serif" font-size="10.00">Marmot/MarmotKinematics.h</text>
</a>
</g>
</g>
<!-- Node1&#45;&gt;Node17 -->
<g id="edge17" class="edge">
<title>Node1&#45;&gt;Node17</title>
<path fill="none" stroke="midnightblue" d="M354.35,-291.4C361.61,-282.75 370.95,-271.64 378.57,-262.58"/>
<polygon fill="midnightblue" stroke="midnightblue" points="381.47,-264.57 385.22,-254.66 376.11,-260.06 381.47,-264.57"/>
</g>
<!-- Node18 -->
<g id="node18" class="node">
<title>Node18</title>
<g id="a_node18"><a xlink:href="MarmotTensor_8h.html" target="_top" xlink:title=" ">
<polygon fill="white" stroke="black" points="482,-235.5 482,-254.5 605,-254.5 605,-235.5 482,-235.5"/>
<text text-anchor="middle" x="543.5" y="-242.5" font-family="Helvetica,sans-Serif" font-size="10.00">Marmot/MarmotTensor.h</text>
</a>
</g>
</g>
<!-- Node1&#45;&gt;Node18 -->
<g id="edge21" class="edge">
<title>Node1&#45;&gt;Node18</title>
<path fill="none" stroke="midnightblue" d="M389.88,-291.47C425.01,-281.08 472.29,-267.08 505.08,-257.37"/>
<polygon fill="midnightblue" stroke="midnightblue" points="506.17,-260.7 514.76,-254.51 504.18,-253.99 506.17,-260.7"/>
</g>
<!-- Node2&#45;&gt;Node3 -->
<g id="edge2" class="edge">
<title>Node2&#45;&gt;Node3</title>
<path fill="none" stroke="midnightblue" d="M218.92,-235.32C234.04,-226.82 257.32,-213.73 274.97,-203.8"/>
<polygon fill="midnightblue" stroke="midnightblue" points="277.11,-206.61 284.11,-198.65 273.68,-200.51 277.11,-206.61"/>
</g>
<!-- Node4 -->
<g id="node4" class="node">
<title>Node4</title>
<g id="a_node4"><a xlink:href="MarmotJournal_8h.html" target="_top" xlink:title=" ">
<polygon fill="white" stroke="black" points="452,-123.5 452,-142.5 577,-142.5 577,-123.5 452,-123.5"/>
<text text-anchor="middle" x="514.5" y="-130.5" font-family="Helvetica,sans-Serif" font-size="10.00">Marmot/MarmotJournal.h</text>
</a>
</g>
</g>
<!-- Node3&#45;&gt;Node4 -->
<g id="edge3" class="edge">
<title>Node3&#45;&gt;Node4</title>
<path fill="none" stroke="midnightblue" d="M333.57,-179.44C370.68,-170.12 430.16,-155.18 470.71,-145"/>
<polygon fill="midnightblue" stroke="midnightblue" points="471.75,-148.35 480.59,-142.52 470.04,-141.56 471.75,-148.35"/>
</g>
<!-- Node8 -->
<g id="node8" class="node">
<title>Node8</title>
<g id="a_node8"><a xlink:href="MarmotMath_8h.html" target="_top" xlink:title=" ">
<polygon fill="white" stroke="black" points="197,-123.5 197,-142.5 312,-142.5 312,-123.5 197,-123.5"/>
<text text-anchor="middle" x="254.5" y="-130.5" font-family="Helvetica,sans-Serif" font-size="10.00">Marmot/MarmotMath.h</text>
</a>
</g>
</g>
<!-- Node3&#45;&gt;Node8 -->
<g id="edge7" class="edge">
<title>Node3&#45;&gt;Node8</title>
<path fill="none" stroke="midnightblue" d="M292.07,-179.08C285.65,-171.38 276.19,-160.03 268.38,-150.65"/>
<polygon fill="midnightblue" stroke="midnightblue" points="270.88,-148.19 261.79,-142.75 265.51,-152.67 270.88,-148.19"/>
</g>
<!-- Node11 -->
<g id="node11" class="node">
<title>Node11</title>
<g id="a_node11"><a xlink:href="MarmotTypedefs_8h.html" target="_top" xlink:title=" ">
<polygon fill="white" stroke="black" points="301,-67.5 301,-86.5 434,-86.5 434,-67.5 301,-67.5"/>
<text text-anchor="middle" x="367.5" y="-74.5" font-family="Helvetica,sans-Serif" font-size="10.00">Marmot/MarmotTypedefs.h</text>
</a>
</g>
</g>
<!-- Node3&#45;&gt;Node11 -->
<g id="edge16" class="edge">
<title>Node3&#45;&gt;Node11</title>
<path fill="none" stroke="midnightblue" d="M304.84,-179.37C316.01,-161.3 342.05,-119.18 356.8,-95.31"/>
<polygon fill="midnightblue" stroke="midnightblue" points="359.91,-96.94 362.19,-86.59 353.95,-93.26 359.91,-96.94"/>
</g>
<!-- Node5 -->
<g id="node5" class="node">
<title>Node5</title>
<g id="a_node5"><a xlink:title=" ">
<polygon fill="white" stroke="#bfbfbf" points="581.5,-67.5 581.5,-86.5 635.5,-86.5 635.5,-67.5 581.5,-67.5"/>
<text text-anchor="middle" x="608.5" y="-74.5" font-family="Helvetica,sans-Serif" font-size="10.00">iostream</text>
</a>
</g>
</g>
<!-- Node4&#45;&gt;Node5 -->
<g id="edge4" class="edge">
<title>Node4&#45;&gt;Node5</title>
<path fill="none" stroke="midnightblue" d="M529.6,-123.32C544.4,-114.82 567.19,-101.73 584.48,-91.8"/>
<polygon fill="midnightblue" stroke="midnightblue" points="586.51,-94.67 593.43,-86.65 583.02,-88.6 586.51,-94.67"/>
</g>
<!-- Node6 -->
<g id="node6" class="node">
<title>Node6</title>
<g id="a_node6"><a xlink:title=" ">
<polygon fill="white" stroke="#bfbfbf" points="511.5,-67.5 511.5,-86.5 563.5,-86.5 563.5,-67.5 511.5,-67.5"/>
<text text-anchor="middle" x="537.5" y="-74.5" font-family="Helvetica,sans-Serif" font-size="10.00">sstream</text>
</a>
</g>
</g>
<!-- Node4&#45;&gt;Node6 -->
<g id="edge5" class="edge">
<title>Node4&#45;&gt;Node6</title>
<path fill="none" stroke="midnightblue" d="M518.3,-123.08C521.41,-115.77 525.92,-105.18 529.79,-96.1"/>
<polygon fill="midnightblue" stroke="midnightblue" points="533.07,-97.32 533.77,-86.75 526.63,-94.58 533.07,-97.32"/>
</g>
<!-- Node7 -->
<g id="node7" class="node">
<title>Node7</title>
<g id="a_node7"><a xlink:title=" ">
<polygon fill="white" stroke="#bfbfbf" points="452,-67.5 452,-86.5 493,-86.5 493,-67.5 452,-67.5"/>
<text text-anchor="middle" x="472.5" y="-74.5" font-family="Helvetica,sans-Serif" font-size="10.00">string</text>
</a>
</g>
</g>
<!-- Node4&#45;&gt;Node7 -->
<g id="edge6" class="edge">
<title>Node4&#45;&gt;Node7</title>
<path fill="none" stroke="midnightblue" d="M507.56,-123.08C501.57,-115.38 492.75,-104.03 485.45,-94.65"/>
<polygon fill="midnightblue" stroke="midnightblue" points="488.21,-92.5 479.31,-86.75 482.68,-96.79 488.21,-92.5"/>
</g>
<!-- Node9 -->
<g id="node9" class="node">
<title>Node9</title>
<g id="a_node9"><a xlink:href="MarmotConstants_8h.html" target="_top" xlink:title=" ">
<polygon fill="white" stroke="black" points="71,-67.5 71,-86.5 208,-86.5 208,-67.5 71,-67.5"/>
<text text-anchor="middle" x="139.5" y="-74.5" font-family="Helvetica,sans-Serif" font-size="10.00">Marmot/MarmotConstants.h</text>
</a>
</g>
</g>
<!-- Node8&#45;&gt;Node9 -->
<g id="edge8" class="edge">
<title>Node8&#45;&gt;Node9</title>
<path fill="none" stroke="midnightblue" d="M236.28,-123.44C217.6,-114.68 188.34,-100.94 166.88,-90.86"/>
<polygon fill="midnightblue" stroke="midnightblue" points="168.18,-87.6 157.64,-86.52 165.2,-93.93 168.18,-87.6"/>
</g>
<!-- Node8&#45;&gt;Node11 -->
<g id="edge10" class="edge">
<title>Node8&#45;&gt;Node11</title>
<path fill="none" stroke="midnightblue" d="M272.41,-123.44C290.75,-114.68 319.51,-100.94 340.59,-90.86"/>
<polygon fill="midnightblue" stroke="midnightblue" points="342.17,-93.99 349.68,-86.52 339.15,-87.67 342.17,-93.99"/>
</g>
<!-- Node15 -->
<g id="node15" class="node">
<title>Node15</title>
<g id="a_node15"><a xlink:title=" ">
<polygon fill="white" stroke="#bfbfbf" points="226.5,-67.5 226.5,-86.5 282.5,-86.5 282.5,-67.5 226.5,-67.5"/>
<text text-anchor="middle" x="254.5" y="-74.5" font-family="Helvetica,sans-Serif" font-size="10.00">algorithm</text>
</a>
</g>
</g>
<!-- Node8&#45;&gt;Node15 -->
<g id="edge14" class="edge">
<title>Node8&#45;&gt;Node15</title>
<path fill="none" stroke="midnightblue" d="M254.5,-123.08C254.5,-116.01 254.5,-105.86 254.5,-96.99"/>
<polygon fill="midnightblue" stroke="midnightblue" points="258,-96.75 254.5,-86.75 251,-96.75 258,-96.75"/>
</g>
<!-- Node16 -->
<g id="node16" class="node">
<title>Node16</title>
<g id="a_node16"><a xlink:title=" ">
<polygon fill="white" stroke="#bfbfbf" points="0,-67.5 0,-86.5 53,-86.5 53,-67.5 0,-67.5"/>
<text text-anchor="middle" x="26.5" y="-74.5" font-family="Helvetica,sans-Serif" font-size="10.00">complex</text>
</a>
</g>
</g>
<!-- Node8&#45;&gt;Node16 -->
<g id="edge15" class="edge">
<title>Node8&#45;&gt;Node16</title>
<path fill="none" stroke="midnightblue" d="M216.72,-123.46C179.82,-115.05 121.82,-101.69 63.06,-87.35"/>
<polygon fill="midnightblue" stroke="midnightblue" points="63.78,-83.92 53.24,-84.94 62.12,-90.72 63.78,-83.92"/>
</g>
<!-- Node10 -->
<g id="node10" class="node">
<title>Node10</title>
<g id="a_node10"><a xlink:title=" ">
<polygon fill="white" stroke="#bfbfbf" points="117.5,-6 117.5,-25 161.5,-25 161.5,-6 117.5,-6"/>
<text text-anchor="middle" x="139.5" y="-13" font-family="Helvetica,sans-Serif" font-size="10.00">cmath</text>
</a>
</g>
</g>
<!-- Node9&#45;&gt;Node10 -->
<g id="edge9" class="edge">
<title>Node9&#45;&gt;Node10</title>
<path fill="none" stroke="midnightblue" d="M139.5,-67.48C139.5,-59.08 139.5,-45.98 139.5,-35.16"/>
<polygon fill="midnightblue" stroke="midnightblue" points="143,-35.01 139.5,-25.01 136,-35.01 143,-35.01"/>
</g>
<!-- Node12 -->
<g id="node12" class="node">
<title>Node12</title>
<g id="a_node12"><a xlink:title=" ">
<polygon fill="white" stroke="#bfbfbf" points="249.5,-6 249.5,-25 313.5,-25 313.5,-6 249.5,-6"/>
<text text-anchor="middle" x="281.5" y="-13" font-family="Helvetica,sans-Serif" font-size="10.00">Eigen/Core</text>
</a>
</g>
</g>
<!-- Node11&#45;&gt;Node12 -->
<g id="edge11" class="edge">
<title>Node11&#45;&gt;Node12</title>
<path fill="none" stroke="midnightblue" d="M355.18,-67.48C341.38,-57.93 318.8,-42.31 302.27,-30.87"/>
<polygon fill="midnightblue" stroke="midnightblue" points="304.01,-27.82 293.8,-25.01 300.03,-33.58 304.01,-27.82"/>
</g>
<!-- Node13 -->
<g id="node13" class="node">
<title>Node13</title>
<g id="a_node13"><a xlink:title=" ">
<polygon fill="white" stroke="#bfbfbf" points="332,-6 332,-25 403,-25 403,-6 332,-6"/>
<text text-anchor="middle" x="367.5" y="-13" font-family="Helvetica,sans-Serif" font-size="10.00">Eigen/Dense</text>
</a>
</g>
</g>
<!-- Node11&#45;&gt;Node13 -->
<g id="edge12" class="edge">
<title>Node11&#45;&gt;Node13</title>
<path fill="none" stroke="midnightblue" d="M367.5,-67.48C367.5,-59.08 367.5,-45.98 367.5,-35.16"/>
<polygon fill="midnightblue" stroke="midnightblue" points="371,-35.01 367.5,-25.01 364,-35.01 371,-35.01"/>
</g>
<!-- Node14 -->
<g id="node14" class="node">
<title>Node14</title>
<g id="a_node14"><a xlink:title=" ">
<polygon fill="white" stroke="#bfbfbf" points="421,-0.5 421,-30.5 552,-30.5 552,-0.5 421,-0.5"/>
<text text-anchor="start" x="429" y="-18.5" font-family="Helvetica,sans-Serif" font-size="10.00">unsupported/Eigen/CXX11</text>
<text text-anchor="middle" x="486.5" y="-7.5" font-family="Helvetica,sans-Serif" font-size="10.00">/Tensor</text>
</a>
</g>
</g>
<!-- Node11&#45;&gt;Node14 -->
<g id="edge13" class="edge">
<title>Node11&#45;&gt;Node14</title>
<path fill="none" stroke="midnightblue" d="M384.55,-67.48C401.42,-59.04 427.79,-45.86 449.48,-35.01"/>
<polygon fill="midnightblue" stroke="midnightblue" points="451.08,-38.13 458.45,-30.52 447.94,-31.86 451.08,-38.13"/>
</g>
<!-- Node17&#45;&gt;Node3 -->
<g id="edge20" class="edge">
<title>Node17&#45;&gt;Node3</title>
<path fill="none" stroke="midnightblue" d="M377.56,-235.32C362.91,-226.82 340.37,-213.73 323.26,-203.8"/>
<polygon fill="midnightblue" stroke="midnightblue" points="324.81,-200.65 314.4,-198.65 321.3,-206.7 324.81,-200.65"/>
</g>
<!-- Node17&#45;&gt;Node4 -->
<g id="edge18" class="edge">
<title>Node17&#45;&gt;Node4</title>
<path fill="none" stroke="midnightblue" d="M402.07,-235.37C422.65,-216.81 471.34,-172.91 497.38,-149.44"/>
<polygon fill="midnightblue" stroke="midnightblue" points="499.89,-151.89 504.97,-142.59 495.2,-146.69 499.89,-151.89"/>
</g>
<!-- Node17&#45;&gt;Node11 -->
<g id="edge19" class="edge">
<title>Node17&#45;&gt;Node11</title>
<path fill="none" stroke="midnightblue" d="M391.16,-235.08C387.22,-208.95 375.66,-132.21 370.3,-96.58"/>
<polygon fill="midnightblue" stroke="midnightblue" points="373.74,-95.94 368.79,-86.57 366.82,-96.98 373.74,-95.94"/>
</g>
<!-- Node18&#45;&gt;Node3 -->
<g id="edge24" class="edge">
<title>Node18&#45;&gt;Node3</title>
<path fill="none" stroke="midnightblue" d="M504.84,-235.44C462.36,-226.04 394.07,-210.93 348.03,-200.74"/>
<polygon fill="midnightblue" stroke="midnightblue" points="348.5,-197.26 337.98,-198.52 346.99,-204.09 348.5,-197.26"/>
</g>
<!-- Node18&#45;&gt;Node4 -->
<g id="edge22" class="edge">
<title>Node18&#45;&gt;Node4</title>
<path fill="none" stroke="midnightblue" d="M541.22,-235.37C536.52,-217.54 525.65,-176.3 519.32,-152.27"/>
<polygon fill="midnightblue" stroke="midnightblue" points="522.7,-151.37 516.77,-142.59 515.93,-153.15 522.7,-151.37"/>
</g>
<!-- Node18&#45;&gt;Node5 -->
<g id="edge25" class="edge">
<title>Node18&#45;&gt;Node5</title>
<path fill="none" stroke="midnightblue" d="M547.4,-235.44C555.24,-218.15 573.25,-177.72 586.5,-143 592.4,-127.52 598.39,-109.68 602.62,-96.61"/>
<polygon fill="midnightblue" stroke="midnightblue" points="606.01,-97.5 605.72,-86.91 599.34,-95.37 606.01,-97.5"/>
</g>
<!-- Node18&#45;&gt;Node11 -->
<g id="edge23" class="edge">
<title>Node18&#45;&gt;Node11</title>
<path fill="none" stroke="midnightblue" d="M534.04,-235.08C505.49,-208.15 420,-127.51 383.88,-93.45"/>
<polygon fill="midnightblue" stroke="midnightblue" points="386.26,-90.88 376.58,-86.57 381.46,-95.98 386.26,-90.88"/>
</g>
<!-- Node19 -->
<g id="node19" class="node">
<title>Node19</title>
<g id="a_node19"><a xlink:title=" ">
<polygon fill="white" stroke="#bfbfbf" points="634,-179.5 634,-198.5 673,-198.5 673,-179.5 634,-179.5"/>
<text text-anchor="middle" x="653.5" y="-186.5" font-family="Helvetica,sans-Serif" font-size="10.00">utility</text>
</a>
</g>
</g>
<!-- Node18&#45;&gt;Node19 -->
<g id="edge26" class="edge">
<title>Node18&#45;&gt;Node19</title>
<path fill="none" stroke="midnightblue" d="M561.17,-235.32C578.89,-226.62 606.4,-213.12 626.79,-203.11"/>
<polygon fill="midnightblue" stroke="midnightblue" points="628.44,-206.2 635.87,-198.65 625.35,-199.92 628.44,-206.2"/>
</g>
</g>
</svg>
