<?xml version="1.0" encoding="UTF-8" standalone="no"?>
<!DOCTYPE svg PUBLIC "-//W3C//DTD SVG 1.1//EN"
 "http://www.w3.org/Graphics/SVG/1.1/DTD/svg11.dtd">
<!-- Generated by graphviz version 2.44.0 ()
 -->
<!-- Title: modules/core/MarmotMechanicsCore/src/HughesWinget.cpp Pages: 1 -->
<!--zoomable 341 -->
<svg id="main" version="1.1" xmlns="http://www.w3.org/2000/svg" xmlns:xlink="http://www.w3.org/1999/xlink" xml:space="preserve" onload="init(evt)">
<style type="text/css"><![CDATA[
.edge:hover path { stroke: red; }
.edge:hover polygon { stroke: red; fill: red; }
]]></style>
<script type="text/javascript"><![CDATA[
var edges = document.getElementsByTagName('g');
if (edges && edges.length) {
  for (var i=0;i<edges.length;i++) {
    if (edges[i].id.substr(0,4)=='edge') {
      edges[i].setAttribute('class','edge');
    }
  }
}
]]></script>
        <defs>
                <circle id="rim" cx="0" cy="0" r="7"/>
                <circle id="rim2" cx="0" cy="0" r="3.5"/>
                <g id="zoomPlus">
                        <use xlink:href="#rim" fill="#404040">
                                <set attributeName="fill" to="#808080" begin="zoomplus.mouseover" end="zoomplus.mouseout"/>
                        </use>
                        <path d="M-4,0h8M0,-4v8" fill="none" stroke="white" stroke-width="1.5" pointer-events="none"/>
                </g>
                <g id="zoomMin">
                        <use xlink:href="#rim" fill="#404040">
                                <set attributeName="fill" to="#808080" begin="zoomminus.mouseover" end="zoomminus.mouseout"/>
                        </use>
                        <path d="M-4,0h8" fill="none" stroke="white" stroke-width="1.5" pointer-events="none"/>
                </g>
                <g id="dirArrow">
                        <path fill="none" stroke="white" stroke-width="1.5" d="M0,-3.0v7 M-2.5,-0.5L0,-3.0L2.5,-0.5"/>
                </g>
               <g id="resetDef">
                       <use xlink:href="#rim2" fill="#404040">
                               <set attributeName="fill" to="#808080" begin="reset.mouseover" end="reset.mouseout"/>
                       </use>
               </g>
        </defs>

<script type="text/javascript">
var viewWidth = 1045;
var viewHeight = 341;
var sectionId = 'dynsection-0';
</script>
<script xlink:href="svgpan.js"/>
<svg id="graph" class="graph">
<g id="viewport">
<title>modules/core/MarmotMechanicsCore/src/HughesWinget.cpp</title>
<polygon fill="white" stroke="transparent" points="-4,4 -4,-337 1040.5,-337 1040.5,4 -4,4"/>
<!-- Node1 -->
<g id="node1" class="node">
<title>Node1</title>
<g id="a_node1"><a xlink:title=" ">
<polygon fill="#bfbfbf" stroke="black" points="621,-302.5 621,-332.5 779,-332.5 779,-302.5 621,-302.5"/>
<text text-anchor="start" x="629" y="-320.5" font-family="Helvetica,sans-Serif" font-size="10.00">modules/core/MarmotMechanics</text>
<text text-anchor="middle" x="700" y="-309.5" font-family="Helvetica,sans-Serif" font-size="10.00">Core/src/HughesWinget.cpp</text>
</a>
</g>
</g>
<!-- Node2 -->
<g id="node2" class="node">
<title>Node2</title>
<g id="a_node2"><a xlink:href="HughesWinget_8h.html" target="_top" xlink:title=" ">
<polygon fill="white" stroke="black" points="563,-246.5 563,-265.5 687,-265.5 687,-246.5 563,-246.5"/>
<text text-anchor="middle" x="625" y="-253.5" font-family="Helvetica,sans-Serif" font-size="10.00">Marmot/HughesWinget.h</text>
</a>
</g>
</g>
<!-- Node1&#45;&gt;Node2 -->
<g id="edge1" class="edge">
<title>Node1&#45;&gt;Node2</title>
<path fill="none" stroke="midnightblue" d="M682.23,-302.4C670.65,-293.22 655.58,-281.26 643.8,-271.92"/>
<polygon fill="midnightblue" stroke="midnightblue" points="645.92,-269.13 635.91,-265.66 641.57,-274.61 645.92,-269.13"/>
</g>
<!-- Node3 -->
<g id="node3" class="node">
<title>Node3</title>
<g id="a_node3"><a xlink:href="MarmotVoigt_8h.html" target="_top" xlink:title=" ">
<polygon fill="white" stroke="black" points="624,-190.5 624,-209.5 740,-209.5 740,-190.5 624,-190.5"/>
<text text-anchor="middle" x="682" y="-197.5" font-family="Helvetica,sans-Serif" font-size="10.00">Marmot/MarmotVoigt.h</text>
</a>
</g>
</g>
<!-- Node1&#45;&gt;Node3 -->
<g id="edge29" class="edge">
<title>Node1&#45;&gt;Node3</title>
<path fill="none" stroke="midnightblue" d="M620.76,-307.43C595.24,-300.33 569.56,-287.85 554,-266 533.9,-237.77 573.39,-221.04 613.67,-211.63"/>
<polygon fill="midnightblue" stroke="midnightblue" points="614.59,-215.01 623.61,-209.45 613.1,-208.17 614.59,-215.01"/>
</g>
<!-- Node20 -->
<g id="node20" class="node">
<title>Node20</title>
<g id="a_node20"><a xlink:href="MarmotKinematics_8h.html" target="_top" xlink:title=" ">
<polygon fill="white" stroke="black" points="705,-246.5 705,-265.5 847,-265.5 847,-246.5 705,-246.5"/>
<text text-anchor="middle" x="776" y="-253.5" font-family="Helvetica,sans-Serif" font-size="10.00">Marmot/MarmotKinematics.h</text>
</a>
</g>
</g>
<!-- Node1&#45;&gt;Node20 -->
<g id="edge20" class="edge">
<title>Node1&#45;&gt;Node20</title>
<path fill="none" stroke="midnightblue" d="M718.01,-302.4C729.74,-293.22 745.02,-281.26 756.94,-271.92"/>
<polygon fill="midnightblue" stroke="midnightblue" points="759.22,-274.58 764.94,-265.66 754.91,-269.07 759.22,-274.58"/>
</g>
<!-- Node21 -->
<g id="node21" class="node">
<title>Node21</title>
<g id="a_node21"><a xlink:href="MarmotTensor_8h.html" target="_top" xlink:title=" ">
<polygon fill="white" stroke="black" points="865.5,-246.5 865.5,-265.5 988.5,-265.5 988.5,-246.5 865.5,-246.5"/>
<text text-anchor="middle" x="927" y="-253.5" font-family="Helvetica,sans-Serif" font-size="10.00">Marmot/MarmotTensor.h</text>
</a>
</g>
</g>
<!-- Node1&#45;&gt;Node21 -->
<g id="edge24" class="edge">
<title>Node1&#45;&gt;Node21</title>
<path fill="none" stroke="midnightblue" d="M753.51,-302.47C793.53,-291.99 847.51,-277.84 884.57,-268.12"/>
<polygon fill="midnightblue" stroke="midnightblue" points="885.76,-271.43 894.55,-265.51 883.99,-264.66 885.76,-271.43"/>
</g>
<!-- Node2&#45;&gt;Node3 -->
<g id="edge2" class="edge">
<title>Node2&#45;&gt;Node3</title>
<path fill="none" stroke="midnightblue" d="M634.16,-246.32C642.5,-238.42 655.03,-226.55 665.18,-216.94"/>
<polygon fill="midnightblue" stroke="midnightblue" points="667.82,-219.25 672.68,-209.83 663.01,-214.17 667.82,-219.25"/>
</g>
<!-- Node4 -->
<g id="node4" class="node">
<title>Node4</title>
<g id="a_node4"><a xlink:href="MarmotJournal_8h.html" target="_top" xlink:title=" ">
<polygon fill="white" stroke="black" points="872.5,-134.5 872.5,-153.5 997.5,-153.5 997.5,-134.5 872.5,-134.5"/>
<text text-anchor="middle" x="935" y="-141.5" font-family="Helvetica,sans-Serif" font-size="10.00">Marmot/MarmotJournal.h</text>
</a>
</g>
</g>
<!-- Node3&#45;&gt;Node4 -->
<g id="edge3" class="edge">
<title>Node3&#45;&gt;Node4</title>
<path fill="none" stroke="midnightblue" d="M722.09,-190.44C766.32,-181 837.54,-165.8 885.28,-155.61"/>
<polygon fill="midnightblue" stroke="midnightblue" points="886.05,-159.03 895.1,-153.52 884.59,-152.18 886.05,-159.03"/>
</g>
<!-- Node8 -->
<g id="node8" class="node">
<title>Node8</title>
<g id="a_node8"><a xlink:href="MarmotMath_8h.html" target="_top" xlink:title=" ">
<polygon fill="white" stroke="black" points="359.5,-134.5 359.5,-153.5 474.5,-153.5 474.5,-134.5 359.5,-134.5"/>
<text text-anchor="middle" x="417" y="-141.5" font-family="Helvetica,sans-Serif" font-size="10.00">Marmot/MarmotMath.h</text>
</a>
</g>
</g>
<!-- Node3&#45;&gt;Node8 -->
<g id="edge7" class="edge">
<title>Node3&#45;&gt;Node8</title>
<path fill="none" stroke="midnightblue" d="M640.01,-190.44C593.59,-180.98 518.77,-165.74 468.76,-155.55"/>
<polygon fill="midnightblue" stroke="midnightblue" points="469.29,-152.08 458.79,-153.52 467.89,-158.94 469.29,-152.08"/>
</g>
<!-- Node11 -->
<g id="node11" class="node">
<title>Node11</title>
<g id="a_node11"><a xlink:href="MarmotTypedefs_8h.html" target="_top" xlink:title=" ">
<polygon fill="white" stroke="black" points="701.5,-73 701.5,-92 834.5,-92 834.5,-73 701.5,-73"/>
<text text-anchor="middle" x="768" y="-80" font-family="Helvetica,sans-Serif" font-size="10.00">Marmot/MarmotTypedefs.h</text>
</a>
</g>
</g>
<!-- Node3&#45;&gt;Node11 -->
<g id="edge19" class="edge">
<title>Node3&#45;&gt;Node11</title>
<path fill="none" stroke="midnightblue" d="M688.46,-190.32C702.66,-171.26 736.77,-125.45 755.37,-100.46"/>
<polygon fill="midnightblue" stroke="midnightblue" points="758.3,-102.39 761.46,-92.28 752.68,-98.21 758.3,-102.39"/>
</g>
<!-- Node5 -->
<g id="node5" class="node">
<title>Node5</title>
<g id="a_node5"><a xlink:title=" ">
<polygon fill="white" stroke="#bfbfbf" points="853,-73 853,-92 907,-92 907,-73 853,-73"/>
<text text-anchor="middle" x="880" y="-80" font-family="Helvetica,sans-Serif" font-size="10.00">iostream</text>
</a>
</g>
</g>
<!-- Node4&#45;&gt;Node5 -->
<g id="edge4" class="edge">
<title>Node4&#45;&gt;Node5</title>
<path fill="none" stroke="midnightblue" d="M927.12,-134.48C918.71,-125.37 905.18,-110.74 894.77,-99.48"/>
<polygon fill="midnightblue" stroke="midnightblue" points="897.22,-96.98 887.87,-92.01 892.08,-101.73 897.22,-96.98"/>
</g>
<!-- Node6 -->
<g id="node6" class="node">
<title>Node6</title>
<g id="a_node6"><a xlink:title=" ">
<polygon fill="white" stroke="#bfbfbf" points="925,-73 925,-92 977,-92 977,-73 925,-73"/>
<text text-anchor="middle" x="951" y="-80" font-family="Helvetica,sans-Serif" font-size="10.00">sstream</text>
</a>
</g>
</g>
<!-- Node4&#45;&gt;Node6 -->
<g id="edge5" class="edge">
<title>Node4&#45;&gt;Node6</title>
<path fill="none" stroke="midnightblue" d="M937.29,-134.48C939.57,-125.99 943.15,-112.7 946.07,-101.82"/>
<polygon fill="midnightblue" stroke="midnightblue" points="949.49,-102.57 948.71,-92.01 942.74,-100.76 949.49,-102.57"/>
</g>
<!-- Node7 -->
<g id="node7" class="node">
<title>Node7</title>
<g id="a_node7"><a xlink:title=" ">
<polygon fill="white" stroke="#bfbfbf" points="995.5,-73 995.5,-92 1036.5,-92 1036.5,-73 995.5,-73"/>
<text text-anchor="middle" x="1016" y="-80" font-family="Helvetica,sans-Serif" font-size="10.00">string</text>
</a>
</g>
</g>
<!-- Node4&#45;&gt;Node7 -->
<g id="edge6" class="edge">
<title>Node4&#45;&gt;Node7</title>
<path fill="none" stroke="midnightblue" d="M946.61,-134.48C959.48,-125.02 980.47,-109.6 996.01,-98.19"/>
<polygon fill="midnightblue" stroke="midnightblue" points="998.43,-100.75 1004.42,-92.01 994.28,-95.11 998.43,-100.75"/>
</g>
<!-- Node9 -->
<g id="node9" class="node">
<title>Node9</title>
<g id="a_node9"><a xlink:href="MarmotConstants_8h.html" target="_top" xlink:title=" ">
<polygon fill="white" stroke="black" points="405.5,-73 405.5,-92 542.5,-92 542.5,-73 405.5,-73"/>
<text text-anchor="middle" x="474" y="-80" font-family="Helvetica,sans-Serif" font-size="10.00">Marmot/MarmotConstants.h</text>
</a>
</g>
</g>
<!-- Node8&#45;&gt;Node9 -->
<g id="edge8" class="edge">
<title>Node8&#45;&gt;Node9</title>
<path fill="none" stroke="midnightblue" d="M425.17,-134.48C433.89,-125.37 447.9,-110.74 458.69,-99.48"/>
<polygon fill="midnightblue" stroke="midnightblue" points="461.46,-101.65 465.85,-92.01 456.4,-96.81 461.46,-101.65"/>
</g>
<!-- Node8&#45;&gt;Node11 -->
<g id="edge10" class="edge">
<title>Node8&#45;&gt;Node11</title>
<path fill="none" stroke="midnightblue" d="M471.6,-134.5C527.14,-125.75 615.66,-111.53 692,-98 699.18,-96.73 706.74,-95.34 714.19,-93.95"/>
<polygon fill="midnightblue" stroke="midnightblue" points="715.05,-97.35 724.23,-92.05 713.76,-90.47 715.05,-97.35"/>
</g>
<!-- Node15 -->
<g id="node15" class="node">
<title>Node15</title>
<g id="a_node15"><a xlink:title=" ">
<polygon fill="white" stroke="#bfbfbf" points="561,-73 561,-92 683,-92 683,-73 561,-73"/>
<text text-anchor="middle" x="622" y="-80" font-family="Helvetica,sans-Serif" font-size="10.00">autodiff/forward/dual.hpp</text>
</a>
</g>
</g>
<!-- Node8&#45;&gt;Node15 -->
<g id="edge14" class="edge">
<title>Node8&#45;&gt;Node15</title>
<path fill="none" stroke="midnightblue" d="M446.37,-134.48C482.3,-124.05 543.23,-106.36 583.04,-94.81"/>
<polygon fill="midnightblue" stroke="midnightblue" points="584.05,-98.16 592.68,-92.01 582.1,-91.44 584.05,-98.16"/>
</g>
<!-- Node16 -->
<g id="node16" class="node">
<title>Node16</title>
<g id="a_node16"><a xlink:title=" ">
<polygon fill="white" stroke="#bfbfbf" points="0,-73 0,-92 120,-92 120,-73 0,-73"/>
<text text-anchor="middle" x="60" y="-80" font-family="Helvetica,sans-Serif" font-size="10.00">autodiff/forward/real.hpp</text>
</a>
</g>
</g>
<!-- Node8&#45;&gt;Node16 -->
<g id="edge15" class="edge">
<title>Node8&#45;&gt;Node16</title>
<path fill="none" stroke="midnightblue" d="M359.48,-134.91C301.24,-126.51 208.65,-112.58 129,-98 122.45,-96.8 115.56,-95.46 108.78,-94.08"/>
<polygon fill="midnightblue" stroke="midnightblue" points="109.48,-90.65 98.98,-92.06 108.06,-97.51 109.48,-90.65"/>
</g>
<!-- Node17 -->
<g id="node17" class="node">
<title>Node17</title>
<g id="a_node17"><a xlink:title=" ">
<polygon fill="white" stroke="#bfbfbf" points="138,-73 138,-92 194,-92 194,-73 138,-73"/>
<text text-anchor="middle" x="166" y="-80" font-family="Helvetica,sans-Serif" font-size="10.00">algorithm</text>
</a>
</g>
</g>
<!-- Node8&#45;&gt;Node17 -->
<g id="edge16" class="edge">
<title>Node8&#45;&gt;Node17</title>
<path fill="none" stroke="midnightblue" d="M364.5,-134.48C320.8,-126.78 257.2,-114.2 203,-98 200.57,-97.27 198.08,-96.46 195.59,-95.59"/>
<polygon fill="midnightblue" stroke="midnightblue" points="196.74,-92.29 186.14,-92.09 194.3,-98.85 196.74,-92.29"/>
</g>
<!-- Node18 -->
<g id="node18" class="node">
<title>Node18</title>
<g id="a_node18"><a xlink:title=" ">
<polygon fill="white" stroke="#bfbfbf" points="212,-67.5 212,-97.5 316,-97.5 316,-67.5 212,-67.5"/>
<text text-anchor="start" x="220" y="-85.5" font-family="Helvetica,sans-Serif" font-size="10.00">autodiff/forward/dual</text>
<text text-anchor="middle" x="264" y="-74.5" font-family="Helvetica,sans-Serif" font-size="10.00">/dual.hpp</text>
</a>
</g>
</g>
<!-- Node8&#45;&gt;Node18 -->
<g id="edge17" class="edge">
<title>Node8&#45;&gt;Node18</title>
<path fill="none" stroke="midnightblue" d="M395.08,-134.48C372.9,-125.85 337.96,-112.26 309.73,-101.29"/>
<polygon fill="midnightblue" stroke="midnightblue" points="310.65,-97.89 300.06,-97.52 308.11,-104.41 310.65,-97.89"/>
</g>
<!-- Node19 -->
<g id="node19" class="node">
<title>Node19</title>
<g id="a_node19"><a xlink:title=" ">
<polygon fill="white" stroke="#bfbfbf" points="334.5,-73 334.5,-92 387.5,-92 387.5,-73 334.5,-73"/>
<text text-anchor="middle" x="361" y="-80" font-family="Helvetica,sans-Serif" font-size="10.00">complex</text>
</a>
</g>
</g>
<!-- Node8&#45;&gt;Node19 -->
<g id="edge18" class="edge">
<title>Node8&#45;&gt;Node19</title>
<path fill="none" stroke="midnightblue" d="M408.98,-134.48C400.41,-125.37 386.64,-110.74 376.04,-99.48"/>
<polygon fill="midnightblue" stroke="midnightblue" points="378.41,-96.89 369.01,-92.01 373.31,-101.69 378.41,-96.89"/>
</g>
<!-- Node10 -->
<g id="node10" class="node">
<title>Node10</title>
<g id="a_node10"><a xlink:title=" ">
<polygon fill="white" stroke="#bfbfbf" points="452,-6 452,-25 496,-25 496,-6 452,-6"/>
<text text-anchor="middle" x="474" y="-13" font-family="Helvetica,sans-Serif" font-size="10.00">cmath</text>
</a>
</g>
</g>
<!-- Node9&#45;&gt;Node10 -->
<g id="edge9" class="edge">
<title>Node9&#45;&gt;Node10</title>
<path fill="none" stroke="midnightblue" d="M474,-72.73C474,-63.18 474,-47.62 474,-35.28"/>
<polygon fill="midnightblue" stroke="midnightblue" points="477.5,-35.13 474,-25.13 470.5,-35.13 477.5,-35.13"/>
</g>
<!-- Node12 -->
<g id="node12" class="node">
<title>Node12</title>
<g id="a_node12"><a xlink:title=" ">
<polygon fill="white" stroke="#bfbfbf" points="650,-6 650,-25 714,-25 714,-6 650,-6"/>
<text text-anchor="middle" x="682" y="-13" font-family="Helvetica,sans-Serif" font-size="10.00">Eigen/Core</text>
</a>
</g>
</g>
<!-- Node11&#45;&gt;Node12 -->
<g id="edge11" class="edge">
<title>Node11&#45;&gt;Node12</title>
<path fill="none" stroke="midnightblue" d="M756.4,-72.73C742.35,-62.11 718.45,-44.05 701.53,-31.26"/>
<polygon fill="midnightblue" stroke="midnightblue" points="703.5,-28.36 693.41,-25.13 699.28,-33.95 703.5,-28.36"/>
</g>
<!-- Node13 -->
<g id="node13" class="node">
<title>Node13</title>
<g id="a_node13"><a xlink:title=" ">
<polygon fill="white" stroke="#bfbfbf" points="732.5,-6 732.5,-25 803.5,-25 803.5,-6 732.5,-6"/>
<text text-anchor="middle" x="768" y="-13" font-family="Helvetica,sans-Serif" font-size="10.00">Eigen/Dense</text>
</a>
</g>
</g>
<!-- Node11&#45;&gt;Node13 -->
<g id="edge12" class="edge">
<title>Node11&#45;&gt;Node13</title>
<path fill="none" stroke="midnightblue" d="M768,-72.73C768,-63.18 768,-47.62 768,-35.28"/>
<polygon fill="midnightblue" stroke="midnightblue" points="771.5,-35.13 768,-25.13 764.5,-35.13 771.5,-35.13"/>
</g>
<!-- Node14 -->
<g id="node14" class="node">
<title>Node14</title>
<g id="a_node14"><a xlink:title=" ">
<polygon fill="white" stroke="#bfbfbf" points="821.5,-0.5 821.5,-30.5 952.5,-30.5 952.5,-0.5 821.5,-0.5"/>
<text text-anchor="start" x="829.5" y="-18.5" font-family="Helvetica,sans-Serif" font-size="10.00">unsupported/Eigen/CXX11</text>
<text text-anchor="middle" x="887" y="-7.5" font-family="Helvetica,sans-Serif" font-size="10.00">/Tensor</text>
</a>
</g>
</g>
<!-- Node11&#45;&gt;Node14 -->
<g id="edge13" class="edge">
<title>Node11&#45;&gt;Node14</title>
<path fill="none" stroke="midnightblue" d="M784.05,-72.73C801.45,-63.23 829.74,-47.78 852.27,-35.47"/>
<polygon fill="midnightblue" stroke="midnightblue" points="854.11,-38.45 861.21,-30.59 850.75,-32.31 854.11,-38.45"/>
</g>
<!-- Node20&#45;&gt;Node3 -->
<g id="edge23" class="edge">
<title>Node20&#45;&gt;Node3</title>
<path fill="none" stroke="midnightblue" d="M760.9,-246.32C746.1,-237.82 723.31,-224.73 706.02,-214.8"/>
<polygon fill="midnightblue" stroke="midnightblue" points="707.48,-211.6 697.07,-209.65 703.99,-217.67 707.48,-211.6"/>
</g>
<!-- Node20&#45;&gt;Node4 -->
<g id="edge21" class="edge">
<title>Node20&#45;&gt;Node4</title>
<path fill="none" stroke="midnightblue" d="M788.48,-246.37C815.64,-227.57 880.41,-182.77 913.99,-159.53"/>
<polygon fill="midnightblue" stroke="midnightblue" points="916.35,-162.16 922.58,-153.59 912.37,-156.4 916.35,-162.16"/>
</g>
<!-- Node20&#45;&gt;Node11 -->
<g id="edge22" class="edge">
<title>Node20&#45;&gt;Node11</title>
<path fill="none" stroke="midnightblue" d="M775.59,-246.26C774.35,-219.65 770.6,-139.21 768.88,-102.34"/>
<polygon fill="midnightblue" stroke="midnightblue" points="772.36,-101.85 768.4,-92.02 765.37,-102.17 772.36,-101.85"/>
</g>
<!-- Node21&#45;&gt;Node3 -->
<g id="edge27" class="edge">
<title>Node21&#45;&gt;Node3</title>
<path fill="none" stroke="midnightblue" d="M888.18,-246.44C845.44,-237.02 776.67,-221.87 730.43,-211.68"/>
<polygon fill="midnightblue" stroke="midnightblue" points="731.16,-208.25 720.64,-209.52 729.65,-215.09 731.16,-208.25"/>
</g>
<!-- Node21&#45;&gt;Node4 -->
<g id="edge25" class="edge">
<title>Node21&#45;&gt;Node4</title>
<path fill="none" stroke="midnightblue" d="M927.63,-246.37C928.92,-228.62 931.9,-187.67 933.65,-163.6"/>
<polygon fill="midnightblue" stroke="midnightblue" points="937.14,-163.82 934.38,-153.59 930.16,-163.31 937.14,-163.82"/>
</g>
<!-- Node21&#45;&gt;Node11 -->
<g id="edge26" class="edge">
<title>Node21&#45;&gt;Node11</title>
<path fill="none" stroke="midnightblue" d="M918.9,-246.26C893.59,-218.96 815.75,-135 782.88,-99.55"/>
<polygon fill="midnightblue" stroke="midnightblue" points="785.26,-96.97 775.9,-92.02 780.13,-101.73 785.26,-96.97"/>
</g>
<!-- Node22 -->
<g id="node22" class="node">
<title>Node22</title>
<g id="a_node22"><a xlink:title=" ">
<polygon fill="white" stroke="#bfbfbf" points="955.5,-190.5 955.5,-209.5 994.5,-209.5 994.5,-190.5 955.5,-190.5"/>
<text text-anchor="middle" x="975" y="-197.5" font-family="Helvetica,sans-Serif" font-size="10.00">utility</text>
</a>
</g>
</g>
<!-- Node21&#45;&gt;Node22 -->
<g id="edge28" class="edge">
<title>Node21&#45;&gt;Node22</title>
<path fill="none" stroke="midnightblue" d="M934.93,-246.08C941.85,-238.3 952.07,-226.8 960.45,-217.37"/>
<polygon fill="midnightblue" stroke="midnightblue" points="963.19,-219.55 967.22,-209.75 957.96,-214.9 963.19,-219.55"/>
</g>
</g>
</svg>
        <g id="navigator" transform="translate(0 0)" fill="#404254">
                <rect fill="#f2f5e9" fill-opacity="0.5" stroke="#606060" stroke-width=".5" x="0" y="0" width="60" height="60"/>
                <use id="zoomplus" xlink:href="#zoomPlus" x="17" y="9" onmousedown="handleZoom(evt,'in')"/>
                <use id="zoomminus" xlink:href="#zoomMin" x="42" y="9" onmousedown="handleZoom(evt,'out')"/>
                <use id="reset" xlink:href="#resetDef" x="30" y="36" onmousedown="handleReset()"/>
                <g id="arrowUp" xlink:href="#dirArrow" transform="translate(30 24)" onmousedown="handlePan(0,-1)">
                  <use xlink:href="#rim" fill="#404040">
                        <set attributeName="fill" to="#808080" begin="arrowUp.mouseover" end="arrowUp.mouseout"/>
                  </use>
                  <path fill="none" stroke="white" stroke-width="1.5" d="M0,-3.0v7 M-2.5,-0.5L0,-3.0L2.5,-0.5"/>
                </g>
                <g id="arrowRight" xlink:href="#dirArrow" transform="rotate(90) translate(36 -43)" onmousedown="handlePan(1,0)">
                  <use xlink:href="#rim" fill="#404040">
                        <set attributeName="fill" to="#808080" begin="arrowRight.mouseover" end="arrowRight.mouseout"/>
                  </use>
                  <path fill="none" stroke="white" stroke-width="1.5" d="M0,-3.0v7 M-2.5,-0.5L0,-3.0L2.5,-0.5"/>
                </g>
                <g id="arrowDown" xlink:href="#dirArrow" transform="rotate(180) translate(-30 -48)" onmousedown="handlePan(0,1)">
                  <use xlink:href="#rim" fill="#404040">
                        <set attributeName="fill" to="#808080" begin="arrowDown.mouseover" end="arrowDown.mouseout"/>
                  </use>
                  <path fill="none" stroke="white" stroke-width="1.5" d="M0,-3.0v7 M-2.5,-0.5L0,-3.0L2.5,-0.5"/>
                </g>
                <g id="arrowLeft" xlink:href="#dirArrow" transform="rotate(270) translate(-36 17)" onmousedown="handlePan(-1,0)">
                  <use xlink:href="#rim" fill="#404040">
                        <set attributeName="fill" to="#808080" begin="arrowLeft.mouseover" end="arrowLeft.mouseout"/>
                  </use>
                  <path fill="none" stroke="white" stroke-width="1.5" d="M0,-3.0v7 M-2.5,-0.5L0,-3.0L2.5,-0.5"/>
                </g>
        </g>
        <svg viewBox="0 0 15 15" width="100%" height="30px" preserveAspectRatio="xMaxYMin meet">
         <g id="arrow_out" transform="scale(0.3 0.3)">
          <a xlink:href="HughesWinget_8cpp__incl_org.svg" target="_base">
           <rect id="button" ry="5" rx="5" y="6" x="6" height="38" width="38"
                fill="#f2f5e9" fill-opacity="0.5" stroke="#606060" stroke-width="1.0"/>
           <path id="arrow"
             d="M 11.500037,31.436501 C 11.940474,20.09759 22.043105,11.32322 32.158766,21.979434 L 37.068811,17.246167 C 37.068811,17.246167 37.088388,32 37.088388,32 L 22.160133,31.978069 C 22.160133,31.978069 26.997745,27.140456 26.997745,27.140456 C 18.528582,18.264221 13.291696,25.230495 11.500037,31.436501 z"
             style="fill:#404040;"/>
          </a>
         </g>
        </svg>
</svg>
