<?xml version="1.0" encoding="UTF-8" standalone="no"?>
<!DOCTYPE svg PUBLIC "-//W3C//DTD SVG 1.1//EN"
 "http://www.w3.org/Graphics/SVG/1.1/DTD/svg11.dtd">
<!-- Generated by graphviz version 2.44.0 ()
 -->
<!-- Title: Graphical Class Hierarchy Pages: 1 -->
<svg width="539pt" height="196pt"
 viewBox="0.00 0.00 539.00 196.00" xmlns="http://www.w3.org/2000/svg" xmlns:xlink="http://www.w3.org/1999/xlink">
<g id="graph0" class="graph" transform="scale(1 1) rotate(0) translate(4 192)">
<title>Graphical Class Hierarchy</title>
<polygon fill="white" stroke="transparent" points="-4,4 -4,-192 535,-192 535,4 -4,4"/>
<!-- Node53 -->
<g id="node1" class="node">
<title>Node53</title>
<g id="a_node1"><a xlink:href="classMarmotElement.html" target="_top" xlink:title=" ">
<polygon fill="white" stroke="black" points="21,-54.5 21,-73.5 106,-73.5 106,-54.5 21,-54.5"/>
<text text-anchor="middle" x="63.5" y="-61.5" font-family="Helvetica,sans-Serif" font-size="10.00">MarmotElement</text>
</a>
</g>
</g>
<!-- Node1 -->
<g id="node2" class="node">
<title>Node1</title>
<g id="a_node2"><a xlink:href="classMarmot_1_1Elements_1_1DisplacementFiniteStrainULElement.html" target="_top" xlink:title=" ">
<polygon fill="white" stroke="black" points="163,-146.5 163,-187.5 321,-187.5 321,-146.5 163,-146.5"/>
<text text-anchor="start" x="171" y="-175.5" font-family="Helvetica,sans-Serif" font-size="10.00">Marmot::Elements::Displacement</text>
<text text-anchor="start" x="171" y="-164.5" font-family="Helvetica,sans-Serif" font-size="10.00">FiniteStrainULElement&lt; 2,</text>
<text text-anchor="middle" x="242" y="-153.5" font-family="Helvetica,sans-Serif" font-size="10.00"> nNodes &gt;</text>
</a>
</g>
</g>
<!-- Node53&#45;&gt;Node1 -->
<g id="edge1" class="edge">
<title>Node53&#45;&gt;Node1</title>
<path fill="none" stroke="midnightblue" d="M107.5,-77.48C114.38,-80.66 121.16,-84.47 127,-89 148.37,-105.54 141.43,-121.72 163,-138 167.04,-141.05 171.43,-143.8 176,-146.29"/>
<polygon fill="midnightblue" stroke="midnightblue" points="108.69,-74.19 98.12,-73.53 105.98,-80.64 108.69,-74.19"/>
</g>
<!-- Node3 -->
<g id="node4" class="node">
<title>Node3</title>
<g id="a_node4"><a xlink:href="classMarmot_1_1Elements_1_1DisplacementFiniteElement.html" target="_top" xlink:title=" ">
<polygon fill="white" stroke="black" points="163,-98 163,-128 321,-128 321,-98 163,-98"/>
<text text-anchor="start" x="171" y="-116" font-family="Helvetica,sans-Serif" font-size="10.00">Marmot::Elements::Displacement</text>
<text text-anchor="middle" x="242" y="-105" font-family="Helvetica,sans-Serif" font-size="10.00">FiniteElement&lt; nDim, nNodes &gt;</text>
</a>
</g>
</g>
<!-- Node53&#45;&gt;Node3 -->
<g id="edge3" class="edge">
<title>Node53&#45;&gt;Node3</title>
<path fill="none" stroke="midnightblue" d="M108.72,-76.28C132.41,-82.85 161.79,-91.01 186.84,-97.96"/>
<polygon fill="midnightblue" stroke="midnightblue" points="109.52,-72.87 98.95,-73.56 107.65,-79.61 109.52,-72.87"/>
</g>
<!-- Node4 -->
<g id="node5" class="node">
<title>Node4</title>
<g id="a_node5"><a xlink:href="classMarmot_1_1Elements_1_1DisplacementFiniteStrainULElement.html" target="_top" xlink:title=" ">
<polygon fill="white" stroke="black" points="163,-38.5 163,-79.5 321,-79.5 321,-38.5 163,-38.5"/>
<text text-anchor="start" x="171" y="-67.5" font-family="Helvetica,sans-Serif" font-size="10.00">Marmot::Elements::Displacement</text>
<text text-anchor="start" x="171" y="-56.5" font-family="Helvetica,sans-Serif" font-size="10.00">FiniteStrainULElement&lt; nDim,</text>
<text text-anchor="middle" x="242" y="-45.5" font-family="Helvetica,sans-Serif" font-size="10.00"> nNodes &gt;</text>
</a>
</g>
</g>
<!-- Node53&#45;&gt;Node4 -->
<g id="edge4" class="edge">
<title>Node53&#45;&gt;Node4</title>
<path fill="none" stroke="midnightblue" d="M116.58,-62.52C131.08,-62.11 147.15,-61.66 162.8,-61.22"/>
<polygon fill="midnightblue" stroke="midnightblue" points="116.22,-59.03 106.33,-62.82 116.42,-66.03 116.22,-59.03"/>
</g>
<!-- Node54 -->
<g id="node6" class="node">
<title>Node54</title>
<g id="a_node6"><a xlink:href="classMarmotElementSpatialWrapper.html" target="_top" xlink:title=" ">
<polygon fill="white" stroke="black" points="166.5,-0.5 166.5,-19.5 317.5,-19.5 317.5,-0.5 166.5,-0.5"/>
<text text-anchor="middle" x="242" y="-7.5" font-family="Helvetica,sans-Serif" font-size="10.00">MarmotElementSpatialWrapper</text>
</a>
</g>
</g>
<!-- Node53&#45;&gt;Node54 -->
<g id="edge5" class="edge">
<title>Node53&#45;&gt;Node54</title>
<path fill="none" stroke="midnightblue" d="M98.97,-50.77C117.75,-43.82 141.48,-35.43 163,-29 174.35,-25.61 186.76,-22.38 198.28,-19.57"/>
<polygon fill="midnightblue" stroke="midnightblue" points="97.51,-47.58 89.37,-54.37 99.96,-54.14 97.51,-47.58"/>
</g>
<!-- Node2 -->
<g id="node3" class="node">
<title>Node2</title>
<g id="a_node3"><a xlink:href="classMarmot_1_1Elements_1_1AxiSymmetricDisplacementFiniteStrainULElement.html" target="_top" xlink:title=" ">
<polygon fill="white" stroke="black" points="357,-146.5 357,-187.5 531,-187.5 531,-146.5 357,-146.5"/>
<text text-anchor="start" x="365" y="-175.5" font-family="Helvetica,sans-Serif" font-size="10.00">Marmot::Elements::AxiSymmetric</text>
<text text-anchor="start" x="365" y="-164.5" font-family="Helvetica,sans-Serif" font-size="10.00">DisplacementFiniteStrainULElement</text>
<text text-anchor="middle" x="444" y="-153.5" font-family="Helvetica,sans-Serif" font-size="10.00">&lt; nNodes &gt;</text>
</a>
</g>
</g>
<!-- Node1&#45;&gt;Node2 -->
<g id="edge2" class="edge">
<title>Node1&#45;&gt;Node2</title>
<path fill="none" stroke="midnightblue" d="M331.44,-167C339.91,-167 348.48,-167 356.93,-167"/>
<polygon fill="midnightblue" stroke="midnightblue" points="331.18,-163.5 321.18,-167 331.18,-170.5 331.18,-163.5"/>
</g>
<!-- Node0 -->
<g id="node7" class="node">
<title>Node0</title>
<g id="a_node7"><a xlink:href="classMarmotGeometryElement.html" target="_top" xlink:title=" ">
<polygon fill="white" stroke="black" points="0,-98 0,-128 127,-128 127,-98 0,-98"/>
<text text-anchor="start" x="8" y="-116" font-family="Helvetica,sans-Serif" font-size="10.00">MarmotGeometryElement</text>
<text text-anchor="middle" x="63.5" y="-105" font-family="Helvetica,sans-Serif" font-size="10.00">&lt; nDim, nNodes &gt;</text>
</a>
</g>
</g>
<!-- Node0&#45;&gt;Node1 -->
<g id="edge6" class="edge">
<title>Node0&#45;&gt;Node1</title>
<path fill="none" stroke="midnightblue" d="M123.53,-131.06C139.71,-136.01 157.37,-141.41 173.96,-146.49"/>
<polygon fill="midnightblue" stroke="midnightblue" points="124.25,-127.62 113.67,-128.04 122.2,-134.31 124.25,-127.62"/>
</g>
<!-- Node0&#45;&gt;Node3 -->
<g id="edge7" class="edge">
<title>Node0&#45;&gt;Node3</title>
<path fill="none" stroke="midnightblue" d="M137.33,-113C145.71,-113 154.28,-113 162.73,-113"/>
<polygon fill="midnightblue" stroke="midnightblue" points="137.22,-109.5 127.22,-113 137.22,-116.5 137.22,-109.5"/>
</g>
<!-- Node0&#45;&gt;Node4 -->
<g id="edge8" class="edge">
<title>Node0&#45;&gt;Node4</title>
<path fill="none" stroke="midnightblue" d="M123.53,-94.94C139.71,-89.99 157.37,-84.59 173.96,-79.51"/>
<polygon fill="midnightblue" stroke="midnightblue" points="122.2,-91.69 113.67,-97.96 124.25,-98.38 122.2,-91.69"/>
</g>
</g>
</svg>
