<?xml version="1.0" encoding="UTF-8" standalone="no"?>
<!DOCTYPE svg PUBLIC "-//W3C//DTD SVG 1.1//EN"
 "http://www.w3.org/Graphics/SVG/1.1/DTD/svg11.dtd">
<!-- Generated by graphviz version 2.44.0 ()
 -->
<!-- Title: Graphical Class Hierarchy Pages: 1 -->
<svg width="262pt" height="50pt"
 viewBox="0.00 0.00 262.00 50.00" xmlns="http://www.w3.org/2000/svg" xmlns:xlink="http://www.w3.org/1999/xlink">
<g id="graph0" class="graph" transform="scale(1 1) rotate(0) translate(4 46)">
<title>Graphical Class Hierarchy</title>
<polygon fill="white" stroke="transparent" points="-4,4 -4,-46 258,-46 258,4 -4,4"/>
<!-- Node61 -->
<g id="node1" class="node">
<title>Node61</title>
<g id="a_node1"><a xlink:title=" ">
<polygon fill="white" stroke="#bfbfbf" points="0,-11.5 0,-30.5 58,-30.5 58,-11.5 0,-11.5"/>
<text text-anchor="middle" x="29" y="-18.5" font-family="Helvetica,sans-Serif" font-size="10.00">exception</text>
</a>
</g>
</g>
<!-- Node0 -->
<g id="node2" class="node">
<title>Node0</title>
<g id="a_node2"><a xlink:href="structMarmot_1_1ContinuumMechanics_1_1TensorUtility_1_1TensorExponential_1_1ExponentialMapFailed.html" target="_top" xlink:title=" ">
<polygon fill="white" stroke="black" points="94,-0.5 94,-41.5 254,-41.5 254,-0.5 94,-0.5"/>
<text text-anchor="start" x="102" y="-29.5" font-family="Helvetica,sans-Serif" font-size="10.00">Marmot::ContinuumMechanics</text>
<text text-anchor="start" x="102" y="-18.5" font-family="Helvetica,sans-Serif" font-size="10.00">::TensorUtility::TensorExponential</text>
<text text-anchor="middle" x="174" y="-7.5" font-family="Helvetica,sans-Serif" font-size="10.00">::ExponentialMapFailed</text>
</a>
</g>
</g>
<!-- Node61&#45;&gt;Node0 -->
<g id="edge1" class="edge">
<title>Node61&#45;&gt;Node0</title>
<path fill="none" stroke="midnightblue" d="M68.28,-21C76.25,-21 84.92,-21 93.76,-21"/>
<polygon fill="midnightblue" stroke="midnightblue" points="68.25,-17.5 58.25,-21 68.25,-24.5 68.25,-17.5"/>
</g>
</g>
</svg>
