<?xml version="1.0" encoding="UTF-8" standalone="no"?>
<!DOCTYPE svg PUBLIC "-//W3C//DTD SVG 1.1//EN"
 "http://www.w3.org/Graphics/SVG/1.1/DTD/svg11.dtd">
<!-- Generated by graphviz version 2.44.0 ()
 -->
<!-- Title: Graphical Class Hierarchy Pages: 1 -->
<svg width="392pt" height="50pt"
 viewBox="0.00 0.00 392.00 50.00" xmlns="http://www.w3.org/2000/svg" xmlns:xlink="http://www.w3.org/1999/xlink">
<g id="graph0" class="graph" transform="scale(1 1) rotate(0) translate(4 46)">
<title>Graphical Class Hierarchy</title>
<polygon fill="white" stroke="transparent" points="-4,4 -4,-46 388,-46 388,4 -4,4"/>
<!-- Node0 -->
<g id="node1" class="node">
<title>Node0</title>
<g id="a_node1"><a xlink:href="classMarmotStateVarVectorManager.html" target="_top" xlink:title="A convenience auxiliary class for managing multiple statevars with arbitrary length in a single conse...">
<polygon fill="white" stroke="black" points="0,-11.5 0,-30.5 154,-30.5 154,-11.5 0,-11.5"/>
<text text-anchor="middle" x="77" y="-18.5" font-family="Helvetica,sans-Serif" font-size="10.00">MarmotStateVarVectorManager</text>
</a>
</g>
</g>
<!-- Node1 -->
<g id="node2" class="node">
<title>Node1</title>
<g id="a_node2"><a xlink:href="classMarmot_1_1Elements_1_1DisplacementFiniteElement_1_1QuadraturePoint_1_1QPStateVarManager.html" target="_top" xlink:title=" ">
<polygon fill="white" stroke="black" points="190,-0.5 190,-41.5 384,-41.5 384,-0.5 190,-0.5"/>
<text text-anchor="start" x="198" y="-29.5" font-family="Helvetica,sans-Serif" font-size="10.00">Marmot::Elements::Displacement</text>
<text text-anchor="start" x="198" y="-18.5" font-family="Helvetica,sans-Serif" font-size="10.00">FiniteElement&lt; nDim, nNodes</text>
<text text-anchor="middle" x="287" y="-7.5" font-family="Helvetica,sans-Serif" font-size="10.00"> &gt;::QuadraturePoint::QPStateVarManager</text>
</a>
</g>
</g>
<!-- Node0&#45;&gt;Node1 -->
<g id="edge1" class="edge">
<title>Node0&#45;&gt;Node1</title>
<path fill="none" stroke="midnightblue" d="M164.43,-21C172.84,-21 181.41,-21 189.91,-21"/>
<polygon fill="midnightblue" stroke="midnightblue" points="164.27,-17.5 154.27,-21 164.27,-24.5 164.27,-17.5"/>
</g>
</g>
</svg>
