<?xml version="1.0" encoding="UTF-8" standalone="no"?>
<!DOCTYPE svg PUBLIC "-//W3C//DTD SVG 1.1//EN"
 "http://www.w3.org/Graphics/SVG/1.1/DTD/svg11.dtd">
<!-- Generated by graphviz version 2.44.0 ()
 -->
<!-- Title: modules/materials/LinearElastic/src/LinearElasticRegistration.cpp Pages: 1 -->
<svg width="634pt" height="341pt"
 viewBox="0.00 0.00 633.98 341.00" xmlns="http://www.w3.org/2000/svg" xmlns:xlink="http://www.w3.org/1999/xlink">
<g id="graph0" class="graph" transform="scale(1 1) rotate(0) translate(4 337)">
<title>modules/materials/LinearElastic/src/LinearElasticRegistration.cpp</title>
<polygon fill="white" stroke="transparent" points="-4,4 -4,-337 629.98,-337 629.98,4 -4,4"/>
<!-- Node1 -->
<g id="node1" class="node">
<title>Node1</title>
<g id="a_node1"><a xlink:title=" ">
<polygon fill="#bfbfbf" stroke="black" points="360.5,-302.5 360.5,-332.5 551.5,-332.5 551.5,-302.5 360.5,-302.5"/>
<text text-anchor="start" x="368.5" y="-320.5" font-family="Helvetica,sans-Serif" font-size="10.00">modules/materials/Linear</text>
<text text-anchor="middle" x="456" y="-309.5" font-family="Helvetica,sans-Serif" font-size="10.00">Elastic/src/LinearElasticRegistration.cpp</text>
</a>
</g>
</g>
<!-- Node2 -->
<g id="node2" class="node">
<title>Node2</title>
<g id="a_node2"><a xlink:href="LinearElastic_8h.html" target="_top" xlink:title=" ">
<polygon fill="white" stroke="black" points="492,-241 492,-260 608,-260 608,-241 492,-241"/>
<text text-anchor="middle" x="550" y="-248" font-family="Helvetica,sans-Serif" font-size="10.00">Marmot/LinearElastic.h</text>
</a>
</g>
</g>
<!-- Node1&#45;&gt;Node2 -->
<g id="edge1" class="edge">
<title>Node1&#45;&gt;Node2</title>
<path fill="none" stroke="midnightblue" d="M476.4,-302.4C492.01,-291.6 513.48,-276.76 529.19,-265.89"/>
<polygon fill="midnightblue" stroke="midnightblue" points="531.46,-268.57 537.7,-260.01 527.48,-262.82 531.46,-268.57"/>
</g>
<!-- Node9 -->
<g id="node9" class="node">
<title>Node9</title>
<g id="a_node9"><a xlink:href="MarmotMaterialRegistrationHelper_8h.html" target="_top" xlink:title=" ">
<polygon fill="white" stroke="black" points="289,-235.5 289,-265.5 461,-265.5 461,-235.5 289,-235.5"/>
<text text-anchor="start" x="297" y="-253.5" font-family="Helvetica,sans-Serif" font-size="10.00">Marmot/MarmotMaterialRegistration</text>
<text text-anchor="middle" x="375" y="-242.5" font-family="Helvetica,sans-Serif" font-size="10.00">Helper.h</text>
</a>
</g>
</g>
<!-- Node1&#45;&gt;Node9 -->
<g id="edge9" class="edge">
<title>Node1&#45;&gt;Node9</title>
<path fill="none" stroke="midnightblue" d="M438.42,-302.4C427.39,-293.54 412.96,-281.96 400.65,-272.09"/>
<polygon fill="midnightblue" stroke="midnightblue" points="402.53,-269.11 392.54,-265.58 398.15,-274.56 402.53,-269.11"/>
</g>
<!-- Node3 -->
<g id="node3" class="node">
<title>Node3</title>
<g id="a_node3"><a xlink:href="MarmotMaterialHypoElastic_8h.html" target="_top" xlink:title=" ">
<polygon fill="white" stroke="black" points="402.5,-168.5 402.5,-198.5 545.5,-198.5 545.5,-168.5 402.5,-168.5"/>
<text text-anchor="start" x="410.5" y="-186.5" font-family="Helvetica,sans-Serif" font-size="10.00">Marmot/MarmotMaterialHypo</text>
<text text-anchor="middle" x="474" y="-175.5" font-family="Helvetica,sans-Serif" font-size="10.00">Elastic.h</text>
</a>
</g>
</g>
<!-- Node2&#45;&gt;Node3 -->
<g id="edge2" class="edge">
<title>Node2&#45;&gt;Node3</title>
<path fill="none" stroke="midnightblue" d="M539.75,-240.73C529.18,-231.7 512.32,-217.27 498.32,-205.3"/>
<polygon fill="midnightblue" stroke="midnightblue" points="500.35,-202.43 490.47,-198.59 495.8,-207.75 500.35,-202.43"/>
</g>
<!-- Node7 -->
<g id="node7" class="node">
<title>Node7</title>
<g id="a_node7"><a xlink:title=" ">
<polygon fill="white" stroke="#bfbfbf" points="427.5,-0.5 427.5,-19.5 468.5,-19.5 468.5,-0.5 427.5,-0.5"/>
<text text-anchor="middle" x="448" y="-7.5" font-family="Helvetica,sans-Serif" font-size="10.00">string</text>
</a>
</g>
</g>
<!-- Node2&#45;&gt;Node7 -->
<g id="edge8" class="edge">
<title>Node2&#45;&gt;Node7</title>
<path fill="none" stroke="midnightblue" d="M557.72,-240.84C582.67,-211.78 656.87,-116.25 611,-56 595.06,-35.06 521.48,-21.38 478.83,-15.06"/>
<polygon fill="midnightblue" stroke="midnightblue" points="479.1,-11.56 468.71,-13.61 478.11,-18.49 479.1,-11.56"/>
</g>
<!-- Node8 -->
<g id="node8" class="node">
<title>Node8</title>
<g id="a_node8"><a xlink:title=" ">
<polygon fill="white" stroke="#bfbfbf" points="548,-56.5 548,-75.5 602,-75.5 602,-56.5 548,-56.5"/>
<text text-anchor="middle" x="575" y="-63.5" font-family="Helvetica,sans-Serif" font-size="10.00">iostream</text>
</a>
</g>
</g>
<!-- Node2&#45;&gt;Node8 -->
<g id="edge7" class="edge">
<title>Node2&#45;&gt;Node8</title>
<path fill="none" stroke="midnightblue" d="M551.21,-240.7C555.06,-212.57 567.13,-124.46 572.44,-85.66"/>
<polygon fill="midnightblue" stroke="midnightblue" points="575.92,-86.1 573.81,-75.71 568.98,-85.15 575.92,-86.1"/>
</g>
<!-- Node4 -->
<g id="node4" class="node">
<title>Node4</title>
<g id="a_node4"><a xlink:href="MarmotMaterialMechanical_8h.html" target="_top" xlink:title=" ">
<polygon fill="white" stroke="black" points="377.5,-112.5 377.5,-131.5 554.5,-131.5 554.5,-112.5 377.5,-112.5"/>
<text text-anchor="middle" x="466" y="-119.5" font-family="Helvetica,sans-Serif" font-size="10.00">Marmot/MarmotMaterialMechanical.h</text>
</a>
</g>
</g>
<!-- Node3&#45;&gt;Node4 -->
<g id="edge3" class="edge">
<title>Node3&#45;&gt;Node4</title>
<path fill="none" stroke="midnightblue" d="M472.1,-168.4C471.03,-160.38 469.66,-150.23 468.5,-141.57"/>
<polygon fill="midnightblue" stroke="midnightblue" points="471.97,-141.1 467.16,-131.66 465.03,-142.04 471.97,-141.1"/>
</g>
<!-- Node5 -->
<g id="node5" class="node">
<title>Node5</title>
<g id="a_node5"><a xlink:href="MarmotMaterial_8h.html" target="_top" xlink:title=" ">
<polygon fill="white" stroke="black" points="402,-56.5 402,-75.5 530,-75.5 530,-56.5 402,-56.5"/>
<text text-anchor="middle" x="466" y="-63.5" font-family="Helvetica,sans-Serif" font-size="10.00">Marmot/MarmotMaterial.h</text>
</a>
</g>
</g>
<!-- Node4&#45;&gt;Node5 -->
<g id="edge4" class="edge">
<title>Node4&#45;&gt;Node5</title>
<path fill="none" stroke="midnightblue" d="M466,-112.08C466,-105.01 466,-94.86 466,-85.99"/>
<polygon fill="midnightblue" stroke="midnightblue" points="469.5,-85.75 466,-75.75 462.5,-85.75 469.5,-85.75"/>
</g>
<!-- Node6 -->
<g id="node6" class="node">
<title>Node6</title>
<g id="a_node6"><a xlink:href="MarmotUtils_8h.html" target="_top" xlink:title=" ">
<polygon fill="white" stroke="black" points="279.5,-0.5 279.5,-19.5 392.5,-19.5 392.5,-0.5 279.5,-0.5"/>
<text text-anchor="middle" x="336" y="-7.5" font-family="Helvetica,sans-Serif" font-size="10.00">Marmot/MarmotUtils.h</text>
</a>
</g>
</g>
<!-- Node5&#45;&gt;Node6 -->
<g id="edge5" class="edge">
<title>Node5&#45;&gt;Node6</title>
<path fill="none" stroke="midnightblue" d="M445.4,-56.44C424.01,-47.56 390.32,-33.56 365.98,-23.45"/>
<polygon fill="midnightblue" stroke="midnightblue" points="367.08,-20.12 356.5,-19.52 364.39,-26.58 367.08,-20.12"/>
</g>
<!-- Node5&#45;&gt;Node7 -->
<g id="edge6" class="edge">
<title>Node5&#45;&gt;Node7</title>
<path fill="none" stroke="midnightblue" d="M463.03,-56.08C460.62,-48.85 457.14,-38.41 454.13,-29.4"/>
<polygon fill="midnightblue" stroke="midnightblue" points="457.4,-28.13 450.92,-19.75 450.76,-30.34 457.4,-28.13"/>
</g>
<!-- Node10 -->
<g id="node10" class="node">
<title>Node10</title>
<g id="a_node10"><a xlink:href="Marmot_8h.html" target="_top" xlink:title=" ">
<polygon fill="white" stroke="black" points="266.5,-112.5 266.5,-131.5 359.5,-131.5 359.5,-112.5 266.5,-112.5"/>
<text text-anchor="middle" x="313" y="-119.5" font-family="Helvetica,sans-Serif" font-size="10.00">Marmot/Marmot.h</text>
</a>
</g>
</g>
<!-- Node9&#45;&gt;Node10 -->
<g id="edge10" class="edge">
<title>Node9&#45;&gt;Node10</title>
<path fill="none" stroke="midnightblue" d="M368.13,-235.48C356.82,-212.41 334.31,-166.48 321.84,-141.03"/>
<polygon fill="midnightblue" stroke="midnightblue" points="324.85,-139.23 317.31,-131.79 318.57,-142.31 324.85,-139.23"/>
</g>
<!-- Node10&#45;&gt;Node5 -->
<g id="edge16" class="edge">
<title>Node10&#45;&gt;Node5</title>
<path fill="none" stroke="midnightblue" d="M337.24,-112.44C362.87,-103.4 403.49,-89.06 432.24,-78.92"/>
<polygon fill="midnightblue" stroke="midnightblue" points="433.61,-82.15 441.87,-75.52 431.28,-75.54 433.61,-82.15"/>
</g>
<!-- Node10&#45;&gt;Node7 -->
<g id="edge20" class="edge">
<title>Node10&#45;&gt;Node7</title>
<path fill="none" stroke="midnightblue" d="M323.59,-112.37C346.46,-93.73 400.71,-49.53 429.43,-26.13"/>
<polygon fill="midnightblue" stroke="midnightblue" points="431.91,-28.62 437.46,-19.59 427.49,-23.19 431.91,-28.62"/>
</g>
<!-- Node10&#45;&gt;Node8 -->
<g id="edge18" class="edge">
<title>Node10&#45;&gt;Node8</title>
<path fill="none" stroke="midnightblue" d="M359.45,-112.43C403.09,-104.23 470.45,-91.18 537.95,-76.15"/>
<polygon fill="midnightblue" stroke="midnightblue" points="538.91,-79.52 547.91,-73.92 537.38,-72.69 538.91,-79.52"/>
</g>
<!-- Node11 -->
<g id="node11" class="node">
<title>Node11</title>
<g id="a_node11"><a xlink:href="MarmotElement_8h.html" target="_top" xlink:title=" ">
<polygon fill="white" stroke="black" points="39,-56.5 39,-75.5 167,-75.5 167,-56.5 39,-56.5"/>
<text text-anchor="middle" x="103" y="-63.5" font-family="Helvetica,sans-Serif" font-size="10.00">Marmot/MarmotElement.h</text>
</a>
</g>
</g>
<!-- Node10&#45;&gt;Node11 -->
<g id="edge11" class="edge">
<title>Node10&#45;&gt;Node11</title>
<path fill="none" stroke="midnightblue" d="M279.72,-112.44C243.55,-103.14 185.62,-88.25 146.02,-78.06"/>
<polygon fill="midnightblue" stroke="midnightblue" points="146.68,-74.62 136.12,-75.52 144.93,-81.4 146.68,-74.62"/>
</g>
<!-- Node14 -->
<g id="node14" class="node">
<title>Node14</title>
<g id="a_node14"><a xlink:title=" ">
<polygon fill="white" stroke="#bfbfbf" points="185.5,-56.5 185.5,-75.5 244.5,-75.5 244.5,-56.5 185.5,-56.5"/>
<text text-anchor="middle" x="215" y="-63.5" font-family="Helvetica,sans-Serif" font-size="10.00">functional</text>
</a>
</g>
</g>
<!-- Node10&#45;&gt;Node14 -->
<g id="edge17" class="edge">
<title>Node10&#45;&gt;Node14</title>
<path fill="none" stroke="midnightblue" d="M297.25,-112.32C281.68,-103.74 257.62,-90.49 239.54,-80.52"/>
<polygon fill="midnightblue" stroke="midnightblue" points="241.15,-77.42 230.71,-75.65 237.78,-83.55 241.15,-77.42"/>
</g>
<!-- Node15 -->
<g id="node15" class="node">
<title>Node15</title>
<g id="a_node15"><a xlink:title=" ">
<polygon fill="white" stroke="#bfbfbf" points="262.5,-56.5 262.5,-75.5 345.5,-75.5 345.5,-56.5 262.5,-56.5"/>
<text text-anchor="middle" x="304" y="-63.5" font-family="Helvetica,sans-Serif" font-size="10.00">unordered_map</text>
</a>
</g>
</g>
<!-- Node10&#45;&gt;Node15 -->
<g id="edge19" class="edge">
<title>Node10&#45;&gt;Node15</title>
<path fill="none" stroke="midnightblue" d="M311.51,-112.08C310.32,-104.93 308.61,-94.64 307.12,-85.69"/>
<polygon fill="midnightblue" stroke="midnightblue" points="310.55,-85.04 305.46,-75.75 303.65,-86.19 310.55,-85.04"/>
</g>
<!-- Node11&#45;&gt;Node6 -->
<g id="edge13" class="edge">
<title>Node11&#45;&gt;Node6</title>
<path fill="none" stroke="midnightblue" d="M139.92,-56.44C180.4,-47.06 245.42,-31.99 289.38,-21.8"/>
<polygon fill="midnightblue" stroke="midnightblue" points="290.3,-25.18 299.25,-19.52 288.72,-18.36 290.3,-25.18"/>
</g>
<!-- Node11&#45;&gt;Node7 -->
<g id="edge14" class="edge">
<title>Node11&#45;&gt;Node7</title>
<path fill="none" stroke="midnightblue" d="M164.18,-56.48C224.5,-47.91 319.26,-33.99 401,-20 406.29,-19.09 411.9,-18.07 417.34,-17.05"/>
<polygon fill="midnightblue" stroke="midnightblue" points="418.28,-20.44 427.44,-15.12 416.96,-13.56 418.28,-20.44"/>
</g>
<!-- Node12 -->
<g id="node12" class="node">
<title>Node12</title>
<g id="a_node12"><a xlink:href="MarmotElementProperty_8h.html" target="_top" xlink:title=" ">
<polygon fill="white" stroke="black" points="0,-0.5 0,-19.5 164,-19.5 164,-0.5 0,-0.5"/>
<text text-anchor="middle" x="82" y="-7.5" font-family="Helvetica,sans-Serif" font-size="10.00">Marmot/MarmotElementProperty.h</text>
</a>
</g>
</g>
<!-- Node11&#45;&gt;Node12 -->
<g id="edge12" class="edge">
<title>Node11&#45;&gt;Node12</title>
<path fill="none" stroke="midnightblue" d="M99.53,-56.08C96.69,-48.77 92.57,-38.18 89.04,-29.1"/>
<polygon fill="midnightblue" stroke="midnightblue" points="92.29,-27.8 85.4,-19.75 85.77,-30.34 92.29,-27.8"/>
</g>
<!-- Node13 -->
<g id="node13" class="node">
<title>Node13</title>
<g id="a_node13"><a xlink:title=" ">
<polygon fill="white" stroke="#bfbfbf" points="182,-0.5 182,-19.5 226,-19.5 226,-0.5 182,-0.5"/>
<text text-anchor="middle" x="204" y="-7.5" font-family="Helvetica,sans-Serif" font-size="10.00">vector</text>
</a>
</g>
</g>
<!-- Node11&#45;&gt;Node13 -->
<g id="edge15" class="edge">
<title>Node11&#45;&gt;Node13</title>
<path fill="none" stroke="midnightblue" d="M119.23,-56.32C135.35,-47.7 160.3,-34.36 178.96,-24.39"/>
<polygon fill="midnightblue" stroke="midnightblue" points="180.64,-27.46 187.81,-19.65 177.34,-21.28 180.64,-27.46"/>
</g>
</g>
</svg>
