<?xml version="1.0" encoding="UTF-8" standalone="no"?>
<!DOCTYPE svg PUBLIC "-//W3C//DTD SVG 1.1//EN"
 "http://www.w3.org/Graphics/SVG/1.1/DTD/svg11.dtd">
<!-- Generated by graphviz version 2.44.0 ()
 -->
<!-- Title: modules/materials/LinearViscoelasticPowerLaw/src/LinearViscoelasticPowerLaw.cpp Pages: 1 -->
<svg width="1830pt" height="374pt"
 viewBox="0.00 0.00 1829.50 374.00" xmlns="http://www.w3.org/2000/svg" xmlns:xlink="http://www.w3.org/1999/xlink">
<g id="graph0" class="graph" transform="scale(1 1) rotate(0) translate(4 370)">
<title>modules/materials/LinearViscoelasticPowerLaw/src/LinearViscoelasticPowerLaw.cpp</title>
<polygon fill="white" stroke="transparent" points="-4,4 -4,-370 1825.5,-370 1825.5,4 -4,4"/>
<!-- Node1 -->
<g id="node1" class="node">
<title>Node1</title>
<g id="a_node1"><a xlink:title=" ">
<polygon fill="#bfbfbf" stroke="black" points="710.5,-324.5 710.5,-365.5 874.5,-365.5 874.5,-324.5 710.5,-324.5"/>
<text text-anchor="start" x="718.5" y="-353.5" font-family="Helvetica,sans-Serif" font-size="10.00">modules/materials/Linear</text>
<text text-anchor="start" x="718.5" y="-342.5" font-family="Helvetica,sans-Serif" font-size="10.00">ViscoelasticPowerLaw/src</text>
<text text-anchor="middle" x="792.5" y="-331.5" font-family="Helvetica,sans-Serif" font-size="10.00">/LinearViscoelasticPowerLaw.cpp</text>
</a>
</g>
</g>
<!-- Node2 -->
<g id="node2" class="node">
<title>Node2</title>
<g id="a_node2"><a xlink:href="LinearViscoelasticPowerLaw_8h.html" target="_top" xlink:title=" ">
<polygon fill="white" stroke="black" points="378,-257.5 378,-287.5 511,-287.5 511,-257.5 378,-257.5"/>
<text text-anchor="start" x="386" y="-275.5" font-family="Helvetica,sans-Serif" font-size="10.00">Marmot/LinearViscoelastic</text>
<text text-anchor="middle" x="444.5" y="-264.5" font-family="Helvetica,sans-Serif" font-size="10.00">PowerLaw.h</text>
</a>
</g>
</g>
<!-- Node1&#45;&gt;Node2 -->
<g id="edge1" class="edge">
<title>Node1&#45;&gt;Node2</title>
<path fill="none" stroke="midnightblue" d="M710.47,-327.38C653.13,-315.76 577.08,-300.36 521,-289"/>
<polygon fill="midnightblue" stroke="midnightblue" points="521.61,-285.55 511.12,-287 520.22,-292.41 521.61,-285.55"/>
</g>
<!-- Node6 -->
<g id="node6" class="node">
<title>Node6</title>
<g id="a_node6"><a xlink:href="MarmotTypedefs_8h.html" target="_top" xlink:title=" ">
<polygon fill="white" stroke="black" points="1126,-73 1126,-92 1259,-92 1259,-73 1126,-73"/>
<text text-anchor="middle" x="1192.5" y="-80" font-family="Helvetica,sans-Serif" font-size="10.00">Marmot/MarmotTypedefs.h</text>
</a>
</g>
</g>
<!-- Node1&#45;&gt;Node6 -->
<g id="edge42" class="edge">
<title>Node1&#45;&gt;Node6</title>
<path fill="none" stroke="midnightblue" d="M793.54,-324.17C795.53,-304.94 801.24,-275.97 817.5,-257 865,-201.59 1073.9,-124.65 1157.62,-95.41"/>
<polygon fill="midnightblue" stroke="midnightblue" points="1158.89,-98.68 1167.19,-92.09 1156.6,-92.07 1158.89,-98.68"/>
</g>
<!-- Node10 -->
<g id="node10" class="node">
<title>Node10</title>
<g id="a_node10"><a xlink:title=" ">
<polygon fill="white" stroke="#bfbfbf" points="949.5,-73 949.5,-92 1069.5,-92 1069.5,-73 949.5,-73"/>
<text text-anchor="middle" x="1009.5" y="-80" font-family="Helvetica,sans-Serif" font-size="10.00">autodiff/forward/real.hpp</text>
</a>
</g>
</g>
<!-- Node1&#45;&gt;Node10 -->
<g id="edge48" class="edge">
<title>Node1&#45;&gt;Node10</title>
<path fill="none" stroke="midnightblue" d="M766.13,-324.41C716.44,-285.22 618.61,-195.65 672.5,-134 711.9,-88.93 880.48,-108.08 939.5,-98 946.32,-96.83 953.49,-95.49 960.54,-94.1"/>
<polygon fill="midnightblue" stroke="midnightblue" points="961.61,-97.45 970.71,-92.04 960.22,-90.59 961.61,-97.45"/>
</g>
<!-- Node11 -->
<g id="node11" class="node">
<title>Node11</title>
<g id="a_node11"><a xlink:href="MarmotMaterialHypoElastic_8h.html" target="_top" xlink:title=" ">
<polygon fill="white" stroke="black" points="98,-190.5 98,-220.5 241,-220.5 241,-190.5 98,-190.5"/>
<text text-anchor="start" x="106" y="-208.5" font-family="Helvetica,sans-Serif" font-size="10.00">Marmot/MarmotMaterialHypo</text>
<text text-anchor="middle" x="169.5" y="-197.5" font-family="Helvetica,sans-Serif" font-size="10.00">Elastic.h</text>
</a>
</g>
</g>
<!-- Node1&#45;&gt;Node11 -->
<g id="edge41" class="edge">
<title>Node1&#45;&gt;Node11</title>
<path fill="none" stroke="midnightblue" d="M710.4,-339.43C624.09,-333.18 484.92,-318.97 368.5,-288 310.13,-272.47 246.05,-244.02 206.8,-225.18"/>
<polygon fill="midnightblue" stroke="midnightblue" points="207.9,-221.82 197.37,-220.61 204.85,-228.12 207.9,-221.82"/>
</g>
<!-- Node15 -->
<g id="node15" class="node">
<title>Node15</title>
<g id="a_node15"><a xlink:title=" ">
<polygon fill="white" stroke="#bfbfbf" points="419,-6 419,-25 460,-25 460,-6 419,-6"/>
<text text-anchor="middle" x="439.5" y="-13" font-family="Helvetica,sans-Serif" font-size="10.00">string</text>
</a>
</g>
</g>
<!-- Node1&#45;&gt;Node15 -->
<g id="edge51" class="edge">
<title>Node1&#45;&gt;Node15</title>
<path fill="none" stroke="midnightblue" d="M710.36,-333.84C636.48,-319.56 539.5,-285.74 539.5,-206.5 539.5,-206.5 539.5,-206.5 539.5,-143 539.5,-93.27 491.36,-51.65 461.88,-30.83"/>
<polygon fill="midnightblue" stroke="midnightblue" points="463.64,-27.79 453.4,-25.05 459.69,-33.57 463.64,-27.79"/>
</g>
<!-- Node20 -->
<g id="node20" class="node">
<title>Node20</title>
<g id="a_node20"><a xlink:title=" ">
<polygon fill="white" stroke="#bfbfbf" points="567.5,-73 567.5,-92 621.5,-92 621.5,-73 567.5,-73"/>
<text text-anchor="middle" x="594.5" y="-80" font-family="Helvetica,sans-Serif" font-size="10.00">iostream</text>
</a>
</g>
</g>
<!-- Node1&#45;&gt;Node20 -->
<g id="edge49" class="edge">
<title>Node1&#45;&gt;Node20</title>
<path fill="none" stroke="midnightblue" d="M777.62,-324.42C740.18,-275.17 642.58,-146.76 607.39,-100.46"/>
<polygon fill="midnightblue" stroke="midnightblue" points="610.06,-98.18 601.22,-92.34 604.48,-102.42 610.06,-98.18"/>
</g>
<!-- Node21 -->
<g id="node21" class="node">
<title>Node21</title>
<g id="a_node21"><a xlink:href="MarmotElasticity_8h.html" target="_top" xlink:title=" ">
<polygon fill="white" stroke="black" points="1032.5,-263 1032.5,-282 1164.5,-282 1164.5,-263 1032.5,-263"/>
<text text-anchor="middle" x="1098.5" y="-270" font-family="Helvetica,sans-Serif" font-size="10.00">Marmot/MarmotElasticity.h</text>
</a>
</g>
</g>
<!-- Node1&#45;&gt;Node21 -->
<g id="edge25" class="edge">
<title>Node1&#45;&gt;Node21</title>
<path fill="none" stroke="midnightblue" d="M874.5,-325.11C931.07,-312.07 1004.28,-295.21 1051.33,-284.37"/>
<polygon fill="midnightblue" stroke="midnightblue" points="1052.28,-287.74 1061.24,-282.08 1050.71,-280.92 1052.28,-287.74"/>
</g>
<!-- Node22 -->
<g id="node22" class="node">
<title>Node22</title>
<g id="a_node22"><a xlink:href="MarmotVoigt_8h.html" target="_top" xlink:title=" ">
<polygon fill="white" stroke="black" points="990.5,-196 990.5,-215 1106.5,-215 1106.5,-196 990.5,-196"/>
<text text-anchor="middle" x="1048.5" y="-203" font-family="Helvetica,sans-Serif" font-size="10.00">Marmot/MarmotVoigt.h</text>
</a>
</g>
</g>
<!-- Node1&#45;&gt;Node22 -->
<g id="edge47" class="edge">
<title>Node1&#45;&gt;Node22</title>
<path fill="none" stroke="midnightblue" d="M800.28,-324.3C809.19,-304.32 825.69,-273.99 849.5,-257 871.56,-241.27 937.6,-226.41 987.6,-216.94"/>
<polygon fill="midnightblue" stroke="midnightblue" points="988.5,-220.33 997.69,-215.06 987.22,-213.45 988.5,-220.33"/>
</g>
<!-- Node32 -->
<g id="node32" class="node">
<title>Node32</title>
<g id="a_node32"><a xlink:href="MarmotUtility_8h.html" target="_top" xlink:title=" ">
<polygon fill="white" stroke="black" points="1133.5,-196 1133.5,-215 1251.5,-215 1251.5,-196 1133.5,-196"/>
<text text-anchor="middle" x="1192.5" y="-203" font-family="Helvetica,sans-Serif" font-size="10.00">Marmot/MarmotUtility.h</text>
</a>
</g>
</g>
<!-- Node1&#45;&gt;Node32 -->
<g id="edge43" class="edge">
<title>Node1&#45;&gt;Node32</title>
<path fill="none" stroke="midnightblue" d="M874.55,-342.46C973.29,-338.86 1131.13,-326.99 1173.5,-288 1190.68,-272.2 1193.78,-244.13 1193.7,-225.42"/>
<polygon fill="midnightblue" stroke="midnightblue" points="1197.19,-225.04 1193.35,-215.17 1190.2,-225.28 1197.19,-225.04"/>
</g>
<!-- Node33 -->
<g id="node33" class="node">
<title>Node33</title>
<g id="a_node33"><a xlink:href="MarmotViscoelasticity_8h.html" target="_top" xlink:title=" ">
<polygon fill="white" stroke="black" points="858.5,-263 858.5,-282 1014.5,-282 1014.5,-263 858.5,-263"/>
<text text-anchor="middle" x="936.5" y="-270" font-family="Helvetica,sans-Serif" font-size="10.00">Marmot/MarmotViscoelasticity.h</text>
</a>
</g>
</g>
<!-- Node1&#45;&gt;Node33 -->
<g id="edge45" class="edge">
<title>Node1&#45;&gt;Node33</title>
<path fill="none" stroke="midnightblue" d="M832.61,-324.36C857.15,-312.35 887.88,-297.3 909.53,-286.7"/>
<polygon fill="midnightblue" stroke="midnightblue" points="911.34,-289.71 918.78,-282.17 908.26,-283.43 911.34,-289.71"/>
</g>
<!-- Node34 -->
<g id="node34" class="node">
<title>Node34</title>
<g id="a_node34"><a xlink:title=" ">
<polygon fill="white" stroke="#bfbfbf" points="1221,-263 1221,-282 1256,-282 1256,-263 1221,-263"/>
<text text-anchor="middle" x="1238.5" y="-270" font-family="Helvetica,sans-Serif" font-size="10.00">map</text>
</a>
</g>
</g>
<!-- Node1&#45;&gt;Node34 -->
<g id="edge50" class="edge">
<title>Node1&#45;&gt;Node34</title>
<path fill="none" stroke="midnightblue" d="M874.86,-339.92C959.46,-334.1 1094.27,-320.27 1206.5,-288 1208.43,-287.44 1210.4,-286.79 1212.36,-286.07"/>
<polygon fill="midnightblue" stroke="midnightblue" points="1214.01,-289.18 1221.91,-282.12 1211.33,-282.71 1214.01,-289.18"/>
</g>
<!-- Node3 -->
<g id="node3" class="node">
<title>Node3</title>
<g id="a_node3"><a xlink:href="MarmotKelvinChain_8h.html" target="_top" xlink:title=" ">
<polygon fill="white" stroke="black" points="825,-134.5 825,-153.5 970,-153.5 970,-134.5 825,-134.5"/>
<text text-anchor="middle" x="897.5" y="-141.5" font-family="Helvetica,sans-Serif" font-size="10.00">Marmot/MarmotKelvinChain.h</text>
</a>
</g>
</g>
<!-- Node2&#45;&gt;Node3 -->
<g id="edge2" class="edge">
<title>Node2&#45;&gt;Node3</title>
<path fill="none" stroke="midnightblue" d="M511.27,-258.14C555.8,-248.8 615.48,-235.45 667.5,-221 738.55,-201.27 820.17,-172.91 864.55,-157"/>
<polygon fill="midnightblue" stroke="midnightblue" points="866,-160.2 874.22,-153.52 863.63,-153.62 866,-160.2"/>
</g>
<!-- Node2&#45;&gt;Node11 -->
<g id="edge11" class="edge">
<title>Node2&#45;&gt;Node11</title>
<path fill="none" stroke="midnightblue" d="M385.17,-257.48C342.3,-247.34 284.26,-233.63 239.19,-222.97"/>
<polygon fill="midnightblue" stroke="midnightblue" points="239.74,-219.51 229.2,-220.61 238.13,-226.32 239.74,-219.51"/>
</g>
<!-- Node2&#45;&gt;Node15 -->
<g id="edge23" class="edge">
<title>Node2&#45;&gt;Node15</title>
<path fill="none" stroke="midnightblue" d="M444.22,-257.43C443.38,-214.32 440.82,-84.05 439.87,-35.24"/>
<polygon fill="midnightblue" stroke="midnightblue" points="443.37,-35.09 439.67,-25.16 436.37,-35.22 443.37,-35.09"/>
</g>
<!-- Node16 -->
<g id="node16" class="node">
<title>Node16</title>
<g id="a_node16"><a xlink:href="MarmotStateVarVectorManager_8h.html" target="_top" xlink:title=" ">
<polygon fill="white" stroke="black" points="259.5,-190.5 259.5,-220.5 411.5,-220.5 411.5,-190.5 259.5,-190.5"/>
<text text-anchor="start" x="267.5" y="-208.5" font-family="Helvetica,sans-Serif" font-size="10.00">Marmot/MarmotStateVarVector</text>
<text text-anchor="middle" x="335.5" y="-197.5" font-family="Helvetica,sans-Serif" font-size="10.00">Manager.h</text>
</a>
</g>
</g>
<!-- Node2&#45;&gt;Node16 -->
<g id="edge16" class="edge">
<title>Node2&#45;&gt;Node16</title>
<path fill="none" stroke="midnightblue" d="M420.85,-257.4C405.42,-248.2 385.08,-236.07 368.12,-225.95"/>
<polygon fill="midnightblue" stroke="midnightblue" points="369.49,-222.69 359.11,-220.58 365.9,-228.7 369.49,-222.69"/>
</g>
<!-- Node19 -->
<g id="node19" class="node">
<title>Node19</title>
<g id="a_node19"><a xlink:title=" ">
<polygon fill="white" stroke="#bfbfbf" points="467.5,-134.5 467.5,-153.5 511.5,-153.5 511.5,-134.5 467.5,-134.5"/>
<text text-anchor="middle" x="489.5" y="-141.5" font-family="Helvetica,sans-Serif" font-size="10.00">vector</text>
</a>
</g>
</g>
<!-- Node2&#45;&gt;Node19 -->
<g id="edge24" class="edge">
<title>Node2&#45;&gt;Node19</title>
<path fill="none" stroke="midnightblue" d="M449.49,-257.48C457.66,-234.51 473.89,-188.89 482.97,-163.37"/>
<polygon fill="midnightblue" stroke="midnightblue" points="486.32,-164.38 486.37,-153.79 479.72,-162.04 486.32,-164.38"/>
</g>
<!-- Node2&#45;&gt;Node20 -->
<g id="edge22" class="edge">
<title>Node2&#45;&gt;Node20</title>
<path fill="none" stroke="midnightblue" d="M455.77,-257.37C482.91,-223.36 551.76,-137.06 581.02,-100.4"/>
<polygon fill="midnightblue" stroke="midnightblue" points="584.05,-102.21 587.55,-92.21 578.58,-97.84 584.05,-102.21"/>
</g>
<!-- Node4 -->
<g id="node4" class="node">
<title>Node4</title>
<g id="a_node4"><a xlink:href="MarmotNumericalIntegration_8h.html" target="_top" xlink:title=" ">
<polygon fill="white" stroke="black" points="748,-73 748,-92 931,-92 931,-73 748,-73"/>
<text text-anchor="middle" x="839.5" y="-80" font-family="Helvetica,sans-Serif" font-size="10.00">Marmot/MarmotNumericalIntegration.h</text>
</a>
</g>
</g>
<!-- Node3&#45;&gt;Node4 -->
<g id="edge3" class="edge">
<title>Node3&#45;&gt;Node4</title>
<path fill="none" stroke="midnightblue" d="M889.19,-134.48C880.32,-125.37 866.05,-110.74 855.08,-99.48"/>
<polygon fill="midnightblue" stroke="midnightblue" points="857.28,-96.73 847.79,-92.01 852.27,-101.61 857.28,-96.73"/>
</g>
<!-- Node5 -->
<g id="node5" class="node">
<title>Node5</title>
<g id="a_node5"><a xlink:title=" ">
<polygon fill="white" stroke="#bfbfbf" points="867,-6 867,-25 926,-25 926,-6 867,-6"/>
<text text-anchor="middle" x="896.5" y="-13" font-family="Helvetica,sans-Serif" font-size="10.00">functional</text>
</a>
</g>
</g>
<!-- Node3&#45;&gt;Node5 -->
<g id="edge10" class="edge">
<title>Node3&#45;&gt;Node5</title>
<path fill="none" stroke="midnightblue" d="M968.16,-134.43C1012.84,-127.39 1064.69,-115.67 1078.5,-98 1118.6,-46.72 1001.6,-26.8 936.65,-19.84"/>
<polygon fill="midnightblue" stroke="midnightblue" points="936.63,-16.32 926.33,-18.79 935.92,-23.28 936.63,-16.32"/>
</g>
<!-- Node3&#45;&gt;Node6 -->
<g id="edge5" class="edge">
<title>Node3&#45;&gt;Node6</title>
<path fill="none" stroke="midnightblue" d="M939.77,-134.48C992.67,-123.8 1083.26,-105.53 1140.4,-94.01"/>
<polygon fill="midnightblue" stroke="midnightblue" points="1141.2,-97.42 1150.31,-92.01 1139.82,-90.56 1141.2,-97.42"/>
</g>
<!-- Node3&#45;&gt;Node10 -->
<g id="edge9" class="edge">
<title>Node3&#45;&gt;Node10</title>
<path fill="none" stroke="midnightblue" d="M913.55,-134.48C932.09,-124.62 962.84,-108.29 984.52,-96.77"/>
<polygon fill="midnightblue" stroke="midnightblue" points="986.29,-99.79 993.48,-92.01 983.01,-93.61 986.29,-99.79"/>
</g>
<!-- Node4&#45;&gt;Node5 -->
<g id="edge4" class="edge">
<title>Node4&#45;&gt;Node5</title>
<path fill="none" stroke="midnightblue" d="M847.19,-72.73C856.16,-62.5 871.19,-45.36 882.3,-32.69"/>
<polygon fill="midnightblue" stroke="midnightblue" points="884.97,-34.95 888.93,-25.13 879.71,-30.34 884.97,-34.95"/>
</g>
<!-- Node7 -->
<g id="node7" class="node">
<title>Node7</title>
<g id="a_node7"><a xlink:title=" ">
<polygon fill="white" stroke="#bfbfbf" points="1038.5,-6 1038.5,-25 1102.5,-25 1102.5,-6 1038.5,-6"/>
<text text-anchor="middle" x="1070.5" y="-13" font-family="Helvetica,sans-Serif" font-size="10.00">Eigen/Core</text>
</a>
</g>
</g>
<!-- Node6&#45;&gt;Node7 -->
<g id="edge6" class="edge">
<title>Node6&#45;&gt;Node7</title>
<path fill="none" stroke="midnightblue" d="M1176.3,-72.87C1155.7,-61.89 1119.91,-42.82 1095.72,-29.94"/>
<polygon fill="midnightblue" stroke="midnightblue" points="1097.24,-26.78 1086.77,-25.17 1093.95,-32.96 1097.24,-26.78"/>
</g>
<!-- Node8 -->
<g id="node8" class="node">
<title>Node8</title>
<g id="a_node8"><a xlink:title=" ">
<polygon fill="white" stroke="#bfbfbf" points="1121,-6 1121,-25 1192,-25 1192,-6 1121,-6"/>
<text text-anchor="middle" x="1156.5" y="-13" font-family="Helvetica,sans-Serif" font-size="10.00">Eigen/Dense</text>
</a>
</g>
</g>
<!-- Node6&#45;&gt;Node8 -->
<g id="edge7" class="edge">
<title>Node6&#45;&gt;Node8</title>
<path fill="none" stroke="midnightblue" d="M1187.64,-72.73C1182.19,-62.89 1173.2,-46.66 1166.28,-34.16"/>
<polygon fill="midnightblue" stroke="midnightblue" points="1169.19,-32.18 1161.28,-25.13 1163.06,-35.57 1169.19,-32.18"/>
</g>
<!-- Node9 -->
<g id="node9" class="node">
<title>Node9</title>
<g id="a_node9"><a xlink:title=" ">
<polygon fill="white" stroke="#bfbfbf" points="1210,-0.5 1210,-30.5 1341,-30.5 1341,-0.5 1210,-0.5"/>
<text text-anchor="start" x="1218" y="-18.5" font-family="Helvetica,sans-Serif" font-size="10.00">unsupported/Eigen/CXX11</text>
<text text-anchor="middle" x="1275.5" y="-7.5" font-family="Helvetica,sans-Serif" font-size="10.00">/Tensor</text>
</a>
</g>
</g>
<!-- Node6&#45;&gt;Node9 -->
<g id="edge8" class="edge">
<title>Node6&#45;&gt;Node9</title>
<path fill="none" stroke="midnightblue" d="M1203.69,-72.73C1215.34,-63.61 1234,-49 1249.37,-36.96"/>
<polygon fill="midnightblue" stroke="midnightblue" points="1251.79,-39.51 1257.51,-30.59 1247.48,-34 1251.79,-39.51"/>
</g>
<!-- Node12 -->
<g id="node12" class="node">
<title>Node12</title>
<g id="a_node12"><a xlink:href="MarmotMaterialMechanical_8h.html" target="_top" xlink:title=" ">
<polygon fill="white" stroke="black" points="26,-134.5 26,-153.5 203,-153.5 203,-134.5 26,-134.5"/>
<text text-anchor="middle" x="114.5" y="-141.5" font-family="Helvetica,sans-Serif" font-size="10.00">Marmot/MarmotMaterialMechanical.h</text>
</a>
</g>
</g>
<!-- Node11&#45;&gt;Node12 -->
<g id="edge12" class="edge">
<title>Node11&#45;&gt;Node12</title>
<path fill="none" stroke="midnightblue" d="M156.47,-190.4C148.31,-181.58 137.78,-170.18 129.31,-161.02"/>
<polygon fill="midnightblue" stroke="midnightblue" points="131.86,-158.63 122.5,-153.66 126.72,-163.38 131.86,-158.63"/>
</g>
<!-- Node13 -->
<g id="node13" class="node">
<title>Node13</title>
<g id="a_node13"><a xlink:href="MarmotMaterial_8h.html" target="_top" xlink:title=" ">
<polygon fill="white" stroke="black" points="50.5,-73 50.5,-92 178.5,-92 178.5,-73 50.5,-73"/>
<text text-anchor="middle" x="114.5" y="-80" font-family="Helvetica,sans-Serif" font-size="10.00">Marmot/MarmotMaterial.h</text>
</a>
</g>
</g>
<!-- Node12&#45;&gt;Node13 -->
<g id="edge13" class="edge">
<title>Node12&#45;&gt;Node13</title>
<path fill="none" stroke="midnightblue" d="M114.5,-134.48C114.5,-126.08 114.5,-112.98 114.5,-102.16"/>
<polygon fill="midnightblue" stroke="midnightblue" points="118,-102.01 114.5,-92.01 111,-102.01 118,-102.01"/>
</g>
<!-- Node14 -->
<g id="node14" class="node">
<title>Node14</title>
<g id="a_node14"><a xlink:href="MarmotUtils_8h.html" target="_top" xlink:title=" ">
<polygon fill="white" stroke="black" points="0,-6 0,-25 113,-25 113,-6 0,-6"/>
<text text-anchor="middle" x="56.5" y="-13" font-family="Helvetica,sans-Serif" font-size="10.00">Marmot/MarmotUtils.h</text>
</a>
</g>
</g>
<!-- Node13&#45;&gt;Node14 -->
<g id="edge14" class="edge">
<title>Node13&#45;&gt;Node14</title>
<path fill="none" stroke="midnightblue" d="M106.68,-72.73C97.55,-62.5 82.26,-45.36 70.95,-32.69"/>
<polygon fill="midnightblue" stroke="midnightblue" points="73.47,-30.26 64.2,-25.13 68.24,-34.92 73.47,-30.26"/>
</g>
<!-- Node13&#45;&gt;Node15 -->
<g id="edge15" class="edge">
<title>Node13&#45;&gt;Node15</title>
<path fill="none" stroke="midnightblue" d="M157.32,-72.94C223.85,-59.63 350.44,-34.31 408.72,-22.66"/>
<polygon fill="midnightblue" stroke="midnightblue" points="409.66,-26.04 418.78,-20.64 408.29,-19.17 409.66,-26.04"/>
</g>
<!-- Node16&#45;&gt;Node14 -->
<g id="edge17" class="edge">
<title>Node16&#45;&gt;Node14</title>
<path fill="none" stroke="midnightblue" d="M259.08,-191.56C255.84,-191.03 252.64,-190.51 249.5,-190 197.78,-181.64 50.6,-193.77 16.5,-154 -13.87,-118.58 21.79,-61.19 42.99,-33.08"/>
<polygon fill="midnightblue" stroke="midnightblue" points="45.86,-35.08 49.26,-25.05 40.35,-30.78 45.86,-35.08"/>
</g>
<!-- Node16&#45;&gt;Node15 -->
<g id="edge19" class="edge">
<title>Node16&#45;&gt;Node15</title>
<path fill="none" stroke="midnightblue" d="M294.2,-190.4C265.88,-178.22 235.73,-158.71 249.5,-134 283.75,-72.56 364.84,-39.2 409.21,-24.97"/>
<polygon fill="midnightblue" stroke="midnightblue" points="410.34,-28.28 418.87,-21.99 408.28,-21.59 410.34,-28.28"/>
</g>
<!-- Node17 -->
<g id="node17" class="node">
<title>Node17</title>
<g id="a_node17"><a xlink:title=" ">
<polygon fill="white" stroke="#bfbfbf" points="360,-134.5 360,-153.5 411,-153.5 411,-134.5 360,-134.5"/>
<text text-anchor="middle" x="385.5" y="-141.5" font-family="Helvetica,sans-Serif" font-size="10.00">memory</text>
</a>
</g>
</g>
<!-- Node16&#45;&gt;Node17 -->
<g id="edge18" class="edge">
<title>Node16&#45;&gt;Node17</title>
<path fill="none" stroke="midnightblue" d="M347.35,-190.4C354.61,-181.75 363.95,-170.64 371.57,-161.58"/>
<polygon fill="midnightblue" stroke="midnightblue" points="374.47,-163.57 378.22,-153.66 369.11,-159.06 374.47,-163.57"/>
</g>
<!-- Node18 -->
<g id="node18" class="node">
<title>Node18</title>
<g id="a_node18"><a xlink:title=" ">
<polygon fill="white" stroke="#bfbfbf" points="259,-134.5 259,-153.5 342,-153.5 342,-134.5 259,-134.5"/>
<text text-anchor="middle" x="300.5" y="-141.5" font-family="Helvetica,sans-Serif" font-size="10.00">unordered_map</text>
</a>
</g>
</g>
<!-- Node16&#45;&gt;Node18 -->
<g id="edge20" class="edge">
<title>Node16&#45;&gt;Node18</title>
<path fill="none" stroke="midnightblue" d="M327.21,-190.4C322.28,-182.02 315.99,-171.33 310.75,-162.42"/>
<polygon fill="midnightblue" stroke="midnightblue" points="313.68,-160.5 305.59,-153.66 307.65,-164.05 313.68,-160.5"/>
</g>
<!-- Node16&#45;&gt;Node19 -->
<g id="edge21" class="edge">
<title>Node16&#45;&gt;Node19</title>
<path fill="none" stroke="midnightblue" d="M372,-190.4C398.07,-180.33 432.79,-166.91 457.72,-157.28"/>
<polygon fill="midnightblue" stroke="midnightblue" points="459.03,-160.53 467.09,-153.66 456.5,-154 459.03,-160.53"/>
</g>
<!-- Node21&#45;&gt;Node22 -->
<g id="edge26" class="edge">
<title>Node21&#45;&gt;Node22</title>
<path fill="none" stroke="midnightblue" d="M1091.76,-262.73C1083.96,-252.6 1070.95,-235.69 1061.24,-223.06"/>
<polygon fill="midnightblue" stroke="midnightblue" points="1064.01,-220.92 1055.14,-215.13 1058.46,-225.19 1064.01,-220.92"/>
</g>
<!-- Node22&#45;&gt;Node6 -->
<g id="edge40" class="edge">
<title>Node22&#45;&gt;Node6</title>
<path fill="none" stroke="midnightblue" d="M1058.86,-195.8C1083.14,-175.39 1144,-124.25 1174.5,-98.63"/>
<polygon fill="midnightblue" stroke="midnightblue" points="1176.83,-101.24 1182.24,-92.12 1172.33,-95.88 1176.83,-101.24"/>
</g>
<!-- Node23 -->
<g id="node23" class="node">
<title>Node23</title>
<g id="a_node23"><a xlink:href="MarmotJournal_8h.html" target="_top" xlink:title=" ">
<polygon fill="white" stroke="black" points="682,-134.5 682,-153.5 807,-153.5 807,-134.5 682,-134.5"/>
<text text-anchor="middle" x="744.5" y="-141.5" font-family="Helvetica,sans-Serif" font-size="10.00">Marmot/MarmotJournal.h</text>
</a>
</g>
</g>
<!-- Node22&#45;&gt;Node23 -->
<g id="edge27" class="edge">
<title>Node22&#45;&gt;Node23</title>
<path fill="none" stroke="midnightblue" d="M1004.94,-195.98C950.31,-185.28 856.69,-166.96 797.83,-155.44"/>
<polygon fill="midnightblue" stroke="midnightblue" points="798.46,-152 787.97,-153.51 797.12,-158.86 798.46,-152"/>
</g>
<!-- Node25 -->
<g id="node25" class="node">
<title>Node25</title>
<g id="a_node25"><a xlink:href="MarmotMath_8h.html" target="_top" xlink:title=" ">
<polygon fill="white" stroke="black" points="1344,-134.5 1344,-153.5 1459,-153.5 1459,-134.5 1344,-134.5"/>
<text text-anchor="middle" x="1401.5" y="-141.5" font-family="Helvetica,sans-Serif" font-size="10.00">Marmot/MarmotMath.h</text>
</a>
</g>
</g>
<!-- Node22&#45;&gt;Node25 -->
<g id="edge31" class="edge">
<title>Node22&#45;&gt;Node25</title>
<path fill="none" stroke="midnightblue" d="M1092.27,-195.94C1102.81,-193.93 1114.05,-191.85 1124.5,-190 1196.77,-177.24 1279.89,-163.92 1336.07,-155.11"/>
<polygon fill="midnightblue" stroke="midnightblue" points="1336.9,-158.52 1346.24,-153.52 1335.82,-151.61 1336.9,-158.52"/>
</g>
<!-- Node23&#45;&gt;Node15 -->
<g id="edge30" class="edge">
<title>Node23&#45;&gt;Node15</title>
<path fill="none" stroke="midnightblue" d="M728.35,-134.36C712.66,-125.76 688.37,-111.87 668.5,-98 650.63,-85.52 649.92,-76.9 630.5,-67 577.71,-40.09 509.19,-26.5 470.21,-20.51"/>
<polygon fill="midnightblue" stroke="midnightblue" points="470.43,-17.01 460.03,-19.02 469.42,-23.93 470.43,-17.01"/>
</g>
<!-- Node23&#45;&gt;Node20 -->
<g id="edge28" class="edge">
<title>Node23&#45;&gt;Node20</title>
<path fill="none" stroke="midnightblue" d="M723.01,-134.48C697.39,-124.31 654.39,-107.26 625.26,-95.7"/>
<polygon fill="midnightblue" stroke="midnightblue" points="626.54,-92.44 615.95,-92.01 623.96,-98.95 626.54,-92.44"/>
</g>
<!-- Node24 -->
<g id="node24" class="node">
<title>Node24</title>
<g id="a_node24"><a xlink:title=" ">
<polygon fill="white" stroke="#bfbfbf" points="677.5,-73 677.5,-92 729.5,-92 729.5,-73 677.5,-73"/>
<text text-anchor="middle" x="703.5" y="-80" font-family="Helvetica,sans-Serif" font-size="10.00">sstream</text>
</a>
</g>
</g>
<!-- Node23&#45;&gt;Node24 -->
<g id="edge29" class="edge">
<title>Node23&#45;&gt;Node24</title>
<path fill="none" stroke="midnightblue" d="M738.63,-134.48C732.54,-125.64 722.86,-111.59 715.2,-100.48"/>
<polygon fill="midnightblue" stroke="midnightblue" points="717.92,-98.26 709.36,-92.01 712.16,-102.23 717.92,-98.26"/>
</g>
<!-- Node25&#45;&gt;Node6 -->
<g id="edge34" class="edge">
<title>Node25&#45;&gt;Node6</title>
<path fill="none" stroke="midnightblue" d="M1371.56,-134.48C1334.93,-124.05 1272.8,-106.36 1232.22,-94.81"/>
<polygon fill="midnightblue" stroke="midnightblue" points="1232.97,-91.38 1222.39,-92.01 1231.05,-98.11 1232.97,-91.38"/>
</g>
<!-- Node25&#45;&gt;Node10 -->
<g id="edge36" class="edge">
<title>Node25&#45;&gt;Node10</title>
<path fill="none" stroke="midnightblue" d="M1345.34,-134.48C1274.02,-123.65 1151.16,-105 1075.46,-93.51"/>
<polygon fill="midnightblue" stroke="midnightblue" points="1075.97,-90.05 1065.56,-92.01 1074.92,-96.97 1075.97,-90.05"/>
</g>
<!-- Node26 -->
<g id="node26" class="node">
<title>Node26</title>
<g id="a_node26"><a xlink:href="MarmotConstants_8h.html" target="_top" xlink:title=" ">
<polygon fill="white" stroke="black" points="1277,-73 1277,-92 1414,-92 1414,-73 1277,-73"/>
<text text-anchor="middle" x="1345.5" y="-80" font-family="Helvetica,sans-Serif" font-size="10.00">Marmot/MarmotConstants.h</text>
</a>
</g>
</g>
<!-- Node25&#45;&gt;Node26 -->
<g id="edge32" class="edge">
<title>Node25&#45;&gt;Node26</title>
<path fill="none" stroke="midnightblue" d="M1393.48,-134.48C1384.91,-125.37 1371.14,-110.74 1360.54,-99.48"/>
<polygon fill="midnightblue" stroke="midnightblue" points="1362.91,-96.89 1353.51,-92.01 1357.81,-101.69 1362.91,-96.89"/>
</g>
<!-- Node28 -->
<g id="node28" class="node">
<title>Node28</title>
<g id="a_node28"><a xlink:title=" ">
<polygon fill="white" stroke="#bfbfbf" points="1503.5,-73 1503.5,-92 1625.5,-92 1625.5,-73 1503.5,-73"/>
<text text-anchor="middle" x="1564.5" y="-80" font-family="Helvetica,sans-Serif" font-size="10.00">autodiff/forward/dual.hpp</text>
</a>
</g>
</g>
<!-- Node25&#45;&gt;Node28 -->
<g id="edge35" class="edge">
<title>Node25&#45;&gt;Node28</title>
<path fill="none" stroke="midnightblue" d="M1424.85,-134.48C1452.81,-124.27 1499.83,-107.11 1531.49,-95.55"/>
<polygon fill="midnightblue" stroke="midnightblue" points="1533,-98.73 1541.19,-92.01 1530.6,-92.15 1533,-98.73"/>
</g>
<!-- Node29 -->
<g id="node29" class="node">
<title>Node29</title>
<g id="a_node29"><a xlink:title=" ">
<polygon fill="white" stroke="#bfbfbf" points="1643.5,-73 1643.5,-92 1699.5,-92 1699.5,-73 1643.5,-73"/>
<text text-anchor="middle" x="1671.5" y="-80" font-family="Helvetica,sans-Serif" font-size="10.00">algorithm</text>
</a>
</g>
</g>
<!-- Node25&#45;&gt;Node29 -->
<g id="edge37" class="edge">
<title>Node25&#45;&gt;Node29</title>
<path fill="none" stroke="midnightblue" d="M1459.17,-134.87C1506.75,-127.45 1575.74,-115.03 1634.5,-98 1637.08,-97.25 1639.74,-96.39 1642.38,-95.48"/>
<polygon fill="midnightblue" stroke="midnightblue" points="1643.6,-98.76 1651.76,-92 1641.17,-92.2 1643.6,-98.76"/>
</g>
<!-- Node30 -->
<g id="node30" class="node">
<title>Node30</title>
<g id="a_node30"><a xlink:title=" ">
<polygon fill="white" stroke="#bfbfbf" points="1717.5,-67.5 1717.5,-97.5 1821.5,-97.5 1821.5,-67.5 1717.5,-67.5"/>
<text text-anchor="start" x="1725.5" y="-85.5" font-family="Helvetica,sans-Serif" font-size="10.00">autodiff/forward/dual</text>
<text text-anchor="middle" x="1769.5" y="-74.5" font-family="Helvetica,sans-Serif" font-size="10.00">/dual.hpp</text>
</a>
</g>
</g>
<!-- Node25&#45;&gt;Node30 -->
<g id="edge38" class="edge">
<title>Node25&#45;&gt;Node30</title>
<path fill="none" stroke="midnightblue" d="M1459.18,-136.08C1518.9,-128.57 1615.08,-115.52 1707.26,-98.14"/>
<polygon fill="midnightblue" stroke="midnightblue" points="1708.15,-101.53 1717.32,-96.22 1706.84,-94.66 1708.15,-101.53"/>
</g>
<!-- Node31 -->
<g id="node31" class="node">
<title>Node31</title>
<g id="a_node31"><a xlink:title=" ">
<polygon fill="white" stroke="#bfbfbf" points="1432,-73 1432,-92 1485,-92 1485,-73 1432,-73"/>
<text text-anchor="middle" x="1458.5" y="-80" font-family="Helvetica,sans-Serif" font-size="10.00">complex</text>
</a>
</g>
</g>
<!-- Node25&#45;&gt;Node31 -->
<g id="edge39" class="edge">
<title>Node25&#45;&gt;Node31</title>
<path fill="none" stroke="midnightblue" d="M1409.67,-134.48C1418.39,-125.37 1432.4,-110.74 1443.19,-99.48"/>
<polygon fill="midnightblue" stroke="midnightblue" points="1445.96,-101.65 1450.35,-92.01 1440.9,-96.81 1445.96,-101.65"/>
</g>
<!-- Node27 -->
<g id="node27" class="node">
<title>Node27</title>
<g id="a_node27"><a xlink:title=" ">
<polygon fill="white" stroke="#bfbfbf" points="1359.5,-6 1359.5,-25 1403.5,-25 1403.5,-6 1359.5,-6"/>
<text text-anchor="middle" x="1381.5" y="-13" font-family="Helvetica,sans-Serif" font-size="10.00">cmath</text>
</a>
</g>
</g>
<!-- Node26&#45;&gt;Node27 -->
<g id="edge33" class="edge">
<title>Node26&#45;&gt;Node27</title>
<path fill="none" stroke="midnightblue" d="M1350.36,-72.73C1355.81,-62.89 1364.8,-46.66 1371.72,-34.16"/>
<polygon fill="midnightblue" stroke="midnightblue" points="1374.94,-35.57 1376.72,-25.13 1368.81,-32.18 1374.94,-35.57"/>
</g>
<!-- Node32&#45;&gt;Node6 -->
<g id="edge44" class="edge">
<title>Node32&#45;&gt;Node6</title>
<path fill="none" stroke="midnightblue" d="M1192.5,-195.8C1192.5,-176.35 1192.5,-128.99 1192.5,-102.4"/>
<polygon fill="midnightblue" stroke="midnightblue" points="1196,-102.12 1192.5,-92.12 1189,-102.12 1196,-102.12"/>
</g>
<!-- Node33&#45;&gt;Node22 -->
<g id="edge46" class="edge">
<title>Node33&#45;&gt;Node22</title>
<path fill="none" stroke="midnightblue" d="M951.6,-262.73C970.41,-251.82 1002.75,-233.05 1024.86,-220.22"/>
<polygon fill="midnightblue" stroke="midnightblue" points="1026.74,-223.17 1033.63,-215.13 1023.23,-217.12 1026.74,-223.17"/>
</g>
</g>
</svg>
