<?xml version="1.0" encoding="UTF-8" standalone="no"?>
<!DOCTYPE svg PUBLIC "-//W3C//DTD SVG 1.1//EN"
 "http://www.w3.org/Graphics/SVG/1.1/DTD/svg11.dtd">
<!-- Generated by graphviz version 2.44.0 ()
 -->
<!-- Title: modules/materials/LinearViscoelasticPowerLaw/src/LinearViscoelasticPowerLawRegistration.cpp Pages: 1 -->
<!--zoomable 374 -->
<svg id="main" version="1.1" xmlns="http://www.w3.org/2000/svg" xmlns:xlink="http://www.w3.org/1999/xlink" xml:space="preserve" onload="init(evt)">
<style type="text/css"><![CDATA[
.edge:hover path { stroke: red; }
.edge:hover polygon { stroke: red; fill: red; }
]]></style>
<script type="text/javascript"><![CDATA[
var edges = document.getElementsByTagName('g');
if (edges && edges.length) {
  for (var i=0;i<edges.length;i++) {
    if (edges[i].id.substr(0,4)=='edge') {
      edges[i].setAttribute('class','edge');
    }
  }
}
]]></script>
        <defs>
                <circle id="rim" cx="0" cy="0" r="7"/>
                <circle id="rim2" cx="0" cy="0" r="3.5"/>
                <g id="zoomPlus">
                        <use xlink:href="#rim" fill="#404040">
                                <set attributeName="fill" to="#808080" begin="zoomplus.mouseover" end="zoomplus.mouseout"/>
                        </use>
                        <path d="M-4,0h8M0,-4v8" fill="none" stroke="white" stroke-width="1.5" pointer-events="none"/>
                </g>
                <g id="zoomMin">
                        <use xlink:href="#rim" fill="#404040">
                                <set attributeName="fill" to="#808080" begin="zoomminus.mouseover" end="zoomminus.mouseout"/>
                        </use>
                        <path d="M-4,0h8" fill="none" stroke="white" stroke-width="1.5" pointer-events="none"/>
                </g>
                <g id="dirArrow">
                        <path fill="none" stroke="white" stroke-width="1.5" d="M0,-3.0v7 M-2.5,-0.5L0,-3.0L2.5,-0.5"/>
                </g>
               <g id="resetDef">
                       <use xlink:href="#rim2" fill="#404040">
                               <set attributeName="fill" to="#808080" begin="reset.mouseover" end="reset.mouseout"/>
                       </use>
               </g>
        </defs>

<script type="text/javascript">
var viewWidth = 1724;
var viewHeight = 374;
var sectionId = 'dynsection-0';
</script>
<script xlink:href="svgpan.js"/>
<svg id="graph" class="graph">
<g id="viewport">
<title>modules/materials/LinearViscoelasticPowerLaw/src/LinearViscoelasticPowerLawRegistration.cpp</title>
<polygon fill="white" stroke="transparent" points="-4,4 -4,-370 1719.5,-370 1719.5,4 -4,4"/>
<!-- Node1 -->
<g id="node1" class="node">
<title>Node1</title>
<g id="a_node1"><a xlink:title=" ">
<polygon fill="#bfbfbf" stroke="black" points="530,-324.5 530,-365.5 746,-365.5 746,-324.5 530,-324.5"/>
<text text-anchor="start" x="538" y="-353.5" font-family="Helvetica,sans-Serif" font-size="10.00">modules/materials/Linear</text>
<text text-anchor="start" x="538" y="-342.5" font-family="Helvetica,sans-Serif" font-size="10.00">ViscoelasticPowerLaw/src</text>
<text text-anchor="middle" x="638" y="-331.5" font-family="Helvetica,sans-Serif" font-size="10.00">/LinearViscoelasticPowerLawRegistration.cpp</text>
</a>
</g>
</g>
<!-- Node2 -->
<g id="node2" class="node">
<title>Node2</title>
<g id="a_node2"><a xlink:href="LinearViscoelasticPowerLaw_8h.html" target="_top" xlink:title=" ">
<polygon fill="white" stroke="black" points="680.5,-257.5 680.5,-287.5 813.5,-287.5 813.5,-257.5 680.5,-257.5"/>
<text text-anchor="start" x="688.5" y="-275.5" font-family="Helvetica,sans-Serif" font-size="10.00">Marmot/LinearViscoelastic</text>
<text text-anchor="middle" x="747" y="-264.5" font-family="Helvetica,sans-Serif" font-size="10.00">PowerLaw.h</text>
</a>
</g>
</g>
<!-- Node1&#45;&gt;Node2 -->
<g id="edge1" class="edge">
<title>Node1&#45;&gt;Node2</title>
<path fill="none" stroke="midnightblue" d="M668.36,-324.36C683.42,-314.62 701.56,-302.89 716.63,-293.15"/>
<polygon fill="midnightblue" stroke="midnightblue" points="718.6,-296.04 725.09,-287.67 714.79,-290.16 718.6,-296.04"/>
</g>
<!-- Node21 -->
<g id="node21" class="node">
<title>Node21</title>
<g id="a_node21"><a xlink:href="MarmotMaterialRegistrationHelper_8h.html" target="_top" xlink:title=" ">
<polygon fill="white" stroke="black" points="467,-257.5 467,-287.5 639,-287.5 639,-257.5 467,-257.5"/>
<text text-anchor="start" x="475" y="-275.5" font-family="Helvetica,sans-Serif" font-size="10.00">Marmot/MarmotMaterialRegistration</text>
<text text-anchor="middle" x="553" y="-264.5" font-family="Helvetica,sans-Serif" font-size="10.00">Helper.h</text>
</a>
</g>
</g>
<!-- Node1&#45;&gt;Node21 -->
<g id="edge25" class="edge">
<title>Node1&#45;&gt;Node21</title>
<path fill="none" stroke="midnightblue" d="M614.32,-324.36C603.02,-314.99 589.49,-303.76 578.01,-294.25"/>
<polygon fill="midnightblue" stroke="midnightblue" points="580.02,-291.36 570.08,-287.67 575.55,-296.75 580.02,-291.36"/>
</g>
<!-- Node3 -->
<g id="node3" class="node">
<title>Node3</title>
<g id="a_node3"><a xlink:href="MarmotKelvinChain_8h.html" target="_top" xlink:title=" ">
<polygon fill="white" stroke="black" points="1206.5,-196 1206.5,-215 1351.5,-215 1351.5,-196 1206.5,-196"/>
<text text-anchor="middle" x="1279" y="-203" font-family="Helvetica,sans-Serif" font-size="10.00">Marmot/MarmotKelvinChain.h</text>
</a>
</g>
</g>
<!-- Node2&#45;&gt;Node3 -->
<g id="edge2" class="edge">
<title>Node2&#45;&gt;Node3</title>
<path fill="none" stroke="midnightblue" d="M813.57,-263.37C911.52,-251.4 1094.17,-229.08 1199.18,-216.25"/>
<polygon fill="midnightblue" stroke="midnightblue" points="1199.9,-219.69 1209.4,-215 1199.05,-212.74 1199.9,-219.69"/>
</g>
<!-- Node11 -->
<g id="node11" class="node">
<title>Node11</title>
<g id="a_node11"><a xlink:href="MarmotMaterialHypoElastic_8h.html" target="_top" xlink:title=" ">
<polygon fill="white" stroke="black" points="906.5,-190.5 906.5,-220.5 1049.5,-220.5 1049.5,-190.5 906.5,-190.5"/>
<text text-anchor="start" x="914.5" y="-208.5" font-family="Helvetica,sans-Serif" font-size="10.00">Marmot/MarmotMaterialHypo</text>
<text text-anchor="middle" x="978" y="-197.5" font-family="Helvetica,sans-Serif" font-size="10.00">Elastic.h</text>
</a>
</g>
</g>
<!-- Node2&#45;&gt;Node11 -->
<g id="edge11" class="edge">
<title>Node2&#45;&gt;Node11</title>
<path fill="none" stroke="midnightblue" d="M796.84,-257.48C832.39,-247.47 880.37,-233.97 918.02,-223.38"/>
<polygon fill="midnightblue" stroke="midnightblue" points="919.17,-226.69 927.85,-220.61 917.28,-219.95 919.17,-226.69"/>
</g>
<!-- Node15 -->
<g id="node15" class="node">
<title>Node15</title>
<g id="a_node15"><a xlink:title=" ">
<polygon fill="white" stroke="#bfbfbf" points="606.5,-0.5 606.5,-19.5 647.5,-19.5 647.5,-0.5 606.5,-0.5"/>
<text text-anchor="middle" x="627" y="-7.5" font-family="Helvetica,sans-Serif" font-size="10.00">string</text>
</a>
</g>
</g>
<!-- Node2&#45;&gt;Node15 -->
<g id="edge23" class="edge">
<title>Node2&#45;&gt;Node15</title>
<path fill="none" stroke="midnightblue" d="M761.74,-257.46C798.44,-220.85 887.27,-120.79 835,-56 813.08,-28.83 710.17,-17.25 657.8,-13.05"/>
<polygon fill="midnightblue" stroke="midnightblue" points="657.97,-9.55 647.73,-12.29 657.44,-16.53 657.97,-9.55"/>
</g>
<!-- Node16 -->
<g id="node16" class="node">
<title>Node16</title>
<g id="a_node16"><a xlink:href="MarmotStateVarVectorManager_8h.html" target="_top" xlink:title=" ">
<polygon fill="white" stroke="black" points="671,-123.5 671,-153.5 823,-153.5 823,-123.5 671,-123.5"/>
<text text-anchor="start" x="679" y="-141.5" font-family="Helvetica,sans-Serif" font-size="10.00">Marmot/MarmotStateVarVector</text>
<text text-anchor="middle" x="747" y="-130.5" font-family="Helvetica,sans-Serif" font-size="10.00">Manager.h</text>
</a>
</g>
</g>
<!-- Node2&#45;&gt;Node16 -->
<g id="edge16" class="edge">
<title>Node2&#45;&gt;Node16</title>
<path fill="none" stroke="midnightblue" d="M747,-257.37C747,-235.04 747,-191.31 747,-163.85"/>
<polygon fill="midnightblue" stroke="midnightblue" points="750.5,-163.52 747,-153.52 743.5,-163.52 750.5,-163.52"/>
</g>
<!-- Node19 -->
<g id="node19" class="node">
<title>Node19</title>
<g id="a_node19"><a xlink:title=" ">
<polygon fill="white" stroke="#bfbfbf" points="573,-62 573,-81 617,-81 617,-62 573,-62"/>
<text text-anchor="middle" x="595" y="-69" font-family="Helvetica,sans-Serif" font-size="10.00">vector</text>
</a>
</g>
</g>
<!-- Node2&#45;&gt;Node19 -->
<g id="edge24" class="edge">
<title>Node2&#45;&gt;Node19</title>
<path fill="none" stroke="midnightblue" d="M736.07,-257.19C708.72,-221.38 637.42,-128.04 607.99,-89.51"/>
<polygon fill="midnightblue" stroke="midnightblue" points="610.62,-87.18 601.77,-81.36 605.06,-91.43 610.62,-87.18"/>
</g>
<!-- Node20 -->
<g id="node20" class="node">
<title>Node20</title>
<g id="a_node20"><a xlink:title=" ">
<polygon fill="white" stroke="#bfbfbf" points="0,-0.5 0,-19.5 54,-19.5 54,-0.5 0,-0.5"/>
<text text-anchor="middle" x="27" y="-7.5" font-family="Helvetica,sans-Serif" font-size="10.00">iostream</text>
</a>
</g>
</g>
<!-- Node2&#45;&gt;Node20 -->
<g id="edge22" class="edge">
<title>Node2&#45;&gt;Node20</title>
<path fill="none" stroke="midnightblue" d="M680.31,-261.19C527.18,-237.24 159.59,-178.07 108,-154 65.66,-134.25 46.89,-129.27 27,-87 18.59,-69.13 20.01,-46.18 22.65,-30.19"/>
<polygon fill="midnightblue" stroke="midnightblue" points="26.17,-30.45 24.66,-19.96 19.3,-29.1 26.17,-30.45"/>
</g>
<!-- Node4 -->
<g id="node4" class="node">
<title>Node4</title>
<g id="a_node4"><a xlink:href="MarmotNumericalIntegration_8h.html" target="_top" xlink:title=" ">
<polygon fill="white" stroke="black" points="1187.5,-129 1187.5,-148 1370.5,-148 1370.5,-129 1187.5,-129"/>
<text text-anchor="middle" x="1279" y="-136" font-family="Helvetica,sans-Serif" font-size="10.00">Marmot/MarmotNumericalIntegration.h</text>
</a>
</g>
</g>
<!-- Node3&#45;&gt;Node4 -->
<g id="edge3" class="edge">
<title>Node3&#45;&gt;Node4</title>
<path fill="none" stroke="midnightblue" d="M1279,-195.73C1279,-186.18 1279,-170.62 1279,-158.28"/>
<polygon fill="midnightblue" stroke="midnightblue" points="1282.5,-158.13 1279,-148.13 1275.5,-158.13 1282.5,-158.13"/>
</g>
<!-- Node5 -->
<g id="node5" class="node">
<title>Node5</title>
<g id="a_node5"><a xlink:title=" ">
<polygon fill="white" stroke="#bfbfbf" points="1129.5,-62 1129.5,-81 1188.5,-81 1188.5,-62 1129.5,-62"/>
<text text-anchor="middle" x="1159" y="-69" font-family="Helvetica,sans-Serif" font-size="10.00">functional</text>
</a>
</g>
</g>
<!-- Node3&#45;&gt;Node5 -->
<g id="edge10" class="edge">
<title>Node3&#45;&gt;Node5</title>
<path fill="none" stroke="midnightblue" d="M1245.57,-195.9C1223.21,-188.44 1194.88,-175.39 1178,-154 1163.76,-135.95 1159.86,-109.07 1158.97,-91.18"/>
<polygon fill="midnightblue" stroke="midnightblue" points="1162.46,-91.04 1158.73,-81.13 1155.46,-91.21 1162.46,-91.04"/>
</g>
<!-- Node6 -->
<g id="node6" class="node">
<title>Node6</title>
<g id="a_node6"><a xlink:href="MarmotTypedefs_8h.html" target="_top" xlink:title=" ">
<polygon fill="white" stroke="black" points="1527.5,-129 1527.5,-148 1660.5,-148 1660.5,-129 1527.5,-129"/>
<text text-anchor="middle" x="1594" y="-136" font-family="Helvetica,sans-Serif" font-size="10.00">Marmot/MarmotTypedefs.h</text>
</a>
</g>
</g>
<!-- Node3&#45;&gt;Node6 -->
<g id="edge5" class="edge">
<title>Node3&#45;&gt;Node6</title>
<path fill="none" stroke="midnightblue" d="M1320.5,-195.94C1377.71,-184.13 1480.74,-162.87 1542.7,-150.09"/>
<polygon fill="midnightblue" stroke="midnightblue" points="1543.57,-153.48 1552.65,-148.03 1542.15,-146.62 1543.57,-153.48"/>
</g>
<!-- Node10 -->
<g id="node10" class="node">
<title>Node10</title>
<g id="a_node10"><a xlink:title=" ">
<polygon fill="white" stroke="#bfbfbf" points="1389,-129 1389,-148 1509,-148 1509,-129 1389,-129"/>
<text text-anchor="middle" x="1449" y="-136" font-family="Helvetica,sans-Serif" font-size="10.00">autodiff/forward/real.hpp</text>
</a>
</g>
</g>
<!-- Node3&#45;&gt;Node10 -->
<g id="edge9" class="edge">
<title>Node3&#45;&gt;Node10</title>
<path fill="none" stroke="midnightblue" d="M1301.57,-195.87C1331.25,-184.52 1383.55,-164.52 1417.22,-151.65"/>
<polygon fill="midnightblue" stroke="midnightblue" points="1418.51,-154.9 1426.6,-148.06 1416.01,-148.37 1418.51,-154.9"/>
</g>
<!-- Node4&#45;&gt;Node5 -->
<g id="edge4" class="edge">
<title>Node4&#45;&gt;Node5</title>
<path fill="none" stroke="midnightblue" d="M1262.82,-128.73C1242.57,-117.77 1207.7,-98.88 1184.01,-86.05"/>
<polygon fill="midnightblue" stroke="midnightblue" points="1185.39,-82.81 1174.93,-81.13 1182.05,-88.97 1185.39,-82.81"/>
</g>
<!-- Node7 -->
<g id="node7" class="node">
<title>Node7</title>
<g id="a_node7"><a xlink:title=" ">
<polygon fill="white" stroke="#bfbfbf" points="1562,-62 1562,-81 1626,-81 1626,-62 1562,-62"/>
<text text-anchor="middle" x="1594" y="-69" font-family="Helvetica,sans-Serif" font-size="10.00">Eigen/Core</text>
</a>
</g>
</g>
<!-- Node6&#45;&gt;Node7 -->
<g id="edge6" class="edge">
<title>Node6&#45;&gt;Node7</title>
<path fill="none" stroke="midnightblue" d="M1594,-128.73C1594,-119.18 1594,-103.62 1594,-91.28"/>
<polygon fill="midnightblue" stroke="midnightblue" points="1597.5,-91.13 1594,-81.13 1590.5,-91.13 1597.5,-91.13"/>
</g>
<!-- Node8 -->
<g id="node8" class="node">
<title>Node8</title>
<g id="a_node8"><a xlink:title=" ">
<polygon fill="white" stroke="#bfbfbf" points="1644.5,-62 1644.5,-81 1715.5,-81 1715.5,-62 1644.5,-62"/>
<text text-anchor="middle" x="1680" y="-69" font-family="Helvetica,sans-Serif" font-size="10.00">Eigen/Dense</text>
</a>
</g>
</g>
<!-- Node6&#45;&gt;Node8 -->
<g id="edge7" class="edge">
<title>Node6&#45;&gt;Node8</title>
<path fill="none" stroke="midnightblue" d="M1605.6,-128.73C1619.65,-118.11 1643.55,-100.05 1660.47,-87.26"/>
<polygon fill="midnightblue" stroke="midnightblue" points="1662.72,-89.95 1668.59,-81.13 1658.5,-84.36 1662.72,-89.95"/>
</g>
<!-- Node9 -->
<g id="node9" class="node">
<title>Node9</title>
<g id="a_node9"><a xlink:title=" ">
<polygon fill="white" stroke="#bfbfbf" points="1412.5,-56.5 1412.5,-86.5 1543.5,-86.5 1543.5,-56.5 1412.5,-56.5"/>
<text text-anchor="start" x="1420.5" y="-74.5" font-family="Helvetica,sans-Serif" font-size="10.00">unsupported/Eigen/CXX11</text>
<text text-anchor="middle" x="1478" y="-63.5" font-family="Helvetica,sans-Serif" font-size="10.00">/Tensor</text>
</a>
</g>
</g>
<!-- Node6&#45;&gt;Node9 -->
<g id="edge8" class="edge">
<title>Node6&#45;&gt;Node9</title>
<path fill="none" stroke="midnightblue" d="M1578.36,-128.73C1561.47,-119.27 1534.06,-103.91 1512.15,-91.64"/>
<polygon fill="midnightblue" stroke="midnightblue" points="1513.58,-88.42 1503.14,-86.59 1510.16,-94.53 1513.58,-88.42"/>
</g>
<!-- Node12 -->
<g id="node12" class="node">
<title>Node12</title>
<g id="a_node12"><a xlink:href="MarmotMaterialMechanical_8h.html" target="_top" xlink:title=" ">
<polygon fill="white" stroke="black" points="916.5,-129 916.5,-148 1093.5,-148 1093.5,-129 916.5,-129"/>
<text text-anchor="middle" x="1005" y="-136" font-family="Helvetica,sans-Serif" font-size="10.00">Marmot/MarmotMaterialMechanical.h</text>
</a>
</g>
</g>
<!-- Node11&#45;&gt;Node12 -->
<g id="edge12" class="edge">
<title>Node11&#45;&gt;Node12</title>
<path fill="none" stroke="midnightblue" d="M983.86,-190.4C987.86,-180.76 993.2,-167.91 997.51,-157.54"/>
<polygon fill="midnightblue" stroke="midnightblue" points="1000.78,-158.77 1001.39,-148.19 994.32,-156.09 1000.78,-158.77"/>
</g>
<!-- Node13 -->
<g id="node13" class="node">
<title>Node13</title>
<g id="a_node13"><a xlink:href="MarmotMaterial_8h.html" target="_top" xlink:title=" ">
<polygon fill="white" stroke="black" points="921,-62 921,-81 1049,-81 1049,-62 921,-62"/>
<text text-anchor="middle" x="985" y="-69" font-family="Helvetica,sans-Serif" font-size="10.00">Marmot/MarmotMaterial.h</text>
</a>
</g>
</g>
<!-- Node12&#45;&gt;Node13 -->
<g id="edge13" class="edge">
<title>Node12&#45;&gt;Node13</title>
<path fill="none" stroke="midnightblue" d="M1002.3,-128.73C999.33,-119.09 994.48,-103.3 990.66,-90.91"/>
<polygon fill="midnightblue" stroke="midnightblue" points="993.94,-89.66 987.65,-81.13 987.25,-91.71 993.94,-89.66"/>
</g>
<!-- Node14 -->
<g id="node14" class="node">
<title>Node14</title>
<g id="a_node14"><a xlink:href="MarmotUtils_8h.html" target="_top" xlink:title=" ">
<polygon fill="white" stroke="black" points="798.5,-0.5 798.5,-19.5 911.5,-19.5 911.5,-0.5 798.5,-0.5"/>
<text text-anchor="middle" x="855" y="-7.5" font-family="Helvetica,sans-Serif" font-size="10.00">Marmot/MarmotUtils.h</text>
</a>
</g>
</g>
<!-- Node13&#45;&gt;Node14 -->
<g id="edge14" class="edge">
<title>Node13&#45;&gt;Node14</title>
<path fill="none" stroke="midnightblue" d="M966.37,-61.98C944.56,-51.99 908.2,-35.35 882.98,-23.81"/>
<polygon fill="midnightblue" stroke="midnightblue" points="884.14,-20.49 873.59,-19.51 881.23,-26.85 884.14,-20.49"/>
</g>
<!-- Node13&#45;&gt;Node15 -->
<g id="edge15" class="edge">
<title>Node13&#45;&gt;Node15</title>
<path fill="none" stroke="midnightblue" d="M940.08,-61.95C929.25,-59.95 917.72,-57.86 907,-56 816.65,-40.34 709.55,-23.65 657.91,-15.71"/>
<polygon fill="midnightblue" stroke="midnightblue" points="658.17,-12.21 647.75,-14.16 657.11,-19.13 658.17,-12.21"/>
</g>
<!-- Node16&#45;&gt;Node14 -->
<g id="edge17" class="edge">
<title>Node16&#45;&gt;Node14</title>
<path fill="none" stroke="midnightblue" d="M785.58,-123.47C803.01,-115.32 822.47,-103.36 835,-87 847.67,-70.45 852.34,-46.6 854.05,-30.04"/>
<polygon fill="midnightblue" stroke="midnightblue" points="857.55,-30.16 854.82,-19.93 850.57,-29.63 857.55,-30.16"/>
</g>
<!-- Node16&#45;&gt;Node15 -->
<g id="edge19" class="edge">
<title>Node16&#45;&gt;Node15</title>
<path fill="none" stroke="midnightblue" d="M747.14,-123.46C746.59,-105.78 743.13,-75.37 727,-56 709.46,-34.94 680.03,-23.33 657.62,-17.21"/>
<polygon fill="midnightblue" stroke="midnightblue" points="658.44,-13.81 647.89,-14.77 656.74,-20.6 658.44,-13.81"/>
</g>
<!-- Node17 -->
<g id="node17" class="node">
<title>Node17</title>
<g id="a_node17"><a xlink:title=" ">
<polygon fill="white" stroke="#bfbfbf" points="775.5,-62 775.5,-81 826.5,-81 826.5,-62 775.5,-62"/>
<text text-anchor="middle" x="801" y="-69" font-family="Helvetica,sans-Serif" font-size="10.00">memory</text>
</a>
</g>
</g>
<!-- Node16&#45;&gt;Node17 -->
<g id="edge18" class="edge">
<title>Node16&#45;&gt;Node17</title>
<path fill="none" stroke="midnightblue" d="M758.72,-123.4C767.14,-113.26 778.51,-99.57 787.34,-88.94"/>
<polygon fill="midnightblue" stroke="midnightblue" points="790.08,-91.12 793.78,-81.19 784.69,-86.65 790.08,-91.12"/>
</g>
<!-- Node18 -->
<g id="node18" class="node">
<title>Node18</title>
<g id="a_node18"><a xlink:title=" ">
<polygon fill="white" stroke="#bfbfbf" points="635.5,-62 635.5,-81 718.5,-81 718.5,-62 635.5,-62"/>
<text text-anchor="middle" x="677" y="-69" font-family="Helvetica,sans-Serif" font-size="10.00">unordered_map</text>
</a>
</g>
</g>
<!-- Node16&#45;&gt;Node18 -->
<g id="edge20" class="edge">
<title>Node16&#45;&gt;Node18</title>
<path fill="none" stroke="midnightblue" d="M731.81,-123.4C720.68,-113.06 705.56,-99.02 694.03,-88.31"/>
<polygon fill="midnightblue" stroke="midnightblue" points="696.07,-85.43 686.36,-81.19 691.31,-90.56 696.07,-85.43"/>
</g>
<!-- Node16&#45;&gt;Node19 -->
<g id="edge21" class="edge">
<title>Node16&#45;&gt;Node19</title>
<path fill="none" stroke="midnightblue" d="M712.15,-123.41C687.88,-113.49 654.83,-99.75 626,-87 624.81,-86.47 623.59,-85.93 622.37,-85.38"/>
<polygon fill="midnightblue" stroke="midnightblue" points="623.52,-82.06 612.97,-81.06 620.6,-88.42 623.52,-82.06"/>
</g>
<!-- Node22 -->
<g id="node22" class="node">
<title>Node22</title>
<g id="a_node22"><a xlink:href="Marmot_8h.html" target="_top" xlink:title=" ">
<polygon fill="white" stroke="black" points="483.5,-196 483.5,-215 576.5,-215 576.5,-196 483.5,-196"/>
<text text-anchor="middle" x="530" y="-203" font-family="Helvetica,sans-Serif" font-size="10.00">Marmot/Marmot.h</text>
</a>
</g>
</g>
<!-- Node21&#45;&gt;Node22 -->
<g id="edge26" class="edge">
<title>Node21&#45;&gt;Node22</title>
<path fill="none" stroke="midnightblue" d="M548.01,-257.4C544.64,-247.86 540.15,-235.18 536.5,-224.86"/>
<polygon fill="midnightblue" stroke="midnightblue" points="539.71,-223.45 533.08,-215.19 533.11,-225.79 539.71,-223.45"/>
</g>
<!-- Node22&#45;&gt;Node5 -->
<g id="edge38" class="edge">
<title>Node22&#45;&gt;Node5</title>
<path fill="none" stroke="midnightblue" d="M576.66,-202.64C705.04,-197.19 1056.96,-180.04 1102,-154 1126.83,-139.64 1143.44,-109.59 1152.04,-90.27"/>
<polygon fill="midnightblue" stroke="midnightblue" points="1155.27,-91.62 1155.9,-81.04 1148.81,-88.91 1155.27,-91.62"/>
</g>
<!-- Node22&#45;&gt;Node13 -->
<g id="edge37" class="edge">
<title>Node22&#45;&gt;Node13</title>
<path fill="none" stroke="midnightblue" d="M576.67,-201.39C637,-196.32 744.67,-183.67 832,-154 881.88,-137.05 935.09,-105.17 963.75,-86.71"/>
<polygon fill="midnightblue" stroke="midnightblue" points="965.69,-89.62 972.15,-81.22 961.86,-83.76 965.69,-89.62"/>
</g>
<!-- Node22&#45;&gt;Node15 -->
<g id="edge40" class="edge">
<title>Node22&#45;&gt;Node15</title>
<path fill="none" stroke="midnightblue" d="M529.92,-195.97C530.08,-171.87 533.35,-102 564,-56 572.82,-42.77 586.94,-32.16 599.58,-24.57"/>
<polygon fill="midnightblue" stroke="midnightblue" points="601.43,-27.54 608.42,-19.58 597.99,-21.45 601.43,-27.54"/>
</g>
<!-- Node22&#45;&gt;Node18 -->
<g id="edge41" class="edge">
<title>Node22&#45;&gt;Node18</title>
<path fill="none" stroke="midnightblue" d="M539.65,-195.84C564.15,-173.83 629.07,-115.54 660.07,-87.7"/>
<polygon fill="midnightblue" stroke="midnightblue" points="662.41,-90.31 667.51,-81.02 657.73,-85.1 662.41,-90.31"/>
</g>
<!-- Node22&#45;&gt;Node20 -->
<g id="edge39" class="edge">
<title>Node22&#45;&gt;Node20</title>
<path fill="none" stroke="midnightblue" d="M483.16,-199.28C374.15,-186.21 108.04,-148.62 46,-87 31.02,-72.13 27.22,-47.36 26.55,-30.16"/>
<polygon fill="midnightblue" stroke="midnightblue" points="30.05,-29.65 26.49,-19.67 23.05,-29.69 30.05,-29.65"/>
</g>
<!-- Node23 -->
<g id="node23" class="node">
<title>Node23</title>
<g id="a_node23"><a xlink:href="MarmotElement_8h.html" target="_top" xlink:title=" ">
<polygon fill="white" stroke="black" points="351,-129 351,-148 479,-148 479,-129 351,-129"/>
<text text-anchor="middle" x="415" y="-136" font-family="Helvetica,sans-Serif" font-size="10.00">Marmot/MarmotElement.h</text>
</a>
</g>
</g>
<!-- Node22&#45;&gt;Node23 -->
<g id="edge27" class="edge">
<title>Node22&#45;&gt;Node23</title>
<path fill="none" stroke="midnightblue" d="M514.49,-195.73C495.09,-184.77 461.67,-165.88 438.97,-153.05"/>
<polygon fill="midnightblue" stroke="midnightblue" points="440.69,-150 430.26,-148.13 437.25,-156.09 440.69,-150"/>
</g>
<!-- Node23&#45;&gt;Node14 -->
<g id="edge33" class="edge">
<title>Node23&#45;&gt;Node14</title>
<path fill="none" stroke="midnightblue" d="M427.07,-128.97C451.6,-112.09 509.55,-74.47 564,-56 638.37,-30.78 728.27,-19.62 788.28,-14.73"/>
<polygon fill="midnightblue" stroke="midnightblue" points="788.69,-18.21 798.38,-13.95 788.14,-11.23 788.69,-18.21"/>
</g>
<!-- Node23&#45;&gt;Node15 -->
<g id="edge35" class="edge">
<title>Node23&#45;&gt;Node15</title>
<path fill="none" stroke="midnightblue" d="M421.05,-128.8C432.96,-112.29 461.09,-76.26 493,-56 525.29,-35.5 567.93,-23.28 596.35,-16.86"/>
<polygon fill="midnightblue" stroke="midnightblue" points="597.1,-20.28 606.13,-14.75 595.62,-13.44 597.1,-20.28"/>
</g>
<!-- Node23&#45;&gt;Node19 -->
<g id="edge36" class="edge">
<title>Node23&#45;&gt;Node19</title>
<path fill="none" stroke="midnightblue" d="M440.36,-129C469.22,-119.23 517.72,-102.54 559,-87 560.84,-86.31 562.74,-85.58 564.64,-84.84"/>
<polygon fill="midnightblue" stroke="midnightblue" points="566.11,-88.03 574.12,-81.1 563.54,-81.52 566.11,-88.03"/>
</g>
<!-- Node24 -->
<g id="node24" class="node">
<title>Node24</title>
<g id="a_node24"><a xlink:href="MarmotElementProperty_8h.html" target="_top" xlink:title=" ">
<polygon fill="white" stroke="black" points="133,-62 133,-81 297,-81 297,-62 133,-62"/>
<text text-anchor="middle" x="215" y="-69" font-family="Helvetica,sans-Serif" font-size="10.00">Marmot/MarmotElementProperty.h</text>
</a>
</g>
</g>
<!-- Node23&#45;&gt;Node24 -->
<g id="edge28" class="edge">
<title>Node23&#45;&gt;Node24</title>
<path fill="none" stroke="midnightblue" d="M388.44,-128.87C353.08,-117.38 290.41,-97.01 250.87,-84.16"/>
<polygon fill="midnightblue" stroke="midnightblue" points="251.94,-80.83 241.35,-81.06 249.78,-87.48 251.94,-80.83"/>
</g>
<!-- Node25 -->
<g id="node25" class="node">
<title>Node25</title>
<g id="a_node25"><a xlink:href="MarmotJournal_8h.html" target="_top" xlink:title=" ">
<polygon fill="white" stroke="black" points="315.5,-62 315.5,-81 440.5,-81 440.5,-62 315.5,-62"/>
<text text-anchor="middle" x="378" y="-69" font-family="Helvetica,sans-Serif" font-size="10.00">Marmot/MarmotJournal.h</text>
</a>
</g>
</g>
<!-- Node23&#45;&gt;Node25 -->
<g id="edge29" class="edge">
<title>Node23&#45;&gt;Node25</title>
<path fill="none" stroke="midnightblue" d="M410.01,-128.73C404.41,-118.89 395.17,-102.66 388.05,-90.16"/>
<polygon fill="midnightblue" stroke="midnightblue" points="390.9,-88.09 382.91,-81.13 384.82,-91.55 390.9,-88.09"/>
</g>
<!-- Node27 -->
<g id="node27" class="node">
<title>Node27</title>
<g id="a_node27"><a xlink:title=" ">
<polygon fill="white" stroke="#bfbfbf" points="55.5,-62 55.5,-81 114.5,-81 114.5,-62 55.5,-62"/>
<text text-anchor="middle" x="85" y="-69" font-family="Helvetica,sans-Serif" font-size="10.00">stdexcept</text>
</a>
</g>
</g>
<!-- Node23&#45;&gt;Node27 -->
<g id="edge34" class="edge">
<title>Node23&#45;&gt;Node27</title>
<path fill="none" stroke="midnightblue" d="M350.97,-129.84C291.51,-121.92 200.85,-107.76 124,-87 121.19,-86.24 118.3,-85.36 115.42,-84.42"/>
<polygon fill="midnightblue" stroke="midnightblue" points="116.41,-81.06 105.82,-81.05 114.09,-87.66 116.41,-81.06"/>
</g>
<!-- Node25&#45;&gt;Node15 -->
<g id="edge32" class="edge">
<title>Node25&#45;&gt;Node15</title>
<path fill="none" stroke="midnightblue" d="M413.68,-61.98C462.81,-50.23 550.45,-29.29 596.62,-18.26"/>
<polygon fill="midnightblue" stroke="midnightblue" points="597.44,-21.66 606.35,-15.93 595.81,-14.85 597.44,-21.66"/>
</g>
<!-- Node25&#45;&gt;Node20 -->
<g id="edge30" class="edge">
<title>Node25&#45;&gt;Node20</title>
<path fill="none" stroke="midnightblue" d="M336.93,-61.94C326.83,-59.92 316.04,-57.82 306,-56 219.78,-40.37 118.07,-24.65 64.45,-16.57"/>
<polygon fill="midnightblue" stroke="midnightblue" points="64.79,-13.08 54.39,-15.06 63.75,-20 64.79,-13.08"/>
</g>
<!-- Node26 -->
<g id="node26" class="node">
<title>Node26</title>
<g id="a_node26"><a xlink:title=" ">
<polygon fill="white" stroke="#bfbfbf" points="352,-0.5 352,-19.5 404,-19.5 404,-0.5 352,-0.5"/>
<text text-anchor="middle" x="378" y="-7.5" font-family="Helvetica,sans-Serif" font-size="10.00">sstream</text>
</a>
</g>
</g>
<!-- Node25&#45;&gt;Node26 -->
<g id="edge31" class="edge">
<title>Node25&#45;&gt;Node26</title>
<path fill="none" stroke="midnightblue" d="M378,-61.98C378,-53.58 378,-40.48 378,-29.66"/>
<polygon fill="midnightblue" stroke="midnightblue" points="381.5,-29.51 378,-19.51 374.5,-29.51 381.5,-29.51"/>
</g>
</g>
</svg>
        <g id="navigator" transform="translate(0 0)" fill="#404254">
                <rect fill="#f2f5e9" fill-opacity="0.5" stroke="#606060" stroke-width=".5" x="0" y="0" width="60" height="60"/>
                <use id="zoomplus" xlink:href="#zoomPlus" x="17" y="9" onmousedown="handleZoom(evt,'in')"/>
                <use id="zoomminus" xlink:href="#zoomMin" x="42" y="9" onmousedown="handleZoom(evt,'out')"/>
                <use id="reset" xlink:href="#resetDef" x="30" y="36" onmousedown="handleReset()"/>
                <g id="arrowUp" xlink:href="#dirArrow" transform="translate(30 24)" onmousedown="handlePan(0,-1)">
                  <use xlink:href="#rim" fill="#404040">
                        <set attributeName="fill" to="#808080" begin="arrowUp.mouseover" end="arrowUp.mouseout"/>
                  </use>
                  <path fill="none" stroke="white" stroke-width="1.5" d="M0,-3.0v7 M-2.5,-0.5L0,-3.0L2.5,-0.5"/>
                </g>
                <g id="arrowRight" xlink:href="#dirArrow" transform="rotate(90) translate(36 -43)" onmousedown="handlePan(1,0)">
                  <use xlink:href="#rim" fill="#404040">
                        <set attributeName="fill" to="#808080" begin="arrowRight.mouseover" end="arrowRight.mouseout"/>
                  </use>
                  <path fill="none" stroke="white" stroke-width="1.5" d="M0,-3.0v7 M-2.5,-0.5L0,-3.0L2.5,-0.5"/>
                </g>
                <g id="arrowDown" xlink:href="#dirArrow" transform="rotate(180) translate(-30 -48)" onmousedown="handlePan(0,1)">
                  <use xlink:href="#rim" fill="#404040">
                        <set attributeName="fill" to="#808080" begin="arrowDown.mouseover" end="arrowDown.mouseout"/>
                  </use>
                  <path fill="none" stroke="white" stroke-width="1.5" d="M0,-3.0v7 M-2.5,-0.5L0,-3.0L2.5,-0.5"/>
                </g>
                <g id="arrowLeft" xlink:href="#dirArrow" transform="rotate(270) translate(-36 17)" onmousedown="handlePan(-1,0)">
                  <use xlink:href="#rim" fill="#404040">
                        <set attributeName="fill" to="#808080" begin="arrowLeft.mouseover" end="arrowLeft.mouseout"/>
                  </use>
                  <path fill="none" stroke="white" stroke-width="1.5" d="M0,-3.0v7 M-2.5,-0.5L0,-3.0L2.5,-0.5"/>
                </g>
        </g>
        <svg viewBox="0 0 15 15" width="100%" height="30px" preserveAspectRatio="xMaxYMin meet">
         <g id="arrow_out" transform="scale(0.3 0.3)">
          <a xlink:href="LinearViscoelasticPowerLawRegistration_8cpp__incl_org.svg" target="_base">
           <rect id="button" ry="5" rx="5" y="6" x="6" height="38" width="38"
                fill="#f2f5e9" fill-opacity="0.5" stroke="#606060" stroke-width="1.0"/>
           <path id="arrow"
             d="M 11.500037,31.436501 C 11.940474,20.09759 22.043105,11.32322 32.158766,21.979434 L 37.068811,17.246167 C 37.068811,17.246167 37.088388,32 37.088388,32 L 22.160133,31.978069 C 22.160133,31.978069 26.997745,27.140456 26.997745,27.140456 C 18.528582,18.264221 13.291696,25.230495 11.500037,31.436501 z"
             style="fill:#404040;"/>
          </a>
         </g>
        </svg>
</svg>
