<?xml version="1.0" encoding="UTF-8" standalone="no"?>
<!DOCTYPE svg PUBLIC "-//W3C//DTD SVG 1.1//EN"
 "http://www.w3.org/Graphics/SVG/1.1/DTD/svg11.dtd">
<!-- Generated by graphviz version 3.0.0 (20220413.0106)
 -->
<!-- Title: modules/materials/LinearElastic/src/LinearElastic.cpp Pages: 1 -->
<!--zoomable 341 -->
<svg id="main" version="1.1" xmlns="http://www.w3.org/2000/svg" xmlns:xlink="http://www.w3.org/1999/xlink" xml:space="preserve" onload="init(evt)">
<style type="text/css"><![CDATA[
.edge:hover path { stroke: red; }
.edge:hover polygon { stroke: red; fill: red; }
]]></style>
<script type="text/javascript"><![CDATA[
var edges = document.getElementsByTagName('g');
if (edges && edges.length) {
  for (var i=0;i<edges.length;i++) {
    if (edges[i].id.substr(0,4)=='edge') {
      edges[i].setAttribute('class','edge');
    }
  }
}
]]></script>
        <defs>
                <circle id="rim" cx="0" cy="0" r="7"/>
                <circle id="rim2" cx="0" cy="0" r="3.5"/>
                <g id="zoomPlus">
                        <use xlink:href="#rim" fill="#404040">
                                <set attributeName="fill" to="#808080" begin="zoomplus.mouseover" end="zoomplus.mouseout"/>
                        </use>
                        <path d="M-4,0h8M0,-4v8" fill="none" stroke="white" stroke-width="1.5" pointer-events="none"/>
                </g>
                <g id="zoomMin">
                        <use xlink:href="#rim" fill="#404040">
                                <set attributeName="fill" to="#808080" begin="zoomminus.mouseover" end="zoomminus.mouseout"/>
                        </use>
                        <path d="M-4,0h8" fill="none" stroke="white" stroke-width="1.5" pointer-events="none"/>
                </g>
                <g id="dirArrow">
                        <path fill="none" stroke="white" stroke-width="1.5" d="M0,-3.0v7 M-2.5,-0.5L0,-3.0L2.5,-0.5"/>
                </g>
               <g id="resetDef">
                       <use xlink:href="#rim2" fill="#404040">
                               <set attributeName="fill" to="#808080" begin="reset.mouseover" end="reset.mouseout"/>
                       </use>
               </g>
        </defs>

<script type="text/javascript">
var viewWidth = 1179;
var viewHeight = 341;
var sectionId = 'dynsection-0';
</script>
<script xlink:href="svgpan.js"/>
<svg id="graph" class="graph">
<g id="viewport">
<title>modules/materials/LinearElastic/src/LinearElastic.cpp</title>
<polygon fill="white" stroke="transparent" points="-4,4 -4,-337 1174.5,-337 1174.5,4 -4,4"/>
<!-- Node1 -->
<g id="node1" class="node">
<title>Node1</title>
<g id="a_node1"><a xlink:title=" ">
<polygon fill="#bfbfbf" stroke="black" points="430.5,-302.5 430.5,-332.5 570.5,-332.5 570.5,-302.5 430.5,-302.5"/>
<text text-anchor="start" x="438.5" y="-320.5" font-family="Helvetica,sans-Serif" font-size="10.00">modules/materials/Linear</text>
<text text-anchor="middle" x="500.5" y="-309.5" font-family="Helvetica,sans-Serif" font-size="10.00">Elastic/src/LinearElastic.cpp</text>
</a>
</g>
</g>
<!-- Node2 -->
<g id="node2" class="node">
<title>Node2</title>
<g id="a_node2"><a xlink:href="LinearElastic_8h.html" target="_top" xlink:title=" ">
<polygon fill="white" stroke="black" points="209.5,-246.5 209.5,-265.5 325.5,-265.5 325.5,-246.5 209.5,-246.5"/>
<text text-anchor="middle" x="267.5" y="-253.5" font-family="Helvetica,sans-Serif" font-size="10.00">Marmot/LinearElastic.h</text>
</a>
</g>
</g>
<!-- Node1&#45;&gt;Node2 -->
<g id="edge1" class="edge">
<title>Node1&#45;&gt;Node2</title>
<path fill="none" stroke="midnightblue" d="M445.58,-302.47C404.33,-291.94 348.62,-277.72 310.57,-268"/>
<polygon fill="midnightblue" stroke="midnightblue" points="311.37,-264.59 300.81,-265.51 309.63,-271.37 311.37,-264.59"/>
</g>
<!-- Node8 -->
<g id="node8" class="node">
<title>Node8</title>
<g id="a_node8"><a xlink:href="MarmotTypedefs_8h.html" target="_top" xlink:title=" ">
<polygon fill="white" stroke="black" points="458,-67.5 458,-86.5 591,-86.5 591,-67.5 458,-67.5"/>
<text text-anchor="middle" x="524.5" y="-74.5" font-family="Helvetica,sans-Serif" font-size="10.00">Marmot/MarmotTypedefs.h</text>
</a>
</g>
</g>
<!-- Node1&#45;&gt;Node8 -->
<g id="edge31" class="edge">
<title>Node1&#45;&gt;Node8</title>
<path fill="none" stroke="midnightblue" d="M495.41,-302.35C487.09,-277.3 472.4,-223.63 481.5,-179 487.79,-148.15 503.87,-115.06 514.48,-95.46"/>
<polygon fill="midnightblue" stroke="midnightblue" points="517.65,-96.97 519.46,-86.53 511.53,-93.56 517.65,-96.97"/>
</g>
<!-- Node14 -->
<g id="node14" class="node">
<title>Node14</title>
<g id="a_node14"><a xlink:href="MarmotElasticity_8h.html" target="_top" xlink:title=" ">
<polygon fill="white" stroke="black" points="528.5,-246.5 528.5,-265.5 660.5,-265.5 660.5,-246.5 528.5,-246.5"/>
<text text-anchor="middle" x="594.5" y="-253.5" font-family="Helvetica,sans-Serif" font-size="10.00">Marmot/MarmotElasticity.h</text>
</a>
</g>
</g>
<!-- Node1&#45;&gt;Node14 -->
<g id="edge14" class="edge">
<title>Node1&#45;&gt;Node14</title>
<path fill="none" stroke="midnightblue" d="M522.78,-302.4C537.7,-292.95 557.28,-280.56 572.21,-271.11"/>
<polygon fill="midnightblue" stroke="midnightblue" points="574.24,-273.96 580.82,-265.66 570.5,-268.05 574.24,-273.96"/>
</g>
<!-- Node15 -->
<g id="node15" class="node">
<title>Node15</title>
<g id="a_node15"><a xlink:href="MarmotVoigt_8h.html" target="_top" xlink:title=" ">
<polygon fill="white" stroke="black" points="490.5,-185 490.5,-204 606.5,-204 606.5,-185 490.5,-185"/>
<text text-anchor="middle" x="548.5" y="-192" font-family="Helvetica,sans-Serif" font-size="10.00">Marmot/MarmotVoigt.h</text>
</a>
</g>
</g>
<!-- Node1&#45;&gt;Node15 -->
<g id="edge34" class="edge">
<title>Node1&#45;&gt;Node15</title>
<path fill="none" stroke="midnightblue" d="M503.18,-302.37C506.19,-287.88 511.7,-264.86 519.5,-246 524.31,-234.37 531.3,-222.11 537.21,-212.58"/>
<polygon fill="midnightblue" stroke="midnightblue" points="540.21,-214.4 542.65,-204.09 534.31,-210.62 540.21,-214.4"/>
</g>
<!-- Node16 -->
<g id="node16" class="node">
<title>Node16</title>
<g id="a_node16"><a xlink:href="MarmotJournal_8h.html" target="_top" xlink:title=" ">
<polygon fill="white" stroke="black" points="271,-123.5 271,-142.5 396,-142.5 396,-123.5 271,-123.5"/>
<text text-anchor="middle" x="333.5" y="-130.5" font-family="Helvetica,sans-Serif" font-size="10.00">Marmot/MarmotJournal.h</text>
</a>
</g>
</g>
<!-- Node1&#45;&gt;Node16 -->
<g id="edge29" class="edge">
<title>Node1&#45;&gt;Node16</title>
<path fill="none" stroke="midnightblue" d="M485.15,-302.24C474.62,-292.3 460.44,-278.61 448.5,-266 410.36,-225.73 368.16,-175.8 347.07,-150.44"/>
<polygon fill="midnightblue" stroke="midnightblue" points="349.61,-148.02 340.53,-142.55 344.22,-152.49 349.61,-148.02"/>
</g>
<!-- Node18 -->
<g id="node18" class="node">
<title>Node18</title>
<g id="a_node18"><a xlink:href="MarmotMath_8h.html" target="_top" xlink:title=" ">
<polygon fill="white" stroke="black" points="767,-123.5 767,-142.5 882,-142.5 882,-123.5 767,-123.5"/>
<text text-anchor="middle" x="824.5" y="-130.5" font-family="Helvetica,sans-Serif" font-size="10.00">Marmot/MarmotMath.h</text>
</a>
</g>
</g>
<!-- Node1&#45;&gt;Node18 -->
<g id="edge30" class="edge">
<title>Node1&#45;&gt;Node18</title>
<path fill="none" stroke="midnightblue" d="M570.53,-314.23C650.29,-310.1 773.68,-298.5 805.5,-266 835.11,-235.76 832.12,-181.39 827.99,-152.78"/>
<polygon fill="midnightblue" stroke="midnightblue" points="831.38,-151.85 826.3,-142.55 824.48,-152.99 831.38,-151.85"/>
</g>
<!-- Node25 -->
<g id="node25" class="node">
<title>Node25</title>
<g id="a_node25"><a xlink:href="MarmotUtility_8h.html" target="_top" xlink:title=" ">
<polygon fill="white" stroke="black" points="678.5,-246.5 678.5,-265.5 796.5,-265.5 796.5,-246.5 678.5,-246.5"/>
<text text-anchor="middle" x="737.5" y="-253.5" font-family="Helvetica,sans-Serif" font-size="10.00">Marmot/MarmotUtility.h</text>
</a>
</g>
</g>
<!-- Node1&#45;&gt;Node25 -->
<g id="edge32" class="edge">
<title>Node1&#45;&gt;Node25</title>
<path fill="none" stroke="midnightblue" d="M556.37,-302.47C598.32,-291.94 654.99,-277.72 693.69,-268"/>
<polygon fill="midnightblue" stroke="midnightblue" points="694.77,-271.34 703.62,-265.51 693.07,-264.55 694.77,-271.34"/>
</g>
<!-- Node3 -->
<g id="node3" class="node">
<title>Node3</title>
<g id="a_node3"><a xlink:href="MarmotMaterialHypoElastic_8h.html" target="_top" xlink:title=" ">
<polygon fill="white" stroke="black" points="25,-179.5 25,-209.5 168,-209.5 168,-179.5 25,-179.5"/>
<text text-anchor="start" x="33" y="-197.5" font-family="Helvetica,sans-Serif" font-size="10.00">Marmot/MarmotMaterialHypo</text>
<text text-anchor="middle" x="96.5" y="-186.5" font-family="Helvetica,sans-Serif" font-size="10.00">Elastic.h</text>
</a>
</g>
</g>
<!-- Node2&#45;&gt;Node3 -->
<g id="edge2" class="edge">
<title>Node2&#45;&gt;Node3</title>
<path fill="none" stroke="midnightblue" d="M243,-246.48C217.89,-237.74 178.14,-223.91 146.38,-212.86"/>
<polygon fill="midnightblue" stroke="midnightblue" points="147.4,-209.5 136.8,-209.52 145.1,-216.11 147.4,-209.5"/>
</g>
<!-- Node7 -->
<g id="node7" class="node">
<title>Node7</title>
<g id="a_node7"><a xlink:title=" ">
<polygon fill="white" stroke="#bfbfbf" points="184,-6 184,-25 225,-25 225,-6 184,-6"/>
<text text-anchor="middle" x="204.5" y="-13" font-family="Helvetica,sans-Serif" font-size="10.00">string</text>
</a>
</g>
</g>
<!-- Node2&#45;&gt;Node7 -->
<g id="edge12" class="edge">
<title>Node2&#45;&gt;Node7</title>
<path fill="none" stroke="midnightblue" d="M265.18,-246.23C256,-211.46 222.03,-82.85 209.33,-34.78"/>
<polygon fill="midnightblue" stroke="midnightblue" points="212.71,-33.87 206.77,-25.1 205.94,-35.66 212.71,-33.87"/>
</g>
<!-- Node2&#45;&gt;Node8 -->
<g id="edge7" class="edge">
<title>Node2&#45;&gt;Node8</title>
<path fill="none" stroke="midnightblue" d="M278.67,-246.27C306.64,-224.55 382.24,-166.64 448.5,-123 465.47,-111.83 485.23,-100.16 500.35,-91.51"/>
<polygon fill="midnightblue" stroke="midnightblue" points="502.13,-94.53 509.1,-86.55 498.67,-88.44 502.13,-94.53"/>
</g>
<!-- Node12 -->
<g id="node12" class="node">
<title>Node12</title>
<g id="a_node12"><a xlink:title=" ">
<polygon fill="white" stroke="#bfbfbf" points="232.5,-67.5 232.5,-86.5 286.5,-86.5 286.5,-67.5 232.5,-67.5"/>
<text text-anchor="middle" x="259.5" y="-74.5" font-family="Helvetica,sans-Serif" font-size="10.00">iostream</text>
</a>
</g>
</g>
<!-- Node2&#45;&gt;Node12 -->
<g id="edge11" class="edge">
<title>Node2&#45;&gt;Node12</title>
<path fill="none" stroke="midnightblue" d="M266.05,-246.4C264.59,-237.37 262.44,-222.73 261.5,-210 258.52,-169.76 258.69,-122.45 259.09,-96.81"/>
<polygon fill="midnightblue" stroke="midnightblue" points="262.59,-96.73 259.28,-86.66 255.6,-96.6 262.59,-96.73"/>
</g>
<!-- Node13 -->
<g id="node13" class="node">
<title>Node13</title>
<g id="a_node13"><a xlink:title=" ">
<polygon fill="white" stroke="#bfbfbf" points="270.5,-185 270.5,-204 314.5,-204 314.5,-185 270.5,-185"/>
<text text-anchor="middle" x="292.5" y="-192" font-family="Helvetica,sans-Serif" font-size="10.00">vector</text>
</a>
</g>
</g>
<!-- Node2&#45;&gt;Node13 -->
<g id="edge13" class="edge">
<title>Node2&#45;&gt;Node13</title>
<path fill="none" stroke="midnightblue" d="M271.08,-246.48C274.68,-237.9 280.35,-224.43 284.94,-213.48"/>
<polygon fill="midnightblue" stroke="midnightblue" points="288.28,-214.58 288.92,-204.01 281.82,-211.87 288.28,-214.58"/>
</g>
<!-- Node4 -->
<g id="node4" class="node">
<title>Node4</title>
<g id="a_node4"><a xlink:href="MarmotMaterialMechanical_8h.html" target="_top" xlink:title=" ">
<polygon fill="white" stroke="black" points="0,-123.5 0,-142.5 177,-142.5 177,-123.5 0,-123.5"/>
<text text-anchor="middle" x="88.5" y="-130.5" font-family="Helvetica,sans-Serif" font-size="10.00">Marmot/MarmotMaterialMechanical.h</text>
</a>
</g>
</g>
<!-- Node3&#45;&gt;Node4 -->
<g id="edge3" class="edge">
<title>Node3&#45;&gt;Node4</title>
<path fill="none" stroke="midnightblue" d="M94.6,-179.4C93.53,-171.38 92.16,-161.23 91,-152.57"/>
<polygon fill="midnightblue" stroke="midnightblue" points="94.47,-152.1 89.66,-142.66 87.53,-153.04 94.47,-152.1"/>
</g>
<!-- Node5 -->
<g id="node5" class="node">
<title>Node5</title>
<g id="a_node5"><a xlink:href="MarmotMaterial_8h.html" target="_top" xlink:title=" ">
<polygon fill="white" stroke="black" points="35.5,-67.5 35.5,-86.5 163.5,-86.5 163.5,-67.5 35.5,-67.5"/>
<text text-anchor="middle" x="99.5" y="-74.5" font-family="Helvetica,sans-Serif" font-size="10.00">Marmot/MarmotMaterial.h</text>
</a>
</g>
</g>
<!-- Node4&#45;&gt;Node5 -->
<g id="edge4" class="edge">
<title>Node4&#45;&gt;Node5</title>
<path fill="none" stroke="midnightblue" d="M90.32,-123.08C91.77,-115.93 93.87,-105.64 95.69,-96.69"/>
<polygon fill="midnightblue" stroke="midnightblue" points="99.15,-97.25 97.72,-86.75 92.29,-95.85 99.15,-97.25"/>
</g>
<!-- Node6 -->
<g id="node6" class="node">
<title>Node6</title>
<g id="a_node6"><a xlink:href="MarmotUtils_8h.html" target="_top" xlink:title=" ">
<polygon fill="white" stroke="black" points="43,-6 43,-25 156,-25 156,-6 43,-6"/>
<text text-anchor="middle" x="99.5" y="-13" font-family="Helvetica,sans-Serif" font-size="10.00">Marmot/MarmotUtils.h</text>
</a>
</g>
</g>
<!-- Node5&#45;&gt;Node6 -->
<g id="edge5" class="edge">
<title>Node5&#45;&gt;Node6</title>
<path fill="none" stroke="midnightblue" d="M99.5,-67.48C99.5,-59.08 99.5,-45.98 99.5,-35.16"/>
<polygon fill="midnightblue" stroke="midnightblue" points="103,-35.01 99.5,-25.01 96,-35.01 103,-35.01"/>
</g>
<!-- Node5&#45;&gt;Node7 -->
<g id="edge6" class="edge">
<title>Node5&#45;&gt;Node7</title>
<path fill="none" stroke="midnightblue" d="M114.54,-67.48C131.78,-57.71 160.24,-41.58 180.53,-30.08"/>
<polygon fill="midnightblue" stroke="midnightblue" points="182.51,-32.98 189.48,-25.01 179.06,-26.89 182.51,-32.98"/>
</g>
<!-- Node9 -->
<g id="node9" class="node">
<title>Node9</title>
<g id="a_node9"><a xlink:title=" ">
<polygon fill="white" stroke="#bfbfbf" points="406.5,-6 406.5,-25 470.5,-25 470.5,-6 406.5,-6"/>
<text text-anchor="middle" x="438.5" y="-13" font-family="Helvetica,sans-Serif" font-size="10.00">Eigen/Core</text>
</a>
</g>
</g>
<!-- Node8&#45;&gt;Node9 -->
<g id="edge8" class="edge">
<title>Node8&#45;&gt;Node9</title>
<path fill="none" stroke="midnightblue" d="M512.18,-67.48C498.38,-57.93 475.8,-42.31 459.27,-30.87"/>
<polygon fill="midnightblue" stroke="midnightblue" points="461.01,-27.82 450.8,-25.01 457.03,-33.58 461.01,-27.82"/>
</g>
<!-- Node10 -->
<g id="node10" class="node">
<title>Node10</title>
<g id="a_node10"><a xlink:title=" ">
<polygon fill="white" stroke="#bfbfbf" points="489,-6 489,-25 560,-25 560,-6 489,-6"/>
<text text-anchor="middle" x="524.5" y="-13" font-family="Helvetica,sans-Serif" font-size="10.00">Eigen/Dense</text>
</a>
</g>
</g>
<!-- Node8&#45;&gt;Node10 -->
<g id="edge9" class="edge">
<title>Node8&#45;&gt;Node10</title>
<path fill="none" stroke="midnightblue" d="M524.5,-67.48C524.5,-59.08 524.5,-45.98 524.5,-35.16"/>
<polygon fill="midnightblue" stroke="midnightblue" points="528,-35.01 524.5,-25.01 521,-35.01 528,-35.01"/>
</g>
<!-- Node11 -->
<g id="node11" class="node">
<title>Node11</title>
<g id="a_node11"><a xlink:title=" ">
<polygon fill="white" stroke="#bfbfbf" points="578,-0.5 578,-30.5 709,-30.5 709,-0.5 578,-0.5"/>
<text text-anchor="start" x="586" y="-18.5" font-family="Helvetica,sans-Serif" font-size="10.00">unsupported/Eigen/CXX11</text>
<text text-anchor="middle" x="643.5" y="-7.5" font-family="Helvetica,sans-Serif" font-size="10.00">/Tensor</text>
</a>
</g>
</g>
<!-- Node8&#45;&gt;Node11 -->
<g id="edge10" class="edge">
<title>Node8&#45;&gt;Node11</title>
<path fill="none" stroke="midnightblue" d="M541.55,-67.48C558.42,-59.04 584.79,-45.86 606.48,-35.01"/>
<polygon fill="midnightblue" stroke="midnightblue" points="608.08,-38.13 615.45,-30.52 604.94,-31.86 608.08,-38.13"/>
</g>
<!-- Node14&#45;&gt;Node15 -->
<g id="edge15" class="edge">
<title>Node14&#45;&gt;Node15</title>
<path fill="none" stroke="midnightblue" d="M587.91,-246.48C581.01,-237.55 570,-223.31 561.37,-212.14"/>
<polygon fill="midnightblue" stroke="midnightblue" points="563.96,-209.78 555.08,-204.01 558.43,-214.06 563.96,-209.78"/>
</g>
<!-- Node15&#45;&gt;Node8 -->
<g id="edge28" class="edge">
<title>Node15&#45;&gt;Node8</title>
<path fill="none" stroke="midnightblue" d="M546.7,-184.82C542.82,-166.17 533.63,-121.94 528.37,-96.63"/>
<polygon fill="midnightblue" stroke="midnightblue" points="531.79,-95.86 526.32,-86.78 524.93,-97.28 531.79,-95.86"/>
</g>
<!-- Node15&#45;&gt;Node16 -->
<g id="edge16" class="edge">
<title>Node15&#45;&gt;Node16</title>
<path fill="none" stroke="midnightblue" d="M517.7,-184.98C479.94,-174.53 415.84,-156.79 374.09,-145.23"/>
<polygon fill="midnightblue" stroke="midnightblue" points="374.82,-141.8 364.25,-142.51 372.95,-148.55 374.82,-141.8"/>
</g>
<!-- Node15&#45;&gt;Node18 -->
<g id="edge20" class="edge">
<title>Node15&#45;&gt;Node18</title>
<path fill="none" stroke="midnightblue" d="M588.04,-184.98C637.33,-174.35 721.59,-156.18 775.09,-144.65"/>
<polygon fill="midnightblue" stroke="midnightblue" points="775.99,-148.04 785.03,-142.51 774.52,-141.2 775.99,-148.04"/>
</g>
<!-- Node16&#45;&gt;Node7 -->
<g id="edge19" class="edge">
<title>Node16&#45;&gt;Node7</title>
<path fill="none" stroke="midnightblue" d="M343.37,-123.47C357.16,-110.52 379.05,-85.45 365.5,-67 335.67,-26.38 273.24,-17.55 235.48,-16.13"/>
<polygon fill="midnightblue" stroke="midnightblue" points="235.15,-12.62 225.08,-15.9 235,-19.62 235.15,-12.62"/>
</g>
<!-- Node16&#45;&gt;Node12 -->
<g id="edge17" class="edge">
<title>Node16&#45;&gt;Node12</title>
<path fill="none" stroke="midnightblue" d="M321.61,-123.32C310.35,-115.11 293.21,-102.6 279.79,-92.81"/>
<polygon fill="midnightblue" stroke="midnightblue" points="281.75,-89.9 271.61,-86.83 277.62,-95.56 281.75,-89.9"/>
</g>
<!-- Node17 -->
<g id="node17" class="node">
<title>Node17</title>
<g id="a_node17"><a xlink:title=" ">
<polygon fill="white" stroke="#bfbfbf" points="304.5,-67.5 304.5,-86.5 356.5,-86.5 356.5,-67.5 304.5,-67.5"/>
<text text-anchor="middle" x="330.5" y="-74.5" font-family="Helvetica,sans-Serif" font-size="10.00">sstream</text>
</a>
</g>
</g>
<!-- Node16&#45;&gt;Node17 -->
<g id="edge18" class="edge">
<title>Node16&#45;&gt;Node17</title>
<path fill="none" stroke="midnightblue" d="M333,-123.08C332.61,-116.01 332.05,-105.86 331.55,-96.99"/>
<polygon fill="midnightblue" stroke="midnightblue" points="335.04,-96.54 330.99,-86.75 328.05,-96.93 335.04,-96.54"/>
</g>
<!-- Node18&#45;&gt;Node8 -->
<g id="edge23" class="edge">
<title>Node18&#45;&gt;Node8</title>
<path fill="none" stroke="midnightblue" d="M776.96,-123.44C723.97,-113.9 638.3,-98.48 581.68,-88.29"/>
<polygon fill="midnightblue" stroke="midnightblue" points="582.28,-84.84 571.81,-86.52 581.04,-91.73 582.28,-84.84"/>
</g>
<!-- Node19 -->
<g id="node19" class="node">
<title>Node19</title>
<g id="a_node19"><a xlink:href="MarmotConstants_8h.html" target="_top" xlink:title=" ">
<polygon fill="white" stroke="black" points="893,-67.5 893,-86.5 1030,-86.5 1030,-67.5 893,-67.5"/>
<text text-anchor="middle" x="961.5" y="-74.5" font-family="Helvetica,sans-Serif" font-size="10.00">Marmot/MarmotConstants.h</text>
</a>
</g>
</g>
<!-- Node18&#45;&gt;Node19 -->
<g id="edge21" class="edge">
<title>Node18&#45;&gt;Node19</title>
<path fill="none" stroke="midnightblue" d="M846.21,-123.44C868.85,-114.52 904.57,-100.44 930.25,-90.32"/>
<polygon fill="midnightblue" stroke="midnightblue" points="931.87,-93.44 939.89,-86.52 929.31,-86.93 931.87,-93.44"/>
</g>
<!-- Node21 -->
<g id="node21" class="node">
<title>Node21</title>
<g id="a_node21"><a xlink:title=" ">
<polygon fill="white" stroke="#bfbfbf" points="1048.5,-67.5 1048.5,-86.5 1170.5,-86.5 1170.5,-67.5 1048.5,-67.5"/>
<text text-anchor="middle" x="1109.5" y="-74.5" font-family="Helvetica,sans-Serif" font-size="10.00">autodiff/forward/dual.hpp</text>
</a>
</g>
</g>
<!-- Node18&#45;&gt;Node21 -->
<g id="edge24" class="edge">
<title>Node18&#45;&gt;Node21</title>
<path fill="none" stroke="midnightblue" d="M869.66,-123.44C919.79,-113.94 1000.72,-98.61 1054.51,-88.42"/>
<polygon fill="midnightblue" stroke="midnightblue" points="1055.38,-91.82 1064.55,-86.52 1054.08,-84.94 1055.38,-91.82"/>
</g>
<!-- Node22 -->
<g id="node22" class="node">
<title>Node22</title>
<g id="a_node22"><a xlink:title=" ">
<polygon fill="white" stroke="#bfbfbf" points="609.5,-67.5 609.5,-86.5 729.5,-86.5 729.5,-67.5 609.5,-67.5"/>
<text text-anchor="middle" x="669.5" y="-74.5" font-family="Helvetica,sans-Serif" font-size="10.00">autodiff/forward/real.hpp</text>
</a>
</g>
</g>
<!-- Node18&#45;&gt;Node22 -->
<g id="edge25" class="edge">
<title>Node18&#45;&gt;Node22</title>
<path fill="none" stroke="midnightblue" d="M799.94,-123.44C773.98,-114.4 732.83,-100.06 703.7,-89.92"/>
<polygon fill="midnightblue" stroke="midnightblue" points="704.54,-86.5 693.95,-86.52 702.24,-93.11 704.54,-86.5"/>
</g>
<!-- Node23 -->
<g id="node23" class="node">
<title>Node23</title>
<g id="a_node23"><a xlink:title=" ">
<polygon fill="white" stroke="#bfbfbf" points="747.5,-67.5 747.5,-86.5 803.5,-86.5 803.5,-67.5 747.5,-67.5"/>
<text text-anchor="middle" x="775.5" y="-74.5" font-family="Helvetica,sans-Serif" font-size="10.00">algorithm</text>
</a>
</g>
</g>
<!-- Node18&#45;&gt;Node23 -->
<g id="edge26" class="edge">
<title>Node18&#45;&gt;Node23</title>
<path fill="none" stroke="midnightblue" d="M816.41,-123.08C809.34,-115.3 798.91,-103.8 790.35,-94.37"/>
<polygon fill="midnightblue" stroke="midnightblue" points="792.75,-91.8 783.44,-86.75 787.57,-96.51 792.75,-91.8"/>
</g>
<!-- Node24 -->
<g id="node24" class="node">
<title>Node24</title>
<g id="a_node24"><a xlink:title=" ">
<polygon fill="white" stroke="#bfbfbf" points="822,-67.5 822,-86.5 875,-86.5 875,-67.5 822,-67.5"/>
<text text-anchor="middle" x="848.5" y="-74.5" font-family="Helvetica,sans-Serif" font-size="10.00">complex</text>
</a>
</g>
</g>
<!-- Node18&#45;&gt;Node24 -->
<g id="edge27" class="edge">
<title>Node18&#45;&gt;Node24</title>
<path fill="none" stroke="midnightblue" d="M828.46,-123.08C831.71,-115.77 836.42,-105.18 840.45,-96.1"/>
<polygon fill="midnightblue" stroke="midnightblue" points="843.75,-97.31 844.61,-86.75 837.35,-94.47 843.75,-97.31"/>
</g>
<!-- Node20 -->
<g id="node20" class="node">
<title>Node20</title>
<g id="a_node20"><a xlink:title=" ">
<polygon fill="white" stroke="#bfbfbf" points="939.5,-6 939.5,-25 983.5,-25 983.5,-6 939.5,-6"/>
<text text-anchor="middle" x="961.5" y="-13" font-family="Helvetica,sans-Serif" font-size="10.00">cmath</text>
</a>
</g>
</g>
<!-- Node19&#45;&gt;Node20 -->
<g id="edge22" class="edge">
<title>Node19&#45;&gt;Node20</title>
<path fill="none" stroke="midnightblue" d="M961.5,-67.48C961.5,-59.08 961.5,-45.98 961.5,-35.16"/>
<polygon fill="midnightblue" stroke="midnightblue" points="965,-35.01 961.5,-25.01 958,-35.01 965,-35.01"/>
</g>
<!-- Node25&#45;&gt;Node8 -->
<g id="edge33" class="edge">
<title>Node25&#45;&gt;Node8</title>
<path fill="none" stroke="midnightblue" d="M727.23,-246.46C693.57,-218.5 586.31,-129.37 542.95,-93.33"/>
<polygon fill="midnightblue" stroke="midnightblue" points="545.1,-90.57 535.17,-86.87 540.63,-95.95 545.1,-90.57"/>
</g>
</g>
</svg>
        <g id="navigator" transform="translate(0 0)" fill="#404254">
                <rect fill="#f2f5e9" fill-opacity="0.5" stroke="#606060" stroke-width=".5" x="0" y="0" width="60" height="60"/>
                <use id="zoomplus" xlink:href="#zoomPlus" x="17" y="9" onmousedown="handleZoom(evt,'in')"/>
                <use id="zoomminus" xlink:href="#zoomMin" x="42" y="9" onmousedown="handleZoom(evt,'out')"/>
                <use id="reset" xlink:href="#resetDef" x="30" y="36" onmousedown="handleReset()"/>
                <g id="arrowUp" xlink:href="#dirArrow" transform="translate(30 24)" onmousedown="handlePan(0,-1)">
                  <use xlink:href="#rim" fill="#404040">
                        <set attributeName="fill" to="#808080" begin="arrowUp.mouseover" end="arrowUp.mouseout"/>
                  </use>
                  <path fill="none" stroke="white" stroke-width="1.5" d="M0,-3.0v7 M-2.5,-0.5L0,-3.0L2.5,-0.5"/>
                </g>
                <g id="arrowRight" xlink:href="#dirArrow" transform="rotate(90) translate(36 -43)" onmousedown="handlePan(1,0)">
                  <use xlink:href="#rim" fill="#404040">
                        <set attributeName="fill" to="#808080" begin="arrowRight.mouseover" end="arrowRight.mouseout"/>
                  </use>
                  <path fill="none" stroke="white" stroke-width="1.5" d="M0,-3.0v7 M-2.5,-0.5L0,-3.0L2.5,-0.5"/>
                </g>
                <g id="arrowDown" xlink:href="#dirArrow" transform="rotate(180) translate(-30 -48)" onmousedown="handlePan(0,1)">
                  <use xlink:href="#rim" fill="#404040">
                        <set attributeName="fill" to="#808080" begin="arrowDown.mouseover" end="arrowDown.mouseout"/>
                  </use>
                  <path fill="none" stroke="white" stroke-width="1.5" d="M0,-3.0v7 M-2.5,-0.5L0,-3.0L2.5,-0.5"/>
                </g>
                <g id="arrowLeft" xlink:href="#dirArrow" transform="rotate(270) translate(-36 17)" onmousedown="handlePan(-1,0)">
                  <use xlink:href="#rim" fill="#404040">
                        <set attributeName="fill" to="#808080" begin="arrowLeft.mouseover" end="arrowLeft.mouseout"/>
                  </use>
                  <path fill="none" stroke="white" stroke-width="1.5" d="M0,-3.0v7 M-2.5,-0.5L0,-3.0L2.5,-0.5"/>
                </g>
        </g>
        <svg viewBox="0 0 15 15" width="100%" height="30px" preserveAspectRatio="xMaxYMin meet">
         <g id="arrow_out" transform="scale(0.3 0.3)">
          <a xlink:href="LinearElastic_8cpp__incl_org.svg" target="_base">
           <rect id="button" ry="5" rx="5" y="6" x="6" height="38" width="38"
                fill="#f2f5e9" fill-opacity="0.5" stroke="#606060" stroke-width="1.0"/>
           <path id="arrow"
             d="M 11.500037,31.436501 C 11.940474,20.09759 22.043105,11.32322 32.158766,21.979434 L 37.068811,17.246167 C 37.068811,17.246167 37.088388,32 37.088388,32 L 22.160133,31.978069 C 22.160133,31.978069 26.997745,27.140456 26.997745,27.140456 C 18.528582,18.264221 13.291696,25.230495 11.500037,31.436501 z"
             style="fill:#404040;"/>
          </a>
         </g>
        </svg>
</svg>
