<?xml version="1.0" encoding="UTF-8" standalone="no"?>
<!DOCTYPE svg PUBLIC "-//W3C//DTD SVG 1.1//EN"
 "http://www.w3.org/Graphics/SVG/1.1/DTD/svg11.dtd">
<!-- Generated by graphviz version 2.46.0 (20210122.1329)
 -->
<!-- Title: modules/materials/LinearElastic/src/LinearElastic.cpp Pages: 1 -->
<svg width="723pt" height="341pt"
 viewBox="0.00 0.00 723.00 341.00" xmlns="http://www.w3.org/2000/svg" xmlns:xlink="http://www.w3.org/1999/xlink">
<g id="graph0" class="graph" transform="scale(1 1) rotate(0) translate(4 337)">
<title>modules/materials/LinearElastic/src/LinearElastic.cpp</title>
<polygon fill="white" stroke="transparent" points="-4,4 -4,-337 719,-337 719,4 -4,4"/>
<!-- Node1 -->
<g id="node1" class="node">
<title>Node1</title>
<g id="a_node1"><a xlink:title=" ">
<polygon fill="#bfbfbf" stroke="black" points="337.5,-302.5 337.5,-332.5 477.5,-332.5 477.5,-302.5 337.5,-302.5"/>
<text text-anchor="start" x="345.5" y="-320.5" font-family="Helvetica,sans-Serif" font-size="10.00">modules/materials/Linear</text>
<text text-anchor="middle" x="407.5" y="-309.5" font-family="Helvetica,sans-Serif" font-size="10.00">Elastic/src/LinearElastic.cpp</text>
</a>
</g>
</g>
<!-- Node2 -->
<g id="node2" class="node">
<title>Node2</title>
<g id="a_node2"><a xlink:href="LinearElastic_8h.html" target="_top" xlink:title=" ">
<polygon fill="white" stroke="black" points="165.5,-246.5 165.5,-265.5 281.5,-265.5 281.5,-246.5 165.5,-246.5"/>
<text text-anchor="middle" x="223.5" y="-253.5" font-family="Helvetica,sans-Serif" font-size="10.00">Marmot/LinearElastic.h</text>
</a>
</g>
</g>
<!-- Node1&#45;&gt;Node2 -->
<g id="edge1" class="edge">
<title>Node1&#45;&gt;Node2</title>
<path fill="none" stroke="midnightblue" d="M363.89,-302.4C332.1,-292.12 289.53,-278.35 259.63,-268.68"/>
<polygon fill="midnightblue" stroke="midnightblue" points="260.6,-265.32 250.01,-265.57 258.44,-271.98 260.6,-265.32"/>
</g>
<!-- Node9 -->
<g id="node9" class="node">
<title>Node9</title>
<g id="a_node9"><a xlink:href="MarmotUtility_8h.html" target="_top" xlink:title=" ">
<polygon fill="white" stroke="black" points="521.5,-246.5 521.5,-265.5 639.5,-265.5 639.5,-246.5 521.5,-246.5"/>
<text text-anchor="middle" x="580.5" y="-253.5" font-family="Helvetica,sans-Serif" font-size="10.00">Marmot/MarmotUtility.h</text>
</a>
</g>
</g>
<!-- Node1&#45;&gt;Node9 -->
<g id="edge9" class="edge">
<title>Node1&#45;&gt;Node9</title>
<path fill="none" stroke="midnightblue" d="M448.5,-302.4C478.13,-292.21 517.73,-278.59 545.8,-268.93"/>
<polygon fill="midnightblue" stroke="midnightblue" points="547.26,-272.13 555.58,-265.57 544.98,-265.51 547.26,-272.13"/>
</g>
<!-- Node10 -->
<g id="node10" class="node">
<title>Node10</title>
<g id="a_node10"><a xlink:href="MarmotTypedefs_8h.html" target="_top" xlink:title=" ">
<polygon fill="white" stroke="black" points="446,-185 446,-204 579,-204 579,-185 446,-185"/>
<text text-anchor="middle" x="512.5" y="-192" font-family="Helvetica,sans-Serif" font-size="10.00">Marmot/MarmotTypedefs.h</text>
</a>
</g>
</g>
<!-- Node1&#45;&gt;Node10 -->
<g id="edge18" class="edge">
<title>Node1&#45;&gt;Node10</title>
<path fill="none" stroke="midnightblue" d="M430.93,-302.49C444.81,-293.36 462.07,-280.48 474.5,-266 488.19,-250.06 498.96,-228.37 505.49,-213.28"/>
<polygon fill="midnightblue" stroke="midnightblue" points="508.72,-214.61 509.31,-204.03 502.25,-211.93 508.72,-214.61"/>
</g>
<!-- Node14 -->
<g id="node14" class="node">
<title>Node14</title>
<g id="a_node14"><a xlink:href="MarmotJournal_8h.html" target="_top" xlink:title=" ">
<polygon fill="white" stroke="black" points="271,-185 271,-204 396,-204 396,-185 271,-185"/>
<text text-anchor="middle" x="333.5" y="-192" font-family="Helvetica,sans-Serif" font-size="10.00">Marmot/MarmotJournal.h</text>
</a>
</g>
</g>
<!-- Node1&#45;&gt;Node14 -->
<g id="edge14" class="edge">
<title>Node1&#45;&gt;Node14</title>
<path fill="none" stroke="midnightblue" d="M379.14,-302.42C365.09,-293.89 349.28,-281.62 340.5,-266 331.67,-250.28 330.65,-229.44 331.4,-214.5"/>
<polygon fill="midnightblue" stroke="midnightblue" points="334.9,-214.66 332.22,-204.41 327.92,-214.1 334.9,-214.66"/>
</g>
<!-- Node16 -->
<g id="node16" class="node">
<title>Node16</title>
<g id="a_node16"><a xlink:href="MarmotVoigt_8h.html" target="_top" xlink:title=" ">
<polygon fill="white" stroke="black" points="349.5,-246.5 349.5,-265.5 465.5,-265.5 465.5,-246.5 349.5,-246.5"/>
<text text-anchor="middle" x="407.5" y="-253.5" font-family="Helvetica,sans-Serif" font-size="10.00">Marmot/MarmotVoigt.h</text>
</a>
</g>
</g>
<!-- Node1&#45;&gt;Node16 -->
<g id="edge19" class="edge">
<title>Node1&#45;&gt;Node16</title>
<path fill="none" stroke="midnightblue" d="M407.5,-302.4C407.5,-294.47 407.5,-284.46 407.5,-275.86"/>
<polygon fill="midnightblue" stroke="midnightblue" points="411,-275.66 407.5,-265.66 404,-275.66 411,-275.66"/>
</g>
<!-- Node3 -->
<g id="node3" class="node">
<title>Node3</title>
<g id="a_node3"><a xlink:href="MarmotMaterialHypoElastic_8h.html" target="_top" xlink:title=" ">
<polygon fill="white" stroke="black" points="25,-179.5 25,-209.5 168,-209.5 168,-179.5 25,-179.5"/>
<text text-anchor="start" x="33" y="-197.5" font-family="Helvetica,sans-Serif" font-size="10.00">Marmot/MarmotMaterialHypo</text>
<text text-anchor="middle" x="96.5" y="-186.5" font-family="Helvetica,sans-Serif" font-size="10.00">Elastic.h</text>
</a>
</g>
</g>
<!-- Node2&#45;&gt;Node3 -->
<g id="edge2" class="edge">
<title>Node2&#45;&gt;Node3</title>
<path fill="none" stroke="midnightblue" d="M205.3,-246.48C187.22,-238 158.91,-224.74 135.69,-213.86"/>
<polygon fill="midnightblue" stroke="midnightblue" points="136.97,-210.6 126.43,-209.52 134,-216.93 136.97,-210.6"/>
</g>
<!-- Node7 -->
<g id="node7" class="node">
<title>Node7</title>
<g id="a_node7"><a xlink:title=" ">
<polygon fill="white" stroke="#bfbfbf" points="184,-0.5 184,-19.5 225,-19.5 225,-0.5 184,-0.5"/>
<text text-anchor="middle" x="204.5" y="-7.5" font-family="Helvetica,sans-Serif" font-size="10.00">string</text>
</a>
</g>
</g>
<!-- Node2&#45;&gt;Node7 -->
<g id="edge8" class="edge">
<title>Node2&#45;&gt;Node7</title>
<path fill="none" stroke="midnightblue" d="M222.82,-246.32C220.09,-211.18 209.8,-79.12 205.96,-29.76"/>
<polygon fill="midnightblue" stroke="midnightblue" points="209.43,-29.28 205.17,-19.58 202.46,-29.82 209.43,-29.28"/>
</g>
<!-- Node8 -->
<g id="node8" class="node">
<title>Node8</title>
<g id="a_node8"><a xlink:title=" ">
<polygon fill="white" stroke="#bfbfbf" points="232.5,-118 232.5,-137 286.5,-137 286.5,-118 232.5,-118"/>
<text text-anchor="middle" x="259.5" y="-125" font-family="Helvetica,sans-Serif" font-size="10.00">iostream</text>
</a>
</g>
</g>
<!-- Node2&#45;&gt;Node8 -->
<g id="edge7" class="edge">
<title>Node2&#45;&gt;Node8</title>
<path fill="none" stroke="midnightblue" d="M225.97,-246.31C231.78,-225.9 246.38,-174.6 254.26,-146.91"/>
<polygon fill="midnightblue" stroke="midnightblue" points="257.64,-147.83 257.01,-137.26 250.9,-145.92 257.64,-147.83"/>
</g>
<!-- Node4 -->
<g id="node4" class="node">
<title>Node4</title>
<g id="a_node4"><a xlink:href="MarmotMaterialMechanical_8h.html" target="_top" xlink:title=" ">
<polygon fill="white" stroke="black" points="0,-118 0,-137 177,-137 177,-118 0,-118"/>
<text text-anchor="middle" x="88.5" y="-125" font-family="Helvetica,sans-Serif" font-size="10.00">Marmot/MarmotMaterialMechanical.h</text>
</a>
</g>
</g>
<!-- Node3&#45;&gt;Node4 -->
<g id="edge3" class="edge">
<title>Node3&#45;&gt;Node4</title>
<path fill="none" stroke="midnightblue" d="M94.76,-179.4C93.6,-169.96 92.06,-157.45 90.8,-147.19"/>
<polygon fill="midnightblue" stroke="midnightblue" points="94.27,-146.69 89.57,-137.19 87.32,-147.55 94.27,-146.69"/>
</g>
<!-- Node5 -->
<g id="node5" class="node">
<title>Node5</title>
<g id="a_node5"><a xlink:href="MarmotMaterial_8h.html" target="_top" xlink:title=" ">
<polygon fill="white" stroke="black" points="35.5,-56.5 35.5,-75.5 163.5,-75.5 163.5,-56.5 35.5,-56.5"/>
<text text-anchor="middle" x="99.5" y="-63.5" font-family="Helvetica,sans-Serif" font-size="10.00">Marmot/MarmotMaterial.h</text>
</a>
</g>
</g>
<!-- Node4&#45;&gt;Node5 -->
<g id="edge4" class="edge">
<title>Node4&#45;&gt;Node5</title>
<path fill="none" stroke="midnightblue" d="M90.08,-117.98C91.63,-109.58 94.05,-96.48 96.05,-85.66"/>
<polygon fill="midnightblue" stroke="midnightblue" points="99.55,-85.98 97.93,-75.51 92.67,-84.71 99.55,-85.98"/>
</g>
<!-- Node6 -->
<g id="node6" class="node">
<title>Node6</title>
<g id="a_node6"><a xlink:href="MarmotUtils_8h.html" target="_top" xlink:title=" ">
<polygon fill="white" stroke="black" points="43,-0.5 43,-19.5 156,-19.5 156,-0.5 43,-0.5"/>
<text text-anchor="middle" x="99.5" y="-7.5" font-family="Helvetica,sans-Serif" font-size="10.00">Marmot/MarmotUtils.h</text>
</a>
</g>
</g>
<!-- Node5&#45;&gt;Node6 -->
<g id="edge5" class="edge">
<title>Node5&#45;&gt;Node6</title>
<path fill="none" stroke="midnightblue" d="M99.5,-56.08C99.5,-49.01 99.5,-38.86 99.5,-29.99"/>
<polygon fill="midnightblue" stroke="midnightblue" points="103,-29.75 99.5,-19.75 96,-29.75 103,-29.75"/>
</g>
<!-- Node5&#45;&gt;Node7 -->
<g id="edge6" class="edge">
<title>Node5&#45;&gt;Node7</title>
<path fill="none" stroke="midnightblue" d="M116.37,-56.32C133.21,-47.66 159.31,-34.24 178.74,-24.25"/>
<polygon fill="midnightblue" stroke="midnightblue" points="180.38,-27.34 187.67,-19.65 177.18,-21.12 180.38,-27.34"/>
</g>
<!-- Node9&#45;&gt;Node10 -->
<g id="edge10" class="edge">
<title>Node9&#45;&gt;Node10</title>
<path fill="none" stroke="midnightblue" d="M570.76,-246.48C560.15,-237.2 542.98,-222.17 530.02,-210.83"/>
<polygon fill="midnightblue" stroke="midnightblue" points="532.06,-207.96 522.22,-204.01 527.45,-213.23 532.06,-207.96"/>
</g>
<!-- Node11 -->
<g id="node11" class="node">
<title>Node11</title>
<g id="a_node11"><a xlink:title=" ">
<polygon fill="white" stroke="#bfbfbf" points="412.5,-118 412.5,-137 476.5,-137 476.5,-118 412.5,-118"/>
<text text-anchor="middle" x="444.5" y="-125" font-family="Helvetica,sans-Serif" font-size="10.00">Eigen/Core</text>
</a>
</g>
</g>
<!-- Node10&#45;&gt;Node11 -->
<g id="edge11" class="edge">
<title>Node10&#45;&gt;Node11</title>
<path fill="none" stroke="midnightblue" d="M503.33,-184.73C492.52,-174.4 474.35,-157.04 461.06,-144.33"/>
<polygon fill="midnightblue" stroke="midnightblue" points="463.17,-141.51 453.53,-137.13 458.34,-146.57 463.17,-141.51"/>
</g>
<!-- Node12 -->
<g id="node12" class="node">
<title>Node12</title>
<g id="a_node12"><a xlink:title=" ">
<polygon fill="white" stroke="#bfbfbf" points="495,-118 495,-137 566,-137 566,-118 495,-118"/>
<text text-anchor="middle" x="530.5" y="-125" font-family="Helvetica,sans-Serif" font-size="10.00">Eigen/Dense</text>
</a>
</g>
</g>
<!-- Node10&#45;&gt;Node12 -->
<g id="edge12" class="edge">
<title>Node10&#45;&gt;Node12</title>
<path fill="none" stroke="midnightblue" d="M514.93,-184.73C517.6,-175.09 521.97,-159.3 525.4,-146.91"/>
<polygon fill="midnightblue" stroke="midnightblue" points="528.82,-147.7 528.11,-137.13 522.07,-145.83 528.82,-147.7"/>
</g>
<!-- Node13 -->
<g id="node13" class="node">
<title>Node13</title>
<g id="a_node13"><a xlink:title=" ">
<polygon fill="white" stroke="#bfbfbf" points="584,-112.5 584,-142.5 715,-142.5 715,-112.5 584,-112.5"/>
<text text-anchor="start" x="592" y="-130.5" font-family="Helvetica,sans-Serif" font-size="10.00">unsupported/Eigen/CXX11</text>
<text text-anchor="middle" x="649.5" y="-119.5" font-family="Helvetica,sans-Serif" font-size="10.00">/Tensor</text>
</a>
</g>
</g>
<!-- Node10&#45;&gt;Node13 -->
<g id="edge13" class="edge">
<title>Node10&#45;&gt;Node13</title>
<path fill="none" stroke="midnightblue" d="M530.69,-184.87C550.98,-175.24 584.4,-159.39 610.63,-146.94"/>
<polygon fill="midnightblue" stroke="midnightblue" points="612.4,-149.98 619.93,-142.53 609.4,-143.65 612.4,-149.98"/>
</g>
<!-- Node14&#45;&gt;Node7 -->
<g id="edge17" class="edge">
<title>Node14&#45;&gt;Node7</title>
<path fill="none" stroke="midnightblue" d="M330.49,-184.97C324.88,-169.65 311.88,-136.73 295.5,-112 273.51,-78.79 240.97,-45.48 221.34,-26.63"/>
<polygon fill="midnightblue" stroke="midnightblue" points="223.7,-24.03 214.03,-19.7 218.88,-29.11 223.7,-24.03"/>
</g>
<!-- Node14&#45;&gt;Node8 -->
<g id="edge15" class="edge">
<title>Node14&#45;&gt;Node8</title>
<path fill="none" stroke="midnightblue" d="M323.52,-184.73C311.65,-174.31 291.61,-156.71 277.12,-143.97"/>
<polygon fill="midnightblue" stroke="midnightblue" points="279.14,-141.1 269.32,-137.13 274.53,-146.36 279.14,-141.1"/>
</g>
<!-- Node15 -->
<g id="node15" class="node">
<title>Node15</title>
<g id="a_node15"><a xlink:title=" ">
<polygon fill="white" stroke="#bfbfbf" points="342.5,-118 342.5,-137 394.5,-137 394.5,-118 342.5,-118"/>
<text text-anchor="middle" x="368.5" y="-125" font-family="Helvetica,sans-Serif" font-size="10.00">sstream</text>
</a>
</g>
</g>
<!-- Node14&#45;&gt;Node15 -->
<g id="edge16" class="edge">
<title>Node14&#45;&gt;Node15</title>
<path fill="none" stroke="midnightblue" d="M338.22,-184.73C343.52,-174.89 352.26,-158.66 358.99,-146.16"/>
<polygon fill="midnightblue" stroke="midnightblue" points="362.2,-147.59 363.85,-137.13 356.03,-144.27 362.2,-147.59"/>
</g>
<!-- Node16&#45;&gt;Node10 -->
<g id="edge21" class="edge">
<title>Node16&#45;&gt;Node10</title>
<path fill="none" stroke="midnightblue" d="M422.54,-246.48C439.78,-236.71 468.24,-220.58 488.53,-209.08"/>
<polygon fill="midnightblue" stroke="midnightblue" points="490.51,-211.98 497.48,-204.01 487.06,-205.89 490.51,-211.98"/>
</g>
<!-- Node16&#45;&gt;Node14 -->
<g id="edge20" class="edge">
<title>Node16&#45;&gt;Node14</title>
<path fill="none" stroke="midnightblue" d="M396.9,-246.48C385.25,-237.11 366.31,-221.88 352.17,-210.51"/>
<polygon fill="midnightblue" stroke="midnightblue" points="354.07,-207.55 344.08,-204.01 349.68,-213 354.07,-207.55"/>
</g>
</g>
</svg>
