<?xml version="1.0" encoding="UTF-8" standalone="no"?>
<!DOCTYPE svg PUBLIC "-//W3C//DTD SVG 1.1//EN"
 "http://www.w3.org/Graphics/SVG/1.1/DTD/svg11.dtd">
<!-- Generated by graphviz version 2.44.0 ()
 -->
<!-- Title: modules/core/MarmotMathCore/include/Marmot/MarmotFastorTensorBasics.h Pages: 1 -->
<!--zoomable 284 -->
<svg id="main" version="1.1" xmlns="http://www.w3.org/2000/svg" xmlns:xlink="http://www.w3.org/1999/xlink" xml:space="preserve" onload="init(evt)">
<style type="text/css"><![CDATA[
.edge:hover path { stroke: red; }
.edge:hover polygon { stroke: red; fill: red; }
]]></style>
<script type="text/javascript"><![CDATA[
var edges = document.getElementsByTagName('g');
if (edges && edges.length) {
  for (var i=0;i<edges.length;i++) {
    if (edges[i].id.substr(0,4)=='edge') {
      edges[i].setAttribute('class','edge');
    }
  }
}
]]></script>
        <defs>
                <circle id="rim" cx="0" cy="0" r="7"/>
                <circle id="rim2" cx="0" cy="0" r="3.5"/>
                <g id="zoomPlus">
                        <use xlink:href="#rim" fill="#404040">
                                <set attributeName="fill" to="#808080" begin="zoomplus.mouseover" end="zoomplus.mouseout"/>
                        </use>
                        <path d="M-4,0h8M0,-4v8" fill="none" stroke="white" stroke-width="1.5" pointer-events="none"/>
                </g>
                <g id="zoomMin">
                        <use xlink:href="#rim" fill="#404040">
                                <set attributeName="fill" to="#808080" begin="zoomminus.mouseover" end="zoomminus.mouseout"/>
                        </use>
                        <path d="M-4,0h8" fill="none" stroke="white" stroke-width="1.5" pointer-events="none"/>
                </g>
                <g id="dirArrow">
                        <path fill="none" stroke="white" stroke-width="1.5" d="M0,-3.0v7 M-2.5,-0.5L0,-3.0L2.5,-0.5"/>
                </g>
               <g id="resetDef">
                       <use xlink:href="#rim2" fill="#404040">
                               <set attributeName="fill" to="#808080" begin="reset.mouseover" end="reset.mouseout"/>
                       </use>
               </g>
        </defs>

<script type="text/javascript">
var viewWidth = 1380;
var viewHeight = 284;
var sectionId = 'dynsection-1';
</script>
<script xlink:href="svgpan.js"/>
<svg id="graph" class="graph">
<g id="viewport">
<title>modules/core/MarmotMathCore/include/Marmot/MarmotFastorTensorBasics.h</title>
<polygon fill="white" stroke="transparent" points="-4,4 -4,-280 1376,-280 1376,4 -4,4"/>
<!-- Node1 -->
<g id="node1" class="node">
<title>Node1</title>
<g id="a_node1"><a xlink:title=" ">
<polygon fill="#bfbfbf" stroke="black" points="643.5,-234.5 643.5,-275.5 823.5,-275.5 823.5,-234.5 643.5,-234.5"/>
<text text-anchor="start" x="651.5" y="-263.5" font-family="Helvetica,sans-Serif" font-size="10.00">modules/core/MarmotMathCore</text>
<text text-anchor="start" x="651.5" y="-252.5" font-family="Helvetica,sans-Serif" font-size="10.00">/include/Marmot/MarmotFastorTensor</text>
<text text-anchor="middle" x="733.5" y="-241.5" font-family="Helvetica,sans-Serif" font-size="10.00">Basics.h</text>
</a>
</g>
</g>
<!-- Node2 -->
<g id="node2" class="node">
<title>Node2</title>
<g id="a_node2"><a xlink:href="MarmotDeformationMeasures_8h.html" target="_top" xlink:title=" ">
<polygon fill="white" stroke="black" points="241,-156.5 241,-197.5 432,-197.5 432,-156.5 241,-156.5"/>
<text text-anchor="start" x="249" y="-185.5" font-family="Helvetica,sans-Serif" font-size="10.00">modules/core/MarmotFinite</text>
<text text-anchor="start" x="249" y="-174.5" font-family="Helvetica,sans-Serif" font-size="10.00">StrainMechanicsCore/include</text>
<text text-anchor="middle" x="336.5" y="-163.5" font-family="Helvetica,sans-Serif" font-size="10.00">/Marmot/MarmotDeformationMeasures.h</text>
</a>
</g>
</g>
<!-- Node1&#45;&gt;Node2 -->
<g id="edge1" class="edge">
<title>Node1&#45;&gt;Node2</title>
<path fill="none" stroke="midnightblue" d="M633.27,-234.81C571.58,-223 492.94,-207.95 432.11,-196.3"/>
<polygon fill="midnightblue" stroke="midnightblue" points="632.93,-238.31 643.41,-236.75 634.25,-231.44 632.93,-238.31"/>
</g>
<!-- Node3 -->
<g id="node3" class="node">
<title>Node3</title>
<g id="a_node3"><a xlink:href="CompressibleNeoHooke_8cpp.html" target="_top" xlink:title=" ">
<polygon fill="white" stroke="black" points="555.5,-84 555.5,-114 761.5,-114 761.5,-84 555.5,-84"/>
<text text-anchor="start" x="563.5" y="-102" font-family="Helvetica,sans-Serif" font-size="10.00">modules/materials/Compressible</text>
<text text-anchor="middle" x="658.5" y="-91" font-family="Helvetica,sans-Serif" font-size="10.00">NeoHooke/src/CompressibleNeoHooke.cpp</text>
</a>
</g>
</g>
<!-- Node1&#45;&gt;Node3 -->
<g id="edge22" class="edge">
<title>Node1&#45;&gt;Node3</title>
<path fill="none" stroke="midnightblue" d="M714,-226C708.32,-217.24 702.34,-207.4 697.5,-198 682.68,-169.18 669.71,-133.36 663.11,-114"/>
<polygon fill="midnightblue" stroke="midnightblue" points="711.09,-227.94 719.54,-234.34 716.92,-224.07 711.09,-227.94"/>
</g>
<!-- Node4 -->
<g id="node4" class="node">
<title>Node4</title>
<g id="a_node4"><a xlink:href="FiniteStrainJ2Plasticity_8h.html" target="_top" xlink:title=" ">
<polygon fill="white" stroke="black" points="255,-78.5 255,-119.5 418,-119.5 418,-78.5 255,-78.5"/>
<text text-anchor="start" x="263" y="-107.5" font-family="Helvetica,sans-Serif" font-size="10.00">modules/materials/Finite</text>
<text text-anchor="start" x="263" y="-96.5" font-family="Helvetica,sans-Serif" font-size="10.00">StrainJ2Plasticity/include</text>
<text text-anchor="middle" x="336.5" y="-85.5" font-family="Helvetica,sans-Serif" font-size="10.00">/Marmot/FiniteStrainJ2Plasticity.h</text>
</a>
</g>
</g>
<!-- Node1&#45;&gt;Node4 -->
<g id="edge23" class="edge">
<title>Node1&#45;&gt;Node4</title>
<path fill="none" stroke="midnightblue" d="M633.14,-249.86C494.33,-243.08 257.76,-227.35 231.5,-198 219.05,-184.09 221.9,-172.01 231.5,-156 241.23,-139.79 257.41,-128.01 274.2,-119.57"/>
<polygon fill="midnightblue" stroke="midnightblue" points="633.21,-253.37 643.37,-250.35 633.55,-246.37 633.21,-253.37"/>
</g>
<!-- Node5 -->
<g id="node5" class="node">
<title>Node5</title>
<g id="a_node5"><a xlink:href="FiniteStrainJ2Plasticity_8cpp.html" target="_top" xlink:title=" ">
<polygon fill="white" stroke="black" points="590,-0.5 590,-41.5 727,-41.5 727,-0.5 590,-0.5"/>
<text text-anchor="start" x="598" y="-29.5" font-family="Helvetica,sans-Serif" font-size="10.00">modules/materials/Finite</text>
<text text-anchor="start" x="598" y="-18.5" font-family="Helvetica,sans-Serif" font-size="10.00">StrainJ2Plasticity/src</text>
<text text-anchor="middle" x="658.5" y="-7.5" font-family="Helvetica,sans-Serif" font-size="10.00">/FiniteStrainJ2Plasticity.cpp</text>
</a>
</g>
</g>
<!-- Node1&#45;&gt;Node5 -->
<g id="edge24" class="edge">
<title>Node1&#45;&gt;Node5</title>
<path fill="none" stroke="midnightblue" d="M833.75,-253.04C931.46,-249.73 1070.19,-237.88 1104.5,-198 1116.67,-183.85 1113.11,-172.56 1104.5,-156 1076.7,-102.49 1049.29,-100.87 993.5,-78 905.93,-42.1 796.49,-29.2 727.02,-24.58"/>
<polygon fill="midnightblue" stroke="midnightblue" points="833.43,-249.55 823.54,-253.36 833.65,-256.55 833.43,-249.55"/>
</g>
<!-- Node7 -->
<g id="node7" class="node">
<title>Node7</title>
<g id="a_node7"><a xlink:href="MarmotEnergyDensityFunctions_8h.html" target="_top" xlink:title=" ">
<polygon fill="white" stroke="black" points="450.5,-156.5 450.5,-197.5 650.5,-197.5 650.5,-156.5 450.5,-156.5"/>
<text text-anchor="start" x="458.5" y="-185.5" font-family="Helvetica,sans-Serif" font-size="10.00">modules/core/MarmotFinite</text>
<text text-anchor="start" x="458.5" y="-174.5" font-family="Helvetica,sans-Serif" font-size="10.00">StrainMechanicsCore/include</text>
<text text-anchor="middle" x="550.5" y="-163.5" font-family="Helvetica,sans-Serif" font-size="10.00">/Marmot/MarmotEnergyDensityFunctions.h</text>
</a>
</g>
</g>
<!-- Node1&#45;&gt;Node7 -->
<g id="edge7" class="edge">
<title>Node1&#45;&gt;Node7</title>
<path fill="none" stroke="midnightblue" d="M676.84,-230.47C651.37,-219.89 621.67,-207.56 597.47,-197.51"/>
<polygon fill="midnightblue" stroke="midnightblue" points="675.8,-233.82 686.37,-234.43 678.48,-227.36 675.8,-233.82"/>
</g>
<!-- Node8 -->
<g id="node8" class="node">
<title>Node8</title>
<g id="a_node8"><a xlink:href="MarmotFiniteStrainPlasticity_8h.html" target="_top" xlink:title=" ">
<polygon fill="white" stroke="black" points="0,-156.5 0,-197.5 185,-197.5 185,-156.5 0,-156.5"/>
<text text-anchor="start" x="8" y="-185.5" font-family="Helvetica,sans-Serif" font-size="10.00">modules/core/MarmotFinite</text>
<text text-anchor="start" x="8" y="-174.5" font-family="Helvetica,sans-Serif" font-size="10.00">StrainMechanicsCore/include</text>
<text text-anchor="middle" x="92.5" y="-163.5" font-family="Helvetica,sans-Serif" font-size="10.00">/Marmot/MarmotFiniteStrainPlasticity.h</text>
</a>
</g>
</g>
<!-- Node1&#45;&gt;Node8 -->
<g id="edge11" class="edge">
<title>Node1&#45;&gt;Node8</title>
<path fill="none" stroke="midnightblue" d="M633.08,-245.97C525.33,-236.77 349.34,-220.09 198.5,-198 194.15,-197.36 189.7,-196.67 185.21,-195.95"/>
<polygon fill="midnightblue" stroke="midnightblue" points="633.03,-249.48 643.29,-246.84 633.62,-242.5 633.03,-249.48"/>
</g>
<!-- Node10 -->
<g id="node10" class="node">
<title>Node10</title>
<g id="a_node10"><a xlink:href="MarmotStressMeasures_8h.html" target="_top" xlink:title=" ">
<polygon fill="white" stroke="black" points="706,-156.5 706,-197.5 873,-197.5 873,-156.5 706,-156.5"/>
<text text-anchor="start" x="714" y="-185.5" font-family="Helvetica,sans-Serif" font-size="10.00">modules/core/MarmotFinite</text>
<text text-anchor="start" x="714" y="-174.5" font-family="Helvetica,sans-Serif" font-size="10.00">StrainMechanicsCore/include</text>
<text text-anchor="middle" x="789.5" y="-163.5" font-family="Helvetica,sans-Serif" font-size="10.00">/Marmot/MarmotStressMeasures.h</text>
</a>
</g>
</g>
<!-- Node1&#45;&gt;Node10 -->
<g id="edge14" class="edge">
<title>Node1&#45;&gt;Node10</title>
<path fill="none" stroke="midnightblue" d="M753.88,-226.34C760.93,-216.78 768.67,-206.27 775.13,-197.51"/>
<polygon fill="midnightblue" stroke="midnightblue" points="751.04,-224.3 747.92,-234.43 756.67,-228.45 751.04,-224.3"/>
</g>
<!-- Node11 -->
<g id="node11" class="node">
<title>Node11</title>
<g id="a_node11"><a xlink:href="MarmotAutomaticDifferentiationForFastor_8h.html" target="_top" xlink:title=" ">
<polygon fill="white" stroke="black" points="928,-156.5 928,-197.5 1095,-197.5 1095,-156.5 928,-156.5"/>
<text text-anchor="start" x="936" y="-185.5" font-family="Helvetica,sans-Serif" font-size="10.00">modules/core/MarmotMathCore</text>
<text text-anchor="start" x="936" y="-174.5" font-family="Helvetica,sans-Serif" font-size="10.00">/include/Marmot/MarmotAutomatic</text>
<text text-anchor="middle" x="1011.5" y="-163.5" font-family="Helvetica,sans-Serif" font-size="10.00">DifferentiationForFastor.h</text>
</a>
</g>
</g>
<!-- Node1&#45;&gt;Node11 -->
<g id="edge17" class="edge">
<title>Node1&#45;&gt;Node11</title>
<path fill="none" stroke="midnightblue" d="M814.75,-231.79C854.47,-220.93 901.84,-207.98 940.15,-197.51"/>
<polygon fill="midnightblue" stroke="midnightblue" points="813.81,-228.41 805.09,-234.43 815.66,-235.17 813.81,-228.41"/>
</g>
<!-- Node12 -->
<g id="node12" class="node">
<title>Node12</title>
<g id="a_node12"><a xlink:href="MarmotNumericalDifferentiationForFastor_8h.html" target="_top" xlink:title=" ">
<polygon fill="white" stroke="black" points="817,-78.5 817,-119.5 984,-119.5 984,-78.5 817,-78.5"/>
<text text-anchor="start" x="825" y="-107.5" font-family="Helvetica,sans-Serif" font-size="10.00">modules/core/MarmotMathCore</text>
<text text-anchor="start" x="825" y="-96.5" font-family="Helvetica,sans-Serif" font-size="10.00">/include/Marmot/MarmotNumerical</text>
<text text-anchor="middle" x="900.5" y="-85.5" font-family="Helvetica,sans-Serif" font-size="10.00">DifferentiationForFastor.h</text>
</a>
</g>
</g>
<!-- Node1&#45;&gt;Node12 -->
<g id="edge18" class="edge">
<title>Node1&#45;&gt;Node12</title>
<path fill="none" stroke="midnightblue" d="M832.86,-232.95C851.65,-224.82 869.47,-213.58 882.5,-198 900.92,-175.97 903.02,-141.31 902.22,-119.65"/>
<polygon fill="midnightblue" stroke="midnightblue" points="831.54,-229.7 823.57,-236.69 834.15,-236.2 831.54,-229.7"/>
</g>
<!-- Node13 -->
<g id="node13" class="node">
<title>Node13</title>
<g id="a_node13"><a xlink:href="DisplacementFiniteStrainULElement_8h.html" target="_top" xlink:title=" ">
<polygon fill="white" stroke="black" points="1151,-156.5 1151,-197.5 1372,-197.5 1372,-156.5 1151,-156.5"/>
<text text-anchor="start" x="1159" y="-185.5" font-family="Helvetica,sans-Serif" font-size="10.00">modules/elements/Displacement</text>
<text text-anchor="start" x="1159" y="-174.5" font-family="Helvetica,sans-Serif" font-size="10.00">FiniteStrainULElement/include</text>
<text text-anchor="middle" x="1261.5" y="-163.5" font-family="Helvetica,sans-Serif" font-size="10.00">/Marmot/DisplacementFiniteStrainULElement.h</text>
</a>
</g>
</g>
<!-- Node1&#45;&gt;Node13 -->
<g id="edge20" class="edge">
<title>Node1&#45;&gt;Node13</title>
<path fill="none" stroke="midnightblue" d="M833.87,-240.64C915.46,-229.63 1033.49,-213.4 1136.5,-198 1141.17,-197.3 1145.94,-196.58 1150.76,-195.84"/>
<polygon fill="midnightblue" stroke="midnightblue" points="833.05,-237.21 823.61,-242.02 833.99,-244.15 833.05,-237.21"/>
</g>
<!-- Node2&#45;&gt;Node3 -->
<g id="edge2" class="edge">
<title>Node2&#45;&gt;Node3</title>
<path fill="none" stroke="midnightblue" d="M429.46,-154.06C484.07,-141.17 551.48,-125.26 598.98,-114.05"/>
<polygon fill="midnightblue" stroke="midnightblue" points="428.35,-150.72 419.42,-156.43 429.96,-157.54 428.35,-150.72"/>
</g>
<!-- Node2&#45;&gt;Node4 -->
<g id="edge3" class="edge">
<title>Node2&#45;&gt;Node4</title>
<path fill="none" stroke="midnightblue" d="M336.5,-146.3C336.5,-137.3 336.5,-127.65 336.5,-119.51"/>
<polygon fill="midnightblue" stroke="midnightblue" points="333,-146.43 336.5,-156.43 340,-146.43 333,-146.43"/>
</g>
<!-- Node2&#45;&gt;Node5 -->
<g id="edge6" class="edge">
<title>Node2&#45;&gt;Node5</title>
<path fill="none" stroke="midnightblue" d="M383.69,-151.65C423.21,-131.44 481.22,-102.2 532.5,-78 559.02,-65.48 589.01,-52.12 613.08,-41.59"/>
<polygon fill="midnightblue" stroke="midnightblue" points="381.86,-148.66 374.56,-156.33 385.05,-154.89 381.86,-148.66"/>
</g>
<!-- Node4&#45;&gt;Node5 -->
<g id="edge4" class="edge">
<title>Node4&#45;&gt;Node5</title>
<path fill="none" stroke="midnightblue" d="M427.98,-76.41C479.49,-64.25 542.77,-49.32 589.98,-38.17"/>
<polygon fill="midnightblue" stroke="midnightblue" points="427.1,-73.02 418.17,-78.72 428.71,-79.83 427.1,-73.02"/>
</g>
<!-- Node6 -->
<g id="node6" class="node">
<title>Node6</title>
<g id="a_node6"><a xlink:href="FiniteStrainJ2PlasticityRegistration_8cpp.html" target="_top" xlink:title=" ">
<polygon fill="white" stroke="black" points="242,-0.5 242,-41.5 431,-41.5 431,-0.5 242,-0.5"/>
<text text-anchor="start" x="250" y="-29.5" font-family="Helvetica,sans-Serif" font-size="10.00">modules/materials/Finite</text>
<text text-anchor="start" x="250" y="-18.5" font-family="Helvetica,sans-Serif" font-size="10.00">StrainJ2Plasticity/src</text>
<text text-anchor="middle" x="336.5" y="-7.5" font-family="Helvetica,sans-Serif" font-size="10.00">/FiniteStrainJ2PlasticityRegistration.cpp</text>
</a>
</g>
</g>
<!-- Node4&#45;&gt;Node6 -->
<g id="edge5" class="edge">
<title>Node4&#45;&gt;Node6</title>
<path fill="none" stroke="midnightblue" d="M336.5,-68.3C336.5,-59.3 336.5,-49.65 336.5,-41.51"/>
<polygon fill="midnightblue" stroke="midnightblue" points="333,-68.43 336.5,-78.43 340,-68.43 333,-68.43"/>
</g>
<!-- Node7&#45;&gt;Node3 -->
<g id="edge8" class="edge">
<title>Node7&#45;&gt;Node3</title>
<path fill="none" stroke="midnightblue" d="M586.52,-150.66C603.75,-138.53 623.75,-124.45 638.29,-114.23"/>
<polygon fill="midnightblue" stroke="midnightblue" points="584.48,-147.81 578.31,-156.43 588.51,-153.54 584.48,-147.81"/>
</g>
<!-- Node7&#45;&gt;Node4 -->
<g id="edge9" class="edge">
<title>Node7&#45;&gt;Node4</title>
<path fill="none" stroke="midnightblue" d="M485.81,-153.03C455.69,-142.33 420.23,-129.73 391.42,-119.51"/>
<polygon fill="midnightblue" stroke="midnightblue" points="484.79,-156.38 495.39,-156.43 487.14,-149.78 484.79,-156.38"/>
</g>
<!-- Node7&#45;&gt;Node5 -->
<g id="edge10" class="edge">
<title>Node7&#45;&gt;Node5</title>
<path fill="none" stroke="midnightblue" d="M541.09,-146.49C536.35,-125.8 533.94,-98.32 546.5,-78 556.61,-61.63 573.12,-49.89 590.39,-41.53"/>
<polygon fill="midnightblue" stroke="midnightblue" points="537.74,-147.52 543.63,-156.33 544.52,-145.77 537.74,-147.52"/>
</g>
<!-- Node8&#45;&gt;Node4 -->
<g id="edge13" class="edge">
<title>Node8&#45;&gt;Node4</title>
<path fill="none" stroke="midnightblue" d="M164.92,-153.44C199.55,-142.66 240.61,-129.87 273.88,-119.51"/>
<polygon fill="midnightblue" stroke="midnightblue" points="163.84,-150.11 155.34,-156.43 165.92,-156.8 163.84,-150.11"/>
</g>
<!-- Node9 -->
<g id="node9" class="node">
<title>Node9</title>
<g id="a_node9"><a xlink:href="MarmotFiniteStrainPlasticity_8cpp.html" target="_top" xlink:title=" ">
<polygon fill="white" stroke="black" points="12.5,-78.5 12.5,-119.5 172.5,-119.5 172.5,-78.5 12.5,-78.5"/>
<text text-anchor="start" x="20.5" y="-107.5" font-family="Helvetica,sans-Serif" font-size="10.00">modules/core/MarmotFinite</text>
<text text-anchor="start" x="20.5" y="-96.5" font-family="Helvetica,sans-Serif" font-size="10.00">StrainMechanicsCore/src</text>
<text text-anchor="middle" x="92.5" y="-85.5" font-family="Helvetica,sans-Serif" font-size="10.00">/MarmotFiniteStrainPlasticity.cpp</text>
</a>
</g>
</g>
<!-- Node8&#45;&gt;Node9 -->
<g id="edge12" class="edge">
<title>Node8&#45;&gt;Node9</title>
<path fill="none" stroke="midnightblue" d="M92.5,-146.3C92.5,-137.3 92.5,-127.65 92.5,-119.51"/>
<polygon fill="midnightblue" stroke="midnightblue" points="89,-146.43 92.5,-156.43 96,-146.43 89,-146.43"/>
</g>
<!-- Node10&#45;&gt;Node3 -->
<g id="edge15" class="edge">
<title>Node10&#45;&gt;Node3</title>
<path fill="none" stroke="midnightblue" d="M746.95,-151.31C725.79,-139.04 700.97,-124.64 683.02,-114.23"/>
<polygon fill="midnightblue" stroke="midnightblue" points="745.36,-154.44 755.76,-156.43 748.87,-148.38 745.36,-154.44"/>
</g>
<!-- Node10&#45;&gt;Node5 -->
<g id="edge16" class="edge">
<title>Node10&#45;&gt;Node5</title>
<path fill="none" stroke="midnightblue" d="M790.38,-146C789.51,-125.02 785.22,-97.4 770.5,-78 758.28,-61.9 740.15,-50.1 722.03,-41.61"/>
<polygon fill="midnightblue" stroke="midnightblue" points="786.88,-146.35 790.56,-156.29 793.88,-146.23 786.88,-146.35"/>
</g>
<!-- Node12&#45;&gt;Node5 -->
<g id="edge19" class="edge">
<title>Node12&#45;&gt;Node5</title>
<path fill="none" stroke="midnightblue" d="M828.23,-75.3C793.97,-64.55 753.46,-51.82 720.61,-41.51"/>
<polygon fill="midnightblue" stroke="midnightblue" points="827.59,-78.77 838.18,-78.43 829.69,-72.09 827.59,-78.77"/>
</g>
<!-- Node14 -->
<g id="node14" class="node">
<title>Node14</title>
<g id="a_node14"><a xlink:href="DisplacementFiniteStrainULElement_8cpp.html" target="_top" xlink:title=" ">
<polygon fill="white" stroke="black" points="1164,-78.5 1164,-119.5 1359,-119.5 1359,-78.5 1164,-78.5"/>
<text text-anchor="start" x="1172" y="-107.5" font-family="Helvetica,sans-Serif" font-size="10.00">modules/elements/Displacement</text>
<text text-anchor="start" x="1172" y="-96.5" font-family="Helvetica,sans-Serif" font-size="10.00">FiniteStrainULElement/src</text>
<text text-anchor="middle" x="1261.5" y="-85.5" font-family="Helvetica,sans-Serif" font-size="10.00">/DisplacementFiniteStrainULElement.cpp</text>
</a>
</g>
</g>
<!-- Node13&#45;&gt;Node14 -->
<g id="edge21" class="edge">
<title>Node13&#45;&gt;Node14</title>
<path fill="none" stroke="midnightblue" d="M1261.5,-146.3C1261.5,-137.3 1261.5,-127.65 1261.5,-119.51"/>
<polygon fill="midnightblue" stroke="midnightblue" points="1258,-146.43 1261.5,-156.43 1265,-146.43 1258,-146.43"/>
</g>
</g>
</svg>
        <g id="navigator" transform="translate(0 0)" fill="#404254">
                <rect fill="#f2f5e9" fill-opacity="0.5" stroke="#606060" stroke-width=".5" x="0" y="0" width="60" height="60"/>
                <use id="zoomplus" xlink:href="#zoomPlus" x="17" y="9" onmousedown="handleZoom(evt,'in')"/>
                <use id="zoomminus" xlink:href="#zoomMin" x="42" y="9" onmousedown="handleZoom(evt,'out')"/>
                <use id="reset" xlink:href="#resetDef" x="30" y="36" onmousedown="handleReset()"/>
                <g id="arrowUp" xlink:href="#dirArrow" transform="translate(30 24)" onmousedown="handlePan(0,-1)">
                  <use xlink:href="#rim" fill="#404040">
                        <set attributeName="fill" to="#808080" begin="arrowUp.mouseover" end="arrowUp.mouseout"/>
                  </use>
                  <path fill="none" stroke="white" stroke-width="1.5" d="M0,-3.0v7 M-2.5,-0.5L0,-3.0L2.5,-0.5"/>
                </g>
                <g id="arrowRight" xlink:href="#dirArrow" transform="rotate(90) translate(36 -43)" onmousedown="handlePan(1,0)">
                  <use xlink:href="#rim" fill="#404040">
                        <set attributeName="fill" to="#808080" begin="arrowRight.mouseover" end="arrowRight.mouseout"/>
                  </use>
                  <path fill="none" stroke="white" stroke-width="1.5" d="M0,-3.0v7 M-2.5,-0.5L0,-3.0L2.5,-0.5"/>
                </g>
                <g id="arrowDown" xlink:href="#dirArrow" transform="rotate(180) translate(-30 -48)" onmousedown="handlePan(0,1)">
                  <use xlink:href="#rim" fill="#404040">
                        <set attributeName="fill" to="#808080" begin="arrowDown.mouseover" end="arrowDown.mouseout"/>
                  </use>
                  <path fill="none" stroke="white" stroke-width="1.5" d="M0,-3.0v7 M-2.5,-0.5L0,-3.0L2.5,-0.5"/>
                </g>
                <g id="arrowLeft" xlink:href="#dirArrow" transform="rotate(270) translate(-36 17)" onmousedown="handlePan(-1,0)">
                  <use xlink:href="#rim" fill="#404040">
                        <set attributeName="fill" to="#808080" begin="arrowLeft.mouseover" end="arrowLeft.mouseout"/>
                  </use>
                  <path fill="none" stroke="white" stroke-width="1.5" d="M0,-3.0v7 M-2.5,-0.5L0,-3.0L2.5,-0.5"/>
                </g>
        </g>
        <svg viewBox="0 0 15 15" width="100%" height="30px" preserveAspectRatio="xMaxYMin meet">
         <g id="arrow_out" transform="scale(0.3 0.3)">
          <a xlink:href="MarmotFastorTensorBasics_8h__dep__incl_org.svg" target="_base">
           <rect id="button" ry="5" rx="5" y="6" x="6" height="38" width="38"
                fill="#f2f5e9" fill-opacity="0.5" stroke="#606060" stroke-width="1.0"/>
           <path id="arrow"
             d="M 11.500037,31.436501 C 11.940474,20.09759 22.043105,11.32322 32.158766,21.979434 L 37.068811,17.246167 C 37.068811,17.246167 37.088388,32 37.088388,32 L 22.160133,31.978069 C 22.160133,31.978069 26.997745,27.140456 26.997745,27.140456 C 18.528582,18.264221 13.291696,25.230495 11.500037,31.436501 z"
             style="fill:#404040;"/>
          </a>
         </g>
        </svg>
</svg>
