<?xml version="1.0" encoding="UTF-8" standalone="no"?>
<!DOCTYPE svg PUBLIC "-//W3C//DTD SVG 1.1//EN"
 "http://www.w3.org/Graphics/SVG/1.1/DTD/svg11.dtd">
<!-- Generated by graphviz version 2.44.0 ()
 -->
<!-- Title: include/Marmot/MarmotElementProperty.h Pages: 1 -->
<svg width="808pt" height="329pt"
 viewBox="0.00 0.00 807.50 329.00" xmlns="http://www.w3.org/2000/svg" xmlns:xlink="http://www.w3.org/1999/xlink">
<g id="graph0" class="graph" transform="scale(1 1) rotate(0) translate(4 325)">
<title>include/Marmot/MarmotElementProperty.h</title>
<polygon fill="white" stroke="transparent" points="-4,4 -4,-325 803.5,-325 803.5,4 -4,4"/>
<!-- Node1 -->
<g id="node1" class="node">
<title>Node1</title>
<g id="a_node1"><a xlink:title=" ">
<polygon fill="#bfbfbf" stroke="black" points="497,-290.5 497,-320.5 652,-320.5 652,-290.5 497,-290.5"/>
<text text-anchor="start" x="505" y="-308.5" font-family="Helvetica,sans-Serif" font-size="10.00">include/Marmot/MarmotElement</text>
<text text-anchor="middle" x="574.5" y="-297.5" font-family="Helvetica,sans-Serif" font-size="10.00">Property.h</text>
</a>
</g>
</g>
<!-- Node2 -->
<g id="node2" class="node">
<title>Node2</title>
<g id="a_node2"><a xlink:href="MarmotElement_8h.html" target="_top" xlink:title=" ">
<polygon fill="white" stroke="black" points="493.5,-234.5 493.5,-253.5 655.5,-253.5 655.5,-234.5 493.5,-234.5"/>
<text text-anchor="middle" x="574.5" y="-241.5" font-family="Helvetica,sans-Serif" font-size="10.00">include/Marmot/MarmotElement.h</text>
</a>
</g>
</g>
<!-- Node1&#45;&gt;Node2 -->
<g id="edge1" class="edge">
<title>Node1&#45;&gt;Node2</title>
<path fill="none" stroke="midnightblue" d="M574.5,-280.29C574.5,-270.86 574.5,-260.65 574.5,-253.66"/>
<polygon fill="midnightblue" stroke="midnightblue" points="571,-280.4 574.5,-290.4 578,-280.4 571,-280.4"/>
</g>
<!-- Node7 -->
<g id="node7" class="node">
<title>Node7</title>
<g id="a_node7"><a xlink:href="DisplacementFiniteElement_8h.html" target="_top" xlink:title=" ">
<polygon fill="white" stroke="black" points="401.5,-78.5 401.5,-119.5 559.5,-119.5 559.5,-78.5 401.5,-78.5"/>
<text text-anchor="start" x="409.5" y="-107.5" font-family="Helvetica,sans-Serif" font-size="10.00">modules/elements/Displacement</text>
<text text-anchor="start" x="409.5" y="-96.5" font-family="Helvetica,sans-Serif" font-size="10.00">FiniteElement/include/Marmot</text>
<text text-anchor="middle" x="480.5" y="-85.5" font-family="Helvetica,sans-Serif" font-size="10.00">/DisplacementFiniteElement.h</text>
</a>
</g>
</g>
<!-- Node1&#45;&gt;Node7 -->
<g id="edge14" class="edge">
<title>Node1&#45;&gt;Node7</title>
<path fill="none" stroke="midnightblue" d="M520.67,-285.81C506.49,-278.2 492.85,-267.84 484.5,-254 459.08,-211.86 468.14,-150.74 475.24,-119.69"/>
<polygon fill="midnightblue" stroke="midnightblue" points="519.49,-289.13 530,-290.43 522.59,-282.86 519.49,-289.13"/>
</g>
<!-- Node9 -->
<g id="node9" class="node">
<title>Node9</title>
<g id="a_node9"><a xlink:href="MarmotFiniteElementSpatialWrapper_8h.html" target="_top" xlink:title=" ">
<polygon fill="white" stroke="black" points="576,-156.5 576,-197.5 761,-197.5 761,-156.5 576,-156.5"/>
<text text-anchor="start" x="584" y="-185.5" font-family="Helvetica,sans-Serif" font-size="10.00">modules/core/MarmotFinite</text>
<text text-anchor="start" x="584" y="-174.5" font-family="Helvetica,sans-Serif" font-size="10.00">ElementCore/include/Marmot</text>
<text text-anchor="middle" x="668.5" y="-163.5" font-family="Helvetica,sans-Serif" font-size="10.00">/MarmotFiniteElementSpatialWrapper.h</text>
</a>
</g>
</g>
<!-- Node1&#45;&gt;Node9 -->
<g id="edge13" class="edge">
<title>Node1&#45;&gt;Node9</title>
<path fill="none" stroke="midnightblue" d="M628.1,-285.67C642.27,-278.06 655.97,-267.73 664.5,-254 674.96,-237.17 674.54,-213.97 672.39,-197.64"/>
<polygon fill="midnightblue" stroke="midnightblue" points="626.19,-282.72 618.78,-290.29 629.29,-288.99 626.19,-282.72"/>
</g>
<!-- Node3 -->
<g id="node3" class="node">
<title>Node3</title>
<g id="a_node3"><a xlink:href="Marmot_8h.html" target="_top" xlink:title=" ">
<polygon fill="white" stroke="black" points="310,-167.5 310,-186.5 437,-186.5 437,-167.5 310,-167.5"/>
<text text-anchor="middle" x="373.5" y="-174.5" font-family="Helvetica,sans-Serif" font-size="10.00">include/Marmot/Marmot.h</text>
</a>
</g>
</g>
<!-- Node2&#45;&gt;Node3 -->
<g id="edge2" class="edge">
<title>Node2&#45;&gt;Node3</title>
<path fill="none" stroke="midnightblue" d="M538.21,-231.27C498.39,-218.39 435.41,-198.02 399.98,-186.56"/>
<polygon fill="midnightblue" stroke="midnightblue" points="537.22,-234.62 547.81,-234.37 539.37,-227.96 537.22,-234.62"/>
</g>
<!-- Node2&#45;&gt;Node7 -->
<g id="edge12" class="edge">
<title>Node2&#45;&gt;Node7</title>
<path fill="none" stroke="midnightblue" d="M563.23,-225.85C545.68,-199.15 511.92,-147.8 493.42,-119.65"/>
<polygon fill="midnightblue" stroke="midnightblue" points="560.48,-228.05 568.9,-234.48 566.33,-224.2 560.48,-228.05"/>
</g>
<!-- Node2&#45;&gt;Node9 -->
<g id="edge9" class="edge">
<title>Node2&#45;&gt;Node9</title>
<path fill="none" stroke="midnightblue" d="M595.59,-228.42C608.76,-219.31 625.89,-207.46 640.24,-197.54"/>
<polygon fill="midnightblue" stroke="midnightblue" points="593.41,-225.67 587.18,-234.23 597.39,-231.43 593.41,-225.67"/>
</g>
<!-- Node4 -->
<g id="node4" class="node">
<title>Node4</title>
<g id="a_node4"><a xlink:href="MarmotMaterialRegistrationHelper_8h.html" target="_top" xlink:title=" ">
<polygon fill="white" stroke="black" points="191.5,-84 191.5,-114 345.5,-114 345.5,-84 191.5,-84"/>
<text text-anchor="start" x="199.5" y="-102" font-family="Helvetica,sans-Serif" font-size="10.00">include/Marmot/MarmotMaterial</text>
<text text-anchor="middle" x="268.5" y="-91" font-family="Helvetica,sans-Serif" font-size="10.00">RegistrationHelper.h</text>
</a>
</g>
</g>
<!-- Node3&#45;&gt;Node4 -->
<g id="edge3" class="edge">
<title>Node3&#45;&gt;Node4</title>
<path fill="none" stroke="midnightblue" d="M353.25,-161.34C334.38,-147.69 306.45,-127.47 287.87,-114.02"/>
<polygon fill="midnightblue" stroke="midnightblue" points="351.3,-164.25 361.46,-167.28 355.41,-158.58 351.3,-164.25"/>
</g>
<!-- Node3&#45;&gt;Node7 -->
<g id="edge6" class="edge">
<title>Node3&#45;&gt;Node7</title>
<path fill="none" stroke="midnightblue" d="M394.26,-161.26C410.94,-149.41 434.53,-132.65 452.82,-119.66"/>
<polygon fill="midnightblue" stroke="midnightblue" points="391.9,-158.64 385.77,-167.28 395.95,-164.34 391.9,-158.64"/>
</g>
<!-- Node8 -->
<g id="node8" class="node">
<title>Node8</title>
<g id="a_node8"><a xlink:href="DisplacementFiniteElementRegistration_8cpp.html" target="_top" xlink:title=" ">
<polygon fill="white" stroke="black" points="391,-0.5 391,-41.5 570,-41.5 570,-0.5 391,-0.5"/>
<text text-anchor="start" x="399" y="-29.5" font-family="Helvetica,sans-Serif" font-size="10.00">modules/elements/Displacement</text>
<text text-anchor="start" x="399" y="-18.5" font-family="Helvetica,sans-Serif" font-size="10.00">FiniteElement/src/DisplacementFinite</text>
<text text-anchor="middle" x="480.5" y="-7.5" font-family="Helvetica,sans-Serif" font-size="10.00">ElementRegistration.cpp</text>
</a>
</g>
</g>
<!-- Node3&#45;&gt;Node8 -->
<g id="edge8" class="edge">
<title>Node3&#45;&gt;Node8</title>
<path fill="none" stroke="midnightblue" d="M372.89,-157.08C373.12,-136.02 376.29,-101.81 392.5,-78 403,-62.58 419.29,-50.51 435.02,-41.58"/>
<polygon fill="midnightblue" stroke="midnightblue" points="369.39,-157.32 373,-167.28 376.39,-157.24 369.39,-157.32"/>
</g>
<!-- Node5 -->
<g id="node5" class="node">
<title>Node5</title>
<g id="a_node5"><a xlink:href="LinearElasticRegistration_8cpp.html" target="_top" xlink:title=" ">
<polygon fill="white" stroke="black" points="0,-6 0,-36 191,-36 191,-6 0,-6"/>
<text text-anchor="start" x="8" y="-24" font-family="Helvetica,sans-Serif" font-size="10.00">modules/materials/Linear</text>
<text text-anchor="middle" x="95.5" y="-13" font-family="Helvetica,sans-Serif" font-size="10.00">Elastic/src/LinearElasticRegistration.cpp</text>
</a>
</g>
</g>
<!-- Node4&#45;&gt;Node5 -->
<g id="edge4" class="edge">
<title>Node4&#45;&gt;Node5</title>
<path fill="none" stroke="midnightblue" d="M226.84,-79.7C196.3,-66.28 155.45,-48.34 127.46,-36.04"/>
<polygon fill="midnightblue" stroke="midnightblue" points="225.8,-83.07 236.37,-83.88 228.62,-76.66 225.8,-83.07"/>
</g>
<!-- Node6 -->
<g id="node6" class="node">
<title>Node6</title>
<g id="a_node6"><a xlink:href="VonMisesRegistration_8cpp.html" target="_top" xlink:title=" ">
<polygon fill="white" stroke="black" points="209,-6 209,-36 358,-36 358,-6 209,-6"/>
<text text-anchor="start" x="217" y="-24" font-family="Helvetica,sans-Serif" font-size="10.00">modules/materials/VonMises</text>
<text text-anchor="middle" x="283.5" y="-13" font-family="Helvetica,sans-Serif" font-size="10.00">/src/VonMisesRegistration.cpp</text>
</a>
</g>
</g>
<!-- Node4&#45;&gt;Node6 -->
<g id="edge5" class="edge">
<title>Node4&#45;&gt;Node6</title>
<path fill="none" stroke="midnightblue" d="M273.32,-73.59C275.75,-61.26 278.62,-46.72 280.69,-36.23"/>
<polygon fill="midnightblue" stroke="midnightblue" points="269.82,-73.22 271.32,-83.7 276.69,-74.57 269.82,-73.22"/>
</g>
<!-- Node7&#45;&gt;Node8 -->
<g id="edge7" class="edge">
<title>Node7&#45;&gt;Node8</title>
<path fill="none" stroke="midnightblue" d="M480.5,-68.3C480.5,-59.3 480.5,-49.65 480.5,-41.51"/>
<polygon fill="midnightblue" stroke="midnightblue" points="477,-68.43 480.5,-78.43 484,-68.43 477,-68.43"/>
</g>
<!-- Node9&#45;&gt;Node8 -->
<g id="edge11" class="edge">
<title>Node9&#45;&gt;Node8</title>
<path fill="none" stroke="midnightblue" d="M638.05,-149.6C627.82,-140.44 616.48,-129.97 606.5,-120 588.69,-102.21 587.74,-94.24 568.5,-78 552.31,-64.33 532.54,-51.46 515.84,-41.51"/>
<polygon fill="midnightblue" stroke="midnightblue" points="635.81,-152.29 645.61,-156.31 640.46,-147.06 635.81,-152.29"/>
</g>
<!-- Node10 -->
<g id="node10" class="node">
<title>Node10</title>
<g id="a_node10"><a xlink:href="MarmotFiniteElementSpatialWrapper_8cpp.html" target="_top" xlink:title=" ">
<polygon fill="white" stroke="black" points="615.5,-78.5 615.5,-119.5 799.5,-119.5 799.5,-78.5 615.5,-78.5"/>
<text text-anchor="start" x="623.5" y="-107.5" font-family="Helvetica,sans-Serif" font-size="10.00">modules/core/MarmotFinite</text>
<text text-anchor="start" x="623.5" y="-96.5" font-family="Helvetica,sans-Serif" font-size="10.00">ElementCore/src/MarmotFiniteElement</text>
<text text-anchor="middle" x="707.5" y="-85.5" font-family="Helvetica,sans-Serif" font-size="10.00">SpatialWrapper.cpp</text>
</a>
</g>
</g>
<!-- Node9&#45;&gt;Node10 -->
<g id="edge10" class="edge">
<title>Node9&#45;&gt;Node10</title>
<path fill="none" stroke="midnightblue" d="M683.14,-147.47C687.93,-138.14 693.13,-128.01 697.49,-119.51"/>
<polygon fill="midnightblue" stroke="midnightblue" points="680,-145.93 678.54,-156.43 686.22,-149.13 680,-145.93"/>
</g>
</g>
</svg>
