<?xml version="1.0" encoding="UTF-8" standalone="no"?>
<!DOCTYPE svg PUBLIC "-//W3C//DTD SVG 1.1//EN"
 "http://www.w3.org/Graphics/SVG/1.1/DTD/svg11.dtd">
<!-- Generated by graphviz version 2.44.0 ()
 -->
<!-- Title: modules/core/MarmotMathCore/include/Marmot/MarmotTensorExponential.h Pages: 1 -->
<svg width="843pt" height="229pt"
 viewBox="0.00 0.00 843.00 229.00" xmlns="http://www.w3.org/2000/svg" xmlns:xlink="http://www.w3.org/1999/xlink">
<g id="graph0" class="graph" transform="scale(1 1) rotate(0) translate(4 225)">
<title>modules/core/MarmotMathCore/include/Marmot/MarmotTensorExponential.h</title>
<polygon fill="white" stroke="transparent" points="-4,4 -4,-225 839,-225 839,4 -4,4"/>
<!-- Node1 -->
<g id="node1" class="node">
<title>Node1</title>
<g id="a_node1"><a xlink:title=" ">
<polygon fill="#bfbfbf" stroke="black" points="403,-190.5 403,-220.5 612,-220.5 612,-190.5 403,-190.5"/>
<text text-anchor="start" x="411" y="-208.5" font-family="Helvetica,sans-Serif" font-size="10.00">modules/core/MarmotMathCore</text>
<text text-anchor="middle" x="507.5" y="-197.5" font-family="Helvetica,sans-Serif" font-size="10.00">/include/Marmot/MarmotTensorExponential.h</text>
</a>
</g>
</g>
<!-- Node2 -->
<g id="node2" class="node">
<title>Node2</title>
<g id="a_node2"><a xlink:title=" ">
<polygon fill="white" stroke="#bfbfbf" points="349,-134.5 349,-153.5 432,-153.5 432,-134.5 349,-134.5"/>
<text text-anchor="middle" x="390.5" y="-141.5" font-family="Helvetica,sans-Serif" font-size="10.00">Fastor/Fastor.h</text>
</a>
</g>
</g>
<!-- Node1&#45;&gt;Node2 -->
<g id="edge1" class="edge">
<title>Node1&#45;&gt;Node2</title>
<path fill="none" stroke="midnightblue" d="M479.77,-190.4C460.67,-180.68 435.44,-167.86 416.68,-158.31"/>
<polygon fill="midnightblue" stroke="midnightblue" points="418.02,-155.07 407.52,-153.66 414.85,-161.31 418.02,-155.07"/>
</g>
<!-- Node3 -->
<g id="node3" class="node">
<title>Node3</title>
<g id="a_node3"><a xlink:href="MarmotMath_8h.html" target="_top" xlink:title=" ">
<polygon fill="white" stroke="black" points="450,-134.5 450,-153.5 565,-153.5 565,-134.5 450,-134.5"/>
<text text-anchor="middle" x="507.5" y="-141.5" font-family="Helvetica,sans-Serif" font-size="10.00">Marmot/MarmotMath.h</text>
</a>
</g>
</g>
<!-- Node1&#45;&gt;Node3 -->
<g id="edge2" class="edge">
<title>Node1&#45;&gt;Node3</title>
<path fill="none" stroke="midnightblue" d="M507.5,-190.4C507.5,-182.47 507.5,-172.46 507.5,-163.86"/>
<polygon fill="midnightblue" stroke="midnightblue" points="511,-163.66 507.5,-153.66 504,-163.66 511,-163.66"/>
</g>
<!-- Node15 -->
<g id="node15" class="node">
<title>Node15</title>
<g id="a_node15"><a xlink:title=" ">
<polygon fill="white" stroke="#bfbfbf" points="583.5,-134.5 583.5,-153.5 637.5,-153.5 637.5,-134.5 583.5,-134.5"/>
<text text-anchor="middle" x="610.5" y="-141.5" font-family="Helvetica,sans-Serif" font-size="10.00">iostream</text>
</a>
</g>
</g>
<!-- Node1&#45;&gt;Node15 -->
<g id="edge14" class="edge">
<title>Node1&#45;&gt;Node15</title>
<path fill="none" stroke="midnightblue" d="M531.91,-190.4C548.42,-180.86 570.12,-168.32 586.54,-158.84"/>
<polygon fill="midnightblue" stroke="midnightblue" points="588.6,-161.69 595.51,-153.66 585.1,-155.63 588.6,-161.69"/>
</g>
<!-- Node4 -->
<g id="node4" class="node">
<title>Node4</title>
<g id="a_node4"><a xlink:href="MarmotConstants_8h.html" target="_top" xlink:title=" ">
<polygon fill="white" stroke="black" points="0,-73 0,-92 137,-92 137,-73 0,-73"/>
<text text-anchor="middle" x="68.5" y="-80" font-family="Helvetica,sans-Serif" font-size="10.00">Marmot/MarmotConstants.h</text>
</a>
</g>
</g>
<!-- Node3&#45;&gt;Node4 -->
<g id="edge3" class="edge">
<title>Node3&#45;&gt;Node4</title>
<path fill="none" stroke="midnightblue" d="M449.91,-135.1C447.07,-134.72 444.25,-134.36 441.5,-134 310.5,-117.08 277.05,-118.08 146.5,-98 138.47,-96.76 129.99,-95.33 121.71,-93.85"/>
<polygon fill="midnightblue" stroke="midnightblue" points="122.2,-90.38 111.74,-92.03 120.95,-97.27 122.2,-90.38"/>
</g>
<!-- Node6 -->
<g id="node6" class="node">
<title>Node6</title>
<g id="a_node6"><a xlink:href="MarmotTypedefs_8h.html" target="_top" xlink:title=" ">
<polygon fill="white" stroke="black" points="156,-73 156,-92 289,-92 289,-73 156,-73"/>
<text text-anchor="middle" x="222.5" y="-80" font-family="Helvetica,sans-Serif" font-size="10.00">Marmot/MarmotTypedefs.h</text>
</a>
</g>
</g>
<!-- Node3&#45;&gt;Node6 -->
<g id="edge5" class="edge">
<title>Node3&#45;&gt;Node6</title>
<path fill="none" stroke="midnightblue" d="M466.67,-134.48C415.66,-123.83 328.4,-105.61 273.18,-94.08"/>
<polygon fill="midnightblue" stroke="midnightblue" points="273.76,-90.63 263.26,-92.01 272.33,-97.48 273.76,-90.63"/>
</g>
<!-- Node10 -->
<g id="node10" class="node">
<title>Node10</title>
<g id="a_node10"><a xlink:title=" ">
<polygon fill="white" stroke="#bfbfbf" points="307.5,-73 307.5,-92 429.5,-92 429.5,-73 307.5,-73"/>
<text text-anchor="middle" x="368.5" y="-80" font-family="Helvetica,sans-Serif" font-size="10.00">autodiff/forward/dual.hpp</text>
</a>
</g>
</g>
<!-- Node3&#45;&gt;Node10 -->
<g id="edge9" class="edge">
<title>Node3&#45;&gt;Node10</title>
<path fill="none" stroke="midnightblue" d="M487.58,-134.48C464.05,-124.4 424.69,-107.55 397.71,-96"/>
<polygon fill="midnightblue" stroke="midnightblue" points="398.95,-92.73 388.38,-92.01 396.19,-99.16 398.95,-92.73"/>
</g>
<!-- Node11 -->
<g id="node11" class="node">
<title>Node11</title>
<g id="a_node11"><a xlink:title=" ">
<polygon fill="white" stroke="#bfbfbf" points="447.5,-73 447.5,-92 567.5,-92 567.5,-73 447.5,-73"/>
<text text-anchor="middle" x="507.5" y="-80" font-family="Helvetica,sans-Serif" font-size="10.00">autodiff/forward/real.hpp</text>
</a>
</g>
</g>
<!-- Node3&#45;&gt;Node11 -->
<g id="edge10" class="edge">
<title>Node3&#45;&gt;Node11</title>
<path fill="none" stroke="midnightblue" d="M507.5,-134.48C507.5,-126.08 507.5,-112.98 507.5,-102.16"/>
<polygon fill="midnightblue" stroke="midnightblue" points="511,-102.01 507.5,-92.01 504,-102.01 511,-102.01"/>
</g>
<!-- Node12 -->
<g id="node12" class="node">
<title>Node12</title>
<g id="a_node12"><a xlink:title=" ">
<polygon fill="white" stroke="#bfbfbf" points="585.5,-73 585.5,-92 641.5,-92 641.5,-73 585.5,-73"/>
<text text-anchor="middle" x="613.5" y="-80" font-family="Helvetica,sans-Serif" font-size="10.00">algorithm</text>
</a>
</g>
</g>
<!-- Node3&#45;&gt;Node12 -->
<g id="edge11" class="edge">
<title>Node3&#45;&gt;Node12</title>
<path fill="none" stroke="midnightblue" d="M522.69,-134.48C540.16,-124.67 569.08,-108.43 589.58,-96.92"/>
<polygon fill="midnightblue" stroke="midnightblue" points="591.33,-99.96 598.34,-92.01 587.91,-93.85 591.33,-99.96"/>
</g>
<!-- Node13 -->
<g id="node13" class="node">
<title>Node13</title>
<g id="a_node13"><a xlink:title=" ">
<polygon fill="white" stroke="#bfbfbf" points="659.5,-67.5 659.5,-97.5 763.5,-97.5 763.5,-67.5 659.5,-67.5"/>
<text text-anchor="start" x="667.5" y="-85.5" font-family="Helvetica,sans-Serif" font-size="10.00">autodiff/forward/dual</text>
<text text-anchor="middle" x="711.5" y="-74.5" font-family="Helvetica,sans-Serif" font-size="10.00">/dual.hpp</text>
</a>
</g>
</g>
<!-- Node3&#45;&gt;Node13 -->
<g id="edge12" class="edge">
<title>Node3&#45;&gt;Node13</title>
<path fill="none" stroke="midnightblue" d="M536.73,-134.48C567.07,-125.63 615.33,-111.55 653.46,-100.43"/>
<polygon fill="midnightblue" stroke="midnightblue" points="654.8,-103.68 663.42,-97.52 652.84,-96.96 654.8,-103.68"/>
</g>
<!-- Node14 -->
<g id="node14" class="node">
<title>Node14</title>
<g id="a_node14"><a xlink:title=" ">
<polygon fill="white" stroke="#bfbfbf" points="782,-73 782,-92 835,-92 835,-73 782,-73"/>
<text text-anchor="middle" x="808.5" y="-80" font-family="Helvetica,sans-Serif" font-size="10.00">complex</text>
</a>
</g>
</g>
<!-- Node3&#45;&gt;Node14 -->
<g id="edge13" class="edge">
<title>Node3&#45;&gt;Node14</title>
<path fill="none" stroke="midnightblue" d="M565.08,-134.7C630.91,-124.95 734.5,-108.74 772.5,-98 774.94,-97.31 777.44,-96.51 779.93,-95.65"/>
<polygon fill="midnightblue" stroke="midnightblue" points="781.21,-98.9 789.34,-92.1 778.74,-92.35 781.21,-98.9"/>
</g>
<!-- Node5 -->
<g id="node5" class="node">
<title>Node5</title>
<g id="a_node5"><a xlink:title=" ">
<polygon fill="white" stroke="#bfbfbf" points="44.5,-6 44.5,-25 88.5,-25 88.5,-6 44.5,-6"/>
<text text-anchor="middle" x="66.5" y="-13" font-family="Helvetica,sans-Serif" font-size="10.00">cmath</text>
</a>
</g>
</g>
<!-- Node4&#45;&gt;Node5 -->
<g id="edge4" class="edge">
<title>Node4&#45;&gt;Node5</title>
<path fill="none" stroke="midnightblue" d="M68.23,-72.73C67.94,-63.18 67.46,-47.62 67.08,-35.28"/>
<polygon fill="midnightblue" stroke="midnightblue" points="70.57,-35.01 66.77,-25.13 63.57,-35.23 70.57,-35.01"/>
</g>
<!-- Node7 -->
<g id="node7" class="node">
<title>Node7</title>
<g id="a_node7"><a xlink:title=" ">
<polygon fill="white" stroke="#bfbfbf" points="106.5,-6 106.5,-25 170.5,-25 170.5,-6 106.5,-6"/>
<text text-anchor="middle" x="138.5" y="-13" font-family="Helvetica,sans-Serif" font-size="10.00">Eigen/Core</text>
</a>
</g>
</g>
<!-- Node6&#45;&gt;Node7 -->
<g id="edge6" class="edge">
<title>Node6&#45;&gt;Node7</title>
<path fill="none" stroke="midnightblue" d="M211.17,-72.73C197.44,-62.11 174.1,-44.05 157.58,-31.26"/>
<polygon fill="midnightblue" stroke="midnightblue" points="159.7,-28.48 149.65,-25.13 155.42,-34.02 159.7,-28.48"/>
</g>
<!-- Node8 -->
<g id="node8" class="node">
<title>Node8</title>
<g id="a_node8"><a xlink:title=" ">
<polygon fill="white" stroke="#bfbfbf" points="189,-6 189,-25 260,-25 260,-6 189,-6"/>
<text text-anchor="middle" x="224.5" y="-13" font-family="Helvetica,sans-Serif" font-size="10.00">Eigen/Dense</text>
</a>
</g>
</g>
<!-- Node6&#45;&gt;Node8 -->
<g id="edge7" class="edge">
<title>Node6&#45;&gt;Node8</title>
<path fill="none" stroke="midnightblue" d="M222.77,-72.73C223.06,-63.18 223.54,-47.62 223.92,-35.28"/>
<polygon fill="midnightblue" stroke="midnightblue" points="227.43,-35.23 224.23,-25.13 220.43,-35.01 227.43,-35.23"/>
</g>
<!-- Node9 -->
<g id="node9" class="node">
<title>Node9</title>
<g id="a_node9"><a xlink:title=" ">
<polygon fill="white" stroke="#bfbfbf" points="278,-0.5 278,-30.5 409,-30.5 409,-0.5 278,-0.5"/>
<text text-anchor="start" x="286" y="-18.5" font-family="Helvetica,sans-Serif" font-size="10.00">unsupported/Eigen/CXX11</text>
<text text-anchor="middle" x="343.5" y="-7.5" font-family="Helvetica,sans-Serif" font-size="10.00">/Tensor</text>
</a>
</g>
</g>
<!-- Node6&#45;&gt;Node9 -->
<g id="edge8" class="edge">
<title>Node6&#45;&gt;Node9</title>
<path fill="none" stroke="midnightblue" d="M238.82,-72.73C256.51,-63.23 285.28,-47.78 308.18,-35.47"/>
<polygon fill="midnightblue" stroke="midnightblue" points="310.12,-38.4 317.27,-30.59 306.81,-32.24 310.12,-38.4"/>
</g>
</g>
</svg>
