<?xml version="1.0" encoding="UTF-8" standalone="no"?>
<!DOCTYPE svg PUBLIC "-//W3C//DTD SVG 1.1//EN"
 "http://www.w3.org/Graphics/SVG/1.1/DTD/svg11.dtd">
<!-- Generated by graphviz version 2.44.0 ()
 -->
<!-- Title: include/Marmot/MarmotTesting.h Pages: 1 -->
<svg width="835pt" height="263pt"
 viewBox="0.00 0.00 834.50 263.00" xmlns="http://www.w3.org/2000/svg" xmlns:xlink="http://www.w3.org/1999/xlink">
<g id="graph0" class="graph" transform="scale(1 1) rotate(0) translate(4 259)">
<title>include/Marmot/MarmotTesting.h</title>
<polygon fill="white" stroke="transparent" points="-4,4 -4,-259 830.5,-259 830.5,4 -4,4"/>
<!-- Node1 -->
<g id="node1" class="node">
<title>Node1</title>
<g id="a_node1"><a xlink:title=" ">
<polygon fill="#bfbfbf" stroke="black" points="425,-235.5 425,-254.5 584,-254.5 584,-235.5 425,-235.5"/>
<text text-anchor="middle" x="504.5" y="-242.5" font-family="Helvetica,sans-Serif" font-size="10.00">include/Marmot/MarmotTesting.h</text>
</a>
</g>
</g>
<!-- Node2 -->
<g id="node2" class="node">
<title>Node2</title>
<g id="a_node2"><a xlink:href="MarmotConstants_8h.html" target="_top" xlink:title=" ">
<polygon fill="white" stroke="black" points="0,-174 0,-193 137,-193 137,-174 0,-174"/>
<text text-anchor="middle" x="68.5" y="-181" font-family="Helvetica,sans-Serif" font-size="10.00">Marmot/MarmotConstants.h</text>
</a>
</g>
</g>
<!-- Node1&#45;&gt;Node2 -->
<g id="edge1" class="edge">
<title>Node1&#45;&gt;Node2</title>
<path fill="none" stroke="midnightblue" d="M425.16,-235.47C352.29,-227.3 241.38,-214.02 145.5,-199 137.57,-197.76 129.2,-196.32 121.03,-194.84"/>
<polygon fill="midnightblue" stroke="midnightblue" points="121.65,-191.39 111.18,-193.02 120.38,-198.28 121.65,-191.39"/>
</g>
<!-- Node4 -->
<g id="node4" class="node">
<title>Node4</title>
<g id="a_node4"><a xlink:href="MarmotMaterialHypoElastic_8h.html" target="_top" xlink:title=" ">
<polygon fill="white" stroke="black" points="155,-168.5 155,-198.5 298,-198.5 298,-168.5 155,-168.5"/>
<text text-anchor="start" x="163" y="-186.5" font-family="Helvetica,sans-Serif" font-size="10.00">Marmot/MarmotMaterialHypo</text>
<text text-anchor="middle" x="226.5" y="-175.5" font-family="Helvetica,sans-Serif" font-size="10.00">Elastic.h</text>
</a>
</g>
</g>
<!-- Node1&#45;&gt;Node4 -->
<g id="edge3" class="edge">
<title>Node1&#45;&gt;Node4</title>
<path fill="none" stroke="midnightblue" d="M464.67,-235.48C422.36,-226.42 354.46,-211.89 301.97,-200.65"/>
<polygon fill="midnightblue" stroke="midnightblue" points="302.53,-197.19 292.02,-198.52 301.07,-204.04 302.53,-197.19"/>
</g>
<!-- Node9 -->
<g id="node9" class="node">
<title>Node9</title>
<g id="a_node9"><a xlink:title=" ">
<polygon fill="white" stroke="#bfbfbf" points="316.5,-168.5 316.5,-198.5 420.5,-198.5 420.5,-168.5 316.5,-168.5"/>
<text text-anchor="start" x="324.5" y="-186.5" font-family="Helvetica,sans-Serif" font-size="10.00">autodiff/forward/dual</text>
<text text-anchor="middle" x="368.5" y="-175.5" font-family="Helvetica,sans-Serif" font-size="10.00">/dual.hpp</text>
</a>
</g>
</g>
<!-- Node1&#45;&gt;Node9 -->
<g id="edge8" class="edge">
<title>Node1&#45;&gt;Node9</title>
<path fill="none" stroke="midnightblue" d="M485.01,-235.48C465.48,-226.93 434.79,-213.5 409.81,-202.57"/>
<polygon fill="midnightblue" stroke="midnightblue" points="411.12,-199.32 400.55,-198.52 408.31,-205.74 411.12,-199.32"/>
</g>
<!-- Node10 -->
<g id="node10" class="node">
<title>Node10</title>
<g id="a_node10"><a xlink:title=" ">
<polygon fill="white" stroke="#bfbfbf" points="439,-168.5 439,-198.5 570,-198.5 570,-168.5 439,-168.5"/>
<text text-anchor="start" x="447" y="-186.5" font-family="Helvetica,sans-Serif" font-size="10.00">unsupported/Eigen/CXX11</text>
<text text-anchor="middle" x="504.5" y="-175.5" font-family="Helvetica,sans-Serif" font-size="10.00">/Tensor</text>
</a>
</g>
</g>
<!-- Node1&#45;&gt;Node10 -->
<g id="edge9" class="edge">
<title>Node1&#45;&gt;Node10</title>
<path fill="none" stroke="midnightblue" d="M504.5,-235.48C504.5,-228.47 504.5,-218.19 504.5,-208.7"/>
<polygon fill="midnightblue" stroke="midnightblue" points="508,-208.52 504.5,-198.52 501,-208.52 508,-208.52"/>
</g>
<!-- Node11 -->
<g id="node11" class="node">
<title>Node11</title>
<g id="a_node11"><a xlink:title=" ">
<polygon fill="white" stroke="#bfbfbf" points="588.5,-174 588.5,-193 652.5,-193 652.5,-174 588.5,-174"/>
<text text-anchor="middle" x="620.5" y="-181" font-family="Helvetica,sans-Serif" font-size="10.00">Eigen/Core</text>
</a>
</g>
</g>
<!-- Node1&#45;&gt;Node11 -->
<g id="edge10" class="edge">
<title>Node1&#45;&gt;Node11</title>
<path fill="none" stroke="midnightblue" d="M521.12,-235.48C540.42,-225.58 572.46,-209.14 594.93,-197.62"/>
<polygon fill="midnightblue" stroke="midnightblue" points="596.61,-200.69 603.91,-193.01 593.42,-194.46 596.61,-200.69"/>
</g>
<!-- Node12 -->
<g id="node12" class="node">
<title>Node12</title>
<g id="a_node12"><a xlink:title=" ">
<polygon fill="white" stroke="#bfbfbf" points="671,-174 671,-193 754,-193 754,-174 671,-174"/>
<text text-anchor="middle" x="712.5" y="-181" font-family="Helvetica,sans-Serif" font-size="10.00">Fastor/Fastor.h</text>
</a>
</g>
</g>
<!-- Node1&#45;&gt;Node12 -->
<g id="edge11" class="edge">
<title>Node1&#45;&gt;Node12</title>
<path fill="none" stroke="midnightblue" d="M534.3,-235.48C570.75,-225.05 632.58,-207.36 672.97,-195.81"/>
<polygon fill="midnightblue" stroke="midnightblue" points="674.1,-199.12 682.75,-193.01 672.18,-192.39 674.1,-199.12"/>
</g>
<!-- Node13 -->
<g id="node13" class="node">
<title>Node13</title>
<g id="a_node13"><a xlink:title=" ">
<polygon fill="white" stroke="#bfbfbf" points="772.5,-174 772.5,-193 826.5,-193 826.5,-174 772.5,-174"/>
<text text-anchor="middle" x="799.5" y="-181" font-family="Helvetica,sans-Serif" font-size="10.00">iostream</text>
</a>
</g>
</g>
<!-- Node1&#45;&gt;Node13 -->
<g id="edge12" class="edge">
<title>Node1&#45;&gt;Node13</title>
<path fill="none" stroke="midnightblue" d="M577.71,-235.47C630.09,-228.36 701.94,-216.53 763.5,-199 765.94,-198.31 768.44,-197.5 770.93,-196.64"/>
<polygon fill="midnightblue" stroke="midnightblue" points="772.21,-199.89 780.33,-193.09 769.74,-193.34 772.21,-199.89"/>
</g>
<!-- Node3 -->
<g id="node3" class="node">
<title>Node3</title>
<g id="a_node3"><a xlink:title=" ">
<polygon fill="white" stroke="#bfbfbf" points="46.5,-112.5 46.5,-131.5 90.5,-131.5 90.5,-112.5 46.5,-112.5"/>
<text text-anchor="middle" x="68.5" y="-119.5" font-family="Helvetica,sans-Serif" font-size="10.00">cmath</text>
</a>
</g>
</g>
<!-- Node2&#45;&gt;Node3 -->
<g id="edge2" class="edge">
<title>Node2&#45;&gt;Node3</title>
<path fill="none" stroke="midnightblue" d="M68.5,-173.98C68.5,-165.58 68.5,-152.48 68.5,-141.66"/>
<polygon fill="midnightblue" stroke="midnightblue" points="72,-141.51 68.5,-131.51 65,-141.51 72,-141.51"/>
</g>
<!-- Node5 -->
<g id="node5" class="node">
<title>Node5</title>
<g id="a_node5"><a xlink:href="MarmotMaterialMechanical_8h.html" target="_top" xlink:title=" ">
<polygon fill="white" stroke="black" points="138,-112.5 138,-131.5 315,-131.5 315,-112.5 138,-112.5"/>
<text text-anchor="middle" x="226.5" y="-119.5" font-family="Helvetica,sans-Serif" font-size="10.00">Marmot/MarmotMaterialMechanical.h</text>
</a>
</g>
</g>
<!-- Node4&#45;&gt;Node5 -->
<g id="edge4" class="edge">
<title>Node4&#45;&gt;Node5</title>
<path fill="none" stroke="midnightblue" d="M226.5,-168.4C226.5,-160.47 226.5,-150.46 226.5,-141.86"/>
<polygon fill="midnightblue" stroke="midnightblue" points="230,-141.66 226.5,-131.66 223,-141.66 230,-141.66"/>
</g>
<!-- Node6 -->
<g id="node6" class="node">
<title>Node6</title>
<g id="a_node6"><a xlink:href="MarmotMaterial_8h.html" target="_top" xlink:title=" ">
<polygon fill="white" stroke="black" points="162.5,-56.5 162.5,-75.5 290.5,-75.5 290.5,-56.5 162.5,-56.5"/>
<text text-anchor="middle" x="226.5" y="-63.5" font-family="Helvetica,sans-Serif" font-size="10.00">Marmot/MarmotMaterial.h</text>
</a>
</g>
</g>
<!-- Node5&#45;&gt;Node6 -->
<g id="edge5" class="edge">
<title>Node5&#45;&gt;Node6</title>
<path fill="none" stroke="midnightblue" d="M226.5,-112.08C226.5,-105.01 226.5,-94.86 226.5,-85.99"/>
<polygon fill="midnightblue" stroke="midnightblue" points="230,-85.75 226.5,-75.75 223,-85.75 230,-85.75"/>
</g>
<!-- Node7 -->
<g id="node7" class="node">
<title>Node7</title>
<g id="a_node7"><a xlink:href="MarmotUtils_8h.html" target="_top" xlink:title=" ">
<polygon fill="white" stroke="black" points="123,-0.5 123,-19.5 236,-19.5 236,-0.5 123,-0.5"/>
<text text-anchor="middle" x="179.5" y="-7.5" font-family="Helvetica,sans-Serif" font-size="10.00">Marmot/MarmotUtils.h</text>
</a>
</g>
</g>
<!-- Node6&#45;&gt;Node7 -->
<g id="edge6" class="edge">
<title>Node6&#45;&gt;Node7</title>
<path fill="none" stroke="midnightblue" d="M218.74,-56.08C211.96,-48.3 201.96,-36.8 193.74,-27.37"/>
<polygon fill="midnightblue" stroke="midnightblue" points="196.32,-25 187.12,-19.75 191.04,-29.59 196.32,-25"/>
</g>
<!-- Node8 -->
<g id="node8" class="node">
<title>Node8</title>
<g id="a_node8"><a xlink:title=" ">
<polygon fill="white" stroke="#bfbfbf" points="254,-0.5 254,-19.5 295,-19.5 295,-0.5 254,-0.5"/>
<text text-anchor="middle" x="274.5" y="-7.5" font-family="Helvetica,sans-Serif" font-size="10.00">string</text>
</a>
</g>
</g>
<!-- Node6&#45;&gt;Node8 -->
<g id="edge7" class="edge">
<title>Node6&#45;&gt;Node8</title>
<path fill="none" stroke="midnightblue" d="M234.43,-56.08C241.35,-48.3 251.57,-36.8 259.95,-27.37"/>
<polygon fill="midnightblue" stroke="midnightblue" points="262.69,-29.55 266.72,-19.75 257.46,-24.9 262.69,-29.55"/>
</g>
</g>
</svg>
