<?xml version="1.0" encoding="UTF-8" standalone="no"?>
<!DOCTYPE svg PUBLIC "-//W3C//DTD SVG 1.1//EN"
 "http://www.w3.org/Graphics/SVG/1.1/DTD/svg11.dtd">
<!-- Generated by graphviz version 3.0.0 (20220413.0106)
 -->
<!-- Title: modules/core/MarmotMechanicsCore/src/MarmotMaterialHypoElasticNonLocal.cpp Pages: 1 -->
<svg width="867pt" height="363pt"
 viewBox="0.00 0.00 867.41 363.00" xmlns="http://www.w3.org/2000/svg" xmlns:xlink="http://www.w3.org/1999/xlink">
<g id="graph0" class="graph" transform="scale(1 1) rotate(0) translate(4 359)">
<title>modules/core/MarmotMechanicsCore/src/MarmotMaterialHypoElasticNonLocal.cpp</title>
<polygon fill="white" stroke="transparent" points="-4,4 -4,-359 863.41,-359 863.41,4 -4,4"/>
<!-- Node1 -->
<g id="node1" class="node">
<title>Node1</title>
<g id="a_node1"><a xlink:title=" ">
<polygon fill="#bfbfbf" stroke="black" points="268.91,-313.5 268.91,-354.5 444.91,-354.5 444.91,-313.5 268.91,-313.5"/>
<text text-anchor="start" x="276.91" y="-342.5" font-family="Helvetica,sans-Serif" font-size="10.00">modules/core/MarmotMechanics</text>
<text text-anchor="start" x="276.91" y="-331.5" font-family="Helvetica,sans-Serif" font-size="10.00">Core/src/MarmotMaterialHypoElastic</text>
<text text-anchor="middle" x="356.91" y="-320.5" font-family="Helvetica,sans-Serif" font-size="10.00">NonLocal.cpp</text>
</a>
</g>
</g>
<!-- Node2 -->
<g id="node2" class="node">
<title>Node2</title>
<g id="a_node2"><a xlink:href="HughesWinget_8h.html" target="_top" xlink:title=" ">
<polygon fill="white" stroke="black" points="219.91,-252 219.91,-271 343.91,-271 343.91,-252 219.91,-252"/>
<text text-anchor="middle" x="281.91" y="-259" font-family="Helvetica,sans-Serif" font-size="10.00">Marmot/HughesWinget.h</text>
</a>
</g>
</g>
<!-- Node1&#45;&gt;Node2 -->
<g id="edge1" class="edge">
<title>Node1&#45;&gt;Node2</title>
<path fill="none" stroke="midnightblue" d="M336.02,-313.36C324.16,-302.21 309.52,-288.46 298.46,-278.06"/>
<polygon fill="midnightblue" stroke="midnightblue" points="300.82,-275.47 291.13,-271.17 296.02,-280.57 300.82,-275.47"/>
</g>
<!-- Node3 -->
<g id="node3" class="node">
<title>Node3</title>
<g id="a_node3"><a xlink:href="MarmotVoigt_8h.html" target="_top" xlink:title=" ">
<polygon fill="white" stroke="black" points="232.91,-185 232.91,-204 348.91,-204 348.91,-185 232.91,-185"/>
<text text-anchor="middle" x="290.91" y="-192" font-family="Helvetica,sans-Serif" font-size="10.00">Marmot/MarmotVoigt.h</text>
</a>
</g>
</g>
<!-- Node1&#45;&gt;Node3 -->
<g id="edge36" class="edge">
<title>Node1&#45;&gt;Node3</title>
<path fill="none" stroke="midnightblue" d="M268.79,-330.46C181.74,-325.87 57.33,-313.02 26.91,-277 -29.23,-210.53 126.72,-197.34 222.4,-195.29"/>
<polygon fill="midnightblue" stroke="midnightblue" points="222.67,-198.79 232.61,-195.11 222.55,-191.79 222.67,-198.79"/>
</g>
<!-- Node4 -->
<g id="node4" class="node">
<title>Node4</title>
<g id="a_node4"><a xlink:href="MarmotJournal_8h.html" target="_top" xlink:title=" ">
<polygon fill="white" stroke="black" points="482.41,-123.5 482.41,-142.5 607.41,-142.5 607.41,-123.5 482.41,-123.5"/>
<text text-anchor="middle" x="544.91" y="-130.5" font-family="Helvetica,sans-Serif" font-size="10.00">Marmot/MarmotJournal.h</text>
</a>
</g>
</g>
<!-- Node1&#45;&gt;Node4 -->
<g id="edge17" class="edge">
<title>Node1&#45;&gt;Node4</title>
<path fill="none" stroke="midnightblue" d="M445.05,-328.56C523.09,-322.57 628.61,-308.7 654.91,-277 693.29,-230.74 612.3,-173.47 569.35,-147.7"/>
<polygon fill="midnightblue" stroke="midnightblue" points="570.97,-144.59 560.57,-142.55 567.43,-150.63 570.97,-144.59"/>
</g>
<!-- Node8 -->
<g id="node8" class="node">
<title>Node8</title>
<g id="a_node8"><a xlink:href="MarmotMath_8h.html" target="_top" xlink:title=" ">
<polygon fill="white" stroke="black" points="152.41,-123.5 152.41,-142.5 267.41,-142.5 267.41,-123.5 152.41,-123.5"/>
<text text-anchor="middle" x="209.91" y="-130.5" font-family="Helvetica,sans-Serif" font-size="10.00">Marmot/MarmotMath.h</text>
</a>
</g>
</g>
<!-- Node1&#45;&gt;Node8 -->
<g id="edge29" class="edge">
<title>Node1&#45;&gt;Node8</title>
<path fill="none" stroke="midnightblue" d="M268.59,-331.22C177.48,-327.3 44.25,-315.01 11.91,-277 -40.31,-215.62 94.14,-166.56 166.87,-145.36"/>
<polygon fill="midnightblue" stroke="midnightblue" points="168.04,-148.66 176.7,-142.55 166.12,-141.93 168.04,-148.66"/>
</g>
<!-- Node17 -->
<g id="node17" class="node">
<title>Node17</title>
<g id="a_node17"><a xlink:href="MarmotKinematics_8h.html" target="_top" xlink:title=" ">
<polygon fill="white" stroke="black" points="361.91,-252 361.91,-271 503.91,-271 503.91,-252 361.91,-252"/>
<text text-anchor="middle" x="432.91" y="-259" font-family="Helvetica,sans-Serif" font-size="10.00">Marmot/MarmotKinematics.h</text>
</a>
</g>
</g>
<!-- Node1&#45;&gt;Node17 -->
<g id="edge18" class="edge">
<title>Node1&#45;&gt;Node17</title>
<path fill="none" stroke="midnightblue" d="M378.08,-313.36C390.09,-302.21 404.92,-288.46 416.13,-278.06"/>
<polygon fill="midnightblue" stroke="midnightblue" points="418.61,-280.54 423.56,-271.17 413.85,-275.41 418.61,-280.54"/>
</g>
<!-- Node18 -->
<g id="node18" class="node">
<title>Node18</title>
<g id="a_node18"><a xlink:href="MarmotLowerDimensionalStress_8h.html" target="_top" xlink:title=" ">
<polygon fill="white" stroke="black" points="35.91,-246.5 35.91,-276.5 201.91,-276.5 201.91,-246.5 35.91,-246.5"/>
<text text-anchor="start" x="43.91" y="-264.5" font-family="Helvetica,sans-Serif" font-size="10.00">Marmot/MarmotLowerDimensional</text>
<text text-anchor="middle" x="118.91" y="-253.5" font-family="Helvetica,sans-Serif" font-size="10.00">Stress.h</text>
</a>
</g>
</g>
<!-- Node1&#45;&gt;Node18 -->
<g id="edge22" class="edge">
<title>Node1&#45;&gt;Node18</title>
<path fill="none" stroke="midnightblue" d="M290.93,-313.46C254.99,-302.81 210.95,-289.76 176.43,-279.54"/>
<polygon fill="midnightblue" stroke="midnightblue" points="177.08,-276.08 166.5,-276.6 175.09,-282.79 177.08,-276.08"/>
</g>
<!-- Node19 -->
<g id="node19" class="node">
<title>Node19</title>
<g id="a_node19"><a xlink:href="MarmotMaterialGradientEnhancedHypoElastic_8h.html" target="_top" xlink:title=" ">
<polygon fill="white" stroke="black" points="702.41,-246.5 702.41,-276.5 859.41,-276.5 859.41,-246.5 702.41,-246.5"/>
<text text-anchor="start" x="710.41" y="-264.5" font-family="Helvetica,sans-Serif" font-size="10.00">Marmot/MarmotMaterialGradient</text>
<text text-anchor="middle" x="780.91" y="-253.5" font-family="Helvetica,sans-Serif" font-size="10.00">EnhancedHypoElastic.h</text>
</a>
</g>
</g>
<!-- Node1&#45;&gt;Node19 -->
<g id="edge24" class="edge">
<title>Node1&#45;&gt;Node19</title>
<path fill="none" stroke="midnightblue" d="M445.02,-318.35C517.43,-306.31 619.56,-289.33 692.15,-277.26"/>
<polygon fill="midnightblue" stroke="midnightblue" points="692.9,-280.68 702.19,-275.59 691.76,-273.78 692.9,-280.68"/>
</g>
<!-- Node23 -->
<g id="node23" class="node">
<title>Node23</title>
<g id="a_node23"><a xlink:href="MarmotTensor_8h.html" target="_top" xlink:title=" ">
<polygon fill="white" stroke="black" points="522.41,-252 522.41,-271 645.41,-271 645.41,-252 522.41,-252"/>
<text text-anchor="middle" x="583.91" y="-259" font-family="Helvetica,sans-Serif" font-size="10.00">Marmot/MarmotTensor.h</text>
</a>
</g>
</g>
<!-- Node1&#45;&gt;Node23 -->
<g id="edge30" class="edge">
<title>Node1&#45;&gt;Node23</title>
<path fill="none" stroke="midnightblue" d="M419.84,-313.46C460.68,-300.77 512.5,-284.68 546.86,-274.01"/>
<polygon fill="midnightblue" stroke="midnightblue" points="547.98,-277.32 556.5,-271.01 545.91,-270.64 547.98,-277.32"/>
</g>
<!-- Node2&#45;&gt;Node3 -->
<g id="edge2" class="edge">
<title>Node2&#45;&gt;Node3</title>
<path fill="none" stroke="midnightblue" d="M283.12,-251.73C284.44,-242.18 286.6,-226.62 288.31,-214.28"/>
<polygon fill="midnightblue" stroke="midnightblue" points="291.81,-214.51 289.71,-204.13 284.87,-213.55 291.81,-214.51"/>
</g>
<!-- Node3&#45;&gt;Node4 -->
<g id="edge3" class="edge">
<title>Node3&#45;&gt;Node4</title>
<path fill="none" stroke="midnightblue" d="M327.3,-184.98C372.47,-174.39 449.56,-156.34 498.82,-144.8"/>
<polygon fill="midnightblue" stroke="midnightblue" points="499.64,-148.2 508.58,-142.51 498.05,-141.38 499.64,-148.2"/>
</g>
<!-- Node3&#45;&gt;Node8 -->
<g id="edge7" class="edge">
<title>Node3&#45;&gt;Node8</title>
<path fill="none" stroke="midnightblue" d="M279.3,-184.98C266.43,-175.52 245.43,-160.1 229.9,-148.69"/>
<polygon fill="midnightblue" stroke="midnightblue" points="231.62,-145.61 221.49,-142.51 227.48,-151.25 231.62,-145.61"/>
</g>
<!-- Node11 -->
<g id="node11" class="node">
<title>Node11</title>
<g id="a_node11"><a xlink:href="MarmotTypedefs_8h.html" target="_top" xlink:title=" ">
<polygon fill="white" stroke="black" points="319.41,-67.5 319.41,-86.5 452.41,-86.5 452.41,-67.5 319.41,-67.5"/>
<text text-anchor="middle" x="385.91" y="-74.5" font-family="Helvetica,sans-Serif" font-size="10.00">Marmot/MarmotTypedefs.h</text>
</a>
</g>
</g>
<!-- Node3&#45;&gt;Node11 -->
<g id="edge16" class="edge">
<title>Node3&#45;&gt;Node11</title>
<path fill="none" stroke="midnightblue" d="M298.05,-184.82C313.8,-165.67 351.74,-119.54 372.23,-94.63"/>
<polygon fill="midnightblue" stroke="midnightblue" points="375.03,-96.73 378.68,-86.78 369.63,-92.28 375.03,-96.73"/>
</g>
<!-- Node5 -->
<g id="node5" class="node">
<title>Node5</title>
<g id="a_node5"><a xlink:title=" ">
<polygon fill="white" stroke="#bfbfbf" points="590.91,-67.5 590.91,-86.5 644.91,-86.5 644.91,-67.5 590.91,-67.5"/>
<text text-anchor="middle" x="617.91" y="-74.5" font-family="Helvetica,sans-Serif" font-size="10.00">iostream</text>
</a>
</g>
</g>
<!-- Node4&#45;&gt;Node5 -->
<g id="edge4" class="edge">
<title>Node4&#45;&gt;Node5</title>
<path fill="none" stroke="midnightblue" d="M556.64,-123.32C567.74,-115.11 584.65,-102.6 597.89,-92.81"/>
<polygon fill="midnightblue" stroke="midnightblue" points="600.01,-95.59 605.97,-86.83 595.84,-89.97 600.01,-95.59"/>
</g>
<!-- Node6 -->
<g id="node6" class="node">
<title>Node6</title>
<g id="a_node6"><a xlink:title=" ">
<polygon fill="white" stroke="#bfbfbf" points="518.91,-67.5 518.91,-86.5 570.91,-86.5 570.91,-67.5 518.91,-67.5"/>
<text text-anchor="middle" x="544.91" y="-74.5" font-family="Helvetica,sans-Serif" font-size="10.00">sstream</text>
</a>
</g>
</g>
<!-- Node4&#45;&gt;Node6 -->
<g id="edge5" class="edge">
<title>Node4&#45;&gt;Node6</title>
<path fill="none" stroke="midnightblue" d="M544.91,-123.08C544.91,-116.01 544.91,-105.86 544.91,-96.99"/>
<polygon fill="midnightblue" stroke="midnightblue" points="548.41,-96.75 544.91,-86.75 541.41,-96.75 548.41,-96.75"/>
</g>
<!-- Node7 -->
<g id="node7" class="node">
<title>Node7</title>
<g id="a_node7"><a xlink:title=" ">
<polygon fill="white" stroke="#bfbfbf" points="664.41,-67.5 664.41,-86.5 705.41,-86.5 705.41,-67.5 664.41,-67.5"/>
<text text-anchor="middle" x="684.91" y="-74.5" font-family="Helvetica,sans-Serif" font-size="10.00">string</text>
</a>
</g>
</g>
<!-- Node4&#45;&gt;Node7 -->
<g id="edge6" class="edge">
<title>Node4&#45;&gt;Node7</title>
<path fill="none" stroke="midnightblue" d="M567.09,-123.44C590.75,-114.32 628.36,-99.81 654.7,-89.65"/>
<polygon fill="midnightblue" stroke="midnightblue" points="656.13,-92.85 664.2,-85.99 653.61,-86.32 656.13,-92.85"/>
</g>
<!-- Node9 -->
<g id="node9" class="node">
<title>Node9</title>
<g id="a_node9"><a xlink:href="MarmotConstants_8h.html" target="_top" xlink:title=" ">
<polygon fill="white" stroke="black" points="89.41,-67.5 89.41,-86.5 226.41,-86.5 226.41,-67.5 89.41,-67.5"/>
<text text-anchor="middle" x="157.91" y="-74.5" font-family="Helvetica,sans-Serif" font-size="10.00">Marmot/MarmotConstants.h</text>
</a>
</g>
</g>
<!-- Node8&#45;&gt;Node9 -->
<g id="edge8" class="edge">
<title>Node8&#45;&gt;Node9</title>
<path fill="none" stroke="midnightblue" d="M201.32,-123.08C193.75,-115.22 182.53,-103.57 173.39,-94.08"/>
<polygon fill="midnightblue" stroke="midnightblue" points="175.79,-91.53 166.33,-86.75 170.75,-96.38 175.79,-91.53"/>
</g>
<!-- Node8&#45;&gt;Node11 -->
<g id="edge10" class="edge">
<title>Node8&#45;&gt;Node11</title>
<path fill="none" stroke="midnightblue" d="M237.8,-123.44C267.66,-114.28 315.22,-99.69 348.36,-89.52"/>
<polygon fill="midnightblue" stroke="midnightblue" points="349.62,-92.8 358.15,-86.52 347.56,-86.1 349.62,-92.8"/>
</g>
<!-- Node15 -->
<g id="node15" class="node">
<title>Node15</title>
<g id="a_node15"><a xlink:title=" ">
<polygon fill="white" stroke="#bfbfbf" points="244.91,-67.5 244.91,-86.5 300.91,-86.5 300.91,-67.5 244.91,-67.5"/>
<text text-anchor="middle" x="272.91" y="-74.5" font-family="Helvetica,sans-Serif" font-size="10.00">algorithm</text>
</a>
</g>
</g>
<!-- Node8&#45;&gt;Node15 -->
<g id="edge14" class="edge">
<title>Node8&#45;&gt;Node15</title>
<path fill="none" stroke="midnightblue" d="M220.03,-123.32C229.43,-115.26 243.65,-103.08 254.98,-93.37"/>
<polygon fill="midnightblue" stroke="midnightblue" points="257.29,-96 262.6,-86.83 252.73,-90.68 257.29,-96"/>
</g>
<!-- Node16 -->
<g id="node16" class="node">
<title>Node16</title>
<g id="a_node16"><a xlink:title=" ">
<polygon fill="white" stroke="#bfbfbf" points="18.41,-67.5 18.41,-86.5 71.41,-86.5 71.41,-67.5 18.41,-67.5"/>
<text text-anchor="middle" x="44.91" y="-74.5" font-family="Helvetica,sans-Serif" font-size="10.00">complex</text>
</a>
</g>
</g>
<!-- Node8&#45;&gt;Node16 -->
<g id="edge15" class="edge">
<title>Node8&#45;&gt;Node16</title>
<path fill="none" stroke="midnightblue" d="M183.76,-123.44C155.88,-114.32 111.56,-99.81 80.51,-89.65"/>
<polygon fill="midnightblue" stroke="midnightblue" points="81.52,-86.3 70.93,-86.52 79.35,-92.95 81.52,-86.3"/>
</g>
<!-- Node10 -->
<g id="node10" class="node">
<title>Node10</title>
<g id="a_node10"><a xlink:title=" ">
<polygon fill="white" stroke="#bfbfbf" points="135.91,-6 135.91,-25 179.91,-25 179.91,-6 135.91,-6"/>
<text text-anchor="middle" x="157.91" y="-13" font-family="Helvetica,sans-Serif" font-size="10.00">cmath</text>
</a>
</g>
</g>
<!-- Node9&#45;&gt;Node10 -->
<g id="edge9" class="edge">
<title>Node9&#45;&gt;Node10</title>
<path fill="none" stroke="midnightblue" d="M157.91,-67.48C157.91,-59.08 157.91,-45.98 157.91,-35.16"/>
<polygon fill="midnightblue" stroke="midnightblue" points="161.41,-35.01 157.91,-25.01 154.41,-35.01 161.41,-35.01"/>
</g>
<!-- Node12 -->
<g id="node12" class="node">
<title>Node12</title>
<g id="a_node12"><a xlink:title=" ">
<polygon fill="white" stroke="#bfbfbf" points="469.91,-6 469.91,-25 533.91,-25 533.91,-6 469.91,-6"/>
<text text-anchor="middle" x="501.91" y="-13" font-family="Helvetica,sans-Serif" font-size="10.00">Eigen/Core</text>
</a>
</g>
</g>
<!-- Node11&#45;&gt;Node12 -->
<g id="edge11" class="edge">
<title>Node11&#45;&gt;Node12</title>
<path fill="none" stroke="midnightblue" d="M402.53,-67.48C421.82,-57.58 453.87,-41.14 476.34,-29.62"/>
<polygon fill="midnightblue" stroke="midnightblue" points="478.02,-32.69 485.32,-25.01 474.82,-26.46 478.02,-32.69"/>
</g>
<!-- Node13 -->
<g id="node13" class="node">
<title>Node13</title>
<g id="a_node13"><a xlink:title=" ">
<polygon fill="white" stroke="#bfbfbf" points="231.41,-6 231.41,-25 302.41,-25 302.41,-6 231.41,-6"/>
<text text-anchor="middle" x="266.91" y="-13" font-family="Helvetica,sans-Serif" font-size="10.00">Eigen/Dense</text>
</a>
</g>
</g>
<!-- Node11&#45;&gt;Node13 -->
<g id="edge12" class="edge">
<title>Node11&#45;&gt;Node13</title>
<path fill="none" stroke="midnightblue" d="M368.86,-67.48C349.06,-57.58 316.19,-41.14 293.14,-29.62"/>
<polygon fill="midnightblue" stroke="midnightblue" points="294.44,-26.35 283.93,-25.01 291.3,-32.61 294.44,-26.35"/>
</g>
<!-- Node14 -->
<g id="node14" class="node">
<title>Node14</title>
<g id="a_node14"><a xlink:title=" ">
<polygon fill="white" stroke="#bfbfbf" points="320.41,-0.5 320.41,-30.5 451.41,-30.5 451.41,-0.5 320.41,-0.5"/>
<text text-anchor="start" x="328.41" y="-18.5" font-family="Helvetica,sans-Serif" font-size="10.00">unsupported/Eigen/CXX11</text>
<text text-anchor="middle" x="385.91" y="-7.5" font-family="Helvetica,sans-Serif" font-size="10.00">/Tensor</text>
</a>
</g>
</g>
<!-- Node11&#45;&gt;Node14 -->
<g id="edge13" class="edge">
<title>Node11&#45;&gt;Node14</title>
<path fill="none" stroke="midnightblue" d="M385.91,-67.48C385.91,-60.47 385.91,-50.19 385.91,-40.7"/>
<polygon fill="midnightblue" stroke="midnightblue" points="389.41,-40.52 385.91,-30.52 382.41,-40.52 389.41,-40.52"/>
</g>
<!-- Node17&#45;&gt;Node3 -->
<g id="edge21" class="edge">
<title>Node17&#45;&gt;Node3</title>
<path fill="none" stroke="midnightblue" d="M414.05,-251.87C389.76,-240.75 347.31,-221.32 319.15,-208.43"/>
<polygon fill="midnightblue" stroke="midnightblue" points="320.39,-205.15 309.84,-204.17 317.48,-211.51 320.39,-205.15"/>
</g>
<!-- Node17&#45;&gt;Node4 -->
<g id="edge19" class="edge">
<title>Node17&#45;&gt;Node4</title>
<path fill="none" stroke="midnightblue" d="M440.61,-251.81C459.15,-230.86 506.52,-177.35 530.52,-150.25"/>
<polygon fill="midnightblue" stroke="midnightblue" points="533.15,-152.56 537.16,-142.76 527.91,-147.92 533.15,-152.56"/>
</g>
<!-- Node17&#45;&gt;Node11 -->
<g id="edge20" class="edge">
<title>Node17&#45;&gt;Node11</title>
<path fill="none" stroke="midnightblue" d="M430.64,-251.7C423.4,-223.57 400.7,-135.46 390.71,-96.66"/>
<polygon fill="midnightblue" stroke="midnightblue" points="394.04,-95.53 388.15,-86.71 387.26,-97.27 394.04,-95.53"/>
</g>
<!-- Node18&#45;&gt;Node3 -->
<g id="edge23" class="edge">
<title>Node18&#45;&gt;Node3</title>
<path fill="none" stroke="midnightblue" d="M156.23,-246.4C186.81,-234.84 229.63,-218.66 258.72,-207.66"/>
<polygon fill="midnightblue" stroke="midnightblue" points="260.28,-210.82 268.4,-204.01 257.81,-204.27 260.28,-210.82"/>
</g>
<!-- Node20 -->
<g id="node20" class="node">
<title>Node20</title>
<g id="a_node20"><a xlink:href="MarmotMaterialGradientEnhancedMechanical_8h.html" target="_top" xlink:title=" ">
<polygon fill="white" stroke="black" points="702.41,-179.5 702.41,-209.5 859.41,-209.5 859.41,-179.5 702.41,-179.5"/>
<text text-anchor="start" x="710.41" y="-197.5" font-family="Helvetica,sans-Serif" font-size="10.00">Marmot/MarmotMaterialGradient</text>
<text text-anchor="middle" x="780.91" y="-186.5" font-family="Helvetica,sans-Serif" font-size="10.00">EnhancedMechanical.h</text>
</a>
</g>
</g>
<!-- Node19&#45;&gt;Node20 -->
<g id="edge25" class="edge">
<title>Node19&#45;&gt;Node20</title>
<path fill="none" stroke="midnightblue" d="M780.91,-246.4C780.91,-238.64 780.91,-228.81 780.91,-219.86"/>
<polygon fill="midnightblue" stroke="midnightblue" points="784.41,-219.58 780.91,-209.58 777.41,-219.58 784.41,-219.58"/>
</g>
<!-- Node21 -->
<g id="node21" class="node">
<title>Node21</title>
<g id="a_node21"><a xlink:href="MarmotMaterial_8h.html" target="_top" xlink:title=" ">
<polygon fill="white" stroke="black" points="715.91,-123.5 715.91,-142.5 843.91,-142.5 843.91,-123.5 715.91,-123.5"/>
<text text-anchor="middle" x="779.91" y="-130.5" font-family="Helvetica,sans-Serif" font-size="10.00">Marmot/MarmotMaterial.h</text>
</a>
</g>
</g>
<!-- Node20&#45;&gt;Node21 -->
<g id="edge26" class="edge">
<title>Node20&#45;&gt;Node21</title>
<path fill="none" stroke="midnightblue" d="M780.67,-179.4C780.54,-171.47 780.37,-161.46 780.22,-152.86"/>
<polygon fill="midnightblue" stroke="midnightblue" points="783.72,-152.6 780.05,-142.66 776.72,-152.72 783.72,-152.6"/>
</g>
<!-- Node21&#45;&gt;Node7 -->
<g id="edge28" class="edge">
<title>Node21&#45;&gt;Node7</title>
<path fill="none" stroke="midnightblue" d="M764.64,-123.32C749.69,-114.82 726.65,-101.73 709.18,-91.8"/>
<polygon fill="midnightblue" stroke="midnightblue" points="710.56,-88.55 700.13,-86.65 707.1,-94.64 710.56,-88.55"/>
</g>
<!-- Node22 -->
<g id="node22" class="node">
<title>Node22</title>
<g id="a_node22"><a xlink:href="MarmotUtils_8h.html" target="_top" xlink:title=" ">
<polygon fill="white" stroke="black" points="723.41,-67.5 723.41,-86.5 836.41,-86.5 836.41,-67.5 723.41,-67.5"/>
<text text-anchor="middle" x="779.91" y="-74.5" font-family="Helvetica,sans-Serif" font-size="10.00">Marmot/MarmotUtils.h</text>
</a>
</g>
</g>
<!-- Node21&#45;&gt;Node22 -->
<g id="edge27" class="edge">
<title>Node21&#45;&gt;Node22</title>
<path fill="none" stroke="midnightblue" d="M779.91,-123.08C779.91,-116.01 779.91,-105.86 779.91,-96.99"/>
<polygon fill="midnightblue" stroke="midnightblue" points="783.41,-96.75 779.91,-86.75 776.41,-96.75 783.41,-96.75"/>
</g>
<!-- Node23&#45;&gt;Node3 -->
<g id="edge33" class="edge">
<title>Node23&#45;&gt;Node3</title>
<path fill="none" stroke="midnightblue" d="M545.3,-251.94C492.38,-240.2 397.31,-219.11 339.58,-206.3"/>
<polygon fill="midnightblue" stroke="midnightblue" points="340.12,-202.83 329.6,-204.08 338.6,-209.67 340.12,-202.83"/>
</g>
<!-- Node23&#45;&gt;Node4 -->
<g id="edge31" class="edge">
<title>Node23&#45;&gt;Node4</title>
<path fill="none" stroke="midnightblue" d="M582.44,-251.79C579.77,-236.71 573.59,-204.9 564.91,-179 561.85,-169.88 557.62,-160.09 553.83,-151.97"/>
<polygon fill="midnightblue" stroke="midnightblue" points="556.89,-150.26 549.4,-142.77 550.58,-153.3 556.89,-150.26"/>
</g>
<!-- Node23&#45;&gt;Node5 -->
<g id="edge34" class="edge">
<title>Node23&#45;&gt;Node5</title>
<path fill="none" stroke="midnightblue" d="M587.18,-251.82C594.26,-232.58 610.83,-184.73 616.91,-143 619.15,-127.62 619.27,-109.99 618.9,-96.97"/>
<polygon fill="midnightblue" stroke="midnightblue" points="622.39,-96.74 618.49,-86.89 615.4,-97.02 622.39,-96.74"/>
</g>
<!-- Node23&#45;&gt;Node11 -->
<g id="edge32" class="edge">
<title>Node23&#45;&gt;Node11</title>
<path fill="none" stroke="midnightblue" d="M568.89,-251.98C553,-242.64 527.56,-226.75 507.91,-210 464.16,-172.73 420.21,-120.76 399,-94.54"/>
<polygon fill="midnightblue" stroke="midnightblue" points="401.69,-92.3 392.71,-86.69 396.23,-96.68 401.69,-92.3"/>
</g>
<!-- Node24 -->
<g id="node24" class="node">
<title>Node24</title>
<g id="a_node24"><a xlink:title=" ">
<polygon fill="white" stroke="#bfbfbf" points="516.41,-185 516.41,-204 555.41,-204 555.41,-185 516.41,-185"/>
<text text-anchor="middle" x="535.91" y="-192" font-family="Helvetica,sans-Serif" font-size="10.00">utility</text>
</a>
</g>
</g>
<!-- Node23&#45;&gt;Node24 -->
<g id="edge35" class="edge">
<title>Node23&#45;&gt;Node24</title>
<path fill="none" stroke="midnightblue" d="M577.43,-251.73C570.02,-241.7 557.7,-225.01 548.4,-212.42"/>
<polygon fill="midnightblue" stroke="midnightblue" points="551.03,-210.09 542.28,-204.13 545.4,-214.25 551.03,-210.09"/>
</g>
</g>
</svg>
