<?xml version="1.0" encoding="UTF-8" standalone="no"?>
<!DOCTYPE svg PUBLIC "-//W3C//DTD SVG 1.1//EN"
 "http://www.w3.org/Graphics/SVG/1.1/DTD/svg11.dtd">
<!-- Generated by graphviz version 3.0.0 (20220413.0106)
 -->
<!-- Title: modules/core/MarmotMechanicsCore/include/Marmot/MarmotTypedefs.h Pages: 1 -->
<svg width="3460pt" height="273pt"
 viewBox="0.00 0.00 3459.50 273.00" xmlns="http://www.w3.org/2000/svg" xmlns:xlink="http://www.w3.org/1999/xlink">
<g id="graph0" class="graph" transform="scale(1 1) rotate(0) translate(4 269)">
<title>modules/core/MarmotMechanicsCore/include/Marmot/MarmotTypedefs.h</title>
<polygon fill="white" stroke="transparent" points="-4,4 -4,-269 3455.5,-269 3455.5,4 -4,4"/>
<!-- Node1 -->
<g id="node1" class="node">
<title>Node1</title>
<g id="a_node1"><a xlink:title=" ">
<polygon fill="#bfbfbf" stroke="black" points="1994,-234.5 1994,-264.5 2184,-264.5 2184,-234.5 1994,-234.5"/>
<text text-anchor="start" x="2002" y="-252.5" font-family="Helvetica,sans-Serif" font-size="10.00">modules/core/MarmotMechanics</text>
<text text-anchor="middle" x="2089" y="-241.5" font-family="Helvetica,sans-Serif" font-size="10.00">Core/include/Marmot/MarmotTypedefs.h</text>
</a>
</g>
</g>
<!-- Node2 -->
<g id="node2" class="node">
<title>Node2</title>
<g id="a_node2"><a xlink:href="AdaptiveSubstepper_8h.html" target="_top" xlink:title=" ">
<polygon fill="white" stroke="black" points="520.5,-162 520.5,-192 725.5,-192 725.5,-162 520.5,-162"/>
<text text-anchor="start" x="528.5" y="-180" font-family="Helvetica,sans-Serif" font-size="10.00">modules/core/MarmotMechanics</text>
<text text-anchor="middle" x="623" y="-169" font-family="Helvetica,sans-Serif" font-size="10.00">Core/include/Marmot/AdaptiveSubstepper.h</text>
</a>
</g>
</g>
<!-- Node1&#45;&gt;Node2 -->
<g id="edge1" class="edge">
<title>Node1&#45;&gt;Node2</title>
<path fill="none" stroke="midnightblue" d="M1983.59,-246.5C1708.89,-240.96 975.61,-224.14 734,-198 720.47,-196.54 706.11,-194.39 692.36,-192.05"/>
<polygon fill="midnightblue" stroke="midnightblue" points="1983.89,-250 1993.96,-246.7 1984.03,-243 1983.89,-250"/>
</g>
<!-- Node3 -->
<g id="node3" class="node">
<title>Node3</title>
<g id="a_node3"><a xlink:href="AdaptiveSubstepperExplicit_8h.html" target="_top" xlink:title=" ">
<polygon fill="white" stroke="black" points="743.5,-156.5 743.5,-197.5 940.5,-197.5 940.5,-156.5 743.5,-156.5"/>
<text text-anchor="start" x="751.5" y="-185.5" font-family="Helvetica,sans-Serif" font-size="10.00">modules/core/MarmotMechanics</text>
<text text-anchor="start" x="751.5" y="-174.5" font-family="Helvetica,sans-Serif" font-size="10.00">Core/include/Marmot/AdaptiveSubstepper</text>
<text text-anchor="middle" x="842" y="-163.5" font-family="Helvetica,sans-Serif" font-size="10.00">Explicit.h</text>
</a>
</g>
</g>
<!-- Node1&#45;&gt;Node3 -->
<g id="edge2" class="edge">
<title>Node1&#45;&gt;Node3</title>
<path fill="none" stroke="midnightblue" d="M1983.49,-248.7C1781.96,-248 1328.62,-241.24 950,-198 946.87,-197.64 943.7,-197.25 940.5,-196.82"/>
<polygon fill="midnightblue" stroke="midnightblue" points="1983.76,-252.2 1993.77,-248.73 1983.78,-245.2 1983.76,-252.2"/>
</g>
<!-- Node4 -->
<g id="node4" class="node">
<title>Node4</title>
<g id="a_node4"><a xlink:href="DuvautLionsViscosity_8h.html" target="_top" xlink:title=" ">
<polygon fill="white" stroke="black" points="959,-156.5 959,-197.5 1123,-197.5 1123,-156.5 959,-156.5"/>
<text text-anchor="start" x="967" y="-185.5" font-family="Helvetica,sans-Serif" font-size="10.00">modules/core/MarmotMechanics</text>
<text text-anchor="start" x="967" y="-174.5" font-family="Helvetica,sans-Serif" font-size="10.00">Core/include/Marmot/DuvautLions</text>
<text text-anchor="middle" x="1041" y="-163.5" font-family="Helvetica,sans-Serif" font-size="10.00">Viscosity.h</text>
</a>
</g>
</g>
<!-- Node1&#45;&gt;Node4 -->
<g id="edge3" class="edge">
<title>Node1&#45;&gt;Node4</title>
<path fill="none" stroke="midnightblue" d="M1983.95,-248.14C1808,-246.38 1442.91,-237.74 1137,-198 1132.44,-197.41 1127.78,-196.72 1123.08,-195.96"/>
<polygon fill="midnightblue" stroke="midnightblue" points="1983.95,-251.64 1993.98,-248.24 1984.01,-244.65 1983.95,-251.64"/>
</g>
<!-- Node5 -->
<g id="node5" class="node">
<title>Node5</title>
<g id="a_node5"><a xlink:href="HaighWestergaard_8h.html" target="_top" xlink:title=" ">
<polygon fill="white" stroke="black" points="1370.5,-84 1370.5,-114 1567.5,-114 1567.5,-84 1370.5,-84"/>
<text text-anchor="start" x="1378.5" y="-102" font-family="Helvetica,sans-Serif" font-size="10.00">modules/core/MarmotMechanics</text>
<text text-anchor="middle" x="1469" y="-91" font-family="Helvetica,sans-Serif" font-size="10.00">Core/include/Marmot/HaighWestergaard.h</text>
</a>
</g>
</g>
<!-- Node1&#45;&gt;Node5 -->
<g id="edge4" class="edge">
<title>Node1&#45;&gt;Node5</title>
<path fill="none" stroke="midnightblue" d="M1997.6,-232.66C1947.1,-223.47 1883.36,-211.13 1827,-198 1714.5,-171.8 1584.03,-134.24 1515.91,-114.08"/>
<polygon fill="midnightblue" stroke="midnightblue" points="1997.06,-236.12 2007.52,-234.46 1998.3,-229.23 1997.06,-236.12"/>
</g>
<!-- Node8 -->
<g id="node8" class="node">
<title>Node8</title>
<g id="a_node8"><a xlink:href="InnerNewtonIterationChecker_8h.html" target="_top" xlink:title=" ">
<polygon fill="white" stroke="black" points="2555.5,-156.5 2555.5,-197.5 2720.5,-197.5 2720.5,-156.5 2555.5,-156.5"/>
<text text-anchor="start" x="2563.5" y="-185.5" font-family="Helvetica,sans-Serif" font-size="10.00">modules/core/MarmotMechanics</text>
<text text-anchor="start" x="2563.5" y="-174.5" font-family="Helvetica,sans-Serif" font-size="10.00">Core/include/Marmot/InnerNewton</text>
<text text-anchor="middle" x="2638" y="-163.5" font-family="Helvetica,sans-Serif" font-size="10.00">IterationChecker.h</text>
</a>
</g>
</g>
<!-- Node1&#45;&gt;Node8 -->
<g id="edge7" class="edge">
<title>Node1&#45;&gt;Node8</title>
<path fill="none" stroke="midnightblue" d="M2194.28,-239.5C2286.12,-231 2422.8,-216.75 2541,-198 2545.67,-197.26 2550.46,-196.45 2555.28,-195.59"/>
<polygon fill="midnightblue" stroke="midnightblue" points="2193.78,-236.04 2184.14,-240.44 2194.42,-243.01 2193.78,-236.04"/>
</g>
<!-- Node10 -->
<g id="node10" class="node">
<title>Node10</title>
<g id="a_node10"><a xlink:href="InnerNewtonIterationCheckerMarkII_8h.html" target="_top" xlink:title=" ">
<polygon fill="white" stroke="black" points="2738.5,-156.5 2738.5,-197.5 2903.5,-197.5 2903.5,-156.5 2738.5,-156.5"/>
<text text-anchor="start" x="2746.5" y="-185.5" font-family="Helvetica,sans-Serif" font-size="10.00">modules/core/MarmotMechanics</text>
<text text-anchor="start" x="2746.5" y="-174.5" font-family="Helvetica,sans-Serif" font-size="10.00">Core/include/Marmot/InnerNewton</text>
<text text-anchor="middle" x="2821" y="-163.5" font-family="Helvetica,sans-Serif" font-size="10.00">IterationCheckerMarkII.h</text>
</a>
</g>
</g>
<!-- Node1&#45;&gt;Node10 -->
<g id="edge9" class="edge">
<title>Node1&#45;&gt;Node10</title>
<path fill="none" stroke="midnightblue" d="M2194.36,-244.65C2321.79,-238.97 2542.54,-225.85 2730,-198 2732.72,-197.6 2735.48,-197.16 2738.26,-196.69"/>
<polygon fill="midnightblue" stroke="midnightblue" points="2194.06,-241.16 2184.22,-245.1 2194.36,-248.15 2194.06,-241.16"/>
</g>
<!-- Node12 -->
<g id="node12" class="node">
<title>Node12</title>
<g id="a_node12"><a xlink:href="MarmotKinematics_8h.html" target="_top" xlink:title=" ">
<polygon fill="white" stroke="black" points="561.5,-84 561.5,-114 760.5,-114 760.5,-84 561.5,-84"/>
<text text-anchor="start" x="569.5" y="-102" font-family="Helvetica,sans-Serif" font-size="10.00">modules/core/MarmotMechanics</text>
<text text-anchor="middle" x="661" y="-91" font-family="Helvetica,sans-Serif" font-size="10.00">Core/include/Marmot/MarmotKinematics.h</text>
</a>
</g>
</g>
<!-- Node1&#45;&gt;Node12 -->
<g id="edge11" class="edge">
<title>Node1&#45;&gt;Node12</title>
<path fill="none" stroke="midnightblue" d="M1983.59,-247.6C1756.54,-244.97 1236.02,-234.95 1165,-198 1143.94,-187.04 1152.82,-167.41 1132,-156 1060.14,-116.62 846.1,-131.75 765,-120 753.35,-118.31 741.03,-116.22 729.1,-114.03"/>
<polygon fill="midnightblue" stroke="midnightblue" points="1983.81,-251.11 1993.85,-247.72 1983.89,-244.11 1983.81,-251.11"/>
</g>
<!-- Node18 -->
<g id="node18" class="node">
<title>Node18</title>
<g id="a_node18"><a xlink:href="MarmotMath_8h.html" target="_top" xlink:title=" ">
<polygon fill="white" stroke="black" points="1586,-84 1586,-114 1758,-114 1758,-84 1586,-84"/>
<text text-anchor="start" x="1594" y="-102" font-family="Helvetica,sans-Serif" font-size="10.00">modules/core/MarmotMechanics</text>
<text text-anchor="middle" x="1672" y="-91" font-family="Helvetica,sans-Serif" font-size="10.00">Core/include/Marmot/MarmotMath.h</text>
</a>
</g>
</g>
<!-- Node1&#45;&gt;Node18 -->
<g id="edge17" class="edge">
<title>Node1&#45;&gt;Node18</title>
<path fill="none" stroke="midnightblue" d="M2039.87,-231C1956.22,-201.21 1787.79,-141.23 1711.34,-114.01"/>
<polygon fill="midnightblue" stroke="midnightblue" points="2038.8,-234.34 2049.39,-234.4 2041.15,-227.74 2038.8,-234.34"/>
</g>
<!-- Node19 -->
<g id="node19" class="node">
<title>Node19</title>
<g id="a_node19"><a xlink:href="PerezFougetSubstepperMarkII_8h.html" target="_top" xlink:title=" ">
<polygon fill="white" stroke="black" points="2449,-0.5 2449,-41.5 2613,-41.5 2613,-0.5 2449,-0.5"/>
<text text-anchor="start" x="2457" y="-29.5" font-family="Helvetica,sans-Serif" font-size="10.00">modules/core/MarmotMechanics</text>
<text text-anchor="start" x="2457" y="-18.5" font-family="Helvetica,sans-Serif" font-size="10.00">Core/include/Marmot/PerezFouget</text>
<text text-anchor="middle" x="2531" y="-7.5" font-family="Helvetica,sans-Serif" font-size="10.00">SubstepperMarkII.h</text>
</a>
</g>
</g>
<!-- Node1&#45;&gt;Node19 -->
<g id="edge63" class="edge">
<title>Node1&#45;&gt;Node19</title>
<path fill="none" stroke="midnightblue" d="M2194.45,-241.42C2288.52,-233.83 2418.38,-219.83 2465,-198 2511.43,-176.25 2529.37,-166.94 2550,-120 2561.3,-94.3 2550.69,-61.88 2541.37,-41.54"/>
<polygon fill="midnightblue" stroke="midnightblue" points="2194.01,-237.95 2184.31,-242.23 2194.56,-244.92 2194.01,-237.95"/>
</g>
<!-- Node22 -->
<g id="node22" class="node">
<title>Node22</title>
<g id="a_node22"><a xlink:href="LinearElastic_8cpp.html" target="_top" xlink:title=" ">
<polygon fill="white" stroke="black" points="2252,-6 2252,-36 2392,-36 2392,-6 2252,-6"/>
<text text-anchor="start" x="2260" y="-24" font-family="Helvetica,sans-Serif" font-size="10.00">modules/materials/Linear</text>
<text text-anchor="middle" x="2322" y="-13" font-family="Helvetica,sans-Serif" font-size="10.00">Elastic/src/LinearElastic.cpp</text>
</a>
</g>
</g>
<!-- Node1&#45;&gt;Node22 -->
<g id="edge70" class="edge">
<title>Node1&#45;&gt;Node22</title>
<path fill="none" stroke="midnightblue" d="M2080.61,-224.6C2069.65,-188.6 2055.52,-120.21 2089,-78 2132.68,-22.93 2174.7,-58.63 2243,-42 2250.84,-40.09 2259.1,-38.04 2267.21,-36.01"/>
<polygon fill="midnightblue" stroke="midnightblue" points="2077.33,-225.8 2083.72,-234.25 2083.99,-223.66 2077.33,-225.8"/>
</g>
<!-- Node23 -->
<g id="node23" class="node">
<title>Node23</title>
<g id="a_node23"><a xlink:href="MarmotTensor_8h.html" target="_top" xlink:title=" ">
<polygon fill="white" stroke="black" points="832,-84 832,-114 1012,-114 1012,-84 832,-84"/>
<text text-anchor="start" x="840" y="-102" font-family="Helvetica,sans-Serif" font-size="10.00">modules/core/MarmotMechanics</text>
<text text-anchor="middle" x="922" y="-91" font-family="Helvetica,sans-Serif" font-size="10.00">Core/include/Marmot/MarmotTensor.h</text>
</a>
</g>
</g>
<!-- Node1&#45;&gt;Node23 -->
<g id="edge27" class="edge">
<title>Node1&#45;&gt;Node23</title>
<path fill="none" stroke="midnightblue" d="M1983.64,-246.59C1765.16,-242.04 1277.29,-228.57 1208,-198 1183.56,-187.22 1188.44,-168.81 1165,-156 1137.5,-140.98 1063.41,-125.04 1004.21,-114.02"/>
<polygon fill="midnightblue" stroke="midnightblue" points="1983.76,-250.1 1993.83,-246.8 1983.91,-243.1 1983.76,-250.1"/>
</g>
<!-- Node26 -->
<g id="node26" class="node">
<title>Node26</title>
<g id="a_node26"><a xlink:href="MarmotUtility_8h.html" target="_top" xlink:title=" ">
<polygon fill="white" stroke="black" points="2136.5,-162 2136.5,-192 2311.5,-192 2311.5,-162 2136.5,-162"/>
<text text-anchor="start" x="2144.5" y="-180" font-family="Helvetica,sans-Serif" font-size="10.00">modules/core/MarmotMechanics</text>
<text text-anchor="middle" x="2224" y="-169" font-family="Helvetica,sans-Serif" font-size="10.00">Core/include/Marmot/MarmotUtility.h</text>
</a>
</g>
</g>
<!-- Node1&#45;&gt;Node26 -->
<g id="edge37" class="edge">
<title>Node1&#45;&gt;Node26</title>
<path fill="none" stroke="midnightblue" d="M2124.97,-229.72C2147.62,-217.89 2176.37,-202.87 2197.05,-192.07"/>
<polygon fill="midnightblue" stroke="midnightblue" points="2123.24,-226.67 2115.99,-234.4 2126.48,-232.88 2123.24,-226.67"/>
</g>
<!-- Node27 -->
<g id="node27" class="node">
<title>Node27</title>
<g id="a_node27"><a xlink:href="MarmotUtility_8cpp.html" target="_top" xlink:title=" ">
<polygon fill="white" stroke="black" points="2098,-84 2098,-114 2256,-114 2256,-84 2098,-84"/>
<text text-anchor="start" x="2106" y="-102" font-family="Helvetica,sans-Serif" font-size="10.00">modules/core/MarmotMechanics</text>
<text text-anchor="middle" x="2177" y="-91" font-family="Helvetica,sans-Serif" font-size="10.00">Core/src/MarmotUtility.cpp</text>
</a>
</g>
</g>
<!-- Node1&#45;&gt;Node27 -->
<g id="edge66" class="edge">
<title>Node1&#45;&gt;Node27</title>
<path fill="none" stroke="midnightblue" d="M2096.26,-224.76C2102.75,-205.42 2113.33,-177.83 2127,-156 2136.82,-140.31 2151.13,-124.8 2161.93,-114.09"/>
<polygon fill="midnightblue" stroke="midnightblue" points="2092.92,-223.72 2093.16,-234.31 2099.58,-225.88 2092.92,-223.72"/>
</g>
<!-- Node28 -->
<g id="node28" class="node">
<title>Node28</title>
<g id="a_node28"><a xlink:href="MarmotVoigt_8h.html" target="_top" xlink:title=" ">
<polygon fill="white" stroke="black" points="1217.5,-162 1217.5,-192 1390.5,-192 1390.5,-162 1217.5,-162"/>
<text text-anchor="start" x="1225.5" y="-180" font-family="Helvetica,sans-Serif" font-size="10.00">modules/core/MarmotMechanics</text>
<text text-anchor="middle" x="1304" y="-169" font-family="Helvetica,sans-Serif" font-size="10.00">Core/include/Marmot/MarmotVoigt.h</text>
</a>
</g>
</g>
<!-- Node1&#45;&gt;Node28 -->
<g id="edge40" class="edge">
<title>Node1&#45;&gt;Node28</title>
<path fill="none" stroke="midnightblue" d="M1983.8,-239.05C1827.15,-224.98 1535.52,-198.79 1390.5,-185.77"/>
<polygon fill="midnightblue" stroke="midnightblue" points="1983.65,-242.55 1993.92,-239.96 1984.27,-235.58 1983.65,-242.55"/>
</g>
<!-- Node33 -->
<g id="node33" class="node">
<title>Node33</title>
<g id="a_node33"><a xlink:href="PerezFougetSubstepperExplicitMarkII_8h.html" target="_top" xlink:title=" ">
<polygon fill="white" stroke="black" points="2922,-156.5 2922,-197.5 3086,-197.5 3086,-156.5 2922,-156.5"/>
<text text-anchor="start" x="2930" y="-185.5" font-family="Helvetica,sans-Serif" font-size="10.00">modules/core/MarmotMechanics</text>
<text text-anchor="start" x="2930" y="-174.5" font-family="Helvetica,sans-Serif" font-size="10.00">Core/include/Marmot/PerezFouget</text>
<text text-anchor="middle" x="3004" y="-163.5" font-family="Helvetica,sans-Serif" font-size="10.00">SubstepperExplicitMarkII.h</text>
</a>
</g>
</g>
<!-- Node1&#45;&gt;Node33 -->
<g id="edge62" class="edge">
<title>Node1&#45;&gt;Node33</title>
<path fill="none" stroke="midnightblue" d="M2194.15,-247.27C2351.29,-244.25 2656.39,-233.84 2913,-198 2915.88,-197.6 2918.81,-197.15 2921.76,-196.67"/>
<polygon fill="midnightblue" stroke="midnightblue" points="2193.95,-243.77 2184.01,-247.45 2194.08,-250.77 2193.95,-243.77"/>
</g>
<!-- Node34 -->
<g id="node34" class="node">
<title>Node34</title>
<g id="a_node34"><a xlink:href="PerezFougetSubstepperTime_8h.html" target="_top" xlink:title=" ">
<polygon fill="white" stroke="black" points="3104,-156.5 3104,-197.5 3268,-197.5 3268,-156.5 3104,-156.5"/>
<text text-anchor="start" x="3112" y="-185.5" font-family="Helvetica,sans-Serif" font-size="10.00">modules/core/MarmotMechanics</text>
<text text-anchor="start" x="3112" y="-174.5" font-family="Helvetica,sans-Serif" font-size="10.00">Core/include/Marmot/PerezFouget</text>
<text text-anchor="middle" x="3186" y="-163.5" font-family="Helvetica,sans-Serif" font-size="10.00">SubstepperTime.h</text>
</a>
</g>
</g>
<!-- Node1&#45;&gt;Node34 -->
<g id="edge64" class="edge">
<title>Node1&#45;&gt;Node34</title>
<path fill="none" stroke="midnightblue" d="M2194.34,-248.95C2378.05,-248.46 2768.61,-241.75 3095,-198 3097.89,-197.61 3100.82,-197.18 3103.77,-196.71"/>
<polygon fill="midnightblue" stroke="midnightblue" points="2194.13,-245.45 2184.14,-248.97 2194.15,-252.45 2194.13,-245.45"/>
</g>
<!-- Node35 -->
<g id="node35" class="node">
<title>Node35</title>
<g id="a_node35"><a xlink:href="YieldSurfaceCombinationManager_8h.html" target="_top" xlink:title=" ">
<polygon fill="white" stroke="black" points="3286.5,-156.5 3286.5,-197.5 3451.5,-197.5 3451.5,-156.5 3286.5,-156.5"/>
<text text-anchor="start" x="3294.5" y="-185.5" font-family="Helvetica,sans-Serif" font-size="10.00">modules/core/MarmotMechanics</text>
<text text-anchor="start" x="3294.5" y="-174.5" font-family="Helvetica,sans-Serif" font-size="10.00">Core/include/Marmot/YieldSurface</text>
<text text-anchor="middle" x="3369" y="-163.5" font-family="Helvetica,sans-Serif" font-size="10.00">CombinationManager.h</text>
</a>
</g>
</g>
<!-- Node1&#45;&gt;Node35 -->
<g id="edge65" class="edge">
<title>Node1&#45;&gt;Node35</title>
<path fill="none" stroke="midnightblue" d="M2194.19,-246.34C2444.33,-240.84 3069.25,-224.8 3277,-198 3280.08,-197.6 3283.21,-197.15 3286.36,-196.66"/>
<polygon fill="midnightblue" stroke="midnightblue" points="2193.92,-242.85 2184,-246.57 2194.08,-249.85 2193.92,-242.85"/>
</g>
<!-- Node36 -->
<g id="node36" class="node">
<title>Node36</title>
<g id="a_node36"><a xlink:href="LinearElastic_8h.html" target="_top" xlink:title=" ">
<polygon fill="white" stroke="black" points="2330,-156.5 2330,-197.5 2456,-197.5 2456,-156.5 2330,-156.5"/>
<text text-anchor="start" x="2338" y="-185.5" font-family="Helvetica,sans-Serif" font-size="10.00">modules/materials/Linear</text>
<text text-anchor="start" x="2338" y="-174.5" font-family="Helvetica,sans-Serif" font-size="10.00">Elastic/include/Marmot</text>
<text text-anchor="middle" x="2393" y="-163.5" font-family="Helvetica,sans-Serif" font-size="10.00">/LinearElastic.h</text>
</a>
</g>
</g>
<!-- Node1&#45;&gt;Node36 -->
<g id="edge67" class="edge">
<title>Node1&#45;&gt;Node36</title>
<path fill="none" stroke="midnightblue" d="M2167.64,-232.37C2212.43,-222.92 2269.51,-210.43 2320,-198 2323.19,-197.21 2326.45,-196.39 2329.74,-195.55"/>
<polygon fill="midnightblue" stroke="midnightblue" points="2166.76,-228.98 2157.7,-234.46 2168.2,-235.83 2166.76,-228.98"/>
</g>
<!-- Node6 -->
<g id="node6" class="node">
<title>Node6</title>
<g id="a_node6"><a xlink:href="HaighWestergaard_8cpp.html" target="_top" xlink:title=" ">
<polygon fill="white" stroke="black" points="1338,-6 1338,-36 1496,-36 1496,-6 1338,-6"/>
<text text-anchor="start" x="1346" y="-24" font-family="Helvetica,sans-Serif" font-size="10.00">modules/core/MarmotMechanics</text>
<text text-anchor="middle" x="1417" y="-13" font-family="Helvetica,sans-Serif" font-size="10.00">Core/src/HaighWestergaard.cpp</text>
</a>
</g>
</g>
<!-- Node5&#45;&gt;Node6 -->
<g id="edge5" class="edge">
<title>Node5&#45;&gt;Node6</title>
<path fill="none" stroke="midnightblue" d="M1453.56,-75.44C1444.87,-62.73 1434.28,-47.25 1426.74,-36.23"/>
<polygon fill="midnightblue" stroke="midnightblue" points="1450.68,-77.43 1459.22,-83.7 1456.46,-73.48 1450.68,-77.43"/>
</g>
<!-- Node7 -->
<g id="node7" class="node">
<title>Node7</title>
<g id="a_node7"><a xlink:href="MarmotVoigt_8cpp.html" target="_top" xlink:title=" ">
<polygon fill="white" stroke="black" points="1514,-6 1514,-36 1672,-36 1672,-6 1514,-6"/>
<text text-anchor="start" x="1522" y="-24" font-family="Helvetica,sans-Serif" font-size="10.00">modules/core/MarmotMechanics</text>
<text text-anchor="middle" x="1593" y="-13" font-family="Helvetica,sans-Serif" font-size="10.00">Core/src/MarmotVoigt.cpp</text>
</a>
</g>
</g>
<!-- Node5&#45;&gt;Node7 -->
<g id="edge6" class="edge">
<title>Node5&#45;&gt;Node7</title>
<path fill="none" stroke="midnightblue" d="M1500.58,-78.64C1522.27,-65.35 1550.55,-48.02 1570.09,-36.04"/>
<polygon fill="midnightblue" stroke="midnightblue" points="1498.73,-75.67 1492.03,-83.88 1502.39,-81.64 1498.73,-75.67"/>
</g>
<!-- Node9 -->
<g id="node9" class="node">
<title>Node9</title>
<g id="a_node9"><a xlink:href="InnerNewtonIterationChecker_8cpp.html" target="_top" xlink:title=" ">
<polygon fill="white" stroke="black" points="2598.5,-84 2598.5,-114 2799.5,-114 2799.5,-84 2598.5,-84"/>
<text text-anchor="start" x="2606.5" y="-102" font-family="Helvetica,sans-Serif" font-size="10.00">modules/core/MarmotMechanics</text>
<text text-anchor="middle" x="2699" y="-91" font-family="Helvetica,sans-Serif" font-size="10.00">Core/src/InnerNewtonIterationChecker.cpp</text>
</a>
</g>
</g>
<!-- Node8&#45;&gt;Node9 -->
<g id="edge8" class="edge">
<title>Node8&#45;&gt;Node9</title>
<path fill="none" stroke="midnightblue" d="M2660.22,-148.32C2669.5,-136.75 2679.89,-123.8 2687.58,-114.23"/>
<polygon fill="midnightblue" stroke="midnightblue" points="2657.24,-146.44 2653.71,-156.43 2662.7,-150.82 2657.24,-146.44"/>
</g>
<!-- Node11 -->
<g id="node11" class="node">
<title>Node11</title>
<g id="a_node11"><a xlink:href="InnerNewtonIterationCheckerMarkII_8cpp.html" target="_top" xlink:title=" ">
<polygon fill="white" stroke="black" points="2817.5,-78.5 2817.5,-119.5 3000.5,-119.5 3000.5,-78.5 2817.5,-78.5"/>
<text text-anchor="start" x="2825.5" y="-107.5" font-family="Helvetica,sans-Serif" font-size="10.00">modules/core/MarmotMechanics</text>
<text text-anchor="start" x="2825.5" y="-96.5" font-family="Helvetica,sans-Serif" font-size="10.00">Core/src/InnerNewtonIterationChecker</text>
<text text-anchor="middle" x="2909" y="-85.5" font-family="Helvetica,sans-Serif" font-size="10.00">MarkII.cpp</text>
</a>
</g>
</g>
<!-- Node10&#45;&gt;Node11 -->
<g id="edge10" class="edge">
<title>Node10&#45;&gt;Node11</title>
<path fill="none" stroke="midnightblue" d="M2851.36,-149.78C2862.87,-139.84 2875.75,-128.72 2886.41,-119.51"/>
<polygon fill="midnightblue" stroke="midnightblue" points="2848.94,-147.24 2843.66,-156.43 2853.52,-152.54 2848.94,-147.24"/>
</g>
<!-- Node13 -->
<g id="node13" class="node">
<title>Node13</title>
<g id="a_node13"><a xlink:href="HughesWinget_8cpp.html" target="_top" xlink:title=" ">
<polygon fill="white" stroke="black" points="0,-6 0,-36 158,-36 158,-6 0,-6"/>
<text text-anchor="start" x="8" y="-24" font-family="Helvetica,sans-Serif" font-size="10.00">modules/core/MarmotMechanics</text>
<text text-anchor="middle" x="79" y="-13" font-family="Helvetica,sans-Serif" font-size="10.00">Core/src/HughesWinget.cpp</text>
</a>
</g>
</g>
<!-- Node12&#45;&gt;Node13 -->
<g id="edge12" class="edge">
<title>Node12&#45;&gt;Node13</title>
<path fill="none" stroke="midnightblue" d="M557.28,-82.59C545.39,-80.97 533.44,-79.4 522,-78 364.59,-58.7 323.5,-67.62 167,-42 156.95,-40.35 146.33,-38.26 136.08,-36.04"/>
<polygon fill="midnightblue" stroke="midnightblue" points="556.85,-86.06 567.24,-83.96 557.81,-79.13 556.85,-86.06"/>
</g>
<!-- Node14 -->
<g id="node14" class="node">
<title>Node14</title>
<g id="a_node14"><a xlink:href="MarmotKinematics_8cpp.html" target="_top" xlink:title=" ">
<polygon fill="white" stroke="black" points="582,-6 582,-36 740,-36 740,-6 582,-6"/>
<text text-anchor="start" x="590" y="-24" font-family="Helvetica,sans-Serif" font-size="10.00">modules/core/MarmotMechanics</text>
<text text-anchor="middle" x="661" y="-13" font-family="Helvetica,sans-Serif" font-size="10.00">Core/src/MarmotKinematics.cpp</text>
</a>
</g>
</g>
<!-- Node12&#45;&gt;Node14 -->
<g id="edge13" class="edge">
<title>Node12&#45;&gt;Node14</title>
<path fill="none" stroke="midnightblue" d="M661,-73.59C661,-61.26 661,-46.72 661,-36.23"/>
<polygon fill="midnightblue" stroke="midnightblue" points="657.5,-73.7 661,-83.7 664.5,-73.71 657.5,-73.7"/>
</g>
<!-- Node15 -->
<g id="node15" class="node">
<title>Node15</title>
<g id="a_node15"><a xlink:href="MarmotMaterialHyperElastic_8cpp.html" target="_top" xlink:title=" ">
<polygon fill="white" stroke="black" points="934.5,-6 934.5,-36 1131.5,-36 1131.5,-6 934.5,-6"/>
<text text-anchor="start" x="942.5" y="-24" font-family="Helvetica,sans-Serif" font-size="10.00">modules/core/MarmotMechanics</text>
<text text-anchor="middle" x="1033" y="-13" font-family="Helvetica,sans-Serif" font-size="10.00">Core/src/MarmotMaterialHyperElastic.cpp</text>
</a>
</g>
</g>
<!-- Node12&#45;&gt;Node15 -->
<g id="edge14" class="edge">
<title>Node12&#45;&gt;Node15</title>
<path fill="none" stroke="midnightblue" d="M739.7,-81.92C806.32,-68.31 900.85,-49 964.42,-36.01"/>
<polygon fill="midnightblue" stroke="midnightblue" points="738.76,-78.54 729.66,-83.97 740.16,-85.4 738.76,-78.54"/>
</g>
<!-- Node16 -->
<g id="node16" class="node">
<title>Node16</title>
<g id="a_node16"><a xlink:href="MarmotMaterialHypoElastic_8cpp.html" target="_top" xlink:title=" ">
<polygon fill="white" stroke="black" points="176,-6 176,-36 370,-36 370,-6 176,-6"/>
<text text-anchor="start" x="184" y="-24" font-family="Helvetica,sans-Serif" font-size="10.00">modules/core/MarmotMechanics</text>
<text text-anchor="middle" x="273" y="-13" font-family="Helvetica,sans-Serif" font-size="10.00">Core/src/MarmotMaterialHypoElastic.cpp</text>
</a>
</g>
</g>
<!-- Node12&#45;&gt;Node16 -->
<g id="edge15" class="edge">
<title>Node12&#45;&gt;Node16</title>
<path fill="none" stroke="midnightblue" d="M579.35,-82.01C509.84,-68.39 410.97,-49.03 344.53,-36.01"/>
<polygon fill="midnightblue" stroke="midnightblue" points="578.9,-85.48 589.38,-83.97 580.24,-78.61 578.9,-85.48"/>
</g>
<!-- Node17 -->
<g id="node17" class="node">
<title>Node17</title>
<g id="a_node17"><a xlink:href="MarmotMaterialHypoElasticNonLocal_8cpp.html" target="_top" xlink:title=" ">
<polygon fill="white" stroke="black" points="388,-0.5 388,-41.5 564,-41.5 564,-0.5 388,-0.5"/>
<text text-anchor="start" x="396" y="-29.5" font-family="Helvetica,sans-Serif" font-size="10.00">modules/core/MarmotMechanics</text>
<text text-anchor="start" x="396" y="-18.5" font-family="Helvetica,sans-Serif" font-size="10.00">Core/src/MarmotMaterialHypoElastic</text>
<text text-anchor="middle" x="476" y="-7.5" font-family="Helvetica,sans-Serif" font-size="10.00">NonLocal.cpp</text>
</a>
</g>
</g>
<!-- Node12&#45;&gt;Node17 -->
<g id="edge16" class="edge">
<title>Node12&#45;&gt;Node17</title>
<path fill="none" stroke="midnightblue" d="M617.08,-79.96C589,-68.42 552.58,-53.46 523.78,-41.63"/>
<polygon fill="midnightblue" stroke="midnightblue" points="616.06,-83.32 626.64,-83.88 618.72,-76.85 616.06,-83.32"/>
</g>
<!-- Node18&#45;&gt;Node6 -->
<g id="edge19" class="edge">
<title>Node18&#45;&gt;Node6</title>
<path fill="none" stroke="midnightblue" d="M1615.23,-81.08C1569.83,-67.55 1506.91,-48.8 1464.23,-36.07"/>
<polygon fill="midnightblue" stroke="midnightblue" points="1614.35,-84.47 1624.93,-83.97 1616.35,-77.76 1614.35,-84.47"/>
</g>
<!-- Node18&#45;&gt;Node7 -->
<g id="edge25" class="edge">
<title>Node18&#45;&gt;Node7</title>
<path fill="none" stroke="midnightblue" d="M1649.69,-76.53C1636.27,-63.63 1619.58,-47.57 1607.79,-36.23"/>
<polygon fill="midnightblue" stroke="midnightblue" points="1647.51,-79.29 1657.14,-83.7 1652.36,-74.25 1647.51,-79.29"/>
</g>
<!-- Node18&#45;&gt;Node15 -->
<g id="edge20" class="edge">
<title>Node18&#45;&gt;Node15</title>
<path fill="none" stroke="midnightblue" d="M1600.31,-82.06C1592.14,-80.54 1583.91,-79.15 1576,-78 1384.01,-50.16 1333.29,-67.69 1141,-42 1128.71,-40.36 1115.71,-38.26 1103.13,-36.05"/>
<polygon fill="midnightblue" stroke="midnightblue" points="1599.75,-85.52 1610.23,-83.97 1601.07,-78.64 1599.75,-85.52"/>
</g>
<!-- Node18&#45;&gt;Node16 -->
<g id="edge21" class="edge">
<title>Node18&#45;&gt;Node16</title>
<path fill="none" stroke="midnightblue" d="M1602.81,-82.08C1593.83,-80.46 1584.72,-79.03 1576,-78 1047.44,-15.48 908.12,-99.52 379,-42 365.87,-40.57 351.94,-38.42 338.64,-36.04"/>
<polygon fill="midnightblue" stroke="midnightblue" points="1602.39,-85.56 1612.86,-83.99 1603.69,-78.69 1602.39,-85.56"/>
</g>
<!-- Node18&#45;&gt;Node17 -->
<g id="edge22" class="edge">
<title>Node18&#45;&gt;Node17</title>
<path fill="none" stroke="midnightblue" d="M1602.61,-82.1C1593.69,-80.48 1584.66,-79.05 1576,-78 1133.18,-24.32 1015.88,-95.23 573,-42 570.1,-41.65 567.15,-41.26 564.18,-40.84"/>
<polygon fill="midnightblue" stroke="midnightblue" points="1602.12,-85.57 1612.6,-83.99 1603.43,-78.69 1602.12,-85.57"/>
</g>
<!-- Node18&#45;&gt;Node19 -->
<g id="edge18" class="edge">
<title>Node18&#45;&gt;Node19</title>
<path fill="none" stroke="midnightblue" d="M1767.71,-82.57C1780.23,-80.85 1792.91,-79.27 1805,-78 2068.92,-50.24 2137.13,-70.21 2401,-42 2416.55,-40.34 2433.09,-38.13 2448.97,-35.79"/>
<polygon fill="midnightblue" stroke="midnightblue" points="1767.13,-79.11 1757.71,-83.97 1768.1,-86.05 1767.13,-79.11"/>
</g>
<!-- Node20 -->
<g id="node20" class="node">
<title>Node20</title>
<g id="a_node20"><a xlink:href="MarmotMaterialMechanical_8cpp.html" target="_top" xlink:title=" ">
<polygon fill="white" stroke="black" points="1866.5,-6 1866.5,-36 2057.5,-36 2057.5,-6 1866.5,-6"/>
<text text-anchor="start" x="1874.5" y="-24" font-family="Helvetica,sans-Serif" font-size="10.00">modules/core/MarmotMechanics</text>
<text text-anchor="middle" x="1962" y="-13" font-family="Helvetica,sans-Serif" font-size="10.00">Core/src/MarmotMaterialMechanical.cpp</text>
</a>
</g>
</g>
<!-- Node18&#45;&gt;Node20 -->
<g id="edge23" class="edge">
<title>Node18&#45;&gt;Node20</title>
<path fill="none" stroke="midnightblue" d="M1735.26,-81.42C1787,-67.86 1859.34,-48.9 1908.29,-36.07"/>
<polygon fill="midnightblue" stroke="midnightblue" points="1734.31,-78.05 1725.53,-83.97 1736.09,-84.82 1734.31,-78.05"/>
</g>
<!-- Node21 -->
<g id="node21" class="node">
<title>Node21</title>
<g id="a_node21"><a xlink:href="MarmotMath_8cpp.html" target="_top" xlink:title=" ">
<polygon fill="white" stroke="black" points="1690,-6 1690,-36 1848,-36 1848,-6 1690,-6"/>
<text text-anchor="start" x="1698" y="-24" font-family="Helvetica,sans-Serif" font-size="10.00">modules/core/MarmotMechanics</text>
<text text-anchor="middle" x="1769" y="-13" font-family="Helvetica,sans-Serif" font-size="10.00">Core/src/MarmotMath.cpp</text>
</a>
</g>
</g>
<!-- Node18&#45;&gt;Node21 -->
<g id="edge24" class="edge">
<title>Node18&#45;&gt;Node21</title>
<path fill="none" stroke="midnightblue" d="M1698.48,-77.25C1715.1,-64.23 1736.09,-47.78 1750.84,-36.23"/>
<polygon fill="midnightblue" stroke="midnightblue" points="1695.96,-74.78 1690.24,-83.7 1700.28,-80.29 1695.96,-74.78"/>
</g>
<!-- Node18&#45;&gt;Node22 -->
<g id="edge26" class="edge">
<title>Node18&#45;&gt;Node22</title>
<path fill="none" stroke="midnightblue" d="M1768.02,-82.78C1780.44,-81.04 1793.01,-79.39 1805,-78 1999.02,-55.46 2050.33,-74.08 2243,-42 2252.35,-40.44 2262.22,-38.33 2271.69,-36.06"/>
<polygon fill="midnightblue" stroke="midnightblue" points="1767.5,-79.31 1758.1,-84.19 1768.49,-86.25 1767.5,-79.31"/>
</g>
<!-- Node23&#45;&gt;Node6 -->
<g id="edge28" class="edge">
<title>Node23&#45;&gt;Node6</title>
<path fill="none" stroke="midnightblue" d="M1022.22,-86.67C1104.83,-76.74 1224.93,-60.95 1329,-42 1338.56,-40.26 1348.65,-38.19 1358.45,-36.05"/>
<polygon fill="midnightblue" stroke="midnightblue" points="1021.59,-83.22 1012.08,-87.88 1022.42,-90.17 1021.59,-83.22"/>
</g>
<!-- Node23&#45;&gt;Node7 -->
<g id="edge36" class="edge">
<title>Node23&#45;&gt;Node7</title>
<path fill="none" stroke="midnightblue" d="M1022.32,-86.08C1046.74,-83.31 1072.8,-80.45 1097,-78 1278.11,-59.66 1325.17,-70.24 1505,-42 1515.22,-40.4 1526.01,-38.29 1536.41,-36.05"/>
<polygon fill="midnightblue" stroke="midnightblue" points="1021.87,-82.61 1012.33,-87.23 1022.66,-89.57 1021.87,-82.61"/>
</g>
<!-- Node23&#45;&gt;Node13 -->
<g id="edge29" class="edge">
<title>Node23&#45;&gt;Node13</title>
<path fill="none" stroke="midnightblue" d="M821.67,-83.86C804.14,-81.68 786.05,-79.62 769,-78 502.17,-52.61 432.35,-79.83 167,-42 156.45,-40.5 145.3,-38.38 134.61,-36.08"/>
<polygon fill="midnightblue" stroke="midnightblue" points="821.55,-87.37 831.91,-85.15 822.43,-80.43 821.55,-87.37"/>
</g>
<!-- Node23&#45;&gt;Node14 -->
<g id="edge30" class="edge">
<title>Node23&#45;&gt;Node14</title>
<path fill="none" stroke="midnightblue" d="M864.19,-81.17C817.69,-67.63 753.12,-48.82 709.34,-36.07"/>
<polygon fill="midnightblue" stroke="midnightblue" points="863.24,-84.54 873.82,-83.97 865.2,-77.82 863.24,-84.54"/>
</g>
<!-- Node23&#45;&gt;Node15 -->
<g id="edge32" class="edge">
<title>Node23&#45;&gt;Node15</title>
<path fill="none" stroke="midnightblue" d="M951.05,-78.11C970.36,-64.89 995.24,-47.86 1012.49,-36.04"/>
<polygon fill="midnightblue" stroke="midnightblue" points="948.89,-75.35 942.62,-83.88 952.85,-81.12 948.89,-75.35"/>
</g>
<!-- Node23&#45;&gt;Node16 -->
<g id="edge33" class="edge">
<title>Node23&#45;&gt;Node16</title>
<path fill="none" stroke="midnightblue" d="M821.62,-84.32C804.09,-82.1 786.03,-79.9 769,-78 596,-58.72 551.38,-66.16 379,-42 367.04,-40.32 354.37,-38.22 342.12,-36.02"/>
<polygon fill="midnightblue" stroke="midnightblue" points="821.5,-87.84 831.86,-85.64 822.39,-80.9 821.5,-87.84"/>
</g>
<!-- Node23&#45;&gt;Node17 -->
<g id="edge34" class="edge">
<title>Node23&#45;&gt;Node17</title>
<path fill="none" stroke="midnightblue" d="M836.02,-82.26C827.57,-80.79 819.12,-79.35 811,-78 705.46,-60.51 678.31,-60.81 573,-42 570.12,-41.49 567.2,-40.95 564.25,-40.4"/>
<polygon fill="midnightblue" stroke="midnightblue" points="835.46,-85.72 845.92,-84 836.67,-78.82 835.46,-85.72"/>
</g>
<!-- Node24 -->
<g id="node24" class="node">
<title>Node24</title>
<g id="a_node24"><a xlink:href="MarmotLowerDimensionalStress_8cpp.html" target="_top" xlink:title=" ">
<polygon fill="white" stroke="black" points="1150,-0.5 1150,-41.5 1320,-41.5 1320,-0.5 1150,-0.5"/>
<text text-anchor="start" x="1158" y="-29.5" font-family="Helvetica,sans-Serif" font-size="10.00">modules/core/MarmotMechanics</text>
<text text-anchor="start" x="1158" y="-18.5" font-family="Helvetica,sans-Serif" font-size="10.00">Core/src/MarmotLowerDimensional</text>
<text text-anchor="middle" x="1235" y="-7.5" font-family="Helvetica,sans-Serif" font-size="10.00">Stress.cpp</text>
</a>
</g>
</g>
<!-- Node23&#45;&gt;Node24 -->
<g id="edge31" class="edge">
<title>Node23&#45;&gt;Node24</title>
<path fill="none" stroke="midnightblue" d="M989.53,-81.6C1037.97,-69.84 1103.43,-53.95 1154.57,-41.53"/>
<polygon fill="midnightblue" stroke="midnightblue" points="988.67,-78.21 979.77,-83.97 990.32,-85.01 988.67,-78.21"/>
</g>
<!-- Node25 -->
<g id="node25" class="node">
<title>Node25</title>
<g id="a_node25"><a xlink:href="MarmotTensor_8cpp.html" target="_top" xlink:title=" ">
<polygon fill="white" stroke="black" points="758,-6 758,-36 916,-36 916,-6 758,-6"/>
<text text-anchor="start" x="766" y="-24" font-family="Helvetica,sans-Serif" font-size="10.00">modules/core/MarmotMechanics</text>
<text text-anchor="middle" x="837" y="-13" font-family="Helvetica,sans-Serif" font-size="10.00">Core/src/MarmotTensor.cpp</text>
</a>
</g>
</g>
<!-- Node23&#45;&gt;Node25 -->
<g id="edge35" class="edge">
<title>Node23&#45;&gt;Node25</title>
<path fill="none" stroke="midnightblue" d="M898.39,-76.89C883.9,-63.93 865.72,-47.68 852.92,-36.23"/>
<polygon fill="midnightblue" stroke="midnightblue" points="896.22,-79.65 906.01,-83.7 900.89,-74.43 896.22,-79.65"/>
</g>
<!-- Node26&#45;&gt;Node22 -->
<g id="edge39" class="edge">
<title>Node26&#45;&gt;Node22</title>
<path fill="none" stroke="midnightblue" d="M2241.44,-153.33C2248.94,-143.29 2257.65,-131.23 2265,-120 2283.97,-91.01 2303.8,-55.56 2314.34,-36.24"/>
<polygon fill="midnightblue" stroke="midnightblue" points="2238.45,-151.47 2235.22,-161.56 2244.04,-155.69 2238.45,-151.47"/>
</g>
<!-- Node26&#45;&gt;Node27 -->
<g id="edge38" class="edge">
<title>Node26&#45;&gt;Node27</title>
<path fill="none" stroke="midnightblue" d="M2209.82,-153.07C2202.01,-140.44 2192.55,-125.15 2185.8,-114.23"/>
<polygon fill="midnightblue" stroke="midnightblue" points="2206.92,-155.04 2215.16,-161.7 2212.88,-151.36 2206.92,-155.04"/>
</g>
<!-- Node28&#45;&gt;Node6 -->
<g id="edge52" class="edge">
<title>Node28&#45;&gt;Node6</title>
<path fill="none" stroke="midnightblue" d="M1304.91,-151.85C1306.79,-130.61 1312.3,-99.78 1328,-78 1341.56,-59.19 1363.57,-45.26 1382.31,-36"/>
<polygon fill="midnightblue" stroke="midnightblue" points="1301.4,-151.76 1304.21,-161.98 1308.39,-152.24 1301.4,-151.76"/>
</g>
<!-- Node28&#45;&gt;Node7 -->
<g id="edge60" class="edge">
<title>Node28&#45;&gt;Node7</title>
<path fill="none" stroke="midnightblue" d="M1314.97,-152.53C1327.44,-126.81 1347.78,-87.86 1361,-78 1364.51,-75.38 1464.79,-51.75 1532.34,-36.03"/>
<polygon fill="midnightblue" stroke="midnightblue" points="1311.76,-151.13 1310.6,-161.66 1318.08,-154.15 1311.76,-151.13"/>
</g>
<!-- Node28&#45;&gt;Node12 -->
<g id="edge48" class="edge">
<title>Node28&#45;&gt;Node12</title>
<path fill="none" stroke="midnightblue" d="M1207.12,-161.44C1193,-159.5 1178.64,-157.62 1165,-156 995.66,-135.85 952.13,-141.81 783,-120 769.59,-118.27 755.39,-116.18 741.6,-114.01"/>
<polygon fill="midnightblue" stroke="midnightblue" points="1206.95,-164.95 1217.33,-162.86 1207.91,-158.02 1206.95,-164.95"/>
</g>
<!-- Node28&#45;&gt;Node13 -->
<g id="edge53" class="edge">
<title>Node28&#45;&gt;Node13</title>
<path fill="none" stroke="midnightblue" d="M1207.06,-163.47C1182.6,-160.66 1156.36,-157.93 1132,-156 944.64,-141.14 469.5,-164.94 287,-120 215.1,-102.29 138.19,-58.79 101.28,-36.18"/>
<polygon fill="midnightblue" stroke="midnightblue" points="1206.72,-166.95 1217.06,-164.64 1207.53,-160 1206.72,-166.95"/>
</g>
<!-- Node28&#45;&gt;Node15 -->
<g id="edge55" class="edge">
<title>Node28&#45;&gt;Node15</title>
<path fill="none" stroke="midnightblue" d="M1227.93,-159.72C1169.37,-146.67 1096.53,-129.08 1085,-120 1057.3,-98.2 1042.63,-57.49 1036.52,-36.04"/>
<polygon fill="midnightblue" stroke="midnightblue" points="1227.41,-163.19 1237.93,-161.94 1228.93,-156.36 1227.41,-163.19"/>
</g>
<!-- Node28&#45;&gt;Node16 -->
<g id="edge56" class="edge">
<title>Node28&#45;&gt;Node16</title>
<path fill="none" stroke="midnightblue" d="M1207.46,-163.55C1182.88,-160.72 1156.49,-157.97 1132,-156 1042.31,-148.8 398.67,-168.69 323,-120 293.28,-100.88 280.41,-58.22 275.55,-36.02"/>
<polygon fill="midnightblue" stroke="midnightblue" points="1207.16,-167.04 1217.5,-164.72 1207.97,-160.09 1207.16,-167.04"/>
</g>
<!-- Node28&#45;&gt;Node17 -->
<g id="edge57" class="edge">
<title>Node28&#45;&gt;Node17</title>
<path fill="none" stroke="midnightblue" d="M1207.1,-161.58C1192.99,-159.62 1178.63,-157.7 1165,-156 1013.33,-137.11 964.77,-177.11 823,-120 794.8,-108.64 796.75,-90.44 769,-78 688.18,-41.78 659.93,-58.94 573,-42 570.05,-41.42 567.04,-40.83 564.01,-40.23"/>
<polygon fill="midnightblue" stroke="midnightblue" points="1206.93,-165.09 1217.32,-163.01 1207.9,-158.15 1206.93,-165.09"/>
</g>
<!-- Node28&#45;&gt;Node20 -->
<g id="edge58" class="edge">
<title>Node28&#45;&gt;Node20</title>
<path fill="none" stroke="midnightblue" d="M1400.89,-172.21C1517.44,-166.29 1705.17,-152.02 1767,-120 1789.35,-108.42 1784.07,-91.98 1805,-78 1834.12,-58.55 1870.78,-44.97 1901.36,-36.07"/>
<polygon fill="midnightblue" stroke="midnightblue" points="1400.7,-168.72 1390.88,-172.71 1401.04,-175.71 1400.7,-168.72"/>
</g>
<!-- Node28&#45;&gt;Node22 -->
<g id="edge61" class="edge">
<title>Node28&#45;&gt;Node22</title>
<path fill="none" stroke="midnightblue" d="M1400.58,-176.28C1568.2,-175.47 1905.28,-167.73 2012,-120 2036.68,-108.96 2031.97,-90.39 2056,-78 2131.22,-39.2 2160.39,-60.39 2243,-42 2251.15,-40.19 2259.74,-38.15 2268.13,-36.08"/>
<polygon fill="midnightblue" stroke="midnightblue" points="1400.51,-172.78 1390.52,-176.32 1400.54,-179.78 1400.51,-172.78"/>
</g>
<!-- Node28&#45;&gt;Node23 -->
<g id="edge51" class="edge">
<title>Node28&#45;&gt;Node23</title>
<path fill="none" stroke="midnightblue" d="M1223.61,-160.01C1155.18,-146.39 1057.84,-127.03 992.42,-114.01"/>
<polygon fill="midnightblue" stroke="midnightblue" points="1223,-163.45 1233.49,-161.97 1224.37,-156.59 1223,-163.45"/>
</g>
<!-- Node28&#45;&gt;Node24 -->
<g id="edge54" class="edge">
<title>Node28&#45;&gt;Node24</title>
<path fill="none" stroke="midnightblue" d="M1226.48,-159.78C1171.2,-147.43 1105.25,-130.77 1097,-120 1085.65,-105.18 1086.57,-93.48 1097,-78 1109.42,-59.56 1129.07,-47.18 1149.69,-38.89"/>
<polygon fill="midnightblue" stroke="midnightblue" points="1225.78,-163.21 1236.3,-161.96 1227.3,-156.38 1225.78,-163.21"/>
</g>
<!-- Node28&#45;&gt;Node27 -->
<g id="edge59" class="edge">
<title>Node28&#45;&gt;Node27</title>
<path fill="none" stroke="midnightblue" d="M1401.15,-171.03C1543.11,-163.24 1815.43,-146.26 2046,-120 2062.8,-118.09 2080.75,-115.62 2097.81,-113.08"/>
<polygon fill="midnightblue" stroke="midnightblue" points="1400.53,-167.56 1390.74,-171.6 1400.91,-174.55 1400.53,-167.56"/>
</g>
<!-- Node29 -->
<g id="node29" class="node">
<title>Node29</title>
<g id="a_node29"><a xlink:href="HughesWinget_8h.html" target="_top" xlink:title=" ">
<polygon fill="white" stroke="black" points="332.5,-84 332.5,-114 513.5,-114 513.5,-84 332.5,-84"/>
<text text-anchor="start" x="340.5" y="-102" font-family="Helvetica,sans-Serif" font-size="10.00">modules/core/MarmotMechanics</text>
<text text-anchor="middle" x="423" y="-91" font-family="Helvetica,sans-Serif" font-size="10.00">Core/include/Marmot/HughesWinget.h</text>
</a>
</g>
</g>
<!-- Node28&#45;&gt;Node29 -->
<g id="edge41" class="edge">
<title>Node28&#45;&gt;Node29</title>
<path fill="none" stroke="midnightblue" d="M1207.43,-163.85C1182.86,-161.01 1156.48,-158.18 1132,-156 874.75,-133.08 808.77,-147.81 552,-120 537.13,-118.39 521.35,-116.28 506.12,-114.04"/>
<polygon fill="midnightblue" stroke="midnightblue" points="1207.14,-167.34 1217.47,-165.02 1207.95,-160.38 1207.14,-167.34"/>
</g>
<!-- Node30 -->
<g id="node30" class="node">
<title>Node30</title>
<g id="a_node30"><a xlink:href="MarmotElasticity_8h.html" target="_top" xlink:title=" ">
<polygon fill="white" stroke="black" points="1814.5,-84 1814.5,-114 2003.5,-114 2003.5,-84 1814.5,-84"/>
<text text-anchor="start" x="1822.5" y="-102" font-family="Helvetica,sans-Serif" font-size="10.00">modules/core/MarmotMechanics</text>
<text text-anchor="middle" x="1909" y="-91" font-family="Helvetica,sans-Serif" font-size="10.00">Core/include/Marmot/MarmotElasticity.h</text>
</a>
</g>
</g>
<!-- Node28&#45;&gt;Node30 -->
<g id="edge45" class="edge">
<title>Node28&#45;&gt;Node30</title>
<path fill="none" stroke="midnightblue" d="M1400.8,-167.07C1500.96,-157.36 1661.8,-140.46 1800,-120 1811.8,-118.25 1824.28,-116.18 1836.41,-114.04"/>
<polygon fill="midnightblue" stroke="midnightblue" points="1400.32,-163.6 1390.7,-168.04 1400.99,-170.56 1400.32,-163.6"/>
</g>
<!-- Node32 -->
<g id="node32" class="node">
<title>Node32</title>
<g id="a_node32"><a xlink:href="MarmotLowerDimensionalStress_8h.html" target="_top" xlink:title=" ">
<polygon fill="white" stroke="black" points="1106,-78.5 1106,-119.5 1276,-119.5 1276,-78.5 1106,-78.5"/>
<text text-anchor="start" x="1114" y="-107.5" font-family="Helvetica,sans-Serif" font-size="10.00">modules/core/MarmotMechanics</text>
<text text-anchor="start" x="1114" y="-96.5" font-family="Helvetica,sans-Serif" font-size="10.00">Core/include/Marmot/MarmotLower</text>
<text text-anchor="middle" x="1191" y="-85.5" font-family="Helvetica,sans-Serif" font-size="10.00">DimensionalStress.h</text>
</a>
</g>
</g>
<!-- Node28&#45;&gt;Node32 -->
<g id="edge49" class="edge">
<title>Node28&#45;&gt;Node32</title>
<path fill="none" stroke="midnightblue" d="M1274.7,-156.29C1257.99,-145.06 1237.12,-131.02 1220.4,-119.77"/>
<polygon fill="midnightblue" stroke="midnightblue" points="1272.76,-159.21 1283.01,-161.88 1276.67,-153.4 1272.76,-159.21"/>
</g>
<!-- Node29&#45;&gt;Node13 -->
<g id="edge42" class="edge">
<title>Node29&#45;&gt;Node13</title>
<path fill="none" stroke="midnightblue" d="M348.3,-81.83C297.22,-70.73 227.99,-55.6 167,-42 158.44,-40.09 149.41,-38.06 140.53,-36.05"/>
<polygon fill="midnightblue" stroke="midnightblue" points="347.75,-85.29 358.26,-83.99 349.23,-78.45 347.75,-85.29"/>
</g>
<!-- Node29&#45;&gt;Node16 -->
<g id="edge43" class="edge">
<title>Node29&#45;&gt;Node16</title>
<path fill="none" stroke="midnightblue" d="M386.19,-79.35C359.79,-65.97 324.77,-48.23 300.71,-36.04"/>
<polygon fill="midnightblue" stroke="midnightblue" points="384.64,-82.49 395.14,-83.88 387.8,-76.24 384.64,-82.49"/>
</g>
<!-- Node29&#45;&gt;Node17 -->
<g id="edge44" class="edge">
<title>Node29&#45;&gt;Node17</title>
<path fill="none" stroke="midnightblue" d="M438.85,-75.27C446.3,-64.58 455.11,-51.96 462.28,-41.68"/>
<polygon fill="midnightblue" stroke="midnightblue" points="435.82,-73.5 432.97,-83.7 441.56,-77.5 435.82,-73.5"/>
</g>
<!-- Node30&#45;&gt;Node22 -->
<g id="edge47" class="edge">
<title>Node30&#45;&gt;Node22</title>
<path fill="none" stroke="midnightblue" d="M1994.39,-82.14C2002.37,-80.72 2010.33,-79.32 2018,-78 2117.81,-60.86 2143.81,-62.45 2243,-42 2251.45,-40.26 2260.36,-38.21 2269.03,-36.1"/>
<polygon fill="midnightblue" stroke="midnightblue" points="1993.53,-78.74 1984.31,-83.95 1994.77,-85.63 1993.53,-78.74"/>
</g>
<!-- Node31 -->
<g id="node31" class="node">
<title>Node31</title>
<g id="a_node31"><a xlink:href="MarmotElasticity_8cpp.html" target="_top" xlink:title=" ">
<polygon fill="white" stroke="black" points="2076,-6 2076,-36 2234,-36 2234,-6 2076,-6"/>
<text text-anchor="start" x="2084" y="-24" font-family="Helvetica,sans-Serif" font-size="10.00">modules/core/MarmotMechanics</text>
<text text-anchor="middle" x="2155" y="-13" font-family="Helvetica,sans-Serif" font-size="10.00">Core/src/MarmotElasticity.cpp</text>
</a>
</g>
</g>
<!-- Node30&#45;&gt;Node31 -->
<g id="edge46" class="edge">
<title>Node30&#45;&gt;Node31</title>
<path fill="none" stroke="midnightblue" d="M1964.04,-81C2007.82,-67.47 2068.35,-48.77 2109.44,-36.07"/>
<polygon fill="midnightblue" stroke="midnightblue" points="1962.93,-77.68 1954.41,-83.97 1964.99,-84.36 1962.93,-77.68"/>
</g>
<!-- Node32&#45;&gt;Node24 -->
<g id="edge50" class="edge">
<title>Node32&#45;&gt;Node24</title>
<path fill="none" stroke="midnightblue" d="M1207.35,-69.76C1212.8,-60.35 1218.73,-50.1 1223.71,-41.51"/>
<polygon fill="midnightblue" stroke="midnightblue" points="1204.31,-68.02 1202.33,-78.43 1210.37,-71.53 1204.31,-68.02"/>
</g>
<!-- Node36&#45;&gt;Node22 -->
<g id="edge68" class="edge">
<title>Node36&#45;&gt;Node22</title>
<path fill="none" stroke="midnightblue" d="M2362.51,-149.25C2354.39,-140.67 2346.39,-130.61 2341,-120 2327.03,-92.5 2323.3,-55.86 2322.33,-36.09"/>
<polygon fill="midnightblue" stroke="midnightblue" points="2360.07,-151.76 2369.61,-156.39 2365.04,-146.83 2360.07,-151.76"/>
</g>
<!-- Node37 -->
<g id="node37" class="node">
<title>Node37</title>
<g id="a_node37"><a xlink:href="LinearElasticRegistration_8cpp.html" target="_top" xlink:title=" ">
<polygon fill="white" stroke="black" points="2350.5,-84 2350.5,-114 2541.5,-114 2541.5,-84 2350.5,-84"/>
<text text-anchor="start" x="2358.5" y="-102" font-family="Helvetica,sans-Serif" font-size="10.00">modules/materials/Linear</text>
<text text-anchor="middle" x="2446" y="-91" font-family="Helvetica,sans-Serif" font-size="10.00">Elastic/src/LinearElasticRegistration.cpp</text>
</a>
</g>
</g>
<!-- Node36&#45;&gt;Node37 -->
<g id="edge69" class="edge">
<title>Node36&#45;&gt;Node37</title>
<path fill="none" stroke="midnightblue" d="M2412.54,-147.98C2420.55,-136.5 2429.46,-123.71 2436.08,-114.23"/>
<polygon fill="midnightblue" stroke="midnightblue" points="2409.5,-146.22 2406.65,-156.43 2415.24,-150.23 2409.5,-146.22"/>
</g>
</g>
</svg>
