<?xml version="1.0" encoding="UTF-8" standalone="no"?>
<!DOCTYPE svg PUBLIC "-//W3C//DTD SVG 1.1//EN"
 "http://www.w3.org/Graphics/SVG/1.1/DTD/svg11.dtd">
<!-- Generated by graphviz version 2.44.0 ()
 -->
<!-- Title: modules/core/MarmotFiniteElementCore/include/Marmot/MarmotFiniteElement.h Pages: 1 -->
<svg width="1740pt" height="284pt"
 viewBox="0.00 0.00 1740.00 284.00" xmlns="http://www.w3.org/2000/svg" xmlns:xlink="http://www.w3.org/1999/xlink">
<g id="graph0" class="graph" transform="scale(1 1) rotate(0) translate(4 280)">
<title>modules/core/MarmotFiniteElementCore/include/Marmot/MarmotFiniteElement.h</title>
<polygon fill="white" stroke="transparent" points="-4,4 -4,-280 1736,-280 1736,4 -4,4"/>
<!-- Node1 -->
<g id="node1" class="node">
<title>Node1</title>
<g id="a_node1"><a xlink:title=" ">
<polygon fill="#bfbfbf" stroke="black" points="618,-234.5 618,-275.5 760,-275.5 760,-234.5 618,-234.5"/>
<text text-anchor="start" x="626" y="-263.5" font-family="Helvetica,sans-Serif" font-size="10.00">modules/core/MarmotFinite</text>
<text text-anchor="start" x="626" y="-252.5" font-family="Helvetica,sans-Serif" font-size="10.00">ElementCore/include/Marmot</text>
<text text-anchor="middle" x="689" y="-241.5" font-family="Helvetica,sans-Serif" font-size="10.00">/MarmotFiniteElement.h</text>
</a>
</g>
</g>
<!-- Node2 -->
<g id="node2" class="node">
<title>Node2</title>
<g id="a_node2"><a xlink:href="MarmotGeometryElement_8h.html" target="_top" xlink:title=" ">
<polygon fill="white" stroke="black" points="194,-156.5 194,-197.5 336,-197.5 336,-156.5 194,-156.5"/>
<text text-anchor="start" x="202" y="-185.5" font-family="Helvetica,sans-Serif" font-size="10.00">modules/core/MarmotFinite</text>
<text text-anchor="start" x="202" y="-174.5" font-family="Helvetica,sans-Serif" font-size="10.00">ElementCore/include/Marmot</text>
<text text-anchor="middle" x="265" y="-163.5" font-family="Helvetica,sans-Serif" font-size="10.00">/MarmotGeometryElement.h</text>
</a>
</g>
</g>
<!-- Node1&#45;&gt;Node2 -->
<g id="edge1" class="edge">
<title>Node1&#45;&gt;Node2</title>
<path fill="none" stroke="midnightblue" d="M607.53,-241.46C539.99,-230.78 441.54,-214.58 356,-198 349.65,-196.77 343.06,-195.43 336.46,-194.06"/>
<polygon fill="midnightblue" stroke="midnightblue" points="607.26,-244.96 617.69,-243.06 608.35,-238.05 607.26,-244.96"/>
</g>
<!-- Node4 -->
<g id="node4" class="node">
<title>Node4</title>
<g id="a_node4"><a xlink:href="DisplacementFiniteElement_8h.html" target="_top" xlink:title=" ">
<polygon fill="white" stroke="black" points="0,-78.5 0,-119.5 158,-119.5 158,-78.5 0,-78.5"/>
<text text-anchor="start" x="8" y="-107.5" font-family="Helvetica,sans-Serif" font-size="10.00">modules/elements/Displacement</text>
<text text-anchor="start" x="8" y="-96.5" font-family="Helvetica,sans-Serif" font-size="10.00">FiniteElement/include/Marmot</text>
<text text-anchor="middle" x="79" y="-85.5" font-family="Helvetica,sans-Serif" font-size="10.00">/DisplacementFiniteElement.h</text>
</a>
</g>
</g>
<!-- Node1&#45;&gt;Node4 -->
<g id="edge12" class="edge">
<title>Node1&#45;&gt;Node4</title>
<path fill="none" stroke="midnightblue" d="M607.51,-251.11C484.59,-245.72 258.32,-231.48 185,-198 146.24,-180.3 112.22,-142.89 93.73,-119.76"/>
<polygon fill="midnightblue" stroke="midnightblue" points="607.48,-254.61 617.62,-251.54 607.78,-247.62 607.48,-254.61"/>
</g>
<!-- Node5 -->
<g id="node5" class="node">
<title>Node5</title>
<g id="a_node5"><a xlink:href="DisplacementFiniteElementRegistration_8cpp.html" target="_top" xlink:title=" ">
<polygon fill="white" stroke="black" points="171.5,-0.5 171.5,-41.5 350.5,-41.5 350.5,-0.5 171.5,-0.5"/>
<text text-anchor="start" x="179.5" y="-29.5" font-family="Helvetica,sans-Serif" font-size="10.00">modules/elements/Displacement</text>
<text text-anchor="start" x="179.5" y="-18.5" font-family="Helvetica,sans-Serif" font-size="10.00">FiniteElement/src/DisplacementFinite</text>
<text text-anchor="middle" x="261" y="-7.5" font-family="Helvetica,sans-Serif" font-size="10.00">ElementRegistration.cpp</text>
</a>
</g>
</g>
<!-- Node1&#45;&gt;Node5 -->
<g id="edge13" class="edge">
<title>Node1&#45;&gt;Node5</title>
<path fill="none" stroke="midnightblue" d="M633.1,-230.52C609.81,-220.63 582.53,-208.9 558,-198 482.4,-164.4 455.65,-169 389,-120 368.72,-105.09 370.32,-94.14 351,-78 334.62,-64.31 314.6,-51.53 297.61,-41.65"/>
<polygon fill="midnightblue" stroke="midnightblue" points="631.91,-233.81 642.48,-234.49 634.64,-227.37 631.91,-233.81"/>
</g>
<!-- Node6 -->
<g id="node6" class="node">
<title>Node6</title>
<g id="a_node6"><a xlink:href="DisplacementFiniteStrainULElement_8h.html" target="_top" xlink:title=" ">
<polygon fill="white" stroke="black" points="398.5,-78.5 398.5,-119.5 619.5,-119.5 619.5,-78.5 398.5,-78.5"/>
<text text-anchor="start" x="406.5" y="-107.5" font-family="Helvetica,sans-Serif" font-size="10.00">modules/elements/Displacement</text>
<text text-anchor="start" x="406.5" y="-96.5" font-family="Helvetica,sans-Serif" font-size="10.00">FiniteStrainULElement/include</text>
<text text-anchor="middle" x="509" y="-85.5" font-family="Helvetica,sans-Serif" font-size="10.00">/Marmot/DisplacementFiniteStrainULElement.h</text>
</a>
</g>
</g>
<!-- Node1&#45;&gt;Node6 -->
<g id="edge14" class="edge">
<title>Node1&#45;&gt;Node6</title>
<path fill="none" stroke="midnightblue" d="M649.44,-228.68C635.92,-219.51 620.95,-208.75 608,-198 577.85,-172.98 546.21,-140.38 527.05,-119.82"/>
<polygon fill="midnightblue" stroke="midnightblue" points="647.82,-231.81 658.08,-234.47 651.71,-226 647.82,-231.81"/>
</g>
<!-- Node7 -->
<g id="node7" class="node">
<title>Node7</title>
<g id="a_node7"><a xlink:href="DisplacementFiniteStrainULElement_8cpp.html" target="_top" xlink:title=" ">
<polygon fill="white" stroke="black" points="480.5,-0.5 480.5,-41.5 675.5,-41.5 675.5,-0.5 480.5,-0.5"/>
<text text-anchor="start" x="488.5" y="-29.5" font-family="Helvetica,sans-Serif" font-size="10.00">modules/elements/Displacement</text>
<text text-anchor="start" x="488.5" y="-18.5" font-family="Helvetica,sans-Serif" font-size="10.00">FiniteStrainULElement/src</text>
<text text-anchor="middle" x="578" y="-7.5" font-family="Helvetica,sans-Serif" font-size="10.00">/DisplacementFiniteStrainULElement.cpp</text>
</a>
</g>
</g>
<!-- Node1&#45;&gt;Node7 -->
<g id="edge15" class="edge">
<title>Node1&#45;&gt;Node7</title>
<path fill="none" stroke="midnightblue" d="M660.1,-226.9C652.67,-218.37 645.52,-208.44 641,-198 619.7,-148.76 649.8,-127.02 628,-78 621.86,-64.19 611.02,-51.39 600.99,-41.53"/>
<polygon fill="midnightblue" stroke="midnightblue" points="657.58,-229.32 666.93,-234.31 662.72,-224.58 657.58,-229.32"/>
</g>
<!-- Node8 -->
<g id="node8" class="node">
<title>Node8</title>
<g id="a_node8"><a xlink:href="MarmotFiniteElement1D_8cpp.html" target="_top" xlink:title=" ">
<polygon fill="white" stroke="black" points="650,-162 650,-192 864,-192 864,-162 650,-162"/>
<text text-anchor="start" x="658" y="-180" font-family="Helvetica,sans-Serif" font-size="10.00">modules/core/MarmotFinite</text>
<text text-anchor="middle" x="757" y="-169" font-family="Helvetica,sans-Serif" font-size="10.00">ElementCore/src/MarmotFiniteElement1D.cpp</text>
</a>
</g>
</g>
<!-- Node1&#45;&gt;Node8 -->
<g id="edge7" class="edge">
<title>Node1&#45;&gt;Node8</title>
<path fill="none" stroke="midnightblue" d="M713.47,-226.65C723.89,-215 735.62,-201.9 744.27,-192.23"/>
<polygon fill="midnightblue" stroke="midnightblue" points="710.57,-224.64 706.51,-234.43 715.79,-229.31 710.57,-224.64"/>
</g>
<!-- Node9 -->
<g id="node9" class="node">
<title>Node9</title>
<g id="a_node9"><a xlink:href="MarmotFiniteElement2D_8cpp.html" target="_top" xlink:title=" ">
<polygon fill="white" stroke="black" points="882,-162 882,-192 1096,-192 1096,-162 882,-162"/>
<text text-anchor="start" x="890" y="-180" font-family="Helvetica,sans-Serif" font-size="10.00">modules/core/MarmotFinite</text>
<text text-anchor="middle" x="989" y="-169" font-family="Helvetica,sans-Serif" font-size="10.00">ElementCore/src/MarmotFiniteElement2D.cpp</text>
</a>
</g>
</g>
<!-- Node1&#45;&gt;Node9 -->
<g id="edge8" class="edge">
<title>Node1&#45;&gt;Node9</title>
<path fill="none" stroke="midnightblue" d="M769.92,-233.5C821.68,-220.39 887.48,-203.72 933.4,-192.08"/>
<polygon fill="midnightblue" stroke="midnightblue" points="768.93,-230.14 760.1,-235.99 770.65,-236.93 768.93,-230.14"/>
</g>
<!-- Node10 -->
<g id="node10" class="node">
<title>Node10</title>
<g id="a_node10"><a xlink:href="MarmotFiniteElement3D_8cpp.html" target="_top" xlink:title=" ">
<polygon fill="white" stroke="black" points="1114,-162 1114,-192 1328,-192 1328,-162 1114,-162"/>
<text text-anchor="start" x="1122" y="-180" font-family="Helvetica,sans-Serif" font-size="10.00">modules/core/MarmotFinite</text>
<text text-anchor="middle" x="1221" y="-169" font-family="Helvetica,sans-Serif" font-size="10.00">ElementCore/src/MarmotFiniteElement3D.cpp</text>
</a>
</g>
</g>
<!-- Node1&#45;&gt;Node10 -->
<g id="edge9" class="edge">
<title>Node1&#45;&gt;Node10</title>
<path fill="none" stroke="midnightblue" d="M770.13,-243.98C854.06,-233.4 988.89,-215.82 1105,-198 1117.02,-196.16 1129.72,-194.09 1142.13,-192"/>
<polygon fill="midnightblue" stroke="midnightblue" points="769.63,-240.51 760.15,-245.23 770.51,-247.46 769.63,-240.51"/>
</g>
<!-- Node11 -->
<g id="node11" class="node">
<title>Node11</title>
<g id="a_node11"><a xlink:href="MarmotFiniteElementBasic_8cpp.html" target="_top" xlink:title=" ">
<polygon fill="white" stroke="black" points="1346,-156.5 1346,-197.5 1530,-197.5 1530,-156.5 1346,-156.5"/>
<text text-anchor="start" x="1354" y="-185.5" font-family="Helvetica,sans-Serif" font-size="10.00">modules/core/MarmotFinite</text>
<text text-anchor="start" x="1354" y="-174.5" font-family="Helvetica,sans-Serif" font-size="10.00">ElementCore/src/MarmotFiniteElement</text>
<text text-anchor="middle" x="1438" y="-163.5" font-family="Helvetica,sans-Serif" font-size="10.00">Basic.cpp</text>
</a>
</g>
</g>
<!-- Node1&#45;&gt;Node11 -->
<g id="edge10" class="edge">
<title>Node1&#45;&gt;Node11</title>
<path fill="none" stroke="midnightblue" d="M770.34,-249.83C893.44,-242.88 1134.19,-226.76 1337,-198 1339.92,-197.59 1342.88,-197.14 1345.87,-196.67"/>
<polygon fill="midnightblue" stroke="midnightblue" points="770.03,-246.34 760.24,-250.4 770.42,-253.33 770.03,-246.34"/>
</g>
<!-- Node12 -->
<g id="node12" class="node">
<title>Node12</title>
<g id="a_node12"><a xlink:href="MarmotFiniteElementBoundary_8cpp.html" target="_top" xlink:title=" ">
<polygon fill="white" stroke="black" points="1548,-156.5 1548,-197.5 1732,-197.5 1732,-156.5 1548,-156.5"/>
<text text-anchor="start" x="1556" y="-185.5" font-family="Helvetica,sans-Serif" font-size="10.00">modules/core/MarmotFinite</text>
<text text-anchor="start" x="1556" y="-174.5" font-family="Helvetica,sans-Serif" font-size="10.00">ElementCore/src/MarmotFiniteElement</text>
<text text-anchor="middle" x="1640" y="-163.5" font-family="Helvetica,sans-Serif" font-size="10.00">Boundary.cpp</text>
</a>
</g>
</g>
<!-- Node1&#45;&gt;Node12 -->
<g id="edge11" class="edge">
<title>Node1&#45;&gt;Node12</title>
<path fill="none" stroke="midnightblue" d="M770.27,-252.15C921.95,-247.92 1258.24,-234.89 1539,-198 1541.92,-197.62 1544.89,-197.2 1547.88,-196.75"/>
<polygon fill="midnightblue" stroke="midnightblue" points="770.01,-248.66 760.11,-252.43 770.2,-255.65 770.01,-248.66"/>
</g>
<!-- Node3 -->
<g id="node3" class="node">
<title>Node3</title>
<g id="a_node3"><a xlink:href="MarmotGeometryElement_8cpp.html" target="_top" xlink:title=" ">
<polygon fill="white" stroke="black" points="175.5,-78.5 175.5,-119.5 342.5,-119.5 342.5,-78.5 175.5,-78.5"/>
<text text-anchor="start" x="183.5" y="-107.5" font-family="Helvetica,sans-Serif" font-size="10.00">modules/core/MarmotFinite</text>
<text text-anchor="start" x="183.5" y="-96.5" font-family="Helvetica,sans-Serif" font-size="10.00">ElementCore/src/MarmotGeometry</text>
<text text-anchor="middle" x="259" y="-85.5" font-family="Helvetica,sans-Serif" font-size="10.00">Element.cpp</text>
</a>
</g>
</g>
<!-- Node2&#45;&gt;Node3 -->
<g id="edge2" class="edge">
<title>Node2&#45;&gt;Node3</title>
<path fill="none" stroke="midnightblue" d="M262.65,-146.3C261.94,-137.3 261.18,-127.65 260.54,-119.51"/>
<polygon fill="midnightblue" stroke="midnightblue" points="259.18,-146.73 263.45,-156.43 266.16,-146.18 259.18,-146.73"/>
</g>
<!-- Node2&#45;&gt;Node4 -->
<g id="edge3" class="edge">
<title>Node2&#45;&gt;Node4</title>
<path fill="none" stroke="midnightblue" d="M207.75,-152.61C181.79,-142 151.45,-129.6 126.74,-119.51"/>
<polygon fill="midnightblue" stroke="midnightblue" points="206.52,-155.89 217.1,-156.43 209.17,-149.41 206.52,-155.89"/>
</g>
<!-- Node2&#45;&gt;Node6 -->
<g id="edge5" class="edge">
<title>Node2&#45;&gt;Node6</title>
<path fill="none" stroke="midnightblue" d="M337.42,-153.44C372.05,-142.66 413.11,-129.87 446.38,-119.51"/>
<polygon fill="midnightblue" stroke="midnightblue" points="336.34,-150.11 327.84,-156.43 338.42,-156.8 336.34,-150.11"/>
</g>
<!-- Node4&#45;&gt;Node5 -->
<g id="edge4" class="edge">
<title>Node4&#45;&gt;Node5</title>
<path fill="none" stroke="midnightblue" d="M135.35,-74.47C160.68,-63.89 190.22,-51.56 214.29,-41.51"/>
<polygon fill="midnightblue" stroke="midnightblue" points="133.75,-71.34 125.87,-78.43 136.45,-77.8 133.75,-71.34"/>
</g>
<!-- Node6&#45;&gt;Node7 -->
<g id="edge6" class="edge">
<title>Node6&#45;&gt;Node7</title>
<path fill="none" stroke="midnightblue" d="M533.59,-70.92C542.41,-61.2 552.17,-50.45 560.29,-41.51"/>
<polygon fill="midnightblue" stroke="midnightblue" points="530.9,-68.67 526.77,-78.43 536.08,-73.38 530.9,-68.67"/>
</g>
</g>
</svg>
