<?xml version="1.0" encoding="UTF-8" standalone="no"?>
<!DOCTYPE svg PUBLIC "-//W3C//DTD SVG 1.1//EN"
 "http://www.w3.org/Graphics/SVG/1.1/DTD/svg11.dtd">
<!-- Generated by graphviz version 3.0.0 (20220413.0106)
 -->
<!-- Title: include/Marmot/MarmotUtils.h Pages: 1 -->
<!--zoomable 418 -->
<svg id="main" version="1.1" xmlns="http://www.w3.org/2000/svg" xmlns:xlink="http://www.w3.org/1999/xlink" xml:space="preserve" onload="init(evt)">
<style type="text/css"><![CDATA[
.edge:hover path { stroke: red; }
.edge:hover polygon { stroke: red; fill: red; }
]]></style>
<script type="text/javascript"><![CDATA[
var edges = document.getElementsByTagName('g');
if (edges && edges.length) {
  for (var i=0;i<edges.length;i++) {
    if (edges[i].id.substr(0,4)=='edge') {
      edges[i].setAttribute('class','edge');
    }
  }
}
]]></script>
        <defs>
                <circle id="rim" cx="0" cy="0" r="7"/>
                <circle id="rim2" cx="0" cy="0" r="3.5"/>
                <g id="zoomPlus">
                        <use xlink:href="#rim" fill="#404040">
                                <set attributeName="fill" to="#808080" begin="zoomplus.mouseover" end="zoomplus.mouseout"/>
                        </use>
                        <path d="M-4,0h8M0,-4v8" fill="none" stroke="white" stroke-width="1.5" pointer-events="none"/>
                </g>
                <g id="zoomMin">
                        <use xlink:href="#rim" fill="#404040">
                                <set attributeName="fill" to="#808080" begin="zoomminus.mouseover" end="zoomminus.mouseout"/>
                        </use>
                        <path d="M-4,0h8" fill="none" stroke="white" stroke-width="1.5" pointer-events="none"/>
                </g>
                <g id="dirArrow">
                        <path fill="none" stroke="white" stroke-width="1.5" d="M0,-3.0v7 M-2.5,-0.5L0,-3.0L2.5,-0.5"/>
                </g>
               <g id="resetDef">
                       <use xlink:href="#rim2" fill="#404040">
                               <set attributeName="fill" to="#808080" begin="reset.mouseover" end="reset.mouseout"/>
                       </use>
               </g>
        </defs>

<script type="text/javascript">
var viewWidth = 1382;
var viewHeight = 418;
var sectionId = 'dynsection-0';
</script>
<script xlink:href="svgpan.js"/>
<svg id="graph" class="graph">
<g id="viewport">
<title>include/Marmot/MarmotUtils.h</title>
<polygon fill="white" stroke="transparent" points="-4,4 -4,-414 1378,-414 1378,4 -4,4"/>
<!-- Node1 -->
<g id="node1" class="node">
<title>Node1</title>
<g id="a_node1"><a xlink:title=" ">
<polygon fill="#bfbfbf" stroke="black" points="645.5,-390.5 645.5,-409.5 792.5,-409.5 792.5,-390.5 645.5,-390.5"/>
<text text-anchor="middle" x="719" y="-397.5" font-family="Helvetica,sans-Serif" font-size="10.00">include/Marmot/MarmotUtils.h</text>
</a>
</g>
</g>
<!-- Node2 -->
<g id="node2" class="node">
<title>Node2</title>
<g id="a_node2"><a xlink:href="MarmotElement_8h.html" target="_top" xlink:title=" ">
<polygon fill="white" stroke="black" points="322,-245.5 322,-264.5 484,-264.5 484,-245.5 322,-245.5"/>
<text text-anchor="middle" x="403" y="-252.5" font-family="Helvetica,sans-Serif" font-size="10.00">include/Marmot/MarmotElement.h</text>
</a>
</g>
</g>
<!-- Node1&#45;&gt;Node2 -->
<g id="edge1" class="edge">
<title>Node1&#45;&gt;Node2</title>
<path fill="none" stroke="midnightblue" d="M690.82,-386.25C627.58,-357.63 475.71,-288.91 422.12,-264.65"/>
<polygon fill="midnightblue" stroke="midnightblue" points="689.63,-389.55 700.18,-390.48 692.51,-383.17 689.63,-389.55"/>
</g>
<!-- Node10 -->
<g id="node10" class="node">
<title>Node10</title>
<g id="a_node10"><a xlink:href="MarmotMaterial_8h.html" target="_top" xlink:title=" ">
<polygon fill="white" stroke="black" points="638.5,-323.5 638.5,-342.5 799.5,-342.5 799.5,-323.5 638.5,-323.5"/>
<text text-anchor="middle" x="719" y="-330.5" font-family="Helvetica,sans-Serif" font-size="10.00">include/Marmot/MarmotMaterial.h</text>
</a>
</g>
</g>
<!-- Node1&#45;&gt;Node10 -->
<g id="edge12" class="edge">
<title>Node1&#45;&gt;Node10</title>
<path fill="none" stroke="midnightblue" d="M719,-380.04C719,-367.67 719,-352.12 719,-342.63"/>
<polygon fill="midnightblue" stroke="midnightblue" points="715.5,-380.23 719,-390.23 722.5,-380.23 715.5,-380.23"/>
</g>
<!-- Node22 -->
<g id="node22" class="node">
<title>Node22</title>
<g id="a_node22"><a xlink:href="MarmotStateVarVectorManager_8h.html" target="_top" xlink:title=" ">
<polygon fill="white" stroke="black" points="818,-312.5 818,-353.5 984,-353.5 984,-312.5 818,-312.5"/>
<text text-anchor="start" x="826" y="-341.5" font-family="Helvetica,sans-Serif" font-size="10.00">modules/core/MarmotMechanics</text>
<text text-anchor="start" x="826" y="-330.5" font-family="Helvetica,sans-Serif" font-size="10.00">Core/include/Marmot/MarmotState</text>
<text text-anchor="middle" x="901" y="-319.5" font-family="Helvetica,sans-Serif" font-size="10.00">VarVectorManager.h</text>
</a>
</g>
</g>
<!-- Node1&#45;&gt;Node22 -->
<g id="edge27" class="edge">
<title>Node1&#45;&gt;Node22</title>
<path fill="none" stroke="midnightblue" d="M752.63,-386.99C778.79,-377.65 815.63,-364.49 846.05,-353.63"/>
<polygon fill="midnightblue" stroke="midnightblue" points="751.41,-383.71 743.17,-390.37 753.76,-390.3 751.41,-383.71"/>
</g>
<!-- Node3 -->
<g id="node3" class="node">
<title>Node3</title>
<g id="a_node3"><a xlink:href="Marmot_8h.html" target="_top" xlink:title=" ">
<polygon fill="white" stroke="black" points="385.5,-167.5 385.5,-186.5 512.5,-186.5 512.5,-167.5 385.5,-167.5"/>
<text text-anchor="middle" x="449" y="-174.5" font-family="Helvetica,sans-Serif" font-size="10.00">include/Marmot/Marmot.h</text>
</a>
</g>
</g>
<!-- Node2&#45;&gt;Node3 -->
<g id="edge2" class="edge">
<title>Node2&#45;&gt;Node3</title>
<path fill="none" stroke="midnightblue" d="M413.55,-236.57C423,-220.95 436.47,-198.7 443.78,-186.62"/>
<polygon fill="midnightblue" stroke="midnightblue" points="410.46,-234.91 408.28,-245.28 416.45,-238.54 410.46,-234.91"/>
</g>
<!-- Node6 -->
<g id="node6" class="node">
<title>Node6</title>
<g id="a_node6"><a xlink:href="DisplacementFiniteElement_8h.html" target="_top" xlink:title=" ">
<polygon fill="white" stroke="black" points="278,-78.5 278,-119.5 436,-119.5 436,-78.5 278,-78.5"/>
<text text-anchor="start" x="286" y="-107.5" font-family="Helvetica,sans-Serif" font-size="10.00">modules/elements/Displacement</text>
<text text-anchor="start" x="286" y="-96.5" font-family="Helvetica,sans-Serif" font-size="10.00">FiniteElement/include/Marmot</text>
<text text-anchor="middle" x="357" y="-85.5" font-family="Helvetica,sans-Serif" font-size="10.00">/DisplacementFiniteElement.h</text>
</a>
</g>
</g>
<!-- Node2&#45;&gt;Node6 -->
<g id="edge11" class="edge">
<title>Node2&#45;&gt;Node6</title>
<path fill="none" stroke="midnightblue" d="M393.05,-236.37C387.33,-225.58 380.42,-211.33 376,-198 367.21,-171.52 361.96,-139.58 359.28,-119.53"/>
<polygon fill="midnightblue" stroke="midnightblue" points="390,-238.09 397.86,-245.18 396.14,-234.73 390,-238.09"/>
</g>
<!-- Node8 -->
<g id="node8" class="node">
<title>Node8</title>
<g id="a_node8"><a xlink:href="MarmotFiniteElementSpatialWrapper_8h.html" target="_top" xlink:title=" ">
<polygon fill="white" stroke="black" points="119.5,-156.5 119.5,-197.5 304.5,-197.5 304.5,-156.5 119.5,-156.5"/>
<text text-anchor="start" x="127.5" y="-185.5" font-family="Helvetica,sans-Serif" font-size="10.00">modules/core/MarmotFinite</text>
<text text-anchor="start" x="127.5" y="-174.5" font-family="Helvetica,sans-Serif" font-size="10.00">ElementCore/include/Marmot</text>
<text text-anchor="middle" x="212" y="-163.5" font-family="Helvetica,sans-Serif" font-size="10.00">/MarmotFiniteElementSpatialWrapper.h</text>
</a>
</g>
</g>
<!-- Node2&#45;&gt;Node8 -->
<g id="edge8" class="edge">
<title>Node2&#45;&gt;Node8</title>
<path fill="none" stroke="midnightblue" d="M371.95,-241.64C341.98,-229.72 296.15,-211.49 261.22,-197.59"/>
<polygon fill="midnightblue" stroke="midnightblue" points="370.88,-244.98 381.46,-245.43 373.46,-238.48 370.88,-244.98"/>
</g>
<!-- Node4 -->
<g id="node4" class="node">
<title>Node4</title>
<g id="a_node4"><a xlink:href="MarmotMaterialRegistrationHelper_8h.html" target="_top" xlink:title=" ">
<polygon fill="white" stroke="black" points="454,-84 454,-114 608,-114 608,-84 454,-84"/>
<text text-anchor="start" x="462" y="-102" font-family="Helvetica,sans-Serif" font-size="10.00">include/Marmot/MarmotMaterial</text>
<text text-anchor="middle" x="531" y="-91" font-family="Helvetica,sans-Serif" font-size="10.00">RegistrationHelper.h</text>
</a>
</g>
</g>
<!-- Node3&#45;&gt;Node4 -->
<g id="edge3" class="edge">
<title>Node3&#45;&gt;Node4</title>
<path fill="none" stroke="midnightblue" d="M465.83,-160.4C480.53,-146.77 501.69,-127.16 515.87,-114.02"/>
<polygon fill="midnightblue" stroke="midnightblue" points="463.36,-157.92 458.41,-167.28 468.12,-163.05 463.36,-157.92"/>
</g>
<!-- Node3&#45;&gt;Node6 -->
<g id="edge5" class="edge">
<title>Node3&#45;&gt;Node6</title>
<path fill="none" stroke="midnightblue" d="M430.35,-160.59C416.06,-148.79 396.23,-132.41 380.8,-119.66"/>
<polygon fill="midnightblue" stroke="midnightblue" points="428.51,-163.61 438.45,-167.28 432.97,-158.21 428.51,-163.61"/>
</g>
<!-- Node7 -->
<g id="node7" class="node">
<title>Node7</title>
<g id="a_node7"><a xlink:href="DisplacementFiniteElementRegistration_8cpp.html" target="_top" xlink:title=" ">
<polygon fill="white" stroke="black" points="160.5,-0.5 160.5,-41.5 339.5,-41.5 339.5,-0.5 160.5,-0.5"/>
<text text-anchor="start" x="168.5" y="-29.5" font-family="Helvetica,sans-Serif" font-size="10.00">modules/elements/Displacement</text>
<text text-anchor="start" x="168.5" y="-18.5" font-family="Helvetica,sans-Serif" font-size="10.00">FiniteElement/src/DisplacementFinite</text>
<text text-anchor="middle" x="250" y="-7.5" font-family="Helvetica,sans-Serif" font-size="10.00">ElementRegistration.cpp</text>
</a>
</g>
</g>
<!-- Node3&#45;&gt;Node7 -->
<g id="edge7" class="edge">
<title>Node3&#45;&gt;Node7</title>
<path fill="none" stroke="midnightblue" d="M375.01,-170.56C338.1,-163.97 295.74,-149.86 269,-120 249.81,-98.57 247.52,-63.72 248.28,-41.87"/>
<polygon fill="midnightblue" stroke="midnightblue" points="374.82,-174.08 385.26,-172.23 375.95,-167.17 374.82,-174.08"/>
</g>
<!-- Node5 -->
<g id="node5" class="node">
<title>Node5</title>
<g id="a_node5"><a xlink:href="LinearElasticRegistration_8cpp.html" target="_top" xlink:title=" ">
<polygon fill="white" stroke="black" points="528.5,-6 528.5,-36 719.5,-36 719.5,-6 528.5,-6"/>
<text text-anchor="start" x="536.5" y="-24" font-family="Helvetica,sans-Serif" font-size="10.00">modules/materials/Linear</text>
<text text-anchor="middle" x="624" y="-13" font-family="Helvetica,sans-Serif" font-size="10.00">Elastic/src/LinearElasticRegistration.cpp</text>
</a>
</g>
</g>
<!-- Node4&#45;&gt;Node5 -->
<g id="edge4" class="edge">
<title>Node4&#45;&gt;Node5</title>
<path fill="none" stroke="midnightblue" d="M556.39,-77.25C572.32,-64.23 592.45,-47.78 606.59,-36.23"/>
<polygon fill="midnightblue" stroke="midnightblue" points="554.02,-74.67 548.49,-83.7 558.45,-80.09 554.02,-74.67"/>
</g>
<!-- Node6&#45;&gt;Node7 -->
<g id="edge6" class="edge">
<title>Node6&#45;&gt;Node7</title>
<path fill="none" stroke="midnightblue" d="M321.29,-72.64C307,-62.49 290.8,-50.98 277.46,-41.51"/>
<polygon fill="midnightblue" stroke="midnightblue" points="319.27,-75.49 329.44,-78.43 323.32,-69.78 319.27,-75.49"/>
</g>
<!-- Node8&#45;&gt;Node7 -->
<g id="edge10" class="edge">
<title>Node8&#45;&gt;Node7</title>
<path fill="none" stroke="midnightblue" d="M219.14,-146.67C223.9,-127.19 230.29,-101.06 236,-78 238.98,-65.94 242.36,-52.42 245.05,-41.69"/>
<polygon fill="midnightblue" stroke="midnightblue" points="215.72,-145.93 216.75,-156.47 222.52,-147.58 215.72,-145.93"/>
</g>
<!-- Node9 -->
<g id="node9" class="node">
<title>Node9</title>
<g id="a_node9"><a xlink:href="MarmotFiniteElementSpatialWrapper_8cpp.html" target="_top" xlink:title=" ">
<polygon fill="white" stroke="black" points="0,-78.5 0,-119.5 184,-119.5 184,-78.5 0,-78.5"/>
<text text-anchor="start" x="8" y="-107.5" font-family="Helvetica,sans-Serif" font-size="10.00">modules/core/MarmotFinite</text>
<text text-anchor="start" x="8" y="-96.5" font-family="Helvetica,sans-Serif" font-size="10.00">ElementCore/src/MarmotFiniteElement</text>
<text text-anchor="middle" x="92" y="-85.5" font-family="Helvetica,sans-Serif" font-size="10.00">SpatialWrapper.cpp</text>
</a>
</g>
</g>
<!-- Node8&#45;&gt;Node9 -->
<g id="edge9" class="edge">
<title>Node8&#45;&gt;Node9</title>
<path fill="none" stroke="midnightblue" d="M172.4,-150.92C156.27,-140.7 137.9,-129.07 122.8,-119.51"/>
<polygon fill="midnightblue" stroke="midnightblue" points="170.78,-154.03 181.1,-156.43 174.52,-148.12 170.78,-154.03"/>
</g>
<!-- Node10&#45;&gt;Node3 -->
<g id="edge13" class="edge">
<title>Node10&#45;&gt;Node3</title>
<path fill="none" stroke="midnightblue" d="M694.73,-318.16C640.1,-287 508.74,-212.07 464.12,-186.63"/>
<polygon fill="midnightblue" stroke="midnightblue" points="693.29,-321.36 703.71,-323.28 696.76,-315.28 693.29,-321.36"/>
</g>
<!-- Node11 -->
<g id="node11" class="node">
<title>Node11</title>
<g id="a_node11"><a xlink:href="MarmotMaterialGradientEnhancedMechanical_8h.html" target="_top" xlink:title=" ">
<polygon fill="white" stroke="black" points="1086.5,-234.5 1086.5,-275.5 1263.5,-275.5 1263.5,-234.5 1086.5,-234.5"/>
<text text-anchor="start" x="1094.5" y="-263.5" font-family="Helvetica,sans-Serif" font-size="10.00">modules/core/MarmotMechanics</text>
<text text-anchor="start" x="1094.5" y="-252.5" font-family="Helvetica,sans-Serif" font-size="10.00">Core/include/Marmot/MarmotMaterial</text>
<text text-anchor="middle" x="1175" y="-241.5" font-family="Helvetica,sans-Serif" font-size="10.00">GradientEnhancedMechanical.h</text>
</a>
</g>
</g>
<!-- Node10&#45;&gt;Node11 -->
<g id="edge14" class="edge">
<title>Node10&#45;&gt;Node11</title>
<path fill="none" stroke="midnightblue" d="M764.79,-321.2C778.92,-318.04 794.57,-314.7 809,-312 903.3,-294.33 1012.05,-278.23 1086.34,-267.87"/>
<polygon fill="midnightblue" stroke="midnightblue" points="763.78,-317.84 754.8,-323.47 765.33,-324.67 763.78,-317.84"/>
</g>
<!-- Node14 -->
<g id="node14" class="node">
<title>Node14</title>
<g id="a_node14"><a xlink:href="MarmotMaterialMechanical_8h.html" target="_top" xlink:title=" ">
<polygon fill="white" stroke="black" points="689.5,-234.5 689.5,-275.5 866.5,-275.5 866.5,-234.5 689.5,-234.5"/>
<text text-anchor="start" x="697.5" y="-263.5" font-family="Helvetica,sans-Serif" font-size="10.00">modules/core/MarmotMechanics</text>
<text text-anchor="start" x="697.5" y="-252.5" font-family="Helvetica,sans-Serif" font-size="10.00">Core/include/Marmot/MarmotMaterial</text>
<text text-anchor="middle" x="778" y="-241.5" font-family="Helvetica,sans-Serif" font-size="10.00">Mechanical.h</text>
</a>
</g>
</g>
<!-- Node10&#45;&gt;Node14 -->
<g id="edge17" class="edge">
<title>Node10&#45;&gt;Node14</title>
<path fill="none" stroke="midnightblue" d="M732.01,-315.24C741.08,-303.56 753.21,-287.93 762.74,-275.66"/>
<polygon fill="midnightblue" stroke="midnightblue" points="729.14,-313.24 725.77,-323.28 734.66,-317.53 729.14,-313.24"/>
</g>
<!-- Node12 -->
<g id="node12" class="node">
<title>Node12</title>
<g id="a_node12"><a xlink:href="MarmotMaterialGradientEnhancedHypoElastic_8h.html" target="_top" xlink:title=" ">
<polygon fill="white" stroke="black" points="1192.5,-156.5 1192.5,-197.5 1369.5,-197.5 1369.5,-156.5 1192.5,-156.5"/>
<text text-anchor="start" x="1200.5" y="-185.5" font-family="Helvetica,sans-Serif" font-size="10.00">modules/core/MarmotMechanics</text>
<text text-anchor="start" x="1200.5" y="-174.5" font-family="Helvetica,sans-Serif" font-size="10.00">Core/include/Marmot/MarmotMaterial</text>
<text text-anchor="middle" x="1281" y="-163.5" font-family="Helvetica,sans-Serif" font-size="10.00">GradientEnhancedHypoElastic.h</text>
</a>
</g>
</g>
<!-- Node11&#45;&gt;Node12 -->
<g id="edge15" class="edge">
<title>Node11&#45;&gt;Node12</title>
<path fill="none" stroke="midnightblue" d="M1210.77,-228.35C1224.83,-218.27 1240.7,-206.89 1253.79,-197.51"/>
<polygon fill="midnightblue" stroke="midnightblue" points="1208.39,-225.76 1202.3,-234.43 1212.46,-231.45 1208.39,-225.76"/>
</g>
<!-- Node13 -->
<g id="node13" class="node">
<title>Node13</title>
<g id="a_node13"><a xlink:href="MarmotMaterialHypoElasticNonLocal_8cpp.html" target="_top" xlink:title=" ">
<polygon fill="white" stroke="black" points="1198,-78.5 1198,-119.5 1374,-119.5 1374,-78.5 1198,-78.5"/>
<text text-anchor="start" x="1206" y="-107.5" font-family="Helvetica,sans-Serif" font-size="10.00">modules/core/MarmotMechanics</text>
<text text-anchor="start" x="1206" y="-96.5" font-family="Helvetica,sans-Serif" font-size="10.00">Core/src/MarmotMaterialHypoElastic</text>
<text text-anchor="middle" x="1286" y="-85.5" font-family="Helvetica,sans-Serif" font-size="10.00">NonLocal.cpp</text>
</a>
</g>
</g>
<!-- Node12&#45;&gt;Node13 -->
<g id="edge16" class="edge">
<title>Node12&#45;&gt;Node13</title>
<path fill="none" stroke="midnightblue" d="M1282.95,-146.3C1283.55,-137.3 1284.18,-127.65 1284.72,-119.51"/>
<polygon fill="midnightblue" stroke="midnightblue" points="1279.45,-146.22 1282.29,-156.43 1286.44,-146.68 1279.45,-146.22"/>
</g>
<!-- Node15 -->
<g id="node15" class="node">
<title>Node15</title>
<g id="a_node15"><a xlink:href="MarmotMaterialHyperElastic_8h.html" target="_top" xlink:title=" ">
<polygon fill="white" stroke="black" points="992.5,-156.5 992.5,-197.5 1169.5,-197.5 1169.5,-156.5 992.5,-156.5"/>
<text text-anchor="start" x="1000.5" y="-185.5" font-family="Helvetica,sans-Serif" font-size="10.00">modules/core/MarmotMechanics</text>
<text text-anchor="start" x="1000.5" y="-174.5" font-family="Helvetica,sans-Serif" font-size="10.00">Core/include/Marmot/MarmotMaterial</text>
<text text-anchor="middle" x="1081" y="-163.5" font-family="Helvetica,sans-Serif" font-size="10.00">HyperElastic.h</text>
</a>
</g>
</g>
<!-- Node14&#45;&gt;Node15 -->
<g id="edge18" class="edge">
<title>Node14&#45;&gt;Node15</title>
<path fill="none" stroke="midnightblue" d="M865.74,-231.99C909.2,-221.09 961.22,-208.04 1003.23,-197.51"/>
<polygon fill="midnightblue" stroke="midnightblue" points="864.88,-228.6 856.03,-234.43 866.58,-235.39 864.88,-228.6"/>
</g>
<!-- Node17 -->
<g id="node17" class="node">
<title>Node17</title>
<g id="a_node17"><a xlink:href="MarmotMaterialHypoElastic_8h.html" target="_top" xlink:title=" ">
<polygon fill="white" stroke="black" points="588.5,-156.5 588.5,-197.5 765.5,-197.5 765.5,-156.5 588.5,-156.5"/>
<text text-anchor="start" x="596.5" y="-185.5" font-family="Helvetica,sans-Serif" font-size="10.00">modules/core/MarmotMechanics</text>
<text text-anchor="start" x="596.5" y="-174.5" font-family="Helvetica,sans-Serif" font-size="10.00">Core/include/Marmot/MarmotMaterial</text>
<text text-anchor="middle" x="677" y="-163.5" font-family="Helvetica,sans-Serif" font-size="10.00">HypoElastic.h</text>
</a>
</g>
</g>
<!-- Node14&#45;&gt;Node17 -->
<g id="edge20" class="edge">
<title>Node14&#45;&gt;Node17</title>
<path fill="none" stroke="midnightblue" d="M743.91,-228.35C730.52,-218.27 715.4,-206.89 702.92,-197.51"/>
<polygon fill="midnightblue" stroke="midnightblue" points="741.9,-231.21 751.99,-234.43 746.1,-225.62 741.9,-231.21"/>
</g>
<!-- Node21 -->
<g id="node21" class="node">
<title>Node21</title>
<g id="a_node21"><a xlink:href="MarmotMaterialMechanical_8cpp.html" target="_top" xlink:title=" ">
<polygon fill="white" stroke="black" points="783.5,-162 783.5,-192 974.5,-192 974.5,-162 783.5,-162"/>
<text text-anchor="start" x="791.5" y="-180" font-family="Helvetica,sans-Serif" font-size="10.00">modules/core/MarmotMechanics</text>
<text text-anchor="middle" x="879" y="-169" font-family="Helvetica,sans-Serif" font-size="10.00">Core/src/MarmotMaterialMechanical.cpp</text>
</a>
</g>
</g>
<!-- Node14&#45;&gt;Node21 -->
<g id="edge26" class="edge">
<title>Node14&#45;&gt;Node21</title>
<path fill="none" stroke="midnightblue" d="M812.12,-228.32C828.14,-216.27 846.62,-202.36 860.1,-192.23"/>
<polygon fill="midnightblue" stroke="midnightblue" points="809.9,-225.62 804.01,-234.43 814.1,-231.21 809.9,-225.62"/>
</g>
<!-- Node16 -->
<g id="node16" class="node">
<title>Node16</title>
<g id="a_node16"><a xlink:href="MarmotMaterialHyperElastic_8cpp.html" target="_top" xlink:title=" ">
<polygon fill="white" stroke="black" points="982.5,-84 982.5,-114 1179.5,-114 1179.5,-84 982.5,-84"/>
<text text-anchor="start" x="990.5" y="-102" font-family="Helvetica,sans-Serif" font-size="10.00">modules/core/MarmotMechanics</text>
<text text-anchor="middle" x="1081" y="-91" font-family="Helvetica,sans-Serif" font-size="10.00">Core/src/MarmotMaterialHyperElastic.cpp</text>
</a>
</g>
</g>
<!-- Node15&#45;&gt;Node16 -->
<g id="edge19" class="edge">
<title>Node15&#45;&gt;Node16</title>
<path fill="none" stroke="midnightblue" d="M1081,-146.28C1081,-135.25 1081,-123.25 1081,-114.23"/>
<polygon fill="midnightblue" stroke="midnightblue" points="1077.5,-146.43 1081,-156.43 1084.5,-146.43 1077.5,-146.43"/>
</g>
<!-- Node17&#45;&gt;Node6 -->
<g id="edge22" class="edge">
<title>Node17&#45;&gt;Node6</title>
<path fill="none" stroke="midnightblue" d="M584.71,-154.08C537.69,-142.91 481.1,-129.47 436.09,-118.78"/>
<polygon fill="midnightblue" stroke="midnightblue" points="584.05,-157.52 594.59,-156.43 585.67,-150.71 584.05,-157.52"/>
</g>
<!-- Node18 -->
<g id="node18" class="node">
<title>Node18</title>
<g id="a_node18"><a xlink:href="MarmotMaterialHypoElastic_8cpp.html" target="_top" xlink:title=" ">
<polygon fill="white" stroke="black" points="626,-84 626,-114 820,-114 820,-84 626,-84"/>
<text text-anchor="start" x="634" y="-102" font-family="Helvetica,sans-Serif" font-size="10.00">modules/core/MarmotMechanics</text>
<text text-anchor="middle" x="723" y="-91" font-family="Helvetica,sans-Serif" font-size="10.00">Core/src/MarmotMaterialHypoElastic.cpp</text>
</a>
</g>
</g>
<!-- Node17&#45;&gt;Node18 -->
<g id="edge21" class="edge">
<title>Node17&#45;&gt;Node18</title>
<path fill="none" stroke="midnightblue" d="M694.16,-147.64C701.06,-136.25 708.71,-123.62 714.39,-114.23"/>
<polygon fill="midnightblue" stroke="midnightblue" points="691.03,-146.06 688.85,-156.43 697.02,-149.69 691.03,-146.06"/>
</g>
<!-- Node19 -->
<g id="node19" class="node">
<title>Node19</title>
<g id="a_node19"><a xlink:href="LinearElastic_8h.html" target="_top" xlink:title=" ">
<polygon fill="white" stroke="black" points="838,-78.5 838,-119.5 964,-119.5 964,-78.5 838,-78.5"/>
<text text-anchor="start" x="846" y="-107.5" font-family="Helvetica,sans-Serif" font-size="10.00">modules/materials/Linear</text>
<text text-anchor="start" x="846" y="-96.5" font-family="Helvetica,sans-Serif" font-size="10.00">Elastic/include/Marmot</text>
<text text-anchor="middle" x="901" y="-85.5" font-family="Helvetica,sans-Serif" font-size="10.00">/LinearElastic.h</text>
</a>
</g>
</g>
<!-- Node17&#45;&gt;Node19 -->
<g id="edge23" class="edge">
<title>Node17&#45;&gt;Node19</title>
<path fill="none" stroke="midnightblue" d="M744.3,-153.17C775.92,-142.44 813.23,-129.78 843.51,-119.51"/>
<polygon fill="midnightblue" stroke="midnightblue" points="743.03,-149.9 734.69,-156.43 745.28,-156.53 743.03,-149.9"/>
</g>
<!-- Node19&#45;&gt;Node5 -->
<g id="edge25" class="edge">
<title>Node19&#45;&gt;Node5</title>
<path fill="none" stroke="midnightblue" d="M827.81,-77.68C770.43,-61.88 715.02,-46.76 675.83,-36.09"/>
<polygon fill="midnightblue" stroke="midnightblue" points="827.22,-81.14 837.79,-80.42 829.08,-74.4 827.22,-81.14"/>
</g>
<!-- Node20 -->
<g id="node20" class="node">
<title>Node20</title>
<g id="a_node20"><a xlink:href="LinearElastic_8cpp.html" target="_top" xlink:title=" ">
<polygon fill="white" stroke="black" points="831,-6 831,-36 971,-36 971,-6 831,-6"/>
<text text-anchor="start" x="839" y="-24" font-family="Helvetica,sans-Serif" font-size="10.00">modules/materials/Linear</text>
<text text-anchor="middle" x="901" y="-13" font-family="Helvetica,sans-Serif" font-size="10.00">Elastic/src/LinearElastic.cpp</text>
</a>
</g>
</g>
<!-- Node19&#45;&gt;Node20 -->
<g id="edge24" class="edge">
<title>Node19&#45;&gt;Node20</title>
<path fill="none" stroke="midnightblue" d="M901,-68.28C901,-57.25 901,-45.25 901,-36.23"/>
<polygon fill="midnightblue" stroke="midnightblue" points="897.5,-68.43 901,-78.43 904.5,-68.43 897.5,-68.43"/>
</g>
</g>
</svg>
        <g id="navigator" transform="translate(0 0)" fill="#404254">
                <rect fill="#f2f5e9" fill-opacity="0.5" stroke="#606060" stroke-width=".5" x="0" y="0" width="60" height="60"/>
                <use id="zoomplus" xlink:href="#zoomPlus" x="17" y="9" onmousedown="handleZoom(evt,'in')"/>
                <use id="zoomminus" xlink:href="#zoomMin" x="42" y="9" onmousedown="handleZoom(evt,'out')"/>
                <use id="reset" xlink:href="#resetDef" x="30" y="36" onmousedown="handleReset()"/>
                <g id="arrowUp" xlink:href="#dirArrow" transform="translate(30 24)" onmousedown="handlePan(0,-1)">
                  <use xlink:href="#rim" fill="#404040">
                        <set attributeName="fill" to="#808080" begin="arrowUp.mouseover" end="arrowUp.mouseout"/>
                  </use>
                  <path fill="none" stroke="white" stroke-width="1.5" d="M0,-3.0v7 M-2.5,-0.5L0,-3.0L2.5,-0.5"/>
                </g>
                <g id="arrowRight" xlink:href="#dirArrow" transform="rotate(90) translate(36 -43)" onmousedown="handlePan(1,0)">
                  <use xlink:href="#rim" fill="#404040">
                        <set attributeName="fill" to="#808080" begin="arrowRight.mouseover" end="arrowRight.mouseout"/>
                  </use>
                  <path fill="none" stroke="white" stroke-width="1.5" d="M0,-3.0v7 M-2.5,-0.5L0,-3.0L2.5,-0.5"/>
                </g>
                <g id="arrowDown" xlink:href="#dirArrow" transform="rotate(180) translate(-30 -48)" onmousedown="handlePan(0,1)">
                  <use xlink:href="#rim" fill="#404040">
                        <set attributeName="fill" to="#808080" begin="arrowDown.mouseover" end="arrowDown.mouseout"/>
                  </use>
                  <path fill="none" stroke="white" stroke-width="1.5" d="M0,-3.0v7 M-2.5,-0.5L0,-3.0L2.5,-0.5"/>
                </g>
                <g id="arrowLeft" xlink:href="#dirArrow" transform="rotate(270) translate(-36 17)" onmousedown="handlePan(-1,0)">
                  <use xlink:href="#rim" fill="#404040">
                        <set attributeName="fill" to="#808080" begin="arrowLeft.mouseover" end="arrowLeft.mouseout"/>
                  </use>
                  <path fill="none" stroke="white" stroke-width="1.5" d="M0,-3.0v7 M-2.5,-0.5L0,-3.0L2.5,-0.5"/>
                </g>
        </g>
        <svg viewBox="0 0 15 15" width="100%" height="30px" preserveAspectRatio="xMaxYMin meet">
         <g id="arrow_out" transform="scale(0.3 0.3)">
          <a xlink:href="MarmotUtils_8h__dep__incl_org.svg" target="_base">
           <rect id="button" ry="5" rx="5" y="6" x="6" height="38" width="38"
                fill="#f2f5e9" fill-opacity="0.5" stroke="#606060" stroke-width="1.0"/>
           <path id="arrow"
             d="M 11.500037,31.436501 C 11.940474,20.09759 22.043105,11.32322 32.158766,21.979434 L 37.068811,17.246167 C 37.068811,17.246167 37.088388,32 37.088388,32 L 22.160133,31.978069 C 22.160133,31.978069 26.997745,27.140456 26.997745,27.140456 C 18.528582,18.264221 13.291696,25.230495 11.500037,31.436501 z"
             style="fill:#404040;"/>
          </a>
         </g>
        </svg>
</svg>
