<?xml version="1.0" encoding="UTF-8" standalone="no"?>
<!DOCTYPE svg PUBLIC "-//W3C//DTD SVG 1.1//EN"
 "http://www.w3.org/Graphics/SVG/1.1/DTD/svg11.dtd">
<!-- Generated by graphviz version 2.44.0 ()
 -->
<!-- Title: include/Marmot/MarmotMaterial.h Pages: 1 -->
<svg width="3175pt" height="407pt"
 viewBox="0.00 0.00 3174.50 407.00" xmlns="http://www.w3.org/2000/svg" xmlns:xlink="http://www.w3.org/1999/xlink">
<g id="graph0" class="graph" transform="scale(1 1) rotate(0) translate(4 403)">
<title>include/Marmot/MarmotMaterial.h</title>
<polygon fill="white" stroke="transparent" points="-4,4 -4,-403 3170.5,-403 3170.5,4 -4,4"/>
<!-- Node1 -->
<g id="node1" class="node">
<title>Node1</title>
<g id="a_node1"><a xlink:title=" ">
<polygon fill="#bfbfbf" stroke="black" points="1263,-379.5 1263,-398.5 1424,-398.5 1424,-379.5 1263,-379.5"/>
<text text-anchor="middle" x="1343.5" y="-386.5" font-family="Helvetica,sans-Serif" font-size="10.00">include/Marmot/MarmotMaterial.h</text>
</a>
</g>
</g>
<!-- Node2 -->
<g id="node2" class="node">
<title>Node2</title>
<g id="a_node2"><a xlink:href="Marmot_8h.html" target="_top" xlink:title=" ">
<polygon fill="white" stroke="black" points="1019,-234.5 1019,-253.5 1146,-253.5 1146,-234.5 1019,-234.5"/>
<text text-anchor="middle" x="1082.5" y="-241.5" font-family="Helvetica,sans-Serif" font-size="10.00">include/Marmot/Marmot.h</text>
</a>
</g>
</g>
<!-- Node1&#45;&gt;Node2 -->
<g id="edge1" class="edge">
<title>Node1&#45;&gt;Node2</title>
<path fill="none" stroke="midnightblue" d="M1318.92,-374.53C1265.93,-345.5 1142.19,-277.71 1098.29,-253.65"/>
<polygon fill="midnightblue" stroke="midnightblue" points="1317.5,-377.75 1327.95,-379.48 1320.87,-371.61 1317.5,-377.75"/>
</g>
<!-- Node16 -->
<g id="node16" class="node">
<title>Node16</title>
<g id="a_node16"><a xlink:href="MarmotMaterialFiniteStrain_8h.html" target="_top" xlink:title=" ">
<polygon fill="white" stroke="black" points="378.5,-223.5 378.5,-264.5 558.5,-264.5 558.5,-223.5 378.5,-223.5"/>
<text text-anchor="start" x="386.5" y="-252.5" font-family="Helvetica,sans-Serif" font-size="10.00">modules/core/MarmotFinite</text>
<text text-anchor="start" x="386.5" y="-241.5" font-family="Helvetica,sans-Serif" font-size="10.00">StrainMechanicsCore/include</text>
<text text-anchor="middle" x="468.5" y="-230.5" font-family="Helvetica,sans-Serif" font-size="10.00">/Marmot/MarmotMaterialFiniteStrain.h</text>
</a>
</g>
</g>
<!-- Node1&#45;&gt;Node16 -->
<g id="edge17" class="edge">
<title>Node1&#45;&gt;Node16</title>
<path fill="none" stroke="midnightblue" d="M1281.27,-377.83C1128.94,-352.93 736.81,-288.85 558.8,-259.76"/>
<polygon fill="midnightblue" stroke="midnightblue" points="1280.95,-381.32 1291.39,-379.48 1282.08,-374.42 1280.95,-381.32"/>
</g>
<!-- Node22 -->
<g id="node22" class="node">
<title>Node22</title>
<g id="a_node22"><a xlink:href="MarmotMaterialGradientEnhancedMechanical_8h.html" target="_top" xlink:title=" ">
<polygon fill="white" stroke="black" points="1270,-301.5 1270,-342.5 1447,-342.5 1447,-301.5 1270,-301.5"/>
<text text-anchor="start" x="1278" y="-330.5" font-family="Helvetica,sans-Serif" font-size="10.00">modules/core/MarmotMechanics</text>
<text text-anchor="start" x="1278" y="-319.5" font-family="Helvetica,sans-Serif" font-size="10.00">Core/include/Marmot/MarmotMaterial</text>
<text text-anchor="middle" x="1358.5" y="-308.5" font-family="Helvetica,sans-Serif" font-size="10.00">GradientEnhancedMechanical.h</text>
</a>
</g>
</g>
<!-- Node1&#45;&gt;Node22 -->
<g id="edge28" class="edge">
<title>Node1&#45;&gt;Node22</title>
<path fill="none" stroke="midnightblue" d="M1347.81,-369.32C1349.75,-360.93 1352.03,-351.03 1353.99,-342.54"/>
<polygon fill="midnightblue" stroke="midnightblue" points="1344.36,-368.7 1345.52,-379.23 1351.18,-370.28 1344.36,-368.7"/>
</g>
<!-- Node25 -->
<g id="node25" class="node">
<title>Node25</title>
<g id="a_node25"><a xlink:href="MarmotMaterialMechanical_8h.html" target="_top" xlink:title=" ">
<polygon fill="white" stroke="black" points="2099,-301.5 2099,-342.5 2276,-342.5 2276,-301.5 2099,-301.5"/>
<text text-anchor="start" x="2107" y="-330.5" font-family="Helvetica,sans-Serif" font-size="10.00">modules/core/MarmotMechanics</text>
<text text-anchor="start" x="2107" y="-319.5" font-family="Helvetica,sans-Serif" font-size="10.00">Core/include/Marmot/MarmotMaterial</text>
<text text-anchor="middle" x="2187.5" y="-308.5" font-family="Helvetica,sans-Serif" font-size="10.00">Mechanical.h</text>
</a>
</g>
</g>
<!-- Node1&#45;&gt;Node25 -->
<g id="edge31" class="edge">
<title>Node1&#45;&gt;Node25</title>
<path fill="none" stroke="midnightblue" d="M1434.04,-381.03C1596.91,-368.48 1937.35,-342.27 2098.84,-329.83"/>
<polygon fill="midnightblue" stroke="midnightblue" points="1433.75,-377.54 1424.04,-381.8 1434.28,-384.52 1433.75,-377.54"/>
</g>
<!-- Node3 -->
<g id="node3" class="node">
<title>Node3</title>
<g id="a_node3"><a xlink:href="MarmotMaterialRegistrationHelper_8h.html" target="_top" xlink:title=" ">
<polygon fill="white" stroke="black" points="1272.5,-151 1272.5,-181 1426.5,-181 1426.5,-151 1272.5,-151"/>
<text text-anchor="start" x="1280.5" y="-169" font-family="Helvetica,sans-Serif" font-size="10.00">include/Marmot/MarmotMaterial</text>
<text text-anchor="middle" x="1349.5" y="-158" font-family="Helvetica,sans-Serif" font-size="10.00">RegistrationHelper.h</text>
</a>
</g>
</g>
<!-- Node2&#45;&gt;Node3 -->
<g id="edge2" class="edge">
<title>Node2&#45;&gt;Node3</title>
<path fill="none" stroke="midnightblue" d="M1122.51,-231.61C1169.9,-218.12 1248.85,-195.65 1300.03,-181.08"/>
<polygon fill="midnightblue" stroke="midnightblue" points="1121.27,-228.33 1112.61,-234.43 1123.19,-235.06 1121.27,-228.33"/>
</g>
<!-- Node12 -->
<g id="node12" class="node">
<title>Node12</title>
<g id="a_node12"><a xlink:href="DisplacementFiniteElement_8h.html" target="_top" xlink:title=" ">
<polygon fill="white" stroke="black" points="1096.5,-145.5 1096.5,-186.5 1254.5,-186.5 1254.5,-145.5 1096.5,-145.5"/>
<text text-anchor="start" x="1104.5" y="-174.5" font-family="Helvetica,sans-Serif" font-size="10.00">modules/elements/Displacement</text>
<text text-anchor="start" x="1104.5" y="-163.5" font-family="Helvetica,sans-Serif" font-size="10.00">FiniteElement/include/Marmot</text>
<text text-anchor="middle" x="1175.5" y="-152.5" font-family="Helvetica,sans-Serif" font-size="10.00">/DisplacementFiniteElement.h</text>
</a>
</g>
</g>
<!-- Node2&#45;&gt;Node12 -->
<g id="edge11" class="edge">
<title>Node2&#45;&gt;Node12</title>
<path fill="none" stroke="midnightblue" d="M1100.94,-227.93C1115.42,-216.1 1135.69,-199.53 1151.44,-186.66"/>
<polygon fill="midnightblue" stroke="midnightblue" points="1098.7,-225.24 1093.17,-234.28 1103.13,-230.66 1098.7,-225.24"/>
</g>
<!-- Node13 -->
<g id="node13" class="node">
<title>Node13</title>
<g id="a_node13"><a xlink:href="DisplacementFiniteElementRegistration_8cpp.html" target="_top" xlink:title=" ">
<polygon fill="white" stroke="black" points="1007,-67.5 1007,-108.5 1186,-108.5 1186,-67.5 1007,-67.5"/>
<text text-anchor="start" x="1015" y="-96.5" font-family="Helvetica,sans-Serif" font-size="10.00">modules/elements/Displacement</text>
<text text-anchor="start" x="1015" y="-85.5" font-family="Helvetica,sans-Serif" font-size="10.00">FiniteElement/src/DisplacementFinite</text>
<text text-anchor="middle" x="1096.5" y="-74.5" font-family="Helvetica,sans-Serif" font-size="10.00">ElementRegistration.cpp</text>
</a>
</g>
</g>
<!-- Node2&#45;&gt;Node13 -->
<g id="edge13" class="edge">
<title>Node2&#45;&gt;Node13</title>
<path fill="none" stroke="midnightblue" d="M1082.85,-224.23C1083.37,-204.47 1084.6,-172.47 1087.5,-145 1088.78,-132.86 1090.93,-119.34 1092.81,-108.63"/>
<polygon fill="midnightblue" stroke="midnightblue" points="1079.35,-224.25 1082.63,-234.32 1086.35,-224.4 1079.35,-224.25"/>
</g>
<!-- Node14 -->
<g id="node14" class="node">
<title>Node14</title>
<g id="a_node14"><a xlink:href="DisplacementFiniteStrainULElement_8h.html" target="_top" xlink:title=" ">
<polygon fill="white" stroke="black" points="781,-145.5 781,-186.5 1002,-186.5 1002,-145.5 781,-145.5"/>
<text text-anchor="start" x="789" y="-174.5" font-family="Helvetica,sans-Serif" font-size="10.00">modules/elements/Displacement</text>
<text text-anchor="start" x="789" y="-163.5" font-family="Helvetica,sans-Serif" font-size="10.00">FiniteStrainULElement/include</text>
<text text-anchor="middle" x="891.5" y="-152.5" font-family="Helvetica,sans-Serif" font-size="10.00">/Marmot/DisplacementFiniteStrainULElement.h</text>
</a>
</g>
</g>
<!-- Node2&#45;&gt;Node14 -->
<g id="edge14" class="edge">
<title>Node2&#45;&gt;Node14</title>
<path fill="none" stroke="midnightblue" d="M1051.45,-230.64C1021.48,-218.72 975.65,-200.49 940.72,-186.59"/>
<polygon fill="midnightblue" stroke="midnightblue" points="1050.38,-233.98 1060.96,-234.43 1052.96,-227.48 1050.38,-233.98"/>
</g>
<!-- Node15 -->
<g id="node15" class="node">
<title>Node15</title>
<g id="a_node15"><a xlink:href="DisplacementFiniteStrainULElement_8cpp.html" target="_top" xlink:title=" ">
<polygon fill="white" stroke="black" points="794,-67.5 794,-108.5 989,-108.5 989,-67.5 794,-67.5"/>
<text text-anchor="start" x="802" y="-96.5" font-family="Helvetica,sans-Serif" font-size="10.00">modules/elements/Displacement</text>
<text text-anchor="start" x="802" y="-85.5" font-family="Helvetica,sans-Serif" font-size="10.00">FiniteStrainULElement/src</text>
<text text-anchor="middle" x="891.5" y="-74.5" font-family="Helvetica,sans-Serif" font-size="10.00">/DisplacementFiniteStrainULElement.cpp</text>
</a>
</g>
</g>
<!-- Node2&#45;&gt;Node15 -->
<g id="edge16" class="edge">
<title>Node2&#45;&gt;Node15</title>
<path fill="none" stroke="midnightblue" d="M1073.16,-225.32C1061.12,-203.93 1038.37,-167.93 1010.5,-145 991.99,-129.77 968.64,-117.61 947.54,-108.57"/>
<polygon fill="midnightblue" stroke="midnightblue" points="1070.19,-227.18 1078.06,-234.28 1076.33,-223.82 1070.19,-227.18"/>
</g>
<!-- Node4 -->
<g id="node4" class="node">
<title>Node4</title>
<g id="a_node4"><a xlink:href="ADLinearElasticRegistration_8cpp.html" target="_top" xlink:title=" ">
<polygon fill="white" stroke="black" points="1396,-0.5 1396,-30.5 1601,-30.5 1601,-0.5 1396,-0.5"/>
<text text-anchor="start" x="1404" y="-18.5" font-family="Helvetica,sans-Serif" font-size="10.00">modules/materials/ADLinear</text>
<text text-anchor="middle" x="1498.5" y="-7.5" font-family="Helvetica,sans-Serif" font-size="10.00">Elastic/src/ADLinearElasticRegistration.cpp</text>
</a>
</g>
</g>
<!-- Node3&#45;&gt;Node4 -->
<g id="edge3" class="edge">
<title>Node3&#45;&gt;Node4</title>
<path fill="none" stroke="midnightblue" d="M1285.49,-147.01C1267.13,-138.55 1249.2,-126.38 1238.5,-109 1228.71,-93.1 1226.63,-81.4 1238.5,-67 1258.61,-42.61 1332.12,-29.85 1395.87,-23.26"/>
<polygon fill="midnightblue" stroke="midnightblue" points="1284.23,-150.27 1294.81,-150.98 1286.98,-143.83 1284.23,-150.27"/>
</g>
<!-- Node5 -->
<g id="node5" class="node">
<title>Node5</title>
<g id="a_node5"><a xlink:href="ADVonMisesRegistration_8cpp.html" target="_top" xlink:title=" ">
<polygon fill="white" stroke="black" points="2187,-0.5 2187,-30.5 2350,-30.5 2350,-0.5 2187,-0.5"/>
<text text-anchor="start" x="2195" y="-18.5" font-family="Helvetica,sans-Serif" font-size="10.00">modules/materials/ADVonMises</text>
<text text-anchor="middle" x="2268.5" y="-7.5" font-family="Helvetica,sans-Serif" font-size="10.00">/src/ADVonMisesRegistration.cpp</text>
</a>
</g>
</g>
<!-- Node3&#45;&gt;Node5 -->
<g id="edge4" class="edge">
<title>Node3&#45;&gt;Node5</title>
<path fill="none" stroke="midnightblue" d="M1308.17,-145.62C1293.87,-136.64 1279.44,-124.48 1271.5,-109 1262.98,-92.39 1258.64,-80.53 1271.5,-67 1302.86,-34.01 1954.43,-21.15 2186.95,-17.61"/>
<polygon fill="midnightblue" stroke="midnightblue" points="1306.61,-148.76 1317,-150.8 1310.15,-142.72 1306.61,-148.76"/>
</g>
<!-- Node6 -->
<g id="node6" class="node">
<title>Node6</title>
<g id="a_node6"><a xlink:href="B4Registration_8cpp.html" target="_top" xlink:title=" ">
<polygon fill="white" stroke="black" points="1890.5,-73 1890.5,-103 2008.5,-103 2008.5,-73 1890.5,-73"/>
<text text-anchor="start" x="1898.5" y="-91" font-family="Helvetica,sans-Serif" font-size="10.00">modules/materials/B4</text>
<text text-anchor="middle" x="1949.5" y="-80" font-family="Helvetica,sans-Serif" font-size="10.00">/src/B4Registration.cpp</text>
</a>
</g>
</g>
<!-- Node3&#45;&gt;Node6 -->
<g id="edge5" class="edge">
<title>Node3&#45;&gt;Node6</title>
<path fill="none" stroke="midnightblue" d="M1414.56,-148.8C1421.6,-147.37 1428.68,-146.06 1435.5,-145 1632,-114.39 1685.96,-145.25 1881.5,-109 1889.73,-107.47 1898.38,-105.35 1906.66,-103.05"/>
<polygon fill="midnightblue" stroke="midnightblue" points="1413.37,-145.48 1404.32,-150.98 1414.83,-152.32 1413.37,-145.48"/>
</g>
<!-- Node7 -->
<g id="node7" class="node">
<title>Node7</title>
<g id="a_node7"><a xlink:href="CompressibleNeoHookeRegistration_8cpp.html" target="_top" xlink:title=" ">
<polygon fill="white" stroke="black" points="587.5,-67.5 587.5,-108.5 775.5,-108.5 775.5,-67.5 587.5,-67.5"/>
<text text-anchor="start" x="595.5" y="-96.5" font-family="Helvetica,sans-Serif" font-size="10.00">modules/materials/Compressible</text>
<text text-anchor="start" x="595.5" y="-85.5" font-family="Helvetica,sans-Serif" font-size="10.00">NeoHooke/src/CompressibleNeoHooke</text>
<text text-anchor="middle" x="681.5" y="-74.5" font-family="Helvetica,sans-Serif" font-size="10.00">Registration.cpp</text>
</a>
</g>
</g>
<!-- Node3&#45;&gt;Node7 -->
<g id="edge6" class="edge">
<title>Node3&#45;&gt;Node7</title>
<path fill="none" stroke="midnightblue" d="M1284.44,-148.76C1277.4,-147.34 1270.32,-146.04 1263.5,-145 1052.46,-112.73 996.09,-137.4 784.5,-109 781.61,-108.61 778.68,-108.2 775.73,-107.75"/>
<polygon fill="midnightblue" stroke="midnightblue" points="1284.18,-152.29 1294.69,-150.93 1285.63,-145.44 1284.18,-152.29"/>
</g>
<!-- Node8 -->
<g id="node8" class="node">
<title>Node8</title>
<g id="a_node8"><a xlink:href="FiniteStrainJ2PlasticityRegistration_8cpp.html" target="_top" xlink:title=" ">
<polygon fill="white" stroke="black" points="380,-67.5 380,-108.5 569,-108.5 569,-67.5 380,-67.5"/>
<text text-anchor="start" x="388" y="-96.5" font-family="Helvetica,sans-Serif" font-size="10.00">modules/materials/Finite</text>
<text text-anchor="start" x="388" y="-85.5" font-family="Helvetica,sans-Serif" font-size="10.00">StrainJ2Plasticity/src</text>
<text text-anchor="middle" x="474.5" y="-74.5" font-family="Helvetica,sans-Serif" font-size="10.00">/FiniteStrainJ2PlasticityRegistration.cpp</text>
</a>
</g>
</g>
<!-- Node3&#45;&gt;Node8 -->
<g id="edge7" class="edge">
<title>Node3&#45;&gt;Node8</title>
<path fill="none" stroke="midnightblue" d="M1285.85,-148.88C1278.35,-147.38 1270.78,-146.03 1263.5,-145 961.64,-102.31 881.13,-145.87 578.5,-109 575.4,-108.62 572.25,-108.21 569.07,-107.76"/>
<polygon fill="midnightblue" stroke="midnightblue" points="1285.13,-152.31 1295.64,-150.95 1286.58,-145.46 1285.13,-152.31"/>
</g>
<!-- Node9 -->
<g id="node9" class="node">
<title>Node9</title>
<g id="a_node9"><a xlink:href="LinearElasticRegistration_8cpp.html" target="_top" xlink:title=" ">
<polygon fill="white" stroke="black" points="1447,-73 1447,-103 1638,-103 1638,-73 1447,-73"/>
<text text-anchor="start" x="1455" y="-91" font-family="Helvetica,sans-Serif" font-size="10.00">modules/materials/Linear</text>
<text text-anchor="middle" x="1542.5" y="-80" font-family="Helvetica,sans-Serif" font-size="10.00">Elastic/src/LinearElasticRegistration.cpp</text>
</a>
</g>
</g>
<!-- Node3&#45;&gt;Node9 -->
<g id="edge8" class="edge">
<title>Node3&#45;&gt;Node9</title>
<path fill="none" stroke="midnightblue" d="M1395.09,-147.05C1429.26,-133.59 1475.35,-115.44 1506.84,-103.04"/>
<polygon fill="midnightblue" stroke="midnightblue" points="1393.37,-143.96 1385.35,-150.88 1395.94,-150.48 1393.37,-143.96"/>
</g>
<!-- Node10 -->
<g id="node10" class="node">
<title>Node10</title>
<g id="a_node10"><a xlink:href="LinearViscoelasticPowerLawRegistration_8cpp.html" target="_top" xlink:title=" ">
<polygon fill="white" stroke="black" points="1656.5,-67.5 1656.5,-108.5 1872.5,-108.5 1872.5,-67.5 1656.5,-67.5"/>
<text text-anchor="start" x="1664.5" y="-96.5" font-family="Helvetica,sans-Serif" font-size="10.00">modules/materials/Linear</text>
<text text-anchor="start" x="1664.5" y="-85.5" font-family="Helvetica,sans-Serif" font-size="10.00">ViscoelasticPowerLaw/src</text>
<text text-anchor="middle" x="1764.5" y="-74.5" font-family="Helvetica,sans-Serif" font-size="10.00">/LinearViscoelasticPowerLawRegistration.cpp</text>
</a>
</g>
</g>
<!-- Node3&#45;&gt;Node10 -->
<g id="edge9" class="edge">
<title>Node3&#45;&gt;Node10</title>
<path fill="none" stroke="midnightblue" d="M1417.75,-148.73C1423.74,-147.42 1429.72,-146.16 1435.5,-145 1529.2,-126.17 1553.29,-125.05 1647.5,-109 1650.45,-108.5 1653.43,-107.99 1656.45,-107.47"/>
<polygon fill="midnightblue" stroke="midnightblue" points="1416.69,-145.38 1407.69,-150.97 1418.21,-152.22 1416.69,-145.38"/>
</g>
<!-- Node11 -->
<g id="node11" class="node">
<title>Node11</title>
<g id="a_node11"><a xlink:href="VonMisesRegistration_8cpp.html" target="_top" xlink:title=" ">
<polygon fill="white" stroke="black" points="1280,-73 1280,-103 1429,-103 1429,-73 1280,-73"/>
<text text-anchor="start" x="1288" y="-91" font-family="Helvetica,sans-Serif" font-size="10.00">modules/materials/VonMises</text>
<text text-anchor="middle" x="1354.5" y="-80" font-family="Helvetica,sans-Serif" font-size="10.00">/src/VonMisesRegistration.cpp</text>
</a>
</g>
</g>
<!-- Node3&#45;&gt;Node11 -->
<g id="edge10" class="edge">
<title>Node3&#45;&gt;Node11</title>
<path fill="none" stroke="midnightblue" d="M1351.11,-140.59C1351.92,-128.26 1352.87,-113.72 1353.56,-103.23"/>
<polygon fill="midnightblue" stroke="midnightblue" points="1347.6,-140.5 1350.44,-150.7 1354.59,-140.96 1347.6,-140.5"/>
</g>
<!-- Node12&#45;&gt;Node13 -->
<g id="edge12" class="edge">
<title>Node12&#45;&gt;Node13</title>
<path fill="none" stroke="midnightblue" d="M1147.95,-138.49C1137.69,-128.63 1126.26,-117.63 1116.78,-108.51"/>
<polygon fill="midnightblue" stroke="midnightblue" points="1145.52,-141.02 1155.16,-145.43 1150.38,-135.97 1145.52,-141.02"/>
</g>
<!-- Node14&#45;&gt;Node15 -->
<g id="edge15" class="edge">
<title>Node14&#45;&gt;Node15</title>
<path fill="none" stroke="midnightblue" d="M891.5,-135.3C891.5,-126.3 891.5,-116.65 891.5,-108.51"/>
<polygon fill="midnightblue" stroke="midnightblue" points="888,-135.43 891.5,-145.43 895,-135.43 888,-135.43"/>
</g>
<!-- Node16&#45;&gt;Node14 -->
<g id="edge19" class="edge">
<title>Node16&#45;&gt;Node14</title>
<path fill="none" stroke="midnightblue" d="M568.88,-224.96C633.22,-213.4 716.72,-198.4 782.66,-186.56"/>
<polygon fill="midnightblue" stroke="midnightblue" points="567.95,-221.58 558.73,-226.79 569.19,-228.47 567.95,-221.58"/>
</g>
<!-- Node17 -->
<g id="node17" class="node">
<title>Node17</title>
<g id="a_node17"><a xlink:href="MarmotMaterialFiniteStrain_8cpp.html" target="_top" xlink:title=" ">
<polygon fill="white" stroke="black" points="214,-145.5 214,-186.5 369,-186.5 369,-145.5 214,-145.5"/>
<text text-anchor="start" x="222" y="-174.5" font-family="Helvetica,sans-Serif" font-size="10.00">modules/core/MarmotFinite</text>
<text text-anchor="start" x="222" y="-163.5" font-family="Helvetica,sans-Serif" font-size="10.00">StrainMechanicsCore/src</text>
<text text-anchor="middle" x="291.5" y="-152.5" font-family="Helvetica,sans-Serif" font-size="10.00">/MarmotMaterialFiniteStrain.cpp</text>
</a>
</g>
</g>
<!-- Node16&#45;&gt;Node17 -->
<g id="edge18" class="edge">
<title>Node16&#45;&gt;Node17</title>
<path fill="none" stroke="midnightblue" d="M413.7,-219.47C389.06,-208.89 360.34,-196.56 336.93,-186.51"/>
<polygon fill="midnightblue" stroke="midnightblue" points="412.35,-222.7 422.92,-223.43 415.11,-216.27 412.35,-222.7"/>
</g>
<!-- Node18 -->
<g id="node18" class="node">
<title>Node18</title>
<g id="a_node18"><a xlink:href="CompressibleNeoHooke_8h.html" target="_top" xlink:title=" ">
<polygon fill="white" stroke="black" points="568,-145.5 568,-186.5 763,-186.5 763,-145.5 568,-145.5"/>
<text text-anchor="start" x="576" y="-174.5" font-family="Helvetica,sans-Serif" font-size="10.00">modules/materials/Compressible</text>
<text text-anchor="start" x="576" y="-163.5" font-family="Helvetica,sans-Serif" font-size="10.00">NeoHooke/include/Marmot/Compressible</text>
<text text-anchor="middle" x="665.5" y="-152.5" font-family="Helvetica,sans-Serif" font-size="10.00">NeoHooke.h</text>
</a>
</g>
</g>
<!-- Node16&#45;&gt;Node18 -->
<g id="edge20" class="edge">
<title>Node16&#45;&gt;Node18</title>
<path fill="none" stroke="midnightblue" d="M528.77,-219.75C556.35,-209.11 588.66,-196.65 614.94,-186.51"/>
<polygon fill="midnightblue" stroke="midnightblue" points="527.3,-216.56 519.23,-223.43 529.82,-223.09 527.3,-216.56"/>
</g>
<!-- Node19 -->
<g id="node19" class="node">
<title>Node19</title>
<g id="a_node19"><a xlink:href="CompressibleNeoHooke_8cpp.html" target="_top" xlink:title=" ">
<polygon fill="white" stroke="black" points="155.5,-73 155.5,-103 361.5,-103 361.5,-73 155.5,-73"/>
<text text-anchor="start" x="163.5" y="-91" font-family="Helvetica,sans-Serif" font-size="10.00">modules/materials/Compressible</text>
<text text-anchor="middle" x="258.5" y="-80" font-family="Helvetica,sans-Serif" font-size="10.00">NeoHooke/src/CompressibleNeoHooke.cpp</text>
</a>
</g>
</g>
<!-- Node16&#45;&gt;Node19 -->
<g id="edge23" class="edge">
<title>Node16&#45;&gt;Node19</title>
<path fill="none" stroke="midnightblue" d="M368.48,-234.71C302.76,-226.95 225.22,-212.58 204.5,-187 182.73,-160.13 217.34,-123.25 240.45,-103.27"/>
<polygon fill="midnightblue" stroke="midnightblue" points="368.16,-238.2 378.5,-235.86 368.96,-231.24 368.16,-238.2"/>
</g>
<!-- Node20 -->
<g id="node20" class="node">
<title>Node20</title>
<g id="a_node20"><a xlink:href="FiniteStrainJ2Plasticity_8h.html" target="_top" xlink:title=" ">
<polygon fill="white" stroke="black" points="387,-145.5 387,-186.5 550,-186.5 550,-145.5 387,-145.5"/>
<text text-anchor="start" x="395" y="-174.5" font-family="Helvetica,sans-Serif" font-size="10.00">modules/materials/Finite</text>
<text text-anchor="start" x="395" y="-163.5" font-family="Helvetica,sans-Serif" font-size="10.00">StrainJ2Plasticity/include</text>
<text text-anchor="middle" x="468.5" y="-152.5" font-family="Helvetica,sans-Serif" font-size="10.00">/Marmot/FiniteStrainJ2Plasticity.h</text>
</a>
</g>
</g>
<!-- Node16&#45;&gt;Node20 -->
<g id="edge24" class="edge">
<title>Node16&#45;&gt;Node20</title>
<path fill="none" stroke="midnightblue" d="M468.5,-213.3C468.5,-204.3 468.5,-194.65 468.5,-186.51"/>
<polygon fill="midnightblue" stroke="midnightblue" points="465,-213.43 468.5,-223.43 472,-213.43 465,-213.43"/>
</g>
<!-- Node21 -->
<g id="node21" class="node">
<title>Node21</title>
<g id="a_node21"><a xlink:href="FiniteStrainJ2Plasticity_8cpp.html" target="_top" xlink:title=" ">
<polygon fill="white" stroke="black" points="0,-67.5 0,-108.5 137,-108.5 137,-67.5 0,-67.5"/>
<text text-anchor="start" x="8" y="-96.5" font-family="Helvetica,sans-Serif" font-size="10.00">modules/materials/Finite</text>
<text text-anchor="start" x="8" y="-85.5" font-family="Helvetica,sans-Serif" font-size="10.00">StrainJ2Plasticity/src</text>
<text text-anchor="middle" x="68.5" y="-74.5" font-family="Helvetica,sans-Serif" font-size="10.00">/FiniteStrainJ2Plasticity.cpp</text>
</a>
</g>
</g>
<!-- Node16&#45;&gt;Node21 -->
<g id="edge27" class="edge">
<title>Node16&#45;&gt;Node21</title>
<path fill="none" stroke="midnightblue" d="M368.1,-233.68C314.69,-225.99 248.99,-212.08 194.5,-187 152.21,-167.54 111.16,-131.41 87.94,-108.88"/>
<polygon fill="midnightblue" stroke="midnightblue" points="367.88,-237.18 378.27,-235.09 368.85,-230.25 367.88,-237.18"/>
</g>
<!-- Node18&#45;&gt;Node7 -->
<g id="edge22" class="edge">
<title>Node18&#45;&gt;Node7</title>
<path fill="none" stroke="midnightblue" d="M671.69,-135.59C673.6,-126.51 675.66,-116.74 677.39,-108.51"/>
<polygon fill="midnightblue" stroke="midnightblue" points="668.26,-134.92 669.62,-145.43 675.11,-136.36 668.26,-134.92"/>
</g>
<!-- Node18&#45;&gt;Node19 -->
<g id="edge21" class="edge">
<title>Node18&#45;&gt;Node19</title>
<path fill="none" stroke="midnightblue" d="M557.75,-144.86C475.14,-129.43 392.02,-113.91 333.71,-103.03"/>
<polygon fill="midnightblue" stroke="midnightblue" points="557.35,-148.35 567.82,-146.74 558.64,-141.47 557.35,-148.35"/>
</g>
<!-- Node20&#45;&gt;Node8 -->
<g id="edge26" class="edge">
<title>Node20&#45;&gt;Node8</title>
<path fill="none" stroke="midnightblue" d="M470.85,-135.3C471.56,-126.3 472.32,-116.65 472.96,-108.51"/>
<polygon fill="midnightblue" stroke="midnightblue" points="467.34,-135.18 470.05,-145.43 474.32,-135.73 467.34,-135.18"/>
</g>
<!-- Node20&#45;&gt;Node21 -->
<g id="edge25" class="edge">
<title>Node20&#45;&gt;Node21</title>
<path fill="none" stroke="midnightblue" d="M376.81,-144.94C273.67,-126.06 245.2,-129.29 146.5,-109 143.49,-108.38 140.42,-107.72 137.32,-107.03"/>
<polygon fill="midnightblue" stroke="midnightblue" points="376.23,-148.39 386.7,-146.77 377.5,-141.51 376.23,-148.39"/>
</g>
<!-- Node23 -->
<g id="node23" class="node">
<title>Node23</title>
<g id="a_node23"><a xlink:href="MarmotMaterialGradientEnhancedHypoElastic_8h.html" target="_top" xlink:title=" ">
<polygon fill="white" stroke="black" points="1386,-223.5 1386,-264.5 1563,-264.5 1563,-223.5 1386,-223.5"/>
<text text-anchor="start" x="1394" y="-252.5" font-family="Helvetica,sans-Serif" font-size="10.00">modules/core/MarmotMechanics</text>
<text text-anchor="start" x="1394" y="-241.5" font-family="Helvetica,sans-Serif" font-size="10.00">Core/include/Marmot/MarmotMaterial</text>
<text text-anchor="middle" x="1474.5" y="-230.5" font-family="Helvetica,sans-Serif" font-size="10.00">GradientEnhancedHypoElastic.h</text>
</a>
</g>
</g>
<!-- Node22&#45;&gt;Node23 -->
<g id="edge29" class="edge">
<title>Node22&#45;&gt;Node23</title>
<path fill="none" stroke="midnightblue" d="M1396.78,-295.92C1412.38,-285.7 1430.13,-274.07 1444.73,-264.51"/>
<polygon fill="midnightblue" stroke="midnightblue" points="1394.82,-293.02 1388.37,-301.43 1398.66,-298.88 1394.82,-293.02"/>
</g>
<!-- Node24 -->
<g id="node24" class="node">
<title>Node24</title>
<g id="a_node24"><a xlink:href="MarmotMaterialHypoElasticNonLocal_8cpp.html" target="_top" xlink:title=" ">
<polygon fill="white" stroke="black" points="1444.5,-145.5 1444.5,-186.5 1620.5,-186.5 1620.5,-145.5 1444.5,-145.5"/>
<text text-anchor="start" x="1452.5" y="-174.5" font-family="Helvetica,sans-Serif" font-size="10.00">modules/core/MarmotMechanics</text>
<text text-anchor="start" x="1452.5" y="-163.5" font-family="Helvetica,sans-Serif" font-size="10.00">Core/src/MarmotMaterialHypoElastic</text>
<text text-anchor="middle" x="1532.5" y="-152.5" font-family="Helvetica,sans-Serif" font-size="10.00">NonLocal.cpp</text>
</a>
</g>
</g>
<!-- Node23&#45;&gt;Node24 -->
<g id="edge30" class="edge">
<title>Node23&#45;&gt;Node24</title>
<path fill="none" stroke="midnightblue" d="M1495.61,-215.34C1502.91,-205.78 1510.92,-195.27 1517.61,-186.51"/>
<polygon fill="midnightblue" stroke="midnightblue" points="1492.72,-213.36 1489.44,-223.43 1498.29,-217.6 1492.72,-213.36"/>
</g>
<!-- Node26 -->
<g id="node26" class="node">
<title>Node26</title>
<g id="a_node26"><a xlink:href="MarmotMaterialHyperElastic_8h.html" target="_top" xlink:title=" ">
<polygon fill="white" stroke="black" points="1799,-223.5 1799,-264.5 1976,-264.5 1976,-223.5 1799,-223.5"/>
<text text-anchor="start" x="1807" y="-252.5" font-family="Helvetica,sans-Serif" font-size="10.00">modules/core/MarmotMechanics</text>
<text text-anchor="start" x="1807" y="-241.5" font-family="Helvetica,sans-Serif" font-size="10.00">Core/include/Marmot/MarmotMaterial</text>
<text text-anchor="middle" x="1887.5" y="-230.5" font-family="Helvetica,sans-Serif" font-size="10.00">HyperElastic.h</text>
</a>
</g>
</g>
<!-- Node25&#45;&gt;Node26 -->
<g id="edge32" class="edge">
<title>Node25&#45;&gt;Node26</title>
<path fill="none" stroke="midnightblue" d="M2100.36,-298.92C2057.39,-288.04 2006.01,-275.02 1964.5,-264.51"/>
<polygon fill="midnightblue" stroke="midnightblue" points="2099.69,-302.37 2110.24,-301.43 2101.41,-295.58 2099.69,-302.37"/>
</g>
<!-- Node28 -->
<g id="node28" class="node">
<title>Node28</title>
<g id="a_node28"><a xlink:href="MarmotMaterialHypoElastic_8h.html" target="_top" xlink:title=" ">
<polygon fill="white" stroke="black" points="2250,-223.5 2250,-264.5 2427,-264.5 2427,-223.5 2250,-223.5"/>
<text text-anchor="start" x="2258" y="-252.5" font-family="Helvetica,sans-Serif" font-size="10.00">modules/core/MarmotMechanics</text>
<text text-anchor="start" x="2258" y="-241.5" font-family="Helvetica,sans-Serif" font-size="10.00">Core/include/Marmot/MarmotMaterial</text>
<text text-anchor="middle" x="2338.5" y="-230.5" font-family="Helvetica,sans-Serif" font-size="10.00">HypoElastic.h</text>
</a>
</g>
</g>
<!-- Node25&#45;&gt;Node28 -->
<g id="edge34" class="edge">
<title>Node25&#45;&gt;Node28</title>
<path fill="none" stroke="midnightblue" d="M2235.37,-296.91C2256.13,-286.46 2280.13,-274.38 2299.75,-264.51"/>
<polygon fill="midnightblue" stroke="midnightblue" points="2233.75,-293.81 2226.39,-301.43 2236.89,-300.06 2233.75,-293.81"/>
</g>
<!-- Node45 -->
<g id="node45" class="node">
<title>Node45</title>
<g id="a_node45"><a xlink:href="MarmotMaterialMechanical_8cpp.html" target="_top" xlink:title=" ">
<polygon fill="white" stroke="black" points="2445,-229 2445,-259 2636,-259 2636,-229 2445,-229"/>
<text text-anchor="start" x="2453" y="-247" font-family="Helvetica,sans-Serif" font-size="10.00">modules/core/MarmotMechanics</text>
<text text-anchor="middle" x="2540.5" y="-236" font-family="Helvetica,sans-Serif" font-size="10.00">Core/src/MarmotMaterialMechanical.cpp</text>
</a>
</g>
</g>
<!-- Node25&#45;&gt;Node45 -->
<g id="edge60" class="edge">
<title>Node25&#45;&gt;Node45</title>
<path fill="none" stroke="midnightblue" d="M2286.07,-299.78C2346.5,-286.77 2422.19,-270.47 2475.24,-259.05"/>
<polygon fill="midnightblue" stroke="midnightblue" points="2285.16,-296.39 2276.12,-301.92 2286.63,-303.24 2285.16,-296.39"/>
</g>
<!-- Node27 -->
<g id="node27" class="node">
<title>Node27</title>
<g id="a_node27"><a xlink:href="MarmotMaterialHyperElastic_8cpp.html" target="_top" xlink:title=" ">
<polygon fill="white" stroke="black" points="1639,-151 1639,-181 1836,-181 1836,-151 1639,-151"/>
<text text-anchor="start" x="1647" y="-169" font-family="Helvetica,sans-Serif" font-size="10.00">modules/core/MarmotMechanics</text>
<text text-anchor="middle" x="1737.5" y="-158" font-family="Helvetica,sans-Serif" font-size="10.00">Core/src/MarmotMaterialHyperElastic.cpp</text>
</a>
</g>
</g>
<!-- Node26&#45;&gt;Node27 -->
<g id="edge33" class="edge">
<title>Node26&#45;&gt;Node27</title>
<path fill="none" stroke="midnightblue" d="M1839.75,-218.81C1815.31,-206.43 1786.41,-191.78 1765.58,-181.23"/>
<polygon fill="midnightblue" stroke="midnightblue" points="1838.37,-222.03 1848.87,-223.43 1841.53,-215.79 1838.37,-222.03"/>
</g>
<!-- Node28&#45;&gt;Node12 -->
<g id="edge45" class="edge">
<title>Node28&#45;&gt;Node12</title>
<path fill="none" stroke="midnightblue" d="M2239.41,-237.21C2168.66,-233.11 2071.24,-227.57 1985.5,-223 1664.67,-205.91 1581.79,-230.77 1263.5,-187 1260.55,-186.59 1257.55,-186.14 1254.54,-185.64"/>
<polygon fill="midnightblue" stroke="midnightblue" points="2239.47,-240.71 2249.65,-237.8 2239.87,-233.73 2239.47,-240.71"/>
</g>
<!-- Node29 -->
<g id="node29" class="node">
<title>Node29</title>
<g id="a_node29"><a xlink:href="MarmotTesting_8h.html" target="_top" xlink:title=" ">
<polygon fill="white" stroke="black" points="2573,-156.5 2573,-175.5 2732,-175.5 2732,-156.5 2573,-156.5"/>
<text text-anchor="middle" x="2652.5" y="-163.5" font-family="Helvetica,sans-Serif" font-size="10.00">include/Marmot/MarmotTesting.h</text>
</a>
</g>
</g>
<!-- Node28&#45;&gt;Node29 -->
<g id="edge35" class="edge">
<title>Node28&#45;&gt;Node29</title>
<path fill="none" stroke="midnightblue" d="M2429.27,-221.03C2491.98,-205.85 2571.95,-186.5 2617.17,-175.55"/>
<polygon fill="midnightblue" stroke="midnightblue" points="2428.26,-217.67 2419.36,-223.43 2429.91,-224.48 2428.26,-217.67"/>
</g>
<!-- Node30 -->
<g id="node30" class="node">
<title>Node30</title>
<g id="a_node30"><a xlink:href="MarmotMaterialHypoElasticAD_8h.html" target="_top" xlink:title=" ">
<polygon fill="white" stroke="black" points="2750,-145.5 2750,-186.5 2927,-186.5 2927,-145.5 2750,-145.5"/>
<text text-anchor="start" x="2758" y="-174.5" font-family="Helvetica,sans-Serif" font-size="10.00">modules/core/MarmotMechanics</text>
<text text-anchor="start" x="2758" y="-163.5" font-family="Helvetica,sans-Serif" font-size="10.00">Core/include/Marmot/MarmotMaterial</text>
<text text-anchor="middle" x="2838.5" y="-152.5" font-family="Helvetica,sans-Serif" font-size="10.00">HypoElasticAD.h</text>
</a>
</g>
</g>
<!-- Node28&#45;&gt;Node30 -->
<g id="edge36" class="edge">
<title>Node28&#45;&gt;Node30</title>
<path fill="none" stroke="midnightblue" d="M2437.07,-222.99C2572.98,-201.67 2609.91,-208.29 2741.5,-187 2744.22,-186.56 2746.97,-186.1 2749.75,-185.62"/>
<polygon fill="midnightblue" stroke="midnightblue" points="2436.44,-219.54 2427.11,-224.57 2437.54,-226.46 2436.44,-219.54"/>
</g>
<!-- Node36 -->
<g id="node36" class="node">
<title>Node36</title>
<g id="a_node36"><a xlink:href="MarmotMaterialHypoElastic_8cpp.html" target="_top" xlink:title=" ">
<polygon fill="white" stroke="black" points="2944.5,-151 2944.5,-181 3138.5,-181 3138.5,-151 2944.5,-151"/>
<text text-anchor="start" x="2952.5" y="-169" font-family="Helvetica,sans-Serif" font-size="10.00">modules/core/MarmotMechanics</text>
<text text-anchor="middle" x="3041.5" y="-158" font-family="Helvetica,sans-Serif" font-size="10.00">Core/src/MarmotMaterialHypoElastic.cpp</text>
</a>
</g>
</g>
<!-- Node28&#45;&gt;Node36 -->
<g id="edge44" class="edge">
<title>Node28&#45;&gt;Node36</title>
<path fill="none" stroke="midnightblue" d="M2437.09,-223.03C2658.97,-193.33 2718.82,-215.47 2936.5,-187 2948.74,-185.4 2961.7,-183.28 2974.19,-181.02"/>
<polygon fill="midnightblue" stroke="midnightblue" points="2436.52,-219.57 2427.09,-224.39 2437.47,-226.51 2436.52,-219.57"/>
</g>
<!-- Node37 -->
<g id="node37" class="node">
<title>Node37</title>
<g id="a_node37"><a xlink:href="B4_8h.html" target="_top" xlink:title=" ">
<polygon fill="white" stroke="black" points="2368,-151 2368,-181 2479,-181 2479,-151 2368,-151"/>
<text text-anchor="start" x="2376" y="-169" font-family="Helvetica,sans-Serif" font-size="10.00">modules/materials/B4</text>
<text text-anchor="middle" x="2423.5" y="-158" font-family="Helvetica,sans-Serif" font-size="10.00">/include/Marmot/B4.h</text>
</a>
</g>
</g>
<!-- Node28&#45;&gt;Node37 -->
<g id="edge46" class="edge">
<title>Node28&#45;&gt;Node37</title>
<path fill="none" stroke="midnightblue" d="M2367.96,-216.66C2381.27,-204.76 2396.46,-191.18 2407.59,-181.23"/>
<polygon fill="midnightblue" stroke="midnightblue" points="2365.51,-214.15 2360.39,-223.43 2370.18,-219.37 2365.51,-214.15"/>
</g>
<!-- Node38 -->
<g id="node38" class="node">
<title>Node38</title>
<g id="a_node38"><a xlink:href="B4_8cpp.html" target="_top" xlink:title=" ">
<polygon fill="white" stroke="black" points="2529,-73 2529,-103 2640,-103 2640,-73 2529,-73"/>
<text text-anchor="start" x="2537" y="-91" font-family="Helvetica,sans-Serif" font-size="10.00">modules/materials/B4</text>
<text text-anchor="middle" x="2584.5" y="-80" font-family="Helvetica,sans-Serif" font-size="10.00">/src/B4.cpp</text>
</a>
</g>
</g>
<!-- Node28&#45;&gt;Node38 -->
<g id="edge49" class="edge">
<title>Node28&#45;&gt;Node38</title>
<path fill="none" stroke="midnightblue" d="M2436.78,-220.33C2460.54,-212.15 2484.98,-201.28 2505.5,-187 2538.15,-164.28 2564.3,-124.33 2576.7,-103.14"/>
<polygon fill="midnightblue" stroke="midnightblue" points="2435.4,-217.1 2427,-223.56 2437.6,-223.74 2435.4,-217.1"/>
</g>
<!-- Node39 -->
<g id="node39" class="node">
<title>Node39</title>
<g id="a_node39"><a xlink:href="LinearElastic_8h.html" target="_top" xlink:title=" ">
<polygon fill="white" stroke="black" points="2015.5,-145.5 2015.5,-186.5 2141.5,-186.5 2141.5,-145.5 2015.5,-145.5"/>
<text text-anchor="start" x="2023.5" y="-174.5" font-family="Helvetica,sans-Serif" font-size="10.00">modules/materials/Linear</text>
<text text-anchor="start" x="2023.5" y="-163.5" font-family="Helvetica,sans-Serif" font-size="10.00">Elastic/include/Marmot</text>
<text text-anchor="middle" x="2078.5" y="-152.5" font-family="Helvetica,sans-Serif" font-size="10.00">/LinearElastic.h</text>
</a>
</g>
</g>
<!-- Node28&#45;&gt;Node39 -->
<g id="edge50" class="edge">
<title>Node28&#45;&gt;Node39</title>
<path fill="none" stroke="midnightblue" d="M2261.49,-220.49C2223.3,-209.33 2177.75,-196.01 2141.65,-185.46"/>
<polygon fill="midnightblue" stroke="midnightblue" points="2260.96,-223.98 2271.54,-223.43 2262.93,-217.26 2260.96,-223.98"/>
</g>
<!-- Node41 -->
<g id="node41" class="node">
<title>Node41</title>
<g id="a_node41"><a xlink:href="LinearViscoelasticPowerLaw_8h.html" target="_top" xlink:title=" ">
<polygon fill="white" stroke="black" points="2159.5,-145.5 2159.5,-186.5 2349.5,-186.5 2349.5,-145.5 2159.5,-145.5"/>
<text text-anchor="start" x="2167.5" y="-174.5" font-family="Helvetica,sans-Serif" font-size="10.00">modules/materials/Linear</text>
<text text-anchor="start" x="2167.5" y="-163.5" font-family="Helvetica,sans-Serif" font-size="10.00">ViscoelasticPowerLaw/include</text>
<text text-anchor="middle" x="2254.5" y="-152.5" font-family="Helvetica,sans-Serif" font-size="10.00">/Marmot/LinearViscoelasticPowerLaw.h</text>
</a>
</g>
</g>
<!-- Node28&#45;&gt;Node41 -->
<g id="edge53" class="edge">
<title>Node28&#45;&gt;Node41</title>
<path fill="none" stroke="midnightblue" d="M2309.2,-216.49C2298.3,-206.63 2286.14,-195.63 2276.06,-186.51"/>
<polygon fill="midnightblue" stroke="midnightblue" points="2307.1,-219.31 2316.87,-223.43 2311.8,-214.12 2307.1,-219.31"/>
</g>
<!-- Node42 -->
<g id="node42" class="node">
<title>Node42</title>
<g id="a_node42"><a xlink:href="LinearViscoelasticPowerLaw_8cpp.html" target="_top" xlink:title=" ">
<polygon fill="white" stroke="black" points="2346.5,-67.5 2346.5,-108.5 2510.5,-108.5 2510.5,-67.5 2346.5,-67.5"/>
<text text-anchor="start" x="2354.5" y="-96.5" font-family="Helvetica,sans-Serif" font-size="10.00">modules/materials/Linear</text>
<text text-anchor="start" x="2354.5" y="-85.5" font-family="Helvetica,sans-Serif" font-size="10.00">ViscoelasticPowerLaw/src</text>
<text text-anchor="middle" x="2428.5" y="-74.5" font-family="Helvetica,sans-Serif" font-size="10.00">/LinearViscoelasticPowerLaw.cpp</text>
</a>
</g>
</g>
<!-- Node28&#45;&gt;Node42 -->
<g id="edge56" class="edge">
<title>Node28&#45;&gt;Node42</title>
<path fill="none" stroke="midnightblue" d="M2423.98,-220.32C2452.93,-210.79 2480.1,-199.1 2488.5,-187 2499.14,-171.67 2495.94,-162.12 2488.5,-145 2482.2,-130.49 2470.08,-118.04 2458.37,-108.58"/>
<polygon fill="midnightblue" stroke="midnightblue" points="2422.58,-217.1 2414.12,-223.47 2424.71,-223.76 2422.58,-217.1"/>
</g>
<!-- Node43 -->
<g id="node43" class="node">
<title>Node43</title>
<g id="a_node43"><a xlink:href="VonMises_8h.html" target="_top" xlink:title=" ">
<polygon fill="white" stroke="black" points="1854,-151 1854,-181 1997,-181 1997,-151 1854,-151"/>
<text text-anchor="start" x="1862" y="-169" font-family="Helvetica,sans-Serif" font-size="10.00">modules/materials/VonMises</text>
<text text-anchor="middle" x="1925.5" y="-158" font-family="Helvetica,sans-Serif" font-size="10.00">/include/Marmot/VonMises.h</text>
</a>
</g>
</g>
<!-- Node28&#45;&gt;Node43 -->
<g id="edge57" class="edge">
<title>Node28&#45;&gt;Node43</title>
<path fill="none" stroke="midnightblue" d="M2239.72,-228.33C2173.51,-218 2084.48,-203.18 2006.5,-187 1997.85,-185.2 1988.72,-183.13 1979.84,-181.01"/>
<polygon fill="midnightblue" stroke="midnightblue" points="2239.32,-231.8 2249.74,-229.88 2240.39,-224.89 2239.32,-231.8"/>
</g>
<!-- Node31 -->
<g id="node31" class="node">
<title>Node31</title>
<g id="a_node31"><a xlink:href="MarmotMaterialHypoElasticAD_8cpp.html" target="_top" xlink:title=" ">
<polygon fill="white" stroke="black" points="2816.5,-67.5 2816.5,-108.5 2992.5,-108.5 2992.5,-67.5 2816.5,-67.5"/>
<text text-anchor="start" x="2824.5" y="-96.5" font-family="Helvetica,sans-Serif" font-size="10.00">modules/core/MarmotMechanics</text>
<text text-anchor="start" x="2824.5" y="-85.5" font-family="Helvetica,sans-Serif" font-size="10.00">Core/src/MarmotMaterialHypoElastic</text>
<text text-anchor="middle" x="2904.5" y="-74.5" font-family="Helvetica,sans-Serif" font-size="10.00">AD.cpp</text>
</a>
</g>
</g>
<!-- Node30&#45;&gt;Node31 -->
<g id="edge37" class="edge">
<title>Node30&#45;&gt;Node31</title>
<path fill="none" stroke="midnightblue" d="M2862.27,-137.63C2870.64,-127.99 2879.87,-117.36 2887.56,-108.51"/>
<polygon fill="midnightblue" stroke="midnightblue" points="2859.41,-135.58 2855.5,-145.43 2864.7,-140.17 2859.41,-135.58"/>
</g>
<!-- Node32 -->
<g id="node32" class="node">
<title>Node32</title>
<g id="a_node32"><a xlink:href="ADLinearElastic_8h.html" target="_top" xlink:title=" ">
<polygon fill="white" stroke="black" points="2658.5,-67.5 2658.5,-108.5 2798.5,-108.5 2798.5,-67.5 2658.5,-67.5"/>
<text text-anchor="start" x="2666.5" y="-96.5" font-family="Helvetica,sans-Serif" font-size="10.00">modules/materials/ADLinear</text>
<text text-anchor="start" x="2666.5" y="-85.5" font-family="Helvetica,sans-Serif" font-size="10.00">Elastic/include/Marmot</text>
<text text-anchor="middle" x="2728.5" y="-74.5" font-family="Helvetica,sans-Serif" font-size="10.00">/ADLinearElastic.h</text>
</a>
</g>
</g>
<!-- Node30&#45;&gt;Node32 -->
<g id="edge38" class="edge">
<title>Node30&#45;&gt;Node32</title>
<path fill="none" stroke="midnightblue" d="M2801.79,-139.64C2787.1,-129.49 2770.45,-117.98 2756.73,-108.51"/>
<polygon fill="midnightblue" stroke="midnightblue" points="2799.96,-142.62 2810.17,-145.43 2803.93,-136.86 2799.96,-142.62"/>
</g>
<!-- Node34 -->
<g id="node34" class="node">
<title>Node34</title>
<g id="a_node34"><a xlink:href="ADVonMises_8h.html" target="_top" xlink:title=" ">
<polygon fill="white" stroke="black" points="3010.5,-73 3010.5,-103 3166.5,-103 3166.5,-73 3010.5,-73"/>
<text text-anchor="start" x="3018.5" y="-91" font-family="Helvetica,sans-Serif" font-size="10.00">modules/materials/ADVonMises</text>
<text text-anchor="middle" x="3088.5" y="-80" font-family="Helvetica,sans-Serif" font-size="10.00">/include/Marmot/ADVonMises.h</text>
</a>
</g>
</g>
<!-- Node30&#45;&gt;Node34 -->
<g id="edge41" class="edge">
<title>Node30&#45;&gt;Node34</title>
<path fill="none" stroke="midnightblue" d="M2912.51,-142.5C2954.5,-129.73 3005.76,-114.15 3042.1,-103.11"/>
<polygon fill="midnightblue" stroke="midnightblue" points="2911.43,-139.17 2902.88,-145.43 2913.47,-145.87 2911.43,-139.17"/>
</g>
<!-- Node32&#45;&gt;Node4 -->
<g id="edge40" class="edge">
<title>Node32&#45;&gt;Node4</title>
<path fill="none" stroke="midnightblue" d="M2648.33,-67.03C2430.07,-37.07 1840.28,-22.99 1601.14,-18.32"/>
<polygon fill="midnightblue" stroke="midnightblue" points="2648.05,-70.53 2658.44,-68.47 2649.03,-63.6 2648.05,-70.53"/>
</g>
<!-- Node33 -->
<g id="node33" class="node">
<title>Node33</title>
<g id="a_node33"><a xlink:href="ADLinearElastic_8cpp.html" target="_top" xlink:title=" ">
<polygon fill="white" stroke="black" points="2652,-0.5 2652,-30.5 2805,-30.5 2805,-0.5 2652,-0.5"/>
<text text-anchor="start" x="2660" y="-18.5" font-family="Helvetica,sans-Serif" font-size="10.00">modules/materials/ADLinear</text>
<text text-anchor="middle" x="2728.5" y="-7.5" font-family="Helvetica,sans-Serif" font-size="10.00">Elastic/src/ADLinearElastic.cpp</text>
</a>
</g>
</g>
<!-- Node32&#45;&gt;Node33 -->
<g id="edge39" class="edge">
<title>Node32&#45;&gt;Node33</title>
<path fill="none" stroke="midnightblue" d="M2728.5,-57.08C2728.5,-48.01 2728.5,-38.45 2728.5,-30.89"/>
<polygon fill="midnightblue" stroke="midnightblue" points="2725,-57.36 2728.5,-67.36 2732,-57.36 2725,-57.36"/>
</g>
<!-- Node34&#45;&gt;Node5 -->
<g id="edge43" class="edge">
<title>Node34&#45;&gt;Node5</title>
<path fill="none" stroke="midnightblue" d="M3023.51,-70.89C3016.12,-69.41 3008.67,-68.06 3001.5,-67 2877.85,-48.64 2513.87,-28.79 2350.04,-20.5"/>
<polygon fill="midnightblue" stroke="midnightblue" points="3023.01,-74.36 3033.52,-72.99 3024.45,-67.51 3023.01,-74.36"/>
</g>
<!-- Node35 -->
<g id="node35" class="node">
<title>Node35</title>
<g id="a_node35"><a xlink:href="ADVonMises_8cpp.html" target="_top" xlink:title=" ">
<polygon fill="white" stroke="black" points="3010.5,-0.5 3010.5,-30.5 3166.5,-30.5 3166.5,-0.5 3010.5,-0.5"/>
<text text-anchor="start" x="3018.5" y="-18.5" font-family="Helvetica,sans-Serif" font-size="10.00">modules/materials/ADVonMises</text>
<text text-anchor="middle" x="3088.5" y="-7.5" font-family="Helvetica,sans-Serif" font-size="10.00">/src/ADVonMises.cpp</text>
</a>
</g>
</g>
<!-- Node34&#45;&gt;Node35 -->
<g id="edge42" class="edge">
<title>Node34&#45;&gt;Node35</title>
<path fill="none" stroke="midnightblue" d="M3088.5,-62.73C3088.5,-52.07 3088.5,-39.91 3088.5,-30.75"/>
<polygon fill="midnightblue" stroke="midnightblue" points="3085,-62.73 3088.5,-72.73 3092,-62.73 3085,-62.73"/>
</g>
<!-- Node37&#45;&gt;Node6 -->
<g id="edge48" class="edge">
<title>Node37&#45;&gt;Node6</title>
<path fill="none" stroke="midnightblue" d="M2372.2,-148.22C2367.59,-147.02 2362.98,-145.92 2358.5,-145 2209.63,-114.51 2167.61,-138.27 2018.5,-109 2010.42,-107.41 2001.92,-105.32 1993.76,-103.08"/>
<polygon fill="midnightblue" stroke="midnightblue" points="2371.63,-151.69 2382.2,-150.99 2373.5,-144.95 2371.63,-151.69"/>
</g>
<!-- Node37&#45;&gt;Node38 -->
<g id="edge47" class="edge">
<title>Node37&#45;&gt;Node38</title>
<path fill="none" stroke="midnightblue" d="M2462.64,-146.52C2491.02,-133.13 2528.82,-115.28 2554.75,-103.04"/>
<polygon fill="midnightblue" stroke="midnightblue" points="2460.95,-143.45 2453.41,-150.88 2463.94,-149.78 2460.95,-143.45"/>
</g>
<!-- Node39&#45;&gt;Node9 -->
<g id="edge52" class="edge">
<title>Node39&#45;&gt;Node9</title>
<path fill="none" stroke="midnightblue" d="M2005.34,-144.95C1847.09,-116.1 1802.94,-131.55 1647.5,-109 1635.84,-107.31 1623.5,-105.22 1611.54,-103.05"/>
<polygon fill="midnightblue" stroke="midnightblue" points="2004.96,-148.44 2015.43,-146.82 2006.23,-141.56 2004.96,-148.44"/>
</g>
<!-- Node40 -->
<g id="node40" class="node">
<title>Node40</title>
<g id="a_node40"><a xlink:href="LinearElastic_8cpp.html" target="_top" xlink:title=" ">
<polygon fill="white" stroke="black" points="2188.5,-73 2188.5,-103 2328.5,-103 2328.5,-73 2188.5,-73"/>
<text text-anchor="start" x="2196.5" y="-91" font-family="Helvetica,sans-Serif" font-size="10.00">modules/materials/Linear</text>
<text text-anchor="middle" x="2258.5" y="-80" font-family="Helvetica,sans-Serif" font-size="10.00">Elastic/src/LinearElastic.cpp</text>
</a>
</g>
</g>
<!-- Node39&#45;&gt;Node40 -->
<g id="edge51" class="edge">
<title>Node39&#45;&gt;Node40</title>
<path fill="none" stroke="midnightblue" d="M2134.29,-141.45C2164.03,-128.89 2199.64,-113.85 2225.09,-103.11"/>
<polygon fill="midnightblue" stroke="midnightblue" points="2132.71,-138.31 2124.85,-145.43 2135.43,-144.76 2132.71,-138.31"/>
</g>
<!-- Node41&#45;&gt;Node10 -->
<g id="edge55" class="edge">
<title>Node41&#45;&gt;Node10</title>
<path fill="none" stroke="midnightblue" d="M2149.41,-144.87C2029.77,-125.67 1997.6,-126.69 1881.5,-109 1878.55,-108.55 1875.55,-108.09 1872.53,-107.61"/>
<polygon fill="midnightblue" stroke="midnightblue" points="2148.89,-148.33 2159.32,-146.47 2150.01,-141.42 2148.89,-148.33"/>
</g>
<!-- Node41&#45;&gt;Node42 -->
<g id="edge54" class="edge">
<title>Node41&#45;&gt;Node42</title>
<path fill="none" stroke="midnightblue" d="M2308.69,-141.33C2332.84,-130.78 2360.93,-118.51 2383.84,-108.51"/>
<polygon fill="midnightblue" stroke="midnightblue" points="2307.07,-138.22 2299.31,-145.43 2309.87,-144.63 2307.07,-138.22"/>
</g>
<!-- Node43&#45;&gt;Node11 -->
<g id="edge59" class="edge">
<title>Node43&#45;&gt;Node11</title>
<path fill="none" stroke="midnightblue" d="M1864.54,-148.72C1858.14,-147.32 1851.71,-146.04 1845.5,-145 1666.42,-114.89 1617.75,-138.11 1438.5,-109 1428.73,-107.41 1418.42,-105.32 1408.49,-103.08"/>
<polygon fill="midnightblue" stroke="midnightblue" points="1864.01,-152.18 1874.54,-150.99 1865.57,-145.36 1864.01,-152.18"/>
</g>
<!-- Node44 -->
<g id="node44" class="node">
<title>Node44</title>
<g id="a_node44"><a xlink:href="VonMises_8cpp.html" target="_top" xlink:title=" ">
<polygon fill="white" stroke="black" points="2027,-73 2027,-103 2170,-103 2170,-73 2027,-73"/>
<text text-anchor="start" x="2035" y="-91" font-family="Helvetica,sans-Serif" font-size="10.00">modules/materials/VonMises</text>
<text text-anchor="middle" x="2098.5" y="-80" font-family="Helvetica,sans-Serif" font-size="10.00">/src/VonMises.cpp</text>
</a>
</g>
</g>
<!-- Node43&#45;&gt;Node44 -->
<g id="edge58" class="edge">
<title>Node43&#45;&gt;Node44</title>
<path fill="none" stroke="midnightblue" d="M1967.16,-146.7C1997.7,-133.28 2038.55,-115.34 2066.54,-103.04"/>
<polygon fill="midnightblue" stroke="midnightblue" points="1965.38,-143.66 1957.63,-150.88 1968.2,-150.07 1965.38,-143.66"/>
</g>
</g>
</svg>
