<?xml version="1.0" encoding="UTF-8" standalone="no"?>
<!DOCTYPE svg PUBLIC "-//W3C//DTD SVG 1.1//EN"
 "http://www.w3.org/Graphics/SVG/1.1/DTD/svg11.dtd">
<!-- Generated by graphviz version 2.44.0 ()
 -->
<!-- Title: modules/core/MarmotMechanicsCore/src/MarmotVoigt.cpp Pages: 1 -->
<!--zoomable 341 -->
<svg id="main" version="1.1" xmlns="http://www.w3.org/2000/svg" xmlns:xlink="http://www.w3.org/1999/xlink" xml:space="preserve" onload="init(evt)">
<style type="text/css"><![CDATA[
.edge:hover path { stroke: red; }
.edge:hover polygon { stroke: red; fill: red; }
]]></style>
<script type="text/javascript"><![CDATA[
var edges = document.getElementsByTagName('g');
if (edges && edges.length) {
  for (var i=0;i<edges.length;i++) {
    if (edges[i].id.substr(0,4)=='edge') {
      edges[i].setAttribute('class','edge');
    }
  }
}
]]></script>
        <defs>
                <circle id="rim" cx="0" cy="0" r="7"/>
                <circle id="rim2" cx="0" cy="0" r="3.5"/>
                <g id="zoomPlus">
                        <use xlink:href="#rim" fill="#404040">
                                <set attributeName="fill" to="#808080" begin="zoomplus.mouseover" end="zoomplus.mouseout"/>
                        </use>
                        <path d="M-4,0h8M0,-4v8" fill="none" stroke="white" stroke-width="1.5" pointer-events="none"/>
                </g>
                <g id="zoomMin">
                        <use xlink:href="#rim" fill="#404040">
                                <set attributeName="fill" to="#808080" begin="zoomminus.mouseover" end="zoomminus.mouseout"/>
                        </use>
                        <path d="M-4,0h8" fill="none" stroke="white" stroke-width="1.5" pointer-events="none"/>
                </g>
                <g id="dirArrow">
                        <path fill="none" stroke="white" stroke-width="1.5" d="M0,-3.0v7 M-2.5,-0.5L0,-3.0L2.5,-0.5"/>
                </g>
               <g id="resetDef">
                       <use xlink:href="#rim2" fill="#404040">
                               <set attributeName="fill" to="#808080" begin="reset.mouseover" end="reset.mouseout"/>
                       </use>
               </g>
        </defs>

<script type="text/javascript">
var viewWidth = 1082;
var viewHeight = 341;
var sectionId = 'dynsection-0';
</script>
<script xlink:href="svgpan.js"/>
<svg id="graph" class="graph">
<g id="viewport">
<title>modules/core/MarmotMechanicsCore/src/MarmotVoigt.cpp</title>
<polygon fill="white" stroke="transparent" points="-4,4 -4,-337 1077.5,-337 1077.5,4 -4,4"/>
<!-- Node1 -->
<g id="node1" class="node">
<title>Node1</title>
<g id="a_node1"><a xlink:title=" ">
<polygon fill="#bfbfbf" stroke="black" points="581.5,-302.5 581.5,-332.5 739.5,-332.5 739.5,-302.5 581.5,-302.5"/>
<text text-anchor="start" x="589.5" y="-320.5" font-family="Helvetica,sans-Serif" font-size="10.00">modules/core/MarmotMechanics</text>
<text text-anchor="middle" x="660.5" y="-309.5" font-family="Helvetica,sans-Serif" font-size="10.00">Core/src/MarmotVoigt.cpp</text>
</a>
</g>
</g>
<!-- Node2 -->
<g id="node2" class="node">
<title>Node2</title>
<g id="a_node2"><a xlink:href="MarmotVoigt_8h.html" target="_top" xlink:title=" ">
<polygon fill="white" stroke="black" points="666.5,-190.5 666.5,-209.5 782.5,-209.5 782.5,-190.5 666.5,-190.5"/>
<text text-anchor="middle" x="724.5" y="-197.5" font-family="Helvetica,sans-Serif" font-size="10.00">Marmot/MarmotVoigt.h</text>
</a>
</g>
</g>
<!-- Node1&#45;&gt;Node2 -->
<g id="edge1" class="edge">
<title>Node1&#45;&gt;Node2</title>
<path fill="none" stroke="midnightblue" d="M697.81,-302.36C713.65,-294.28 730.51,-282.42 739.5,-266 747.65,-251.12 741.56,-231.99 734.86,-218.35"/>
<polygon fill="midnightblue" stroke="midnightblue" points="737.92,-216.64 730.07,-209.52 731.77,-219.98 737.92,-216.64"/>
</g>
<!-- Node4 -->
<g id="node4" class="node">
<title>Node4</title>
<g id="a_node4"><a xlink:title=" ">
<polygon fill="white" stroke="#bfbfbf" points="1019.5,-73 1019.5,-92 1073.5,-92 1073.5,-73 1019.5,-73"/>
<text text-anchor="middle" x="1046.5" y="-80" font-family="Helvetica,sans-Serif" font-size="10.00">iostream</text>
</a>
</g>
</g>
<!-- Node1&#45;&gt;Node4 -->
<g id="edge33" class="edge">
<title>Node1&#45;&gt;Node4</title>
<path fill="none" stroke="midnightblue" d="M739.54,-307.19C793.87,-299.46 867.17,-286.38 929.5,-266 984.3,-248.08 1008.59,-253.43 1046.5,-210 1069.33,-183.85 1070.41,-168.2 1064.5,-134 1062.59,-122.94 1058.48,-111.09 1054.67,-101.65"/>
<polygon fill="midnightblue" stroke="midnightblue" points="1057.78,-100.01 1050.63,-92.19 1051.34,-102.76 1057.78,-100.01"/>
</g>
<!-- Node7 -->
<g id="node7" class="node">
<title>Node7</title>
<g id="a_node7"><a xlink:href="MarmotMath_8h.html" target="_top" xlink:title=" ">
<polygon fill="white" stroke="black" points="419,-134.5 419,-153.5 534,-153.5 534,-134.5 419,-134.5"/>
<text text-anchor="middle" x="476.5" y="-141.5" font-family="Helvetica,sans-Serif" font-size="10.00">Marmot/MarmotMath.h</text>
</a>
</g>
</g>
<!-- Node1&#45;&gt;Node7 -->
<g id="edge24" class="edge">
<title>Node1&#45;&gt;Node7</title>
<path fill="none" stroke="midnightblue" d="M613.21,-302.49C591.68,-294.39 566.96,-282.48 548.5,-266 515.79,-236.8 493.57,-189.11 483.2,-163.18"/>
<polygon fill="midnightblue" stroke="midnightblue" points="486.34,-161.6 479.48,-153.52 479.81,-164.11 486.34,-161.6"/>
</g>
<!-- Node8 -->
<g id="node8" class="node">
<title>Node8</title>
<g id="a_node8"><a xlink:href="MarmotConstants_8h.html" target="_top" xlink:title=" ">
<polygon fill="white" stroke="black" points="0,-73 0,-92 137,-92 137,-73 0,-73"/>
<text text-anchor="middle" x="68.5" y="-80" font-family="Helvetica,sans-Serif" font-size="10.00">Marmot/MarmotConstants.h</text>
</a>
</g>
</g>
<!-- Node1&#45;&gt;Node8 -->
<g id="edge23" class="edge">
<title>Node1&#45;&gt;Node8</title>
<path fill="none" stroke="midnightblue" d="M622.6,-302.43C595.72,-292.4 558.84,-278.53 526.5,-266 364.91,-203.36 172.42,-125.64 99,-95.88"/>
<polygon fill="midnightblue" stroke="midnightblue" points="100.03,-92.52 89.44,-92.01 97.4,-99.01 100.03,-92.52"/>
</g>
<!-- Node10 -->
<g id="node10" class="node">
<title>Node10</title>
<g id="a_node10"><a xlink:href="MarmotTypedefs_8h.html" target="_top" xlink:title=" ">
<polygon fill="white" stroke="black" points="702,-73 702,-92 835,-92 835,-73 702,-73"/>
<text text-anchor="middle" x="768.5" y="-80" font-family="Helvetica,sans-Serif" font-size="10.00">Marmot/MarmotTypedefs.h</text>
</a>
</g>
</g>
<!-- Node1&#45;&gt;Node10 -->
<g id="edge32" class="edge">
<title>Node1&#45;&gt;Node10</title>
<path fill="none" stroke="midnightblue" d="M623.9,-302.47C599.06,-290.45 572.29,-271.11 581.5,-246 603.99,-184.72 625.94,-175.28 676.5,-134 695.49,-118.5 719.93,-105.34 738.85,-96.35"/>
<polygon fill="midnightblue" stroke="midnightblue" points="740.57,-99.41 748.18,-92.03 737.63,-93.05 740.57,-99.41"/>
</g>
<!-- Node19 -->
<g id="node19" class="node">
<title>Node19</title>
<g id="a_node19"><a xlink:href="HaighWestergaard_8h.html" target="_top" xlink:title=" ">
<polygon fill="white" stroke="black" points="590.5,-246.5 590.5,-265.5 730.5,-265.5 730.5,-246.5 590.5,-246.5"/>
<text text-anchor="middle" x="660.5" y="-253.5" font-family="Helvetica,sans-Serif" font-size="10.00">Marmot/HaighWestergaard.h</text>
</a>
</g>
</g>
<!-- Node1&#45;&gt;Node19 -->
<g id="edge19" class="edge">
<title>Node1&#45;&gt;Node19</title>
<path fill="none" stroke="midnightblue" d="M660.5,-302.4C660.5,-294.47 660.5,-284.46 660.5,-275.86"/>
<polygon fill="midnightblue" stroke="midnightblue" points="664,-275.66 660.5,-265.66 657,-275.66 664,-275.66"/>
</g>
<!-- Node20 -->
<g id="node20" class="node">
<title>Node20</title>
<g id="a_node20"><a xlink:href="MarmotTensor_8h.html" target="_top" xlink:title=" ">
<polygon fill="white" stroke="black" points="797,-246.5 797,-265.5 920,-265.5 920,-246.5 797,-246.5"/>
<text text-anchor="middle" x="858.5" y="-253.5" font-family="Helvetica,sans-Serif" font-size="10.00">Marmot/MarmotTensor.h</text>
</a>
</g>
</g>
<!-- Node1&#45;&gt;Node20 -->
<g id="edge25" class="edge">
<title>Node1&#45;&gt;Node20</title>
<path fill="none" stroke="midnightblue" d="M707.17,-302.47C741.63,-292.12 787.96,-278.2 820.24,-268.5"/>
<polygon fill="midnightblue" stroke="midnightblue" points="821.62,-271.74 830.19,-265.51 819.61,-265.03 821.62,-271.74"/>
</g>
<!-- Node3 -->
<g id="node3" class="node">
<title>Node3</title>
<g id="a_node3"><a xlink:href="MarmotJournal_8h.html" target="_top" xlink:title=" ">
<polygon fill="white" stroke="black" points="844,-134.5 844,-153.5 969,-153.5 969,-134.5 844,-134.5"/>
<text text-anchor="middle" x="906.5" y="-141.5" font-family="Helvetica,sans-Serif" font-size="10.00">Marmot/MarmotJournal.h</text>
</a>
</g>
</g>
<!-- Node2&#45;&gt;Node3 -->
<g id="edge2" class="edge">
<title>Node2&#45;&gt;Node3</title>
<path fill="none" stroke="midnightblue" d="M753.34,-190.44C784.36,-181.24 833.83,-166.56 868.12,-156.39"/>
<polygon fill="midnightblue" stroke="midnightblue" points="869.21,-159.72 877.8,-153.52 867.21,-153.01 869.21,-159.72"/>
</g>
<!-- Node2&#45;&gt;Node7 -->
<g id="edge6" class="edge">
<title>Node2&#45;&gt;Node7</title>
<path fill="none" stroke="midnightblue" d="M685.2,-190.44C641.94,-181.02 572.33,-165.87 525.53,-155.68"/>
<polygon fill="midnightblue" stroke="midnightblue" points="526.13,-152.22 515.61,-153.52 524.64,-159.06 526.13,-152.22"/>
</g>
<!-- Node2&#45;&gt;Node10 -->
<g id="edge18" class="edge">
<title>Node2&#45;&gt;Node10</title>
<path fill="none" stroke="midnightblue" d="M727.81,-190.32C734.94,-171.59 751.91,-127.05 761.53,-101.79"/>
<polygon fill="midnightblue" stroke="midnightblue" points="764.87,-102.87 765.15,-92.28 758.32,-100.38 764.87,-102.87"/>
</g>
<!-- Node3&#45;&gt;Node4 -->
<g id="edge3" class="edge">
<title>Node3&#45;&gt;Node4</title>
<path fill="none" stroke="midnightblue" d="M926.56,-134.48C950.26,-124.4 989.91,-107.55 1017.08,-96"/>
<polygon fill="midnightblue" stroke="midnightblue" points="1018.64,-99.14 1026.48,-92.01 1015.91,-92.7 1018.64,-99.14"/>
</g>
<!-- Node5 -->
<g id="node5" class="node">
<title>Node5</title>
<g id="a_node5"><a xlink:title=" ">
<polygon fill="white" stroke="#bfbfbf" points="926.5,-73 926.5,-92 978.5,-92 978.5,-73 926.5,-73"/>
<text text-anchor="middle" x="952.5" y="-80" font-family="Helvetica,sans-Serif" font-size="10.00">sstream</text>
</a>
</g>
</g>
<!-- Node3&#45;&gt;Node5 -->
<g id="edge4" class="edge">
<title>Node3&#45;&gt;Node5</title>
<path fill="none" stroke="midnightblue" d="M913.09,-134.48C919.99,-125.55 931,-111.31 939.63,-100.14"/>
<polygon fill="midnightblue" stroke="midnightblue" points="942.57,-102.06 945.92,-92.01 937.04,-97.78 942.57,-102.06"/>
</g>
<!-- Node6 -->
<g id="node6" class="node">
<title>Node6</title>
<g id="a_node6"><a xlink:title=" ">
<polygon fill="white" stroke="#bfbfbf" points="867,-73 867,-92 908,-92 908,-73 867,-73"/>
<text text-anchor="middle" x="887.5" y="-80" font-family="Helvetica,sans-Serif" font-size="10.00">string</text>
</a>
</g>
</g>
<!-- Node3&#45;&gt;Node6 -->
<g id="edge5" class="edge">
<title>Node3&#45;&gt;Node6</title>
<path fill="none" stroke="midnightblue" d="M903.78,-134.48C901.07,-125.99 896.83,-112.7 893.35,-101.82"/>
<polygon fill="midnightblue" stroke="midnightblue" points="896.59,-100.47 890.22,-92.01 889.93,-102.6 896.59,-100.47"/>
</g>
<!-- Node7&#45;&gt;Node8 -->
<g id="edge7" class="edge">
<title>Node7&#45;&gt;Node8</title>
<path fill="none" stroke="midnightblue" d="M418.85,-135.99C352.89,-127.78 241.69,-113.33 146.5,-98 138.57,-96.72 130.21,-95.28 122.02,-93.8"/>
<polygon fill="midnightblue" stroke="midnightblue" points="122.63,-90.36 112.16,-92 121.37,-97.24 122.63,-90.36"/>
</g>
<!-- Node7&#45;&gt;Node10 -->
<g id="edge9" class="edge">
<title>Node7&#45;&gt;Node10</title>
<path fill="none" stroke="midnightblue" d="M518.34,-134.48C570.7,-123.8 660.37,-105.53 716.93,-94.01"/>
<polygon fill="midnightblue" stroke="midnightblue" points="717.64,-97.44 726.74,-92.01 716.24,-90.58 717.64,-97.44"/>
</g>
<!-- Node14 -->
<g id="node14" class="node">
<title>Node14</title>
<g id="a_node14"><a xlink:title=" ">
<polygon fill="white" stroke="#bfbfbf" points="561.5,-73 561.5,-92 683.5,-92 683.5,-73 561.5,-73"/>
<text text-anchor="middle" x="622.5" y="-80" font-family="Helvetica,sans-Serif" font-size="10.00">autodiff/forward/dual.hpp</text>
</a>
</g>
</g>
<!-- Node7&#45;&gt;Node14 -->
<g id="edge13" class="edge">
<title>Node7&#45;&gt;Node14</title>
<path fill="none" stroke="midnightblue" d="M497.42,-134.48C522.25,-124.36 563.84,-107.4 592.19,-95.85"/>
<polygon fill="midnightblue" stroke="midnightblue" points="593.68,-99.02 601.62,-92.01 591.04,-92.54 593.68,-99.02"/>
</g>
<!-- Node15 -->
<g id="node15" class="node">
<title>Node15</title>
<g id="a_node15"><a xlink:title=" ">
<polygon fill="white" stroke="#bfbfbf" points="155.5,-73 155.5,-92 275.5,-92 275.5,-73 155.5,-73"/>
<text text-anchor="middle" x="215.5" y="-80" font-family="Helvetica,sans-Serif" font-size="10.00">autodiff/forward/real.hpp</text>
</a>
</g>
</g>
<!-- Node7&#45;&gt;Node15 -->
<g id="edge14" class="edge">
<title>Node7&#45;&gt;Node15</title>
<path fill="none" stroke="midnightblue" d="M439.11,-134.48C392.69,-123.89 313.48,-105.84 262.86,-94.3"/>
<polygon fill="midnightblue" stroke="midnightblue" points="263.35,-90.82 252.83,-92.01 261.8,-97.64 263.35,-90.82"/>
</g>
<!-- Node16 -->
<g id="node16" class="node">
<title>Node16</title>
<g id="a_node16"><a xlink:title=" ">
<polygon fill="white" stroke="#bfbfbf" points="293.5,-73 293.5,-92 349.5,-92 349.5,-73 293.5,-73"/>
<text text-anchor="middle" x="321.5" y="-80" font-family="Helvetica,sans-Serif" font-size="10.00">algorithm</text>
</a>
</g>
</g>
<!-- Node7&#45;&gt;Node16 -->
<g id="edge15" class="edge">
<title>Node7&#45;&gt;Node16</title>
<path fill="none" stroke="midnightblue" d="M453.86,-134.43C430.08,-125.43 391.63,-110.81 358.5,-98 356.67,-97.29 354.78,-96.56 352.88,-95.82"/>
<polygon fill="midnightblue" stroke="midnightblue" points="353.99,-92.5 343.4,-92.12 351.44,-99.02 353.99,-92.5"/>
</g>
<!-- Node17 -->
<g id="node17" class="node">
<title>Node17</title>
<g id="a_node17"><a xlink:title=" ">
<polygon fill="white" stroke="#bfbfbf" points="367.5,-67.5 367.5,-97.5 471.5,-97.5 471.5,-67.5 367.5,-67.5"/>
<text text-anchor="start" x="375.5" y="-85.5" font-family="Helvetica,sans-Serif" font-size="10.00">autodiff/forward/dual</text>
<text text-anchor="middle" x="419.5" y="-74.5" font-family="Helvetica,sans-Serif" font-size="10.00">/dual.hpp</text>
</a>
</g>
</g>
<!-- Node7&#45;&gt;Node17 -->
<g id="edge16" class="edge">
<title>Node7&#45;&gt;Node17</title>
<path fill="none" stroke="midnightblue" d="M468.33,-134.48C460.97,-126.79 449.84,-115.17 440.06,-104.96"/>
<polygon fill="midnightblue" stroke="midnightblue" points="442.38,-102.32 432.93,-97.52 437.32,-107.17 442.38,-102.32"/>
</g>
<!-- Node18 -->
<g id="node18" class="node">
<title>Node18</title>
<g id="a_node18"><a xlink:title=" ">
<polygon fill="white" stroke="#bfbfbf" points="490,-73 490,-92 543,-92 543,-73 490,-73"/>
<text text-anchor="middle" x="516.5" y="-80" font-family="Helvetica,sans-Serif" font-size="10.00">complex</text>
</a>
</g>
</g>
<!-- Node7&#45;&gt;Node18 -->
<g id="edge17" class="edge">
<title>Node7&#45;&gt;Node18</title>
<path fill="none" stroke="midnightblue" d="M482.23,-134.48C488.17,-125.64 497.62,-111.59 505.09,-100.48"/>
<polygon fill="midnightblue" stroke="midnightblue" points="508.11,-102.26 510.78,-92.01 502.3,-98.36 508.11,-102.26"/>
</g>
<!-- Node9 -->
<g id="node9" class="node">
<title>Node9</title>
<g id="a_node9"><a xlink:title=" ">
<polygon fill="white" stroke="#bfbfbf" points="46.5,-6 46.5,-25 90.5,-25 90.5,-6 46.5,-6"/>
<text text-anchor="middle" x="68.5" y="-13" font-family="Helvetica,sans-Serif" font-size="10.00">cmath</text>
</a>
</g>
</g>
<!-- Node8&#45;&gt;Node9 -->
<g id="edge8" class="edge">
<title>Node8&#45;&gt;Node9</title>
<path fill="none" stroke="midnightblue" d="M68.5,-72.73C68.5,-63.18 68.5,-47.62 68.5,-35.28"/>
<polygon fill="midnightblue" stroke="midnightblue" points="72,-35.13 68.5,-25.13 65,-35.13 72,-35.13"/>
</g>
<!-- Node11 -->
<g id="node11" class="node">
<title>Node11</title>
<g id="a_node11"><a xlink:title=" ">
<polygon fill="white" stroke="#bfbfbf" points="650.5,-6 650.5,-25 714.5,-25 714.5,-6 650.5,-6"/>
<text text-anchor="middle" x="682.5" y="-13" font-family="Helvetica,sans-Serif" font-size="10.00">Eigen/Core</text>
</a>
</g>
</g>
<!-- Node10&#45;&gt;Node11 -->
<g id="edge10" class="edge">
<title>Node10&#45;&gt;Node11</title>
<path fill="none" stroke="midnightblue" d="M756.9,-72.73C742.85,-62.11 718.95,-44.05 702.03,-31.26"/>
<polygon fill="midnightblue" stroke="midnightblue" points="704,-28.36 693.91,-25.13 699.78,-33.95 704,-28.36"/>
</g>
<!-- Node12 -->
<g id="node12" class="node">
<title>Node12</title>
<g id="a_node12"><a xlink:title=" ">
<polygon fill="white" stroke="#bfbfbf" points="733,-6 733,-25 804,-25 804,-6 733,-6"/>
<text text-anchor="middle" x="768.5" y="-13" font-family="Helvetica,sans-Serif" font-size="10.00">Eigen/Dense</text>
</a>
</g>
</g>
<!-- Node10&#45;&gt;Node12 -->
<g id="edge11" class="edge">
<title>Node10&#45;&gt;Node12</title>
<path fill="none" stroke="midnightblue" d="M768.5,-72.73C768.5,-63.18 768.5,-47.62 768.5,-35.28"/>
<polygon fill="midnightblue" stroke="midnightblue" points="772,-35.13 768.5,-25.13 765,-35.13 772,-35.13"/>
</g>
<!-- Node13 -->
<g id="node13" class="node">
<title>Node13</title>
<g id="a_node13"><a xlink:title=" ">
<polygon fill="white" stroke="#bfbfbf" points="822,-0.5 822,-30.5 953,-30.5 953,-0.5 822,-0.5"/>
<text text-anchor="start" x="830" y="-18.5" font-family="Helvetica,sans-Serif" font-size="10.00">unsupported/Eigen/CXX11</text>
<text text-anchor="middle" x="887.5" y="-7.5" font-family="Helvetica,sans-Serif" font-size="10.00">/Tensor</text>
</a>
</g>
</g>
<!-- Node10&#45;&gt;Node13 -->
<g id="edge12" class="edge">
<title>Node10&#45;&gt;Node13</title>
<path fill="none" stroke="midnightblue" d="M784.55,-72.73C801.95,-63.23 830.24,-47.78 852.77,-35.47"/>
<polygon fill="midnightblue" stroke="midnightblue" points="854.61,-38.45 861.71,-30.59 851.25,-32.31 854.61,-38.45"/>
</g>
<!-- Node19&#45;&gt;Node2 -->
<g id="edge22" class="edge">
<title>Node19&#45;&gt;Node2</title>
<path fill="none" stroke="midnightblue" d="M670.78,-246.32C680.34,-238.26 694.78,-226.08 706.28,-216.37"/>
<polygon fill="midnightblue" stroke="midnightblue" points="708.64,-218.96 714.03,-209.83 704.13,-213.61 708.64,-218.96"/>
</g>
<!-- Node19&#45;&gt;Node7 -->
<g id="edge20" class="edge">
<title>Node19&#45;&gt;Node7</title>
<path fill="none" stroke="midnightblue" d="M646.06,-246.37C614.35,-227.41 538.39,-182 499.82,-158.94"/>
<polygon fill="midnightblue" stroke="midnightblue" points="501.25,-155.72 490.87,-153.59 497.66,-161.73 501.25,-155.72"/>
</g>
<!-- Node19&#45;&gt;Node10 -->
<g id="edge21" class="edge">
<title>Node19&#45;&gt;Node10</title>
<path fill="none" stroke="midnightblue" d="M657.76,-246.16C654.25,-233.24 649.52,-208.7 657.5,-190 675.29,-148.29 718.31,-115.05 745.27,-97.4"/>
<polygon fill="midnightblue" stroke="midnightblue" points="747.17,-100.34 753.74,-92.03 743.42,-94.43 747.17,-100.34"/>
</g>
<!-- Node20&#45;&gt;Node2 -->
<g id="edge29" class="edge">
<title>Node20&#45;&gt;Node2</title>
<path fill="none" stroke="midnightblue" d="M837.27,-246.44C815.12,-237.52 780.18,-223.44 755.06,-213.32"/>
<polygon fill="midnightblue" stroke="midnightblue" points="756.22,-210.01 745.63,-209.52 753.6,-216.5 756.22,-210.01"/>
</g>
<!-- Node20&#45;&gt;Node3 -->
<g id="edge27" class="edge">
<title>Node20&#45;&gt;Node3</title>
<path fill="none" stroke="midnightblue" d="M865.07,-246.47C871.54,-237.72 881.32,-223.53 887.5,-210 894.37,-194.96 899.42,-176.83 902.59,-163.54"/>
<polygon fill="midnightblue" stroke="midnightblue" points="906.02,-164.22 904.8,-153.7 899.19,-162.69 906.02,-164.22"/>
</g>
<!-- Node20&#45;&gt;Node4 -->
<g id="edge30" class="edge">
<title>Node20&#45;&gt;Node4</title>
<path fill="none" stroke="midnightblue" d="M916.67,-246.44C959.47,-238.92 1012.67,-226.58 1027.5,-210 1054.19,-180.17 1052.71,-129.63 1049.5,-102.34"/>
<polygon fill="midnightblue" stroke="midnightblue" points="1052.94,-101.62 1048.1,-92.19 1046,-102.58 1052.94,-101.62"/>
</g>
<!-- Node20&#45;&gt;Node10 -->
<g id="edge28" class="edge">
<title>Node20&#45;&gt;Node10</title>
<path fill="none" stroke="midnightblue" d="M852.65,-246.19C846.79,-237.24 837.64,-222.88 830.5,-210 809.54,-172.19 787.97,-126.29 776.62,-101.49"/>
<polygon fill="midnightblue" stroke="midnightblue" points="779.74,-99.9 772.41,-92.24 773.37,-102.8 779.74,-99.9"/>
</g>
<!-- Node21 -->
<g id="node21" class="node">
<title>Node21</title>
<g id="a_node21"><a xlink:title=" ">
<polygon fill="white" stroke="#bfbfbf" points="935,-190.5 935,-209.5 1018,-209.5 1018,-190.5 935,-190.5"/>
<text text-anchor="middle" x="976.5" y="-197.5" font-family="Helvetica,sans-Serif" font-size="10.00">Fastor/Fastor.h</text>
</a>
</g>
</g>
<!-- Node20&#45;&gt;Node21 -->
<g id="edge26" class="edge">
<title>Node20&#45;&gt;Node21</title>
<path fill="none" stroke="midnightblue" d="M877.2,-246.44C896.44,-237.64 926.65,-223.81 948.7,-213.72"/>
<polygon fill="midnightblue" stroke="midnightblue" points="950.25,-216.86 957.89,-209.52 947.34,-210.5 950.25,-216.86"/>
</g>
<!-- Node22 -->
<g id="node22" class="node">
<title>Node22</title>
<g id="a_node22"><a xlink:title=" ">
<polygon fill="white" stroke="#bfbfbf" points="839,-190.5 839,-209.5 878,-209.5 878,-190.5 839,-190.5"/>
<text text-anchor="middle" x="858.5" y="-197.5" font-family="Helvetica,sans-Serif" font-size="10.00">utility</text>
</a>
</g>
</g>
<!-- Node20&#45;&gt;Node22 -->
<g id="edge31" class="edge">
<title>Node20&#45;&gt;Node22</title>
<path fill="none" stroke="midnightblue" d="M858.5,-246.08C858.5,-239.01 858.5,-228.86 858.5,-219.99"/>
<polygon fill="midnightblue" stroke="midnightblue" points="862,-219.75 858.5,-209.75 855,-219.75 862,-219.75"/>
</g>
</g>
</svg>
        <g id="navigator" transform="translate(0 0)" fill="#404254">
                <rect fill="#f2f5e9" fill-opacity="0.5" stroke="#606060" stroke-width=".5" x="0" y="0" width="60" height="60"/>
                <use id="zoomplus" xlink:href="#zoomPlus" x="17" y="9" onmousedown="handleZoom(evt,'in')"/>
                <use id="zoomminus" xlink:href="#zoomMin" x="42" y="9" onmousedown="handleZoom(evt,'out')"/>
                <use id="reset" xlink:href="#resetDef" x="30" y="36" onmousedown="handleReset()"/>
                <g id="arrowUp" xlink:href="#dirArrow" transform="translate(30 24)" onmousedown="handlePan(0,-1)">
                  <use xlink:href="#rim" fill="#404040">
                        <set attributeName="fill" to="#808080" begin="arrowUp.mouseover" end="arrowUp.mouseout"/>
                  </use>
                  <path fill="none" stroke="white" stroke-width="1.5" d="M0,-3.0v7 M-2.5,-0.5L0,-3.0L2.5,-0.5"/>
                </g>
                <g id="arrowRight" xlink:href="#dirArrow" transform="rotate(90) translate(36 -43)" onmousedown="handlePan(1,0)">
                  <use xlink:href="#rim" fill="#404040">
                        <set attributeName="fill" to="#808080" begin="arrowRight.mouseover" end="arrowRight.mouseout"/>
                  </use>
                  <path fill="none" stroke="white" stroke-width="1.5" d="M0,-3.0v7 M-2.5,-0.5L0,-3.0L2.5,-0.5"/>
                </g>
                <g id="arrowDown" xlink:href="#dirArrow" transform="rotate(180) translate(-30 -48)" onmousedown="handlePan(0,1)">
                  <use xlink:href="#rim" fill="#404040">
                        <set attributeName="fill" to="#808080" begin="arrowDown.mouseover" end="arrowDown.mouseout"/>
                  </use>
                  <path fill="none" stroke="white" stroke-width="1.5" d="M0,-3.0v7 M-2.5,-0.5L0,-3.0L2.5,-0.5"/>
                </g>
                <g id="arrowLeft" xlink:href="#dirArrow" transform="rotate(270) translate(-36 17)" onmousedown="handlePan(-1,0)">
                  <use xlink:href="#rim" fill="#404040">
                        <set attributeName="fill" to="#808080" begin="arrowLeft.mouseover" end="arrowLeft.mouseout"/>
                  </use>
                  <path fill="none" stroke="white" stroke-width="1.5" d="M0,-3.0v7 M-2.5,-0.5L0,-3.0L2.5,-0.5"/>
                </g>
        </g>
        <svg viewBox="0 0 15 15" width="100%" height="30px" preserveAspectRatio="xMaxYMin meet">
         <g id="arrow_out" transform="scale(0.3 0.3)">
          <a xlink:href="MarmotVoigt_8cpp__incl_org.svg" target="_base">
           <rect id="button" ry="5" rx="5" y="6" x="6" height="38" width="38"
                fill="#f2f5e9" fill-opacity="0.5" stroke="#606060" stroke-width="1.0"/>
           <path id="arrow"
             d="M 11.500037,31.436501 C 11.940474,20.09759 22.043105,11.32322 32.158766,21.979434 L 37.068811,17.246167 C 37.068811,17.246167 37.088388,32 37.088388,32 L 22.160133,31.978069 C 22.160133,31.978069 26.997745,27.140456 26.997745,27.140456 C 18.528582,18.264221 13.291696,25.230495 11.500037,31.436501 z"
             style="fill:#404040;"/>
          </a>
         </g>
        </svg>
</svg>
