<?xml version="1.0" encoding="UTF-8" standalone="no"?>
<!DOCTYPE svg PUBLIC "-//W3C//DTD SVG 1.1//EN"
 "http://www.w3.org/Graphics/SVG/1.1/DTD/svg11.dtd">
<!-- Generated by graphviz version 2.44.0 ()
 -->
<!-- Title: modules/core/MarmotMechanicsCore/include/Marmot/MarmotMaterialHypoElastic.h Pages: 1 -->
<svg width="1169pt" height="206pt"
 viewBox="0.00 0.00 1169.00 206.00" xmlns="http://www.w3.org/2000/svg" xmlns:xlink="http://www.w3.org/1999/xlink">
<g id="graph0" class="graph" transform="scale(1 1) rotate(0) translate(4 202)">
<title>modules/core/MarmotMechanicsCore/include/Marmot/MarmotMaterialHypoElastic.h</title>
<polygon fill="white" stroke="transparent" points="-4,4 -4,-202 1165,-202 1165,4 -4,4"/>
<!-- Node1 -->
<g id="node1" class="node">
<title>Node1</title>
<g id="a_node1"><a xlink:title=" ">
<polygon fill="#bfbfbf" stroke="black" points="397,-156.5 397,-197.5 574,-197.5 574,-156.5 397,-156.5"/>
<text text-anchor="start" x="405" y="-185.5" font-family="Helvetica,sans-Serif" font-size="10.00">modules/core/MarmotMechanics</text>
<text text-anchor="start" x="405" y="-174.5" font-family="Helvetica,sans-Serif" font-size="10.00">Core/include/Marmot/MarmotMaterial</text>
<text text-anchor="middle" x="485.5" y="-163.5" font-family="Helvetica,sans-Serif" font-size="10.00">HypoElastic.h</text>
</a>
</g>
</g>
<!-- Node2 -->
<g id="node2" class="node">
<title>Node2</title>
<g id="a_node2"><a xlink:href="MarmotMaterialHypoElasticAD_8h.html" target="_top" xlink:title=" ">
<polygon fill="white" stroke="black" points="0,-78.5 0,-119.5 177,-119.5 177,-78.5 0,-78.5"/>
<text text-anchor="start" x="8" y="-107.5" font-family="Helvetica,sans-Serif" font-size="10.00">modules/core/MarmotMechanics</text>
<text text-anchor="start" x="8" y="-96.5" font-family="Helvetica,sans-Serif" font-size="10.00">Core/include/Marmot/MarmotMaterial</text>
<text text-anchor="middle" x="88.5" y="-85.5" font-family="Helvetica,sans-Serif" font-size="10.00">HypoElasticAD.h</text>
</a>
</g>
</g>
<!-- Node1&#45;&gt;Node2 -->
<g id="edge1" class="edge">
<title>Node1&#45;&gt;Node2</title>
<path fill="none" stroke="midnightblue" d="M386.82,-158.06C328.26,-147.3 252.58,-133.18 185.5,-120 182.72,-119.45 179.89,-118.89 177.03,-118.33"/>
<polygon fill="midnightblue" stroke="midnightblue" points="386.34,-161.53 396.81,-159.9 387.61,-154.65 386.34,-161.53"/>
</g>
<!-- Node4 -->
<g id="node4" class="node">
<title>Node4</title>
<g id="a_node4"><a xlink:href="MarmotMaterialHypoElastic_8cpp.html" target="_top" xlink:title=" ">
<polygon fill="white" stroke="black" points="194.5,-84 194.5,-114 388.5,-114 388.5,-84 194.5,-84"/>
<text text-anchor="start" x="202.5" y="-102" font-family="Helvetica,sans-Serif" font-size="10.00">modules/core/MarmotMechanics</text>
<text text-anchor="middle" x="291.5" y="-91" font-family="Helvetica,sans-Serif" font-size="10.00">Core/src/MarmotMaterialHypoElastic.cpp</text>
</a>
</g>
</g>
<!-- Node1&#45;&gt;Node4 -->
<g id="edge3" class="edge">
<title>Node1&#45;&gt;Node4</title>
<path fill="none" stroke="midnightblue" d="M426.21,-152.77C393.98,-140.15 355.17,-124.94 327.51,-114.11"/>
<polygon fill="midnightblue" stroke="midnightblue" points="424.95,-156.04 435.54,-156.43 427.51,-149.52 424.95,-156.04"/>
</g>
<!-- Node5 -->
<g id="node5" class="node">
<title>Node5</title>
<g id="a_node5"><a xlink:href="DisplacementFiniteElement_8h.html" target="_top" xlink:title=" ">
<polygon fill="white" stroke="black" points="406.5,-78.5 406.5,-119.5 564.5,-119.5 564.5,-78.5 406.5,-78.5"/>
<text text-anchor="start" x="414.5" y="-107.5" font-family="Helvetica,sans-Serif" font-size="10.00">modules/elements/Displacement</text>
<text text-anchor="start" x="414.5" y="-96.5" font-family="Helvetica,sans-Serif" font-size="10.00">FiniteElement/include/Marmot</text>
<text text-anchor="middle" x="485.5" y="-85.5" font-family="Helvetica,sans-Serif" font-size="10.00">/DisplacementFiniteElement.h</text>
</a>
</g>
</g>
<!-- Node1&#45;&gt;Node5 -->
<g id="edge4" class="edge">
<title>Node1&#45;&gt;Node5</title>
<path fill="none" stroke="midnightblue" d="M485.5,-146.3C485.5,-137.3 485.5,-127.65 485.5,-119.51"/>
<polygon fill="midnightblue" stroke="midnightblue" points="482,-146.43 485.5,-156.43 489,-146.43 482,-146.43"/>
</g>
<!-- Node7 -->
<g id="node7" class="node">
<title>Node7</title>
<g id="a_node7"><a xlink:href="LinearElastic_8h.html" target="_top" xlink:title=" ">
<polygon fill="white" stroke="black" points="582.5,-78.5 582.5,-119.5 708.5,-119.5 708.5,-78.5 582.5,-78.5"/>
<text text-anchor="start" x="590.5" y="-107.5" font-family="Helvetica,sans-Serif" font-size="10.00">modules/materials/Linear</text>
<text text-anchor="start" x="590.5" y="-96.5" font-family="Helvetica,sans-Serif" font-size="10.00">Elastic/include/Marmot</text>
<text text-anchor="middle" x="645.5" y="-85.5" font-family="Helvetica,sans-Serif" font-size="10.00">/LinearElastic.h</text>
</a>
</g>
</g>
<!-- Node1&#45;&gt;Node7 -->
<g id="edge6" class="edge">
<title>Node1&#45;&gt;Node7</title>
<path fill="none" stroke="midnightblue" d="M535.92,-152.05C557.99,-141.57 583.55,-129.42 604.44,-119.51"/>
<polygon fill="midnightblue" stroke="midnightblue" points="534.24,-148.98 526.7,-156.43 537.24,-155.3 534.24,-148.98"/>
</g>
<!-- Node10 -->
<g id="node10" class="node">
<title>Node10</title>
<g id="a_node10"><a xlink:href="VonMises_8h.html" target="_top" xlink:title=" ">
<polygon fill="white" stroke="black" points="851,-84 851,-114 994,-114 994,-84 851,-84"/>
<text text-anchor="start" x="859" y="-102" font-family="Helvetica,sans-Serif" font-size="10.00">modules/materials/VonMises</text>
<text text-anchor="middle" x="922.5" y="-91" font-family="Helvetica,sans-Serif" font-size="10.00">/include/Marmot/VonMises.h</text>
</a>
</g>
</g>
<!-- Node1&#45;&gt;Node10 -->
<g id="edge9" class="edge">
<title>Node1&#45;&gt;Node10</title>
<path fill="none" stroke="midnightblue" d="M584.42,-158.8C665.5,-144.7 778.33,-125.07 850.89,-112.45"/>
<polygon fill="midnightblue" stroke="midnightblue" points="583.45,-155.41 574.2,-160.57 584.65,-162.31 583.45,-155.41"/>
</g>
<!-- Node3 -->
<g id="node3" class="node">
<title>Node3</title>
<g id="a_node3"><a xlink:href="MarmotMaterialHypoElasticAD_8cpp.html" target="_top" xlink:title=" ">
<polygon fill="white" stroke="black" points="0.5,-0.5 0.5,-41.5 176.5,-41.5 176.5,-0.5 0.5,-0.5"/>
<text text-anchor="start" x="8.5" y="-29.5" font-family="Helvetica,sans-Serif" font-size="10.00">modules/core/MarmotMechanics</text>
<text text-anchor="start" x="8.5" y="-18.5" font-family="Helvetica,sans-Serif" font-size="10.00">Core/src/MarmotMaterialHypoElastic</text>
<text text-anchor="middle" x="88.5" y="-7.5" font-family="Helvetica,sans-Serif" font-size="10.00">AD.cpp</text>
</a>
</g>
</g>
<!-- Node2&#45;&gt;Node3 -->
<g id="edge2" class="edge">
<title>Node2&#45;&gt;Node3</title>
<path fill="none" stroke="midnightblue" d="M88.5,-68.3C88.5,-59.3 88.5,-49.65 88.5,-41.51"/>
<polygon fill="midnightblue" stroke="midnightblue" points="85,-68.43 88.5,-78.43 92,-68.43 85,-68.43"/>
</g>
<!-- Node6 -->
<g id="node6" class="node">
<title>Node6</title>
<g id="a_node6"><a xlink:href="DisplacementFiniteElementRegistration_8cpp.html" target="_top" xlink:title=" ">
<polygon fill="white" stroke="black" points="286,-0.5 286,-41.5 465,-41.5 465,-0.5 286,-0.5"/>
<text text-anchor="start" x="294" y="-29.5" font-family="Helvetica,sans-Serif" font-size="10.00">modules/elements/Displacement</text>
<text text-anchor="start" x="294" y="-18.5" font-family="Helvetica,sans-Serif" font-size="10.00">FiniteElement/src/DisplacementFinite</text>
<text text-anchor="middle" x="375.5" y="-7.5" font-family="Helvetica,sans-Serif" font-size="10.00">ElementRegistration.cpp</text>
</a>
</g>
</g>
<!-- Node5&#45;&gt;Node6 -->
<g id="edge5" class="edge">
<title>Node5&#45;&gt;Node6</title>
<path fill="none" stroke="midnightblue" d="M448.79,-72.64C434.1,-62.49 417.45,-50.98 403.73,-41.51"/>
<polygon fill="midnightblue" stroke="midnightblue" points="446.96,-75.62 457.17,-78.43 450.93,-69.86 446.96,-75.62"/>
</g>
<!-- Node8 -->
<g id="node8" class="node">
<title>Node8</title>
<g id="a_node8"><a xlink:href="LinearElastic_8cpp.html" target="_top" xlink:title=" ">
<polygon fill="white" stroke="black" points="483.5,-6 483.5,-36 623.5,-36 623.5,-6 483.5,-6"/>
<text text-anchor="start" x="491.5" y="-24" font-family="Helvetica,sans-Serif" font-size="10.00">modules/materials/Linear</text>
<text text-anchor="middle" x="553.5" y="-13" font-family="Helvetica,sans-Serif" font-size="10.00">Elastic/src/LinearElastic.cpp</text>
</a>
</g>
</g>
<!-- Node7&#45;&gt;Node8 -->
<g id="edge7" class="edge">
<title>Node7&#45;&gt;Node8</title>
<path fill="none" stroke="midnightblue" d="M614.02,-71.99C599.52,-60.02 582.88,-46.27 570.72,-36.23"/>
<polygon fill="midnightblue" stroke="midnightblue" points="611.87,-74.76 621.81,-78.43 616.33,-69.36 611.87,-74.76"/>
</g>
<!-- Node9 -->
<g id="node9" class="node">
<title>Node9</title>
<g id="a_node9"><a xlink:href="LinearElasticRegistration_8cpp.html" target="_top" xlink:title=" ">
<polygon fill="white" stroke="black" points="642,-6 642,-36 833,-36 833,-6 642,-6"/>
<text text-anchor="start" x="650" y="-24" font-family="Helvetica,sans-Serif" font-size="10.00">modules/materials/Linear</text>
<text text-anchor="middle" x="737.5" y="-13" font-family="Helvetica,sans-Serif" font-size="10.00">Elastic/src/LinearElasticRegistration.cpp</text>
</a>
</g>
</g>
<!-- Node7&#45;&gt;Node9 -->
<g id="edge8" class="edge">
<title>Node7&#45;&gt;Node9</title>
<path fill="none" stroke="midnightblue" d="M676.98,-71.99C691.48,-60.02 708.12,-46.27 720.28,-36.23"/>
<polygon fill="midnightblue" stroke="midnightblue" points="674.67,-69.36 669.19,-78.43 679.13,-74.76 674.67,-69.36"/>
</g>
<!-- Node11 -->
<g id="node11" class="node">
<title>Node11</title>
<g id="a_node11"><a xlink:href="VonMises_8cpp.html" target="_top" xlink:title=" ">
<polygon fill="white" stroke="black" points="851,-6 851,-36 994,-36 994,-6 851,-6"/>
<text text-anchor="start" x="859" y="-24" font-family="Helvetica,sans-Serif" font-size="10.00">modules/materials/VonMises</text>
<text text-anchor="middle" x="922.5" y="-13" font-family="Helvetica,sans-Serif" font-size="10.00">/src/VonMises.cpp</text>
</a>
</g>
</g>
<!-- Node10&#45;&gt;Node11 -->
<g id="edge10" class="edge">
<title>Node10&#45;&gt;Node11</title>
<path fill="none" stroke="midnightblue" d="M922.5,-73.59C922.5,-61.26 922.5,-46.72 922.5,-36.23"/>
<polygon fill="midnightblue" stroke="midnightblue" points="919,-73.7 922.5,-83.7 926,-73.71 919,-73.7"/>
</g>
<!-- Node12 -->
<g id="node12" class="node">
<title>Node12</title>
<g id="a_node12"><a xlink:href="VonMisesRegistration_8cpp.html" target="_top" xlink:title=" ">
<polygon fill="white" stroke="black" points="1012,-6 1012,-36 1161,-36 1161,-6 1012,-6"/>
<text text-anchor="start" x="1020" y="-24" font-family="Helvetica,sans-Serif" font-size="10.00">modules/materials/VonMises</text>
<text text-anchor="middle" x="1086.5" y="-13" font-family="Helvetica,sans-Serif" font-size="10.00">/src/VonMisesRegistration.cpp</text>
</a>
</g>
</g>
<!-- Node10&#45;&gt;Node12 -->
<g id="edge11" class="edge">
<title>Node10&#45;&gt;Node12</title>
<path fill="none" stroke="midnightblue" d="M962.37,-79.52C991.28,-66.13 1029.78,-48.28 1056.2,-36.04"/>
<polygon fill="midnightblue" stroke="midnightblue" points="960.56,-76.5 952.96,-83.88 963.51,-82.85 960.56,-76.5"/>
</g>
</g>
</svg>
