<?xml version="1.0" encoding="UTF-8" standalone="no"?>
<!DOCTYPE svg PUBLIC "-//W3C//DTD SVG 1.1//EN"
 "http://www.w3.org/Graphics/SVG/1.1/DTD/svg11.dtd">
<!-- Generated by graphviz version 3.0.0 (20220413.0106)
 -->
<!-- Title: modules/core/MarmotMechanicsCore/include/Marmot/MarmotVoigt.h Pages: 1 -->
<svg width="645pt" height="218pt"
 viewBox="0.00 0.00 644.50 218.00" xmlns="http://www.w3.org/2000/svg" xmlns:xlink="http://www.w3.org/1999/xlink">
<g id="graph0" class="graph" transform="scale(1 1) rotate(0) translate(4 214)">
<title>modules/core/MarmotMechanicsCore/include/Marmot/MarmotVoigt.h</title>
<polygon fill="white" stroke="transparent" points="-4,4 -4,-214 640.5,-214 640.5,4 -4,4"/>
<!-- Node1 -->
<g id="node1" class="node">
<title>Node1</title>
<g id="a_node1"><a xlink:title=" ">
<polygon fill="#bfbfbf" stroke="black" points="182.5,-179.5 182.5,-209.5 355.5,-209.5 355.5,-179.5 182.5,-179.5"/>
<text text-anchor="start" x="190.5" y="-197.5" font-family="Helvetica,sans-Serif" font-size="10.00">modules/core/MarmotMechanics</text>
<text text-anchor="middle" x="269" y="-186.5" font-family="Helvetica,sans-Serif" font-size="10.00">Core/include/Marmot/MarmotVoigt.h</text>
</a>
</g>
</g>
<!-- Node2 -->
<g id="node2" class="node">
<title>Node2</title>
<g id="a_node2"><a xlink:href="MarmotJournal_8h.html" target="_top" xlink:title=" ">
<polygon fill="white" stroke="black" points="61.5,-123.5 61.5,-142.5 186.5,-142.5 186.5,-123.5 61.5,-123.5"/>
<text text-anchor="middle" x="124" y="-130.5" font-family="Helvetica,sans-Serif" font-size="10.00">Marmot/MarmotJournal.h</text>
</a>
</g>
</g>
<!-- Node1&#45;&gt;Node2 -->
<g id="edge1" class="edge">
<title>Node1&#45;&gt;Node2</title>
<path fill="none" stroke="midnightblue" d="M234.64,-179.4C210.31,-169.42 177.97,-156.15 154.54,-146.53"/>
<polygon fill="midnightblue" stroke="midnightblue" points="155.68,-143.22 145.1,-142.66 153.02,-149.69 155.68,-143.22"/>
</g>
<!-- Node6 -->
<g id="node6" class="node">
<title>Node6</title>
<g id="a_node6"><a xlink:href="MarmotMath_8h.html" target="_top" xlink:title=" ">
<polygon fill="white" stroke="black" points="324.5,-123.5 324.5,-142.5 439.5,-142.5 439.5,-123.5 324.5,-123.5"/>
<text text-anchor="middle" x="382" y="-130.5" font-family="Helvetica,sans-Serif" font-size="10.00">Marmot/MarmotMath.h</text>
</a>
</g>
</g>
<!-- Node1&#45;&gt;Node6 -->
<g id="edge5" class="edge">
<title>Node1&#45;&gt;Node6</title>
<path fill="none" stroke="midnightblue" d="M295.78,-179.4C314.06,-169.77 338.15,-157.09 356.21,-147.58"/>
<polygon fill="midnightblue" stroke="midnightblue" points="358.34,-150.41 365.56,-142.66 355.08,-144.22 358.34,-150.41"/>
</g>
<!-- Node9 -->
<g id="node9" class="node">
<title>Node9</title>
<g id="a_node9"><a xlink:href="MarmotTypedefs_8h.html" target="_top" xlink:title=" ">
<polygon fill="white" stroke="black" points="202.5,-67.5 202.5,-86.5 335.5,-86.5 335.5,-67.5 202.5,-67.5"/>
<text text-anchor="middle" x="269" y="-74.5" font-family="Helvetica,sans-Serif" font-size="10.00">Marmot/MarmotTypedefs.h</text>
</a>
</g>
</g>
<!-- Node1&#45;&gt;Node9 -->
<g id="edge14" class="edge">
<title>Node1&#45;&gt;Node9</title>
<path fill="none" stroke="midnightblue" d="M269,-179.34C269,-158.62 269,-120.02 269,-96.9"/>
<polygon fill="midnightblue" stroke="midnightblue" points="272.5,-96.67 269,-86.67 265.5,-96.67 272.5,-96.67"/>
</g>
<!-- Node3 -->
<g id="node3" class="node">
<title>Node3</title>
<g id="a_node3"><a xlink:title=" ">
<polygon fill="white" stroke="#bfbfbf" points="130,-67.5 130,-86.5 184,-86.5 184,-67.5 130,-67.5"/>
<text text-anchor="middle" x="157" y="-74.5" font-family="Helvetica,sans-Serif" font-size="10.00">iostream</text>
</a>
</g>
</g>
<!-- Node2&#45;&gt;Node3 -->
<g id="edge2" class="edge">
<title>Node2&#45;&gt;Node3</title>
<path fill="none" stroke="midnightblue" d="M129.45,-123.08C134.01,-115.61 140.67,-104.72 146.29,-95.52"/>
<polygon fill="midnightblue" stroke="midnightblue" points="149.42,-97.11 151.65,-86.75 143.45,-93.46 149.42,-97.11"/>
</g>
<!-- Node4 -->
<g id="node4" class="node">
<title>Node4</title>
<g id="a_node4"><a xlink:title=" ">
<polygon fill="white" stroke="#bfbfbf" points="0,-67.5 0,-86.5 52,-86.5 52,-67.5 0,-67.5"/>
<text text-anchor="middle" x="26" y="-74.5" font-family="Helvetica,sans-Serif" font-size="10.00">sstream</text>
</a>
</g>
</g>
<!-- Node2&#45;&gt;Node4 -->
<g id="edge3" class="edge">
<title>Node2&#45;&gt;Node4</title>
<path fill="none" stroke="midnightblue" d="M108.25,-123.32C92.68,-114.74 68.62,-101.49 50.54,-91.52"/>
<polygon fill="midnightblue" stroke="midnightblue" points="52.15,-88.42 41.71,-86.65 48.78,-94.55 52.15,-88.42"/>
</g>
<!-- Node5 -->
<g id="node5" class="node">
<title>Node5</title>
<g id="a_node5"><a xlink:title=" ">
<polygon fill="white" stroke="#bfbfbf" points="70.5,-67.5 70.5,-86.5 111.5,-86.5 111.5,-67.5 70.5,-67.5"/>
<text text-anchor="middle" x="91" y="-74.5" font-family="Helvetica,sans-Serif" font-size="10.00">string</text>
</a>
</g>
</g>
<!-- Node2&#45;&gt;Node5 -->
<g id="edge4" class="edge">
<title>Node2&#45;&gt;Node5</title>
<path fill="none" stroke="midnightblue" d="M118.55,-123.08C113.99,-115.61 107.33,-104.72 101.71,-95.52"/>
<polygon fill="midnightblue" stroke="midnightblue" points="104.55,-93.46 96.35,-86.75 98.58,-97.11 104.55,-93.46"/>
</g>
<!-- Node7 -->
<g id="node7" class="node">
<title>Node7</title>
<g id="a_node7"><a xlink:href="MarmotConstants_8h.html" target="_top" xlink:title=" ">
<polygon fill="white" stroke="black" points="499.5,-67.5 499.5,-86.5 636.5,-86.5 636.5,-67.5 499.5,-67.5"/>
<text text-anchor="middle" x="568" y="-74.5" font-family="Helvetica,sans-Serif" font-size="10.00">Marmot/MarmotConstants.h</text>
</a>
</g>
</g>
<!-- Node6&#45;&gt;Node7 -->
<g id="edge6" class="edge">
<title>Node6&#45;&gt;Node7</title>
<path fill="none" stroke="midnightblue" d="M411.47,-123.44C443.17,-114.24 493.73,-99.56 528.77,-89.39"/>
<polygon fill="midnightblue" stroke="midnightblue" points="530.04,-92.67 538.67,-86.52 528.09,-85.94 530.04,-92.67"/>
</g>
<!-- Node6&#45;&gt;Node9 -->
<g id="edge8" class="edge">
<title>Node6&#45;&gt;Node9</title>
<path fill="none" stroke="midnightblue" d="M364.09,-123.44C345.75,-114.68 316.99,-100.94 295.91,-90.86"/>
<polygon fill="midnightblue" stroke="midnightblue" points="297.35,-87.67 286.82,-86.52 294.33,-93.99 297.35,-87.67"/>
</g>
<!-- Node13 -->
<g id="node13" class="node">
<title>Node13</title>
<g id="a_node13"><a xlink:title=" ">
<polygon fill="white" stroke="#bfbfbf" points="354,-67.5 354,-86.5 410,-86.5 410,-67.5 354,-67.5"/>
<text text-anchor="middle" x="382" y="-74.5" font-family="Helvetica,sans-Serif" font-size="10.00">algorithm</text>
</a>
</g>
</g>
<!-- Node6&#45;&gt;Node13 -->
<g id="edge12" class="edge">
<title>Node6&#45;&gt;Node13</title>
<path fill="none" stroke="midnightblue" d="M382,-123.08C382,-116.01 382,-105.86 382,-96.99"/>
<polygon fill="midnightblue" stroke="midnightblue" points="385.5,-96.75 382,-86.75 378.5,-96.75 385.5,-96.75"/>
</g>
<!-- Node14 -->
<g id="node14" class="node">
<title>Node14</title>
<g id="a_node14"><a xlink:title=" ">
<polygon fill="white" stroke="#bfbfbf" points="428.5,-67.5 428.5,-86.5 481.5,-86.5 481.5,-67.5 428.5,-67.5"/>
<text text-anchor="middle" x="455" y="-74.5" font-family="Helvetica,sans-Serif" font-size="10.00">complex</text>
</a>
</g>
</g>
<!-- Node6&#45;&gt;Node14 -->
<g id="edge13" class="edge">
<title>Node6&#45;&gt;Node14</title>
<path fill="none" stroke="midnightblue" d="M393.73,-123.32C404.84,-115.11 421.74,-102.6 434.98,-92.81"/>
<polygon fill="midnightblue" stroke="midnightblue" points="437.1,-95.59 443.06,-86.83 432.94,-89.97 437.1,-95.59"/>
</g>
<!-- Node8 -->
<g id="node8" class="node">
<title>Node8</title>
<g id="a_node8"><a xlink:title=" ">
<polygon fill="white" stroke="#bfbfbf" points="546,-6 546,-25 590,-25 590,-6 546,-6"/>
<text text-anchor="middle" x="568" y="-13" font-family="Helvetica,sans-Serif" font-size="10.00">cmath</text>
</a>
</g>
</g>
<!-- Node7&#45;&gt;Node8 -->
<g id="edge7" class="edge">
<title>Node7&#45;&gt;Node8</title>
<path fill="none" stroke="midnightblue" d="M568,-67.48C568,-59.08 568,-45.98 568,-35.16"/>
<polygon fill="midnightblue" stroke="midnightblue" points="571.5,-35.01 568,-25.01 564.5,-35.01 571.5,-35.01"/>
</g>
<!-- Node10 -->
<g id="node10" class="node">
<title>Node10</title>
<g id="a_node10"><a xlink:title=" ">
<polygon fill="white" stroke="#bfbfbf" points="151,-6 151,-25 215,-25 215,-6 151,-6"/>
<text text-anchor="middle" x="183" y="-13" font-family="Helvetica,sans-Serif" font-size="10.00">Eigen/Core</text>
</a>
</g>
</g>
<!-- Node9&#45;&gt;Node10 -->
<g id="edge9" class="edge">
<title>Node9&#45;&gt;Node10</title>
<path fill="none" stroke="midnightblue" d="M256.68,-67.48C242.88,-57.93 220.3,-42.31 203.77,-30.87"/>
<polygon fill="midnightblue" stroke="midnightblue" points="205.51,-27.82 195.3,-25.01 201.53,-33.58 205.51,-27.82"/>
</g>
<!-- Node11 -->
<g id="node11" class="node">
<title>Node11</title>
<g id="a_node11"><a xlink:title=" ">
<polygon fill="white" stroke="#bfbfbf" points="233.5,-6 233.5,-25 304.5,-25 304.5,-6 233.5,-6"/>
<text text-anchor="middle" x="269" y="-13" font-family="Helvetica,sans-Serif" font-size="10.00">Eigen/Dense</text>
</a>
</g>
</g>
<!-- Node9&#45;&gt;Node11 -->
<g id="edge10" class="edge">
<title>Node9&#45;&gt;Node11</title>
<path fill="none" stroke="midnightblue" d="M269,-67.48C269,-59.08 269,-45.98 269,-35.16"/>
<polygon fill="midnightblue" stroke="midnightblue" points="272.5,-35.01 269,-25.01 265.5,-35.01 272.5,-35.01"/>
</g>
<!-- Node12 -->
<g id="node12" class="node">
<title>Node12</title>
<g id="a_node12"><a xlink:title=" ">
<polygon fill="white" stroke="#bfbfbf" points="322.5,-0.5 322.5,-30.5 453.5,-30.5 453.5,-0.5 322.5,-0.5"/>
<text text-anchor="start" x="330.5" y="-18.5" font-family="Helvetica,sans-Serif" font-size="10.00">unsupported/Eigen/CXX11</text>
<text text-anchor="middle" x="388" y="-7.5" font-family="Helvetica,sans-Serif" font-size="10.00">/Tensor</text>
</a>
</g>
</g>
<!-- Node9&#45;&gt;Node12 -->
<g id="edge11" class="edge">
<title>Node9&#45;&gt;Node12</title>
<path fill="none" stroke="midnightblue" d="M286.05,-67.48C302.92,-59.04 329.29,-45.86 350.98,-35.01"/>
<polygon fill="midnightblue" stroke="midnightblue" points="352.58,-38.13 359.95,-30.52 349.44,-31.86 352.58,-38.13"/>
</g>
</g>
</svg>
