<?xml version="1.0" encoding="UTF-8" standalone="no"?>
<!DOCTYPE svg PUBLIC "-//W3C//DTD SVG 1.1//EN"
 "http://www.w3.org/Graphics/SVG/1.1/DTD/svg11.dtd">
<!-- Generated by graphviz version 2.44.0 ()
 -->
<!-- Title: include/Marmot/MarmotUtils.h Pages: 1 -->
<!--zoomable 396 -->
<svg id="main" version="1.1" xmlns="http://www.w3.org/2000/svg" xmlns:xlink="http://www.w3.org/1999/xlink" xml:space="preserve" onload="init(evt)">
<style type="text/css"><![CDATA[
.edge:hover path { stroke: red; }
.edge:hover polygon { stroke: red; fill: red; }
]]></style>
<script type="text/javascript"><![CDATA[
var edges = document.getElementsByTagName('g');
if (edges && edges.length) {
  for (var i=0;i<edges.length;i++) {
    if (edges[i].id.substr(0,4)=='edge') {
      edges[i].setAttribute('class','edge');
    }
  }
}
]]></script>
        <defs>
                <circle id="rim" cx="0" cy="0" r="7"/>
                <circle id="rim2" cx="0" cy="0" r="3.5"/>
                <g id="zoomPlus">
                        <use xlink:href="#rim" fill="#404040">
                                <set attributeName="fill" to="#808080" begin="zoomplus.mouseover" end="zoomplus.mouseout"/>
                        </use>
                        <path d="M-4,0h8M0,-4v8" fill="none" stroke="white" stroke-width="1.5" pointer-events="none"/>
                </g>
                <g id="zoomMin">
                        <use xlink:href="#rim" fill="#404040">
                                <set attributeName="fill" to="#808080" begin="zoomminus.mouseover" end="zoomminus.mouseout"/>
                        </use>
                        <path d="M-4,0h8" fill="none" stroke="white" stroke-width="1.5" pointer-events="none"/>
                </g>
                <g id="dirArrow">
                        <path fill="none" stroke="white" stroke-width="1.5" d="M0,-3.0v7 M-2.5,-0.5L0,-3.0L2.5,-0.5"/>
                </g>
               <g id="resetDef">
                       <use xlink:href="#rim2" fill="#404040">
                               <set attributeName="fill" to="#808080" begin="reset.mouseover" end="reset.mouseout"/>
                       </use>
               </g>
        </defs>

<script type="text/javascript">
var viewWidth = 1718;
var viewHeight = 396;
var sectionId = 'dynsection-0';
</script>
<script xlink:href="svgpan.js"/>
<svg id="graph" class="graph">
<g id="viewport">
<title>include/Marmot/MarmotUtils.h</title>
<polygon fill="white" stroke="transparent" points="-4,4 -4,-392 1713.98,-392 1713.98,4 -4,4"/>
<!-- Node1 -->
<g id="node1" class="node">
<title>Node1</title>
<g id="a_node1"><a xlink:title=" ">
<polygon fill="#bfbfbf" stroke="black" points="335.48,-368.5 335.48,-387.5 482.48,-387.5 482.48,-368.5 335.48,-368.5"/>
<text text-anchor="middle" x="408.98" y="-375.5" font-family="Helvetica,sans-Serif" font-size="10.00">include/Marmot/MarmotUtils.h</text>
</a>
</g>
</g>
<!-- Node2 -->
<g id="node2" class="node">
<title>Node2</title>
<g id="a_node2"><a xlink:href="MarmotElement_8h.html" target="_top" xlink:title=" ">
<polygon fill="white" stroke="black" points="217.98,-245.5 217.98,-264.5 379.98,-264.5 379.98,-245.5 217.98,-245.5"/>
<text text-anchor="middle" x="298.98" y="-252.5" font-family="Helvetica,sans-Serif" font-size="10.00">include/Marmot/MarmotElement.h</text>
</a>
</g>
</g>
<!-- Node1&#45;&gt;Node2 -->
<g id="edge1" class="edge">
<title>Node1&#45;&gt;Node2</title>
<path fill="none" stroke="midnightblue" d="M394.23,-360.77C370.6,-334.78 325.06,-284.69 306.82,-264.62"/>
<polygon fill="midnightblue" stroke="midnightblue" points="391.75,-363.25 401.07,-368.3 396.93,-358.54 391.75,-363.25"/>
</g>
<!-- Node11 -->
<g id="node11" class="node">
<title>Node11</title>
<g id="a_node11"><a xlink:href="MarmotMaterial_8h.html" target="_top" xlink:title=" ">
<polygon fill="white" stroke="black" points="733.48,-312.5 733.48,-331.5 894.48,-331.5 894.48,-312.5 733.48,-312.5"/>
<text text-anchor="middle" x="813.98" y="-319.5" font-family="Helvetica,sans-Serif" font-size="10.00">include/Marmot/MarmotMaterial.h</text>
</a>
</g>
</g>
<!-- Node1&#45;&gt;Node11 -->
<g id="edge13" class="edge">
<title>Node1&#45;&gt;Node11</title>
<path fill="none" stroke="midnightblue" d="M483.2,-367.1C559.67,-356.91 677.65,-341.18 750.11,-331.52"/>
<polygon fill="midnightblue" stroke="midnightblue" points="482.6,-363.65 473.15,-368.44 483.53,-370.59 482.6,-363.65"/>
</g>
<!-- Node27 -->
<g id="node27" class="node">
<title>Node27</title>
<g id="a_node27"><a xlink:href="MarmotStateVarVectorManager_8h.html" target="_top" xlink:title=" ">
<polygon fill="white" stroke="black" points="325.98,-156.5 325.98,-197.5 491.98,-197.5 491.98,-156.5 325.98,-156.5"/>
<text text-anchor="start" x="333.98" y="-185.5" font-family="Helvetica,sans-Serif" font-size="10.00">modules/core/MarmotMechanics</text>
<text text-anchor="start" x="333.98" y="-174.5" font-family="Helvetica,sans-Serif" font-size="10.00">Core/include/Marmot/MarmotState</text>
<text text-anchor="middle" x="408.98" y="-163.5" font-family="Helvetica,sans-Serif" font-size="10.00">VarVectorManager.h</text>
</a>
</g>
</g>
<!-- Node1&#45;&gt;Node27 -->
<g id="edge33" class="edge">
<title>Node1&#45;&gt;Node27</title>
<path fill="none" stroke="midnightblue" d="M408.98,-358.4C408.98,-320.84 408.98,-236.2 408.98,-197.72"/>
<polygon fill="midnightblue" stroke="midnightblue" points="405.48,-358.45 408.98,-368.45 412.48,-358.45 405.48,-358.45"/>
</g>
<!-- Node3 -->
<g id="node3" class="node">
<title>Node3</title>
<g id="a_node3"><a xlink:href="Marmot_8h.html" target="_top" xlink:title=" ">
<polygon fill="white" stroke="black" points="510.48,-167.5 510.48,-186.5 637.48,-186.5 637.48,-167.5 510.48,-167.5"/>
<text text-anchor="middle" x="573.98" y="-174.5" font-family="Helvetica,sans-Serif" font-size="10.00">include/Marmot/Marmot.h</text>
</a>
</g>
</g>
<!-- Node2&#45;&gt;Node3 -->
<g id="edge2" class="edge">
<title>Node2&#45;&gt;Node3</title>
<path fill="none" stroke="midnightblue" d="M339.84,-242.71C395.33,-227.37 493.3,-200.3 543.08,-186.54"/>
<polygon fill="midnightblue" stroke="midnightblue" points="338.7,-239.39 329.99,-245.43 340.56,-246.14 338.7,-239.39"/>
</g>
<!-- Node7 -->
<g id="node7" class="node">
<title>Node7</title>
<g id="a_node7"><a xlink:href="DisplacementFiniteElement_8h.html" target="_top" xlink:title=" ">
<polygon fill="white" stroke="black" points="218.98,-78.5 218.98,-119.5 376.98,-119.5 376.98,-78.5 218.98,-78.5"/>
<text text-anchor="start" x="226.98" y="-107.5" font-family="Helvetica,sans-Serif" font-size="10.00">modules/elements/Displacement</text>
<text text-anchor="start" x="226.98" y="-96.5" font-family="Helvetica,sans-Serif" font-size="10.00">FiniteElement/include/Marmot</text>
<text text-anchor="middle" x="297.98" y="-85.5" font-family="Helvetica,sans-Serif" font-size="10.00">/DisplacementFiniteElement.h</text>
</a>
</g>
</g>
<!-- Node2&#45;&gt;Node7 -->
<g id="edge12" class="edge">
<title>Node2&#45;&gt;Node7</title>
<path fill="none" stroke="midnightblue" d="M298.86,-235.15C298.67,-205.82 298.3,-149.54 298.11,-119.7"/>
<polygon fill="midnightblue" stroke="midnightblue" points="295.36,-235.3 298.92,-245.28 302.36,-235.26 295.36,-235.3"/>
</g>
<!-- Node9 -->
<g id="node9" class="node">
<title>Node9</title>
<g id="a_node9"><a xlink:href="MarmotFiniteElementSpatialWrapper_8h.html" target="_top" xlink:title=" ">
<polygon fill="white" stroke="black" points="16.48,-156.5 16.48,-197.5 201.48,-197.5 201.48,-156.5 16.48,-156.5"/>
<text text-anchor="start" x="24.48" y="-185.5" font-family="Helvetica,sans-Serif" font-size="10.00">modules/core/MarmotFinite</text>
<text text-anchor="start" x="24.48" y="-174.5" font-family="Helvetica,sans-Serif" font-size="10.00">ElementCore/include/Marmot</text>
<text text-anchor="middle" x="108.98" y="-163.5" font-family="Helvetica,sans-Serif" font-size="10.00">/MarmotFiniteElementSpatialWrapper.h</text>
</a>
</g>
</g>
<!-- Node2&#45;&gt;Node9 -->
<g id="edge9" class="edge">
<title>Node2&#45;&gt;Node9</title>
<path fill="none" stroke="midnightblue" d="M268.09,-241.64C238.28,-229.72 192.69,-211.49 157.94,-197.59"/>
<polygon fill="midnightblue" stroke="midnightblue" points="266.97,-244.97 277.55,-245.43 269.57,-238.47 266.97,-244.97"/>
</g>
<!-- Node4 -->
<g id="node4" class="node">
<title>Node4</title>
<g id="a_node4"><a xlink:href="MarmotMaterialRegistrationHelper_8h.html" target="_top" xlink:title=" ">
<polygon fill="white" stroke="black" points="594.98,-84 594.98,-114 748.98,-114 748.98,-84 594.98,-84"/>
<text text-anchor="start" x="602.98" y="-102" font-family="Helvetica,sans-Serif" font-size="10.00">include/Marmot/MarmotMaterial</text>
<text text-anchor="middle" x="671.98" y="-91" font-family="Helvetica,sans-Serif" font-size="10.00">RegistrationHelper.h</text>
</a>
</g>
</g>
<!-- Node3&#45;&gt;Node4 -->
<g id="edge3" class="edge">
<title>Node3&#45;&gt;Node4</title>
<path fill="none" stroke="midnightblue" d="M593.6,-160.78C611.2,-147.14 636.8,-127.28 653.9,-114.02"/>
<polygon fill="midnightblue" stroke="midnightblue" points="590.98,-158.39 585.22,-167.28 595.27,-163.92 590.98,-158.39"/>
</g>
<!-- Node3&#45;&gt;Node7 -->
<g id="edge6" class="edge">
<title>Node3&#45;&gt;Node7</title>
<path fill="none" stroke="midnightblue" d="M532.98,-164.71C489.76,-152.81 420.86,-133.84 368.82,-119.51"/>
<polygon fill="midnightblue" stroke="midnightblue" points="532.28,-168.15 542.86,-167.43 534.14,-161.4 532.28,-168.15"/>
</g>
<!-- Node8 -->
<g id="node8" class="node">
<title>Node8</title>
<g id="a_node8"><a xlink:href="DisplacementFiniteElementRegistration_8cpp.html" target="_top" xlink:title=" ">
<polygon fill="white" stroke="black" points="140.48,-0.5 140.48,-41.5 319.48,-41.5 319.48,-0.5 140.48,-0.5"/>
<text text-anchor="start" x="148.48" y="-29.5" font-family="Helvetica,sans-Serif" font-size="10.00">modules/elements/Displacement</text>
<text text-anchor="start" x="148.48" y="-18.5" font-family="Helvetica,sans-Serif" font-size="10.00">FiniteElement/src/DisplacementFinite</text>
<text text-anchor="middle" x="229.98" y="-7.5" font-family="Helvetica,sans-Serif" font-size="10.00">ElementRegistration.cpp</text>
</a>
</g>
</g>
<!-- Node3&#45;&gt;Node8 -->
<g id="edge8" class="edge">
<title>Node3&#45;&gt;Node8</title>
<path fill="none" stroke="midnightblue" d="M536.67,-164.33C498.68,-152.04 442.77,-132.75 423.98,-120 403.15,-105.86 406.9,-92.01 385.98,-78 362.43,-62.23 333.9,-50.31 307.72,-41.6"/>
<polygon fill="midnightblue" stroke="midnightblue" points="535.8,-167.72 546.39,-167.44 537.94,-161.05 535.8,-167.72"/>
</g>
<!-- Node5 -->
<g id="node5" class="node">
<title>Node5</title>
<g id="a_node5"><a xlink:href="LinearElasticRegistration_8cpp.html" target="_top" xlink:title=" ">
<polygon fill="white" stroke="black" points="665.48,-6 665.48,-36 856.48,-36 856.48,-6 665.48,-6"/>
<text text-anchor="start" x="673.48" y="-24" font-family="Helvetica,sans-Serif" font-size="10.00">modules/materials/Linear</text>
<text text-anchor="middle" x="760.98" y="-13" font-family="Helvetica,sans-Serif" font-size="10.00">Elastic/src/LinearElasticRegistration.cpp</text>
</a>
</g>
</g>
<!-- Node4&#45;&gt;Node5 -->
<g id="edge4" class="edge">
<title>Node4&#45;&gt;Node5</title>
<path fill="none" stroke="midnightblue" d="M696.7,-76.89C711.87,-63.93 730.91,-47.68 744.31,-36.23"/>
<polygon fill="midnightblue" stroke="midnightblue" points="694.05,-74.55 688.72,-83.7 698.6,-79.87 694.05,-74.55"/>
</g>
<!-- Node6 -->
<g id="node6" class="node">
<title>Node6</title>
<g id="a_node6"><a xlink:href="VonMisesRegistration_8cpp.html" target="_top" xlink:title=" ">
<polygon fill="white" stroke="black" points="498.48,-6 498.48,-36 647.48,-36 647.48,-6 498.48,-6"/>
<text text-anchor="start" x="506.48" y="-24" font-family="Helvetica,sans-Serif" font-size="10.00">modules/materials/VonMises</text>
<text text-anchor="middle" x="572.98" y="-13" font-family="Helvetica,sans-Serif" font-size="10.00">/src/VonMisesRegistration.cpp</text>
</a>
</g>
</g>
<!-- Node4&#45;&gt;Node6 -->
<g id="edge5" class="edge">
<title>Node4&#45;&gt;Node6</title>
<path fill="none" stroke="midnightblue" d="M645.42,-77.61C628.39,-64.54 606.7,-47.89 591.52,-36.23"/>
<polygon fill="midnightblue" stroke="midnightblue" points="643.29,-80.39 653.36,-83.7 647.56,-74.84 643.29,-80.39"/>
</g>
<!-- Node7&#45;&gt;Node8 -->
<g id="edge7" class="edge">
<title>Node7&#45;&gt;Node8</title>
<path fill="none" stroke="midnightblue" d="M273.75,-70.92C265.06,-61.2 255.43,-50.45 247.43,-41.51"/>
<polygon fill="midnightblue" stroke="midnightblue" points="271.19,-73.31 280.47,-78.43 276.41,-68.64 271.19,-73.31"/>
</g>
<!-- Node9&#45;&gt;Node8 -->
<g id="edge11" class="edge">
<title>Node9&#45;&gt;Node8</title>
<path fill="none" stroke="midnightblue" d="M41.23,-151.57C27.98,-143.59 15.78,-133.25 7.98,-120 -1.49,-103.92 -3.49,-92.73 7.98,-78 24.59,-56.68 86.21,-42.21 140.32,-33.32"/>
<polygon fill="midnightblue" stroke="midnightblue" points="39.62,-154.68 50.06,-156.48 43.02,-148.56 39.62,-154.68"/>
</g>
<!-- Node10 -->
<g id="node10" class="node">
<title>Node10</title>
<g id="a_node10"><a xlink:href="MarmotFiniteElementSpatialWrapper_8cpp.html" target="_top" xlink:title=" ">
<polygon fill="white" stroke="black" points="16.98,-78.5 16.98,-119.5 200.98,-119.5 200.98,-78.5 16.98,-78.5"/>
<text text-anchor="start" x="24.98" y="-107.5" font-family="Helvetica,sans-Serif" font-size="10.00">modules/core/MarmotFinite</text>
<text text-anchor="start" x="24.98" y="-96.5" font-family="Helvetica,sans-Serif" font-size="10.00">ElementCore/src/MarmotFiniteElement</text>
<text text-anchor="middle" x="108.98" y="-85.5" font-family="Helvetica,sans-Serif" font-size="10.00">SpatialWrapper.cpp</text>
</a>
</g>
</g>
<!-- Node9&#45;&gt;Node10 -->
<g id="edge10" class="edge">
<title>Node9&#45;&gt;Node10</title>
<path fill="none" stroke="midnightblue" d="M108.98,-146.3C108.98,-137.3 108.98,-127.65 108.98,-119.51"/>
<polygon fill="midnightblue" stroke="midnightblue" points="105.48,-146.43 108.98,-156.43 112.48,-146.43 105.48,-146.43"/>
</g>
<!-- Node11&#45;&gt;Node3 -->
<g id="edge14" class="edge">
<title>Node11&#45;&gt;Node3</title>
<path fill="none" stroke="midnightblue" d="M791.07,-307.35C742.18,-278.22 628.79,-210.66 588.5,-186.65"/>
<polygon fill="midnightblue" stroke="midnightblue" points="789.3,-310.37 799.69,-312.48 792.89,-304.36 789.3,-310.37"/>
</g>
<!-- Node12 -->
<g id="node12" class="node">
<title>Node12</title>
<g id="a_node12"><a xlink:href="MarmotMaterialGradientEnhancedMechanical_8h.html" target="_top" xlink:title=" ">
<polygon fill="white" stroke="black" points="1235.48,-234.5 1235.48,-275.5 1412.48,-275.5 1412.48,-234.5 1235.48,-234.5"/>
<text text-anchor="start" x="1243.48" y="-263.5" font-family="Helvetica,sans-Serif" font-size="10.00">modules/core/MarmotMechanics</text>
<text text-anchor="start" x="1243.48" y="-252.5" font-family="Helvetica,sans-Serif" font-size="10.00">Core/include/Marmot/MarmotMaterial</text>
<text text-anchor="middle" x="1323.98" y="-241.5" font-family="Helvetica,sans-Serif" font-size="10.00">GradientEnhancedMechanical.h</text>
</a>
</g>
</g>
<!-- Node11&#45;&gt;Node12 -->
<g id="edge15" class="edge">
<title>Node11&#45;&gt;Node12</title>
<path fill="none" stroke="midnightblue" d="M891.03,-311.18C983.38,-299.41 1137.8,-279.73 1235.1,-267.33"/>
<polygon fill="midnightblue" stroke="midnightblue" points="890.39,-307.73 880.92,-312.47 891.28,-314.68 890.39,-307.73"/>
</g>
<!-- Node15 -->
<g id="node15" class="node">
<title>Node15</title>
<g id="a_node15"><a xlink:href="MarmotMaterialMechanical_8h.html" target="_top" xlink:title=" ">
<polygon fill="white" stroke="black" points="838.48,-234.5 838.48,-275.5 1015.48,-275.5 1015.48,-234.5 838.48,-234.5"/>
<text text-anchor="start" x="846.48" y="-263.5" font-family="Helvetica,sans-Serif" font-size="10.00">modules/core/MarmotMechanics</text>
<text text-anchor="start" x="846.48" y="-252.5" font-family="Helvetica,sans-Serif" font-size="10.00">Core/include/Marmot/MarmotMaterial</text>
<text text-anchor="middle" x="926.98" y="-241.5" font-family="Helvetica,sans-Serif" font-size="10.00">Mechanical.h</text>
</a>
</g>
</g>
<!-- Node11&#45;&gt;Node15 -->
<g id="edge18" class="edge">
<title>Node11&#45;&gt;Node15</title>
<path fill="none" stroke="midnightblue" d="M837.97,-307.2C853.98,-297.99 875.26,-285.75 893.01,-275.54"/>
<polygon fill="midnightblue" stroke="midnightblue" points="836.14,-304.21 829.22,-312.23 839.63,-310.28 836.14,-304.21"/>
</g>
<!-- Node13 -->
<g id="node13" class="node">
<title>Node13</title>
<g id="a_node13"><a xlink:href="MarmotMaterialGradientEnhancedHypoElastic_8h.html" target="_top" xlink:title=" ">
<polygon fill="white" stroke="black" points="1436.48,-156.5 1436.48,-197.5 1613.48,-197.5 1613.48,-156.5 1436.48,-156.5"/>
<text text-anchor="start" x="1444.48" y="-185.5" font-family="Helvetica,sans-Serif" font-size="10.00">modules/core/MarmotMechanics</text>
<text text-anchor="start" x="1444.48" y="-174.5" font-family="Helvetica,sans-Serif" font-size="10.00">Core/include/Marmot/MarmotMaterial</text>
<text text-anchor="middle" x="1524.98" y="-163.5" font-family="Helvetica,sans-Serif" font-size="10.00">GradientEnhancedHypoElastic.h</text>
</a>
</g>
</g>
<!-- Node12&#45;&gt;Node13 -->
<g id="edge16" class="edge">
<title>Node12&#45;&gt;Node13</title>
<path fill="none" stroke="midnightblue" d="M1385.11,-230.89C1413.32,-220.22 1446.46,-207.69 1473.39,-197.51"/>
<polygon fill="midnightblue" stroke="midnightblue" points="1383.86,-227.62 1375.74,-234.43 1386.33,-234.17 1383.86,-227.62"/>
</g>
<!-- Node14 -->
<g id="node14" class="node">
<title>Node14</title>
<g id="a_node14"><a xlink:href="MarmotMaterialHypoElasticNonLocal_8cpp.html" target="_top" xlink:title=" ">
<polygon fill="white" stroke="black" points="1533.98,-78.5 1533.98,-119.5 1709.98,-119.5 1709.98,-78.5 1533.98,-78.5"/>
<text text-anchor="start" x="1541.98" y="-107.5" font-family="Helvetica,sans-Serif" font-size="10.00">modules/core/MarmotMechanics</text>
<text text-anchor="start" x="1541.98" y="-96.5" font-family="Helvetica,sans-Serif" font-size="10.00">Core/src/MarmotMaterialHypoElastic</text>
<text text-anchor="middle" x="1621.98" y="-85.5" font-family="Helvetica,sans-Serif" font-size="10.00">NonLocal.cpp</text>
</a>
</g>
</g>
<!-- Node13&#45;&gt;Node14 -->
<g id="edge17" class="edge">
<title>Node13&#45;&gt;Node14</title>
<path fill="none" stroke="midnightblue" d="M1558.08,-150.06C1570.85,-140.06 1585.22,-128.8 1597.08,-119.51"/>
<polygon fill="midnightblue" stroke="midnightblue" points="1555.67,-147.51 1549.96,-156.43 1559.99,-153.02 1555.67,-147.51"/>
</g>
<!-- Node16 -->
<g id="node16" class="node">
<title>Node16</title>
<g id="a_node16"><a xlink:href="MarmotMaterialHyperElastic_8h.html" target="_top" xlink:title=" ">
<polygon fill="white" stroke="black" points="936.48,-156.5 936.48,-197.5 1113.48,-197.5 1113.48,-156.5 936.48,-156.5"/>
<text text-anchor="start" x="944.48" y="-185.5" font-family="Helvetica,sans-Serif" font-size="10.00">modules/core/MarmotMechanics</text>
<text text-anchor="start" x="944.48" y="-174.5" font-family="Helvetica,sans-Serif" font-size="10.00">Core/include/Marmot/MarmotMaterial</text>
<text text-anchor="middle" x="1024.98" y="-163.5" font-family="Helvetica,sans-Serif" font-size="10.00">HyperElastic.h</text>
</a>
</g>
</g>
<!-- Node15&#45;&gt;Node16 -->
<g id="edge19" class="edge">
<title>Node15&#45;&gt;Node16</title>
<path fill="none" stroke="midnightblue" d="M960.42,-228.06C973.33,-218.06 987.84,-206.8 999.83,-197.51"/>
<polygon fill="midnightblue" stroke="midnightblue" points="957.97,-225.53 952.22,-234.43 962.26,-231.07 957.97,-225.53"/>
</g>
<!-- Node18 -->
<g id="node18" class="node">
<title>Node18</title>
<g id="a_node18"><a xlink:href="MarmotMaterialHypoElastic_8h.html" target="_top" xlink:title=" ">
<polygon fill="white" stroke="black" points="741.48,-156.5 741.48,-197.5 918.48,-197.5 918.48,-156.5 741.48,-156.5"/>
<text text-anchor="start" x="749.48" y="-185.5" font-family="Helvetica,sans-Serif" font-size="10.00">modules/core/MarmotMechanics</text>
<text text-anchor="start" x="749.48" y="-174.5" font-family="Helvetica,sans-Serif" font-size="10.00">Core/include/Marmot/MarmotMaterial</text>
<text text-anchor="middle" x="829.98" y="-163.5" font-family="Helvetica,sans-Serif" font-size="10.00">HypoElastic.h</text>
</a>
</g>
</g>
<!-- Node15&#45;&gt;Node18 -->
<g id="edge21" class="edge">
<title>Node15&#45;&gt;Node18</title>
<path fill="none" stroke="midnightblue" d="M893.88,-228.06C881.11,-218.06 866.74,-206.8 854.87,-197.51"/>
<polygon fill="midnightblue" stroke="midnightblue" points="891.97,-231.02 902,-234.43 896.29,-225.51 891.97,-231.02"/>
</g>
<!-- Node26 -->
<g id="node26" class="node">
<title>Node26</title>
<g id="a_node26"><a xlink:href="MarmotMaterialMechanical_8cpp.html" target="_top" xlink:title=" ">
<polygon fill="white" stroke="black" points="1131.48,-162 1131.48,-192 1322.48,-192 1322.48,-162 1131.48,-162"/>
<text text-anchor="start" x="1139.48" y="-180" font-family="Helvetica,sans-Serif" font-size="10.00">modules/core/MarmotMechanics</text>
<text text-anchor="middle" x="1226.98" y="-169" font-family="Helvetica,sans-Serif" font-size="10.00">Core/src/MarmotMaterialMechanical.cpp</text>
</a>
</g>
</g>
<!-- Node15&#45;&gt;Node26 -->
<g id="edge32" class="edge">
<title>Node15&#45;&gt;Node26</title>
<path fill="none" stroke="midnightblue" d="M1014.21,-231.9C1064.89,-219.06 1127.23,-203.27 1171.3,-192.11"/>
<polygon fill="midnightblue" stroke="midnightblue" points="1013.07,-228.58 1004.24,-234.43 1014.79,-235.37 1013.07,-228.58"/>
</g>
<!-- Node17 -->
<g id="node17" class="node">
<title>Node17</title>
<g id="a_node17"><a xlink:href="MarmotMaterialHyperElastic_8cpp.html" target="_top" xlink:title=" ">
<polygon fill="white" stroke="black" points="1318.48,-84 1318.48,-114 1515.48,-114 1515.48,-84 1318.48,-84"/>
<text text-anchor="start" x="1326.48" y="-102" font-family="Helvetica,sans-Serif" font-size="10.00">modules/core/MarmotMechanics</text>
<text text-anchor="middle" x="1416.98" y="-91" font-family="Helvetica,sans-Serif" font-size="10.00">Core/src/MarmotMaterialHyperElastic.cpp</text>
</a>
</g>
</g>
<!-- Node16&#45;&gt;Node17 -->
<g id="edge20" class="edge">
<title>Node16&#45;&gt;Node17</title>
<path fill="none" stroke="midnightblue" d="M1123.46,-155.92C1204.02,-140.06 1284.89,-124.73 1342.01,-114"/>
<polygon fill="midnightblue" stroke="midnightblue" points="1122.78,-152.48 1113.64,-157.85 1124.13,-159.35 1122.78,-152.48"/>
</g>
<!-- Node18&#45;&gt;Node7 -->
<g id="edge25" class="edge">
<title>Node18&#45;&gt;Node7</title>
<path fill="none" stroke="midnightblue" d="M731.11,-162.93C648.85,-151.93 528.71,-135.53 423.98,-120 408.86,-117.76 392.74,-115.27 377.25,-112.84"/>
<polygon fill="midnightblue" stroke="midnightblue" points="730.82,-166.43 741.2,-164.28 731.75,-159.49 730.82,-166.43"/>
</g>
<!-- Node19 -->
<g id="node19" class="node">
<title>Node19</title>
<g id="a_node19"><a xlink:href="MarmotMaterialHypoElasticAD_8h.html" target="_top" xlink:title=" ">
<polygon fill="white" stroke="black" points="911.48,-78.5 911.48,-119.5 1088.48,-119.5 1088.48,-78.5 911.48,-78.5"/>
<text text-anchor="start" x="919.48" y="-107.5" font-family="Helvetica,sans-Serif" font-size="10.00">modules/core/MarmotMechanics</text>
<text text-anchor="start" x="919.48" y="-96.5" font-family="Helvetica,sans-Serif" font-size="10.00">Core/include/Marmot/MarmotMaterial</text>
<text text-anchor="middle" x="999.98" y="-85.5" font-family="Helvetica,sans-Serif" font-size="10.00">HypoElasticAD.h</text>
</a>
</g>
</g>
<!-- Node18&#45;&gt;Node19 -->
<g id="edge22" class="edge">
<title>Node18&#45;&gt;Node19</title>
<path fill="none" stroke="midnightblue" d="M882.93,-152.33C906.52,-141.78 933.96,-129.51 956.35,-119.51"/>
<polygon fill="midnightblue" stroke="midnightblue" points="881.46,-149.15 873.76,-156.43 884.32,-155.54 881.46,-149.15"/>
</g>
<!-- Node21 -->
<g id="node21" class="node">
<title>Node21</title>
<g id="a_node21"><a xlink:href="MarmotMaterialHypoElastic_8cpp.html" target="_top" xlink:title=" ">
<polygon fill="white" stroke="black" points="1105.98,-84 1105.98,-114 1299.98,-114 1299.98,-84 1105.98,-84"/>
<text text-anchor="start" x="1113.98" y="-102" font-family="Helvetica,sans-Serif" font-size="10.00">modules/core/MarmotMechanics</text>
<text text-anchor="middle" x="1202.98" y="-91" font-family="Helvetica,sans-Serif" font-size="10.00">Core/src/MarmotMaterialHypoElastic.cpp</text>
</a>
</g>
</g>
<!-- Node18&#45;&gt;Node21 -->
<g id="edge24" class="edge">
<title>Node18&#45;&gt;Node21</title>
<path fill="none" stroke="midnightblue" d="M928.9,-155.81C1005.01,-140.3 1080.81,-124.87 1134.04,-114.03"/>
<polygon fill="midnightblue" stroke="midnightblue" points="927.75,-152.47 918.65,-157.9 929.15,-159.33 927.75,-152.47"/>
</g>
<!-- Node22 -->
<g id="node22" class="node">
<title>Node22</title>
<g id="a_node22"><a xlink:href="LinearElastic_8h.html" target="_top" xlink:title=" ">
<polygon fill="white" stroke="black" points="766.98,-78.5 766.98,-119.5 892.98,-119.5 892.98,-78.5 766.98,-78.5"/>
<text text-anchor="start" x="774.98" y="-107.5" font-family="Helvetica,sans-Serif" font-size="10.00">modules/materials/Linear</text>
<text text-anchor="start" x="774.98" y="-96.5" font-family="Helvetica,sans-Serif" font-size="10.00">Elastic/include/Marmot</text>
<text text-anchor="middle" x="829.98" y="-85.5" font-family="Helvetica,sans-Serif" font-size="10.00">/LinearElastic.h</text>
</a>
</g>
</g>
<!-- Node18&#45;&gt;Node22 -->
<g id="edge26" class="edge">
<title>Node18&#45;&gt;Node22</title>
<path fill="none" stroke="midnightblue" d="M829.98,-146.3C829.98,-137.3 829.98,-127.65 829.98,-119.51"/>
<polygon fill="midnightblue" stroke="midnightblue" points="826.48,-146.43 829.98,-156.43 833.48,-146.43 826.48,-146.43"/>
</g>
<!-- Node24 -->
<g id="node24" class="node">
<title>Node24</title>
<g id="a_node24"><a xlink:href="VonMises_8h.html" target="_top" xlink:title=" ">
<polygon fill="white" stroke="black" points="433.48,-84 433.48,-114 576.48,-114 576.48,-84 433.48,-84"/>
<text text-anchor="start" x="441.48" y="-102" font-family="Helvetica,sans-Serif" font-size="10.00">modules/materials/VonMises</text>
<text text-anchor="middle" x="504.98" y="-91" font-family="Helvetica,sans-Serif" font-size="10.00">/include/Marmot/VonMises.h</text>
</a>
</g>
</g>
<!-- Node18&#45;&gt;Node24 -->
<g id="edge29" class="edge">
<title>Node18&#45;&gt;Node24</title>
<path fill="none" stroke="midnightblue" d="M733.22,-154.18C688.39,-143.97 634.43,-131.54 585.98,-120 578.09,-118.12 569.77,-116.11 561.6,-114.11"/>
<polygon fill="midnightblue" stroke="midnightblue" points="732.7,-157.65 743.23,-156.45 734.25,-150.82 732.7,-157.65"/>
</g>
<!-- Node20 -->
<g id="node20" class="node">
<title>Node20</title>
<g id="a_node20"><a xlink:href="MarmotMaterialHypoElasticAD_8cpp.html" target="_top" xlink:title=" ">
<polygon fill="white" stroke="black" points="1032.98,-0.5 1032.98,-41.5 1208.98,-41.5 1208.98,-0.5 1032.98,-0.5"/>
<text text-anchor="start" x="1040.98" y="-29.5" font-family="Helvetica,sans-Serif" font-size="10.00">modules/core/MarmotMechanics</text>
<text text-anchor="start" x="1040.98" y="-18.5" font-family="Helvetica,sans-Serif" font-size="10.00">Core/src/MarmotMaterialHypoElastic</text>
<text text-anchor="middle" x="1120.98" y="-7.5" font-family="Helvetica,sans-Serif" font-size="10.00">AD.cpp</text>
</a>
</g>
</g>
<!-- Node19&#45;&gt;Node20 -->
<g id="edge23" class="edge">
<title>Node19&#45;&gt;Node20</title>
<path fill="none" stroke="midnightblue" d="M1039.91,-72.92C1056.18,-62.7 1074.7,-51.07 1089.92,-41.51"/>
<polygon fill="midnightblue" stroke="midnightblue" points="1037.75,-70.15 1031.14,-78.43 1041.47,-76.07 1037.75,-70.15"/>
</g>
<!-- Node22&#45;&gt;Node5 -->
<g id="edge28" class="edge">
<title>Node22&#45;&gt;Node5</title>
<path fill="none" stroke="midnightblue" d="M805.46,-70.99C794.8,-59.25 782.76,-45.99 773.89,-36.23"/>
<polygon fill="midnightblue" stroke="midnightblue" points="802.9,-73.38 812.21,-78.43 808.08,-68.67 802.9,-73.38"/>
</g>
<!-- Node23 -->
<g id="node23" class="node">
<title>Node23</title>
<g id="a_node23"><a xlink:href="LinearElastic_8cpp.html" target="_top" xlink:title=" ">
<polygon fill="white" stroke="black" points="874.98,-6 874.98,-36 1014.98,-36 1014.98,-6 874.98,-6"/>
<text text-anchor="start" x="882.98" y="-24" font-family="Helvetica,sans-Serif" font-size="10.00">modules/materials/Linear</text>
<text text-anchor="middle" x="944.98" y="-13" font-family="Helvetica,sans-Serif" font-size="10.00">Elastic/src/LinearElastic.cpp</text>
</a>
</g>
</g>
<!-- Node22&#45;&gt;Node23 -->
<g id="edge27" class="edge">
<title>Node22&#45;&gt;Node23</title>
<path fill="none" stroke="midnightblue" d="M868.33,-72.66C886.68,-60.53 907.98,-46.45 923.45,-36.23"/>
<polygon fill="midnightblue" stroke="midnightblue" points="866.01,-69.99 859.59,-78.43 869.87,-75.83 866.01,-69.99"/>
</g>
<!-- Node24&#45;&gt;Node6 -->
<g id="edge31" class="edge">
<title>Node24&#45;&gt;Node6</title>
<path fill="none" stroke="midnightblue" d="M524.51,-76.17C536,-63.33 550.19,-47.47 560.25,-36.23"/>
<polygon fill="midnightblue" stroke="midnightblue" points="521.83,-73.92 517.77,-83.7 527.05,-78.59 521.83,-73.92"/>
</g>
<!-- Node25 -->
<g id="node25" class="node">
<title>Node25</title>
<g id="a_node25"><a xlink:href="VonMises_8cpp.html" target="_top" xlink:title=" ">
<polygon fill="white" stroke="black" points="337.48,-6 337.48,-36 480.48,-36 480.48,-6 337.48,-6"/>
<text text-anchor="start" x="345.48" y="-24" font-family="Helvetica,sans-Serif" font-size="10.00">modules/materials/VonMises</text>
<text text-anchor="middle" x="408.98" y="-13" font-family="Helvetica,sans-Serif" font-size="10.00">/src/VonMises.cpp</text>
</a>
</g>
</g>
<!-- Node24&#45;&gt;Node25 -->
<g id="edge30" class="edge">
<title>Node24&#45;&gt;Node25</title>
<path fill="none" stroke="midnightblue" d="M478.77,-77.25C462.33,-64.23 441.55,-47.78 426.96,-36.23"/>
<polygon fill="midnightblue" stroke="midnightblue" points="476.91,-80.24 486.92,-83.7 481.25,-74.75 476.91,-80.24"/>
</g>
<!-- Node27&#45;&gt;Node7 -->
<g id="edge34" class="edge">
<title>Node27&#45;&gt;Node7</title>
<path fill="none" stroke="midnightblue" d="M371.93,-150.64C357.11,-140.49 340.31,-128.98 326.47,-119.51"/>
<polygon fill="midnightblue" stroke="midnightblue" points="370.17,-153.67 380.39,-156.43 374.12,-147.89 370.17,-153.67"/>
</g>
<!-- Node27&#45;&gt;Node24 -->
<g id="edge35" class="edge">
<title>Node27&#45;&gt;Node24</title>
<path fill="none" stroke="midnightblue" d="M441.83,-149.99C456.96,-138.02 474.32,-124.27 487.01,-114.23"/>
<polygon fill="midnightblue" stroke="midnightblue" points="439.37,-147.48 433.7,-156.43 443.71,-152.97 439.37,-147.48"/>
</g>
</g>
</svg>
        <g id="navigator" transform="translate(0 0)" fill="#404254">
                <rect fill="#f2f5e9" fill-opacity="0.5" stroke="#606060" stroke-width=".5" x="0" y="0" width="60" height="60"/>
                <use id="zoomplus" xlink:href="#zoomPlus" x="17" y="9" onmousedown="handleZoom(evt,'in')"/>
                <use id="zoomminus" xlink:href="#zoomMin" x="42" y="9" onmousedown="handleZoom(evt,'out')"/>
                <use id="reset" xlink:href="#resetDef" x="30" y="36" onmousedown="handleReset()"/>
                <g id="arrowUp" xlink:href="#dirArrow" transform="translate(30 24)" onmousedown="handlePan(0,-1)">
                  <use xlink:href="#rim" fill="#404040">
                        <set attributeName="fill" to="#808080" begin="arrowUp.mouseover" end="arrowUp.mouseout"/>
                  </use>
                  <path fill="none" stroke="white" stroke-width="1.5" d="M0,-3.0v7 M-2.5,-0.5L0,-3.0L2.5,-0.5"/>
                </g>
                <g id="arrowRight" xlink:href="#dirArrow" transform="rotate(90) translate(36 -43)" onmousedown="handlePan(1,0)">
                  <use xlink:href="#rim" fill="#404040">
                        <set attributeName="fill" to="#808080" begin="arrowRight.mouseover" end="arrowRight.mouseout"/>
                  </use>
                  <path fill="none" stroke="white" stroke-width="1.5" d="M0,-3.0v7 M-2.5,-0.5L0,-3.0L2.5,-0.5"/>
                </g>
                <g id="arrowDown" xlink:href="#dirArrow" transform="rotate(180) translate(-30 -48)" onmousedown="handlePan(0,1)">
                  <use xlink:href="#rim" fill="#404040">
                        <set attributeName="fill" to="#808080" begin="arrowDown.mouseover" end="arrowDown.mouseout"/>
                  </use>
                  <path fill="none" stroke="white" stroke-width="1.5" d="M0,-3.0v7 M-2.5,-0.5L0,-3.0L2.5,-0.5"/>
                </g>
                <g id="arrowLeft" xlink:href="#dirArrow" transform="rotate(270) translate(-36 17)" onmousedown="handlePan(-1,0)">
                  <use xlink:href="#rim" fill="#404040">
                        <set attributeName="fill" to="#808080" begin="arrowLeft.mouseover" end="arrowLeft.mouseout"/>
                  </use>
                  <path fill="none" stroke="white" stroke-width="1.5" d="M0,-3.0v7 M-2.5,-0.5L0,-3.0L2.5,-0.5"/>
                </g>
        </g>
        <svg viewBox="0 0 15 15" width="100%" height="30px" preserveAspectRatio="xMaxYMin meet">
         <g id="arrow_out" transform="scale(0.3 0.3)">
          <a xlink:href="MarmotUtils_8h__dep__incl_org.svg" target="_base">
           <rect id="button" ry="5" rx="5" y="6" x="6" height="38" width="38"
                fill="#f2f5e9" fill-opacity="0.5" stroke="#606060" stroke-width="1.0"/>
           <path id="arrow"
             d="M 11.500037,31.436501 C 11.940474,20.09759 22.043105,11.32322 32.158766,21.979434 L 37.068811,17.246167 C 37.068811,17.246167 37.088388,32 37.088388,32 L 22.160133,31.978069 C 22.160133,31.978069 26.997745,27.140456 26.997745,27.140456 C 18.528582,18.264221 13.291696,25.230495 11.500037,31.436501 z"
             style="fill:#404040;"/>
          </a>
         </g>
        </svg>
</svg>
