<?xml version="1.0" encoding="UTF-8" standalone="no"?>
<!DOCTYPE svg PUBLIC "-//W3C//DTD SVG 1.1//EN"
 "http://www.w3.org/Graphics/SVG/1.1/DTD/svg11.dtd">
<!-- Generated by graphviz version 3.0.0 (20220413.0106)
 -->
<!-- Title: modules/core/MarmotMechanicsCore/src/MarmotUtility.cpp Pages: 1 -->
<svg width="399pt" height="207pt"
 viewBox="0.00 0.00 398.50 207.00" xmlns="http://www.w3.org/2000/svg" xmlns:xlink="http://www.w3.org/1999/xlink">
<g id="graph0" class="graph" transform="scale(1 1) rotate(0) translate(4 203)">
<title>modules/core/MarmotMechanicsCore/src/MarmotUtility.cpp</title>
<polygon fill="white" stroke="transparent" points="-4,4 -4,-203 394.5,-203 394.5,4 -4,4"/>
<!-- Node1 -->
<g id="node1" class="node">
<title>Node1</title>
<g id="a_node1"><a xlink:title=" ">
<polygon fill="#bfbfbf" stroke="black" points="110,-168.5 110,-198.5 268,-198.5 268,-168.5 110,-168.5"/>
<text text-anchor="start" x="118" y="-186.5" font-family="Helvetica,sans-Serif" font-size="10.00">modules/core/MarmotMechanics</text>
<text text-anchor="middle" x="189" y="-175.5" font-family="Helvetica,sans-Serif" font-size="10.00">Core/src/MarmotUtility.cpp</text>
</a>
</g>
</g>
<!-- Node2 -->
<g id="node2" class="node">
<title>Node2</title>
<g id="a_node2"><a xlink:href="MarmotUtility_8h.html" target="_top" xlink:title=" ">
<polygon fill="white" stroke="black" points="0,-112.5 0,-131.5 118,-131.5 118,-112.5 0,-112.5"/>
<text text-anchor="middle" x="59" y="-119.5" font-family="Helvetica,sans-Serif" font-size="10.00">Marmot/MarmotUtility.h</text>
</a>
</g>
</g>
<!-- Node1&#45;&gt;Node2 -->
<g id="edge1" class="edge">
<title>Node1&#45;&gt;Node2</title>
<path fill="none" stroke="midnightblue" d="M158.19,-168.4C136.67,-158.55 108.16,-145.5 87.23,-135.92"/>
<polygon fill="midnightblue" stroke="midnightblue" points="88.47,-132.64 77.92,-131.66 85.55,-139 88.47,-132.64"/>
</g>
<!-- Node3 -->
<g id="node3" class="node">
<title>Node3</title>
<g id="a_node3"><a xlink:title=" ">
<polygon fill="white" stroke="#bfbfbf" points="79.5,-56.5 79.5,-75.5 212.5,-75.5 212.5,-56.5 79.5,-56.5"/>
<text text-anchor="middle" x="146" y="-63.5" font-family="Helvetica,sans-Serif" font-size="10.00">Marmot/MarmotTypedefs.h</text>
</a>
</g>
</g>
<!-- Node1&#45;&gt;Node3 -->
<g id="edge7" class="edge">
<title>Node1&#45;&gt;Node3</title>
<path fill="none" stroke="midnightblue" d="M181.44,-168.18C176.37,-158.21 169.77,-144.52 165,-132 159.11,-116.55 153.96,-98.46 150.51,-85.29"/>
<polygon fill="midnightblue" stroke="midnightblue" points="153.89,-84.39 148.04,-75.56 147.11,-86.11 153.89,-84.39"/>
</g>
<!-- Node4 -->
<g id="node4" class="node">
<title>Node4</title>
<g id="a_node4"><a xlink:href="MarmotJournal_8h.html" target="_top" xlink:title=" ">
<polygon fill="white" stroke="black" points="242.5,-56.5 242.5,-75.5 367.5,-75.5 367.5,-56.5 242.5,-56.5"/>
<text text-anchor="middle" x="305" y="-63.5" font-family="Helvetica,sans-Serif" font-size="10.00">Marmot/MarmotJournal.h</text>
</a>
</g>
</g>
<!-- Node1&#45;&gt;Node4 -->
<g id="edge3" class="edge">
<title>Node1&#45;&gt;Node4</title>
<path fill="none" stroke="midnightblue" d="M247.65,-168.43C267.02,-160.83 286.73,-149.32 299,-132 308.41,-118.72 309.15,-99.88 307.99,-85.9"/>
<polygon fill="midnightblue" stroke="midnightblue" points="311.45,-85.44 306.77,-75.93 304.51,-86.28 311.45,-85.44"/>
</g>
<!-- Node8 -->
<g id="node8" class="node">
<title>Node8</title>
<g id="a_node8"><a xlink:href="MarmotVoigt_8h.html" target="_top" xlink:title=" ">
<polygon fill="white" stroke="black" points="174,-112.5 174,-131.5 290,-131.5 290,-112.5 174,-112.5"/>
<text text-anchor="middle" x="232" y="-119.5" font-family="Helvetica,sans-Serif" font-size="10.00">Marmot/MarmotVoigt.h</text>
</a>
</g>
</g>
<!-- Node1&#45;&gt;Node8 -->
<g id="edge8" class="edge">
<title>Node1&#45;&gt;Node8</title>
<path fill="none" stroke="midnightblue" d="M199.19,-168.4C205.37,-159.84 213.3,-148.87 219.82,-139.86"/>
<polygon fill="midnightblue" stroke="midnightblue" points="222.72,-141.81 225.74,-131.66 217.05,-137.71 222.72,-141.81"/>
</g>
<!-- Node2&#45;&gt;Node3 -->
<g id="edge2" class="edge">
<title>Node2&#45;&gt;Node3</title>
<path fill="none" stroke="midnightblue" d="M72.98,-112.32C86.55,-103.9 107.38,-90.97 123.32,-81.07"/>
<polygon fill="midnightblue" stroke="midnightblue" points="125.41,-83.9 132.06,-75.65 121.71,-77.95 125.41,-83.9"/>
</g>
<!-- Node5 -->
<g id="node5" class="node">
<title>Node5</title>
<g id="a_node5"><a xlink:title=" ">
<polygon fill="white" stroke="#bfbfbf" points="207,-0.5 207,-19.5 261,-19.5 261,-0.5 207,-0.5"/>
<text text-anchor="middle" x="234" y="-7.5" font-family="Helvetica,sans-Serif" font-size="10.00">iostream</text>
</a>
</g>
</g>
<!-- Node4&#45;&gt;Node5 -->
<g id="edge4" class="edge">
<title>Node4&#45;&gt;Node5</title>
<path fill="none" stroke="midnightblue" d="M293.59,-56.32C282.89,-48.18 266.66,-35.84 253.84,-26.09"/>
<polygon fill="midnightblue" stroke="midnightblue" points="255.69,-23.1 245.61,-19.83 251.46,-28.67 255.69,-23.1"/>
</g>
<!-- Node6 -->
<g id="node6" class="node">
<title>Node6</title>
<g id="a_node6"><a xlink:title=" ">
<polygon fill="white" stroke="#bfbfbf" points="279,-0.5 279,-19.5 331,-19.5 331,-0.5 279,-0.5"/>
<text text-anchor="middle" x="305" y="-7.5" font-family="Helvetica,sans-Serif" font-size="10.00">sstream</text>
</a>
</g>
</g>
<!-- Node4&#45;&gt;Node6 -->
<g id="edge5" class="edge">
<title>Node4&#45;&gt;Node6</title>
<path fill="none" stroke="midnightblue" d="M305,-56.08C305,-49.01 305,-38.86 305,-29.99"/>
<polygon fill="midnightblue" stroke="midnightblue" points="308.5,-29.75 305,-19.75 301.5,-29.75 308.5,-29.75"/>
</g>
<!-- Node7 -->
<g id="node7" class="node">
<title>Node7</title>
<g id="a_node7"><a xlink:title=" ">
<polygon fill="white" stroke="#bfbfbf" points="349.5,-0.5 349.5,-19.5 390.5,-19.5 390.5,-0.5 349.5,-0.5"/>
<text text-anchor="middle" x="370" y="-7.5" font-family="Helvetica,sans-Serif" font-size="10.00">string</text>
</a>
</g>
</g>
<!-- Node4&#45;&gt;Node7 -->
<g id="edge6" class="edge">
<title>Node4&#45;&gt;Node7</title>
<path fill="none" stroke="midnightblue" d="M315.44,-56.32C325.15,-48.26 339.82,-36.08 351.5,-26.37"/>
<polygon fill="midnightblue" stroke="midnightblue" points="353.91,-28.92 359.37,-19.83 349.44,-23.53 353.91,-28.92"/>
</g>
<!-- Node8&#45;&gt;Node3 -->
<g id="edge10" class="edge">
<title>Node8&#45;&gt;Node3</title>
<path fill="none" stroke="midnightblue" d="M218.18,-112.32C204.77,-103.9 184.18,-90.97 168.41,-81.07"/>
<polygon fill="midnightblue" stroke="midnightblue" points="170.11,-78.01 159.78,-75.65 166.39,-83.94 170.11,-78.01"/>
</g>
<!-- Node8&#45;&gt;Node4 -->
<g id="edge9" class="edge">
<title>Node8&#45;&gt;Node4</title>
<path fill="none" stroke="midnightblue" d="M243.73,-112.32C254.84,-104.11 271.74,-91.6 284.98,-81.81"/>
<polygon fill="midnightblue" stroke="midnightblue" points="287.1,-84.59 293.06,-75.83 282.94,-78.97 287.1,-84.59"/>
</g>
</g>
</svg>
