<?xml version="1.0" encoding="UTF-8" standalone="no"?>
<!DOCTYPE svg PUBLIC "-//W3C//DTD SVG 1.1//EN"
 "http://www.w3.org/Graphics/SVG/1.1/DTD/svg11.dtd">
<!-- Generated by graphviz version 2.44.0 ()
 -->
<!-- Title: modules/core/MarmotMechanicsCore/include/Marmot/MarmotKinematics.h Pages: 1 -->
<svg width="1044pt" height="285pt"
 viewBox="0.00 0.00 1043.50 285.00" xmlns="http://www.w3.org/2000/svg" xmlns:xlink="http://www.w3.org/1999/xlink">
<g id="graph0" class="graph" transform="scale(1 1) rotate(0) translate(4 281)">
<title>modules/core/MarmotMechanicsCore/include/Marmot/MarmotKinematics.h</title>
<polygon fill="white" stroke="transparent" points="-4,4 -4,-281 1039.5,-281 1039.5,4 -4,4"/>
<!-- Node1 -->
<g id="node1" class="node">
<title>Node1</title>
<g id="a_node1"><a xlink:title=" ">
<polygon fill="#bfbfbf" stroke="black" points="109.5,-246.5 109.5,-276.5 308.5,-276.5 308.5,-246.5 109.5,-246.5"/>
<text text-anchor="start" x="117.5" y="-264.5" font-family="Helvetica,sans-Serif" font-size="10.00">modules/core/MarmotMechanics</text>
<text text-anchor="middle" x="209" y="-253.5" font-family="Helvetica,sans-Serif" font-size="10.00">Core/include/Marmot/MarmotKinematics.h</text>
</a>
</g>
</g>
<!-- Node2 -->
<g id="node2" class="node">
<title>Node2</title>
<g id="a_node2"><a xlink:href="MarmotJournal_8h.html" target="_top" xlink:title=" ">
<polygon fill="white" stroke="black" points="55.5,-134.5 55.5,-153.5 180.5,-153.5 180.5,-134.5 55.5,-134.5"/>
<text text-anchor="middle" x="118" y="-141.5" font-family="Helvetica,sans-Serif" font-size="10.00">Marmot/MarmotJournal.h</text>
</a>
</g>
</g>
<!-- Node1&#45;&gt;Node2 -->
<g id="edge1" class="edge">
<title>Node1&#45;&gt;Node2</title>
<path fill="none" stroke="midnightblue" d="M197.84,-246.34C181,-224.96 149.14,-184.53 131.18,-161.73"/>
<polygon fill="midnightblue" stroke="midnightblue" points="133.77,-159.36 124.83,-153.67 128.27,-163.69 133.77,-159.36"/>
</g>
<!-- Node6 -->
<g id="node6" class="node">
<title>Node6</title>
<g id="a_node6"><a xlink:href="MarmotTypedefs_8h.html" target="_top" xlink:title=" ">
<polygon fill="white" stroke="black" points="201.5,-73 201.5,-92 334.5,-92 334.5,-73 201.5,-73"/>
<text text-anchor="middle" x="268" y="-80" font-family="Helvetica,sans-Serif" font-size="10.00">Marmot/MarmotTypedefs.h</text>
</a>
</g>
</g>
<!-- Node1&#45;&gt;Node6 -->
<g id="edge5" class="edge">
<title>Node1&#45;&gt;Node6</title>
<path fill="none" stroke="midnightblue" d="M212.39,-246.34C215.92,-232.02 221.79,-209.31 228,-190 238.14,-158.48 252.16,-122.56 260.62,-101.53"/>
<polygon fill="midnightblue" stroke="midnightblue" points="263.88,-102.82 264.39,-92.24 257.39,-100.19 263.88,-102.82"/>
</g>
<!-- Node10 -->
<g id="node10" class="node">
<title>Node10</title>
<g id="a_node10"><a xlink:href="MarmotVoigt_8h.html" target="_top" xlink:title=" ">
<polygon fill="white" stroke="black" points="237,-190.5 237,-209.5 353,-209.5 353,-190.5 237,-190.5"/>
<text text-anchor="middle" x="295" y="-197.5" font-family="Helvetica,sans-Serif" font-size="10.00">Marmot/MarmotVoigt.h</text>
</a>
</g>
</g>
<!-- Node1&#45;&gt;Node10 -->
<g id="edge9" class="edge">
<title>Node1&#45;&gt;Node10</title>
<path fill="none" stroke="midnightblue" d="M229.38,-246.4C242.91,-237.04 260.61,-224.79 274.22,-215.38"/>
<polygon fill="midnightblue" stroke="midnightblue" points="276.25,-218.23 282.49,-209.66 272.27,-212.47 276.25,-218.23"/>
</g>
<!-- Node3 -->
<g id="node3" class="node">
<title>Node3</title>
<g id="a_node3"><a xlink:title=" ">
<polygon fill="white" stroke="#bfbfbf" points="0,-73 0,-92 54,-92 54,-73 0,-73"/>
<text text-anchor="middle" x="27" y="-80" font-family="Helvetica,sans-Serif" font-size="10.00">iostream</text>
</a>
</g>
</g>
<!-- Node2&#45;&gt;Node3 -->
<g id="edge2" class="edge">
<title>Node2&#45;&gt;Node3</title>
<path fill="none" stroke="midnightblue" d="M104.96,-134.48C90.23,-124.84 66.03,-109.02 48.49,-97.55"/>
<polygon fill="midnightblue" stroke="midnightblue" points="50.3,-94.55 40.01,-92.01 46.47,-100.41 50.3,-94.55"/>
</g>
<!-- Node4 -->
<g id="node4" class="node">
<title>Node4</title>
<g id="a_node4"><a xlink:title=" ">
<polygon fill="white" stroke="#bfbfbf" points="72,-73 72,-92 124,-92 124,-73 72,-73"/>
<text text-anchor="middle" x="98" y="-80" font-family="Helvetica,sans-Serif" font-size="10.00">sstream</text>
</a>
</g>
</g>
<!-- Node2&#45;&gt;Node4 -->
<g id="edge3" class="edge">
<title>Node2&#45;&gt;Node4</title>
<path fill="none" stroke="midnightblue" d="M115.13,-134.48C112.28,-125.99 107.82,-112.7 104.16,-101.82"/>
<polygon fill="midnightblue" stroke="midnightblue" points="107.36,-100.37 100.86,-92.01 100.73,-102.6 107.36,-100.37"/>
</g>
<!-- Node5 -->
<g id="node5" class="node">
<title>Node5</title>
<g id="a_node5"><a xlink:title=" ">
<polygon fill="white" stroke="#bfbfbf" points="142.5,-73 142.5,-92 183.5,-92 183.5,-73 142.5,-73"/>
<text text-anchor="middle" x="163" y="-80" font-family="Helvetica,sans-Serif" font-size="10.00">string</text>
</a>
</g>
</g>
<!-- Node2&#45;&gt;Node5 -->
<g id="edge4" class="edge">
<title>Node2&#45;&gt;Node5</title>
<path fill="none" stroke="midnightblue" d="M124.45,-134.48C131.2,-125.55 141.97,-111.31 150.41,-100.14"/>
<polygon fill="midnightblue" stroke="midnightblue" points="153.32,-102.1 156.56,-92.01 147.74,-97.87 153.32,-102.1"/>
</g>
<!-- Node7 -->
<g id="node7" class="node">
<title>Node7</title>
<g id="a_node7"><a xlink:title=" ">
<polygon fill="white" stroke="#bfbfbf" points="114,-6 114,-25 178,-25 178,-6 114,-6"/>
<text text-anchor="middle" x="146" y="-13" font-family="Helvetica,sans-Serif" font-size="10.00">Eigen/Core</text>
</a>
</g>
</g>
<!-- Node6&#45;&gt;Node7 -->
<g id="edge6" class="edge">
<title>Node6&#45;&gt;Node7</title>
<path fill="none" stroke="midnightblue" d="M251.8,-72.87C231.2,-61.89 195.41,-42.82 171.22,-29.94"/>
<polygon fill="midnightblue" stroke="midnightblue" points="172.74,-26.78 162.27,-25.17 169.45,-32.96 172.74,-26.78"/>
</g>
<!-- Node8 -->
<g id="node8" class="node">
<title>Node8</title>
<g id="a_node8"><a xlink:title=" ">
<polygon fill="white" stroke="#bfbfbf" points="196.5,-6 196.5,-25 267.5,-25 267.5,-6 196.5,-6"/>
<text text-anchor="middle" x="232" y="-13" font-family="Helvetica,sans-Serif" font-size="10.00">Eigen/Dense</text>
</a>
</g>
</g>
<!-- Node6&#45;&gt;Node8 -->
<g id="edge7" class="edge">
<title>Node6&#45;&gt;Node8</title>
<path fill="none" stroke="midnightblue" d="M263.14,-72.73C257.69,-62.89 248.7,-46.66 241.78,-34.16"/>
<polygon fill="midnightblue" stroke="midnightblue" points="244.69,-32.18 236.78,-25.13 238.56,-35.57 244.69,-32.18"/>
</g>
<!-- Node9 -->
<g id="node9" class="node">
<title>Node9</title>
<g id="a_node9"><a xlink:title=" ">
<polygon fill="white" stroke="#bfbfbf" points="285.5,-0.5 285.5,-30.5 416.5,-30.5 416.5,-0.5 285.5,-0.5"/>
<text text-anchor="start" x="293.5" y="-18.5" font-family="Helvetica,sans-Serif" font-size="10.00">unsupported/Eigen/CXX11</text>
<text text-anchor="middle" x="351" y="-7.5" font-family="Helvetica,sans-Serif" font-size="10.00">/Tensor</text>
</a>
</g>
</g>
<!-- Node6&#45;&gt;Node9 -->
<g id="edge8" class="edge">
<title>Node6&#45;&gt;Node9</title>
<path fill="none" stroke="midnightblue" d="M279.19,-72.73C290.84,-63.61 309.5,-49 324.87,-36.96"/>
<polygon fill="midnightblue" stroke="midnightblue" points="327.29,-39.51 333.01,-30.59 322.98,-34 327.29,-39.51"/>
</g>
<!-- Node10&#45;&gt;Node2 -->
<g id="edge10" class="edge">
<title>Node10&#45;&gt;Node2</title>
<path fill="none" stroke="midnightblue" d="M266.95,-190.44C236.92,-181.28 189.09,-166.69 155.76,-156.52"/>
<polygon fill="midnightblue" stroke="midnightblue" points="156.5,-153.09 145.91,-153.52 154.46,-159.78 156.5,-153.09"/>
</g>
<!-- Node10&#45;&gt;Node6 -->
<g id="edge20" class="edge">
<title>Node10&#45;&gt;Node6</title>
<path fill="none" stroke="midnightblue" d="M292.97,-190.32C288.61,-171.67 278.27,-127.44 272.36,-102.13"/>
<polygon fill="midnightblue" stroke="midnightblue" points="275.74,-101.22 270.05,-92.28 268.92,-102.82 275.74,-101.22"/>
</g>
<!-- Node11 -->
<g id="node11" class="node">
<title>Node11</title>
<g id="a_node11"><a xlink:href="MarmotMath_8h.html" target="_top" xlink:title=" ">
<polygon fill="white" stroke="black" points="580.5,-134.5 580.5,-153.5 695.5,-153.5 695.5,-134.5 580.5,-134.5"/>
<text text-anchor="middle" x="638" y="-141.5" font-family="Helvetica,sans-Serif" font-size="10.00">Marmot/MarmotMath.h</text>
</a>
</g>
</g>
<!-- Node10&#45;&gt;Node11 -->
<g id="edge11" class="edge">
<title>Node10&#45;&gt;Node11</title>
<path fill="none" stroke="midnightblue" d="M349.35,-190.44C410.31,-180.85 509.11,-165.29 573.82,-155.1"/>
<polygon fill="midnightblue" stroke="midnightblue" points="574.57,-158.53 583.9,-153.52 573.48,-151.61 574.57,-158.53"/>
</g>
<!-- Node11&#45;&gt;Node6 -->
<g id="edge14" class="edge">
<title>Node11&#45;&gt;Node6</title>
<path fill="none" stroke="midnightblue" d="M580.44,-134.83C521.09,-126.25 425.93,-112.08 344,-98 336.64,-96.73 328.88,-95.33 321.26,-93.92"/>
<polygon fill="midnightblue" stroke="midnightblue" points="321.83,-90.46 311.36,-92.06 320.54,-97.34 321.83,-90.46"/>
</g>
<!-- Node12 -->
<g id="node12" class="node">
<title>Node12</title>
<g id="a_node12"><a xlink:href="MarmotConstants_8h.html" target="_top" xlink:title=" ">
<polygon fill="white" stroke="black" points="352.5,-73 352.5,-92 489.5,-92 489.5,-73 352.5,-73"/>
<text text-anchor="middle" x="421" y="-80" font-family="Helvetica,sans-Serif" font-size="10.00">Marmot/MarmotConstants.h</text>
</a>
</g>
</g>
<!-- Node11&#45;&gt;Node12 -->
<g id="edge12" class="edge">
<title>Node11&#45;&gt;Node12</title>
<path fill="none" stroke="midnightblue" d="M606.91,-134.48C568.72,-124 503.83,-106.21 461.7,-94.66"/>
<polygon fill="midnightblue" stroke="midnightblue" points="462.6,-91.28 452.03,-92.01 460.75,-98.03 462.6,-91.28"/>
</g>
<!-- Node14 -->
<g id="node14" class="node">
<title>Node14</title>
<g id="a_node14"><a xlink:title=" ">
<polygon fill="white" stroke="#bfbfbf" points="508,-73 508,-92 630,-92 630,-73 508,-73"/>
<text text-anchor="middle" x="569" y="-80" font-family="Helvetica,sans-Serif" font-size="10.00">autodiff/forward/dual.hpp</text>
</a>
</g>
</g>
<!-- Node11&#45;&gt;Node14 -->
<g id="edge15" class="edge">
<title>Node11&#45;&gt;Node14</title>
<path fill="none" stroke="midnightblue" d="M628.11,-134.48C617.35,-125.2 599.93,-110.17 586.78,-98.83"/>
<polygon fill="midnightblue" stroke="midnightblue" points="588.73,-95.89 578.87,-92.01 584.16,-101.19 588.73,-95.89"/>
</g>
<!-- Node15 -->
<g id="node15" class="node">
<title>Node15</title>
<g id="a_node15"><a xlink:title=" ">
<polygon fill="white" stroke="#bfbfbf" points="648,-73 648,-92 768,-92 768,-73 648,-73"/>
<text text-anchor="middle" x="708" y="-80" font-family="Helvetica,sans-Serif" font-size="10.00">autodiff/forward/real.hpp</text>
</a>
</g>
</g>
<!-- Node11&#45;&gt;Node15 -->
<g id="edge16" class="edge">
<title>Node11&#45;&gt;Node15</title>
<path fill="none" stroke="midnightblue" d="M648.03,-134.48C659.05,-125.11 676.96,-109.88 690.34,-98.51"/>
<polygon fill="midnightblue" stroke="midnightblue" points="692.64,-101.15 697.99,-92.01 688.1,-95.82 692.64,-101.15"/>
</g>
<!-- Node16 -->
<g id="node16" class="node">
<title>Node16</title>
<g id="a_node16"><a xlink:title=" ">
<polygon fill="white" stroke="#bfbfbf" points="786,-73 786,-92 842,-92 842,-73 786,-73"/>
<text text-anchor="middle" x="814" y="-80" font-family="Helvetica,sans-Serif" font-size="10.00">algorithm</text>
</a>
</g>
</g>
<!-- Node11&#45;&gt;Node16 -->
<g id="edge17" class="edge">
<title>Node11&#45;&gt;Node16</title>
<path fill="none" stroke="midnightblue" d="M666.12,-134.44C694.32,-125.73 738.9,-111.62 777,-98 779.11,-97.25 781.28,-96.45 783.47,-95.63"/>
<polygon fill="midnightblue" stroke="midnightblue" points="784.86,-98.85 792.95,-92 782.36,-92.31 784.86,-98.85"/>
</g>
<!-- Node17 -->
<g id="node17" class="node">
<title>Node17</title>
<g id="a_node17"><a xlink:title=" ">
<polygon fill="white" stroke="#bfbfbf" points="860,-67.5 860,-97.5 964,-97.5 964,-67.5 860,-67.5"/>
<text text-anchor="start" x="868" y="-85.5" font-family="Helvetica,sans-Serif" font-size="10.00">autodiff/forward/dual</text>
<text text-anchor="middle" x="912" y="-74.5" font-family="Helvetica,sans-Serif" font-size="10.00">/dual.hpp</text>
</a>
</g>
</g>
<!-- Node11&#45;&gt;Node17 -->
<g id="edge18" class="edge">
<title>Node11&#45;&gt;Node17</title>
<path fill="none" stroke="midnightblue" d="M680.1,-134.43C721.02,-126.03 785.16,-112.67 849.82,-98.24"/>
<polygon fill="midnightblue" stroke="midnightblue" points="850.78,-101.61 859.78,-96.01 849.25,-94.78 850.78,-101.61"/>
</g>
<!-- Node18 -->
<g id="node18" class="node">
<title>Node18</title>
<g id="a_node18"><a xlink:title=" ">
<polygon fill="white" stroke="#bfbfbf" points="982.5,-73 982.5,-92 1035.5,-92 1035.5,-73 982.5,-73"/>
<text text-anchor="middle" x="1009" y="-80" font-family="Helvetica,sans-Serif" font-size="10.00">complex</text>
</a>
</g>
</g>
<!-- Node11&#45;&gt;Node18 -->
<g id="edge19" class="edge">
<title>Node11&#45;&gt;Node18</title>
<path fill="none" stroke="midnightblue" d="M695.75,-139.63C763.2,-134.69 877.68,-123.17 973,-98 975.51,-97.34 978.08,-96.55 980.63,-95.68"/>
<polygon fill="midnightblue" stroke="midnightblue" points="982.11,-98.86 990.24,-92.08 979.65,-92.31 982.11,-98.86"/>
</g>
<!-- Node13 -->
<g id="node13" class="node">
<title>Node13</title>
<g id="a_node13"><a xlink:title=" ">
<polygon fill="white" stroke="#bfbfbf" points="435,-6 435,-25 479,-25 479,-6 435,-6"/>
<text text-anchor="middle" x="457" y="-13" font-family="Helvetica,sans-Serif" font-size="10.00">cmath</text>
</a>
</g>
</g>
<!-- Node12&#45;&gt;Node13 -->
<g id="edge13" class="edge">
<title>Node12&#45;&gt;Node13</title>
<path fill="none" stroke="midnightblue" d="M425.86,-72.73C431.31,-62.89 440.3,-46.66 447.22,-34.16"/>
<polygon fill="midnightblue" stroke="midnightblue" points="450.44,-35.57 452.22,-25.13 444.31,-32.18 450.44,-35.57"/>
</g>
</g>
</svg>
