<?xml version="1.0" encoding="UTF-8" standalone="no"?>
<!DOCTYPE svg PUBLIC "-//W3C//DTD SVG 1.1//EN"
 "http://www.w3.org/Graphics/SVG/1.1/DTD/svg11.dtd">
<!-- Generated by graphviz version 2.44.0 ()
 -->
<!-- Title: modules/core/MarmotMathCore/include/Marmot/MarmotAutomaticDifferentiation.h Pages: 1 -->
<svg width="1110pt" height="363pt"
 viewBox="0.00 0.00 1109.50 363.00" xmlns="http://www.w3.org/2000/svg" xmlns:xlink="http://www.w3.org/1999/xlink">
<g id="graph0" class="graph" transform="scale(1 1) rotate(0) translate(4 359)">
<title>modules/core/MarmotMathCore/include/Marmot/MarmotAutomaticDifferentiation.h</title>
<polygon fill="white" stroke="transparent" points="-4,4 -4,-359 1105.5,-359 1105.5,4 -4,4"/>
<!-- Node1 -->
<g id="node1" class="node">
<title>Node1</title>
<g id="a_node1"><a xlink:title=" ">
<polygon fill="#bfbfbf" stroke="black" points="808.5,-313.5 808.5,-354.5 975.5,-354.5 975.5,-313.5 808.5,-313.5"/>
<text text-anchor="start" x="816.5" y="-342.5" font-family="Helvetica,sans-Serif" font-size="10.00">modules/core/MarmotMathCore</text>
<text text-anchor="start" x="816.5" y="-331.5" font-family="Helvetica,sans-Serif" font-size="10.00">/include/Marmot/MarmotAutomatic</text>
<text text-anchor="middle" x="892" y="-320.5" font-family="Helvetica,sans-Serif" font-size="10.00">Differentiation.h</text>
</a>
</g>
</g>
<!-- Node2 -->
<g id="node2" class="node">
<title>Node2</title>
<g id="a_node2"><a xlink:href="MarmotTensor_8h.html" target="_top" xlink:title=" ">
<polygon fill="white" stroke="black" points="164.5,-252 164.5,-271 287.5,-271 287.5,-252 164.5,-252"/>
<text text-anchor="middle" x="226" y="-259" font-family="Helvetica,sans-Serif" font-size="10.00">Marmot/MarmotTensor.h</text>
</a>
</g>
</g>
<!-- Node1&#45;&gt;Node2 -->
<g id="edge1" class="edge">
<title>Node1&#45;&gt;Node2</title>
<path fill="none" stroke="midnightblue" d="M808.33,-324.14C676.31,-310.17 421.96,-283.24 297.77,-270.1"/>
<polygon fill="midnightblue" stroke="midnightblue" points="297.92,-266.59 287.61,-269.02 297.18,-273.55 297.92,-266.59"/>
</g>
<!-- Node15 -->
<g id="node15" class="node">
<title>Node15</title>
<g id="a_node15"><a xlink:title=" ">
<polygon fill="white" stroke="#bfbfbf" points="793,-73 793,-92 915,-92 915,-73 793,-73"/>
<text text-anchor="middle" x="854" y="-80" font-family="Helvetica,sans-Serif" font-size="10.00">autodiff/forward/dual.hpp</text>
</a>
</g>
</g>
<!-- Node1&#45;&gt;Node15 -->
<g id="edge24" class="edge">
<title>Node1&#45;&gt;Node15</title>
<path fill="none" stroke="midnightblue" d="M886.49,-313.43C883.63,-302.74 880.28,-289.22 878,-277 866.14,-213.32 858.6,-136.72 855.55,-102.1"/>
<polygon fill="midnightblue" stroke="midnightblue" points="859.03,-101.71 854.69,-92.04 852.05,-102.31 859.03,-101.71"/>
</g>
<!-- Node18 -->
<g id="node18" class="node">
<title>Node18</title>
<g id="a_node18"><a xlink:title=" ">
<polygon fill="white" stroke="#bfbfbf" points="933,-67.5 933,-97.5 1037,-97.5 1037,-67.5 933,-67.5"/>
<text text-anchor="start" x="941" y="-85.5" font-family="Helvetica,sans-Serif" font-size="10.00">autodiff/forward/dual</text>
<text text-anchor="middle" x="985" y="-74.5" font-family="Helvetica,sans-Serif" font-size="10.00">/dual.hpp</text>
</a>
</g>
</g>
<!-- Node1&#45;&gt;Node18 -->
<g id="edge26" class="edge">
<title>Node1&#45;&gt;Node18</title>
<path fill="none" stroke="midnightblue" d="M895.07,-313.33C898.14,-295.49 903.48,-268.59 911,-246 928.04,-194.77 956.14,-138.04 972.37,-107"/>
<polygon fill="midnightblue" stroke="midnightblue" points="975.62,-108.34 977.19,-97.87 969.43,-105.08 975.62,-108.34"/>
</g>
<!-- Node21 -->
<g id="node21" class="node">
<title>Node21</title>
<g id="a_node21"><a xlink:title=" ">
<polygon fill="white" stroke="#bfbfbf" points="920,-246.5 920,-276.5 1024,-276.5 1024,-246.5 920,-246.5"/>
<text text-anchor="start" x="928" y="-264.5" font-family="Helvetica,sans-Serif" font-size="10.00">autodiff/forward/dual</text>
<text text-anchor="middle" x="972" y="-253.5" font-family="Helvetica,sans-Serif" font-size="10.00">/eigen.hpp</text>
</a>
</g>
</g>
<!-- Node1&#45;&gt;Node21 -->
<g id="edge25" class="edge">
<title>Node1&#45;&gt;Node21</title>
<path fill="none" stroke="midnightblue" d="M914.28,-313.36C924.82,-304.08 937.41,-292.98 948.14,-283.52"/>
<polygon fill="midnightblue" stroke="midnightblue" points="950.73,-285.91 955.92,-276.67 946.1,-280.66 950.73,-285.91"/>
</g>
<!-- Node22 -->
<g id="node22" class="node">
<title>Node22</title>
<g id="a_node22"><a xlink:title=" ">
<polygon fill="white" stroke="#bfbfbf" points="1042.5,-252 1042.5,-271 1101.5,-271 1101.5,-252 1042.5,-252"/>
<text text-anchor="middle" x="1072" y="-259" font-family="Helvetica,sans-Serif" font-size="10.00">functional</text>
</a>
</g>
</g>
<!-- Node1&#45;&gt;Node22 -->
<g id="edge27" class="edge">
<title>Node1&#45;&gt;Node22</title>
<path fill="none" stroke="midnightblue" d="M942.14,-313.36C973.64,-301.02 1013.3,-285.49 1040.46,-274.85"/>
<polygon fill="midnightblue" stroke="midnightblue" points="1041.82,-278.08 1049.86,-271.17 1039.27,-271.56 1041.82,-278.08"/>
</g>
<!-- Node3 -->
<g id="node3" class="node">
<title>Node3</title>
<g id="a_node3"><a xlink:href="MarmotJournal_8h.html" target="_top" xlink:title=" ">
<polygon fill="white" stroke="black" points="29.5,-134.5 29.5,-153.5 154.5,-153.5 154.5,-134.5 29.5,-134.5"/>
<text text-anchor="middle" x="92" y="-141.5" font-family="Helvetica,sans-Serif" font-size="10.00">Marmot/MarmotJournal.h</text>
</a>
</g>
</g>
<!-- Node2&#45;&gt;Node3 -->
<g id="edge2" class="edge">
<title>Node2&#45;&gt;Node3</title>
<path fill="none" stroke="midnightblue" d="M215.93,-251.82C193.33,-232.34 138.32,-184.92 109.8,-160.34"/>
<polygon fill="midnightblue" stroke="midnightblue" points="112.05,-157.66 102.19,-153.78 107.48,-162.96 112.05,-157.66"/>
</g>
<!-- Node4 -->
<g id="node4" class="node">
<title>Node4</title>
<g id="a_node4"><a xlink:title=" ">
<polygon fill="white" stroke="#bfbfbf" points="130,-73 130,-92 184,-92 184,-73 130,-73"/>
<text text-anchor="middle" x="157" y="-80" font-family="Helvetica,sans-Serif" font-size="10.00">iostream</text>
</a>
</g>
</g>
<!-- Node2&#45;&gt;Node4 -->
<g id="edge22" class="edge">
<title>Node2&#45;&gt;Node4</title>
<path fill="none" stroke="midnightblue" d="M221.47,-251.68C216.43,-241.7 208.17,-224.89 202,-210 186.3,-172.11 170.92,-126.54 162.84,-101.75"/>
<polygon fill="midnightblue" stroke="midnightblue" points="166.16,-100.64 159.76,-92.2 159.5,-102.8 166.16,-100.64"/>
</g>
<!-- Node7 -->
<g id="node7" class="node">
<title>Node7</title>
<g id="a_node7"><a xlink:href="MarmotTypedefs_8h.html" target="_top" xlink:title=" ">
<polygon fill="white" stroke="black" points="202.5,-73 202.5,-92 335.5,-92 335.5,-73 202.5,-73"/>
<text text-anchor="middle" x="269" y="-80" font-family="Helvetica,sans-Serif" font-size="10.00">Marmot/MarmotTypedefs.h</text>
</a>
</g>
</g>
<!-- Node2&#45;&gt;Node7 -->
<g id="edge6" class="edge">
<title>Node2&#45;&gt;Node7</title>
<path fill="none" stroke="midnightblue" d="M270.95,-251.98C294.62,-244.97 321.65,-232.38 336,-210 360.68,-171.51 315.29,-123.01 287.79,-98.77"/>
<polygon fill="midnightblue" stroke="midnightblue" points="289.81,-95.89 279.93,-92.06 285.26,-101.21 289.81,-95.89"/>
</g>
<!-- Node11 -->
<g id="node11" class="node">
<title>Node11</title>
<g id="a_node11"><a xlink:href="MarmotVoigt_8h.html" target="_top" xlink:title=" ">
<polygon fill="white" stroke="black" points="211,-190.5 211,-209.5 327,-209.5 327,-190.5 211,-190.5"/>
<text text-anchor="middle" x="269" y="-197.5" font-family="Helvetica,sans-Serif" font-size="10.00">Marmot/MarmotVoigt.h</text>
</a>
</g>
</g>
<!-- Node2&#45;&gt;Node11 -->
<g id="edge10" class="edge">
<title>Node2&#45;&gt;Node11</title>
<path fill="none" stroke="midnightblue" d="M232.16,-251.98C238.61,-243.05 248.9,-228.81 256.97,-217.64"/>
<polygon fill="midnightblue" stroke="midnightblue" points="259.83,-219.66 262.85,-209.51 254.16,-215.56 259.83,-219.66"/>
</g>
<!-- Node20 -->
<g id="node20" class="node">
<title>Node20</title>
<g id="a_node20"><a xlink:title=" ">
<polygon fill="white" stroke="#bfbfbf" points="77.5,-190.5 77.5,-209.5 116.5,-209.5 116.5,-190.5 77.5,-190.5"/>
<text text-anchor="middle" x="97" y="-197.5" font-family="Helvetica,sans-Serif" font-size="10.00">utility</text>
</a>
</g>
</g>
<!-- Node2&#45;&gt;Node20 -->
<g id="edge23" class="edge">
<title>Node2&#45;&gt;Node20</title>
<path fill="none" stroke="midnightblue" d="M207.52,-251.98C185.87,-241.99 149.79,-225.35 124.77,-213.81"/>
<polygon fill="midnightblue" stroke="midnightblue" points="125.99,-210.52 115.45,-209.51 123.06,-216.88 125.99,-210.52"/>
</g>
<!-- Node3&#45;&gt;Node4 -->
<g id="edge3" class="edge">
<title>Node3&#45;&gt;Node4</title>
<path fill="none" stroke="midnightblue" d="M101.31,-134.48C111.45,-125.2 127.86,-110.17 140.25,-98.83"/>
<polygon fill="midnightblue" stroke="midnightblue" points="142.69,-101.34 147.7,-92.01 137.96,-96.18 142.69,-101.34"/>
</g>
<!-- Node5 -->
<g id="node5" class="node">
<title>Node5</title>
<g id="a_node5"><a xlink:title=" ">
<polygon fill="white" stroke="#bfbfbf" points="0,-73 0,-92 52,-92 52,-73 0,-73"/>
<text text-anchor="middle" x="26" y="-80" font-family="Helvetica,sans-Serif" font-size="10.00">sstream</text>
</a>
</g>
</g>
<!-- Node3&#45;&gt;Node5 -->
<g id="edge4" class="edge">
<title>Node3&#45;&gt;Node5</title>
<path fill="none" stroke="midnightblue" d="M82.54,-134.48C72.25,-125.2 55.58,-110.17 43.01,-98.83"/>
<polygon fill="midnightblue" stroke="midnightblue" points="45.21,-96.11 35.44,-92.01 40.52,-101.3 45.21,-96.11"/>
</g>
<!-- Node6 -->
<g id="node6" class="node">
<title>Node6</title>
<g id="a_node6"><a xlink:title=" ">
<polygon fill="white" stroke="#bfbfbf" points="70.5,-73 70.5,-92 111.5,-92 111.5,-73 70.5,-73"/>
<text text-anchor="middle" x="91" y="-80" font-family="Helvetica,sans-Serif" font-size="10.00">string</text>
</a>
</g>
</g>
<!-- Node3&#45;&gt;Node6 -->
<g id="edge5" class="edge">
<title>Node3&#45;&gt;Node6</title>
<path fill="none" stroke="midnightblue" d="M91.86,-134.48C91.72,-126.08 91.5,-112.98 91.31,-102.16"/>
<polygon fill="midnightblue" stroke="midnightblue" points="94.81,-101.95 91.14,-92.01 87.81,-102.07 94.81,-101.95"/>
</g>
<!-- Node8 -->
<g id="node8" class="node">
<title>Node8</title>
<g id="a_node8"><a xlink:title=" ">
<polygon fill="white" stroke="#bfbfbf" points="237,-6 237,-25 301,-25 301,-6 237,-6"/>
<text text-anchor="middle" x="269" y="-13" font-family="Helvetica,sans-Serif" font-size="10.00">Eigen/Core</text>
</a>
</g>
</g>
<!-- Node7&#45;&gt;Node8 -->
<g id="edge7" class="edge">
<title>Node7&#45;&gt;Node8</title>
<path fill="none" stroke="midnightblue" d="M269,-72.73C269,-63.18 269,-47.62 269,-35.28"/>
<polygon fill="midnightblue" stroke="midnightblue" points="272.5,-35.13 269,-25.13 265.5,-35.13 272.5,-35.13"/>
</g>
<!-- Node9 -->
<g id="node9" class="node">
<title>Node9</title>
<g id="a_node9"><a xlink:title=" ">
<polygon fill="white" stroke="#bfbfbf" points="319.5,-6 319.5,-25 390.5,-25 390.5,-6 319.5,-6"/>
<text text-anchor="middle" x="355" y="-13" font-family="Helvetica,sans-Serif" font-size="10.00">Eigen/Dense</text>
</a>
</g>
</g>
<!-- Node7&#45;&gt;Node9 -->
<g id="edge8" class="edge">
<title>Node7&#45;&gt;Node9</title>
<path fill="none" stroke="midnightblue" d="M280.6,-72.73C294.65,-62.11 318.55,-44.05 335.47,-31.26"/>
<polygon fill="midnightblue" stroke="midnightblue" points="337.72,-33.95 343.59,-25.13 333.5,-28.36 337.72,-33.95"/>
</g>
<!-- Node10 -->
<g id="node10" class="node">
<title>Node10</title>
<g id="a_node10"><a xlink:title=" ">
<polygon fill="white" stroke="#bfbfbf" points="87.5,-0.5 87.5,-30.5 218.5,-30.5 218.5,-0.5 87.5,-0.5"/>
<text text-anchor="start" x="95.5" y="-18.5" font-family="Helvetica,sans-Serif" font-size="10.00">unsupported/Eigen/CXX11</text>
<text text-anchor="middle" x="153" y="-7.5" font-family="Helvetica,sans-Serif" font-size="10.00">/Tensor</text>
</a>
</g>
</g>
<!-- Node7&#45;&gt;Node10 -->
<g id="edge9" class="edge">
<title>Node7&#45;&gt;Node10</title>
<path fill="none" stroke="midnightblue" d="M253.36,-72.73C236.47,-63.27 209.06,-47.91 187.15,-35.64"/>
<polygon fill="midnightblue" stroke="midnightblue" points="188.58,-32.42 178.14,-30.59 185.16,-38.53 188.58,-32.42"/>
</g>
<!-- Node11&#45;&gt;Node3 -->
<g id="edge11" class="edge">
<title>Node11&#45;&gt;Node3</title>
<path fill="none" stroke="midnightblue" d="M240.95,-190.44C210.92,-181.28 163.09,-166.69 129.76,-156.52"/>
<polygon fill="midnightblue" stroke="midnightblue" points="130.5,-153.09 119.91,-153.52 128.46,-159.78 130.5,-153.09"/>
</g>
<!-- Node11&#45;&gt;Node7 -->
<g id="edge21" class="edge">
<title>Node11&#45;&gt;Node7</title>
<path fill="none" stroke="midnightblue" d="M269,-190.32C269,-171.76 269,-127.84 269,-102.47"/>
<polygon fill="midnightblue" stroke="midnightblue" points="272.5,-102.28 269,-92.28 265.5,-102.28 272.5,-102.28"/>
</g>
<!-- Node12 -->
<g id="node12" class="node">
<title>Node12</title>
<g id="a_node12"><a xlink:href="MarmotMath_8h.html" target="_top" xlink:title=" ">
<polygon fill="white" stroke="black" points="453.5,-134.5 453.5,-153.5 568.5,-153.5 568.5,-134.5 453.5,-134.5"/>
<text text-anchor="middle" x="511" y="-141.5" font-family="Helvetica,sans-Serif" font-size="10.00">Marmot/MarmotMath.h</text>
</a>
</g>
</g>
<!-- Node11&#45;&gt;Node12 -->
<g id="edge12" class="edge">
<title>Node11&#45;&gt;Node12</title>
<path fill="none" stroke="midnightblue" d="M307.35,-190.44C349.47,-181.04 417.21,-165.93 462.87,-155.74"/>
<polygon fill="midnightblue" stroke="midnightblue" points="463.84,-159.11 472.83,-153.52 462.31,-152.28 463.84,-159.11"/>
</g>
<!-- Node12&#45;&gt;Node7 -->
<g id="edge15" class="edge">
<title>Node12&#45;&gt;Node7</title>
<path fill="none" stroke="midnightblue" d="M476.33,-134.48C433.47,-123.94 360.46,-105.99 313.5,-94.44"/>
<polygon fill="midnightblue" stroke="midnightblue" points="314.15,-91 303.61,-92.01 312.48,-97.8 314.15,-91"/>
</g>
<!-- Node13 -->
<g id="node13" class="node">
<title>Node13</title>
<g id="a_node13"><a xlink:href="MarmotConstants_8h.html" target="_top" xlink:title=" ">
<polygon fill="white" stroke="black" points="499.5,-73 499.5,-92 636.5,-92 636.5,-73 499.5,-73"/>
<text text-anchor="middle" x="568" y="-80" font-family="Helvetica,sans-Serif" font-size="10.00">Marmot/MarmotConstants.h</text>
</a>
</g>
</g>
<!-- Node12&#45;&gt;Node13 -->
<g id="edge13" class="edge">
<title>Node12&#45;&gt;Node13</title>
<path fill="none" stroke="midnightblue" d="M519.17,-134.48C527.89,-125.37 541.9,-110.74 552.69,-99.48"/>
<polygon fill="midnightblue" stroke="midnightblue" points="555.46,-101.65 559.85,-92.01 550.4,-96.81 555.46,-101.65"/>
</g>
<!-- Node12&#45;&gt;Node15 -->
<g id="edge16" class="edge">
<title>Node12&#45;&gt;Node15</title>
<path fill="none" stroke="midnightblue" d="M566.8,-134.49C622.06,-125.89 709.03,-111.94 784,-98 790.56,-96.78 797.45,-95.43 804.24,-94.07"/>
<polygon fill="midnightblue" stroke="midnightblue" points="804.98,-97.49 814.08,-92.06 803.58,-90.63 804.98,-97.49"/>
</g>
<!-- Node16 -->
<g id="node16" class="node">
<title>Node16</title>
<g id="a_node16"><a xlink:title=" ">
<polygon fill="white" stroke="#bfbfbf" points="655,-73 655,-92 775,-92 775,-73 655,-73"/>
<text text-anchor="middle" x="715" y="-80" font-family="Helvetica,sans-Serif" font-size="10.00">autodiff/forward/real.hpp</text>
</a>
</g>
</g>
<!-- Node12&#45;&gt;Node16 -->
<g id="edge17" class="edge">
<title>Node12&#45;&gt;Node16</title>
<path fill="none" stroke="midnightblue" d="M540.23,-134.48C575.9,-124.07 636.36,-106.44 675.98,-94.88"/>
<polygon fill="midnightblue" stroke="midnightblue" points="677.21,-98.17 685.83,-92.01 675.25,-91.45 677.21,-98.17"/>
</g>
<!-- Node17 -->
<g id="node17" class="node">
<title>Node17</title>
<g id="a_node17"><a xlink:title=" ">
<polygon fill="white" stroke="#bfbfbf" points="354,-73 354,-92 410,-92 410,-73 354,-73"/>
<text text-anchor="middle" x="382" y="-80" font-family="Helvetica,sans-Serif" font-size="10.00">algorithm</text>
</a>
</g>
</g>
<!-- Node12&#45;&gt;Node17 -->
<g id="edge18" class="edge">
<title>Node12&#45;&gt;Node17</title>
<path fill="none" stroke="midnightblue" d="M492.52,-134.48C470.87,-124.49 434.79,-107.85 409.77,-96.31"/>
<polygon fill="midnightblue" stroke="midnightblue" points="410.99,-93.02 400.45,-92.01 408.06,-99.38 410.99,-93.02"/>
</g>
<!-- Node12&#45;&gt;Node18 -->
<g id="edge19" class="edge">
<title>Node12&#45;&gt;Node18</title>
<path fill="none" stroke="midnightblue" d="M568.78,-138.99C646.97,-133.06 790.95,-120.36 922.96,-98.04"/>
<polygon fill="midnightblue" stroke="midnightblue" points="923.58,-101.49 932.85,-96.35 922.4,-94.59 923.58,-101.49"/>
</g>
<!-- Node19 -->
<g id="node19" class="node">
<title>Node19</title>
<g id="a_node19"><a xlink:title=" ">
<polygon fill="white" stroke="#bfbfbf" points="428.5,-73 428.5,-92 481.5,-92 481.5,-73 428.5,-73"/>
<text text-anchor="middle" x="455" y="-80" font-family="Helvetica,sans-Serif" font-size="10.00">complex</text>
</a>
</g>
</g>
<!-- Node12&#45;&gt;Node19 -->
<g id="edge20" class="edge">
<title>Node12&#45;&gt;Node19</title>
<path fill="none" stroke="midnightblue" d="M502.98,-134.48C494.41,-125.37 480.64,-110.74 470.04,-99.48"/>
<polygon fill="midnightblue" stroke="midnightblue" points="472.41,-96.89 463.01,-92.01 467.31,-101.69 472.41,-96.89"/>
</g>
<!-- Node14 -->
<g id="node14" class="node">
<title>Node14</title>
<g id="a_node14"><a xlink:title=" ">
<polygon fill="white" stroke="#bfbfbf" points="546,-6 546,-25 590,-25 590,-6 546,-6"/>
<text text-anchor="middle" x="568" y="-13" font-family="Helvetica,sans-Serif" font-size="10.00">cmath</text>
</a>
</g>
</g>
<!-- Node13&#45;&gt;Node14 -->
<g id="edge14" class="edge">
<title>Node13&#45;&gt;Node14</title>
<path fill="none" stroke="midnightblue" d="M568,-72.73C568,-63.18 568,-47.62 568,-35.28"/>
<polygon fill="midnightblue" stroke="midnightblue" points="571.5,-35.13 568,-25.13 564.5,-35.13 571.5,-35.13"/>
</g>
</g>
</svg>
