<?xml version="1.0" encoding="UTF-8" standalone="no"?>
<!DOCTYPE svg PUBLIC "-//W3C//DTD SVG 1.1//EN"
 "http://www.w3.org/Graphics/SVG/1.1/DTD/svg11.dtd">
<!-- Generated by graphviz version 3.0.0 (20220413.0106)
 -->
<!-- Title: modules/core/MarmotFiniteElementCore/src/MarmotFiniteElement1D.cpp Pages: 1 -->
<svg width="255pt" height="151pt"
 viewBox="0.00 0.00 254.50 151.00" xmlns="http://www.w3.org/2000/svg" xmlns:xlink="http://www.w3.org/1999/xlink">
<g id="graph0" class="graph" transform="scale(1 1) rotate(0) translate(4 147)">
<title>modules/core/MarmotFiniteElementCore/src/MarmotFiniteElement1D.cpp</title>
<polygon fill="white" stroke="transparent" points="-4,4 -4,-147 250.5,-147 250.5,4 -4,4"/>
<!-- Node1 -->
<g id="node1" class="node">
<title>Node1</title>
<g id="a_node1"><a xlink:title=" ">
<polygon fill="#bfbfbf" stroke="black" points="11.5,-112.5 11.5,-142.5 225.5,-142.5 225.5,-112.5 11.5,-112.5"/>
<text text-anchor="start" x="19.5" y="-130.5" font-family="Helvetica,sans-Serif" font-size="10.00">modules/core/MarmotFinite</text>
<text text-anchor="middle" x="118.5" y="-119.5" font-family="Helvetica,sans-Serif" font-size="10.00">ElementCore/src/MarmotFiniteElement1D.cpp</text>
</a>
</g>
</g>
<!-- Node2 -->
<g id="node2" class="node">
<title>Node2</title>
<g id="a_node2"><a xlink:href="MarmotFiniteElement_8h.html" target="_top" xlink:title=" ">
<polygon fill="white" stroke="black" points="94.5,-56.5 94.5,-75.5 246.5,-75.5 246.5,-56.5 94.5,-56.5"/>
<text text-anchor="middle" x="170.5" y="-63.5" font-family="Helvetica,sans-Serif" font-size="10.00">Marmot/MarmotFiniteElement.h</text>
</a>
</g>
</g>
<!-- Node1&#45;&gt;Node2 -->
<g id="edge1" class="edge">
<title>Node1&#45;&gt;Node2</title>
<path fill="none" stroke="midnightblue" d="M130.82,-112.4C138.46,-103.66 148.29,-92.41 156.26,-83.3"/>
<polygon fill="midnightblue" stroke="midnightblue" points="158.99,-85.49 162.93,-75.66 153.72,-80.88 158.99,-85.49"/>
</g>
<!-- Node3 -->
<g id="node3" class="node">
<title>Node3</title>
<g id="a_node3"><a xlink:title=" ">
<polygon fill="white" stroke="#bfbfbf" points="0,-0.5 0,-19.5 133,-19.5 133,-0.5 0,-0.5"/>
<text text-anchor="middle" x="66.5" y="-7.5" font-family="Helvetica,sans-Serif" font-size="10.00">Marmot/MarmotTypedefs.h</text>
</a>
</g>
</g>
<!-- Node1&#45;&gt;Node3 -->
<g id="edge4" class="edge">
<title>Node1&#45;&gt;Node3</title>
<path fill="none" stroke="midnightblue" d="M107.47,-112.14C100.4,-102.38 91.46,-88.94 85.5,-76 78.58,-60.98 73.53,-42.85 70.38,-29.56"/>
<polygon fill="midnightblue" stroke="midnightblue" points="73.78,-28.7 68.19,-19.7 66.95,-30.22 73.78,-28.7"/>
</g>
<!-- Node2&#45;&gt;Node3 -->
<g id="edge2" class="edge">
<title>Node2&#45;&gt;Node3</title>
<path fill="none" stroke="midnightblue" d="M153.79,-56.32C137.19,-47.7 111.5,-34.36 92.28,-24.39"/>
<polygon fill="midnightblue" stroke="midnightblue" points="93.66,-21.16 83.17,-19.65 90.43,-27.37 93.66,-21.16"/>
</g>
<!-- Node4 -->
<g id="node4" class="node">
<title>Node4</title>
<g id="a_node4"><a xlink:title=" ">
<polygon fill="white" stroke="#bfbfbf" points="151.5,-0.5 151.5,-19.5 195.5,-19.5 195.5,-0.5 151.5,-0.5"/>
<text text-anchor="middle" x="173.5" y="-7.5" font-family="Helvetica,sans-Serif" font-size="10.00">vector</text>
</a>
</g>
</g>
<!-- Node2&#45;&gt;Node4 -->
<g id="edge3" class="edge">
<title>Node2&#45;&gt;Node4</title>
<path fill="none" stroke="midnightblue" d="M171,-56.08C171.39,-49.01 171.95,-38.86 172.45,-29.99"/>
<polygon fill="midnightblue" stroke="midnightblue" points="175.95,-29.93 173.01,-19.75 168.96,-29.54 175.95,-29.93"/>
</g>
</g>
</svg>
