<?xml version="1.0" encoding="UTF-8" standalone="no"?>
<!DOCTYPE svg PUBLIC "-//W3C//DTD SVG 1.1//EN"
 "http://www.w3.org/Graphics/SVG/1.1/DTD/svg11.dtd">
<!-- Generated by graphviz version 2.44.0 ()
 -->
<!-- Title: modules/core/MarmotMechanicsCore/include/Marmot/MarmotUtility.h Pages: 1 -->
<!--zoomable 117 -->
<svg id="main" version="1.1" xmlns="http://www.w3.org/2000/svg" xmlns:xlink="http://www.w3.org/1999/xlink" xml:space="preserve" onload="init(evt)">
<style type="text/css"><![CDATA[
.edge:hover path { stroke: red; }
.edge:hover polygon { stroke: red; fill: red; }
]]></style>
<script type="text/javascript"><![CDATA[
var edges = document.getElementsByTagName('g');
if (edges && edges.length) {
  for (var i=0;i<edges.length;i++) {
    if (edges[i].id.substr(0,4)=='edge') {
      edges[i].setAttribute('class','edge');
    }
  }
}
]]></script>
        <defs>
                <circle id="rim" cx="0" cy="0" r="7"/>
                <circle id="rim2" cx="0" cy="0" r="3.5"/>
                <g id="zoomPlus">
                        <use xlink:href="#rim" fill="#404040">
                                <set attributeName="fill" to="#808080" begin="zoomplus.mouseover" end="zoomplus.mouseout"/>
                        </use>
                        <path d="M-4,0h8M0,-4v8" fill="none" stroke="white" stroke-width="1.5" pointer-events="none"/>
                </g>
                <g id="zoomMin">
                        <use xlink:href="#rim" fill="#404040">
                                <set attributeName="fill" to="#808080" begin="zoomminus.mouseover" end="zoomminus.mouseout"/>
                        </use>
                        <path d="M-4,0h8" fill="none" stroke="white" stroke-width="1.5" pointer-events="none"/>
                </g>
                <g id="dirArrow">
                        <path fill="none" stroke="white" stroke-width="1.5" d="M0,-3.0v7 M-2.5,-0.5L0,-3.0L2.5,-0.5"/>
                </g>
               <g id="resetDef">
                       <use xlink:href="#rim2" fill="#404040">
                               <set attributeName="fill" to="#808080" begin="reset.mouseover" end="reset.mouseout"/>
                       </use>
               </g>
        </defs>

<script type="text/javascript">
var viewWidth = 1111;
var viewHeight = 117;
var sectionId = 'dynsection-1';
</script>
<script xlink:href="svgpan.js"/>
<svg id="graph" class="graph">
<g id="viewport">
<title>modules/core/MarmotMechanicsCore/include/Marmot/MarmotUtility.h</title>
<polygon fill="white" stroke="transparent" points="-4,4 -4,-113 1107,-113 1107,4 -4,4"/>
<!-- Node1 -->
<g id="node1" class="node">
<title>Node1</title>
<g id="a_node1"><a xlink:title=" ">
<polygon fill="#bfbfbf" stroke="black" points="490.5,-78.5 490.5,-108.5 665.5,-108.5 665.5,-78.5 490.5,-78.5"/>
<text text-anchor="start" x="498.5" y="-96.5" font-family="Helvetica,sans-Serif" font-size="10.00">modules/core/MarmotMechanics</text>
<text text-anchor="middle" x="578" y="-85.5" font-family="Helvetica,sans-Serif" font-size="10.00">Core/include/Marmot/MarmotUtility.h</text>
</a>
</g>
</g>
<!-- Node2 -->
<g id="node2" class="node">
<title>Node2</title>
<g id="a_node2"><a xlink:href="MarmotUtility_8cpp.html" target="_top" xlink:title=" ">
<polygon fill="white" stroke="black" points="0,-6 0,-36 158,-36 158,-6 0,-6"/>
<text text-anchor="start" x="8" y="-24" font-family="Helvetica,sans-Serif" font-size="10.00">modules/core/MarmotMechanics</text>
<text text-anchor="middle" x="79" y="-13" font-family="Helvetica,sans-Serif" font-size="10.00">Core/src/MarmotUtility.cpp</text>
</a>
</g>
</g>
<!-- Node1&#45;&gt;Node2 -->
<g id="edge1" class="edge">
<title>Node1&#45;&gt;Node2</title>
<path fill="none" stroke="midnightblue" d="M480.24,-83.3C396.71,-74.77 273.5,-60.6 167,-42 157.28,-40.3 147.01,-38.23 137.06,-36.07"/>
<polygon fill="midnightblue" stroke="midnightblue" points="479.93,-86.79 490.23,-84.31 480.63,-79.82 479.93,-86.79"/>
</g>
<!-- Node3 -->
<g id="node3" class="node">
<title>Node3</title>
<g id="a_node3"><a xlink:href="ADLinearElastic_8cpp.html" target="_top" xlink:title=" ">
<polygon fill="white" stroke="black" points="176.5,-6 176.5,-36 329.5,-36 329.5,-6 176.5,-6"/>
<text text-anchor="start" x="184.5" y="-24" font-family="Helvetica,sans-Serif" font-size="10.00">modules/materials/ADLinear</text>
<text text-anchor="middle" x="253" y="-13" font-family="Helvetica,sans-Serif" font-size="10.00">Elastic/src/ADLinearElastic.cpp</text>
</a>
</g>
</g>
<!-- Node1&#45;&gt;Node3 -->
<g id="edge2" class="edge">
<title>Node1&#45;&gt;Node3</title>
<path fill="none" stroke="midnightblue" d="M499.87,-76.41C453.14,-66.68 392.61,-53.9 339,-42 330.47,-40.11 321.47,-38.07 312.64,-36.04"/>
<polygon fill="midnightblue" stroke="midnightblue" points="499.43,-79.89 509.93,-78.5 500.85,-73.04 499.43,-79.89"/>
</g>
<!-- Node4 -->
<g id="node4" class="node">
<title>Node4</title>
<g id="a_node4"><a xlink:href="ADVonMises_8cpp.html" target="_top" xlink:title=" ">
<polygon fill="white" stroke="black" points="348,-6 348,-36 504,-36 504,-6 348,-6"/>
<text text-anchor="start" x="356" y="-24" font-family="Helvetica,sans-Serif" font-size="10.00">modules/materials/ADVonMises</text>
<text text-anchor="middle" x="426" y="-13" font-family="Helvetica,sans-Serif" font-size="10.00">/src/ADVonMises.cpp</text>
</a>
</g>
</g>
<!-- Node1&#45;&gt;Node4 -->
<g id="edge3" class="edge">
<title>Node1&#45;&gt;Node4</title>
<path fill="none" stroke="midnightblue" d="M538.52,-74.19C512.87,-62.29 479.94,-47.02 456.34,-36.07"/>
<polygon fill="midnightblue" stroke="midnightblue" points="537.06,-77.37 547.61,-78.4 540.01,-71.02 537.06,-77.37"/>
</g>
<!-- Node5 -->
<g id="node5" class="node">
<title>Node5</title>
<g id="a_node5"><a xlink:href="B4_8cpp.html" target="_top" xlink:title=" ">
<polygon fill="white" stroke="black" points="522.5,-6 522.5,-36 633.5,-36 633.5,-6 522.5,-6"/>
<text text-anchor="start" x="530.5" y="-24" font-family="Helvetica,sans-Serif" font-size="10.00">modules/materials/B4</text>
<text text-anchor="middle" x="578" y="-13" font-family="Helvetica,sans-Serif" font-size="10.00">/src/B4.cpp</text>
</a>
</g>
</g>
<!-- Node1&#45;&gt;Node5 -->
<g id="edge4" class="edge">
<title>Node1&#45;&gt;Node5</title>
<path fill="none" stroke="midnightblue" d="M578,-68.23C578,-57.57 578,-45.41 578,-36.25"/>
<polygon fill="midnightblue" stroke="midnightblue" points="574.5,-68.23 578,-78.23 581.5,-68.23 574.5,-68.23"/>
</g>
<!-- Node6 -->
<g id="node6" class="node">
<title>Node6</title>
<g id="a_node6"><a xlink:href="B4Shrinkage_8cpp.html" target="_top" xlink:title=" ">
<polygon fill="white" stroke="black" points="651.5,-6 651.5,-36 762.5,-36 762.5,-6 651.5,-6"/>
<text text-anchor="start" x="659.5" y="-24" font-family="Helvetica,sans-Serif" font-size="10.00">modules/materials/B4</text>
<text text-anchor="middle" x="707" y="-13" font-family="Helvetica,sans-Serif" font-size="10.00">/src/B4Shrinkage.cpp</text>
</a>
</g>
</g>
<!-- Node1&#45;&gt;Node6 -->
<g id="edge5" class="edge">
<title>Node1&#45;&gt;Node6</title>
<path fill="none" stroke="midnightblue" d="M612.66,-73.56C634.26,-61.76 661.57,-46.83 681.25,-36.07"/>
<polygon fill="midnightblue" stroke="midnightblue" points="610.89,-70.54 603.8,-78.4 614.25,-76.68 610.89,-70.54"/>
</g>
<!-- Node7 -->
<g id="node7" class="node">
<title>Node7</title>
<g id="a_node7"><a xlink:href="LinearElastic_8cpp.html" target="_top" xlink:title=" ">
<polygon fill="white" stroke="black" points="781,-6 781,-36 921,-36 921,-6 781,-6"/>
<text text-anchor="start" x="789" y="-24" font-family="Helvetica,sans-Serif" font-size="10.00">modules/materials/Linear</text>
<text text-anchor="middle" x="851" y="-13" font-family="Helvetica,sans-Serif" font-size="10.00">Elastic/src/LinearElastic.cpp</text>
</a>
</g>
</g>
<!-- Node1&#45;&gt;Node7 -->
<g id="edge6" class="edge">
<title>Node1&#45;&gt;Node7</title>
<path fill="none" stroke="midnightblue" d="M642.01,-75.97C688.89,-63.86 751.85,-47.6 796.37,-36.11"/>
<polygon fill="midnightblue" stroke="midnightblue" points="641.07,-72.6 632.26,-78.49 642.82,-79.38 641.07,-72.6"/>
</g>
<!-- Node8 -->
<g id="node8" class="node">
<title>Node8</title>
<g id="a_node8"><a xlink:href="LinearViscoelasticPowerLaw_8cpp.html" target="_top" xlink:title=" ">
<polygon fill="white" stroke="black" points="939,-0.5 939,-41.5 1103,-41.5 1103,-0.5 939,-0.5"/>
<text text-anchor="start" x="947" y="-29.5" font-family="Helvetica,sans-Serif" font-size="10.00">modules/materials/Linear</text>
<text text-anchor="start" x="947" y="-18.5" font-family="Helvetica,sans-Serif" font-size="10.00">ViscoelasticPowerLaw/src</text>
<text text-anchor="middle" x="1021" y="-7.5" font-family="Helvetica,sans-Serif" font-size="10.00">/LinearViscoelasticPowerLaw.cpp</text>
</a>
</g>
</g>
<!-- Node1&#45;&gt;Node8 -->
<g id="edge7" class="edge">
<title>Node1&#45;&gt;Node8</title>
<path fill="none" stroke="midnightblue" d="M676.05,-80.41C746.84,-71.2 844.6,-57.49 930,-42 932.86,-41.48 935.78,-40.93 938.71,-40.37"/>
<polygon fill="midnightblue" stroke="midnightblue" points="675.28,-76.98 665.81,-81.73 676.17,-83.92 675.28,-76.98"/>
</g>
</g>
</svg>
        <g id="navigator" transform="translate(0 0)" fill="#404254">
                <rect fill="#f2f5e9" fill-opacity="0.5" stroke="#606060" stroke-width=".5" x="0" y="0" width="60" height="60"/>
                <use id="zoomplus" xlink:href="#zoomPlus" x="17" y="9" onmousedown="handleZoom(evt,'in')"/>
                <use id="zoomminus" xlink:href="#zoomMin" x="42" y="9" onmousedown="handleZoom(evt,'out')"/>
                <use id="reset" xlink:href="#resetDef" x="30" y="36" onmousedown="handleReset()"/>
                <g id="arrowUp" xlink:href="#dirArrow" transform="translate(30 24)" onmousedown="handlePan(0,-1)">
                  <use xlink:href="#rim" fill="#404040">
                        <set attributeName="fill" to="#808080" begin="arrowUp.mouseover" end="arrowUp.mouseout"/>
                  </use>
                  <path fill="none" stroke="white" stroke-width="1.5" d="M0,-3.0v7 M-2.5,-0.5L0,-3.0L2.5,-0.5"/>
                </g>
                <g id="arrowRight" xlink:href="#dirArrow" transform="rotate(90) translate(36 -43)" onmousedown="handlePan(1,0)">
                  <use xlink:href="#rim" fill="#404040">
                        <set attributeName="fill" to="#808080" begin="arrowRight.mouseover" end="arrowRight.mouseout"/>
                  </use>
                  <path fill="none" stroke="white" stroke-width="1.5" d="M0,-3.0v7 M-2.5,-0.5L0,-3.0L2.5,-0.5"/>
                </g>
                <g id="arrowDown" xlink:href="#dirArrow" transform="rotate(180) translate(-30 -48)" onmousedown="handlePan(0,1)">
                  <use xlink:href="#rim" fill="#404040">
                        <set attributeName="fill" to="#808080" begin="arrowDown.mouseover" end="arrowDown.mouseout"/>
                  </use>
                  <path fill="none" stroke="white" stroke-width="1.5" d="M0,-3.0v7 M-2.5,-0.5L0,-3.0L2.5,-0.5"/>
                </g>
                <g id="arrowLeft" xlink:href="#dirArrow" transform="rotate(270) translate(-36 17)" onmousedown="handlePan(-1,0)">
                  <use xlink:href="#rim" fill="#404040">
                        <set attributeName="fill" to="#808080" begin="arrowLeft.mouseover" end="arrowLeft.mouseout"/>
                  </use>
                  <path fill="none" stroke="white" stroke-width="1.5" d="M0,-3.0v7 M-2.5,-0.5L0,-3.0L2.5,-0.5"/>
                </g>
        </g>
        <svg viewBox="0 0 15 15" width="100%" height="30px" preserveAspectRatio="xMaxYMin meet">
         <g id="arrow_out" transform="scale(0.3 0.3)">
          <a xlink:href="MarmotUtility_8h__dep__incl_org.svg" target="_base">
           <rect id="button" ry="5" rx="5" y="6" x="6" height="38" width="38"
                fill="#f2f5e9" fill-opacity="0.5" stroke="#606060" stroke-width="1.0"/>
           <path id="arrow"
             d="M 11.500037,31.436501 C 11.940474,20.09759 22.043105,11.32322 32.158766,21.979434 L 37.068811,17.246167 C 37.068811,17.246167 37.088388,32 37.088388,32 L 22.160133,31.978069 C 22.160133,31.978069 26.997745,27.140456 26.997745,27.140456 C 18.528582,18.264221 13.291696,25.230495 11.500037,31.436501 z"
             style="fill:#404040;"/>
          </a>
         </g>
        </svg>
</svg>
