<?xml version="1.0" encoding="UTF-8" standalone="no"?>
<!DOCTYPE svg PUBLIC "-//W3C//DTD SVG 1.1//EN"
 "http://www.w3.org/Graphics/SVG/1.1/DTD/svg11.dtd">
<!-- Generated by graphviz version 2.44.0 ()
 -->
<!-- Title: modules/core/MarmotMechanicsCore/src/MarmotMaterialHypoElastic.cpp Pages: 1 -->
<!--zoomable 352 -->
<svg id="main" version="1.1" xmlns="http://www.w3.org/2000/svg" xmlns:xlink="http://www.w3.org/1999/xlink" xml:space="preserve" onload="init(evt)">
<style type="text/css"><![CDATA[
.edge:hover path { stroke: red; }
.edge:hover polygon { stroke: red; fill: red; }
]]></style>
<script type="text/javascript"><![CDATA[
var edges = document.getElementsByTagName('g');
if (edges && edges.length) {
  for (var i=0;i<edges.length;i++) {
    if (edges[i].id.substr(0,4)=='edge') {
      edges[i].setAttribute('class','edge');
    }
  }
}
]]></script>
        <defs>
                <circle id="rim" cx="0" cy="0" r="7"/>
                <circle id="rim2" cx="0" cy="0" r="3.5"/>
                <g id="zoomPlus">
                        <use xlink:href="#rim" fill="#404040">
                                <set attributeName="fill" to="#808080" begin="zoomplus.mouseover" end="zoomplus.mouseout"/>
                        </use>
                        <path d="M-4,0h8M0,-4v8" fill="none" stroke="white" stroke-width="1.5" pointer-events="none"/>
                </g>
                <g id="zoomMin">
                        <use xlink:href="#rim" fill="#404040">
                                <set attributeName="fill" to="#808080" begin="zoomminus.mouseover" end="zoomminus.mouseout"/>
                        </use>
                        <path d="M-4,0h8" fill="none" stroke="white" stroke-width="1.5" pointer-events="none"/>
                </g>
                <g id="dirArrow">
                        <path fill="none" stroke="white" stroke-width="1.5" d="M0,-3.0v7 M-2.5,-0.5L0,-3.0L2.5,-0.5"/>
                </g>
               <g id="resetDef">
                       <use xlink:href="#rim2" fill="#404040">
                               <set attributeName="fill" to="#808080" begin="reset.mouseover" end="reset.mouseout"/>
                       </use>
               </g>
        </defs>

<script type="text/javascript">
var viewWidth = 1300;
var viewHeight = 352;
var sectionId = 'dynsection-0';
</script>
<script xlink:href="svgpan.js"/>
<svg id="graph" class="graph">
<g id="viewport">
<title>modules/core/MarmotMechanicsCore/src/MarmotMaterialHypoElastic.cpp</title>
<polygon fill="white" stroke="transparent" points="-4,4 -4,-348 1296,-348 1296,4 -4,4"/>
<!-- Node1 -->
<g id="node1" class="node">
<title>Node1</title>
<g id="a_node1"><a xlink:title=" ">
<polygon fill="#bfbfbf" stroke="black" points="377.5,-313.5 377.5,-343.5 571.5,-343.5 571.5,-313.5 377.5,-313.5"/>
<text text-anchor="start" x="385.5" y="-331.5" font-family="Helvetica,sans-Serif" font-size="10.00">modules/core/MarmotMechanics</text>
<text text-anchor="middle" x="474.5" y="-320.5" font-family="Helvetica,sans-Serif" font-size="10.00">Core/src/MarmotMaterialHypoElastic.cpp</text>
</a>
</g>
</g>
<!-- Node2 -->
<g id="node2" class="node">
<title>Node2</title>
<g id="a_node2"><a xlink:href="MarmotMaterialHypoElastic_8h.html" target="_top" xlink:title=" ">
<polygon fill="white" stroke="black" points="25,-246.5 25,-276.5 168,-276.5 168,-246.5 25,-246.5"/>
<text text-anchor="start" x="33" y="-264.5" font-family="Helvetica,sans-Serif" font-size="10.00">Marmot/MarmotMaterialHypo</text>
<text text-anchor="middle" x="96.5" y="-253.5" font-family="Helvetica,sans-Serif" font-size="10.00">Elastic.h</text>
</a>
</g>
</g>
<!-- Node1&#45;&gt;Node2 -->
<g id="edge1" class="edge">
<title>Node1&#45;&gt;Node2</title>
<path fill="none" stroke="midnightblue" d="M392.95,-313.48C329.39,-302.55 241.56,-287.44 178.02,-276.52"/>
<polygon fill="midnightblue" stroke="midnightblue" points="178.48,-273.05 168.03,-274.8 177.3,-279.95 178.48,-273.05"/>
</g>
<!-- Node7 -->
<g id="node7" class="node">
<title>Node7</title>
<g id="a_node7"><a xlink:href="HughesWinget_8h.html" target="_top" xlink:title=" ">
<polygon fill="white" stroke="black" points="412.5,-252 412.5,-271 536.5,-271 536.5,-252 412.5,-252"/>
<text text-anchor="middle" x="474.5" y="-259" font-family="Helvetica,sans-Serif" font-size="10.00">Marmot/HughesWinget.h</text>
</a>
</g>
</g>
<!-- Node1&#45;&gt;Node7 -->
<g id="edge6" class="edge">
<title>Node1&#45;&gt;Node7</title>
<path fill="none" stroke="midnightblue" d="M474.5,-313.4C474.5,-304.06 474.5,-291.71 474.5,-281.52"/>
<polygon fill="midnightblue" stroke="midnightblue" points="478,-281.19 474.5,-271.19 471,-281.19 478,-281.19"/>
</g>
<!-- Node8 -->
<g id="node8" class="node">
<title>Node8</title>
<g id="a_node8"><a xlink:href="MarmotVoigt_8h.html" target="_top" xlink:title=" ">
<polygon fill="white" stroke="black" points="518.5,-190.5 518.5,-209.5 634.5,-209.5 634.5,-190.5 518.5,-190.5"/>
<text text-anchor="middle" x="576.5" y="-197.5" font-family="Helvetica,sans-Serif" font-size="10.00">Marmot/MarmotVoigt.h</text>
</a>
</g>
</g>
<!-- Node1&#45;&gt;Node8 -->
<g id="edge38" class="edge">
<title>Node1&#45;&gt;Node8</title>
<path fill="none" stroke="midnightblue" d="M571.77,-320.83C635.06,-314.23 709.45,-301.41 729.5,-277 758.39,-241.83 697.67,-221.52 644.39,-210.89"/>
<polygon fill="midnightblue" stroke="midnightblue" points="645.03,-207.44 634.55,-209.01 643.72,-214.32 645.03,-207.44"/>
</g>
<!-- Node9 -->
<g id="node9" class="node">
<title>Node9</title>
<g id="a_node9"><a xlink:href="MarmotJournal_8h.html" target="_top" xlink:title=" ">
<polygon fill="white" stroke="black" points="267,-134.5 267,-153.5 392,-153.5 392,-134.5 267,-134.5"/>
<text text-anchor="middle" x="329.5" y="-141.5" font-family="Helvetica,sans-Serif" font-size="10.00">Marmot/MarmotJournal.h</text>
</a>
</g>
</g>
<!-- Node1&#45;&gt;Node9 -->
<g id="edge25" class="edge">
<title>Node1&#45;&gt;Node9</title>
<path fill="none" stroke="midnightblue" d="M377.28,-316.23C328.39,-308.36 276.38,-295.82 261.5,-277 237.52,-246.67 243.2,-224.06 261.5,-190 269.12,-175.82 283.4,-165.35 296.91,-158.1"/>
<polygon fill="midnightblue" stroke="midnightblue" points="298.63,-161.16 306.05,-153.59 295.53,-154.88 298.63,-161.16"/>
</g>
<!-- Node10 -->
<g id="node10" class="node">
<title>Node10</title>
<g id="a_node10"><a xlink:title=" ">
<polygon fill="white" stroke="#bfbfbf" points="230.5,-73 230.5,-92 284.5,-92 284.5,-73 230.5,-73"/>
<text text-anchor="middle" x="257.5" y="-80" font-family="Helvetica,sans-Serif" font-size="10.00">iostream</text>
</a>
</g>
</g>
<!-- Node1&#45;&gt;Node10 -->
<g id="edge39" class="edge">
<title>Node1&#45;&gt;Node10</title>
<path fill="none" stroke="midnightblue" d="M377.2,-318.51C321.65,-311.14 259.7,-298.35 242.5,-277 200.76,-225.2 232.33,-138.2 248.95,-101.11"/>
<polygon fill="midnightblue" stroke="midnightblue" points="252.13,-102.59 253.17,-92.05 245.78,-99.63 252.13,-102.59"/>
</g>
<!-- Node12 -->
<g id="node12" class="node">
<title>Node12</title>
<g id="a_node12"><a xlink:href="MarmotMath_8h.html" target="_top" xlink:title=" ">
<polygon fill="white" stroke="black" points="889,-134.5 889,-153.5 1004,-153.5 1004,-134.5 889,-134.5"/>
<text text-anchor="middle" x="946.5" y="-141.5" font-family="Helvetica,sans-Serif" font-size="10.00">Marmot/MarmotMath.h</text>
</a>
</g>
</g>
<!-- Node1&#45;&gt;Node12 -->
<g id="edge32" class="edge">
<title>Node1&#45;&gt;Node12</title>
<path fill="none" stroke="midnightblue" d="M571.7,-322.91C697.17,-316.05 902.45,-301.26 927.5,-277 958.04,-247.42 954.54,-192.36 950.13,-163.59"/>
<polygon fill="midnightblue" stroke="midnightblue" points="953.56,-162.9 948.39,-153.65 946.66,-164.1 953.56,-162.9"/>
</g>
<!-- Node24 -->
<g id="node24" class="node">
<title>Node24</title>
<g id="a_node24"><a xlink:href="MarmotKinematics_8h.html" target="_top" xlink:title=" ">
<polygon fill="white" stroke="black" points="776.5,-252 776.5,-271 918.5,-271 918.5,-252 776.5,-252"/>
<text text-anchor="middle" x="847.5" y="-259" font-family="Helvetica,sans-Serif" font-size="10.00">Marmot/MarmotKinematics.h</text>
</a>
</g>
</g>
<!-- Node1&#45;&gt;Node24 -->
<g id="edge26" class="edge">
<title>Node1&#45;&gt;Node24</title>
<path fill="none" stroke="midnightblue" d="M554.98,-313.48C625.17,-301.24 725.37,-283.78 788.39,-272.8"/>
<polygon fill="midnightblue" stroke="midnightblue" points="789.31,-276.19 798.56,-271.03 788.11,-269.3 789.31,-276.19"/>
</g>
<!-- Node25 -->
<g id="node25" class="node">
<title>Node25</title>
<g id="a_node25"><a xlink:href="MarmotLowerDimensionalStress_8h.html" target="_top" xlink:title=" ">
<polygon fill="white" stroke="black" points="554.5,-246.5 554.5,-276.5 720.5,-276.5 720.5,-246.5 554.5,-246.5"/>
<text text-anchor="start" x="562.5" y="-264.5" font-family="Helvetica,sans-Serif" font-size="10.00">Marmot/MarmotLowerDimensional</text>
<text text-anchor="middle" x="637.5" y="-253.5" font-family="Helvetica,sans-Serif" font-size="10.00">Stress.h</text>
</a>
</g>
</g>
<!-- Node1&#45;&gt;Node25 -->
<g id="edge30" class="edge">
<title>Node1&#45;&gt;Node25</title>
<path fill="none" stroke="midnightblue" d="M509.87,-313.4C534.22,-303.69 566.76,-290.71 592.89,-280.29"/>
<polygon fill="midnightblue" stroke="midnightblue" points="594.21,-283.53 602.2,-276.58 591.62,-277.03 594.21,-283.53"/>
</g>
<!-- Node26 -->
<g id="node26" class="node">
<title>Node26</title>
<g id="a_node26"><a xlink:href="MarmotTensor_8h.html" target="_top" xlink:title=" ">
<polygon fill="white" stroke="black" points="271,-252 271,-271 394,-271 394,-252 271,-252"/>
<text text-anchor="middle" x="332.5" y="-259" font-family="Helvetica,sans-Serif" font-size="10.00">Marmot/MarmotTensor.h</text>
</a>
</g>
</g>
<!-- Node1&#45;&gt;Node26 -->
<g id="edge33" class="edge">
<title>Node1&#45;&gt;Node26</title>
<path fill="none" stroke="midnightblue" d="M443.69,-313.4C418.88,-302.04 384.32,-286.22 360.34,-275.24"/>
<polygon fill="midnightblue" stroke="midnightblue" points="361.63,-271.99 351.08,-271.01 358.72,-278.35 361.63,-271.99"/>
</g>
<!-- Node3 -->
<g id="node3" class="node">
<title>Node3</title>
<g id="a_node3"><a xlink:href="MarmotMaterialMechanical_8h.html" target="_top" xlink:title=" ">
<polygon fill="white" stroke="black" points="0,-190.5 0,-209.5 177,-209.5 177,-190.5 0,-190.5"/>
<text text-anchor="middle" x="88.5" y="-197.5" font-family="Helvetica,sans-Serif" font-size="10.00">Marmot/MarmotMaterialMechanical.h</text>
</a>
</g>
</g>
<!-- Node2&#45;&gt;Node3 -->
<g id="edge2" class="edge">
<title>Node2&#45;&gt;Node3</title>
<path fill="none" stroke="midnightblue" d="M94.6,-246.4C93.53,-238.38 92.16,-228.23 91,-219.57"/>
<polygon fill="midnightblue" stroke="midnightblue" points="94.47,-219.1 89.66,-209.66 87.53,-220.04 94.47,-219.1"/>
</g>
<!-- Node4 -->
<g id="node4" class="node">
<title>Node4</title>
<g id="a_node4"><a xlink:href="MarmotMaterial_8h.html" target="_top" xlink:title=" ">
<polygon fill="white" stroke="black" points="26.5,-134.5 26.5,-153.5 154.5,-153.5 154.5,-134.5 26.5,-134.5"/>
<text text-anchor="middle" x="90.5" y="-141.5" font-family="Helvetica,sans-Serif" font-size="10.00">Marmot/MarmotMaterial.h</text>
</a>
</g>
</g>
<!-- Node3&#45;&gt;Node4 -->
<g id="edge3" class="edge">
<title>Node3&#45;&gt;Node4</title>
<path fill="none" stroke="midnightblue" d="M88.83,-190.08C89.09,-183.01 89.47,-172.86 89.8,-163.99"/>
<polygon fill="midnightblue" stroke="midnightblue" points="93.3,-163.87 90.18,-153.75 86.31,-163.61 93.3,-163.87"/>
</g>
<!-- Node5 -->
<g id="node5" class="node">
<title>Node5</title>
<g id="a_node5"><a xlink:href="MarmotUtils_8h.html" target="_top" xlink:title=" ">
<polygon fill="white" stroke="black" points="34,-73 34,-92 147,-92 147,-73 34,-73"/>
<text text-anchor="middle" x="90.5" y="-80" font-family="Helvetica,sans-Serif" font-size="10.00">Marmot/MarmotUtils.h</text>
</a>
</g>
</g>
<!-- Node4&#45;&gt;Node5 -->
<g id="edge4" class="edge">
<title>Node4&#45;&gt;Node5</title>
<path fill="none" stroke="midnightblue" d="M90.5,-134.48C90.5,-126.08 90.5,-112.98 90.5,-102.16"/>
<polygon fill="midnightblue" stroke="midnightblue" points="94,-102.01 90.5,-92.01 87,-102.01 94,-102.01"/>
</g>
<!-- Node6 -->
<g id="node6" class="node">
<title>Node6</title>
<g id="a_node6"><a xlink:title=" ">
<polygon fill="white" stroke="#bfbfbf" points="169,-73 169,-92 210,-92 210,-73 169,-73"/>
<text text-anchor="middle" x="189.5" y="-80" font-family="Helvetica,sans-Serif" font-size="10.00">string</text>
</a>
</g>
</g>
<!-- Node4&#45;&gt;Node6 -->
<g id="edge5" class="edge">
<title>Node4&#45;&gt;Node6</title>
<path fill="none" stroke="midnightblue" d="M104.68,-134.48C120.86,-124.75 147.53,-108.73 166.64,-97.24"/>
<polygon fill="midnightblue" stroke="midnightblue" points="168.57,-100.16 175.34,-92.01 164.97,-94.16 168.57,-100.16"/>
</g>
<!-- Node7&#45;&gt;Node8 -->
<g id="edge7" class="edge">
<title>Node7&#45;&gt;Node8</title>
<path fill="none" stroke="midnightblue" d="M489.11,-251.98C505.85,-242.21 533.5,-226.08 553.22,-214.58"/>
<polygon fill="midnightblue" stroke="midnightblue" points="555.04,-217.57 561.91,-209.51 551.51,-211.52 555.04,-217.57"/>
</g>
<!-- Node8&#45;&gt;Node9 -->
<g id="edge8" class="edge">
<title>Node8&#45;&gt;Node9</title>
<path fill="none" stroke="midnightblue" d="M537.36,-190.44C494.27,-181.02 424.94,-165.87 378.33,-155.68"/>
<polygon fill="midnightblue" stroke="midnightblue" points="378.97,-152.23 368.45,-153.52 377.48,-159.07 378.97,-152.23"/>
</g>
<!-- Node8&#45;&gt;Node12 -->
<g id="edge12" class="edge">
<title>Node8&#45;&gt;Node12</title>
<path fill="none" stroke="midnightblue" d="M634.72,-190.5C700.96,-180.84 808.98,-165.07 878.9,-154.87"/>
<polygon fill="midnightblue" stroke="midnightblue" points="879.53,-158.31 888.92,-153.4 878.52,-151.38 879.53,-158.31"/>
</g>
<!-- Node15 -->
<g id="node15" class="node">
<title>Node15</title>
<g id="a_node15"><a xlink:href="MarmotTypedefs_8h.html" target="_top" xlink:title=" ">
<polygon fill="white" stroke="black" points="458,-73 458,-92 591,-92 591,-73 458,-73"/>
<text text-anchor="middle" x="524.5" y="-80" font-family="Helvetica,sans-Serif" font-size="10.00">Marmot/MarmotTypedefs.h</text>
</a>
</g>
</g>
<!-- Node8&#45;&gt;Node15 -->
<g id="edge24" class="edge">
<title>Node8&#45;&gt;Node15</title>
<path fill="none" stroke="midnightblue" d="M572.59,-190.32C564.12,-171.51 543.93,-126.65 532.58,-101.46"/>
<polygon fill="midnightblue" stroke="midnightblue" points="535.75,-99.96 528.45,-92.28 529.37,-102.84 535.75,-99.96"/>
</g>
<!-- Node9&#45;&gt;Node6 -->
<g id="edge11" class="edge">
<title>Node9&#45;&gt;Node6</title>
<path fill="none" stroke="midnightblue" d="M308.31,-134.4C286.48,-125.48 251.49,-111.04 221.5,-98 220.14,-97.41 218.74,-96.8 217.34,-96.17"/>
<polygon fill="midnightblue" stroke="midnightblue" points="218.63,-92.92 208.07,-92.03 215.77,-99.31 218.63,-92.92"/>
</g>
<!-- Node9&#45;&gt;Node10 -->
<g id="edge9" class="edge">
<title>Node9&#45;&gt;Node10</title>
<path fill="none" stroke="midnightblue" d="M319.18,-134.48C307.85,-125.11 289.43,-109.88 275.66,-98.51"/>
<polygon fill="midnightblue" stroke="midnightblue" points="277.73,-95.68 267.8,-92.01 273.28,-101.08 277.73,-95.68"/>
</g>
<!-- Node11 -->
<g id="node11" class="node">
<title>Node11</title>
<g id="a_node11"><a xlink:title=" ">
<polygon fill="white" stroke="#bfbfbf" points="303.5,-73 303.5,-92 355.5,-92 355.5,-73 303.5,-73"/>
<text text-anchor="middle" x="329.5" y="-80" font-family="Helvetica,sans-Serif" font-size="10.00">sstream</text>
</a>
</g>
</g>
<!-- Node9&#45;&gt;Node11 -->
<g id="edge10" class="edge">
<title>Node9&#45;&gt;Node11</title>
<path fill="none" stroke="midnightblue" d="M329.5,-134.48C329.5,-126.08 329.5,-112.98 329.5,-102.16"/>
<polygon fill="midnightblue" stroke="midnightblue" points="333,-102.01 329.5,-92.01 326,-102.01 333,-102.01"/>
</g>
<!-- Node13 -->
<g id="node13" class="node">
<title>Node13</title>
<g id="a_node13"><a xlink:href="MarmotConstants_8h.html" target="_top" xlink:title=" ">
<polygon fill="white" stroke="black" points="609,-73 609,-92 746,-92 746,-73 609,-73"/>
<text text-anchor="middle" x="677.5" y="-80" font-family="Helvetica,sans-Serif" font-size="10.00">Marmot/MarmotConstants.h</text>
</a>
</g>
</g>
<!-- Node12&#45;&gt;Node13 -->
<g id="edge13" class="edge">
<title>Node12&#45;&gt;Node13</title>
<path fill="none" stroke="midnightblue" d="M907.96,-134.48C860.02,-123.87 778.14,-105.76 725.99,-94.22"/>
<polygon fill="midnightblue" stroke="midnightblue" points="726.49,-90.75 715.97,-92.01 724.98,-97.59 726.49,-90.75"/>
</g>
<!-- Node12&#45;&gt;Node15 -->
<g id="edge15" class="edge">
<title>Node12&#45;&gt;Node15</title>
<path fill="none" stroke="midnightblue" d="M888.8,-136.55C819.99,-128.62 701.58,-114.2 600.5,-98 592.85,-96.77 584.8,-95.37 576.9,-93.92"/>
<polygon fill="midnightblue" stroke="midnightblue" points="577.5,-90.47 567.03,-92.07 576.22,-97.35 577.5,-90.47"/>
</g>
<!-- Node19 -->
<g id="node19" class="node">
<title>Node19</title>
<g id="a_node19"><a xlink:title=" ">
<polygon fill="white" stroke="#bfbfbf" points="764.5,-73 764.5,-92 886.5,-92 886.5,-73 764.5,-73"/>
<text text-anchor="middle" x="825.5" y="-80" font-family="Helvetica,sans-Serif" font-size="10.00">autodiff/forward/dual.hpp</text>
</a>
</g>
</g>
<!-- Node12&#45;&gt;Node19 -->
<g id="edge19" class="edge">
<title>Node12&#45;&gt;Node19</title>
<path fill="none" stroke="midnightblue" d="M929.16,-134.48C908.95,-124.53 875.31,-107.99 851.86,-96.46"/>
<polygon fill="midnightblue" stroke="midnightblue" points="853.32,-93.28 842.8,-92.01 850.23,-99.56 853.32,-93.28"/>
</g>
<!-- Node20 -->
<g id="node20" class="node">
<title>Node20</title>
<g id="a_node20"><a xlink:title=" ">
<polygon fill="white" stroke="#bfbfbf" points="904.5,-73 904.5,-92 1024.5,-92 1024.5,-73 904.5,-73"/>
<text text-anchor="middle" x="964.5" y="-80" font-family="Helvetica,sans-Serif" font-size="10.00">autodiff/forward/real.hpp</text>
</a>
</g>
</g>
<!-- Node12&#45;&gt;Node20 -->
<g id="edge20" class="edge">
<title>Node12&#45;&gt;Node20</title>
<path fill="none" stroke="midnightblue" d="M949.08,-134.48C951.65,-125.99 955.67,-112.7 958.96,-101.82"/>
<polygon fill="midnightblue" stroke="midnightblue" points="962.38,-102.59 961.93,-92.01 955.68,-100.57 962.38,-102.59"/>
</g>
<!-- Node21 -->
<g id="node21" class="node">
<title>Node21</title>
<g id="a_node21"><a xlink:title=" ">
<polygon fill="white" stroke="#bfbfbf" points="1042.5,-73 1042.5,-92 1098.5,-92 1098.5,-73 1042.5,-73"/>
<text text-anchor="middle" x="1070.5" y="-80" font-family="Helvetica,sans-Serif" font-size="10.00">algorithm</text>
</a>
</g>
</g>
<!-- Node12&#45;&gt;Node21 -->
<g id="edge21" class="edge">
<title>Node12&#45;&gt;Node21</title>
<path fill="none" stroke="midnightblue" d="M964.27,-134.48C984.98,-124.53 1019.45,-107.99 1043.49,-96.46"/>
<polygon fill="midnightblue" stroke="midnightblue" points="1045.27,-99.49 1052.77,-92.01 1042.24,-93.18 1045.27,-99.49"/>
</g>
<!-- Node22 -->
<g id="node22" class="node">
<title>Node22</title>
<g id="a_node22"><a xlink:title=" ">
<polygon fill="white" stroke="#bfbfbf" points="1116.5,-67.5 1116.5,-97.5 1220.5,-97.5 1220.5,-67.5 1116.5,-67.5"/>
<text text-anchor="start" x="1124.5" y="-85.5" font-family="Helvetica,sans-Serif" font-size="10.00">autodiff/forward/dual</text>
<text text-anchor="middle" x="1168.5" y="-74.5" font-family="Helvetica,sans-Serif" font-size="10.00">/dual.hpp</text>
</a>
</g>
</g>
<!-- Node12&#45;&gt;Node22 -->
<g id="edge22" class="edge">
<title>Node12&#45;&gt;Node22</title>
<path fill="none" stroke="midnightblue" d="M978.31,-134.48C1011.61,-125.55 1064.74,-111.31 1106.4,-100.14"/>
<polygon fill="midnightblue" stroke="midnightblue" points="1107.43,-103.49 1116.18,-97.52 1105.61,-96.73 1107.43,-103.49"/>
</g>
<!-- Node23 -->
<g id="node23" class="node">
<title>Node23</title>
<g id="a_node23"><a xlink:title=" ">
<polygon fill="white" stroke="#bfbfbf" points="1239,-73 1239,-92 1292,-92 1292,-73 1239,-73"/>
<text text-anchor="middle" x="1265.5" y="-80" font-family="Helvetica,sans-Serif" font-size="10.00">complex</text>
</a>
</g>
</g>
<!-- Node12&#45;&gt;Node23 -->
<g id="edge23" class="edge">
<title>Node12&#45;&gt;Node23</title>
<path fill="none" stroke="midnightblue" d="M1004.22,-137.67C1061.99,-131.44 1153.03,-119.19 1229.5,-98 1231.94,-97.32 1234.45,-96.53 1236.94,-95.67"/>
<polygon fill="midnightblue" stroke="midnightblue" points="1238.21,-98.93 1246.35,-92.14 1235.75,-92.38 1238.21,-98.93"/>
</g>
<!-- Node14 -->
<g id="node14" class="node">
<title>Node14</title>
<g id="a_node14"><a xlink:title=" ">
<polygon fill="white" stroke="#bfbfbf" points="691.5,-6 691.5,-25 735.5,-25 735.5,-6 691.5,-6"/>
<text text-anchor="middle" x="713.5" y="-13" font-family="Helvetica,sans-Serif" font-size="10.00">cmath</text>
</a>
</g>
</g>
<!-- Node13&#45;&gt;Node14 -->
<g id="edge14" class="edge">
<title>Node13&#45;&gt;Node14</title>
<path fill="none" stroke="midnightblue" d="M682.36,-72.73C687.81,-62.89 696.8,-46.66 703.72,-34.16"/>
<polygon fill="midnightblue" stroke="midnightblue" points="706.94,-35.57 708.72,-25.13 700.81,-32.18 706.94,-35.57"/>
</g>
<!-- Node16 -->
<g id="node16" class="node">
<title>Node16</title>
<g id="a_node16"><a xlink:title=" ">
<polygon fill="white" stroke="#bfbfbf" points="370.5,-6 370.5,-25 434.5,-25 434.5,-6 370.5,-6"/>
<text text-anchor="middle" x="402.5" y="-13" font-family="Helvetica,sans-Serif" font-size="10.00">Eigen/Core</text>
</a>
</g>
</g>
<!-- Node15&#45;&gt;Node16 -->
<g id="edge16" class="edge">
<title>Node15&#45;&gt;Node16</title>
<path fill="none" stroke="midnightblue" d="M508.3,-72.87C487.7,-61.89 451.91,-42.82 427.72,-29.94"/>
<polygon fill="midnightblue" stroke="midnightblue" points="429.24,-26.78 418.77,-25.17 425.95,-32.96 429.24,-26.78"/>
</g>
<!-- Node17 -->
<g id="node17" class="node">
<title>Node17</title>
<g id="a_node17"><a xlink:title=" ">
<polygon fill="white" stroke="#bfbfbf" points="453,-6 453,-25 524,-25 524,-6 453,-6"/>
<text text-anchor="middle" x="488.5" y="-13" font-family="Helvetica,sans-Serif" font-size="10.00">Eigen/Dense</text>
</a>
</g>
</g>
<!-- Node15&#45;&gt;Node17 -->
<g id="edge17" class="edge">
<title>Node15&#45;&gt;Node17</title>
<path fill="none" stroke="midnightblue" d="M519.64,-72.73C514.19,-62.89 505.2,-46.66 498.28,-34.16"/>
<polygon fill="midnightblue" stroke="midnightblue" points="501.19,-32.18 493.28,-25.13 495.06,-35.57 501.19,-32.18"/>
</g>
<!-- Node18 -->
<g id="node18" class="node">
<title>Node18</title>
<g id="a_node18"><a xlink:title=" ">
<polygon fill="white" stroke="#bfbfbf" points="542,-0.5 542,-30.5 673,-30.5 673,-0.5 542,-0.5"/>
<text text-anchor="start" x="550" y="-18.5" font-family="Helvetica,sans-Serif" font-size="10.00">unsupported/Eigen/CXX11</text>
<text text-anchor="middle" x="607.5" y="-7.5" font-family="Helvetica,sans-Serif" font-size="10.00">/Tensor</text>
</a>
</g>
</g>
<!-- Node15&#45;&gt;Node18 -->
<g id="edge18" class="edge">
<title>Node15&#45;&gt;Node18</title>
<path fill="none" stroke="midnightblue" d="M535.69,-72.73C547.34,-63.61 566,-49 581.37,-36.96"/>
<polygon fill="midnightblue" stroke="midnightblue" points="583.79,-39.51 589.51,-30.59 579.48,-34 583.79,-39.51"/>
</g>
<!-- Node24&#45;&gt;Node8 -->
<g id="edge29" class="edge">
<title>Node24&#45;&gt;Node8</title>
<path fill="none" stroke="midnightblue" d="M808.67,-251.98C760.38,-241.37 677.89,-223.26 625.35,-211.72"/>
<polygon fill="midnightblue" stroke="midnightblue" points="625.77,-208.24 615.26,-209.51 624.27,-215.07 625.77,-208.24"/>
</g>
<!-- Node24&#45;&gt;Node9 -->
<g id="edge27" class="edge">
<title>Node24&#45;&gt;Node9</title>
<path fill="none" stroke="midnightblue" d="M827.04,-251.97C790.72,-237.15 712.33,-206.67 643.5,-190 561.96,-170.26 466.26,-158.08 402.14,-151.45"/>
<polygon fill="midnightblue" stroke="midnightblue" points="402.43,-147.96 392.12,-150.43 401.72,-154.92 402.43,-147.96"/>
</g>
<!-- Node24&#45;&gt;Node15 -->
<g id="edge28" class="edge">
<title>Node24&#45;&gt;Node15</title>
<path fill="none" stroke="midnightblue" d="M831.92,-251.96C780.02,-223.52 612.69,-131.83 549.22,-97.05"/>
<polygon fill="midnightblue" stroke="midnightblue" points="550.75,-93.9 540.3,-92.16 547.39,-100.03 550.75,-93.9"/>
</g>
<!-- Node25&#45;&gt;Node8 -->
<g id="edge31" class="edge">
<title>Node25&#45;&gt;Node8</title>
<path fill="none" stroke="midnightblue" d="M623.04,-246.4C613.91,-237.49 602.08,-225.95 592.64,-216.74"/>
<polygon fill="midnightblue" stroke="midnightblue" points="594.98,-214.13 585.38,-209.66 590.09,-219.15 594.98,-214.13"/>
</g>
<!-- Node26&#45;&gt;Node8 -->
<g id="edge36" class="edge">
<title>Node26&#45;&gt;Node8</title>
<path fill="none" stroke="midnightblue" d="M367.46,-251.98C410.67,-241.44 484.29,-223.49 531.63,-211.94"/>
<polygon fill="midnightblue" stroke="midnightblue" points="532.72,-215.28 541.61,-209.51 531.06,-208.48 532.72,-215.28"/>
</g>
<!-- Node26&#45;&gt;Node9 -->
<g id="edge34" class="edge">
<title>Node26&#45;&gt;Node9</title>
<path fill="none" stroke="midnightblue" d="M332.27,-251.82C331.79,-233.26 330.65,-189.34 329.99,-163.97"/>
<polygon fill="midnightblue" stroke="midnightblue" points="333.49,-163.69 329.73,-153.78 326.49,-163.87 333.49,-163.69"/>
</g>
<!-- Node26&#45;&gt;Node15 -->
<g id="edge35" class="edge">
<title>Node26&#45;&gt;Node15</title>
<path fill="none" stroke="midnightblue" d="M341.76,-251.96C371.97,-224.11 467.98,-135.61 507.38,-99.29"/>
<polygon fill="midnightblue" stroke="midnightblue" points="509.9,-101.72 514.88,-92.37 505.16,-96.57 509.9,-101.72"/>
</g>
<!-- Node27 -->
<g id="node27" class="node">
<title>Node27</title>
<g id="a_node27"><a xlink:title=" ">
<polygon fill="white" stroke="#bfbfbf" points="271,-190.5 271,-209.5 310,-209.5 310,-190.5 271,-190.5"/>
<text text-anchor="middle" x="290.5" y="-197.5" font-family="Helvetica,sans-Serif" font-size="10.00">utility</text>
</a>
</g>
</g>
<!-- Node26&#45;&gt;Node27 -->
<g id="edge37" class="edge">
<title>Node26&#45;&gt;Node27</title>
<path fill="none" stroke="midnightblue" d="M326.48,-251.98C320.24,-243.14 310.33,-229.09 302.48,-217.98"/>
<polygon fill="midnightblue" stroke="midnightblue" points="305.13,-215.66 296.51,-209.51 299.41,-219.7 305.13,-215.66"/>
</g>
</g>
</svg>
        <g id="navigator" transform="translate(0 0)" fill="#404254">
                <rect fill="#f2f5e9" fill-opacity="0.5" stroke="#606060" stroke-width=".5" x="0" y="0" width="60" height="60"/>
                <use id="zoomplus" xlink:href="#zoomPlus" x="17" y="9" onmousedown="handleZoom(evt,'in')"/>
                <use id="zoomminus" xlink:href="#zoomMin" x="42" y="9" onmousedown="handleZoom(evt,'out')"/>
                <use id="reset" xlink:href="#resetDef" x="30" y="36" onmousedown="handleReset()"/>
                <g id="arrowUp" xlink:href="#dirArrow" transform="translate(30 24)" onmousedown="handlePan(0,-1)">
                  <use xlink:href="#rim" fill="#404040">
                        <set attributeName="fill" to="#808080" begin="arrowUp.mouseover" end="arrowUp.mouseout"/>
                  </use>
                  <path fill="none" stroke="white" stroke-width="1.5" d="M0,-3.0v7 M-2.5,-0.5L0,-3.0L2.5,-0.5"/>
                </g>
                <g id="arrowRight" xlink:href="#dirArrow" transform="rotate(90) translate(36 -43)" onmousedown="handlePan(1,0)">
                  <use xlink:href="#rim" fill="#404040">
                        <set attributeName="fill" to="#808080" begin="arrowRight.mouseover" end="arrowRight.mouseout"/>
                  </use>
                  <path fill="none" stroke="white" stroke-width="1.5" d="M0,-3.0v7 M-2.5,-0.5L0,-3.0L2.5,-0.5"/>
                </g>
                <g id="arrowDown" xlink:href="#dirArrow" transform="rotate(180) translate(-30 -48)" onmousedown="handlePan(0,1)">
                  <use xlink:href="#rim" fill="#404040">
                        <set attributeName="fill" to="#808080" begin="arrowDown.mouseover" end="arrowDown.mouseout"/>
                  </use>
                  <path fill="none" stroke="white" stroke-width="1.5" d="M0,-3.0v7 M-2.5,-0.5L0,-3.0L2.5,-0.5"/>
                </g>
                <g id="arrowLeft" xlink:href="#dirArrow" transform="rotate(270) translate(-36 17)" onmousedown="handlePan(-1,0)">
                  <use xlink:href="#rim" fill="#404040">
                        <set attributeName="fill" to="#808080" begin="arrowLeft.mouseover" end="arrowLeft.mouseout"/>
                  </use>
                  <path fill="none" stroke="white" stroke-width="1.5" d="M0,-3.0v7 M-2.5,-0.5L0,-3.0L2.5,-0.5"/>
                </g>
        </g>
        <svg viewBox="0 0 15 15" width="100%" height="30px" preserveAspectRatio="xMaxYMin meet">
         <g id="arrow_out" transform="scale(0.3 0.3)">
          <a xlink:href="MarmotMaterialHypoElastic_8cpp__incl_org.svg" target="_base">
           <rect id="button" ry="5" rx="5" y="6" x="6" height="38" width="38"
                fill="#f2f5e9" fill-opacity="0.5" stroke="#606060" stroke-width="1.0"/>
           <path id="arrow"
             d="M 11.500037,31.436501 C 11.940474,20.09759 22.043105,11.32322 32.158766,21.979434 L 37.068811,17.246167 C 37.068811,17.246167 37.088388,32 37.088388,32 L 22.160133,31.978069 C 22.160133,31.978069 26.997745,27.140456 26.997745,27.140456 C 18.528582,18.264221 13.291696,25.230495 11.500037,31.436501 z"
             style="fill:#404040;"/>
          </a>
         </g>
        </svg>
</svg>
