<?xml version="1.0" encoding="UTF-8" standalone="no"?>
<!DOCTYPE svg PUBLIC "-//W3C//DTD SVG 1.1//EN"
 "http://www.w3.org/Graphics/SVG/1.1/DTD/svg11.dtd">
<!-- Generated by graphviz version 2.44.0 ()
 -->
<!-- Title: modules/core/MarmotFiniteStrainMechanicsCore/include/Marmot/MarmotMaterialFiniteStrain.h Pages: 1 -->
<svg width="371pt" height="162pt"
 viewBox="0.00 0.00 371.00 162.00" xmlns="http://www.w3.org/2000/svg" xmlns:xlink="http://www.w3.org/1999/xlink">
<g id="graph0" class="graph" transform="scale(1 1) rotate(0) translate(4 158)">
<title>modules/core/MarmotFiniteStrainMechanicsCore/include/Marmot/MarmotMaterialFiniteStrain.h</title>
<polygon fill="white" stroke="transparent" points="-4,4 -4,-158 367,-158 367,4 -4,4"/>
<!-- Node1 -->
<g id="node1" class="node">
<title>Node1</title>
<g id="a_node1"><a xlink:title=" ">
<polygon fill="#bfbfbf" stroke="black" points="75.5,-112.5 75.5,-153.5 255.5,-153.5 255.5,-112.5 75.5,-112.5"/>
<text text-anchor="start" x="83.5" y="-141.5" font-family="Helvetica,sans-Serif" font-size="10.00">modules/core/MarmotFinite</text>
<text text-anchor="start" x="83.5" y="-130.5" font-family="Helvetica,sans-Serif" font-size="10.00">StrainMechanicsCore/include</text>
<text text-anchor="middle" x="165.5" y="-119.5" font-family="Helvetica,sans-Serif" font-size="10.00">/Marmot/MarmotMaterialFiniteStrain.h</text>
</a>
</g>
</g>
<!-- Node2 -->
<g id="node2" class="node">
<title>Node2</title>
<g id="a_node2"><a xlink:title=" ">
<polygon fill="white" stroke="#bfbfbf" points="0,-56.5 0,-75.5 83,-75.5 83,-56.5 0,-56.5"/>
<text text-anchor="middle" x="41.5" y="-63.5" font-family="Helvetica,sans-Serif" font-size="10.00">Fastor/Fastor.h</text>
</a>
</g>
</g>
<!-- Node1&#45;&gt;Node2 -->
<g id="edge1" class="edge">
<title>Node1&#45;&gt;Node2</title>
<path fill="none" stroke="midnightblue" d="M128.3,-112.5C108.55,-102.15 84.79,-89.69 67.13,-80.43"/>
<polygon fill="midnightblue" stroke="midnightblue" points="68.49,-77.2 58.01,-75.65 65.24,-83.4 68.49,-77.2"/>
</g>
<!-- Node3 -->
<g id="node3" class="node">
<title>Node3</title>
<g id="a_node3"><a xlink:href="MarmotMaterial_8h.html" target="_top" xlink:title=" ">
<polygon fill="white" stroke="black" points="101.5,-56.5 101.5,-75.5 229.5,-75.5 229.5,-56.5 101.5,-56.5"/>
<text text-anchor="middle" x="165.5" y="-63.5" font-family="Helvetica,sans-Serif" font-size="10.00">Marmot/MarmotMaterial.h</text>
</a>
</g>
</g>
<!-- Node1&#45;&gt;Node3 -->
<g id="edge2" class="edge">
<title>Node1&#45;&gt;Node3</title>
<path fill="none" stroke="midnightblue" d="M165.5,-112.5C165.5,-104.07 165.5,-94.24 165.5,-85.87"/>
<polygon fill="midnightblue" stroke="midnightblue" points="169,-85.65 165.5,-75.65 162,-85.65 169,-85.65"/>
</g>
<!-- Node6 -->
<g id="node6" class="node">
<title>Node6</title>
<g id="a_node6"><a xlink:title=" ">
<polygon fill="white" stroke="#bfbfbf" points="248,-56.5 248,-75.5 363,-75.5 363,-56.5 248,-56.5"/>
<text text-anchor="middle" x="305.5" y="-63.5" font-family="Helvetica,sans-Serif" font-size="10.00">Fastor/tensor/Tensor.h</text>
</a>
</g>
</g>
<!-- Node1&#45;&gt;Node6 -->
<g id="edge5" class="edge">
<title>Node1&#45;&gt;Node6</title>
<path fill="none" stroke="midnightblue" d="M207.5,-112.5C230.21,-101.96 257.61,-89.23 277.66,-79.92"/>
<polygon fill="midnightblue" stroke="midnightblue" points="279.27,-83.04 286.86,-75.65 276.32,-76.69 279.27,-83.04"/>
</g>
<!-- Node4 -->
<g id="node4" class="node">
<title>Node4</title>
<g id="a_node4"><a xlink:href="MarmotUtils_8h.html" target="_top" xlink:title=" ">
<polygon fill="white" stroke="black" points="61,-0.5 61,-19.5 174,-19.5 174,-0.5 61,-0.5"/>
<text text-anchor="middle" x="117.5" y="-7.5" font-family="Helvetica,sans-Serif" font-size="10.00">Marmot/MarmotUtils.h</text>
</a>
</g>
</g>
<!-- Node3&#45;&gt;Node4 -->
<g id="edge3" class="edge">
<title>Node3&#45;&gt;Node4</title>
<path fill="none" stroke="midnightblue" d="M157.57,-56.08C150.65,-48.3 140.43,-36.8 132.05,-27.37"/>
<polygon fill="midnightblue" stroke="midnightblue" points="134.54,-24.9 125.28,-19.75 129.31,-29.55 134.54,-24.9"/>
</g>
<!-- Node5 -->
<g id="node5" class="node">
<title>Node5</title>
<g id="a_node5"><a xlink:title=" ">
<polygon fill="white" stroke="#bfbfbf" points="192,-0.5 192,-19.5 233,-19.5 233,-0.5 192,-0.5"/>
<text text-anchor="middle" x="212.5" y="-7.5" font-family="Helvetica,sans-Serif" font-size="10.00">string</text>
</a>
</g>
</g>
<!-- Node3&#45;&gt;Node5 -->
<g id="edge4" class="edge">
<title>Node3&#45;&gt;Node5</title>
<path fill="none" stroke="midnightblue" d="M173.26,-56.08C180.04,-48.3 190.04,-36.8 198.26,-27.37"/>
<polygon fill="midnightblue" stroke="midnightblue" points="200.96,-29.59 204.88,-19.75 195.68,-25 200.96,-29.59"/>
</g>
</g>
</svg>
