<?xml version="1.0" encoding="UTF-8" standalone="no"?>
<!DOCTYPE svg PUBLIC "-//W3C//DTD SVG 1.1//EN"
 "http://www.w3.org/Graphics/SVG/1.1/DTD/svg11.dtd">
<!-- Generated by graphviz version 3.0.0 (20220413.0106)
 -->
<!-- Title: include/Marmot/MarmotJournal.h Pages: 1 -->
<!--zoomable 340 -->
<svg id="main" version="1.1" xmlns="http://www.w3.org/2000/svg" xmlns:xlink="http://www.w3.org/1999/xlink" xml:space="preserve" onload="init(evt)">
<style type="text/css"><![CDATA[
.edge:hover path { stroke: red; }
.edge:hover polygon { stroke: red; fill: red; }
]]></style>
<script type="text/javascript"><![CDATA[
var edges = document.getElementsByTagName('g');
if (edges && edges.length) {
  for (var i=0;i<edges.length;i++) {
    if (edges[i].id.substr(0,4)=='edge') {
      edges[i].setAttribute('class','edge');
    }
  }
}
]]></script>
        <defs>
                <circle id="rim" cx="0" cy="0" r="7"/>
                <circle id="rim2" cx="0" cy="0" r="3.5"/>
                <g id="zoomPlus">
                        <use xlink:href="#rim" fill="#404040">
                                <set attributeName="fill" to="#808080" begin="zoomplus.mouseover" end="zoomplus.mouseout"/>
                        </use>
                        <path d="M-4,0h8M0,-4v8" fill="none" stroke="white" stroke-width="1.5" pointer-events="none"/>
                </g>
                <g id="zoomMin">
                        <use xlink:href="#rim" fill="#404040">
                                <set attributeName="fill" to="#808080" begin="zoomminus.mouseover" end="zoomminus.mouseout"/>
                        </use>
                        <path d="M-4,0h8" fill="none" stroke="white" stroke-width="1.5" pointer-events="none"/>
                </g>
                <g id="dirArrow">
                        <path fill="none" stroke="white" stroke-width="1.5" d="M0,-3.0v7 M-2.5,-0.5L0,-3.0L2.5,-0.5"/>
                </g>
               <g id="resetDef">
                       <use xlink:href="#rim2" fill="#404040">
                               <set attributeName="fill" to="#808080" begin="reset.mouseover" end="reset.mouseout"/>
                       </use>
               </g>
        </defs>

<script type="text/javascript">
var viewWidth = 3550;
var viewHeight = 340;
var sectionId = 'dynsection-1';
</script>
<script xlink:href="svgpan.js"/>
<svg id="graph" class="graph">
<g id="viewport">
<title>include/Marmot/MarmotJournal.h</title>
<polygon fill="white" stroke="transparent" points="-4,4 -4,-336 3545.63,-336 3545.63,4 -4,4"/>
<!-- Node1 -->
<g id="node1" class="node">
<title>Node1</title>
<g id="a_node1"><a xlink:title=" ">
<polygon fill="#bfbfbf" stroke="black" points="2249.63,-312.5 2249.63,-331.5 2407.63,-331.5 2407.63,-312.5 2249.63,-312.5"/>
<text text-anchor="middle" x="2328.63" y="-319.5" font-family="Helvetica,sans-Serif" font-size="10.00">include/Marmot/MarmotJournal.h</text>
</a>
</g>
</g>
<!-- Node2 -->
<g id="node2" class="node">
<title>Node2</title>
<g id="a_node2"><a xlink:href="MarmotMathCore_2include_2Marmot_2MarmotTensor_8h.html" target="_top" xlink:title=" ">
<polygon fill="white" stroke="black" points="64.63,-162 64.63,-192 224.63,-192 224.63,-162 64.63,-162"/>
<text text-anchor="start" x="72.63" y="-180" font-family="Helvetica,sans-Serif" font-size="10.00">modules/core/MarmotMathCore</text>
<text text-anchor="middle" x="144.63" y="-169" font-family="Helvetica,sans-Serif" font-size="10.00">/include/Marmot/MarmotTensor.h</text>
</a>
</g>
</g>
<!-- Node1&#45;&gt;Node2 -->
<g id="edge1" class="edge">
<title>Node1&#45;&gt;Node2</title>
<path fill="none" stroke="midnightblue" d="M2239.21,-320.15C1894.35,-316.67 661.33,-302.5 487.63,-276 373.75,-258.63 244.29,-214.77 182,-192.08"/>
<polygon fill="midnightblue" stroke="midnightblue" points="2239.36,-323.65 2249.4,-320.25 2239.43,-316.65 2239.36,-323.65"/>
</g>
<!-- Node3 -->
<g id="node3" class="node">
<title>Node3</title>
<g id="a_node3"><a xlink:href="AdaptiveSubstepper_8h.html" target="_top" xlink:title=" ">
<polygon fill="white" stroke="black" points="2575.13,-240 2575.13,-270 2780.13,-270 2780.13,-240 2575.13,-240"/>
<text text-anchor="start" x="2583.13" y="-258" font-family="Helvetica,sans-Serif" font-size="10.00">modules/core/MarmotMechanics</text>
<text text-anchor="middle" x="2677.63" y="-247" font-family="Helvetica,sans-Serif" font-size="10.00">Core/include/Marmot/AdaptiveSubstepper.h</text>
</a>
</g>
</g>
<!-- Node1&#45;&gt;Node3 -->
<g id="edge2" class="edge">
<title>Node1&#45;&gt;Node3</title>
<path fill="none" stroke="midnightblue" d="M2384.49,-310.6C2443.43,-299.62 2536.68,-282.25 2602.14,-270.06"/>
<polygon fill="midnightblue" stroke="midnightblue" points="2383.8,-307.16 2374.61,-312.44 2385.09,-314.05 2383.8,-307.16"/>
</g>
<!-- Node4 -->
<g id="node4" class="node">
<title>Node4</title>
<g id="a_node4"><a xlink:href="AdaptiveSubstepperExplicit_8h.html" target="_top" xlink:title=" ">
<polygon fill="white" stroke="black" points="2798.13,-234.5 2798.13,-275.5 2995.13,-275.5 2995.13,-234.5 2798.13,-234.5"/>
<text text-anchor="start" x="2806.13" y="-263.5" font-family="Helvetica,sans-Serif" font-size="10.00">modules/core/MarmotMechanics</text>
<text text-anchor="start" x="2806.13" y="-252.5" font-family="Helvetica,sans-Serif" font-size="10.00">Core/include/Marmot/AdaptiveSubstepper</text>
<text text-anchor="middle" x="2896.63" y="-241.5" font-family="Helvetica,sans-Serif" font-size="10.00">Explicit.h</text>
</a>
</g>
</g>
<!-- Node1&#45;&gt;Node4 -->
<g id="edge3" class="edge">
<title>Node1&#45;&gt;Node4</title>
<path fill="none" stroke="midnightblue" d="M2418.23,-314.59C2511.33,-307.38 2661.09,-294.25 2789.63,-276 2792.34,-275.61 2795.09,-275.21 2797.86,-274.79"/>
<polygon fill="midnightblue" stroke="midnightblue" points="2417.71,-311.12 2408.01,-315.37 2418.25,-318.1 2417.71,-311.12"/>
</g>
<!-- Node5 -->
<g id="node5" class="node">
<title>Node5</title>
<g id="a_node5"><a xlink:href="MarmotKinematics_8h.html" target="_top" xlink:title=" ">
<polygon fill="white" stroke="black" points="479.13,-162 479.13,-192 678.13,-192 678.13,-162 479.13,-162"/>
<text text-anchor="start" x="487.13" y="-180" font-family="Helvetica,sans-Serif" font-size="10.00">modules/core/MarmotMechanics</text>
<text text-anchor="middle" x="578.63" y="-169" font-family="Helvetica,sans-Serif" font-size="10.00">Core/include/Marmot/MarmotKinematics.h</text>
</a>
</g>
</g>
<!-- Node1&#45;&gt;Node5 -->
<g id="edge4" class="edge">
<title>Node1&#45;&gt;Node5</title>
<path fill="none" stroke="midnightblue" d="M2239.1,-321.29C1923.58,-321.91 874.52,-320.57 730.63,-276 674.84,-258.72 619.88,-214.82 594,-192.1"/>
<polygon fill="midnightblue" stroke="midnightblue" points="2239.58,-324.79 2249.57,-321.26 2239.56,-317.79 2239.58,-324.79"/>
</g>
<!-- Node8 -->
<g id="node8" class="node">
<title>Node8</title>
<g id="a_node8"><a xlink:href="MarmotMaterialHyperElastic_8cpp.html" target="_top" xlink:title=" ">
<polygon fill="white" stroke="black" points="99.13,-84 99.13,-114 296.13,-114 296.13,-84 99.13,-84"/>
<text text-anchor="start" x="107.13" y="-102" font-family="Helvetica,sans-Serif" font-size="10.00">modules/core/MarmotMechanics</text>
<text text-anchor="middle" x="197.63" y="-91" font-family="Helvetica,sans-Serif" font-size="10.00">Core/src/MarmotMaterialHyperElastic.cpp</text>
</a>
</g>
</g>
<!-- Node1&#45;&gt;Node8 -->
<g id="edge41" class="edge">
<title>Node1&#45;&gt;Node8</title>
<path fill="none" stroke="midnightblue" d="M2239.32,-321.15C1834.3,-321.56 185.44,-320.48 85.63,-276 28.61,-250.59 -24.57,-206.13 12.63,-156 32.93,-128.65 66.21,-114.18 98.99,-106.68"/>
<polygon fill="midnightblue" stroke="midnightblue" points="2239.52,-324.65 2249.51,-321.13 2239.51,-317.65 2239.52,-324.65"/>
</g>
<!-- Node9 -->
<g id="node9" class="node">
<title>Node9</title>
<g id="a_node9"><a xlink:href="MarmotMaterialHypoElastic_8cpp.html" target="_top" xlink:title=" ">
<polygon fill="white" stroke="black" points="684.63,-84 684.63,-114 878.63,-114 878.63,-84 684.63,-84"/>
<text text-anchor="start" x="692.63" y="-102" font-family="Helvetica,sans-Serif" font-size="10.00">modules/core/MarmotMechanics</text>
<text text-anchor="middle" x="781.63" y="-91" font-family="Helvetica,sans-Serif" font-size="10.00">Core/src/MarmotMaterialHypoElastic.cpp</text>
</a>
</g>
</g>
<!-- Node1&#45;&gt;Node9 -->
<g id="edge42" class="edge">
<title>Node1&#45;&gt;Node9</title>
<path fill="none" stroke="midnightblue" d="M2239.24,-320.35C1991.63,-318.15 1300.38,-309.13 1075.63,-276 940.61,-256.1 861.98,-306.07 778.63,-198 759.81,-173.6 769.1,-134.72 776.16,-114.02"/>
<polygon fill="midnightblue" stroke="midnightblue" points="2239.25,-323.85 2249.28,-320.44 2239.31,-316.85 2239.25,-323.85"/>
</g>
<!-- Node10 -->
<g id="node10" class="node">
<title>Node10</title>
<g id="a_node10"><a xlink:href="MarmotMaterialHypoElasticNonLocal_8cpp.html" target="_top" xlink:title=" ">
<polygon fill="white" stroke="black" points="490.63,-78.5 490.63,-119.5 666.63,-119.5 666.63,-78.5 490.63,-78.5"/>
<text text-anchor="start" x="498.63" y="-107.5" font-family="Helvetica,sans-Serif" font-size="10.00">modules/core/MarmotMechanics</text>
<text text-anchor="start" x="498.63" y="-96.5" font-family="Helvetica,sans-Serif" font-size="10.00">Core/src/MarmotMaterialHypoElastic</text>
<text text-anchor="middle" x="578.63" y="-85.5" font-family="Helvetica,sans-Serif" font-size="10.00">NonLocal.cpp</text>
</a>
</g>
</g>
<!-- Node1&#45;&gt;Node10 -->
<g id="edge43" class="edge">
<title>Node1&#45;&gt;Node10</title>
<path fill="none" stroke="midnightblue" d="M2239.11,-320.43C1873.64,-317.9 504.98,-306.48 313.63,-276 195.33,-257.16 127.03,-294.18 55.63,-198 -27.99,-85.37 -76.2,-200.79 481.63,-120 484.52,-119.58 487.46,-119.13 490.42,-118.65"/>
<polygon fill="midnightblue" stroke="midnightblue" points="2239.35,-323.93 2249.37,-320.5 2239.39,-316.93 2239.35,-323.93"/>
</g>
<!-- Node11 -->
<g id="node11" class="node">
<title>Node11</title>
<g id="a_node11"><a xlink:href="MarmotMechanicsCore_2include_2Marmot_2MarmotTensor_8h.html" target="_top" xlink:title=" ">
<polygon fill="white" stroke="black" points="242.63,-162 242.63,-192 422.63,-192 422.63,-162 242.63,-162"/>
<text text-anchor="start" x="250.63" y="-180" font-family="Helvetica,sans-Serif" font-size="10.00">modules/core/MarmotMechanics</text>
<text text-anchor="middle" x="332.63" y="-169" font-family="Helvetica,sans-Serif" font-size="10.00">Core/include/Marmot/MarmotTensor.h</text>
</a>
</g>
</g>
<!-- Node1&#45;&gt;Node11 -->
<g id="edge10" class="edge">
<title>Node1&#45;&gt;Node11</title>
<path fill="none" stroke="midnightblue" d="M2239.25,-320.04C1914.18,-316.34 805.57,-301.93 648.63,-276 543.22,-258.58 424.17,-214.74 366.95,-192.07"/>
<polygon fill="midnightblue" stroke="midnightblue" points="2239.52,-323.54 2249.56,-320.15 2239.6,-316.54 2239.52,-323.54"/>
</g>
<!-- Node12 -->
<g id="node12" class="node">
<title>Node12</title>
<g id="a_node12"><a xlink:href="MarmotVoigt_8h.html" target="_top" xlink:title=" ">
<polygon fill="white" stroke="black" points="1085.13,-240 1085.13,-270 1258.13,-270 1258.13,-240 1085.13,-240"/>
<text text-anchor="start" x="1093.13" y="-258" font-family="Helvetica,sans-Serif" font-size="10.00">modules/core/MarmotMechanics</text>
<text text-anchor="middle" x="1171.63" y="-247" font-family="Helvetica,sans-Serif" font-size="10.00">Core/include/Marmot/MarmotVoigt.h</text>
</a>
</g>
</g>
<!-- Node1&#45;&gt;Node12 -->
<g id="edge11" class="edge">
<title>Node1&#45;&gt;Node12</title>
<path fill="none" stroke="midnightblue" d="M2239.51,-315.99C2023.19,-303.84 1472.39,-272.9 1258.45,-260.88"/>
<polygon fill="midnightblue" stroke="midnightblue" points="2239.38,-319.49 2249.56,-316.56 2239.77,-312.5 2239.38,-319.49"/>
</g>
<!-- Node17 -->
<g id="node17" class="node">
<title>Node17</title>
<g id="a_node17"><a xlink:href="LinearElastic_8cpp.html" target="_top" xlink:title=" ">
<polygon fill="white" stroke="black" points="2014.63,-84 2014.63,-114 2154.63,-114 2154.63,-84 2014.63,-84"/>
<text text-anchor="start" x="2022.63" y="-102" font-family="Helvetica,sans-Serif" font-size="10.00">modules/materials/Linear</text>
<text text-anchor="middle" x="2084.63" y="-91" font-family="Helvetica,sans-Serif" font-size="10.00">Elastic/src/LinearElastic.cpp</text>
</a>
</g>
</g>
<!-- Node1&#45;&gt;Node17 -->
<g id="edge47" class="edge">
<title>Node1&#45;&gt;Node17</title>
<path fill="none" stroke="midnightblue" d="M2417.69,-311.12C2462.07,-304.18 2509.11,-293.02 2522.63,-276 2555.81,-234.24 2557.87,-196.03 2522.63,-156 2498.76,-128.88 2272.57,-111.34 2154.95,-103.97"/>
<polygon fill="midnightblue" stroke="midnightblue" points="2417.06,-307.68 2407.69,-312.63 2418.1,-314.6 2417.06,-307.68"/>
</g>
<!-- Node20 -->
<g id="node20" class="node">
<title>Node20</title>
<g id="a_node20"><a xlink:href="DisplacementFiniteElement_8h.html" target="_top" xlink:title=" ">
<polygon fill="white" stroke="black" points="1260.63,-78.5 1260.63,-119.5 1418.63,-119.5 1418.63,-78.5 1260.63,-78.5"/>
<text text-anchor="start" x="1268.63" y="-107.5" font-family="Helvetica,sans-Serif" font-size="10.00">modules/elements/Displacement</text>
<text text-anchor="start" x="1268.63" y="-96.5" font-family="Helvetica,sans-Serif" font-size="10.00">FiniteElement/include/Marmot</text>
<text text-anchor="middle" x="1339.63" y="-85.5" font-family="Helvetica,sans-Serif" font-size="10.00">/DisplacementFiniteElement.h</text>
</a>
</g>
</g>
<!-- Node1&#45;&gt;Node20 -->
<g id="edge46" class="edge">
<title>Node1&#45;&gt;Node20</title>
<path fill="none" stroke="midnightblue" d="M2358.13,-308.24C2418.17,-280.63 2544.41,-213.25 2489.63,-156 2458.18,-123.14 1717.06,-122.37 1671.63,-120 1585.13,-115.49 1486.02,-109.4 1418.76,-105.13"/>
<polygon fill="midnightblue" stroke="midnightblue" points="2356.44,-305.16 2348.77,-312.47 2359.32,-311.54 2356.44,-305.16"/>
</g>
<!-- Node23 -->
<g id="node23" class="node">
<title>Node23</title>
<g id="a_node23"><a xlink:href="MarmotMaterialMechanical_8cpp.html" target="_top" xlink:title=" ">
<polygon fill="white" stroke="black" points="2113.13,-162 2113.13,-192 2304.13,-192 2304.13,-162 2113.13,-162"/>
<text text-anchor="start" x="2121.13" y="-180" font-family="Helvetica,sans-Serif" font-size="10.00">modules/core/MarmotMechanics</text>
<text text-anchor="middle" x="2208.63" y="-169" font-family="Helvetica,sans-Serif" font-size="10.00">Core/src/MarmotMaterialMechanical.cpp</text>
</a>
</g>
</g>
<!-- Node1&#45;&gt;Node23 -->
<g id="edge44" class="edge">
<title>Node1&#45;&gt;Node23</title>
<path fill="none" stroke="midnightblue" d="M2314.99,-304.75C2291.36,-276.58 2243.16,-219.15 2220.68,-192.36"/>
<polygon fill="midnightblue" stroke="midnightblue" points="2312.37,-307.07 2321.48,-312.48 2317.74,-302.57 2312.37,-307.07"/>
</g>
<!-- Node24 -->
<g id="node24" class="node">
<title>Node24</title>
<g id="a_node24"><a xlink:href="MarmotUtility_8cpp.html" target="_top" xlink:title=" ">
<polygon fill="white" stroke="black" points="2322.63,-162 2322.63,-192 2480.63,-192 2480.63,-162 2322.63,-162"/>
<text text-anchor="start" x="2330.63" y="-180" font-family="Helvetica,sans-Serif" font-size="10.00">modules/core/MarmotMechanics</text>
<text text-anchor="middle" x="2401.63" y="-169" font-family="Helvetica,sans-Serif" font-size="10.00">Core/src/MarmotUtility.cpp</text>
</a>
</g>
</g>
<!-- Node1&#45;&gt;Node24 -->
<g id="edge45" class="edge">
<title>Node1&#45;&gt;Node24</title>
<path fill="none" stroke="midnightblue" d="M2337.68,-303.27C2352.31,-274.61 2380.86,-218.69 2394.3,-192.36"/>
<polygon fill="midnightblue" stroke="midnightblue" points="2334.41,-301.98 2332.98,-312.48 2340.64,-305.17 2334.41,-301.98"/>
</g>
<!-- Node26 -->
<g id="node26" class="node">
<title>Node26</title>
<g id="a_node26"><a xlink:href="PerezFougetSubstepperExplicitMarkII_8h.html" target="_top" xlink:title=" ">
<polygon fill="white" stroke="black" points="3013.63,-234.5 3013.63,-275.5 3177.63,-275.5 3177.63,-234.5 3013.63,-234.5"/>
<text text-anchor="start" x="3021.63" y="-263.5" font-family="Helvetica,sans-Serif" font-size="10.00">modules/core/MarmotMechanics</text>
<text text-anchor="start" x="3021.63" y="-252.5" font-family="Helvetica,sans-Serif" font-size="10.00">Core/include/Marmot/PerezFouget</text>
<text text-anchor="middle" x="3095.63" y="-241.5" font-family="Helvetica,sans-Serif" font-size="10.00">SubstepperExplicitMarkII.h</text>
</a>
</g>
</g>
<!-- Node1&#45;&gt;Node26 -->
<g id="edge38" class="edge">
<title>Node1&#45;&gt;Node26</title>
<path fill="none" stroke="midnightblue" d="M2418.15,-319.3C2547.99,-315.88 2795.87,-305.72 3004.63,-276 3007.51,-275.59 3010.44,-275.14 3013.39,-274.65"/>
<polygon fill="midnightblue" stroke="midnightblue" points="2417.77,-315.81 2407.87,-319.57 2417.95,-322.81 2417.77,-315.81"/>
</g>
<!-- Node27 -->
<g id="node27" class="node">
<title>Node27</title>
<g id="a_node27"><a xlink:href="PerezFougetSubstepperMarkII_8h.html" target="_top" xlink:title=" ">
<polygon fill="white" stroke="black" points="3195.63,-234.5 3195.63,-275.5 3359.63,-275.5 3359.63,-234.5 3195.63,-234.5"/>
<text text-anchor="start" x="3203.63" y="-263.5" font-family="Helvetica,sans-Serif" font-size="10.00">modules/core/MarmotMechanics</text>
<text text-anchor="start" x="3203.63" y="-252.5" font-family="Helvetica,sans-Serif" font-size="10.00">Core/include/Marmot/PerezFouget</text>
<text text-anchor="middle" x="3277.63" y="-241.5" font-family="Helvetica,sans-Serif" font-size="10.00">SubstepperMarkII.h</text>
</a>
</g>
</g>
<!-- Node1&#45;&gt;Node27 -->
<g id="edge39" class="edge">
<title>Node1&#45;&gt;Node27</title>
<path fill="none" stroke="midnightblue" d="M2417.74,-321.12C2574.12,-320.27 2907.83,-313.69 3186.63,-276 3189.51,-275.61 3192.44,-275.18 3195.4,-274.71"/>
<polygon fill="midnightblue" stroke="midnightblue" points="2417.68,-317.62 2407.7,-321.17 2417.71,-324.62 2417.68,-317.62"/>
</g>
<!-- Node28 -->
<g id="node28" class="node">
<title>Node28</title>
<g id="a_node28"><a xlink:href="PerezFougetSubstepperTime_8h.html" target="_top" xlink:title=" ">
<polygon fill="white" stroke="black" points="3377.63,-234.5 3377.63,-275.5 3541.63,-275.5 3541.63,-234.5 3377.63,-234.5"/>
<text text-anchor="start" x="3385.63" y="-263.5" font-family="Helvetica,sans-Serif" font-size="10.00">modules/core/MarmotMechanics</text>
<text text-anchor="start" x="3385.63" y="-252.5" font-family="Helvetica,sans-Serif" font-size="10.00">Core/include/Marmot/PerezFouget</text>
<text text-anchor="middle" x="3459.63" y="-241.5" font-family="Helvetica,sans-Serif" font-size="10.00">SubstepperTime.h</text>
</a>
</g>
</g>
<!-- Node1&#45;&gt;Node28 -->
<g id="edge40" class="edge">
<title>Node1&#45;&gt;Node28</title>
<path fill="none" stroke="midnightblue" d="M2418.05,-319.12C2635.23,-314.23 3186.05,-299.83 3368.63,-276 3371.52,-275.62 3374.45,-275.2 3377.4,-274.74"/>
<polygon fill="midnightblue" stroke="midnightblue" points="2417.88,-315.62 2407.96,-319.35 2418.04,-322.62 2417.88,-315.62"/>
</g>
<!-- Node6 -->
<g id="node6" class="node">
<title>Node6</title>
<g id="a_node6"><a xlink:href="HughesWinget_8cpp.html" target="_top" xlink:title=" ">
<polygon fill="white" stroke="black" points="896.63,-84 896.63,-114 1054.63,-114 1054.63,-84 896.63,-84"/>
<text text-anchor="start" x="904.63" y="-102" font-family="Helvetica,sans-Serif" font-size="10.00">modules/core/MarmotMechanics</text>
<text text-anchor="middle" x="975.63" y="-91" font-family="Helvetica,sans-Serif" font-size="10.00">Core/src/HughesWinget.cpp</text>
</a>
</g>
</g>
<!-- Node5&#45;&gt;Node6 -->
<g id="edge5" class="edge">
<title>Node5&#45;&gt;Node6</title>
<path fill="none" stroke="midnightblue" d="M671.83,-160.21C733.26,-149.54 815.4,-134.75 887.63,-120 896.69,-118.15 906.24,-116.09 915.59,-114.02"/>
<polygon fill="midnightblue" stroke="midnightblue" points="671.03,-156.8 661.77,-161.96 672.22,-163.7 671.03,-156.8"/>
</g>
<!-- Node7 -->
<g id="node7" class="node">
<title>Node7</title>
<g id="a_node7"><a xlink:href="MarmotKinematics_8cpp.html" target="_top" xlink:title=" ">
<polygon fill="white" stroke="black" points="314.63,-84 314.63,-114 472.63,-114 472.63,-84 314.63,-84"/>
<text text-anchor="start" x="322.63" y="-102" font-family="Helvetica,sans-Serif" font-size="10.00">modules/core/MarmotMechanics</text>
<text text-anchor="middle" x="393.63" y="-91" font-family="Helvetica,sans-Serif" font-size="10.00">Core/src/MarmotKinematics.cpp</text>
</a>
</g>
</g>
<!-- Node5&#45;&gt;Node7 -->
<g id="edge6" class="edge">
<title>Node5&#45;&gt;Node7</title>
<path fill="none" stroke="midnightblue" d="M534.93,-158.05C502.18,-144.59 458,-126.44 427.81,-114.04"/>
<polygon fill="midnightblue" stroke="midnightblue" points="533.69,-161.32 544.27,-161.88 536.35,-154.85 533.69,-161.32"/>
</g>
<!-- Node5&#45;&gt;Node8 -->
<g id="edge7" class="edge">
<title>Node5&#45;&gt;Node8</title>
<path fill="none" stroke="midnightblue" d="M498.45,-160.01C430.2,-146.39 333.11,-127.03 267.87,-114.01"/>
<polygon fill="midnightblue" stroke="midnightblue" points="497.81,-163.45 508.3,-161.97 499.18,-156.58 497.81,-163.45"/>
</g>
<!-- Node5&#45;&gt;Node9 -->
<g id="edge8" class="edge">
<title>Node5&#45;&gt;Node9</title>
<path fill="none" stroke="midnightblue" d="M626.12,-158.22C662.1,-144.75 710.86,-126.5 744.12,-114.04"/>
<polygon fill="midnightblue" stroke="midnightblue" points="624.47,-155.1 616.34,-161.88 626.93,-161.65 624.47,-155.1"/>
</g>
<!-- Node5&#45;&gt;Node10 -->
<g id="edge9" class="edge">
<title>Node5&#45;&gt;Node10</title>
<path fill="none" stroke="midnightblue" d="M578.63,-151.66C578.63,-141.33 578.63,-129.44 578.63,-119.68"/>
<polygon fill="midnightblue" stroke="midnightblue" points="575.13,-151.7 578.63,-161.7 582.13,-151.71 575.13,-151.7"/>
</g>
<!-- Node12&#45;&gt;Node2 -->
<g id="edge13" class="edge">
<title>Node12&#45;&gt;Node2</title>
<path fill="none" stroke="midnightblue" d="M1074.62,-253.35C903.8,-251.07 538.55,-241.08 233.63,-198 222.97,-196.49 211.69,-194.38 200.87,-192.08"/>
<polygon fill="midnightblue" stroke="midnightblue" points="1074.8,-256.86 1084.84,-253.48 1074.89,-249.86 1074.8,-256.86"/>
</g>
<!-- Node12&#45;&gt;Node5 -->
<g id="edge21" class="edge">
<title>Node12&#45;&gt;Node5</title>
<path fill="none" stroke="midnightblue" d="M1074.83,-244.33C977.92,-234.26 824.65,-217.28 692.63,-198 680.5,-196.23 667.68,-194.17 655.18,-192.05"/>
<polygon fill="midnightblue" stroke="midnightblue" points="1074.59,-247.82 1084.9,-245.37 1075.32,-240.86 1074.59,-247.82"/>
</g>
<!-- Node12&#45;&gt;Node6 -->
<g id="edge28" class="edge">
<title>Node12&#45;&gt;Node6</title>
<path fill="none" stroke="midnightblue" d="M1129.97,-235.44C1110.17,-225.67 1086.72,-212.67 1067.63,-198 1034.33,-172.4 1002.37,-134.35 986.34,-114.01"/>
<polygon fill="midnightblue" stroke="midnightblue" points="1128.54,-238.63 1139.07,-239.83 1131.59,-232.33 1128.54,-238.63"/>
</g>
<!-- Node12&#45;&gt;Node8 -->
<g id="edge30" class="edge">
<title>Node12&#45;&gt;Node8</title>
<path fill="none" stroke="midnightblue" d="M1074.86,-254.99C907.86,-255.26 573.5,-249.13 469.63,-198 447.05,-186.88 453.28,-168.84 431.63,-156 417.23,-147.47 329.17,-127.67 265.31,-114.06"/>
<polygon fill="midnightblue" stroke="midnightblue" points="1074.89,-258.49 1084.88,-254.96 1074.87,-251.49 1074.89,-258.49"/>
</g>
<!-- Node12&#45;&gt;Node9 -->
<g id="edge31" class="edge">
<title>Node12&#45;&gt;Node9</title>
<path fill="none" stroke="midnightblue" d="M1074.93,-251.6C978.66,-247.12 839.9,-234.36 801.63,-198 778.59,-176.11 778.27,-135.44 779.96,-114.02"/>
<polygon fill="midnightblue" stroke="midnightblue" points="1074.83,-255.1 1084.98,-252.04 1075.14,-248.1 1074.83,-255.1"/>
</g>
<!-- Node12&#45;&gt;Node10 -->
<g id="edge32" class="edge">
<title>Node12&#45;&gt;Node10</title>
<path fill="none" stroke="midnightblue" d="M1074.69,-248.68C994,-242.24 876.85,-228.23 778.63,-198 762.05,-192.9 670.39,-146.77 617.09,-119.66"/>
<polygon fill="midnightblue" stroke="midnightblue" points="1074.6,-252.18 1084.84,-249.46 1075.14,-245.2 1074.6,-252.18"/>
</g>
<!-- Node12&#45;&gt;Node11 -->
<g id="edge26" class="edge">
<title>Node12&#45;&gt;Node11</title>
<path fill="none" stroke="midnightblue" d="M1074.68,-250.14C933.72,-243.72 664.17,-228.45 436.63,-198 424.6,-196.39 411.86,-194.28 399.58,-192.04"/>
<polygon fill="midnightblue" stroke="midnightblue" points="1074.87,-253.65 1085.02,-250.6 1075.19,-246.66 1074.87,-253.65"/>
</g>
<!-- Node13 -->
<g id="node13" class="node">
<title>Node13</title>
<g id="a_node13"><a xlink:href="MarmotFiniteElementSpatialWrapper_8cpp.html" target="_top" xlink:title=" ">
<polygon fill="white" stroke="black" points="1872.63,-156.5 1872.63,-197.5 2056.63,-197.5 2056.63,-156.5 1872.63,-156.5"/>
<text text-anchor="start" x="1880.63" y="-185.5" font-family="Helvetica,sans-Serif" font-size="10.00">modules/core/MarmotFinite</text>
<text text-anchor="start" x="1880.63" y="-174.5" font-family="Helvetica,sans-Serif" font-size="10.00">ElementCore/src/MarmotFiniteElement</text>
<text text-anchor="middle" x="1964.63" y="-163.5" font-family="Helvetica,sans-Serif" font-size="10.00">SpatialWrapper.cpp</text>
</a>
</g>
</g>
<!-- Node12&#45;&gt;Node13 -->
<g id="edge12" class="edge">
<title>Node12&#45;&gt;Node13</title>
<path fill="none" stroke="midnightblue" d="M1268.38,-249.61C1402.36,-242.74 1651.73,-227.13 1862.63,-198 1865.85,-197.56 1869.12,-197.07 1872.41,-196.56"/>
<polygon fill="midnightblue" stroke="midnightblue" points="1267.96,-246.12 1258.15,-250.13 1268.32,-253.11 1267.96,-246.12"/>
</g>
<!-- Node14 -->
<g id="node14" class="node">
<title>Node14</title>
<g id="a_node14"><a xlink:href="HughesWinget_8h.html" target="_top" xlink:title=" ">
<polygon fill="white" stroke="black" points="811.13,-162 811.13,-192 992.13,-192 992.13,-162 811.13,-162"/>
<text text-anchor="start" x="819.13" y="-180" font-family="Helvetica,sans-Serif" font-size="10.00">modules/core/MarmotMechanics</text>
<text text-anchor="middle" x="901.63" y="-169" font-family="Helvetica,sans-Serif" font-size="10.00">Core/include/Marmot/HughesWinget.h</text>
</a>
</g>
</g>
<!-- Node12&#45;&gt;Node14 -->
<g id="edge14" class="edge">
<title>Node12&#45;&gt;Node14</title>
<path fill="none" stroke="midnightblue" d="M1112.13,-237.25C1064.01,-223.71 997.02,-204.85 951.63,-192.07"/>
<polygon fill="midnightblue" stroke="midnightblue" points="1111.22,-240.63 1121.79,-239.97 1113.12,-233.89 1111.22,-240.63"/>
</g>
<!-- Node15 -->
<g id="node15" class="node">
<title>Node15</title>
<g id="a_node15"><a xlink:href="MarmotElasticity_8h.html" target="_top" xlink:title=" ">
<polygon fill="white" stroke="black" points="1665.13,-162 1665.13,-192 1854.13,-192 1854.13,-162 1665.13,-162"/>
<text text-anchor="start" x="1673.13" y="-180" font-family="Helvetica,sans-Serif" font-size="10.00">modules/core/MarmotMechanics</text>
<text text-anchor="middle" x="1759.63" y="-169" font-family="Helvetica,sans-Serif" font-size="10.00">Core/include/Marmot/MarmotElasticity.h</text>
</a>
</g>
</g>
<!-- Node12&#45;&gt;Node15 -->
<g id="edge18" class="edge">
<title>Node12&#45;&gt;Node15</title>
<path fill="none" stroke="midnightblue" d="M1268.62,-244.93C1366.55,-235.27 1521.99,-218.55 1655.63,-198 1666.99,-196.25 1679,-194.17 1690.67,-192.01"/>
<polygon fill="midnightblue" stroke="midnightblue" points="1268.06,-241.47 1258.45,-245.93 1268.74,-248.44 1268.06,-241.47"/>
</g>
<!-- Node12&#45;&gt;Node17 -->
<g id="edge37" class="edge">
<title>Node12&#45;&gt;Node17</title>
<path fill="none" stroke="midnightblue" d="M1268.57,-254.5C1487.71,-254.7 2006.84,-249.66 2065.63,-198 2089.45,-177.07 2088.93,-135.98 2086.69,-114.25"/>
<polygon fill="midnightblue" stroke="midnightblue" points="1268.37,-251 1258.36,-254.48 1268.36,-258 1268.37,-251"/>
</g>
<!-- Node18 -->
<g id="node18" class="node">
<title>Node18</title>
<g id="a_node18"><a xlink:href="MarmotLowerDimensionalStress_8h.html" target="_top" xlink:title=" ">
<polygon fill="white" stroke="black" points="1086.63,-156.5 1086.63,-197.5 1256.63,-197.5 1256.63,-156.5 1086.63,-156.5"/>
<text text-anchor="start" x="1094.63" y="-185.5" font-family="Helvetica,sans-Serif" font-size="10.00">modules/core/MarmotMechanics</text>
<text text-anchor="start" x="1094.63" y="-174.5" font-family="Helvetica,sans-Serif" font-size="10.00">Core/include/Marmot/MarmotLower</text>
<text text-anchor="middle" x="1171.63" y="-163.5" font-family="Helvetica,sans-Serif" font-size="10.00">DimensionalStress.h</text>
</a>
</g>
</g>
<!-- Node12&#45;&gt;Node18 -->
<g id="edge22" class="edge">
<title>Node12&#45;&gt;Node18</title>
<path fill="none" stroke="midnightblue" d="M1171.63,-229.66C1171.63,-219.33 1171.63,-207.44 1171.63,-197.68"/>
<polygon fill="midnightblue" stroke="midnightblue" points="1168.13,-229.7 1171.63,-239.7 1175.13,-229.71 1168.13,-229.7"/>
</g>
<!-- Node19 -->
<g id="node19" class="node">
<title>Node19</title>
<g id="a_node19"><a xlink:href="MarmotLowerDimensionalStress_8cpp.html" target="_top" xlink:title=" ">
<polygon fill="white" stroke="black" points="1072.63,-78.5 1072.63,-119.5 1242.63,-119.5 1242.63,-78.5 1072.63,-78.5"/>
<text text-anchor="start" x="1080.63" y="-107.5" font-family="Helvetica,sans-Serif" font-size="10.00">modules/core/MarmotMechanics</text>
<text text-anchor="start" x="1080.63" y="-96.5" font-family="Helvetica,sans-Serif" font-size="10.00">Core/src/MarmotLowerDimensional</text>
<text text-anchor="middle" x="1157.63" y="-85.5" font-family="Helvetica,sans-Serif" font-size="10.00">Stress.cpp</text>
</a>
</g>
</g>
<!-- Node12&#45;&gt;Node19 -->
<g id="edge29" class="edge">
<title>Node12&#45;&gt;Node19</title>
<path fill="none" stroke="midnightblue" d="M1120.11,-235.46C1103.54,-226.77 1087.05,-214.58 1077.63,-198 1068.41,-181.77 1069.01,-172.56 1077.63,-156 1085.69,-140.51 1100.22,-128.42 1114.7,-119.5"/>
<polygon fill="midnightblue" stroke="midnightblue" points="1118.75,-238.7 1129.28,-239.94 1121.82,-232.41 1118.75,-238.7"/>
</g>
<!-- Node12&#45;&gt;Node20 -->
<g id="edge36" class="edge">
<title>Node12&#45;&gt;Node20</title>
<path fill="none" stroke="midnightblue" d="M1210.58,-235.22C1228.45,-225.54 1249.25,-212.68 1265.63,-198 1291.67,-174.67 1314.71,-141.01 1327.92,-119.83"/>
<polygon fill="midnightblue" stroke="midnightblue" points="1208.76,-232.23 1201.55,-239.99 1212.02,-238.42 1208.76,-232.23"/>
</g>
<!-- Node22 -->
<g id="node22" class="node">
<title>Node22</title>
<g id="a_node22"><a xlink:href="HaighWestergaard_8cpp.html" target="_top" xlink:title=" ">
<polygon fill="white" stroke="black" points="1312.63,-162 1312.63,-192 1470.63,-192 1470.63,-162 1312.63,-162"/>
<text text-anchor="start" x="1320.63" y="-180" font-family="Helvetica,sans-Serif" font-size="10.00">modules/core/MarmotMechanics</text>
<text text-anchor="middle" x="1391.63" y="-169" font-family="Helvetica,sans-Serif" font-size="10.00">Core/src/HaighWestergaard.cpp</text>
</a>
</g>
</g>
<!-- Node12&#45;&gt;Node22 -->
<g id="edge27" class="edge">
<title>Node12&#45;&gt;Node22</title>
<path fill="none" stroke="midnightblue" d="M1221.84,-236.65C1260.91,-223.16 1314.45,-204.66 1350.89,-192.07"/>
<polygon fill="midnightblue" stroke="midnightblue" points="1220.55,-233.4 1212.24,-239.97 1222.83,-240.01 1220.55,-233.4"/>
</g>
<!-- Node12&#45;&gt;Node23 -->
<g id="edge33" class="edge">
<title>Node12&#45;&gt;Node23</title>
<path fill="none" stroke="midnightblue" d="M1268.32,-251.96C1437.29,-247.55 1797.06,-234.39 2098.63,-198 2111.64,-196.43 2125.43,-194.3 2138.7,-192.01"/>
<polygon fill="midnightblue" stroke="midnightblue" points="1268.11,-248.46 1258.21,-252.22 1268.29,-255.46 1268.11,-248.46"/>
</g>
<!-- Node12&#45;&gt;Node24 -->
<g id="edge34" class="edge">
<title>Node12&#45;&gt;Node24</title>
<path fill="none" stroke="midnightblue" d="M1268.38,-254.84C1465.72,-255.33 1928.47,-250.2 2312.63,-198 2323.46,-196.53 2334.91,-194.4 2345.87,-192.07"/>
<polygon fill="midnightblue" stroke="midnightblue" points="1268.34,-251.34 1258.33,-254.81 1268.32,-258.34 1268.34,-251.34"/>
</g>
<!-- Node25 -->
<g id="node25" class="node">
<title>Node25</title>
<g id="a_node25"><a xlink:href="MarmotVoigt_8cpp.html" target="_top" xlink:title=" ">
<polygon fill="white" stroke="black" points="1488.63,-162 1488.63,-192 1646.63,-192 1646.63,-162 1488.63,-162"/>
<text text-anchor="start" x="1496.63" y="-180" font-family="Helvetica,sans-Serif" font-size="10.00">modules/core/MarmotMechanics</text>
<text text-anchor="middle" x="1567.63" y="-169" font-family="Helvetica,sans-Serif" font-size="10.00">Core/src/MarmotVoigt.cpp</text>
</a>
</g>
</g>
<!-- Node12&#45;&gt;Node25 -->
<g id="edge35" class="edge">
<title>Node12&#45;&gt;Node25</title>
<path fill="none" stroke="midnightblue" d="M1264.21,-238.25C1325.47,-227.57 1407.5,-212.75 1479.63,-198 1488.69,-196.15 1498.24,-194.09 1507.59,-192.01"/>
<polygon fill="midnightblue" stroke="midnightblue" points="1263.43,-234.84 1254.18,-240 1264.63,-241.73 1263.43,-234.84"/>
</g>
<!-- Node14&#45;&gt;Node6 -->
<g id="edge15" class="edge">
<title>Node14&#45;&gt;Node6</title>
<path fill="none" stroke="midnightblue" d="M922.53,-154.53C935.09,-141.63 950.73,-125.57 961.77,-114.23"/>
<polygon fill="midnightblue" stroke="midnightblue" points="920.02,-152.1 915.55,-161.7 925.03,-156.98 920.02,-152.1"/>
</g>
<!-- Node14&#45;&gt;Node9 -->
<g id="edge16" class="edge">
<title>Node14&#45;&gt;Node9</title>
<path fill="none" stroke="midnightblue" d="M870.79,-156.47C849.84,-143.2 822.62,-125.96 803.8,-114.04"/>
<polygon fill="midnightblue" stroke="midnightblue" points="869.02,-159.49 879.34,-161.88 872.76,-153.58 869.02,-159.49"/>
</g>
<!-- Node14&#45;&gt;Node10 -->
<g id="edge17" class="edge">
<title>Node14&#45;&gt;Node10</title>
<path fill="none" stroke="midnightblue" d="M832.25,-159.68C782.24,-147.91 714.52,-131.97 661.63,-119.53"/>
<polygon fill="midnightblue" stroke="midnightblue" points="831.47,-163.09 842.01,-161.97 833.08,-156.27 831.47,-163.09"/>
</g>
<!-- Node16 -->
<g id="node16" class="node">
<title>Node16</title>
<g id="a_node16"><a xlink:href="MarmotElasticity_8cpp.html" target="_top" xlink:title=" ">
<polygon fill="white" stroke="black" points="1680.63,-84 1680.63,-114 1838.63,-114 1838.63,-84 1680.63,-84"/>
<text text-anchor="start" x="1688.63" y="-102" font-family="Helvetica,sans-Serif" font-size="10.00">modules/core/MarmotMechanics</text>
<text text-anchor="middle" x="1759.63" y="-91" font-family="Helvetica,sans-Serif" font-size="10.00">Core/src/MarmotElasticity.cpp</text>
</a>
</g>
</g>
<!-- Node15&#45;&gt;Node16 -->
<g id="edge19" class="edge">
<title>Node15&#45;&gt;Node16</title>
<path fill="none" stroke="midnightblue" d="M1759.63,-151.59C1759.63,-139.26 1759.63,-124.72 1759.63,-114.23"/>
<polygon fill="midnightblue" stroke="midnightblue" points="1756.13,-151.7 1759.63,-161.7 1763.13,-151.71 1756.13,-151.7"/>
</g>
<!-- Node15&#45;&gt;Node17 -->
<g id="edge20" class="edge">
<title>Node15&#45;&gt;Node17</title>
<path fill="none" stroke="midnightblue" d="M1829.46,-159.67C1887.6,-146.07 1969.52,-126.92 2024.72,-114.01"/>
<polygon fill="midnightblue" stroke="midnightblue" points="1828.56,-156.29 1819.62,-161.97 1830.15,-163.1 1828.56,-156.29"/>
</g>
<!-- Node18&#45;&gt;Node19 -->
<g id="edge23" class="edge">
<title>Node18&#45;&gt;Node19</title>
<path fill="none" stroke="midnightblue" d="M1166.21,-146.59C1164.54,-137.51 1162.74,-127.74 1161.22,-119.51"/>
<polygon fill="midnightblue" stroke="midnightblue" points="1162.77,-147.23 1168.02,-156.43 1169.65,-145.96 1162.77,-147.23"/>
</g>
<!-- Node18&#45;&gt;Node20 -->
<g id="edge24" class="edge">
<title>Node18&#45;&gt;Node20</title>
<path fill="none" stroke="midnightblue" d="M1224.26,-152.19C1247.51,-141.67 1274.49,-129.47 1296.51,-119.51"/>
<polygon fill="midnightblue" stroke="midnightblue" points="1222.56,-149.12 1214.89,-156.43 1225.45,-155.5 1222.56,-149.12"/>
</g>
<!-- Node21 -->
<g id="node21" class="node">
<title>Node21</title>
<g id="a_node21"><a xlink:href="DisplacementFiniteElementRegistration_8cpp.html" target="_top" xlink:title=" ">
<polygon fill="white" stroke="black" points="1250.13,-0.5 1250.13,-41.5 1429.13,-41.5 1429.13,-0.5 1250.13,-0.5"/>
<text text-anchor="start" x="1258.13" y="-29.5" font-family="Helvetica,sans-Serif" font-size="10.00">modules/elements/Displacement</text>
<text text-anchor="start" x="1258.13" y="-18.5" font-family="Helvetica,sans-Serif" font-size="10.00">FiniteElement/src/DisplacementFinite</text>
<text text-anchor="middle" x="1339.63" y="-7.5" font-family="Helvetica,sans-Serif" font-size="10.00">ElementRegistration.cpp</text>
</a>
</g>
</g>
<!-- Node20&#45;&gt;Node21 -->
<g id="edge25" class="edge">
<title>Node20&#45;&gt;Node21</title>
<path fill="none" stroke="midnightblue" d="M1339.63,-68.3C1339.63,-59.3 1339.63,-49.65 1339.63,-41.51"/>
<polygon fill="midnightblue" stroke="midnightblue" points="1336.13,-68.43 1339.63,-78.43 1343.13,-68.43 1336.13,-68.43"/>
</g>
</g>
</svg>
        <g id="navigator" transform="translate(0 0)" fill="#404254">
                <rect fill="#f2f5e9" fill-opacity="0.5" stroke="#606060" stroke-width=".5" x="0" y="0" width="60" height="60"/>
                <use id="zoomplus" xlink:href="#zoomPlus" x="17" y="9" onmousedown="handleZoom(evt,'in')"/>
                <use id="zoomminus" xlink:href="#zoomMin" x="42" y="9" onmousedown="handleZoom(evt,'out')"/>
                <use id="reset" xlink:href="#resetDef" x="30" y="36" onmousedown="handleReset()"/>
                <g id="arrowUp" xlink:href="#dirArrow" transform="translate(30 24)" onmousedown="handlePan(0,-1)">
                  <use xlink:href="#rim" fill="#404040">
                        <set attributeName="fill" to="#808080" begin="arrowUp.mouseover" end="arrowUp.mouseout"/>
                  </use>
                  <path fill="none" stroke="white" stroke-width="1.5" d="M0,-3.0v7 M-2.5,-0.5L0,-3.0L2.5,-0.5"/>
                </g>
                <g id="arrowRight" xlink:href="#dirArrow" transform="rotate(90) translate(36 -43)" onmousedown="handlePan(1,0)">
                  <use xlink:href="#rim" fill="#404040">
                        <set attributeName="fill" to="#808080" begin="arrowRight.mouseover" end="arrowRight.mouseout"/>
                  </use>
                  <path fill="none" stroke="white" stroke-width="1.5" d="M0,-3.0v7 M-2.5,-0.5L0,-3.0L2.5,-0.5"/>
                </g>
                <g id="arrowDown" xlink:href="#dirArrow" transform="rotate(180) translate(-30 -48)" onmousedown="handlePan(0,1)">
                  <use xlink:href="#rim" fill="#404040">
                        <set attributeName="fill" to="#808080" begin="arrowDown.mouseover" end="arrowDown.mouseout"/>
                  </use>
                  <path fill="none" stroke="white" stroke-width="1.5" d="M0,-3.0v7 M-2.5,-0.5L0,-3.0L2.5,-0.5"/>
                </g>
                <g id="arrowLeft" xlink:href="#dirArrow" transform="rotate(270) translate(-36 17)" onmousedown="handlePan(-1,0)">
                  <use xlink:href="#rim" fill="#404040">
                        <set attributeName="fill" to="#808080" begin="arrowLeft.mouseover" end="arrowLeft.mouseout"/>
                  </use>
                  <path fill="none" stroke="white" stroke-width="1.5" d="M0,-3.0v7 M-2.5,-0.5L0,-3.0L2.5,-0.5"/>
                </g>
        </g>
        <svg viewBox="0 0 15 15" width="100%" height="30px" preserveAspectRatio="xMaxYMin meet">
         <g id="arrow_out" transform="scale(0.3 0.3)">
          <a xlink:href="MarmotJournal_8h__dep__incl_org.svg" target="_base">
           <rect id="button" ry="5" rx="5" y="6" x="6" height="38" width="38"
                fill="#f2f5e9" fill-opacity="0.5" stroke="#606060" stroke-width="1.0"/>
           <path id="arrow"
             d="M 11.500037,31.436501 C 11.940474,20.09759 22.043105,11.32322 32.158766,21.979434 L 37.068811,17.246167 C 37.068811,17.246167 37.088388,32 37.088388,32 L 22.160133,31.978069 C 22.160133,31.978069 26.997745,27.140456 26.997745,27.140456 C 18.528582,18.264221 13.291696,25.230495 11.500037,31.436501 z"
             style="fill:#404040;"/>
          </a>
         </g>
        </svg>
</svg>
