<?xml version="1.0" encoding="UTF-8" standalone="no"?>
<!DOCTYPE svg PUBLIC "-//W3C//DTD SVG 1.1//EN"
 "http://www.w3.org/Graphics/SVG/1.1/DTD/svg11.dtd">
<!-- Generated by graphviz version 2.46.0 (20210122.1329)
 -->
<!-- Title: modules/core/MarmotMechanicsCore/src/MarmotMaterialHypoElastic.cpp Pages: 1 -->
<!--zoomable 285 -->
<svg id="main" version="1.1" xmlns="http://www.w3.org/2000/svg" xmlns:xlink="http://www.w3.org/1999/xlink" xml:space="preserve" onload="init(evt)">
<style type="text/css"><![CDATA[
.edge:hover path { stroke: red; }
.edge:hover polygon { stroke: red; fill: red; }
]]></style>
<script type="text/javascript"><![CDATA[
var edges = document.getElementsByTagName('g');
if (edges && edges.length) {
  for (var i=0;i<edges.length;i++) {
    if (edges[i].id.substr(0,4)=='edge') {
      edges[i].setAttribute('class','edge');
    }
  }
}
]]></script>
        <defs>
                <circle id="rim" cx="0" cy="0" r="7"/>
                <circle id="rim2" cx="0" cy="0" r="3.5"/>
                <g id="zoomPlus">
                        <use xlink:href="#rim" fill="#404040">
                                <set attributeName="fill" to="#808080" begin="zoomplus.mouseover" end="zoomplus.mouseout"/>
                        </use>
                        <path d="M-4,0h8M0,-4v8" fill="none" stroke="white" stroke-width="1.5" pointer-events="none"/>
                </g>
                <g id="zoomMin">
                        <use xlink:href="#rim" fill="#404040">
                                <set attributeName="fill" to="#808080" begin="zoomminus.mouseover" end="zoomminus.mouseout"/>
                        </use>
                        <path d="M-4,0h8" fill="none" stroke="white" stroke-width="1.5" pointer-events="none"/>
                </g>
                <g id="dirArrow">
                        <path fill="none" stroke="white" stroke-width="1.5" d="M0,-3.0v7 M-2.5,-0.5L0,-3.0L2.5,-0.5"/>
                </g>
               <g id="resetDef">
                       <use xlink:href="#rim2" fill="#404040">
                               <set attributeName="fill" to="#808080" begin="reset.mouseover" end="reset.mouseout"/>
                       </use>
               </g>
        </defs>

<script type="text/javascript">
var viewWidth = 985;
var viewHeight = 285;
var sectionId = 'dynsection-0';
</script>
<script xlink:href="svgpan.js"/>
<svg id="graph" class="graph">
<g id="viewport">
<title>modules/core/MarmotMechanicsCore/src/MarmotMaterialHypoElastic.cpp</title>
<polygon fill="white" stroke="transparent" points="-4,4 -4,-281 981,-281 981,4 -4,4"/>
<!-- Node1 -->
<g id="node1" class="node">
<title>Node1</title>
<g id="a_node1"><a xlink:title=" ">
<polygon fill="#bfbfbf" stroke="black" points="280.5,-246.5 280.5,-276.5 474.5,-276.5 474.5,-246.5 280.5,-246.5"/>
<text text-anchor="start" x="288.5" y="-264.5" font-family="Helvetica,sans-Serif" font-size="10.00">modules/core/MarmotMechanics</text>
<text text-anchor="middle" x="377.5" y="-253.5" font-family="Helvetica,sans-Serif" font-size="10.00">Core/src/MarmotMaterialHypoElastic.cpp</text>
</a>
</g>
</g>
<!-- Node2 -->
<g id="node2" class="node">
<title>Node2</title>
<g id="a_node2"><a xlink:href="HughesWinget_8h.html" target="_top" xlink:title=" ">
<polygon fill="white" stroke="black" points="450.5,-185 450.5,-204 574.5,-204 574.5,-185 450.5,-185"/>
<text text-anchor="middle" x="512.5" y="-192" font-family="Helvetica,sans-Serif" font-size="10.00">Marmot/HughesWinget.h</text>
</a>
</g>
</g>
<!-- Node1&#45;&gt;Node2 -->
<g id="edge1" class="edge">
<title>Node1&#45;&gt;Node2</title>
<path fill="none" stroke="midnightblue" d="M406.79,-246.4C430.27,-235.09 462.94,-219.36 485.73,-208.39"/>
<polygon fill="midnightblue" stroke="midnightblue" points="487.34,-211.5 494.83,-204.01 484.3,-205.19 487.34,-211.5"/>
</g>
<!-- Node3 -->
<g id="node3" class="node">
<title>Node3</title>
<g id="a_node3"><a xlink:href="MarmotVoigt_8h.html" target="_top" xlink:title=" ">
<polygon fill="white" stroke="black" points="452.5,-123.5 452.5,-142.5 568.5,-142.5 568.5,-123.5 452.5,-123.5"/>
<text text-anchor="middle" x="510.5" y="-130.5" font-family="Helvetica,sans-Serif" font-size="10.00">Marmot/MarmotVoigt.h</text>
</a>
</g>
</g>
<!-- Node1&#45;&gt;Node3 -->
<g id="edge32" class="edge">
<title>Node1&#45;&gt;Node3</title>
<path fill="none" stroke="midnightblue" d="M386.48,-246.38C397.88,-229.16 418.81,-199.78 441.5,-179 454.7,-166.91 471.48,-155.89 485.18,-147.78"/>
<polygon fill="midnightblue" stroke="midnightblue" points="487.18,-150.67 494.1,-142.65 483.69,-144.6 487.18,-150.67"/>
</g>
<!-- Node4 -->
<g id="node4" class="node">
<title>Node4</title>
<g id="a_node4"><a xlink:href="MarmotJournal_8h.html" target="_top" xlink:title=" ">
<polygon fill="white" stroke="black" points="313,-67.5 313,-86.5 438,-86.5 438,-67.5 313,-67.5"/>
<text text-anchor="middle" x="375.5" y="-74.5" font-family="Helvetica,sans-Serif" font-size="10.00">Marmot/MarmotJournal.h</text>
</a>
</g>
</g>
<!-- Node1&#45;&gt;Node4 -->
<g id="edge11" class="edge">
<title>Node1&#45;&gt;Node4</title>
<path fill="none" stroke="midnightblue" d="M312,-246.4C292.78,-238.89 273.89,-227.44 262.5,-210 231.68,-162.8 306.06,-114.17 348.49,-91.35"/>
<polygon fill="midnightblue" stroke="midnightblue" points="350.27,-94.37 357.5,-86.63 347.02,-88.17 350.27,-94.37"/>
</g>
<!-- Node5 -->
<g id="node5" class="node">
<title>Node5</title>
<g id="a_node5"><a xlink:title=" ">
<polygon fill="white" stroke="#bfbfbf" points="255.5,-6 255.5,-25 309.5,-25 309.5,-6 255.5,-6"/>
<text text-anchor="middle" x="282.5" y="-13" font-family="Helvetica,sans-Serif" font-size="10.00">iostream</text>
</a>
</g>
</g>
<!-- Node1&#45;&gt;Node5 -->
<g id="edge33" class="edge">
<title>Node1&#45;&gt;Node5</title>
<path fill="none" stroke="midnightblue" d="M301.01,-246.38C281.32,-238.9 262.36,-227.47 250.5,-210 212.93,-154.63 251.9,-70.24 272.04,-34.01"/>
<polygon fill="midnightblue" stroke="midnightblue" points="275.19,-35.55 277.14,-25.14 269.12,-32.06 275.19,-35.55"/>
</g>
<!-- Node12 -->
<g id="node12" class="node">
<title>Node12</title>
<g id="a_node12"><a xlink:href="MarmotKinematics_8h.html" target="_top" xlink:title=" ">
<polygon fill="white" stroke="black" points="592.5,-185 592.5,-204 734.5,-204 734.5,-185 592.5,-185"/>
<text text-anchor="middle" x="663.5" y="-192" font-family="Helvetica,sans-Serif" font-size="10.00">Marmot/MarmotKinematics.h</text>
</a>
</g>
</g>
<!-- Node1&#45;&gt;Node12 -->
<g id="edge12" class="edge">
<title>Node1&#45;&gt;Node12</title>
<path fill="none" stroke="midnightblue" d="M439.21,-246.48C492.25,-234.42 567.64,-217.29 616.07,-206.28"/>
<polygon fill="midnightblue" stroke="midnightblue" points="617,-209.66 625.97,-204.03 615.45,-202.83 617,-209.66"/>
</g>
<!-- Node13 -->
<g id="node13" class="node">
<title>Node13</title>
<g id="a_node13"><a xlink:href="MarmotMaterialHypoElastic_8h.html" target="_top" xlink:title=" ">
<polygon fill="white" stroke="black" points="25,-179.5 25,-209.5 168,-209.5 168,-179.5 25,-179.5"/>
<text text-anchor="start" x="33" y="-197.5" font-family="Helvetica,sans-Serif" font-size="10.00">Marmot/MarmotMaterialHypo</text>
<text text-anchor="middle" x="96.5" y="-186.5" font-family="Helvetica,sans-Serif" font-size="10.00">Elastic.h</text>
</a>
</g>
</g>
<!-- Node1&#45;&gt;Node13 -->
<g id="edge16" class="edge">
<title>Node1&#45;&gt;Node13</title>
<path fill="none" stroke="midnightblue" d="M316.87,-246.48C272.98,-236.32 213.52,-222.57 167.42,-211.91"/>
<polygon fill="midnightblue" stroke="midnightblue" points="168.03,-208.45 157.5,-209.61 166.46,-215.27 168.03,-208.45"/>
</g>
<!-- Node17 -->
<g id="node17" class="node">
<title>Node17</title>
<g id="a_node17"><a xlink:href="MarmotMath_8h.html" target="_top" xlink:title=" ">
<polygon fill="white" stroke="black" points="753,-185 753,-204 868,-204 868,-185 753,-185"/>
<text text-anchor="middle" x="810.5" y="-192" font-family="Helvetica,sans-Serif" font-size="10.00">Marmot/MarmotMath.h</text>
</a>
</g>
</g>
<!-- Node1&#45;&gt;Node17 -->
<g id="edge21" class="edge">
<title>Node1&#45;&gt;Node17</title>
<path fill="none" stroke="midnightblue" d="M474.52,-249.15C548.47,-240.01 652.7,-226.06 743.5,-210 749.88,-208.87 756.58,-207.57 763.18,-206.21"/>
<polygon fill="midnightblue" stroke="midnightblue" points="764.32,-209.55 773.39,-204.06 762.88,-202.7 764.32,-209.55"/>
</g>
<!-- Node21 -->
<g id="node21" class="node">
<title>Node21</title>
<g id="a_node21"><a xlink:href="MarmotTensor_8h.html" target="_top" xlink:title=" ">
<polygon fill="white" stroke="black" points="271,-185 271,-204 394,-204 394,-185 271,-185"/>
<text text-anchor="middle" x="332.5" y="-192" font-family="Helvetica,sans-Serif" font-size="10.00">Marmot/MarmotTensor.h</text>
</a>
</g>
</g>
<!-- Node1&#45;&gt;Node21 -->
<g id="edge26" class="edge">
<title>Node1&#45;&gt;Node21</title>
<path fill="none" stroke="midnightblue" d="M367.74,-246.4C360.86,-236.46 351.61,-223.11 344.32,-212.57"/>
<polygon fill="midnightblue" stroke="midnightblue" points="347.09,-210.42 338.52,-204.19 341.33,-214.41 347.09,-210.42"/>
</g>
<!-- Node2&#45;&gt;Node3 -->
<g id="edge2" class="edge">
<title>Node2&#45;&gt;Node3</title>
<path fill="none" stroke="midnightblue" d="M512.21,-184.98C511.93,-176.58 511.49,-163.48 511.13,-152.66"/>
<polygon fill="midnightblue" stroke="midnightblue" points="514.62,-152.39 510.79,-142.51 507.62,-152.62 514.62,-152.39"/>
</g>
<!-- Node3&#45;&gt;Node4 -->
<g id="edge3" class="edge">
<title>Node3&#45;&gt;Node4</title>
<path fill="none" stroke="midnightblue" d="M489.11,-123.44C466.79,-114.52 431.6,-100.44 406.29,-90.32"/>
<polygon fill="midnightblue" stroke="midnightblue" points="407.38,-86.98 396.79,-86.52 404.78,-93.48 407.38,-86.98"/>
</g>
<!-- Node8 -->
<g id="node8" class="node">
<title>Node8</title>
<g id="a_node8"><a xlink:href="MarmotTypedefs_8h.html" target="_top" xlink:title=" ">
<polygon fill="white" stroke="black" points="555,-67.5 555,-86.5 688,-86.5 688,-67.5 555,-67.5"/>
<text text-anchor="middle" x="621.5" y="-74.5" font-family="Helvetica,sans-Serif" font-size="10.00">Marmot/MarmotTypedefs.h</text>
</a>
</g>
</g>
<!-- Node3&#45;&gt;Node8 -->
<g id="edge7" class="edge">
<title>Node3&#45;&gt;Node8</title>
<path fill="none" stroke="midnightblue" d="M528.33,-123.32C546.22,-114.62 573.98,-101.12 594.55,-91.11"/>
<polygon fill="midnightblue" stroke="midnightblue" points="596.25,-94.18 603.71,-86.65 593.19,-87.88 596.25,-94.18"/>
</g>
<!-- Node4&#45;&gt;Node5 -->
<g id="edge4" class="edge">
<title>Node4&#45;&gt;Node5</title>
<path fill="none" stroke="midnightblue" d="M362.18,-67.48C347.12,-57.84 322.38,-42.02 304.46,-30.55"/>
<polygon fill="midnightblue" stroke="midnightblue" points="306.11,-27.45 295.8,-25.01 302.34,-33.35 306.11,-27.45"/>
</g>
<!-- Node6 -->
<g id="node6" class="node">
<title>Node6</title>
<g id="a_node6"><a xlink:title=" ">
<polygon fill="white" stroke="#bfbfbf" points="349.5,-6 349.5,-25 401.5,-25 401.5,-6 349.5,-6"/>
<text text-anchor="middle" x="375.5" y="-13" font-family="Helvetica,sans-Serif" font-size="10.00">sstream</text>
</a>
</g>
</g>
<!-- Node4&#45;&gt;Node6 -->
<g id="edge5" class="edge">
<title>Node4&#45;&gt;Node6</title>
<path fill="none" stroke="midnightblue" d="M375.5,-67.48C375.5,-59.08 375.5,-45.98 375.5,-35.16"/>
<polygon fill="midnightblue" stroke="midnightblue" points="379,-35.01 375.5,-25.01 372,-35.01 379,-35.01"/>
</g>
<!-- Node7 -->
<g id="node7" class="node">
<title>Node7</title>
<g id="a_node7"><a xlink:title=" ">
<polygon fill="white" stroke="#bfbfbf" points="193,-6 193,-25 234,-25 234,-6 193,-6"/>
<text text-anchor="middle" x="213.5" y="-13" font-family="Helvetica,sans-Serif" font-size="10.00">string</text>
</a>
</g>
</g>
<!-- Node4&#45;&gt;Node7 -->
<g id="edge6" class="edge">
<title>Node4&#45;&gt;Node7</title>
<path fill="none" stroke="midnightblue" d="M349.09,-67.46C322.86,-58.82 281.6,-44.81 246.5,-31 244.9,-30.37 243.26,-29.71 241.61,-29.03"/>
<polygon fill="midnightblue" stroke="midnightblue" points="242.81,-25.74 232.24,-25.04 240.07,-32.18 242.81,-25.74"/>
</g>
<!-- Node9 -->
<g id="node9" class="node">
<title>Node9</title>
<g id="a_node9"><a xlink:title=" ">
<polygon fill="white" stroke="#bfbfbf" points="705.5,-6 705.5,-25 769.5,-25 769.5,-6 705.5,-6"/>
<text text-anchor="middle" x="737.5" y="-13" font-family="Helvetica,sans-Serif" font-size="10.00">Eigen/Core</text>
</a>
</g>
</g>
<!-- Node8&#45;&gt;Node9 -->
<g id="edge8" class="edge">
<title>Node8&#45;&gt;Node9</title>
<path fill="none" stroke="midnightblue" d="M638.12,-67.48C657.42,-57.58 689.46,-41.14 711.93,-29.62"/>
<polygon fill="midnightblue" stroke="midnightblue" points="713.61,-32.69 720.91,-25.01 710.42,-26.46 713.61,-32.69"/>
</g>
<!-- Node10 -->
<g id="node10" class="node">
<title>Node10</title>
<g id="a_node10"><a xlink:title=" ">
<polygon fill="white" stroke="#bfbfbf" points="467,-6 467,-25 538,-25 538,-6 467,-6"/>
<text text-anchor="middle" x="502.5" y="-13" font-family="Helvetica,sans-Serif" font-size="10.00">Eigen/Dense</text>
</a>
</g>
</g>
<!-- Node8&#45;&gt;Node10 -->
<g id="edge9" class="edge">
<title>Node8&#45;&gt;Node10</title>
<path fill="none" stroke="midnightblue" d="M604.45,-67.48C584.66,-57.58 551.78,-41.14 528.73,-29.62"/>
<polygon fill="midnightblue" stroke="midnightblue" points="530.03,-26.35 519.52,-25.01 526.9,-32.61 530.03,-26.35"/>
</g>
<!-- Node11 -->
<g id="node11" class="node">
<title>Node11</title>
<g id="a_node11"><a xlink:title=" ">
<polygon fill="white" stroke="#bfbfbf" points="556,-0.5 556,-30.5 687,-30.5 687,-0.5 556,-0.5"/>
<text text-anchor="start" x="564" y="-18.5" font-family="Helvetica,sans-Serif" font-size="10.00">unsupported/Eigen/CXX11</text>
<text text-anchor="middle" x="621.5" y="-7.5" font-family="Helvetica,sans-Serif" font-size="10.00">/Tensor</text>
</a>
</g>
</g>
<!-- Node8&#45;&gt;Node11 -->
<g id="edge10" class="edge">
<title>Node8&#45;&gt;Node11</title>
<path fill="none" stroke="midnightblue" d="M621.5,-67.48C621.5,-60.47 621.5,-50.19 621.5,-40.7"/>
<polygon fill="midnightblue" stroke="midnightblue" points="625,-40.52 621.5,-30.52 618,-40.52 625,-40.52"/>
</g>
<!-- Node12&#45;&gt;Node3 -->
<g id="edge15" class="edge">
<title>Node12&#45;&gt;Node3</title>
<path fill="none" stroke="midnightblue" d="M641.58,-184.98C615.45,-174.81 571.59,-157.76 541.87,-146.2"/>
<polygon fill="midnightblue" stroke="midnightblue" points="542.97,-142.87 532.38,-142.51 540.43,-149.4 542.97,-142.87"/>
</g>
<!-- Node12&#45;&gt;Node4 -->
<g id="edge13" class="edge">
<title>Node12&#45;&gt;Node4</title>
<path fill="none" stroke="midnightblue" d="M655.43,-184.58C641.22,-169.46 610.14,-138.88 577.5,-123 537,-103.29 487.72,-92.09 447.97,-85.8"/>
<polygon fill="midnightblue" stroke="midnightblue" points="448.49,-82.33 438.08,-84.3 447.44,-89.26 448.49,-82.33"/>
</g>
<!-- Node12&#45;&gt;Node8 -->
<g id="edge14" class="edge">
<title>Node12&#45;&gt;Node8</title>
<path fill="none" stroke="midnightblue" d="M660.34,-184.82C653.53,-166.09 637.33,-121.55 628.15,-96.29"/>
<polygon fill="midnightblue" stroke="midnightblue" points="631.4,-94.98 624.69,-86.78 624.82,-97.38 631.4,-94.98"/>
</g>
<!-- Node14 -->
<g id="node14" class="node">
<title>Node14</title>
<g id="a_node14"><a xlink:href="MarmotMaterialMechanical_8h.html" target="_top" xlink:title=" ">
<polygon fill="white" stroke="black" points="0,-123.5 0,-142.5 177,-142.5 177,-123.5 0,-123.5"/>
<text text-anchor="middle" x="88.5" y="-130.5" font-family="Helvetica,sans-Serif" font-size="10.00">Marmot/MarmotMaterialMechanical.h</text>
</a>
</g>
</g>
<!-- Node13&#45;&gt;Node14 -->
<g id="edge17" class="edge">
<title>Node13&#45;&gt;Node14</title>
<path fill="none" stroke="midnightblue" d="M94.6,-179.4C93.53,-171.38 92.16,-161.23 91,-152.57"/>
<polygon fill="midnightblue" stroke="midnightblue" points="94.47,-152.1 89.66,-142.66 87.53,-153.04 94.47,-152.1"/>
</g>
<!-- Node15 -->
<g id="node15" class="node">
<title>Node15</title>
<g id="a_node15"><a xlink:href="MarmotMaterial_8h.html" target="_top" xlink:title=" ">
<polygon fill="white" stroke="black" points="36.5,-67.5 36.5,-86.5 164.5,-86.5 164.5,-67.5 36.5,-67.5"/>
<text text-anchor="middle" x="100.5" y="-74.5" font-family="Helvetica,sans-Serif" font-size="10.00">Marmot/MarmotMaterial.h</text>
</a>
</g>
</g>
<!-- Node14&#45;&gt;Node15 -->
<g id="edge18" class="edge">
<title>Node14&#45;&gt;Node15</title>
<path fill="none" stroke="midnightblue" d="M90.48,-123.08C92.07,-115.93 94.36,-105.64 96.35,-96.69"/>
<polygon fill="midnightblue" stroke="midnightblue" points="99.8,-97.27 98.56,-86.75 92.97,-95.75 99.8,-97.27"/>
</g>
<!-- Node15&#45;&gt;Node7 -->
<g id="edge20" class="edge">
<title>Node15&#45;&gt;Node7</title>
<path fill="none" stroke="midnightblue" d="M116.69,-67.48C135.4,-57.62 166.42,-41.29 188.3,-29.77"/>
<polygon fill="midnightblue" stroke="midnightblue" points="190.12,-32.77 197.34,-25.01 186.86,-26.57 190.12,-32.77"/>
</g>
<!-- Node16 -->
<g id="node16" class="node">
<title>Node16</title>
<g id="a_node16"><a xlink:href="MarmotUtils_8h.html" target="_top" xlink:title=" ">
<polygon fill="white" stroke="black" points="44,-6 44,-25 157,-25 157,-6 44,-6"/>
<text text-anchor="middle" x="100.5" y="-13" font-family="Helvetica,sans-Serif" font-size="10.00">Marmot/MarmotUtils.h</text>
</a>
</g>
</g>
<!-- Node15&#45;&gt;Node16 -->
<g id="edge19" class="edge">
<title>Node15&#45;&gt;Node16</title>
<path fill="none" stroke="midnightblue" d="M100.5,-67.48C100.5,-59.08 100.5,-45.98 100.5,-35.16"/>
<polygon fill="midnightblue" stroke="midnightblue" points="104,-35.01 100.5,-25.01 97,-35.01 104,-35.01"/>
</g>
<!-- Node17&#45;&gt;Node8 -->
<g id="edge24" class="edge">
<title>Node17&#45;&gt;Node8</title>
<path fill="none" stroke="midnightblue" d="M796.29,-184.82C763.79,-164.95 683.76,-116.05 644.28,-91.92"/>
<polygon fill="midnightblue" stroke="midnightblue" points="645.97,-88.85 635.61,-86.62 642.32,-94.83 645.97,-88.85"/>
</g>
<!-- Node18 -->
<g id="node18" class="node">
<title>Node18</title>
<g id="a_node18"><a xlink:href="MarmotConstants_8h.html" target="_top" xlink:title=" ">
<polygon fill="white" stroke="black" points="840,-123.5 840,-142.5 977,-142.5 977,-123.5 840,-123.5"/>
<text text-anchor="middle" x="908.5" y="-130.5" font-family="Helvetica,sans-Serif" font-size="10.00">Marmot/MarmotConstants.h</text>
</a>
</g>
</g>
<!-- Node17&#45;&gt;Node18 -->
<g id="edge22" class="edge">
<title>Node17&#45;&gt;Node18</title>
<path fill="none" stroke="midnightblue" d="M824.54,-184.98C840.55,-175.25 866.95,-159.23 885.87,-147.74"/>
<polygon fill="midnightblue" stroke="midnightblue" points="887.75,-150.69 894.49,-142.51 884.12,-144.71 887.75,-150.69"/>
</g>
<!-- Node20 -->
<g id="node20" class="node">
<title>Node20</title>
<g id="a_node20"><a xlink:title=" ">
<polygon fill="white" stroke="#bfbfbf" points="765.5,-123.5 765.5,-142.5 821.5,-142.5 821.5,-123.5 765.5,-123.5"/>
<text text-anchor="middle" x="793.5" y="-130.5" font-family="Helvetica,sans-Serif" font-size="10.00">algorithm</text>
</a>
</g>
</g>
<!-- Node17&#45;&gt;Node20 -->
<g id="edge25" class="edge">
<title>Node17&#45;&gt;Node20</title>
<path fill="none" stroke="midnightblue" d="M808.06,-184.98C805.64,-176.49 801.84,-163.2 798.73,-152.32"/>
<polygon fill="midnightblue" stroke="midnightblue" points="802.04,-151.16 795.93,-142.51 795.31,-153.09 802.04,-151.16"/>
</g>
<!-- Node19 -->
<g id="node19" class="node">
<title>Node19</title>
<g id="a_node19"><a xlink:title=" ">
<polygon fill="white" stroke="#bfbfbf" points="886.5,-67.5 886.5,-86.5 930.5,-86.5 930.5,-67.5 886.5,-67.5"/>
<text text-anchor="middle" x="908.5" y="-74.5" font-family="Helvetica,sans-Serif" font-size="10.00">cmath</text>
</a>
</g>
</g>
<!-- Node18&#45;&gt;Node19 -->
<g id="edge23" class="edge">
<title>Node18&#45;&gt;Node19</title>
<path fill="none" stroke="midnightblue" d="M908.5,-123.08C908.5,-116.01 908.5,-105.86 908.5,-96.99"/>
<polygon fill="midnightblue" stroke="midnightblue" points="912,-96.75 908.5,-86.75 905,-96.75 912,-96.75"/>
</g>
<!-- Node21&#45;&gt;Node3 -->
<g id="edge29" class="edge">
<title>Node21&#45;&gt;Node3</title>
<path fill="none" stroke="midnightblue" d="M358,-184.98C388.8,-174.68 440.77,-157.31 475.35,-145.75"/>
<polygon fill="midnightblue" stroke="midnightblue" points="476.67,-149 485.04,-142.51 474.45,-142.36 476.67,-149"/>
</g>
<!-- Node21&#45;&gt;Node4 -->
<g id="edge27" class="edge">
<title>Node21&#45;&gt;Node4</title>
<path fill="none" stroke="midnightblue" d="M337.97,-184.88C343.99,-175.07 353.59,-158.41 359.5,-143 365.29,-127.89 369.52,-109.99 372.17,-96.81"/>
<polygon fill="midnightblue" stroke="midnightblue" points="375.67,-97.1 374.09,-86.62 368.79,-95.8 375.67,-97.1"/>
</g>
<!-- Node21&#45;&gt;Node5 -->
<g id="edge30" class="edge">
<title>Node21&#45;&gt;Node5</title>
<path fill="none" stroke="midnightblue" d="M325.86,-184.72C318.89,-175.03 308.18,-158.73 302.5,-143 289.27,-106.35 284.78,-60.6 283.27,-35.38"/>
<polygon fill="midnightblue" stroke="midnightblue" points="286.74,-34.87 282.75,-25.06 279.75,-35.23 286.74,-34.87"/>
</g>
<!-- Node21&#45;&gt;Node8 -->
<g id="edge28" class="edge">
<title>Node21&#45;&gt;Node8</title>
<path fill="none" stroke="midnightblue" d="M343.49,-184.81C362.7,-170.04 404.08,-139.98 443.5,-123 480.67,-106.99 524.75,-95.79 559.75,-88.57"/>
<polygon fill="midnightblue" stroke="midnightblue" points="560.72,-91.95 569.83,-86.55 559.34,-85.08 560.72,-91.95"/>
</g>
<!-- Node22 -->
<g id="node22" class="node">
<title>Node22</title>
<g id="a_node22"><a xlink:title=" ">
<polygon fill="white" stroke="#bfbfbf" points="311,-123.5 311,-142.5 350,-142.5 350,-123.5 311,-123.5"/>
<text text-anchor="middle" x="330.5" y="-130.5" font-family="Helvetica,sans-Serif" font-size="10.00">utility</text>
</a>
</g>
</g>
<!-- Node21&#45;&gt;Node22 -->
<g id="edge31" class="edge">
<title>Node21&#45;&gt;Node22</title>
<path fill="none" stroke="midnightblue" d="M332.21,-184.98C331.93,-176.58 331.49,-163.48 331.13,-152.66"/>
<polygon fill="midnightblue" stroke="midnightblue" points="334.62,-152.39 330.79,-142.51 327.62,-152.62 334.62,-152.39"/>
</g>
</g>
</svg>
        <g id="navigator" transform="translate(0 0)" fill="#404254">
                <rect fill="#f2f5e9" fill-opacity="0.5" stroke="#606060" stroke-width=".5" x="0" y="0" width="60" height="60"/>
                <use id="zoomplus" xlink:href="#zoomPlus" x="17" y="9" onmousedown="handleZoom(evt,'in')"/>
                <use id="zoomminus" xlink:href="#zoomMin" x="42" y="9" onmousedown="handleZoom(evt,'out')"/>
                <use id="reset" xlink:href="#resetDef" x="30" y="36" onmousedown="handleReset()"/>
                <g id="arrowUp" xlink:href="#dirArrow" transform="translate(30 24)" onmousedown="handlePan(0,-1)">
                  <use xlink:href="#rim" fill="#404040">
                        <set attributeName="fill" to="#808080" begin="arrowUp.mouseover" end="arrowUp.mouseout"/>
                  </use>
                  <path fill="none" stroke="white" stroke-width="1.5" d="M0,-3.0v7 M-2.5,-0.5L0,-3.0L2.5,-0.5"/>
                </g>
                <g id="arrowRight" xlink:href="#dirArrow" transform="rotate(90) translate(36 -43)" onmousedown="handlePan(1,0)">
                  <use xlink:href="#rim" fill="#404040">
                        <set attributeName="fill" to="#808080" begin="arrowRight.mouseover" end="arrowRight.mouseout"/>
                  </use>
                  <path fill="none" stroke="white" stroke-width="1.5" d="M0,-3.0v7 M-2.5,-0.5L0,-3.0L2.5,-0.5"/>
                </g>
                <g id="arrowDown" xlink:href="#dirArrow" transform="rotate(180) translate(-30 -48)" onmousedown="handlePan(0,1)">
                  <use xlink:href="#rim" fill="#404040">
                        <set attributeName="fill" to="#808080" begin="arrowDown.mouseover" end="arrowDown.mouseout"/>
                  </use>
                  <path fill="none" stroke="white" stroke-width="1.5" d="M0,-3.0v7 M-2.5,-0.5L0,-3.0L2.5,-0.5"/>
                </g>
                <g id="arrowLeft" xlink:href="#dirArrow" transform="rotate(270) translate(-36 17)" onmousedown="handlePan(-1,0)">
                  <use xlink:href="#rim" fill="#404040">
                        <set attributeName="fill" to="#808080" begin="arrowLeft.mouseover" end="arrowLeft.mouseout"/>
                  </use>
                  <path fill="none" stroke="white" stroke-width="1.5" d="M0,-3.0v7 M-2.5,-0.5L0,-3.0L2.5,-0.5"/>
                </g>
        </g>
        <svg viewBox="0 0 15 15" width="100%" height="30px" preserveAspectRatio="xMaxYMin meet">
         <g id="arrow_out" transform="scale(0.3 0.3)">
          <a xlink:href="MarmotMaterialHypoElastic_8cpp__incl_org.svg" target="_base">
           <rect id="button" ry="5" rx="5" y="6" x="6" height="38" width="38"
                fill="#f2f5e9" fill-opacity="0.5" stroke="#606060" stroke-width="1.0"/>
           <path id="arrow"
             d="M 11.500037,31.436501 C 11.940474,20.09759 22.043105,11.32322 32.158766,21.979434 L 37.068811,17.246167 C 37.068811,17.246167 37.088388,32 37.088388,32 L 22.160133,31.978069 C 22.160133,31.978069 26.997745,27.140456 26.997745,27.140456 C 18.528582,18.264221 13.291696,25.230495 11.500037,31.436501 z"
             style="fill:#404040;"/>
          </a>
         </g>
        </svg>
</svg>
