<?xml version="1.0" encoding="UTF-8" standalone="no"?>
<!DOCTYPE svg PUBLIC "-//W3C//DTD SVG 1.1//EN"
 "http://www.w3.org/Graphics/SVG/1.1/DTD/svg11.dtd">
<!-- Generated by graphviz version 2.44.0 ()
 -->
<!-- Title: modules/core/MarmotMathCore/include/Marmot/MarmotNumericalDifferentiationForFastor.h Pages: 1 -->
<!--zoomable 419 -->
<svg id="main" version="1.1" xmlns="http://www.w3.org/2000/svg" xmlns:xlink="http://www.w3.org/1999/xlink" xml:space="preserve" onload="init(evt)">
<style type="text/css"><![CDATA[
.edge:hover path { stroke: red; }
.edge:hover polygon { stroke: red; fill: red; }
]]></style>
<script type="text/javascript"><![CDATA[
var edges = document.getElementsByTagName('g');
if (edges && edges.length) {
  for (var i=0;i<edges.length;i++) {
    if (edges[i].id.substr(0,4)=='edge') {
      edges[i].setAttribute('class','edge');
    }
  }
}
]]></script>
        <defs>
                <circle id="rim" cx="0" cy="0" r="7"/>
                <circle id="rim2" cx="0" cy="0" r="3.5"/>
                <g id="zoomPlus">
                        <use xlink:href="#rim" fill="#404040">
                                <set attributeName="fill" to="#808080" begin="zoomplus.mouseover" end="zoomplus.mouseout"/>
                        </use>
                        <path d="M-4,0h8M0,-4v8" fill="none" stroke="white" stroke-width="1.5" pointer-events="none"/>
                </g>
                <g id="zoomMin">
                        <use xlink:href="#rim" fill="#404040">
                                <set attributeName="fill" to="#808080" begin="zoomminus.mouseover" end="zoomminus.mouseout"/>
                        </use>
                        <path d="M-4,0h8" fill="none" stroke="white" stroke-width="1.5" pointer-events="none"/>
                </g>
                <g id="dirArrow">
                        <path fill="none" stroke="white" stroke-width="1.5" d="M0,-3.0v7 M-2.5,-0.5L0,-3.0L2.5,-0.5"/>
                </g>
               <g id="resetDef">
                       <use xlink:href="#rim2" fill="#404040">
                               <set attributeName="fill" to="#808080" begin="reset.mouseover" end="reset.mouseout"/>
                       </use>
               </g>
        </defs>

<script type="text/javascript">
var viewWidth = 1184;
var viewHeight = 419;
var sectionId = 'dynsection-0';
</script>
<script xlink:href="svgpan.js"/>
<svg id="graph" class="graph">
<g id="viewport">
<title>modules/core/MarmotMathCore/include/Marmot/MarmotNumericalDifferentiationForFastor.h</title>
<polygon fill="white" stroke="transparent" points="-4,4 -4,-415 1180,-415 1180,4 -4,4"/>
<!-- Node1 -->
<g id="node1" class="node">
<title>Node1</title>
<g id="a_node1"><a xlink:title=" ">
<polygon fill="#bfbfbf" stroke="black" points="606,-369.5 606,-410.5 773,-410.5 773,-369.5 606,-369.5"/>
<text text-anchor="start" x="614" y="-398.5" font-family="Helvetica,sans-Serif" font-size="10.00">modules/core/MarmotMathCore</text>
<text text-anchor="start" x="614" y="-387.5" font-family="Helvetica,sans-Serif" font-size="10.00">/include/Marmot/MarmotNumerical</text>
<text text-anchor="middle" x="689.5" y="-376.5" font-family="Helvetica,sans-Serif" font-size="10.00">DifferentiationForFastor.h</text>
</a>
</g>
</g>
<!-- Node2 -->
<g id="node2" class="node">
<title>Node2</title>
<g id="a_node2"><a xlink:title=" ">
<polygon fill="white" stroke="#bfbfbf" points="0,-246.5 0,-265.5 83,-265.5 83,-246.5 0,-246.5"/>
<text text-anchor="middle" x="41.5" y="-253.5" font-family="Helvetica,sans-Serif" font-size="10.00">Fastor/Fastor.h</text>
</a>
</g>
</g>
<!-- Node1&#45;&gt;Node2 -->
<g id="edge1" class="edge">
<title>Node1&#45;&gt;Node2</title>
<path fill="none" stroke="midnightblue" d="M605.89,-388.99C504.69,-386.87 330.12,-376.42 187.5,-333 140.1,-318.57 89.93,-288.82 62.49,-271.12"/>
<polygon fill="midnightblue" stroke="midnightblue" points="64.37,-268.17 54.09,-265.62 60.54,-274.03 64.37,-268.17"/>
</g>
<!-- Node3 -->
<g id="node3" class="node">
<title>Node3</title>
<g id="a_node3"><a xlink:href="MarmotConstants_8h.html" target="_top" xlink:title=" ">
<polygon fill="white" stroke="black" points="1039,-73 1039,-92 1176,-92 1176,-73 1039,-73"/>
<text text-anchor="middle" x="1107.5" y="-80" font-family="Helvetica,sans-Serif" font-size="10.00">Marmot/MarmotConstants.h</text>
</a>
</g>
</g>
<!-- Node1&#45;&gt;Node3 -->
<g id="edge2" class="edge">
<title>Node1&#45;&gt;Node3</title>
<path fill="none" stroke="midnightblue" d="M709.87,-369.11C732.38,-344.9 765.5,-301.69 765.5,-257 765.5,-257 765.5,-257 765.5,-199 765.5,-168.24 966.68,-116.72 1060.44,-94.38"/>
<polygon fill="midnightblue" stroke="midnightblue" points="1061.33,-97.77 1070.25,-92.06 1059.71,-90.96 1061.33,-97.77"/>
</g>
<!-- Node5 -->
<g id="node5" class="node">
<title>Node5</title>
<g id="a_node5"><a xlink:href="MarmotFastorTensorBasics_8h.html" target="_top" xlink:title=" ">
<polygon fill="white" stroke="black" points="197,-302.5 197,-332.5 340,-332.5 340,-302.5 197,-302.5"/>
<text text-anchor="start" x="205" y="-320.5" font-family="Helvetica,sans-Serif" font-size="10.00">Marmot/MarmotFastorTensor</text>
<text text-anchor="middle" x="268.5" y="-309.5" font-family="Helvetica,sans-Serif" font-size="10.00">Basics.h</text>
</a>
</g>
</g>
<!-- Node1&#45;&gt;Node5 -->
<g id="edge4" class="edge">
<title>Node1&#45;&gt;Node5</title>
<path fill="none" stroke="midnightblue" d="M605.82,-374.99C531.62,-362.56 423.89,-344.52 350.27,-332.19"/>
<polygon fill="midnightblue" stroke="midnightblue" points="350.56,-328.69 340.11,-330.49 349.4,-335.6 350.56,-328.69"/>
</g>
<!-- Node12 -->
<g id="node12" class="node">
<title>Node12</title>
<g id="a_node12"><a xlink:href="MarmotTypedefs_8h.html" target="_top" xlink:title=" ">
<polygon fill="white" stroke="black" points="342,-73 342,-92 475,-92 475,-73 342,-73"/>
<text text-anchor="middle" x="408.5" y="-80" font-family="Helvetica,sans-Serif" font-size="10.00">Marmot/MarmotTypedefs.h</text>
</a>
</g>
</g>
<!-- Node1&#45;&gt;Node12 -->
<g id="edge34" class="edge">
<title>Node1&#45;&gt;Node12</title>
<path fill="none" stroke="midnightblue" d="M605.94,-378.37C547.39,-369.25 475.93,-354.2 454.5,-333 429.74,-308.52 435.5,-291.82 435.5,-257 435.5,-257 435.5,-257 435.5,-199 435.5,-163.78 423.45,-124.07 415.45,-101.59"/>
<polygon fill="midnightblue" stroke="midnightblue" points="418.67,-100.2 411.92,-92.03 412.1,-102.63 418.67,-100.2"/>
</g>
<!-- Node16 -->
<g id="node16" class="node">
<title>Node16</title>
<g id="a_node16"><a xlink:href="MarmotMath_8h.html" target="_top" xlink:title=" ">
<polygon fill="white" stroke="black" points="620,-134.5 620,-153.5 735,-153.5 735,-134.5 620,-134.5"/>
<text text-anchor="middle" x="677.5" y="-141.5" font-family="Helvetica,sans-Serif" font-size="10.00">Marmot/MarmotMath.h</text>
</a>
</g>
</g>
<!-- Node1&#45;&gt;Node16 -->
<g id="edge29" class="edge">
<title>Node1&#45;&gt;Node16</title>
<path fill="none" stroke="midnightblue" d="M693.98,-369.06C699.58,-341.39 707.84,-289.8 702.5,-246 698.9,-216.5 689.6,-183.2 683.42,-163.17"/>
<polygon fill="midnightblue" stroke="midnightblue" points="686.71,-161.99 680.36,-153.51 680.04,-164.11 686.71,-161.99"/>
</g>
<!-- Node23 -->
<g id="node23" class="node">
<title>Node23</title>
<g id="a_node23"><a xlink:href="MarmotNumericalDifferentiation_8h.html" target="_top" xlink:title=" ">
<polygon fill="white" stroke="black" points="464,-308 464,-327 661,-327 661,-308 464,-308"/>
<text text-anchor="middle" x="562.5" y="-315" font-family="Helvetica,sans-Serif" font-size="10.00">Marmot/MarmotNumericalDifferentiation.h</text>
</a>
</g>
</g>
<!-- Node1&#45;&gt;Node23 -->
<g id="edge30" class="edge">
<title>Node1&#45;&gt;Node23</title>
<path fill="none" stroke="midnightblue" d="M654.12,-369.36C632.78,-357.51 606.11,-342.71 587.07,-332.14"/>
<polygon fill="midnightblue" stroke="midnightblue" points="588.57,-328.97 578.12,-327.17 585.17,-335.09 588.57,-328.97"/>
</g>
<!-- Node24 -->
<g id="node24" class="node">
<title>Node24</title>
<g id="a_node24"><a xlink:title=" ">
<polygon fill="white" stroke="#bfbfbf" points="634,-246.5 634,-265.5 693,-265.5 693,-246.5 634,-246.5"/>
<text text-anchor="middle" x="663.5" y="-253.5" font-family="Helvetica,sans-Serif" font-size="10.00">functional</text>
</a>
</g>
</g>
<!-- Node1&#45;&gt;Node24 -->
<g id="edge37" class="edge">
<title>Node1&#45;&gt;Node24</title>
<path fill="none" stroke="midnightblue" d="M685.61,-369.24C680.62,-343.92 672.04,-300.35 667.16,-275.6"/>
<polygon fill="midnightblue" stroke="midnightblue" points="670.58,-274.82 665.21,-265.69 663.71,-276.17 670.58,-274.82"/>
</g>
<!-- Node25 -->
<g id="node25" class="node">
<title>Node25</title>
<g id="a_node25"><a xlink:title=" ">
<polygon fill="white" stroke="#bfbfbf" points="793.5,-308 793.5,-327 909.5,-327 909.5,-308 793.5,-308"/>
<text text-anchor="middle" x="851.5" y="-315" font-family="Helvetica,sans-Serif" font-size="10.00">Fastor/config/macros.h</text>
</a>
</g>
</g>
<!-- Node1&#45;&gt;Node25 -->
<g id="edge35" class="edge">
<title>Node1&#45;&gt;Node25</title>
<path fill="none" stroke="midnightblue" d="M734.63,-369.36C762.6,-357.19 797.74,-341.9 822.14,-331.28"/>
<polygon fill="midnightblue" stroke="midnightblue" points="823.8,-334.37 831.57,-327.17 821,-327.95 823.8,-334.37"/>
</g>
<!-- Node26 -->
<g id="node26" class="node">
<title>Node26</title>
<g id="a_node26"><a xlink:title=" ">
<polygon fill="white" stroke="#bfbfbf" points="928,-308 928,-327 1043,-327 1043,-308 928,-308"/>
<text text-anchor="middle" x="985.5" y="-315" font-family="Helvetica,sans-Serif" font-size="10.00">Fastor/tensor/Tensor.h</text>
</a>
</g>
</g>
<!-- Node1&#45;&gt;Node26 -->
<g id="edge36" class="edge">
<title>Node1&#45;&gt;Node26</title>
<path fill="none" stroke="midnightblue" d="M771.56,-369.46C825.84,-356.53 895.01,-340.05 939.76,-329.39"/>
<polygon fill="midnightblue" stroke="midnightblue" points="940.84,-332.73 949.76,-327.01 939.22,-325.93 940.84,-332.73"/>
</g>
<!-- Node4 -->
<g id="node4" class="node">
<title>Node4</title>
<g id="a_node4"><a xlink:title=" ">
<polygon fill="white" stroke="#bfbfbf" points="1085.5,-6 1085.5,-25 1129.5,-25 1129.5,-6 1085.5,-6"/>
<text text-anchor="middle" x="1107.5" y="-13" font-family="Helvetica,sans-Serif" font-size="10.00">cmath</text>
</a>
</g>
</g>
<!-- Node3&#45;&gt;Node4 -->
<g id="edge3" class="edge">
<title>Node3&#45;&gt;Node4</title>
<path fill="none" stroke="midnightblue" d="M1107.5,-72.73C1107.5,-63.18 1107.5,-47.62 1107.5,-35.28"/>
<polygon fill="midnightblue" stroke="midnightblue" points="1111,-35.13 1107.5,-25.13 1104,-35.13 1111,-35.13"/>
</g>
<!-- Node5&#45;&gt;Node2 -->
<g id="edge6" class="edge">
<title>Node5&#45;&gt;Node2</title>
<path fill="none" stroke="midnightblue" d="M214.99,-302.47C174.97,-291.99 120.99,-277.84 83.93,-268.12"/>
<polygon fill="midnightblue" stroke="midnightblue" points="84.51,-264.66 73.95,-265.51 82.74,-271.43 84.51,-264.66"/>
</g>
<!-- Node6 -->
<g id="node6" class="node">
<title>Node6</title>
<g id="a_node6"><a xlink:title=" ">
<polygon fill="white" stroke="#bfbfbf" points="184.5,-6 184.5,-25 248.5,-25 248.5,-6 184.5,-6"/>
<text text-anchor="middle" x="216.5" y="-13" font-family="Helvetica,sans-Serif" font-size="10.00">Eigen/Core</text>
</a>
</g>
</g>
<!-- Node5&#45;&gt;Node6 -->
<g id="edge5" class="edge">
<title>Node5&#45;&gt;Node6</title>
<path fill="none" stroke="midnightblue" d="M217.96,-302.49C172.06,-286.33 111.5,-254.8 111.5,-201 111.5,-201 111.5,-201 111.5,-143 111.5,-108.18 109.64,-94.88 130.5,-67 143.37,-49.81 163.95,-37.42 181.76,-29.22"/>
<polygon fill="midnightblue" stroke="midnightblue" points="183.51,-32.27 191.3,-25.09 180.73,-25.85 183.51,-32.27"/>
</g>
<!-- Node7 -->
<g id="node7" class="node">
<title>Node7</title>
<g id="a_node7"><a xlink:href="MarmotTensor_8h.html" target="_top" xlink:title=" ">
<polygon fill="white" stroke="black" points="207,-246.5 207,-265.5 330,-265.5 330,-246.5 207,-246.5"/>
<text text-anchor="middle" x="268.5" y="-253.5" font-family="Helvetica,sans-Serif" font-size="10.00">Marmot/MarmotTensor.h</text>
</a>
</g>
</g>
<!-- Node5&#45;&gt;Node7 -->
<g id="edge7" class="edge">
<title>Node5&#45;&gt;Node7</title>
<path fill="none" stroke="midnightblue" d="M268.5,-302.4C268.5,-294.47 268.5,-284.46 268.5,-275.86"/>
<polygon fill="midnightblue" stroke="midnightblue" points="272,-275.66 268.5,-265.66 265,-275.66 272,-275.66"/>
</g>
<!-- Node20 -->
<g id="node20" class="node">
<title>Node20</title>
<g id="a_node20"><a xlink:title=" ">
<polygon fill="white" stroke="#bfbfbf" points="493.5,-67.5 493.5,-97.5 597.5,-97.5 597.5,-67.5 493.5,-67.5"/>
<text text-anchor="start" x="501.5" y="-85.5" font-family="Helvetica,sans-Serif" font-size="10.00">autodiff/forward/dual</text>
<text text-anchor="middle" x="545.5" y="-74.5" font-family="Helvetica,sans-Serif" font-size="10.00">/dual.hpp</text>
</a>
</g>
</g>
<!-- Node5&#45;&gt;Node20 -->
<g id="edge28" class="edge">
<title>Node5&#45;&gt;Node20</title>
<path fill="none" stroke="midnightblue" d="M289.11,-302.43C303.26,-292.57 322.34,-278.9 338.5,-266 408.23,-210.32 486.07,-139.06 523.3,-104.36"/>
<polygon fill="midnightblue" stroke="midnightblue" points="525.7,-106.91 530.62,-97.53 520.92,-101.8 525.7,-106.91"/>
</g>
<!-- Node8 -->
<g id="node8" class="node">
<title>Node8</title>
<g id="a_node8"><a xlink:href="MarmotJournal_8h.html" target="_top" xlink:title=" ">
<polygon fill="white" stroke="black" points="164,-134.5 164,-153.5 289,-153.5 289,-134.5 164,-134.5"/>
<text text-anchor="middle" x="226.5" y="-141.5" font-family="Helvetica,sans-Serif" font-size="10.00">Marmot/MarmotJournal.h</text>
</a>
</g>
</g>
<!-- Node7&#45;&gt;Node8 -->
<g id="edge8" class="edge">
<title>Node7&#45;&gt;Node8</title>
<path fill="none" stroke="midnightblue" d="M263.12,-246.31C257.82,-237.44 249.76,-223.16 244.5,-210 238.39,-194.71 233.56,-176.6 230.45,-163.39"/>
<polygon fill="midnightblue" stroke="midnightblue" points="233.86,-162.6 228.25,-153.61 227.03,-164.13 233.86,-162.6"/>
</g>
<!-- Node7&#45;&gt;Node12 -->
<g id="edge12" class="edge">
<title>Node7&#45;&gt;Node12</title>
<path fill="none" stroke="midnightblue" d="M314.47,-246.48C336.81,-240.06 362.27,-228.97 378.5,-210 404.95,-179.08 409.02,-128.99 409.12,-102.05"/>
<polygon fill="midnightblue" stroke="midnightblue" points="412.62,-102 408.97,-92.05 405.62,-102.1 412.62,-102"/>
</g>
<!-- Node15 -->
<g id="node15" class="node">
<title>Node15</title>
<g id="a_node15"><a xlink:href="MarmotVoigt_8h.html" target="_top" xlink:title=" ">
<polygon fill="white" stroke="black" points="253.5,-190.5 253.5,-209.5 369.5,-209.5 369.5,-190.5 253.5,-190.5"/>
<text text-anchor="middle" x="311.5" y="-197.5" font-family="Helvetica,sans-Serif" font-size="10.00">Marmot/MarmotVoigt.h</text>
</a>
</g>
</g>
<!-- Node7&#45;&gt;Node15 -->
<g id="edge16" class="edge">
<title>Node7&#45;&gt;Node15</title>
<path fill="none" stroke="midnightblue" d="M275.6,-246.08C281.74,-238.38 290.77,-227.03 298.24,-217.65"/>
<polygon fill="midnightblue" stroke="midnightblue" points="301.04,-219.75 304.53,-209.75 295.56,-215.39 301.04,-219.75"/>
</g>
<!-- Node22 -->
<g id="node22" class="node">
<title>Node22</title>
<g id="a_node22"><a xlink:title=" ">
<polygon fill="white" stroke="#bfbfbf" points="158,-190.5 158,-209.5 197,-209.5 197,-190.5 158,-190.5"/>
<text text-anchor="middle" x="177.5" y="-197.5" font-family="Helvetica,sans-Serif" font-size="10.00">utility</text>
</a>
</g>
</g>
<!-- Node7&#45;&gt;Node22 -->
<g id="edge27" class="edge">
<title>Node7&#45;&gt;Node22</title>
<path fill="none" stroke="midnightblue" d="M253.88,-246.32C239.55,-237.82 217.49,-224.73 200.75,-214.8"/>
<polygon fill="midnightblue" stroke="midnightblue" points="202.47,-211.75 192.08,-209.65 198.9,-217.77 202.47,-211.75"/>
</g>
<!-- Node9 -->
<g id="node9" class="node">
<title>Node9</title>
<g id="a_node9"><a xlink:title=" ">
<polygon fill="white" stroke="#bfbfbf" points="199.5,-73 199.5,-92 253.5,-92 253.5,-73 199.5,-73"/>
<text text-anchor="middle" x="226.5" y="-80" font-family="Helvetica,sans-Serif" font-size="10.00">iostream</text>
</a>
</g>
</g>
<!-- Node8&#45;&gt;Node9 -->
<g id="edge9" class="edge">
<title>Node8&#45;&gt;Node9</title>
<path fill="none" stroke="midnightblue" d="M226.5,-134.48C226.5,-126.08 226.5,-112.98 226.5,-102.16"/>
<polygon fill="midnightblue" stroke="midnightblue" points="230,-102.01 226.5,-92.01 223,-102.01 230,-102.01"/>
</g>
<!-- Node10 -->
<g id="node10" class="node">
<title>Node10</title>
<g id="a_node10"><a xlink:title=" ">
<polygon fill="white" stroke="#bfbfbf" points="271.5,-73 271.5,-92 323.5,-92 323.5,-73 271.5,-73"/>
<text text-anchor="middle" x="297.5" y="-80" font-family="Helvetica,sans-Serif" font-size="10.00">sstream</text>
</a>
</g>
</g>
<!-- Node8&#45;&gt;Node10 -->
<g id="edge10" class="edge">
<title>Node8&#45;&gt;Node10</title>
<path fill="none" stroke="midnightblue" d="M236.67,-134.48C247.85,-125.11 266.02,-109.88 279.59,-98.51"/>
<polygon fill="midnightblue" stroke="midnightblue" points="281.93,-101.11 287.35,-92.01 277.43,-95.75 281.93,-101.11"/>
</g>
<!-- Node11 -->
<g id="node11" class="node">
<title>Node11</title>
<g id="a_node11"><a xlink:title=" ">
<polygon fill="white" stroke="#bfbfbf" points="140,-73 140,-92 181,-92 181,-73 140,-73"/>
<text text-anchor="middle" x="160.5" y="-80" font-family="Helvetica,sans-Serif" font-size="10.00">string</text>
</a>
</g>
</g>
<!-- Node8&#45;&gt;Node11 -->
<g id="edge11" class="edge">
<title>Node8&#45;&gt;Node11</title>
<path fill="none" stroke="midnightblue" d="M217.04,-134.48C206.75,-125.2 190.08,-110.17 177.51,-98.83"/>
<polygon fill="midnightblue" stroke="midnightblue" points="179.71,-96.11 169.94,-92.01 175.02,-101.3 179.71,-96.11"/>
</g>
<!-- Node12&#45;&gt;Node6 -->
<g id="edge13" class="edge">
<title>Node12&#45;&gt;Node6</title>
<path fill="none" stroke="midnightblue" d="M383,-72.87C349.2,-61.42 289.4,-41.18 251.42,-28.32"/>
<polygon fill="midnightblue" stroke="midnightblue" points="252.39,-24.96 241.8,-25.06 250.15,-31.59 252.39,-24.96"/>
</g>
<!-- Node13 -->
<g id="node13" class="node">
<title>Node13</title>
<g id="a_node13"><a xlink:title=" ">
<polygon fill="white" stroke="#bfbfbf" points="313,-6 313,-25 384,-25 384,-6 313,-6"/>
<text text-anchor="middle" x="348.5" y="-13" font-family="Helvetica,sans-Serif" font-size="10.00">Eigen/Dense</text>
</a>
</g>
</g>
<!-- Node12&#45;&gt;Node13 -->
<g id="edge14" class="edge">
<title>Node12&#45;&gt;Node13</title>
<path fill="none" stroke="midnightblue" d="M400.41,-72.73C390.96,-62.5 375.14,-45.36 363.45,-32.69"/>
<polygon fill="midnightblue" stroke="midnightblue" points="365.82,-30.1 356.46,-25.13 360.67,-34.85 365.82,-30.1"/>
</g>
<!-- Node14 -->
<g id="node14" class="node">
<title>Node14</title>
<g id="a_node14"><a xlink:title=" ">
<polygon fill="white" stroke="#bfbfbf" points="402,-0.5 402,-30.5 533,-30.5 533,-0.5 402,-0.5"/>
<text text-anchor="start" x="410" y="-18.5" font-family="Helvetica,sans-Serif" font-size="10.00">unsupported/Eigen/CXX11</text>
<text text-anchor="middle" x="467.5" y="-7.5" font-family="Helvetica,sans-Serif" font-size="10.00">/Tensor</text>
</a>
</g>
</g>
<!-- Node12&#45;&gt;Node14 -->
<g id="edge15" class="edge">
<title>Node12&#45;&gt;Node14</title>
<path fill="none" stroke="midnightblue" d="M416.46,-72.73C424.43,-63.95 437.02,-50.08 447.7,-38.31"/>
<polygon fill="midnightblue" stroke="midnightblue" points="450.58,-40.35 454.71,-30.59 445.4,-35.64 450.58,-40.35"/>
</g>
<!-- Node15&#45;&gt;Node8 -->
<g id="edge17" class="edge">
<title>Node15&#45;&gt;Node8</title>
<path fill="none" stroke="midnightblue" d="M297.84,-190.32C284.58,-181.9 264.23,-168.97 248.65,-159.07"/>
<polygon fill="midnightblue" stroke="midnightblue" points="250.44,-156.06 240.12,-153.65 246.69,-161.97 250.44,-156.06"/>
</g>
<!-- Node15&#45;&gt;Node12 -->
<g id="edge26" class="edge">
<title>Node15&#45;&gt;Node12</title>
<path fill="none" stroke="midnightblue" d="M318.79,-190.32C334.87,-171.17 373.61,-125.04 394.53,-100.13"/>
<polygon fill="midnightblue" stroke="midnightblue" points="397.37,-102.19 401.12,-92.28 392.01,-97.69 397.37,-102.19"/>
</g>
<!-- Node15&#45;&gt;Node16 -->
<g id="edge18" class="edge">
<title>Node15&#45;&gt;Node16</title>
<path fill="none" stroke="midnightblue" d="M369.49,-190.44C434.81,-180.81 540.84,-165.16 609.87,-154.98"/>
<polygon fill="midnightblue" stroke="midnightblue" points="610.4,-158.44 619.78,-153.52 609.37,-151.51 610.4,-158.44"/>
</g>
<!-- Node16&#45;&gt;Node3 -->
<g id="edge19" class="edge">
<title>Node16&#45;&gt;Node3</title>
<path fill="none" stroke="midnightblue" d="M735.13,-135.84C827.7,-124.32 1002.05,-102.49 1030.5,-98 1038.43,-96.75 1046.79,-95.3 1054.97,-93.82"/>
<polygon fill="midnightblue" stroke="midnightblue" points="1055.61,-97.26 1064.81,-92.01 1054.34,-90.38 1055.61,-97.26"/>
</g>
<!-- Node16&#45;&gt;Node12 -->
<g id="edge20" class="edge">
<title>Node16&#45;&gt;Node12</title>
<path fill="none" stroke="midnightblue" d="M638.96,-134.48C591.02,-123.87 509.14,-105.76 456.99,-94.22"/>
<polygon fill="midnightblue" stroke="midnightblue" points="457.49,-90.75 446.97,-92.01 455.98,-97.59 457.49,-90.75"/>
</g>
<!-- Node17 -->
<g id="node17" class="node">
<title>Node17</title>
<g id="a_node17"><a xlink:title=" ">
<polygon fill="white" stroke="#bfbfbf" points="615.5,-73 615.5,-92 737.5,-92 737.5,-73 615.5,-73"/>
<text text-anchor="middle" x="676.5" y="-80" font-family="Helvetica,sans-Serif" font-size="10.00">autodiff/forward/dual.hpp</text>
</a>
</g>
</g>
<!-- Node16&#45;&gt;Node17 -->
<g id="edge21" class="edge">
<title>Node16&#45;&gt;Node17</title>
<path fill="none" stroke="midnightblue" d="M677.36,-134.48C677.22,-126.08 677,-112.98 676.81,-102.16"/>
<polygon fill="midnightblue" stroke="midnightblue" points="680.31,-101.95 676.64,-92.01 673.31,-102.07 680.31,-101.95"/>
</g>
<!-- Node18 -->
<g id="node18" class="node">
<title>Node18</title>
<g id="a_node18"><a xlink:title=" ">
<polygon fill="white" stroke="#bfbfbf" points="755.5,-73 755.5,-92 875.5,-92 875.5,-73 755.5,-73"/>
<text text-anchor="middle" x="815.5" y="-80" font-family="Helvetica,sans-Serif" font-size="10.00">autodiff/forward/real.hpp</text>
</a>
</g>
</g>
<!-- Node16&#45;&gt;Node18 -->
<g id="edge22" class="edge">
<title>Node16&#45;&gt;Node18</title>
<path fill="none" stroke="midnightblue" d="M697.27,-134.48C720.64,-124.4 759.71,-107.55 786.5,-96"/>
<polygon fill="midnightblue" stroke="midnightblue" points="787.97,-99.18 795.76,-92.01 785.2,-92.75 787.97,-99.18"/>
</g>
<!-- Node19 -->
<g id="node19" class="node">
<title>Node19</title>
<g id="a_node19"><a xlink:title=" ">
<polygon fill="white" stroke="#bfbfbf" points="893.5,-73 893.5,-92 949.5,-92 949.5,-73 893.5,-73"/>
<text text-anchor="middle" x="921.5" y="-80" font-family="Helvetica,sans-Serif" font-size="10.00">algorithm</text>
</a>
</g>
</g>
<!-- Node16&#45;&gt;Node19 -->
<g id="edge23" class="edge">
<title>Node16&#45;&gt;Node19</title>
<path fill="none" stroke="midnightblue" d="M727.42,-134.46C769.71,-126.68 831.7,-113.97 884.5,-98 886.93,-97.27 889.42,-96.44 891.91,-95.57"/>
<polygon fill="midnightblue" stroke="midnightblue" points="893.19,-98.83 901.35,-92.07 890.76,-92.27 893.19,-98.83"/>
</g>
<!-- Node16&#45;&gt;Node20 -->
<g id="edge24" class="edge">
<title>Node16&#45;&gt;Node20</title>
<path fill="none" stroke="midnightblue" d="M658.59,-134.48C639.71,-125.96 610.1,-112.62 585.92,-101.72"/>
<polygon fill="midnightblue" stroke="midnightblue" points="587.16,-98.44 576.61,-97.52 584.29,-104.82 587.16,-98.44"/>
</g>
<!-- Node21 -->
<g id="node21" class="node">
<title>Node21</title>
<g id="a_node21"><a xlink:title=" ">
<polygon fill="white" stroke="#bfbfbf" points="968,-73 968,-92 1021,-92 1021,-73 968,-73"/>
<text text-anchor="middle" x="994.5" y="-80" font-family="Helvetica,sans-Serif" font-size="10.00">complex</text>
</a>
</g>
</g>
<!-- Node16&#45;&gt;Node21 -->
<g id="edge25" class="edge">
<title>Node16&#45;&gt;Node21</title>
<path fill="none" stroke="midnightblue" d="M735.18,-135.32C804.78,-125.77 917.56,-109.37 958.5,-98 960.94,-97.32 963.45,-96.53 965.94,-95.67"/>
<polygon fill="midnightblue" stroke="midnightblue" points="967.21,-98.93 975.35,-92.14 964.75,-92.38 967.21,-98.93"/>
</g>
<!-- Node23&#45;&gt;Node12 -->
<g id="edge32" class="edge">
<title>Node23&#45;&gt;Node12</title>
<path fill="none" stroke="midnightblue" d="M557.69,-307.89C542.73,-281.29 495.29,-198.38 449.5,-134 441.1,-122.18 430.81,-109.52 422.64,-99.83"/>
<polygon fill="midnightblue" stroke="midnightblue" points="425.26,-97.51 416.11,-92.17 419.94,-102.05 425.26,-97.51"/>
</g>
<!-- Node23&#45;&gt;Node16 -->
<g id="edge31" class="edge">
<title>Node23&#45;&gt;Node16</title>
<path fill="none" stroke="midnightblue" d="M568.36,-307.76C586.51,-280.69 642.02,-197.91 666.13,-161.96"/>
<polygon fill="midnightblue" stroke="midnightblue" points="669.12,-163.77 671.79,-153.52 663.31,-159.88 669.12,-163.77"/>
</g>
<!-- Node23&#45;&gt;Node24 -->
<g id="edge33" class="edge">
<title>Node23&#45;&gt;Node24</title>
<path fill="none" stroke="midnightblue" d="M576.97,-307.98C593.47,-298.25 620.68,-282.23 640.18,-270.74"/>
<polygon fill="midnightblue" stroke="midnightblue" points="642.22,-273.6 649.06,-265.51 638.66,-267.57 642.22,-273.6"/>
</g>
</g>
</svg>
        <g id="navigator" transform="translate(0 0)" fill="#404254">
                <rect fill="#f2f5e9" fill-opacity="0.5" stroke="#606060" stroke-width=".5" x="0" y="0" width="60" height="60"/>
                <use id="zoomplus" xlink:href="#zoomPlus" x="17" y="9" onmousedown="handleZoom(evt,'in')"/>
                <use id="zoomminus" xlink:href="#zoomMin" x="42" y="9" onmousedown="handleZoom(evt,'out')"/>
                <use id="reset" xlink:href="#resetDef" x="30" y="36" onmousedown="handleReset()"/>
                <g id="arrowUp" xlink:href="#dirArrow" transform="translate(30 24)" onmousedown="handlePan(0,-1)">
                  <use xlink:href="#rim" fill="#404040">
                        <set attributeName="fill" to="#808080" begin="arrowUp.mouseover" end="arrowUp.mouseout"/>
                  </use>
                  <path fill="none" stroke="white" stroke-width="1.5" d="M0,-3.0v7 M-2.5,-0.5L0,-3.0L2.5,-0.5"/>
                </g>
                <g id="arrowRight" xlink:href="#dirArrow" transform="rotate(90) translate(36 -43)" onmousedown="handlePan(1,0)">
                  <use xlink:href="#rim" fill="#404040">
                        <set attributeName="fill" to="#808080" begin="arrowRight.mouseover" end="arrowRight.mouseout"/>
                  </use>
                  <path fill="none" stroke="white" stroke-width="1.5" d="M0,-3.0v7 M-2.5,-0.5L0,-3.0L2.5,-0.5"/>
                </g>
                <g id="arrowDown" xlink:href="#dirArrow" transform="rotate(180) translate(-30 -48)" onmousedown="handlePan(0,1)">
                  <use xlink:href="#rim" fill="#404040">
                        <set attributeName="fill" to="#808080" begin="arrowDown.mouseover" end="arrowDown.mouseout"/>
                  </use>
                  <path fill="none" stroke="white" stroke-width="1.5" d="M0,-3.0v7 M-2.5,-0.5L0,-3.0L2.5,-0.5"/>
                </g>
                <g id="arrowLeft" xlink:href="#dirArrow" transform="rotate(270) translate(-36 17)" onmousedown="handlePan(-1,0)">
                  <use xlink:href="#rim" fill="#404040">
                        <set attributeName="fill" to="#808080" begin="arrowLeft.mouseover" end="arrowLeft.mouseout"/>
                  </use>
                  <path fill="none" stroke="white" stroke-width="1.5" d="M0,-3.0v7 M-2.5,-0.5L0,-3.0L2.5,-0.5"/>
                </g>
        </g>
        <svg viewBox="0 0 15 15" width="100%" height="30px" preserveAspectRatio="xMaxYMin meet">
         <g id="arrow_out" transform="scale(0.3 0.3)">
          <a xlink:href="MarmotNumericalDifferentiationForFastor_8h__incl_org.svg" target="_base">
           <rect id="button" ry="5" rx="5" y="6" x="6" height="38" width="38"
                fill="#f2f5e9" fill-opacity="0.5" stroke="#606060" stroke-width="1.0"/>
           <path id="arrow"
             d="M 11.500037,31.436501 C 11.940474,20.09759 22.043105,11.32322 32.158766,21.979434 L 37.068811,17.246167 C 37.068811,17.246167 37.088388,32 37.088388,32 L 22.160133,31.978069 C 22.160133,31.978069 26.997745,27.140456 26.997745,27.140456 C 18.528582,18.264221 13.291696,25.230495 11.500037,31.436501 z"
             style="fill:#404040;"/>
          </a>
         </g>
        </svg>
</svg>
