<?xml version="1.0" encoding="UTF-8" standalone="no"?>
<!DOCTYPE svg PUBLIC "-//W3C//DTD SVG 1.1//EN"
 "http://www.w3.org/Graphics/SVG/1.1/DTD/svg11.dtd">
<!-- Generated by graphviz version 2.44.0 ()
 -->
<!-- Title: modules/core/MarmotFiniteElementCore/src/MarmotFiniteElementSpatialWrapper.cpp Pages: 1 -->
<svg width="1420pt" height="307pt"
 viewBox="0.00 0.00 1420.00 307.00" xmlns="http://www.w3.org/2000/svg" xmlns:xlink="http://www.w3.org/1999/xlink">
<g id="graph0" class="graph" transform="scale(1 1) rotate(0) translate(4 303)">
<title>modules/core/MarmotFiniteElementCore/src/MarmotFiniteElementSpatialWrapper.cpp</title>
<polygon fill="white" stroke="transparent" points="-4,4 -4,-303 1416,-303 1416,4 -4,4"/>
<!-- Node1 -->
<g id="node1" class="node">
<title>Node1</title>
<g id="a_node1"><a xlink:title=" ">
<polygon fill="#bfbfbf" stroke="black" points="287,-257.5 287,-298.5 471,-298.5 471,-257.5 287,-257.5"/>
<text text-anchor="start" x="295" y="-286.5" font-family="Helvetica,sans-Serif" font-size="10.00">modules/core/MarmotFinite</text>
<text text-anchor="start" x="295" y="-275.5" font-family="Helvetica,sans-Serif" font-size="10.00">ElementCore/src/MarmotFiniteElement</text>
<text text-anchor="middle" x="379" y="-264.5" font-family="Helvetica,sans-Serif" font-size="10.00">SpatialWrapper.cpp</text>
</a>
</g>
</g>
<!-- Node2 -->
<g id="node2" class="node">
<title>Node2</title>
<g id="a_node2"><a xlink:title=" ">
<polygon fill="white" stroke="#bfbfbf" points="10,-134.5 10,-153.5 84,-153.5 84,-134.5 10,-134.5"/>
<text text-anchor="middle" x="47" y="-141.5" font-family="Helvetica,sans-Serif" font-size="10.00">Eigen/Sparse</text>
</a>
</g>
</g>
<!-- Node1&#45;&gt;Node2 -->
<g id="edge1" class="edge">
<title>Node1&#45;&gt;Node2</title>
<path fill="none" stroke="midnightblue" d="M290.29,-257.46C254.7,-248.3 213.72,-236.05 178,-221 137,-203.73 92.96,-176.08 67.82,-159.32"/>
<polygon fill="midnightblue" stroke="midnightblue" points="69.7,-156.37 59.45,-153.68 65.79,-162.17 69.7,-156.37"/>
</g>
<!-- Node3 -->
<g id="node3" class="node">
<title>Node3</title>
<g id="a_node3"><a xlink:href="MarmotFiniteElementSpatialWrapper_8h.html" target="_top" xlink:title=" ">
<polygon fill="white" stroke="black" points="187.5,-190.5 187.5,-220.5 332.5,-220.5 332.5,-190.5 187.5,-190.5"/>
<text text-anchor="start" x="195.5" y="-208.5" font-family="Helvetica,sans-Serif" font-size="10.00">Marmot/MarmotFiniteElement</text>
<text text-anchor="middle" x="260" y="-197.5" font-family="Helvetica,sans-Serif" font-size="10.00">SpatialWrapper.h</text>
</a>
</g>
</g>
<!-- Node1&#45;&gt;Node3 -->
<g id="edge2" class="edge">
<title>Node1&#45;&gt;Node3</title>
<path fill="none" stroke="midnightblue" d="M345.85,-257.36C329.26,-247.53 309.23,-235.67 292.7,-225.87"/>
<polygon fill="midnightblue" stroke="midnightblue" points="294.31,-222.76 283.92,-220.67 290.74,-228.78 294.31,-222.76"/>
</g>
<!-- Node11 -->
<g id="node11" class="node">
<title>Node11</title>
<g id="a_node11"><a xlink:href="MarmotVoigt_8h.html" target="_top" xlink:title=" ">
<polygon fill="white" stroke="black" points="526,-196 526,-215 642,-215 642,-196 526,-196"/>
<text text-anchor="middle" x="584" y="-203" font-family="Helvetica,sans-Serif" font-size="10.00">Marmot/MarmotVoigt.h</text>
</a>
</g>
</g>
<!-- Node1&#45;&gt;Node11 -->
<g id="edge12" class="edge">
<title>Node1&#45;&gt;Node11</title>
<path fill="none" stroke="midnightblue" d="M435.83,-257.46C472.4,-244.88 518.71,-228.95 549.74,-218.28"/>
<polygon fill="midnightblue" stroke="midnightblue" points="550.93,-221.57 559.25,-215.01 548.65,-214.96 550.93,-221.57"/>
</g>
<!-- Node13 -->
<g id="node13" class="node">
<title>Node13</title>
<g id="a_node13"><a xlink:title=" ">
<polygon fill="white" stroke="#bfbfbf" points="435,-73 435,-92 489,-92 489,-73 435,-73"/>
<text text-anchor="middle" x="462" y="-80" font-family="Helvetica,sans-Serif" font-size="10.00">iostream</text>
</a>
</g>
</g>
<!-- Node1&#45;&gt;Node13 -->
<g id="edge30" class="edge">
<title>Node1&#45;&gt;Node13</title>
<path fill="none" stroke="midnightblue" d="M387.42,-257.38C403.54,-219.78 438.59,-138.06 454.22,-101.65"/>
<polygon fill="midnightblue" stroke="midnightblue" points="457.51,-102.84 458.24,-92.27 451.08,-100.08 457.51,-102.84"/>
</g>
<!-- Node3&#45;&gt;Node2 -->
<g id="edge3" class="edge">
<title>Node3&#45;&gt;Node2</title>
<path fill="none" stroke="midnightblue" d="M209.79,-190.47C172.4,-180.03 122.02,-165.96 87.26,-156.25"/>
<polygon fill="midnightblue" stroke="midnightblue" points="88.02,-152.83 77.45,-153.51 86.14,-159.57 88.02,-152.83"/>
</g>
<!-- Node4 -->
<g id="node4" class="node">
<title>Node4</title>
<g id="a_node4"><a xlink:href="MarmotElement_8h.html" target="_top" xlink:title=" ">
<polygon fill="white" stroke="black" points="140,-134.5 140,-153.5 268,-153.5 268,-134.5 140,-134.5"/>
<text text-anchor="middle" x="204" y="-141.5" font-family="Helvetica,sans-Serif" font-size="10.00">Marmot/MarmotElement.h</text>
</a>
</g>
</g>
<!-- Node3&#45;&gt;Node4 -->
<g id="edge4" class="edge">
<title>Node3&#45;&gt;Node4</title>
<path fill="none" stroke="midnightblue" d="M246.73,-190.4C238.42,-181.58 227.7,-170.18 219.08,-161.02"/>
<polygon fill="midnightblue" stroke="midnightblue" points="221.55,-158.54 212.15,-153.66 216.45,-163.34 221.55,-158.54"/>
</g>
<!-- Node5 -->
<g id="node5" class="node">
<title>Node5</title>
<g id="a_node5"><a xlink:href="MarmotElementProperty_8h.html" target="_top" xlink:title=" ">
<polygon fill="white" stroke="black" points="0,-73 0,-92 164,-92 164,-73 0,-73"/>
<text text-anchor="middle" x="82" y="-80" font-family="Helvetica,sans-Serif" font-size="10.00">Marmot/MarmotElementProperty.h</text>
</a>
</g>
</g>
<!-- Node3&#45;&gt;Node5 -->
<g id="edge9" class="edge">
<title>Node3&#45;&gt;Node5</title>
<path fill="none" stroke="midnightblue" d="M203.86,-190.49C179.72,-182.55 152.24,-170.77 131,-154 112.96,-139.76 98.87,-117.09 90.52,-101.32"/>
<polygon fill="midnightblue" stroke="midnightblue" points="93.51,-99.46 85.88,-92.1 87.25,-102.61 93.51,-99.46"/>
</g>
<!-- Node9 -->
<g id="node9" class="node">
<title>Node9</title>
<g id="a_node9"><a xlink:title=" ">
<polygon fill="white" stroke="#bfbfbf" points="286.5,-134.5 286.5,-153.5 345.5,-153.5 345.5,-134.5 286.5,-134.5"/>
<text text-anchor="middle" x="316" y="-141.5" font-family="Helvetica,sans-Serif" font-size="10.00">functional</text>
</a>
</g>
</g>
<!-- Node3&#45;&gt;Node9 -->
<g id="edge10" class="edge">
<title>Node3&#45;&gt;Node9</title>
<path fill="none" stroke="midnightblue" d="M273.27,-190.4C281.58,-181.58 292.3,-170.18 300.92,-161.02"/>
<polygon fill="midnightblue" stroke="midnightblue" points="303.55,-163.34 307.85,-153.66 298.45,-158.54 303.55,-163.34"/>
</g>
<!-- Node10 -->
<g id="node10" class="node">
<title>Node10</title>
<g id="a_node10"><a xlink:title=" ">
<polygon fill="white" stroke="#bfbfbf" points="363.5,-134.5 363.5,-153.5 414.5,-153.5 414.5,-134.5 363.5,-134.5"/>
<text text-anchor="middle" x="389" y="-141.5" font-family="Helvetica,sans-Serif" font-size="10.00">memory</text>
</a>
</g>
</g>
<!-- Node3&#45;&gt;Node10 -->
<g id="edge11" class="edge">
<title>Node3&#45;&gt;Node10</title>
<path fill="none" stroke="midnightblue" d="M290.57,-190.4C311.93,-180.55 340.22,-167.5 360.98,-157.92"/>
<polygon fill="midnightblue" stroke="midnightblue" points="362.61,-161.02 370.23,-153.66 359.68,-154.67 362.61,-161.02"/>
</g>
<!-- Node4&#45;&gt;Node5 -->
<g id="edge5" class="edge">
<title>Node4&#45;&gt;Node5</title>
<path fill="none" stroke="midnightblue" d="M186.52,-134.48C166.14,-124.53 132.22,-107.99 108.58,-96.46"/>
<polygon fill="midnightblue" stroke="midnightblue" points="109.97,-93.25 99.45,-92.01 106.9,-99.54 109.97,-93.25"/>
</g>
<!-- Node6 -->
<g id="node6" class="node">
<title>Node6</title>
<g id="a_node6"><a xlink:href="MarmotUtils_8h.html" target="_top" xlink:title=" ">
<polygon fill="white" stroke="black" points="244.5,-73 244.5,-92 357.5,-92 357.5,-73 244.5,-73"/>
<text text-anchor="middle" x="301" y="-80" font-family="Helvetica,sans-Serif" font-size="10.00">Marmot/MarmotUtils.h</text>
</a>
</g>
</g>
<!-- Node4&#45;&gt;Node6 -->
<g id="edge6" class="edge">
<title>Node4&#45;&gt;Node6</title>
<path fill="none" stroke="midnightblue" d="M217.9,-134.48C233.67,-124.8 259.64,-108.87 278.35,-97.39"/>
<polygon fill="midnightblue" stroke="midnightblue" points="280.43,-100.22 287.13,-92.01 276.77,-94.25 280.43,-100.22"/>
</g>
<!-- Node7 -->
<g id="node7" class="node">
<title>Node7</title>
<g id="a_node7"><a xlink:title=" ">
<polygon fill="white" stroke="#bfbfbf" points="375.5,-73 375.5,-92 416.5,-92 416.5,-73 375.5,-73"/>
<text text-anchor="middle" x="396" y="-80" font-family="Helvetica,sans-Serif" font-size="10.00">string</text>
</a>
</g>
</g>
<!-- Node4&#45;&gt;Node7 -->
<g id="edge7" class="edge">
<title>Node4&#45;&gt;Node7</title>
<path fill="none" stroke="midnightblue" d="M242.26,-134.43C275.48,-126.5 324.62,-113.6 366,-98 367.42,-97.46 368.87,-96.89 370.31,-96.28"/>
<polygon fill="midnightblue" stroke="midnightblue" points="372.06,-99.33 379.73,-92.02 369.17,-92.95 372.06,-99.33"/>
</g>
<!-- Node8 -->
<g id="node8" class="node">
<title>Node8</title>
<g id="a_node8"><a xlink:title=" ">
<polygon fill="white" stroke="#bfbfbf" points="182,-73 182,-92 226,-92 226,-73 182,-73"/>
<text text-anchor="middle" x="204" y="-80" font-family="Helvetica,sans-Serif" font-size="10.00">vector</text>
</a>
</g>
</g>
<!-- Node4&#45;&gt;Node8 -->
<g id="edge8" class="edge">
<title>Node4&#45;&gt;Node8</title>
<path fill="none" stroke="midnightblue" d="M204,-134.48C204,-126.08 204,-112.98 204,-102.16"/>
<polygon fill="midnightblue" stroke="midnightblue" points="207.5,-102.01 204,-92.01 200.5,-102.01 207.5,-102.01"/>
</g>
<!-- Node12 -->
<g id="node12" class="node">
<title>Node12</title>
<g id="a_node12"><a xlink:href="MarmotJournal_8h.html" target="_top" xlink:title=" ">
<polygon fill="white" stroke="black" points="471.5,-134.5 471.5,-153.5 596.5,-153.5 596.5,-134.5 471.5,-134.5"/>
<text text-anchor="middle" x="534" y="-141.5" font-family="Helvetica,sans-Serif" font-size="10.00">Marmot/MarmotJournal.h</text>
</a>
</g>
</g>
<!-- Node11&#45;&gt;Node12 -->
<g id="edge13" class="edge">
<title>Node11&#45;&gt;Node12</title>
<path fill="none" stroke="midnightblue" d="M576.84,-195.98C569.26,-186.96 557.13,-172.52 547.71,-161.31"/>
<polygon fill="midnightblue" stroke="midnightblue" points="550.26,-158.91 541.15,-153.51 544.9,-163.42 550.26,-158.91"/>
</g>
<!-- Node15 -->
<g id="node15" class="node">
<title>Node15</title>
<g id="a_node15"><a xlink:href="MarmotMath_8h.html" target="_top" xlink:title=" ">
<polygon fill="white" stroke="black" points="876.5,-134.5 876.5,-153.5 991.5,-153.5 991.5,-134.5 876.5,-134.5"/>
<text text-anchor="middle" x="934" y="-141.5" font-family="Helvetica,sans-Serif" font-size="10.00">Marmot/MarmotMath.h</text>
</a>
</g>
</g>
<!-- Node11&#45;&gt;Node15 -->
<g id="edge17" class="edge">
<title>Node11&#45;&gt;Node15</title>
<path fill="none" stroke="midnightblue" d="M634.15,-195.98C697.43,-185.22 806.17,-166.73 873.86,-155.22"/>
<polygon fill="midnightblue" stroke="midnightblue" points="874.67,-158.64 883.95,-153.51 873.5,-151.73 874.67,-158.64"/>
</g>
<!-- Node18 -->
<g id="node18" class="node">
<title>Node18</title>
<g id="a_node18"><a xlink:href="MarmotTypedefs_8h.html" target="_top" xlink:title=" ">
<polygon fill="white" stroke="black" points="577.5,-73 577.5,-92 710.5,-92 710.5,-73 577.5,-73"/>
<text text-anchor="middle" x="644" y="-80" font-family="Helvetica,sans-Serif" font-size="10.00">Marmot/MarmotTypedefs.h</text>
</a>
</g>
</g>
<!-- Node11&#45;&gt;Node18 -->
<g id="edge29" class="edge">
<title>Node11&#45;&gt;Node18</title>
<path fill="none" stroke="midnightblue" d="M588.32,-195.8C598.09,-176.09 622.08,-127.71 635.15,-101.34"/>
<polygon fill="midnightblue" stroke="midnightblue" points="638.42,-102.64 639.72,-92.12 632.15,-99.53 638.42,-102.64"/>
</g>
<!-- Node12&#45;&gt;Node7 -->
<g id="edge16" class="edge">
<title>Node12&#45;&gt;Node7</title>
<path fill="none" stroke="midnightblue" d="M512.33,-134.38C490.42,-125.57 455.64,-111.33 426,-98 424.84,-97.48 423.66,-96.94 422.47,-96.39"/>
<polygon fill="midnightblue" stroke="midnightblue" points="423.91,-93.2 413.37,-92.1 420.92,-99.53 423.91,-93.2"/>
</g>
<!-- Node12&#45;&gt;Node13 -->
<g id="edge14" class="edge">
<title>Node12&#45;&gt;Node13</title>
<path fill="none" stroke="midnightblue" d="M523.68,-134.48C512.35,-125.11 493.93,-109.88 480.16,-98.51"/>
<polygon fill="midnightblue" stroke="midnightblue" points="482.23,-95.68 472.3,-92.01 477.78,-101.08 482.23,-95.68"/>
</g>
<!-- Node14 -->
<g id="node14" class="node">
<title>Node14</title>
<g id="a_node14"><a xlink:title=" ">
<polygon fill="white" stroke="#bfbfbf" points="507,-73 507,-92 559,-92 559,-73 507,-73"/>
<text text-anchor="middle" x="533" y="-80" font-family="Helvetica,sans-Serif" font-size="10.00">sstream</text>
</a>
</g>
</g>
<!-- Node12&#45;&gt;Node14 -->
<g id="edge15" class="edge">
<title>Node12&#45;&gt;Node14</title>
<path fill="none" stroke="midnightblue" d="M533.86,-134.48C533.72,-126.08 533.5,-112.98 533.31,-102.16"/>
<polygon fill="midnightblue" stroke="midnightblue" points="536.81,-101.95 533.14,-92.01 529.81,-102.07 536.81,-101.95"/>
</g>
<!-- Node16 -->
<g id="node16" class="node">
<title>Node16</title>
<g id="a_node16"><a xlink:href="MarmotConstants_8h.html" target="_top" xlink:title=" ">
<polygon fill="white" stroke="black" points="922.5,-73 922.5,-92 1059.5,-92 1059.5,-73 922.5,-73"/>
<text text-anchor="middle" x="991" y="-80" font-family="Helvetica,sans-Serif" font-size="10.00">Marmot/MarmotConstants.h</text>
</a>
</g>
</g>
<!-- Node15&#45;&gt;Node16 -->
<g id="edge18" class="edge">
<title>Node15&#45;&gt;Node16</title>
<path fill="none" stroke="midnightblue" d="M942.17,-134.48C950.89,-125.37 964.9,-110.74 975.69,-99.48"/>
<polygon fill="midnightblue" stroke="midnightblue" points="978.46,-101.65 982.85,-92.01 973.4,-96.81 978.46,-101.65"/>
</g>
<!-- Node15&#45;&gt;Node18 -->
<g id="edge20" class="edge">
<title>Node15&#45;&gt;Node18</title>
<path fill="none" stroke="midnightblue" d="M892.45,-134.48C840.55,-123.83 751.76,-105.61 695.57,-94.08"/>
<polygon fill="midnightblue" stroke="midnightblue" points="695.97,-90.59 685.47,-92.01 694.57,-97.45 695.97,-90.59"/>
</g>
<!-- Node22 -->
<g id="node22" class="node">
<title>Node22</title>
<g id="a_node22"><a xlink:title=" ">
<polygon fill="white" stroke="#bfbfbf" points="1078,-73 1078,-92 1200,-92 1200,-73 1078,-73"/>
<text text-anchor="middle" x="1139" y="-80" font-family="Helvetica,sans-Serif" font-size="10.00">autodiff/forward/dual.hpp</text>
</a>
</g>
</g>
<!-- Node15&#45;&gt;Node22 -->
<g id="edge24" class="edge">
<title>Node15&#45;&gt;Node22</title>
<path fill="none" stroke="midnightblue" d="M963.37,-134.48C999.3,-124.05 1060.23,-106.36 1100.04,-94.81"/>
<polygon fill="midnightblue" stroke="midnightblue" points="1101.05,-98.16 1109.68,-92.01 1099.1,-91.44 1101.05,-98.16"/>
</g>
<!-- Node23 -->
<g id="node23" class="node">
<title>Node23</title>
<g id="a_node23"><a xlink:title=" ">
<polygon fill="white" stroke="#bfbfbf" points="1218,-73 1218,-92 1338,-92 1338,-73 1218,-73"/>
<text text-anchor="middle" x="1278" y="-80" font-family="Helvetica,sans-Serif" font-size="10.00">autodiff/forward/real.hpp</text>
</a>
</g>
</g>
<!-- Node15&#45;&gt;Node23 -->
<g id="edge25" class="edge">
<title>Node15&#45;&gt;Node23</title>
<path fill="none" stroke="midnightblue" d="M990.75,-134.48C1046.44,-125.93 1133.74,-112.06 1209,-98 1215.55,-96.78 1222.43,-95.42 1229.21,-94.04"/>
<polygon fill="midnightblue" stroke="midnightblue" points="1229.93,-97.46 1239.02,-92.01 1228.51,-90.61 1229.93,-97.46"/>
</g>
<!-- Node24 -->
<g id="node24" class="node">
<title>Node24</title>
<g id="a_node24"><a xlink:title=" ">
<polygon fill="white" stroke="#bfbfbf" points="1356,-73 1356,-92 1412,-92 1412,-73 1356,-73"/>
<text text-anchor="middle" x="1384" y="-80" font-family="Helvetica,sans-Serif" font-size="10.00">algorithm</text>
</a>
</g>
</g>
<!-- Node15&#45;&gt;Node24 -->
<g id="edge26" class="edge">
<title>Node15&#45;&gt;Node24</title>
<path fill="none" stroke="midnightblue" d="M991.62,-141.52C1072.21,-138.37 1222.68,-128.56 1347,-98 1349.83,-97.31 1352.73,-96.45 1355.6,-95.49"/>
<polygon fill="midnightblue" stroke="midnightblue" points="1356.92,-98.74 1365.11,-92.01 1354.52,-92.16 1356.92,-98.74"/>
</g>
<!-- Node25 -->
<g id="node25" class="node">
<title>Node25</title>
<g id="a_node25"><a xlink:title=" ">
<polygon fill="white" stroke="#bfbfbf" points="729,-67.5 729,-97.5 833,-97.5 833,-67.5 729,-67.5"/>
<text text-anchor="start" x="737" y="-85.5" font-family="Helvetica,sans-Serif" font-size="10.00">autodiff/forward/dual</text>
<text text-anchor="middle" x="781" y="-74.5" font-family="Helvetica,sans-Serif" font-size="10.00">/dual.hpp</text>
</a>
</g>
</g>
<!-- Node15&#45;&gt;Node25 -->
<g id="edge27" class="edge">
<title>Node15&#45;&gt;Node25</title>
<path fill="none" stroke="midnightblue" d="M912.08,-134.48C889.9,-125.85 854.96,-112.26 826.73,-101.29"/>
<polygon fill="midnightblue" stroke="midnightblue" points="827.65,-97.89 817.06,-97.52 825.11,-104.41 827.65,-97.89"/>
</g>
<!-- Node26 -->
<g id="node26" class="node">
<title>Node26</title>
<g id="a_node26"><a xlink:title=" ">
<polygon fill="white" stroke="#bfbfbf" points="851.5,-73 851.5,-92 904.5,-92 904.5,-73 851.5,-73"/>
<text text-anchor="middle" x="878" y="-80" font-family="Helvetica,sans-Serif" font-size="10.00">complex</text>
</a>
</g>
</g>
<!-- Node15&#45;&gt;Node26 -->
<g id="edge28" class="edge">
<title>Node15&#45;&gt;Node26</title>
<path fill="none" stroke="midnightblue" d="M925.98,-134.48C917.41,-125.37 903.64,-110.74 893.04,-99.48"/>
<polygon fill="midnightblue" stroke="midnightblue" points="895.41,-96.89 886.01,-92.01 890.31,-101.69 895.41,-96.89"/>
</g>
<!-- Node17 -->
<g id="node17" class="node">
<title>Node17</title>
<g id="a_node17"><a xlink:title=" ">
<polygon fill="white" stroke="#bfbfbf" points="969,-6 969,-25 1013,-25 1013,-6 969,-6"/>
<text text-anchor="middle" x="991" y="-13" font-family="Helvetica,sans-Serif" font-size="10.00">cmath</text>
</a>
</g>
</g>
<!-- Node16&#45;&gt;Node17 -->
<g id="edge19" class="edge">
<title>Node16&#45;&gt;Node17</title>
<path fill="none" stroke="midnightblue" d="M991,-72.73C991,-63.18 991,-47.62 991,-35.28"/>
<polygon fill="midnightblue" stroke="midnightblue" points="994.5,-35.13 991,-25.13 987.5,-35.13 994.5,-35.13"/>
</g>
<!-- Node19 -->
<g id="node19" class="node">
<title>Node19</title>
<g id="a_node19"><a xlink:title=" ">
<polygon fill="white" stroke="#bfbfbf" points="526,-6 526,-25 590,-25 590,-6 526,-6"/>
<text text-anchor="middle" x="558" y="-13" font-family="Helvetica,sans-Serif" font-size="10.00">Eigen/Core</text>
</a>
</g>
</g>
<!-- Node18&#45;&gt;Node19 -->
<g id="edge21" class="edge">
<title>Node18&#45;&gt;Node19</title>
<path fill="none" stroke="midnightblue" d="M632.4,-72.73C618.35,-62.11 594.45,-44.05 577.53,-31.26"/>
<polygon fill="midnightblue" stroke="midnightblue" points="579.5,-28.36 569.41,-25.13 575.28,-33.95 579.5,-28.36"/>
</g>
<!-- Node20 -->
<g id="node20" class="node">
<title>Node20</title>
<g id="a_node20"><a xlink:title=" ">
<polygon fill="white" stroke="#bfbfbf" points="608.5,-6 608.5,-25 679.5,-25 679.5,-6 608.5,-6"/>
<text text-anchor="middle" x="644" y="-13" font-family="Helvetica,sans-Serif" font-size="10.00">Eigen/Dense</text>
</a>
</g>
</g>
<!-- Node18&#45;&gt;Node20 -->
<g id="edge22" class="edge">
<title>Node18&#45;&gt;Node20</title>
<path fill="none" stroke="midnightblue" d="M644,-72.73C644,-63.18 644,-47.62 644,-35.28"/>
<polygon fill="midnightblue" stroke="midnightblue" points="647.5,-35.13 644,-25.13 640.5,-35.13 647.5,-35.13"/>
</g>
<!-- Node21 -->
<g id="node21" class="node">
<title>Node21</title>
<g id="a_node21"><a xlink:title=" ">
<polygon fill="white" stroke="#bfbfbf" points="697.5,-0.5 697.5,-30.5 828.5,-30.5 828.5,-0.5 697.5,-0.5"/>
<text text-anchor="start" x="705.5" y="-18.5" font-family="Helvetica,sans-Serif" font-size="10.00">unsupported/Eigen/CXX11</text>
<text text-anchor="middle" x="763" y="-7.5" font-family="Helvetica,sans-Serif" font-size="10.00">/Tensor</text>
</a>
</g>
</g>
<!-- Node18&#45;&gt;Node21 -->
<g id="edge23" class="edge">
<title>Node18&#45;&gt;Node21</title>
<path fill="none" stroke="midnightblue" d="M660.05,-72.73C677.45,-63.23 705.74,-47.78 728.27,-35.47"/>
<polygon fill="midnightblue" stroke="midnightblue" points="730.11,-38.45 737.21,-30.59 726.75,-32.31 730.11,-38.45"/>
</g>
</g>
</svg>
