<?xml version="1.0" encoding="UTF-8" standalone="no"?>
<!DOCTYPE svg PUBLIC "-//W3C//DTD SVG 1.1//EN"
 "http://www.w3.org/Graphics/SVG/1.1/DTD/svg11.dtd">
<!-- Generated by graphviz version 2.44.0 ()
 -->
<!-- Title: modules/core/MarmotMechanicsCore/src/MarmotMaterialHypoElastic.cpp Pages: 1 -->
<!--zoomable 285 -->
<svg id="main" version="1.1" xmlns="http://www.w3.org/2000/svg" xmlns:xlink="http://www.w3.org/1999/xlink" xml:space="preserve" onload="init(evt)">
<style type="text/css"><![CDATA[
.edge:hover path { stroke: red; }
.edge:hover polygon { stroke: red; fill: red; }
]]></style>
<script type="text/javascript"><![CDATA[
var edges = document.getElementsByTagName('g');
if (edges && edges.length) {
  for (var i=0;i<edges.length;i++) {
    if (edges[i].id.substr(0,4)=='edge') {
      edges[i].setAttribute('class','edge');
    }
  }
}
]]></script>
        <defs>
                <circle id="rim" cx="0" cy="0" r="7"/>
                <circle id="rim2" cx="0" cy="0" r="3.5"/>
                <g id="zoomPlus">
                        <use xlink:href="#rim" fill="#404040">
                                <set attributeName="fill" to="#808080" begin="zoomplus.mouseover" end="zoomplus.mouseout"/>
                        </use>
                        <path d="M-4,0h8M0,-4v8" fill="none" stroke="white" stroke-width="1.5" pointer-events="none"/>
                </g>
                <g id="zoomMin">
                        <use xlink:href="#rim" fill="#404040">
                                <set attributeName="fill" to="#808080" begin="zoomminus.mouseover" end="zoomminus.mouseout"/>
                        </use>
                        <path d="M-4,0h8" fill="none" stroke="white" stroke-width="1.5" pointer-events="none"/>
                </g>
                <g id="dirArrow">
                        <path fill="none" stroke="white" stroke-width="1.5" d="M0,-3.0v7 M-2.5,-0.5L0,-3.0L2.5,-0.5"/>
                </g>
               <g id="resetDef">
                       <use xlink:href="#rim2" fill="#404040">
                               <set attributeName="fill" to="#808080" begin="reset.mouseover" end="reset.mouseout"/>
                       </use>
               </g>
        </defs>

<script type="text/javascript">
var viewWidth = 689;
var viewHeight = 285;
var sectionId = 'dynsection-0';
</script>
<script xlink:href="svgpan.js"/>
<svg id="graph" class="graph">
<g id="viewport">
<title>modules/core/MarmotMechanicsCore/src/MarmotMaterialHypoElastic.cpp</title>
<polygon fill="white" stroke="transparent" points="-4,4 -4,-281 685.47,-281 685.47,4 -4,4"/>
<!-- Node1 -->
<g id="node1" class="node">
<title>Node1</title>
<g id="a_node1"><a xlink:title=" ">
<polygon fill="#bfbfbf" stroke="black" points="93.97,-246.5 93.97,-276.5 287.97,-276.5 287.97,-246.5 93.97,-246.5"/>
<text text-anchor="start" x="101.97" y="-264.5" font-family="Helvetica,sans-Serif" font-size="10.00">modules/core/MarmotMechanics</text>
<text text-anchor="middle" x="190.97" y="-253.5" font-family="Helvetica,sans-Serif" font-size="10.00">Core/src/MarmotMaterialHypoElastic.cpp</text>
</a>
</g>
</g>
<!-- Node2 -->
<g id="node2" class="node">
<title>Node2</title>
<g id="a_node2"><a xlink:href="HughesWinget_8h.html" target="_top" xlink:title=" ">
<polygon fill="white" stroke="black" points="218.97,-185 218.97,-204 342.97,-204 342.97,-185 218.97,-185"/>
<text text-anchor="middle" x="280.97" y="-192" font-family="Helvetica,sans-Serif" font-size="10.00">Marmot/HughesWinget.h</text>
</a>
</g>
</g>
<!-- Node1&#45;&gt;Node2 -->
<g id="edge1" class="edge">
<title>Node1&#45;&gt;Node2</title>
<path fill="none" stroke="midnightblue" d="M210.5,-246.4C225.45,-235.6 246,-220.76 261.05,-209.89"/>
<polygon fill="midnightblue" stroke="midnightblue" points="263.13,-212.7 269.19,-204.01 259.03,-207.02 263.13,-212.7"/>
</g>
<!-- Node3 -->
<g id="node3" class="node">
<title>Node3</title>
<g id="a_node3"><a xlink:href="MarmotVoigt_8h.html" target="_top" xlink:title=" ">
<polygon fill="white" stroke="black" points="222.97,-123.5 222.97,-142.5 338.97,-142.5 338.97,-123.5 222.97,-123.5"/>
<text text-anchor="middle" x="280.97" y="-130.5" font-family="Helvetica,sans-Serif" font-size="10.00">Marmot/MarmotVoigt.h</text>
</a>
</g>
</g>
<!-- Node1&#45;&gt;Node3 -->
<g id="edge27" class="edge">
<title>Node1&#45;&gt;Node3</title>
<path fill="none" stroke="midnightblue" d="M191.1,-246.21C191.94,-228.82 195.58,-199.26 209.97,-179 219.88,-165.04 235.61,-154.43 249.76,-147.02"/>
<polygon fill="midnightblue" stroke="midnightblue" points="251.3,-150.16 258.74,-142.62 248.22,-143.88 251.3,-150.16"/>
</g>
<!-- Node4 -->
<g id="node4" class="node">
<title>Node4</title>
<g id="a_node4"><a xlink:href="MarmotJournal_8h.html" target="_top" xlink:title=" ">
<polygon fill="white" stroke="black" points="77.47,-67.5 77.47,-86.5 202.47,-86.5 202.47,-67.5 77.47,-67.5"/>
<text text-anchor="middle" x="139.97" y="-74.5" font-family="Helvetica,sans-Serif" font-size="10.00">Marmot/MarmotJournal.h</text>
</a>
</g>
</g>
<!-- Node1&#45;&gt;Node4 -->
<g id="edge11" class="edge">
<title>Node1&#45;&gt;Node4</title>
<path fill="none" stroke="midnightblue" d="M93.85,-250.38C69.49,-242.96 46.03,-230.56 30.97,-210 -2.11,-164.87 72.41,-114.73 114.16,-91.36"/>
<polygon fill="midnightblue" stroke="midnightblue" points="115.91,-94.39 123.01,-86.53 112.56,-88.24 115.91,-94.39"/>
</g>
<!-- Node5 -->
<g id="node5" class="node">
<title>Node5</title>
<g id="a_node5"><a xlink:title=" ">
<polygon fill="white" stroke="#bfbfbf" points="17.97,-6 17.97,-25 71.97,-25 71.97,-6 17.97,-6"/>
<text text-anchor="middle" x="44.97" y="-13" font-family="Helvetica,sans-Serif" font-size="10.00">iostream</text>
</a>
</g>
</g>
<!-- Node1&#45;&gt;Node5 -->
<g id="edge28" class="edge">
<title>Node1&#45;&gt;Node5</title>
<path fill="none" stroke="midnightblue" d="M109.7,-246.45C70.56,-237.85 29.6,-225.52 17.97,-210 -22.02,-156.67 15.3,-71.19 34.8,-34.34"/>
<polygon fill="midnightblue" stroke="midnightblue" points="38.01,-35.76 39.74,-25.31 31.87,-32.4 38.01,-35.76"/>
</g>
<!-- Node12 -->
<g id="node12" class="node">
<title>Node12</title>
<g id="a_node12"><a xlink:href="MarmotKinematics_8h.html" target="_top" xlink:title=" ">
<polygon fill="white" stroke="black" points="360.97,-185 360.97,-204 502.97,-204 502.97,-185 360.97,-185"/>
<text text-anchor="middle" x="431.97" y="-192" font-family="Helvetica,sans-Serif" font-size="10.00">Marmot/MarmotKinematics.h</text>
</a>
</g>
</g>
<!-- Node1&#45;&gt;Node12 -->
<g id="edge12" class="edge">
<title>Node1&#45;&gt;Node12</title>
<path fill="none" stroke="midnightblue" d="M242.96,-246.48C287.1,-234.57 349.6,-217.72 390.45,-206.7"/>
<polygon fill="midnightblue" stroke="midnightblue" points="391.6,-210.01 400.35,-204.03 389.78,-203.25 391.6,-210.01"/>
</g>
<!-- Node13 -->
<g id="node13" class="node">
<title>Node13</title>
<g id="a_node13"><a xlink:href="MarmotMaterialHypoElastic_8h.html" target="_top" xlink:title=" ">
<polygon fill="white" stroke="black" points="521.47,-179.5 521.47,-209.5 664.47,-209.5 664.47,-179.5 521.47,-179.5"/>
<text text-anchor="start" x="529.47" y="-197.5" font-family="Helvetica,sans-Serif" font-size="10.00">Marmot/MarmotMaterialHypo</text>
<text text-anchor="middle" x="592.97" y="-186.5" font-family="Helvetica,sans-Serif" font-size="10.00">Elastic.h</text>
</a>
</g>
</g>
<!-- Node1&#45;&gt;Node13 -->
<g id="edge16" class="edge">
<title>Node1&#45;&gt;Node13</title>
<path fill="none" stroke="midnightblue" d="M283.41,-246.48C345.15,-237 428.43,-223.97 511.56,-210.05"/>
<polygon fill="midnightblue" stroke="midnightblue" points="512.15,-213.5 521.43,-208.39 510.99,-206.6 512.15,-213.5"/>
</g>
<!-- Node17 -->
<g id="node17" class="node">
<title>Node17</title>
<g id="a_node17"><a xlink:href="MarmotTensor_8h.html" target="_top" xlink:title=" ">
<polygon fill="white" stroke="black" points="39.47,-185 39.47,-204 162.47,-204 162.47,-185 39.47,-185"/>
<text text-anchor="middle" x="100.97" y="-192" font-family="Helvetica,sans-Serif" font-size="10.00">Marmot/MarmotTensor.h</text>
</a>
</g>
</g>
<!-- Node1&#45;&gt;Node17 -->
<g id="edge21" class="edge">
<title>Node1&#45;&gt;Node17</title>
<path fill="none" stroke="midnightblue" d="M171.44,-246.4C156.49,-235.6 135.94,-220.76 120.89,-209.89"/>
<polygon fill="midnightblue" stroke="midnightblue" points="122.9,-207.02 112.75,-204.01 118.8,-212.7 122.9,-207.02"/>
</g>
<!-- Node2&#45;&gt;Node3 -->
<g id="edge2" class="edge">
<title>Node2&#45;&gt;Node3</title>
<path fill="none" stroke="midnightblue" d="M280.97,-184.98C280.97,-176.58 280.97,-163.48 280.97,-152.66"/>
<polygon fill="midnightblue" stroke="midnightblue" points="284.47,-152.51 280.97,-142.51 277.47,-152.51 284.47,-152.51"/>
</g>
<!-- Node3&#45;&gt;Node4 -->
<g id="edge3" class="edge">
<title>Node3&#45;&gt;Node4</title>
<path fill="none" stroke="midnightblue" d="M258.63,-123.44C235.21,-114.48 198.23,-100.31 171.78,-90.18"/>
<polygon fill="midnightblue" stroke="midnightblue" points="172.79,-86.82 162.2,-86.52 170.29,-93.36 172.79,-86.82"/>
</g>
<!-- Node8 -->
<g id="node8" class="node">
<title>Node8</title>
<g id="a_node8"><a xlink:href="MarmotTypedefs_8h.html" target="_top" xlink:title=" ">
<polygon fill="white" stroke="black" points="247.47,-67.5 247.47,-86.5 380.47,-86.5 380.47,-67.5 247.47,-67.5"/>
<text text-anchor="middle" x="313.97" y="-74.5" font-family="Helvetica,sans-Serif" font-size="10.00">Marmot/MarmotTypedefs.h</text>
</a>
</g>
</g>
<!-- Node3&#45;&gt;Node8 -->
<g id="edge7" class="edge">
<title>Node3&#45;&gt;Node8</title>
<path fill="none" stroke="midnightblue" d="M286.42,-123.08C290.98,-115.61 297.64,-104.72 303.26,-95.52"/>
<polygon fill="midnightblue" stroke="midnightblue" points="306.39,-97.11 308.62,-86.75 300.42,-93.46 306.39,-97.11"/>
</g>
<!-- Node4&#45;&gt;Node5 -->
<g id="edge4" class="edge">
<title>Node4&#45;&gt;Node5</title>
<path fill="none" stroke="midnightblue" d="M126.36,-67.48C110.91,-57.8 85.48,-41.87 67.15,-30.39"/>
<polygon fill="midnightblue" stroke="midnightblue" points="68.89,-27.35 58.55,-25.01 65.17,-33.28 68.89,-27.35"/>
</g>
<!-- Node6 -->
<g id="node6" class="node">
<title>Node6</title>
<g id="a_node6"><a xlink:title=" ">
<polygon fill="white" stroke="#bfbfbf" points="89.97,-6 89.97,-25 141.97,-25 141.97,-6 89.97,-6"/>
<text text-anchor="middle" x="115.97" y="-13" font-family="Helvetica,sans-Serif" font-size="10.00">sstream</text>
</a>
</g>
</g>
<!-- Node4&#45;&gt;Node6 -->
<g id="edge5" class="edge">
<title>Node4&#45;&gt;Node6</title>
<path fill="none" stroke="midnightblue" d="M136.53,-67.48C133.07,-58.9 127.63,-45.43 123.22,-34.48"/>
<polygon fill="midnightblue" stroke="midnightblue" points="126.39,-32.97 119.4,-25.01 119.89,-35.59 126.39,-32.97"/>
</g>
<!-- Node7 -->
<g id="node7" class="node">
<title>Node7</title>
<g id="a_node7"><a xlink:title=" ">
<polygon fill="white" stroke="#bfbfbf" points="481.47,-6 481.47,-25 522.47,-25 522.47,-6 481.47,-6"/>
<text text-anchor="middle" x="501.97" y="-13" font-family="Helvetica,sans-Serif" font-size="10.00">string</text>
</a>
</g>
</g>
<!-- Node4&#45;&gt;Node7 -->
<g id="edge6" class="edge">
<title>Node4&#45;&gt;Node7</title>
<path fill="none" stroke="midnightblue" d="M202.48,-70.03C284.51,-61.76 423.84,-46.14 472.97,-31 474.63,-30.49 476.32,-29.89 477.99,-29.23"/>
<polygon fill="midnightblue" stroke="midnightblue" points="479.65,-32.32 487.31,-25 476.75,-25.95 479.65,-32.32"/>
</g>
<!-- Node9 -->
<g id="node9" class="node">
<title>Node9</title>
<g id="a_node9"><a xlink:title=" ">
<polygon fill="white" stroke="#bfbfbf" points="309.97,-6 309.97,-25 373.97,-25 373.97,-6 309.97,-6"/>
<text text-anchor="middle" x="341.97" y="-13" font-family="Helvetica,sans-Serif" font-size="10.00">Eigen/Core</text>
</a>
</g>
</g>
<!-- Node8&#45;&gt;Node9 -->
<g id="edge8" class="edge">
<title>Node8&#45;&gt;Node9</title>
<path fill="none" stroke="midnightblue" d="M317.98,-67.48C322.05,-58.82 328.49,-45.15 333.66,-34.15"/>
<polygon fill="midnightblue" stroke="midnightblue" points="336.87,-35.55 337.96,-25.01 330.54,-32.57 336.87,-35.55"/>
</g>
<!-- Node10 -->
<g id="node10" class="node">
<title>Node10</title>
<g id="a_node10"><a xlink:title=" ">
<polygon fill="white" stroke="#bfbfbf" points="392.47,-6 392.47,-25 463.47,-25 463.47,-6 392.47,-6"/>
<text text-anchor="middle" x="427.97" y="-13" font-family="Helvetica,sans-Serif" font-size="10.00">Eigen/Dense</text>
</a>
</g>
</g>
<!-- Node8&#45;&gt;Node10 -->
<g id="edge9" class="edge">
<title>Node8&#45;&gt;Node10</title>
<path fill="none" stroke="midnightblue" d="M330.3,-67.48C349.18,-57.62 380.47,-41.29 402.54,-29.77"/>
<polygon fill="midnightblue" stroke="midnightblue" points="404.42,-32.74 411.66,-25.01 401.18,-26.53 404.42,-32.74"/>
</g>
<!-- Node11 -->
<g id="node11" class="node">
<title>Node11</title>
<g id="a_node11"><a xlink:title=" ">
<polygon fill="white" stroke="#bfbfbf" points="160.47,-0.5 160.47,-30.5 291.47,-30.5 291.47,-0.5 160.47,-0.5"/>
<text text-anchor="start" x="168.47" y="-18.5" font-family="Helvetica,sans-Serif" font-size="10.00">unsupported/Eigen/CXX11</text>
<text text-anchor="middle" x="225.97" y="-7.5" font-family="Helvetica,sans-Serif" font-size="10.00">/Tensor</text>
</a>
</g>
</g>
<!-- Node8&#45;&gt;Node11 -->
<g id="edge10" class="edge">
<title>Node8&#45;&gt;Node11</title>
<path fill="none" stroke="midnightblue" d="M301.36,-67.48C289.33,-59.34 270.77,-46.79 255.07,-36.18"/>
<polygon fill="midnightblue" stroke="midnightblue" points="256.95,-33.22 246.71,-30.52 253.03,-39.02 256.95,-33.22"/>
</g>
<!-- Node12&#45;&gt;Node3 -->
<g id="edge15" class="edge">
<title>Node12&#45;&gt;Node3</title>
<path fill="none" stroke="midnightblue" d="M410.33,-184.98C384.54,-174.81 341.26,-157.76 311.93,-146.2"/>
<polygon fill="midnightblue" stroke="midnightblue" points="313.15,-142.92 302.56,-142.51 310.58,-149.43 313.15,-142.92"/>
</g>
<!-- Node12&#45;&gt;Node4 -->
<g id="edge13" class="edge">
<title>Node12&#45;&gt;Node4</title>
<path fill="none" stroke="midnightblue" d="M424.14,-184.55C410.34,-169.39 380.11,-138.75 347.97,-123 305.67,-102.27 253.92,-91.03 212.61,-84.96"/>
<polygon fill="midnightblue" stroke="midnightblue" points="213.01,-81.49 202.62,-83.57 212.04,-88.42 213.01,-81.49"/>
</g>
<!-- Node12&#45;&gt;Node8 -->
<g id="edge14" class="edge">
<title>Node12&#45;&gt;Node8</title>
<path fill="none" stroke="midnightblue" d="M428.18,-184.8C421.63,-170.53 407.05,-141.87 387.97,-123 374.81,-109.99 357.2,-99.09 342.47,-91.28"/>
<polygon fill="midnightblue" stroke="midnightblue" points="343.77,-88.02 333.27,-86.6 340.6,-94.26 343.77,-88.02"/>
</g>
<!-- Node14 -->
<g id="node14" class="node">
<title>Node14</title>
<g id="a_node14"><a xlink:href="MarmotMaterialMechanical_8h.html" target="_top" xlink:title=" ">
<polygon fill="white" stroke="black" points="504.47,-123.5 504.47,-142.5 681.47,-142.5 681.47,-123.5 504.47,-123.5"/>
<text text-anchor="middle" x="592.97" y="-130.5" font-family="Helvetica,sans-Serif" font-size="10.00">Marmot/MarmotMaterialMechanical.h</text>
</a>
</g>
</g>
<!-- Node13&#45;&gt;Node14 -->
<g id="edge17" class="edge">
<title>Node13&#45;&gt;Node14</title>
<path fill="none" stroke="midnightblue" d="M592.97,-179.4C592.97,-171.47 592.97,-161.46 592.97,-152.86"/>
<polygon fill="midnightblue" stroke="midnightblue" points="596.47,-152.66 592.97,-142.66 589.47,-152.66 596.47,-152.66"/>
</g>
<!-- Node15 -->
<g id="node15" class="node">
<title>Node15</title>
<g id="a_node15"><a xlink:href="MarmotMaterial_8h.html" target="_top" xlink:title=" ">
<polygon fill="white" stroke="black" points="528.97,-67.5 528.97,-86.5 656.97,-86.5 656.97,-67.5 528.97,-67.5"/>
<text text-anchor="middle" x="592.97" y="-74.5" font-family="Helvetica,sans-Serif" font-size="10.00">Marmot/MarmotMaterial.h</text>
</a>
</g>
</g>
<!-- Node14&#45;&gt;Node15 -->
<g id="edge18" class="edge">
<title>Node14&#45;&gt;Node15</title>
<path fill="none" stroke="midnightblue" d="M592.97,-123.08C592.97,-116.01 592.97,-105.86 592.97,-96.99"/>
<polygon fill="midnightblue" stroke="midnightblue" points="596.47,-96.75 592.97,-86.75 589.47,-96.75 596.47,-96.75"/>
</g>
<!-- Node15&#45;&gt;Node7 -->
<g id="edge20" class="edge">
<title>Node15&#45;&gt;Node7</title>
<path fill="none" stroke="midnightblue" d="M579.93,-67.48C565.2,-57.84 540.99,-42.02 523.46,-30.55"/>
<polygon fill="midnightblue" stroke="midnightblue" points="525.27,-27.55 514.98,-25.01 521.44,-33.41 525.27,-27.55"/>
</g>
<!-- Node16 -->
<g id="node16" class="node">
<title>Node16</title>
<g id="a_node16"><a xlink:href="MarmotUtils_8h.html" target="_top" xlink:title=" ">
<polygon fill="white" stroke="black" points="540.47,-6 540.47,-25 653.47,-25 653.47,-6 540.47,-6"/>
<text text-anchor="middle" x="596.97" y="-13" font-family="Helvetica,sans-Serif" font-size="10.00">Marmot/MarmotUtils.h</text>
</a>
</g>
</g>
<!-- Node15&#45;&gt;Node16 -->
<g id="edge19" class="edge">
<title>Node15&#45;&gt;Node16</title>
<path fill="none" stroke="midnightblue" d="M593.54,-67.48C594.1,-59.08 594.99,-45.98 595.71,-35.16"/>
<polygon fill="midnightblue" stroke="midnightblue" points="599.22,-35.22 596.39,-25.01 592.23,-34.75 599.22,-35.22"/>
</g>
<!-- Node17&#45;&gt;Node3 -->
<g id="edge24" class="edge">
<title>Node17&#45;&gt;Node3</title>
<path fill="none" stroke="midnightblue" d="M126.76,-184.98C157.9,-174.68 210.45,-157.31 245.42,-145.75"/>
<polygon fill="midnightblue" stroke="midnightblue" points="246.83,-148.97 255.23,-142.51 244.63,-142.32 246.83,-148.97"/>
</g>
<!-- Node17&#45;&gt;Node4 -->
<g id="edge22" class="edge">
<title>Node17&#45;&gt;Node4</title>
<path fill="none" stroke="midnightblue" d="M102.67,-184.66C105.4,-171.15 111.23,-144.65 118.97,-123 122.27,-113.77 126.78,-103.85 130.78,-95.69"/>
<polygon fill="midnightblue" stroke="midnightblue" points="133.9,-97.26 135.28,-86.76 127.65,-94.11 133.9,-97.26"/>
</g>
<!-- Node17&#45;&gt;Node5 -->
<g id="edge25" class="edge">
<title>Node17&#45;&gt;Node5</title>
<path fill="none" stroke="midnightblue" d="M98.27,-184.96C89.68,-157.81 62.85,-73.01 50.86,-35.12"/>
<polygon fill="midnightblue" stroke="midnightblue" points="54.13,-33.85 47.77,-25.37 47.45,-35.96 54.13,-33.85"/>
</g>
<!-- Node17&#45;&gt;Node8 -->
<g id="edge23" class="edge">
<title>Node17&#45;&gt;Node8</title>
<path fill="none" stroke="midnightblue" d="M113.51,-184.89C134.02,-170.99 176.23,-143.14 213.97,-123 236.77,-110.83 263.52,-98.91 283.61,-90.4"/>
<polygon fill="midnightblue" stroke="midnightblue" points="285.02,-93.6 292.89,-86.51 282.31,-87.14 285.02,-93.6"/>
</g>
<!-- Node18 -->
<g id="node18" class="node">
<title>Node18</title>
<g id="a_node18"><a xlink:title=" ">
<polygon fill="white" stroke="#bfbfbf" points="127.47,-123.5 127.47,-142.5 166.47,-142.5 166.47,-123.5 127.47,-123.5"/>
<text text-anchor="middle" x="146.97" y="-130.5" font-family="Helvetica,sans-Serif" font-size="10.00">utility</text>
</a>
</g>
</g>
<!-- Node17&#45;&gt;Node18 -->
<g id="edge26" class="edge">
<title>Node17&#45;&gt;Node18</title>
<path fill="none" stroke="midnightblue" d="M107.56,-184.98C114.46,-176.05 125.47,-161.81 134.1,-150.64"/>
<polygon fill="midnightblue" stroke="midnightblue" points="137.04,-152.56 140.39,-142.51 131.5,-148.28 137.04,-152.56"/>
</g>
</g>
</svg>
        <g id="navigator" transform="translate(0 0)" fill="#404254">
                <rect fill="#f2f5e9" fill-opacity="0.5" stroke="#606060" stroke-width=".5" x="0" y="0" width="60" height="60"/>
                <use id="zoomplus" xlink:href="#zoomPlus" x="17" y="9" onmousedown="handleZoom(evt,'in')"/>
                <use id="zoomminus" xlink:href="#zoomMin" x="42" y="9" onmousedown="handleZoom(evt,'out')"/>
                <use id="reset" xlink:href="#resetDef" x="30" y="36" onmousedown="handleReset()"/>
                <g id="arrowUp" xlink:href="#dirArrow" transform="translate(30 24)" onmousedown="handlePan(0,-1)">
                  <use xlink:href="#rim" fill="#404040">
                        <set attributeName="fill" to="#808080" begin="arrowUp.mouseover" end="arrowUp.mouseout"/>
                  </use>
                  <path fill="none" stroke="white" stroke-width="1.5" d="M0,-3.0v7 M-2.5,-0.5L0,-3.0L2.5,-0.5"/>
                </g>
                <g id="arrowRight" xlink:href="#dirArrow" transform="rotate(90) translate(36 -43)" onmousedown="handlePan(1,0)">
                  <use xlink:href="#rim" fill="#404040">
                        <set attributeName="fill" to="#808080" begin="arrowRight.mouseover" end="arrowRight.mouseout"/>
                  </use>
                  <path fill="none" stroke="white" stroke-width="1.5" d="M0,-3.0v7 M-2.5,-0.5L0,-3.0L2.5,-0.5"/>
                </g>
                <g id="arrowDown" xlink:href="#dirArrow" transform="rotate(180) translate(-30 -48)" onmousedown="handlePan(0,1)">
                  <use xlink:href="#rim" fill="#404040">
                        <set attributeName="fill" to="#808080" begin="arrowDown.mouseover" end="arrowDown.mouseout"/>
                  </use>
                  <path fill="none" stroke="white" stroke-width="1.5" d="M0,-3.0v7 M-2.5,-0.5L0,-3.0L2.5,-0.5"/>
                </g>
                <g id="arrowLeft" xlink:href="#dirArrow" transform="rotate(270) translate(-36 17)" onmousedown="handlePan(-1,0)">
                  <use xlink:href="#rim" fill="#404040">
                        <set attributeName="fill" to="#808080" begin="arrowLeft.mouseover" end="arrowLeft.mouseout"/>
                  </use>
                  <path fill="none" stroke="white" stroke-width="1.5" d="M0,-3.0v7 M-2.5,-0.5L0,-3.0L2.5,-0.5"/>
                </g>
        </g>
        <svg viewBox="0 0 15 15" width="100%" height="30px" preserveAspectRatio="xMaxYMin meet">
         <g id="arrow_out" transform="scale(0.3 0.3)">
          <a xlink:href="MarmotMaterialHypoElastic_8cpp__incl_org.svg" target="_base">
           <rect id="button" ry="5" rx="5" y="6" x="6" height="38" width="38"
                fill="#f2f5e9" fill-opacity="0.5" stroke="#606060" stroke-width="1.0"/>
           <path id="arrow"
             d="M 11.500037,31.436501 C 11.940474,20.09759 22.043105,11.32322 32.158766,21.979434 L 37.068811,17.246167 C 37.068811,17.246167 37.088388,32 37.088388,32 L 22.160133,31.978069 C 22.160133,31.978069 26.997745,27.140456 26.997745,27.140456 C 18.528582,18.264221 13.291696,25.230495 11.500037,31.436501 z"
             style="fill:#404040;"/>
          </a>
         </g>
        </svg>
</svg>
