<?xml version="1.0" encoding="UTF-8" standalone="no"?>
<!DOCTYPE svg PUBLIC "-//W3C//DTD SVG 1.1//EN"
 "http://www.w3.org/Graphics/SVG/1.1/DTD/svg11.dtd">
<!-- Generated by graphviz version 2.44.0 ()
 -->
<!-- Title: modules/core/MarmotMechanicsCore/src/MarmotUtility.cpp Pages: 1 -->
<svg width="1126pt" height="285pt"
 viewBox="0.00 0.00 1126.00 285.00" xmlns="http://www.w3.org/2000/svg" xmlns:xlink="http://www.w3.org/1999/xlink">
<g id="graph0" class="graph" transform="scale(1 1) rotate(0) translate(4 281)">
<title>modules/core/MarmotMechanicsCore/src/MarmotUtility.cpp</title>
<polygon fill="white" stroke="transparent" points="-4,4 -4,-281 1122,-281 1122,4 -4,4"/>
<!-- Node1 -->
<g id="node1" class="node">
<title>Node1</title>
<g id="a_node1"><a xlink:title=" ">
<polygon fill="#bfbfbf" stroke="black" points="625,-246.5 625,-276.5 783,-276.5 783,-246.5 625,-246.5"/>
<text text-anchor="start" x="633" y="-264.5" font-family="Helvetica,sans-Serif" font-size="10.00">modules/core/MarmotMechanics</text>
<text text-anchor="middle" x="704" y="-253.5" font-family="Helvetica,sans-Serif" font-size="10.00">Core/src/MarmotUtility.cpp</text>
</a>
</g>
</g>
<!-- Node2 -->
<g id="node2" class="node">
<title>Node2</title>
<g id="a_node2"><a xlink:href="MarmotUtility_8h.html" target="_top" xlink:title=" ">
<polygon fill="white" stroke="black" points="781,-190.5 781,-209.5 899,-209.5 899,-190.5 781,-190.5"/>
<text text-anchor="middle" x="840" y="-197.5" font-family="Helvetica,sans-Serif" font-size="10.00">Marmot/MarmotUtility.h</text>
</a>
</g>
</g>
<!-- Node1&#45;&gt;Node2 -->
<g id="edge1" class="edge">
<title>Node1&#45;&gt;Node2</title>
<path fill="none" stroke="midnightblue" d="M736.23,-246.4C758.84,-236.51 788.84,-223.38 810.76,-213.79"/>
<polygon fill="midnightblue" stroke="midnightblue" points="812.45,-216.87 820.21,-209.66 809.65,-210.46 812.45,-216.87"/>
</g>
<!-- Node3 -->
<g id="node3" class="node">
<title>Node3</title>
<g id="a_node3"><a xlink:href="MarmotTypedefs_8h.html" target="_top" xlink:title=" ">
<polygon fill="white" stroke="black" points="903.5,-73 903.5,-92 1036.5,-92 1036.5,-73 903.5,-73"/>
<text text-anchor="middle" x="970" y="-80" font-family="Helvetica,sans-Serif" font-size="10.00">Marmot/MarmotTypedefs.h</text>
</a>
</g>
</g>
<!-- Node1&#45;&gt;Node3 -->
<g id="edge10" class="edge">
<title>Node1&#45;&gt;Node3</title>
<path fill="none" stroke="midnightblue" d="M783.19,-256.66C824.22,-251.04 872.93,-238.29 908,-210 942.63,-182.06 959.35,-129.94 966.13,-102.12"/>
<polygon fill="midnightblue" stroke="midnightblue" points="969.6,-102.66 968.39,-92.14 962.77,-101.12 969.6,-102.66"/>
</g>
<!-- Node7 -->
<g id="node7" class="node">
<title>Node7</title>
<g id="a_node7"><a xlink:href="MarmotJournal_8h.html" target="_top" xlink:title=" ">
<polygon fill="white" stroke="black" points="94.5,-134.5 94.5,-153.5 219.5,-153.5 219.5,-134.5 94.5,-134.5"/>
<text text-anchor="middle" x="157" y="-141.5" font-family="Helvetica,sans-Serif" font-size="10.00">Marmot/MarmotJournal.h</text>
</a>
</g>
</g>
<!-- Node1&#45;&gt;Node7 -->
<g id="edge6" class="edge">
<title>Node1&#45;&gt;Node7</title>
<path fill="none" stroke="midnightblue" d="M637.47,-246.45C526.65,-223.05 306.65,-176.6 207.52,-155.67"/>
<polygon fill="midnightblue" stroke="midnightblue" points="207.96,-152.18 197.46,-153.54 206.52,-159.03 207.96,-152.18"/>
</g>
<!-- Node11 -->
<g id="node11" class="node">
<title>Node11</title>
<g id="a_node11"><a xlink:href="MarmotVoigt_8h.html" target="_top" xlink:title=" ">
<polygon fill="white" stroke="black" points="579,-190.5 579,-209.5 695,-209.5 695,-190.5 579,-190.5"/>
<text text-anchor="middle" x="637" y="-197.5" font-family="Helvetica,sans-Serif" font-size="10.00">Marmot/MarmotVoigt.h</text>
</a>
</g>
</g>
<!-- Node1&#45;&gt;Node11 -->
<g id="edge11" class="edge">
<title>Node1&#45;&gt;Node11</title>
<path fill="none" stroke="midnightblue" d="M688.12,-246.4C677.98,-237.4 664.84,-225.72 654.41,-216.47"/>
<polygon fill="midnightblue" stroke="midnightblue" points="656.55,-213.68 646.75,-209.66 651.9,-218.92 656.55,-213.68"/>
</g>
<!-- Node2&#45;&gt;Node3 -->
<g id="edge2" class="edge">
<title>Node2&#45;&gt;Node3</title>
<path fill="none" stroke="midnightblue" d="M849.77,-190.32C871.6,-170.92 924.61,-123.83 952.37,-99.16"/>
<polygon fill="midnightblue" stroke="midnightblue" points="954.96,-101.54 960.12,-92.28 950.32,-96.31 954.96,-101.54"/>
</g>
<!-- Node4 -->
<g id="node4" class="node">
<title>Node4</title>
<g id="a_node4"><a xlink:title=" ">
<polygon fill="white" stroke="#bfbfbf" points="1054,-6 1054,-25 1118,-25 1118,-6 1054,-6"/>
<text text-anchor="middle" x="1086" y="-13" font-family="Helvetica,sans-Serif" font-size="10.00">Eigen/Core</text>
</a>
</g>
</g>
<!-- Node3&#45;&gt;Node4 -->
<g id="edge3" class="edge">
<title>Node3&#45;&gt;Node4</title>
<path fill="none" stroke="midnightblue" d="M985.64,-72.73C1005.21,-61.77 1038.92,-42.88 1061.82,-30.05"/>
<polygon fill="midnightblue" stroke="midnightblue" points="1063.59,-33.07 1070.6,-25.13 1060.17,-26.96 1063.59,-33.07"/>
</g>
<!-- Node5 -->
<g id="node5" class="node">
<title>Node5</title>
<g id="a_node5"><a xlink:title=" ">
<polygon fill="white" stroke="#bfbfbf" points="815.5,-6 815.5,-25 886.5,-25 886.5,-6 815.5,-6"/>
<text text-anchor="middle" x="851" y="-13" font-family="Helvetica,sans-Serif" font-size="10.00">Eigen/Dense</text>
</a>
</g>
</g>
<!-- Node3&#45;&gt;Node5 -->
<g id="edge4" class="edge">
<title>Node3&#45;&gt;Node5</title>
<path fill="none" stroke="midnightblue" d="M953.95,-72.73C933.88,-61.77 899.3,-42.88 875.81,-30.05"/>
<polygon fill="midnightblue" stroke="midnightblue" points="877.25,-26.85 866.79,-25.13 873.89,-32.99 877.25,-26.85"/>
</g>
<!-- Node6 -->
<g id="node6" class="node">
<title>Node6</title>
<g id="a_node6"><a xlink:title=" ">
<polygon fill="white" stroke="#bfbfbf" points="904.5,-0.5 904.5,-30.5 1035.5,-30.5 1035.5,-0.5 904.5,-0.5"/>
<text text-anchor="start" x="912.5" y="-18.5" font-family="Helvetica,sans-Serif" font-size="10.00">unsupported/Eigen/CXX11</text>
<text text-anchor="middle" x="970" y="-7.5" font-family="Helvetica,sans-Serif" font-size="10.00">/Tensor</text>
</a>
</g>
</g>
<!-- Node3&#45;&gt;Node6 -->
<g id="edge5" class="edge">
<title>Node3&#45;&gt;Node6</title>
<path fill="none" stroke="midnightblue" d="M970,-72.73C970,-64.54 970,-51.92 970,-40.71"/>
<polygon fill="midnightblue" stroke="midnightblue" points="973.5,-40.59 970,-30.59 966.5,-40.59 973.5,-40.59"/>
</g>
<!-- Node8 -->
<g id="node8" class="node">
<title>Node8</title>
<g id="a_node8"><a xlink:title=" ">
<polygon fill="white" stroke="#bfbfbf" points="130,-73 130,-92 184,-92 184,-73 130,-73"/>
<text text-anchor="middle" x="157" y="-80" font-family="Helvetica,sans-Serif" font-size="10.00">iostream</text>
</a>
</g>
</g>
<!-- Node7&#45;&gt;Node8 -->
<g id="edge7" class="edge">
<title>Node7&#45;&gt;Node8</title>
<path fill="none" stroke="midnightblue" d="M157,-134.48C157,-126.08 157,-112.98 157,-102.16"/>
<polygon fill="midnightblue" stroke="midnightblue" points="160.5,-102.01 157,-92.01 153.5,-102.01 160.5,-102.01"/>
</g>
<!-- Node9 -->
<g id="node9" class="node">
<title>Node9</title>
<g id="a_node9"><a xlink:title=" ">
<polygon fill="white" stroke="#bfbfbf" points="0,-73 0,-92 52,-92 52,-73 0,-73"/>
<text text-anchor="middle" x="26" y="-80" font-family="Helvetica,sans-Serif" font-size="10.00">sstream</text>
</a>
</g>
</g>
<!-- Node7&#45;&gt;Node9 -->
<g id="edge8" class="edge">
<title>Node7&#45;&gt;Node9</title>
<path fill="none" stroke="midnightblue" d="M138.23,-134.48C116.15,-124.45 79.28,-107.7 53.86,-96.15"/>
<polygon fill="midnightblue" stroke="midnightblue" points="55.29,-92.96 44.73,-92.01 52.39,-99.33 55.29,-92.96"/>
</g>
<!-- Node10 -->
<g id="node10" class="node">
<title>Node10</title>
<g id="a_node10"><a xlink:title=" ">
<polygon fill="white" stroke="#bfbfbf" points="70.5,-73 70.5,-92 111.5,-92 111.5,-73 70.5,-73"/>
<text text-anchor="middle" x="91" y="-80" font-family="Helvetica,sans-Serif" font-size="10.00">string</text>
</a>
</g>
</g>
<!-- Node7&#45;&gt;Node10 -->
<g id="edge9" class="edge">
<title>Node7&#45;&gt;Node10</title>
<path fill="none" stroke="midnightblue" d="M147.54,-134.48C137.25,-125.2 120.58,-110.17 108.01,-98.83"/>
<polygon fill="midnightblue" stroke="midnightblue" points="110.21,-96.11 100.44,-92.01 105.52,-101.3 110.21,-96.11"/>
</g>
<!-- Node11&#45;&gt;Node3 -->
<g id="edge22" class="edge">
<title>Node11&#45;&gt;Node3</title>
<path fill="none" stroke="midnightblue" d="M661.76,-190.41C720.4,-170.07 867.88,-118.92 935.35,-95.52"/>
<polygon fill="midnightblue" stroke="midnightblue" points="936.78,-98.73 945.08,-92.14 934.49,-92.11 936.78,-98.73"/>
</g>
<!-- Node11&#45;&gt;Node7 -->
<g id="edge12" class="edge">
<title>Node11&#45;&gt;Node7</title>
<path fill="none" stroke="midnightblue" d="M578.62,-192.43C490.88,-182.56 325.13,-163.91 229.67,-153.18"/>
<polygon fill="midnightblue" stroke="midnightblue" points="229.85,-149.67 219.52,-152.03 229.07,-156.63 229.85,-149.67"/>
</g>
<!-- Node12 -->
<g id="node12" class="node">
<title>Node12</title>
<g id="a_node12"><a xlink:href="MarmotMath_8h.html" target="_top" xlink:title=" ">
<polygon fill="white" stroke="black" points="562.5,-134.5 562.5,-153.5 677.5,-153.5 677.5,-134.5 562.5,-134.5"/>
<text text-anchor="middle" x="620" y="-141.5" font-family="Helvetica,sans-Serif" font-size="10.00">Marmot/MarmotMath.h</text>
</a>
</g>
</g>
<!-- Node11&#45;&gt;Node12 -->
<g id="edge13" class="edge">
<title>Node11&#45;&gt;Node12</title>
<path fill="none" stroke="midnightblue" d="M634.19,-190.08C631.92,-182.85 628.63,-172.41 625.79,-163.4"/>
<polygon fill="midnightblue" stroke="midnightblue" points="629.1,-162.24 622.75,-153.75 622.42,-164.34 629.1,-162.24"/>
</g>
<!-- Node12&#45;&gt;Node3 -->
<g id="edge16" class="edge">
<title>Node12&#45;&gt;Node3</title>
<path fill="none" stroke="midnightblue" d="M674.4,-134.49C729.74,-125.73 817.94,-111.5 894,-98 901.18,-96.73 908.74,-95.34 916.19,-93.95"/>
<polygon fill="midnightblue" stroke="midnightblue" points="917.05,-97.34 926.23,-92.05 915.75,-90.46 917.05,-97.34"/>
</g>
<!-- Node13 -->
<g id="node13" class="node">
<title>Node13</title>
<g id="a_node13"><a xlink:href="MarmotConstants_8h.html" target="_top" xlink:title=" ">
<polygon fill="white" stroke="black" points="395.5,-73 395.5,-92 532.5,-92 532.5,-73 395.5,-73"/>
<text text-anchor="middle" x="464" y="-80" font-family="Helvetica,sans-Serif" font-size="10.00">Marmot/MarmotConstants.h</text>
</a>
</g>
</g>
<!-- Node12&#45;&gt;Node13 -->
<g id="edge14" class="edge">
<title>Node12&#45;&gt;Node13</title>
<path fill="none" stroke="midnightblue" d="M597.65,-134.48C571.01,-124.31 526.29,-107.26 495.99,-95.7"/>
<polygon fill="midnightblue" stroke="midnightblue" points="496.9,-92.3 486.31,-92.01 494.41,-98.84 496.9,-92.3"/>
</g>
<!-- Node15 -->
<g id="node15" class="node">
<title>Node15</title>
<g id="a_node15"><a xlink:title=" ">
<polygon fill="white" stroke="#bfbfbf" points="551,-73 551,-92 673,-92 673,-73 551,-73"/>
<text text-anchor="middle" x="612" y="-80" font-family="Helvetica,sans-Serif" font-size="10.00">autodiff/forward/dual.hpp</text>
</a>
</g>
</g>
<!-- Node12&#45;&gt;Node15 -->
<g id="edge17" class="edge">
<title>Node12&#45;&gt;Node15</title>
<path fill="none" stroke="midnightblue" d="M618.85,-134.48C617.73,-126.08 615.96,-112.98 614.51,-102.16"/>
<polygon fill="midnightblue" stroke="midnightblue" points="617.95,-101.45 613.14,-92.01 611.01,-102.39 617.95,-101.45"/>
</g>
<!-- Node16 -->
<g id="node16" class="node">
<title>Node16</title>
<g id="a_node16"><a xlink:title=" ">
<polygon fill="white" stroke="#bfbfbf" points="691,-73 691,-92 811,-92 811,-73 691,-73"/>
<text text-anchor="middle" x="751" y="-80" font-family="Helvetica,sans-Serif" font-size="10.00">autodiff/forward/real.hpp</text>
</a>
</g>
</g>
<!-- Node12&#45;&gt;Node16 -->
<g id="edge18" class="edge">
<title>Node12&#45;&gt;Node16</title>
<path fill="none" stroke="midnightblue" d="M638.77,-134.48C660.85,-124.45 697.72,-107.7 723.14,-96.15"/>
<polygon fill="midnightblue" stroke="midnightblue" points="724.61,-99.33 732.27,-92.01 721.71,-92.96 724.61,-99.33"/>
</g>
<!-- Node17 -->
<g id="node17" class="node">
<title>Node17</title>
<g id="a_node17"><a xlink:title=" ">
<polygon fill="white" stroke="#bfbfbf" points="829,-73 829,-92 885,-92 885,-73 829,-73"/>
<text text-anchor="middle" x="857" y="-80" font-family="Helvetica,sans-Serif" font-size="10.00">algorithm</text>
</a>
</g>
</g>
<!-- Node12&#45;&gt;Node17 -->
<g id="edge19" class="edge">
<title>Node12&#45;&gt;Node17</title>
<path fill="none" stroke="midnightblue" d="M667.41,-134.45C708.27,-126.57 768.62,-113.75 820,-98 822.42,-97.26 824.91,-96.43 827.4,-95.55"/>
<polygon fill="midnightblue" stroke="midnightblue" points="828.69,-98.81 836.84,-92.04 826.25,-92.25 828.69,-98.81"/>
</g>
<!-- Node18 -->
<g id="node18" class="node">
<title>Node18</title>
<g id="a_node18"><a xlink:title=" ">
<polygon fill="white" stroke="#bfbfbf" points="202,-67.5 202,-97.5 306,-97.5 306,-67.5 202,-67.5"/>
<text text-anchor="start" x="210" y="-85.5" font-family="Helvetica,sans-Serif" font-size="10.00">autodiff/forward/dual</text>
<text text-anchor="middle" x="254" y="-74.5" font-family="Helvetica,sans-Serif" font-size="10.00">/dual.hpp</text>
</a>
</g>
</g>
<!-- Node12&#45;&gt;Node18 -->
<g id="edge20" class="edge">
<title>Node12&#45;&gt;Node18</title>
<path fill="none" stroke="midnightblue" d="M562.33,-135.91C501.01,-128.03 401.3,-114.26 316,-98 315.9,-97.98 315.8,-97.96 315.69,-97.94"/>
<polygon fill="midnightblue" stroke="midnightblue" points="316.52,-94.54 306.03,-96 315.14,-101.4 316.52,-94.54"/>
</g>
<!-- Node19 -->
<g id="node19" class="node">
<title>Node19</title>
<g id="a_node19"><a xlink:title=" ">
<polygon fill="white" stroke="#bfbfbf" points="324.5,-73 324.5,-92 377.5,-92 377.5,-73 324.5,-73"/>
<text text-anchor="middle" x="351" y="-80" font-family="Helvetica,sans-Serif" font-size="10.00">complex</text>
</a>
</g>
</g>
<!-- Node12&#45;&gt;Node19 -->
<g id="edge21" class="edge">
<title>Node12&#45;&gt;Node19</title>
<path fill="none" stroke="midnightblue" d="M562.29,-135.02C514.68,-127.68 445.68,-115.31 387,-98 384.57,-97.28 382.07,-96.46 379.59,-95.59"/>
<polygon fill="midnightblue" stroke="midnightblue" points="380.78,-92.3 370.19,-92.02 378.3,-98.84 380.78,-92.3"/>
</g>
<!-- Node14 -->
<g id="node14" class="node">
<title>Node14</title>
<g id="a_node14"><a xlink:title=" ">
<polygon fill="white" stroke="#bfbfbf" points="442,-6 442,-25 486,-25 486,-6 442,-6"/>
<text text-anchor="middle" x="464" y="-13" font-family="Helvetica,sans-Serif" font-size="10.00">cmath</text>
</a>
</g>
</g>
<!-- Node13&#45;&gt;Node14 -->
<g id="edge15" class="edge">
<title>Node13&#45;&gt;Node14</title>
<path fill="none" stroke="midnightblue" d="M464,-72.73C464,-63.18 464,-47.62 464,-35.28"/>
<polygon fill="midnightblue" stroke="midnightblue" points="467.5,-35.13 464,-25.13 460.5,-35.13 467.5,-35.13"/>
</g>
</g>
</svg>
