<?xml version="1.0" encoding="UTF-8" standalone="no"?>
<!DOCTYPE svg PUBLIC "-//W3C//DTD SVG 1.1//EN"
 "http://www.w3.org/Graphics/SVG/1.1/DTD/svg11.dtd">
<!-- Generated by graphviz version 2.44.0 ()
 -->
<!-- Title: modules/core/MarmotMechanicsCore/src/MarmotKinematics.cpp Pages: 1 -->
<!--zoomable 341 -->
<svg id="main" version="1.1" xmlns="http://www.w3.org/2000/svg" xmlns:xlink="http://www.w3.org/1999/xlink" xml:space="preserve" onload="init(evt)">
<style type="text/css"><![CDATA[
.edge:hover path { stroke: red; }
.edge:hover polygon { stroke: red; fill: red; }
]]></style>
<script type="text/javascript"><![CDATA[
var edges = document.getElementsByTagName('g');
if (edges && edges.length) {
  for (var i=0;i<edges.length;i++) {
    if (edges[i].id.substr(0,4)=='edge') {
      edges[i].setAttribute('class','edge');
    }
  }
}
]]></script>
        <defs>
                <circle id="rim" cx="0" cy="0" r="7"/>
                <circle id="rim2" cx="0" cy="0" r="3.5"/>
                <g id="zoomPlus">
                        <use xlink:href="#rim" fill="#404040">
                                <set attributeName="fill" to="#808080" begin="zoomplus.mouseover" end="zoomplus.mouseout"/>
                        </use>
                        <path d="M-4,0h8M0,-4v8" fill="none" stroke="white" stroke-width="1.5" pointer-events="none"/>
                </g>
                <g id="zoomMin">
                        <use xlink:href="#rim" fill="#404040">
                                <set attributeName="fill" to="#808080" begin="zoomminus.mouseover" end="zoomminus.mouseout"/>
                        </use>
                        <path d="M-4,0h8" fill="none" stroke="white" stroke-width="1.5" pointer-events="none"/>
                </g>
                <g id="dirArrow">
                        <path fill="none" stroke="white" stroke-width="1.5" d="M0,-3.0v7 M-2.5,-0.5L0,-3.0L2.5,-0.5"/>
                </g>
               <g id="resetDef">
                       <use xlink:href="#rim2" fill="#404040">
                               <set attributeName="fill" to="#808080" begin="reset.mouseover" end="reset.mouseout"/>
                       </use>
               </g>
        </defs>

<script type="text/javascript">
var viewWidth = 1131;
var viewHeight = 341;
var sectionId = 'dynsection-0';
</script>
<script xlink:href="svgpan.js"/>
<svg id="graph" class="graph">
<g id="viewport">
<title>modules/core/MarmotMechanicsCore/src/MarmotKinematics.cpp</title>
<polygon fill="white" stroke="transparent" points="-4,4 -4,-337 1127,-337 1127,4 -4,4"/>
<!-- Node1 -->
<g id="node1" class="node">
<title>Node1</title>
<g id="a_node1"><a xlink:title=" ">
<polygon fill="#bfbfbf" stroke="black" points="608,-302.5 608,-332.5 766,-332.5 766,-302.5 608,-302.5"/>
<text text-anchor="start" x="616" y="-320.5" font-family="Helvetica,sans-Serif" font-size="10.00">modules/core/MarmotMechanics</text>
<text text-anchor="middle" x="687" y="-309.5" font-family="Helvetica,sans-Serif" font-size="10.00">Core/src/MarmotKinematics.cpp</text>
</a>
</g>
</g>
<!-- Node2 -->
<g id="node2" class="node">
<title>Node2</title>
<g id="a_node2"><a xlink:href="MarmotKinematics_8h.html" target="_top" xlink:title=" ">
<polygon fill="white" stroke="black" points="541,-246.5 541,-265.5 683,-265.5 683,-246.5 541,-246.5"/>
<text text-anchor="middle" x="612" y="-253.5" font-family="Helvetica,sans-Serif" font-size="10.00">Marmot/MarmotKinematics.h</text>
</a>
</g>
</g>
<!-- Node1&#45;&gt;Node2 -->
<g id="edge1" class="edge">
<title>Node1&#45;&gt;Node2</title>
<path fill="none" stroke="midnightblue" d="M669.23,-302.4C657.65,-293.22 642.58,-281.26 630.8,-271.92"/>
<polygon fill="midnightblue" stroke="midnightblue" points="632.92,-269.13 622.91,-265.66 628.57,-274.61 632.92,-269.13"/>
</g>
<!-- Node20 -->
<g id="node20" class="node">
<title>Node20</title>
<g id="a_node20"><a xlink:href="MarmotTensor_8h.html" target="_top" xlink:title=" ">
<polygon fill="white" stroke="black" points="703.5,-246.5 703.5,-265.5 826.5,-265.5 826.5,-246.5 703.5,-246.5"/>
<text text-anchor="middle" x="765" y="-253.5" font-family="Helvetica,sans-Serif" font-size="10.00">Marmot/MarmotTensor.h</text>
</a>
</g>
</g>
<!-- Node1&#45;&gt;Node20 -->
<g id="edge22" class="edge">
<title>Node1&#45;&gt;Node20</title>
<path fill="none" stroke="midnightblue" d="M705.48,-302.4C717.52,-293.22 733.2,-281.26 745.44,-271.92"/>
<polygon fill="midnightblue" stroke="midnightblue" points="747.82,-274.51 753.65,-265.66 743.58,-268.94 747.82,-274.51"/>
</g>
<!-- Node3 -->
<g id="node3" class="node">
<title>Node3</title>
<g id="a_node3"><a xlink:href="MarmotJournal_8h.html" target="_top" xlink:title=" ">
<polygon fill="white" stroke="black" points="891.5,-134.5 891.5,-153.5 1016.5,-153.5 1016.5,-134.5 891.5,-134.5"/>
<text text-anchor="middle" x="954" y="-141.5" font-family="Helvetica,sans-Serif" font-size="10.00">Marmot/MarmotJournal.h</text>
</a>
</g>
</g>
<!-- Node2&#45;&gt;Node3 -->
<g id="edge2" class="edge">
<title>Node2&#45;&gt;Node3</title>
<path fill="none" stroke="midnightblue" d="M624.19,-246.48C647.11,-230.62 696.01,-197.46 715,-190 768.56,-168.95 832.84,-157.55 881.24,-151.51"/>
<polygon fill="midnightblue" stroke="midnightblue" points="881.81,-154.96 891.32,-150.29 880.97,-148.01 881.81,-154.96"/>
</g>
<!-- Node7 -->
<g id="node7" class="node">
<title>Node7</title>
<g id="a_node7"><a xlink:href="MarmotTypedefs_8h.html" target="_top" xlink:title=" ">
<polygon fill="white" stroke="black" points="87.5,-73 87.5,-92 220.5,-92 220.5,-73 87.5,-73"/>
<text text-anchor="middle" x="154" y="-80" font-family="Helvetica,sans-Serif" font-size="10.00">Marmot/MarmotTypedefs.h</text>
</a>
</g>
</g>
<!-- Node2&#45;&gt;Node7 -->
<g id="edge6" class="edge">
<title>Node2&#45;&gt;Node7</title>
<path fill="none" stroke="midnightblue" d="M540.8,-249.77C488.55,-244.19 416.61,-232.84 357,-210 283.32,-181.76 207.18,-125.75 172.82,-98.75"/>
<polygon fill="midnightblue" stroke="midnightblue" points="174.65,-95.73 164.64,-92.25 170.29,-101.21 174.65,-95.73"/>
</g>
<!-- Node11 -->
<g id="node11" class="node">
<title>Node11</title>
<g id="a_node11"><a xlink:href="MarmotVoigt_8h.html" target="_top" xlink:title=" ">
<polygon fill="white" stroke="black" points="551,-190.5 551,-209.5 667,-209.5 667,-190.5 551,-190.5"/>
<text text-anchor="middle" x="609" y="-197.5" font-family="Helvetica,sans-Serif" font-size="10.00">Marmot/MarmotVoigt.h</text>
</a>
</g>
</g>
<!-- Node2&#45;&gt;Node11 -->
<g id="edge10" class="edge">
<title>Node2&#45;&gt;Node11</title>
<path fill="none" stroke="midnightblue" d="M611.5,-246.08C611.11,-239.01 610.55,-228.86 610.05,-219.99"/>
<polygon fill="midnightblue" stroke="midnightblue" points="613.54,-219.54 609.49,-209.75 606.55,-219.93 613.54,-219.54"/>
</g>
<!-- Node4 -->
<g id="node4" class="node">
<title>Node4</title>
<g id="a_node4"><a xlink:title=" ">
<polygon fill="white" stroke="#bfbfbf" points="1069,-73 1069,-92 1123,-92 1123,-73 1069,-73"/>
<text text-anchor="middle" x="1096" y="-80" font-family="Helvetica,sans-Serif" font-size="10.00">iostream</text>
</a>
</g>
</g>
<!-- Node3&#45;&gt;Node4 -->
<g id="edge3" class="edge">
<title>Node3&#45;&gt;Node4</title>
<path fill="none" stroke="midnightblue" d="M974.35,-134.48C998.39,-124.4 1038.6,-107.55 1066.16,-96"/>
<polygon fill="midnightblue" stroke="midnightblue" points="1067.82,-99.1 1075.69,-92.01 1065.12,-92.65 1067.82,-99.1"/>
</g>
<!-- Node5 -->
<g id="node5" class="node">
<title>Node5</title>
<g id="a_node5"><a xlink:title=" ">
<polygon fill="white" stroke="#bfbfbf" points="999,-73 999,-92 1051,-92 1051,-73 999,-73"/>
<text text-anchor="middle" x="1025" y="-80" font-family="Helvetica,sans-Serif" font-size="10.00">sstream</text>
</a>
</g>
</g>
<!-- Node3&#45;&gt;Node5 -->
<g id="edge4" class="edge">
<title>Node3&#45;&gt;Node5</title>
<path fill="none" stroke="midnightblue" d="M964.17,-134.48C975.35,-125.11 993.52,-109.88 1007.09,-98.51"/>
<polygon fill="midnightblue" stroke="midnightblue" points="1009.43,-101.11 1014.85,-92.01 1004.93,-95.75 1009.43,-101.11"/>
</g>
<!-- Node6 -->
<g id="node6" class="node">
<title>Node6</title>
<g id="a_node6"><a xlink:title=" ">
<polygon fill="white" stroke="#bfbfbf" points="939.5,-73 939.5,-92 980.5,-92 980.5,-73 939.5,-73"/>
<text text-anchor="middle" x="960" y="-80" font-family="Helvetica,sans-Serif" font-size="10.00">string</text>
</a>
</g>
</g>
<!-- Node3&#45;&gt;Node6 -->
<g id="edge5" class="edge">
<title>Node3&#45;&gt;Node6</title>
<path fill="none" stroke="midnightblue" d="M954.86,-134.48C955.71,-126.08 957.03,-112.98 958.12,-102.16"/>
<polygon fill="midnightblue" stroke="midnightblue" points="961.62,-102.31 959.14,-92.01 954.66,-101.61 961.62,-102.31"/>
</g>
<!-- Node8 -->
<g id="node8" class="node">
<title>Node8</title>
<g id="a_node8"><a xlink:title=" ">
<polygon fill="white" stroke="#bfbfbf" points="0,-6 0,-25 64,-25 64,-6 0,-6"/>
<text text-anchor="middle" x="32" y="-13" font-family="Helvetica,sans-Serif" font-size="10.00">Eigen/Core</text>
</a>
</g>
</g>
<!-- Node7&#45;&gt;Node8 -->
<g id="edge7" class="edge">
<title>Node7&#45;&gt;Node8</title>
<path fill="none" stroke="midnightblue" d="M137.8,-72.87C117.2,-61.89 81.41,-42.82 57.22,-29.94"/>
<polygon fill="midnightblue" stroke="midnightblue" points="58.74,-26.78 48.27,-25.17 55.45,-32.96 58.74,-26.78"/>
</g>
<!-- Node9 -->
<g id="node9" class="node">
<title>Node9</title>
<g id="a_node9"><a xlink:title=" ">
<polygon fill="white" stroke="#bfbfbf" points="82.5,-6 82.5,-25 153.5,-25 153.5,-6 82.5,-6"/>
<text text-anchor="middle" x="118" y="-13" font-family="Helvetica,sans-Serif" font-size="10.00">Eigen/Dense</text>
</a>
</g>
</g>
<!-- Node7&#45;&gt;Node9 -->
<g id="edge8" class="edge">
<title>Node7&#45;&gt;Node9</title>
<path fill="none" stroke="midnightblue" d="M149.14,-72.73C143.69,-62.89 134.7,-46.66 127.78,-34.16"/>
<polygon fill="midnightblue" stroke="midnightblue" points="130.69,-32.18 122.78,-25.13 124.56,-35.57 130.69,-32.18"/>
</g>
<!-- Node10 -->
<g id="node10" class="node">
<title>Node10</title>
<g id="a_node10"><a xlink:title=" ">
<polygon fill="white" stroke="#bfbfbf" points="171.5,-0.5 171.5,-30.5 302.5,-30.5 302.5,-0.5 171.5,-0.5"/>
<text text-anchor="start" x="179.5" y="-18.5" font-family="Helvetica,sans-Serif" font-size="10.00">unsupported/Eigen/CXX11</text>
<text text-anchor="middle" x="237" y="-7.5" font-family="Helvetica,sans-Serif" font-size="10.00">/Tensor</text>
</a>
</g>
</g>
<!-- Node7&#45;&gt;Node10 -->
<g id="edge9" class="edge">
<title>Node7&#45;&gt;Node10</title>
<path fill="none" stroke="midnightblue" d="M165.19,-72.73C176.84,-63.61 195.5,-49 210.87,-36.96"/>
<polygon fill="midnightblue" stroke="midnightblue" points="213.29,-39.51 219.01,-30.59 208.98,-34 213.29,-39.51"/>
</g>
<!-- Node11&#45;&gt;Node3 -->
<g id="edge11" class="edge">
<title>Node11&#45;&gt;Node3</title>
<path fill="none" stroke="midnightblue" d="M663.67,-190.44C724.99,-180.85 824.36,-165.29 889.45,-155.1"/>
<polygon fill="midnightblue" stroke="midnightblue" points="890.25,-158.52 899.59,-153.52 889.17,-151.61 890.25,-158.52"/>
</g>
<!-- Node11&#45;&gt;Node7 -->
<g id="edge21" class="edge">
<title>Node11&#45;&gt;Node7</title>
<path fill="none" stroke="midnightblue" d="M581.58,-190.4C539.51,-177.35 456.43,-152.15 385,-134 324.4,-118.6 254.13,-103.65 207.15,-94.06"/>
<polygon fill="midnightblue" stroke="midnightblue" points="207.7,-90.6 197.2,-92.04 206.31,-97.46 207.7,-90.6"/>
</g>
<!-- Node12 -->
<g id="node12" class="node">
<title>Node12</title>
<g id="a_node12"><a xlink:href="MarmotMath_8h.html" target="_top" xlink:title=" ">
<polygon fill="white" stroke="black" points="541.5,-134.5 541.5,-153.5 656.5,-153.5 656.5,-134.5 541.5,-134.5"/>
<text text-anchor="middle" x="599" y="-141.5" font-family="Helvetica,sans-Serif" font-size="10.00">Marmot/MarmotMath.h</text>
</a>
</g>
</g>
<!-- Node11&#45;&gt;Node12 -->
<g id="edge12" class="edge">
<title>Node11&#45;&gt;Node12</title>
<path fill="none" stroke="midnightblue" d="M607.35,-190.08C606.02,-182.93 604.12,-172.64 602.46,-163.69"/>
<polygon fill="midnightblue" stroke="midnightblue" points="605.88,-162.95 600.62,-153.75 599,-164.22 605.88,-162.95"/>
</g>
<!-- Node12&#45;&gt;Node7 -->
<g id="edge15" class="edge">
<title>Node12&#45;&gt;Node7</title>
<path fill="none" stroke="midnightblue" d="M541.46,-137.26C468.55,-129.7 339.11,-115.32 229,-98 221.35,-96.8 213.3,-95.39 205.41,-93.93"/>
<polygon fill="midnightblue" stroke="midnightblue" points="206.04,-90.49 195.56,-92.07 204.74,-97.37 206.04,-90.49"/>
</g>
<!-- Node13 -->
<g id="node13" class="node">
<title>Node13</title>
<g id="a_node13"><a xlink:href="MarmotConstants_8h.html" target="_top" xlink:title=" ">
<polygon fill="white" stroke="black" points="238.5,-73 238.5,-92 375.5,-92 375.5,-73 238.5,-73"/>
<text text-anchor="middle" x="307" y="-80" font-family="Helvetica,sans-Serif" font-size="10.00">Marmot/MarmotConstants.h</text>
</a>
</g>
</g>
<!-- Node12&#45;&gt;Node13 -->
<g id="edge13" class="edge">
<title>Node12&#45;&gt;Node13</title>
<path fill="none" stroke="midnightblue" d="M557.16,-134.48C504.8,-123.8 415.13,-105.53 358.57,-94.01"/>
<polygon fill="midnightblue" stroke="midnightblue" points="359.26,-90.58 348.76,-92.01 357.86,-97.44 359.26,-90.58"/>
</g>
<!-- Node15 -->
<g id="node15" class="node">
<title>Node15</title>
<g id="a_node15"><a xlink:title=" ">
<polygon fill="white" stroke="#bfbfbf" points="394,-73 394,-92 516,-92 516,-73 394,-73"/>
<text text-anchor="middle" x="455" y="-80" font-family="Helvetica,sans-Serif" font-size="10.00">autodiff/forward/dual.hpp</text>
</a>
</g>
</g>
<!-- Node12&#45;&gt;Node15 -->
<g id="edge16" class="edge">
<title>Node12&#45;&gt;Node15</title>
<path fill="none" stroke="midnightblue" d="M578.37,-134.48C553.88,-124.36 512.85,-107.4 484.89,-95.85"/>
<polygon fill="midnightblue" stroke="midnightblue" points="486.17,-92.59 475.59,-92.01 483.5,-99.06 486.17,-92.59"/>
</g>
<!-- Node16 -->
<g id="node16" class="node">
<title>Node16</title>
<g id="a_node16"><a xlink:title=" ">
<polygon fill="white" stroke="#bfbfbf" points="534,-73 534,-92 654,-92 654,-73 534,-73"/>
<text text-anchor="middle" x="594" y="-80" font-family="Helvetica,sans-Serif" font-size="10.00">autodiff/forward/real.hpp</text>
</a>
</g>
</g>
<!-- Node12&#45;&gt;Node16 -->
<g id="edge17" class="edge">
<title>Node12&#45;&gt;Node16</title>
<path fill="none" stroke="midnightblue" d="M598.28,-134.48C597.58,-126.08 596.48,-112.98 595.57,-102.16"/>
<polygon fill="midnightblue" stroke="midnightblue" points="599.04,-101.68 594.72,-92.01 592.06,-102.27 599.04,-101.68"/>
</g>
<!-- Node17 -->
<g id="node17" class="node">
<title>Node17</title>
<g id="a_node17"><a xlink:title=" ">
<polygon fill="white" stroke="#bfbfbf" points="672,-73 672,-92 728,-92 728,-73 672,-73"/>
<text text-anchor="middle" x="700" y="-80" font-family="Helvetica,sans-Serif" font-size="10.00">algorithm</text>
</a>
</g>
</g>
<!-- Node12&#45;&gt;Node17 -->
<g id="edge18" class="edge">
<title>Node12&#45;&gt;Node17</title>
<path fill="none" stroke="midnightblue" d="M613.47,-134.48C629.97,-124.75 657.18,-108.73 676.68,-97.24"/>
<polygon fill="midnightblue" stroke="midnightblue" points="678.72,-100.1 685.56,-92.01 675.16,-94.07 678.72,-100.1"/>
</g>
<!-- Node18 -->
<g id="node18" class="node">
<title>Node18</title>
<g id="a_node18"><a xlink:title=" ">
<polygon fill="white" stroke="#bfbfbf" points="746,-67.5 746,-97.5 850,-97.5 850,-67.5 746,-67.5"/>
<text text-anchor="start" x="754" y="-85.5" font-family="Helvetica,sans-Serif" font-size="10.00">autodiff/forward/dual</text>
<text text-anchor="middle" x="798" y="-74.5" font-family="Helvetica,sans-Serif" font-size="10.00">/dual.hpp</text>
</a>
</g>
</g>
<!-- Node12&#45;&gt;Node18 -->
<g id="edge19" class="edge">
<title>Node12&#45;&gt;Node18</title>
<path fill="none" stroke="midnightblue" d="M627.51,-134.48C657.11,-125.63 704.19,-111.55 741.38,-100.43"/>
<polygon fill="midnightblue" stroke="midnightblue" points="742.52,-103.74 751.1,-97.52 740.52,-97.03 742.52,-103.74"/>
</g>
<!-- Node19 -->
<g id="node19" class="node">
<title>Node19</title>
<g id="a_node19"><a xlink:title=" ">
<polygon fill="white" stroke="#bfbfbf" points="868.5,-73 868.5,-92 921.5,-92 921.5,-73 868.5,-73"/>
<text text-anchor="middle" x="895" y="-80" font-family="Helvetica,sans-Serif" font-size="10.00">complex</text>
</a>
</g>
</g>
<!-- Node12&#45;&gt;Node19 -->
<g id="edge20" class="edge">
<title>Node12&#45;&gt;Node19</title>
<path fill="none" stroke="midnightblue" d="M656.59,-136.59C709.8,-129.83 790.7,-117.43 859,-98 861.44,-97.31 863.94,-96.5 866.43,-95.64"/>
<polygon fill="midnightblue" stroke="midnightblue" points="867.71,-98.9 875.83,-92.09 865.24,-92.35 867.71,-98.9"/>
</g>
<!-- Node14 -->
<g id="node14" class="node">
<title>Node14</title>
<g id="a_node14"><a xlink:title=" ">
<polygon fill="white" stroke="#bfbfbf" points="321,-6 321,-25 365,-25 365,-6 321,-6"/>
<text text-anchor="middle" x="343" y="-13" font-family="Helvetica,sans-Serif" font-size="10.00">cmath</text>
</a>
</g>
</g>
<!-- Node13&#45;&gt;Node14 -->
<g id="edge14" class="edge">
<title>Node13&#45;&gt;Node14</title>
<path fill="none" stroke="midnightblue" d="M311.86,-72.73C317.31,-62.89 326.3,-46.66 333.22,-34.16"/>
<polygon fill="midnightblue" stroke="midnightblue" points="336.44,-35.57 338.22,-25.13 330.31,-32.18 336.44,-35.57"/>
</g>
<!-- Node20&#45;&gt;Node3 -->
<g id="edge24" class="edge">
<title>Node20&#45;&gt;Node3</title>
<path fill="none" stroke="midnightblue" d="M791.29,-246.4C813.79,-238.5 846.62,-225.65 873,-210 897.07,-195.72 921.74,-174.85 937.42,-160.64"/>
<polygon fill="midnightblue" stroke="midnightblue" points="940.17,-162.87 945.15,-153.52 935.43,-157.72 940.17,-162.87"/>
</g>
<!-- Node20&#45;&gt;Node4 -->
<g id="edge27" class="edge">
<title>Node20&#45;&gt;Node4</title>
<path fill="none" stroke="midnightblue" d="M802.67,-246.4C855.92,-232.97 954.67,-203.33 1026,-154 1048.26,-138.6 1069.54,-115.59 1082.67,-100.08"/>
<polygon fill="midnightblue" stroke="midnightblue" points="1085.4,-102.27 1089.08,-92.34 1080.01,-97.81 1085.4,-102.27"/>
</g>
<!-- Node20&#45;&gt;Node7 -->
<g id="edge25" class="edge">
<title>Node20&#45;&gt;Node7</title>
<path fill="none" stroke="midnightblue" d="M714.13,-246.47C668.68,-238.44 600.44,-225.37 542,-210 408.06,-174.78 252.46,-119.6 186.36,-95.47"/>
<polygon fill="midnightblue" stroke="midnightblue" points="187.49,-92.16 176.9,-92 185.09,-98.73 187.49,-92.16"/>
</g>
<!-- Node20&#45;&gt;Node11 -->
<g id="edge26" class="edge">
<title>Node20&#45;&gt;Node11</title>
<path fill="none" stroke="midnightblue" d="M740.28,-246.44C714.15,-237.4 672.74,-223.06 643.42,-212.92"/>
<polygon fill="midnightblue" stroke="midnightblue" points="644.2,-209.48 633.6,-209.52 641.91,-216.1 644.2,-209.48"/>
</g>
<!-- Node21 -->
<g id="node21" class="node">
<title>Node21</title>
<g id="a_node21"><a xlink:title=" ">
<polygon fill="white" stroke="#bfbfbf" points="723.5,-190.5 723.5,-209.5 806.5,-209.5 806.5,-190.5 723.5,-190.5"/>
<text text-anchor="middle" x="765" y="-197.5" font-family="Helvetica,sans-Serif" font-size="10.00">Fastor/Fastor.h</text>
</a>
</g>
</g>
<!-- Node20&#45;&gt;Node21 -->
<g id="edge23" class="edge">
<title>Node20&#45;&gt;Node21</title>
<path fill="none" stroke="midnightblue" d="M765,-246.08C765,-239.01 765,-228.86 765,-219.99"/>
<polygon fill="midnightblue" stroke="midnightblue" points="768.5,-219.75 765,-209.75 761.5,-219.75 768.5,-219.75"/>
</g>
<!-- Node22 -->
<g id="node22" class="node">
<title>Node22</title>
<g id="a_node22"><a xlink:title=" ">
<polygon fill="white" stroke="#bfbfbf" points="824.5,-190.5 824.5,-209.5 863.5,-209.5 863.5,-190.5 824.5,-190.5"/>
<text text-anchor="middle" x="844" y="-197.5" font-family="Helvetica,sans-Serif" font-size="10.00">utility</text>
</a>
</g>
</g>
<!-- Node20&#45;&gt;Node22 -->
<g id="edge28" class="edge">
<title>Node20&#45;&gt;Node22</title>
<path fill="none" stroke="midnightblue" d="M777.69,-246.32C789.9,-237.98 808.58,-225.21 823,-215.35"/>
<polygon fill="midnightblue" stroke="midnightblue" points="825.06,-218.19 831.34,-209.65 821.11,-212.41 825.06,-218.19"/>
</g>
</g>
</svg>
        <g id="navigator" transform="translate(0 0)" fill="#404254">
                <rect fill="#f2f5e9" fill-opacity="0.5" stroke="#606060" stroke-width=".5" x="0" y="0" width="60" height="60"/>
                <use id="zoomplus" xlink:href="#zoomPlus" x="17" y="9" onmousedown="handleZoom(evt,'in')"/>
                <use id="zoomminus" xlink:href="#zoomMin" x="42" y="9" onmousedown="handleZoom(evt,'out')"/>
                <use id="reset" xlink:href="#resetDef" x="30" y="36" onmousedown="handleReset()"/>
                <g id="arrowUp" xlink:href="#dirArrow" transform="translate(30 24)" onmousedown="handlePan(0,-1)">
                  <use xlink:href="#rim" fill="#404040">
                        <set attributeName="fill" to="#808080" begin="arrowUp.mouseover" end="arrowUp.mouseout"/>
                  </use>
                  <path fill="none" stroke="white" stroke-width="1.5" d="M0,-3.0v7 M-2.5,-0.5L0,-3.0L2.5,-0.5"/>
                </g>
                <g id="arrowRight" xlink:href="#dirArrow" transform="rotate(90) translate(36 -43)" onmousedown="handlePan(1,0)">
                  <use xlink:href="#rim" fill="#404040">
                        <set attributeName="fill" to="#808080" begin="arrowRight.mouseover" end="arrowRight.mouseout"/>
                  </use>
                  <path fill="none" stroke="white" stroke-width="1.5" d="M0,-3.0v7 M-2.5,-0.5L0,-3.0L2.5,-0.5"/>
                </g>
                <g id="arrowDown" xlink:href="#dirArrow" transform="rotate(180) translate(-30 -48)" onmousedown="handlePan(0,1)">
                  <use xlink:href="#rim" fill="#404040">
                        <set attributeName="fill" to="#808080" begin="arrowDown.mouseover" end="arrowDown.mouseout"/>
                  </use>
                  <path fill="none" stroke="white" stroke-width="1.5" d="M0,-3.0v7 M-2.5,-0.5L0,-3.0L2.5,-0.5"/>
                </g>
                <g id="arrowLeft" xlink:href="#dirArrow" transform="rotate(270) translate(-36 17)" onmousedown="handlePan(-1,0)">
                  <use xlink:href="#rim" fill="#404040">
                        <set attributeName="fill" to="#808080" begin="arrowLeft.mouseover" end="arrowLeft.mouseout"/>
                  </use>
                  <path fill="none" stroke="white" stroke-width="1.5" d="M0,-3.0v7 M-2.5,-0.5L0,-3.0L2.5,-0.5"/>
                </g>
        </g>
        <svg viewBox="0 0 15 15" width="100%" height="30px" preserveAspectRatio="xMaxYMin meet">
         <g id="arrow_out" transform="scale(0.3 0.3)">
          <a xlink:href="MarmotKinematics_8cpp__incl_org.svg" target="_base">
           <rect id="button" ry="5" rx="5" y="6" x="6" height="38" width="38"
                fill="#f2f5e9" fill-opacity="0.5" stroke="#606060" stroke-width="1.0"/>
           <path id="arrow"
             d="M 11.500037,31.436501 C 11.940474,20.09759 22.043105,11.32322 32.158766,21.979434 L 37.068811,17.246167 C 37.068811,17.246167 37.088388,32 37.088388,32 L 22.160133,31.978069 C 22.160133,31.978069 26.997745,27.140456 26.997745,27.140456 C 18.528582,18.264221 13.291696,25.230495 11.500037,31.436501 z"
             style="fill:#404040;"/>
          </a>
         </g>
        </svg>
</svg>
