<?xml version="1.0" encoding="UTF-8" standalone="no"?>
<!DOCTYPE svg PUBLIC "-//W3C//DTD SVG 1.1//EN"
 "http://www.w3.org/Graphics/SVG/1.1/DTD/svg11.dtd">
<!-- Generated by graphviz version 3.0.0 (20220413.0106)
 -->
<!-- Title: modules/core/MarmotMechanicsCore/src/MarmotMaterialHypoElastic.cpp Pages: 1 -->
<svg width="1096pt" height="341pt"
 viewBox="0.00 0.00 1095.50 341.00" xmlns="http://www.w3.org/2000/svg" xmlns:xlink="http://www.w3.org/1999/xlink">
<g id="graph0" class="graph" transform="scale(1 1) rotate(0) translate(4 337)">
<title>modules/core/MarmotMechanicsCore/src/MarmotMaterialHypoElastic.cpp</title>
<polygon fill="white" stroke="transparent" points="-4,4 -4,-337 1091.5,-337 1091.5,4 -4,4"/>
<!-- Node1 -->
<g id="node1" class="node">
<title>Node1</title>
<g id="a_node1"><a xlink:title=" ">
<polygon fill="#bfbfbf" stroke="black" points="344,-302.5 344,-332.5 538,-332.5 538,-302.5 344,-302.5"/>
<text text-anchor="start" x="352" y="-320.5" font-family="Helvetica,sans-Serif" font-size="10.00">modules/core/MarmotMechanics</text>
<text text-anchor="middle" x="441" y="-309.5" font-family="Helvetica,sans-Serif" font-size="10.00">Core/src/MarmotMaterialHypoElastic.cpp</text>
</a>
</g>
</g>
<!-- Node2 -->
<g id="node2" class="node">
<title>Node2</title>
<g id="a_node2"><a xlink:href="HughesWinget_8h.html" target="_top" xlink:title=" ">
<polygon fill="white" stroke="black" points="216,-241 216,-260 340,-260 340,-241 216,-241"/>
<text text-anchor="middle" x="278" y="-248" font-family="Helvetica,sans-Serif" font-size="10.00">Marmot/HughesWinget.h</text>
</a>
</g>
</g>
<!-- Node1&#45;&gt;Node2 -->
<g id="edge1" class="edge">
<title>Node1&#45;&gt;Node2</title>
<path fill="none" stroke="midnightblue" d="M405.63,-302.4C376.78,-290.89 336.42,-274.8 308.86,-263.81"/>
<polygon fill="midnightblue" stroke="midnightblue" points="309.92,-260.46 299.33,-260.01 307.33,-266.96 309.92,-260.46"/>
</g>
<!-- Node3 -->
<g id="node3" class="node">
<title>Node3</title>
<g id="a_node3"><a xlink:href="MarmotVoigt_8h.html" target="_top" xlink:title=" ">
<polygon fill="white" stroke="black" points="341,-179.5 341,-198.5 457,-198.5 457,-179.5 341,-179.5"/>
<text text-anchor="middle" x="399" y="-186.5" font-family="Helvetica,sans-Serif" font-size="10.00">Marmot/MarmotVoigt.h</text>
</a>
</g>
</g>
<!-- Node1&#45;&gt;Node3 -->
<g id="edge38" class="edge">
<title>Node1&#45;&gt;Node3</title>
<path fill="none" stroke="midnightblue" d="M487.64,-302.36C505.04,-294.57 522.98,-282.93 533,-266 540.02,-254.14 541.04,-246.19 533,-235 517.7,-213.72 491.83,-202.36 466.89,-196.35"/>
<polygon fill="midnightblue" stroke="midnightblue" points="467.54,-192.91 457.03,-194.23 466.07,-199.76 467.54,-192.91"/>
</g>
<!-- Node4 -->
<g id="node4" class="node">
<title>Node4</title>
<g id="a_node4"><a xlink:href="MarmotJournal_8h.html" target="_top" xlink:title=" ">
<polygon fill="white" stroke="black" points="75.5,-123.5 75.5,-142.5 200.5,-142.5 200.5,-123.5 75.5,-123.5"/>
<text text-anchor="middle" x="138" y="-130.5" font-family="Helvetica,sans-Serif" font-size="10.00">Marmot/MarmotJournal.h</text>
</a>
</g>
</g>
<!-- Node1&#45;&gt;Node4 -->
<g id="edge19" class="edge">
<title>Node1&#45;&gt;Node4</title>
<path fill="none" stroke="midnightblue" d="M343.77,-310.01C238.52,-301.97 83.16,-286.76 65,-266 32.69,-229.06 86.79,-175.48 118.11,-149.41"/>
<polygon fill="midnightblue" stroke="midnightblue" points="120.68,-151.83 126.25,-142.82 116.28,-146.39 120.68,-151.83"/>
</g>
<!-- Node5 -->
<g id="node5" class="node">
<title>Node5</title>
<g id="a_node5"><a xlink:title=" ">
<polygon fill="white" stroke="#bfbfbf" points="0,-67.5 0,-86.5 54,-86.5 54,-67.5 0,-67.5"/>
<text text-anchor="middle" x="27" y="-74.5" font-family="Helvetica,sans-Serif" font-size="10.00">iostream</text>
</a>
</g>
</g>
<!-- Node1&#45;&gt;Node5 -->
<g id="edge39" class="edge">
<title>Node1&#45;&gt;Node5</title>
<path fill="none" stroke="midnightblue" d="M343.57,-316.93C241.89,-315.18 91.79,-305.67 52,-266 6.35,-220.5 15.9,-134.66 22.92,-96.78"/>
<polygon fill="midnightblue" stroke="midnightblue" points="26.41,-97.15 24.95,-86.66 19.55,-95.77 26.41,-97.15"/>
</g>
<!-- Node8 -->
<g id="node8" class="node">
<title>Node8</title>
<g id="a_node8"><a xlink:href="MarmotMath_8h.html" target="_top" xlink:title=" ">
<polygon fill="white" stroke="black" points="613.5,-123.5 613.5,-142.5 728.5,-142.5 728.5,-123.5 613.5,-123.5"/>
<text text-anchor="middle" x="671" y="-130.5" font-family="Helvetica,sans-Serif" font-size="10.00">Marmot/MarmotMath.h</text>
</a>
</g>
</g>
<!-- Node1&#45;&gt;Node8 -->
<g id="edge31" class="edge">
<title>Node1&#45;&gt;Node8</title>
<path fill="none" stroke="midnightblue" d="M538.17,-312.65C612.59,-307.42 706.54,-295.09 731,-266 761.38,-229.88 715.07,-175.86 688.12,-149.54"/>
<polygon fill="midnightblue" stroke="midnightblue" points="690.46,-146.94 680.79,-142.6 685.64,-152.02 690.46,-146.94"/>
</g>
<!-- Node19 -->
<g id="node19" class="node">
<title>Node19</title>
<g id="a_node19"><a xlink:href="MarmotKinematics_8h.html" target="_top" xlink:title=" ">
<polygon fill="white" stroke="black" points="580,-241 580,-260 722,-260 722,-241 580,-241"/>
<text text-anchor="middle" x="651" y="-248" font-family="Helvetica,sans-Serif" font-size="10.00">Marmot/MarmotKinematics.h</text>
</a>
</g>
</g>
<!-- Node1&#45;&gt;Node19 -->
<g id="edge20" class="edge">
<title>Node1&#45;&gt;Node19</title>
<path fill="none" stroke="midnightblue" d="M486.31,-302.48C524.28,-290.72 577.84,-274.14 613.46,-263.12"/>
<polygon fill="midnightblue" stroke="midnightblue" points="614.93,-266.33 623.45,-260.03 612.86,-259.64 614.93,-266.33"/>
</g>
<!-- Node20 -->
<g id="node20" class="node">
<title>Node20</title>
<g id="a_node20"><a xlink:href="MarmotLowerDimensionalStress_8h.html" target="_top" xlink:title=" ">
<polygon fill="white" stroke="black" points="358,-235.5 358,-265.5 524,-265.5 524,-235.5 358,-235.5"/>
<text text-anchor="start" x="366" y="-253.5" font-family="Helvetica,sans-Serif" font-size="10.00">Marmot/MarmotLowerDimensional</text>
<text text-anchor="middle" x="441" y="-242.5" font-family="Helvetica,sans-Serif" font-size="10.00">Stress.h</text>
</a>
</g>
</g>
<!-- Node1&#45;&gt;Node20 -->
<g id="edge24" class="edge">
<title>Node1&#45;&gt;Node20</title>
<path fill="none" stroke="midnightblue" d="M441,-302.4C441,-294.64 441,-284.81 441,-275.86"/>
<polygon fill="midnightblue" stroke="midnightblue" points="444.5,-275.58 441,-265.58 437.5,-275.58 444.5,-275.58"/>
</g>
<!-- Node21 -->
<g id="node21" class="node">
<title>Node21</title>
<g id="a_node21"><a xlink:href="MarmotMaterialHypoElastic_8h.html" target="_top" xlink:title=" ">
<polygon fill="white" stroke="black" points="786.5,-235.5 786.5,-265.5 929.5,-265.5 929.5,-235.5 786.5,-235.5"/>
<text text-anchor="start" x="794.5" y="-253.5" font-family="Helvetica,sans-Serif" font-size="10.00">Marmot/MarmotMaterialHypo</text>
<text text-anchor="middle" x="858" y="-242.5" font-family="Helvetica,sans-Serif" font-size="10.00">Elastic.h</text>
</a>
</g>
</g>
<!-- Node1&#45;&gt;Node21 -->
<g id="edge26" class="edge">
<title>Node1&#45;&gt;Node21</title>
<path fill="none" stroke="midnightblue" d="M530.97,-302.48C603.77,-291.13 705.43,-275.28 776,-264.28"/>
<polygon fill="midnightblue" stroke="midnightblue" points="776.84,-267.69 786.18,-262.69 775.76,-260.78 776.84,-267.69"/>
</g>
<!-- Node25 -->
<g id="node25" class="node">
<title>Node25</title>
<g id="a_node25"><a xlink:href="MarmotTensor_8h.html" target="_top" xlink:title=" ">
<polygon fill="white" stroke="black" points="74.5,-241 74.5,-260 197.5,-260 197.5,-241 74.5,-241"/>
<text text-anchor="middle" x="136" y="-248" font-family="Helvetica,sans-Serif" font-size="10.00">Marmot/MarmotTensor.h</text>
</a>
</g>
</g>
<!-- Node1&#45;&gt;Node25 -->
<g id="edge32" class="edge">
<title>Node1&#45;&gt;Node25</title>
<path fill="none" stroke="midnightblue" d="M375.2,-302.48C318.39,-290.37 237.55,-273.14 185.94,-262.14"/>
<polygon fill="midnightblue" stroke="midnightblue" points="186.53,-258.69 176.02,-260.03 185.07,-265.54 186.53,-258.69"/>
</g>
<!-- Node2&#45;&gt;Node3 -->
<g id="edge2" class="edge">
<title>Node2&#45;&gt;Node3</title>
<path fill="none" stroke="midnightblue" d="M295.34,-240.98C315.55,-231.03 349.19,-214.49 372.64,-202.96"/>
<polygon fill="midnightblue" stroke="midnightblue" points="374.27,-206.06 381.7,-198.51 371.18,-199.78 374.27,-206.06"/>
</g>
<!-- Node3&#45;&gt;Node4 -->
<g id="edge3" class="edge">
<title>Node3&#45;&gt;Node4</title>
<path fill="none" stroke="midnightblue" d="M357.64,-179.44C311.92,-169.98 238.24,-154.74 188.98,-144.55"/>
<polygon fill="midnightblue" stroke="midnightblue" points="189.66,-141.12 179.16,-142.52 188.25,-147.97 189.66,-141.12"/>
</g>
<!-- Node3&#45;&gt;Node8 -->
<g id="edge7" class="edge">
<title>Node3&#45;&gt;Node8</title>
<path fill="none" stroke="midnightblue" d="M442.1,-179.44C489.85,-169.96 566.86,-154.67 618.19,-144.48"/>
<polygon fill="midnightblue" stroke="midnightblue" points="618.98,-147.9 628.1,-142.52 617.61,-141.03 618.98,-147.9"/>
</g>
<!-- Node11 -->
<g id="node11" class="node">
<title>Node11</title>
<g id="a_node11"><a xlink:href="MarmotTypedefs_8h.html" target="_top" xlink:title=" ">
<polygon fill="white" stroke="black" points="185.5,-67.5 185.5,-86.5 318.5,-86.5 318.5,-67.5 185.5,-67.5"/>
<text text-anchor="middle" x="252" y="-74.5" font-family="Helvetica,sans-Serif" font-size="10.00">Marmot/MarmotTypedefs.h</text>
</a>
</g>
</g>
<!-- Node3&#45;&gt;Node11 -->
<g id="edge18" class="edge">
<title>Node3&#45;&gt;Node11</title>
<path fill="none" stroke="midnightblue" d="M387.47,-179.37C362.45,-160.65 302.98,-116.15 271.82,-92.83"/>
<polygon fill="midnightblue" stroke="midnightblue" points="273.58,-89.78 263.48,-86.59 269.39,-95.39 273.58,-89.78"/>
</g>
<!-- Node4&#45;&gt;Node5 -->
<g id="edge4" class="edge">
<title>Node4&#45;&gt;Node5</title>
<path fill="none" stroke="midnightblue" d="M120.17,-123.32C102.28,-114.62 74.52,-101.12 53.95,-91.11"/>
<polygon fill="midnightblue" stroke="midnightblue" points="55.31,-87.88 44.79,-86.65 52.25,-94.18 55.31,-87.88"/>
</g>
<!-- Node6 -->
<g id="node6" class="node">
<title>Node6</title>
<g id="a_node6"><a xlink:title=" ">
<polygon fill="white" stroke="#bfbfbf" points="112,-67.5 112,-86.5 164,-86.5 164,-67.5 112,-67.5"/>
<text text-anchor="middle" x="138" y="-74.5" font-family="Helvetica,sans-Serif" font-size="10.00">sstream</text>
</a>
</g>
</g>
<!-- Node4&#45;&gt;Node6 -->
<g id="edge5" class="edge">
<title>Node4&#45;&gt;Node6</title>
<path fill="none" stroke="midnightblue" d="M138,-123.08C138,-116.01 138,-105.86 138,-96.99"/>
<polygon fill="midnightblue" stroke="midnightblue" points="141.5,-96.75 138,-86.75 134.5,-96.75 141.5,-96.75"/>
</g>
<!-- Node7 -->
<g id="node7" class="node">
<title>Node7</title>
<g id="a_node7"><a xlink:title=" ">
<polygon fill="white" stroke="#bfbfbf" points="844.5,-67.5 844.5,-86.5 885.5,-86.5 885.5,-67.5 844.5,-67.5"/>
<text text-anchor="middle" x="865" y="-74.5" font-family="Helvetica,sans-Serif" font-size="10.00">string</text>
</a>
</g>
</g>
<!-- Node4&#45;&gt;Node7 -->
<g id="edge6" class="edge">
<title>Node4&#45;&gt;Node7</title>
<path fill="none" stroke="midnightblue" d="M200.58,-132.69C321.63,-133 596.13,-128.71 834.6,-86.59"/>
<polygon fill="midnightblue" stroke="midnightblue" points="835.27,-90.03 844.49,-84.82 834.03,-83.14 835.27,-90.03"/>
</g>
<!-- Node9 -->
<g id="node9" class="node">
<title>Node9</title>
<g id="a_node9"><a xlink:href="MarmotConstants_8h.html" target="_top" xlink:title=" ">
<polygon fill="white" stroke="black" points="336.5,-67.5 336.5,-86.5 473.5,-86.5 473.5,-67.5 336.5,-67.5"/>
<text text-anchor="middle" x="405" y="-74.5" font-family="Helvetica,sans-Serif" font-size="10.00">Marmot/MarmotConstants.h</text>
</a>
</g>
</g>
<!-- Node8&#45;&gt;Node9 -->
<g id="edge8" class="edge">
<title>Node8&#45;&gt;Node9</title>
<path fill="none" stroke="midnightblue" d="M628.85,-123.44C582.25,-113.98 507.16,-98.74 456.95,-88.55"/>
<polygon fill="midnightblue" stroke="midnightblue" points="457.45,-85.08 446.95,-86.52 456.06,-91.94 457.45,-85.08"/>
</g>
<!-- Node8&#45;&gt;Node11 -->
<g id="edge10" class="edge">
<title>Node8&#45;&gt;Node11</title>
<path fill="none" stroke="midnightblue" d="M613.18,-124.55C539.04,-114.99 410.29,-98.4 328.22,-87.82"/>
<polygon fill="midnightblue" stroke="midnightblue" points="328.56,-84.34 318.2,-86.53 327.67,-91.28 328.56,-84.34"/>
</g>
<!-- Node15 -->
<g id="node15" class="node">
<title>Node15</title>
<g id="a_node15"><a xlink:title=" ">
<polygon fill="white" stroke="#bfbfbf" points="492,-67.5 492,-86.5 614,-86.5 614,-67.5 492,-67.5"/>
<text text-anchor="middle" x="553" y="-74.5" font-family="Helvetica,sans-Serif" font-size="10.00">autodiff/forward/dual.hpp</text>
</a>
</g>
</g>
<!-- Node8&#45;&gt;Node15 -->
<g id="edge14" class="edge">
<title>Node8&#45;&gt;Node15</title>
<path fill="none" stroke="midnightblue" d="M652.3,-123.44C633.06,-114.64 602.85,-100.81 580.8,-90.72"/>
<polygon fill="midnightblue" stroke="midnightblue" points="582.16,-87.5 571.61,-86.52 579.25,-93.86 582.16,-87.5"/>
</g>
<!-- Node16 -->
<g id="node16" class="node">
<title>Node16</title>
<g id="a_node16"><a xlink:title=" ">
<polygon fill="white" stroke="#bfbfbf" points="632,-67.5 632,-86.5 752,-86.5 752,-67.5 632,-67.5"/>
<text text-anchor="middle" x="692" y="-74.5" font-family="Helvetica,sans-Serif" font-size="10.00">autodiff/forward/real.hpp</text>
</a>
</g>
</g>
<!-- Node8&#45;&gt;Node16 -->
<g id="edge15" class="edge">
<title>Node8&#45;&gt;Node16</title>
<path fill="none" stroke="midnightblue" d="M674.47,-123.08C677.31,-115.77 681.43,-105.18 684.96,-96.1"/>
<polygon fill="midnightblue" stroke="midnightblue" points="688.23,-97.34 688.6,-86.75 681.71,-94.8 688.23,-97.34"/>
</g>
<!-- Node17 -->
<g id="node17" class="node">
<title>Node17</title>
<g id="a_node17"><a xlink:title=" ">
<polygon fill="white" stroke="#bfbfbf" points="770,-67.5 770,-86.5 826,-86.5 826,-67.5 770,-67.5"/>
<text text-anchor="middle" x="798" y="-74.5" font-family="Helvetica,sans-Serif" font-size="10.00">algorithm</text>
</a>
</g>
</g>
<!-- Node8&#45;&gt;Node17 -->
<g id="edge16" class="edge">
<title>Node8&#45;&gt;Node17</title>
<path fill="none" stroke="midnightblue" d="M691.12,-123.44C712.02,-114.56 744.93,-100.56 768.72,-90.45"/>
<polygon fill="midnightblue" stroke="midnightblue" points="770.14,-93.65 777.97,-86.52 767.4,-87.21 770.14,-93.65"/>
</g>
<!-- Node18 -->
<g id="node18" class="node">
<title>Node18</title>
<g id="a_node18"><a xlink:title=" ">
<polygon fill="white" stroke="#bfbfbf" points="903.5,-67.5 903.5,-86.5 956.5,-86.5 956.5,-67.5 903.5,-67.5"/>
<text text-anchor="middle" x="930" y="-74.5" font-family="Helvetica,sans-Serif" font-size="10.00">complex</text>
</a>
</g>
</g>
<!-- Node8&#45;&gt;Node18 -->
<g id="edge17" class="edge">
<title>Node8&#45;&gt;Node18</title>
<path fill="none" stroke="midnightblue" d="M717.06,-123.49C760.32,-115.33 827.09,-102.32 893.49,-87.26"/>
<polygon fill="midnightblue" stroke="midnightblue" points="894.31,-90.67 903.28,-85.03 892.75,-83.84 894.31,-90.67"/>
</g>
<!-- Node10 -->
<g id="node10" class="node">
<title>Node10</title>
<g id="a_node10"><a xlink:title=" ">
<polygon fill="white" stroke="#bfbfbf" points="419,-6 419,-25 463,-25 463,-6 419,-6"/>
<text text-anchor="middle" x="441" y="-13" font-family="Helvetica,sans-Serif" font-size="10.00">cmath</text>
</a>
</g>
</g>
<!-- Node9&#45;&gt;Node10 -->
<g id="edge9" class="edge">
<title>Node9&#45;&gt;Node10</title>
<path fill="none" stroke="midnightblue" d="M410.16,-67.48C415.45,-58.73 423.84,-44.87 430.53,-33.81"/>
<polygon fill="midnightblue" stroke="midnightblue" points="433.67,-35.38 435.85,-25.01 427.68,-31.75 433.67,-35.38"/>
</g>
<!-- Node12 -->
<g id="node12" class="node">
<title>Node12</title>
<g id="a_node12"><a xlink:title=" ">
<polygon fill="white" stroke="#bfbfbf" points="98,-6 98,-25 162,-25 162,-6 98,-6"/>
<text text-anchor="middle" x="130" y="-13" font-family="Helvetica,sans-Serif" font-size="10.00">Eigen/Core</text>
</a>
</g>
</g>
<!-- Node11&#45;&gt;Node12 -->
<g id="edge11" class="edge">
<title>Node11&#45;&gt;Node12</title>
<path fill="none" stroke="midnightblue" d="M234.52,-67.48C214.14,-57.53 180.22,-40.99 156.58,-29.46"/>
<polygon fill="midnightblue" stroke="midnightblue" points="157.97,-26.25 147.45,-25.01 154.9,-32.54 157.97,-26.25"/>
</g>
<!-- Node13 -->
<g id="node13" class="node">
<title>Node13</title>
<g id="a_node13"><a xlink:title=" ">
<polygon fill="white" stroke="#bfbfbf" points="180.5,-6 180.5,-25 251.5,-25 251.5,-6 180.5,-6"/>
<text text-anchor="middle" x="216" y="-13" font-family="Helvetica,sans-Serif" font-size="10.00">Eigen/Dense</text>
</a>
</g>
</g>
<!-- Node11&#45;&gt;Node13 -->
<g id="edge12" class="edge">
<title>Node11&#45;&gt;Node13</title>
<path fill="none" stroke="midnightblue" d="M246.84,-67.48C241.55,-58.73 233.16,-44.87 226.47,-33.81"/>
<polygon fill="midnightblue" stroke="midnightblue" points="229.32,-31.75 221.15,-25.01 223.33,-35.38 229.32,-31.75"/>
</g>
<!-- Node14 -->
<g id="node14" class="node">
<title>Node14</title>
<g id="a_node14"><a xlink:title=" ">
<polygon fill="white" stroke="#bfbfbf" points="269.5,-0.5 269.5,-30.5 400.5,-30.5 400.5,-0.5 269.5,-0.5"/>
<text text-anchor="start" x="277.5" y="-18.5" font-family="Helvetica,sans-Serif" font-size="10.00">unsupported/Eigen/CXX11</text>
<text text-anchor="middle" x="335" y="-7.5" font-family="Helvetica,sans-Serif" font-size="10.00">/Tensor</text>
</a>
</g>
</g>
<!-- Node11&#45;&gt;Node14 -->
<g id="edge13" class="edge">
<title>Node11&#45;&gt;Node14</title>
<path fill="none" stroke="midnightblue" d="M263.89,-67.48C275.13,-59.42 292.42,-47.02 307.14,-36.47"/>
<polygon fill="midnightblue" stroke="midnightblue" points="309.35,-39.19 315.44,-30.52 305.27,-33.5 309.35,-39.19"/>
</g>
<!-- Node19&#45;&gt;Node3 -->
<g id="edge23" class="edge">
<title>Node19&#45;&gt;Node3</title>
<path fill="none" stroke="midnightblue" d="M614.89,-240.98C570.17,-230.42 493.92,-212.41 445.03,-200.87"/>
<polygon fill="midnightblue" stroke="midnightblue" points="445.58,-197.4 435.04,-198.51 443.97,-204.21 445.58,-197.4"/>
</g>
<!-- Node19&#45;&gt;Node4 -->
<g id="edge21" class="edge">
<title>Node19&#45;&gt;Node4</title>
<path fill="none" stroke="midnightblue" d="M632.81,-240.96C600.16,-226.01 529.11,-195.13 466,-179 379.79,-156.97 277.91,-145.13 210.83,-139.21"/>
<polygon fill="midnightblue" stroke="midnightblue" points="211.04,-135.71 200.78,-138.34 210.44,-142.69 211.04,-135.71"/>
</g>
<!-- Node19&#45;&gt;Node11 -->
<g id="edge22" class="edge">
<title>Node19&#45;&gt;Node11</title>
<path fill="none" stroke="midnightblue" d="M635.28,-240.97C609.62,-227.18 556.99,-199.49 511,-179 431.61,-143.62 335.74,-108.04 285.87,-90.04"/>
<polygon fill="midnightblue" stroke="midnightblue" points="286.83,-86.67 276.24,-86.58 284.46,-93.26 286.83,-86.67"/>
</g>
<!-- Node20&#45;&gt;Node3 -->
<g id="edge25" class="edge">
<title>Node20&#45;&gt;Node3</title>
<path fill="none" stroke="midnightblue" d="M431.05,-235.4C425.01,-226.84 417.26,-215.87 410.9,-206.86"/>
<polygon fill="midnightblue" stroke="midnightblue" points="413.74,-204.81 405.11,-198.66 408.02,-208.85 413.74,-204.81"/>
</g>
<!-- Node22 -->
<g id="node22" class="node">
<title>Node22</title>
<g id="a_node22"><a xlink:href="MarmotMaterialMechanical_8h.html" target="_top" xlink:title=" ">
<polygon fill="white" stroke="black" points="777.5,-179.5 777.5,-198.5 954.5,-198.5 954.5,-179.5 777.5,-179.5"/>
<text text-anchor="middle" x="866" y="-186.5" font-family="Helvetica,sans-Serif" font-size="10.00">Marmot/MarmotMaterialMechanical.h</text>
</a>
</g>
</g>
<!-- Node21&#45;&gt;Node22 -->
<g id="edge27" class="edge">
<title>Node21&#45;&gt;Node22</title>
<path fill="none" stroke="midnightblue" d="M859.9,-235.4C860.97,-227.38 862.34,-217.23 863.5,-208.57"/>
<polygon fill="midnightblue" stroke="midnightblue" points="866.97,-209.04 864.84,-198.66 860.03,-208.1 866.97,-209.04"/>
</g>
<!-- Node23 -->
<g id="node23" class="node">
<title>Node23</title>
<g id="a_node23"><a xlink:href="MarmotMaterial_8h.html" target="_top" xlink:title=" ">
<polygon fill="white" stroke="black" points="802,-123.5 802,-142.5 930,-142.5 930,-123.5 802,-123.5"/>
<text text-anchor="middle" x="866" y="-130.5" font-family="Helvetica,sans-Serif" font-size="10.00">Marmot/MarmotMaterial.h</text>
</a>
</g>
</g>
<!-- Node22&#45;&gt;Node23 -->
<g id="edge28" class="edge">
<title>Node22&#45;&gt;Node23</title>
<path fill="none" stroke="midnightblue" d="M866,-179.08C866,-172.01 866,-161.86 866,-152.99"/>
<polygon fill="midnightblue" stroke="midnightblue" points="869.5,-152.75 866,-142.75 862.5,-152.75 869.5,-152.75"/>
</g>
<!-- Node23&#45;&gt;Node7 -->
<g id="edge30" class="edge">
<title>Node23&#45;&gt;Node7</title>
<path fill="none" stroke="midnightblue" d="M865.83,-123.08C865.7,-116.01 865.52,-105.86 865.35,-96.99"/>
<polygon fill="midnightblue" stroke="midnightblue" points="868.85,-96.68 865.16,-86.75 861.85,-96.81 868.85,-96.68"/>
</g>
<!-- Node24 -->
<g id="node24" class="node">
<title>Node24</title>
<g id="a_node24"><a xlink:href="MarmotUtils_8h.html" target="_top" xlink:title=" ">
<polygon fill="white" stroke="black" points="974.5,-67.5 974.5,-86.5 1087.5,-86.5 1087.5,-67.5 974.5,-67.5"/>
<text text-anchor="middle" x="1031" y="-74.5" font-family="Helvetica,sans-Serif" font-size="10.00">Marmot/MarmotUtils.h</text>
</a>
</g>
</g>
<!-- Node23&#45;&gt;Node24 -->
<g id="edge29" class="edge">
<title>Node23&#45;&gt;Node24</title>
<path fill="none" stroke="midnightblue" d="M892.14,-123.44C920.02,-114.32 964.35,-99.81 995.4,-89.65"/>
<polygon fill="midnightblue" stroke="midnightblue" points="996.56,-92.95 1004.98,-86.52 994.38,-86.3 996.56,-92.95"/>
</g>
<!-- Node25&#45;&gt;Node3 -->
<g id="edge35" class="edge">
<title>Node25&#45;&gt;Node3</title>
<path fill="none" stroke="midnightblue" d="M173.68,-240.98C220.55,-230.37 300.61,-212.26 351.6,-200.72"/>
<polygon fill="midnightblue" stroke="midnightblue" points="352.41,-204.13 361.39,-198.51 350.86,-197.3 352.41,-204.13"/>
</g>
<!-- Node25&#45;&gt;Node4 -->
<g id="edge33" class="edge">
<title>Node25&#45;&gt;Node4</title>
<path fill="none" stroke="midnightblue" d="M136.15,-240.82C136.47,-222.26 137.23,-178.34 137.67,-152.97"/>
<polygon fill="midnightblue" stroke="midnightblue" points="141.17,-152.84 137.85,-142.78 134.18,-152.72 141.17,-152.84"/>
</g>
<!-- Node25&#45;&gt;Node5 -->
<g id="edge36" class="edge">
<title>Node25&#45;&gt;Node5</title>
<path fill="none" stroke="midnightblue" d="M130.07,-240.74C117.85,-222.64 89.07,-179.72 66,-143 56.07,-127.19 45.17,-108.95 37.42,-95.82"/>
<polygon fill="midnightblue" stroke="midnightblue" points="40.27,-93.75 32.18,-86.9 34.23,-97.3 40.27,-93.75"/>
</g>
<!-- Node25&#45;&gt;Node11 -->
<g id="edge34" class="edge">
<title>Node25&#45;&gt;Node11</title>
<path fill="none" stroke="midnightblue" d="M155.87,-240.91C173.02,-232.54 197.3,-218.27 212,-199 235.74,-167.88 245.77,-121.99 249.7,-96.6"/>
<polygon fill="midnightblue" stroke="midnightblue" points="253.2,-96.89 251.11,-86.51 246.26,-95.93 253.2,-96.89"/>
</g>
<!-- Node26 -->
<g id="node26" class="node">
<title>Node26</title>
<g id="a_node26"><a xlink:title=" ">
<polygon fill="white" stroke="#bfbfbf" points="164.5,-179.5 164.5,-198.5 203.5,-198.5 203.5,-179.5 164.5,-179.5"/>
<text text-anchor="middle" x="184" y="-186.5" font-family="Helvetica,sans-Serif" font-size="10.00">utility</text>
</a>
</g>
</g>
<!-- Node25&#45;&gt;Node26 -->
<g id="edge37" class="edge">
<title>Node25&#45;&gt;Node26</title>
<path fill="none" stroke="midnightblue" d="M142.88,-240.98C150.15,-231.96 161.8,-217.52 170.84,-206.31"/>
<polygon fill="midnightblue" stroke="midnightblue" points="173.58,-208.49 177.14,-198.51 168.13,-204.09 173.58,-208.49"/>
</g>
</g>
</svg>
