<?xml version="1.0" encoding="UTF-8" standalone="no"?>
<!DOCTYPE svg PUBLIC "-//W3C//DTD SVG 1.1//EN"
 "http://www.w3.org/Graphics/SVG/1.1/DTD/svg11.dtd">
<!-- Generated by graphviz version 2.47.1 (20210421.1823)
 -->
<!-- Title: modules/core/MarmotMechanicsCore/include/Marmot/MarmotVoigt.h Pages: 1 -->
<!--zoomable 195 -->
<svg id="main" version="1.1" xmlns="http://www.w3.org/2000/svg" xmlns:xlink="http://www.w3.org/1999/xlink" xml:space="preserve" onload="init(evt)">
<style type="text/css"><![CDATA[
.edge:hover path { stroke: red; }
.edge:hover polygon { stroke: red; fill: red; }
]]></style>
<script type="text/javascript"><![CDATA[
var edges = document.getElementsByTagName('g');
if (edges && edges.length) {
  for (var i=0;i<edges.length;i++) {
    if (edges[i].id.substr(0,4)=='edge') {
      edges[i].setAttribute('class','edge');
    }
  }
}
]]></script>
        <defs>
                <circle id="rim" cx="0" cy="0" r="7"/>
                <circle id="rim2" cx="0" cy="0" r="3.5"/>
                <g id="zoomPlus">
                        <use xlink:href="#rim" fill="#404040">
                                <set attributeName="fill" to="#808080" begin="zoomplus.mouseover" end="zoomplus.mouseout"/>
                        </use>
                        <path d="M-4,0h8M0,-4v8" fill="none" stroke="white" stroke-width="1.5" pointer-events="none"/>
                </g>
                <g id="zoomMin">
                        <use xlink:href="#rim" fill="#404040">
                                <set attributeName="fill" to="#808080" begin="zoomminus.mouseover" end="zoomminus.mouseout"/>
                        </use>
                        <path d="M-4,0h8" fill="none" stroke="white" stroke-width="1.5" pointer-events="none"/>
                </g>
                <g id="dirArrow">
                        <path fill="none" stroke="white" stroke-width="1.5" d="M0,-3.0v7 M-2.5,-0.5L0,-3.0L2.5,-0.5"/>
                </g>
               <g id="resetDef">
                       <use xlink:href="#rim2" fill="#404040">
                               <set attributeName="fill" to="#808080" begin="reset.mouseover" end="reset.mouseout"/>
                       </use>
               </g>
        </defs>

<script type="text/javascript">
var viewWidth = 2113;
var viewHeight = 195;
var sectionId = 'dynsection-1';
</script>
<script xlink:href="svgpan.js"/>
<svg id="graph" class="graph">
<g id="viewport">
<title>modules/core/MarmotMechanicsCore/include/Marmot/MarmotVoigt.h</title>
<polygon fill="white" stroke="transparent" points="-4,4 -4,-191 2109,-191 2109,4 -4,4"/>
<!-- Node1 -->
<g id="node1" class="node">
<title>Node1</title>
<g id="a_node1"><a xlink:title=" ">
<polygon fill="#bfbfbf" stroke="black" points="1112.5,-156.5 1112.5,-186.5 1285.5,-186.5 1285.5,-156.5 1112.5,-156.5"/>
<text text-anchor="start" x="1120.5" y="-174.5" font-family="Helvetica,sans-Serif" font-size="10.00">modules/core/MarmotMechanics</text>
<text text-anchor="middle" x="1199" y="-163.5" font-family="Helvetica,sans-Serif" font-size="10.00">Core/include/Marmot/MarmotVoigt.h</text>
</a>
</g>
</g>
<!-- Node2 -->
<g id="node2" class="node">
<title>Node2</title>
<g id="a_node2"><a xlink:href="HughesWinget_8h.html" target="_top" xlink:title=" ">
<polygon fill="white" stroke="black" points="231.5,-84 231.5,-114 412.5,-114 412.5,-84 231.5,-84"/>
<text text-anchor="start" x="239.5" y="-102" font-family="Helvetica,sans-Serif" font-size="10.00">modules/core/MarmotMechanics</text>
<text text-anchor="middle" x="322" y="-91" font-family="Helvetica,sans-Serif" font-size="10.00">Core/include/Marmot/HughesWinget.h</text>
</a>
</g>
</g>
<!-- Node1&#45;&gt;Node2 -->
<g id="edge1" class="edge">
<title>Node1&#45;&gt;Node2</title>
<path fill="none" stroke="midnightblue" d="M1102.16,-167.04C958.08,-161.22 678.91,-147.31 443,-120 429.04,-118.38 414.24,-116.27 399.95,-114.03"/>
<polygon fill="midnightblue" stroke="midnightblue" points="1102.17,-170.55 1112.3,-167.45 1102.45,-163.55 1102.17,-170.55"/>
</g>
<!-- Node3 -->
<g id="node3" class="node">
<title>Node3</title>
<g id="a_node3"><a xlink:href="HughesWinget_8cpp.html" target="_top" xlink:title=" ">
<polygon fill="white" stroke="black" points="212,-6 212,-36 370,-36 370,-6 212,-6"/>
<text text-anchor="start" x="220" y="-24" font-family="Helvetica,sans-Serif" font-size="10.00">modules/core/MarmotMechanics</text>
<text text-anchor="middle" x="291" y="-13" font-family="Helvetica,sans-Serif" font-size="10.00">Core/src/HughesWinget.cpp</text>
</a>
</g>
</g>
<!-- Node1&#45;&gt;Node3 -->
<g id="edge27" class="edge">
<title>Node1&#45;&gt;Node3</title>
<path fill="none" stroke="midnightblue" d="M1102.34,-166.72C945.3,-159.98 641.73,-144.26 537,-120 494.34,-110.12 378.95,-60.68 322.69,-36.02"/>
<polygon fill="midnightblue" stroke="midnightblue" points="1102.33,-170.22 1112.47,-167.15 1102.63,-163.23 1102.33,-170.22"/>
</g>
<!-- Node4 -->
<g id="node4" class="node">
<title>Node4</title>
<g id="a_node4"><a xlink:href="MarmotMaterialHypoElastic_8cpp.html" target="_top" xlink:title=" ">
<polygon fill="white" stroke="black" points="0,-6 0,-36 194,-36 194,-6 0,-6"/>
<text text-anchor="start" x="8" y="-24" font-family="Helvetica,sans-Serif" font-size="10.00">modules/core/MarmotMechanics</text>
<text text-anchor="middle" x="97" y="-13" font-family="Helvetica,sans-Serif" font-size="10.00">Core/src/MarmotMaterialHypoElastic.cpp</text>
</a>
</g>
</g>
<!-- Node1&#45;&gt;Node4 -->
<g id="edge30" class="edge">
<title>Node1&#45;&gt;Node4</title>
<path fill="none" stroke="midnightblue" d="M1102.29,-168.81C871.73,-164.32 302.86,-150.28 222,-120 174.22,-102.11 130.22,-58.9 109.49,-36.31"/>
<polygon fill="midnightblue" stroke="midnightblue" points="1102.28,-172.31 1112.35,-169.01 1102.42,-165.31 1102.28,-172.31"/>
</g>
<!-- Node5 -->
<g id="node5" class="node">
<title>Node5</title>
<g id="a_node5"><a xlink:href="MarmotMaterialHypoElasticNonLocal_8cpp.html" target="_top" xlink:title=" ">
<polygon fill="white" stroke="black" points="388,-0.5 388,-41.5 564,-41.5 564,-0.5 388,-0.5"/>
<text text-anchor="start" x="396" y="-29.5" font-family="Helvetica,sans-Serif" font-size="10.00">modules/core/MarmotMechanics</text>
<text text-anchor="start" x="396" y="-18.5" font-family="Helvetica,sans-Serif" font-size="10.00">Core/src/MarmotMaterialHypoElastic</text>
<text text-anchor="middle" x="476" y="-7.5" font-family="Helvetica,sans-Serif" font-size="10.00">NonLocal.cpp</text>
</a>
</g>
</g>
<!-- Node1&#45;&gt;Node5 -->
<g id="edge31" class="edge">
<title>Node1&#45;&gt;Node5</title>
<path fill="none" stroke="midnightblue" d="M1102.1,-158.52C1040.13,-149.94 958.31,-136.93 887,-120 826.69,-105.68 814.04,-93.4 754,-78 674.55,-57.62 653.39,-58.28 573,-42 570.05,-41.4 567.05,-40.79 564.02,-40.18"/>
<polygon fill="midnightblue" stroke="midnightblue" points="1101.87,-162.02 1112.25,-159.91 1102.82,-155.08 1101.87,-162.02"/>
</g>
<!-- Node6 -->
<g id="node6" class="node">
<title>Node6</title>
<g id="a_node6"><a xlink:href="MarmotElasticity_8h.html" target="_top" xlink:title=" ">
<polygon fill="white" stroke="black" points="1491.5,-84 1491.5,-114 1680.5,-114 1680.5,-84 1491.5,-84"/>
<text text-anchor="start" x="1499.5" y="-102" font-family="Helvetica,sans-Serif" font-size="10.00">modules/core/MarmotMechanics</text>
<text text-anchor="middle" x="1586" y="-91" font-family="Helvetica,sans-Serif" font-size="10.00">Core/include/Marmot/MarmotElasticity.h</text>
</a>
</g>
</g>
<!-- Node1&#45;&gt;Node6 -->
<g id="edge5" class="edge">
<title>Node1&#45;&gt;Node6</title>
<path fill="none" stroke="midnightblue" d="M1286.32,-154.68C1341.09,-144.75 1413.17,-131.65 1477,-120 1487.6,-118.06 1498.78,-116.02 1509.77,-114"/>
<polygon fill="midnightblue" stroke="midnightblue" points="1285.52,-151.27 1276.3,-156.5 1286.76,-158.16 1285.52,-151.27"/>
</g>
<!-- Node8 -->
<g id="node8" class="node">
<title>Node8</title>
<g id="a_node8"><a xlink:href="LinearElastic_8cpp.html" target="_top" xlink:title=" ">
<polygon fill="white" stroke="black" points="1866,-6 1866,-36 2006,-36 2006,-6 1866,-6"/>
<text text-anchor="start" x="1874" y="-24" font-family="Helvetica,sans-Serif" font-size="10.00">modules/materials/Linear</text>
<text text-anchor="middle" x="1936" y="-13" font-family="Helvetica,sans-Serif" font-size="10.00">Elastic/src/LinearElastic.cpp</text>
</a>
</g>
</g>
<!-- Node1&#45;&gt;Node8 -->
<g id="edge35" class="edge">
<title>Node1&#45;&gt;Node8</title>
<path fill="none" stroke="midnightblue" d="M1295.81,-168.56C1418.76,-164.73 1623,-153.4 1690,-120 1712.8,-108.64 1707.19,-91.17 1729,-78 1735.67,-73.97 1822.23,-51.24 1881.28,-36.01"/>
<polygon fill="midnightblue" stroke="midnightblue" points="1295.53,-165.07 1285.64,-168.87 1295.74,-172.06 1295.53,-165.07"/>
</g>
<!-- Node9 -->
<g id="node9" class="node">
<title>Node9</title>
<g id="a_node9"><a xlink:href="MarmotKinematics_8h.html" target="_top" xlink:title=" ">
<polygon fill="white" stroke="black" points="546.5,-84 546.5,-114 745.5,-114 745.5,-84 546.5,-84"/>
<text text-anchor="start" x="554.5" y="-102" font-family="Helvetica,sans-Serif" font-size="10.00">modules/core/MarmotMechanics</text>
<text text-anchor="middle" x="646" y="-91" font-family="Helvetica,sans-Serif" font-size="10.00">Core/include/Marmot/MarmotKinematics.h</text>
</a>
</g>
</g>
<!-- Node1&#45;&gt;Node9 -->
<g id="edge8" class="edge">
<title>Node1&#45;&gt;Node9</title>
<path fill="none" stroke="midnightblue" d="M1102.18,-158.16C1002.16,-145.41 846.79,-125.6 745.71,-112.71"/>
<polygon fill="midnightblue" stroke="midnightblue" points="1101.93,-161.65 1112.29,-159.45 1102.81,-154.71 1101.93,-161.65"/>
</g>
<!-- Node11 -->
<g id="node11" class="node">
<title>Node11</title>
<g id="a_node11"><a xlink:href="MarmotMaterialHyperElastic_8cpp.html" target="_top" xlink:title=" ">
<polygon fill="white" stroke="black" points="758.5,-6 758.5,-36 955.5,-36 955.5,-6 758.5,-6"/>
<text text-anchor="start" x="766.5" y="-24" font-family="Helvetica,sans-Serif" font-size="10.00">modules/core/MarmotMechanics</text>
<text text-anchor="middle" x="857" y="-13" font-family="Helvetica,sans-Serif" font-size="10.00">Core/src/MarmotMaterialHyperElastic.cpp</text>
</a>
</g>
</g>
<!-- Node1&#45;&gt;Node11 -->
<g id="edge29" class="edge">
<title>Node1&#45;&gt;Node11</title>
<path fill="none" stroke="midnightblue" d="M1102.25,-168.37C1049.28,-163.36 984.37,-150.64 934,-120 900.17,-99.42 875.36,-58.18 863.96,-36.34"/>
<polygon fill="midnightblue" stroke="midnightblue" points="1102.07,-171.87 1112.34,-169.25 1102.68,-164.9 1102.07,-171.87"/>
</g>
<!-- Node12 -->
<g id="node12" class="node">
<title>Node12</title>
<g id="a_node12"><a xlink:href="MarmotLowerDimensionalStress_8h.html" target="_top" xlink:title=" ">
<polygon fill="white" stroke="black" points="1265,-78.5 1265,-119.5 1435,-119.5 1435,-78.5 1265,-78.5"/>
<text text-anchor="start" x="1273" y="-107.5" font-family="Helvetica,sans-Serif" font-size="10.00">modules/core/MarmotMechanics</text>
<text text-anchor="start" x="1273" y="-96.5" font-family="Helvetica,sans-Serif" font-size="10.00">Core/include/Marmot/MarmotLower</text>
<text text-anchor="middle" x="1350" y="-85.5" font-family="Helvetica,sans-Serif" font-size="10.00">DimensionalStress.h</text>
</a>
</g>
</g>
<!-- Node1&#45;&gt;Node12 -->
<g id="edge14" class="edge">
<title>Node1&#45;&gt;Node12</title>
<path fill="none" stroke="midnightblue" d="M1238.35,-152.13C1259.78,-142.12 1286.32,-129.73 1308.13,-119.55"/>
<polygon fill="midnightblue" stroke="midnightblue" points="1236.77,-149 1229.19,-156.4 1239.74,-155.34 1236.77,-149"/>
</g>
<!-- Node13 -->
<g id="node13" class="node">
<title>Node13</title>
<g id="a_node13"><a xlink:href="MarmotLowerDimensionalStress_8cpp.html" target="_top" xlink:title=" ">
<polygon fill="white" stroke="black" points="1502,-0.5 1502,-41.5 1672,-41.5 1672,-0.5 1502,-0.5"/>
<text text-anchor="start" x="1510" y="-29.5" font-family="Helvetica,sans-Serif" font-size="10.00">modules/core/MarmotMechanics</text>
<text text-anchor="start" x="1510" y="-18.5" font-family="Helvetica,sans-Serif" font-size="10.00">Core/src/MarmotLowerDimensional</text>
<text text-anchor="middle" x="1587" y="-7.5" font-family="Helvetica,sans-Serif" font-size="10.00">Stress.cpp</text>
</a>
</g>
</g>
<!-- Node1&#45;&gt;Node13 -->
<g id="edge28" class="edge">
<title>Node1&#45;&gt;Node13</title>
<path fill="none" stroke="midnightblue" d="M1295.53,-164.67C1342.79,-158.42 1399.03,-145.71 1444,-120 1465.85,-107.51 1462.15,-93.49 1482,-78 1500.32,-63.7 1522.82,-51.15 1542.28,-41.58"/>
<polygon fill="midnightblue" stroke="midnightblue" points="1295.08,-161.2 1285.59,-165.91 1295.95,-168.14 1295.08,-161.2"/>
</g>
<!-- Node14 -->
<g id="node14" class="node">
<title>Node14</title>
<g id="a_node14"><a xlink:href="MarmotTensor_8h.html" target="_top" xlink:title=" ">
<polygon fill="white" stroke="black" points="943,-84 943,-114 1123,-114 1123,-84 943,-84"/>
<text text-anchor="start" x="951" y="-102" font-family="Helvetica,sans-Serif" font-size="10.00">modules/core/MarmotMechanics</text>
<text text-anchor="middle" x="1033" y="-91" font-family="Helvetica,sans-Serif" font-size="10.00">Core/include/Marmot/MarmotTensor.h</text>
</a>
</g>
</g>
<!-- Node1&#45;&gt;Node14 -->
<g id="edge16" class="edge">
<title>Node1&#45;&gt;Node14</title>
<path fill="none" stroke="midnightblue" d="M1156.25,-152.34C1128.18,-140.42 1092.02,-125.07 1066.14,-114.07"/>
<polygon fill="midnightblue" stroke="midnightblue" points="1155.23,-155.72 1165.81,-156.4 1157.97,-149.27 1155.23,-155.72"/>
</g>
<!-- Node15 -->
<g id="node15" class="node">
<title>Node15</title>
<g id="a_node15"><a xlink:href="HaighWestergaard_8cpp.html" target="_top" xlink:title=" ">
<polygon fill="white" stroke="black" points="1150,-6 1150,-36 1308,-36 1308,-6 1150,-6"/>
<text text-anchor="start" x="1158" y="-24" font-family="Helvetica,sans-Serif" font-size="10.00">modules/core/MarmotMechanics</text>
<text text-anchor="middle" x="1229" y="-13" font-family="Helvetica,sans-Serif" font-size="10.00">Core/src/HaighWestergaard.cpp</text>
</a>
</g>
</g>
<!-- Node1&#45;&gt;Node15 -->
<g id="edge26" class="edge">
<title>Node1&#45;&gt;Node15</title>
<path fill="none" stroke="midnightblue" d="M1203.9,-146.22C1210.21,-115.03 1220.95,-61.87 1226.09,-36.41"/>
<polygon fill="midnightblue" stroke="midnightblue" points="1200.43,-145.77 1201.88,-156.26 1207.29,-147.15 1200.43,-145.77"/>
</g>
<!-- Node17 -->
<g id="node17" class="node">
<title>Node17</title>
<g id="a_node17"><a xlink:href="MarmotVoigt_8cpp.html" target="_top" xlink:title=" ">
<polygon fill="white" stroke="black" points="1326,-6 1326,-36 1484,-36 1484,-6 1326,-6"/>
<text text-anchor="start" x="1334" y="-24" font-family="Helvetica,sans-Serif" font-size="10.00">modules/core/MarmotMechanics</text>
<text text-anchor="middle" x="1405" y="-13" font-family="Helvetica,sans-Serif" font-size="10.00">Core/src/MarmotVoigt.cpp</text>
</a>
</g>
</g>
<!-- Node1&#45;&gt;Node17 -->
<g id="edge34" class="edge">
<title>Node1&#45;&gt;Node17</title>
<path fill="none" stroke="midnightblue" d="M1210.91,-147.53C1223.76,-123.5 1243.98,-87.9 1256,-78 1280.32,-57.97 1312.52,-44.67 1340.77,-36.09"/>
<polygon fill="midnightblue" stroke="midnightblue" points="1207.8,-145.93 1206.22,-156.41 1213.99,-149.2 1207.8,-145.93"/>
</g>
<!-- Node18 -->
<g id="node18" class="node">
<title>Node18</title>
<g id="a_node18"><a xlink:href="MarmotMaterialMechanical_8cpp.html" target="_top" xlink:title=" ">
<polygon fill="white" stroke="black" points="1737.5,-84 1737.5,-114 1928.5,-114 1928.5,-84 1737.5,-84"/>
<text text-anchor="start" x="1745.5" y="-102" font-family="Helvetica,sans-Serif" font-size="10.00">modules/core/MarmotMechanics</text>
<text text-anchor="middle" x="1833" y="-91" font-family="Helvetica,sans-Serif" font-size="10.00">Core/src/MarmotMaterialMechanical.cpp</text>
</a>
</g>
</g>
<!-- Node1&#45;&gt;Node18 -->
<g id="edge32" class="edge">
<title>Node1&#45;&gt;Node18</title>
<path fill="none" stroke="midnightblue" d="M1295.94,-163.6C1401.33,-155.53 1574.57,-140.61 1723,-120 1735.21,-118.3 1748.13,-116.22 1760.66,-114.04"/>
<polygon fill="midnightblue" stroke="midnightblue" points="1295.66,-160.11 1285.95,-164.36 1296.19,-167.09 1295.66,-160.11"/>
</g>
<!-- Node19 -->
<g id="node19" class="node">
<title>Node19</title>
<g id="a_node19"><a xlink:href="MarmotUtility_8cpp.html" target="_top" xlink:title=" ">
<polygon fill="white" stroke="black" points="1947,-84 1947,-114 2105,-114 2105,-84 1947,-84"/>
<text text-anchor="start" x="1955" y="-102" font-family="Helvetica,sans-Serif" font-size="10.00">modules/core/MarmotMechanics</text>
<text text-anchor="middle" x="2026" y="-91" font-family="Helvetica,sans-Serif" font-size="10.00">Core/src/MarmotUtility.cpp</text>
</a>
</g>
</g>
<!-- Node1&#45;&gt;Node19 -->
<g id="edge33" class="edge">
<title>Node1&#45;&gt;Node19</title>
<path fill="none" stroke="midnightblue" d="M1296.04,-168.66C1437.79,-164.89 1709.45,-153.57 1938,-120 1948.54,-118.45 1959.69,-116.31 1970.38,-114.01"/>
<polygon fill="midnightblue" stroke="midnightblue" points="1295.56,-165.17 1285.65,-168.93 1295.74,-172.17 1295.56,-165.17"/>
</g>
<!-- Node2&#45;&gt;Node3 -->
<g id="edge2" class="edge">
<title>Node2&#45;&gt;Node3</title>
<path fill="none" stroke="midnightblue" d="M312.35,-74.33C307.25,-61.85 301.17,-46.94 296.8,-36.23"/>
<polygon fill="midnightblue" stroke="midnightblue" points="309.15,-75.77 316.17,-83.7 315.63,-73.12 309.15,-75.77"/>
</g>
<!-- Node2&#45;&gt;Node4 -->
<g id="edge3" class="edge">
<title>Node2&#45;&gt;Node4</title>
<path fill="none" stroke="midnightblue" d="M270.9,-80.74C230.92,-67.23 176.02,-48.69 138.67,-36.07"/>
<polygon fill="midnightblue" stroke="midnightblue" points="269.88,-84.09 280.47,-83.97 272.12,-77.46 269.88,-84.09"/>
</g>
<!-- Node2&#45;&gt;Node5 -->
<g id="edge4" class="edge">
<title>Node2&#45;&gt;Node5</title>
<path fill="none" stroke="midnightblue" d="M359.79,-79.35C382.99,-67.9 412.67,-53.25 436.23,-41.63"/>
<polygon fill="midnightblue" stroke="midnightblue" points="358.02,-76.32 350.61,-83.88 361.12,-82.6 358.02,-76.32"/>
</g>
<!-- Node7 -->
<g id="node7" class="node">
<title>Node7</title>
<g id="a_node7"><a xlink:href="MarmotElasticity_8cpp.html" target="_top" xlink:title=" ">
<polygon fill="white" stroke="black" points="1690,-6 1690,-36 1848,-36 1848,-6 1690,-6"/>
<text text-anchor="start" x="1698" y="-24" font-family="Helvetica,sans-Serif" font-size="10.00">modules/core/MarmotMechanics</text>
<text text-anchor="middle" x="1769" y="-13" font-family="Helvetica,sans-Serif" font-size="10.00">Core/src/MarmotElasticity.cpp</text>
</a>
</g>
</g>
<!-- Node6&#45;&gt;Node7 -->
<g id="edge6" class="edge">
<title>Node6&#45;&gt;Node7</title>
<path fill="none" stroke="midnightblue" d="M1629.23,-80.05C1661.62,-66.59 1705.33,-48.44 1735.19,-36.04"/>
<polygon fill="midnightblue" stroke="midnightblue" points="1627.88,-76.82 1619.99,-83.88 1630.57,-83.28 1627.88,-76.82"/>
</g>
<!-- Node6&#45;&gt;Node8 -->
<g id="edge7" class="edge">
<title>Node6&#45;&gt;Node8</title>
<path fill="none" stroke="midnightblue" d="M1668.2,-82C1722.04,-71.27 1793.86,-56.51 1857,-42 1865,-40.16 1873.43,-38.13 1881.68,-36.09"/>
<polygon fill="midnightblue" stroke="midnightblue" points="1667.49,-78.57 1658.37,-83.95 1668.86,-85.43 1667.49,-78.57"/>
</g>
<!-- Node9&#45;&gt;Node3 -->
<g id="edge9" class="edge">
<title>Node9&#45;&gt;Node3</title>
<path fill="none" stroke="midnightblue" d="M567.56,-81.91C514.32,-70.9 442.36,-55.84 379,-42 370.28,-40.09 361.07,-38.04 352.04,-36.01"/>
<polygon fill="midnightblue" stroke="midnightblue" points="567.11,-85.39 577.62,-83.99 568.53,-78.53 567.11,-85.39"/>
</g>
<!-- Node9&#45;&gt;Node4 -->
<g id="edge12" class="edge">
<title>Node9&#45;&gt;Node4</title>
<path fill="none" stroke="midnightblue" d="M536.15,-85.99C446.35,-75.73 316.19,-59.82 203,-42 191.72,-40.22 179.79,-38.16 168.17,-36.04"/>
<polygon fill="midnightblue" stroke="midnightblue" points="536.02,-89.5 546.35,-87.15 536.81,-82.55 536.02,-89.5"/>
</g>
<!-- Node9&#45;&gt;Node5 -->
<g id="edge13" class="edge">
<title>Node9&#45;&gt;Node5</title>
<path fill="none" stroke="midnightblue" d="M604.96,-79.65C579.25,-68.16 546.14,-53.36 519.9,-41.63"/>
<polygon fill="midnightblue" stroke="midnightblue" points="603.86,-83 614.42,-83.88 606.72,-76.61 603.86,-83"/>
</g>
<!-- Node10 -->
<g id="node10" class="node">
<title>Node10</title>
<g id="a_node10"><a xlink:href="MarmotKinematics_8cpp.html" target="_top" xlink:title=" ">
<polygon fill="white" stroke="black" points="582,-6 582,-36 740,-36 740,-6 582,-6"/>
<text text-anchor="start" x="590" y="-24" font-family="Helvetica,sans-Serif" font-size="10.00">modules/core/MarmotMechanics</text>
<text text-anchor="middle" x="661" y="-13" font-family="Helvetica,sans-Serif" font-size="10.00">Core/src/MarmotKinematics.cpp</text>
</a>
</g>
</g>
<!-- Node9&#45;&gt;Node10 -->
<g id="edge10" class="edge">
<title>Node9&#45;&gt;Node10</title>
<path fill="none" stroke="midnightblue" d="M650.82,-73.59C653.25,-61.26 656.12,-46.72 658.19,-36.23"/>
<polygon fill="midnightblue" stroke="midnightblue" points="647.32,-73.22 648.82,-83.7 654.19,-74.57 647.32,-73.22"/>
</g>
<!-- Node9&#45;&gt;Node11 -->
<g id="edge11" class="edge">
<title>Node9&#45;&gt;Node11</title>
<path fill="none" stroke="midnightblue" d="M694.89,-80.39C732.33,-66.9 783.29,-48.55 818.02,-36.04"/>
<polygon fill="midnightblue" stroke="midnightblue" points="693.42,-77.2 685.19,-83.88 695.79,-83.79 693.42,-77.2"/>
</g>
<!-- Node12&#45;&gt;Node13 -->
<g id="edge15" class="edge">
<title>Node12&#45;&gt;Node13</title>
<path fill="none" stroke="midnightblue" d="M1420.78,-75.3C1454.32,-64.55 1494,-51.82 1526.17,-41.51"/>
<polygon fill="midnightblue" stroke="midnightblue" points="1419.49,-72.04 1411.03,-78.43 1421.62,-78.71 1419.49,-72.04"/>
</g>
<!-- Node14&#45;&gt;Node3 -->
<g id="edge18" class="edge">
<title>Node14&#45;&gt;Node3</title>
<path fill="none" stroke="midnightblue" d="M932.63,-91.11C776.56,-80.11 482.85,-58.17 379,-42 368.78,-40.41 357.98,-38.31 347.58,-36.07"/>
<polygon fill="midnightblue" stroke="midnightblue" points="932.49,-94.61 942.71,-91.82 932.98,-87.63 932.49,-94.61"/>
</g>
<!-- Node14&#45;&gt;Node4 -->
<g id="edge22" class="edge">
<title>Node14&#45;&gt;Node4</title>
<path fill="none" stroke="midnightblue" d="M932.76,-90.66C879.64,-86.81 813.28,-82.06 754,-78 509.16,-61.23 446.47,-72.81 203,-42 190.55,-40.42 177.36,-38.3 164.66,-36.03"/>
<polygon fill="midnightblue" stroke="midnightblue" points="932.63,-94.16 942.86,-91.39 933.14,-87.18 932.63,-94.16"/>
</g>
<!-- Node14&#45;&gt;Node5 -->
<g id="edge23" class="edge">
<title>Node14&#45;&gt;Node5</title>
<path fill="none" stroke="midnightblue" d="M932.77,-88.2C839.36,-78.49 696.33,-62.19 573,-42 570.12,-41.53 567.19,-41.03 564.23,-40.51"/>
<polygon fill="midnightblue" stroke="midnightblue" points="932.48,-91.69 942.78,-89.23 933.2,-84.72 932.48,-91.69"/>
</g>
<!-- Node14&#45;&gt;Node10 -->
<g id="edge19" class="edge">
<title>Node14&#45;&gt;Node10</title>
<path fill="none" stroke="midnightblue" d="M948.76,-82.05C892.18,-71.17 816.01,-56.22 749,-42 740.11,-40.11 730.73,-38.06 721.54,-36"/>
<polygon fill="midnightblue" stroke="midnightblue" points="948.25,-85.51 958.73,-83.96 949.57,-78.64 948.25,-85.51"/>
</g>
<!-- Node14&#45;&gt;Node11 -->
<g id="edge21" class="edge">
<title>Node14&#45;&gt;Node11</title>
<path fill="none" stroke="midnightblue" d="M991.02,-79.87C959.91,-66.44 918.11,-48.39 889.52,-36.04"/>
<polygon fill="midnightblue" stroke="midnightblue" points="989.74,-83.13 1000.31,-83.88 992.52,-76.71 989.74,-83.13"/>
</g>
<!-- Node14&#45;&gt;Node13 -->
<g id="edge20" class="edge">
<title>Node14&#45;&gt;Node13</title>
<path fill="none" stroke="midnightblue" d="M1133.26,-88.38C1226.69,-78.8 1369.73,-62.58 1493,-42 1495.88,-41.52 1498.81,-41.01 1501.76,-40.48"/>
<polygon fill="midnightblue" stroke="midnightblue" points="1132.84,-84.9 1123.24,-89.4 1133.55,-91.87 1132.84,-84.9"/>
</g>
<!-- Node14&#45;&gt;Node15 -->
<g id="edge17" class="edge">
<title>Node14&#45;&gt;Node15</title>
<path fill="none" stroke="midnightblue" d="M1078.86,-80.22C1113.6,-66.75 1160.67,-48.5 1192.79,-36.04"/>
<polygon fill="midnightblue" stroke="midnightblue" points="1077.47,-77 1069.41,-83.88 1080,-83.53 1077.47,-77"/>
</g>
<!-- Node16 -->
<g id="node16" class="node">
<title>Node16</title>
<g id="a_node16"><a xlink:href="MarmotTensor_8cpp.html" target="_top" xlink:title=" ">
<polygon fill="white" stroke="black" points="974,-6 974,-36 1132,-36 1132,-6 974,-6"/>
<text text-anchor="start" x="982" y="-24" font-family="Helvetica,sans-Serif" font-size="10.00">modules/core/MarmotMechanics</text>
<text text-anchor="middle" x="1053" y="-13" font-family="Helvetica,sans-Serif" font-size="10.00">Core/src/MarmotTensor.cpp</text>
</a>
</g>
</g>
<!-- Node14&#45;&gt;Node16 -->
<g id="edge24" class="edge">
<title>Node14&#45;&gt;Node16</title>
<path fill="none" stroke="midnightblue" d="M1039.33,-73.96C1042.59,-61.55 1046.47,-46.83 1049.26,-36.23"/>
<polygon fill="midnightblue" stroke="midnightblue" points="1035.92,-73.14 1036.76,-83.7 1042.69,-74.92 1035.92,-73.14"/>
</g>
<!-- Node14&#45;&gt;Node17 -->
<g id="edge25" class="edge">
<title>Node14&#45;&gt;Node17</title>
<path fill="none" stroke="midnightblue" d="M1117.24,-82.05C1173.82,-71.17 1249.99,-56.22 1317,-42 1325.89,-40.11 1335.27,-38.06 1344.46,-36"/>
<polygon fill="midnightblue" stroke="midnightblue" points="1116.43,-78.64 1107.27,-83.96 1117.75,-85.51 1116.43,-78.64"/>
</g>
</g>
</svg>
        <g id="navigator" transform="translate(0 0)" fill="#404254">
                <rect fill="#f2f5e9" fill-opacity="0.5" stroke="#606060" stroke-width=".5" x="0" y="0" width="60" height="60"/>
                <use id="zoomplus" xlink:href="#zoomPlus" x="17" y="9" onmousedown="handleZoom(evt,'in')"/>
                <use id="zoomminus" xlink:href="#zoomMin" x="42" y="9" onmousedown="handleZoom(evt,'out')"/>
                <use id="reset" xlink:href="#resetDef" x="30" y="36" onmousedown="handleReset()"/>
                <g id="arrowUp" xlink:href="#dirArrow" transform="translate(30 24)" onmousedown="handlePan(0,-1)">
                  <use xlink:href="#rim" fill="#404040">
                        <set attributeName="fill" to="#808080" begin="arrowUp.mouseover" end="arrowUp.mouseout"/>
                  </use>
                  <path fill="none" stroke="white" stroke-width="1.5" d="M0,-3.0v7 M-2.5,-0.5L0,-3.0L2.5,-0.5"/>
                </g>
                <g id="arrowRight" xlink:href="#dirArrow" transform="rotate(90) translate(36 -43)" onmousedown="handlePan(1,0)">
                  <use xlink:href="#rim" fill="#404040">
                        <set attributeName="fill" to="#808080" begin="arrowRight.mouseover" end="arrowRight.mouseout"/>
                  </use>
                  <path fill="none" stroke="white" stroke-width="1.5" d="M0,-3.0v7 M-2.5,-0.5L0,-3.0L2.5,-0.5"/>
                </g>
                <g id="arrowDown" xlink:href="#dirArrow" transform="rotate(180) translate(-30 -48)" onmousedown="handlePan(0,1)">
                  <use xlink:href="#rim" fill="#404040">
                        <set attributeName="fill" to="#808080" begin="arrowDown.mouseover" end="arrowDown.mouseout"/>
                  </use>
                  <path fill="none" stroke="white" stroke-width="1.5" d="M0,-3.0v7 M-2.5,-0.5L0,-3.0L2.5,-0.5"/>
                </g>
                <g id="arrowLeft" xlink:href="#dirArrow" transform="rotate(270) translate(-36 17)" onmousedown="handlePan(-1,0)">
                  <use xlink:href="#rim" fill="#404040">
                        <set attributeName="fill" to="#808080" begin="arrowLeft.mouseover" end="arrowLeft.mouseout"/>
                  </use>
                  <path fill="none" stroke="white" stroke-width="1.5" d="M0,-3.0v7 M-2.5,-0.5L0,-3.0L2.5,-0.5"/>
                </g>
        </g>
        <svg viewBox="0 0 15 15" width="100%" height="30px" preserveAspectRatio="xMaxYMin meet">
         <g id="arrow_out" transform="scale(0.3 0.3)">
          <a xlink:href="MarmotVoigt_8h__dep__incl_org.svg" target="_base">
           <rect id="button" ry="5" rx="5" y="6" x="6" height="38" width="38"
                fill="#f2f5e9" fill-opacity="0.5" stroke="#606060" stroke-width="1.0"/>
           <path id="arrow"
             d="M 11.500037,31.436501 C 11.940474,20.09759 22.043105,11.32322 32.158766,21.979434 L 37.068811,17.246167 C 37.068811,17.246167 37.088388,32 37.088388,32 L 22.160133,31.978069 C 22.160133,31.978069 26.997745,27.140456 26.997745,27.140456 C 18.528582,18.264221 13.291696,25.230495 11.500037,31.436501 z"
             style="fill:#404040;"/>
          </a>
         </g>
        </svg>
</svg>
