<?xml version="1.0" encoding="UTF-8" standalone="no"?>
<!DOCTYPE svg PUBLIC "-//W3C//DTD SVG 1.1//EN"
 "http://www.w3.org/Graphics/SVG/1.1/DTD/svg11.dtd">
<!-- Generated by graphviz version 2.44.0 ()
 -->
<!-- Title: modules/core/MarmotFiniteStrainMechanicsCore/include/Marmot/MarmotMaterialFiniteStrain.h Pages: 1 -->
<svg width="1093pt" height="206pt"
 viewBox="0.00 0.00 1093.00 206.00" xmlns="http://www.w3.org/2000/svg" xmlns:xlink="http://www.w3.org/1999/xlink">
<g id="graph0" class="graph" transform="scale(1 1) rotate(0) translate(4 202)">
<title>modules/core/MarmotFiniteStrainMechanicsCore/include/Marmot/MarmotMaterialFiniteStrain.h</title>
<polygon fill="white" stroke="transparent" points="-4,4 -4,-202 1089,-202 1089,4 -4,4"/>
<!-- Node1 -->
<g id="node1" class="node">
<title>Node1</title>
<g id="a_node1"><a xlink:title=" ">
<polygon fill="#bfbfbf" stroke="black" points="394.5,-156.5 394.5,-197.5 574.5,-197.5 574.5,-156.5 394.5,-156.5"/>
<text text-anchor="start" x="402.5" y="-185.5" font-family="Helvetica,sans-Serif" font-size="10.00">modules/core/MarmotFinite</text>
<text text-anchor="start" x="402.5" y="-174.5" font-family="Helvetica,sans-Serif" font-size="10.00">StrainMechanicsCore/include</text>
<text text-anchor="middle" x="484.5" y="-163.5" font-family="Helvetica,sans-Serif" font-size="10.00">/Marmot/MarmotMaterialFiniteStrain.h</text>
</a>
</g>
</g>
<!-- Node2 -->
<g id="node2" class="node">
<title>Node2</title>
<g id="a_node2"><a xlink:href="MarmotMaterialFiniteStrain_8cpp.html" target="_top" xlink:title=" ">
<polygon fill="white" stroke="black" points="0,-78.5 0,-119.5 155,-119.5 155,-78.5 0,-78.5"/>
<text text-anchor="start" x="8" y="-107.5" font-family="Helvetica,sans-Serif" font-size="10.00">modules/core/MarmotFinite</text>
<text text-anchor="start" x="8" y="-96.5" font-family="Helvetica,sans-Serif" font-size="10.00">StrainMechanicsCore/src</text>
<text text-anchor="middle" x="77.5" y="-85.5" font-family="Helvetica,sans-Serif" font-size="10.00">/MarmotMaterialFiniteStrain.cpp</text>
</a>
</g>
</g>
<!-- Node1&#45;&gt;Node2 -->
<g id="edge1" class="edge">
<title>Node1&#45;&gt;Node2</title>
<path fill="none" stroke="midnightblue" d="M384.3,-160C320.85,-149.5 237.17,-134.98 163.5,-120 160.8,-119.45 158.05,-118.88 155.27,-118.29"/>
<polygon fill="midnightblue" stroke="midnightblue" points="383.87,-163.47 394.31,-161.65 385.01,-156.57 383.87,-163.47"/>
</g>
<!-- Node3 -->
<g id="node3" class="node">
<title>Node3</title>
<g id="a_node3"><a xlink:href="DisplacementFiniteStrainULElement_8h.html" target="_top" xlink:title=" ">
<polygon fill="white" stroke="black" points="173,-78.5 173,-119.5 394,-119.5 394,-78.5 173,-78.5"/>
<text text-anchor="start" x="181" y="-107.5" font-family="Helvetica,sans-Serif" font-size="10.00">modules/elements/Displacement</text>
<text text-anchor="start" x="181" y="-96.5" font-family="Helvetica,sans-Serif" font-size="10.00">FiniteStrainULElement/include</text>
<text text-anchor="middle" x="283.5" y="-85.5" font-family="Helvetica,sans-Serif" font-size="10.00">/Marmot/DisplacementFiniteStrainULElement.h</text>
</a>
</g>
</g>
<!-- Node1&#45;&gt;Node3 -->
<g id="edge2" class="edge">
<title>Node1&#45;&gt;Node3</title>
<path fill="none" stroke="midnightblue" d="M423.37,-152.89C395.16,-142.22 362.02,-129.69 335.09,-119.51"/>
<polygon fill="midnightblue" stroke="midnightblue" points="422.15,-156.17 432.74,-156.43 424.62,-149.62 422.15,-156.17"/>
</g>
<!-- Node5 -->
<g id="node5" class="node">
<title>Node5</title>
<g id="a_node5"><a xlink:href="CompressibleNeoHooke_8h.html" target="_top" xlink:title=" ">
<polygon fill="white" stroke="black" points="450,-78.5 450,-119.5 645,-119.5 645,-78.5 450,-78.5"/>
<text text-anchor="start" x="458" y="-107.5" font-family="Helvetica,sans-Serif" font-size="10.00">modules/materials/Compressible</text>
<text text-anchor="start" x="458" y="-96.5" font-family="Helvetica,sans-Serif" font-size="10.00">NeoHooke/include/Marmot/Compressible</text>
<text text-anchor="middle" x="547.5" y="-85.5" font-family="Helvetica,sans-Serif" font-size="10.00">NeoHooke.h</text>
</a>
</g>
</g>
<!-- Node1&#45;&gt;Node5 -->
<g id="edge4" class="edge">
<title>Node1&#45;&gt;Node5</title>
<path fill="none" stroke="midnightblue" d="M507.19,-148.63C515.18,-138.99 523.99,-128.36 531.33,-119.51"/>
<polygon fill="midnightblue" stroke="midnightblue" points="504.41,-146.5 500.72,-156.43 509.8,-150.96 504.41,-146.5"/>
</g>
<!-- Node6 -->
<g id="node6" class="node">
<title>Node6</title>
<g id="a_node6"><a xlink:href="CompressibleNeoHooke_8cpp.html" target="_top" xlink:title=" ">
<polygon fill="white" stroke="black" points="310.5,-6 310.5,-36 516.5,-36 516.5,-6 310.5,-6"/>
<text text-anchor="start" x="318.5" y="-24" font-family="Helvetica,sans-Serif" font-size="10.00">modules/materials/Compressible</text>
<text text-anchor="middle" x="413.5" y="-13" font-family="Helvetica,sans-Serif" font-size="10.00">NeoHooke/src/CompressibleNeoHooke.cpp</text>
</a>
</g>
</g>
<!-- Node1&#45;&gt;Node6 -->
<g id="edge7" class="edge">
<title>Node1&#45;&gt;Node6</title>
<path fill="none" stroke="midnightblue" d="M459.36,-148.48C452.47,-139.84 445.52,-129.95 440.5,-120 426.43,-92.11 418.91,-55.94 415.61,-36.27"/>
<polygon fill="midnightblue" stroke="midnightblue" points="456.8,-150.88 465.88,-156.34 462.18,-146.41 456.8,-150.88"/>
</g>
<!-- Node8 -->
<g id="node8" class="node">
<title>Node8</title>
<g id="a_node8"><a xlink:href="FiniteStrainJ2Plasticity_8h.html" target="_top" xlink:title=" ">
<polygon fill="white" stroke="black" points="728,-78.5 728,-119.5 891,-119.5 891,-78.5 728,-78.5"/>
<text text-anchor="start" x="736" y="-107.5" font-family="Helvetica,sans-Serif" font-size="10.00">modules/materials/Finite</text>
<text text-anchor="start" x="736" y="-96.5" font-family="Helvetica,sans-Serif" font-size="10.00">StrainJ2Plasticity/include</text>
<text text-anchor="middle" x="809.5" y="-85.5" font-family="Helvetica,sans-Serif" font-size="10.00">/Marmot/FiniteStrainJ2Plasticity.h</text>
</a>
</g>
</g>
<!-- Node1&#45;&gt;Node8 -->
<g id="edge8" class="edge">
<title>Node1&#45;&gt;Node8</title>
<path fill="none" stroke="midnightblue" d="M578.13,-154.1C625.43,-143.04 682.27,-129.75 727.77,-119.11"/>
<polygon fill="midnightblue" stroke="midnightblue" points="577.14,-150.74 568.2,-156.43 578.73,-157.56 577.14,-150.74"/>
</g>
<!-- Node9 -->
<g id="node9" class="node">
<title>Node9</title>
<g id="a_node9"><a xlink:href="FiniteStrainJ2Plasticity_8cpp.html" target="_top" xlink:title=" ">
<polygon fill="white" stroke="black" points="741,-0.5 741,-41.5 878,-41.5 878,-0.5 741,-0.5"/>
<text text-anchor="start" x="749" y="-29.5" font-family="Helvetica,sans-Serif" font-size="10.00">modules/materials/Finite</text>
<text text-anchor="start" x="749" y="-18.5" font-family="Helvetica,sans-Serif" font-size="10.00">StrainJ2Plasticity/src</text>
<text text-anchor="middle" x="809.5" y="-7.5" font-family="Helvetica,sans-Serif" font-size="10.00">/FiniteStrainJ2Plasticity.cpp</text>
</a>
</g>
</g>
<!-- Node1&#45;&gt;Node9 -->
<g id="edge11" class="edge">
<title>Node1&#45;&gt;Node9</title>
<path fill="none" stroke="midnightblue" d="M566.6,-153.4C594.76,-144.45 626.07,-133.14 653.5,-120 684.52,-105.14 689.41,-96.35 718.5,-78 737.96,-65.73 759.91,-52.21 777.39,-41.53"/>
<polygon fill="midnightblue" stroke="midnightblue" points="565.29,-150.15 556.79,-156.47 567.38,-156.83 565.29,-150.15"/>
</g>
<!-- Node4 -->
<g id="node4" class="node">
<title>Node4</title>
<g id="a_node4"><a xlink:href="DisplacementFiniteStrainULElement_8cpp.html" target="_top" xlink:title=" ">
<polygon fill="white" stroke="black" points="97,-0.5 97,-41.5 292,-41.5 292,-0.5 97,-0.5"/>
<text text-anchor="start" x="105" y="-29.5" font-family="Helvetica,sans-Serif" font-size="10.00">modules/elements/Displacement</text>
<text text-anchor="start" x="105" y="-18.5" font-family="Helvetica,sans-Serif" font-size="10.00">FiniteStrainULElement/src</text>
<text text-anchor="middle" x="194.5" y="-7.5" font-family="Helvetica,sans-Serif" font-size="10.00">/DisplacementFiniteStrainULElement.cpp</text>
</a>
</g>
</g>
<!-- Node3&#45;&gt;Node4 -->
<g id="edge3" class="edge">
<title>Node3&#45;&gt;Node4</title>
<path fill="none" stroke="midnightblue" d="M252.79,-71.78C241.16,-61.84 228.13,-50.72 217.34,-41.51"/>
<polygon fill="midnightblue" stroke="midnightblue" points="250.7,-74.6 260.58,-78.43 255.25,-69.27 250.7,-74.6"/>
</g>
<!-- Node5&#45;&gt;Node6 -->
<g id="edge5" class="edge">
<title>Node5&#45;&gt;Node6</title>
<path fill="none" stroke="midnightblue" d="M504.27,-73.48C482.56,-61.17 457.03,-46.69 438.58,-36.23"/>
<polygon fill="midnightblue" stroke="midnightblue" points="502.57,-76.54 512.99,-78.43 506.02,-70.45 502.57,-76.54"/>
</g>
<!-- Node7 -->
<g id="node7" class="node">
<title>Node7</title>
<g id="a_node7"><a xlink:href="CompressibleNeoHookeRegistration_8cpp.html" target="_top" xlink:title=" ">
<polygon fill="white" stroke="black" points="534.5,-0.5 534.5,-41.5 722.5,-41.5 722.5,-0.5 534.5,-0.5"/>
<text text-anchor="start" x="542.5" y="-29.5" font-family="Helvetica,sans-Serif" font-size="10.00">modules/materials/Compressible</text>
<text text-anchor="start" x="542.5" y="-18.5" font-family="Helvetica,sans-Serif" font-size="10.00">NeoHooke/src/CompressibleNeoHooke</text>
<text text-anchor="middle" x="628.5" y="-7.5" font-family="Helvetica,sans-Serif" font-size="10.00">Registration.cpp</text>
</a>
</g>
</g>
<!-- Node5&#45;&gt;Node7 -->
<g id="edge6" class="edge">
<title>Node5&#45;&gt;Node7</title>
<path fill="none" stroke="midnightblue" d="M575.75,-71.49C586.26,-61.63 597.99,-50.63 607.71,-41.51"/>
<polygon fill="midnightblue" stroke="midnightblue" points="573.26,-69.03 568.36,-78.43 578.05,-74.14 573.26,-69.03"/>
</g>
<!-- Node8&#45;&gt;Node9 -->
<g id="edge9" class="edge">
<title>Node8&#45;&gt;Node9</title>
<path fill="none" stroke="midnightblue" d="M809.5,-68.3C809.5,-59.3 809.5,-49.65 809.5,-41.51"/>
<polygon fill="midnightblue" stroke="midnightblue" points="806,-68.43 809.5,-78.43 813,-68.43 806,-68.43"/>
</g>
<!-- Node10 -->
<g id="node10" class="node">
<title>Node10</title>
<g id="a_node10"><a xlink:href="FiniteStrainJ2PlasticityRegistration_8cpp.html" target="_top" xlink:title=" ">
<polygon fill="white" stroke="black" points="896,-0.5 896,-41.5 1085,-41.5 1085,-0.5 896,-0.5"/>
<text text-anchor="start" x="904" y="-29.5" font-family="Helvetica,sans-Serif" font-size="10.00">modules/materials/Finite</text>
<text text-anchor="start" x="904" y="-18.5" font-family="Helvetica,sans-Serif" font-size="10.00">StrainJ2Plasticity/src</text>
<text text-anchor="middle" x="990.5" y="-7.5" font-family="Helvetica,sans-Serif" font-size="10.00">/FiniteStrainJ2PlasticityRegistration.cpp</text>
</a>
</g>
</g>
<!-- Node8&#45;&gt;Node10 -->
<g id="edge10" class="edge">
<title>Node8&#45;&gt;Node10</title>
<path fill="none" stroke="midnightblue" d="M865.54,-74.47C890.73,-63.89 920.11,-51.56 944.05,-41.51"/>
<polygon fill="midnightblue" stroke="midnightblue" points="863.98,-71.33 856.11,-78.43 866.69,-77.78 863.98,-71.33"/>
</g>
</g>
</svg>
