<?xml version="1.0" encoding="UTF-8" standalone="no"?>
<!DOCTYPE svg PUBLIC "-//W3C//DTD SVG 1.1//EN"
 "http://www.w3.org/Graphics/SVG/1.1/DTD/svg11.dtd">
<!-- Generated by graphviz version 3.0.0 (20220413.0106)
 -->
<!-- Title: modules/core/MarmotFiniteElementCore/include/Marmot/MarmotGeometryElement.h Pages: 1 -->
<svg width="361pt" height="206pt"
 viewBox="0.00 0.00 361.00 206.00" xmlns="http://www.w3.org/2000/svg" xmlns:xlink="http://www.w3.org/1999/xlink">
<g id="graph0" class="graph" transform="scale(1 1) rotate(0) translate(4 202)">
<title>modules/core/MarmotFiniteElementCore/include/Marmot/MarmotGeometryElement.h</title>
<polygon fill="white" stroke="transparent" points="-4,4 -4,-202 357,-202 357,4 -4,4"/>
<!-- Node1 -->
<g id="node1" class="node">
<title>Node1</title>
<g id="a_node1"><a xlink:title=" ">
<polygon fill="#bfbfbf" stroke="black" points="102.5,-156.5 102.5,-197.5 244.5,-197.5 244.5,-156.5 102.5,-156.5"/>
<text text-anchor="start" x="110.5" y="-185.5" font-family="Helvetica,sans-Serif" font-size="10.00">modules/core/MarmotFinite</text>
<text text-anchor="start" x="110.5" y="-174.5" font-family="Helvetica,sans-Serif" font-size="10.00">ElementCore/include/Marmot</text>
<text text-anchor="middle" x="173.5" y="-163.5" font-family="Helvetica,sans-Serif" font-size="10.00">/MarmotGeometryElement.h</text>
</a>
</g>
</g>
<!-- Node2 -->
<g id="node2" class="node">
<title>Node2</title>
<g id="a_node2"><a xlink:href="MarmotGeometryElement_8cpp.html" target="_top" xlink:title=" ">
<polygon fill="white" stroke="black" points="0,-78.5 0,-119.5 167,-119.5 167,-78.5 0,-78.5"/>
<text text-anchor="start" x="8" y="-107.5" font-family="Helvetica,sans-Serif" font-size="10.00">modules/core/MarmotFinite</text>
<text text-anchor="start" x="8" y="-96.5" font-family="Helvetica,sans-Serif" font-size="10.00">ElementCore/src/MarmotGeometry</text>
<text text-anchor="middle" x="83.5" y="-85.5" font-family="Helvetica,sans-Serif" font-size="10.00">Element.cpp</text>
</a>
</g>
</g>
<!-- Node1&#45;&gt;Node2 -->
<g id="edge1" class="edge">
<title>Node1&#45;&gt;Node2</title>
<path fill="none" stroke="midnightblue" d="M142.45,-149.78C130.68,-139.84 117.51,-128.72 106.6,-119.51"/>
<polygon fill="midnightblue" stroke="midnightblue" points="140.42,-152.65 150.32,-156.43 144.94,-147.3 140.42,-152.65"/>
</g>
<!-- Node3 -->
<g id="node3" class="node">
<title>Node3</title>
<g id="a_node3"><a xlink:href="DisplacementFiniteElement_8h.html" target="_top" xlink:title=" ">
<polygon fill="white" stroke="black" points="184.5,-78.5 184.5,-119.5 342.5,-119.5 342.5,-78.5 184.5,-78.5"/>
<text text-anchor="start" x="192.5" y="-107.5" font-family="Helvetica,sans-Serif" font-size="10.00">modules/elements/Displacement</text>
<text text-anchor="start" x="192.5" y="-96.5" font-family="Helvetica,sans-Serif" font-size="10.00">FiniteElement/include/Marmot</text>
<text text-anchor="middle" x="263.5" y="-85.5" font-family="Helvetica,sans-Serif" font-size="10.00">/DisplacementFiniteElement.h</text>
</a>
</g>
</g>
<!-- Node1&#45;&gt;Node3 -->
<g id="edge2" class="edge">
<title>Node1&#45;&gt;Node3</title>
<path fill="none" stroke="midnightblue" d="M204.55,-149.78C216.32,-139.84 229.49,-128.72 240.4,-119.51"/>
<polygon fill="midnightblue" stroke="midnightblue" points="202.06,-147.3 196.68,-156.43 206.58,-152.65 202.06,-147.3"/>
</g>
<!-- Node4 -->
<g id="node4" class="node">
<title>Node4</title>
<g id="a_node4"><a xlink:href="DisplacementFiniteElementRegistration_8cpp.html" target="_top" xlink:title=" ">
<polygon fill="white" stroke="black" points="174,-0.5 174,-41.5 353,-41.5 353,-0.5 174,-0.5"/>
<text text-anchor="start" x="182" y="-29.5" font-family="Helvetica,sans-Serif" font-size="10.00">modules/elements/Displacement</text>
<text text-anchor="start" x="182" y="-18.5" font-family="Helvetica,sans-Serif" font-size="10.00">FiniteElement/src/DisplacementFinite</text>
<text text-anchor="middle" x="263.5" y="-7.5" font-family="Helvetica,sans-Serif" font-size="10.00">ElementRegistration.cpp</text>
</a>
</g>
</g>
<!-- Node3&#45;&gt;Node4 -->
<g id="edge3" class="edge">
<title>Node3&#45;&gt;Node4</title>
<path fill="none" stroke="midnightblue" d="M263.5,-68.3C263.5,-59.3 263.5,-49.65 263.5,-41.51"/>
<polygon fill="midnightblue" stroke="midnightblue" points="260,-68.43 263.5,-78.43 267,-68.43 260,-68.43"/>
</g>
</g>
</svg>
