<?xml version="1.0" encoding="UTF-8" standalone="no"?>
<!DOCTYPE svg PUBLIC "-//W3C//DTD SVG 1.1//EN"
 "http://www.w3.org/Graphics/SVG/1.1/DTD/svg11.dtd">
<!-- Generated by graphviz version 2.44.0 ()
 -->
<!-- Title: modules/core/MarmotMathCore/include/Marmot/MarmotTensorExponential.h Pages: 1 -->
<svg width="453pt" height="273pt"
 viewBox="0.00 0.00 452.50 273.00" xmlns="http://www.w3.org/2000/svg" xmlns:xlink="http://www.w3.org/1999/xlink">
<g id="graph0" class="graph" transform="scale(1 1) rotate(0) translate(4 269)">
<title>modules/core/MarmotMathCore/include/Marmot/MarmotTensorExponential.h</title>
<polygon fill="white" stroke="transparent" points="-4,4 -4,-269 448.5,-269 448.5,4 -4,4"/>
<!-- Node1 -->
<g id="node1" class="node">
<title>Node1</title>
<g id="a_node1"><a xlink:title=" ">
<polygon fill="#bfbfbf" stroke="black" points="35.5,-234.5 35.5,-264.5 244.5,-264.5 244.5,-234.5 35.5,-234.5"/>
<text text-anchor="start" x="43.5" y="-252.5" font-family="Helvetica,sans-Serif" font-size="10.00">modules/core/MarmotMathCore</text>
<text text-anchor="middle" x="140" y="-241.5" font-family="Helvetica,sans-Serif" font-size="10.00">/include/Marmot/MarmotTensorExponential.h</text>
</a>
</g>
</g>
<!-- Node2 -->
<g id="node2" class="node">
<title>Node2</title>
<g id="a_node2"><a xlink:href="MarmotFiniteStrainPlasticity_8h.html" target="_top" xlink:title=" ">
<polygon fill="white" stroke="black" points="107.5,-156.5 107.5,-197.5 292.5,-197.5 292.5,-156.5 107.5,-156.5"/>
<text text-anchor="start" x="115.5" y="-185.5" font-family="Helvetica,sans-Serif" font-size="10.00">modules/core/MarmotFinite</text>
<text text-anchor="start" x="115.5" y="-174.5" font-family="Helvetica,sans-Serif" font-size="10.00">StrainMechanicsCore/include</text>
<text text-anchor="middle" x="200" y="-163.5" font-family="Helvetica,sans-Serif" font-size="10.00">/Marmot/MarmotFiniteStrainPlasticity.h</text>
</a>
</g>
</g>
<!-- Node1&#45;&gt;Node2 -->
<g id="edge1" class="edge">
<title>Node1&#45;&gt;Node2</title>
<path fill="none" stroke="midnightblue" d="M158.69,-226.54C166.57,-217.28 175.68,-206.58 183.33,-197.59"/>
<polygon fill="midnightblue" stroke="midnightblue" points="155.96,-224.35 152.14,-234.23 161.29,-228.89 155.96,-224.35"/>
</g>
<!-- Node3 -->
<g id="node3" class="node">
<title>Node3</title>
<g id="a_node3"><a xlink:href="MarmotFiniteStrainPlasticity_8cpp.html" target="_top" xlink:title=" ">
<polygon fill="white" stroke="black" points="0,-78.5 0,-119.5 160,-119.5 160,-78.5 0,-78.5"/>
<text text-anchor="start" x="8" y="-107.5" font-family="Helvetica,sans-Serif" font-size="10.00">modules/core/MarmotFinite</text>
<text text-anchor="start" x="8" y="-96.5" font-family="Helvetica,sans-Serif" font-size="10.00">StrainMechanicsCore/src</text>
<text text-anchor="middle" x="80" y="-85.5" font-family="Helvetica,sans-Serif" font-size="10.00">/MarmotFiniteStrainPlasticity.cpp</text>
</a>
</g>
</g>
<!-- Node1&#45;&gt;Node3 -->
<g id="edge6" class="edge">
<title>Node1&#45;&gt;Node3</title>
<path fill="none" stroke="midnightblue" d="M118.53,-226.88C111.3,-218.48 103.85,-208.39 99,-198 87.12,-172.56 82.67,-140.07 81,-119.65"/>
<polygon fill="midnightblue" stroke="midnightblue" points="116,-229.3 125.3,-234.37 121.19,-224.6 116,-229.3"/>
</g>
<!-- Node2&#45;&gt;Node3 -->
<g id="edge2" class="edge">
<title>Node2&#45;&gt;Node3</title>
<path fill="none" stroke="midnightblue" d="M160.4,-150.92C144.27,-140.7 125.9,-129.07 110.8,-119.51"/>
<polygon fill="midnightblue" stroke="midnightblue" points="158.78,-154.03 169.1,-156.43 162.52,-148.12 158.78,-154.03"/>
</g>
<!-- Node4 -->
<g id="node4" class="node">
<title>Node4</title>
<g id="a_node4"><a xlink:href="FiniteStrainJ2Plasticity_8h.html" target="_top" xlink:title=" ">
<polygon fill="white" stroke="black" points="178.5,-78.5 178.5,-119.5 341.5,-119.5 341.5,-78.5 178.5,-78.5"/>
<text text-anchor="start" x="186.5" y="-107.5" font-family="Helvetica,sans-Serif" font-size="10.00">modules/materials/Finite</text>
<text text-anchor="start" x="186.5" y="-96.5" font-family="Helvetica,sans-Serif" font-size="10.00">StrainJ2Plasticity/include</text>
<text text-anchor="middle" x="260" y="-85.5" font-family="Helvetica,sans-Serif" font-size="10.00">/Marmot/FiniteStrainJ2Plasticity.h</text>
</a>
</g>
</g>
<!-- Node2&#45;&gt;Node4 -->
<g id="edge3" class="edge">
<title>Node2&#45;&gt;Node4</title>
<path fill="none" stroke="midnightblue" d="M221.84,-148.34C229.39,-138.78 237.68,-128.27 244.6,-119.51"/>
<polygon fill="midnightblue" stroke="midnightblue" points="218.9,-146.41 215.45,-156.43 224.4,-150.75 218.9,-146.41"/>
</g>
<!-- Node5 -->
<g id="node5" class="node">
<title>Node5</title>
<g id="a_node5"><a xlink:href="FiniteStrainJ2Plasticity_8cpp.html" target="_top" xlink:title=" ">
<polygon fill="white" stroke="black" points="100.5,-0.5 100.5,-41.5 237.5,-41.5 237.5,-0.5 100.5,-0.5"/>
<text text-anchor="start" x="108.5" y="-29.5" font-family="Helvetica,sans-Serif" font-size="10.00">modules/materials/Finite</text>
<text text-anchor="start" x="108.5" y="-18.5" font-family="Helvetica,sans-Serif" font-size="10.00">StrainJ2Plasticity/src</text>
<text text-anchor="middle" x="169" y="-7.5" font-family="Helvetica,sans-Serif" font-size="10.00">/FiniteStrainJ2Plasticity.cpp</text>
</a>
</g>
</g>
<!-- Node4&#45;&gt;Node5 -->
<g id="edge4" class="edge">
<title>Node4&#45;&gt;Node5</title>
<path fill="none" stroke="midnightblue" d="M228.6,-71.78C216.71,-61.84 203.38,-50.72 192.36,-41.51"/>
<polygon fill="midnightblue" stroke="midnightblue" points="226.65,-74.7 236.57,-78.43 231.13,-69.33 226.65,-74.7"/>
</g>
<!-- Node6 -->
<g id="node6" class="node">
<title>Node6</title>
<g id="a_node6"><a xlink:href="FiniteStrainJ2PlasticityRegistration_8cpp.html" target="_top" xlink:title=" ">
<polygon fill="white" stroke="black" points="255.5,-0.5 255.5,-41.5 444.5,-41.5 444.5,-0.5 255.5,-0.5"/>
<text text-anchor="start" x="263.5" y="-29.5" font-family="Helvetica,sans-Serif" font-size="10.00">modules/materials/Finite</text>
<text text-anchor="start" x="263.5" y="-18.5" font-family="Helvetica,sans-Serif" font-size="10.00">StrainJ2Plasticity/src</text>
<text text-anchor="middle" x="350" y="-7.5" font-family="Helvetica,sans-Serif" font-size="10.00">/FiniteStrainJ2PlasticityRegistration.cpp</text>
</a>
</g>
</g>
<!-- Node4&#45;&gt;Node6 -->
<g id="edge5" class="edge">
<title>Node4&#45;&gt;Node6</title>
<path fill="none" stroke="midnightblue" d="M291.05,-71.78C302.82,-61.84 315.99,-50.72 326.9,-41.51"/>
<polygon fill="midnightblue" stroke="midnightblue" points="288.56,-69.3 283.18,-78.43 293.08,-74.65 288.56,-69.3"/>
</g>
</g>
</svg>
