<?xml version="1.0" encoding="UTF-8" standalone="no"?>
<!DOCTYPE svg PUBLIC "-//W3C//DTD SVG 1.1//EN"
 "http://www.w3.org/Graphics/SVG/1.1/DTD/svg11.dtd">
<!-- Generated by graphviz version 3.0.0 (20220413.0106)
 -->
<!-- Title: modules/core/MarmotFiniteElementCore/src/MarmotFiniteElementSpatialWrapper.cpp Pages: 1 -->
<!--zoomable 296 -->
<svg id="main" version="1.1" xmlns="http://www.w3.org/2000/svg" xmlns:xlink="http://www.w3.org/1999/xlink" xml:space="preserve" onload="init(evt)">
<style type="text/css"><![CDATA[
.edge:hover path { stroke: red; }
.edge:hover polygon { stroke: red; fill: red; }
]]></style>
<script type="text/javascript"><![CDATA[
var edges = document.getElementsByTagName('g');
if (edges && edges.length) {
  for (var i=0;i<edges.length;i++) {
    if (edges[i].id.substr(0,4)=='edge') {
      edges[i].setAttribute('class','edge');
    }
  }
}
]]></script>
        <defs>
                <circle id="rim" cx="0" cy="0" r="7"/>
                <circle id="rim2" cx="0" cy="0" r="3.5"/>
                <g id="zoomPlus">
                        <use xlink:href="#rim" fill="#404040">
                                <set attributeName="fill" to="#808080" begin="zoomplus.mouseover" end="zoomplus.mouseout"/>
                        </use>
                        <path d="M-4,0h8M0,-4v8" fill="none" stroke="white" stroke-width="1.5" pointer-events="none"/>
                </g>
                <g id="zoomMin">
                        <use xlink:href="#rim" fill="#404040">
                                <set attributeName="fill" to="#808080" begin="zoomminus.mouseover" end="zoomminus.mouseout"/>
                        </use>
                        <path d="M-4,0h8" fill="none" stroke="white" stroke-width="1.5" pointer-events="none"/>
                </g>
                <g id="dirArrow">
                        <path fill="none" stroke="white" stroke-width="1.5" d="M0,-3.0v7 M-2.5,-0.5L0,-3.0L2.5,-0.5"/>
                </g>
               <g id="resetDef">
                       <use xlink:href="#rim2" fill="#404040">
                               <set attributeName="fill" to="#808080" begin="reset.mouseover" end="reset.mouseout"/>
                       </use>
               </g>
        </defs>

<script type="text/javascript">
var viewWidth = 1020;
var viewHeight = 296;
var sectionId = 'dynsection-0';
</script>
<script xlink:href="svgpan.js"/>
<svg id="graph" class="graph">
<g id="viewport">
<title>modules/core/MarmotFiniteElementCore/src/MarmotFiniteElementSpatialWrapper.cpp</title>
<polygon fill="white" stroke="transparent" points="-4,4 -4,-292 1015.5,-292 1015.5,4 -4,4"/>
<!-- Node1 -->
<g id="node1" class="node">
<title>Node1</title>
<g id="a_node1"><a xlink:title=" ">
<polygon fill="#bfbfbf" stroke="black" points="287,-246.5 287,-287.5 471,-287.5 471,-246.5 287,-246.5"/>
<text text-anchor="start" x="295" y="-275.5" font-family="Helvetica,sans-Serif" font-size="10.00">modules/core/MarmotFinite</text>
<text text-anchor="start" x="295" y="-264.5" font-family="Helvetica,sans-Serif" font-size="10.00">ElementCore/src/MarmotFiniteElement</text>
<text text-anchor="middle" x="379" y="-253.5" font-family="Helvetica,sans-Serif" font-size="10.00">SpatialWrapper.cpp</text>
</a>
</g>
</g>
<!-- Node2 -->
<g id="node2" class="node">
<title>Node2</title>
<g id="a_node2"><a xlink:href="MarmotFiniteElementSpatialWrapper_8h.html" target="_top" xlink:title=" ">
<polygon fill="white" stroke="black" points="187.5,-179.5 187.5,-209.5 332.5,-209.5 332.5,-179.5 187.5,-179.5"/>
<text text-anchor="start" x="195.5" y="-197.5" font-family="Helvetica,sans-Serif" font-size="10.00">Marmot/MarmotFiniteElement</text>
<text text-anchor="middle" x="260" y="-186.5" font-family="Helvetica,sans-Serif" font-size="10.00">SpatialWrapper.h</text>
</a>
</g>
</g>
<!-- Node1&#45;&gt;Node2 -->
<g id="edge1" class="edge">
<title>Node1&#45;&gt;Node2</title>
<path fill="none" stroke="midnightblue" d="M345.85,-246.36C329.26,-236.53 309.23,-224.67 292.7,-214.87"/>
<polygon fill="midnightblue" stroke="midnightblue" points="294.31,-211.76 283.92,-209.67 290.74,-217.78 294.31,-211.76"/>
</g>
<!-- Node3 -->
<g id="node3" class="node">
<title>Node3</title>
<g id="a_node3"><a xlink:title=" ">
<polygon fill="white" stroke="#bfbfbf" points="10,-123.5 10,-142.5 84,-142.5 84,-123.5 10,-123.5"/>
<text text-anchor="middle" x="47" y="-130.5" font-family="Helvetica,sans-Serif" font-size="10.00">Eigen/Sparse</text>
</a>
</g>
</g>
<!-- Node1&#45;&gt;Node3 -->
<g id="edge11" class="edge">
<title>Node1&#45;&gt;Node3</title>
<path fill="none" stroke="midnightblue" d="M290.29,-246.46C254.7,-237.3 213.72,-225.05 178,-210 137,-192.73 92.96,-165.08 67.82,-148.32"/>
<polygon fill="midnightblue" stroke="midnightblue" points="69.7,-145.37 59.45,-142.68 65.79,-151.17 69.7,-145.37"/>
</g>
<!-- Node11 -->
<g id="node11" class="node">
<title>Node11</title>
<g id="a_node11"><a xlink:href="MarmotVoigt_8h.html" target="_top" xlink:title=" ">
<polygon fill="white" stroke="black" points="526,-185 526,-204 642,-204 642,-185 526,-185"/>
<text text-anchor="middle" x="584" y="-192" font-family="Helvetica,sans-Serif" font-size="10.00">Marmot/MarmotVoigt.h</text>
</a>
</g>
</g>
<!-- Node1&#45;&gt;Node11 -->
<g id="edge12" class="edge">
<title>Node1&#45;&gt;Node11</title>
<path fill="none" stroke="midnightblue" d="M435.83,-246.46C472.4,-233.88 518.71,-217.95 549.74,-207.28"/>
<polygon fill="midnightblue" stroke="midnightblue" points="550.93,-210.57 559.25,-204.01 548.65,-203.96 550.93,-210.57"/>
</g>
<!-- Node13 -->
<g id="node13" class="node">
<title>Node13</title>
<g id="a_node13"><a xlink:title=" ">
<polygon fill="white" stroke="#bfbfbf" points="435,-67.5 435,-86.5 489,-86.5 489,-67.5 435,-67.5"/>
<text text-anchor="middle" x="462" y="-74.5" font-family="Helvetica,sans-Serif" font-size="10.00">iostream</text>
</a>
</g>
</g>
<!-- Node1&#45;&gt;Node13 -->
<g id="edge27" class="edge">
<title>Node1&#45;&gt;Node13</title>
<path fill="none" stroke="midnightblue" d="M387.73,-246.24C403.87,-209.67 438.18,-131.95 453.87,-96.42"/>
<polygon fill="midnightblue" stroke="midnightblue" points="457.26,-97.4 458.1,-86.84 450.86,-94.58 457.26,-97.4"/>
</g>
<!-- Node2&#45;&gt;Node3 -->
<g id="edge2" class="edge">
<title>Node2&#45;&gt;Node3</title>
<path fill="none" stroke="midnightblue" d="M209.79,-179.47C172.4,-169.03 122.02,-154.96 87.26,-145.25"/>
<polygon fill="midnightblue" stroke="midnightblue" points="88.02,-141.83 77.45,-142.51 86.14,-148.57 88.02,-141.83"/>
</g>
<!-- Node4 -->
<g id="node4" class="node">
<title>Node4</title>
<g id="a_node4"><a xlink:href="MarmotElement_8h.html" target="_top" xlink:title=" ">
<polygon fill="white" stroke="black" points="140,-123.5 140,-142.5 268,-142.5 268,-123.5 140,-123.5"/>
<text text-anchor="middle" x="204" y="-130.5" font-family="Helvetica,sans-Serif" font-size="10.00">Marmot/MarmotElement.h</text>
</a>
</g>
</g>
<!-- Node2&#45;&gt;Node4 -->
<g id="edge3" class="edge">
<title>Node2&#45;&gt;Node4</title>
<path fill="none" stroke="midnightblue" d="M246.73,-179.4C238.42,-170.58 227.7,-159.18 219.08,-150.02"/>
<polygon fill="midnightblue" stroke="midnightblue" points="221.55,-147.54 212.15,-142.66 216.45,-152.34 221.55,-147.54"/>
</g>
<!-- Node5 -->
<g id="node5" class="node">
<title>Node5</title>
<g id="a_node5"><a xlink:href="MarmotElementProperty_8h.html" target="_top" xlink:title=" ">
<polygon fill="white" stroke="black" points="0,-67.5 0,-86.5 164,-86.5 164,-67.5 0,-67.5"/>
<text text-anchor="middle" x="82" y="-74.5" font-family="Helvetica,sans-Serif" font-size="10.00">Marmot/MarmotElementProperty.h</text>
</a>
</g>
</g>
<!-- Node2&#45;&gt;Node5 -->
<g id="edge8" class="edge">
<title>Node2&#45;&gt;Node5</title>
<path fill="none" stroke="midnightblue" d="M205.12,-179.42C180.81,-171.4 152.84,-159.57 131,-143 114.17,-130.23 100.28,-110.21 91.65,-95.76"/>
<polygon fill="midnightblue" stroke="midnightblue" points="94.53,-93.75 86.53,-86.8 88.45,-97.22 94.53,-93.75"/>
</g>
<!-- Node9 -->
<g id="node9" class="node">
<title>Node9</title>
<g id="a_node9"><a xlink:title=" ">
<polygon fill="white" stroke="#bfbfbf" points="286.5,-123.5 286.5,-142.5 345.5,-142.5 345.5,-123.5 286.5,-123.5"/>
<text text-anchor="middle" x="316" y="-130.5" font-family="Helvetica,sans-Serif" font-size="10.00">functional</text>
</a>
</g>
</g>
<!-- Node2&#45;&gt;Node9 -->
<g id="edge9" class="edge">
<title>Node2&#45;&gt;Node9</title>
<path fill="none" stroke="midnightblue" d="M273.27,-179.4C281.58,-170.58 292.3,-159.18 300.92,-150.02"/>
<polygon fill="midnightblue" stroke="midnightblue" points="303.55,-152.34 307.85,-142.66 298.45,-147.54 303.55,-152.34"/>
</g>
<!-- Node10 -->
<g id="node10" class="node">
<title>Node10</title>
<g id="a_node10"><a xlink:title=" ">
<polygon fill="white" stroke="#bfbfbf" points="363.5,-123.5 363.5,-142.5 414.5,-142.5 414.5,-123.5 363.5,-123.5"/>
<text text-anchor="middle" x="389" y="-130.5" font-family="Helvetica,sans-Serif" font-size="10.00">memory</text>
</a>
</g>
</g>
<!-- Node2&#45;&gt;Node10 -->
<g id="edge10" class="edge">
<title>Node2&#45;&gt;Node10</title>
<path fill="none" stroke="midnightblue" d="M290.57,-179.4C311.93,-169.55 340.22,-156.5 360.98,-146.92"/>
<polygon fill="midnightblue" stroke="midnightblue" points="362.61,-150.02 370.23,-142.66 359.68,-143.67 362.61,-150.02"/>
</g>
<!-- Node4&#45;&gt;Node5 -->
<g id="edge4" class="edge">
<title>Node4&#45;&gt;Node5</title>
<path fill="none" stroke="midnightblue" d="M184.67,-123.44C164.68,-114.6 133.26,-100.69 110.44,-90.59"/>
<polygon fill="midnightblue" stroke="midnightblue" points="111.8,-87.36 101.24,-86.52 108.97,-93.76 111.8,-87.36"/>
</g>
<!-- Node6 -->
<g id="node6" class="node">
<title>Node6</title>
<g id="a_node6"><a xlink:href="MarmotUtils_8h.html" target="_top" xlink:title=" ">
<polygon fill="white" stroke="black" points="244.5,-67.5 244.5,-86.5 357.5,-86.5 357.5,-67.5 244.5,-67.5"/>
<text text-anchor="middle" x="301" y="-74.5" font-family="Helvetica,sans-Serif" font-size="10.00">Marmot/MarmotUtils.h</text>
</a>
</g>
</g>
<!-- Node4&#45;&gt;Node6 -->
<g id="edge5" class="edge">
<title>Node4&#45;&gt;Node6</title>
<path fill="none" stroke="midnightblue" d="M219.58,-123.32C235,-114.74 258.81,-101.49 276.71,-91.52"/>
<polygon fill="midnightblue" stroke="midnightblue" points="278.42,-94.58 285.45,-86.65 275.01,-88.46 278.42,-94.58"/>
</g>
<!-- Node7 -->
<g id="node7" class="node">
<title>Node7</title>
<g id="a_node7"><a xlink:title=" ">
<polygon fill="white" stroke="#bfbfbf" points="375.5,-67.5 375.5,-86.5 416.5,-86.5 416.5,-67.5 375.5,-67.5"/>
<text text-anchor="middle" x="396" y="-74.5" font-family="Helvetica,sans-Serif" font-size="10.00">string</text>
</a>
</g>
</g>
<!-- Node4&#45;&gt;Node7 -->
<g id="edge6" class="edge">
<title>Node4&#45;&gt;Node7</title>
<path fill="none" stroke="midnightblue" d="M235.41,-123.48C266.11,-115.11 314.41,-101.82 365.46,-87.11"/>
<polygon fill="midnightblue" stroke="midnightblue" points="366.72,-90.39 375.36,-84.25 364.78,-83.67 366.72,-90.39"/>
</g>
<!-- Node8 -->
<g id="node8" class="node">
<title>Node8</title>
<g id="a_node8"><a xlink:title=" ">
<polygon fill="white" stroke="#bfbfbf" points="182,-67.5 182,-86.5 226,-86.5 226,-67.5 182,-67.5"/>
<text text-anchor="middle" x="204" y="-74.5" font-family="Helvetica,sans-Serif" font-size="10.00">vector</text>
</a>
</g>
</g>
<!-- Node4&#45;&gt;Node8 -->
<g id="edge7" class="edge">
<title>Node4&#45;&gt;Node8</title>
<path fill="none" stroke="midnightblue" d="M204,-123.08C204,-116.01 204,-105.86 204,-96.99"/>
<polygon fill="midnightblue" stroke="midnightblue" points="207.5,-96.75 204,-86.75 200.5,-96.75 207.5,-96.75"/>
</g>
<!-- Node12 -->
<g id="node12" class="node">
<title>Node12</title>
<g id="a_node12"><a xlink:href="MarmotJournal_8h.html" target="_top" xlink:title=" ">
<polygon fill="white" stroke="black" points="471.5,-123.5 471.5,-142.5 596.5,-142.5 596.5,-123.5 471.5,-123.5"/>
<text text-anchor="middle" x="534" y="-130.5" font-family="Helvetica,sans-Serif" font-size="10.00">Marmot/MarmotJournal.h</text>
</a>
</g>
</g>
<!-- Node11&#45;&gt;Node12 -->
<g id="edge13" class="edge">
<title>Node11&#45;&gt;Node12</title>
<path fill="none" stroke="midnightblue" d="M576.84,-184.98C569.26,-175.96 557.13,-161.52 547.71,-150.31"/>
<polygon fill="midnightblue" stroke="midnightblue" points="550.26,-147.91 541.15,-142.51 544.9,-152.42 550.26,-147.91"/>
</g>
<!-- Node15 -->
<g id="node15" class="node">
<title>Node15</title>
<g id="a_node15"><a xlink:href="MarmotMath_8h.html" target="_top" xlink:title=" ">
<polygon fill="white" stroke="black" points="699.5,-123.5 699.5,-142.5 814.5,-142.5 814.5,-123.5 699.5,-123.5"/>
<text text-anchor="middle" x="757" y="-130.5" font-family="Helvetica,sans-Serif" font-size="10.00">Marmot/MarmotMath.h</text>
</a>
</g>
</g>
<!-- Node11&#45;&gt;Node15 -->
<g id="edge17" class="edge">
<title>Node11&#45;&gt;Node15</title>
<path fill="none" stroke="midnightblue" d="M608.79,-184.98C638.59,-174.72 688.79,-157.46 722.4,-145.9"/>
<polygon fill="midnightblue" stroke="midnightblue" points="723.94,-149.07 732.26,-142.51 721.66,-142.45 723.94,-149.07"/>
</g>
<!-- Node18 -->
<g id="node18" class="node">
<title>Node18</title>
<g id="a_node18"><a xlink:href="MarmotTypedefs_8h.html" target="_top" xlink:title=" ">
<polygon fill="white" stroke="black" points="577.5,-67.5 577.5,-86.5 710.5,-86.5 710.5,-67.5 577.5,-67.5"/>
<text text-anchor="middle" x="644" y="-74.5" font-family="Helvetica,sans-Serif" font-size="10.00">Marmot/MarmotTypedefs.h</text>
</a>
</g>
</g>
<!-- Node11&#45;&gt;Node18 -->
<g id="edge26" class="edge">
<title>Node11&#45;&gt;Node18</title>
<path fill="none" stroke="midnightblue" d="M588.51,-184.82C598.28,-166.01 621.59,-121.15 634.67,-95.96"/>
<polygon fill="midnightblue" stroke="midnightblue" points="637.93,-97.27 639.44,-86.78 631.72,-94.04 637.93,-97.27"/>
</g>
<!-- Node12&#45;&gt;Node7 -->
<g id="edge16" class="edge">
<title>Node12&#45;&gt;Node7</title>
<path fill="none" stroke="midnightblue" d="M512.13,-123.44C488.95,-114.37 452.17,-99.98 426.22,-89.83"/>
<polygon fill="midnightblue" stroke="midnightblue" points="427.45,-86.55 416.86,-86.16 424.9,-93.07 427.45,-86.55"/>
</g>
<!-- Node12&#45;&gt;Node13 -->
<g id="edge14" class="edge">
<title>Node12&#45;&gt;Node13</title>
<path fill="none" stroke="midnightblue" d="M522.43,-123.32C511.58,-115.18 495.12,-102.84 482.12,-93.09"/>
<polygon fill="midnightblue" stroke="midnightblue" points="483.88,-90.03 473.78,-86.83 479.68,-95.63 483.88,-90.03"/>
</g>
<!-- Node14 -->
<g id="node14" class="node">
<title>Node14</title>
<g id="a_node14"><a xlink:title=" ">
<polygon fill="white" stroke="#bfbfbf" points="507,-67.5 507,-86.5 559,-86.5 559,-67.5 507,-67.5"/>
<text text-anchor="middle" x="533" y="-74.5" font-family="Helvetica,sans-Serif" font-size="10.00">sstream</text>
</a>
</g>
</g>
<!-- Node12&#45;&gt;Node14 -->
<g id="edge15" class="edge">
<title>Node12&#45;&gt;Node14</title>
<path fill="none" stroke="midnightblue" d="M533.83,-123.08C533.7,-116.01 533.52,-105.86 533.35,-96.99"/>
<polygon fill="midnightblue" stroke="midnightblue" points="536.85,-96.68 533.16,-86.75 529.85,-96.81 536.85,-96.68"/>
</g>
<!-- Node16 -->
<g id="node16" class="node">
<title>Node16</title>
<g id="a_node16"><a xlink:href="MarmotConstants_8h.html" target="_top" xlink:title=" ">
<polygon fill="white" stroke="black" points="874.5,-67.5 874.5,-86.5 1011.5,-86.5 1011.5,-67.5 874.5,-67.5"/>
<text text-anchor="middle" x="943" y="-74.5" font-family="Helvetica,sans-Serif" font-size="10.00">Marmot/MarmotConstants.h</text>
</a>
</g>
</g>
<!-- Node15&#45;&gt;Node16 -->
<g id="edge18" class="edge">
<title>Node15&#45;&gt;Node16</title>
<path fill="none" stroke="midnightblue" d="M786.47,-123.44C818.17,-114.24 868.73,-99.56 903.77,-89.39"/>
<polygon fill="midnightblue" stroke="midnightblue" points="905.04,-92.67 913.67,-86.52 903.09,-85.94 905.04,-92.67"/>
</g>
<!-- Node15&#45;&gt;Node18 -->
<g id="edge20" class="edge">
<title>Node15&#45;&gt;Node18</title>
<path fill="none" stroke="midnightblue" d="M739.09,-123.44C720.75,-114.68 691.99,-100.94 670.91,-90.86"/>
<polygon fill="midnightblue" stroke="midnightblue" points="672.35,-87.67 661.82,-86.52 669.33,-93.99 672.35,-87.67"/>
</g>
<!-- Node22 -->
<g id="node22" class="node">
<title>Node22</title>
<g id="a_node22"><a xlink:title=" ">
<polygon fill="white" stroke="#bfbfbf" points="729,-67.5 729,-86.5 785,-86.5 785,-67.5 729,-67.5"/>
<text text-anchor="middle" x="757" y="-74.5" font-family="Helvetica,sans-Serif" font-size="10.00">algorithm</text>
</a>
</g>
</g>
<!-- Node15&#45;&gt;Node22 -->
<g id="edge24" class="edge">
<title>Node15&#45;&gt;Node22</title>
<path fill="none" stroke="midnightblue" d="M757,-123.08C757,-116.01 757,-105.86 757,-96.99"/>
<polygon fill="midnightblue" stroke="midnightblue" points="760.5,-96.75 757,-86.75 753.5,-96.75 760.5,-96.75"/>
</g>
<!-- Node23 -->
<g id="node23" class="node">
<title>Node23</title>
<g id="a_node23"><a xlink:title=" ">
<polygon fill="white" stroke="#bfbfbf" points="803.5,-67.5 803.5,-86.5 856.5,-86.5 856.5,-67.5 803.5,-67.5"/>
<text text-anchor="middle" x="830" y="-74.5" font-family="Helvetica,sans-Serif" font-size="10.00">complex</text>
</a>
</g>
</g>
<!-- Node15&#45;&gt;Node23 -->
<g id="edge25" class="edge">
<title>Node15&#45;&gt;Node23</title>
<path fill="none" stroke="midnightblue" d="M768.73,-123.32C779.84,-115.11 796.74,-102.6 809.98,-92.81"/>
<polygon fill="midnightblue" stroke="midnightblue" points="812.1,-95.59 818.06,-86.83 807.94,-89.97 812.1,-95.59"/>
</g>
<!-- Node17 -->
<g id="node17" class="node">
<title>Node17</title>
<g id="a_node17"><a xlink:title=" ">
<polygon fill="white" stroke="#bfbfbf" points="921,-6 921,-25 965,-25 965,-6 921,-6"/>
<text text-anchor="middle" x="943" y="-13" font-family="Helvetica,sans-Serif" font-size="10.00">cmath</text>
</a>
</g>
</g>
<!-- Node16&#45;&gt;Node17 -->
<g id="edge19" class="edge">
<title>Node16&#45;&gt;Node17</title>
<path fill="none" stroke="midnightblue" d="M943,-67.48C943,-59.08 943,-45.98 943,-35.16"/>
<polygon fill="midnightblue" stroke="midnightblue" points="946.5,-35.01 943,-25.01 939.5,-35.01 946.5,-35.01"/>
</g>
<!-- Node19 -->
<g id="node19" class="node">
<title>Node19</title>
<g id="a_node19"><a xlink:title=" ">
<polygon fill="white" stroke="#bfbfbf" points="526,-6 526,-25 590,-25 590,-6 526,-6"/>
<text text-anchor="middle" x="558" y="-13" font-family="Helvetica,sans-Serif" font-size="10.00">Eigen/Core</text>
</a>
</g>
</g>
<!-- Node18&#45;&gt;Node19 -->
<g id="edge21" class="edge">
<title>Node18&#45;&gt;Node19</title>
<path fill="none" stroke="midnightblue" d="M631.68,-67.48C617.88,-57.93 595.3,-42.31 578.77,-30.87"/>
<polygon fill="midnightblue" stroke="midnightblue" points="580.51,-27.82 570.3,-25.01 576.53,-33.58 580.51,-27.82"/>
</g>
<!-- Node20 -->
<g id="node20" class="node">
<title>Node20</title>
<g id="a_node20"><a xlink:title=" ">
<polygon fill="white" stroke="#bfbfbf" points="608.5,-6 608.5,-25 679.5,-25 679.5,-6 608.5,-6"/>
<text text-anchor="middle" x="644" y="-13" font-family="Helvetica,sans-Serif" font-size="10.00">Eigen/Dense</text>
</a>
</g>
</g>
<!-- Node18&#45;&gt;Node20 -->
<g id="edge22" class="edge">
<title>Node18&#45;&gt;Node20</title>
<path fill="none" stroke="midnightblue" d="M644,-67.48C644,-59.08 644,-45.98 644,-35.16"/>
<polygon fill="midnightblue" stroke="midnightblue" points="647.5,-35.01 644,-25.01 640.5,-35.01 647.5,-35.01"/>
</g>
<!-- Node21 -->
<g id="node21" class="node">
<title>Node21</title>
<g id="a_node21"><a xlink:title=" ">
<polygon fill="white" stroke="#bfbfbf" points="697.5,-0.5 697.5,-30.5 828.5,-30.5 828.5,-0.5 697.5,-0.5"/>
<text text-anchor="start" x="705.5" y="-18.5" font-family="Helvetica,sans-Serif" font-size="10.00">unsupported/Eigen/CXX11</text>
<text text-anchor="middle" x="763" y="-7.5" font-family="Helvetica,sans-Serif" font-size="10.00">/Tensor</text>
</a>
</g>
</g>
<!-- Node18&#45;&gt;Node21 -->
<g id="edge23" class="edge">
<title>Node18&#45;&gt;Node21</title>
<path fill="none" stroke="midnightblue" d="M661.05,-67.48C677.92,-59.04 704.29,-45.86 725.98,-35.01"/>
<polygon fill="midnightblue" stroke="midnightblue" points="727.58,-38.13 734.95,-30.52 724.44,-31.86 727.58,-38.13"/>
</g>
</g>
</svg>
        <g id="navigator" transform="translate(0 0)" fill="#404254">
                <rect fill="#f2f5e9" fill-opacity="0.5" stroke="#606060" stroke-width=".5" x="0" y="0" width="60" height="60"/>
                <use id="zoomplus" xlink:href="#zoomPlus" x="17" y="9" onmousedown="handleZoom(evt,'in')"/>
                <use id="zoomminus" xlink:href="#zoomMin" x="42" y="9" onmousedown="handleZoom(evt,'out')"/>
                <use id="reset" xlink:href="#resetDef" x="30" y="36" onmousedown="handleReset()"/>
                <g id="arrowUp" xlink:href="#dirArrow" transform="translate(30 24)" onmousedown="handlePan(0,-1)">
                  <use xlink:href="#rim" fill="#404040">
                        <set attributeName="fill" to="#808080" begin="arrowUp.mouseover" end="arrowUp.mouseout"/>
                  </use>
                  <path fill="none" stroke="white" stroke-width="1.5" d="M0,-3.0v7 M-2.5,-0.5L0,-3.0L2.5,-0.5"/>
                </g>
                <g id="arrowRight" xlink:href="#dirArrow" transform="rotate(90) translate(36 -43)" onmousedown="handlePan(1,0)">
                  <use xlink:href="#rim" fill="#404040">
                        <set attributeName="fill" to="#808080" begin="arrowRight.mouseover" end="arrowRight.mouseout"/>
                  </use>
                  <path fill="none" stroke="white" stroke-width="1.5" d="M0,-3.0v7 M-2.5,-0.5L0,-3.0L2.5,-0.5"/>
                </g>
                <g id="arrowDown" xlink:href="#dirArrow" transform="rotate(180) translate(-30 -48)" onmousedown="handlePan(0,1)">
                  <use xlink:href="#rim" fill="#404040">
                        <set attributeName="fill" to="#808080" begin="arrowDown.mouseover" end="arrowDown.mouseout"/>
                  </use>
                  <path fill="none" stroke="white" stroke-width="1.5" d="M0,-3.0v7 M-2.5,-0.5L0,-3.0L2.5,-0.5"/>
                </g>
                <g id="arrowLeft" xlink:href="#dirArrow" transform="rotate(270) translate(-36 17)" onmousedown="handlePan(-1,0)">
                  <use xlink:href="#rim" fill="#404040">
                        <set attributeName="fill" to="#808080" begin="arrowLeft.mouseover" end="arrowLeft.mouseout"/>
                  </use>
                  <path fill="none" stroke="white" stroke-width="1.5" d="M0,-3.0v7 M-2.5,-0.5L0,-3.0L2.5,-0.5"/>
                </g>
        </g>
        <svg viewBox="0 0 15 15" width="100%" height="30px" preserveAspectRatio="xMaxYMin meet">
         <g id="arrow_out" transform="scale(0.3 0.3)">
          <a xlink:href="MarmotFiniteElementSpatialWrapper_8cpp__incl_org.svg" target="_base">
           <rect id="button" ry="5" rx="5" y="6" x="6" height="38" width="38"
                fill="#f2f5e9" fill-opacity="0.5" stroke="#606060" stroke-width="1.0"/>
           <path id="arrow"
             d="M 11.500037,31.436501 C 11.940474,20.09759 22.043105,11.32322 32.158766,21.979434 L 37.068811,17.246167 C 37.068811,17.246167 37.088388,32 37.088388,32 L 22.160133,31.978069 C 22.160133,31.978069 26.997745,27.140456 26.997745,27.140456 C 18.528582,18.264221 13.291696,25.230495 11.500037,31.436501 z"
             style="fill:#404040;"/>
          </a>
         </g>
        </svg>
</svg>
