<?xml version="1.0" encoding="UTF-8" standalone="no"?>
<!DOCTYPE svg PUBLIC "-//W3C//DTD SVG 1.1//EN"
 "http://www.w3.org/Graphics/SVG/1.1/DTD/svg11.dtd">
<!-- Generated by graphviz version 3.0.0 (20220413.0106)
 -->
<!-- Title: modules/core/MarmotMechanicsCore/include/Marmot/MarmotMath.h Pages: 1 -->
<svg width="1690pt" height="117pt"
 viewBox="0.00 0.00 1690.00 117.00" xmlns="http://www.w3.org/2000/svg" xmlns:xlink="http://www.w3.org/1999/xlink">
<g id="graph0" class="graph" transform="scale(1 1) rotate(0) translate(4 113)">
<title>modules/core/MarmotMechanicsCore/include/Marmot/MarmotMath.h</title>
<polygon fill="white" stroke="transparent" points="-4,4 -4,-113 1686,-113 1686,4 -4,4"/>
<!-- Node1 -->
<g id="node1" class="node">
<title>Node1</title>
<g id="a_node1"><a xlink:title=" ">
<polygon fill="#bfbfbf" stroke="black" points="788,-78.5 788,-108.5 960,-108.5 960,-78.5 788,-78.5"/>
<text text-anchor="start" x="796" y="-96.5" font-family="Helvetica,sans-Serif" font-size="10.00">modules/core/MarmotMechanics</text>
<text text-anchor="middle" x="874" y="-85.5" font-family="Helvetica,sans-Serif" font-size="10.00">Core/include/Marmot/MarmotMath.h</text>
</a>
</g>
</g>
<!-- Node2 -->
<g id="node2" class="node">
<title>Node2</title>
<g id="a_node2"><a xlink:href="PerezFougetSubstepperMarkII_8h.html" target="_top" xlink:title=" ">
<polygon fill="white" stroke="black" points="0,-0.5 0,-41.5 164,-41.5 164,-0.5 0,-0.5"/>
<text text-anchor="start" x="8" y="-29.5" font-family="Helvetica,sans-Serif" font-size="10.00">modules/core/MarmotMechanics</text>
<text text-anchor="start" x="8" y="-18.5" font-family="Helvetica,sans-Serif" font-size="10.00">Core/include/Marmot/PerezFouget</text>
<text text-anchor="middle" x="82" y="-7.5" font-family="Helvetica,sans-Serif" font-size="10.00">SubstepperMarkII.h</text>
</a>
</g>
</g>
<!-- Node1&#45;&gt;Node2 -->
<g id="edge1" class="edge">
<title>Node1&#45;&gt;Node2</title>
<path fill="none" stroke="midnightblue" d="M777.42,-89.95C641.8,-85.37 387.48,-73.13 173,-42 170.12,-41.58 167.19,-41.12 164.24,-40.63"/>
<polygon fill="midnightblue" stroke="midnightblue" points="777.67,-93.46 787.78,-90.29 777.9,-86.46 777.67,-93.46"/>
</g>
<!-- Node3 -->
<g id="node3" class="node">
<title>Node3</title>
<g id="a_node3"><a xlink:href="HaighWestergaard_8cpp.html" target="_top" xlink:title=" ">
<polygon fill="white" stroke="black" points="182,-6 182,-36 340,-36 340,-6 182,-6"/>
<text text-anchor="start" x="190" y="-24" font-family="Helvetica,sans-Serif" font-size="10.00">modules/core/MarmotMechanics</text>
<text text-anchor="middle" x="261" y="-13" font-family="Helvetica,sans-Serif" font-size="10.00">Core/src/HaighWestergaard.cpp</text>
</a>
</g>
</g>
<!-- Node1&#45;&gt;Node3 -->
<g id="edge2" class="edge">
<title>Node1&#45;&gt;Node3</title>
<path fill="none" stroke="midnightblue" d="M777.63,-86.93C671.96,-79.96 497.66,-65.94 349,-42 338.95,-40.38 328.32,-38.29 318.07,-36.08"/>
<polygon fill="midnightblue" stroke="midnightblue" points="777.43,-90.42 787.63,-87.58 777.88,-83.44 777.43,-90.42"/>
</g>
<!-- Node4 -->
<g id="node4" class="node">
<title>Node4</title>
<g id="a_node4"><a xlink:href="MarmotMaterialHyperElastic_8cpp.html" target="_top" xlink:title=" ">
<polygon fill="white" stroke="black" points="358.5,-6 358.5,-36 555.5,-36 555.5,-6 358.5,-6"/>
<text text-anchor="start" x="366.5" y="-24" font-family="Helvetica,sans-Serif" font-size="10.00">modules/core/MarmotMechanics</text>
<text text-anchor="middle" x="457" y="-13" font-family="Helvetica,sans-Serif" font-size="10.00">Core/src/MarmotMaterialHyperElastic.cpp</text>
</a>
</g>
</g>
<!-- Node1&#45;&gt;Node4 -->
<g id="edge3" class="edge">
<title>Node1&#45;&gt;Node4</title>
<path fill="none" stroke="midnightblue" d="M777.67,-77.29C716.67,-67.53 636.14,-54.4 565,-42 554.2,-40.12 542.8,-38.07 531.62,-36.03"/>
<polygon fill="midnightblue" stroke="midnightblue" points="777.25,-80.77 787.67,-78.89 778.35,-73.86 777.25,-80.77"/>
</g>
<!-- Node5 -->
<g id="node5" class="node">
<title>Node5</title>
<g id="a_node5"><a xlink:href="MarmotMaterialHypoElastic_8cpp.html" target="_top" xlink:title=" ">
<polygon fill="white" stroke="black" points="574,-6 574,-36 768,-36 768,-6 574,-6"/>
<text text-anchor="start" x="582" y="-24" font-family="Helvetica,sans-Serif" font-size="10.00">modules/core/MarmotMechanics</text>
<text text-anchor="middle" x="671" y="-13" font-family="Helvetica,sans-Serif" font-size="10.00">Core/src/MarmotMaterialHypoElastic.cpp</text>
</a>
</g>
</g>
<!-- Node1&#45;&gt;Node5 -->
<g id="edge4" class="edge">
<title>Node1&#45;&gt;Node5</title>
<path fill="none" stroke="midnightblue" d="M823.95,-75.12C789.34,-63.1 743.87,-47.31 711.52,-36.07"/>
<polygon fill="midnightblue" stroke="midnightblue" points="822.81,-78.43 833.41,-78.4 825.11,-71.82 822.81,-78.43"/>
</g>
<!-- Node6 -->
<g id="node6" class="node">
<title>Node6</title>
<g id="a_node6"><a xlink:href="MarmotMaterialHypoElasticNonLocal_8cpp.html" target="_top" xlink:title=" ">
<polygon fill="white" stroke="black" points="786,-0.5 786,-41.5 962,-41.5 962,-0.5 786,-0.5"/>
<text text-anchor="start" x="794" y="-29.5" font-family="Helvetica,sans-Serif" font-size="10.00">modules/core/MarmotMechanics</text>
<text text-anchor="start" x="794" y="-18.5" font-family="Helvetica,sans-Serif" font-size="10.00">Core/src/MarmotMaterialHypoElastic</text>
<text text-anchor="middle" x="874" y="-7.5" font-family="Helvetica,sans-Serif" font-size="10.00">NonLocal.cpp</text>
</a>
</g>
</g>
<!-- Node1&#45;&gt;Node6 -->
<g id="edge5" class="edge">
<title>Node1&#45;&gt;Node6</title>
<path fill="none" stroke="midnightblue" d="M874,-67.98C874,-59.35 874,-49.76 874,-41.59"/>
<polygon fill="midnightblue" stroke="midnightblue" points="870.5,-68.23 874,-78.23 877.5,-68.23 870.5,-68.23"/>
</g>
<!-- Node7 -->
<g id="node7" class="node">
<title>Node7</title>
<g id="a_node7"><a xlink:href="MarmotMaterialMechanical_8cpp.html" target="_top" xlink:title=" ">
<polygon fill="white" stroke="black" points="980.5,-6 980.5,-36 1171.5,-36 1171.5,-6 980.5,-6"/>
<text text-anchor="start" x="988.5" y="-24" font-family="Helvetica,sans-Serif" font-size="10.00">modules/core/MarmotMechanics</text>
<text text-anchor="middle" x="1076" y="-13" font-family="Helvetica,sans-Serif" font-size="10.00">Core/src/MarmotMaterialMechanical.cpp</text>
</a>
</g>
</g>
<!-- Node1&#45;&gt;Node7 -->
<g id="edge6" class="edge">
<title>Node1&#45;&gt;Node7</title>
<path fill="none" stroke="midnightblue" d="M924.24,-74.96C958.63,-62.96 1003.63,-47.26 1035.68,-36.07"/>
<polygon fill="midnightblue" stroke="midnightblue" points="922.68,-71.8 914.39,-78.4 924.99,-78.41 922.68,-71.8"/>
</g>
<!-- Node8 -->
<g id="node8" class="node">
<title>Node8</title>
<g id="a_node8"><a xlink:href="MarmotMath_8cpp.html" target="_top" xlink:title=" ">
<polygon fill="white" stroke="black" points="1190,-6 1190,-36 1348,-36 1348,-6 1190,-6"/>
<text text-anchor="start" x="1198" y="-24" font-family="Helvetica,sans-Serif" font-size="10.00">modules/core/MarmotMechanics</text>
<text text-anchor="middle" x="1269" y="-13" font-family="Helvetica,sans-Serif" font-size="10.00">Core/src/MarmotMath.cpp</text>
</a>
</g>
</g>
<!-- Node1&#45;&gt;Node8 -->
<g id="edge7" class="edge">
<title>Node1&#45;&gt;Node8</title>
<path fill="none" stroke="midnightblue" d="M970.21,-78.2C1030.85,-68.81 1110.7,-55.76 1181,-42 1190.23,-40.19 1199.96,-38.14 1209.46,-36.04"/>
<polygon fill="midnightblue" stroke="midnightblue" points="969.61,-74.75 960.26,-79.74 970.68,-81.67 969.61,-74.75"/>
</g>
<!-- Node9 -->
<g id="node9" class="node">
<title>Node9</title>
<g id="a_node9"><a xlink:href="MarmotVoigt_8cpp.html" target="_top" xlink:title=" ">
<polygon fill="white" stroke="black" points="1366,-6 1366,-36 1524,-36 1524,-6 1366,-6"/>
<text text-anchor="start" x="1374" y="-24" font-family="Helvetica,sans-Serif" font-size="10.00">modules/core/MarmotMechanics</text>
<text text-anchor="middle" x="1445" y="-13" font-family="Helvetica,sans-Serif" font-size="10.00">Core/src/MarmotVoigt.cpp</text>
</a>
</g>
</g>
<!-- Node1&#45;&gt;Node9 -->
<g id="edge8" class="edge">
<title>Node1&#45;&gt;Node9</title>
<path fill="none" stroke="midnightblue" d="M970.52,-85.82C1068.34,-78.24 1223.84,-64.01 1357,-42 1367.05,-40.34 1377.67,-38.23 1387.92,-36.01"/>
<polygon fill="midnightblue" stroke="midnightblue" points="970.06,-82.34 960.36,-86.59 970.59,-89.32 970.06,-82.34"/>
</g>
<!-- Node10 -->
<g id="node10" class="node">
<title>Node10</title>
<g id="a_node10"><a xlink:href="LinearElastic_8cpp.html" target="_top" xlink:title=" ">
<polygon fill="white" stroke="black" points="1542,-6 1542,-36 1682,-36 1682,-6 1542,-6"/>
<text text-anchor="start" x="1550" y="-24" font-family="Helvetica,sans-Serif" font-size="10.00">modules/materials/Linear</text>
<text text-anchor="middle" x="1612" y="-13" font-family="Helvetica,sans-Serif" font-size="10.00">Elastic/src/LinearElastic.cpp</text>
</a>
</g>
</g>
<!-- Node1&#45;&gt;Node10 -->
<g id="edge9" class="edge">
<title>Node1&#45;&gt;Node10</title>
<path fill="none" stroke="midnightblue" d="M970.36,-90.28C1099.29,-86.14 1334.68,-74.46 1533,-42 1542.49,-40.45 1552.52,-38.31 1562.12,-36"/>
<polygon fill="midnightblue" stroke="midnightblue" points="970.01,-86.79 960.13,-90.6 970.23,-93.79 970.01,-86.79"/>
</g>
</g>
</svg>
