<?xml version="1.0" encoding="UTF-8" standalone="no"?>
<!DOCTYPE svg PUBLIC "-//W3C//DTD SVG 1.1//EN"
 "http://www.w3.org/Graphics/SVG/1.1/DTD/svg11.dtd">
<!-- Generated by graphviz version 2.44.0 ()
 -->
<!-- Title: modules/core/MarmotMechanicsCore/src/MarmotMaterialHyperElastic.cpp Pages: 1 -->
<!--zoomable 341 -->
<svg id="main" version="1.1" xmlns="http://www.w3.org/2000/svg" xmlns:xlink="http://www.w3.org/1999/xlink" xml:space="preserve" onload="init(evt)">
<style type="text/css"><![CDATA[
.edge:hover path { stroke: red; }
.edge:hover polygon { stroke: red; fill: red; }
]]></style>
<script type="text/javascript"><![CDATA[
var edges = document.getElementsByTagName('g');
if (edges && edges.length) {
  for (var i=0;i<edges.length;i++) {
    if (edges[i].id.substr(0,4)=='edge') {
      edges[i].setAttribute('class','edge');
    }
  }
}
]]></script>
        <defs>
                <circle id="rim" cx="0" cy="0" r="7"/>
                <circle id="rim2" cx="0" cy="0" r="3.5"/>
                <g id="zoomPlus">
                        <use xlink:href="#rim" fill="#404040">
                                <set attributeName="fill" to="#808080" begin="zoomplus.mouseover" end="zoomplus.mouseout"/>
                        </use>
                        <path d="M-4,0h8M0,-4v8" fill="none" stroke="white" stroke-width="1.5" pointer-events="none"/>
                </g>
                <g id="zoomMin">
                        <use xlink:href="#rim" fill="#404040">
                                <set attributeName="fill" to="#808080" begin="zoomminus.mouseover" end="zoomminus.mouseout"/>
                        </use>
                        <path d="M-4,0h8" fill="none" stroke="white" stroke-width="1.5" pointer-events="none"/>
                </g>
                <g id="dirArrow">
                        <path fill="none" stroke="white" stroke-width="1.5" d="M0,-3.0v7 M-2.5,-0.5L0,-3.0L2.5,-0.5"/>
                </g>
               <g id="resetDef">
                       <use xlink:href="#rim2" fill="#404040">
                               <set attributeName="fill" to="#808080" begin="reset.mouseover" end="reset.mouseout"/>
                       </use>
               </g>
        </defs>

<script type="text/javascript">
var viewWidth = 1110;
var viewHeight = 341;
var sectionId = 'dynsection-0';
</script>
<script xlink:href="svgpan.js"/>
<svg id="graph" class="graph">
<g id="viewport">
<title>modules/core/MarmotMechanicsCore/src/MarmotMaterialHyperElastic.cpp</title>
<polygon fill="white" stroke="transparent" points="-4,4 -4,-337 1106,-337 1106,4 -4,4"/>
<!-- Node1 -->
<g id="node1" class="node">
<title>Node1</title>
<g id="a_node1"><a xlink:title=" ">
<polygon fill="#bfbfbf" stroke="black" points="554,-302.5 554,-332.5 751,-332.5 751,-302.5 554,-302.5"/>
<text text-anchor="start" x="562" y="-320.5" font-family="Helvetica,sans-Serif" font-size="10.00">modules/core/MarmotMechanics</text>
<text text-anchor="middle" x="652.5" y="-309.5" font-family="Helvetica,sans-Serif" font-size="10.00">Core/src/MarmotMaterialHyperElastic.cpp</text>
</a>
</g>
</g>
<!-- Node2 -->
<g id="node2" class="node">
<title>Node2</title>
<g id="a_node2"><a xlink:href="MarmotConstants_8h.html" target="_top" xlink:title=" ">
<polygon fill="white" stroke="black" points="0,-67.5 0,-86.5 137,-86.5 137,-67.5 0,-67.5"/>
<text text-anchor="middle" x="68.5" y="-74.5" font-family="Helvetica,sans-Serif" font-size="10.00">Marmot/MarmotConstants.h</text>
</a>
</g>
</g>
<!-- Node1&#45;&gt;Node2 -->
<g id="edge1" class="edge">
<title>Node1&#45;&gt;Node2</title>
<path fill="none" stroke="midnightblue" d="M580.81,-302.47C541.69,-293.85 492.76,-281.48 450.5,-266 308.82,-214.1 150.2,-125.43 91.74,-91.63"/>
<polygon fill="midnightblue" stroke="midnightblue" points="93.33,-88.51 82.93,-86.51 89.82,-94.56 93.33,-88.51"/>
</g>
<!-- Node4 -->
<g id="node4" class="node">
<title>Node4</title>
<g id="a_node4"><a xlink:href="MarmotJournal_8h.html" target="_top" xlink:title=" ">
<polygon fill="white" stroke="black" points="699,-123.5 699,-142.5 824,-142.5 824,-123.5 699,-123.5"/>
<text text-anchor="middle" x="761.5" y="-130.5" font-family="Helvetica,sans-Serif" font-size="10.00">Marmot/MarmotJournal.h</text>
</a>
</g>
</g>
<!-- Node1&#45;&gt;Node4 -->
<g id="edge3" class="edge">
<title>Node1&#45;&gt;Node4</title>
<path fill="none" stroke="midnightblue" d="M746.69,-302.36C767.12,-294.84 786.49,-283.39 799.5,-266 822.68,-235.02 816.47,-215.08 802.5,-179 798.05,-167.5 789.13,-157.13 780.75,-149.25"/>
<polygon fill="midnightblue" stroke="midnightblue" points="782.87,-146.46 773.04,-142.51 778.26,-151.73 782.87,-146.46"/>
</g>
<!-- Node5 -->
<g id="node5" class="node">
<title>Node5</title>
<g id="a_node5"><a xlink:title=" ">
<polygon fill="white" stroke="#bfbfbf" points="829.5,-67.5 829.5,-86.5 883.5,-86.5 883.5,-67.5 829.5,-67.5"/>
<text text-anchor="middle" x="856.5" y="-74.5" font-family="Helvetica,sans-Serif" font-size="10.00">iostream</text>
</a>
</g>
</g>
<!-- Node1&#45;&gt;Node5 -->
<g id="edge36" class="edge">
<title>Node1&#45;&gt;Node5</title>
<path fill="none" stroke="midnightblue" d="M751.35,-304.39C776.73,-296.94 802.05,-285.01 820.5,-266 865.81,-219.32 862.87,-134.11 858.98,-96.58"/>
<polygon fill="midnightblue" stroke="midnightblue" points="862.45,-96.08 857.8,-86.56 855.5,-96.9 862.45,-96.08"/>
</g>
<!-- Node8 -->
<g id="node8" class="node">
<title>Node8</title>
<g id="a_node8"><a xlink:href="MarmotKinematics_8h.html" target="_top" xlink:title=" ">
<polygon fill="white" stroke="black" points="506.5,-241 506.5,-260 648.5,-260 648.5,-241 506.5,-241"/>
<text text-anchor="middle" x="577.5" y="-248" font-family="Helvetica,sans-Serif" font-size="10.00">Marmot/MarmotKinematics.h</text>
</a>
</g>
</g>
<!-- Node1&#45;&gt;Node8 -->
<g id="edge7" class="edge">
<title>Node1&#45;&gt;Node8</title>
<path fill="none" stroke="midnightblue" d="M636.23,-302.4C624.18,-291.96 607.79,-277.75 595.38,-267"/>
<polygon fill="midnightblue" stroke="midnightblue" points="597.38,-264.1 587.53,-260.19 592.8,-269.39 597.38,-264.1"/>
</g>
<!-- Node13 -->
<g id="node13" class="node">
<title>Node13</title>
<g id="a_node13"><a xlink:href="MarmotVoigt_8h.html" target="_top" xlink:title=" ">
<polygon fill="white" stroke="black" points="505.5,-179.5 505.5,-198.5 621.5,-198.5 621.5,-179.5 505.5,-179.5"/>
<text text-anchor="middle" x="563.5" y="-186.5" font-family="Helvetica,sans-Serif" font-size="10.00">Marmot/MarmotVoigt.h</text>
</a>
</g>
</g>
<!-- Node1&#45;&gt;Node13 -->
<g id="edge35" class="edge">
<title>Node1&#45;&gt;Node13</title>
<path fill="none" stroke="midnightblue" d="M553.92,-304.25C531.94,-296.71 511.13,-284.78 497.5,-266 489.41,-254.85 491.06,-247.18 497.5,-235 504.92,-220.95 518.92,-210.47 532.12,-203.17"/>
<polygon fill="midnightblue" stroke="midnightblue" points="533.72,-206.28 541.04,-198.62 530.54,-200.04 533.72,-206.28"/>
</g>
<!-- Node14 -->
<g id="node14" class="node">
<title>Node14</title>
<g id="a_node14"><a xlink:href="MarmotMath_8h.html" target="_top" xlink:title=" ">
<polygon fill="white" stroke="black" points="334,-123.5 334,-142.5 449,-142.5 449,-123.5 334,-123.5"/>
<text text-anchor="middle" x="391.5" y="-130.5" font-family="Helvetica,sans-Serif" font-size="10.00">Marmot/MarmotMath.h</text>
</a>
</g>
</g>
<!-- Node1&#45;&gt;Node14 -->
<g id="edge28" class="edge">
<title>Node1&#45;&gt;Node14</title>
<path fill="none" stroke="midnightblue" d="M570.53,-302.47C542.4,-294.9 511.89,-283.39 487.5,-266 444.76,-235.52 413.61,-180.03 399.65,-151.69"/>
<polygon fill="midnightblue" stroke="midnightblue" points="402.77,-150.09 395.3,-142.57 396.45,-153.1 402.77,-150.09"/>
</g>
<!-- Node19 -->
<g id="node19" class="node">
<title>Node19</title>
<g id="a_node19"><a xlink:href="MarmotMaterialHyperElastic_8h.html" target="_top" xlink:title=" ">
<polygon fill="white" stroke="black" points="932.5,-235.5 932.5,-265.5 1078.5,-265.5 1078.5,-235.5 932.5,-235.5"/>
<text text-anchor="start" x="940.5" y="-253.5" font-family="Helvetica,sans-Serif" font-size="10.00">Marmot/MarmotMaterialHyper</text>
<text text-anchor="middle" x="1005.5" y="-242.5" font-family="Helvetica,sans-Serif" font-size="10.00">Elastic.h</text>
</a>
</g>
</g>
<!-- Node1&#45;&gt;Node19 -->
<g id="edge23" class="edge">
<title>Node1&#45;&gt;Node19</title>
<path fill="none" stroke="midnightblue" d="M728.66,-302.48C785.76,-291.96 863.83,-277.59 922.51,-266.78"/>
<polygon fill="midnightblue" stroke="midnightblue" points="923.29,-270.2 932.49,-264.94 922.03,-263.31 923.29,-270.2"/>
</g>
<!-- Node23 -->
<g id="node23" class="node">
<title>Node23</title>
<g id="a_node23"><a xlink:href="MarmotTensor_8h.html" target="_top" xlink:title=" ">
<polygon fill="white" stroke="black" points="667,-241 667,-260 790,-260 790,-241 667,-241"/>
<text text-anchor="middle" x="728.5" y="-248" font-family="Helvetica,sans-Serif" font-size="10.00">Marmot/MarmotTensor.h</text>
</a>
</g>
</g>
<!-- Node1&#45;&gt;Node23 -->
<g id="edge29" class="edge">
<title>Node1&#45;&gt;Node23</title>
<path fill="none" stroke="midnightblue" d="M668.99,-302.4C681.19,-291.96 697.81,-277.75 710.38,-267"/>
<polygon fill="midnightblue" stroke="midnightblue" points="713.01,-269.35 718.33,-260.19 708.46,-264.03 713.01,-269.35"/>
</g>
<!-- Node3 -->
<g id="node3" class="node">
<title>Node3</title>
<g id="a_node3"><a xlink:title=" ">
<polygon fill="white" stroke="#bfbfbf" points="46.5,-6 46.5,-25 90.5,-25 90.5,-6 46.5,-6"/>
<text text-anchor="middle" x="68.5" y="-13" font-family="Helvetica,sans-Serif" font-size="10.00">cmath</text>
</a>
</g>
</g>
<!-- Node2&#45;&gt;Node3 -->
<g id="edge2" class="edge">
<title>Node2&#45;&gt;Node3</title>
<path fill="none" stroke="midnightblue" d="M68.5,-67.48C68.5,-59.08 68.5,-45.98 68.5,-35.16"/>
<polygon fill="midnightblue" stroke="midnightblue" points="72,-35.01 68.5,-25.01 65,-35.01 72,-35.01"/>
</g>
<!-- Node4&#45;&gt;Node5 -->
<g id="edge4" class="edge">
<title>Node4&#45;&gt;Node5</title>
<path fill="none" stroke="midnightblue" d="M776.76,-123.32C791.72,-114.82 814.75,-101.73 832.23,-91.8"/>
<polygon fill="midnightblue" stroke="midnightblue" points="834.31,-94.64 841.27,-86.65 830.85,-88.55 834.31,-94.64"/>
</g>
<!-- Node6 -->
<g id="node6" class="node">
<title>Node6</title>
<g id="a_node6"><a xlink:title=" ">
<polygon fill="white" stroke="#bfbfbf" points="735.5,-67.5 735.5,-86.5 787.5,-86.5 787.5,-67.5 735.5,-67.5"/>
<text text-anchor="middle" x="761.5" y="-74.5" font-family="Helvetica,sans-Serif" font-size="10.00">sstream</text>
</a>
</g>
</g>
<!-- Node4&#45;&gt;Node6 -->
<g id="edge5" class="edge">
<title>Node4&#45;&gt;Node6</title>
<path fill="none" stroke="midnightblue" d="M761.5,-123.08C761.5,-116.01 761.5,-105.86 761.5,-96.99"/>
<polygon fill="midnightblue" stroke="midnightblue" points="765,-96.75 761.5,-86.75 758,-96.75 765,-96.75"/>
</g>
<!-- Node7 -->
<g id="node7" class="node">
<title>Node7</title>
<g id="a_node7"><a xlink:title=" ">
<polygon fill="white" stroke="#bfbfbf" points="902,-67.5 902,-86.5 943,-86.5 943,-67.5 902,-67.5"/>
<text text-anchor="middle" x="922.5" y="-74.5" font-family="Helvetica,sans-Serif" font-size="10.00">string</text>
</a>
</g>
</g>
<!-- Node4&#45;&gt;Node7 -->
<g id="edge6" class="edge">
<title>Node4&#45;&gt;Node7</title>
<path fill="none" stroke="midnightblue" d="M787.01,-123.44C815.53,-113.88 861.69,-98.4 892.07,-88.21"/>
<polygon fill="midnightblue" stroke="midnightblue" points="893.35,-91.47 901.72,-84.97 891.12,-84.83 893.35,-91.47"/>
</g>
<!-- Node8&#45;&gt;Node4 -->
<g id="edge8" class="edge">
<title>Node8&#45;&gt;Node4</title>
<path fill="none" stroke="midnightblue" d="M591.33,-240.82C622.9,-221 700.5,-172.29 739.04,-148.1"/>
<polygon fill="midnightblue" stroke="midnightblue" points="740.9,-151.06 747.51,-142.78 737.18,-145.13 740.9,-151.06"/>
</g>
<!-- Node9 -->
<g id="node9" class="node">
<title>Node9</title>
<g id="a_node9"><a xlink:href="MarmotTypedefs_8h.html" target="_top" xlink:title=" ">
<polygon fill="white" stroke="black" points="580,-67.5 580,-86.5 713,-86.5 713,-67.5 580,-67.5"/>
<text text-anchor="middle" x="646.5" y="-74.5" font-family="Helvetica,sans-Serif" font-size="10.00">Marmot/MarmotTypedefs.h</text>
</a>
</g>
</g>
<!-- Node8&#45;&gt;Node9 -->
<g id="edge9" class="edge">
<title>Node8&#45;&gt;Node9</title>
<path fill="none" stroke="midnightblue" d="M552.45,-240.95C523.42,-229.53 481.39,-207.39 496.5,-179 520.57,-133.78 574.89,-105.18 611.12,-90.37"/>
<polygon fill="midnightblue" stroke="midnightblue" points="612.79,-93.48 620.82,-86.56 610.23,-86.96 612.79,-93.48"/>
</g>
<!-- Node8&#45;&gt;Node13 -->
<g id="edge13" class="edge">
<title>Node8&#45;&gt;Node13</title>
<path fill="none" stroke="midnightblue" d="M575.49,-240.98C573.5,-232.49 570.37,-219.2 567.81,-208.32"/>
<polygon fill="midnightblue" stroke="midnightblue" points="571.2,-207.44 565.5,-198.51 564.39,-209.04 571.2,-207.44"/>
</g>
<!-- Node10 -->
<g id="node10" class="node">
<title>Node10</title>
<g id="a_node10"><a xlink:title=" ">
<polygon fill="white" stroke="#bfbfbf" points="730.5,-6 730.5,-25 794.5,-25 794.5,-6 730.5,-6"/>
<text text-anchor="middle" x="762.5" y="-13" font-family="Helvetica,sans-Serif" font-size="10.00">Eigen/Core</text>
</a>
</g>
</g>
<!-- Node9&#45;&gt;Node10 -->
<g id="edge10" class="edge">
<title>Node9&#45;&gt;Node10</title>
<path fill="none" stroke="midnightblue" d="M663.12,-67.48C682.42,-57.58 714.46,-41.14 736.93,-29.62"/>
<polygon fill="midnightblue" stroke="midnightblue" points="738.61,-32.69 745.91,-25.01 735.42,-26.46 738.61,-32.69"/>
</g>
<!-- Node11 -->
<g id="node11" class="node">
<title>Node11</title>
<g id="a_node11"><a xlink:title=" ">
<polygon fill="white" stroke="#bfbfbf" points="492,-6 492,-25 563,-25 563,-6 492,-6"/>
<text text-anchor="middle" x="527.5" y="-13" font-family="Helvetica,sans-Serif" font-size="10.00">Eigen/Dense</text>
</a>
</g>
</g>
<!-- Node9&#45;&gt;Node11 -->
<g id="edge11" class="edge">
<title>Node9&#45;&gt;Node11</title>
<path fill="none" stroke="midnightblue" d="M629.45,-67.48C609.66,-57.58 576.78,-41.14 553.73,-29.62"/>
<polygon fill="midnightblue" stroke="midnightblue" points="555.03,-26.35 544.52,-25.01 551.9,-32.61 555.03,-26.35"/>
</g>
<!-- Node12 -->
<g id="node12" class="node">
<title>Node12</title>
<g id="a_node12"><a xlink:title=" ">
<polygon fill="white" stroke="#bfbfbf" points="581,-0.5 581,-30.5 712,-30.5 712,-0.5 581,-0.5"/>
<text text-anchor="start" x="589" y="-18.5" font-family="Helvetica,sans-Serif" font-size="10.00">unsupported/Eigen/CXX11</text>
<text text-anchor="middle" x="646.5" y="-7.5" font-family="Helvetica,sans-Serif" font-size="10.00">/Tensor</text>
</a>
</g>
</g>
<!-- Node9&#45;&gt;Node12 -->
<g id="edge12" class="edge">
<title>Node9&#45;&gt;Node12</title>
<path fill="none" stroke="midnightblue" d="M646.5,-67.48C646.5,-60.47 646.5,-50.19 646.5,-40.7"/>
<polygon fill="midnightblue" stroke="midnightblue" points="650,-40.52 646.5,-30.52 643,-40.52 650,-40.52"/>
</g>
<!-- Node13&#45;&gt;Node4 -->
<g id="edge14" class="edge">
<title>Node13&#45;&gt;Node4</title>
<path fill="none" stroke="midnightblue" d="M594.87,-179.44C628.76,-170.2 682.9,-155.44 720.22,-145.26"/>
<polygon fill="midnightblue" stroke="midnightblue" points="721.55,-148.52 730.27,-142.52 719.7,-141.77 721.55,-148.52"/>
</g>
<!-- Node13&#45;&gt;Node9 -->
<g id="edge22" class="edge">
<title>Node13&#45;&gt;Node9</title>
<path fill="none" stroke="midnightblue" d="M570.01,-179.37C583.77,-161.14 616,-118.43 633.92,-94.68"/>
<polygon fill="midnightblue" stroke="midnightblue" points="636.79,-96.68 640.02,-86.59 631.2,-92.47 636.79,-96.68"/>
</g>
<!-- Node13&#45;&gt;Node14 -->
<g id="edge15" class="edge">
<title>Node13&#45;&gt;Node14</title>
<path fill="none" stroke="midnightblue" d="M536.25,-179.44C507.06,-170.28 460.58,-155.69 428.19,-145.52"/>
<polygon fill="midnightblue" stroke="midnightblue" points="429.22,-142.17 418.63,-142.52 427.12,-148.85 429.22,-142.17"/>
</g>
<!-- Node14&#45;&gt;Node2 -->
<g id="edge16" class="edge">
<title>Node14&#45;&gt;Node2</title>
<path fill="none" stroke="midnightblue" d="M340.32,-123.44C283.03,-113.87 190.26,-98.36 129.31,-88.17"/>
<polygon fill="midnightblue" stroke="midnightblue" points="129.88,-84.71 119.44,-86.52 128.73,-91.62 129.88,-84.71"/>
</g>
<!-- Node14&#45;&gt;Node9 -->
<g id="edge17" class="edge">
<title>Node14&#45;&gt;Node9</title>
<path fill="none" stroke="midnightblue" d="M431.91,-123.44C476.48,-114 548.27,-98.8 596.39,-88.61"/>
<polygon fill="midnightblue" stroke="midnightblue" points="597.23,-92.01 606.28,-86.52 595.78,-85.16 597.23,-92.01"/>
</g>
<!-- Node15 -->
<g id="node15" class="node">
<title>Node15</title>
<g id="a_node15"><a xlink:title=" ">
<polygon fill="white" stroke="#bfbfbf" points="439.5,-67.5 439.5,-86.5 561.5,-86.5 561.5,-67.5 439.5,-67.5"/>
<text text-anchor="middle" x="500.5" y="-74.5" font-family="Helvetica,sans-Serif" font-size="10.00">autodiff/forward/dual.hpp</text>
</a>
</g>
</g>
<!-- Node14&#45;&gt;Node15 -->
<g id="edge18" class="edge">
<title>Node14&#45;&gt;Node15</title>
<path fill="none" stroke="midnightblue" d="M409.01,-123.32C426.57,-114.62 453.83,-101.12 474.03,-91.11"/>
<polygon fill="midnightblue" stroke="midnightblue" points="475.62,-94.23 483.03,-86.65 472.52,-87.96 475.62,-94.23"/>
</g>
<!-- Node16 -->
<g id="node16" class="node">
<title>Node16</title>
<g id="a_node16"><a xlink:title=" ">
<polygon fill="white" stroke="#bfbfbf" points="155.5,-67.5 155.5,-86.5 275.5,-86.5 275.5,-67.5 155.5,-67.5"/>
<text text-anchor="middle" x="215.5" y="-74.5" font-family="Helvetica,sans-Serif" font-size="10.00">autodiff/forward/real.hpp</text>
</a>
</g>
</g>
<!-- Node14&#45;&gt;Node16 -->
<g id="edge19" class="edge">
<title>Node14&#45;&gt;Node16</title>
<path fill="none" stroke="midnightblue" d="M363.61,-123.44C333.75,-114.28 286.19,-99.69 253.04,-89.52"/>
<polygon fill="midnightblue" stroke="midnightblue" points="253.84,-86.1 243.26,-86.52 251.79,-92.8 253.84,-86.1"/>
</g>
<!-- Node17 -->
<g id="node17" class="node">
<title>Node17</title>
<g id="a_node17"><a xlink:title=" ">
<polygon fill="white" stroke="#bfbfbf" points="293.5,-67.5 293.5,-86.5 349.5,-86.5 349.5,-67.5 293.5,-67.5"/>
<text text-anchor="middle" x="321.5" y="-74.5" font-family="Helvetica,sans-Serif" font-size="10.00">algorithm</text>
</a>
</g>
</g>
<!-- Node14&#45;&gt;Node17 -->
<g id="edge20" class="edge">
<title>Node14&#45;&gt;Node17</title>
<path fill="none" stroke="midnightblue" d="M380.25,-123.32C369.7,-115.18 353.7,-102.84 341.06,-93.09"/>
<polygon fill="midnightblue" stroke="midnightblue" points="343.01,-90.17 332.95,-86.83 338.73,-95.71 343.01,-90.17"/>
</g>
<!-- Node18 -->
<g id="node18" class="node">
<title>Node18</title>
<g id="a_node18"><a xlink:title=" ">
<polygon fill="white" stroke="#bfbfbf" points="368,-67.5 368,-86.5 421,-86.5 421,-67.5 368,-67.5"/>
<text text-anchor="middle" x="394.5" y="-74.5" font-family="Helvetica,sans-Serif" font-size="10.00">complex</text>
</a>
</g>
</g>
<!-- Node14&#45;&gt;Node18 -->
<g id="edge21" class="edge">
<title>Node14&#45;&gt;Node18</title>
<path fill="none" stroke="midnightblue" d="M392,-123.08C392.39,-116.01 392.95,-105.86 393.45,-96.99"/>
<polygon fill="midnightblue" stroke="midnightblue" points="396.95,-96.93 394.01,-86.75 389.96,-96.54 396.95,-96.93"/>
</g>
<!-- Node20 -->
<g id="node20" class="node">
<title>Node20</title>
<g id="a_node20"><a xlink:href="MarmotMaterialMechanical_8h.html" target="_top" xlink:title=" ">
<polygon fill="white" stroke="black" points="925,-179.5 925,-198.5 1102,-198.5 1102,-179.5 925,-179.5"/>
<text text-anchor="middle" x="1013.5" y="-186.5" font-family="Helvetica,sans-Serif" font-size="10.00">Marmot/MarmotMaterialMechanical.h</text>
</a>
</g>
</g>
<!-- Node19&#45;&gt;Node20 -->
<g id="edge24" class="edge">
<title>Node19&#45;&gt;Node20</title>
<path fill="none" stroke="midnightblue" d="M1007.4,-235.4C1008.47,-227.38 1009.84,-217.23 1011,-208.57"/>
<polygon fill="midnightblue" stroke="midnightblue" points="1014.47,-209.04 1012.34,-198.66 1007.53,-208.1 1014.47,-209.04"/>
</g>
<!-- Node21 -->
<g id="node21" class="node">
<title>Node21</title>
<g id="a_node21"><a xlink:href="MarmotMaterial_8h.html" target="_top" xlink:title=" ">
<polygon fill="white" stroke="black" points="949.5,-123.5 949.5,-142.5 1077.5,-142.5 1077.5,-123.5 949.5,-123.5"/>
<text text-anchor="middle" x="1013.5" y="-130.5" font-family="Helvetica,sans-Serif" font-size="10.00">Marmot/MarmotMaterial.h</text>
</a>
</g>
</g>
<!-- Node20&#45;&gt;Node21 -->
<g id="edge25" class="edge">
<title>Node20&#45;&gt;Node21</title>
<path fill="none" stroke="midnightblue" d="M1013.5,-179.08C1013.5,-172.01 1013.5,-161.86 1013.5,-152.99"/>
<polygon fill="midnightblue" stroke="midnightblue" points="1017,-152.75 1013.5,-142.75 1010,-152.75 1017,-152.75"/>
</g>
<!-- Node21&#45;&gt;Node7 -->
<g id="edge27" class="edge">
<title>Node21&#45;&gt;Node7</title>
<path fill="none" stroke="midnightblue" d="M998.88,-123.32C984.55,-114.82 962.49,-101.73 945.75,-91.8"/>
<polygon fill="midnightblue" stroke="midnightblue" points="947.47,-88.75 937.08,-86.65 943.9,-94.77 947.47,-88.75"/>
</g>
<!-- Node22 -->
<g id="node22" class="node">
<title>Node22</title>
<g id="a_node22"><a xlink:href="MarmotUtils_8h.html" target="_top" xlink:title=" ">
<polygon fill="white" stroke="black" points="961,-67.5 961,-86.5 1074,-86.5 1074,-67.5 961,-67.5"/>
<text text-anchor="middle" x="1017.5" y="-74.5" font-family="Helvetica,sans-Serif" font-size="10.00">Marmot/MarmotUtils.h</text>
</a>
</g>
</g>
<!-- Node21&#45;&gt;Node22 -->
<g id="edge26" class="edge">
<title>Node21&#45;&gt;Node22</title>
<path fill="none" stroke="midnightblue" d="M1014.16,-123.08C1014.68,-116.01 1015.44,-105.86 1016.09,-96.99"/>
<polygon fill="midnightblue" stroke="midnightblue" points="1019.6,-96.98 1016.85,-86.75 1012.62,-96.47 1019.6,-96.98"/>
</g>
<!-- Node23&#45;&gt;Node4 -->
<g id="edge30" class="edge">
<title>Node23&#45;&gt;Node4</title>
<path fill="none" stroke="midnightblue" d="M730.3,-240.74C733.13,-227.33 738.97,-200.96 745.5,-179 748.16,-170.05 751.58,-160.26 754.57,-152.11"/>
<polygon fill="midnightblue" stroke="midnightblue" points="757.93,-153.13 758.16,-142.54 751.37,-150.67 757.93,-153.13"/>
</g>
<!-- Node23&#45;&gt;Node5 -->
<g id="edge33" class="edge">
<title>Node23&#45;&gt;Node5</title>
<path fill="none" stroke="midnightblue" d="M745.46,-240.95C761.64,-232.15 785.95,-217.17 802.5,-199 830.03,-168.78 845.36,-122.21 852.16,-96.55"/>
<polygon fill="midnightblue" stroke="midnightblue" points="855.61,-97.2 854.63,-86.65 848.81,-95.51 855.61,-97.2"/>
</g>
<!-- Node23&#45;&gt;Node9 -->
<g id="edge31" class="edge">
<title>Node23&#45;&gt;Node9</title>
<path fill="none" stroke="midnightblue" d="M724.32,-240.76C711.49,-213.92 672.47,-132.32 655.05,-95.89"/>
<polygon fill="midnightblue" stroke="midnightblue" points="658.04,-94.03 650.57,-86.52 651.73,-97.05 658.04,-94.03"/>
</g>
<!-- Node23&#45;&gt;Node13 -->
<g id="edge32" class="edge">
<title>Node23&#45;&gt;Node13</title>
<path fill="none" stroke="midnightblue" d="M704.86,-240.98C676.56,-230.77 628.97,-213.61 596.91,-202.05"/>
<polygon fill="midnightblue" stroke="midnightblue" points="597.69,-198.61 587.1,-198.51 595.32,-205.19 597.69,-198.61"/>
</g>
<!-- Node24 -->
<g id="node24" class="node">
<title>Node24</title>
<g id="a_node24"><a xlink:title=" ">
<polygon fill="white" stroke="#bfbfbf" points="754,-179.5 754,-198.5 793,-198.5 793,-179.5 754,-179.5"/>
<text text-anchor="middle" x="773.5" y="-186.5" font-family="Helvetica,sans-Serif" font-size="10.00">utility</text>
</a>
</g>
</g>
<!-- Node23&#45;&gt;Node24 -->
<g id="edge34" class="edge">
<title>Node23&#45;&gt;Node24</title>
<path fill="none" stroke="midnightblue" d="M734.95,-240.98C741.7,-232.05 752.47,-217.81 760.91,-206.64"/>
<polygon fill="midnightblue" stroke="midnightblue" points="763.82,-208.6 767.06,-198.51 758.24,-204.37 763.82,-208.6"/>
</g>
</g>
</svg>
        <g id="navigator" transform="translate(0 0)" fill="#404254">
                <rect fill="#f2f5e9" fill-opacity="0.5" stroke="#606060" stroke-width=".5" x="0" y="0" width="60" height="60"/>
                <use id="zoomplus" xlink:href="#zoomPlus" x="17" y="9" onmousedown="handleZoom(evt,'in')"/>
                <use id="zoomminus" xlink:href="#zoomMin" x="42" y="9" onmousedown="handleZoom(evt,'out')"/>
                <use id="reset" xlink:href="#resetDef" x="30" y="36" onmousedown="handleReset()"/>
                <g id="arrowUp" xlink:href="#dirArrow" transform="translate(30 24)" onmousedown="handlePan(0,-1)">
                  <use xlink:href="#rim" fill="#404040">
                        <set attributeName="fill" to="#808080" begin="arrowUp.mouseover" end="arrowUp.mouseout"/>
                  </use>
                  <path fill="none" stroke="white" stroke-width="1.5" d="M0,-3.0v7 M-2.5,-0.5L0,-3.0L2.5,-0.5"/>
                </g>
                <g id="arrowRight" xlink:href="#dirArrow" transform="rotate(90) translate(36 -43)" onmousedown="handlePan(1,0)">
                  <use xlink:href="#rim" fill="#404040">
                        <set attributeName="fill" to="#808080" begin="arrowRight.mouseover" end="arrowRight.mouseout"/>
                  </use>
                  <path fill="none" stroke="white" stroke-width="1.5" d="M0,-3.0v7 M-2.5,-0.5L0,-3.0L2.5,-0.5"/>
                </g>
                <g id="arrowDown" xlink:href="#dirArrow" transform="rotate(180) translate(-30 -48)" onmousedown="handlePan(0,1)">
                  <use xlink:href="#rim" fill="#404040">
                        <set attributeName="fill" to="#808080" begin="arrowDown.mouseover" end="arrowDown.mouseout"/>
                  </use>
                  <path fill="none" stroke="white" stroke-width="1.5" d="M0,-3.0v7 M-2.5,-0.5L0,-3.0L2.5,-0.5"/>
                </g>
                <g id="arrowLeft" xlink:href="#dirArrow" transform="rotate(270) translate(-36 17)" onmousedown="handlePan(-1,0)">
                  <use xlink:href="#rim" fill="#404040">
                        <set attributeName="fill" to="#808080" begin="arrowLeft.mouseover" end="arrowLeft.mouseout"/>
                  </use>
                  <path fill="none" stroke="white" stroke-width="1.5" d="M0,-3.0v7 M-2.5,-0.5L0,-3.0L2.5,-0.5"/>
                </g>
        </g>
        <svg viewBox="0 0 15 15" width="100%" height="30px" preserveAspectRatio="xMaxYMin meet">
         <g id="arrow_out" transform="scale(0.3 0.3)">
          <a xlink:href="MarmotMaterialHyperElastic_8cpp__incl_org.svg" target="_base">
           <rect id="button" ry="5" rx="5" y="6" x="6" height="38" width="38"
                fill="#f2f5e9" fill-opacity="0.5" stroke="#606060" stroke-width="1.0"/>
           <path id="arrow"
             d="M 11.500037,31.436501 C 11.940474,20.09759 22.043105,11.32322 32.158766,21.979434 L 37.068811,17.246167 C 37.068811,17.246167 37.088388,32 37.088388,32 L 22.160133,31.978069 C 22.160133,31.978069 26.997745,27.140456 26.997745,27.140456 C 18.528582,18.264221 13.291696,25.230495 11.500037,31.436501 z"
             style="fill:#404040;"/>
          </a>
         </g>
        </svg>
</svg>
