<?xml version="1.0" encoding="UTF-8" standalone="no"?>
<!DOCTYPE svg PUBLIC "-//W3C//DTD SVG 1.1//EN"
 "http://www.w3.org/Graphics/SVG/1.1/DTD/svg11.dtd">
<!-- Generated by graphviz version 2.44.0 ()
 -->
<!-- Title: modules/core/MarmotMechanicsCore/src/MarmotMaterialHypoElastic.cpp Pages: 1 -->
<svg width="1414pt" height="352pt"
 viewBox="0.00 0.00 1413.50 352.00" xmlns="http://www.w3.org/2000/svg" xmlns:xlink="http://www.w3.org/1999/xlink">
<g id="graph0" class="graph" transform="scale(1 1) rotate(0) translate(4 348)">
<title>modules/core/MarmotMechanicsCore/src/MarmotMaterialHypoElastic.cpp</title>
<polygon fill="white" stroke="transparent" points="-4,4 -4,-348 1409.5,-348 1409.5,4 -4,4"/>
<!-- Node1 -->
<g id="node1" class="node">
<title>Node1</title>
<g id="a_node1"><a xlink:title=" ">
<polygon fill="#bfbfbf" stroke="black" points="377.5,-313.5 377.5,-343.5 571.5,-343.5 571.5,-313.5 377.5,-313.5"/>
<text text-anchor="start" x="385.5" y="-331.5" font-family="Helvetica,sans-Serif" font-size="10.00">modules/core/MarmotMechanics</text>
<text text-anchor="middle" x="474.5" y="-320.5" font-family="Helvetica,sans-Serif" font-size="10.00">Core/src/MarmotMaterialHypoElastic.cpp</text>
</a>
</g>
</g>
<!-- Node2 -->
<g id="node2" class="node">
<title>Node2</title>
<g id="a_node2"><a xlink:href="MarmotMaterialHypoElastic_8h.html" target="_top" xlink:title=" ">
<polygon fill="white" stroke="black" points="25,-246.5 25,-276.5 168,-276.5 168,-246.5 25,-246.5"/>
<text text-anchor="start" x="33" y="-264.5" font-family="Helvetica,sans-Serif" font-size="10.00">Marmot/MarmotMaterialHypo</text>
<text text-anchor="middle" x="96.5" y="-253.5" font-family="Helvetica,sans-Serif" font-size="10.00">Elastic.h</text>
</a>
</g>
</g>
<!-- Node1&#45;&gt;Node2 -->
<g id="edge1" class="edge">
<title>Node1&#45;&gt;Node2</title>
<path fill="none" stroke="midnightblue" d="M392.95,-313.48C329.39,-302.55 241.56,-287.44 178.02,-276.52"/>
<polygon fill="midnightblue" stroke="midnightblue" points="178.48,-273.05 168.03,-274.8 177.3,-279.95 178.48,-273.05"/>
</g>
<!-- Node7 -->
<g id="node7" class="node">
<title>Node7</title>
<g id="a_node7"><a xlink:href="HughesWinget_8h.html" target="_top" xlink:title=" ">
<polygon fill="white" stroke="black" points="412.5,-252 412.5,-271 536.5,-271 536.5,-252 412.5,-252"/>
<text text-anchor="middle" x="474.5" y="-259" font-family="Helvetica,sans-Serif" font-size="10.00">Marmot/HughesWinget.h</text>
</a>
</g>
</g>
<!-- Node1&#45;&gt;Node7 -->
<g id="edge6" class="edge">
<title>Node1&#45;&gt;Node7</title>
<path fill="none" stroke="midnightblue" d="M474.5,-313.4C474.5,-304.06 474.5,-291.71 474.5,-281.52"/>
<polygon fill="midnightblue" stroke="midnightblue" points="478,-281.19 474.5,-271.19 471,-281.19 478,-281.19"/>
</g>
<!-- Node8 -->
<g id="node8" class="node">
<title>Node8</title>
<g id="a_node8"><a xlink:href="MarmotVoigt_8h.html" target="_top" xlink:title=" ">
<polygon fill="white" stroke="black" points="579.5,-190.5 579.5,-209.5 695.5,-209.5 695.5,-190.5 579.5,-190.5"/>
<text text-anchor="middle" x="637.5" y="-197.5" font-family="Helvetica,sans-Serif" font-size="10.00">Marmot/MarmotVoigt.h</text>
</a>
</g>
</g>
<!-- Node1&#45;&gt;Node8 -->
<g id="edge39" class="edge">
<title>Node1&#45;&gt;Node8</title>
<path fill="none" stroke="midnightblue" d="M571.77,-320.83C635.06,-314.23 709.45,-301.41 729.5,-277 738.25,-266.35 736.79,-257.69 729.5,-246 719.74,-230.36 702.8,-220.01 686.1,-213.23"/>
<polygon fill="midnightblue" stroke="midnightblue" points="686.94,-209.81 676.35,-209.64 684.52,-216.38 686.94,-209.81"/>
</g>
<!-- Node9 -->
<g id="node9" class="node">
<title>Node9</title>
<g id="a_node9"><a xlink:href="MarmotJournal_8h.html" target="_top" xlink:title=" ">
<polygon fill="white" stroke="black" points="271,-134.5 271,-153.5 396,-153.5 396,-134.5 271,-134.5"/>
<text text-anchor="middle" x="333.5" y="-141.5" font-family="Helvetica,sans-Serif" font-size="10.00">Marmot/MarmotJournal.h</text>
</a>
</g>
</g>
<!-- Node1&#45;&gt;Node9 -->
<g id="edge25" class="edge">
<title>Node1&#45;&gt;Node9</title>
<path fill="none" stroke="midnightblue" d="M377.28,-316.23C328.39,-308.36 276.38,-295.82 261.5,-277 231.16,-238.63 283.81,-185.71 314.22,-160.1"/>
<polygon fill="midnightblue" stroke="midnightblue" points="316.59,-162.67 322.11,-153.63 312.16,-157.26 316.59,-162.67"/>
</g>
<!-- Node10 -->
<g id="node10" class="node">
<title>Node10</title>
<g id="a_node10"><a xlink:title=" ">
<polygon fill="white" stroke="#bfbfbf" points="219.5,-73 219.5,-92 273.5,-92 273.5,-73 219.5,-73"/>
<text text-anchor="middle" x="246.5" y="-80" font-family="Helvetica,sans-Serif" font-size="10.00">iostream</text>
</a>
</g>
</g>
<!-- Node1&#45;&gt;Node10 -->
<g id="edge40" class="edge">
<title>Node1&#45;&gt;Node10</title>
<path fill="none" stroke="midnightblue" d="M377.32,-317.78C323.86,-310.21 265.07,-297.47 248.5,-277 206.94,-225.67 228.03,-139.06 240.06,-101.63"/>
<polygon fill="midnightblue" stroke="midnightblue" points="243.41,-102.66 243.29,-92.07 236.77,-100.42 243.41,-102.66"/>
</g>
<!-- Node12 -->
<g id="node12" class="node">
<title>Node12</title>
<g id="a_node12"><a xlink:href="MarmotMath_8h.html" target="_top" xlink:title=" ">
<polygon fill="white" stroke="black" points="888,-134.5 888,-153.5 1003,-153.5 1003,-134.5 888,-134.5"/>
<text text-anchor="middle" x="945.5" y="-141.5" font-family="Helvetica,sans-Serif" font-size="10.00">Marmot/MarmotMath.h</text>
</a>
</g>
</g>
<!-- Node1&#45;&gt;Node12 -->
<g id="edge32" class="edge">
<title>Node1&#45;&gt;Node12</title>
<path fill="none" stroke="midnightblue" d="M571.73,-322.94C697.23,-316.11 902.54,-301.35 927.5,-277 957.9,-247.34 953.95,-192.32 949.29,-163.57"/>
<polygon fill="midnightblue" stroke="midnightblue" points="952.71,-162.85 947.47,-153.64 945.83,-164.1 952.71,-162.85"/>
</g>
<!-- Node24 -->
<g id="node24" class="node">
<title>Node24</title>
<g id="a_node24"><a xlink:href="MarmotKinematics_8h.html" target="_top" xlink:title=" ">
<polygon fill="white" stroke="black" points="776.5,-252 776.5,-271 918.5,-271 918.5,-252 776.5,-252"/>
<text text-anchor="middle" x="847.5" y="-259" font-family="Helvetica,sans-Serif" font-size="10.00">Marmot/MarmotKinematics.h</text>
</a>
</g>
</g>
<!-- Node1&#45;&gt;Node24 -->
<g id="edge26" class="edge">
<title>Node1&#45;&gt;Node24</title>
<path fill="none" stroke="midnightblue" d="M554.98,-313.48C625.17,-301.24 725.37,-283.78 788.39,-272.8"/>
<polygon fill="midnightblue" stroke="midnightblue" points="789.31,-276.19 798.56,-271.03 788.11,-269.3 789.31,-276.19"/>
</g>
<!-- Node25 -->
<g id="node25" class="node">
<title>Node25</title>
<g id="a_node25"><a xlink:href="MarmotLowerDimensionalStress_8h.html" target="_top" xlink:title=" ">
<polygon fill="white" stroke="black" points="554.5,-246.5 554.5,-276.5 720.5,-276.5 720.5,-246.5 554.5,-246.5"/>
<text text-anchor="start" x="562.5" y="-264.5" font-family="Helvetica,sans-Serif" font-size="10.00">Marmot/MarmotLowerDimensional</text>
<text text-anchor="middle" x="637.5" y="-253.5" font-family="Helvetica,sans-Serif" font-size="10.00">Stress.h</text>
</a>
</g>
</g>
<!-- Node1&#45;&gt;Node25 -->
<g id="edge30" class="edge">
<title>Node1&#45;&gt;Node25</title>
<path fill="none" stroke="midnightblue" d="M509.87,-313.4C534.22,-303.69 566.76,-290.71 592.89,-280.29"/>
<polygon fill="midnightblue" stroke="midnightblue" points="594.21,-283.53 602.2,-276.58 591.62,-277.03 594.21,-283.53"/>
</g>
<!-- Node26 -->
<g id="node26" class="node">
<title>Node26</title>
<g id="a_node26"><a xlink:href="MarmotTensor_8h.html" target="_top" xlink:title=" ">
<polygon fill="white" stroke="black" points="271,-252 271,-271 394,-271 394,-252 271,-252"/>
<text text-anchor="middle" x="332.5" y="-259" font-family="Helvetica,sans-Serif" font-size="10.00">Marmot/MarmotTensor.h</text>
</a>
</g>
</g>
<!-- Node1&#45;&gt;Node26 -->
<g id="edge33" class="edge">
<title>Node1&#45;&gt;Node26</title>
<path fill="none" stroke="midnightblue" d="M443.69,-313.4C418.88,-302.04 384.32,-286.22 360.34,-275.24"/>
<polygon fill="midnightblue" stroke="midnightblue" points="361.63,-271.99 351.08,-271.01 358.72,-278.35 361.63,-271.99"/>
</g>
<!-- Node3 -->
<g id="node3" class="node">
<title>Node3</title>
<g id="a_node3"><a xlink:href="MarmotMaterialMechanical_8h.html" target="_top" xlink:title=" ">
<polygon fill="white" stroke="black" points="0,-190.5 0,-209.5 177,-209.5 177,-190.5 0,-190.5"/>
<text text-anchor="middle" x="88.5" y="-197.5" font-family="Helvetica,sans-Serif" font-size="10.00">Marmot/MarmotMaterialMechanical.h</text>
</a>
</g>
</g>
<!-- Node2&#45;&gt;Node3 -->
<g id="edge2" class="edge">
<title>Node2&#45;&gt;Node3</title>
<path fill="none" stroke="midnightblue" d="M94.6,-246.4C93.53,-238.38 92.16,-228.23 91,-219.57"/>
<polygon fill="midnightblue" stroke="midnightblue" points="94.47,-219.1 89.66,-209.66 87.53,-220.04 94.47,-219.1"/>
</g>
<!-- Node4 -->
<g id="node4" class="node">
<title>Node4</title>
<g id="a_node4"><a xlink:href="MarmotMaterial_8h.html" target="_top" xlink:title=" ">
<polygon fill="white" stroke="black" points="24.5,-134.5 24.5,-153.5 152.5,-153.5 152.5,-134.5 24.5,-134.5"/>
<text text-anchor="middle" x="88.5" y="-141.5" font-family="Helvetica,sans-Serif" font-size="10.00">Marmot/MarmotMaterial.h</text>
</a>
</g>
</g>
<!-- Node3&#45;&gt;Node4 -->
<g id="edge3" class="edge">
<title>Node3&#45;&gt;Node4</title>
<path fill="none" stroke="midnightblue" d="M88.5,-190.08C88.5,-183.01 88.5,-172.86 88.5,-163.99"/>
<polygon fill="midnightblue" stroke="midnightblue" points="92,-163.75 88.5,-153.75 85,-163.75 92,-163.75"/>
</g>
<!-- Node5 -->
<g id="node5" class="node">
<title>Node5</title>
<g id="a_node5"><a xlink:href="MarmotUtils_8h.html" target="_top" xlink:title=" ">
<polygon fill="white" stroke="black" points="29,-73 29,-92 142,-92 142,-73 29,-73"/>
<text text-anchor="middle" x="85.5" y="-80" font-family="Helvetica,sans-Serif" font-size="10.00">Marmot/MarmotUtils.h</text>
</a>
</g>
</g>
<!-- Node4&#45;&gt;Node5 -->
<g id="edge4" class="edge">
<title>Node4&#45;&gt;Node5</title>
<path fill="none" stroke="midnightblue" d="M88.07,-134.48C87.65,-126.08 86.99,-112.98 86.44,-102.16"/>
<polygon fill="midnightblue" stroke="midnightblue" points="89.93,-101.82 85.93,-92.01 82.94,-102.17 89.93,-101.82"/>
</g>
<!-- Node6 -->
<g id="node6" class="node">
<title>Node6</title>
<g id="a_node6"><a xlink:title=" ">
<polygon fill="white" stroke="#bfbfbf" points="160,-73 160,-92 201,-92 201,-73 160,-73"/>
<text text-anchor="middle" x="180.5" y="-80" font-family="Helvetica,sans-Serif" font-size="10.00">string</text>
</a>
</g>
</g>
<!-- Node4&#45;&gt;Node6 -->
<g id="edge5" class="edge">
<title>Node4&#45;&gt;Node6</title>
<path fill="none" stroke="midnightblue" d="M101.68,-134.48C116.57,-124.84 141.04,-109.02 158.77,-97.55"/>
<polygon fill="midnightblue" stroke="midnightblue" points="160.85,-100.38 167.34,-92.01 157.05,-94.5 160.85,-100.38"/>
</g>
<!-- Node7&#45;&gt;Node8 -->
<g id="edge7" class="edge">
<title>Node7&#45;&gt;Node8</title>
<path fill="none" stroke="midnightblue" d="M497.85,-251.98C525.81,-241.77 572.83,-224.61 604.49,-213.05"/>
<polygon fill="midnightblue" stroke="midnightblue" points="606,-216.23 614.19,-209.51 603.6,-209.65 606,-216.23"/>
</g>
<!-- Node8&#45;&gt;Node9 -->
<g id="edge8" class="edge">
<title>Node8&#45;&gt;Node9</title>
<path fill="none" stroke="midnightblue" d="M589.33,-190.44C535.63,-180.9 448.81,-165.48 391.45,-155.29"/>
<polygon fill="midnightblue" stroke="midnightblue" points="391.9,-151.82 381.44,-153.52 390.68,-158.71 391.9,-151.82"/>
</g>
<!-- Node8&#45;&gt;Node12 -->
<g id="edge12" class="edge">
<title>Node8&#45;&gt;Node12</title>
<path fill="none" stroke="midnightblue" d="M686.3,-190.44C740.71,-180.9 828.67,-165.48 886.79,-155.29"/>
<polygon fill="midnightblue" stroke="midnightblue" points="887.68,-158.69 896.92,-153.52 886.47,-151.8 887.68,-158.69"/>
</g>
<!-- Node15 -->
<g id="node15" class="node">
<title>Node15</title>
<g id="a_node15"><a xlink:href="MarmotTypedefs_8h.html" target="_top" xlink:title=" ">
<polygon fill="white" stroke="black" points="571,-73 571,-92 704,-92 704,-73 571,-73"/>
<text text-anchor="middle" x="637.5" y="-80" font-family="Helvetica,sans-Serif" font-size="10.00">Marmot/MarmotTypedefs.h</text>
</a>
</g>
</g>
<!-- Node8&#45;&gt;Node15 -->
<g id="edge24" class="edge">
<title>Node8&#45;&gt;Node15</title>
<path fill="none" stroke="midnightblue" d="M637.5,-190.32C637.5,-171.76 637.5,-127.84 637.5,-102.47"/>
<polygon fill="midnightblue" stroke="midnightblue" points="641,-102.28 637.5,-92.28 634,-102.28 641,-102.28"/>
</g>
<!-- Node9&#45;&gt;Node6 -->
<g id="edge11" class="edge">
<title>Node9&#45;&gt;Node6</title>
<path fill="none" stroke="midnightblue" d="M307.77,-134.42C282.68,-125.86 243.58,-112.01 210.5,-98 209.3,-97.49 208.08,-96.96 206.85,-96.42"/>
<polygon fill="midnightblue" stroke="midnightblue" points="208.04,-93.11 197.5,-92.08 205.1,-99.46 208.04,-93.11"/>
</g>
<!-- Node9&#45;&gt;Node10 -->
<g id="edge9" class="edge">
<title>Node9&#45;&gt;Node10</title>
<path fill="none" stroke="midnightblue" d="M321.04,-134.48C307.08,-124.93 284.24,-109.31 267.51,-97.87"/>
<polygon fill="midnightblue" stroke="midnightblue" points="269.17,-94.77 258.94,-92.01 265.22,-100.54 269.17,-94.77"/>
</g>
<!-- Node11 -->
<g id="node11" class="node">
<title>Node11</title>
<g id="a_node11"><a xlink:title=" ">
<polygon fill="white" stroke="#bfbfbf" points="307.5,-73 307.5,-92 359.5,-92 359.5,-73 307.5,-73"/>
<text text-anchor="middle" x="333.5" y="-80" font-family="Helvetica,sans-Serif" font-size="10.00">sstream</text>
</a>
</g>
</g>
<!-- Node9&#45;&gt;Node11 -->
<g id="edge10" class="edge">
<title>Node9&#45;&gt;Node11</title>
<path fill="none" stroke="midnightblue" d="M333.5,-134.48C333.5,-126.08 333.5,-112.98 333.5,-102.16"/>
<polygon fill="midnightblue" stroke="midnightblue" points="337,-102.01 333.5,-92.01 330,-102.01 337,-102.01"/>
</g>
<!-- Node13 -->
<g id="node13" class="node">
<title>Node13</title>
<g id="a_node13"><a xlink:href="MarmotConstants_8h.html" target="_top" xlink:title=" ">
<polygon fill="white" stroke="black" points="990,-73 990,-92 1127,-92 1127,-73 990,-73"/>
<text text-anchor="middle" x="1058.5" y="-80" font-family="Helvetica,sans-Serif" font-size="10.00">Marmot/MarmotConstants.h</text>
</a>
</g>
</g>
<!-- Node12&#45;&gt;Node13 -->
<g id="edge13" class="edge">
<title>Node12&#45;&gt;Node13</title>
<path fill="none" stroke="midnightblue" d="M961.69,-134.48C980.4,-124.62 1011.42,-108.29 1033.3,-96.77"/>
<polygon fill="midnightblue" stroke="midnightblue" points="1035.12,-99.77 1042.34,-92.01 1031.86,-93.57 1035.12,-99.77"/>
</g>
<!-- Node12&#45;&gt;Node15 -->
<g id="edge15" class="edge">
<title>Node12&#45;&gt;Node15</title>
<path fill="none" stroke="midnightblue" d="M901.37,-134.48C846.02,-123.78 751.16,-105.46 691.53,-93.94"/>
<polygon fill="midnightblue" stroke="midnightblue" points="692.03,-90.47 681.55,-92.01 690.7,-97.34 692.03,-90.47"/>
</g>
<!-- Node19 -->
<g id="node19" class="node">
<title>Node19</title>
<g id="a_node19"><a xlink:title=" ">
<polygon fill="white" stroke="#bfbfbf" points="1145.5,-73 1145.5,-92 1267.5,-92 1267.5,-73 1145.5,-73"/>
<text text-anchor="middle" x="1206.5" y="-80" font-family="Helvetica,sans-Serif" font-size="10.00">autodiff/forward/dual.hpp</text>
</a>
</g>
</g>
<!-- Node12&#45;&gt;Node19 -->
<g id="edge19" class="edge">
<title>Node12&#45;&gt;Node19</title>
<path fill="none" stroke="midnightblue" d="M982.89,-134.48C1029.31,-123.89 1108.52,-105.84 1159.14,-94.3"/>
<polygon fill="midnightblue" stroke="midnightblue" points="1160.2,-97.64 1169.17,-92.01 1158.65,-90.82 1160.2,-97.64"/>
</g>
<!-- Node20 -->
<g id="node20" class="node">
<title>Node20</title>
<g id="a_node20"><a xlink:title=" ">
<polygon fill="white" stroke="#bfbfbf" points="1285.5,-73 1285.5,-92 1405.5,-92 1405.5,-73 1285.5,-73"/>
<text text-anchor="middle" x="1345.5" y="-80" font-family="Helvetica,sans-Serif" font-size="10.00">autodiff/forward/real.hpp</text>
</a>
</g>
</g>
<!-- Node12&#45;&gt;Node20 -->
<g id="edge20" class="edge">
<title>Node12&#45;&gt;Node20</title>
<path fill="none" stroke="midnightblue" d="M1003.1,-136.45C1069.28,-128.62 1181.06,-114.49 1276.5,-98 1283.23,-96.84 1290.3,-95.49 1297.24,-94.1"/>
<polygon fill="midnightblue" stroke="midnightblue" points="1298.18,-97.48 1307.27,-92.05 1296.77,-90.63 1298.18,-97.48"/>
</g>
<!-- Node21 -->
<g id="node21" class="node">
<title>Node21</title>
<g id="a_node21"><a xlink:title=" ">
<polygon fill="white" stroke="#bfbfbf" points="722.5,-73 722.5,-92 778.5,-92 778.5,-73 722.5,-73"/>
<text text-anchor="middle" x="750.5" y="-80" font-family="Helvetica,sans-Serif" font-size="10.00">algorithm</text>
</a>
</g>
</g>
<!-- Node12&#45;&gt;Node21 -->
<g id="edge21" class="edge">
<title>Node12&#45;&gt;Node21</title>
<path fill="none" stroke="midnightblue" d="M911.92,-134.44C879.74,-126 829.93,-112.32 787.5,-98 785.38,-97.28 783.19,-96.51 781,-95.72"/>
<polygon fill="midnightblue" stroke="midnightblue" points="782.09,-92.39 771.5,-92.13 779.62,-98.94 782.09,-92.39"/>
</g>
<!-- Node22 -->
<g id="node22" class="node">
<title>Node22</title>
<g id="a_node22"><a xlink:title=" ">
<polygon fill="white" stroke="#bfbfbf" points="796.5,-67.5 796.5,-97.5 900.5,-97.5 900.5,-67.5 796.5,-67.5"/>
<text text-anchor="start" x="804.5" y="-85.5" font-family="Helvetica,sans-Serif" font-size="10.00">autodiff/forward/dual</text>
<text text-anchor="middle" x="848.5" y="-74.5" font-family="Helvetica,sans-Serif" font-size="10.00">/dual.hpp</text>
</a>
</g>
</g>
<!-- Node12&#45;&gt;Node22 -->
<g id="edge22" class="edge">
<title>Node12&#45;&gt;Node22</title>
<path fill="none" stroke="midnightblue" d="M931.6,-134.48C918.22,-126.27 897.5,-113.56 880.1,-102.88"/>
<polygon fill="midnightblue" stroke="midnightblue" points="881.72,-99.77 871.36,-97.52 878.06,-105.74 881.72,-99.77"/>
</g>
<!-- Node23 -->
<g id="node23" class="node">
<title>Node23</title>
<g id="a_node23"><a xlink:title=" ">
<polygon fill="white" stroke="#bfbfbf" points="919,-73 919,-92 972,-92 972,-73 919,-73"/>
<text text-anchor="middle" x="945.5" y="-80" font-family="Helvetica,sans-Serif" font-size="10.00">complex</text>
</a>
</g>
</g>
<!-- Node12&#45;&gt;Node23 -->
<g id="edge23" class="edge">
<title>Node12&#45;&gt;Node23</title>
<path fill="none" stroke="midnightblue" d="M945.5,-134.48C945.5,-126.08 945.5,-112.98 945.5,-102.16"/>
<polygon fill="midnightblue" stroke="midnightblue" points="949,-102.01 945.5,-92.01 942,-102.01 949,-102.01"/>
</g>
<!-- Node14 -->
<g id="node14" class="node">
<title>Node14</title>
<g id="a_node14"><a xlink:title=" ">
<polygon fill="white" stroke="#bfbfbf" points="1036.5,-6 1036.5,-25 1080.5,-25 1080.5,-6 1036.5,-6"/>
<text text-anchor="middle" x="1058.5" y="-13" font-family="Helvetica,sans-Serif" font-size="10.00">cmath</text>
</a>
</g>
</g>
<!-- Node13&#45;&gt;Node14 -->
<g id="edge14" class="edge">
<title>Node13&#45;&gt;Node14</title>
<path fill="none" stroke="midnightblue" d="M1058.5,-72.73C1058.5,-63.18 1058.5,-47.62 1058.5,-35.28"/>
<polygon fill="midnightblue" stroke="midnightblue" points="1062,-35.13 1058.5,-25.13 1055,-35.13 1062,-35.13"/>
</g>
<!-- Node16 -->
<g id="node16" class="node">
<title>Node16</title>
<g id="a_node16"><a xlink:title=" ">
<polygon fill="white" stroke="#bfbfbf" points="605.5,-6 605.5,-25 669.5,-25 669.5,-6 605.5,-6"/>
<text text-anchor="middle" x="637.5" y="-13" font-family="Helvetica,sans-Serif" font-size="10.00">Eigen/Core</text>
</a>
</g>
</g>
<!-- Node15&#45;&gt;Node16 -->
<g id="edge16" class="edge">
<title>Node15&#45;&gt;Node16</title>
<path fill="none" stroke="midnightblue" d="M637.5,-72.73C637.5,-63.18 637.5,-47.62 637.5,-35.28"/>
<polygon fill="midnightblue" stroke="midnightblue" points="641,-35.13 637.5,-25.13 634,-35.13 641,-35.13"/>
</g>
<!-- Node17 -->
<g id="node17" class="node">
<title>Node17</title>
<g id="a_node17"><a xlink:title=" ">
<polygon fill="white" stroke="#bfbfbf" points="688,-6 688,-25 759,-25 759,-6 688,-6"/>
<text text-anchor="middle" x="723.5" y="-13" font-family="Helvetica,sans-Serif" font-size="10.00">Eigen/Dense</text>
</a>
</g>
</g>
<!-- Node15&#45;&gt;Node17 -->
<g id="edge17" class="edge">
<title>Node15&#45;&gt;Node17</title>
<path fill="none" stroke="midnightblue" d="M649.1,-72.73C663.15,-62.11 687.05,-44.05 703.97,-31.26"/>
<polygon fill="midnightblue" stroke="midnightblue" points="706.22,-33.95 712.09,-25.13 702,-28.36 706.22,-33.95"/>
</g>
<!-- Node18 -->
<g id="node18" class="node">
<title>Node18</title>
<g id="a_node18"><a xlink:title=" ">
<polygon fill="white" stroke="#bfbfbf" points="456,-0.5 456,-30.5 587,-30.5 587,-0.5 456,-0.5"/>
<text text-anchor="start" x="464" y="-18.5" font-family="Helvetica,sans-Serif" font-size="10.00">unsupported/Eigen/CXX11</text>
<text text-anchor="middle" x="521.5" y="-7.5" font-family="Helvetica,sans-Serif" font-size="10.00">/Tensor</text>
</a>
</g>
</g>
<!-- Node15&#45;&gt;Node18 -->
<g id="edge18" class="edge">
<title>Node15&#45;&gt;Node18</title>
<path fill="none" stroke="midnightblue" d="M621.86,-72.73C604.97,-63.27 577.56,-47.91 555.65,-35.64"/>
<polygon fill="midnightblue" stroke="midnightblue" points="557.08,-32.42 546.64,-30.59 553.66,-38.53 557.08,-32.42"/>
</g>
<!-- Node24&#45;&gt;Node8 -->
<g id="edge29" class="edge">
<title>Node24&#45;&gt;Node8</title>
<path fill="none" stroke="midnightblue" d="M817.41,-251.98C780.61,-241.55 718.19,-223.86 677.41,-212.31"/>
<polygon fill="midnightblue" stroke="midnightblue" points="678.11,-208.87 667.53,-209.51 676.2,-215.6 678.11,-208.87"/>
</g>
<!-- Node24&#45;&gt;Node9 -->
<g id="edge27" class="edge">
<title>Node24&#45;&gt;Node9</title>
<path fill="none" stroke="midnightblue" d="M833.94,-251.85C809.26,-236.57 754.9,-205.01 704.5,-190 603.98,-160.07 482.48,-150 406.58,-146.64"/>
<polygon fill="midnightblue" stroke="midnightblue" points="406.31,-143.12 396.18,-146.21 406.02,-150.12 406.31,-143.12"/>
</g>
<!-- Node24&#45;&gt;Node15 -->
<g id="edge28" class="edge">
<title>Node24&#45;&gt;Node15</title>
<path fill="none" stroke="midnightblue" d="M837.37,-251.96C804.19,-224 698.44,-134.87 655.69,-98.83"/>
<polygon fill="midnightblue" stroke="midnightblue" points="657.92,-96.14 648.02,-92.37 653.41,-101.49 657.92,-96.14"/>
</g>
<!-- Node25&#45;&gt;Node8 -->
<g id="edge31" class="edge">
<title>Node25&#45;&gt;Node8</title>
<path fill="none" stroke="midnightblue" d="M637.5,-246.4C637.5,-238.47 637.5,-228.46 637.5,-219.86"/>
<polygon fill="midnightblue" stroke="midnightblue" points="641,-219.66 637.5,-209.66 634,-219.66 641,-219.66"/>
</g>
<!-- Node26&#45;&gt;Node8 -->
<g id="edge36" class="edge">
<title>Node26&#45;&gt;Node8</title>
<path fill="none" stroke="midnightblue" d="M373.78,-251.99C383.52,-250 393.87,-247.91 403.5,-246 464.56,-233.9 534.67,-220.47 582.11,-211.47"/>
<polygon fill="midnightblue" stroke="midnightblue" points="583,-214.86 592.17,-209.56 581.7,-207.98 583,-214.86"/>
</g>
<!-- Node26&#45;&gt;Node9 -->
<g id="edge34" class="edge">
<title>Node26&#45;&gt;Node9</title>
<path fill="none" stroke="midnightblue" d="M332.58,-251.82C332.74,-233.26 333.12,-189.34 333.34,-163.97"/>
<polygon fill="midnightblue" stroke="midnightblue" points="336.84,-163.81 333.42,-153.78 329.84,-163.75 336.84,-163.81"/>
</g>
<!-- Node26&#45;&gt;Node10 -->
<g id="edge37" class="edge">
<title>Node26&#45;&gt;Node10</title>
<path fill="none" stroke="midnightblue" d="M325.13,-251.74C310.84,-234.29 279.31,-193.5 262.5,-154 255.36,-137.23 251.18,-116.81 248.89,-102.27"/>
<polygon fill="midnightblue" stroke="midnightblue" points="252.31,-101.46 247.44,-92.05 245.38,-102.44 252.31,-101.46"/>
</g>
<!-- Node26&#45;&gt;Node15 -->
<g id="edge35" class="edge">
<title>Node26&#45;&gt;Node15</title>
<path fill="none" stroke="midnightblue" d="M347.21,-251.96C396.12,-223.58 553.57,-132.21 613.78,-97.26"/>
<polygon fill="midnightblue" stroke="midnightblue" points="615.69,-100.21 622.58,-92.16 612.17,-94.15 615.69,-100.21"/>
</g>
<!-- Node27 -->
<g id="node27" class="node">
<title>Node27</title>
<g id="a_node27"><a xlink:title=" ">
<polygon fill="white" stroke="#bfbfbf" points="361,-190.5 361,-209.5 400,-209.5 400,-190.5 361,-190.5"/>
<text text-anchor="middle" x="380.5" y="-197.5" font-family="Helvetica,sans-Serif" font-size="10.00">utility</text>
</a>
</g>
</g>
<!-- Node26&#45;&gt;Node27 -->
<g id="edge38" class="edge">
<title>Node26&#45;&gt;Node27</title>
<path fill="none" stroke="midnightblue" d="M339.38,-251.98C346.65,-242.96 358.3,-228.52 367.34,-217.31"/>
<polygon fill="midnightblue" stroke="midnightblue" points="370.08,-219.49 373.64,-209.51 364.63,-215.09 370.08,-219.49"/>
</g>
</g>
</svg>
