<?xml version="1.0" encoding="UTF-8" standalone="no"?>
<!DOCTYPE svg PUBLIC "-//W3C//DTD SVG 1.1//EN"
 "http://www.w3.org/Graphics/SVG/1.1/DTD/svg11.dtd">
<!-- Generated by graphviz version 2.44.0 ()
 -->
<!-- Title: modules/core/MarmotMechanicsCore/src/MarmotLowerDimensionalStress.cpp Pages: 1 -->
<!--zoomable 363 -->
<svg id="main" version="1.1" xmlns="http://www.w3.org/2000/svg" xmlns:xlink="http://www.w3.org/1999/xlink" xml:space="preserve" onload="init(evt)">
<style type="text/css"><![CDATA[
.edge:hover path { stroke: red; }
.edge:hover polygon { stroke: red; fill: red; }
]]></style>
<script type="text/javascript"><![CDATA[
var edges = document.getElementsByTagName('g');
if (edges && edges.length) {
  for (var i=0;i<edges.length;i++) {
    if (edges[i].id.substr(0,4)=='edge') {
      edges[i].setAttribute('class','edge');
    }
  }
}
]]></script>
        <defs>
                <circle id="rim" cx="0" cy="0" r="7"/>
                <circle id="rim2" cx="0" cy="0" r="3.5"/>
                <g id="zoomPlus">
                        <use xlink:href="#rim" fill="#404040">
                                <set attributeName="fill" to="#808080" begin="zoomplus.mouseover" end="zoomplus.mouseout"/>
                        </use>
                        <path d="M-4,0h8M0,-4v8" fill="none" stroke="white" stroke-width="1.5" pointer-events="none"/>
                </g>
                <g id="zoomMin">
                        <use xlink:href="#rim" fill="#404040">
                                <set attributeName="fill" to="#808080" begin="zoomminus.mouseover" end="zoomminus.mouseout"/>
                        </use>
                        <path d="M-4,0h8" fill="none" stroke="white" stroke-width="1.5" pointer-events="none"/>
                </g>
                <g id="dirArrow">
                        <path fill="none" stroke="white" stroke-width="1.5" d="M0,-3.0v7 M-2.5,-0.5L0,-3.0L2.5,-0.5"/>
                </g>
               <g id="resetDef">
                       <use xlink:href="#rim2" fill="#404040">
                               <set attributeName="fill" to="#808080" begin="reset.mouseover" end="reset.mouseout"/>
                       </use>
               </g>
        </defs>

<script type="text/javascript">
var viewWidth = 1045;
var viewHeight = 363;
var sectionId = 'dynsection-0';
</script>
<script xlink:href="svgpan.js"/>
<svg id="graph" class="graph">
<g id="viewport">
<title>modules/core/MarmotMechanicsCore/src/MarmotLowerDimensionalStress.cpp</title>
<polygon fill="white" stroke="transparent" points="-4,4 -4,-359 1040.5,-359 1040.5,4 -4,4"/>
<!-- Node1 -->
<g id="node1" class="node">
<title>Node1</title>
<g id="a_node1"><a xlink:title=" ">
<polygon fill="#bfbfbf" stroke="black" points="606.5,-313.5 606.5,-354.5 776.5,-354.5 776.5,-313.5 606.5,-313.5"/>
<text text-anchor="start" x="614.5" y="-342.5" font-family="Helvetica,sans-Serif" font-size="10.00">modules/core/MarmotMechanics</text>
<text text-anchor="start" x="614.5" y="-331.5" font-family="Helvetica,sans-Serif" font-size="10.00">Core/src/MarmotLowerDimensional</text>
<text text-anchor="middle" x="691.5" y="-320.5" font-family="Helvetica,sans-Serif" font-size="10.00">Stress.cpp</text>
</a>
</g>
</g>
<!-- Node2 -->
<g id="node2" class="node">
<title>Node2</title>
<g id="a_node2"><a xlink:href="MarmotLowerDimensionalStress_8h.html" target="_top" xlink:title=" ">
<polygon fill="white" stroke="black" points="497.5,-246.5 497.5,-276.5 663.5,-276.5 663.5,-246.5 497.5,-246.5"/>
<text text-anchor="start" x="505.5" y="-264.5" font-family="Helvetica,sans-Serif" font-size="10.00">Marmot/MarmotLowerDimensional</text>
<text text-anchor="middle" x="580.5" y="-253.5" font-family="Helvetica,sans-Serif" font-size="10.00">Stress.h</text>
</a>
</g>
</g>
<!-- Node1&#45;&gt;Node2 -->
<g id="edge1" class="edge">
<title>Node1&#45;&gt;Node2</title>
<path fill="none" stroke="midnightblue" d="M660.58,-313.36C645.24,-303.62 626.77,-291.89 611.43,-282.15"/>
<polygon fill="midnightblue" stroke="midnightblue" points="613.13,-279.08 602.81,-276.67 609.38,-284.99 613.13,-279.08"/>
</g>
<!-- Node3 -->
<g id="node3" class="node">
<title>Node3</title>
<g id="a_node3"><a xlink:href="MarmotVoigt_8h.html" target="_top" xlink:title=" ">
<polygon fill="white" stroke="black" points="524.5,-190.5 524.5,-209.5 640.5,-209.5 640.5,-190.5 524.5,-190.5"/>
<text text-anchor="middle" x="582.5" y="-197.5" font-family="Helvetica,sans-Serif" font-size="10.00">Marmot/MarmotVoigt.h</text>
</a>
</g>
</g>
<!-- Node1&#45;&gt;Node3 -->
<g id="edge27" class="edge">
<title>Node1&#45;&gt;Node3</title>
<path fill="none" stroke="midnightblue" d="M691.88,-313.35C691.27,-294.26 687.59,-265.4 672.5,-246 660.66,-230.78 642.31,-220.33 625.26,-213.35"/>
<polygon fill="midnightblue" stroke="midnightblue" points="626.02,-209.89 615.43,-209.63 623.54,-216.44 626.02,-209.89"/>
</g>
<!-- Node20 -->
<g id="node20" class="node">
<title>Node20</title>
<g id="a_node20"><a xlink:href="MarmotTensor_8h.html" target="_top" xlink:title=" ">
<polygon fill="white" stroke="black" points="720,-252 720,-271 843,-271 843,-252 720,-252"/>
<text text-anchor="middle" x="781.5" y="-259" font-family="Helvetica,sans-Serif" font-size="10.00">Marmot/MarmotTensor.h</text>
</a>
</g>
</g>
<!-- Node1&#45;&gt;Node20 -->
<g id="edge20" class="edge">
<title>Node1&#45;&gt;Node20</title>
<path fill="none" stroke="midnightblue" d="M716.57,-313.36C731.08,-302 749.05,-287.92 762.4,-277.46"/>
<polygon fill="midnightblue" stroke="midnightblue" points="764.71,-280.1 770.43,-271.17 760.4,-274.58 764.71,-280.1"/>
</g>
<!-- Node2&#45;&gt;Node3 -->
<g id="edge2" class="edge">
<title>Node2&#45;&gt;Node3</title>
<path fill="none" stroke="midnightblue" d="M580.97,-246.4C581.24,-238.47 581.58,-228.46 581.87,-219.86"/>
<polygon fill="midnightblue" stroke="midnightblue" points="585.37,-219.77 582.21,-209.66 578.37,-219.53 585.37,-219.77"/>
</g>
<!-- Node4 -->
<g id="node4" class="node">
<title>Node4</title>
<g id="a_node4"><a xlink:href="MarmotJournal_8h.html" target="_top" xlink:title=" ">
<polygon fill="white" stroke="black" points="856,-134.5 856,-153.5 981,-153.5 981,-134.5 856,-134.5"/>
<text text-anchor="middle" x="918.5" y="-141.5" font-family="Helvetica,sans-Serif" font-size="10.00">Marmot/MarmotJournal.h</text>
</a>
</g>
</g>
<!-- Node3&#45;&gt;Node4 -->
<g id="edge3" class="edge">
<title>Node3&#45;&gt;Node4</title>
<path fill="none" stroke="midnightblue" d="M635.74,-190.44C695.46,-180.85 792.24,-165.29 855.63,-155.1"/>
<polygon fill="midnightblue" stroke="midnightblue" points="856.19,-158.56 865.51,-153.52 855.08,-151.65 856.19,-158.56"/>
</g>
<!-- Node8 -->
<g id="node8" class="node">
<title>Node8</title>
<g id="a_node8"><a xlink:href="MarmotMath_8h.html" target="_top" xlink:title=" ">
<polygon fill="white" stroke="black" points="422,-134.5 422,-153.5 537,-153.5 537,-134.5 422,-134.5"/>
<text text-anchor="middle" x="479.5" y="-141.5" font-family="Helvetica,sans-Serif" font-size="10.00">Marmot/MarmotMath.h</text>
</a>
</g>
</g>
<!-- Node3&#45;&gt;Node8 -->
<g id="edge7" class="edge">
<title>Node3&#45;&gt;Node8</title>
<path fill="none" stroke="midnightblue" d="M565.95,-190.32C549.51,-181.7 524.07,-168.36 505.03,-158.39"/>
<polygon fill="midnightblue" stroke="midnightblue" points="506.49,-155.2 496.01,-153.65 503.24,-161.4 506.49,-155.2"/>
</g>
<!-- Node11 -->
<g id="node11" class="node">
<title>Node11</title>
<g id="a_node11"><a xlink:href="MarmotTypedefs_8h.html" target="_top" xlink:title=" ">
<polygon fill="white" stroke="black" points="701,-73 701,-92 834,-92 834,-73 701,-73"/>
<text text-anchor="middle" x="767.5" y="-80" font-family="Helvetica,sans-Serif" font-size="10.00">Marmot/MarmotTypedefs.h</text>
</a>
</g>
</g>
<!-- Node3&#45;&gt;Node11 -->
<g id="edge19" class="edge">
<title>Node3&#45;&gt;Node11</title>
<path fill="none" stroke="midnightblue" d="M596.41,-190.32C628.15,-170.5 706.17,-121.79 744.92,-97.6"/>
<polygon fill="midnightblue" stroke="midnightblue" points="746.8,-100.55 753.43,-92.28 743.1,-94.61 746.8,-100.55"/>
</g>
<!-- Node5 -->
<g id="node5" class="node">
<title>Node5</title>
<g id="a_node5"><a xlink:title=" ">
<polygon fill="white" stroke="#bfbfbf" points="982.5,-73 982.5,-92 1036.5,-92 1036.5,-73 982.5,-73"/>
<text text-anchor="middle" x="1009.5" y="-80" font-family="Helvetica,sans-Serif" font-size="10.00">iostream</text>
</a>
</g>
</g>
<!-- Node4&#45;&gt;Node5 -->
<g id="edge4" class="edge">
<title>Node4&#45;&gt;Node5</title>
<path fill="none" stroke="midnightblue" d="M931.54,-134.48C946.27,-124.84 970.47,-109.02 988.01,-97.55"/>
<polygon fill="midnightblue" stroke="midnightblue" points="990.03,-100.41 996.49,-92.01 986.2,-94.55 990.03,-100.41"/>
</g>
<!-- Node6 -->
<g id="node6" class="node">
<title>Node6</title>
<g id="a_node6"><a xlink:title=" ">
<polygon fill="white" stroke="#bfbfbf" points="852.5,-73 852.5,-92 904.5,-92 904.5,-73 852.5,-73"/>
<text text-anchor="middle" x="878.5" y="-80" font-family="Helvetica,sans-Serif" font-size="10.00">sstream</text>
</a>
</g>
</g>
<!-- Node4&#45;&gt;Node6 -->
<g id="edge5" class="edge">
<title>Node4&#45;&gt;Node6</title>
<path fill="none" stroke="midnightblue" d="M912.77,-134.48C906.83,-125.64 897.38,-111.59 889.91,-100.48"/>
<polygon fill="midnightblue" stroke="midnightblue" points="892.7,-98.36 884.22,-92.01 886.89,-102.26 892.7,-98.36"/>
</g>
<!-- Node7 -->
<g id="node7" class="node">
<title>Node7</title>
<g id="a_node7"><a xlink:title=" ">
<polygon fill="white" stroke="#bfbfbf" points="923,-73 923,-92 964,-92 964,-73 923,-73"/>
<text text-anchor="middle" x="943.5" y="-80" font-family="Helvetica,sans-Serif" font-size="10.00">string</text>
</a>
</g>
</g>
<!-- Node4&#45;&gt;Node7 -->
<g id="edge6" class="edge">
<title>Node4&#45;&gt;Node7</title>
<path fill="none" stroke="midnightblue" d="M922.08,-134.48C925.68,-125.9 931.35,-112.43 935.94,-101.48"/>
<polygon fill="midnightblue" stroke="midnightblue" points="939.28,-102.58 939.92,-92.01 932.82,-99.87 939.28,-102.58"/>
</g>
<!-- Node9 -->
<g id="node9" class="node">
<title>Node9</title>
<g id="a_node9"><a xlink:href="MarmotConstants_8h.html" target="_top" xlink:title=" ">
<polygon fill="white" stroke="black" points="71,-73 71,-92 208,-92 208,-73 71,-73"/>
<text text-anchor="middle" x="139.5" y="-80" font-family="Helvetica,sans-Serif" font-size="10.00">Marmot/MarmotConstants.h</text>
</a>
</g>
</g>
<!-- Node8&#45;&gt;Node9 -->
<g id="edge8" class="edge">
<title>Node8&#45;&gt;Node9</title>
<path fill="none" stroke="midnightblue" d="M428.75,-134.49C375.94,-125.6 290.87,-111.12 217.5,-98 210.15,-96.69 202.41,-95.28 194.78,-93.87"/>
<polygon fill="midnightblue" stroke="midnightblue" points="195.32,-90.41 184.85,-92.04 194.05,-97.3 195.32,-90.41"/>
</g>
<!-- Node8&#45;&gt;Node11 -->
<g id="edge10" class="edge">
<title>Node8&#45;&gt;Node11</title>
<path fill="none" stroke="midnightblue" d="M520.76,-134.48C572.3,-123.83 660.48,-105.61 716.29,-94.08"/>
<polygon fill="midnightblue" stroke="midnightblue" points="717.23,-97.46 726.31,-92.01 715.81,-90.6 717.23,-97.46"/>
</g>
<!-- Node15 -->
<g id="node15" class="node">
<title>Node15</title>
<g id="a_node15"><a xlink:title=" ">
<polygon fill="white" stroke="#bfbfbf" points="226.5,-73 226.5,-92 348.5,-92 348.5,-73 226.5,-73"/>
<text text-anchor="middle" x="287.5" y="-80" font-family="Helvetica,sans-Serif" font-size="10.00">autodiff/forward/dual.hpp</text>
</a>
</g>
</g>
<!-- Node8&#45;&gt;Node15 -->
<g id="edge14" class="edge">
<title>Node8&#45;&gt;Node15</title>
<path fill="none" stroke="midnightblue" d="M451.99,-134.48C418.63,-124.14 362.24,-106.66 324.94,-95.1"/>
<polygon fill="midnightblue" stroke="midnightblue" points="325.55,-91.63 314.96,-92.01 323.47,-98.31 325.55,-91.63"/>
</g>
<!-- Node16 -->
<g id="node16" class="node">
<title>Node16</title>
<g id="a_node16"><a xlink:title=" ">
<polygon fill="white" stroke="#bfbfbf" points="366.5,-73 366.5,-92 486.5,-92 486.5,-73 366.5,-73"/>
<text text-anchor="middle" x="426.5" y="-80" font-family="Helvetica,sans-Serif" font-size="10.00">autodiff/forward/real.hpp</text>
</a>
</g>
</g>
<!-- Node8&#45;&gt;Node16 -->
<g id="edge15" class="edge">
<title>Node8&#45;&gt;Node16</title>
<path fill="none" stroke="midnightblue" d="M471.91,-134.48C463.8,-125.37 450.77,-110.74 440.74,-99.48"/>
<polygon fill="midnightblue" stroke="midnightblue" points="443.34,-97.15 434.08,-92.01 438.12,-101.8 443.34,-97.15"/>
</g>
<!-- Node17 -->
<g id="node17" class="node">
<title>Node17</title>
<g id="a_node17"><a xlink:title=" ">
<polygon fill="white" stroke="#bfbfbf" points="504.5,-73 504.5,-92 560.5,-92 560.5,-73 504.5,-73"/>
<text text-anchor="middle" x="532.5" y="-80" font-family="Helvetica,sans-Serif" font-size="10.00">algorithm</text>
</a>
</g>
</g>
<!-- Node8&#45;&gt;Node17 -->
<g id="edge16" class="edge">
<title>Node8&#45;&gt;Node17</title>
<path fill="none" stroke="midnightblue" d="M487.09,-134.48C495.2,-125.37 508.23,-110.74 518.26,-99.48"/>
<polygon fill="midnightblue" stroke="midnightblue" points="520.88,-101.8 524.92,-92.01 515.66,-97.15 520.88,-101.8"/>
</g>
<!-- Node18 -->
<g id="node18" class="node">
<title>Node18</title>
<g id="a_node18"><a xlink:title=" ">
<polygon fill="white" stroke="#bfbfbf" points="578.5,-67.5 578.5,-97.5 682.5,-97.5 682.5,-67.5 578.5,-67.5"/>
<text text-anchor="start" x="586.5" y="-85.5" font-family="Helvetica,sans-Serif" font-size="10.00">autodiff/forward/dual</text>
<text text-anchor="middle" x="630.5" y="-74.5" font-family="Helvetica,sans-Serif" font-size="10.00">/dual.hpp</text>
</a>
</g>
</g>
<!-- Node8&#45;&gt;Node18 -->
<g id="edge17" class="edge">
<title>Node8&#45;&gt;Node18</title>
<path fill="none" stroke="midnightblue" d="M501.13,-134.48C523.02,-125.85 557.5,-112.26 585.36,-101.29"/>
<polygon fill="midnightblue" stroke="midnightblue" points="586.89,-104.45 594.91,-97.52 584.33,-97.93 586.89,-104.45"/>
</g>
<!-- Node19 -->
<g id="node19" class="node">
<title>Node19</title>
<g id="a_node19"><a xlink:title=" ">
<polygon fill="white" stroke="#bfbfbf" points="0,-73 0,-92 53,-92 53,-73 0,-73"/>
<text text-anchor="middle" x="26.5" y="-80" font-family="Helvetica,sans-Serif" font-size="10.00">complex</text>
</a>
</g>
</g>
<!-- Node8&#45;&gt;Node19 -->
<g id="edge18" class="edge">
<title>Node8&#45;&gt;Node19</title>
<path fill="none" stroke="midnightblue" d="M421.79,-141.96C340.29,-139.34 187.38,-130.14 61.5,-98 58.99,-97.36 56.43,-96.57 53.88,-95.7"/>
<polygon fill="midnightblue" stroke="midnightblue" points="54.92,-92.35 44.33,-92.04 52.41,-98.89 54.92,-92.35"/>
</g>
<!-- Node10 -->
<g id="node10" class="node">
<title>Node10</title>
<g id="a_node10"><a xlink:title=" ">
<polygon fill="white" stroke="#bfbfbf" points="117.5,-6 117.5,-25 161.5,-25 161.5,-6 117.5,-6"/>
<text text-anchor="middle" x="139.5" y="-13" font-family="Helvetica,sans-Serif" font-size="10.00">cmath</text>
</a>
</g>
</g>
<!-- Node9&#45;&gt;Node10 -->
<g id="edge9" class="edge">
<title>Node9&#45;&gt;Node10</title>
<path fill="none" stroke="midnightblue" d="M139.5,-72.73C139.5,-63.18 139.5,-47.62 139.5,-35.28"/>
<polygon fill="midnightblue" stroke="midnightblue" points="143,-35.13 139.5,-25.13 136,-35.13 143,-35.13"/>
</g>
<!-- Node12 -->
<g id="node12" class="node">
<title>Node12</title>
<g id="a_node12"><a xlink:title=" ">
<polygon fill="white" stroke="#bfbfbf" points="649.5,-6 649.5,-25 713.5,-25 713.5,-6 649.5,-6"/>
<text text-anchor="middle" x="681.5" y="-13" font-family="Helvetica,sans-Serif" font-size="10.00">Eigen/Core</text>
</a>
</g>
</g>
<!-- Node11&#45;&gt;Node12 -->
<g id="edge11" class="edge">
<title>Node11&#45;&gt;Node12</title>
<path fill="none" stroke="midnightblue" d="M755.9,-72.73C741.85,-62.11 717.95,-44.05 701.03,-31.26"/>
<polygon fill="midnightblue" stroke="midnightblue" points="703,-28.36 692.91,-25.13 698.78,-33.95 703,-28.36"/>
</g>
<!-- Node13 -->
<g id="node13" class="node">
<title>Node13</title>
<g id="a_node13"><a xlink:title=" ">
<polygon fill="white" stroke="#bfbfbf" points="732,-6 732,-25 803,-25 803,-6 732,-6"/>
<text text-anchor="middle" x="767.5" y="-13" font-family="Helvetica,sans-Serif" font-size="10.00">Eigen/Dense</text>
</a>
</g>
</g>
<!-- Node11&#45;&gt;Node13 -->
<g id="edge12" class="edge">
<title>Node11&#45;&gt;Node13</title>
<path fill="none" stroke="midnightblue" d="M767.5,-72.73C767.5,-63.18 767.5,-47.62 767.5,-35.28"/>
<polygon fill="midnightblue" stroke="midnightblue" points="771,-35.13 767.5,-25.13 764,-35.13 771,-35.13"/>
</g>
<!-- Node14 -->
<g id="node14" class="node">
<title>Node14</title>
<g id="a_node14"><a xlink:title=" ">
<polygon fill="white" stroke="#bfbfbf" points="821,-0.5 821,-30.5 952,-30.5 952,-0.5 821,-0.5"/>
<text text-anchor="start" x="829" y="-18.5" font-family="Helvetica,sans-Serif" font-size="10.00">unsupported/Eigen/CXX11</text>
<text text-anchor="middle" x="886.5" y="-7.5" font-family="Helvetica,sans-Serif" font-size="10.00">/Tensor</text>
</a>
</g>
</g>
<!-- Node11&#45;&gt;Node14 -->
<g id="edge13" class="edge">
<title>Node11&#45;&gt;Node14</title>
<path fill="none" stroke="midnightblue" d="M783.55,-72.73C800.95,-63.23 829.24,-47.78 851.77,-35.47"/>
<polygon fill="midnightblue" stroke="midnightblue" points="853.61,-38.45 860.71,-30.59 850.25,-32.31 853.61,-38.45"/>
</g>
<!-- Node20&#45;&gt;Node3 -->
<g id="edge24" class="edge">
<title>Node20&#45;&gt;Node3</title>
<path fill="none" stroke="midnightblue" d="M752.99,-251.98C718.26,-241.59 659.46,-224.01 620.81,-212.45"/>
<polygon fill="midnightblue" stroke="midnightblue" points="621.54,-209.02 610.96,-209.51 619.54,-215.73 621.54,-209.02"/>
</g>
<!-- Node20&#45;&gt;Node4 -->
<g id="edge22" class="edge">
<title>Node20&#45;&gt;Node4</title>
<path fill="none" stroke="midnightblue" d="M791.7,-251.93C803.64,-241.88 824.01,-224.74 841.5,-210 861.59,-193.07 884.61,-173.63 900.21,-160.46"/>
<polygon fill="midnightblue" stroke="midnightblue" points="902.66,-162.96 908.04,-153.84 898.14,-157.62 902.66,-162.96"/>
</g>
<!-- Node20&#45;&gt;Node5 -->
<g id="edge25" class="edge">
<title>Node20&#45;&gt;Node5</title>
<path fill="none" stroke="midnightblue" d="M817.15,-252C863.96,-238.96 945.48,-209.51 990.5,-154 1002.33,-139.41 1006.83,-118.08 1008.53,-102.71"/>
<polygon fill="midnightblue" stroke="midnightblue" points="1012.05,-102.57 1009.35,-92.32 1005.07,-102.02 1012.05,-102.57"/>
</g>
<!-- Node20&#45;&gt;Node11 -->
<g id="edge23" class="edge">
<title>Node20&#45;&gt;Node11</title>
<path fill="none" stroke="midnightblue" d="M787.92,-251.75C794.57,-242.09 804.54,-225.82 808.5,-210 810.66,-201.38 810.12,-198.74 808.5,-190 802.43,-157.34 786.72,-121.78 776.61,-101.12"/>
<polygon fill="midnightblue" stroke="midnightblue" points="779.65,-99.38 772.03,-92.02 773.39,-102.52 779.65,-99.38"/>
</g>
<!-- Node21 -->
<g id="node21" class="node">
<title>Node21</title>
<g id="a_node21"><a xlink:title=" ">
<polygon fill="white" stroke="#bfbfbf" points="659,-190.5 659,-209.5 742,-209.5 742,-190.5 659,-190.5"/>
<text text-anchor="middle" x="700.5" y="-197.5" font-family="Helvetica,sans-Serif" font-size="10.00">Fastor/Fastor.h</text>
</a>
</g>
</g>
<!-- Node20&#45;&gt;Node21 -->
<g id="edge21" class="edge">
<title>Node20&#45;&gt;Node21</title>
<path fill="none" stroke="midnightblue" d="M769.89,-251.98C757.02,-242.52 736.03,-227.1 720.49,-215.69"/>
<polygon fill="midnightblue" stroke="midnightblue" points="722.22,-212.61 712.08,-209.51 718.07,-218.25 722.22,-212.61"/>
</g>
<!-- Node22 -->
<g id="node22" class="node">
<title>Node22</title>
<g id="a_node22"><a xlink:title=" ">
<polygon fill="white" stroke="#bfbfbf" points="760,-190.5 760,-209.5 799,-209.5 799,-190.5 760,-190.5"/>
<text text-anchor="middle" x="779.5" y="-197.5" font-family="Helvetica,sans-Serif" font-size="10.00">utility</text>
</a>
</g>
</g>
<!-- Node20&#45;&gt;Node22 -->
<g id="edge26" class="edge">
<title>Node20&#45;&gt;Node22</title>
<path fill="none" stroke="midnightblue" d="M781.21,-251.98C780.93,-243.58 780.49,-230.48 780.13,-219.66"/>
<polygon fill="midnightblue" stroke="midnightblue" points="783.62,-219.39 779.79,-209.51 776.62,-219.62 783.62,-219.39"/>
</g>
</g>
</svg>
        <g id="navigator" transform="translate(0 0)" fill="#404254">
                <rect fill="#f2f5e9" fill-opacity="0.5" stroke="#606060" stroke-width=".5" x="0" y="0" width="60" height="60"/>
                <use id="zoomplus" xlink:href="#zoomPlus" x="17" y="9" onmousedown="handleZoom(evt,'in')"/>
                <use id="zoomminus" xlink:href="#zoomMin" x="42" y="9" onmousedown="handleZoom(evt,'out')"/>
                <use id="reset" xlink:href="#resetDef" x="30" y="36" onmousedown="handleReset()"/>
                <g id="arrowUp" xlink:href="#dirArrow" transform="translate(30 24)" onmousedown="handlePan(0,-1)">
                  <use xlink:href="#rim" fill="#404040">
                        <set attributeName="fill" to="#808080" begin="arrowUp.mouseover" end="arrowUp.mouseout"/>
                  </use>
                  <path fill="none" stroke="white" stroke-width="1.5" d="M0,-3.0v7 M-2.5,-0.5L0,-3.0L2.5,-0.5"/>
                </g>
                <g id="arrowRight" xlink:href="#dirArrow" transform="rotate(90) translate(36 -43)" onmousedown="handlePan(1,0)">
                  <use xlink:href="#rim" fill="#404040">
                        <set attributeName="fill" to="#808080" begin="arrowRight.mouseover" end="arrowRight.mouseout"/>
                  </use>
                  <path fill="none" stroke="white" stroke-width="1.5" d="M0,-3.0v7 M-2.5,-0.5L0,-3.0L2.5,-0.5"/>
                </g>
                <g id="arrowDown" xlink:href="#dirArrow" transform="rotate(180) translate(-30 -48)" onmousedown="handlePan(0,1)">
                  <use xlink:href="#rim" fill="#404040">
                        <set attributeName="fill" to="#808080" begin="arrowDown.mouseover" end="arrowDown.mouseout"/>
                  </use>
                  <path fill="none" stroke="white" stroke-width="1.5" d="M0,-3.0v7 M-2.5,-0.5L0,-3.0L2.5,-0.5"/>
                </g>
                <g id="arrowLeft" xlink:href="#dirArrow" transform="rotate(270) translate(-36 17)" onmousedown="handlePan(-1,0)">
                  <use xlink:href="#rim" fill="#404040">
                        <set attributeName="fill" to="#808080" begin="arrowLeft.mouseover" end="arrowLeft.mouseout"/>
                  </use>
                  <path fill="none" stroke="white" stroke-width="1.5" d="M0,-3.0v7 M-2.5,-0.5L0,-3.0L2.5,-0.5"/>
                </g>
        </g>
        <svg viewBox="0 0 15 15" width="100%" height="30px" preserveAspectRatio="xMaxYMin meet">
         <g id="arrow_out" transform="scale(0.3 0.3)">
          <a xlink:href="MarmotLowerDimensionalStress_8cpp__incl_org.svg" target="_base">
           <rect id="button" ry="5" rx="5" y="6" x="6" height="38" width="38"
                fill="#f2f5e9" fill-opacity="0.5" stroke="#606060" stroke-width="1.0"/>
           <path id="arrow"
             d="M 11.500037,31.436501 C 11.940474,20.09759 22.043105,11.32322 32.158766,21.979434 L 37.068811,17.246167 C 37.068811,17.246167 37.088388,32 37.088388,32 L 22.160133,31.978069 C 22.160133,31.978069 26.997745,27.140456 26.997745,27.140456 C 18.528582,18.264221 13.291696,25.230495 11.500037,31.436501 z"
             style="fill:#404040;"/>
          </a>
         </g>
        </svg>
</svg>
