<?xml version="1.0" encoding="UTF-8" standalone="no"?>
<!DOCTYPE svg PUBLIC "-//W3C//DTD SVG 1.1//EN"
 "http://www.w3.org/Graphics/SVG/1.1/DTD/svg11.dtd">
<!-- Generated by graphviz version 2.46.1 (20210215.1649)
 -->
<!-- Title: modules/core/MarmotMechanicsCore/src/MarmotVoigt.cpp Pages: 1 -->
<!--zoomable 274 -->
<svg id="main" version="1.1" xmlns="http://www.w3.org/2000/svg" xmlns:xlink="http://www.w3.org/1999/xlink" xml:space="preserve" onload="init(evt)">
<style type="text/css"><![CDATA[
.edge:hover path { stroke: red; }
.edge:hover polygon { stroke: red; fill: red; }
]]></style>
<script type="text/javascript"><![CDATA[
var edges = document.getElementsByTagName('g');
if (edges && edges.length) {
  for (var i=0;i<edges.length;i++) {
    if (edges[i].id.substr(0,4)=='edge') {
      edges[i].setAttribute('class','edge');
    }
  }
}
]]></script>
        <defs>
                <circle id="rim" cx="0" cy="0" r="7"/>
                <circle id="rim2" cx="0" cy="0" r="3.5"/>
                <g id="zoomPlus">
                        <use xlink:href="#rim" fill="#404040">
                                <set attributeName="fill" to="#808080" begin="zoomplus.mouseover" end="zoomplus.mouseout"/>
                        </use>
                        <path d="M-4,0h8M0,-4v8" fill="none" stroke="white" stroke-width="1.5" pointer-events="none"/>
                </g>
                <g id="zoomMin">
                        <use xlink:href="#rim" fill="#404040">
                                <set attributeName="fill" to="#808080" begin="zoomminus.mouseover" end="zoomminus.mouseout"/>
                        </use>
                        <path d="M-4,0h8" fill="none" stroke="white" stroke-width="1.5" pointer-events="none"/>
                </g>
                <g id="dirArrow">
                        <path fill="none" stroke="white" stroke-width="1.5" d="M0,-3.0v7 M-2.5,-0.5L0,-3.0L2.5,-0.5"/>
                </g>
               <g id="resetDef">
                       <use xlink:href="#rim2" fill="#404040">
                               <set attributeName="fill" to="#808080" begin="reset.mouseover" end="reset.mouseout"/>
                       </use>
               </g>
        </defs>

<script type="text/javascript">
var viewWidth = 619;
var viewHeight = 274;
var sectionId = 'dynsection-0';
</script>
<script xlink:href="svgpan.js"/>
<svg id="graph" class="graph">
<g id="viewport">
<title>modules/core/MarmotMechanicsCore/src/MarmotVoigt.cpp</title>
<polygon fill="white" stroke="transparent" points="-4,4 -4,-270 614.5,-270 614.5,4 -4,4"/>
<!-- Node1 -->
<g id="node1" class="node">
<title>Node1</title>
<g id="a_node1"><a xlink:title=" ">
<polygon fill="#bfbfbf" stroke="black" points="178,-235.5 178,-265.5 336,-265.5 336,-235.5 178,-235.5"/>
<text text-anchor="start" x="186" y="-253.5" font-family="Helvetica,sans-Serif" font-size="10.00">modules/core/MarmotMechanics</text>
<text text-anchor="middle" x="257" y="-242.5" font-family="Helvetica,sans-Serif" font-size="10.00">Core/src/MarmotVoigt.cpp</text>
</a>
</g>
</g>
<!-- Node2 -->
<g id="node2" class="node">
<title>Node2</title>
<g id="a_node2"><a xlink:href="MarmotVoigt_8h.html" target="_top" xlink:title=" ">
<polygon fill="white" stroke="black" points="189,-123.5 189,-142.5 305,-142.5 305,-123.5 189,-123.5"/>
<text text-anchor="middle" x="247" y="-130.5" font-family="Helvetica,sans-Serif" font-size="10.00">Marmot/MarmotVoigt.h</text>
</a>
</g>
</g>
<!-- Node1&#45;&gt;Node2 -->
<g id="edge1" class="edge">
<title>Node1&#45;&gt;Node2</title>
<path fill="none" stroke="midnightblue" d="M245.83,-235.43C238.91,-225.79 230.67,-212.37 227,-199 222.56,-182.85 229.18,-164.64 235.97,-151.61"/>
<polygon fill="midnightblue" stroke="midnightblue" points="239.09,-153.2 241.01,-142.78 233.01,-149.73 239.09,-153.2"/>
</g>
<!-- Node4 -->
<g id="node4" class="node">
<title>Node4</title>
<g id="a_node4"><a xlink:title=" ">
<polygon fill="white" stroke="#bfbfbf" points="0,-6 0,-25 54,-25 54,-6 0,-6"/>
<text text-anchor="middle" x="27" y="-13" font-family="Helvetica,sans-Serif" font-size="10.00">iostream</text>
</a>
</g>
</g>
<!-- Node1&#45;&gt;Node4 -->
<g id="edge24" class="edge">
<title>Node1&#45;&gt;Node4</title>
<path fill="none" stroke="midnightblue" d="M177.75,-240.53C124.41,-232.75 60.7,-219.46 43,-199 2.63,-152.34 14.26,-71.59 22.26,-35.22"/>
<polygon fill="midnightblue" stroke="midnightblue" points="25.76,-35.6 24.66,-25.06 18.95,-33.99 25.76,-35.6"/>
</g>
<!-- Node11 -->
<g id="node11" class="node">
<title>Node11</title>
<g id="a_node11"><a xlink:href="HaighWestergaard_8h.html" target="_top" xlink:title=" ">
<polygon fill="white" stroke="black" points="236,-179.5 236,-198.5 376,-198.5 376,-179.5 236,-179.5"/>
<text text-anchor="middle" x="306" y="-186.5" font-family="Helvetica,sans-Serif" font-size="10.00">Marmot/HaighWestergaard.h</text>
</a>
</g>
</g>
<!-- Node1&#45;&gt;Node11 -->
<g id="edge10" class="edge">
<title>Node1&#45;&gt;Node11</title>
<path fill="none" stroke="midnightblue" d="M268.61,-235.4C275.73,-226.75 284.88,-215.64 292.35,-206.58"/>
<polygon fill="midnightblue" stroke="midnightblue" points="295.21,-208.6 298.87,-198.66 289.81,-204.15 295.21,-208.6"/>
</g>
<!-- Node12 -->
<g id="node12" class="node">
<title>Node12</title>
<g id="a_node12"><a xlink:href="MarmotConstants_8h.html" target="_top" xlink:title=" ">
<polygon fill="white" stroke="black" points="473.5,-123.5 473.5,-142.5 610.5,-142.5 610.5,-123.5 473.5,-123.5"/>
<text text-anchor="middle" x="542" y="-130.5" font-family="Helvetica,sans-Serif" font-size="10.00">Marmot/MarmotConstants.h</text>
</a>
</g>
</g>
<!-- Node1&#45;&gt;Node12 -->
<g id="edge12" class="edge">
<title>Node1&#45;&gt;Node12</title>
<path fill="none" stroke="midnightblue" d="M336.08,-242.88C402.93,-235.77 492.01,-222.23 519,-199 532.45,-187.43 538.03,-167.47 540.35,-152.71"/>
<polygon fill="midnightblue" stroke="midnightblue" points="543.84,-153.01 541.57,-142.66 536.89,-152.17 543.84,-153.01"/>
</g>
<!-- Node14 -->
<g id="node14" class="node">
<title>Node14</title>
<g id="a_node14"><a xlink:href="MarmotMath_8h.html" target="_top" xlink:title=" ">
<polygon fill="white" stroke="black" points="394.5,-179.5 394.5,-198.5 509.5,-198.5 509.5,-179.5 394.5,-179.5"/>
<text text-anchor="middle" x="452" y="-186.5" font-family="Helvetica,sans-Serif" font-size="10.00">Marmot/MarmotMath.h</text>
</a>
</g>
</g>
<!-- Node1&#45;&gt;Node14 -->
<g id="edge14" class="edge">
<title>Node1&#45;&gt;Node14</title>
<path fill="none" stroke="midnightblue" d="M303.21,-235.4C337.05,-225.07 382.42,-211.23 414.13,-201.56"/>
<polygon fill="midnightblue" stroke="midnightblue" points="415.37,-204.84 423.91,-198.57 413.32,-198.14 415.37,-204.84"/>
</g>
<!-- Node16 -->
<g id="node16" class="node">
<title>Node16</title>
<g id="a_node16"><a xlink:href="MarmotTensor_8h.html" target="_top" xlink:title=" ">
<polygon fill="white" stroke="black" points="52.5,-179.5 52.5,-198.5 175.5,-198.5 175.5,-179.5 52.5,-179.5"/>
<text text-anchor="middle" x="114" y="-186.5" font-family="Helvetica,sans-Serif" font-size="10.00">Marmot/MarmotTensor.h</text>
</a>
</g>
</g>
<!-- Node1&#45;&gt;Node16 -->
<g id="edge18" class="edge">
<title>Node1&#45;&gt;Node16</title>
<path fill="none" stroke="midnightblue" d="M223.11,-235.4C199.12,-225.42 167.23,-212.15 144.12,-202.53"/>
<polygon fill="midnightblue" stroke="midnightblue" points="145.39,-199.27 134.81,-198.66 142.7,-205.73 145.39,-199.27"/>
</g>
<!-- Node3 -->
<g id="node3" class="node">
<title>Node3</title>
<g id="a_node3"><a xlink:href="MarmotJournal_8h.html" target="_top" xlink:title=" ">
<polygon fill="white" stroke="black" points="55.5,-67.5 55.5,-86.5 180.5,-86.5 180.5,-67.5 55.5,-67.5"/>
<text text-anchor="middle" x="118" y="-74.5" font-family="Helvetica,sans-Serif" font-size="10.00">Marmot/MarmotJournal.h</text>
</a>
</g>
</g>
<!-- Node2&#45;&gt;Node3 -->
<g id="edge2" class="edge">
<title>Node2&#45;&gt;Node3</title>
<path fill="none" stroke="midnightblue" d="M226.56,-123.44C205.33,-114.56 171.9,-100.56 147.75,-90.45"/>
<polygon fill="midnightblue" stroke="midnightblue" points="148.92,-87.15 138.34,-86.52 146.22,-93.61 148.92,-87.15"/>
</g>
<!-- Node7 -->
<g id="node7" class="node">
<title>Node7</title>
<g id="a_node7"><a xlink:href="MarmotTypedefs_8h.html" target="_top" xlink:title=" ">
<polygon fill="white" stroke="black" points="262.5,-67.5 262.5,-86.5 395.5,-86.5 395.5,-67.5 262.5,-67.5"/>
<text text-anchor="middle" x="329" y="-74.5" font-family="Helvetica,sans-Serif" font-size="10.00">Marmot/MarmotTypedefs.h</text>
</a>
</g>
</g>
<!-- Node2&#45;&gt;Node7 -->
<g id="edge6" class="edge">
<title>Node2&#45;&gt;Node7</title>
<path fill="none" stroke="midnightblue" d="M260.17,-123.32C272.85,-114.98 292.23,-102.21 307.21,-92.35"/>
<polygon fill="midnightblue" stroke="midnightblue" points="309.43,-95.08 315.86,-86.65 305.58,-89.23 309.43,-95.08"/>
</g>
<!-- Node3&#45;&gt;Node4 -->
<g id="edge3" class="edge">
<title>Node3&#45;&gt;Node4</title>
<path fill="none" stroke="midnightblue" d="M104.96,-67.48C90.23,-57.84 66.03,-42.02 48.49,-30.55"/>
<polygon fill="midnightblue" stroke="midnightblue" points="50.3,-27.55 40.01,-25.01 46.47,-33.41 50.3,-27.55"/>
</g>
<!-- Node5 -->
<g id="node5" class="node">
<title>Node5</title>
<g id="a_node5"><a xlink:title=" ">
<polygon fill="white" stroke="#bfbfbf" points="78,-6 78,-25 130,-25 130,-6 78,-6"/>
<text text-anchor="middle" x="104" y="-13" font-family="Helvetica,sans-Serif" font-size="10.00">sstream</text>
</a>
</g>
</g>
<!-- Node3&#45;&gt;Node5 -->
<g id="edge4" class="edge">
<title>Node3&#45;&gt;Node5</title>
<path fill="none" stroke="midnightblue" d="M115.99,-67.48C114,-58.99 110.87,-45.7 108.31,-34.82"/>
<polygon fill="midnightblue" stroke="midnightblue" points="111.7,-33.94 106,-25.01 104.89,-35.54 111.7,-33.94"/>
</g>
<!-- Node6 -->
<g id="node6" class="node">
<title>Node6</title>
<g id="a_node6"><a xlink:title=" ">
<polygon fill="white" stroke="#bfbfbf" points="148.5,-6 148.5,-25 189.5,-25 189.5,-6 148.5,-6"/>
<text text-anchor="middle" x="169" y="-13" font-family="Helvetica,sans-Serif" font-size="10.00">string</text>
</a>
</g>
</g>
<!-- Node3&#45;&gt;Node6 -->
<g id="edge5" class="edge">
<title>Node3&#45;&gt;Node6</title>
<path fill="none" stroke="midnightblue" d="M125.31,-67.48C133.03,-58.46 145.41,-44.02 155.02,-32.81"/>
<polygon fill="midnightblue" stroke="midnightblue" points="157.86,-34.88 161.71,-25.01 152.54,-30.32 157.86,-34.88"/>
</g>
<!-- Node8 -->
<g id="node8" class="node">
<title>Node8</title>
<g id="a_node8"><a xlink:title=" ">
<polygon fill="white" stroke="#bfbfbf" points="211,-6 211,-25 275,-25 275,-6 211,-6"/>
<text text-anchor="middle" x="243" y="-13" font-family="Helvetica,sans-Serif" font-size="10.00">Eigen/Core</text>
</a>
</g>
</g>
<!-- Node7&#45;&gt;Node8 -->
<g id="edge7" class="edge">
<title>Node7&#45;&gt;Node8</title>
<path fill="none" stroke="midnightblue" d="M316.68,-67.48C302.88,-57.93 280.3,-42.31 263.77,-30.87"/>
<polygon fill="midnightblue" stroke="midnightblue" points="265.51,-27.82 255.3,-25.01 261.53,-33.58 265.51,-27.82"/>
</g>
<!-- Node9 -->
<g id="node9" class="node">
<title>Node9</title>
<g id="a_node9"><a xlink:title=" ">
<polygon fill="white" stroke="#bfbfbf" points="293.5,-6 293.5,-25 364.5,-25 364.5,-6 293.5,-6"/>
<text text-anchor="middle" x="329" y="-13" font-family="Helvetica,sans-Serif" font-size="10.00">Eigen/Dense</text>
</a>
</g>
</g>
<!-- Node7&#45;&gt;Node9 -->
<g id="edge8" class="edge">
<title>Node7&#45;&gt;Node9</title>
<path fill="none" stroke="midnightblue" d="M329,-67.48C329,-59.08 329,-45.98 329,-35.16"/>
<polygon fill="midnightblue" stroke="midnightblue" points="332.5,-35.01 329,-25.01 325.5,-35.01 332.5,-35.01"/>
</g>
<!-- Node10 -->
<g id="node10" class="node">
<title>Node10</title>
<g id="a_node10"><a xlink:title=" ">
<polygon fill="white" stroke="#bfbfbf" points="382.5,-0.5 382.5,-30.5 513.5,-30.5 513.5,-0.5 382.5,-0.5"/>
<text text-anchor="start" x="390.5" y="-18.5" font-family="Helvetica,sans-Serif" font-size="10.00">unsupported/Eigen/CXX11</text>
<text text-anchor="middle" x="448" y="-7.5" font-family="Helvetica,sans-Serif" font-size="10.00">/Tensor</text>
</a>
</g>
</g>
<!-- Node7&#45;&gt;Node10 -->
<g id="edge9" class="edge">
<title>Node7&#45;&gt;Node10</title>
<path fill="none" stroke="midnightblue" d="M346.05,-67.48C362.92,-59.04 389.29,-45.86 410.98,-35.01"/>
<polygon fill="midnightblue" stroke="midnightblue" points="412.58,-38.13 419.95,-30.52 409.44,-31.86 412.58,-38.13"/>
</g>
<!-- Node11&#45;&gt;Node7 -->
<g id="edge11" class="edge">
<title>Node11&#45;&gt;Node7</title>
<path fill="none" stroke="midnightblue" d="M307.8,-179.37C311.52,-161.62 320.08,-120.67 325.11,-96.6"/>
<polygon fill="midnightblue" stroke="midnightblue" points="328.58,-97.1 327.2,-86.59 321.73,-95.66 328.58,-97.1"/>
</g>
<!-- Node13 -->
<g id="node13" class="node">
<title>Node13</title>
<g id="a_node13"><a xlink:title=" ">
<polygon fill="white" stroke="#bfbfbf" points="520,-67.5 520,-86.5 564,-86.5 564,-67.5 520,-67.5"/>
<text text-anchor="middle" x="542" y="-74.5" font-family="Helvetica,sans-Serif" font-size="10.00">cmath</text>
</a>
</g>
</g>
<!-- Node12&#45;&gt;Node13 -->
<g id="edge13" class="edge">
<title>Node12&#45;&gt;Node13</title>
<path fill="none" stroke="midnightblue" d="M542,-123.08C542,-116.01 542,-105.86 542,-96.99"/>
<polygon fill="midnightblue" stroke="midnightblue" points="545.5,-96.75 542,-86.75 538.5,-96.75 545.5,-96.75"/>
</g>
<!-- Node14&#45;&gt;Node7 -->
<g id="edge16" class="edge">
<title>Node14&#45;&gt;Node7</title>
<path fill="none" stroke="midnightblue" d="M438.63,-179.37C425.69,-170.78 405.76,-156.9 390,-143 372.69,-127.75 354.86,-108.22 342.98,-94.57"/>
<polygon fill="midnightblue" stroke="midnightblue" points="345.58,-92.22 336.41,-86.91 340.27,-96.78 345.58,-92.22"/>
</g>
<!-- Node14&#45;&gt;Node12 -->
<g id="edge15" class="edge">
<title>Node14&#45;&gt;Node12</title>
<path fill="none" stroke="midnightblue" d="M466.46,-179.32C480.5,-170.9 502.05,-157.97 518.54,-148.07"/>
<polygon fill="midnightblue" stroke="midnightblue" points="520.8,-150.8 527.58,-142.65 517.2,-144.8 520.8,-150.8"/>
</g>
<!-- Node15 -->
<g id="node15" class="node">
<title>Node15</title>
<g id="a_node15"><a xlink:title=" ">
<polygon fill="white" stroke="#bfbfbf" points="399,-123.5 399,-142.5 455,-142.5 455,-123.5 399,-123.5"/>
<text text-anchor="middle" x="427" y="-130.5" font-family="Helvetica,sans-Serif" font-size="10.00">algorithm</text>
</a>
</g>
</g>
<!-- Node14&#45;&gt;Node15 -->
<g id="edge17" class="edge">
<title>Node14&#45;&gt;Node15</title>
<path fill="none" stroke="midnightblue" d="M447.87,-179.08C444.49,-171.77 439.58,-161.18 435.38,-152.1"/>
<polygon fill="midnightblue" stroke="midnightblue" points="438.43,-150.36 431.05,-142.75 432.08,-153.3 438.43,-150.36"/>
</g>
<!-- Node16&#45;&gt;Node2 -->
<g id="edge21" class="edge">
<title>Node16&#45;&gt;Node2</title>
<path fill="none" stroke="midnightblue" d="M135.07,-179.44C157.06,-170.52 191.73,-156.44 216.66,-146.32"/>
<polygon fill="midnightblue" stroke="midnightblue" points="218.08,-149.52 226.02,-142.52 215.44,-143.04 218.08,-149.52"/>
</g>
<!-- Node16&#45;&gt;Node3 -->
<g id="edge19" class="edge">
<title>Node16&#45;&gt;Node3</title>
<path fill="none" stroke="midnightblue" d="M105.38,-179.42C94.22,-167.21 76.97,-143.98 84,-123 87.6,-112.25 94.9,-102.02 101.82,-94.04"/>
<polygon fill="midnightblue" stroke="midnightblue" points="104.48,-96.32 108.71,-86.61 99.35,-91.56 104.48,-96.32"/>
</g>
<!-- Node16&#45;&gt;Node4 -->
<g id="edge22" class="edge">
<title>Node16&#45;&gt;Node4</title>
<path fill="none" stroke="midnightblue" d="M106.68,-179.29C99.35,-170.4 87.9,-156.1 79,-143 62.77,-119.1 57.19,-113.63 46,-87 38.95,-70.22 33.83,-50.08 30.69,-35.63"/>
<polygon fill="midnightblue" stroke="midnightblue" points="34.04,-34.53 28.6,-25.44 27.18,-35.93 34.04,-34.53"/>
</g>
<!-- Node16&#45;&gt;Node7 -->
<g id="edge20" class="edge">
<title>Node16&#45;&gt;Node7</title>
<path fill="none" stroke="midnightblue" d="M120.69,-179.05C131.59,-165.07 154.55,-138.1 180,-123 207.54,-106.66 241.52,-95.8 270.07,-88.85"/>
<polygon fill="midnightblue" stroke="midnightblue" points="270.98,-92.24 279.93,-86.56 269.39,-85.42 270.98,-92.24"/>
</g>
<!-- Node17 -->
<g id="node17" class="node">
<title>Node17</title>
<g id="a_node17"><a xlink:title=" ">
<polygon fill="white" stroke="#bfbfbf" points="93.5,-123.5 93.5,-142.5 132.5,-142.5 132.5,-123.5 93.5,-123.5"/>
<text text-anchor="middle" x="113" y="-130.5" font-family="Helvetica,sans-Serif" font-size="10.00">utility</text>
</a>
</g>
</g>
<!-- Node16&#45;&gt;Node17 -->
<g id="edge23" class="edge">
<title>Node16&#45;&gt;Node17</title>
<path fill="none" stroke="midnightblue" d="M113.83,-179.08C113.7,-172.01 113.52,-161.86 113.35,-152.99"/>
<polygon fill="midnightblue" stroke="midnightblue" points="116.85,-152.68 113.16,-142.75 109.85,-152.81 116.85,-152.68"/>
</g>
</g>
</svg>
        <g id="navigator" transform="translate(0 0)" fill="#404254">
                <rect fill="#f2f5e9" fill-opacity="0.5" stroke="#606060" stroke-width=".5" x="0" y="0" width="60" height="60"/>
                <use id="zoomplus" xlink:href="#zoomPlus" x="17" y="9" onmousedown="handleZoom(evt,'in')"/>
                <use id="zoomminus" xlink:href="#zoomMin" x="42" y="9" onmousedown="handleZoom(evt,'out')"/>
                <use id="reset" xlink:href="#resetDef" x="30" y="36" onmousedown="handleReset()"/>
                <g id="arrowUp" xlink:href="#dirArrow" transform="translate(30 24)" onmousedown="handlePan(0,-1)">
                  <use xlink:href="#rim" fill="#404040">
                        <set attributeName="fill" to="#808080" begin="arrowUp.mouseover" end="arrowUp.mouseout"/>
                  </use>
                  <path fill="none" stroke="white" stroke-width="1.5" d="M0,-3.0v7 M-2.5,-0.5L0,-3.0L2.5,-0.5"/>
                </g>
                <g id="arrowRight" xlink:href="#dirArrow" transform="rotate(90) translate(36 -43)" onmousedown="handlePan(1,0)">
                  <use xlink:href="#rim" fill="#404040">
                        <set attributeName="fill" to="#808080" begin="arrowRight.mouseover" end="arrowRight.mouseout"/>
                  </use>
                  <path fill="none" stroke="white" stroke-width="1.5" d="M0,-3.0v7 M-2.5,-0.5L0,-3.0L2.5,-0.5"/>
                </g>
                <g id="arrowDown" xlink:href="#dirArrow" transform="rotate(180) translate(-30 -48)" onmousedown="handlePan(0,1)">
                  <use xlink:href="#rim" fill="#404040">
                        <set attributeName="fill" to="#808080" begin="arrowDown.mouseover" end="arrowDown.mouseout"/>
                  </use>
                  <path fill="none" stroke="white" stroke-width="1.5" d="M0,-3.0v7 M-2.5,-0.5L0,-3.0L2.5,-0.5"/>
                </g>
                <g id="arrowLeft" xlink:href="#dirArrow" transform="rotate(270) translate(-36 17)" onmousedown="handlePan(-1,0)">
                  <use xlink:href="#rim" fill="#404040">
                        <set attributeName="fill" to="#808080" begin="arrowLeft.mouseover" end="arrowLeft.mouseout"/>
                  </use>
                  <path fill="none" stroke="white" stroke-width="1.5" d="M0,-3.0v7 M-2.5,-0.5L0,-3.0L2.5,-0.5"/>
                </g>
        </g>
        <svg viewBox="0 0 15 15" width="100%" height="30px" preserveAspectRatio="xMaxYMin meet">
         <g id="arrow_out" transform="scale(0.3 0.3)">
          <a xlink:href="MarmotVoigt_8cpp__incl_org.svg" target="_base">
           <rect id="button" ry="5" rx="5" y="6" x="6" height="38" width="38"
                fill="#f2f5e9" fill-opacity="0.5" stroke="#606060" stroke-width="1.0"/>
           <path id="arrow"
             d="M 11.500037,31.436501 C 11.940474,20.09759 22.043105,11.32322 32.158766,21.979434 L 37.068811,17.246167 C 37.068811,17.246167 37.088388,32 37.088388,32 L 22.160133,31.978069 C 22.160133,31.978069 26.997745,27.140456 26.997745,27.140456 C 18.528582,18.264221 13.291696,25.230495 11.500037,31.436501 z"
             style="fill:#404040;"/>
          </a>
         </g>
        </svg>
</svg>
