<?xml version="1.0" encoding="UTF-8" standalone="no"?>
<!DOCTYPE svg PUBLIC "-//W3C//DTD SVG 1.1//EN"
 "http://www.w3.org/Graphics/SVG/1.1/DTD/svg11.dtd">
<!-- Generated by graphviz version 2.44.0 ()
 -->
<!-- Title: modules/core/MarmotMechanicsCore/include/Marmot/MarmotMaterialHypoElasticAD.h Pages: 1 -->
<!--zoomable 195 -->
<svg id="main" version="1.1" xmlns="http://www.w3.org/2000/svg" xmlns:xlink="http://www.w3.org/1999/xlink" xml:space="preserve" onload="init(evt)">
<style type="text/css"><![CDATA[
.edge:hover path { stroke: red; }
.edge:hover polygon { stroke: red; fill: red; }
]]></style>
<script type="text/javascript"><![CDATA[
var edges = document.getElementsByTagName('g');
if (edges && edges.length) {
  for (var i=0;i<edges.length;i++) {
    if (edges[i].id.substr(0,4)=='edge') {
      edges[i].setAttribute('class','edge');
    }
  }
}
]]></script>
        <defs>
                <circle id="rim" cx="0" cy="0" r="7"/>
                <circle id="rim2" cx="0" cy="0" r="3.5"/>
                <g id="zoomPlus">
                        <use xlink:href="#rim" fill="#404040">
                                <set attributeName="fill" to="#808080" begin="zoomplus.mouseover" end="zoomplus.mouseout"/>
                        </use>
                        <path d="M-4,0h8M0,-4v8" fill="none" stroke="white" stroke-width="1.5" pointer-events="none"/>
                </g>
                <g id="zoomMin">
                        <use xlink:href="#rim" fill="#404040">
                                <set attributeName="fill" to="#808080" begin="zoomminus.mouseover" end="zoomminus.mouseout"/>
                        </use>
                        <path d="M-4,0h8" fill="none" stroke="white" stroke-width="1.5" pointer-events="none"/>
                </g>
                <g id="dirArrow">
                        <path fill="none" stroke="white" stroke-width="1.5" d="M0,-3.0v7 M-2.5,-0.5L0,-3.0L2.5,-0.5"/>
                </g>
               <g id="resetDef">
                       <use xlink:href="#rim2" fill="#404040">
                               <set attributeName="fill" to="#808080" begin="reset.mouseover" end="reset.mouseout"/>
                       </use>
               </g>
        </defs>

<script type="text/javascript">
var viewWidth = 740;
var viewHeight = 195;
var sectionId = 'dynsection-1';
</script>
<script xlink:href="svgpan.js"/>
<svg id="graph" class="graph">
<g id="viewport">
<title>modules/core/MarmotMechanicsCore/include/Marmot/MarmotMaterialHypoElasticAD.h</title>
<polygon fill="white" stroke="transparent" points="-4,4 -4,-191 736,-191 736,4 -4,4"/>
<!-- Node1 -->
<g id="node1" class="node">
<title>Node1</title>
<g id="a_node1"><a xlink:title=" ">
<polygon fill="#bfbfbf" stroke="black" points="185,-145.5 185,-186.5 362,-186.5 362,-145.5 185,-145.5"/>
<text text-anchor="start" x="193" y="-174.5" font-family="Helvetica,sans-Serif" font-size="10.00">modules/core/MarmotMechanics</text>
<text text-anchor="start" x="193" y="-163.5" font-family="Helvetica,sans-Serif" font-size="10.00">Core/include/Marmot/MarmotMaterial</text>
<text text-anchor="middle" x="273.5" y="-152.5" font-family="Helvetica,sans-Serif" font-size="10.00">HypoElasticAD.h</text>
</a>
</g>
</g>
<!-- Node2 -->
<g id="node2" class="node">
<title>Node2</title>
<g id="a_node2"><a xlink:href="MarmotMaterialHypoElasticAD_8cpp.html" target="_top" xlink:title=" ">
<polygon fill="white" stroke="black" points="9.5,-67.5 9.5,-108.5 185.5,-108.5 185.5,-67.5 9.5,-67.5"/>
<text text-anchor="start" x="17.5" y="-96.5" font-family="Helvetica,sans-Serif" font-size="10.00">modules/core/MarmotMechanics</text>
<text text-anchor="start" x="17.5" y="-85.5" font-family="Helvetica,sans-Serif" font-size="10.00">Core/src/MarmotMaterialHypoElastic</text>
<text text-anchor="middle" x="97.5" y="-74.5" font-family="Helvetica,sans-Serif" font-size="10.00">AD.cpp</text>
</a>
</g>
</g>
<!-- Node1&#45;&gt;Node2 -->
<g id="edge1" class="edge">
<title>Node1&#45;&gt;Node2</title>
<path fill="none" stroke="midnightblue" d="M218.68,-141.33C194.26,-130.78 165.85,-118.51 142.67,-108.51"/>
<polygon fill="midnightblue" stroke="midnightblue" points="217.61,-144.68 228.18,-145.43 220.38,-138.25 217.61,-144.68"/>
</g>
<!-- Node3 -->
<g id="node3" class="node">
<title>Node3</title>
<g id="a_node3"><a xlink:href="ADLinearElastic_8h.html" target="_top" xlink:title=" ">
<polygon fill="white" stroke="black" points="203.5,-67.5 203.5,-108.5 343.5,-108.5 343.5,-67.5 203.5,-67.5"/>
<text text-anchor="start" x="211.5" y="-96.5" font-family="Helvetica,sans-Serif" font-size="10.00">modules/materials/ADLinear</text>
<text text-anchor="start" x="211.5" y="-85.5" font-family="Helvetica,sans-Serif" font-size="10.00">Elastic/include/Marmot</text>
<text text-anchor="middle" x="273.5" y="-74.5" font-family="Helvetica,sans-Serif" font-size="10.00">/ADLinearElastic.h</text>
</a>
</g>
</g>
<!-- Node1&#45;&gt;Node3 -->
<g id="edge2" class="edge">
<title>Node1&#45;&gt;Node3</title>
<path fill="none" stroke="midnightblue" d="M273.5,-135.3C273.5,-126.3 273.5,-116.65 273.5,-108.51"/>
<polygon fill="midnightblue" stroke="midnightblue" points="270,-135.43 273.5,-145.43 277,-135.43 270,-135.43"/>
</g>
<!-- Node6 -->
<g id="node6" class="node">
<title>Node6</title>
<g id="a_node6"><a xlink:href="ADVonMises_8h.html" target="_top" xlink:title=" ">
<polygon fill="white" stroke="black" points="394.5,-73 394.5,-103 550.5,-103 550.5,-73 394.5,-73"/>
<text text-anchor="start" x="402.5" y="-91" font-family="Helvetica,sans-Serif" font-size="10.00">modules/materials/ADVonMises</text>
<text text-anchor="middle" x="472.5" y="-80" font-family="Helvetica,sans-Serif" font-size="10.00">/include/Marmot/ADVonMises.h</text>
</a>
</g>
</g>
<!-- Node1&#45;&gt;Node6 -->
<g id="edge5" class="edge">
<title>Node1&#45;&gt;Node6</title>
<path fill="none" stroke="midnightblue" d="M334.32,-141.77C367.38,-129.15 407.18,-113.94 435.56,-103.11"/>
<polygon fill="midnightblue" stroke="midnightblue" points="332.84,-138.59 324.75,-145.43 335.34,-145.13 332.84,-138.59"/>
</g>
<!-- Node4 -->
<g id="node4" class="node">
<title>Node4</title>
<g id="a_node4"><a xlink:href="ADLinearElastic_8cpp.html" target="_top" xlink:title=" ">
<polygon fill="white" stroke="black" points="0,-0.5 0,-30.5 153,-30.5 153,-0.5 0,-0.5"/>
<text text-anchor="start" x="8" y="-18.5" font-family="Helvetica,sans-Serif" font-size="10.00">modules/materials/ADLinear</text>
<text text-anchor="middle" x="76.5" y="-7.5" font-family="Helvetica,sans-Serif" font-size="10.00">Elastic/src/ADLinearElastic.cpp</text>
</a>
</g>
</g>
<!-- Node3&#45;&gt;Node4 -->
<g id="edge3" class="edge">
<title>Node3&#45;&gt;Node4</title>
<path fill="none" stroke="midnightblue" d="M209.1,-63.95C178.35,-52.95 142.54,-40.13 115.89,-30.6"/>
<polygon fill="midnightblue" stroke="midnightblue" points="208.29,-67.38 218.89,-67.46 210.65,-60.79 208.29,-67.38"/>
</g>
<!-- Node5 -->
<g id="node5" class="node">
<title>Node5</title>
<g id="a_node5"><a xlink:href="ADLinearElasticRegistration_8cpp.html" target="_top" xlink:title=" ">
<polygon fill="white" stroke="black" points="171,-0.5 171,-30.5 376,-30.5 376,-0.5 171,-0.5"/>
<text text-anchor="start" x="179" y="-18.5" font-family="Helvetica,sans-Serif" font-size="10.00">modules/materials/ADLinear</text>
<text text-anchor="middle" x="273.5" y="-7.5" font-family="Helvetica,sans-Serif" font-size="10.00">Elastic/src/ADLinearElasticRegistration.cpp</text>
</a>
</g>
</g>
<!-- Node3&#45;&gt;Node5 -->
<g id="edge4" class="edge">
<title>Node3&#45;&gt;Node5</title>
<path fill="none" stroke="midnightblue" d="M273.5,-57.08C273.5,-48.01 273.5,-38.45 273.5,-30.89"/>
<polygon fill="midnightblue" stroke="midnightblue" points="270,-57.36 273.5,-67.36 277,-57.36 270,-57.36"/>
</g>
<!-- Node7 -->
<g id="node7" class="node">
<title>Node7</title>
<g id="a_node7"><a xlink:href="ADVonMises_8cpp.html" target="_top" xlink:title=" ">
<polygon fill="white" stroke="black" points="394.5,-0.5 394.5,-30.5 550.5,-30.5 550.5,-0.5 394.5,-0.5"/>
<text text-anchor="start" x="402.5" y="-18.5" font-family="Helvetica,sans-Serif" font-size="10.00">modules/materials/ADVonMises</text>
<text text-anchor="middle" x="472.5" y="-7.5" font-family="Helvetica,sans-Serif" font-size="10.00">/src/ADVonMises.cpp</text>
</a>
</g>
</g>
<!-- Node6&#45;&gt;Node7 -->
<g id="edge6" class="edge">
<title>Node6&#45;&gt;Node7</title>
<path fill="none" stroke="midnightblue" d="M472.5,-62.73C472.5,-52.07 472.5,-39.91 472.5,-30.75"/>
<polygon fill="midnightblue" stroke="midnightblue" points="469,-62.73 472.5,-72.73 476,-62.73 469,-62.73"/>
</g>
<!-- Node8 -->
<g id="node8" class="node">
<title>Node8</title>
<g id="a_node8"><a xlink:href="ADVonMisesRegistration_8cpp.html" target="_top" xlink:title=" ">
<polygon fill="white" stroke="black" points="569,-0.5 569,-30.5 732,-30.5 732,-0.5 569,-0.5"/>
<text text-anchor="start" x="577" y="-18.5" font-family="Helvetica,sans-Serif" font-size="10.00">modules/materials/ADVonMises</text>
<text text-anchor="middle" x="650.5" y="-7.5" font-family="Helvetica,sans-Serif" font-size="10.00">/src/ADVonMisesRegistration.cpp</text>
</a>
</g>
</g>
<!-- Node6&#45;&gt;Node8 -->
<g id="edge7" class="edge">
<title>Node6&#45;&gt;Node8</title>
<path fill="none" stroke="midnightblue" d="M517.56,-69.15C547.76,-57.19 586.97,-41.66 614.97,-30.57"/>
<polygon fill="midnightblue" stroke="midnightblue" points="516.1,-65.97 508.09,-72.9 518.68,-72.47 516.1,-65.97"/>
</g>
</g>
</svg>
        <g id="navigator" transform="translate(0 0)" fill="#404254">
                <rect fill="#f2f5e9" fill-opacity="0.5" stroke="#606060" stroke-width=".5" x="0" y="0" width="60" height="60"/>
                <use id="zoomplus" xlink:href="#zoomPlus" x="17" y="9" onmousedown="handleZoom(evt,'in')"/>
                <use id="zoomminus" xlink:href="#zoomMin" x="42" y="9" onmousedown="handleZoom(evt,'out')"/>
                <use id="reset" xlink:href="#resetDef" x="30" y="36" onmousedown="handleReset()"/>
                <g id="arrowUp" xlink:href="#dirArrow" transform="translate(30 24)" onmousedown="handlePan(0,-1)">
                  <use xlink:href="#rim" fill="#404040">
                        <set attributeName="fill" to="#808080" begin="arrowUp.mouseover" end="arrowUp.mouseout"/>
                  </use>
                  <path fill="none" stroke="white" stroke-width="1.5" d="M0,-3.0v7 M-2.5,-0.5L0,-3.0L2.5,-0.5"/>
                </g>
                <g id="arrowRight" xlink:href="#dirArrow" transform="rotate(90) translate(36 -43)" onmousedown="handlePan(1,0)">
                  <use xlink:href="#rim" fill="#404040">
                        <set attributeName="fill" to="#808080" begin="arrowRight.mouseover" end="arrowRight.mouseout"/>
                  </use>
                  <path fill="none" stroke="white" stroke-width="1.5" d="M0,-3.0v7 M-2.5,-0.5L0,-3.0L2.5,-0.5"/>
                </g>
                <g id="arrowDown" xlink:href="#dirArrow" transform="rotate(180) translate(-30 -48)" onmousedown="handlePan(0,1)">
                  <use xlink:href="#rim" fill="#404040">
                        <set attributeName="fill" to="#808080" begin="arrowDown.mouseover" end="arrowDown.mouseout"/>
                  </use>
                  <path fill="none" stroke="white" stroke-width="1.5" d="M0,-3.0v7 M-2.5,-0.5L0,-3.0L2.5,-0.5"/>
                </g>
                <g id="arrowLeft" xlink:href="#dirArrow" transform="rotate(270) translate(-36 17)" onmousedown="handlePan(-1,0)">
                  <use xlink:href="#rim" fill="#404040">
                        <set attributeName="fill" to="#808080" begin="arrowLeft.mouseover" end="arrowLeft.mouseout"/>
                  </use>
                  <path fill="none" stroke="white" stroke-width="1.5" d="M0,-3.0v7 M-2.5,-0.5L0,-3.0L2.5,-0.5"/>
                </g>
        </g>
        <svg viewBox="0 0 15 15" width="100%" height="30px" preserveAspectRatio="xMaxYMin meet">
         <g id="arrow_out" transform="scale(0.3 0.3)">
          <a xlink:href="MarmotMaterialHypoElasticAD_8h__dep__incl_org.svg" target="_base">
           <rect id="button" ry="5" rx="5" y="6" x="6" height="38" width="38"
                fill="#f2f5e9" fill-opacity="0.5" stroke="#606060" stroke-width="1.0"/>
           <path id="arrow"
             d="M 11.500037,31.436501 C 11.940474,20.09759 22.043105,11.32322 32.158766,21.979434 L 37.068811,17.246167 C 37.068811,17.246167 37.088388,32 37.088388,32 L 22.160133,31.978069 C 22.160133,31.978069 26.997745,27.140456 26.997745,27.140456 C 18.528582,18.264221 13.291696,25.230495 11.500037,31.436501 z"
             style="fill:#404040;"/>
          </a>
         </g>
        </svg>
</svg>
