<?xml version="1.0" encoding="UTF-8" standalone="no"?>
<!DOCTYPE svg PUBLIC "-//W3C//DTD SVG 1.1//EN"
 "http://www.w3.org/Graphics/SVG/1.1/DTD/svg11.dtd">
<!-- Generated by graphviz version 2.47.1 (20210421.1823)
 -->
<!-- Title: modules/core/MarmotMechanicsCore/src/MarmotMaterialHyperElastic.cpp Pages: 1 -->
<svg width="923pt" height="274pt"
 viewBox="0.00 0.00 923.00 274.00" xmlns="http://www.w3.org/2000/svg" xmlns:xlink="http://www.w3.org/1999/xlink">
<g id="graph0" class="graph" transform="scale(1 1) rotate(0) translate(4 270)">
<title>modules/core/MarmotMechanicsCore/src/MarmotMaterialHyperElastic.cpp</title>
<polygon fill="white" stroke="transparent" points="-4,4 -4,-270 919,-270 919,4 -4,4"/>
<!-- Node1 -->
<g id="node1" class="node">
<title>Node1</title>
<g id="a_node1"><a xlink:title=" ">
<polygon fill="#bfbfbf" stroke="black" points="327,-235.5 327,-265.5 524,-265.5 524,-235.5 327,-235.5"/>
<text text-anchor="start" x="335" y="-253.5" font-family="Helvetica,sans-Serif" font-size="10.00">modules/core/MarmotMechanics</text>
<text text-anchor="middle" x="425.5" y="-242.5" font-family="Helvetica,sans-Serif" font-size="10.00">Core/src/MarmotMaterialHyperElastic.cpp</text>
</a>
</g>
</g>
<!-- Node2 -->
<g id="node2" class="node">
<title>Node2</title>
<g id="a_node2"><a xlink:href="MarmotMaterialHyperElastic_8h.html" target="_top" xlink:title=" ">
<polygon fill="white" stroke="black" points="23.5,-168.5 23.5,-198.5 169.5,-198.5 169.5,-168.5 23.5,-168.5"/>
<text text-anchor="start" x="31.5" y="-186.5" font-family="Helvetica,sans-Serif" font-size="10.00">Marmot/MarmotMaterialHyper</text>
<text text-anchor="middle" x="96.5" y="-175.5" font-family="Helvetica,sans-Serif" font-size="10.00">Elastic.h</text>
</a>
</g>
</g>
<!-- Node1&#45;&gt;Node2 -->
<g id="edge1" class="edge">
<title>Node1&#45;&gt;Node2</title>
<path fill="none" stroke="midnightblue" d="M354.52,-235.48C302.5,-225.2 231.8,-211.23 177.57,-200.52"/>
<polygon fill="midnightblue" stroke="midnightblue" points="178.13,-197.06 167.64,-198.55 176.77,-203.93 178.13,-197.06"/>
</g>
<!-- Node7 -->
<g id="node7" class="node">
<title>Node7</title>
<g id="a_node7"><a xlink:title=" ">
<polygon fill="white" stroke="#bfbfbf" points="504,-174 504,-193 641,-193 641,-174 504,-174"/>
<text text-anchor="middle" x="572.5" y="-181" font-family="Helvetica,sans-Serif" font-size="10.00">Marmot/MarmotConstants.h</text>
</a>
</g>
</g>
<!-- Node1&#45;&gt;Node7 -->
<g id="edge6" class="edge">
<title>Node1&#45;&gt;Node7</title>
<path fill="none" stroke="midnightblue" d="M457.4,-235.4C483.19,-223.99 519.17,-208.08 544.01,-197.1"/>
<polygon fill="midnightblue" stroke="midnightblue" points="545.53,-200.25 553.26,-193.01 542.7,-193.85 545.53,-200.25"/>
</g>
<!-- Node8 -->
<g id="node8" class="node">
<title>Node8</title>
<g id="a_node8"><a xlink:href="MarmotJournal_8h.html" target="_top" xlink:title=" ">
<polygon fill="white" stroke="black" points="171,-56.5 171,-75.5 296,-75.5 296,-56.5 171,-56.5"/>
<text text-anchor="middle" x="233.5" y="-63.5" font-family="Helvetica,sans-Serif" font-size="10.00">Marmot/MarmotJournal.h</text>
</a>
</g>
</g>
<!-- Node1&#45;&gt;Node8 -->
<g id="edge7" class="edge">
<title>Node1&#45;&gt;Node8</title>
<path fill="none" stroke="midnightblue" d="M364.57,-235.42C337.9,-227.45 307.15,-215.65 282.5,-199 249.62,-176.79 237.51,-169.12 223.5,-132 217.77,-116.83 221.48,-98.48 225.91,-85.16"/>
<polygon fill="midnightblue" stroke="midnightblue" points="229.23,-86.29 229.46,-75.7 222.67,-83.83 229.23,-86.29"/>
</g>
<!-- Node9 -->
<g id="node9" class="node">
<title>Node9</title>
<g id="a_node9"><a xlink:title=" ">
<polygon fill="white" stroke="#bfbfbf" points="366.5,-0.5 366.5,-19.5 420.5,-19.5 420.5,-0.5 366.5,-0.5"/>
<text text-anchor="middle" x="393.5" y="-7.5" font-family="Helvetica,sans-Serif" font-size="10.00">iostream</text>
</a>
</g>
</g>
<!-- Node1&#45;&gt;Node9 -->
<g id="edge20" class="edge">
<title>Node1&#45;&gt;Node9</title>
<path fill="none" stroke="midnightblue" d="M437.04,-235.49C444.19,-225.88 452.7,-212.46 456.5,-199 473.78,-137.84 485.58,-112.51 456.5,-56 449.42,-42.25 435.98,-31.77 423.32,-24.39"/>
<polygon fill="midnightblue" stroke="midnightblue" points="424.81,-21.22 414.35,-19.57 421.5,-27.39 424.81,-21.22"/>
</g>
<!-- Node11 -->
<g id="node11" class="node">
<title>Node11</title>
<g id="a_node11"><a xlink:href="MarmotKinematics_8h.html" target="_top" xlink:title=" ">
<polygon fill="white" stroke="black" points="305.5,-174 305.5,-193 447.5,-193 447.5,-174 305.5,-174"/>
<text text-anchor="middle" x="376.5" y="-181" font-family="Helvetica,sans-Serif" font-size="10.00">Marmot/MarmotKinematics.h</text>
</a>
</g>
</g>
<!-- Node1&#45;&gt;Node11 -->
<g id="edge11" class="edge">
<title>Node1&#45;&gt;Node11</title>
<path fill="none" stroke="midnightblue" d="M414.87,-235.4C407.3,-225.36 397.11,-211.84 389.13,-201.25"/>
<polygon fill="midnightblue" stroke="midnightblue" points="391.87,-199.07 383.05,-193.19 386.28,-203.29 391.87,-199.07"/>
</g>
<!-- Node13 -->
<g id="node13" class="node">
<title>Node13</title>
<g id="a_node13"><a xlink:href="MarmotVoigt_8h.html" target="_top" xlink:title=" ">
<polygon fill="white" stroke="black" points="232.5,-112.5 232.5,-131.5 348.5,-131.5 348.5,-112.5 232.5,-112.5"/>
<text text-anchor="middle" x="290.5" y="-119.5" font-family="Helvetica,sans-Serif" font-size="10.00">Marmot/MarmotVoigt.h</text>
</a>
</g>
</g>
<!-- Node1&#45;&gt;Node13 -->
<g id="edge19" class="edge">
<title>Node1&#45;&gt;Node13</title>
<path fill="none" stroke="midnightblue" d="M349.73,-235.39C329.39,-227.91 309.47,-216.48 296.5,-199 284.33,-182.59 284.65,-158.33 286.83,-141.66"/>
<polygon fill="midnightblue" stroke="midnightblue" points="290.33,-141.96 288.5,-131.52 283.42,-140.82 290.33,-141.96"/>
</g>
<!-- Node14 -->
<g id="node14" class="node">
<title>Node14</title>
<g id="a_node14"><a xlink:title=" ">
<polygon fill="white" stroke="#bfbfbf" points="659,-174 659,-193 774,-193 774,-174 659,-174"/>
<text text-anchor="middle" x="716.5" y="-181" font-family="Helvetica,sans-Serif" font-size="10.00">Marmot/MarmotMath.h</text>
</a>
</g>
</g>
<!-- Node1&#45;&gt;Node14 -->
<g id="edge17" class="edge">
<title>Node1&#45;&gt;Node14</title>
<path fill="none" stroke="midnightblue" d="M488.28,-235.48C542.37,-223.4 619.29,-206.21 668.55,-195.21"/>
<polygon fill="midnightblue" stroke="midnightblue" points="669.32,-198.62 678.32,-193.03 667.8,-191.79 669.32,-198.62"/>
</g>
<!-- Node15 -->
<g id="node15" class="node">
<title>Node15</title>
<g id="a_node15"><a xlink:title=" ">
<polygon fill="white" stroke="#bfbfbf" points="792,-174 792,-193 915,-193 915,-174 792,-174"/>
<text text-anchor="middle" x="853.5" y="-181" font-family="Helvetica,sans-Serif" font-size="10.00">Marmot/MarmotTensor.h</text>
</a>
</g>
</g>
<!-- Node1&#45;&gt;Node15 -->
<g id="edge18" class="edge">
<title>Node1&#45;&gt;Node15</title>
<path fill="none" stroke="midnightblue" d="M524.15,-237.31C596.2,-227.99 696.15,-214.19 783.5,-199 790.24,-197.83 797.32,-196.49 804.28,-195.11"/>
<polygon fill="midnightblue" stroke="midnightblue" points="805.23,-198.49 814.34,-193.07 803.85,-191.63 805.23,-198.49"/>
</g>
<!-- Node3 -->
<g id="node3" class="node">
<title>Node3</title>
<g id="a_node3"><a xlink:href="MarmotMaterialMechanical_8h.html" target="_top" xlink:title=" ">
<polygon fill="white" stroke="black" points="0,-112.5 0,-131.5 177,-131.5 177,-112.5 0,-112.5"/>
<text text-anchor="middle" x="88.5" y="-119.5" font-family="Helvetica,sans-Serif" font-size="10.00">Marmot/MarmotMaterialMechanical.h</text>
</a>
</g>
</g>
<!-- Node2&#45;&gt;Node3 -->
<g id="edge2" class="edge">
<title>Node2&#45;&gt;Node3</title>
<path fill="none" stroke="midnightblue" d="M94.6,-168.4C93.53,-160.38 92.16,-150.23 91,-141.57"/>
<polygon fill="midnightblue" stroke="midnightblue" points="94.47,-141.1 89.66,-131.66 87.53,-142.04 94.47,-141.1"/>
</g>
<!-- Node4 -->
<g id="node4" class="node">
<title>Node4</title>
<g id="a_node4"><a xlink:href="MarmotMaterial_8h.html" target="_top" xlink:title=" ">
<polygon fill="white" stroke="black" points="24.5,-56.5 24.5,-75.5 152.5,-75.5 152.5,-56.5 24.5,-56.5"/>
<text text-anchor="middle" x="88.5" y="-63.5" font-family="Helvetica,sans-Serif" font-size="10.00">Marmot/MarmotMaterial.h</text>
</a>
</g>
</g>
<!-- Node3&#45;&gt;Node4 -->
<g id="edge3" class="edge">
<title>Node3&#45;&gt;Node4</title>
<path fill="none" stroke="midnightblue" d="M88.5,-112.08C88.5,-105.01 88.5,-94.86 88.5,-85.99"/>
<polygon fill="midnightblue" stroke="midnightblue" points="92,-85.75 88.5,-75.75 85,-85.75 92,-85.75"/>
</g>
<!-- Node5 -->
<g id="node5" class="node">
<title>Node5</title>
<g id="a_node5"><a xlink:href="MarmotUtils_8h.html" target="_top" xlink:title=" ">
<polygon fill="white" stroke="black" points="25,-0.5 25,-19.5 138,-19.5 138,-0.5 25,-0.5"/>
<text text-anchor="middle" x="81.5" y="-7.5" font-family="Helvetica,sans-Serif" font-size="10.00">Marmot/MarmotUtils.h</text>
</a>
</g>
</g>
<!-- Node4&#45;&gt;Node5 -->
<g id="edge4" class="edge">
<title>Node4&#45;&gt;Node5</title>
<path fill="none" stroke="midnightblue" d="M87.34,-56.08C86.42,-48.93 85.08,-38.64 83.92,-29.69"/>
<polygon fill="midnightblue" stroke="midnightblue" points="87.39,-29.22 82.63,-19.75 80.45,-30.12 87.39,-29.22"/>
</g>
<!-- Node6 -->
<g id="node6" class="node">
<title>Node6</title>
<g id="a_node6"><a xlink:title=" ">
<polygon fill="white" stroke="#bfbfbf" points="156,-0.5 156,-19.5 197,-19.5 197,-0.5 156,-0.5"/>
<text text-anchor="middle" x="176.5" y="-7.5" font-family="Helvetica,sans-Serif" font-size="10.00">string</text>
</a>
</g>
</g>
<!-- Node4&#45;&gt;Node6 -->
<g id="edge5" class="edge">
<title>Node4&#45;&gt;Node6</title>
<path fill="none" stroke="midnightblue" d="M102.64,-56.32C116.37,-47.9 137.44,-34.97 153.56,-25.07"/>
<polygon fill="midnightblue" stroke="midnightblue" points="155.7,-27.87 162.4,-19.65 152.04,-21.9 155.7,-27.87"/>
</g>
<!-- Node8&#45;&gt;Node6 -->
<g id="edge10" class="edge">
<title>Node8&#45;&gt;Node6</title>
<path fill="none" stroke="midnightblue" d="M224.34,-56.32C216,-48.42 203.47,-36.55 193.32,-26.94"/>
<polygon fill="midnightblue" stroke="midnightblue" points="195.49,-24.17 185.82,-19.83 190.68,-29.25 195.49,-24.17"/>
</g>
<!-- Node8&#45;&gt;Node9 -->
<g id="edge8" class="edge">
<title>Node8&#45;&gt;Node9</title>
<path fill="none" stroke="midnightblue" d="M258.85,-56.44C285.77,-47.36 328.5,-32.94 358.59,-22.78"/>
<polygon fill="midnightblue" stroke="midnightblue" points="359.91,-26.03 368.27,-19.52 357.67,-19.4 359.91,-26.03"/>
</g>
<!-- Node10 -->
<g id="node10" class="node">
<title>Node10</title>
<g id="a_node10"><a xlink:title=" ">
<polygon fill="white" stroke="#bfbfbf" points="215.5,-0.5 215.5,-19.5 267.5,-19.5 267.5,-0.5 215.5,-0.5"/>
<text text-anchor="middle" x="241.5" y="-7.5" font-family="Helvetica,sans-Serif" font-size="10.00">sstream</text>
</a>
</g>
</g>
<!-- Node8&#45;&gt;Node10 -->
<g id="edge9" class="edge">
<title>Node8&#45;&gt;Node10</title>
<path fill="none" stroke="midnightblue" d="M234.82,-56.08C235.88,-48.93 237.41,-38.64 238.73,-29.69"/>
<polygon fill="midnightblue" stroke="midnightblue" points="242.2,-30.16 240.2,-19.75 235.28,-29.13 242.2,-30.16"/>
</g>
<!-- Node11&#45;&gt;Node8 -->
<g id="edge12" class="edge">
<title>Node11&#45;&gt;Node8</title>
<path fill="none" stroke="midnightblue" d="M376.6,-173.93C376.31,-159.35 373.62,-129.55 357.5,-112 342.25,-95.4 320.4,-84.91 299.27,-78.29"/>
<polygon fill="midnightblue" stroke="midnightblue" points="300.22,-74.92 289.65,-75.51 298.28,-81.65 300.22,-74.92"/>
</g>
<!-- Node12 -->
<g id="node12" class="node">
<title>Node12</title>
<g id="a_node12"><a xlink:title=" ">
<polygon fill="white" stroke="#bfbfbf" points="314,-56.5 314,-75.5 447,-75.5 447,-56.5 314,-56.5"/>
<text text-anchor="middle" x="380.5" y="-63.5" font-family="Helvetica,sans-Serif" font-size="10.00">Marmot/MarmotTypedefs.h</text>
</a>
</g>
</g>
<!-- Node11&#45;&gt;Node12 -->
<g id="edge13" class="edge">
<title>Node11&#45;&gt;Node12</title>
<path fill="none" stroke="midnightblue" d="M379.72,-173.71C383.18,-163.76 388.46,-146.96 390.5,-132 391.7,-123.19 391.47,-120.84 390.5,-112 389.53,-103.14 387.51,-93.47 385.54,-85.38"/>
<polygon fill="midnightblue" stroke="midnightblue" points="388.88,-84.33 382.98,-75.53 382.11,-86.09 388.88,-84.33"/>
</g>
<!-- Node11&#45;&gt;Node13 -->
<g id="edge14" class="edge">
<title>Node11&#45;&gt;Node13</title>
<path fill="none" stroke="midnightblue" d="M364.18,-173.98C350.38,-164.43 327.8,-148.81 311.27,-137.37"/>
<polygon fill="midnightblue" stroke="midnightblue" points="313.01,-134.32 302.8,-131.51 309.03,-140.08 313.01,-134.32"/>
</g>
<!-- Node13&#45;&gt;Node8 -->
<g id="edge15" class="edge">
<title>Node13&#45;&gt;Node8</title>
<path fill="none" stroke="midnightblue" d="M281.34,-112.32C273,-104.42 260.47,-92.55 250.32,-82.94"/>
<polygon fill="midnightblue" stroke="midnightblue" points="252.49,-80.17 242.82,-75.83 247.68,-85.25 252.49,-80.17"/>
</g>
<!-- Node13&#45;&gt;Node12 -->
<g id="edge16" class="edge">
<title>Node13&#45;&gt;Node12</title>
<path fill="none" stroke="midnightblue" d="M304.96,-112.32C319,-103.9 340.55,-90.97 357.04,-81.07"/>
<polygon fill="midnightblue" stroke="midnightblue" points="359.3,-83.8 366.08,-75.65 355.7,-77.8 359.3,-83.8"/>
</g>
</g>
</svg>
