<?xml version="1.0" encoding="UTF-8" standalone="no"?>
<!DOCTYPE svg PUBLIC "-//W3C//DTD SVG 1.1//EN"
 "http://www.w3.org/Graphics/SVG/1.1/DTD/svg11.dtd">
<!-- Generated by graphviz version 3.0.0 (20220413.0106)
 -->
<!-- Title: modules/core/MarmotFiniteElementCore/src/MarmotGeometryElement.cpp Pages: 1 -->
<svg width="380pt" height="218pt"
 viewBox="0.00 0.00 380.00 218.00" xmlns="http://www.w3.org/2000/svg" xmlns:xlink="http://www.w3.org/1999/xlink">
<g id="graph0" class="graph" transform="scale(1 1) rotate(0) translate(4 214)">
<title>modules/core/MarmotFiniteElementCore/src/MarmotGeometryElement.cpp</title>
<polygon fill="white" stroke="transparent" points="-4,4 -4,-214 376,-214 376,4 -4,4"/>
<!-- Node1 -->
<g id="node1" class="node">
<title>Node1</title>
<g id="a_node1"><a xlink:title=" ">
<polygon fill="#bfbfbf" stroke="black" points="147,-168.5 147,-209.5 314,-209.5 314,-168.5 147,-168.5"/>
<text text-anchor="start" x="155" y="-197.5" font-family="Helvetica,sans-Serif" font-size="10.00">modules/core/MarmotFinite</text>
<text text-anchor="start" x="155" y="-186.5" font-family="Helvetica,sans-Serif" font-size="10.00">ElementCore/src/MarmotGeometry</text>
<text text-anchor="middle" x="230.5" y="-175.5" font-family="Helvetica,sans-Serif" font-size="10.00">Element.cpp</text>
</a>
</g>
</g>
<!-- Node2 -->
<g id="node2" class="node">
<title>Node2</title>
<g id="a_node2"><a xlink:href="MarmotGeometryElement_8h.html" target="_top" xlink:title=" ">
<polygon fill="white" stroke="black" points="145.5,-112.5 145.5,-131.5 315.5,-131.5 315.5,-112.5 145.5,-112.5"/>
<text text-anchor="middle" x="230.5" y="-119.5" font-family="Helvetica,sans-Serif" font-size="10.00">Marmot/MarmotGeometryElement.h</text>
</a>
</g>
</g>
<!-- Node1&#45;&gt;Node2 -->
<g id="edge1" class="edge">
<title>Node1&#45;&gt;Node2</title>
<path fill="none" stroke="midnightblue" d="M230.5,-168.5C230.5,-160.07 230.5,-150.24 230.5,-141.87"/>
<polygon fill="midnightblue" stroke="midnightblue" points="234,-141.65 230.5,-131.65 227,-141.65 234,-141.65"/>
</g>
<!-- Node3 -->
<g id="node3" class="node">
<title>Node3</title>
<g id="a_node3"><a xlink:href="MarmotFiniteElement_8h.html" target="_top" xlink:title=" ">
<polygon fill="white" stroke="black" points="94.5,-56.5 94.5,-75.5 246.5,-75.5 246.5,-56.5 94.5,-56.5"/>
<text text-anchor="middle" x="170.5" y="-63.5" font-family="Helvetica,sans-Serif" font-size="10.00">Marmot/MarmotFiniteElement.h</text>
</a>
</g>
</g>
<!-- Node2&#45;&gt;Node3 -->
<g id="edge2" class="edge">
<title>Node2&#45;&gt;Node3</title>
<path fill="none" stroke="midnightblue" d="M220.86,-112.32C211.99,-104.34 198.63,-92.31 187.89,-82.65"/>
<polygon fill="midnightblue" stroke="midnightblue" points="190.09,-79.92 180.32,-75.83 185.41,-85.13 190.09,-79.92"/>
</g>
<!-- Node4 -->
<g id="node4" class="node">
<title>Node4</title>
<g id="a_node4"><a xlink:title=" ">
<polygon fill="white" stroke="#bfbfbf" points="0,-0.5 0,-19.5 133,-19.5 133,-0.5 0,-0.5"/>
<text text-anchor="middle" x="66.5" y="-7.5" font-family="Helvetica,sans-Serif" font-size="10.00">Marmot/MarmotTypedefs.h</text>
</a>
</g>
</g>
<!-- Node2&#45;&gt;Node4 -->
<g id="edge5" class="edge">
<title>Node2&#45;&gt;Node4</title>
<path fill="none" stroke="midnightblue" d="M156.31,-112.45C130.94,-106.1 104.26,-95.07 85.5,-76 73.53,-63.83 69.03,-44.56 67.37,-30.15"/>
<polygon fill="midnightblue" stroke="midnightblue" points="70.83,-29.57 66.56,-19.87 63.86,-30.12 70.83,-29.57"/>
</g>
<!-- Node6 -->
<g id="node6" class="node">
<title>Node6</title>
<g id="a_node6"><a xlink:title=" ">
<polygon fill="white" stroke="#bfbfbf" points="264.5,-56.5 264.5,-75.5 318.5,-75.5 318.5,-56.5 264.5,-56.5"/>
<text text-anchor="middle" x="291.5" y="-63.5" font-family="Helvetica,sans-Serif" font-size="10.00">iostream</text>
</a>
</g>
</g>
<!-- Node2&#45;&gt;Node6 -->
<g id="edge6" class="edge">
<title>Node2&#45;&gt;Node6</title>
<path fill="none" stroke="midnightblue" d="M240.3,-112.32C249.32,-104.34 262.91,-92.31 273.82,-82.65"/>
<polygon fill="midnightblue" stroke="midnightblue" points="276.35,-85.08 281.52,-75.83 271.71,-79.84 276.35,-85.08"/>
</g>
<!-- Node7 -->
<g id="node7" class="node">
<title>Node7</title>
<g id="a_node7"><a xlink:title=" ">
<polygon fill="white" stroke="#bfbfbf" points="337,-56.5 337,-75.5 372,-75.5 372,-56.5 337,-56.5"/>
<text text-anchor="middle" x="354.5" y="-63.5" font-family="Helvetica,sans-Serif" font-size="10.00">map</text>
</a>
</g>
</g>
<!-- Node2&#45;&gt;Node7 -->
<g id="edge7" class="edge">
<title>Node2&#45;&gt;Node7</title>
<path fill="none" stroke="midnightblue" d="M250.15,-112.44C271.06,-103.34 304.29,-88.86 327.62,-78.71"/>
<polygon fill="midnightblue" stroke="midnightblue" points="329.18,-81.84 336.95,-74.64 326.38,-75.43 329.18,-81.84"/>
</g>
<!-- Node3&#45;&gt;Node4 -->
<g id="edge3" class="edge">
<title>Node3&#45;&gt;Node4</title>
<path fill="none" stroke="midnightblue" d="M153.79,-56.32C137.19,-47.7 111.5,-34.36 92.28,-24.39"/>
<polygon fill="midnightblue" stroke="midnightblue" points="93.66,-21.16 83.17,-19.65 90.43,-27.37 93.66,-21.16"/>
</g>
<!-- Node5 -->
<g id="node5" class="node">
<title>Node5</title>
<g id="a_node5"><a xlink:title=" ">
<polygon fill="white" stroke="#bfbfbf" points="151.5,-0.5 151.5,-19.5 195.5,-19.5 195.5,-0.5 151.5,-0.5"/>
<text text-anchor="middle" x="173.5" y="-7.5" font-family="Helvetica,sans-Serif" font-size="10.00">vector</text>
</a>
</g>
</g>
<!-- Node3&#45;&gt;Node5 -->
<g id="edge4" class="edge">
<title>Node3&#45;&gt;Node5</title>
<path fill="none" stroke="midnightblue" d="M171,-56.08C171.39,-49.01 171.95,-38.86 172.45,-29.99"/>
<polygon fill="midnightblue" stroke="midnightblue" points="175.95,-29.93 173.01,-19.75 168.96,-29.54 175.95,-29.93"/>
</g>
</g>
</svg>
