<?xml version="1.0" encoding="UTF-8" standalone="no"?>
<!DOCTYPE svg PUBLIC "-//W3C//DTD SVG 1.1//EN"
 "http://www.w3.org/Graphics/SVG/1.1/DTD/svg11.dtd">
<!-- Generated by graphviz version 2.44.0 ()
 -->
<!-- Title: modules/core/MarmotMathCore/include/Marmot/MarmotMath.h Pages: 1 -->
<!--zoomable 351 -->
<svg id="main" version="1.1" xmlns="http://www.w3.org/2000/svg" xmlns:xlink="http://www.w3.org/1999/xlink" xml:space="preserve" onload="init(evt)">
<style type="text/css"><![CDATA[
.edge:hover path { stroke: red; }
.edge:hover polygon { stroke: red; fill: red; }
]]></style>
<script type="text/javascript"><![CDATA[
var edges = document.getElementsByTagName('g');
if (edges && edges.length) {
  for (var i=0;i<edges.length;i++) {
    if (edges[i].id.substr(0,4)=='edge') {
      edges[i].setAttribute('class','edge');
    }
  }
}
]]></script>
        <defs>
                <circle id="rim" cx="0" cy="0" r="7"/>
                <circle id="rim2" cx="0" cy="0" r="3.5"/>
                <g id="zoomPlus">
                        <use xlink:href="#rim" fill="#404040">
                                <set attributeName="fill" to="#808080" begin="zoomplus.mouseover" end="zoomplus.mouseout"/>
                        </use>
                        <path d="M-4,0h8M0,-4v8" fill="none" stroke="white" stroke-width="1.5" pointer-events="none"/>
                </g>
                <g id="zoomMin">
                        <use xlink:href="#rim" fill="#404040">
                                <set attributeName="fill" to="#808080" begin="zoomminus.mouseover" end="zoomminus.mouseout"/>
                        </use>
                        <path d="M-4,0h8" fill="none" stroke="white" stroke-width="1.5" pointer-events="none"/>
                </g>
                <g id="dirArrow">
                        <path fill="none" stroke="white" stroke-width="1.5" d="M0,-3.0v7 M-2.5,-0.5L0,-3.0L2.5,-0.5"/>
                </g>
               <g id="resetDef">
                       <use xlink:href="#rim2" fill="#404040">
                               <set attributeName="fill" to="#808080" begin="reset.mouseover" end="reset.mouseout"/>
                       </use>
               </g>
        </defs>

<script type="text/javascript">
var viewWidth = 3070;
var viewHeight = 351;
var sectionId = 'dynsection-1';
</script>
<script xlink:href="svgpan.js"/>
<svg id="graph" class="graph">
<g id="viewport">
<title>modules/core/MarmotMathCore/include/Marmot/MarmotMath.h</title>
<polygon fill="white" stroke="transparent" points="-4,4 -4,-347 3066,-347 3066,4 -4,4"/>
<!-- Node1 -->
<g id="node1" class="node">
<title>Node1</title>
<g id="a_node1"><a xlink:title=" ">
<polygon fill="#bfbfbf" stroke="black" points="1517.5,-312.5 1517.5,-342.5 1670.5,-342.5 1670.5,-312.5 1517.5,-312.5"/>
<text text-anchor="start" x="1525.5" y="-330.5" font-family="Helvetica,sans-Serif" font-size="10.00">modules/core/MarmotMathCore</text>
<text text-anchor="middle" x="1594" y="-319.5" font-family="Helvetica,sans-Serif" font-size="10.00">/include/Marmot/MarmotMath.h</text>
</a>
</g>
</g>
<!-- Node2 -->
<g id="node2" class="node">
<title>Node2</title>
<g id="a_node2"><a xlink:href="MarmotMath_8cpp.html" target="_top" xlink:title=" ">
<polygon fill="white" stroke="black" points="436.5,-240 436.5,-270 589.5,-270 589.5,-240 436.5,-240"/>
<text text-anchor="start" x="444.5" y="-258" font-family="Helvetica,sans-Serif" font-size="10.00">modules/core/MarmotMathCore</text>
<text text-anchor="middle" x="513" y="-247" font-family="Helvetica,sans-Serif" font-size="10.00">/src/MarmotMath.cpp</text>
</a>
</g>
</g>
<!-- Node1&#45;&gt;Node2 -->
<g id="edge1" class="edge">
<title>Node1&#45;&gt;Node2</title>
<path fill="none" stroke="midnightblue" d="M1507.16,-326.88C1334.36,-326.57 935.54,-320.58 604,-276 592.94,-274.51 581.23,-272.37 570.02,-270.04"/>
<polygon fill="midnightblue" stroke="midnightblue" points="1507.21,-330.38 1517.21,-326.89 1507.22,-323.38 1507.21,-330.38"/>
</g>
<!-- Node3 -->
<g id="node3" class="node">
<title>Node3</title>
<g id="a_node3"><a xlink:href="HaighWestergaard_8h.html" target="_top" xlink:title=" ">
<polygon fill="white" stroke="black" points="360.5,-162 360.5,-192 557.5,-192 557.5,-162 360.5,-162"/>
<text text-anchor="start" x="368.5" y="-180" font-family="Helvetica,sans-Serif" font-size="10.00">modules/core/MarmotMechanics</text>
<text text-anchor="middle" x="459" y="-169" font-family="Helvetica,sans-Serif" font-size="10.00">Core/include/Marmot/HaighWestergaard.h</text>
</a>
</g>
</g>
<!-- Node1&#45;&gt;Node3 -->
<g id="edge2" class="edge">
<title>Node1&#45;&gt;Node3</title>
<path fill="none" stroke="midnightblue" d="M1506.95,-325.32C1286.87,-321.85 720.11,-309.72 642,-276 617.18,-265.28 620.72,-248.65 598,-234 569.57,-215.68 534.17,-201.52 506.21,-192.03"/>
<polygon fill="midnightblue" stroke="midnightblue" points="1507.11,-328.82 1517.16,-325.48 1507.22,-321.82 1507.11,-328.82"/>
</g>
<!-- Node6 -->
<g id="node6" class="node">
<title>Node6</title>
<g id="a_node6"><a xlink:href="HaighWestergaard_8cpp.html" target="_top" xlink:title=" ">
<polygon fill="white" stroke="black" points="204,-84 204,-114 362,-114 362,-84 204,-84"/>
<text text-anchor="start" x="212" y="-102" font-family="Helvetica,sans-Serif" font-size="10.00">modules/core/MarmotMechanics</text>
<text text-anchor="middle" x="283" y="-91" font-family="Helvetica,sans-Serif" font-size="10.00">Core/src/HaighWestergaard.cpp</text>
</a>
</g>
</g>
<!-- Node1&#45;&gt;Node6 -->
<g id="edge56" class="edge">
<title>Node1&#45;&gt;Node6</title>
<path fill="none" stroke="midnightblue" d="M1507.45,-324.15C1339.47,-319.01 975.05,-304.84 853,-276 785.72,-260.1 632.26,-175.72 566,-156 481.53,-130.86 457.32,-137.77 371,-120 362.1,-118.17 352.72,-116.14 343.52,-114.1"/>
<polygon fill="midnightblue" stroke="midnightblue" points="1507.39,-327.65 1517.49,-324.46 1507.6,-320.65 1507.39,-327.65"/>
</g>
<!-- Node7 -->
<g id="node7" class="node">
<title>Node7</title>
<g id="a_node7"><a xlink:href="MarmotVoigt_8cpp.html" target="_top" xlink:title=" ">
<polygon fill="white" stroke="black" points="380,-84 380,-114 538,-114 538,-84 380,-84"/>
<text text-anchor="start" x="388" y="-102" font-family="Helvetica,sans-Serif" font-size="10.00">modules/core/MarmotMechanics</text>
<text text-anchor="middle" x="459" y="-91" font-family="Helvetica,sans-Serif" font-size="10.00">Core/src/MarmotVoigt.cpp</text>
</a>
</g>
</g>
<!-- Node1&#45;&gt;Node7 -->
<g id="edge62" class="edge">
<title>Node1&#45;&gt;Node7</title>
<path fill="none" stroke="midnightblue" d="M1507.21,-325.31C1350.21,-320.58 1010.79,-298.48 746,-198 709.92,-184.31 705.81,-170.39 670,-156 642.66,-145.01 570.68,-126.71 518.38,-114.03"/>
<polygon fill="midnightblue" stroke="midnightblue" points="1507.19,-328.81 1517.28,-325.6 1507.39,-321.81 1507.19,-328.81"/>
</g>
<!-- Node8 -->
<g id="node8" class="node">
<title>Node8</title>
<g id="a_node8"><a xlink:href="MarmotVoigt_8h.html" target="_top" xlink:title=" ">
<polygon fill="white" stroke="black" points="1622.5,-240 1622.5,-270 1795.5,-270 1795.5,-240 1622.5,-240"/>
<text text-anchor="start" x="1630.5" y="-258" font-family="Helvetica,sans-Serif" font-size="10.00">modules/core/MarmotMechanics</text>
<text text-anchor="middle" x="1709" y="-247" font-family="Helvetica,sans-Serif" font-size="10.00">Core/include/Marmot/MarmotVoigt.h</text>
</a>
</g>
</g>
<!-- Node1&#45;&gt;Node8 -->
<g id="edge7" class="edge">
<title>Node1&#45;&gt;Node8</title>
<path fill="none" stroke="midnightblue" d="M1625.68,-307.08C1644.8,-295.36 1668.74,-280.68 1686.04,-270.07"/>
<polygon fill="midnightblue" stroke="midnightblue" points="1623.69,-304.19 1617,-312.4 1627.35,-310.16 1623.69,-304.19"/>
</g>
<!-- Node11 -->
<g id="node11" class="node">
<title>Node11</title>
<g id="a_node11"><a xlink:href="DisplacementFiniteElement_8h.html" target="_top" xlink:title=" ">
<polygon fill="white" stroke="black" points="1890,-78.5 1890,-119.5 2048,-119.5 2048,-78.5 1890,-78.5"/>
<text text-anchor="start" x="1898" y="-107.5" font-family="Helvetica,sans-Serif" font-size="10.00">modules/elements/Displacement</text>
<text text-anchor="start" x="1898" y="-96.5" font-family="Helvetica,sans-Serif" font-size="10.00">FiniteElement/include/Marmot</text>
<text text-anchor="middle" x="1969" y="-85.5" font-family="Helvetica,sans-Serif" font-size="10.00">/DisplacementFiniteElement.h</text>
</a>
</g>
</g>
<!-- Node1&#45;&gt;Node11 -->
<g id="edge63" class="edge">
<title>Node1&#45;&gt;Node11</title>
<path fill="none" stroke="midnightblue" d="M1680.59,-315.19C1720.04,-307.71 1766.44,-295.54 1805,-276 1877.27,-239.37 1934.19,-157.19 1957.52,-119.52"/>
<polygon fill="midnightblue" stroke="midnightblue" points="1679.92,-311.76 1670.71,-317 1681.18,-318.64 1679.92,-311.76"/>
</g>
<!-- Node18 -->
<g id="node18" class="node">
<title>Node18</title>
<g id="a_node18"><a xlink:href="MarmotLocalization_8cpp.html" target="_top" xlink:title=" ">
<polygon fill="white" stroke="black" points="2459.5,-84 2459.5,-114 2618.5,-114 2618.5,-84 2459.5,-84"/>
<text text-anchor="start" x="2467.5" y="-102" font-family="Helvetica,sans-Serif" font-size="10.00">modules/core/MarmotMechanics</text>
<text text-anchor="middle" x="2539" y="-91" font-family="Helvetica,sans-Serif" font-size="10.00">Core/src/MarmotLocalization.cpp</text>
</a>
</g>
</g>
<!-- Node1&#45;&gt;Node18 -->
<g id="edge57" class="edge">
<title>Node1&#45;&gt;Node18</title>
<path fill="none" stroke="midnightblue" d="M1680.89,-325.15C1834.75,-321.87 2148.64,-311 2252,-276 2342.37,-245.4 2348.69,-205.92 2430,-156 2455.74,-140.19 2486.47,-124.69 2508.72,-114.02"/>
<polygon fill="midnightblue" stroke="midnightblue" points="1680.47,-321.66 1670.54,-325.36 1680.61,-328.65 1680.47,-321.66"/>
</g>
<!-- Node20 -->
<g id="node20" class="node">
<title>Node20</title>
<g id="a_node20"><a xlink:href="MarmotMaterialHyperElastic_8cpp.html" target="_top" xlink:title=" ">
<polygon fill="white" stroke="black" points="1292.5,-84 1292.5,-114 1489.5,-114 1489.5,-84 1292.5,-84"/>
<text text-anchor="start" x="1300.5" y="-102" font-family="Helvetica,sans-Serif" font-size="10.00">modules/core/MarmotMechanics</text>
<text text-anchor="middle" x="1391" y="-91" font-family="Helvetica,sans-Serif" font-size="10.00">Core/src/MarmotMaterialHyperElastic.cpp</text>
</a>
</g>
</g>
<!-- Node1&#45;&gt;Node20 -->
<g id="edge58" class="edge">
<title>Node1&#45;&gt;Node20</title>
<path fill="none" stroke="midnightblue" d="M1583.01,-303.02C1563.38,-261.75 1522.14,-178.46 1499,-156 1479.75,-137.32 1453.02,-123.39 1430.97,-114.1"/>
<polygon fill="midnightblue" stroke="midnightblue" points="1579.97,-304.77 1587.41,-312.31 1586.3,-301.77 1579.97,-304.77"/>
</g>
<!-- Node21 -->
<g id="node21" class="node">
<title>Node21</title>
<g id="a_node21"><a xlink:href="MarmotMaterialHypoElastic_8cpp.html" target="_top" xlink:title=" ">
<polygon fill="white" stroke="black" points="1080,-84 1080,-114 1274,-114 1274,-84 1080,-84"/>
<text text-anchor="start" x="1088" y="-102" font-family="Helvetica,sans-Serif" font-size="10.00">modules/core/MarmotMechanics</text>
<text text-anchor="middle" x="1177" y="-91" font-family="Helvetica,sans-Serif" font-size="10.00">Core/src/MarmotMaterialHypoElastic.cpp</text>
</a>
</g>
</g>
<!-- Node1&#45;&gt;Node21 -->
<g id="edge59" class="edge">
<title>Node1&#45;&gt;Node21</title>
<path fill="none" stroke="midnightblue" d="M1506.99,-319.11C1366.58,-305.19 1099.96,-269.78 1043,-198 1031.4,-183.38 1032.65,-171.54 1043,-156 1056.77,-135.33 1079.78,-122.27 1102.88,-114.03"/>
<polygon fill="midnightblue" stroke="midnightblue" points="1507,-322.63 1517.29,-320.12 1507.68,-315.66 1507,-322.63"/>
</g>
<!-- Node22 -->
<g id="node22" class="node">
<title>Node22</title>
<g id="a_node22"><a xlink:href="MarmotMaterialHypoElasticNonLocal_8cpp.html" target="_top" xlink:title=" ">
<polygon fill="white" stroke="black" points="1508,-78.5 1508,-119.5 1684,-119.5 1684,-78.5 1508,-78.5"/>
<text text-anchor="start" x="1516" y="-107.5" font-family="Helvetica,sans-Serif" font-size="10.00">modules/core/MarmotMechanics</text>
<text text-anchor="start" x="1516" y="-96.5" font-family="Helvetica,sans-Serif" font-size="10.00">Core/src/MarmotMaterialHypoElastic</text>
<text text-anchor="middle" x="1596" y="-85.5" font-family="Helvetica,sans-Serif" font-size="10.00">NonLocal.cpp</text>
</a>
</g>
</g>
<!-- Node1&#45;&gt;Node22 -->
<g id="edge60" class="edge">
<title>Node1&#45;&gt;Node22</title>
<path fill="none" stroke="midnightblue" d="M1594.21,-302.28C1594.61,-257.21 1595.46,-161.29 1595.83,-119.8"/>
<polygon fill="midnightblue" stroke="midnightblue" points="1590.71,-302.3 1594.13,-312.33 1597.71,-302.36 1590.71,-302.3"/>
</g>
<!-- Node26 -->
<g id="node26" class="node">
<title>Node26</title>
<g id="a_node26"><a xlink:href="LinearElastic_8cpp.html" target="_top" xlink:title=" ">
<polygon fill="white" stroke="black" points="2812,-84 2812,-114 2952,-114 2952,-84 2812,-84"/>
<text text-anchor="start" x="2820" y="-102" font-family="Helvetica,sans-Serif" font-size="10.00">modules/materials/Linear</text>
<text text-anchor="middle" x="2882" y="-91" font-family="Helvetica,sans-Serif" font-size="10.00">Elastic/src/LinearElastic.cpp</text>
</a>
</g>
</g>
<!-- Node1&#45;&gt;Node26 -->
<g id="edge64" class="edge">
<title>Node1&#45;&gt;Node26</title>
<path fill="none" stroke="midnightblue" d="M1680.9,-323.24C1950.79,-312.34 2761.89,-273.54 2851,-198 2875.91,-176.88 2881.05,-135.88 2881.95,-114.21"/>
<polygon fill="midnightblue" stroke="midnightblue" points="1680.61,-319.75 1670.76,-323.64 1680.89,-326.74 1680.61,-319.75"/>
</g>
<!-- Node29 -->
<g id="node29" class="node">
<title>Node29</title>
<g id="a_node29"><a xlink:href="MarmotMaterialMechanical_8cpp.html" target="_top" xlink:title=" ">
<polygon fill="white" stroke="black" points="2250.5,-84 2250.5,-114 2441.5,-114 2441.5,-84 2250.5,-84"/>
<text text-anchor="start" x="2258.5" y="-102" font-family="Helvetica,sans-Serif" font-size="10.00">modules/core/MarmotMechanics</text>
<text text-anchor="middle" x="2346" y="-91" font-family="Helvetica,sans-Serif" font-size="10.00">Core/src/MarmotMaterialMechanical.cpp</text>
</a>
</g>
</g>
<!-- Node1&#45;&gt;Node29 -->
<g id="edge61" class="edge">
<title>Node1&#45;&gt;Node29</title>
<path fill="none" stroke="midnightblue" d="M1681,-325.24C1861.65,-320.59 2267.75,-298.89 2353,-198 2372.93,-174.42 2361.18,-135.19 2352.58,-114.23"/>
<polygon fill="midnightblue" stroke="midnightblue" points="1680.65,-321.75 1670.74,-325.49 1680.82,-328.75 1680.65,-321.75"/>
</g>
<!-- Node31 -->
<g id="node31" class="node">
<title>Node31</title>
<g id="a_node31"><a xlink:href="PerezFougetSubstepperMarkII_8h.html" target="_top" xlink:title=" ">
<polygon fill="white" stroke="black" points="2898,-234.5 2898,-275.5 3062,-275.5 3062,-234.5 2898,-234.5"/>
<text text-anchor="start" x="2906" y="-263.5" font-family="Helvetica,sans-Serif" font-size="10.00">modules/core/MarmotMechanics</text>
<text text-anchor="start" x="2906" y="-252.5" font-family="Helvetica,sans-Serif" font-size="10.00">Core/include/Marmot/PerezFouget</text>
<text text-anchor="middle" x="2980" y="-241.5" font-family="Helvetica,sans-Serif" font-size="10.00">SubstepperMarkII.h</text>
</a>
</g>
</g>
<!-- Node1&#45;&gt;Node31 -->
<g id="edge55" class="edge">
<title>Node1&#45;&gt;Node31</title>
<path fill="none" stroke="midnightblue" d="M1681.05,-324.98C1931.4,-320.31 2650.32,-304.71 2884,-276 2888.56,-275.44 2893.23,-274.77 2897.93,-274.03"/>
<polygon fill="midnightblue" stroke="midnightblue" points="1680.84,-321.48 1670.91,-325.17 1680.97,-328.48 1680.84,-321.48"/>
</g>
<!-- Node4 -->
<g id="node4" class="node">
<title>Node4</title>
<g id="a_node4"><a xlink:href="MenetreyWillam_8h.html" target="_top" xlink:title=" ">
<polygon fill="white" stroke="black" points="0,-84 0,-114 186,-114 186,-84 0,-84"/>
<text text-anchor="start" x="8" y="-102" font-family="Helvetica,sans-Serif" font-size="10.00">modules/core/MarmotMechanics</text>
<text text-anchor="middle" x="93" y="-91" font-family="Helvetica,sans-Serif" font-size="10.00">Core/include/Marmot/MenetreyWillam.h</text>
</a>
</g>
</g>
<!-- Node3&#45;&gt;Node4 -->
<g id="edge3" class="edge">
<title>Node3&#45;&gt;Node4</title>
<path fill="none" stroke="midnightblue" d="M381.57,-159.92C316.03,-146.31 223.02,-127 160.47,-114.01"/>
<polygon fill="midnightblue" stroke="midnightblue" points="380.94,-163.37 391.44,-161.97 382.36,-156.51 380.94,-163.37"/>
</g>
<!-- Node3&#45;&gt;Node6 -->
<g id="edge5" class="edge">
<title>Node3&#45;&gt;Node6</title>
<path fill="none" stroke="midnightblue" d="M417.02,-157.87C385.91,-144.44 344.11,-126.39 315.52,-114.04"/>
<polygon fill="midnightblue" stroke="midnightblue" points="415.74,-161.13 426.31,-161.88 418.52,-154.71 415.74,-161.13"/>
</g>
<!-- Node3&#45;&gt;Node7 -->
<g id="edge6" class="edge">
<title>Node3&#45;&gt;Node7</title>
<path fill="none" stroke="midnightblue" d="M459,-151.59C459,-139.26 459,-124.72 459,-114.23"/>
<polygon fill="midnightblue" stroke="midnightblue" points="455.5,-151.7 459,-161.7 462.5,-151.71 455.5,-151.7"/>
</g>
<!-- Node5 -->
<g id="node5" class="node">
<title>Node5</title>
<g id="a_node5"><a xlink:href="MenetreyWillam_8cpp.html" target="_top" xlink:title=" ">
<polygon fill="white" stroke="black" points="14,-6 14,-36 172,-36 172,-6 14,-6"/>
<text text-anchor="start" x="22" y="-24" font-family="Helvetica,sans-Serif" font-size="10.00">modules/core/MarmotMechanics</text>
<text text-anchor="middle" x="93" y="-13" font-family="Helvetica,sans-Serif" font-size="10.00">Core/src/MenetreyWillam.cpp</text>
</a>
</g>
</g>
<!-- Node4&#45;&gt;Node5 -->
<g id="edge4" class="edge">
<title>Node4&#45;&gt;Node5</title>
<path fill="none" stroke="midnightblue" d="M93,-73.59C93,-61.26 93,-46.72 93,-36.23"/>
<polygon fill="midnightblue" stroke="midnightblue" points="89.5,-73.7 93,-83.7 96.5,-73.71 89.5,-73.7"/>
</g>
<!-- Node8&#45;&gt;Node3 -->
<g id="edge24" class="edge">
<title>Node8&#45;&gt;Node3</title>
<path fill="none" stroke="midnightblue" d="M1612.09,-249.89C1429.58,-241.88 1022.38,-222.8 680,-198 639.94,-195.1 595.86,-191.24 557.68,-187.69"/>
<polygon fill="midnightblue" stroke="midnightblue" points="1612.06,-253.39 1622.2,-250.33 1612.37,-246.4 1612.06,-253.39"/>
</g>
<!-- Node8&#45;&gt;Node6 -->
<g id="edge44" class="edge">
<title>Node8&#45;&gt;Node6</title>
<path fill="none" stroke="midnightblue" d="M1612.29,-254.1C1400.68,-253.4 902.68,-246.47 742,-198 706.53,-187.3 705.12,-167.79 670,-156 543.11,-113.39 502.88,-142.86 371,-120 361.27,-118.31 351.01,-116.25 341.05,-114.09"/>
<polygon fill="midnightblue" stroke="midnightblue" points="1612.44,-257.6 1622.45,-254.13 1612.46,-250.6 1612.44,-257.6"/>
</g>
<!-- Node8&#45;&gt;Node7 -->
<g id="edge52" class="edge">
<title>Node8&#45;&gt;Node7</title>
<path fill="none" stroke="midnightblue" d="M1612.48,-254.88C1410.42,-255.62 949.49,-251.2 803,-198 773.42,-187.26 774.9,-168.46 746,-156 663.46,-120.42 635.07,-137.96 547,-120 537.94,-118.15 528.39,-116.09 519.04,-114.02"/>
<polygon fill="midnightblue" stroke="midnightblue" points="1612.51,-258.38 1622.49,-254.84 1612.48,-251.38 1612.51,-258.38"/>
</g>
<!-- Node9 -->
<g id="node9" class="node">
<title>Node9</title>
<g id="a_node9"><a xlink:href="MarmotGeometryElement_8h.html" target="_top" xlink:title=" ">
<polygon fill="white" stroke="black" points="1962,-156.5 1962,-197.5 2104,-197.5 2104,-156.5 1962,-156.5"/>
<text text-anchor="start" x="1970" y="-185.5" font-family="Helvetica,sans-Serif" font-size="10.00">modules/core/MarmotFinite</text>
<text text-anchor="start" x="1970" y="-174.5" font-family="Helvetica,sans-Serif" font-size="10.00">ElementCore/include/Marmot</text>
<text text-anchor="middle" x="2033" y="-163.5" font-family="Helvetica,sans-Serif" font-size="10.00">/MarmotGeometryElement.h</text>
</a>
</g>
</g>
<!-- Node8&#45;&gt;Node9 -->
<g id="edge8" class="edge">
<title>Node8&#45;&gt;Node9</title>
<path fill="none" stroke="midnightblue" d="M1778.66,-237.66C1832.77,-224.97 1907.51,-207.44 1961.97,-194.66"/>
<polygon fill="midnightblue" stroke="midnightblue" points="1777.74,-234.28 1768.8,-239.97 1779.34,-241.1 1777.74,-234.28"/>
</g>
<!-- Node8&#45;&gt;Node11 -->
<g id="edge53" class="edge">
<title>Node8&#45;&gt;Node11</title>
<path fill="none" stroke="midnightblue" d="M1768.21,-236.74C1795.92,-227.35 1828.75,-214.31 1856,-198 1892.99,-175.87 1929.52,-141.23 1950.64,-119.61"/>
<polygon fill="midnightblue" stroke="midnightblue" points="1767.03,-233.44 1758.64,-239.9 1769.23,-240.09 1767.03,-233.44"/>
</g>
<!-- Node13 -->
<g id="node13" class="node">
<title>Node13</title>
<g id="a_node13"><a xlink:href="MarmotFiniteElementSpatialWrapper_8cpp.html" target="_top" xlink:title=" ">
<polygon fill="white" stroke="black" points="2160,-156.5 2160,-197.5 2344,-197.5 2344,-156.5 2160,-156.5"/>
<text text-anchor="start" x="2168" y="-185.5" font-family="Helvetica,sans-Serif" font-size="10.00">modules/core/MarmotFinite</text>
<text text-anchor="start" x="2168" y="-174.5" font-family="Helvetica,sans-Serif" font-size="10.00">ElementCore/src/MarmotFiniteElement</text>
<text text-anchor="middle" x="2252" y="-163.5" font-family="Helvetica,sans-Serif" font-size="10.00">SpatialWrapper.cpp</text>
</a>
</g>
</g>
<!-- Node8&#45;&gt;Node13 -->
<g id="edge12" class="edge">
<title>Node8&#45;&gt;Node13</title>
<path fill="none" stroke="midnightblue" d="M1805.91,-243.24C1894.62,-233 2029.43,-216.45 2146,-198 2150.53,-197.28 2155.17,-196.52 2159.84,-195.73"/>
<polygon fill="midnightblue" stroke="midnightblue" points="1805.4,-239.78 1795.86,-244.4 1806.2,-246.73 1805.4,-239.78"/>
</g>
<!-- Node14 -->
<g id="node14" class="node">
<title>Node14</title>
<g id="a_node14"><a xlink:href="MarmotTensor_8h.html" target="_top" xlink:title=" ">
<polygon fill="white" stroke="black" points="836,-162 836,-192 996,-192 996,-162 836,-162"/>
<text text-anchor="start" x="844" y="-180" font-family="Helvetica,sans-Serif" font-size="10.00">modules/core/MarmotMathCore</text>
<text text-anchor="middle" x="916" y="-169" font-family="Helvetica,sans-Serif" font-size="10.00">/include/Marmot/MarmotTensor.h</text>
</a>
</g>
</g>
<!-- Node8&#45;&gt;Node14 -->
<g id="edge13" class="edge">
<title>Node8&#45;&gt;Node14</title>
<path fill="none" stroke="midnightblue" d="M1612.01,-248.05C1482.15,-239.58 1244.75,-222.34 1043,-198 1027.82,-196.17 1011.67,-193.89 996.16,-191.52"/>
<polygon fill="midnightblue" stroke="midnightblue" points="1612.11,-251.57 1622.32,-248.72 1612.57,-244.58 1612.11,-251.57"/>
</g>
<!-- Node16 -->
<g id="node16" class="node">
<title>Node16</title>
<g id="a_node16"><a xlink:href="HughesWinget_8cpp.html" target="_top" xlink:title=" ">
<polygon fill="white" stroke="black" points="728,-84 728,-114 886,-114 886,-84 728,-84"/>
<text text-anchor="start" x="736" y="-102" font-family="Helvetica,sans-Serif" font-size="10.00">modules/core/MarmotMechanics</text>
<text text-anchor="middle" x="807" y="-91" font-family="Helvetica,sans-Serif" font-size="10.00">Core/src/HughesWinget.cpp</text>
</a>
</g>
</g>
<!-- Node8&#45;&gt;Node16 -->
<g id="edge45" class="edge">
<title>Node8&#45;&gt;Node16</title>
<path fill="none" stroke="midnightblue" d="M1612.2,-254.37C1395.38,-254.27 885.13,-248.62 827,-198 803.04,-177.13 803.11,-136.02 805.11,-114.27"/>
<polygon fill="midnightblue" stroke="midnightblue" points="1612.3,-257.87 1622.3,-254.37 1612.3,-250.87 1612.3,-257.87"/>
</g>
<!-- Node19 -->
<g id="node19" class="node">
<title>Node19</title>
<g id="a_node19"><a xlink:href="MarmotLowerDimensionalStress_8cpp.html" target="_top" xlink:title=" ">
<polygon fill="white" stroke="black" points="1702,-78.5 1702,-119.5 1872,-119.5 1872,-78.5 1702,-78.5"/>
<text text-anchor="start" x="1710" y="-107.5" font-family="Helvetica,sans-Serif" font-size="10.00">modules/core/MarmotMechanics</text>
<text text-anchor="start" x="1710" y="-96.5" font-family="Helvetica,sans-Serif" font-size="10.00">Core/src/MarmotLowerDimensional</text>
<text text-anchor="middle" x="1787" y="-85.5" font-family="Helvetica,sans-Serif" font-size="10.00">Stress.cpp</text>
</a>
</g>
</g>
<!-- Node8&#45;&gt;Node19 -->
<g id="edge46" class="edge">
<title>Node8&#45;&gt;Node19</title>
<path fill="none" stroke="midnightblue" d="M1788.96,-236.29C1808.57,-227.98 1827.28,-215.81 1839,-198 1849.26,-182.41 1845.82,-173.38 1839,-156 1833.47,-141.92 1822.56,-129.28 1812.15,-119.58"/>
<polygon fill="midnightblue" stroke="midnightblue" points="1787.63,-233.05 1779.6,-239.95 1790.19,-239.57 1787.63,-233.05"/>
</g>
<!-- Node8&#45;&gt;Node20 -->
<g id="edge47" class="edge">
<title>Node8&#45;&gt;Node20</title>
<path fill="none" stroke="midnightblue" d="M1676.94,-234.62C1641.97,-213.87 1584.03,-180.61 1532,-156 1498.31,-140.06 1458.79,-124.63 1430.17,-114.02"/>
<polygon fill="midnightblue" stroke="midnightblue" points="1675.36,-237.75 1685.74,-239.86 1678.94,-231.74 1675.36,-237.75"/>
</g>
<!-- Node8&#45;&gt;Node21 -->
<g id="edge48" class="edge">
<title>Node8&#45;&gt;Node21</title>
<path fill="none" stroke="midnightblue" d="M1611.79,-248.89C1503.94,-241.89 1337.76,-226.77 1282,-198 1259.36,-186.32 1261.41,-173.6 1243,-156 1227.36,-141.05 1208.43,-125.2 1194.86,-114.19"/>
<polygon fill="midnightblue" stroke="midnightblue" points="1611.84,-252.4 1622.04,-249.54 1612.28,-245.41 1611.84,-252.4"/>
</g>
<!-- Node8&#45;&gt;Node22 -->
<g id="edge49" class="edge">
<title>Node8&#45;&gt;Node22</title>
<path fill="none" stroke="midnightblue" d="M1684.34,-233.15C1673.37,-223.18 1660.77,-210.66 1651,-198 1631.69,-172.98 1614.8,-140.38 1604.99,-119.81"/>
<polygon fill="midnightblue" stroke="midnightblue" points="1682.16,-235.91 1691.96,-239.94 1686.81,-230.68 1682.16,-235.91"/>
</g>
<!-- Node23 -->
<g id="node23" class="node">
<title>Node23</title>
<g id="a_node23"><a xlink:href="HughesWinget_8h.html" target="_top" xlink:title=" ">
<polygon fill="white" stroke="black" points="1052.5,-162 1052.5,-192 1233.5,-192 1233.5,-162 1052.5,-162"/>
<text text-anchor="start" x="1060.5" y="-180" font-family="Helvetica,sans-Serif" font-size="10.00">modules/core/MarmotMechanics</text>
<text text-anchor="middle" x="1143" y="-169" font-family="Helvetica,sans-Serif" font-size="10.00">Core/include/Marmot/HughesWinget.h</text>
</a>
</g>
</g>
<!-- Node8&#45;&gt;Node23 -->
<g id="edge25" class="edge">
<title>Node8&#45;&gt;Node23</title>
<path fill="none" stroke="midnightblue" d="M1612.09,-244.15C1518.62,-234.19 1373.28,-217.52 1248,-198 1236.72,-196.24 1224.81,-194.18 1213.2,-192.05"/>
<polygon fill="midnightblue" stroke="midnightblue" points="1611.78,-247.63 1622.09,-245.21 1612.52,-240.67 1611.78,-247.63"/>
</g>
<!-- Node24 -->
<g id="node24" class="node">
<title>Node24</title>
<g id="a_node24"><a xlink:href="MarmotElasticity_8h.html" target="_top" xlink:title=" ">
<polygon fill="white" stroke="black" points="2438.5,-162 2438.5,-192 2627.5,-192 2627.5,-162 2438.5,-162"/>
<text text-anchor="start" x="2446.5" y="-180" font-family="Helvetica,sans-Serif" font-size="10.00">modules/core/MarmotMechanics</text>
<text text-anchor="middle" x="2533" y="-169" font-family="Helvetica,sans-Serif" font-size="10.00">Core/include/Marmot/MarmotElasticity.h</text>
</a>
</g>
</g>
<!-- Node8&#45;&gt;Node24 -->
<g id="edge29" class="edge">
<title>Node8&#45;&gt;Node24</title>
<path fill="none" stroke="midnightblue" d="M1805.53,-246.33C1931.54,-236.15 2158.91,-217.22 2353,-198 2380.69,-195.26 2410.75,-192.02 2438.23,-188.96"/>
<polygon fill="midnightblue" stroke="midnightblue" points="1805.2,-242.85 1795.52,-247.14 1805.77,-249.82 1805.2,-242.85"/>
</g>
<!-- Node8&#45;&gt;Node26 -->
<g id="edge54" class="edge">
<title>Node8&#45;&gt;Node26</title>
<path fill="none" stroke="midnightblue" d="M1805.58,-252.29C2028.11,-247.76 2563.52,-233.3 2637,-198 2659.69,-187.1 2653.54,-169.15 2675,-156 2681.64,-151.93 2767.95,-129.28 2827.01,-114.06"/>
<polygon fill="midnightblue" stroke="midnightblue" points="1805.47,-248.79 1795.54,-252.49 1805.61,-255.79 1805.47,-248.79"/>
</g>
<!-- Node27 -->
<g id="node27" class="node">
<title>Node27</title>
<g id="a_node27"><a xlink:href="MarmotKinematics_8h.html" target="_top" xlink:title=" ">
<polygon fill="white" stroke="black" points="1290.5,-162 1290.5,-192 1489.5,-192 1489.5,-162 1290.5,-162"/>
<text text-anchor="start" x="1298.5" y="-180" font-family="Helvetica,sans-Serif" font-size="10.00">modules/core/MarmotMechanics</text>
<text text-anchor="middle" x="1390" y="-169" font-family="Helvetica,sans-Serif" font-size="10.00">Core/include/Marmot/MarmotKinematics.h</text>
</a>
</g>
</g>
<!-- Node8&#45;&gt;Node27 -->
<g id="edge32" class="edge">
<title>Node8&#45;&gt;Node27</title>
<path fill="none" stroke="midnightblue" d="M1640.1,-237.59C1583.06,-223.99 1502.87,-204.89 1448.81,-192.01"/>
<polygon fill="midnightblue" stroke="midnightblue" points="1639.58,-241.06 1650.12,-239.97 1641.2,-234.25 1639.58,-241.06"/>
</g>
<!-- Node28 -->
<g id="node28" class="node">
<title>Node28</title>
<g id="a_node28"><a xlink:href="MarmotLowerDimensionalStress_8h.html" target="_top" xlink:title=" ">
<polygon fill="white" stroke="black" points="1660,-156.5 1660,-197.5 1830,-197.5 1830,-156.5 1660,-156.5"/>
<text text-anchor="start" x="1668" y="-185.5" font-family="Helvetica,sans-Serif" font-size="10.00">modules/core/MarmotMechanics</text>
<text text-anchor="start" x="1668" y="-174.5" font-family="Helvetica,sans-Serif" font-size="10.00">Core/include/Marmot/MarmotLower</text>
<text text-anchor="middle" x="1745" y="-163.5" font-family="Helvetica,sans-Serif" font-size="10.00">DimensionalStress.h</text>
</a>
</g>
</g>
<!-- Node8&#45;&gt;Node28 -->
<g id="edge38" class="edge">
<title>Node8&#45;&gt;Node28</title>
<path fill="none" stroke="midnightblue" d="M1720.07,-230.63C1725.07,-220.08 1730.91,-207.75 1735.68,-197.68"/>
<polygon fill="midnightblue" stroke="midnightblue" points="1716.89,-229.17 1715.77,-239.7 1723.22,-232.17 1716.89,-229.17"/>
</g>
<!-- Node8&#45;&gt;Node29 -->
<g id="edge50" class="edge">
<title>Node8&#45;&gt;Node29</title>
<path fill="none" stroke="midnightblue" d="M1805.82,-248.19C1908,-240.73 2061.28,-225.36 2113,-198 2135.25,-186.23 2129.64,-169.32 2151,-156 2173.19,-142.16 2235.25,-125.54 2283.46,-114.01"/>
<polygon fill="midnightblue" stroke="midnightblue" points="1805.51,-244.7 1795.79,-248.91 1806.01,-251.69 1805.51,-244.7"/>
</g>
<!-- Node30 -->
<g id="node30" class="node">
<title>Node30</title>
<g id="a_node30"><a xlink:href="MarmotUtility_8cpp.html" target="_top" xlink:title=" ">
<polygon fill="white" stroke="black" points="2684,-162 2684,-192 2842,-192 2842,-162 2684,-162"/>
<text text-anchor="start" x="2692" y="-180" font-family="Helvetica,sans-Serif" font-size="10.00">modules/core/MarmotMechanics</text>
<text text-anchor="middle" x="2763" y="-169" font-family="Helvetica,sans-Serif" font-size="10.00">Core/src/MarmotUtility.cpp</text>
</a>
</g>
</g>
<!-- Node8&#45;&gt;Node30 -->
<g id="edge51" class="edge">
<title>Node8&#45;&gt;Node30</title>
<path fill="none" stroke="midnightblue" d="M1805.72,-253.27C1979.51,-250.86 2355.82,-240.68 2670,-198 2681.13,-196.49 2692.91,-194.37 2704.2,-192.07"/>
<polygon fill="midnightblue" stroke="midnightblue" points="1805.52,-249.77 1795.57,-253.4 1805.62,-256.77 1805.52,-249.77"/>
</g>
<!-- Node10 -->
<g id="node10" class="node">
<title>Node10</title>
<g id="a_node10"><a xlink:href="MarmotGeometryElement_8cpp.html" target="_top" xlink:title=" ">
<polygon fill="white" stroke="black" points="2065.5,-78.5 2065.5,-119.5 2232.5,-119.5 2232.5,-78.5 2065.5,-78.5"/>
<text text-anchor="start" x="2073.5" y="-107.5" font-family="Helvetica,sans-Serif" font-size="10.00">modules/core/MarmotFinite</text>
<text text-anchor="start" x="2073.5" y="-96.5" font-family="Helvetica,sans-Serif" font-size="10.00">ElementCore/src/MarmotGeometry</text>
<text text-anchor="middle" x="2149" y="-85.5" font-family="Helvetica,sans-Serif" font-size="10.00">Element.cpp</text>
</a>
</g>
</g>
<!-- Node9&#45;&gt;Node10 -->
<g id="edge9" class="edge">
<title>Node9&#45;&gt;Node10</title>
<path fill="none" stroke="midnightblue" d="M2071.28,-150.92C2086.88,-140.7 2104.63,-129.07 2119.23,-119.51"/>
<polygon fill="midnightblue" stroke="midnightblue" points="2069.32,-148.02 2062.87,-156.43 2073.16,-153.88 2069.32,-148.02"/>
</g>
<!-- Node9&#45;&gt;Node11 -->
<g id="edge10" class="edge">
<title>Node9&#45;&gt;Node11</title>
<path fill="none" stroke="midnightblue" d="M2009.95,-148.63C2001.83,-138.99 1992.88,-128.36 1985.43,-119.51"/>
<polygon fill="midnightblue" stroke="midnightblue" points="2007.4,-151.03 2016.52,-156.43 2012.75,-146.52 2007.4,-151.03"/>
</g>
<!-- Node12 -->
<g id="node12" class="node">
<title>Node12</title>
<g id="a_node12"><a xlink:href="DisplacementFiniteElementRegistration_8cpp.html" target="_top" xlink:title=" ">
<polygon fill="white" stroke="black" points="1879.5,-0.5 1879.5,-41.5 2058.5,-41.5 2058.5,-0.5 1879.5,-0.5"/>
<text text-anchor="start" x="1887.5" y="-29.5" font-family="Helvetica,sans-Serif" font-size="10.00">modules/elements/Displacement</text>
<text text-anchor="start" x="1887.5" y="-18.5" font-family="Helvetica,sans-Serif" font-size="10.00">FiniteElement/src/DisplacementFinite</text>
<text text-anchor="middle" x="1969" y="-7.5" font-family="Helvetica,sans-Serif" font-size="10.00">ElementRegistration.cpp</text>
</a>
</g>
</g>
<!-- Node11&#45;&gt;Node12 -->
<g id="edge11" class="edge">
<title>Node11&#45;&gt;Node12</title>
<path fill="none" stroke="midnightblue" d="M1969,-68.3C1969,-59.3 1969,-49.65 1969,-41.51"/>
<polygon fill="midnightblue" stroke="midnightblue" points="1965.5,-68.43 1969,-78.43 1972.5,-68.43 1965.5,-68.43"/>
</g>
<!-- Node14&#45;&gt;Node6 -->
<g id="edge15" class="edge">
<title>Node14&#45;&gt;Node6</title>
<path fill="none" stroke="midnightblue" d="M825.63,-167.32C682.32,-153.46 414.62,-127.17 371,-120 360.95,-118.35 350.33,-116.25 340.08,-114.03"/>
<polygon fill="midnightblue" stroke="midnightblue" points="825.44,-170.82 835.73,-168.29 826.11,-163.85 825.44,-170.82"/>
</g>
<!-- Node14&#45;&gt;Node7 -->
<g id="edge23" class="edge">
<title>Node14&#45;&gt;Node7</title>
<path fill="none" stroke="midnightblue" d="M825.97,-162.36C717.29,-145.89 548.72,-120.33 547,-120 537.61,-118.22 527.7,-116.16 518.05,-114.04"/>
<polygon fill="midnightblue" stroke="midnightblue" points="825.55,-165.83 835.96,-163.87 826.6,-158.91 825.55,-165.83"/>
</g>
<!-- Node15 -->
<g id="node15" class="node">
<title>Node15</title>
<g id="a_node15"><a xlink:href="MarmotTensor_8cpp.html" target="_top" xlink:title=" ">
<polygon fill="white" stroke="black" points="556.5,-84 556.5,-114 709.5,-114 709.5,-84 556.5,-84"/>
<text text-anchor="start" x="564.5" y="-102" font-family="Helvetica,sans-Serif" font-size="10.00">modules/core/MarmotMathCore</text>
<text text-anchor="middle" x="633" y="-91" font-family="Helvetica,sans-Serif" font-size="10.00">/src/MarmotTensor.cpp</text>
</a>
</g>
</g>
<!-- Node14&#45;&gt;Node15 -->
<g id="edge14" class="edge">
<title>Node14&#45;&gt;Node15</title>
<path fill="none" stroke="midnightblue" d="M853.95,-159.34C803.49,-145.78 733.08,-126.88 685.41,-114.07"/>
<polygon fill="midnightblue" stroke="midnightblue" points="853.2,-162.76 863.76,-161.97 855.01,-156 853.2,-162.76"/>
</g>
<!-- Node14&#45;&gt;Node16 -->
<g id="edge16" class="edge">
<title>Node14&#45;&gt;Node16</title>
<path fill="none" stroke="midnightblue" d="M887.47,-156.11C868.52,-142.89 844.08,-125.86 827.14,-114.04"/>
<polygon fill="midnightblue" stroke="midnightblue" points="885.55,-159.03 895.75,-161.88 889.55,-153.29 885.55,-159.03"/>
</g>
<!-- Node17 -->
<g id="node17" class="node">
<title>Node17</title>
<g id="a_node17"><a xlink:href="MarmotKinematics_8cpp.html" target="_top" xlink:title=" ">
<polygon fill="white" stroke="black" points="904,-84 904,-114 1062,-114 1062,-84 904,-84"/>
<text text-anchor="start" x="912" y="-102" font-family="Helvetica,sans-Serif" font-size="10.00">modules/core/MarmotMechanics</text>
<text text-anchor="middle" x="983" y="-91" font-family="Helvetica,sans-Serif" font-size="10.00">Core/src/MarmotKinematics.cpp</text>
</a>
</g>
</g>
<!-- Node14&#45;&gt;Node17 -->
<g id="edge17" class="edge">
<title>Node14&#45;&gt;Node17</title>
<path fill="none" stroke="midnightblue" d="M935.24,-154.17C946.56,-141.33 960.55,-125.47 970.45,-114.23"/>
<polygon fill="midnightblue" stroke="midnightblue" points="932.59,-151.89 928.6,-161.7 937.84,-156.52 932.59,-151.89"/>
</g>
<!-- Node14&#45;&gt;Node18 -->
<g id="edge18" class="edge">
<title>Node14&#45;&gt;Node18</title>
<path fill="none" stroke="midnightblue" d="M1004.89,-160.49C1017.65,-158.71 1030.63,-157.13 1043,-156 1666.4,-99.19 1829.86,-197.75 2451,-120 2462.04,-118.62 2473.72,-116.46 2484.84,-114.07"/>
<polygon fill="midnightblue" stroke="midnightblue" points="1004.12,-157.07 994.73,-161.96 1005.12,-164 1004.12,-157.07"/>
</g>
<!-- Node14&#45;&gt;Node19 -->
<g id="edge19" class="edge">
<title>Node14&#45;&gt;Node19</title>
<path fill="none" stroke="midnightblue" d="M1006.38,-160.62C1018.66,-158.87 1031.12,-157.26 1043,-156 1330.71,-125.46 1406.2,-158.22 1693,-120 1695.89,-119.61 1698.83,-119.19 1701.79,-118.73"/>
<polygon fill="midnightblue" stroke="midnightblue" points="1005.51,-157.21 996.12,-162.13 1006.52,-164.14 1005.51,-157.21"/>
</g>
<!-- Node14&#45;&gt;Node20 -->
<g id="edge20" class="edge">
<title>Node14&#45;&gt;Node20</title>
<path fill="none" stroke="midnightblue" d="M1006.51,-161.66C1018.77,-159.75 1031.19,-157.82 1043,-156 1149.61,-139.61 1176.62,-137.82 1283,-120 1294.1,-118.14 1305.81,-116.08 1317.28,-114"/>
<polygon fill="midnightblue" stroke="midnightblue" points="1005.6,-158.26 996.27,-163.27 1006.69,-165.18 1005.6,-158.26"/>
</g>
<!-- Node14&#45;&gt;Node21 -->
<g id="edge21" class="edge">
<title>Node14&#45;&gt;Node21</title>
<path fill="none" stroke="midnightblue" d="M973.81,-159.17C1020.31,-145.63 1084.88,-126.82 1128.66,-114.07"/>
<polygon fill="midnightblue" stroke="midnightblue" points="972.8,-155.82 964.18,-161.97 974.76,-162.54 972.8,-155.82"/>
</g>
<!-- Node14&#45;&gt;Node22 -->
<g id="edge22" class="edge">
<title>Node14&#45;&gt;Node22</title>
<path fill="none" stroke="midnightblue" d="M1006.41,-160.88C1018.68,-159.09 1031.14,-157.4 1043,-156 1244.9,-132.17 1297.72,-148.58 1499,-120 1501.89,-119.59 1504.83,-119.14 1507.79,-118.67"/>
<polygon fill="midnightblue" stroke="midnightblue" points="1005.53,-157.48 996.15,-162.41 1006.56,-164.4 1005.53,-157.48"/>
</g>
<!-- Node23&#45;&gt;Node16 -->
<g id="edge26" class="edge">
<title>Node23&#45;&gt;Node16</title>
<path fill="none" stroke="midnightblue" d="M1070.86,-159.74C1021.37,-148.57 954.2,-133.41 895,-120 886.6,-118.1 877.74,-116.09 869.02,-114.11"/>
<polygon fill="midnightblue" stroke="midnightblue" points="1070.3,-163.2 1080.82,-161.99 1071.84,-156.37 1070.3,-163.2"/>
</g>
<!-- Node23&#45;&gt;Node21 -->
<g id="edge27" class="edge">
<title>Node23&#45;&gt;Node21</title>
<path fill="none" stroke="midnightblue" d="M1153.59,-152.33C1159.17,-139.85 1165.84,-124.94 1170.63,-114.23"/>
<polygon fill="midnightblue" stroke="midnightblue" points="1150.28,-151.15 1149.4,-161.7 1156.67,-154.01 1150.28,-151.15"/>
</g>
<!-- Node23&#45;&gt;Node22 -->
<g id="edge28" class="edge">
<title>Node23&#45;&gt;Node22</title>
<path fill="none" stroke="midnightblue" d="M1243.45,-161.5C1314.88,-150.86 1413.02,-135.62 1499,-120 1501.88,-119.48 1504.8,-118.94 1507.75,-118.38"/>
<polygon fill="midnightblue" stroke="midnightblue" points="1242.93,-158.03 1233.55,-162.96 1243.95,-164.96 1242.93,-158.03"/>
</g>
<!-- Node25 -->
<g id="node25" class="node">
<title>Node25</title>
<g id="a_node25"><a xlink:href="MarmotElasticity_8cpp.html" target="_top" xlink:title=" ">
<polygon fill="white" stroke="black" points="2636,-84 2636,-114 2794,-114 2794,-84 2636,-84"/>
<text text-anchor="start" x="2644" y="-102" font-family="Helvetica,sans-Serif" font-size="10.00">modules/core/MarmotMechanics</text>
<text text-anchor="middle" x="2715" y="-91" font-family="Helvetica,sans-Serif" font-size="10.00">Core/src/MarmotElasticity.cpp</text>
</a>
</g>
</g>
<!-- Node24&#45;&gt;Node25 -->
<g id="edge30" class="edge">
<title>Node24&#45;&gt;Node25</title>
<path fill="none" stroke="midnightblue" d="M2576.41,-157.87C2608.58,-144.44 2651.8,-126.39 2681.37,-114.04"/>
<polygon fill="midnightblue" stroke="midnightblue" points="2574.69,-154.8 2566.81,-161.88 2577.38,-161.26 2574.69,-154.8"/>
</g>
<!-- Node24&#45;&gt;Node26 -->
<g id="edge31" class="edge">
<title>Node24&#45;&gt;Node26</title>
<path fill="none" stroke="midnightblue" d="M2614.95,-159.97C2668.58,-149.24 2740.11,-134.48 2803,-120 2811,-118.16 2819.43,-116.13 2827.68,-114.08"/>
<polygon fill="midnightblue" stroke="midnightblue" points="2613.93,-156.6 2604.81,-161.99 2615.3,-163.46 2613.93,-156.6"/>
</g>
<!-- Node27&#45;&gt;Node16 -->
<g id="edge33" class="edge">
<title>Node27&#45;&gt;Node16</title>
<path fill="none" stroke="midnightblue" d="M1280.35,-160.69C1267.76,-159.05 1255.11,-157.45 1243,-156 1088.61,-137.52 1048.42,-145.28 895,-120 884.95,-118.34 874.33,-116.24 864.08,-114.02"/>
<polygon fill="midnightblue" stroke="midnightblue" points="1280.05,-164.18 1290.42,-162.01 1280.96,-157.24 1280.05,-164.18"/>
</g>
<!-- Node27&#45;&gt;Node17 -->
<g id="edge34" class="edge">
<title>Node27&#45;&gt;Node17</title>
<path fill="none" stroke="midnightblue" d="M1293.15,-160.28C1229.79,-149.69 1145.3,-134.96 1071,-120 1061.94,-118.18 1052.38,-116.13 1043.03,-114.06"/>
<polygon fill="midnightblue" stroke="midnightblue" points="1292.69,-163.76 1303.13,-161.95 1293.84,-156.85 1292.69,-163.76"/>
</g>
<!-- Node27&#45;&gt;Node20 -->
<g id="edge35" class="edge">
<title>Node27&#45;&gt;Node20</title>
<path fill="none" stroke="midnightblue" d="M1390.32,-151.59C1390.48,-139.26 1390.67,-124.72 1390.81,-114.23"/>
<polygon fill="midnightblue" stroke="midnightblue" points="1386.82,-151.66 1390.19,-161.7 1393.82,-151.75 1386.82,-151.66"/>
</g>
<!-- Node27&#45;&gt;Node21 -->
<g id="edge36" class="edge">
<title>Node27&#45;&gt;Node21</title>
<path fill="none" stroke="midnightblue" d="M1340.65,-158.39C1302.85,-144.9 1251.41,-126.55 1216.35,-114.04"/>
<polygon fill="midnightblue" stroke="midnightblue" points="1339.84,-161.82 1350.44,-161.88 1342.19,-155.23 1339.84,-161.82"/>
</g>
<!-- Node27&#45;&gt;Node22 -->
<g id="edge37" class="edge">
<title>Node27&#45;&gt;Node22</title>
<path fill="none" stroke="midnightblue" d="M1437.68,-158.41C1469.11,-146.81 1510.31,-131.61 1542.8,-119.63"/>
<polygon fill="midnightblue" stroke="midnightblue" points="1436.43,-155.14 1428.26,-161.88 1438.86,-161.71 1436.43,-155.14"/>
</g>
<!-- Node28&#45;&gt;Node11 -->
<g id="edge43" class="edge">
<title>Node28&#45;&gt;Node11</title>
<path fill="none" stroke="midnightblue" d="M1812.3,-153.17C1843.92,-142.44 1881.23,-129.78 1911.51,-119.51"/>
<polygon fill="midnightblue" stroke="midnightblue" points="1811.03,-149.9 1802.69,-156.43 1813.28,-156.53 1811.03,-149.9"/>
</g>
<!-- Node28&#45;&gt;Node19 -->
<g id="edge39" class="edge">
<title>Node28&#45;&gt;Node19</title>
<path fill="none" stroke="midnightblue" d="M1760.77,-147.47C1765.92,-138.14 1771.52,-128.01 1776.22,-119.51"/>
<polygon fill="midnightblue" stroke="midnightblue" points="1757.59,-145.98 1755.82,-156.43 1763.72,-149.37 1757.59,-145.98"/>
</g>
<!-- Node28&#45;&gt;Node21 -->
<g id="edge40" class="edge">
<title>Node28&#45;&gt;Node21</title>
<path fill="none" stroke="midnightblue" d="M1649.82,-166.23C1556.43,-156.23 1410.09,-139.42 1284,-120 1272.51,-118.23 1260.37,-116.16 1248.55,-114.03"/>
<polygon fill="midnightblue" stroke="midnightblue" points="1649.5,-169.72 1659.81,-167.3 1650.24,-162.76 1649.5,-169.72"/>
</g>
<!-- Node28&#45;&gt;Node22 -->
<g id="edge41" class="edge">
<title>Node28&#45;&gt;Node22</title>
<path fill="none" stroke="midnightblue" d="M1697.49,-151.77C1677.07,-141.35 1653.51,-129.34 1634.24,-119.51"/>
<polygon fill="midnightblue" stroke="midnightblue" points="1696.13,-155 1706.63,-156.43 1699.31,-148.77 1696.13,-155"/>
</g>
<!-- Node28&#45;&gt;Node29 -->
<g id="edge42" class="edge">
<title>Node28&#45;&gt;Node29</title>
<path fill="none" stroke="midnightblue" d="M1840.31,-166.15C1962.32,-153.39 2166.91,-131.43 2242,-120 2253.36,-118.27 2265.37,-116.19 2277.04,-114.04"/>
<polygon fill="midnightblue" stroke="midnightblue" points="1839.81,-162.69 1830.22,-167.21 1840.53,-169.65 1839.81,-162.69"/>
</g>
</g>
</svg>
        <g id="navigator" transform="translate(0 0)" fill="#404254">
                <rect fill="#f2f5e9" fill-opacity="0.5" stroke="#606060" stroke-width=".5" x="0" y="0" width="60" height="60"/>
                <use id="zoomplus" xlink:href="#zoomPlus" x="17" y="9" onmousedown="handleZoom(evt,'in')"/>
                <use id="zoomminus" xlink:href="#zoomMin" x="42" y="9" onmousedown="handleZoom(evt,'out')"/>
                <use id="reset" xlink:href="#resetDef" x="30" y="36" onmousedown="handleReset()"/>
                <g id="arrowUp" xlink:href="#dirArrow" transform="translate(30 24)" onmousedown="handlePan(0,-1)">
                  <use xlink:href="#rim" fill="#404040">
                        <set attributeName="fill" to="#808080" begin="arrowUp.mouseover" end="arrowUp.mouseout"/>
                  </use>
                  <path fill="none" stroke="white" stroke-width="1.5" d="M0,-3.0v7 M-2.5,-0.5L0,-3.0L2.5,-0.5"/>
                </g>
                <g id="arrowRight" xlink:href="#dirArrow" transform="rotate(90) translate(36 -43)" onmousedown="handlePan(1,0)">
                  <use xlink:href="#rim" fill="#404040">
                        <set attributeName="fill" to="#808080" begin="arrowRight.mouseover" end="arrowRight.mouseout"/>
                  </use>
                  <path fill="none" stroke="white" stroke-width="1.5" d="M0,-3.0v7 M-2.5,-0.5L0,-3.0L2.5,-0.5"/>
                </g>
                <g id="arrowDown" xlink:href="#dirArrow" transform="rotate(180) translate(-30 -48)" onmousedown="handlePan(0,1)">
                  <use xlink:href="#rim" fill="#404040">
                        <set attributeName="fill" to="#808080" begin="arrowDown.mouseover" end="arrowDown.mouseout"/>
                  </use>
                  <path fill="none" stroke="white" stroke-width="1.5" d="M0,-3.0v7 M-2.5,-0.5L0,-3.0L2.5,-0.5"/>
                </g>
                <g id="arrowLeft" xlink:href="#dirArrow" transform="rotate(270) translate(-36 17)" onmousedown="handlePan(-1,0)">
                  <use xlink:href="#rim" fill="#404040">
                        <set attributeName="fill" to="#808080" begin="arrowLeft.mouseover" end="arrowLeft.mouseout"/>
                  </use>
                  <path fill="none" stroke="white" stroke-width="1.5" d="M0,-3.0v7 M-2.5,-0.5L0,-3.0L2.5,-0.5"/>
                </g>
        </g>
        <svg viewBox="0 0 15 15" width="100%" height="30px" preserveAspectRatio="xMaxYMin meet">
         <g id="arrow_out" transform="scale(0.3 0.3)">
          <a xlink:href="MarmotMath_8h__dep__incl_org.svg" target="_base">
           <rect id="button" ry="5" rx="5" y="6" x="6" height="38" width="38"
                fill="#f2f5e9" fill-opacity="0.5" stroke="#606060" stroke-width="1.0"/>
           <path id="arrow"
             d="M 11.500037,31.436501 C 11.940474,20.09759 22.043105,11.32322 32.158766,21.979434 L 37.068811,17.246167 C 37.068811,17.246167 37.088388,32 37.088388,32 L 22.160133,31.978069 C 22.160133,31.978069 26.997745,27.140456 26.997745,27.140456 C 18.528582,18.264221 13.291696,25.230495 11.500037,31.436501 z"
             style="fill:#404040;"/>
          </a>
         </g>
        </svg>
</svg>
