<?xml version="1.0" encoding="UTF-8" standalone="no"?>
<!DOCTYPE svg PUBLIC "-//W3C//DTD SVG 1.1//EN"
 "http://www.w3.org/Graphics/SVG/1.1/DTD/svg11.dtd">
<!-- Generated by graphviz version 2.44.0 ()
 -->
<!-- Title: modules/core/MarmotMechanicsCore/src/MarmotMaterialHypoElasticAD.cpp Pages: 1 -->
<svg width="1294pt" height="430pt"
 viewBox="0.00 0.00 1294.18 430.00" xmlns="http://www.w3.org/2000/svg" xmlns:xlink="http://www.w3.org/1999/xlink">
<g id="graph0" class="graph" transform="scale(1 1) rotate(0) translate(4 426)">
<title>modules/core/MarmotMechanicsCore/src/MarmotMaterialHypoElasticAD.cpp</title>
<polygon fill="white" stroke="transparent" points="-4,4 -4,-426 1290.18,-426 1290.18,4 -4,4"/>
<!-- Node1 -->
<g id="node1" class="node">
<title>Node1</title>
<g id="a_node1"><a xlink:title=" ">
<polygon fill="#bfbfbf" stroke="black" points="518,-380.5 518,-421.5 694,-421.5 694,-380.5 518,-380.5"/>
<text text-anchor="start" x="526" y="-409.5" font-family="Helvetica,sans-Serif" font-size="10.00">modules/core/MarmotMechanics</text>
<text text-anchor="start" x="526" y="-398.5" font-family="Helvetica,sans-Serif" font-size="10.00">Core/src/MarmotMaterialHypoElastic</text>
<text text-anchor="middle" x="606" y="-387.5" font-family="Helvetica,sans-Serif" font-size="10.00">AD.cpp</text>
</a>
</g>
</g>
<!-- Node2 -->
<g id="node2" class="node">
<title>Node2</title>
<g id="a_node2"><a xlink:href="MarmotMaterialHypoElasticAD_8h.html" target="_top" xlink:title=" ">
<polygon fill="white" stroke="black" points="222.5,-246.5 222.5,-276.5 365.5,-276.5 365.5,-246.5 222.5,-246.5"/>
<text text-anchor="start" x="230.5" y="-264.5" font-family="Helvetica,sans-Serif" font-size="10.00">Marmot/MarmotMaterialHypo</text>
<text text-anchor="middle" x="294" y="-253.5" font-family="Helvetica,sans-Serif" font-size="10.00">ElasticAD.h</text>
</a>
</g>
</g>
<!-- Node1&#45;&gt;Node2 -->
<g id="edge1" class="edge">
<title>Node1&#45;&gt;Node2</title>
<path fill="none" stroke="midnightblue" d="M551.45,-380.41C523.81,-370.14 489.86,-357.03 460,-344 414.27,-324.05 362.9,-298.29 329.58,-281.13"/>
<polygon fill="midnightblue" stroke="midnightblue" points="331.17,-278.01 320.68,-276.53 327.95,-284.23 331.17,-278.01"/>
</g>
<!-- Node8 -->
<g id="node8" class="node">
<title>Node8</title>
<g id="a_node8"><a xlink:href="HughesWinget_8h.html" target="_top" xlink:title=" ">
<polygon fill="white" stroke="black" points="745,-319 745,-338 869,-338 869,-319 745,-319"/>
<text text-anchor="middle" x="807" y="-326" font-family="Helvetica,sans-Serif" font-size="10.00">Marmot/HughesWinget.h</text>
</a>
</g>
</g>
<!-- Node1&#45;&gt;Node8 -->
<g id="edge7" class="edge">
<title>Node1&#45;&gt;Node8</title>
<path fill="none" stroke="midnightblue" d="M661.72,-380.46C697.42,-367.93 742.59,-352.09 773.01,-341.42"/>
<polygon fill="midnightblue" stroke="midnightblue" points="774.45,-344.63 782.73,-338.01 772.13,-338.02 774.45,-344.63"/>
</g>
<!-- Node9 -->
<g id="node9" class="node">
<title>Node9</title>
<g id="a_node9"><a xlink:href="MarmotVoigt_8h.html" target="_top" xlink:title=" ">
<polygon fill="white" stroke="black" points="568,-190.5 568,-209.5 684,-209.5 684,-190.5 568,-190.5"/>
<text text-anchor="middle" x="626" y="-197.5" font-family="Helvetica,sans-Serif" font-size="10.00">Marmot/MarmotVoigt.h</text>
</a>
</g>
</g>
<!-- Node1&#45;&gt;Node9 -->
<g id="edge48" class="edge">
<title>Node1&#45;&gt;Node9</title>
<path fill="none" stroke="midnightblue" d="M658.1,-380.33C673.75,-371.68 689.11,-359.81 698,-344 723.53,-298.57 673.04,-242.98 644.19,-216.48"/>
<polygon fill="midnightblue" stroke="midnightblue" points="646.17,-213.56 636.38,-209.52 641.52,-218.79 646.17,-213.56"/>
</g>
<!-- Node10 -->
<g id="node10" class="node">
<title>Node10</title>
<g id="a_node10"><a xlink:href="MarmotJournal_8h.html" target="_top" xlink:title=" ">
<polygon fill="white" stroke="black" points="272.5,-134.5 272.5,-153.5 397.5,-153.5 397.5,-134.5 272.5,-134.5"/>
<text text-anchor="middle" x="335" y="-141.5" font-family="Helvetica,sans-Serif" font-size="10.00">Marmot/MarmotJournal.h</text>
</a>
</g>
</g>
<!-- Node1&#45;&gt;Node10 -->
<g id="edge38" class="edge">
<title>Node1&#45;&gt;Node10</title>
<path fill="none" stroke="midnightblue" d="M517.55,-385.01C413.12,-365.25 249.13,-327.06 214,-277 191.79,-245.35 190.89,-221.72 213,-190 224.65,-173.28 243.25,-162.76 262.45,-156.14"/>
<polygon fill="midnightblue" stroke="midnightblue" points="263.69,-159.42 272.2,-153.11 261.61,-152.74 263.69,-159.42"/>
</g>
<!-- Node11 -->
<g id="node11" class="node">
<title>Node11</title>
<g id="a_node11"><a xlink:title=" ">
<polygon fill="white" stroke="#bfbfbf" points="369,-73 369,-92 423,-92 423,-73 369,-73"/>
<text text-anchor="middle" x="396" y="-80" font-family="Helvetica,sans-Serif" font-size="10.00">iostream</text>
</a>
</g>
</g>
<!-- Node1&#45;&gt;Node11 -->
<g id="edge49" class="edge">
<title>Node1&#45;&gt;Node11</title>
<path fill="none" stroke="midnightblue" d="M517.93,-397.67C446.13,-393 343.48,-379.9 261,-344 206.83,-320.43 156,-321.57 156,-262.5 156,-262.5 156,-262.5 156,-199 156,-97.83 265.71,-134.66 360,-98 361.84,-97.29 363.72,-96.55 365.63,-95.79"/>
<polygon fill="midnightblue" stroke="midnightblue" points="367.1,-98.97 375.09,-92.02 364.51,-92.47 367.1,-98.97"/>
</g>
<!-- Node13 -->
<g id="node13" class="node">
<title>Node13</title>
<g id="a_node13"><a xlink:href="MarmotMath_8h.html" target="_top" xlink:title=" ">
<polygon fill="white" stroke="black" points="874.5,-134.5 874.5,-153.5 989.5,-153.5 989.5,-134.5 874.5,-134.5"/>
<text text-anchor="middle" x="932" y="-141.5" font-family="Helvetica,sans-Serif" font-size="10.00">Marmot/MarmotMath.h</text>
</a>
</g>
</g>
<!-- Node1&#45;&gt;Node13 -->
<g id="edge45" class="edge">
<title>Node1&#45;&gt;Node13</title>
<path fill="none" stroke="midnightblue" d="M694.28,-399.09C862.08,-395.1 1215.69,-375 1275,-277 1337.94,-173.01 1117.27,-150.69 1000.23,-146.08"/>
<polygon fill="midnightblue" stroke="midnightblue" points="1000.05,-142.57 989.93,-145.71 999.8,-149.57 1000.05,-142.57"/>
</g>
<!-- Node16 -->
<g id="node16" class="node">
<title>Node16</title>
<g id="a_node16"><a xlink:href="MarmotTypedefs_8h.html" target="_top" xlink:title=" ">
<polygon fill="white" stroke="black" points="445.5,-73 445.5,-92 578.5,-92 578.5,-73 445.5,-73"/>
<text text-anchor="middle" x="512" y="-80" font-family="Helvetica,sans-Serif" font-size="10.00">Marmot/MarmotTypedefs.h</text>
</a>
</g>
</g>
<!-- Node1&#45;&gt;Node16 -->
<g id="edge47" class="edge">
<title>Node1&#45;&gt;Node16</title>
<path fill="none" stroke="midnightblue" d="M553.9,-380.33C538.25,-371.68 522.89,-359.81 514,-344 507.25,-331.99 510.4,-326.3 514,-313 518.83,-295.12 530.17,-294.88 535,-277 551.97,-214.23 530.49,-136.64 518.74,-101.87"/>
<polygon fill="midnightblue" stroke="midnightblue" points="521.94,-100.43 515.32,-92.16 515.34,-102.75 521.94,-100.43"/>
</g>
<!-- Node24 -->
<g id="node24" class="node">
<title>Node24</title>
<g id="a_node24"><a xlink:href="MarmotAutomaticDifferentiation_8h.html" target="_top" xlink:title=" ">
<polygon fill="white" stroke="black" points="940.5,-319 940.5,-338 1137.5,-338 1137.5,-319 940.5,-319"/>
<text text-anchor="middle" x="1039" y="-326" font-family="Helvetica,sans-Serif" font-size="10.00">Marmot/MarmotAutomaticDifferentiation.h</text>
</a>
</g>
</g>
<!-- Node1&#45;&gt;Node24 -->
<g id="edge26" class="edge">
<title>Node1&#45;&gt;Node24</title>
<path fill="none" stroke="midnightblue" d="M694.15,-385.65C778.1,-371.98 902.36,-351.75 976.55,-339.67"/>
<polygon fill="midnightblue" stroke="midnightblue" points="977.37,-343.08 986.68,-338.02 976.24,-336.17 977.37,-343.08"/>
</g>
<!-- Node25 -->
<g id="node25" class="node">
<title>Node25</title>
<g id="a_node25"><a xlink:href="MarmotTensor_8h.html" target="_top" xlink:title=" ">
<polygon fill="white" stroke="black" points="784.5,-252 784.5,-271 907.5,-271 907.5,-252 784.5,-252"/>
<text text-anchor="middle" x="846" y="-259" font-family="Helvetica,sans-Serif" font-size="10.00">Marmot/MarmotTensor.h</text>
</a>
</g>
</g>
<!-- Node1&#45;&gt;Node25 -->
<g id="edge46" class="edge">
<title>Node1&#45;&gt;Node25</title>
<path fill="none" stroke="midnightblue" d="M694.13,-393.71C764.5,-386.63 855,-372.22 878,-344 893.76,-324.66 876.16,-296.62 861.49,-278.98"/>
<polygon fill="midnightblue" stroke="midnightblue" points="863.92,-276.44 854.69,-271.24 858.66,-281.06 863.92,-276.44"/>
</g>
<!-- Node30 -->
<g id="node30" class="node">
<title>Node30</title>
<g id="a_node30"><a xlink:href="MarmotKinematics_8h.html" target="_top" xlink:title=" ">
<polygon fill="white" stroke="black" points="384,-252 384,-271 526,-271 526,-252 384,-252"/>
<text text-anchor="middle" x="455" y="-259" font-family="Helvetica,sans-Serif" font-size="10.00">Marmot/MarmotKinematics.h</text>
</a>
</g>
</g>
<!-- Node1&#45;&gt;Node30 -->
<g id="edge39" class="edge">
<title>Node1&#45;&gt;Node30</title>
<path fill="none" stroke="midnightblue" d="M535.45,-380.45C515.6,-372.01 495.5,-360.23 481,-344 465.34,-326.47 459.11,-299.47 456.63,-281.41"/>
<polygon fill="midnightblue" stroke="midnightblue" points="460.08,-280.8 455.5,-271.25 453.12,-281.57 460.08,-280.8"/>
</g>
<!-- Node31 -->
<g id="node31" class="node">
<title>Node31</title>
<g id="a_node31"><a xlink:href="MarmotLowerDimensionalStress_8h.html" target="_top" xlink:title=" ">
<polygon fill="white" stroke="black" points="523,-313.5 523,-343.5 689,-343.5 689,-313.5 523,-313.5"/>
<text text-anchor="start" x="531" y="-331.5" font-family="Helvetica,sans-Serif" font-size="10.00">Marmot/MarmotLowerDimensional</text>
<text text-anchor="middle" x="606" y="-320.5" font-family="Helvetica,sans-Serif" font-size="10.00">Stress.h</text>
</a>
</g>
</g>
<!-- Node1&#45;&gt;Node31 -->
<g id="edge43" class="edge">
<title>Node1&#45;&gt;Node31</title>
<path fill="none" stroke="midnightblue" d="M606,-380.36C606,-372.23 606,-362.7 606,-354.11"/>
<polygon fill="midnightblue" stroke="midnightblue" points="609.5,-353.89 606,-343.89 602.5,-353.89 609.5,-353.89"/>
</g>
<!-- Node3 -->
<g id="node3" class="node">
<title>Node3</title>
<g id="a_node3"><a xlink:href="MarmotMaterialMechanical_8h.html" target="_top" xlink:title=" ">
<polygon fill="white" stroke="black" points="221.5,-190.5 221.5,-209.5 398.5,-209.5 398.5,-190.5 221.5,-190.5"/>
<text text-anchor="middle" x="310" y="-197.5" font-family="Helvetica,sans-Serif" font-size="10.00">Marmot/MarmotMaterialMechanical.h</text>
</a>
</g>
</g>
<!-- Node2&#45;&gt;Node3 -->
<g id="edge2" class="edge">
<title>Node2&#45;&gt;Node3</title>
<path fill="none" stroke="midnightblue" d="M297.79,-246.4C299.95,-238.38 302.68,-228.23 305.01,-219.57"/>
<polygon fill="midnightblue" stroke="midnightblue" points="308.45,-220.22 307.67,-209.66 301.7,-218.41 308.45,-220.22"/>
</g>
<!-- Node7 -->
<g id="node7" class="node">
<title>Node7</title>
<g id="a_node7"><a xlink:title=" ">
<polygon fill="white" stroke="#bfbfbf" points="1036,-73 1036,-92 1158,-92 1158,-73 1036,-73"/>
<text text-anchor="middle" x="1097" y="-80" font-family="Helvetica,sans-Serif" font-size="10.00">autodiff/forward/dual.hpp</text>
</a>
</g>
</g>
<!-- Node2&#45;&gt;Node7 -->
<g id="edge6" class="edge">
<title>Node2&#45;&gt;Node7</title>
<path fill="none" stroke="midnightblue" d="M343.09,-246.4C396.1,-231.42 483.16,-207.52 559,-190 765.54,-142.28 819.21,-139.94 1027,-98 1033.23,-96.74 1039.76,-95.41 1046.23,-94.08"/>
<polygon fill="midnightblue" stroke="midnightblue" points="1047.21,-97.45 1056.3,-92 1045.8,-90.6 1047.21,-97.45"/>
</g>
<!-- Node4 -->
<g id="node4" class="node">
<title>Node4</title>
<g id="a_node4"><a xlink:href="MarmotMaterial_8h.html" target="_top" xlink:title=" ">
<polygon fill="white" stroke="black" points="0,-134.5 0,-153.5 128,-153.5 128,-134.5 0,-134.5"/>
<text text-anchor="middle" x="64" y="-141.5" font-family="Helvetica,sans-Serif" font-size="10.00">Marmot/MarmotMaterial.h</text>
</a>
</g>
</g>
<!-- Node3&#45;&gt;Node4 -->
<g id="edge3" class="edge">
<title>Node3&#45;&gt;Node4</title>
<path fill="none" stroke="midnightblue" d="M271.02,-190.44C228.11,-181.02 159.05,-165.87 112.63,-155.68"/>
<polygon fill="midnightblue" stroke="midnightblue" points="113.31,-152.24 102.8,-153.52 111.81,-159.08 113.31,-152.24"/>
</g>
<!-- Node5 -->
<g id="node5" class="node">
<title>Node5</title>
<g id="a_node5"><a xlink:href="MarmotUtils_8h.html" target="_top" xlink:title=" ">
<polygon fill="white" stroke="black" points="7.5,-73 7.5,-92 120.5,-92 120.5,-73 7.5,-73"/>
<text text-anchor="middle" x="64" y="-80" font-family="Helvetica,sans-Serif" font-size="10.00">Marmot/MarmotUtils.h</text>
</a>
</g>
</g>
<!-- Node4&#45;&gt;Node5 -->
<g id="edge4" class="edge">
<title>Node4&#45;&gt;Node5</title>
<path fill="none" stroke="midnightblue" d="M64,-134.48C64,-126.08 64,-112.98 64,-102.16"/>
<polygon fill="midnightblue" stroke="midnightblue" points="67.5,-102.01 64,-92.01 60.5,-102.01 67.5,-102.01"/>
</g>
<!-- Node6 -->
<g id="node6" class="node">
<title>Node6</title>
<g id="a_node6"><a xlink:title=" ">
<polygon fill="white" stroke="#bfbfbf" points="184.5,-73 184.5,-92 225.5,-92 225.5,-73 184.5,-73"/>
<text text-anchor="middle" x="205" y="-80" font-family="Helvetica,sans-Serif" font-size="10.00">string</text>
</a>
</g>
</g>
<!-- Node4&#45;&gt;Node6 -->
<g id="edge5" class="edge">
<title>Node4&#45;&gt;Node6</title>
<path fill="none" stroke="midnightblue" d="M84.2,-134.48C108.07,-124.4 148,-107.55 175.37,-96"/>
<polygon fill="midnightblue" stroke="midnightblue" points="176.98,-99.12 184.84,-92.01 174.26,-92.67 176.98,-99.12"/>
</g>
<!-- Node8&#45;&gt;Node9 -->
<g id="edge8" class="edge">
<title>Node8&#45;&gt;Node9</title>
<path fill="none" stroke="midnightblue" d="M800.82,-318.77C788.95,-302.52 761.39,-267.36 731,-246 710.55,-231.63 684.78,-220.5 663.89,-212.9"/>
<polygon fill="midnightblue" stroke="midnightblue" points="664.97,-209.57 654.38,-209.56 662.65,-216.18 664.97,-209.57"/>
</g>
<!-- Node9&#45;&gt;Node10 -->
<g id="edge9" class="edge">
<title>Node9&#45;&gt;Node10</title>
<path fill="none" stroke="midnightblue" d="M579.89,-190.44C528.59,-180.92 445.73,-165.55 390.81,-155.36"/>
<polygon fill="midnightblue" stroke="midnightblue" points="391.36,-151.9 380.89,-153.52 390.09,-158.78 391.36,-151.9"/>
</g>
<!-- Node9&#45;&gt;Node13 -->
<g id="edge13" class="edge">
<title>Node9&#45;&gt;Node13</title>
<path fill="none" stroke="midnightblue" d="M674.49,-190.44C728.54,-180.9 815.93,-165.48 873.67,-155.29"/>
<polygon fill="midnightblue" stroke="midnightblue" points="874.5,-158.7 883.74,-153.52 873.28,-151.81 874.5,-158.7"/>
</g>
<!-- Node9&#45;&gt;Node16 -->
<g id="edge25" class="edge">
<title>Node9&#45;&gt;Node16</title>
<path fill="none" stroke="midnightblue" d="M617.43,-190.32C598.37,-171 552.21,-124.24 527.78,-99.48"/>
<polygon fill="midnightblue" stroke="midnightblue" points="530.18,-96.94 520.67,-92.28 525.2,-101.86 530.18,-96.94"/>
</g>
<!-- Node10&#45;&gt;Node6 -->
<g id="edge12" class="edge">
<title>Node10&#45;&gt;Node6</title>
<path fill="none" stroke="midnightblue" d="M316.37,-134.48C294.56,-124.49 258.2,-107.85 232.98,-96.31"/>
<polygon fill="midnightblue" stroke="midnightblue" points="234.14,-92.99 223.59,-92.01 231.23,-99.35 234.14,-92.99"/>
</g>
<!-- Node10&#45;&gt;Node11 -->
<g id="edge10" class="edge">
<title>Node10&#45;&gt;Node11</title>
<path fill="none" stroke="midnightblue" d="M343.74,-134.48C353.16,-125.28 368.36,-110.46 379.95,-99.16"/>
<polygon fill="midnightblue" stroke="midnightblue" points="382.56,-101.5 387.28,-92.01 377.67,-96.49 382.56,-101.5"/>
</g>
<!-- Node12 -->
<g id="node12" class="node">
<title>Node12</title>
<g id="a_node12"><a xlink:title=" ">
<polygon fill="white" stroke="#bfbfbf" points="299,-73 299,-92 351,-92 351,-73 299,-73"/>
<text text-anchor="middle" x="325" y="-80" font-family="Helvetica,sans-Serif" font-size="10.00">sstream</text>
</a>
</g>
</g>
<!-- Node10&#45;&gt;Node12 -->
<g id="edge11" class="edge">
<title>Node10&#45;&gt;Node12</title>
<path fill="none" stroke="midnightblue" d="M333.57,-134.48C332.16,-126.08 329.95,-112.98 328.14,-102.16"/>
<polygon fill="midnightblue" stroke="midnightblue" points="331.54,-101.29 326.43,-92.01 324.64,-102.45 331.54,-101.29"/>
</g>
<!-- Node13&#45;&gt;Node7 -->
<g id="edge20" class="edge">
<title>Node13&#45;&gt;Node7</title>
<path fill="none" stroke="midnightblue" d="M955.64,-134.48C983.94,-124.27 1031.53,-107.11 1063.59,-95.55"/>
<polygon fill="midnightblue" stroke="midnightblue" points="1065.18,-98.69 1073.4,-92.01 1062.81,-92.11 1065.18,-98.69"/>
</g>
<!-- Node14 -->
<g id="node14" class="node">
<title>Node14</title>
<g id="a_node14"><a xlink:href="MarmotConstants_8h.html" target="_top" xlink:title=" ">
<polygon fill="white" stroke="black" points="596.5,-73 596.5,-92 733.5,-92 733.5,-73 596.5,-73"/>
<text text-anchor="middle" x="665" y="-80" font-family="Helvetica,sans-Serif" font-size="10.00">Marmot/MarmotConstants.h</text>
</a>
</g>
</g>
<!-- Node13&#45;&gt;Node14 -->
<g id="edge14" class="edge">
<title>Node13&#45;&gt;Node14</title>
<path fill="none" stroke="midnightblue" d="M893.75,-134.48C846.16,-123.87 764.89,-105.76 713.12,-94.22"/>
<polygon fill="midnightblue" stroke="midnightblue" points="713.71,-90.77 703.18,-92.01 712.18,-97.6 713.71,-90.77"/>
</g>
<!-- Node13&#45;&gt;Node16 -->
<g id="edge16" class="edge">
<title>Node13&#45;&gt;Node16</title>
<path fill="none" stroke="midnightblue" d="M874.38,-135.65C783.81,-124.07 615.58,-102.43 588,-98 580.35,-96.77 572.3,-95.36 564.4,-93.91"/>
<polygon fill="midnightblue" stroke="midnightblue" points="565,-90.46 554.53,-92.07 563.72,-97.35 565,-90.46"/>
</g>
<!-- Node20 -->
<g id="node20" class="node">
<title>Node20</title>
<g id="a_node20"><a xlink:title=" ">
<polygon fill="white" stroke="#bfbfbf" points="752,-73 752,-92 872,-92 872,-73 752,-73"/>
<text text-anchor="middle" x="812" y="-80" font-family="Helvetica,sans-Serif" font-size="10.00">autodiff/forward/real.hpp</text>
</a>
</g>
</g>
<!-- Node13&#45;&gt;Node20 -->
<g id="edge21" class="edge">
<title>Node13&#45;&gt;Node20</title>
<path fill="none" stroke="midnightblue" d="M914.81,-134.48C894.76,-124.53 861.4,-107.99 838.14,-96.46"/>
<polygon fill="midnightblue" stroke="midnightblue" points="839.68,-93.32 829.16,-92.01 836.57,-99.59 839.68,-93.32"/>
</g>
<!-- Node21 -->
<g id="node21" class="node">
<title>Node21</title>
<g id="a_node21"><a xlink:title=" ">
<polygon fill="white" stroke="#bfbfbf" points="890,-73 890,-92 946,-92 946,-73 890,-73"/>
<text text-anchor="middle" x="918" y="-80" font-family="Helvetica,sans-Serif" font-size="10.00">algorithm</text>
</a>
</g>
</g>
<!-- Node13&#45;&gt;Node21 -->
<g id="edge22" class="edge">
<title>Node13&#45;&gt;Node21</title>
<path fill="none" stroke="midnightblue" d="M929.99,-134.48C928,-125.99 924.87,-112.7 922.31,-101.82"/>
<polygon fill="midnightblue" stroke="midnightblue" points="925.7,-100.94 920,-92.01 918.89,-102.54 925.7,-100.94"/>
</g>
<!-- Node22 -->
<g id="node22" class="node">
<title>Node22</title>
<g id="a_node22"><a xlink:title=" ">
<polygon fill="white" stroke="#bfbfbf" points="1176,-67.5 1176,-97.5 1280,-97.5 1280,-67.5 1176,-67.5"/>
<text text-anchor="start" x="1184" y="-85.5" font-family="Helvetica,sans-Serif" font-size="10.00">autodiff/forward/dual</text>
<text text-anchor="middle" x="1228" y="-74.5" font-family="Helvetica,sans-Serif" font-size="10.00">/dual.hpp</text>
</a>
</g>
</g>
<!-- Node13&#45;&gt;Node22 -->
<g id="edge23" class="edge">
<title>Node13&#45;&gt;Node22</title>
<path fill="none" stroke="midnightblue" d="M979.83,-134.48C1025.27,-126.24 1095.74,-113.1 1165.9,-98.19"/>
<polygon fill="midnightblue" stroke="midnightblue" points="1166.74,-101.58 1175.79,-96.07 1165.28,-94.74 1166.74,-101.58"/>
</g>
<!-- Node23 -->
<g id="node23" class="node">
<title>Node23</title>
<g id="a_node23"><a xlink:title=" ">
<polygon fill="white" stroke="#bfbfbf" points="964.5,-73 964.5,-92 1017.5,-92 1017.5,-73 964.5,-73"/>
<text text-anchor="middle" x="991" y="-80" font-family="Helvetica,sans-Serif" font-size="10.00">complex</text>
</a>
</g>
</g>
<!-- Node13&#45;&gt;Node23 -->
<g id="edge24" class="edge">
<title>Node13&#45;&gt;Node23</title>
<path fill="none" stroke="midnightblue" d="M940.45,-134.48C949.57,-125.28 964.27,-110.46 975.48,-99.16"/>
<polygon fill="midnightblue" stroke="midnightblue" points="978.01,-101.57 982.56,-92.01 973.04,-96.65 978.01,-101.57"/>
</g>
<!-- Node15 -->
<g id="node15" class="node">
<title>Node15</title>
<g id="a_node15"><a xlink:title=" ">
<polygon fill="white" stroke="#bfbfbf" points="660,-6 660,-25 704,-25 704,-6 660,-6"/>
<text text-anchor="middle" x="682" y="-13" font-family="Helvetica,sans-Serif" font-size="10.00">cmath</text>
</a>
</g>
</g>
<!-- Node14&#45;&gt;Node15 -->
<g id="edge15" class="edge">
<title>Node14&#45;&gt;Node15</title>
<path fill="none" stroke="midnightblue" d="M667.29,-72.73C669.82,-63.09 673.94,-47.3 677.19,-34.91"/>
<polygon fill="midnightblue" stroke="midnightblue" points="680.6,-35.69 679.74,-25.13 673.83,-33.92 680.6,-35.69"/>
</g>
<!-- Node17 -->
<g id="node17" class="node">
<title>Node17</title>
<g id="a_node17"><a xlink:title=" ">
<polygon fill="white" stroke="#bfbfbf" points="578,-6 578,-25 642,-25 642,-6 578,-6"/>
<text text-anchor="middle" x="610" y="-13" font-family="Helvetica,sans-Serif" font-size="10.00">Eigen/Core</text>
</a>
</g>
</g>
<!-- Node16&#45;&gt;Node17 -->
<g id="edge17" class="edge">
<title>Node16&#45;&gt;Node17</title>
<path fill="none" stroke="midnightblue" d="M525.22,-72.73C541.45,-61.96 569.22,-43.55 588.53,-30.74"/>
<polygon fill="midnightblue" stroke="midnightblue" points="590.59,-33.57 596.99,-25.13 586.72,-27.74 590.59,-33.57"/>
</g>
<!-- Node18 -->
<g id="node18" class="node">
<title>Node18</title>
<g id="a_node18"><a xlink:title=" ">
<polygon fill="white" stroke="#bfbfbf" points="339.5,-6 339.5,-25 410.5,-25 410.5,-6 339.5,-6"/>
<text text-anchor="middle" x="375" y="-13" font-family="Helvetica,sans-Serif" font-size="10.00">Eigen/Dense</text>
</a>
</g>
</g>
<!-- Node16&#45;&gt;Node18 -->
<g id="edge18" class="edge">
<title>Node16&#45;&gt;Node18</title>
<path fill="none" stroke="midnightblue" d="M493.81,-72.87C470.47,-61.8 429.77,-42.49 402.61,-29.6"/>
<polygon fill="midnightblue" stroke="midnightblue" points="403.8,-26.29 393.27,-25.17 400.8,-32.62 403.8,-26.29"/>
</g>
<!-- Node19 -->
<g id="node19" class="node">
<title>Node19</title>
<g id="a_node19"><a xlink:title=" ">
<polygon fill="white" stroke="#bfbfbf" points="428.5,-0.5 428.5,-30.5 559.5,-30.5 559.5,-0.5 428.5,-0.5"/>
<text text-anchor="start" x="436.5" y="-18.5" font-family="Helvetica,sans-Serif" font-size="10.00">unsupported/Eigen/CXX11</text>
<text text-anchor="middle" x="494" y="-7.5" font-family="Helvetica,sans-Serif" font-size="10.00">/Tensor</text>
</a>
</g>
</g>
<!-- Node16&#45;&gt;Node19 -->
<g id="edge19" class="edge">
<title>Node16&#45;&gt;Node19</title>
<path fill="none" stroke="midnightblue" d="M509.57,-72.73C507.28,-64.46 503.74,-51.66 500.61,-40.37"/>
<polygon fill="midnightblue" stroke="midnightblue" points="503.94,-39.29 497.9,-30.59 497.2,-41.16 503.94,-39.29"/>
</g>
<!-- Node24&#45;&gt;Node7 -->
<g id="edge34" class="edge">
<title>Node24&#45;&gt;Node7</title>
<path fill="none" stroke="midnightblue" d="M1036.84,-318.88C1030.25,-290.74 1012.57,-199.6 1042,-134 1048.66,-119.15 1062.01,-106.72 1073.9,-97.91"/>
<polygon fill="midnightblue" stroke="midnightblue" points="1075.96,-100.74 1082.17,-92.15 1071.96,-94.99 1075.96,-100.74"/>
</g>
<!-- Node24&#45;&gt;Node22 -->
<g id="edge36" class="edge">
<title>Node24&#45;&gt;Node22</title>
<path fill="none" stroke="midnightblue" d="M1041.71,-318.93C1046.79,-303.52 1058.76,-270.49 1075,-246 1112.71,-189.14 1170.93,-133.62 1203.6,-104.5"/>
<polygon fill="midnightblue" stroke="midnightblue" points="1206.15,-106.92 1211.33,-97.68 1201.52,-101.67 1206.15,-106.92"/>
</g>
<!-- Node24&#45;&gt;Node25 -->
<g id="edge27" class="edge">
<title>Node24&#45;&gt;Node25</title>
<path fill="none" stroke="midnightblue" d="M1013.37,-318.87C979.39,-307.42 919.28,-287.18 881.1,-274.32"/>
<polygon fill="midnightblue" stroke="midnightblue" points="882.02,-270.94 871.43,-271.06 879.79,-277.57 882.02,-270.94"/>
</g>
<!-- Node28 -->
<g id="node28" class="node">
<title>Node28</title>
<g id="a_node28"><a xlink:title=" ">
<polygon fill="white" stroke="#bfbfbf" points="1084,-246.5 1084,-276.5 1188,-276.5 1188,-246.5 1084,-246.5"/>
<text text-anchor="start" x="1092" y="-264.5" font-family="Helvetica,sans-Serif" font-size="10.00">autodiff/forward/dual</text>
<text text-anchor="middle" x="1136" y="-253.5" font-family="Helvetica,sans-Serif" font-size="10.00">/eigen.hpp</text>
</a>
</g>
</g>
<!-- Node24&#45;&gt;Node28 -->
<g id="edge35" class="edge">
<title>Node24&#45;&gt;Node28</title>
<path fill="none" stroke="midnightblue" d="M1052.08,-318.73C1065.95,-309.44 1088.3,-294.46 1106.46,-282.3"/>
<polygon fill="midnightblue" stroke="midnightblue" points="1108.62,-285.06 1114.97,-276.59 1104.72,-279.25 1108.62,-285.06"/>
</g>
<!-- Node29 -->
<g id="node29" class="node">
<title>Node29</title>
<g id="a_node29"><a xlink:title=" ">
<polygon fill="white" stroke="#bfbfbf" points="1206.5,-252 1206.5,-271 1265.5,-271 1265.5,-252 1206.5,-252"/>
<text text-anchor="middle" x="1236" y="-259" font-family="Helvetica,sans-Serif" font-size="10.00">functional</text>
</a>
</g>
</g>
<!-- Node24&#45;&gt;Node29 -->
<g id="edge37" class="edge">
<title>Node24&#45;&gt;Node29</title>
<path fill="none" stroke="midnightblue" d="M1067.1,-318.95C1098.8,-309.21 1151.82,-292.61 1197,-277 1199.25,-276.22 1201.56,-275.41 1203.89,-274.57"/>
<polygon fill="midnightblue" stroke="midnightblue" points="1205.18,-277.83 1213.38,-271.11 1202.79,-271.25 1205.18,-277.83"/>
</g>
<!-- Node25&#45;&gt;Node9 -->
<g id="edge31" class="edge">
<title>Node25&#45;&gt;Node9</title>
<path fill="none" stroke="midnightblue" d="M814.48,-251.98C775.76,-241.5 709.98,-223.71 667.26,-212.16"/>
<polygon fill="midnightblue" stroke="midnightblue" points="668.03,-208.74 657.46,-209.51 666.2,-215.5 668.03,-208.74"/>
</g>
<!-- Node25&#45;&gt;Node10 -->
<g id="edge29" class="edge">
<title>Node25&#45;&gt;Node10</title>
<path fill="none" stroke="midnightblue" d="M837.56,-251.69C822.07,-236.17 787.34,-204.22 751,-190 690.26,-166.22 510.03,-153.66 407.84,-148.28"/>
<polygon fill="midnightblue" stroke="midnightblue" points="407.76,-144.77 397.59,-147.75 407.4,-151.76 407.76,-144.77"/>
</g>
<!-- Node25&#45;&gt;Node11 -->
<g id="edge32" class="edge">
<title>Node25&#45;&gt;Node11</title>
<path fill="none" stroke="midnightblue" d="M840.47,-251.64C830.62,-236.61 808.54,-206.17 782,-190 646.48,-107.44 588.59,-144.94 437,-98 434.39,-97.19 431.69,-96.32 428.99,-95.42"/>
<polygon fill="midnightblue" stroke="midnightblue" points="429.9,-92.04 419.31,-92.1 427.63,-98.66 429.9,-92.04"/>
</g>
<!-- Node25&#45;&gt;Node16 -->
<g id="edge30" class="edge">
<title>Node25&#45;&gt;Node16</title>
<path fill="none" stroke="midnightblue" d="M847.36,-251.9C850.43,-229.01 855.28,-166.14 822,-134 784.16,-97.45 639.85,-106.93 588,-98 580.64,-96.73 572.89,-95.33 565.26,-93.91"/>
<polygon fill="midnightblue" stroke="midnightblue" points="565.83,-90.46 555.36,-92.05 564.54,-97.34 565.83,-90.46"/>
</g>
<!-- Node26 -->
<g id="node26" class="node">
<title>Node26</title>
<g id="a_node26"><a xlink:title=" ">
<polygon fill="white" stroke="#bfbfbf" points="874.5,-190.5 874.5,-209.5 957.5,-209.5 957.5,-190.5 874.5,-190.5"/>
<text text-anchor="middle" x="916" y="-197.5" font-family="Helvetica,sans-Serif" font-size="10.00">Fastor/Fastor.h</text>
</a>
</g>
</g>
<!-- Node25&#45;&gt;Node26 -->
<g id="edge28" class="edge">
<title>Node25&#45;&gt;Node26</title>
<path fill="none" stroke="midnightblue" d="M856.03,-251.98C867.05,-242.61 884.96,-227.38 898.34,-216.01"/>
<polygon fill="midnightblue" stroke="midnightblue" points="900.64,-218.65 905.99,-209.51 896.1,-213.32 900.64,-218.65"/>
</g>
<!-- Node27 -->
<g id="node27" class="node">
<title>Node27</title>
<g id="a_node27"><a xlink:title=" ">
<polygon fill="white" stroke="#bfbfbf" points="702.5,-190.5 702.5,-209.5 741.5,-209.5 741.5,-190.5 702.5,-190.5"/>
<text text-anchor="middle" x="722" y="-197.5" font-family="Helvetica,sans-Serif" font-size="10.00">utility</text>
</a>
</g>
</g>
<!-- Node25&#45;&gt;Node27 -->
<g id="edge33" class="edge">
<title>Node25&#45;&gt;Node27</title>
<path fill="none" stroke="midnightblue" d="M828.23,-251.98C807.52,-242.03 773.05,-225.49 749.01,-213.96"/>
<polygon fill="midnightblue" stroke="midnightblue" points="750.26,-210.68 739.73,-209.51 747.23,-216.99 750.26,-210.68"/>
</g>
<!-- Node30&#45;&gt;Node9 -->
<g id="edge42" class="edge">
<title>Node30&#45;&gt;Node9</title>
<path fill="none" stroke="midnightblue" d="M479.5,-251.98C508.96,-241.72 558.58,-224.46 591.8,-212.9"/>
<polygon fill="midnightblue" stroke="midnightblue" points="593.25,-216.1 601.55,-209.51 590.95,-209.49 593.25,-216.1"/>
</g>
<!-- Node30&#45;&gt;Node10 -->
<g id="edge40" class="edge">
<title>Node30&#45;&gt;Node10</title>
<path fill="none" stroke="midnightblue" d="M450.8,-251.83C443.58,-237.61 427.69,-209 408,-190 394.73,-177.19 377.21,-166.25 362.66,-158.35"/>
<polygon fill="midnightblue" stroke="midnightblue" points="364.09,-155.15 353.6,-153.62 360.85,-161.36 364.09,-155.15"/>
</g>
<!-- Node30&#45;&gt;Node16 -->
<g id="edge41" class="edge">
<title>Node30&#45;&gt;Node16</title>
<path fill="none" stroke="midnightblue" d="M457.75,-251.96C466.49,-224.81 493.8,-140.01 506,-102.12"/>
<polygon fill="midnightblue" stroke="midnightblue" points="509.41,-102.96 509.14,-92.37 502.75,-100.81 509.41,-102.96"/>
</g>
<!-- Node31&#45;&gt;Node9 -->
<g id="edge44" class="edge">
<title>Node31&#45;&gt;Node9</title>
<path fill="none" stroke="midnightblue" d="M608.22,-313.48C611.83,-290.62 619,-245.3 623.04,-219.71"/>
<polygon fill="midnightblue" stroke="midnightblue" points="626.51,-220.21 624.61,-209.79 619.59,-219.12 626.51,-220.21"/>
</g>
</g>
</svg>
