<?xml version="1.0" encoding="UTF-8" standalone="no"?>
<!DOCTYPE svg PUBLIC "-//W3C//DTD SVG 1.1//EN"
 "http://www.w3.org/Graphics/SVG/1.1/DTD/svg11.dtd">
<!-- Generated by graphviz version 2.47.1 (20210421.1823)
 -->
<!-- Title: modules/core/MarmotMechanicsCore/src/MarmotMaterialHypoElastic.cpp Pages: 1 -->
<!--zoomable 285 -->
<svg id="main" version="1.1" xmlns="http://www.w3.org/2000/svg" xmlns:xlink="http://www.w3.org/1999/xlink" xml:space="preserve" onload="init(evt)">
<style type="text/css"><![CDATA[
.edge:hover path { stroke: red; }
.edge:hover polygon { stroke: red; fill: red; }
]]></style>
<script type="text/javascript"><![CDATA[
var edges = document.getElementsByTagName('g');
if (edges && edges.length) {
  for (var i=0;i<edges.length;i++) {
    if (edges[i].id.substr(0,4)=='edge') {
      edges[i].setAttribute('class','edge');
    }
  }
}
]]></script>
        <defs>
                <circle id="rim" cx="0" cy="0" r="7"/>
                <circle id="rim2" cx="0" cy="0" r="3.5"/>
                <g id="zoomPlus">
                        <use xlink:href="#rim" fill="#404040">
                                <set attributeName="fill" to="#808080" begin="zoomplus.mouseover" end="zoomplus.mouseout"/>
                        </use>
                        <path d="M-4,0h8M0,-4v8" fill="none" stroke="white" stroke-width="1.5" pointer-events="none"/>
                </g>
                <g id="zoomMin">
                        <use xlink:href="#rim" fill="#404040">
                                <set attributeName="fill" to="#808080" begin="zoomminus.mouseover" end="zoomminus.mouseout"/>
                        </use>
                        <path d="M-4,0h8" fill="none" stroke="white" stroke-width="1.5" pointer-events="none"/>
                </g>
                <g id="dirArrow">
                        <path fill="none" stroke="white" stroke-width="1.5" d="M0,-3.0v7 M-2.5,-0.5L0,-3.0L2.5,-0.5"/>
                </g>
               <g id="resetDef">
                       <use xlink:href="#rim2" fill="#404040">
                               <set attributeName="fill" to="#808080" begin="reset.mouseover" end="reset.mouseout"/>
                       </use>
               </g>
        </defs>

<script type="text/javascript">
var viewWidth = 1043;
var viewHeight = 285;
var sectionId = 'dynsection-0';
</script>
<script xlink:href="svgpan.js"/>
<svg id="graph" class="graph">
<g id="viewport">
<title>modules/core/MarmotMechanicsCore/src/MarmotMaterialHypoElastic.cpp</title>
<polygon fill="white" stroke="transparent" points="-4,4 -4,-281 1039,-281 1039,4 -4,4"/>
<!-- Node1 -->
<g id="node1" class="node">
<title>Node1</title>
<g id="a_node1"><a xlink:title=" ">
<polygon fill="#bfbfbf" stroke="black" points="350.5,-246.5 350.5,-276.5 544.5,-276.5 544.5,-246.5 350.5,-246.5"/>
<text text-anchor="start" x="358.5" y="-264.5" font-family="Helvetica,sans-Serif" font-size="10.00">modules/core/MarmotMechanics</text>
<text text-anchor="middle" x="447.5" y="-253.5" font-family="Helvetica,sans-Serif" font-size="10.00">Core/src/MarmotMaterialHypoElastic.cpp</text>
</a>
</g>
</g>
<!-- Node2 -->
<g id="node2" class="node">
<title>Node2</title>
<g id="a_node2"><a xlink:href="MarmotMaterialHypoElastic_8h.html" target="_top" xlink:title=" ">
<polygon fill="white" stroke="black" points="25,-179.5 25,-209.5 168,-209.5 168,-179.5 25,-179.5"/>
<text text-anchor="start" x="33" y="-197.5" font-family="Helvetica,sans-Serif" font-size="10.00">Marmot/MarmotMaterialHypo</text>
<text text-anchor="middle" x="96.5" y="-186.5" font-family="Helvetica,sans-Serif" font-size="10.00">Elastic.h</text>
</a>
</g>
</g>
<!-- Node1&#45;&gt;Node2 -->
<g id="edge1" class="edge">
<title>Node1&#45;&gt;Node2</title>
<path fill="none" stroke="midnightblue" d="M371.77,-246.48C314.71,-235.91 236.59,-221.44 178.14,-210.62"/>
<polygon fill="midnightblue" stroke="midnightblue" points="178.67,-207.16 168.2,-208.78 177.4,-214.04 178.67,-207.16"/>
</g>
<!-- Node7 -->
<g id="node7" class="node">
<title>Node7</title>
<g id="a_node7"><a xlink:href="HughesWinget_8h.html" target="_top" xlink:title=" ">
<polygon fill="white" stroke="black" points="430.5,-185 430.5,-204 554.5,-204 554.5,-185 430.5,-185"/>
<text text-anchor="middle" x="492.5" y="-192" font-family="Helvetica,sans-Serif" font-size="10.00">Marmot/HughesWinget.h</text>
</a>
</g>
</g>
<!-- Node1&#45;&gt;Node7 -->
<g id="edge6" class="edge">
<title>Node1&#45;&gt;Node7</title>
<path fill="none" stroke="midnightblue" d="M457.26,-246.4C464.14,-236.46 473.39,-223.11 480.68,-212.57"/>
<polygon fill="midnightblue" stroke="midnightblue" points="483.67,-214.41 486.48,-204.19 477.91,-210.42 483.67,-214.41"/>
</g>
<!-- Node8 -->
<g id="node8" class="node">
<title>Node8</title>
<g id="a_node8"><a xlink:href="MarmotVoigt_8h.html" target="_top" xlink:title=" ">
<polygon fill="white" stroke="black" points="370.5,-123.5 370.5,-142.5 486.5,-142.5 486.5,-123.5 370.5,-123.5"/>
<text text-anchor="middle" x="428.5" y="-130.5" font-family="Helvetica,sans-Serif" font-size="10.00">Marmot/MarmotVoigt.h</text>
</a>
</g>
</g>
<!-- Node1&#45;&gt;Node8 -->
<g id="edge33" class="edge">
<title>Node1&#45;&gt;Node8</title>
<path fill="none" stroke="midnightblue" d="M437.8,-246.21C431.8,-236.47 424.66,-223.03 421.5,-210 416.83,-190.73 420.01,-168.01 423.46,-152.47"/>
<polygon fill="midnightblue" stroke="midnightblue" points="426.91,-153.12 425.91,-142.57 420.11,-151.43 426.91,-153.12"/>
</g>
<!-- Node9 -->
<g id="node9" class="node">
<title>Node9</title>
<g id="a_node9"><a xlink:href="MarmotJournal_8h.html" target="_top" xlink:title=" ">
<polygon fill="white" stroke="black" points="241,-67.5 241,-86.5 366,-86.5 366,-67.5 241,-67.5"/>
<text text-anchor="middle" x="303.5" y="-74.5" font-family="Helvetica,sans-Serif" font-size="10.00">Marmot/MarmotJournal.h</text>
</a>
</g>
</g>
<!-- Node1&#45;&gt;Node9 -->
<g id="edge16" class="edge">
<title>Node1&#45;&gt;Node9</title>
<path fill="none" stroke="midnightblue" d="M350.49,-250.64C297.64,-243.04 239.75,-230.32 223.5,-210 192.01,-170.62 250.04,-117.81 283,-92.59"/>
<polygon fill="midnightblue" stroke="midnightblue" points="285.22,-95.3 291.16,-86.52 281.04,-89.68 285.22,-95.3"/>
</g>
<!-- Node10 -->
<g id="node10" class="node">
<title>Node10</title>
<g id="a_node10"><a xlink:title=" ">
<polygon fill="white" stroke="#bfbfbf" points="664.5,-6 664.5,-25 718.5,-25 718.5,-6 664.5,-6"/>
<text text-anchor="middle" x="691.5" y="-13" font-family="Helvetica,sans-Serif" font-size="10.00">iostream</text>
</a>
</g>
</g>
<!-- Node1&#45;&gt;Node10 -->
<g id="edge34" class="edge">
<title>Node1&#45;&gt;Node10</title>
<path fill="none" stroke="midnightblue" d="M544.53,-254.12C608.86,-247.64 685.05,-234.84 705.5,-210 747.77,-158.66 716.51,-71.41 700,-34.19"/>
<polygon fill="midnightblue" stroke="midnightblue" points="703.17,-32.7 695.81,-25.08 696.81,-35.63 703.17,-32.7"/>
</g>
<!-- Node16 -->
<g id="node16" class="node">
<title>Node16</title>
<g id="a_node16"><a xlink:href="MarmotKinematics_8h.html" target="_top" xlink:title=" ">
<polygon fill="white" stroke="black" points="232.5,-185 232.5,-204 374.5,-204 374.5,-185 232.5,-185"/>
<text text-anchor="middle" x="303.5" y="-192" font-family="Helvetica,sans-Serif" font-size="10.00">Marmot/MarmotKinematics.h</text>
</a>
</g>
</g>
<!-- Node1&#45;&gt;Node16 -->
<g id="edge17" class="edge">
<title>Node1&#45;&gt;Node16</title>
<path fill="none" stroke="midnightblue" d="M416.25,-246.4C391.1,-235.04 356.05,-219.22 331.73,-208.24"/>
<polygon fill="midnightblue" stroke="midnightblue" points="332.9,-204.93 322.35,-204.01 330.02,-211.31 332.9,-204.93"/>
</g>
<!-- Node17 -->
<g id="node17" class="node">
<title>Node17</title>
<g id="a_node17"><a xlink:href="MarmotMath_8h.html" target="_top" xlink:title=" ">
<polygon fill="white" stroke="black" points="753,-185 753,-204 868,-204 868,-185 753,-185"/>
<text text-anchor="middle" x="810.5" y="-192" font-family="Helvetica,sans-Serif" font-size="10.00">Marmot/MarmotMath.h</text>
</a>
</g>
</g>
<!-- Node1&#45;&gt;Node17 -->
<g id="edge21" class="edge">
<title>Node1&#45;&gt;Node17</title>
<path fill="none" stroke="midnightblue" d="M531.97,-246.46C590.11,-236.64 669.08,-223.01 738.5,-210 745.15,-208.75 752.14,-207.4 759.04,-206.04"/>
<polygon fill="midnightblue" stroke="midnightblue" points="759.91,-209.43 769.04,-204.05 758.55,-202.57 759.91,-209.43"/>
</g>
<!-- Node22 -->
<g id="node22" class="node">
<title>Node22</title>
<g id="a_node22"><a xlink:href="MarmotTensor_8h.html" target="_top" xlink:title=" ">
<polygon fill="white" stroke="black" points="573,-185 573,-204 696,-204 696,-185 573,-185"/>
<text text-anchor="middle" x="634.5" y="-192" font-family="Helvetica,sans-Serif" font-size="10.00">Marmot/MarmotTensor.h</text>
</a>
</g>
</g>
<!-- Node1&#45;&gt;Node22 -->
<g id="edge27" class="edge">
<title>Node1&#45;&gt;Node22</title>
<path fill="none" stroke="midnightblue" d="M488.08,-246.4C521.61,-234.74 568.7,-218.37 600.33,-207.38"/>
<polygon fill="midnightblue" stroke="midnightblue" points="601.73,-210.6 610.03,-204.01 599.43,-203.98 601.73,-210.6"/>
</g>
<!-- Node3 -->
<g id="node3" class="node">
<title>Node3</title>
<g id="a_node3"><a xlink:href="MarmotMaterialMechanical_8h.html" target="_top" xlink:title=" ">
<polygon fill="white" stroke="black" points="0,-123.5 0,-142.5 177,-142.5 177,-123.5 0,-123.5"/>
<text text-anchor="middle" x="88.5" y="-130.5" font-family="Helvetica,sans-Serif" font-size="10.00">Marmot/MarmotMaterialMechanical.h</text>
</a>
</g>
</g>
<!-- Node2&#45;&gt;Node3 -->
<g id="edge2" class="edge">
<title>Node2&#45;&gt;Node3</title>
<path fill="none" stroke="midnightblue" d="M94.6,-179.4C93.53,-171.38 92.16,-161.23 91,-152.57"/>
<polygon fill="midnightblue" stroke="midnightblue" points="94.47,-152.1 89.66,-142.66 87.53,-153.04 94.47,-152.1"/>
</g>
<!-- Node4 -->
<g id="node4" class="node">
<title>Node4</title>
<g id="a_node4"><a xlink:href="MarmotMaterial_8h.html" target="_top" xlink:title=" ">
<polygon fill="white" stroke="black" points="33.5,-67.5 33.5,-86.5 161.5,-86.5 161.5,-67.5 33.5,-67.5"/>
<text text-anchor="middle" x="97.5" y="-74.5" font-family="Helvetica,sans-Serif" font-size="10.00">Marmot/MarmotMaterial.h</text>
</a>
</g>
</g>
<!-- Node3&#45;&gt;Node4 -->
<g id="edge3" class="edge">
<title>Node3&#45;&gt;Node4</title>
<path fill="none" stroke="midnightblue" d="M89.99,-123.08C91.18,-115.93 92.89,-105.64 94.38,-96.69"/>
<polygon fill="midnightblue" stroke="midnightblue" points="97.85,-97.19 96.04,-86.75 90.95,-96.04 97.85,-97.19"/>
</g>
<!-- Node5 -->
<g id="node5" class="node">
<title>Node5</title>
<g id="a_node5"><a xlink:href="MarmotUtils_8h.html" target="_top" xlink:title=" ">
<polygon fill="white" stroke="black" points="41,-6 41,-25 154,-25 154,-6 41,-6"/>
<text text-anchor="middle" x="97.5" y="-13" font-family="Helvetica,sans-Serif" font-size="10.00">Marmot/MarmotUtils.h</text>
</a>
</g>
</g>
<!-- Node4&#45;&gt;Node5 -->
<g id="edge4" class="edge">
<title>Node4&#45;&gt;Node5</title>
<path fill="none" stroke="midnightblue" d="M97.5,-67.48C97.5,-59.08 97.5,-45.98 97.5,-35.16"/>
<polygon fill="midnightblue" stroke="midnightblue" points="101,-35.01 97.5,-25.01 94,-35.01 101,-35.01"/>
</g>
<!-- Node6 -->
<g id="node6" class="node">
<title>Node6</title>
<g id="a_node6"><a xlink:title=" ">
<polygon fill="white" stroke="#bfbfbf" points="199,-6 199,-25 240,-25 240,-6 199,-6"/>
<text text-anchor="middle" x="219.5" y="-13" font-family="Helvetica,sans-Serif" font-size="10.00">string</text>
</a>
</g>
</g>
<!-- Node4&#45;&gt;Node6 -->
<g id="edge5" class="edge">
<title>Node4&#45;&gt;Node6</title>
<path fill="none" stroke="midnightblue" d="M114.98,-67.48C135.36,-57.53 169.28,-40.99 192.92,-29.46"/>
<polygon fill="midnightblue" stroke="midnightblue" points="194.6,-32.54 202.05,-25.01 191.53,-26.25 194.6,-32.54"/>
</g>
<!-- Node7&#45;&gt;Node8 -->
<g id="edge7" class="edge">
<title>Node7&#45;&gt;Node8</title>
<path fill="none" stroke="midnightblue" d="M483.33,-184.98C473.35,-175.7 457.19,-160.67 444.99,-149.33"/>
<polygon fill="midnightblue" stroke="midnightblue" points="447.36,-146.75 437.65,-142.51 442.59,-151.88 447.36,-146.75"/>
</g>
<!-- Node8&#45;&gt;Node9 -->
<g id="edge8" class="edge">
<title>Node8&#45;&gt;Node9</title>
<path fill="none" stroke="midnightblue" d="M408.69,-123.44C388.21,-114.6 356.02,-100.69 332.64,-90.59"/>
<polygon fill="midnightblue" stroke="midnightblue" points="333.78,-87.27 323.21,-86.52 331.01,-93.7 333.78,-87.27"/>
</g>
<!-- Node12 -->
<g id="node12" class="node">
<title>Node12</title>
<g id="a_node12"><a xlink:href="MarmotTypedefs_8h.html" target="_top" xlink:title=" ">
<polygon fill="white" stroke="black" points="458,-67.5 458,-86.5 591,-86.5 591,-67.5 458,-67.5"/>
<text text-anchor="middle" x="524.5" y="-74.5" font-family="Helvetica,sans-Serif" font-size="10.00">Marmot/MarmotTypedefs.h</text>
</a>
</g>
</g>
<!-- Node8&#45;&gt;Node12 -->
<g id="edge12" class="edge">
<title>Node8&#45;&gt;Node12</title>
<path fill="none" stroke="midnightblue" d="M443.92,-123.32C459.04,-114.82 482.32,-101.73 499.97,-91.8"/>
<polygon fill="midnightblue" stroke="midnightblue" points="502.11,-94.61 509.11,-86.65 498.68,-88.51 502.11,-94.61"/>
</g>
<!-- Node9&#45;&gt;Node6 -->
<g id="edge11" class="edge">
<title>Node9&#45;&gt;Node6</title>
<path fill="none" stroke="midnightblue" d="M291.46,-67.48C277.99,-57.93 255.93,-42.31 239.78,-30.87"/>
<polygon fill="midnightblue" stroke="midnightblue" points="241.7,-27.93 231.51,-25.01 237.65,-33.65 241.7,-27.93"/>
</g>
<!-- Node9&#45;&gt;Node10 -->
<g id="edge9" class="edge">
<title>Node9&#45;&gt;Node10</title>
<path fill="none" stroke="midnightblue" d="M366.09,-72.83C437.2,-68.13 556.24,-56.88 655.5,-31 658.01,-30.35 660.58,-29.56 663.13,-28.7"/>
<polygon fill="midnightblue" stroke="midnightblue" points="664.61,-31.88 672.75,-25.11 662.16,-25.33 664.61,-31.88"/>
</g>
<!-- Node11 -->
<g id="node11" class="node">
<title>Node11</title>
<g id="a_node11"><a xlink:title=" ">
<polygon fill="white" stroke="#bfbfbf" points="272.5,-6 272.5,-25 324.5,-25 324.5,-6 272.5,-6"/>
<text text-anchor="middle" x="298.5" y="-13" font-family="Helvetica,sans-Serif" font-size="10.00">sstream</text>
</a>
</g>
</g>
<!-- Node9&#45;&gt;Node11 -->
<g id="edge10" class="edge">
<title>Node9&#45;&gt;Node11</title>
<path fill="none" stroke="midnightblue" d="M302.78,-67.48C302.08,-59.08 300.98,-45.98 300.07,-35.16"/>
<polygon fill="midnightblue" stroke="midnightblue" points="303.54,-34.68 299.22,-25.01 296.56,-35.27 303.54,-34.68"/>
</g>
<!-- Node13 -->
<g id="node13" class="node">
<title>Node13</title>
<g id="a_node13"><a xlink:title=" ">
<polygon fill="white" stroke="#bfbfbf" points="492.5,-6 492.5,-25 556.5,-25 556.5,-6 492.5,-6"/>
<text text-anchor="middle" x="524.5" y="-13" font-family="Helvetica,sans-Serif" font-size="10.00">Eigen/Core</text>
</a>
</g>
</g>
<!-- Node12&#45;&gt;Node13 -->
<g id="edge13" class="edge">
<title>Node12&#45;&gt;Node13</title>
<path fill="none" stroke="midnightblue" d="M524.5,-67.48C524.5,-59.08 524.5,-45.98 524.5,-35.16"/>
<polygon fill="midnightblue" stroke="midnightblue" points="528,-35.01 524.5,-25.01 521,-35.01 528,-35.01"/>
</g>
<!-- Node14 -->
<g id="node14" class="node">
<title>Node14</title>
<g id="a_node14"><a xlink:title=" ">
<polygon fill="white" stroke="#bfbfbf" points="575,-6 575,-25 646,-25 646,-6 575,-6"/>
<text text-anchor="middle" x="610.5" y="-13" font-family="Helvetica,sans-Serif" font-size="10.00">Eigen/Dense</text>
</a>
</g>
</g>
<!-- Node12&#45;&gt;Node14 -->
<g id="edge14" class="edge">
<title>Node12&#45;&gt;Node14</title>
<path fill="none" stroke="midnightblue" d="M536.82,-67.48C550.62,-57.93 573.2,-42.31 589.73,-30.87"/>
<polygon fill="midnightblue" stroke="midnightblue" points="591.97,-33.58 598.2,-25.01 587.99,-27.82 591.97,-33.58"/>
</g>
<!-- Node15 -->
<g id="node15" class="node">
<title>Node15</title>
<g id="a_node15"><a xlink:title=" ">
<polygon fill="white" stroke="#bfbfbf" points="343,-0.5 343,-30.5 474,-30.5 474,-0.5 343,-0.5"/>
<text text-anchor="start" x="351" y="-18.5" font-family="Helvetica,sans-Serif" font-size="10.00">unsupported/Eigen/CXX11</text>
<text text-anchor="middle" x="408.5" y="-7.5" font-family="Helvetica,sans-Serif" font-size="10.00">/Tensor</text>
</a>
</g>
</g>
<!-- Node12&#45;&gt;Node15 -->
<g id="edge15" class="edge">
<title>Node12&#45;&gt;Node15</title>
<path fill="none" stroke="midnightblue" d="M507.88,-67.48C491.51,-59.08 465.96,-45.97 444.87,-35.15"/>
<polygon fill="midnightblue" stroke="midnightblue" points="446.33,-31.97 435.84,-30.52 443.14,-38.2 446.33,-31.97"/>
</g>
<!-- Node16&#45;&gt;Node8 -->
<g id="edge20" class="edge">
<title>Node16&#45;&gt;Node8</title>
<path fill="none" stroke="midnightblue" d="M321.41,-184.98C342.39,-174.99 377.35,-158.35 401.59,-146.81"/>
<polygon fill="midnightblue" stroke="midnightblue" points="403.1,-149.97 410.62,-142.51 400.09,-143.65 403.1,-149.97"/>
</g>
<!-- Node16&#45;&gt;Node9 -->
<g id="edge18" class="edge">
<title>Node16&#45;&gt;Node9</title>
<path fill="none" stroke="midnightblue" d="M303.5,-184.82C303.5,-166.26 303.5,-122.34 303.5,-96.97"/>
<polygon fill="midnightblue" stroke="midnightblue" points="307,-96.78 303.5,-86.78 300,-96.78 307,-96.78"/>
</g>
<!-- Node16&#45;&gt;Node12 -->
<g id="edge19" class="edge">
<title>Node16&#45;&gt;Node12</title>
<path fill="none" stroke="midnightblue" d="M308.31,-184.65C316.94,-169.64 336.51,-139.23 361.5,-123 387.71,-105.98 420.31,-95.34 449.45,-88.71"/>
<polygon fill="midnightblue" stroke="midnightblue" points="450.55,-92.05 459.59,-86.52 449.08,-85.2 450.55,-92.05"/>
</g>
<!-- Node17&#45;&gt;Node12 -->
<g id="edge24" class="edge">
<title>Node17&#45;&gt;Node12</title>
<path fill="none" stroke="midnightblue" d="M789,-184.82C738.78,-164.53 613.58,-113.97 555.28,-90.43"/>
<polygon fill="midnightblue" stroke="midnightblue" points="556.44,-87.12 545.86,-86.62 553.82,-93.61 556.44,-87.12"/>
</g>
<!-- Node18 -->
<g id="node18" class="node">
<title>Node18</title>
<g id="a_node18"><a xlink:href="MarmotConstants_8h.html" target="_top" xlink:title=" ">
<polygon fill="white" stroke="black" points="827,-123.5 827,-142.5 964,-142.5 964,-123.5 827,-123.5"/>
<text text-anchor="middle" x="895.5" y="-130.5" font-family="Helvetica,sans-Serif" font-size="10.00">Marmot/MarmotConstants.h</text>
</a>
</g>
</g>
<!-- Node17&#45;&gt;Node18 -->
<g id="edge22" class="edge">
<title>Node17&#45;&gt;Node18</title>
<path fill="none" stroke="midnightblue" d="M822.68,-184.98C836.31,-175.43 858.63,-159.81 874.97,-148.37"/>
<polygon fill="midnightblue" stroke="midnightblue" points="877.16,-151.11 883.34,-142.51 873.14,-145.38 877.16,-151.11"/>
</g>
<!-- Node20 -->
<g id="node20" class="node">
<title>Node20</title>
<g id="a_node20"><a xlink:title=" ">
<polygon fill="white" stroke="#bfbfbf" points="752.5,-123.5 752.5,-142.5 808.5,-142.5 808.5,-123.5 752.5,-123.5"/>
<text text-anchor="middle" x="780.5" y="-130.5" font-family="Helvetica,sans-Serif" font-size="10.00">algorithm</text>
</a>
</g>
</g>
<!-- Node17&#45;&gt;Node20 -->
<g id="edge25" class="edge">
<title>Node17&#45;&gt;Node20</title>
<path fill="none" stroke="midnightblue" d="M806.2,-184.98C801.84,-176.32 794.94,-162.65 789.4,-151.65"/>
<polygon fill="midnightblue" stroke="midnightblue" points="792.42,-149.86 784.79,-142.51 786.17,-153.01 792.42,-149.86"/>
</g>
<!-- Node21 -->
<g id="node21" class="node">
<title>Node21</title>
<g id="a_node21"><a xlink:title=" ">
<polygon fill="white" stroke="#bfbfbf" points="982,-123.5 982,-142.5 1035,-142.5 1035,-123.5 982,-123.5"/>
<text text-anchor="middle" x="1008.5" y="-130.5" font-family="Helvetica,sans-Serif" font-size="10.00">complex</text>
</a>
</g>
</g>
<!-- Node17&#45;&gt;Node21 -->
<g id="edge26" class="edge">
<title>Node17&#45;&gt;Node21</title>
<path fill="none" stroke="midnightblue" d="M838.87,-184.98C873.91,-174.44 933.59,-156.51 972.01,-144.96"/>
<polygon fill="midnightblue" stroke="midnightblue" points="973.2,-148.26 981.77,-142.03 971.19,-141.56 973.2,-148.26"/>
</g>
<!-- Node19 -->
<g id="node19" class="node">
<title>Node19</title>
<g id="a_node19"><a xlink:title=" ">
<polygon fill="white" stroke="#bfbfbf" points="873.5,-67.5 873.5,-86.5 917.5,-86.5 917.5,-67.5 873.5,-67.5"/>
<text text-anchor="middle" x="895.5" y="-74.5" font-family="Helvetica,sans-Serif" font-size="10.00">cmath</text>
</a>
</g>
</g>
<!-- Node18&#45;&gt;Node19 -->
<g id="edge23" class="edge">
<title>Node18&#45;&gt;Node19</title>
<path fill="none" stroke="midnightblue" d="M895.5,-123.08C895.5,-116.01 895.5,-105.86 895.5,-96.99"/>
<polygon fill="midnightblue" stroke="midnightblue" points="899,-96.75 895.5,-86.75 892,-96.75 899,-96.75"/>
</g>
<!-- Node22&#45;&gt;Node8 -->
<g id="edge30" class="edge">
<title>Node22&#45;&gt;Node8</title>
<path fill="none" stroke="midnightblue" d="M604.99,-184.98C568.88,-174.55 507.65,-156.86 467.65,-145.31"/>
<polygon fill="midnightblue" stroke="midnightblue" points="468.54,-141.92 457.96,-142.51 466.6,-148.65 468.54,-141.92"/>
</g>
<!-- Node22&#45;&gt;Node9 -->
<g id="edge28" class="edge">
<title>Node22&#45;&gt;Node9</title>
<path fill="none" stroke="midnightblue" d="M620.4,-184.91C595.85,-170.28 543.29,-140.43 495.5,-123 452.84,-107.44 402.84,-95.92 364.56,-88.43"/>
<polygon fill="midnightblue" stroke="midnightblue" points="365.07,-84.97 354.59,-86.52 363.75,-91.84 365.07,-84.97"/>
</g>
<!-- Node22&#45;&gt;Node10 -->
<g id="edge31" class="edge">
<title>Node22&#45;&gt;Node10</title>
<path fill="none" stroke="midnightblue" d="M637.25,-184.96C645.99,-157.81 673.3,-73.01 685.5,-35.12"/>
<polygon fill="midnightblue" stroke="midnightblue" points="688.91,-35.96 688.64,-25.37 682.25,-33.81 688.91,-35.96"/>
</g>
<!-- Node22&#45;&gt;Node12 -->
<g id="edge29" class="edge">
<title>Node22&#45;&gt;Node12</title>
<path fill="none" stroke="midnightblue" d="M621.84,-184.66C608.73,-175.18 588.02,-159.28 572.5,-143 558.18,-127.99 544.39,-108.63 535.29,-94.96"/>
<polygon fill="midnightblue" stroke="midnightblue" points="538.19,-92.99 529.8,-86.52 532.32,-96.81 538.19,-92.99"/>
</g>
<!-- Node23 -->
<g id="node23" class="node">
<title>Node23</title>
<g id="a_node23"><a xlink:title=" ">
<polygon fill="white" stroke="#bfbfbf" points="581,-123.5 581,-142.5 620,-142.5 620,-123.5 581,-123.5"/>
<text text-anchor="middle" x="600.5" y="-130.5" font-family="Helvetica,sans-Serif" font-size="10.00">utility</text>
</a>
</g>
</g>
<!-- Node22&#45;&gt;Node23 -->
<g id="edge32" class="edge">
<title>Node22&#45;&gt;Node23</title>
<path fill="none" stroke="midnightblue" d="M629.63,-184.98C624.63,-176.23 616.71,-162.37 610.39,-151.31"/>
<polygon fill="midnightblue" stroke="midnightblue" points="613.36,-149.46 605.36,-142.51 607.28,-152.93 613.36,-149.46"/>
</g>
</g>
</svg>
        <g id="navigator" transform="translate(0 0)" fill="#404254">
                <rect fill="#f2f5e9" fill-opacity="0.5" stroke="#606060" stroke-width=".5" x="0" y="0" width="60" height="60"/>
                <use id="zoomplus" xlink:href="#zoomPlus" x="17" y="9" onmousedown="handleZoom(evt,'in')"/>
                <use id="zoomminus" xlink:href="#zoomMin" x="42" y="9" onmousedown="handleZoom(evt,'out')"/>
                <use id="reset" xlink:href="#resetDef" x="30" y="36" onmousedown="handleReset()"/>
                <g id="arrowUp" xlink:href="#dirArrow" transform="translate(30 24)" onmousedown="handlePan(0,-1)">
                  <use xlink:href="#rim" fill="#404040">
                        <set attributeName="fill" to="#808080" begin="arrowUp.mouseover" end="arrowUp.mouseout"/>
                  </use>
                  <path fill="none" stroke="white" stroke-width="1.5" d="M0,-3.0v7 M-2.5,-0.5L0,-3.0L2.5,-0.5"/>
                </g>
                <g id="arrowRight" xlink:href="#dirArrow" transform="rotate(90) translate(36 -43)" onmousedown="handlePan(1,0)">
                  <use xlink:href="#rim" fill="#404040">
                        <set attributeName="fill" to="#808080" begin="arrowRight.mouseover" end="arrowRight.mouseout"/>
                  </use>
                  <path fill="none" stroke="white" stroke-width="1.5" d="M0,-3.0v7 M-2.5,-0.5L0,-3.0L2.5,-0.5"/>
                </g>
                <g id="arrowDown" xlink:href="#dirArrow" transform="rotate(180) translate(-30 -48)" onmousedown="handlePan(0,1)">
                  <use xlink:href="#rim" fill="#404040">
                        <set attributeName="fill" to="#808080" begin="arrowDown.mouseover" end="arrowDown.mouseout"/>
                  </use>
                  <path fill="none" stroke="white" stroke-width="1.5" d="M0,-3.0v7 M-2.5,-0.5L0,-3.0L2.5,-0.5"/>
                </g>
                <g id="arrowLeft" xlink:href="#dirArrow" transform="rotate(270) translate(-36 17)" onmousedown="handlePan(-1,0)">
                  <use xlink:href="#rim" fill="#404040">
                        <set attributeName="fill" to="#808080" begin="arrowLeft.mouseover" end="arrowLeft.mouseout"/>
                  </use>
                  <path fill="none" stroke="white" stroke-width="1.5" d="M0,-3.0v7 M-2.5,-0.5L0,-3.0L2.5,-0.5"/>
                </g>
        </g>
        <svg viewBox="0 0 15 15" width="100%" height="30px" preserveAspectRatio="xMaxYMin meet">
         <g id="arrow_out" transform="scale(0.3 0.3)">
          <a xlink:href="MarmotMaterialHypoElastic_8cpp__incl_org.svg" target="_base">
           <rect id="button" ry="5" rx="5" y="6" x="6" height="38" width="38"
                fill="#f2f5e9" fill-opacity="0.5" stroke="#606060" stroke-width="1.0"/>
           <path id="arrow"
             d="M 11.500037,31.436501 C 11.940474,20.09759 22.043105,11.32322 32.158766,21.979434 L 37.068811,17.246167 C 37.068811,17.246167 37.088388,32 37.088388,32 L 22.160133,31.978069 C 22.160133,31.978069 26.997745,27.140456 26.997745,27.140456 C 18.528582,18.264221 13.291696,25.230495 11.500037,31.436501 z"
             style="fill:#404040;"/>
          </a>
         </g>
        </svg>
</svg>
