<?xml version="1.0" encoding="UTF-8" standalone="no"?>
<!DOCTYPE svg PUBLIC "-//W3C//DTD SVG 1.1//EN"
 "http://www.w3.org/Graphics/SVG/1.1/DTD/svg11.dtd">
<!-- Generated by graphviz version 2.44.0 ()
 -->
<!-- Title: modules/core/MarmotMechanicsCore/include/Marmot/MarmotMaterialMechanical.h Pages: 1 -->
<svg width="1384pt" height="284pt"
 viewBox="0.00 0.00 1384.00 284.00" xmlns="http://www.w3.org/2000/svg" xmlns:xlink="http://www.w3.org/1999/xlink">
<g id="graph0" class="graph" transform="scale(1 1) rotate(0) translate(4 280)">
<title>modules/core/MarmotMechanicsCore/include/Marmot/MarmotMaterialMechanical.h</title>
<polygon fill="white" stroke="transparent" points="-4,4 -4,-280 1380,-280 1380,4 -4,4"/>
<!-- Node1 -->
<g id="node1" class="node">
<title>Node1</title>
<g id="a_node1"><a xlink:title=" ">
<polygon fill="#bfbfbf" stroke="black" points="515,-234.5 515,-275.5 692,-275.5 692,-234.5 515,-234.5"/>
<text text-anchor="start" x="523" y="-263.5" font-family="Helvetica,sans-Serif" font-size="10.00">modules/core/MarmotMechanics</text>
<text text-anchor="start" x="523" y="-252.5" font-family="Helvetica,sans-Serif" font-size="10.00">Core/include/Marmot/MarmotMaterial</text>
<text text-anchor="middle" x="603.5" y="-241.5" font-family="Helvetica,sans-Serif" font-size="10.00">Mechanical.h</text>
</a>
</g>
</g>
<!-- Node2 -->
<g id="node2" class="node">
<title>Node2</title>
<g id="a_node2"><a xlink:href="MarmotMaterialHyperElastic_8h.html" target="_top" xlink:title=" ">
<polygon fill="white" stroke="black" points="214,-156.5 214,-197.5 391,-197.5 391,-156.5 214,-156.5"/>
<text text-anchor="start" x="222" y="-185.5" font-family="Helvetica,sans-Serif" font-size="10.00">modules/core/MarmotMechanics</text>
<text text-anchor="start" x="222" y="-174.5" font-family="Helvetica,sans-Serif" font-size="10.00">Core/include/Marmot/MarmotMaterial</text>
<text text-anchor="middle" x="302.5" y="-163.5" font-family="Helvetica,sans-Serif" font-size="10.00">HyperElastic.h</text>
</a>
</g>
</g>
<!-- Node1&#45;&gt;Node2 -->
<g id="edge1" class="edge">
<title>Node1&#45;&gt;Node2</title>
<path fill="none" stroke="midnightblue" d="M516.07,-231.92C472.95,-221.04 421.4,-208.02 379.75,-197.51"/>
<polygon fill="midnightblue" stroke="midnightblue" points="515.43,-235.37 525.99,-234.43 517.15,-228.59 515.43,-235.37"/>
</g>
<!-- Node4 -->
<g id="node4" class="node">
<title>Node4</title>
<g id="a_node4"><a xlink:href="MarmotMaterialHypoElastic_8h.html" target="_top" xlink:title=" ">
<polygon fill="white" stroke="black" points="515,-156.5 515,-197.5 692,-197.5 692,-156.5 515,-156.5"/>
<text text-anchor="start" x="523" y="-185.5" font-family="Helvetica,sans-Serif" font-size="10.00">modules/core/MarmotMechanics</text>
<text text-anchor="start" x="523" y="-174.5" font-family="Helvetica,sans-Serif" font-size="10.00">Core/include/Marmot/MarmotMaterial</text>
<text text-anchor="middle" x="603.5" y="-163.5" font-family="Helvetica,sans-Serif" font-size="10.00">HypoElastic.h</text>
</a>
</g>
</g>
<!-- Node1&#45;&gt;Node4 -->
<g id="edge3" class="edge">
<title>Node1&#45;&gt;Node4</title>
<path fill="none" stroke="midnightblue" d="M603.5,-224.3C603.5,-215.3 603.5,-205.65 603.5,-197.51"/>
<polygon fill="midnightblue" stroke="midnightblue" points="600,-224.43 603.5,-234.43 607,-224.43 600,-224.43"/>
</g>
<!-- Node16 -->
<g id="node16" class="node">
<title>Node16</title>
<g id="a_node16"><a xlink:href="MarmotMaterialMechanical_8cpp.html" target="_top" xlink:title=" ">
<polygon fill="white" stroke="black" points="710,-162 710,-192 901,-192 901,-162 710,-162"/>
<text text-anchor="start" x="718" y="-180" font-family="Helvetica,sans-Serif" font-size="10.00">modules/core/MarmotMechanics</text>
<text text-anchor="middle" x="805.5" y="-169" font-family="Helvetica,sans-Serif" font-size="10.00">Core/src/MarmotMaterialMechanical.cpp</text>
</a>
</g>
</g>
<!-- Node1&#45;&gt;Node16 -->
<g id="edge15" class="edge">
<title>Node1&#45;&gt;Node16</title>
<path fill="none" stroke="midnightblue" d="M665.24,-230.77C698.8,-218.15 739.2,-202.94 768.01,-192.11"/>
<polygon fill="midnightblue" stroke="midnightblue" points="663.65,-227.63 655.52,-234.43 666.11,-234.18 663.65,-227.63"/>
</g>
<!-- Node3 -->
<g id="node3" class="node">
<title>Node3</title>
<g id="a_node3"><a xlink:href="MarmotMaterialHyperElastic_8cpp.html" target="_top" xlink:title=" ">
<polygon fill="white" stroke="black" points="0,-84 0,-114 197,-114 197,-84 0,-84"/>
<text text-anchor="start" x="8" y="-102" font-family="Helvetica,sans-Serif" font-size="10.00">modules/core/MarmotMechanics</text>
<text text-anchor="middle" x="98.5" y="-91" font-family="Helvetica,sans-Serif" font-size="10.00">Core/src/MarmotMaterialHyperElastic.cpp</text>
</a>
</g>
</g>
<!-- Node2&#45;&gt;Node3 -->
<g id="edge2" class="edge">
<title>Node2&#45;&gt;Node3</title>
<path fill="none" stroke="midnightblue" d="M240.59,-152.93C206.61,-140.28 165.58,-124.99 136.36,-114.11"/>
<polygon fill="midnightblue" stroke="midnightblue" points="239.37,-156.22 249.96,-156.43 241.82,-149.66 239.37,-156.22"/>
</g>
<!-- Node5 -->
<g id="node5" class="node">
<title>Node5</title>
<g id="a_node5"><a xlink:href="MarmotMaterialHypoElasticAD_8h.html" target="_top" xlink:title=" ">
<polygon fill="white" stroke="black" points="215,-78.5 215,-119.5 392,-119.5 392,-78.5 215,-78.5"/>
<text text-anchor="start" x="223" y="-107.5" font-family="Helvetica,sans-Serif" font-size="10.00">modules/core/MarmotMechanics</text>
<text text-anchor="start" x="223" y="-96.5" font-family="Helvetica,sans-Serif" font-size="10.00">Core/include/Marmot/MarmotMaterial</text>
<text text-anchor="middle" x="303.5" y="-85.5" font-family="Helvetica,sans-Serif" font-size="10.00">HypoElasticAD.h</text>
</a>
</g>
</g>
<!-- Node4&#45;&gt;Node5 -->
<g id="edge4" class="edge">
<title>Node4&#45;&gt;Node5</title>
<path fill="none" stroke="midnightblue" d="M516.36,-153.92C473.39,-143.04 422.01,-130.02 380.5,-119.51"/>
<polygon fill="midnightblue" stroke="midnightblue" points="515.69,-157.37 526.24,-156.43 517.41,-150.58 515.69,-157.37"/>
</g>
<!-- Node7 -->
<g id="node7" class="node">
<title>Node7</title>
<g id="a_node7"><a xlink:href="MarmotMaterialHypoElastic_8cpp.html" target="_top" xlink:title=" ">
<polygon fill="white" stroke="black" points="409.5,-84 409.5,-114 603.5,-114 603.5,-84 409.5,-84"/>
<text text-anchor="start" x="417.5" y="-102" font-family="Helvetica,sans-Serif" font-size="10.00">modules/core/MarmotMechanics</text>
<text text-anchor="middle" x="506.5" y="-91" font-family="Helvetica,sans-Serif" font-size="10.00">Core/src/MarmotMaterialHypoElastic.cpp</text>
</a>
</g>
</g>
<!-- Node4&#45;&gt;Node7 -->
<g id="edge6" class="edge">
<title>Node4&#45;&gt;Node7</title>
<path fill="none" stroke="midnightblue" d="M570.31,-149.99C555.02,-138.02 537.47,-124.27 524.66,-114.23"/>
<polygon fill="midnightblue" stroke="midnightblue" points="568.49,-153.02 578.52,-156.43 572.81,-147.51 568.49,-153.02"/>
</g>
<!-- Node8 -->
<g id="node8" class="node">
<title>Node8</title>
<g id="a_node8"><a xlink:href="DisplacementFiniteElement_8h.html" target="_top" xlink:title=" ">
<polygon fill="white" stroke="black" points="621.5,-78.5 621.5,-119.5 779.5,-119.5 779.5,-78.5 621.5,-78.5"/>
<text text-anchor="start" x="629.5" y="-107.5" font-family="Helvetica,sans-Serif" font-size="10.00">modules/elements/Displacement</text>
<text text-anchor="start" x="629.5" y="-96.5" font-family="Helvetica,sans-Serif" font-size="10.00">FiniteElement/include/Marmot</text>
<text text-anchor="middle" x="700.5" y="-85.5" font-family="Helvetica,sans-Serif" font-size="10.00">/DisplacementFiniteElement.h</text>
</a>
</g>
</g>
<!-- Node4&#45;&gt;Node8 -->
<g id="edge7" class="edge">
<title>Node4&#45;&gt;Node8</title>
<path fill="none" stroke="midnightblue" d="M636.6,-150.06C649.37,-140.06 663.74,-128.8 675.6,-119.51"/>
<polygon fill="midnightblue" stroke="midnightblue" points="634.19,-147.51 628.48,-156.43 638.51,-153.02 634.19,-147.51"/>
</g>
<!-- Node10 -->
<g id="node10" class="node">
<title>Node10</title>
<g id="a_node10"><a xlink:href="LinearElastic_8h.html" target="_top" xlink:title=" ">
<polygon fill="white" stroke="black" points="797.5,-78.5 797.5,-119.5 923.5,-119.5 923.5,-78.5 797.5,-78.5"/>
<text text-anchor="start" x="805.5" y="-107.5" font-family="Helvetica,sans-Serif" font-size="10.00">modules/materials/Linear</text>
<text text-anchor="start" x="805.5" y="-96.5" font-family="Helvetica,sans-Serif" font-size="10.00">Elastic/include/Marmot</text>
<text text-anchor="middle" x="860.5" y="-85.5" font-family="Helvetica,sans-Serif" font-size="10.00">/LinearElastic.h</text>
</a>
</g>
</g>
<!-- Node4&#45;&gt;Node10 -->
<g id="edge9" class="edge">
<title>Node4&#45;&gt;Node10</title>
<path fill="none" stroke="midnightblue" d="M679.54,-153.51C717,-142.44 761.63,-129.24 797.2,-118.72"/>
<polygon fill="midnightblue" stroke="midnightblue" points="678.28,-150.24 669.68,-156.43 680.27,-156.95 678.28,-150.24"/>
</g>
<!-- Node13 -->
<g id="node13" class="node">
<title>Node13</title>
<g id="a_node13"><a xlink:href="VonMises_8h.html" target="_top" xlink:title=" ">
<polygon fill="white" stroke="black" points="1066,-84 1066,-114 1209,-114 1209,-84 1066,-84"/>
<text text-anchor="start" x="1074" y="-102" font-family="Helvetica,sans-Serif" font-size="10.00">modules/materials/VonMises</text>
<text text-anchor="middle" x="1137.5" y="-91" font-family="Helvetica,sans-Serif" font-size="10.00">/include/Marmot/VonMises.h</text>
</a>
</g>
</g>
<!-- Node4&#45;&gt;Node13 -->
<g id="edge12" class="edge">
<title>Node4&#45;&gt;Node13</title>
<path fill="none" stroke="midnightblue" d="M702.26,-155.76C835.87,-133.77 981.06,-116.74 1065.72,-107.51"/>
<polygon fill="midnightblue" stroke="midnightblue" points="701.55,-152.33 692.26,-157.42 702.69,-159.23 701.55,-152.33"/>
</g>
<!-- Node6 -->
<g id="node6" class="node">
<title>Node6</title>
<g id="a_node6"><a xlink:href="MarmotMaterialHypoElasticAD_8cpp.html" target="_top" xlink:title=" ">
<polygon fill="white" stroke="black" points="215.5,-0.5 215.5,-41.5 391.5,-41.5 391.5,-0.5 215.5,-0.5"/>
<text text-anchor="start" x="223.5" y="-29.5" font-family="Helvetica,sans-Serif" font-size="10.00">modules/core/MarmotMechanics</text>
<text text-anchor="start" x="223.5" y="-18.5" font-family="Helvetica,sans-Serif" font-size="10.00">Core/src/MarmotMaterialHypoElastic</text>
<text text-anchor="middle" x="303.5" y="-7.5" font-family="Helvetica,sans-Serif" font-size="10.00">AD.cpp</text>
</a>
</g>
</g>
<!-- Node5&#45;&gt;Node6 -->
<g id="edge5" class="edge">
<title>Node5&#45;&gt;Node6</title>
<path fill="none" stroke="midnightblue" d="M303.5,-68.3C303.5,-59.3 303.5,-49.65 303.5,-41.51"/>
<polygon fill="midnightblue" stroke="midnightblue" points="300,-68.43 303.5,-78.43 307,-68.43 300,-68.43"/>
</g>
<!-- Node9 -->
<g id="node9" class="node">
<title>Node9</title>
<g id="a_node9"><a xlink:href="DisplacementFiniteElementRegistration_8cpp.html" target="_top" xlink:title=" ">
<polygon fill="white" stroke="black" points="501,-0.5 501,-41.5 680,-41.5 680,-0.5 501,-0.5"/>
<text text-anchor="start" x="509" y="-29.5" font-family="Helvetica,sans-Serif" font-size="10.00">modules/elements/Displacement</text>
<text text-anchor="start" x="509" y="-18.5" font-family="Helvetica,sans-Serif" font-size="10.00">FiniteElement/src/DisplacementFinite</text>
<text text-anchor="middle" x="590.5" y="-7.5" font-family="Helvetica,sans-Serif" font-size="10.00">ElementRegistration.cpp</text>
</a>
</g>
</g>
<!-- Node8&#45;&gt;Node9 -->
<g id="edge8" class="edge">
<title>Node8&#45;&gt;Node9</title>
<path fill="none" stroke="midnightblue" d="M663.79,-72.64C649.1,-62.49 632.45,-50.98 618.73,-41.51"/>
<polygon fill="midnightblue" stroke="midnightblue" points="661.96,-75.62 672.17,-78.43 665.93,-69.86 661.96,-75.62"/>
</g>
<!-- Node11 -->
<g id="node11" class="node">
<title>Node11</title>
<g id="a_node11"><a xlink:href="LinearElastic_8cpp.html" target="_top" xlink:title=" ">
<polygon fill="white" stroke="black" points="698.5,-6 698.5,-36 838.5,-36 838.5,-6 698.5,-6"/>
<text text-anchor="start" x="706.5" y="-24" font-family="Helvetica,sans-Serif" font-size="10.00">modules/materials/Linear</text>
<text text-anchor="middle" x="768.5" y="-13" font-family="Helvetica,sans-Serif" font-size="10.00">Elastic/src/LinearElastic.cpp</text>
</a>
</g>
</g>
<!-- Node10&#45;&gt;Node11 -->
<g id="edge10" class="edge">
<title>Node10&#45;&gt;Node11</title>
<path fill="none" stroke="midnightblue" d="M829.02,-71.99C814.52,-60.02 797.88,-46.27 785.72,-36.23"/>
<polygon fill="midnightblue" stroke="midnightblue" points="826.87,-74.76 836.81,-78.43 831.33,-69.36 826.87,-74.76"/>
</g>
<!-- Node12 -->
<g id="node12" class="node">
<title>Node12</title>
<g id="a_node12"><a xlink:href="LinearElasticRegistration_8cpp.html" target="_top" xlink:title=" ">
<polygon fill="white" stroke="black" points="857,-6 857,-36 1048,-36 1048,-6 857,-6"/>
<text text-anchor="start" x="865" y="-24" font-family="Helvetica,sans-Serif" font-size="10.00">modules/materials/Linear</text>
<text text-anchor="middle" x="952.5" y="-13" font-family="Helvetica,sans-Serif" font-size="10.00">Elastic/src/LinearElasticRegistration.cpp</text>
</a>
</g>
</g>
<!-- Node10&#45;&gt;Node12 -->
<g id="edge11" class="edge">
<title>Node10&#45;&gt;Node12</title>
<path fill="none" stroke="midnightblue" d="M891.98,-71.99C906.48,-60.02 923.12,-46.27 935.28,-36.23"/>
<polygon fill="midnightblue" stroke="midnightblue" points="889.67,-69.36 884.19,-78.43 894.13,-74.76 889.67,-69.36"/>
</g>
<!-- Node14 -->
<g id="node14" class="node">
<title>Node14</title>
<g id="a_node14"><a xlink:href="VonMises_8cpp.html" target="_top" xlink:title=" ">
<polygon fill="white" stroke="black" points="1066,-6 1066,-36 1209,-36 1209,-6 1066,-6"/>
<text text-anchor="start" x="1074" y="-24" font-family="Helvetica,sans-Serif" font-size="10.00">modules/materials/VonMises</text>
<text text-anchor="middle" x="1137.5" y="-13" font-family="Helvetica,sans-Serif" font-size="10.00">/src/VonMises.cpp</text>
</a>
</g>
</g>
<!-- Node13&#45;&gt;Node14 -->
<g id="edge13" class="edge">
<title>Node13&#45;&gt;Node14</title>
<path fill="none" stroke="midnightblue" d="M1137.5,-73.59C1137.5,-61.26 1137.5,-46.72 1137.5,-36.23"/>
<polygon fill="midnightblue" stroke="midnightblue" points="1134,-73.7 1137.5,-83.7 1141,-73.71 1134,-73.7"/>
</g>
<!-- Node15 -->
<g id="node15" class="node">
<title>Node15</title>
<g id="a_node15"><a xlink:href="VonMisesRegistration_8cpp.html" target="_top" xlink:title=" ">
<polygon fill="white" stroke="black" points="1227,-6 1227,-36 1376,-36 1376,-6 1227,-6"/>
<text text-anchor="start" x="1235" y="-24" font-family="Helvetica,sans-Serif" font-size="10.00">modules/materials/VonMises</text>
<text text-anchor="middle" x="1301.5" y="-13" font-family="Helvetica,sans-Serif" font-size="10.00">/src/VonMisesRegistration.cpp</text>
</a>
</g>
</g>
<!-- Node13&#45;&gt;Node15 -->
<g id="edge14" class="edge">
<title>Node13&#45;&gt;Node15</title>
<path fill="none" stroke="midnightblue" d="M1177.37,-79.52C1206.28,-66.13 1244.78,-48.28 1271.2,-36.04"/>
<polygon fill="midnightblue" stroke="midnightblue" points="1175.56,-76.5 1167.96,-83.88 1178.51,-82.85 1175.56,-76.5"/>
</g>
</g>
</svg>
