<?xml version="1.0" encoding="UTF-8" standalone="no"?>
<!DOCTYPE svg PUBLIC "-//W3C//DTD SVG 1.1//EN"
 "http://www.w3.org/Graphics/SVG/1.1/DTD/svg11.dtd">
<!-- Generated by graphviz version 2.44.0 ()
 -->
<!-- Title: modules/core/MarmotFiniteStrainMechanicsCore/include/Marmot/MarmotEnergyDensityFunctions.h Pages: 1 -->
<svg width="1192pt" height="419pt"
 viewBox="0.00 0.00 1192.00 419.00" xmlns="http://www.w3.org/2000/svg" xmlns:xlink="http://www.w3.org/1999/xlink">
<g id="graph0" class="graph" transform="scale(1 1) rotate(0) translate(4 415)">
<title>modules/core/MarmotFiniteStrainMechanicsCore/include/Marmot/MarmotEnergyDensityFunctions.h</title>
<polygon fill="white" stroke="transparent" points="-4,4 -4,-415 1188,-415 1188,4 -4,4"/>
<!-- Node1 -->
<g id="node1" class="node">
<title>Node1</title>
<g id="a_node1"><a xlink:title=" ">
<polygon fill="#bfbfbf" stroke="black" points="0,-369.5 0,-410.5 200,-410.5 200,-369.5 0,-369.5"/>
<text text-anchor="start" x="8" y="-398.5" font-family="Helvetica,sans-Serif" font-size="10.00">modules/core/MarmotFinite</text>
<text text-anchor="start" x="8" y="-387.5" font-family="Helvetica,sans-Serif" font-size="10.00">StrainMechanicsCore/include</text>
<text text-anchor="middle" x="100" y="-376.5" font-family="Helvetica,sans-Serif" font-size="10.00">/Marmot/MarmotEnergyDensityFunctions.h</text>
</a>
</g>
</g>
<!-- Node2 -->
<g id="node2" class="node">
<title>Node2</title>
<g id="a_node2"><a xlink:title=" ">
<polygon fill="white" stroke="#bfbfbf" points="8.5,-246.5 8.5,-265.5 91.5,-265.5 91.5,-246.5 8.5,-246.5"/>
<text text-anchor="middle" x="50" y="-253.5" font-family="Helvetica,sans-Serif" font-size="10.00">Fastor/Fastor.h</text>
</a>
</g>
</g>
<!-- Node1&#45;&gt;Node2 -->
<g id="edge1" class="edge">
<title>Node1&#45;&gt;Node2</title>
<path fill="none" stroke="midnightblue" d="M87.5,-369.4C81.24,-358.92 73.97,-345.61 69,-333 61.54,-314.06 56.31,-291.29 53.25,-275.64"/>
<polygon fill="midnightblue" stroke="midnightblue" points="56.66,-274.86 51.41,-265.66 49.78,-276.13 56.66,-274.86"/>
</g>
<!-- Node3 -->
<g id="node3" class="node">
<title>Node3</title>
<g id="a_node3"><a xlink:href="MarmotFastorTensorBasics_8h.html" target="_top" xlink:title=" ">
<polygon fill="white" stroke="black" points="78.5,-302.5 78.5,-332.5 221.5,-332.5 221.5,-302.5 78.5,-302.5"/>
<text text-anchor="start" x="86.5" y="-320.5" font-family="Helvetica,sans-Serif" font-size="10.00">Marmot/MarmotFastorTensor</text>
<text text-anchor="middle" x="150" y="-309.5" font-family="Helvetica,sans-Serif" font-size="10.00">Basics.h</text>
</a>
</g>
</g>
<!-- Node1&#45;&gt;Node3 -->
<g id="edge2" class="edge">
<title>Node1&#45;&gt;Node3</title>
<path fill="none" stroke="midnightblue" d="M113.93,-369.36C120.15,-360.59 127.51,-350.21 133.96,-341.12"/>
<polygon fill="midnightblue" stroke="midnightblue" points="136.86,-343.07 139.79,-332.89 131.15,-339.02 136.86,-343.07"/>
</g>
<!-- Node3&#45;&gt;Node2 -->
<g id="edge4" class="edge">
<title>Node3&#45;&gt;Node2</title>
<path fill="none" stroke="midnightblue" d="M126.3,-302.4C110.27,-292.86 89.2,-280.32 73.26,-270.84"/>
<polygon fill="midnightblue" stroke="midnightblue" points="74.93,-267.76 64.55,-265.66 71.36,-273.78 74.93,-267.76"/>
</g>
<!-- Node4 -->
<g id="node4" class="node">
<title>Node4</title>
<g id="a_node4"><a xlink:title=" ">
<polygon fill="white" stroke="#bfbfbf" points="157,-6 157,-25 221,-25 221,-6 157,-6"/>
<text text-anchor="middle" x="189" y="-13" font-family="Helvetica,sans-Serif" font-size="10.00">Eigen/Core</text>
</a>
</g>
</g>
<!-- Node3&#45;&gt;Node4 -->
<g id="edge3" class="edge">
<title>Node3&#45;&gt;Node4</title>
<path fill="none" stroke="midnightblue" d="M143.78,-302.22C135,-280.71 120,-238.5 120,-201 120,-201 120,-201 120,-143 120,-108.18 121.92,-97.34 139,-67 146.64,-53.43 158.91,-40.96 169.38,-31.81"/>
<polygon fill="midnightblue" stroke="midnightblue" points="171.83,-34.32 177.26,-25.22 167.35,-28.94 171.83,-34.32"/>
</g>
<!-- Node5 -->
<g id="node5" class="node">
<title>Node5</title>
<g id="a_node5"><a xlink:href="MarmotTensor_8h.html" target="_top" xlink:title=" ">
<polygon fill="white" stroke="black" points="263.5,-246.5 263.5,-265.5 386.5,-265.5 386.5,-246.5 263.5,-246.5"/>
<text text-anchor="middle" x="325" y="-253.5" font-family="Helvetica,sans-Serif" font-size="10.00">Marmot/MarmotTensor.h</text>
</a>
</g>
</g>
<!-- Node3&#45;&gt;Node5 -->
<g id="edge5" class="edge">
<title>Node3&#45;&gt;Node5</title>
<path fill="none" stroke="midnightblue" d="M191.47,-302.4C221.58,-292.16 261.85,-278.47 290.27,-268.81"/>
<polygon fill="midnightblue" stroke="midnightblue" points="291.45,-272.1 299.79,-265.57 289.2,-265.48 291.45,-272.1"/>
</g>
<!-- Node20 -->
<g id="node20" class="node">
<title>Node20</title>
<g id="a_node20"><a xlink:title=" ">
<polygon fill="white" stroke="#bfbfbf" points="1080,-67.5 1080,-97.5 1184,-97.5 1184,-67.5 1080,-67.5"/>
<text text-anchor="start" x="1088" y="-85.5" font-family="Helvetica,sans-Serif" font-size="10.00">autodiff/forward/dual</text>
<text text-anchor="middle" x="1132" y="-74.5" font-family="Helvetica,sans-Serif" font-size="10.00">/dual.hpp</text>
</a>
</g>
</g>
<!-- Node3&#45;&gt;Node20 -->
<g id="edge28" class="edge">
<title>Node3&#45;&gt;Node20</title>
<path fill="none" stroke="midnightblue" d="M221.71,-302.45C270.63,-292.68 336.85,-279.11 395,-266 646.33,-209.32 943.5,-132.8 1070.01,-99.78"/>
<polygon fill="midnightblue" stroke="midnightblue" points="1071.11,-103.11 1079.9,-97.2 1069.34,-96.34 1071.11,-103.11"/>
</g>
<!-- Node6 -->
<g id="node6" class="node">
<title>Node6</title>
<g id="a_node6"><a xlink:href="MarmotJournal_8h.html" target="_top" xlink:title=" ">
<polygon fill="white" stroke="black" points="194.5,-134.5 194.5,-153.5 319.5,-153.5 319.5,-134.5 194.5,-134.5"/>
<text text-anchor="middle" x="257" y="-141.5" font-family="Helvetica,sans-Serif" font-size="10.00">Marmot/MarmotJournal.h</text>
</a>
</g>
</g>
<!-- Node5&#45;&gt;Node6 -->
<g id="edge6" class="edge">
<title>Node5&#45;&gt;Node6</title>
<path fill="none" stroke="midnightblue" d="M319.66,-246.37C308.49,-228.3 282.45,-186.18 267.7,-162.31"/>
<polygon fill="midnightblue" stroke="midnightblue" points="270.55,-160.26 262.31,-153.59 264.59,-163.94 270.55,-160.26"/>
</g>
<!-- Node7 -->
<g id="node7" class="node">
<title>Node7</title>
<g id="a_node7"><a xlink:title=" ">
<polygon fill="white" stroke="#bfbfbf" points="148,-73 148,-92 202,-92 202,-73 148,-73"/>
<text text-anchor="middle" x="175" y="-80" font-family="Helvetica,sans-Serif" font-size="10.00">iostream</text>
</a>
</g>
</g>
<!-- Node5&#45;&gt;Node7 -->
<g id="edge26" class="edge">
<title>Node5&#45;&gt;Node7</title>
<path fill="none" stroke="midnightblue" d="M304.26,-246.5C272.71,-232.39 213.36,-200.95 185,-154 175.53,-138.32 173.67,-117.16 173.79,-102.13"/>
<polygon fill="midnightblue" stroke="midnightblue" points="177.29,-102.14 174.17,-92.02 170.29,-101.88 177.29,-102.14"/>
</g>
<!-- Node10 -->
<g id="node10" class="node">
<title>Node10</title>
<g id="a_node10"><a xlink:href="MarmotTypedefs_8h.html" target="_top" xlink:title=" ">
<polygon fill="white" stroke="black" points="349.5,-73 349.5,-92 482.5,-92 482.5,-73 349.5,-73"/>
<text text-anchor="middle" x="416" y="-80" font-family="Helvetica,sans-Serif" font-size="10.00">Marmot/MarmotTypedefs.h</text>
</a>
</g>
</g>
<!-- Node5&#45;&gt;Node10 -->
<g id="edge10" class="edge">
<title>Node5&#45;&gt;Node10</title>
<path fill="none" stroke="midnightblue" d="M329.64,-246.26C343.94,-219.31 387.55,-137.12 406.75,-100.92"/>
<polygon fill="midnightblue" stroke="midnightblue" points="409.88,-102.49 411.48,-92.02 403.7,-99.21 409.88,-102.49"/>
</g>
<!-- Node13 -->
<g id="node13" class="node">
<title>Node13</title>
<g id="a_node13"><a xlink:href="MarmotVoigt_8h.html" target="_top" xlink:title=" ">
<polygon fill="white" stroke="black" points="372,-190.5 372,-209.5 488,-209.5 488,-190.5 372,-190.5"/>
<text text-anchor="middle" x="430" y="-197.5" font-family="Helvetica,sans-Serif" font-size="10.00">Marmot/MarmotVoigt.h</text>
</a>
</g>
</g>
<!-- Node5&#45;&gt;Node13 -->
<g id="edge14" class="edge">
<title>Node5&#45;&gt;Node13</title>
<path fill="none" stroke="midnightblue" d="M341.87,-246.32C358.71,-237.66 384.81,-224.24 404.24,-214.25"/>
<polygon fill="midnightblue" stroke="midnightblue" points="405.88,-217.34 413.17,-209.65 402.68,-211.12 405.88,-217.34"/>
</g>
<!-- Node22 -->
<g id="node22" class="node">
<title>Node22</title>
<g id="a_node22"><a xlink:title=" ">
<polygon fill="white" stroke="#bfbfbf" points="506.5,-190.5 506.5,-209.5 545.5,-209.5 545.5,-190.5 506.5,-190.5"/>
<text text-anchor="middle" x="526" y="-197.5" font-family="Helvetica,sans-Serif" font-size="10.00">utility</text>
</a>
</g>
</g>
<!-- Node5&#45;&gt;Node22 -->
<g id="edge27" class="edge">
<title>Node5&#45;&gt;Node22</title>
<path fill="none" stroke="midnightblue" d="M359.39,-246.49C392.23,-238.25 443.32,-225.16 496.74,-209.98"/>
<polygon fill="midnightblue" stroke="midnightblue" points="497.73,-213.33 506.38,-207.22 495.8,-206.6 497.73,-213.33"/>
</g>
<!-- Node6&#45;&gt;Node7 -->
<g id="edge7" class="edge">
<title>Node6&#45;&gt;Node7</title>
<path fill="none" stroke="midnightblue" d="M245.25,-134.48C232.22,-125.02 210.96,-109.6 195.24,-98.19"/>
<polygon fill="midnightblue" stroke="midnightblue" points="196.88,-95.05 186.73,-92.01 192.77,-100.71 196.88,-95.05"/>
</g>
<!-- Node8 -->
<g id="node8" class="node">
<title>Node8</title>
<g id="a_node8"><a xlink:title=" ">
<polygon fill="white" stroke="#bfbfbf" points="220,-73 220,-92 272,-92 272,-73 220,-73"/>
<text text-anchor="middle" x="246" y="-80" font-family="Helvetica,sans-Serif" font-size="10.00">sstream</text>
</a>
</g>
</g>
<!-- Node6&#45;&gt;Node8 -->
<g id="edge8" class="edge">
<title>Node6&#45;&gt;Node8</title>
<path fill="none" stroke="midnightblue" d="M255.42,-134.48C253.87,-126.08 251.45,-112.98 249.45,-102.16"/>
<polygon fill="midnightblue" stroke="midnightblue" points="252.83,-101.21 247.57,-92.01 245.95,-102.48 252.83,-101.21"/>
</g>
<!-- Node9 -->
<g id="node9" class="node">
<title>Node9</title>
<g id="a_node9"><a xlink:title=" ">
<polygon fill="white" stroke="#bfbfbf" points="290.5,-73 290.5,-92 331.5,-92 331.5,-73 290.5,-73"/>
<text text-anchor="middle" x="311" y="-80" font-family="Helvetica,sans-Serif" font-size="10.00">string</text>
</a>
</g>
</g>
<!-- Node6&#45;&gt;Node9 -->
<g id="edge9" class="edge">
<title>Node6&#45;&gt;Node9</title>
<path fill="none" stroke="midnightblue" d="M264.74,-134.48C273,-125.37 286.28,-110.74 296.49,-99.48"/>
<polygon fill="midnightblue" stroke="midnightblue" points="299.15,-101.77 303.28,-92.01 293.97,-97.06 299.15,-101.77"/>
</g>
<!-- Node10&#45;&gt;Node4 -->
<g id="edge11" class="edge">
<title>Node10&#45;&gt;Node4</title>
<path fill="none" stroke="midnightblue" d="M385.86,-72.87C345.38,-61.28 273.38,-40.66 228.58,-27.83"/>
<polygon fill="midnightblue" stroke="midnightblue" points="229.48,-24.45 218.91,-25.06 227.56,-31.18 229.48,-24.45"/>
</g>
<!-- Node11 -->
<g id="node11" class="node">
<title>Node11</title>
<g id="a_node11"><a xlink:title=" ">
<polygon fill="white" stroke="#bfbfbf" points="284.5,-6 284.5,-25 355.5,-25 355.5,-6 284.5,-6"/>
<text text-anchor="middle" x="320" y="-13" font-family="Helvetica,sans-Serif" font-size="10.00">Eigen/Dense</text>
</a>
</g>
</g>
<!-- Node10&#45;&gt;Node11 -->
<g id="edge12" class="edge">
<title>Node10&#45;&gt;Node11</title>
<path fill="none" stroke="midnightblue" d="M403.05,-72.73C387.15,-61.96 359.95,-43.55 341.03,-30.74"/>
<polygon fill="midnightblue" stroke="midnightblue" points="342.98,-27.84 332.74,-25.13 339.06,-33.63 342.98,-27.84"/>
</g>
<!-- Node12 -->
<g id="node12" class="node">
<title>Node12</title>
<g id="a_node12"><a xlink:title=" ">
<polygon fill="white" stroke="#bfbfbf" points="373.5,-0.5 373.5,-30.5 504.5,-30.5 504.5,-0.5 373.5,-0.5"/>
<text text-anchor="start" x="381.5" y="-18.5" font-family="Helvetica,sans-Serif" font-size="10.00">unsupported/Eigen/CXX11</text>
<text text-anchor="middle" x="439" y="-7.5" font-family="Helvetica,sans-Serif" font-size="10.00">/Tensor</text>
</a>
</g>
</g>
<!-- Node10&#45;&gt;Node12 -->
<g id="edge13" class="edge">
<title>Node10&#45;&gt;Node12</title>
<path fill="none" stroke="midnightblue" d="M419.1,-72.73C422.06,-64.37 426.65,-51.4 430.68,-40.02"/>
<polygon fill="midnightblue" stroke="midnightblue" points="433.98,-41.18 434.01,-30.59 427.38,-38.85 433.98,-41.18"/>
</g>
<!-- Node13&#45;&gt;Node6 -->
<g id="edge15" class="edge">
<title>Node13&#45;&gt;Node6</title>
<path fill="none" stroke="midnightblue" d="M402.59,-190.44C373.23,-181.28 326.48,-166.69 293.9,-156.52"/>
<polygon fill="midnightblue" stroke="midnightblue" points="294.87,-153.16 284.28,-153.52 292.79,-159.84 294.87,-153.16"/>
</g>
<!-- Node13&#45;&gt;Node10 -->
<g id="edge25" class="edge">
<title>Node13&#45;&gt;Node10</title>
<path fill="none" stroke="midnightblue" d="M428.95,-190.32C426.7,-171.76 421.37,-127.84 418.3,-102.47"/>
<polygon fill="midnightblue" stroke="midnightblue" points="421.74,-101.79 417.06,-92.28 414.79,-102.63 421.74,-101.79"/>
</g>
<!-- Node14 -->
<g id="node14" class="node">
<title>Node14</title>
<g id="a_node14"><a xlink:href="MarmotMath_8h.html" target="_top" xlink:title=" ">
<polygon fill="white" stroke="black" points="728.5,-134.5 728.5,-153.5 843.5,-153.5 843.5,-134.5 728.5,-134.5"/>
<text text-anchor="middle" x="786" y="-141.5" font-family="Helvetica,sans-Serif" font-size="10.00">Marmot/MarmotMath.h</text>
</a>
</g>
</g>
<!-- Node13&#45;&gt;Node14 -->
<g id="edge16" class="edge">
<title>Node13&#45;&gt;Node14</title>
<path fill="none" stroke="midnightblue" d="M486.41,-190.44C549.81,-180.83 652.65,-165.23 719.8,-155.04"/>
<polygon fill="midnightblue" stroke="midnightblue" points="720.49,-158.48 729.85,-153.52 719.44,-151.56 720.49,-158.48"/>
</g>
<!-- Node14&#45;&gt;Node10 -->
<g id="edge19" class="edge">
<title>Node14&#45;&gt;Node10</title>
<path fill="none" stroke="midnightblue" d="M728.23,-134.88C668.68,-126.34 573.19,-112.21 491,-98 483.81,-96.76 476.25,-95.38 468.81,-93.98"/>
<polygon fill="midnightblue" stroke="midnightblue" points="469.26,-90.5 458.78,-92.07 467.95,-97.38 469.26,-90.5"/>
</g>
<!-- Node15 -->
<g id="node15" class="node">
<title>Node15</title>
<g id="a_node15"><a xlink:href="MarmotConstants_8h.html" target="_top" xlink:title=" ">
<polygon fill="white" stroke="black" points="500.5,-73 500.5,-92 637.5,-92 637.5,-73 500.5,-73"/>
<text text-anchor="middle" x="569" y="-80" font-family="Helvetica,sans-Serif" font-size="10.00">Marmot/MarmotConstants.h</text>
</a>
</g>
</g>
<!-- Node14&#45;&gt;Node15 -->
<g id="edge17" class="edge">
<title>Node14&#45;&gt;Node15</title>
<path fill="none" stroke="midnightblue" d="M754.91,-134.48C716.72,-124 651.83,-106.21 609.7,-94.66"/>
<polygon fill="midnightblue" stroke="midnightblue" points="610.6,-91.28 600.03,-92.01 608.75,-98.03 610.6,-91.28"/>
</g>
<!-- Node17 -->
<g id="node17" class="node">
<title>Node17</title>
<g id="a_node17"><a xlink:title=" ">
<polygon fill="white" stroke="#bfbfbf" points="656,-73 656,-92 778,-92 778,-73 656,-73"/>
<text text-anchor="middle" x="717" y="-80" font-family="Helvetica,sans-Serif" font-size="10.00">autodiff/forward/dual.hpp</text>
</a>
</g>
</g>
<!-- Node14&#45;&gt;Node17 -->
<g id="edge20" class="edge">
<title>Node14&#45;&gt;Node17</title>
<path fill="none" stroke="midnightblue" d="M776.11,-134.48C765.35,-125.2 747.93,-110.17 734.78,-98.83"/>
<polygon fill="midnightblue" stroke="midnightblue" points="736.73,-95.89 726.87,-92.01 732.16,-101.19 736.73,-95.89"/>
</g>
<!-- Node18 -->
<g id="node18" class="node">
<title>Node18</title>
<g id="a_node18"><a xlink:title=" ">
<polygon fill="white" stroke="#bfbfbf" points="796,-73 796,-92 916,-92 916,-73 796,-73"/>
<text text-anchor="middle" x="856" y="-80" font-family="Helvetica,sans-Serif" font-size="10.00">autodiff/forward/real.hpp</text>
</a>
</g>
</g>
<!-- Node14&#45;&gt;Node18 -->
<g id="edge21" class="edge">
<title>Node14&#45;&gt;Node18</title>
<path fill="none" stroke="midnightblue" d="M796.03,-134.48C807.05,-125.11 824.96,-109.88 838.34,-98.51"/>
<polygon fill="midnightblue" stroke="midnightblue" points="840.64,-101.15 845.99,-92.01 836.1,-95.82 840.64,-101.15"/>
</g>
<!-- Node19 -->
<g id="node19" class="node">
<title>Node19</title>
<g id="a_node19"><a xlink:title=" ">
<polygon fill="white" stroke="#bfbfbf" points="934,-73 934,-92 990,-92 990,-73 934,-73"/>
<text text-anchor="middle" x="962" y="-80" font-family="Helvetica,sans-Serif" font-size="10.00">algorithm</text>
</a>
</g>
</g>
<!-- Node14&#45;&gt;Node19 -->
<g id="edge22" class="edge">
<title>Node14&#45;&gt;Node19</title>
<path fill="none" stroke="midnightblue" d="M814.12,-134.44C842.32,-125.73 886.9,-111.62 925,-98 927.11,-97.25 929.28,-96.45 931.47,-95.63"/>
<polygon fill="midnightblue" stroke="midnightblue" points="932.86,-98.85 940.95,-92 930.36,-92.31 932.86,-98.85"/>
</g>
<!-- Node14&#45;&gt;Node20 -->
<g id="edge23" class="edge">
<title>Node14&#45;&gt;Node20</title>
<path fill="none" stroke="midnightblue" d="M843.6,-135.12C901.13,-126.97 991.98,-113.28 1070,-98 1070.1,-97.98 1070.2,-97.96 1070.31,-97.94"/>
<polygon fill="midnightblue" stroke="midnightblue" points="1070.87,-101.4 1079.96,-95.96 1069.46,-94.54 1070.87,-101.4"/>
</g>
<!-- Node21 -->
<g id="node21" class="node">
<title>Node21</title>
<g id="a_node21"><a xlink:title=" ">
<polygon fill="white" stroke="#bfbfbf" points="1008.5,-73 1008.5,-92 1061.5,-92 1061.5,-73 1008.5,-73"/>
<text text-anchor="middle" x="1035" y="-80" font-family="Helvetica,sans-Serif" font-size="10.00">complex</text>
</a>
</g>
</g>
<!-- Node14&#45;&gt;Node21 -->
<g id="edge24" class="edge">
<title>Node14&#45;&gt;Node21</title>
<path fill="none" stroke="midnightblue" d="M839.17,-134.43C882.66,-126.79 945.49,-114.29 999,-98 1001.28,-97.3 1003.63,-96.52 1005.97,-95.69"/>
<polygon fill="midnightblue" stroke="midnightblue" points="1007.31,-98.93 1015.42,-92.11 1004.83,-92.38 1007.31,-98.93"/>
</g>
<!-- Node16 -->
<g id="node16" class="node">
<title>Node16</title>
<g id="a_node16"><a xlink:title=" ">
<polygon fill="white" stroke="#bfbfbf" points="547,-6 547,-25 591,-25 591,-6 547,-6"/>
<text text-anchor="middle" x="569" y="-13" font-family="Helvetica,sans-Serif" font-size="10.00">cmath</text>
</a>
</g>
</g>
<!-- Node15&#45;&gt;Node16 -->
<g id="edge18" class="edge">
<title>Node15&#45;&gt;Node16</title>
<path fill="none" stroke="midnightblue" d="M569,-72.73C569,-63.18 569,-47.62 569,-35.28"/>
<polygon fill="midnightblue" stroke="midnightblue" points="572.5,-35.13 569,-25.13 565.5,-35.13 572.5,-35.13"/>
</g>
</g>
</svg>
