<?xml version="1.0" encoding="UTF-8" standalone="no"?>
<!DOCTYPE svg PUBLIC "-//W3C//DTD SVG 1.1//EN"
 "http://www.w3.org/Graphics/SVG/1.1/DTD/svg11.dtd">
<!-- Generated by graphviz version 2.44.0 ()
 -->
<!-- Title: modules/core/MarmotMathCore/include/Marmot/MarmotAutomaticDifferentiationForFastor.h Pages: 1 -->
<!--zoomable 430 -->
<svg id="main" version="1.1" xmlns="http://www.w3.org/2000/svg" xmlns:xlink="http://www.w3.org/1999/xlink" xml:space="preserve" onload="init(evt)">
<style type="text/css"><![CDATA[
.edge:hover path { stroke: red; }
.edge:hover polygon { stroke: red; fill: red; }
]]></style>
<script type="text/javascript"><![CDATA[
var edges = document.getElementsByTagName('g');
if (edges && edges.length) {
  for (var i=0;i<edges.length;i++) {
    if (edges[i].id.substr(0,4)=='edge') {
      edges[i].setAttribute('class','edge');
    }
  }
}
]]></script>
        <defs>
                <circle id="rim" cx="0" cy="0" r="7"/>
                <circle id="rim2" cx="0" cy="0" r="3.5"/>
                <g id="zoomPlus">
                        <use xlink:href="#rim" fill="#404040">
                                <set attributeName="fill" to="#808080" begin="zoomplus.mouseover" end="zoomplus.mouseout"/>
                        </use>
                        <path d="M-4,0h8M0,-4v8" fill="none" stroke="white" stroke-width="1.5" pointer-events="none"/>
                </g>
                <g id="zoomMin">
                        <use xlink:href="#rim" fill="#404040">
                                <set attributeName="fill" to="#808080" begin="zoomminus.mouseover" end="zoomminus.mouseout"/>
                        </use>
                        <path d="M-4,0h8" fill="none" stroke="white" stroke-width="1.5" pointer-events="none"/>
                </g>
                <g id="dirArrow">
                        <path fill="none" stroke="white" stroke-width="1.5" d="M0,-3.0v7 M-2.5,-0.5L0,-3.0L2.5,-0.5"/>
                </g>
               <g id="resetDef">
                       <use xlink:href="#rim2" fill="#404040">
                               <set attributeName="fill" to="#808080" begin="reset.mouseover" end="reset.mouseout"/>
                       </use>
               </g>
        </defs>

<script type="text/javascript">
var viewWidth = 1379;
var viewHeight = 430;
var sectionId = 'dynsection-0';
</script>
<script xlink:href="svgpan.js"/>
<svg id="graph" class="graph">
<g id="viewport">
<title>modules/core/MarmotMathCore/include/Marmot/MarmotAutomaticDifferentiationForFastor.h</title>
<polygon fill="white" stroke="transparent" points="-4,4 -4,-426 1375,-426 1375,4 -4,4"/>
<!-- Node1 -->
<g id="node1" class="node">
<title>Node1</title>
<g id="a_node1"><a xlink:title=" ">
<polygon fill="#bfbfbf" stroke="black" points="208.5,-380.5 208.5,-421.5 375.5,-421.5 375.5,-380.5 208.5,-380.5"/>
<text text-anchor="start" x="216.5" y="-409.5" font-family="Helvetica,sans-Serif" font-size="10.00">modules/core/MarmotMathCore</text>
<text text-anchor="start" x="216.5" y="-398.5" font-family="Helvetica,sans-Serif" font-size="10.00">/include/Marmot/MarmotAutomatic</text>
<text text-anchor="middle" x="292" y="-387.5" font-family="Helvetica,sans-Serif" font-size="10.00">DifferentiationForFastor.h</text>
</a>
</g>
</g>
<!-- Node2 -->
<g id="node2" class="node">
<title>Node2</title>
<g id="a_node2"><a xlink:title=" ">
<polygon fill="white" stroke="#bfbfbf" points="278.5,-252 278.5,-271 361.5,-271 361.5,-252 278.5,-252"/>
<text text-anchor="middle" x="320" y="-259" font-family="Helvetica,sans-Serif" font-size="10.00">Fastor/Fastor.h</text>
</a>
</g>
</g>
<!-- Node1&#45;&gt;Node2 -->
<g id="edge1" class="edge">
<title>Node1&#45;&gt;Node2</title>
<path fill="none" stroke="midnightblue" d="M297.29,-380.39C300.07,-369.68 303.44,-356.16 306,-344 310.52,-322.54 314.63,-297.67 317.21,-281.11"/>
<polygon fill="midnightblue" stroke="midnightblue" points="320.69,-281.52 318.74,-271.11 313.77,-280.46 320.69,-281.52"/>
</g>
<!-- Node3 -->
<g id="node3" class="node">
<title>Node3</title>
<g id="a_node3"><a xlink:href="MarmotAutomaticDifferentiation_8h.html" target="_top" xlink:title=" ">
<polygon fill="white" stroke="black" points="66.5,-319 66.5,-338 263.5,-338 263.5,-319 66.5,-319"/>
<text text-anchor="middle" x="165" y="-326" font-family="Helvetica,sans-Serif" font-size="10.00">Marmot/MarmotAutomaticDifferentiation.h</text>
</a>
</g>
</g>
<!-- Node1&#45;&gt;Node3 -->
<g id="edge2" class="edge">
<title>Node1&#45;&gt;Node3</title>
<path fill="none" stroke="midnightblue" d="M256.62,-380.36C235.28,-368.51 208.61,-353.71 189.57,-343.14"/>
<polygon fill="midnightblue" stroke="midnightblue" points="191.07,-339.97 180.62,-338.17 187.67,-346.09 191.07,-339.97"/>
</g>
<!-- Node4 -->
<g id="node4" class="node">
<title>Node4</title>
<g id="a_node4"><a xlink:title=" ">
<polygon fill="white" stroke="#bfbfbf" points="32,-246.5 32,-276.5 136,-276.5 136,-246.5 32,-246.5"/>
<text text-anchor="start" x="40" y="-264.5" font-family="Helvetica,sans-Serif" font-size="10.00">autodiff/forward/dual</text>
<text text-anchor="middle" x="84" y="-253.5" font-family="Helvetica,sans-Serif" font-size="10.00">/eigen.hpp</text>
</a>
</g>
</g>
<!-- Node1&#45;&gt;Node4 -->
<g id="edge34" class="edge">
<title>Node1&#45;&gt;Node4</title>
<path fill="none" stroke="midnightblue" d="M208.4,-391C148.73,-382.66 75.85,-367.86 57,-344 43.47,-326.87 54.26,-302.66 65.97,-285.08"/>
<polygon fill="midnightblue" stroke="midnightblue" points="69.09,-286.74 72.05,-276.57 63.39,-282.67 69.09,-286.74"/>
</g>
<!-- Node5 -->
<g id="node5" class="node">
<title>Node5</title>
<g id="a_node5"><a xlink:title=" ">
<polygon fill="white" stroke="#bfbfbf" points="205,-67.5 205,-97.5 309,-97.5 309,-67.5 205,-67.5"/>
<text text-anchor="start" x="213" y="-85.5" font-family="Helvetica,sans-Serif" font-size="10.00">autodiff/forward/dual</text>
<text text-anchor="middle" x="257" y="-74.5" font-family="Helvetica,sans-Serif" font-size="10.00">/dual.hpp</text>
</a>
</g>
</g>
<!-- Node1&#45;&gt;Node5 -->
<g id="edge35" class="edge">
<title>Node1&#45;&gt;Node5</title>
<path fill="none" stroke="midnightblue" d="M208.32,-395.37C122.04,-385.53 0,-355.24 0,-262.5 0,-262.5 0,-262.5 0,-199 0,-113.97 118.49,-91.16 194.56,-85.28"/>
<polygon fill="midnightblue" stroke="midnightblue" points="195.26,-88.74 204.99,-84.56 194.77,-81.76 195.26,-88.74"/>
</g>
<!-- Node6 -->
<g id="node6" class="node">
<title>Node6</title>
<g id="a_node6"><a xlink:title=" ">
<polygon fill="white" stroke="#bfbfbf" points="199.5,-252 199.5,-271 258.5,-271 258.5,-252 199.5,-252"/>
<text text-anchor="middle" x="229" y="-259" font-family="Helvetica,sans-Serif" font-size="10.00">functional</text>
</a>
</g>
</g>
<!-- Node1&#45;&gt;Node6 -->
<g id="edge36" class="edge">
<title>Node1&#45;&gt;Node6</title>
<path fill="none" stroke="midnightblue" d="M290.2,-380.43C287.91,-362.18 282.86,-334.6 272,-313 265.52,-300.11 255.08,-287.74 246.11,-278.47"/>
<polygon fill="midnightblue" stroke="midnightblue" points="248.32,-275.73 238.75,-271.18 243.4,-280.7 248.32,-275.73"/>
</g>
<!-- Node7 -->
<g id="node7" class="node">
<title>Node7</title>
<g id="a_node7"><a xlink:href="MarmotFastorTensorBasics_8h.html" target="_top" xlink:title=" ">
<polygon fill="white" stroke="black" points="358.5,-313.5 358.5,-343.5 501.5,-343.5 501.5,-313.5 358.5,-313.5"/>
<text text-anchor="start" x="366.5" y="-331.5" font-family="Helvetica,sans-Serif" font-size="10.00">Marmot/MarmotFastorTensor</text>
<text text-anchor="middle" x="430" y="-320.5" font-family="Helvetica,sans-Serif" font-size="10.00">Basics.h</text>
</a>
</g>
</g>
<!-- Node1&#45;&gt;Node7 -->
<g id="edge6" class="edge">
<title>Node1&#45;&gt;Node7</title>
<path fill="none" stroke="midnightblue" d="M330.44,-380.36C350.04,-370.35 373.77,-358.23 393.14,-348.33"/>
<polygon fill="midnightblue" stroke="midnightblue" points="394.95,-351.34 402.26,-343.67 391.77,-345.1 394.95,-351.34"/>
</g>
<!-- Node21 -->
<g id="node21" class="node">
<title>Node21</title>
<g id="a_node21"><a xlink:title=" ">
<polygon fill="white" stroke="#bfbfbf" points="1249,-73 1249,-92 1371,-92 1371,-73 1249,-73"/>
<text text-anchor="middle" x="1310" y="-80" font-family="Helvetica,sans-Serif" font-size="10.00">autodiff/forward/dual.hpp</text>
</a>
</g>
</g>
<!-- Node1&#45;&gt;Node21 -->
<g id="edge33" class="edge">
<title>Node1&#45;&gt;Node21</title>
<path fill="none" stroke="midnightblue" d="M375.7,-395.86C597.95,-383.75 1186,-344.01 1186,-262.5 1186,-262.5 1186,-262.5 1186,-199 1186,-148.36 1242.05,-113.61 1278.79,-96.27"/>
<polygon fill="midnightblue" stroke="midnightblue" points="1280.45,-99.35 1288.12,-92.03 1277.56,-92.98 1280.45,-99.35"/>
</g>
<!-- Node3&#45;&gt;Node4 -->
<g id="edge3" class="edge">
<title>Node3&#45;&gt;Node4</title>
<path fill="none" stroke="midnightblue" d="M154.08,-318.73C142.71,-309.61 124.5,-295 109.5,-282.96"/>
<polygon fill="midnightblue" stroke="midnightblue" points="111.55,-280.12 101.56,-276.59 107.17,-285.58 111.55,-280.12"/>
</g>
<!-- Node3&#45;&gt;Node5 -->
<g id="edge4" class="edge">
<title>Node3&#45;&gt;Node5</title>
<path fill="none" stroke="midnightblue" d="M167.37,-318.85C171.53,-303.87 180.61,-272.19 190,-246 208.03,-195.72 232.73,-138.22 246.55,-106.88"/>
<polygon fill="midnightblue" stroke="midnightblue" points="249.78,-108.23 250.63,-97.67 243.38,-105.4 249.78,-108.23"/>
</g>
<!-- Node3&#45;&gt;Node6 -->
<g id="edge5" class="edge">
<title>Node3&#45;&gt;Node6</title>
<path fill="none" stroke="midnightblue" d="M173.63,-318.73C183.8,-308.4 200.9,-291.04 213.41,-278.33"/>
<polygon fill="midnightblue" stroke="midnightblue" points="215.98,-280.71 220.51,-271.13 211,-275.8 215.98,-280.71"/>
</g>
<!-- Node7&#45;&gt;Node2 -->
<g id="edge8" class="edge">
<title>Node7&#45;&gt;Node2</title>
<path fill="none" stroke="midnightblue" d="M406.13,-313.4C387.43,-302.34 361.56,-287.06 343.07,-276.13"/>
<polygon fill="midnightblue" stroke="midnightblue" points="344.79,-273.08 334.4,-271.01 341.23,-279.11 344.79,-273.08"/>
</g>
<!-- Node7&#45;&gt;Node5 -->
<g id="edge32" class="edge">
<title>Node7&#45;&gt;Node5</title>
<path fill="none" stroke="midnightblue" d="M419.95,-313.33C391.17,-272.73 308.22,-155.75 273.06,-106.15"/>
<polygon fill="midnightblue" stroke="midnightblue" points="275.72,-103.85 267.08,-97.71 270.01,-107.89 275.72,-103.85"/>
</g>
<!-- Node8 -->
<g id="node8" class="node">
<title>Node8</title>
<g id="a_node8"><a xlink:title=" ">
<polygon fill="white" stroke="#bfbfbf" points="501,-6 501,-25 565,-25 565,-6 501,-6"/>
<text text-anchor="middle" x="533" y="-13" font-family="Helvetica,sans-Serif" font-size="10.00">Eigen/Core</text>
</a>
</g>
</g>
<!-- Node7&#45;&gt;Node8 -->
<g id="edge7" class="edge">
<title>Node7&#45;&gt;Node8</title>
<path fill="none" stroke="midnightblue" d="M429.63,-313.46C429.06,-290.12 428,-241.85 428,-201 428,-201 428,-201 428,-143 428,-108.18 426.14,-94.88 447,-67 459.87,-49.81 480.45,-37.42 498.26,-29.22"/>
<polygon fill="midnightblue" stroke="midnightblue" points="500.01,-32.27 507.8,-25.09 497.23,-25.85 500.01,-32.27"/>
</g>
<!-- Node9 -->
<g id="node9" class="node">
<title>Node9</title>
<g id="a_node9"><a xlink:href="MarmotTensor_8h.html" target="_top" xlink:title=" ">
<polygon fill="white" stroke="black" points="558.5,-252 558.5,-271 681.5,-271 681.5,-252 558.5,-252"/>
<text text-anchor="middle" x="620" y="-259" font-family="Helvetica,sans-Serif" font-size="10.00">Marmot/MarmotTensor.h</text>
</a>
</g>
</g>
<!-- Node7&#45;&gt;Node9 -->
<g id="edge9" class="edge">
<title>Node7&#45;&gt;Node9</title>
<path fill="none" stroke="midnightblue" d="M471.23,-313.4C505.3,-301.74 553.14,-285.37 585.29,-274.38"/>
<polygon fill="midnightblue" stroke="midnightblue" points="586.8,-277.56 595.13,-271.01 584.54,-270.93 586.8,-277.56"/>
</g>
<!-- Node10 -->
<g id="node10" class="node">
<title>Node10</title>
<g id="a_node10"><a xlink:href="MarmotJournal_8h.html" target="_top" xlink:title=" ">
<polygon fill="white" stroke="black" points="503.5,-134.5 503.5,-153.5 628.5,-153.5 628.5,-134.5 503.5,-134.5"/>
<text text-anchor="middle" x="566" y="-141.5" font-family="Helvetica,sans-Serif" font-size="10.00">Marmot/MarmotJournal.h</text>
</a>
</g>
</g>
<!-- Node9&#45;&gt;Node10 -->
<g id="edge10" class="edge">
<title>Node9&#45;&gt;Node10</title>
<path fill="none" stroke="midnightblue" d="M615.94,-251.82C607.15,-233.01 586.17,-188.15 574.39,-162.96"/>
<polygon fill="midnightblue" stroke="midnightblue" points="577.51,-161.36 570.11,-153.78 571.17,-164.32 577.51,-161.36"/>
</g>
<!-- Node11 -->
<g id="node11" class="node">
<title>Node11</title>
<g id="a_node11"><a xlink:title=" ">
<polygon fill="white" stroke="#bfbfbf" points="456,-73 456,-92 510,-92 510,-73 456,-73"/>
<text text-anchor="middle" x="483" y="-80" font-family="Helvetica,sans-Serif" font-size="10.00">iostream</text>
</a>
</g>
</g>
<!-- Node9&#45;&gt;Node11 -->
<g id="edge30" class="edge">
<title>Node9&#45;&gt;Node11</title>
<path fill="none" stroke="midnightblue" d="M603.64,-251.89C575.97,-236.38 520.38,-200.94 494,-154 485.1,-138.17 482.79,-117.34 482.44,-102.44"/>
<polygon fill="midnightblue" stroke="midnightblue" points="485.94,-102.39 482.47,-92.38 478.94,-102.37 485.94,-102.39"/>
</g>
<!-- Node14 -->
<g id="node14" class="node">
<title>Node14</title>
<g id="a_node14"><a xlink:href="MarmotTypedefs_8h.html" target="_top" xlink:title=" ">
<polygon fill="white" stroke="black" points="658.5,-73 658.5,-92 791.5,-92 791.5,-73 658.5,-73"/>
<text text-anchor="middle" x="725" y="-80" font-family="Helvetica,sans-Serif" font-size="10.00">Marmot/MarmotTypedefs.h</text>
</a>
</g>
</g>
<!-- Node9&#45;&gt;Node14 -->
<g id="edge14" class="edge">
<title>Node9&#45;&gt;Node14</title>
<path fill="none" stroke="midnightblue" d="M625.06,-251.96C641.31,-224.58 692.34,-138.55 714.53,-101.15"/>
<polygon fill="midnightblue" stroke="midnightblue" points="717.65,-102.75 719.74,-92.37 711.63,-99.18 717.65,-102.75"/>
</g>
<!-- Node17 -->
<g id="node17" class="node">
<title>Node17</title>
<g id="a_node17"><a xlink:href="MarmotVoigt_8h.html" target="_top" xlink:title=" ">
<polygon fill="white" stroke="black" points="680,-190.5 680,-209.5 796,-209.5 796,-190.5 680,-190.5"/>
<text text-anchor="middle" x="738" y="-197.5" font-family="Helvetica,sans-Serif" font-size="10.00">Marmot/MarmotVoigt.h</text>
</a>
</g>
</g>
<!-- Node9&#45;&gt;Node17 -->
<g id="edge18" class="edge">
<title>Node9&#45;&gt;Node17</title>
<path fill="none" stroke="midnightblue" d="M636.91,-251.98C656.53,-242.08 689.13,-225.64 711.99,-214.12"/>
<polygon fill="midnightblue" stroke="midnightblue" points="713.77,-217.14 721.12,-209.51 710.62,-210.89 713.77,-217.14"/>
</g>
<!-- Node25 -->
<g id="node25" class="node">
<title>Node25</title>
<g id="a_node25"><a xlink:title=" ">
<polygon fill="white" stroke="#bfbfbf" points="814.5,-190.5 814.5,-209.5 853.5,-209.5 853.5,-190.5 814.5,-190.5"/>
<text text-anchor="middle" x="834" y="-197.5" font-family="Helvetica,sans-Serif" font-size="10.00">utility</text>
</a>
</g>
</g>
<!-- Node9&#45;&gt;Node25 -->
<g id="edge31" class="edge">
<title>Node9&#45;&gt;Node25</title>
<path fill="none" stroke="midnightblue" d="M652.51,-251.99C687.58,-242.73 745.29,-227.26 804.48,-210.08"/>
<polygon fill="midnightblue" stroke="midnightblue" points="805.75,-213.35 814.37,-207.19 803.79,-206.63 805.75,-213.35"/>
</g>
<!-- Node10&#45;&gt;Node11 -->
<g id="edge11" class="edge">
<title>Node10&#45;&gt;Node11</title>
<path fill="none" stroke="midnightblue" d="M554.11,-134.48C540.8,-124.93 519,-109.31 503.04,-97.87"/>
<polygon fill="midnightblue" stroke="midnightblue" points="505.04,-94.99 494.87,-92.01 500.96,-100.68 505.04,-94.99"/>
</g>
<!-- Node12 -->
<g id="node12" class="node">
<title>Node12</title>
<g id="a_node12"><a xlink:title=" ">
<polygon fill="white" stroke="#bfbfbf" points="588,-73 588,-92 640,-92 640,-73 588,-73"/>
<text text-anchor="middle" x="614" y="-80" font-family="Helvetica,sans-Serif" font-size="10.00">sstream</text>
</a>
</g>
</g>
<!-- Node10&#45;&gt;Node12 -->
<g id="edge12" class="edge">
<title>Node10&#45;&gt;Node12</title>
<path fill="none" stroke="midnightblue" d="M572.88,-134.48C580.15,-125.46 591.8,-111.02 600.84,-99.81"/>
<polygon fill="midnightblue" stroke="midnightblue" points="603.58,-101.99 607.14,-92.01 598.13,-97.59 603.58,-101.99"/>
</g>
<!-- Node13 -->
<g id="node13" class="node">
<title>Node13</title>
<g id="a_node13"><a xlink:title=" ">
<polygon fill="white" stroke="#bfbfbf" points="528.5,-73 528.5,-92 569.5,-92 569.5,-73 528.5,-73"/>
<text text-anchor="middle" x="549" y="-80" font-family="Helvetica,sans-Serif" font-size="10.00">string</text>
</a>
</g>
</g>
<!-- Node10&#45;&gt;Node13 -->
<g id="edge13" class="edge">
<title>Node10&#45;&gt;Node13</title>
<path fill="none" stroke="midnightblue" d="M563.56,-134.48C561.14,-125.99 557.34,-112.7 554.23,-101.82"/>
<polygon fill="midnightblue" stroke="midnightblue" points="557.54,-100.66 551.43,-92.01 550.81,-102.59 557.54,-100.66"/>
</g>
<!-- Node14&#45;&gt;Node8 -->
<g id="edge15" class="edge">
<title>Node14&#45;&gt;Node8</title>
<path fill="none" stroke="midnightblue" d="M699.5,-72.87C665.7,-61.42 605.9,-41.18 567.92,-28.32"/>
<polygon fill="midnightblue" stroke="midnightblue" points="568.89,-24.96 558.3,-25.06 566.65,-31.59 568.89,-24.96"/>
</g>
<!-- Node15 -->
<g id="node15" class="node">
<title>Node15</title>
<g id="a_node15"><a xlink:title=" ">
<polygon fill="white" stroke="#bfbfbf" points="629.5,-6 629.5,-25 700.5,-25 700.5,-6 629.5,-6"/>
<text text-anchor="middle" x="665" y="-13" font-family="Helvetica,sans-Serif" font-size="10.00">Eigen/Dense</text>
</a>
</g>
</g>
<!-- Node14&#45;&gt;Node15 -->
<g id="edge16" class="edge">
<title>Node14&#45;&gt;Node15</title>
<path fill="none" stroke="midnightblue" d="M716.91,-72.73C707.46,-62.5 691.64,-45.36 679.95,-32.69"/>
<polygon fill="midnightblue" stroke="midnightblue" points="682.32,-30.1 672.96,-25.13 677.17,-34.85 682.32,-30.1"/>
</g>
<!-- Node16 -->
<g id="node16" class="node">
<title>Node16</title>
<g id="a_node16"><a xlink:title=" ">
<polygon fill="white" stroke="#bfbfbf" points="718.5,-0.5 718.5,-30.5 849.5,-30.5 849.5,-0.5 718.5,-0.5"/>
<text text-anchor="start" x="726.5" y="-18.5" font-family="Helvetica,sans-Serif" font-size="10.00">unsupported/Eigen/CXX11</text>
<text text-anchor="middle" x="784" y="-7.5" font-family="Helvetica,sans-Serif" font-size="10.00">/Tensor</text>
</a>
</g>
</g>
<!-- Node14&#45;&gt;Node16 -->
<g id="edge17" class="edge">
<title>Node14&#45;&gt;Node16</title>
<path fill="none" stroke="midnightblue" d="M732.96,-72.73C740.93,-63.95 753.52,-50.08 764.2,-38.31"/>
<polygon fill="midnightblue" stroke="midnightblue" points="767.08,-40.35 771.21,-30.59 761.9,-35.64 767.08,-40.35"/>
</g>
<!-- Node17&#45;&gt;Node10 -->
<g id="edge19" class="edge">
<title>Node17&#45;&gt;Node10</title>
<path fill="none" stroke="midnightblue" d="M710.75,-190.44C681.56,-181.28 635.08,-166.69 602.69,-156.52"/>
<polygon fill="midnightblue" stroke="midnightblue" points="603.72,-153.17 593.13,-153.52 601.62,-159.85 603.72,-153.17"/>
</g>
<!-- Node17&#45;&gt;Node14 -->
<g id="edge29" class="edge">
<title>Node17&#45;&gt;Node14</title>
<path fill="none" stroke="midnightblue" d="M737.02,-190.32C734.93,-171.76 729.99,-127.84 727.14,-102.47"/>
<polygon fill="midnightblue" stroke="midnightblue" points="730.59,-101.83 725.99,-92.28 723.63,-102.61 730.59,-101.83"/>
</g>
<!-- Node18 -->
<g id="node18" class="node">
<title>Node18</title>
<g id="a_node18"><a xlink:href="MarmotMath_8h.html" target="_top" xlink:title=" ">
<polygon fill="white" stroke="black" points="865.5,-134.5 865.5,-153.5 980.5,-153.5 980.5,-134.5 865.5,-134.5"/>
<text text-anchor="middle" x="923" y="-141.5" font-family="Helvetica,sans-Serif" font-size="10.00">Marmot/MarmotMath.h</text>
</a>
</g>
</g>
<!-- Node17&#45;&gt;Node18 -->
<g id="edge20" class="edge">
<title>Node17&#45;&gt;Node18</title>
<path fill="none" stroke="midnightblue" d="M767.31,-190.44C798.84,-181.24 849.13,-166.56 883.99,-156.39"/>
<polygon fill="midnightblue" stroke="midnightblue" points="885.2,-159.68 893.82,-153.52 883.24,-152.96 885.2,-159.68"/>
</g>
<!-- Node18&#45;&gt;Node5 -->
<g id="edge27" class="edge">
<title>Node18&#45;&gt;Node5</title>
<path fill="none" stroke="midnightblue" d="M865.35,-137.85C740.9,-126.73 447.96,-100.56 319.37,-89.07"/>
<polygon fill="midnightblue" stroke="midnightblue" points="319.56,-85.58 309.29,-88.17 318.94,-92.55 319.56,-85.58"/>
</g>
<!-- Node18&#45;&gt;Node14 -->
<g id="edge23" class="edge">
<title>Node18&#45;&gt;Node14</title>
<path fill="none" stroke="midnightblue" d="M894.63,-134.48C860.08,-124.09 801.58,-106.51 763.12,-94.95"/>
<polygon fill="midnightblue" stroke="midnightblue" points="763.9,-91.54 753.32,-92.01 761.89,-98.24 763.9,-91.54"/>
</g>
<!-- Node19 -->
<g id="node19" class="node">
<title>Node19</title>
<g id="a_node19"><a xlink:href="MarmotConstants_8h.html" target="_top" xlink:title=" ">
<polygon fill="white" stroke="black" points="1093.5,-73 1093.5,-92 1230.5,-92 1230.5,-73 1093.5,-73"/>
<text text-anchor="middle" x="1162" y="-80" font-family="Helvetica,sans-Serif" font-size="10.00">Marmot/MarmotConstants.h</text>
</a>
</g>
</g>
<!-- Node18&#45;&gt;Node19 -->
<g id="edge21" class="edge">
<title>Node18&#45;&gt;Node19</title>
<path fill="none" stroke="midnightblue" d="M957.24,-134.48C999.57,-123.94 1071.68,-105.99 1118.05,-94.44"/>
<polygon fill="midnightblue" stroke="midnightblue" points="1118.96,-97.82 1127.82,-92.01 1117.27,-91.03 1118.96,-97.82"/>
</g>
<!-- Node18&#45;&gt;Node21 -->
<g id="edge24" class="edge">
<title>Node18&#45;&gt;Node21</title>
<path fill="none" stroke="midnightblue" d="M980.73,-135.92C1044.4,-127.85 1149.78,-113.73 1240,-98 1246.74,-96.83 1253.81,-95.48 1260.78,-94.1"/>
<polygon fill="midnightblue" stroke="midnightblue" points="1261.73,-97.48 1270.84,-92.07 1260.34,-90.62 1261.73,-97.48"/>
</g>
<!-- Node22 -->
<g id="node22" class="node">
<title>Node22</title>
<g id="a_node22"><a xlink:title=" ">
<polygon fill="white" stroke="#bfbfbf" points="810,-73 810,-92 930,-92 930,-73 810,-73"/>
<text text-anchor="middle" x="870" y="-80" font-family="Helvetica,sans-Serif" font-size="10.00">autodiff/forward/real.hpp</text>
</a>
</g>
</g>
<!-- Node18&#45;&gt;Node22 -->
<g id="edge25" class="edge">
<title>Node18&#45;&gt;Node22</title>
<path fill="none" stroke="midnightblue" d="M915.41,-134.48C907.3,-125.37 894.27,-110.74 884.24,-99.48"/>
<polygon fill="midnightblue" stroke="midnightblue" points="886.84,-97.15 877.58,-92.01 881.62,-101.8 886.84,-97.15"/>
</g>
<!-- Node23 -->
<g id="node23" class="node">
<title>Node23</title>
<g id="a_node23"><a xlink:title=" ">
<polygon fill="white" stroke="#bfbfbf" points="948,-73 948,-92 1004,-92 1004,-73 948,-73"/>
<text text-anchor="middle" x="976" y="-80" font-family="Helvetica,sans-Serif" font-size="10.00">algorithm</text>
</a>
</g>
</g>
<!-- Node18&#45;&gt;Node23 -->
<g id="edge26" class="edge">
<title>Node18&#45;&gt;Node23</title>
<path fill="none" stroke="midnightblue" d="M930.59,-134.48C938.7,-125.37 951.73,-110.74 961.76,-99.48"/>
<polygon fill="midnightblue" stroke="midnightblue" points="964.38,-101.8 968.42,-92.01 959.16,-97.15 964.38,-101.8"/>
</g>
<!-- Node24 -->
<g id="node24" class="node">
<title>Node24</title>
<g id="a_node24"><a xlink:title=" ">
<polygon fill="white" stroke="#bfbfbf" points="1022.5,-73 1022.5,-92 1075.5,-92 1075.5,-73 1022.5,-73"/>
<text text-anchor="middle" x="1049" y="-80" font-family="Helvetica,sans-Serif" font-size="10.00">complex</text>
</a>
</g>
</g>
<!-- Node18&#45;&gt;Node24 -->
<g id="edge28" class="edge">
<title>Node18&#45;&gt;Node24</title>
<path fill="none" stroke="midnightblue" d="M941.05,-134.48C962.2,-124.49 997.44,-107.85 1021.88,-96.31"/>
<polygon fill="midnightblue" stroke="midnightblue" points="1023.43,-99.44 1030.98,-92.01 1020.44,-93.11 1023.43,-99.44"/>
</g>
<!-- Node20 -->
<g id="node20" class="node">
<title>Node20</title>
<g id="a_node20"><a xlink:title=" ">
<polygon fill="white" stroke="#bfbfbf" points="1140,-6 1140,-25 1184,-25 1184,-6 1140,-6"/>
<text text-anchor="middle" x="1162" y="-13" font-family="Helvetica,sans-Serif" font-size="10.00">cmath</text>
</a>
</g>
</g>
<!-- Node19&#45;&gt;Node20 -->
<g id="edge22" class="edge">
<title>Node19&#45;&gt;Node20</title>
<path fill="none" stroke="midnightblue" d="M1162,-72.73C1162,-63.18 1162,-47.62 1162,-35.28"/>
<polygon fill="midnightblue" stroke="midnightblue" points="1165.5,-35.13 1162,-25.13 1158.5,-35.13 1165.5,-35.13"/>
</g>
</g>
</svg>
        <g id="navigator" transform="translate(0 0)" fill="#404254">
                <rect fill="#f2f5e9" fill-opacity="0.5" stroke="#606060" stroke-width=".5" x="0" y="0" width="60" height="60"/>
                <use id="zoomplus" xlink:href="#zoomPlus" x="17" y="9" onmousedown="handleZoom(evt,'in')"/>
                <use id="zoomminus" xlink:href="#zoomMin" x="42" y="9" onmousedown="handleZoom(evt,'out')"/>
                <use id="reset" xlink:href="#resetDef" x="30" y="36" onmousedown="handleReset()"/>
                <g id="arrowUp" xlink:href="#dirArrow" transform="translate(30 24)" onmousedown="handlePan(0,-1)">
                  <use xlink:href="#rim" fill="#404040">
                        <set attributeName="fill" to="#808080" begin="arrowUp.mouseover" end="arrowUp.mouseout"/>
                  </use>
                  <path fill="none" stroke="white" stroke-width="1.5" d="M0,-3.0v7 M-2.5,-0.5L0,-3.0L2.5,-0.5"/>
                </g>
                <g id="arrowRight" xlink:href="#dirArrow" transform="rotate(90) translate(36 -43)" onmousedown="handlePan(1,0)">
                  <use xlink:href="#rim" fill="#404040">
                        <set attributeName="fill" to="#808080" begin="arrowRight.mouseover" end="arrowRight.mouseout"/>
                  </use>
                  <path fill="none" stroke="white" stroke-width="1.5" d="M0,-3.0v7 M-2.5,-0.5L0,-3.0L2.5,-0.5"/>
                </g>
                <g id="arrowDown" xlink:href="#dirArrow" transform="rotate(180) translate(-30 -48)" onmousedown="handlePan(0,1)">
                  <use xlink:href="#rim" fill="#404040">
                        <set attributeName="fill" to="#808080" begin="arrowDown.mouseover" end="arrowDown.mouseout"/>
                  </use>
                  <path fill="none" stroke="white" stroke-width="1.5" d="M0,-3.0v7 M-2.5,-0.5L0,-3.0L2.5,-0.5"/>
                </g>
                <g id="arrowLeft" xlink:href="#dirArrow" transform="rotate(270) translate(-36 17)" onmousedown="handlePan(-1,0)">
                  <use xlink:href="#rim" fill="#404040">
                        <set attributeName="fill" to="#808080" begin="arrowLeft.mouseover" end="arrowLeft.mouseout"/>
                  </use>
                  <path fill="none" stroke="white" stroke-width="1.5" d="M0,-3.0v7 M-2.5,-0.5L0,-3.0L2.5,-0.5"/>
                </g>
        </g>
        <svg viewBox="0 0 15 15" width="100%" height="30px" preserveAspectRatio="xMaxYMin meet">
         <g id="arrow_out" transform="scale(0.3 0.3)">
          <a xlink:href="MarmotAutomaticDifferentiationForFastor_8h__incl_org.svg" target="_base">
           <rect id="button" ry="5" rx="5" y="6" x="6" height="38" width="38"
                fill="#f2f5e9" fill-opacity="0.5" stroke="#606060" stroke-width="1.0"/>
           <path id="arrow"
             d="M 11.500037,31.436501 C 11.940474,20.09759 22.043105,11.32322 32.158766,21.979434 L 37.068811,17.246167 C 37.068811,17.246167 37.088388,32 37.088388,32 L 22.160133,31.978069 C 22.160133,31.978069 26.997745,27.140456 26.997745,27.140456 C 18.528582,18.264221 13.291696,25.230495 11.500037,31.436501 z"
             style="fill:#404040;"/>
          </a>
         </g>
        </svg>
</svg>
