<?xml version="1.0" encoding="UTF-8" standalone="no"?>
<!DOCTYPE svg PUBLIC "-//W3C//DTD SVG 1.1//EN"
 "http://www.w3.org/Graphics/SVG/1.1/DTD/svg11.dtd">
<!-- Generated by graphviz version 2.44.0 ()
 -->
<!-- Title: modules/core/MarmotFiniteStrainMechanicsCore/src/MarmotMaterialFiniteStrain.cpp Pages: 1 -->
<svg width="872pt" height="240pt"
 viewBox="0.00 0.00 872.00 240.00" xmlns="http://www.w3.org/2000/svg" xmlns:xlink="http://www.w3.org/1999/xlink">
<g id="graph0" class="graph" transform="scale(1 1) rotate(0) translate(4 236)">
<title>modules/core/MarmotFiniteStrainMechanicsCore/src/MarmotMaterialFiniteStrain.cpp</title>
<polygon fill="white" stroke="transparent" points="-4,4 -4,-236 868,-236 868,4 -4,4"/>
<!-- Node1 -->
<g id="node1" class="node">
<title>Node1</title>
<g id="a_node1"><a xlink:title=" ">
<polygon fill="#bfbfbf" stroke="black" points="369,-190.5 369,-231.5 524,-231.5 524,-190.5 369,-190.5"/>
<text text-anchor="start" x="377" y="-219.5" font-family="Helvetica,sans-Serif" font-size="10.00">modules/core/MarmotFinite</text>
<text text-anchor="start" x="377" y="-208.5" font-family="Helvetica,sans-Serif" font-size="10.00">StrainMechanicsCore/src</text>
<text text-anchor="middle" x="446.5" y="-197.5" font-family="Helvetica,sans-Serif" font-size="10.00">/MarmotMaterialFiniteStrain.cpp</text>
</a>
</g>
</g>
<!-- Node2 -->
<g id="node2" class="node">
<title>Node2</title>
<g id="a_node2"><a xlink:href="MarmotMaterialFiniteStrain_8h.html" target="_top" xlink:title=" ">
<polygon fill="white" stroke="black" points="157.5,-123.5 157.5,-153.5 301.5,-153.5 301.5,-123.5 157.5,-123.5"/>
<text text-anchor="start" x="165.5" y="-141.5" font-family="Helvetica,sans-Serif" font-size="10.00">Marmot/MarmotMaterialFinite</text>
<text text-anchor="middle" x="229.5" y="-130.5" font-family="Helvetica,sans-Serif" font-size="10.00">Strain.h</text>
</a>
</g>
</g>
<!-- Node1&#45;&gt;Node2 -->
<g id="edge1" class="edge">
<title>Node1&#45;&gt;Node2</title>
<path fill="none" stroke="midnightblue" d="M386.34,-190.46C353.86,-179.9 314.11,-166.99 282.76,-156.8"/>
<polygon fill="midnightblue" stroke="midnightblue" points="283.48,-153.36 272.89,-153.6 281.32,-160.02 283.48,-153.36"/>
</g>
<!-- Node8 -->
<g id="node8" class="node">
<title>Node8</title>
<g id="a_node8"><a xlink:href="MarmotJournal_8h.html" target="_top" xlink:title=" ">
<polygon fill="white" stroke="black" points="384,-129 384,-148 509,-148 509,-129 384,-129"/>
<text text-anchor="middle" x="446.5" y="-136" font-family="Helvetica,sans-Serif" font-size="10.00">Marmot/MarmotJournal.h</text>
</a>
</g>
</g>
<!-- Node1&#45;&gt;Node8 -->
<g id="edge7" class="edge">
<title>Node1&#45;&gt;Node8</title>
<path fill="none" stroke="midnightblue" d="M446.5,-190.36C446.5,-180.3 446.5,-168.1 446.5,-158.18"/>
<polygon fill="midnightblue" stroke="midnightblue" points="450,-158.17 446.5,-148.17 443,-158.17 450,-158.17"/>
</g>
<!-- Node11 -->
<g id="node11" class="node">
<title>Node11</title>
<g id="a_node11"><a xlink:href="MarmotTypedefs_8h.html" target="_top" xlink:title=" ">
<polygon fill="white" stroke="black" points="570,-129 570,-148 703,-148 703,-129 570,-129"/>
<text text-anchor="middle" x="636.5" y="-136" font-family="Helvetica,sans-Serif" font-size="10.00">Marmot/MarmotTypedefs.h</text>
</a>
</g>
</g>
<!-- Node1&#45;&gt;Node11 -->
<g id="edge11" class="edge">
<title>Node1&#45;&gt;Node11</title>
<path fill="none" stroke="midnightblue" d="M499.17,-190.46C532.77,-177.99 575.25,-162.23 604,-151.56"/>
<polygon fill="midnightblue" stroke="midnightblue" points="605.4,-154.77 613.56,-148.01 602.96,-148.21 605.4,-154.77"/>
</g>
<!-- Node3 -->
<g id="node3" class="node">
<title>Node3</title>
<g id="a_node3"><a xlink:title=" ">
<polygon fill="white" stroke="#bfbfbf" points="0,-62 0,-81 83,-81 83,-62 0,-62"/>
<text text-anchor="middle" x="41.5" y="-69" font-family="Helvetica,sans-Serif" font-size="10.00">Fastor/Fastor.h</text>
</a>
</g>
</g>
<!-- Node2&#45;&gt;Node3 -->
<g id="edge2" class="edge">
<title>Node2&#45;&gt;Node3</title>
<path fill="none" stroke="midnightblue" d="M188.71,-123.4C154.99,-111.74 107.66,-95.37 75.85,-84.38"/>
<polygon fill="midnightblue" stroke="midnightblue" points="76.7,-80.97 66.1,-81.01 74.41,-87.58 76.7,-80.97"/>
</g>
<!-- Node4 -->
<g id="node4" class="node">
<title>Node4</title>
<g id="a_node4"><a xlink:href="MarmotMaterial_8h.html" target="_top" xlink:title=" ">
<polygon fill="white" stroke="black" points="101.5,-62 101.5,-81 229.5,-81 229.5,-62 101.5,-62"/>
<text text-anchor="middle" x="165.5" y="-69" font-family="Helvetica,sans-Serif" font-size="10.00">Marmot/MarmotMaterial.h</text>
</a>
</g>
</g>
<!-- Node2&#45;&gt;Node4 -->
<g id="edge3" class="edge">
<title>Node2&#45;&gt;Node4</title>
<path fill="none" stroke="midnightblue" d="M215.61,-123.4C205.54,-113.16 191.88,-99.3 181.37,-88.62"/>
<polygon fill="midnightblue" stroke="midnightblue" points="183.57,-85.86 174.06,-81.19 178.58,-90.78 183.57,-85.86"/>
</g>
<!-- Node7 -->
<g id="node7" class="node">
<title>Node7</title>
<g id="a_node7"><a xlink:title=" ">
<polygon fill="white" stroke="#bfbfbf" points="248,-62 248,-81 363,-81 363,-62 248,-62"/>
<text text-anchor="middle" x="305.5" y="-69" font-family="Helvetica,sans-Serif" font-size="10.00">Fastor/tensor/Tensor.h</text>
</a>
</g>
</g>
<!-- Node2&#45;&gt;Node7 -->
<g id="edge6" class="edge">
<title>Node2&#45;&gt;Node7</title>
<path fill="none" stroke="midnightblue" d="M245.99,-123.4C258.19,-112.96 274.81,-98.75 287.38,-88"/>
<polygon fill="midnightblue" stroke="midnightblue" points="290.01,-90.35 295.33,-81.19 285.46,-85.03 290.01,-90.35"/>
</g>
<!-- Node5 -->
<g id="node5" class="node">
<title>Node5</title>
<g id="a_node5"><a xlink:href="MarmotUtils_8h.html" target="_top" xlink:title=" ">
<polygon fill="white" stroke="black" points="109,-0.5 109,-19.5 222,-19.5 222,-0.5 109,-0.5"/>
<text text-anchor="middle" x="165.5" y="-7.5" font-family="Helvetica,sans-Serif" font-size="10.00">Marmot/MarmotUtils.h</text>
</a>
</g>
</g>
<!-- Node4&#45;&gt;Node5 -->
<g id="edge4" class="edge">
<title>Node4&#45;&gt;Node5</title>
<path fill="none" stroke="midnightblue" d="M165.5,-61.98C165.5,-53.58 165.5,-40.48 165.5,-29.66"/>
<polygon fill="midnightblue" stroke="midnightblue" points="169,-29.51 165.5,-19.51 162,-29.51 169,-29.51"/>
</g>
<!-- Node6 -->
<g id="node6" class="node">
<title>Node6</title>
<g id="a_node6"><a xlink:title=" ">
<polygon fill="white" stroke="#bfbfbf" points="305,-0.5 305,-19.5 346,-19.5 346,-0.5 305,-0.5"/>
<text text-anchor="middle" x="325.5" y="-7.5" font-family="Helvetica,sans-Serif" font-size="10.00">string</text>
</a>
</g>
</g>
<!-- Node4&#45;&gt;Node6 -->
<g id="edge5" class="edge">
<title>Node4&#45;&gt;Node6</title>
<path fill="none" stroke="midnightblue" d="M188.42,-61.98C216.49,-51.54 264.12,-33.82 295.19,-22.27"/>
<polygon fill="midnightblue" stroke="midnightblue" points="296.5,-25.52 304.65,-18.75 294.06,-18.96 296.5,-25.52"/>
</g>
<!-- Node8&#45;&gt;Node6 -->
<g id="edge10" class="edge">
<title>Node8&#45;&gt;Node6</title>
<path fill="none" stroke="midnightblue" d="M438.76,-128.8C425.32,-113.74 396.67,-81.95 371.5,-56 361.97,-46.18 351.03,-35.45 342.21,-26.93"/>
<polygon fill="midnightblue" stroke="midnightblue" points="344.44,-24.23 334.8,-19.83 339.59,-29.28 344.44,-24.23"/>
</g>
<!-- Node9 -->
<g id="node9" class="node">
<title>Node9</title>
<g id="a_node9"><a xlink:title=" ">
<polygon fill="white" stroke="#bfbfbf" points="419.5,-62 419.5,-81 473.5,-81 473.5,-62 419.5,-62"/>
<text text-anchor="middle" x="446.5" y="-69" font-family="Helvetica,sans-Serif" font-size="10.00">iostream</text>
</a>
</g>
</g>
<!-- Node8&#45;&gt;Node9 -->
<g id="edge8" class="edge">
<title>Node8&#45;&gt;Node9</title>
<path fill="none" stroke="midnightblue" d="M446.5,-128.73C446.5,-119.18 446.5,-103.62 446.5,-91.28"/>
<polygon fill="midnightblue" stroke="midnightblue" points="450,-91.13 446.5,-81.13 443,-91.13 450,-91.13"/>
</g>
<!-- Node10 -->
<g id="node10" class="node">
<title>Node10</title>
<g id="a_node10"><a xlink:title=" ">
<polygon fill="white" stroke="#bfbfbf" points="491.5,-62 491.5,-81 543.5,-81 543.5,-62 491.5,-62"/>
<text text-anchor="middle" x="517.5" y="-69" font-family="Helvetica,sans-Serif" font-size="10.00">sstream</text>
</a>
</g>
</g>
<!-- Node8&#45;&gt;Node10 -->
<g id="edge9" class="edge">
<title>Node8&#45;&gt;Node10</title>
<path fill="none" stroke="midnightblue" d="M456.08,-128.73C467.47,-118.31 486.69,-100.71 500.6,-87.97"/>
<polygon fill="midnightblue" stroke="midnightblue" points="503.06,-90.46 508.08,-81.13 498.34,-85.3 503.06,-90.46"/>
</g>
<!-- Node12 -->
<g id="node12" class="node">
<title>Node12</title>
<g id="a_node12"><a xlink:title=" ">
<polygon fill="white" stroke="#bfbfbf" points="561.5,-62 561.5,-81 625.5,-81 625.5,-62 561.5,-62"/>
<text text-anchor="middle" x="593.5" y="-69" font-family="Helvetica,sans-Serif" font-size="10.00">Eigen/Core</text>
</a>
</g>
</g>
<!-- Node11&#45;&gt;Node12 -->
<g id="edge12" class="edge">
<title>Node11&#45;&gt;Node12</title>
<path fill="none" stroke="midnightblue" d="M630.7,-128.73C624.12,-118.79 613.24,-102.34 604.94,-89.79"/>
<polygon fill="midnightblue" stroke="midnightblue" points="607.64,-87.54 599.21,-81.13 601.81,-91.4 607.64,-87.54"/>
</g>
<!-- Node13 -->
<g id="node13" class="node">
<title>Node13</title>
<g id="a_node13"><a xlink:title=" ">
<polygon fill="white" stroke="#bfbfbf" points="644,-62 644,-81 715,-81 715,-62 644,-62"/>
<text text-anchor="middle" x="679.5" y="-69" font-family="Helvetica,sans-Serif" font-size="10.00">Eigen/Dense</text>
</a>
</g>
</g>
<!-- Node11&#45;&gt;Node13 -->
<g id="edge13" class="edge">
<title>Node11&#45;&gt;Node13</title>
<path fill="none" stroke="midnightblue" d="M642.3,-128.73C648.88,-118.79 659.76,-102.34 668.06,-89.79"/>
<polygon fill="midnightblue" stroke="midnightblue" points="671.19,-91.4 673.79,-81.13 665.36,-87.54 671.19,-91.4"/>
</g>
<!-- Node14 -->
<g id="node14" class="node">
<title>Node14</title>
<g id="a_node14"><a xlink:title=" ">
<polygon fill="white" stroke="#bfbfbf" points="733,-56.5 733,-86.5 864,-86.5 864,-56.5 733,-56.5"/>
<text text-anchor="start" x="741" y="-74.5" font-family="Helvetica,sans-Serif" font-size="10.00">unsupported/Eigen/CXX11</text>
<text text-anchor="middle" x="798.5" y="-63.5" font-family="Helvetica,sans-Serif" font-size="10.00">/Tensor</text>
</a>
</g>
</g>
<!-- Node11&#45;&gt;Node14 -->
<g id="edge14" class="edge">
<title>Node11&#45;&gt;Node14</title>
<path fill="none" stroke="midnightblue" d="M658.01,-128.87C682.43,-119.07 722.91,-102.83 754.16,-90.29"/>
<polygon fill="midnightblue" stroke="midnightblue" points="755.56,-93.5 763.54,-86.53 752.95,-87 755.56,-93.5"/>
</g>
</g>
</svg>
