<?xml version="1.0" encoding="UTF-8" standalone="no"?>
<!DOCTYPE svg PUBLIC "-//W3C//DTD SVG 1.1//EN"
 "http://www.w3.org/Graphics/SVG/1.1/DTD/svg11.dtd">
<!-- Generated by graphviz version 2.44.0 ()
 -->
<!-- Title: include/Marmot/MarmotMaterialRegistrationHelper.h Pages: 1 -->
<!--zoomable 263 -->
<svg id="main" version="1.1" xmlns="http://www.w3.org/2000/svg" xmlns:xlink="http://www.w3.org/1999/xlink" xml:space="preserve" onload="init(evt)">
<style type="text/css"><![CDATA[
.edge:hover path { stroke: red; }
.edge:hover polygon { stroke: red; fill: red; }
]]></style>
<script type="text/javascript"><![CDATA[
var edges = document.getElementsByTagName('g');
if (edges && edges.length) {
  for (var i=0;i<edges.length;i++) {
    if (edges[i].id.substr(0,4)=='edge') {
      edges[i].setAttribute('class','edge');
    }
  }
}
]]></script>
        <defs>
                <circle id="rim" cx="0" cy="0" r="7"/>
                <circle id="rim2" cx="0" cy="0" r="3.5"/>
                <g id="zoomPlus">
                        <use xlink:href="#rim" fill="#404040">
                                <set attributeName="fill" to="#808080" begin="zoomplus.mouseover" end="zoomplus.mouseout"/>
                        </use>
                        <path d="M-4,0h8M0,-4v8" fill="none" stroke="white" stroke-width="1.5" pointer-events="none"/>
                </g>
                <g id="zoomMin">
                        <use xlink:href="#rim" fill="#404040">
                                <set attributeName="fill" to="#808080" begin="zoomminus.mouseover" end="zoomminus.mouseout"/>
                        </use>
                        <path d="M-4,0h8" fill="none" stroke="white" stroke-width="1.5" pointer-events="none"/>
                </g>
                <g id="dirArrow">
                        <path fill="none" stroke="white" stroke-width="1.5" d="M0,-3.0v7 M-2.5,-0.5L0,-3.0L2.5,-0.5"/>
                </g>
               <g id="resetDef">
                       <use xlink:href="#rim2" fill="#404040">
                               <set attributeName="fill" to="#808080" begin="reset.mouseover" end="reset.mouseout"/>
                       </use>
               </g>
        </defs>

<script type="text/javascript">
var viewWidth = 926;
var viewHeight = 263;
var sectionId = 'dynsection-0';
</script>
<script xlink:href="svgpan.js"/>
<svg id="graph" class="graph">
<g id="viewport">
<title>include/Marmot/MarmotMaterialRegistrationHelper.h</title>
<polygon fill="white" stroke="transparent" points="-4,4 -4,-259 921.5,-259 921.5,4 -4,4"/>
<!-- Node1 -->
<g id="node1" class="node">
<title>Node1</title>
<g id="a_node1"><a xlink:title=" ">
<polygon fill="#bfbfbf" stroke="black" points="606,-224.5 606,-254.5 760,-254.5 760,-224.5 606,-224.5"/>
<text text-anchor="start" x="614" y="-242.5" font-family="Helvetica,sans-Serif" font-size="10.00">include/Marmot/MarmotMaterial</text>
<text text-anchor="middle" x="683" y="-231.5" font-family="Helvetica,sans-Serif" font-size="10.00">RegistrationHelper.h</text>
</a>
</g>
</g>
<!-- Node2 -->
<g id="node2" class="node">
<title>Node2</title>
<g id="a_node2"><a xlink:href="Marmot_8h.html" target="_top" xlink:title=" ">
<polygon fill="white" stroke="black" points="636.5,-168.5 636.5,-187.5 729.5,-187.5 729.5,-168.5 636.5,-168.5"/>
<text text-anchor="middle" x="683" y="-175.5" font-family="Helvetica,sans-Serif" font-size="10.00">Marmot/Marmot.h</text>
</a>
</g>
</g>
<!-- Node1&#45;&gt;Node2 -->
<g id="edge1" class="edge">
<title>Node1&#45;&gt;Node2</title>
<path fill="none" stroke="midnightblue" d="M683,-224.4C683,-216.47 683,-206.46 683,-197.86"/>
<polygon fill="midnightblue" stroke="midnightblue" points="686.5,-197.66 683,-187.66 679.5,-197.66 686.5,-197.66"/>
</g>
<!-- Node3 -->
<g id="node3" class="node">
<title>Node3</title>
<g id="a_node3"><a xlink:href="MarmotElement_8h.html" target="_top" xlink:title=" ">
<polygon fill="white" stroke="black" points="263,-112.5 263,-131.5 391,-131.5 391,-112.5 263,-112.5"/>
<text text-anchor="middle" x="327" y="-119.5" font-family="Helvetica,sans-Serif" font-size="10.00">Marmot/MarmotElement.h</text>
</a>
</g>
</g>
<!-- Node2&#45;&gt;Node3 -->
<g id="edge2" class="edge">
<title>Node2&#45;&gt;Node3</title>
<path fill="none" stroke="midnightblue" d="M636.46,-169.94C574.39,-160.53 464.15,-143.8 393.38,-133.07"/>
<polygon fill="midnightblue" stroke="midnightblue" points="393.65,-129.57 383.23,-131.53 392.6,-136.49 393.65,-129.57"/>
</g>
<!-- Node6 -->
<g id="node6" class="node">
<title>Node6</title>
<g id="a_node6"><a xlink:title=" ">
<polygon fill="white" stroke="#bfbfbf" points="0,-0.5 0,-19.5 54,-19.5 54,-0.5 0,-0.5"/>
<text text-anchor="middle" x="27" y="-7.5" font-family="Helvetica,sans-Serif" font-size="10.00">iostream</text>
</a>
</g>
</g>
<!-- Node2&#45;&gt;Node6 -->
<g id="edge16" class="edge">
<title>Node2&#45;&gt;Node6</title>
<path fill="none" stroke="midnightblue" d="M636.34,-174.36C557.21,-169.38 391.83,-156.79 254,-132 155.55,-114.29 102.6,-150.65 36,-76 24.99,-63.66 23.57,-44.41 24.41,-30.06"/>
<polygon fill="midnightblue" stroke="midnightblue" points="27.92,-30.12 25.42,-19.82 20.95,-29.43 27.92,-30.12"/>
</g>
<!-- Node8 -->
<g id="node8" class="node">
<title>Node8</title>
<g id="a_node8"><a xlink:title=" ">
<polygon fill="white" stroke="#bfbfbf" points="424.5,-0.5 424.5,-19.5 465.5,-19.5 465.5,-0.5 424.5,-0.5"/>
<text text-anchor="middle" x="445" y="-7.5" font-family="Helvetica,sans-Serif" font-size="10.00">string</text>
</a>
</g>
</g>
<!-- Node2&#45;&gt;Node8 -->
<g id="edge17" class="edge">
<title>Node2&#45;&gt;Node8</title>
<path fill="none" stroke="midnightblue" d="M690.15,-168.36C696.77,-159.76 706.16,-145.87 710,-132 719.39,-98.11 715.13,-78.38 688,-56 655.99,-29.59 533.59,-17.4 475.69,-13.02"/>
<polygon fill="midnightblue" stroke="midnightblue" points="475.9,-9.52 465.67,-12.29 475.39,-16.5 475.9,-9.52"/>
</g>
<!-- Node12 -->
<g id="node12" class="node">
<title>Node12</title>
<g id="a_node12"><a xlink:href="MarmotMaterial_8h.html" target="_top" xlink:title=" ">
<polygon fill="white" stroke="black" points="573,-112.5 573,-131.5 701,-131.5 701,-112.5 573,-112.5"/>
<text text-anchor="middle" x="637" y="-119.5" font-family="Helvetica,sans-Serif" font-size="10.00">Marmot/MarmotMaterial.h</text>
</a>
</g>
</g>
<!-- Node2&#45;&gt;Node12 -->
<g id="edge12" class="edge">
<title>Node2&#45;&gt;Node12</title>
<path fill="none" stroke="midnightblue" d="M675.4,-168.08C668.77,-160.3 658.98,-148.8 650.94,-139.37"/>
<polygon fill="midnightblue" stroke="midnightblue" points="653.6,-137.09 644.45,-131.75 648.27,-141.63 653.6,-137.09"/>
</g>
<!-- Node13 -->
<g id="node13" class="node">
<title>Node13</title>
<g id="a_node13"><a xlink:title=" ">
<polygon fill="white" stroke="#bfbfbf" points="757.5,-112.5 757.5,-131.5 816.5,-131.5 816.5,-112.5 757.5,-112.5"/>
<text text-anchor="middle" x="787" y="-119.5" font-family="Helvetica,sans-Serif" font-size="10.00">functional</text>
</a>
</g>
</g>
<!-- Node2&#45;&gt;Node13 -->
<g id="edge15" class="edge">
<title>Node2&#45;&gt;Node13</title>
<path fill="none" stroke="midnightblue" d="M699.71,-168.32C716.31,-159.7 742,-146.36 761.22,-136.39"/>
<polygon fill="midnightblue" stroke="midnightblue" points="763.07,-139.37 770.33,-131.65 759.84,-133.16 763.07,-139.37"/>
</g>
<!-- Node14 -->
<g id="node14" class="node">
<title>Node14</title>
<g id="a_node14"><a xlink:title=" ">
<polygon fill="white" stroke="#bfbfbf" points="834.5,-112.5 834.5,-131.5 917.5,-131.5 917.5,-112.5 834.5,-112.5"/>
<text text-anchor="middle" x="876" y="-119.5" font-family="Helvetica,sans-Serif" font-size="10.00">unordered_map</text>
</a>
</g>
</g>
<!-- Node2&#45;&gt;Node14 -->
<g id="edge18" class="edge">
<title>Node2&#45;&gt;Node14</title>
<path fill="none" stroke="midnightblue" d="M713.58,-168.44C746.61,-159.2 799.39,-144.44 835.77,-134.26"/>
<polygon fill="midnightblue" stroke="midnightblue" points="836.87,-137.58 845.56,-131.52 834.99,-130.84 836.87,-137.58"/>
</g>
<!-- Node4 -->
<g id="node4" class="node">
<title>Node4</title>
<g id="a_node4"><a xlink:href="MarmotElementProperty_8h.html" target="_top" xlink:title=" ">
<polygon fill="white" stroke="black" points="367,-56.5 367,-75.5 531,-75.5 531,-56.5 367,-56.5"/>
<text text-anchor="middle" x="449" y="-63.5" font-family="Helvetica,sans-Serif" font-size="10.00">Marmot/MarmotElementProperty.h</text>
</a>
</g>
</g>
<!-- Node3&#45;&gt;Node4 -->
<g id="edge3" class="edge">
<title>Node3&#45;&gt;Node4</title>
<path fill="none" stroke="midnightblue" d="M346.33,-112.44C366.32,-103.6 397.74,-89.69 420.56,-79.59"/>
<polygon fill="midnightblue" stroke="midnightblue" points="422.03,-82.76 429.76,-75.52 419.2,-76.36 422.03,-82.76"/>
</g>
<!-- Node5 -->
<g id="node5" class="node">
<title>Node5</title>
<g id="a_node5"><a xlink:href="MarmotJournal_8h.html" target="_top" xlink:title=" ">
<polygon fill="white" stroke="black" points="45.5,-56.5 45.5,-75.5 170.5,-75.5 170.5,-56.5 45.5,-56.5"/>
<text text-anchor="middle" x="108" y="-63.5" font-family="Helvetica,sans-Serif" font-size="10.00">Marmot/MarmotJournal.h</text>
</a>
</g>
</g>
<!-- Node3&#45;&gt;Node5 -->
<g id="edge4" class="edge">
<title>Node3&#45;&gt;Node5</title>
<path fill="none" stroke="midnightblue" d="M292.3,-112.44C254.42,-103.1 193.65,-88.12 152.34,-77.93"/>
<polygon fill="midnightblue" stroke="midnightblue" points="153.09,-74.51 142.54,-75.52 151.41,-81.31 153.09,-74.51"/>
</g>
<!-- Node3&#45;&gt;Node8 -->
<g id="edge10" class="edge">
<title>Node3&#45;&gt;Node8</title>
<path fill="none" stroke="midnightblue" d="M285.27,-112.49C245.63,-102.52 195.21,-83.75 218,-56 242.49,-26.17 358.07,-15.77 414.22,-12.44"/>
<polygon fill="midnightblue" stroke="midnightblue" points="414.51,-15.93 424.3,-11.88 414.12,-8.94 414.51,-15.93"/>
</g>
<!-- Node9 -->
<g id="node9" class="node">
<title>Node9</title>
<g id="a_node9"><a xlink:href="MarmotUtils_8h.html" target="_top" xlink:title=" ">
<polygon fill="white" stroke="black" points="549.5,-56.5 549.5,-75.5 662.5,-75.5 662.5,-56.5 549.5,-56.5"/>
<text text-anchor="middle" x="606" y="-63.5" font-family="Helvetica,sans-Serif" font-size="10.00">Marmot/MarmotUtils.h</text>
</a>
</g>
</g>
<!-- Node3&#45;&gt;Node9 -->
<g id="edge8" class="edge">
<title>Node3&#45;&gt;Node9</title>
<path fill="none" stroke="midnightblue" d="M371.21,-112.44C420.29,-102.94 499.51,-87.61 552.16,-77.42"/>
<polygon fill="midnightblue" stroke="midnightblue" points="552.85,-80.85 562,-75.52 551.52,-73.98 552.85,-80.85"/>
</g>
<!-- Node10 -->
<g id="node10" class="node">
<title>Node10</title>
<g id="a_node10"><a xlink:title=" ">
<polygon fill="white" stroke="#bfbfbf" points="227.5,-56.5 227.5,-75.5 286.5,-75.5 286.5,-56.5 227.5,-56.5"/>
<text text-anchor="middle" x="257" y="-63.5" font-family="Helvetica,sans-Serif" font-size="10.00">stdexcept</text>
</a>
</g>
</g>
<!-- Node3&#45;&gt;Node10 -->
<g id="edge9" class="edge">
<title>Node3&#45;&gt;Node10</title>
<path fill="none" stroke="midnightblue" d="M315.75,-112.32C305.2,-104.18 289.2,-91.84 276.56,-82.09"/>
<polygon fill="midnightblue" stroke="midnightblue" points="278.51,-79.17 268.45,-75.83 274.23,-84.71 278.51,-79.17"/>
</g>
<!-- Node11 -->
<g id="node11" class="node">
<title>Node11</title>
<g id="a_node11"><a xlink:title=" ">
<polygon fill="white" stroke="#bfbfbf" points="305,-56.5 305,-75.5 349,-75.5 349,-56.5 305,-56.5"/>
<text text-anchor="middle" x="327" y="-63.5" font-family="Helvetica,sans-Serif" font-size="10.00">vector</text>
</a>
</g>
</g>
<!-- Node3&#45;&gt;Node11 -->
<g id="edge11" class="edge">
<title>Node3&#45;&gt;Node11</title>
<path fill="none" stroke="midnightblue" d="M327,-112.08C327,-105.01 327,-94.86 327,-85.99"/>
<polygon fill="midnightblue" stroke="midnightblue" points="330.5,-85.75 327,-75.75 323.5,-85.75 330.5,-85.75"/>
</g>
<!-- Node5&#45;&gt;Node6 -->
<g id="edge5" class="edge">
<title>Node5&#45;&gt;Node6</title>
<path fill="none" stroke="midnightblue" d="M94.99,-56.32C82.47,-47.98 63.32,-35.21 48.53,-25.35"/>
<polygon fill="midnightblue" stroke="midnightblue" points="50.24,-22.29 39.98,-19.65 46.36,-28.11 50.24,-22.29"/>
</g>
<!-- Node7 -->
<g id="node7" class="node">
<title>Node7</title>
<g id="a_node7"><a xlink:title=" ">
<polygon fill="white" stroke="#bfbfbf" points="82,-0.5 82,-19.5 134,-19.5 134,-0.5 82,-0.5"/>
<text text-anchor="middle" x="108" y="-7.5" font-family="Helvetica,sans-Serif" font-size="10.00">sstream</text>
</a>
</g>
</g>
<!-- Node5&#45;&gt;Node7 -->
<g id="edge6" class="edge">
<title>Node5&#45;&gt;Node7</title>
<path fill="none" stroke="midnightblue" d="M108,-56.08C108,-49.01 108,-38.86 108,-29.99"/>
<polygon fill="midnightblue" stroke="midnightblue" points="111.5,-29.75 108,-19.75 104.5,-29.75 111.5,-29.75"/>
</g>
<!-- Node5&#45;&gt;Node8 -->
<g id="edge7" class="edge">
<title>Node5&#45;&gt;Node8</title>
<path fill="none" stroke="midnightblue" d="M161.4,-56.44C232.86,-44.99 357.23,-25.06 414.51,-15.89"/>
<polygon fill="midnightblue" stroke="midnightblue" points="415.08,-19.34 424.4,-14.3 413.97,-12.43 415.08,-19.34"/>
</g>
<!-- Node12&#45;&gt;Node8 -->
<g id="edge14" class="edge">
<title>Node12&#45;&gt;Node8</title>
<path fill="none" stroke="midnightblue" d="M647.79,-112.37C662.87,-99.27 686.8,-74.03 672,-56 647.51,-26.17 531.93,-15.77 475.78,-12.44"/>
<polygon fill="midnightblue" stroke="midnightblue" points="475.88,-8.94 465.7,-11.88 475.49,-15.93 475.88,-8.94"/>
</g>
<!-- Node12&#45;&gt;Node9 -->
<g id="edge13" class="edge">
<title>Node12&#45;&gt;Node9</title>
<path fill="none" stroke="midnightblue" d="M631.88,-112.08C627.59,-104.61 621.34,-93.72 616.06,-84.52"/>
<polygon fill="midnightblue" stroke="midnightblue" points="619.04,-82.68 611.02,-75.75 612.97,-86.17 619.04,-82.68"/>
</g>
</g>
</svg>
        <g id="navigator" transform="translate(0 0)" fill="#404254">
                <rect fill="#f2f5e9" fill-opacity="0.5" stroke="#606060" stroke-width=".5" x="0" y="0" width="60" height="60"/>
                <use id="zoomplus" xlink:href="#zoomPlus" x="17" y="9" onmousedown="handleZoom(evt,'in')"/>
                <use id="zoomminus" xlink:href="#zoomMin" x="42" y="9" onmousedown="handleZoom(evt,'out')"/>
                <use id="reset" xlink:href="#resetDef" x="30" y="36" onmousedown="handleReset()"/>
                <g id="arrowUp" xlink:href="#dirArrow" transform="translate(30 24)" onmousedown="handlePan(0,-1)">
                  <use xlink:href="#rim" fill="#404040">
                        <set attributeName="fill" to="#808080" begin="arrowUp.mouseover" end="arrowUp.mouseout"/>
                  </use>
                  <path fill="none" stroke="white" stroke-width="1.5" d="M0,-3.0v7 M-2.5,-0.5L0,-3.0L2.5,-0.5"/>
                </g>
                <g id="arrowRight" xlink:href="#dirArrow" transform="rotate(90) translate(36 -43)" onmousedown="handlePan(1,0)">
                  <use xlink:href="#rim" fill="#404040">
                        <set attributeName="fill" to="#808080" begin="arrowRight.mouseover" end="arrowRight.mouseout"/>
                  </use>
                  <path fill="none" stroke="white" stroke-width="1.5" d="M0,-3.0v7 M-2.5,-0.5L0,-3.0L2.5,-0.5"/>
                </g>
                <g id="arrowDown" xlink:href="#dirArrow" transform="rotate(180) translate(-30 -48)" onmousedown="handlePan(0,1)">
                  <use xlink:href="#rim" fill="#404040">
                        <set attributeName="fill" to="#808080" begin="arrowDown.mouseover" end="arrowDown.mouseout"/>
                  </use>
                  <path fill="none" stroke="white" stroke-width="1.5" d="M0,-3.0v7 M-2.5,-0.5L0,-3.0L2.5,-0.5"/>
                </g>
                <g id="arrowLeft" xlink:href="#dirArrow" transform="rotate(270) translate(-36 17)" onmousedown="handlePan(-1,0)">
                  <use xlink:href="#rim" fill="#404040">
                        <set attributeName="fill" to="#808080" begin="arrowLeft.mouseover" end="arrowLeft.mouseout"/>
                  </use>
                  <path fill="none" stroke="white" stroke-width="1.5" d="M0,-3.0v7 M-2.5,-0.5L0,-3.0L2.5,-0.5"/>
                </g>
        </g>
        <svg viewBox="0 0 15 15" width="100%" height="30px" preserveAspectRatio="xMaxYMin meet">
         <g id="arrow_out" transform="scale(0.3 0.3)">
          <a xlink:href="MarmotMaterialRegistrationHelper_8h__incl_org.svg" target="_base">
           <rect id="button" ry="5" rx="5" y="6" x="6" height="38" width="38"
                fill="#f2f5e9" fill-opacity="0.5" stroke="#606060" stroke-width="1.0"/>
           <path id="arrow"
             d="M 11.500037,31.436501 C 11.940474,20.09759 22.043105,11.32322 32.158766,21.979434 L 37.068811,17.246167 C 37.068811,17.246167 37.088388,32 37.088388,32 L 22.160133,31.978069 C 22.160133,31.978069 26.997745,27.140456 26.997745,27.140456 C 18.528582,18.264221 13.291696,25.230495 11.500037,31.436501 z"
             style="fill:#404040;"/>
          </a>
         </g>
        </svg>
</svg>
