<?xml version="1.0" encoding="UTF-8" standalone="no"?>
<!DOCTYPE svg PUBLIC "-//W3C//DTD SVG 1.1//EN"
 "http://www.w3.org/Graphics/SVG/1.1/DTD/svg11.dtd">
<!-- Generated by graphviz version 2.44.0 ()
 -->
<!-- Title: include/Marmot/MarmotElement.h Pages: 1 -->
<svg width="635pt" height="262pt"
 viewBox="0.00 0.00 634.50 262.00" xmlns="http://www.w3.org/2000/svg" xmlns:xlink="http://www.w3.org/1999/xlink">
<g id="graph0" class="graph" transform="scale(1 1) rotate(0) translate(4 258)">
<title>include/Marmot/MarmotElement.h</title>
<polygon fill="white" stroke="transparent" points="-4,4 -4,-258 630.5,-258 630.5,4 -4,4"/>
<!-- Node1 -->
<g id="node1" class="node">
<title>Node1</title>
<g id="a_node1"><a xlink:title=" ">
<polygon fill="#bfbfbf" stroke="black" points="219.5,-234.5 219.5,-253.5 381.5,-253.5 381.5,-234.5 219.5,-234.5"/>
<text text-anchor="middle" x="300.5" y="-241.5" font-family="Helvetica,sans-Serif" font-size="10.00">include/Marmot/MarmotElement.h</text>
</a>
</g>
</g>
<!-- Node2 -->
<g id="node2" class="node">
<title>Node2</title>
<g id="a_node2"><a xlink:href="Marmot_8h.html" target="_top" xlink:title=" ">
<polygon fill="white" stroke="black" points="144,-167.5 144,-186.5 271,-186.5 271,-167.5 144,-167.5"/>
<text text-anchor="middle" x="207.5" y="-174.5" font-family="Helvetica,sans-Serif" font-size="10.00">include/Marmot/Marmot.h</text>
</a>
</g>
</g>
<!-- Node1&#45;&gt;Node2 -->
<g id="edge1" class="edge">
<title>Node1&#45;&gt;Node2</title>
<path fill="none" stroke="midnightblue" d="M279.64,-228.42C261.25,-215.57 235.09,-197.28 219.84,-186.63"/>
<polygon fill="midnightblue" stroke="midnightblue" points="277.76,-231.37 287.96,-234.23 281.77,-225.64 277.76,-231.37"/>
</g>
<!-- Node5 -->
<g id="node5" class="node">
<title>Node5</title>
<g id="a_node5"><a xlink:href="DisplacementFiniteElement_8h.html" target="_top" xlink:title=" ">
<polygon fill="white" stroke="black" points="228.5,-78.5 228.5,-119.5 386.5,-119.5 386.5,-78.5 228.5,-78.5"/>
<text text-anchor="start" x="236.5" y="-107.5" font-family="Helvetica,sans-Serif" font-size="10.00">modules/elements/Displacement</text>
<text text-anchor="start" x="236.5" y="-96.5" font-family="Helvetica,sans-Serif" font-size="10.00">FiniteElement/include/Marmot</text>
<text text-anchor="middle" x="307.5" y="-85.5" font-family="Helvetica,sans-Serif" font-size="10.00">/DisplacementFiniteElement.h</text>
</a>
</g>
</g>
<!-- Node1&#45;&gt;Node5 -->
<g id="edge10" class="edge">
<title>Node1&#45;&gt;Node5</title>
<path fill="none" stroke="midnightblue" d="M301.41,-224.42C302.73,-197.36 305.18,-147.31 306.54,-119.65"/>
<polygon fill="midnightblue" stroke="midnightblue" points="297.91,-224.32 300.92,-234.48 304.9,-224.67 297.91,-224.32"/>
</g>
<!-- Node7 -->
<g id="node7" class="node">
<title>Node7</title>
<g id="a_node7"><a xlink:href="MarmotFiniteElementSpatialWrapper_8h.html" target="_top" xlink:title=" ">
<polygon fill="white" stroke="black" points="328,-156.5 328,-197.5 513,-197.5 513,-156.5 328,-156.5"/>
<text text-anchor="start" x="336" y="-185.5" font-family="Helvetica,sans-Serif" font-size="10.00">modules/core/MarmotFinite</text>
<text text-anchor="start" x="336" y="-174.5" font-family="Helvetica,sans-Serif" font-size="10.00">ElementCore/include/Marmot</text>
<text text-anchor="middle" x="420.5" y="-163.5" font-family="Helvetica,sans-Serif" font-size="10.00">/MarmotFiniteElementSpatialWrapper.h</text>
</a>
</g>
</g>
<!-- Node1&#45;&gt;Node7 -->
<g id="edge7" class="edge">
<title>Node1&#45;&gt;Node7</title>
<path fill="none" stroke="midnightblue" d="M325.5,-229.46C342.55,-220.22 365.4,-207.84 384.42,-197.54"/>
<polygon fill="midnightblue" stroke="midnightblue" points="323.81,-226.39 316.68,-234.23 327.14,-232.55 323.81,-226.39"/>
</g>
<!-- Node3 -->
<g id="node3" class="node">
<title>Node3</title>
<g id="a_node3"><a xlink:href="MarmotMaterialRegistrationHelper_8h.html" target="_top" xlink:title=" ">
<polygon fill="white" stroke="black" points="18.5,-84 18.5,-114 172.5,-114 172.5,-84 18.5,-84"/>
<text text-anchor="start" x="26.5" y="-102" font-family="Helvetica,sans-Serif" font-size="10.00">include/Marmot/MarmotMaterial</text>
<text text-anchor="middle" x="95.5" y="-91" font-family="Helvetica,sans-Serif" font-size="10.00">RegistrationHelper.h</text>
</a>
</g>
</g>
<!-- Node2&#45;&gt;Node3 -->
<g id="edge2" class="edge">
<title>Node2&#45;&gt;Node3</title>
<path fill="none" stroke="midnightblue" d="M186.17,-161.53C166.04,-147.87 136.07,-127.53 116.16,-114.02"/>
<polygon fill="midnightblue" stroke="midnightblue" points="184.41,-164.56 194.65,-167.28 188.34,-158.77 184.41,-164.56"/>
</g>
<!-- Node2&#45;&gt;Node5 -->
<g id="edge4" class="edge">
<title>Node2&#45;&gt;Node5</title>
<path fill="none" stroke="midnightblue" d="M227.33,-160.93C242.9,-149.1 264.7,-132.53 281.63,-119.66"/>
<polygon fill="midnightblue" stroke="midnightblue" points="224.82,-158.44 218.97,-167.28 229.05,-164.02 224.82,-158.44"/>
</g>
<!-- Node6 -->
<g id="node6" class="node">
<title>Node6</title>
<g id="a_node6"><a xlink:href="DisplacementFiniteElementRegistration_8cpp.html" target="_top" xlink:title=" ">
<polygon fill="white" stroke="black" points="218,-0.5 218,-41.5 397,-41.5 397,-0.5 218,-0.5"/>
<text text-anchor="start" x="226" y="-29.5" font-family="Helvetica,sans-Serif" font-size="10.00">modules/elements/Displacement</text>
<text text-anchor="start" x="226" y="-18.5" font-family="Helvetica,sans-Serif" font-size="10.00">FiniteElement/src/DisplacementFinite</text>
<text text-anchor="middle" x="307.5" y="-7.5" font-family="Helvetica,sans-Serif" font-size="10.00">ElementRegistration.cpp</text>
</a>
</g>
</g>
<!-- Node2&#45;&gt;Node6 -->
<g id="edge6" class="edge">
<title>Node2&#45;&gt;Node6</title>
<path fill="none" stroke="midnightblue" d="M205.28,-157.18C203.78,-136.22 204.29,-102.09 219.5,-78 229.26,-62.53 245.02,-50.55 260.52,-41.72"/>
<polygon fill="midnightblue" stroke="midnightblue" points="201.82,-157.71 206.25,-167.33 208.78,-157.05 201.82,-157.71"/>
</g>
<!-- Node4 -->
<g id="node4" class="node">
<title>Node4</title>
<g id="a_node4"><a xlink:href="LinearElasticRegistration_8cpp.html" target="_top" xlink:title=" ">
<polygon fill="white" stroke="black" points="0,-6 0,-36 191,-36 191,-6 0,-6"/>
<text text-anchor="start" x="8" y="-24" font-family="Helvetica,sans-Serif" font-size="10.00">modules/materials/Linear</text>
<text text-anchor="middle" x="95.5" y="-13" font-family="Helvetica,sans-Serif" font-size="10.00">Elastic/src/LinearElasticRegistration.cpp</text>
</a>
</g>
</g>
<!-- Node3&#45;&gt;Node4 -->
<g id="edge3" class="edge">
<title>Node3&#45;&gt;Node4</title>
<path fill="none" stroke="midnightblue" d="M95.5,-73.59C95.5,-61.26 95.5,-46.72 95.5,-36.23"/>
<polygon fill="midnightblue" stroke="midnightblue" points="92,-73.7 95.5,-83.7 99,-73.71 92,-73.7"/>
</g>
<!-- Node5&#45;&gt;Node6 -->
<g id="edge5" class="edge">
<title>Node5&#45;&gt;Node6</title>
<path fill="none" stroke="midnightblue" d="M307.5,-68.3C307.5,-59.3 307.5,-49.65 307.5,-41.51"/>
<polygon fill="midnightblue" stroke="midnightblue" points="304,-68.43 307.5,-78.43 311,-68.43 304,-68.43"/>
</g>
<!-- Node7&#45;&gt;Node6 -->
<g id="edge9" class="edge">
<title>Node7&#45;&gt;Node6</title>
<path fill="none" stroke="midnightblue" d="M418.62,-145.98C416.02,-125.22 409.89,-97.86 395.5,-78 384.45,-62.75 367.86,-50.65 352.04,-41.65"/>
<polygon fill="midnightblue" stroke="midnightblue" points="415.16,-146.58 419.68,-156.16 422.12,-145.85 415.16,-146.58"/>
</g>
<!-- Node8 -->
<g id="node8" class="node">
<title>Node8</title>
<g id="a_node8"><a xlink:href="MarmotFiniteElementSpatialWrapper_8cpp.html" target="_top" xlink:title=" ">
<polygon fill="white" stroke="black" points="442.5,-78.5 442.5,-119.5 626.5,-119.5 626.5,-78.5 442.5,-78.5"/>
<text text-anchor="start" x="450.5" y="-107.5" font-family="Helvetica,sans-Serif" font-size="10.00">modules/core/MarmotFinite</text>
<text text-anchor="start" x="450.5" y="-96.5" font-family="Helvetica,sans-Serif" font-size="10.00">ElementCore/src/MarmotFiniteElement</text>
<text text-anchor="middle" x="534.5" y="-85.5" font-family="Helvetica,sans-Serif" font-size="10.00">SpatialWrapper.cpp</text>
</a>
</g>
</g>
<!-- Node7&#45;&gt;Node8 -->
<g id="edge8" class="edge">
<title>Node7&#45;&gt;Node8</title>
<path fill="none" stroke="midnightblue" d="M458.55,-150.64C473.77,-140.49 491.03,-128.98 505.24,-119.51"/>
<polygon fill="midnightblue" stroke="midnightblue" points="456.24,-147.97 449.86,-156.43 460.12,-153.79 456.24,-147.97"/>
</g>
</g>
</svg>
