<?xml version="1.0" encoding="UTF-8" standalone="no"?>
<!DOCTYPE svg PUBLIC "-//W3C//DTD SVG 1.1//EN"
 "http://www.w3.org/Graphics/SVG/1.1/DTD/svg11.dtd">
<!-- Generated by graphviz version 2.44.0 ()
 -->
<!-- Title: modules/core/MarmotMechanicsCore/src/MarmotLocalization.cpp Pages: 1 -->
<svg width="1073pt" height="341pt"
 viewBox="0.00 0.00 1073.00 341.00" xmlns="http://www.w3.org/2000/svg" xmlns:xlink="http://www.w3.org/1999/xlink">
<g id="graph0" class="graph" transform="scale(1 1) rotate(0) translate(4 337)">
<title>modules/core/MarmotMechanicsCore/src/MarmotLocalization.cpp</title>
<polygon fill="white" stroke="transparent" points="-4,4 -4,-337 1069,-337 1069,4 -4,4"/>
<!-- Node1 -->
<g id="node1" class="node">
<title>Node1</title>
<g id="a_node1"><a xlink:title=" ">
<polygon fill="#bfbfbf" stroke="black" points="563.5,-302.5 563.5,-332.5 722.5,-332.5 722.5,-302.5 563.5,-302.5"/>
<text text-anchor="start" x="571.5" y="-320.5" font-family="Helvetica,sans-Serif" font-size="10.00">modules/core/MarmotMechanics</text>
<text text-anchor="middle" x="643" y="-309.5" font-family="Helvetica,sans-Serif" font-size="10.00">Core/src/MarmotLocalization.cpp</text>
</a>
</g>
</g>
<!-- Node2 -->
<g id="node2" class="node">
<title>Node2</title>
<g id="a_node2"><a xlink:href="MarmotLocalization_8h.html" target="_top" xlink:title=" ">
<polygon fill="white" stroke="black" points="570.5,-246.5 570.5,-265.5 715.5,-265.5 715.5,-246.5 570.5,-246.5"/>
<text text-anchor="middle" x="643" y="-253.5" font-family="Helvetica,sans-Serif" font-size="10.00">Marmot/MarmotLocalization.h</text>
</a>
</g>
</g>
<!-- Node1&#45;&gt;Node2 -->
<g id="edge1" class="edge">
<title>Node1&#45;&gt;Node2</title>
<path fill="none" stroke="midnightblue" d="M643,-302.4C643,-294.47 643,-284.46 643,-275.86"/>
<polygon fill="midnightblue" stroke="midnightblue" points="646.5,-275.66 643,-265.66 639.5,-275.66 646.5,-275.66"/>
</g>
<!-- Node7 -->
<g id="node7" class="node">
<title>Node7</title>
<g id="a_node7"><a xlink:href="MarmotMath_8h.html" target="_top" xlink:title=" ">
<polygon fill="white" stroke="black" points="455.5,-134.5 455.5,-153.5 570.5,-153.5 570.5,-134.5 455.5,-134.5"/>
<text text-anchor="middle" x="513" y="-141.5" font-family="Helvetica,sans-Serif" font-size="10.00">Marmot/MarmotMath.h</text>
</a>
</g>
</g>
<!-- Node1&#45;&gt;Node7 -->
<g id="edge6" class="edge">
<title>Node1&#45;&gt;Node7</title>
<path fill="none" stroke="midnightblue" d="M609.9,-302.32C593.35,-293.83 574.11,-281.62 561,-266 535.18,-235.24 522.08,-188.88 516.48,-163.4"/>
<polygon fill="midnightblue" stroke="midnightblue" points="519.9,-162.67 514.47,-153.58 513.04,-164.08 519.9,-162.67"/>
</g>
<!-- Node9 -->
<g id="node9" class="node">
<title>Node9</title>
<g id="a_node9"><a xlink:title=" ">
<polygon fill="white" stroke="#bfbfbf" points="27,-6 27,-25 71,-25 71,-6 27,-6"/>
<text text-anchor="middle" x="49" y="-13" font-family="Helvetica,sans-Serif" font-size="10.00">cmath</text>
</a>
</g>
</g>
<!-- Node1&#45;&gt;Node9 -->
<g id="edge27" class="edge">
<title>Node1&#45;&gt;Node9</title>
<path fill="none" stroke="midnightblue" d="M563.19,-310.4C390.99,-296.16 0,-257.6 0,-201 0,-201 0,-201 0,-143 0,-108.18 5.75,-99.2 19,-67 23.83,-55.26 31.06,-42.99 37.21,-33.49"/>
<polygon fill="midnightblue" stroke="midnightblue" points="40.22,-35.29 42.87,-25.03 34.4,-31.4 40.22,-35.29"/>
</g>
<!-- Node15 -->
<g id="node15" class="node">
<title>Node15</title>
<g id="a_node15"><a xlink:href="MarmotTensor_8h.html" target="_top" xlink:title=" ">
<polygon fill="white" stroke="black" points="777.5,-246.5 777.5,-265.5 900.5,-265.5 900.5,-246.5 777.5,-246.5"/>
<text text-anchor="middle" x="839" y="-253.5" font-family="Helvetica,sans-Serif" font-size="10.00">Marmot/MarmotTensor.h</text>
</a>
</g>
</g>
<!-- Node1&#45;&gt;Node15 -->
<g id="edge15" class="edge">
<title>Node1&#45;&gt;Node15</title>
<path fill="none" stroke="midnightblue" d="M689.45,-302.4C723.46,-292.07 769.06,-278.23 800.93,-268.56"/>
<polygon fill="midnightblue" stroke="midnightblue" points="802.21,-271.82 810.77,-265.57 800.18,-265.13 802.21,-271.82"/>
</g>
<!-- Node17 -->
<g id="node17" class="node">
<title>Node17</title>
<g id="a_node17"><a xlink:title=" ">
<polygon fill="white" stroke="#bfbfbf" points="1011,-73 1011,-92 1065,-92 1065,-73 1011,-73"/>
<text text-anchor="middle" x="1038" y="-80" font-family="Helvetica,sans-Serif" font-size="10.00">iostream</text>
</a>
</g>
</g>
<!-- Node1&#45;&gt;Node17 -->
<g id="edge28" class="edge">
<title>Node1&#45;&gt;Node17</title>
<path fill="none" stroke="midnightblue" d="M722.68,-315.35C778.5,-311.35 853.01,-299.37 910,-266 975.65,-227.55 1015.96,-140.53 1031.13,-102.21"/>
<polygon fill="midnightblue" stroke="midnightblue" points="1034.58,-102.97 1034.88,-92.38 1028.04,-100.47 1034.58,-102.97"/>
</g>
<!-- Node3 -->
<g id="node3" class="node">
<title>Node3</title>
<g id="a_node3"><a xlink:href="MarmotTypedefs_8h.html" target="_top" xlink:title=" ">
<polygon fill="white" stroke="black" points="730.5,-73 730.5,-92 863.5,-92 863.5,-73 730.5,-73"/>
<text text-anchor="middle" x="797" y="-80" font-family="Helvetica,sans-Serif" font-size="10.00">Marmot/MarmotTypedefs.h</text>
</a>
</g>
</g>
<!-- Node2&#45;&gt;Node3 -->
<g id="edge2" class="edge">
<title>Node2&#45;&gt;Node3</title>
<path fill="none" stroke="midnightblue" d="M643.84,-246.29C645.48,-233.11 650.03,-207.74 662,-190 690.45,-147.84 740.83,-114.63 771.34,-97.12"/>
<polygon fill="midnightblue" stroke="midnightblue" points="773.11,-100.14 780.13,-92.2 769.69,-94.04 773.11,-100.14"/>
</g>
<!-- Node4 -->
<g id="node4" class="node">
<title>Node4</title>
<g id="a_node4"><a xlink:title=" ">
<polygon fill="white" stroke="#bfbfbf" points="765,-6 765,-25 829,-25 829,-6 765,-6"/>
<text text-anchor="middle" x="797" y="-13" font-family="Helvetica,sans-Serif" font-size="10.00">Eigen/Core</text>
</a>
</g>
</g>
<!-- Node3&#45;&gt;Node4 -->
<g id="edge3" class="edge">
<title>Node3&#45;&gt;Node4</title>
<path fill="none" stroke="midnightblue" d="M797,-72.73C797,-63.18 797,-47.62 797,-35.28"/>
<polygon fill="midnightblue" stroke="midnightblue" points="800.5,-35.13 797,-25.13 793.5,-35.13 800.5,-35.13"/>
</g>
<!-- Node5 -->
<g id="node5" class="node">
<title>Node5</title>
<g id="a_node5"><a xlink:title=" ">
<polygon fill="white" stroke="#bfbfbf" points="847.5,-6 847.5,-25 918.5,-25 918.5,-6 847.5,-6"/>
<text text-anchor="middle" x="883" y="-13" font-family="Helvetica,sans-Serif" font-size="10.00">Eigen/Dense</text>
</a>
</g>
</g>
<!-- Node3&#45;&gt;Node5 -->
<g id="edge4" class="edge">
<title>Node3&#45;&gt;Node5</title>
<path fill="none" stroke="midnightblue" d="M808.6,-72.73C822.65,-62.11 846.55,-44.05 863.47,-31.26"/>
<polygon fill="midnightblue" stroke="midnightblue" points="865.72,-33.95 871.59,-25.13 861.5,-28.36 865.72,-33.95"/>
</g>
<!-- Node6 -->
<g id="node6" class="node">
<title>Node6</title>
<g id="a_node6"><a xlink:title=" ">
<polygon fill="white" stroke="#bfbfbf" points="615.5,-0.5 615.5,-30.5 746.5,-30.5 746.5,-0.5 615.5,-0.5"/>
<text text-anchor="start" x="623.5" y="-18.5" font-family="Helvetica,sans-Serif" font-size="10.00">unsupported/Eigen/CXX11</text>
<text text-anchor="middle" x="681" y="-7.5" font-family="Helvetica,sans-Serif" font-size="10.00">/Tensor</text>
</a>
</g>
</g>
<!-- Node3&#45;&gt;Node6 -->
<g id="edge5" class="edge">
<title>Node3&#45;&gt;Node6</title>
<path fill="none" stroke="midnightblue" d="M781.36,-72.73C764.47,-63.27 737.06,-47.91 715.15,-35.64"/>
<polygon fill="midnightblue" stroke="midnightblue" points="716.58,-32.42 706.14,-30.59 713.16,-38.53 716.58,-32.42"/>
</g>
<!-- Node7&#45;&gt;Node3 -->
<g id="edge9" class="edge">
<title>Node7&#45;&gt;Node3</title>
<path fill="none" stroke="midnightblue" d="M553.69,-134.48C604.52,-123.83 691.47,-105.61 746.5,-94.08"/>
<polygon fill="midnightblue" stroke="midnightblue" points="747.32,-97.49 756.39,-92.01 745.88,-90.63 747.32,-97.49"/>
</g>
<!-- Node8 -->
<g id="node8" class="node">
<title>Node8</title>
<g id="a_node8"><a xlink:href="MarmotConstants_8h.html" target="_top" xlink:title=" ">
<polygon fill="white" stroke="black" points="28.5,-73 28.5,-92 165.5,-92 165.5,-73 28.5,-73"/>
<text text-anchor="middle" x="97" y="-80" font-family="Helvetica,sans-Serif" font-size="10.00">Marmot/MarmotConstants.h</text>
</a>
</g>
</g>
<!-- Node7&#45;&gt;Node8 -->
<g id="edge7" class="edge">
<title>Node7&#45;&gt;Node8</title>
<path fill="none" stroke="midnightblue" d="M455.46,-136.25C388.09,-128.14 273.21,-113.66 175,-98 167.07,-96.74 158.71,-95.3 150.52,-93.83"/>
<polygon fill="midnightblue" stroke="midnightblue" points="151.13,-90.38 140.66,-92.03 149.87,-97.26 151.13,-90.38"/>
</g>
<!-- Node10 -->
<g id="node10" class="node">
<title>Node10</title>
<g id="a_node10"><a xlink:title=" ">
<polygon fill="white" stroke="#bfbfbf" points="452,-73 452,-92 574,-92 574,-73 452,-73"/>
<text text-anchor="middle" x="513" y="-80" font-family="Helvetica,sans-Serif" font-size="10.00">autodiff/forward/dual.hpp</text>
</a>
</g>
</g>
<!-- Node7&#45;&gt;Node10 -->
<g id="edge10" class="edge">
<title>Node7&#45;&gt;Node10</title>
<path fill="none" stroke="midnightblue" d="M513,-134.48C513,-126.08 513,-112.98 513,-102.16"/>
<polygon fill="midnightblue" stroke="midnightblue" points="516.5,-102.01 513,-92.01 509.5,-102.01 516.5,-102.01"/>
</g>
<!-- Node11 -->
<g id="node11" class="node">
<title>Node11</title>
<g id="a_node11"><a xlink:title=" ">
<polygon fill="white" stroke="#bfbfbf" points="592,-73 592,-92 712,-92 712,-73 592,-73"/>
<text text-anchor="middle" x="652" y="-80" font-family="Helvetica,sans-Serif" font-size="10.00">autodiff/forward/real.hpp</text>
</a>
</g>
</g>
<!-- Node7&#45;&gt;Node11 -->
<g id="edge11" class="edge">
<title>Node7&#45;&gt;Node11</title>
<path fill="none" stroke="midnightblue" d="M532.92,-134.48C556.45,-124.4 595.81,-107.55 622.79,-96"/>
<polygon fill="midnightblue" stroke="midnightblue" points="624.31,-99.16 632.12,-92.01 621.55,-92.73 624.31,-99.16"/>
</g>
<!-- Node12 -->
<g id="node12" class="node">
<title>Node12</title>
<g id="a_node12"><a xlink:title=" ">
<polygon fill="white" stroke="#bfbfbf" points="184,-73 184,-92 240,-92 240,-73 184,-73"/>
<text text-anchor="middle" x="212" y="-80" font-family="Helvetica,sans-Serif" font-size="10.00">algorithm</text>
</a>
</g>
</g>
<!-- Node7&#45;&gt;Node12 -->
<g id="edge12" class="edge">
<title>Node7&#45;&gt;Node12</title>
<path fill="none" stroke="midnightblue" d="M455.35,-136.63C401.36,-129.85 318.77,-117.4 249,-98 246.41,-97.28 243.75,-96.44 241.1,-95.54"/>
<polygon fill="midnightblue" stroke="midnightblue" points="242.31,-92.26 231.72,-92.09 239.89,-98.83 242.31,-92.26"/>
</g>
<!-- Node13 -->
<g id="node13" class="node">
<title>Node13</title>
<g id="a_node13"><a xlink:title=" ">
<polygon fill="white" stroke="#bfbfbf" points="258,-67.5 258,-97.5 362,-97.5 362,-67.5 258,-67.5"/>
<text text-anchor="start" x="266" y="-85.5" font-family="Helvetica,sans-Serif" font-size="10.00">autodiff/forward/dual</text>
<text text-anchor="middle" x="310" y="-74.5" font-family="Helvetica,sans-Serif" font-size="10.00">/dual.hpp</text>
</a>
</g>
</g>
<!-- Node7&#45;&gt;Node13 -->
<g id="edge13" class="edge">
<title>Node7&#45;&gt;Node13</title>
<path fill="none" stroke="midnightblue" d="M483.92,-134.48C453.72,-125.63 405.7,-111.55 367.75,-100.43"/>
<polygon fill="midnightblue" stroke="midnightblue" points="368.42,-96.98 357.84,-97.52 366.45,-103.69 368.42,-96.98"/>
</g>
<!-- Node14 -->
<g id="node14" class="node">
<title>Node14</title>
<g id="a_node14"><a xlink:title=" ">
<polygon fill="white" stroke="#bfbfbf" points="380.5,-73 380.5,-92 433.5,-92 433.5,-73 380.5,-73"/>
<text text-anchor="middle" x="407" y="-80" font-family="Helvetica,sans-Serif" font-size="10.00">complex</text>
</a>
</g>
</g>
<!-- Node7&#45;&gt;Node14 -->
<g id="edge14" class="edge">
<title>Node7&#45;&gt;Node14</title>
<path fill="none" stroke="midnightblue" d="M497.81,-134.48C480.34,-124.67 451.42,-108.43 430.92,-96.92"/>
<polygon fill="midnightblue" stroke="midnightblue" points="432.59,-93.85 422.16,-92.01 429.17,-99.96 432.59,-93.85"/>
</g>
<!-- Node8&#45;&gt;Node9 -->
<g id="edge8" class="edge">
<title>Node8&#45;&gt;Node9</title>
<path fill="none" stroke="midnightblue" d="M90.53,-72.73C83.11,-62.7 70.8,-46.01 61.5,-33.42"/>
<polygon fill="midnightblue" stroke="midnightblue" points="64.13,-31.09 55.37,-25.13 58.5,-35.25 64.13,-31.09"/>
</g>
<!-- Node15&#45;&gt;Node3 -->
<g id="edge20" class="edge">
<title>Node15&#45;&gt;Node3</title>
<path fill="none" stroke="midnightblue" d="M836.86,-246.26C830.32,-219.54 810.47,-138.52 801.5,-101.86"/>
<polygon fill="midnightblue" stroke="midnightblue" points="804.86,-100.9 799.09,-92.02 798.07,-102.56 804.86,-100.9"/>
</g>
<!-- Node16 -->
<g id="node16" class="node">
<title>Node16</title>
<g id="a_node16"><a xlink:href="MarmotJournal_8h.html" target="_top" xlink:title=" ">
<polygon fill="white" stroke="black" points="846.5,-134.5 846.5,-153.5 971.5,-153.5 971.5,-134.5 846.5,-134.5"/>
<text text-anchor="middle" x="909" y="-141.5" font-family="Helvetica,sans-Serif" font-size="10.00">Marmot/MarmotJournal.h</text>
</a>
</g>
</g>
<!-- Node15&#45;&gt;Node16 -->
<g id="edge16" class="edge">
<title>Node15&#45;&gt;Node16</title>
<path fill="none" stroke="midnightblue" d="M853.3,-246.44C865.38,-238.48 882.23,-225.53 892,-210 900.83,-195.96 905.09,-177.46 907.14,-163.79"/>
<polygon fill="midnightblue" stroke="midnightblue" points="910.64,-164 908.39,-153.65 903.7,-163.15 910.64,-164"/>
</g>
<!-- Node15&#45;&gt;Node17 -->
<g id="edge25" class="edge">
<title>Node15&#45;&gt;Node17</title>
<path fill="none" stroke="midnightblue" d="M854.3,-246.38C881.7,-230.47 940.11,-194.4 981,-154 998.06,-137.14 1015.01,-115.38 1025.93,-100.52"/>
<polygon fill="midnightblue" stroke="midnightblue" points="1028.87,-102.42 1031.9,-92.26 1023.2,-98.31 1028.87,-102.42"/>
</g>
<!-- Node20 -->
<g id="node20" class="node">
<title>Node20</title>
<g id="a_node20"><a xlink:href="MarmotVoigt_8h.html" target="_top" xlink:title=" ">
<polygon fill="white" stroke="black" points="671,-190.5 671,-209.5 787,-209.5 787,-190.5 671,-190.5"/>
<text text-anchor="middle" x="729" y="-197.5" font-family="Helvetica,sans-Serif" font-size="10.00">Marmot/MarmotVoigt.h</text>
</a>
</g>
</g>
<!-- Node15&#45;&gt;Node20 -->
<g id="edge21" class="edge">
<title>Node15&#45;&gt;Node20</title>
<path fill="none" stroke="midnightblue" d="M821.33,-246.32C803.61,-237.62 776.1,-224.12 755.71,-214.11"/>
<polygon fill="midnightblue" stroke="midnightblue" points="757.15,-210.92 746.63,-209.65 754.06,-217.2 757.15,-210.92"/>
</g>
<!-- Node21 -->
<g id="node21" class="node">
<title>Node21</title>
<g id="a_node21"><a xlink:title=" ">
<polygon fill="white" stroke="#bfbfbf" points="843.5,-190.5 843.5,-209.5 882.5,-209.5 882.5,-190.5 843.5,-190.5"/>
<text text-anchor="middle" x="863" y="-197.5" font-family="Helvetica,sans-Serif" font-size="10.00">utility</text>
</a>
</g>
</g>
<!-- Node15&#45;&gt;Node21 -->
<g id="edge26" class="edge">
<title>Node15&#45;&gt;Node21</title>
<path fill="none" stroke="midnightblue" d="M842.96,-246.08C846.21,-238.77 850.92,-228.18 854.95,-219.1"/>
<polygon fill="midnightblue" stroke="midnightblue" points="858.25,-220.31 859.11,-209.75 851.85,-217.47 858.25,-220.31"/>
</g>
<!-- Node16&#45;&gt;Node17 -->
<g id="edge17" class="edge">
<title>Node16&#45;&gt;Node17</title>
<path fill="none" stroke="midnightblue" d="M927.48,-134.48C949.13,-124.49 985.21,-107.85 1010.23,-96.31"/>
<polygon fill="midnightblue" stroke="midnightblue" points="1011.94,-99.38 1019.55,-92.01 1009.01,-93.02 1011.94,-99.38"/>
</g>
<!-- Node18 -->
<g id="node18" class="node">
<title>Node18</title>
<g id="a_node18"><a xlink:title=" ">
<polygon fill="white" stroke="#bfbfbf" points="941,-73 941,-92 993,-92 993,-73 941,-73"/>
<text text-anchor="middle" x="967" y="-80" font-family="Helvetica,sans-Serif" font-size="10.00">sstream</text>
</a>
</g>
</g>
<!-- Node16&#45;&gt;Node18 -->
<g id="edge18" class="edge">
<title>Node16&#45;&gt;Node18</title>
<path fill="none" stroke="midnightblue" d="M917.31,-134.48C926.18,-125.37 940.45,-110.74 951.42,-99.48"/>
<polygon fill="midnightblue" stroke="midnightblue" points="954.23,-101.61 958.71,-92.01 949.22,-96.73 954.23,-101.61"/>
</g>
<!-- Node19 -->
<g id="node19" class="node">
<title>Node19</title>
<g id="a_node19"><a xlink:title=" ">
<polygon fill="white" stroke="#bfbfbf" points="881.5,-73 881.5,-92 922.5,-92 922.5,-73 881.5,-73"/>
<text text-anchor="middle" x="902" y="-80" font-family="Helvetica,sans-Serif" font-size="10.00">string</text>
</a>
</g>
</g>
<!-- Node16&#45;&gt;Node19 -->
<g id="edge19" class="edge">
<title>Node16&#45;&gt;Node19</title>
<path fill="none" stroke="midnightblue" d="M908,-134.48C907.01,-126.08 905.47,-112.98 904.2,-102.16"/>
<polygon fill="midnightblue" stroke="midnightblue" points="907.65,-101.53 903,-92.01 900.69,-102.35 907.65,-101.53"/>
</g>
<!-- Node20&#45;&gt;Node3 -->
<g id="edge24" class="edge">
<title>Node20&#45;&gt;Node3</title>
<path fill="none" stroke="midnightblue" d="M734.11,-190.32C745.24,-171.42 771.83,-126.25 786.63,-101.12"/>
<polygon fill="midnightblue" stroke="midnightblue" points="789.77,-102.68 791.83,-92.28 783.74,-99.12 789.77,-102.68"/>
</g>
<!-- Node20&#45;&gt;Node7 -->
<g id="edge23" class="edge">
<title>Node20&#45;&gt;Node7</title>
<path fill="none" stroke="midnightblue" d="M694.77,-190.44C657.49,-181.12 597.73,-166.18 556.99,-156"/>
<polygon fill="midnightblue" stroke="midnightblue" points="557.62,-152.55 547.07,-153.52 555.92,-159.34 557.62,-152.55"/>
</g>
<!-- Node20&#45;&gt;Node16 -->
<g id="edge22" class="edge">
<title>Node20&#45;&gt;Node16</title>
<path fill="none" stroke="midnightblue" d="M757.52,-190.44C788.07,-181.28 836.71,-166.69 870.6,-156.52"/>
<polygon fill="midnightblue" stroke="midnightblue" points="872.04,-159.74 880.61,-153.52 870.03,-153.04 872.04,-159.74"/>
</g>
</g>
</svg>
