<?xml version="1.0" encoding="UTF-8" standalone="no"?>
<!DOCTYPE svg PUBLIC "-//W3C//DTD SVG 1.1//EN"
 "http://www.w3.org/Graphics/SVG/1.1/DTD/svg11.dtd">
<!-- Generated by graphviz version 2.44.0 ()
 -->
<!-- Title: modules/core/MarmotMechanicsCore/src/MarmotMaterialHypoElasticNonLocal.cpp Pages: 1 -->
<!--zoomable 363 -->
<svg id="main" version="1.1" xmlns="http://www.w3.org/2000/svg" xmlns:xlink="http://www.w3.org/1999/xlink" xml:space="preserve" onload="init(evt)">
<style type="text/css"><![CDATA[
.edge:hover path { stroke: red; }
.edge:hover polygon { stroke: red; fill: red; }
]]></style>
<script type="text/javascript"><![CDATA[
var edges = document.getElementsByTagName('g');
if (edges && edges.length) {
  for (var i=0;i<edges.length;i++) {
    if (edges[i].id.substr(0,4)=='edge') {
      edges[i].setAttribute('class','edge');
    }
  }
}
]]></script>
        <defs>
                <circle id="rim" cx="0" cy="0" r="7"/>
                <circle id="rim2" cx="0" cy="0" r="3.5"/>
                <g id="zoomPlus">
                        <use xlink:href="#rim" fill="#404040">
                                <set attributeName="fill" to="#808080" begin="zoomplus.mouseover" end="zoomplus.mouseout"/>
                        </use>
                        <path d="M-4,0h8M0,-4v8" fill="none" stroke="white" stroke-width="1.5" pointer-events="none"/>
                </g>
                <g id="zoomMin">
                        <use xlink:href="#rim" fill="#404040">
                                <set attributeName="fill" to="#808080" begin="zoomminus.mouseover" end="zoomminus.mouseout"/>
                        </use>
                        <path d="M-4,0h8" fill="none" stroke="white" stroke-width="1.5" pointer-events="none"/>
                </g>
                <g id="dirArrow">
                        <path fill="none" stroke="white" stroke-width="1.5" d="M0,-3.0v7 M-2.5,-0.5L0,-3.0L2.5,-0.5"/>
                </g>
               <g id="resetDef">
                       <use xlink:href="#rim2" fill="#404040">
                               <set attributeName="fill" to="#808080" begin="reset.mouseover" end="reset.mouseout"/>
                       </use>
               </g>
        </defs>

<script type="text/javascript">
var viewWidth = 1147;
var viewHeight = 363;
var sectionId = 'dynsection-0';
</script>
<script xlink:href="svgpan.js"/>
<svg id="graph" class="graph">
<g id="viewport">
<title>modules/core/MarmotMechanicsCore/src/MarmotMaterialHypoElasticNonLocal.cpp</title>
<polygon fill="white" stroke="transparent" points="-4,4 -4,-359 1142.5,-359 1142.5,4 -4,4"/>
<!-- Node1 -->
<g id="node1" class="node">
<title>Node1</title>
<g id="a_node1"><a xlink:title=" ">
<polygon fill="#bfbfbf" stroke="black" points="548,-313.5 548,-354.5 724,-354.5 724,-313.5 548,-313.5"/>
<text text-anchor="start" x="556" y="-342.5" font-family="Helvetica,sans-Serif" font-size="10.00">modules/core/MarmotMechanics</text>
<text text-anchor="start" x="556" y="-331.5" font-family="Helvetica,sans-Serif" font-size="10.00">Core/src/MarmotMaterialHypoElastic</text>
<text text-anchor="middle" x="636" y="-320.5" font-family="Helvetica,sans-Serif" font-size="10.00">NonLocal.cpp</text>
</a>
</g>
</g>
<!-- Node2 -->
<g id="node2" class="node">
<title>Node2</title>
<g id="a_node2"><a xlink:href="HughesWinget_8h.html" target="_top" xlink:title=" ">
<polygon fill="white" stroke="black" points="499,-252 499,-271 623,-271 623,-252 499,-252"/>
<text text-anchor="middle" x="561" y="-259" font-family="Helvetica,sans-Serif" font-size="10.00">Marmot/HughesWinget.h</text>
</a>
</g>
</g>
<!-- Node1&#45;&gt;Node2 -->
<g id="edge1" class="edge">
<title>Node1&#45;&gt;Node2</title>
<path fill="none" stroke="midnightblue" d="M615.11,-313.36C603.25,-302.21 588.61,-288.46 577.56,-278.06"/>
<polygon fill="midnightblue" stroke="midnightblue" points="579.91,-275.47 570.23,-271.17 575.12,-280.57 579.91,-275.47"/>
</g>
<!-- Node3 -->
<g id="node3" class="node">
<title>Node3</title>
<g id="a_node3"><a xlink:href="MarmotVoigt_8h.html" target="_top" xlink:title=" ">
<polygon fill="white" stroke="black" points="512,-185 512,-204 628,-204 628,-185 512,-185"/>
<text text-anchor="middle" x="570" y="-192" font-family="Helvetica,sans-Serif" font-size="10.00">Marmot/MarmotVoigt.h</text>
</a>
</g>
</g>
<!-- Node1&#45;&gt;Node3 -->
<g id="edge38" class="edge">
<title>Node1&#45;&gt;Node3</title>
<path fill="none" stroke="midnightblue" d="M547.88,-330.46C460.84,-325.87 336.42,-313.02 306,-277 249.86,-210.53 405.82,-197.34 501.49,-195.29"/>
<polygon fill="midnightblue" stroke="midnightblue" points="501.76,-198.79 511.7,-195.11 501.64,-191.79 501.76,-198.79"/>
</g>
<!-- Node4 -->
<g id="node4" class="node">
<title>Node4</title>
<g id="a_node4"><a xlink:href="MarmotJournal_8h.html" target="_top" xlink:title=" ">
<polygon fill="white" stroke="black" points="761.5,-123.5 761.5,-142.5 886.5,-142.5 886.5,-123.5 761.5,-123.5"/>
<text text-anchor="middle" x="824" y="-130.5" font-family="Helvetica,sans-Serif" font-size="10.00">Marmot/MarmotJournal.h</text>
</a>
</g>
</g>
<!-- Node1&#45;&gt;Node4 -->
<g id="edge19" class="edge">
<title>Node1&#45;&gt;Node4</title>
<path fill="none" stroke="midnightblue" d="M724.14,-328.56C802.19,-322.57 907.7,-308.7 934,-277 972.38,-230.74 891.39,-173.47 848.44,-147.7"/>
<polygon fill="midnightblue" stroke="midnightblue" points="850.06,-144.59 839.66,-142.55 846.52,-150.63 850.06,-144.59"/>
</g>
<!-- Node8 -->
<g id="node8" class="node">
<title>Node8</title>
<g id="a_node8"><a xlink:href="MarmotMath_8h.html" target="_top" xlink:title=" ">
<polygon fill="white" stroke="black" points="284.5,-123.5 284.5,-142.5 399.5,-142.5 399.5,-123.5 284.5,-123.5"/>
<text text-anchor="middle" x="342" y="-130.5" font-family="Helvetica,sans-Serif" font-size="10.00">Marmot/MarmotMath.h</text>
</a>
</g>
</g>
<!-- Node1&#45;&gt;Node8 -->
<g id="edge31" class="edge">
<title>Node1&#45;&gt;Node8</title>
<path fill="none" stroke="midnightblue" d="M547.68,-331.22C456.57,-327.3 323.34,-315.01 291,-277 258.67,-238.99 302.04,-179 326.84,-150.32"/>
<polygon fill="midnightblue" stroke="midnightblue" points="329.51,-152.59 333.55,-142.79 324.28,-147.93 329.51,-152.59"/>
</g>
<!-- Node19 -->
<g id="node19" class="node">
<title>Node19</title>
<g id="a_node19"><a xlink:href="MarmotKinematics_8h.html" target="_top" xlink:title=" ">
<polygon fill="white" stroke="black" points="641,-252 641,-271 783,-271 783,-252 641,-252"/>
<text text-anchor="middle" x="712" y="-259" font-family="Helvetica,sans-Serif" font-size="10.00">Marmot/MarmotKinematics.h</text>
</a>
</g>
</g>
<!-- Node1&#45;&gt;Node19 -->
<g id="edge20" class="edge">
<title>Node1&#45;&gt;Node19</title>
<path fill="none" stroke="midnightblue" d="M657.17,-313.36C669.19,-302.21 684.02,-288.46 695.22,-278.06"/>
<polygon fill="midnightblue" stroke="midnightblue" points="697.7,-280.54 702.65,-271.17 692.94,-275.41 697.7,-280.54"/>
</g>
<!-- Node20 -->
<g id="node20" class="node">
<title>Node20</title>
<g id="a_node20"><a xlink:href="MarmotLowerDimensionalStress_8h.html" target="_top" xlink:title=" ">
<polygon fill="white" stroke="black" points="315,-246.5 315,-276.5 481,-276.5 481,-246.5 315,-246.5"/>
<text text-anchor="start" x="323" y="-264.5" font-family="Helvetica,sans-Serif" font-size="10.00">Marmot/MarmotLowerDimensional</text>
<text text-anchor="middle" x="398" y="-253.5" font-family="Helvetica,sans-Serif" font-size="10.00">Stress.h</text>
</a>
</g>
</g>
<!-- Node1&#45;&gt;Node20 -->
<g id="edge24" class="edge">
<title>Node1&#45;&gt;Node20</title>
<path fill="none" stroke="midnightblue" d="M570.02,-313.46C534.08,-302.81 490.04,-289.76 455.52,-279.54"/>
<polygon fill="midnightblue" stroke="midnightblue" points="456.17,-276.08 445.59,-276.6 454.18,-282.79 456.17,-276.08"/>
</g>
<!-- Node21 -->
<g id="node21" class="node">
<title>Node21</title>
<g id="a_node21"><a xlink:href="MarmotMaterialGradientEnhancedHypoElastic_8h.html" target="_top" xlink:title=" ">
<polygon fill="white" stroke="black" points="981.5,-246.5 981.5,-276.5 1138.5,-276.5 1138.5,-246.5 981.5,-246.5"/>
<text text-anchor="start" x="989.5" y="-264.5" font-family="Helvetica,sans-Serif" font-size="10.00">Marmot/MarmotMaterialGradient</text>
<text text-anchor="middle" x="1060" y="-253.5" font-family="Helvetica,sans-Serif" font-size="10.00">EnhancedHypoElastic.h</text>
</a>
</g>
</g>
<!-- Node1&#45;&gt;Node21 -->
<g id="edge26" class="edge">
<title>Node1&#45;&gt;Node21</title>
<path fill="none" stroke="midnightblue" d="M724.11,-318.35C796.53,-306.31 898.65,-289.33 971.25,-277.26"/>
<polygon fill="midnightblue" stroke="midnightblue" points="972,-280.68 981.29,-275.59 970.85,-273.78 972,-280.68"/>
</g>
<!-- Node25 -->
<g id="node25" class="node">
<title>Node25</title>
<g id="a_node25"><a xlink:href="MarmotTensor_8h.html" target="_top" xlink:title=" ">
<polygon fill="white" stroke="black" points="801.5,-252 801.5,-271 924.5,-271 924.5,-252 801.5,-252"/>
<text text-anchor="middle" x="863" y="-259" font-family="Helvetica,sans-Serif" font-size="10.00">Marmot/MarmotTensor.h</text>
</a>
</g>
</g>
<!-- Node1&#45;&gt;Node25 -->
<g id="edge32" class="edge">
<title>Node1&#45;&gt;Node25</title>
<path fill="none" stroke="midnightblue" d="M698.93,-313.46C739.77,-300.77 791.6,-284.68 825.95,-274.01"/>
<polygon fill="midnightblue" stroke="midnightblue" points="827.08,-277.32 835.59,-271.01 825,-270.64 827.08,-277.32"/>
</g>
<!-- Node2&#45;&gt;Node3 -->
<g id="edge2" class="edge">
<title>Node2&#45;&gt;Node3</title>
<path fill="none" stroke="midnightblue" d="M562.21,-251.73C563.54,-242.18 565.69,-226.62 567.4,-214.28"/>
<polygon fill="midnightblue" stroke="midnightblue" points="570.9,-214.51 568.81,-204.13 563.97,-213.55 570.9,-214.51"/>
</g>
<!-- Node3&#45;&gt;Node4 -->
<g id="edge3" class="edge">
<title>Node3&#45;&gt;Node4</title>
<path fill="none" stroke="midnightblue" d="M606.39,-184.98C651.57,-174.39 728.65,-156.34 777.91,-144.8"/>
<polygon fill="midnightblue" stroke="midnightblue" points="778.74,-148.2 787.68,-142.51 777.14,-141.38 778.74,-148.2"/>
</g>
<!-- Node3&#45;&gt;Node8 -->
<g id="edge7" class="edge">
<title>Node3&#45;&gt;Node8</title>
<path fill="none" stroke="midnightblue" d="M537.33,-184.98C497.12,-174.48 428.74,-156.64 384.48,-145.09"/>
<polygon fill="midnightblue" stroke="midnightblue" points="385.17,-141.65 374.61,-142.51 383.4,-148.42 385.17,-141.65"/>
</g>
<!-- Node11 -->
<g id="node11" class="node">
<title>Node11</title>
<g id="a_node11"><a xlink:href="MarmotTypedefs_8h.html" target="_top" xlink:title=" ">
<polygon fill="white" stroke="black" points="599.5,-67.5 599.5,-86.5 732.5,-86.5 732.5,-67.5 599.5,-67.5"/>
<text text-anchor="middle" x="666" y="-74.5" font-family="Helvetica,sans-Serif" font-size="10.00">Marmot/MarmotTypedefs.h</text>
</a>
</g>
</g>
<!-- Node3&#45;&gt;Node11 -->
<g id="edge18" class="edge">
<title>Node3&#45;&gt;Node11</title>
<path fill="none" stroke="midnightblue" d="M577.22,-184.82C593.13,-165.67 631.47,-119.54 652.18,-94.63"/>
<polygon fill="midnightblue" stroke="midnightblue" points="655,-96.71 658.7,-86.78 649.62,-92.24 655,-96.71"/>
</g>
<!-- Node5 -->
<g id="node5" class="node">
<title>Node5</title>
<g id="a_node5"><a xlink:title=" ">
<polygon fill="white" stroke="#bfbfbf" points="870,-67.5 870,-86.5 924,-86.5 924,-67.5 870,-67.5"/>
<text text-anchor="middle" x="897" y="-74.5" font-family="Helvetica,sans-Serif" font-size="10.00">iostream</text>
</a>
</g>
</g>
<!-- Node4&#45;&gt;Node5 -->
<g id="edge4" class="edge">
<title>Node4&#45;&gt;Node5</title>
<path fill="none" stroke="midnightblue" d="M835.73,-123.32C846.84,-115.11 863.74,-102.6 876.98,-92.81"/>
<polygon fill="midnightblue" stroke="midnightblue" points="879.1,-95.59 885.06,-86.83 874.94,-89.97 879.1,-95.59"/>
</g>
<!-- Node6 -->
<g id="node6" class="node">
<title>Node6</title>
<g id="a_node6"><a xlink:title=" ">
<polygon fill="white" stroke="#bfbfbf" points="798,-67.5 798,-86.5 850,-86.5 850,-67.5 798,-67.5"/>
<text text-anchor="middle" x="824" y="-74.5" font-family="Helvetica,sans-Serif" font-size="10.00">sstream</text>
</a>
</g>
</g>
<!-- Node4&#45;&gt;Node6 -->
<g id="edge5" class="edge">
<title>Node4&#45;&gt;Node6</title>
<path fill="none" stroke="midnightblue" d="M824,-123.08C824,-116.01 824,-105.86 824,-96.99"/>
<polygon fill="midnightblue" stroke="midnightblue" points="827.5,-96.75 824,-86.75 820.5,-96.75 827.5,-96.75"/>
</g>
<!-- Node7 -->
<g id="node7" class="node">
<title>Node7</title>
<g id="a_node7"><a xlink:title=" ">
<polygon fill="white" stroke="#bfbfbf" points="943.5,-67.5 943.5,-86.5 984.5,-86.5 984.5,-67.5 943.5,-67.5"/>
<text text-anchor="middle" x="964" y="-74.5" font-family="Helvetica,sans-Serif" font-size="10.00">string</text>
</a>
</g>
</g>
<!-- Node4&#45;&gt;Node7 -->
<g id="edge6" class="edge">
<title>Node4&#45;&gt;Node7</title>
<path fill="none" stroke="midnightblue" d="M846.18,-123.44C869.84,-114.32 907.45,-99.81 933.8,-89.65"/>
<polygon fill="midnightblue" stroke="midnightblue" points="935.22,-92.85 943.29,-85.99 932.7,-86.32 935.22,-92.85"/>
</g>
<!-- Node9 -->
<g id="node9" class="node">
<title>Node9</title>
<g id="a_node9"><a xlink:href="MarmotConstants_8h.html" target="_top" xlink:title=" ">
<polygon fill="white" stroke="black" points="423.5,-67.5 423.5,-86.5 560.5,-86.5 560.5,-67.5 423.5,-67.5"/>
<text text-anchor="middle" x="492" y="-74.5" font-family="Helvetica,sans-Serif" font-size="10.00">Marmot/MarmotConstants.h</text>
</a>
</g>
</g>
<!-- Node8&#45;&gt;Node9 -->
<g id="edge8" class="edge">
<title>Node8&#45;&gt;Node9</title>
<path fill="none" stroke="midnightblue" d="M365.77,-123.44C390.89,-114.4 430.71,-100.06 458.9,-89.92"/>
<polygon fill="midnightblue" stroke="midnightblue" points="460.12,-93.2 468.34,-86.52 457.75,-86.61 460.12,-93.2"/>
</g>
<!-- Node8&#45;&gt;Node11 -->
<g id="edge10" class="edge">
<title>Node8&#45;&gt;Node11</title>
<path fill="none" stroke="midnightblue" d="M393.34,-123.44C450.81,-113.87 543.87,-98.36 605,-88.17"/>
<polygon fill="midnightblue" stroke="midnightblue" points="605.61,-91.61 614.9,-86.52 604.46,-84.71 605.61,-91.61"/>
</g>
<!-- Node15 -->
<g id="node15" class="node">
<title>Node15</title>
<g id="a_node15"><a xlink:title=" ">
<polygon fill="white" stroke="#bfbfbf" points="0,-67.5 0,-86.5 122,-86.5 122,-67.5 0,-67.5"/>
<text text-anchor="middle" x="61" y="-74.5" font-family="Helvetica,sans-Serif" font-size="10.00">autodiff/forward/dual.hpp</text>
</a>
</g>
</g>
<!-- Node8&#45;&gt;Node15 -->
<g id="edge14" class="edge">
<title>Node8&#45;&gt;Node15</title>
<path fill="none" stroke="midnightblue" d="M297.47,-123.44C248.04,-113.94 168.25,-98.61 115.22,-88.42"/>
<polygon fill="midnightblue" stroke="midnightblue" points="115.8,-84.97 105.32,-86.52 114.48,-91.84 115.8,-84.97"/>
</g>
<!-- Node16 -->
<g id="node16" class="node">
<title>Node16</title>
<g id="a_node16"><a xlink:title=" ">
<polygon fill="white" stroke="#bfbfbf" points="140,-67.5 140,-86.5 260,-86.5 260,-67.5 140,-67.5"/>
<text text-anchor="middle" x="200" y="-74.5" font-family="Helvetica,sans-Serif" font-size="10.00">autodiff/forward/real.hpp</text>
</a>
</g>
</g>
<!-- Node8&#45;&gt;Node16 -->
<g id="edge15" class="edge">
<title>Node8&#45;&gt;Node16</title>
<path fill="none" stroke="midnightblue" d="M319.5,-123.44C295.92,-114.48 258.68,-100.31 232.04,-90.18"/>
<polygon fill="midnightblue" stroke="midnightblue" points="232.99,-86.8 222.4,-86.52 230.5,-93.34 232.99,-86.8"/>
</g>
<!-- Node17 -->
<g id="node17" class="node">
<title>Node17</title>
<g id="a_node17"><a xlink:title=" ">
<polygon fill="white" stroke="#bfbfbf" points="278,-67.5 278,-86.5 334,-86.5 334,-67.5 278,-67.5"/>
<text text-anchor="middle" x="306" y="-74.5" font-family="Helvetica,sans-Serif" font-size="10.00">algorithm</text>
</a>
</g>
</g>
<!-- Node8&#45;&gt;Node17 -->
<g id="edge16" class="edge">
<title>Node8&#45;&gt;Node17</title>
<path fill="none" stroke="midnightblue" d="M336.06,-123.08C331.02,-115.53 323.66,-104.49 317.49,-95.23"/>
<polygon fill="midnightblue" stroke="midnightblue" points="320.29,-93.13 311.83,-86.75 314.47,-97.01 320.29,-93.13"/>
</g>
<!-- Node18 -->
<g id="node18" class="node">
<title>Node18</title>
<g id="a_node18"><a xlink:title=" ">
<polygon fill="white" stroke="#bfbfbf" points="352.5,-67.5 352.5,-86.5 405.5,-86.5 405.5,-67.5 352.5,-67.5"/>
<text text-anchor="middle" x="379" y="-74.5" font-family="Helvetica,sans-Serif" font-size="10.00">complex</text>
</a>
</g>
</g>
<!-- Node8&#45;&gt;Node18 -->
<g id="edge17" class="edge">
<title>Node8&#45;&gt;Node18</title>
<path fill="none" stroke="midnightblue" d="M348.11,-123.08C353.28,-115.53 360.85,-104.49 367.19,-95.23"/>
<polygon fill="midnightblue" stroke="midnightblue" points="370.24,-96.98 373,-86.75 364.46,-93.02 370.24,-96.98"/>
</g>
<!-- Node10 -->
<g id="node10" class="node">
<title>Node10</title>
<g id="a_node10"><a xlink:title=" ">
<polygon fill="white" stroke="#bfbfbf" points="459,-6 459,-25 503,-25 503,-6 459,-6"/>
<text text-anchor="middle" x="481" y="-13" font-family="Helvetica,sans-Serif" font-size="10.00">cmath</text>
</a>
</g>
</g>
<!-- Node9&#45;&gt;Node10 -->
<g id="edge9" class="edge">
<title>Node9&#45;&gt;Node10</title>
<path fill="none" stroke="midnightblue" d="M490.42,-67.48C488.87,-59.08 486.45,-45.98 484.45,-35.16"/>
<polygon fill="midnightblue" stroke="midnightblue" points="487.83,-34.21 482.57,-25.01 480.95,-35.48 487.83,-34.21"/>
</g>
<!-- Node12 -->
<g id="node12" class="node">
<title>Node12</title>
<g id="a_node12"><a xlink:title=" ">
<polygon fill="white" stroke="#bfbfbf" points="760,-6 760,-25 824,-25 824,-6 760,-6"/>
<text text-anchor="middle" x="792" y="-13" font-family="Helvetica,sans-Serif" font-size="10.00">Eigen/Core</text>
</a>
</g>
</g>
<!-- Node11&#45;&gt;Node12 -->
<g id="edge11" class="edge">
<title>Node11&#45;&gt;Node12</title>
<path fill="none" stroke="midnightblue" d="M684.05,-67.48C705.2,-57.49 740.44,-40.85 764.88,-29.31"/>
<polygon fill="midnightblue" stroke="midnightblue" points="766.43,-32.44 773.98,-25.01 763.44,-26.11 766.43,-32.44"/>
</g>
<!-- Node13 -->
<g id="node13" class="node">
<title>Node13</title>
<g id="a_node13"><a xlink:title=" ">
<polygon fill="white" stroke="#bfbfbf" points="521.5,-6 521.5,-25 592.5,-25 592.5,-6 521.5,-6"/>
<text text-anchor="middle" x="557" y="-13" font-family="Helvetica,sans-Serif" font-size="10.00">Eigen/Dense</text>
</a>
</g>
</g>
<!-- Node11&#45;&gt;Node13 -->
<g id="edge12" class="edge">
<title>Node11&#45;&gt;Node13</title>
<path fill="none" stroke="midnightblue" d="M650.38,-67.48C632.41,-57.67 602.68,-41.43 581.59,-29.92"/>
<polygon fill="midnightblue" stroke="midnightblue" points="583.04,-26.73 572.59,-25.01 579.69,-32.87 583.04,-26.73"/>
</g>
<!-- Node14 -->
<g id="node14" class="node">
<title>Node14</title>
<g id="a_node14"><a xlink:title=" ">
<polygon fill="white" stroke="#bfbfbf" points="610.5,-0.5 610.5,-30.5 741.5,-30.5 741.5,-0.5 610.5,-0.5"/>
<text text-anchor="start" x="618.5" y="-18.5" font-family="Helvetica,sans-Serif" font-size="10.00">unsupported/Eigen/CXX11</text>
<text text-anchor="middle" x="676" y="-7.5" font-family="Helvetica,sans-Serif" font-size="10.00">/Tensor</text>
</a>
</g>
</g>
<!-- Node11&#45;&gt;Node14 -->
<g id="edge13" class="edge">
<title>Node11&#45;&gt;Node14</title>
<path fill="none" stroke="midnightblue" d="M667.43,-67.48C668.62,-60.4 670.37,-49.97 671.98,-40.39"/>
<polygon fill="midnightblue" stroke="midnightblue" points="675.44,-40.96 673.64,-30.52 668.53,-39.8 675.44,-40.96"/>
</g>
<!-- Node19&#45;&gt;Node3 -->
<g id="edge23" class="edge">
<title>Node19&#45;&gt;Node3</title>
<path fill="none" stroke="midnightblue" d="M693.14,-251.87C668.85,-240.75 626.4,-221.32 598.24,-208.43"/>
<polygon fill="midnightblue" stroke="midnightblue" points="599.48,-205.15 588.93,-204.17 596.57,-211.51 599.48,-205.15"/>
</g>
<!-- Node19&#45;&gt;Node4 -->
<g id="edge21" class="edge">
<title>Node19&#45;&gt;Node4</title>
<path fill="none" stroke="midnightblue" d="M719.7,-251.81C738.24,-230.86 785.62,-177.35 809.61,-150.25"/>
<polygon fill="midnightblue" stroke="midnightblue" points="812.24,-152.56 816.25,-142.76 807,-147.92 812.24,-152.56"/>
</g>
<!-- Node19&#45;&gt;Node11 -->
<g id="edge22" class="edge">
<title>Node19&#45;&gt;Node11</title>
<path fill="none" stroke="midnightblue" d="M709.78,-251.7C702.69,-223.57 680.48,-135.46 670.7,-96.66"/>
<polygon fill="midnightblue" stroke="midnightblue" points="674.03,-95.56 668.2,-86.71 667.25,-97.27 674.03,-95.56"/>
</g>
<!-- Node20&#45;&gt;Node3 -->
<g id="edge25" class="edge">
<title>Node20&#45;&gt;Node3</title>
<path fill="none" stroke="midnightblue" d="M435.32,-246.4C465.9,-234.84 508.73,-218.66 537.82,-207.66"/>
<polygon fill="midnightblue" stroke="midnightblue" points="539.37,-210.82 547.49,-204.01 536.9,-204.27 539.37,-210.82"/>
</g>
<!-- Node22 -->
<g id="node22" class="node">
<title>Node22</title>
<g id="a_node22"><a xlink:href="MarmotMaterialGradientEnhancedMechanical_8h.html" target="_top" xlink:title=" ">
<polygon fill="white" stroke="black" points="981.5,-179.5 981.5,-209.5 1138.5,-209.5 1138.5,-179.5 981.5,-179.5"/>
<text text-anchor="start" x="989.5" y="-197.5" font-family="Helvetica,sans-Serif" font-size="10.00">Marmot/MarmotMaterialGradient</text>
<text text-anchor="middle" x="1060" y="-186.5" font-family="Helvetica,sans-Serif" font-size="10.00">EnhancedMechanical.h</text>
</a>
</g>
</g>
<!-- Node21&#45;&gt;Node22 -->
<g id="edge27" class="edge">
<title>Node21&#45;&gt;Node22</title>
<path fill="none" stroke="midnightblue" d="M1060,-246.4C1060,-238.64 1060,-228.81 1060,-219.86"/>
<polygon fill="midnightblue" stroke="midnightblue" points="1063.5,-219.58 1060,-209.58 1056.5,-219.58 1063.5,-219.58"/>
</g>
<!-- Node23 -->
<g id="node23" class="node">
<title>Node23</title>
<g id="a_node23"><a xlink:href="MarmotMaterial_8h.html" target="_top" xlink:title=" ">
<polygon fill="white" stroke="black" points="995,-123.5 995,-142.5 1123,-142.5 1123,-123.5 995,-123.5"/>
<text text-anchor="middle" x="1059" y="-130.5" font-family="Helvetica,sans-Serif" font-size="10.00">Marmot/MarmotMaterial.h</text>
</a>
</g>
</g>
<!-- Node22&#45;&gt;Node23 -->
<g id="edge28" class="edge">
<title>Node22&#45;&gt;Node23</title>
<path fill="none" stroke="midnightblue" d="M1059.76,-179.4C1059.63,-171.47 1059.46,-161.46 1059.32,-152.86"/>
<polygon fill="midnightblue" stroke="midnightblue" points="1062.81,-152.6 1059.15,-142.66 1055.81,-152.72 1062.81,-152.6"/>
</g>
<!-- Node23&#45;&gt;Node7 -->
<g id="edge30" class="edge">
<title>Node23&#45;&gt;Node7</title>
<path fill="none" stroke="midnightblue" d="M1043.74,-123.32C1028.78,-114.82 1005.75,-101.73 988.27,-91.8"/>
<polygon fill="midnightblue" stroke="midnightblue" points="989.65,-88.55 979.23,-86.65 986.19,-94.64 989.65,-88.55"/>
</g>
<!-- Node24 -->
<g id="node24" class="node">
<title>Node24</title>
<g id="a_node24"><a xlink:href="MarmotUtils_8h.html" target="_top" xlink:title=" ">
<polygon fill="white" stroke="black" points="1002.5,-67.5 1002.5,-86.5 1115.5,-86.5 1115.5,-67.5 1002.5,-67.5"/>
<text text-anchor="middle" x="1059" y="-74.5" font-family="Helvetica,sans-Serif" font-size="10.00">Marmot/MarmotUtils.h</text>
</a>
</g>
</g>
<!-- Node23&#45;&gt;Node24 -->
<g id="edge29" class="edge">
<title>Node23&#45;&gt;Node24</title>
<path fill="none" stroke="midnightblue" d="M1059,-123.08C1059,-116.01 1059,-105.86 1059,-96.99"/>
<polygon fill="midnightblue" stroke="midnightblue" points="1062.5,-96.75 1059,-86.75 1055.5,-96.75 1062.5,-96.75"/>
</g>
<!-- Node25&#45;&gt;Node3 -->
<g id="edge35" class="edge">
<title>Node25&#45;&gt;Node3</title>
<path fill="none" stroke="midnightblue" d="M824.39,-251.94C771.47,-240.2 676.41,-219.11 618.67,-206.3"/>
<polygon fill="midnightblue" stroke="midnightblue" points="619.21,-202.83 608.69,-204.08 617.7,-209.67 619.21,-202.83"/>
</g>
<!-- Node25&#45;&gt;Node4 -->
<g id="edge33" class="edge">
<title>Node25&#45;&gt;Node4</title>
<path fill="none" stroke="midnightblue" d="M861.53,-251.79C858.86,-236.71 852.69,-204.9 844,-179 840.94,-169.88 836.71,-160.09 832.92,-151.97"/>
<polygon fill="midnightblue" stroke="midnightblue" points="835.98,-150.26 828.49,-142.77 829.68,-153.3 835.98,-150.26"/>
</g>
<!-- Node25&#45;&gt;Node5 -->
<g id="edge36" class="edge">
<title>Node25&#45;&gt;Node5</title>
<path fill="none" stroke="midnightblue" d="M866.28,-251.82C873.35,-232.58 889.92,-184.73 896,-143 898.24,-127.62 898.36,-109.99 897.99,-96.97"/>
<polygon fill="midnightblue" stroke="midnightblue" points="901.49,-96.74 897.58,-86.89 894.49,-97.02 901.49,-96.74"/>
</g>
<!-- Node25&#45;&gt;Node11 -->
<g id="edge34" class="edge">
<title>Node25&#45;&gt;Node11</title>
<path fill="none" stroke="midnightblue" d="M847.97,-251.99C832.07,-242.67 806.62,-226.79 787,-210 743.49,-172.78 699.96,-120.79 678.95,-94.55"/>
<polygon fill="midnightblue" stroke="midnightblue" points="681.68,-92.36 672.73,-86.7 676.2,-96.71 681.68,-92.36"/>
</g>
<!-- Node26 -->
<g id="node26" class="node">
<title>Node26</title>
<g id="a_node26"><a xlink:title=" ">
<polygon fill="white" stroke="#bfbfbf" points="795.5,-185 795.5,-204 834.5,-204 834.5,-185 795.5,-185"/>
<text text-anchor="middle" x="815" y="-192" font-family="Helvetica,sans-Serif" font-size="10.00">utility</text>
</a>
</g>
</g>
<!-- Node25&#45;&gt;Node26 -->
<g id="edge37" class="edge">
<title>Node25&#45;&gt;Node26</title>
<path fill="none" stroke="midnightblue" d="M856.53,-251.73C849.11,-241.7 836.8,-225.01 827.5,-212.42"/>
<polygon fill="midnightblue" stroke="midnightblue" points="830.13,-210.09 821.37,-204.13 824.5,-214.25 830.13,-210.09"/>
</g>
</g>
</svg>
        <g id="navigator" transform="translate(0 0)" fill="#404254">
                <rect fill="#f2f5e9" fill-opacity="0.5" stroke="#606060" stroke-width=".5" x="0" y="0" width="60" height="60"/>
                <use id="zoomplus" xlink:href="#zoomPlus" x="17" y="9" onmousedown="handleZoom(evt,'in')"/>
                <use id="zoomminus" xlink:href="#zoomMin" x="42" y="9" onmousedown="handleZoom(evt,'out')"/>
                <use id="reset" xlink:href="#resetDef" x="30" y="36" onmousedown="handleReset()"/>
                <g id="arrowUp" xlink:href="#dirArrow" transform="translate(30 24)" onmousedown="handlePan(0,-1)">
                  <use xlink:href="#rim" fill="#404040">
                        <set attributeName="fill" to="#808080" begin="arrowUp.mouseover" end="arrowUp.mouseout"/>
                  </use>
                  <path fill="none" stroke="white" stroke-width="1.5" d="M0,-3.0v7 M-2.5,-0.5L0,-3.0L2.5,-0.5"/>
                </g>
                <g id="arrowRight" xlink:href="#dirArrow" transform="rotate(90) translate(36 -43)" onmousedown="handlePan(1,0)">
                  <use xlink:href="#rim" fill="#404040">
                        <set attributeName="fill" to="#808080" begin="arrowRight.mouseover" end="arrowRight.mouseout"/>
                  </use>
                  <path fill="none" stroke="white" stroke-width="1.5" d="M0,-3.0v7 M-2.5,-0.5L0,-3.0L2.5,-0.5"/>
                </g>
                <g id="arrowDown" xlink:href="#dirArrow" transform="rotate(180) translate(-30 -48)" onmousedown="handlePan(0,1)">
                  <use xlink:href="#rim" fill="#404040">
                        <set attributeName="fill" to="#808080" begin="arrowDown.mouseover" end="arrowDown.mouseout"/>
                  </use>
                  <path fill="none" stroke="white" stroke-width="1.5" d="M0,-3.0v7 M-2.5,-0.5L0,-3.0L2.5,-0.5"/>
                </g>
                <g id="arrowLeft" xlink:href="#dirArrow" transform="rotate(270) translate(-36 17)" onmousedown="handlePan(-1,0)">
                  <use xlink:href="#rim" fill="#404040">
                        <set attributeName="fill" to="#808080" begin="arrowLeft.mouseover" end="arrowLeft.mouseout"/>
                  </use>
                  <path fill="none" stroke="white" stroke-width="1.5" d="M0,-3.0v7 M-2.5,-0.5L0,-3.0L2.5,-0.5"/>
                </g>
        </g>
        <svg viewBox="0 0 15 15" width="100%" height="30px" preserveAspectRatio="xMaxYMin meet">
         <g id="arrow_out" transform="scale(0.3 0.3)">
          <a xlink:href="MarmotMaterialHypoElasticNonLocal_8cpp__incl_org.svg" target="_base">
           <rect id="button" ry="5" rx="5" y="6" x="6" height="38" width="38"
                fill="#f2f5e9" fill-opacity="0.5" stroke="#606060" stroke-width="1.0"/>
           <path id="arrow"
             d="M 11.500037,31.436501 C 11.940474,20.09759 22.043105,11.32322 32.158766,21.979434 L 37.068811,17.246167 C 37.068811,17.246167 37.088388,32 37.088388,32 L 22.160133,31.978069 C 22.160133,31.978069 26.997745,27.140456 26.997745,27.140456 C 18.528582,18.264221 13.291696,25.230495 11.500037,31.436501 z"
             style="fill:#404040;"/>
          </a>
         </g>
        </svg>
</svg>
