<?xml version="1.0" encoding="UTF-8" standalone="no"?>
<!DOCTYPE svg PUBLIC "-//W3C//DTD SVG 1.1//EN"
 "http://www.w3.org/Graphics/SVG/1.1/DTD/svg11.dtd">
<!-- Generated by graphviz version 2.46.1 (20210215.1649)
 -->
<!-- Title: modules/core/MarmotMechanicsCore/src/MarmotUtility.cpp Pages: 1 -->
<svg width="513pt" height="218pt"
 viewBox="0.00 0.00 512.50 218.00" xmlns="http://www.w3.org/2000/svg" xmlns:xlink="http://www.w3.org/1999/xlink">
<g id="graph0" class="graph" transform="scale(1 1) rotate(0) translate(4 214)">
<title>modules/core/MarmotMechanicsCore/src/MarmotUtility.cpp</title>
<polygon fill="white" stroke="transparent" points="-4,4 -4,-214 508.5,-214 508.5,4 -4,4"/>
<!-- Node1 -->
<g id="node1" class="node">
<title>Node1</title>
<g id="a_node1"><a xlink:title=" ">
<polygon fill="#bfbfbf" stroke="black" points="173,-179.5 173,-209.5 331,-209.5 331,-179.5 173,-179.5"/>
<text text-anchor="start" x="181" y="-197.5" font-family="Helvetica,sans-Serif" font-size="10.00">modules/core/MarmotMechanics</text>
<text text-anchor="middle" x="252" y="-186.5" font-family="Helvetica,sans-Serif" font-size="10.00">Core/src/MarmotUtility.cpp</text>
</a>
</g>
</g>
<!-- Node2 -->
<g id="node2" class="node">
<title>Node2</title>
<g id="a_node2"><a xlink:href="MarmotJournal_8h.html" target="_top" xlink:title=" ">
<polygon fill="white" stroke="black" points="60.5,-67.5 60.5,-86.5 185.5,-86.5 185.5,-67.5 60.5,-67.5"/>
<text text-anchor="middle" x="123" y="-74.5" font-family="Helvetica,sans-Serif" font-size="10.00">Marmot/MarmotJournal.h</text>
</a>
</g>
</g>
<!-- Node1&#45;&gt;Node2 -->
<g id="edge1" class="edge">
<title>Node1&#45;&gt;Node2</title>
<path fill="none" stroke="midnightblue" d="M198.81,-179.49C178.53,-171.74 156.77,-160.1 142,-143 130.84,-130.08 126.23,-110.91 124.33,-96.73"/>
<polygon fill="midnightblue" stroke="midnightblue" points="127.8,-96.25 123.31,-86.65 120.83,-96.95 127.8,-96.25"/>
</g>
<!-- Node6 -->
<g id="node6" class="node">
<title>Node6</title>
<g id="a_node6"><a xlink:href="MarmotTypedefs_8h.html" target="_top" xlink:title=" ">
<polygon fill="white" stroke="black" points="240.5,-67.5 240.5,-86.5 373.5,-86.5 373.5,-67.5 240.5,-67.5"/>
<text text-anchor="middle" x="307" y="-74.5" font-family="Helvetica,sans-Serif" font-size="10.00">Marmot/MarmotTypedefs.h</text>
</a>
</g>
</g>
<!-- Node1&#45;&gt;Node6 -->
<g id="edge5" class="edge">
<title>Node1&#45;&gt;Node6</title>
<path fill="none" stroke="midnightblue" d="M258.74,-179.34C268.74,-158.34 287.5,-118.96 298.45,-95.96"/>
<polygon fill="midnightblue" stroke="midnightblue" points="301.73,-97.2 302.87,-86.67 295.41,-94.19 301.73,-97.2"/>
</g>
<!-- Node10 -->
<g id="node10" class="node">
<title>Node10</title>
<g id="a_node10"><a xlink:href="MarmotUtility_8h.html" target="_top" xlink:title=" ">
<polygon fill="white" stroke="black" points="323,-123.5 323,-142.5 441,-142.5 441,-123.5 323,-123.5"/>
<text text-anchor="middle" x="382" y="-130.5" font-family="Helvetica,sans-Serif" font-size="10.00">Marmot/MarmotUtility.h</text>
</a>
</g>
</g>
<!-- Node1&#45;&gt;Node10 -->
<g id="edge9" class="edge">
<title>Node1&#45;&gt;Node10</title>
<path fill="none" stroke="midnightblue" d="M282.81,-179.4C304.33,-169.55 332.84,-156.5 353.77,-146.92"/>
<polygon fill="midnightblue" stroke="midnightblue" points="355.45,-150 363.08,-142.66 352.53,-143.64 355.45,-150"/>
</g>
<!-- Node11 -->
<g id="node11" class="node">
<title>Node11</title>
<g id="a_node11"><a xlink:href="MarmotVoigt_8h.html" target="_top" xlink:title=" ">
<polygon fill="white" stroke="black" points="151,-123.5 151,-142.5 267,-142.5 267,-123.5 151,-123.5"/>
<text text-anchor="middle" x="209" y="-130.5" font-family="Helvetica,sans-Serif" font-size="10.00">Marmot/MarmotVoigt.h</text>
</a>
</g>
</g>
<!-- Node1&#45;&gt;Node11 -->
<g id="edge11" class="edge">
<title>Node1&#45;&gt;Node11</title>
<path fill="none" stroke="midnightblue" d="M241.81,-179.4C235.63,-170.84 227.7,-159.87 221.18,-150.86"/>
<polygon fill="midnightblue" stroke="midnightblue" points="223.95,-148.71 215.26,-142.66 218.28,-152.81 223.95,-148.71"/>
</g>
<!-- Node3 -->
<g id="node3" class="node">
<title>Node3</title>
<g id="a_node3"><a xlink:title=" ">
<polygon fill="white" stroke="#bfbfbf" points="0,-6 0,-25 54,-25 54,-6 0,-6"/>
<text text-anchor="middle" x="27" y="-13" font-family="Helvetica,sans-Serif" font-size="10.00">iostream</text>
</a>
</g>
</g>
<!-- Node2&#45;&gt;Node3 -->
<g id="edge2" class="edge">
<title>Node2&#45;&gt;Node3</title>
<path fill="none" stroke="midnightblue" d="M109.25,-67.48C93.63,-57.8 67.94,-41.87 49.42,-30.39"/>
<polygon fill="midnightblue" stroke="midnightblue" points="51.07,-27.3 40.73,-25.01 47.38,-33.25 51.07,-27.3"/>
</g>
<!-- Node4 -->
<g id="node4" class="node">
<title>Node4</title>
<g id="a_node4"><a xlink:title=" ">
<polygon fill="white" stroke="#bfbfbf" points="72,-6 72,-25 124,-25 124,-6 72,-6"/>
<text text-anchor="middle" x="98" y="-13" font-family="Helvetica,sans-Serif" font-size="10.00">sstream</text>
</a>
</g>
</g>
<!-- Node2&#45;&gt;Node4 -->
<g id="edge3" class="edge">
<title>Node2&#45;&gt;Node4</title>
<path fill="none" stroke="midnightblue" d="M119.42,-67.48C115.82,-58.9 110.15,-45.43 105.56,-34.48"/>
<polygon fill="midnightblue" stroke="midnightblue" points="108.68,-32.87 101.58,-25.01 102.22,-35.58 108.68,-32.87"/>
</g>
<!-- Node5 -->
<g id="node5" class="node">
<title>Node5</title>
<g id="a_node5"><a xlink:title=" ">
<polygon fill="white" stroke="#bfbfbf" points="142.5,-6 142.5,-25 183.5,-25 183.5,-6 142.5,-6"/>
<text text-anchor="middle" x="163" y="-13" font-family="Helvetica,sans-Serif" font-size="10.00">string</text>
</a>
</g>
</g>
<!-- Node2&#45;&gt;Node5 -->
<g id="edge4" class="edge">
<title>Node2&#45;&gt;Node5</title>
<path fill="none" stroke="midnightblue" d="M128.73,-67.48C134.67,-58.64 144.12,-44.59 151.59,-33.48"/>
<polygon fill="midnightblue" stroke="midnightblue" points="154.61,-35.26 157.28,-25.01 148.8,-31.36 154.61,-35.26"/>
</g>
<!-- Node7 -->
<g id="node7" class="node">
<title>Node7</title>
<g id="a_node7"><a xlink:title=" ">
<polygon fill="white" stroke="#bfbfbf" points="202,-6 202,-25 266,-25 266,-6 202,-6"/>
<text text-anchor="middle" x="234" y="-13" font-family="Helvetica,sans-Serif" font-size="10.00">Eigen/Core</text>
</a>
</g>
</g>
<!-- Node6&#45;&gt;Node7 -->
<g id="edge6" class="edge">
<title>Node6&#45;&gt;Node7</title>
<path fill="none" stroke="midnightblue" d="M296.54,-67.48C285.05,-58.11 266.37,-42.88 252.41,-31.51"/>
<polygon fill="midnightblue" stroke="midnightblue" points="254.4,-28.61 244.44,-25.01 249.98,-34.04 254.4,-28.61"/>
</g>
<!-- Node8 -->
<g id="node8" class="node">
<title>Node8</title>
<g id="a_node8"><a xlink:title=" ">
<polygon fill="white" stroke="#bfbfbf" points="284.5,-6 284.5,-25 355.5,-25 355.5,-6 284.5,-6"/>
<text text-anchor="middle" x="320" y="-13" font-family="Helvetica,sans-Serif" font-size="10.00">Eigen/Dense</text>
</a>
</g>
</g>
<!-- Node6&#45;&gt;Node8 -->
<g id="edge7" class="edge">
<title>Node6&#45;&gt;Node8</title>
<path fill="none" stroke="midnightblue" d="M308.86,-67.48C310.72,-58.99 313.62,-45.7 316,-34.82"/>
<polygon fill="midnightblue" stroke="midnightblue" points="319.43,-35.53 318.14,-25.01 312.59,-34.03 319.43,-35.53"/>
</g>
<!-- Node9 -->
<g id="node9" class="node">
<title>Node9</title>
<g id="a_node9"><a xlink:title=" ">
<polygon fill="white" stroke="#bfbfbf" points="373.5,-0.5 373.5,-30.5 504.5,-30.5 504.5,-0.5 373.5,-0.5"/>
<text text-anchor="start" x="381.5" y="-18.5" font-family="Helvetica,sans-Serif" font-size="10.00">unsupported/Eigen/CXX11</text>
<text text-anchor="middle" x="439" y="-7.5" font-family="Helvetica,sans-Serif" font-size="10.00">/Tensor</text>
</a>
</g>
</g>
<!-- Node6&#45;&gt;Node9 -->
<g id="edge8" class="edge">
<title>Node6&#45;&gt;Node9</title>
<path fill="none" stroke="midnightblue" d="M325.91,-67.48C344.79,-58.96 374.4,-45.62 398.58,-34.72"/>
<polygon fill="midnightblue" stroke="midnightblue" points="400.21,-37.82 407.89,-30.52 397.34,-31.44 400.21,-37.82"/>
</g>
<!-- Node10&#45;&gt;Node6 -->
<g id="edge10" class="edge">
<title>Node10&#45;&gt;Node6</title>
<path fill="none" stroke="midnightblue" d="M369.95,-123.32C358.54,-115.11 341.17,-102.6 327.57,-92.81"/>
<polygon fill="midnightblue" stroke="midnightblue" points="329.43,-89.84 319.27,-86.83 325.34,-95.52 329.43,-89.84"/>
</g>
<!-- Node11&#45;&gt;Node2 -->
<g id="edge12" class="edge">
<title>Node11&#45;&gt;Node2</title>
<path fill="none" stroke="midnightblue" d="M195.18,-123.32C181.77,-114.9 161.18,-101.97 145.41,-92.07"/>
<polygon fill="midnightblue" stroke="midnightblue" points="147.11,-89.01 136.78,-86.65 143.39,-94.94 147.11,-89.01"/>
</g>
<!-- Node11&#45;&gt;Node6 -->
<g id="edge13" class="edge">
<title>Node11&#45;&gt;Node6</title>
<path fill="none" stroke="midnightblue" d="M224.75,-123.32C240.32,-114.74 264.38,-101.49 282.46,-91.52"/>
<polygon fill="midnightblue" stroke="midnightblue" points="284.22,-94.55 291.29,-86.65 280.85,-88.42 284.22,-94.55"/>
</g>
</g>
</svg>
