<?xml version="1.0" encoding="UTF-8" standalone="no"?>
<!DOCTYPE svg PUBLIC "-//W3C//DTD SVG 1.1//EN"
 "http://www.w3.org/Graphics/SVG/1.1/DTD/svg11.dtd">
<!-- Generated by graphviz version 2.44.0 ()
 -->
<!-- Title: modules/core/MarmotMathCore/include/Marmot/MarmotTensor.h Pages: 1 -->
<svg width="2340pt" height="195pt"
 viewBox="0.00 0.00 2340.00 195.00" xmlns="http://www.w3.org/2000/svg" xmlns:xlink="http://www.w3.org/1999/xlink">
<g id="graph0" class="graph" transform="scale(1 1) rotate(0) translate(4 191)">
<title>modules/core/MarmotMathCore/include/Marmot/MarmotTensor.h</title>
<polygon fill="white" stroke="transparent" points="-4,4 -4,-191 2336,-191 2336,4 -4,4"/>
<!-- Node1 -->
<g id="node1" class="node">
<title>Node1</title>
<g id="a_node1"><a xlink:title=" ">
<polygon fill="#bfbfbf" stroke="black" points="1024.5,-156.5 1024.5,-186.5 1184.5,-186.5 1184.5,-156.5 1024.5,-156.5"/>
<text text-anchor="start" x="1032.5" y="-174.5" font-family="Helvetica,sans-Serif" font-size="10.00">modules/core/MarmotMathCore</text>
<text text-anchor="middle" x="1104.5" y="-163.5" font-family="Helvetica,sans-Serif" font-size="10.00">/include/Marmot/MarmotTensor.h</text>
</a>
</g>
</g>
<!-- Node2 -->
<g id="node2" class="node">
<title>Node2</title>
<g id="a_node2"><a xlink:href="MarmotAutomaticDifferentiation_8h.html" target="_top" xlink:title=" ">
<polygon fill="white" stroke="black" points="103,-78.5 103,-119.5 270,-119.5 270,-78.5 103,-78.5"/>
<text text-anchor="start" x="111" y="-107.5" font-family="Helvetica,sans-Serif" font-size="10.00">modules/core/MarmotMathCore</text>
<text text-anchor="start" x="111" y="-96.5" font-family="Helvetica,sans-Serif" font-size="10.00">/include/Marmot/MarmotAutomatic</text>
<text text-anchor="middle" x="186.5" y="-85.5" font-family="Helvetica,sans-Serif" font-size="10.00">Differentiation.h</text>
</a>
</g>
</g>
<!-- Node1&#45;&gt;Node2 -->
<g id="edge1" class="edge">
<title>Node1&#45;&gt;Node2</title>
<path fill="none" stroke="midnightblue" d="M1014.11,-169.13C862.46,-165.89 547.45,-155.15 283.5,-120 279.15,-119.42 274.71,-118.76 270.23,-118.04"/>
<polygon fill="midnightblue" stroke="midnightblue" points="1014.23,-172.63 1024.3,-169.34 1014.38,-165.63 1014.23,-172.63"/>
</g>
<!-- Node4 -->
<g id="node4" class="node">
<title>Node4</title>
<g id="a_node4"><a xlink:href="MarmotMaterialHypoElasticAD_8cpp.html" target="_top" xlink:title=" ">
<polygon fill="white" stroke="black" points="209.5,-0.5 209.5,-41.5 385.5,-41.5 385.5,-0.5 209.5,-0.5"/>
<text text-anchor="start" x="217.5" y="-29.5" font-family="Helvetica,sans-Serif" font-size="10.00">modules/core/MarmotMechanics</text>
<text text-anchor="start" x="217.5" y="-18.5" font-family="Helvetica,sans-Serif" font-size="10.00">Core/src/MarmotMaterialHypoElastic</text>
<text text-anchor="middle" x="297.5" y="-7.5" font-family="Helvetica,sans-Serif" font-size="10.00">AD.cpp</text>
</a>
</g>
</g>
<!-- Node1&#45;&gt;Node4 -->
<g id="edge12" class="edge">
<title>Node1&#45;&gt;Node4</title>
<path fill="none" stroke="midnightblue" d="M1014.1,-170.76C818.42,-170.47 369,-164.87 317.5,-120 295.38,-100.72 293.75,-64.19 295.19,-41.58"/>
<polygon fill="midnightblue" stroke="midnightblue" points="1014.35,-174.26 1024.36,-170.77 1014.36,-167.26 1014.35,-174.26"/>
</g>
<!-- Node5 -->
<g id="node5" class="node">
<title>Node5</title>
<g id="a_node5"><a xlink:href="MarmotTensor_8cpp.html" target="_top" xlink:title=" ">
<polygon fill="white" stroke="black" points="326,-84 326,-114 479,-114 479,-84 326,-84"/>
<text text-anchor="start" x="334" y="-102" font-family="Helvetica,sans-Serif" font-size="10.00">modules/core/MarmotMathCore</text>
<text text-anchor="middle" x="402.5" y="-91" font-family="Helvetica,sans-Serif" font-size="10.00">/src/MarmotTensor.cpp</text>
</a>
</g>
</g>
<!-- Node1&#45;&gt;Node5 -->
<g id="edge4" class="edge">
<title>Node1&#45;&gt;Node5</title>
<path fill="none" stroke="midnightblue" d="M1014.04,-167.24C893.51,-161.95 673.92,-149 488.5,-120 478.35,-118.41 467.63,-116.29 457.32,-114.01"/>
<polygon fill="midnightblue" stroke="midnightblue" points="1014.18,-170.75 1024.32,-167.68 1014.48,-163.75 1014.18,-170.75"/>
</g>
<!-- Node6 -->
<g id="node6" class="node">
<title>Node6</title>
<g id="a_node6"><a xlink:href="HaighWestergaard_8cpp.html" target="_top" xlink:title=" ">
<polygon fill="white" stroke="black" points="497.5,-84 497.5,-114 655.5,-114 655.5,-84 497.5,-84"/>
<text text-anchor="start" x="505.5" y="-102" font-family="Helvetica,sans-Serif" font-size="10.00">modules/core/MarmotMechanics</text>
<text text-anchor="middle" x="576.5" y="-91" font-family="Helvetica,sans-Serif" font-size="10.00">Core/src/HaighWestergaard.cpp</text>
</a>
</g>
</g>
<!-- Node1&#45;&gt;Node6 -->
<g id="edge5" class="edge">
<title>Node1&#45;&gt;Node6</title>
<path fill="none" stroke="midnightblue" d="M1014.15,-163.04C924.92,-154.99 784.74,-140.5 664.5,-120 654.62,-118.31 644.17,-116.22 634.07,-114.03"/>
<polygon fill="midnightblue" stroke="midnightblue" points="1013.97,-166.54 1024.24,-163.94 1014.59,-159.56 1013.97,-166.54"/>
</g>
<!-- Node7 -->
<g id="node7" class="node">
<title>Node7</title>
<g id="a_node7"><a xlink:href="HughesWinget_8cpp.html" target="_top" xlink:title=" ">
<polygon fill="white" stroke="black" points="673.5,-84 673.5,-114 831.5,-114 831.5,-84 673.5,-84"/>
<text text-anchor="start" x="681.5" y="-102" font-family="Helvetica,sans-Serif" font-size="10.00">modules/core/MarmotMechanics</text>
<text text-anchor="middle" x="752.5" y="-91" font-family="Helvetica,sans-Serif" font-size="10.00">Core/src/HughesWinget.cpp</text>
</a>
</g>
</g>
<!-- Node1&#45;&gt;Node7 -->
<g id="edge6" class="edge">
<title>Node1&#45;&gt;Node7</title>
<path fill="none" stroke="midnightblue" d="M1017.16,-154.57C965.66,-144.99 899.27,-132.3 840.5,-120 831.61,-118.14 822.22,-116.09 813.03,-114.05"/>
<polygon fill="midnightblue" stroke="midnightblue" points="1016.78,-158.06 1027.25,-156.45 1018.06,-151.18 1016.78,-158.06"/>
</g>
<!-- Node8 -->
<g id="node8" class="node">
<title>Node8</title>
<g id="a_node8"><a xlink:href="MarmotKinematics_8cpp.html" target="_top" xlink:title=" ">
<polygon fill="white" stroke="black" points="849.5,-84 849.5,-114 1007.5,-114 1007.5,-84 849.5,-84"/>
<text text-anchor="start" x="857.5" y="-102" font-family="Helvetica,sans-Serif" font-size="10.00">modules/core/MarmotMechanics</text>
<text text-anchor="middle" x="928.5" y="-91" font-family="Helvetica,sans-Serif" font-size="10.00">Core/src/MarmotKinematics.cpp</text>
</a>
</g>
</g>
<!-- Node1&#45;&gt;Node8 -->
<g id="edge7" class="edge">
<title>Node1&#45;&gt;Node8</title>
<path fill="none" stroke="midnightblue" d="M1059.95,-152.65C1030.09,-140.69 991.31,-125.16 963.63,-114.07"/>
<polygon fill="midnightblue" stroke="midnightblue" points="1058.72,-155.93 1069.31,-156.4 1061.33,-149.44 1058.72,-155.93"/>
</g>
<!-- Node9 -->
<g id="node9" class="node">
<title>Node9</title>
<g id="a_node9"><a xlink:href="MarmotLocalization_8cpp.html" target="_top" xlink:title=" ">
<polygon fill="white" stroke="black" points="1025,-84 1025,-114 1184,-114 1184,-84 1025,-84"/>
<text text-anchor="start" x="1033" y="-102" font-family="Helvetica,sans-Serif" font-size="10.00">modules/core/MarmotMechanics</text>
<text text-anchor="middle" x="1104.5" y="-91" font-family="Helvetica,sans-Serif" font-size="10.00">Core/src/MarmotLocalization.cpp</text>
</a>
</g>
</g>
<!-- Node1&#45;&gt;Node9 -->
<g id="edge8" class="edge">
<title>Node1&#45;&gt;Node9</title>
<path fill="none" stroke="midnightblue" d="M1104.5,-146.23C1104.5,-135.57 1104.5,-123.41 1104.5,-114.25"/>
<polygon fill="midnightblue" stroke="midnightblue" points="1101,-146.23 1104.5,-156.23 1108,-146.23 1101,-146.23"/>
</g>
<!-- Node10 -->
<g id="node10" class="node">
<title>Node10</title>
<g id="a_node10"><a xlink:href="MarmotLowerDimensionalStress_8cpp.html" target="_top" xlink:title=" ">
<polygon fill="white" stroke="black" points="1202.5,-78.5 1202.5,-119.5 1372.5,-119.5 1372.5,-78.5 1202.5,-78.5"/>
<text text-anchor="start" x="1210.5" y="-107.5" font-family="Helvetica,sans-Serif" font-size="10.00">modules/core/MarmotMechanics</text>
<text text-anchor="start" x="1210.5" y="-96.5" font-family="Helvetica,sans-Serif" font-size="10.00">Core/src/MarmotLowerDimensional</text>
<text text-anchor="middle" x="1287.5" y="-85.5" font-family="Helvetica,sans-Serif" font-size="10.00">Stress.cpp</text>
</a>
</g>
</g>
<!-- Node1&#45;&gt;Node10 -->
<g id="edge9" class="edge">
<title>Node1&#45;&gt;Node10</title>
<path fill="none" stroke="midnightblue" d="M1150.45,-152.8C1176.72,-142.68 1209.73,-129.96 1236.76,-119.55"/>
<polygon fill="midnightblue" stroke="midnightblue" points="1149.17,-149.54 1141.09,-156.4 1151.68,-156.07 1149.17,-149.54"/>
</g>
<!-- Node11 -->
<g id="node11" class="node">
<title>Node11</title>
<g id="a_node11"><a xlink:href="MarmotMaterialHyperElastic_8cpp.html" target="_top" xlink:title=" ">
<polygon fill="white" stroke="black" points="1391,-84 1391,-114 1588,-114 1588,-84 1391,-84"/>
<text text-anchor="start" x="1399" y="-102" font-family="Helvetica,sans-Serif" font-size="10.00">modules/core/MarmotMechanics</text>
<text text-anchor="middle" x="1489.5" y="-91" font-family="Helvetica,sans-Serif" font-size="10.00">Core/src/MarmotMaterialHyperElastic.cpp</text>
</a>
</g>
</g>
<!-- Node1&#45;&gt;Node11 -->
<g id="edge10" class="edge">
<title>Node1&#45;&gt;Node11</title>
<path fill="none" stroke="midnightblue" d="M1191.8,-154.65C1246.34,-144.73 1318.02,-131.66 1381.5,-120 1392,-118.07 1403.08,-116.03 1413.97,-114.01"/>
<polygon fill="midnightblue" stroke="midnightblue" points="1191.04,-151.23 1181.82,-156.46 1192.29,-158.12 1191.04,-151.23"/>
</g>
<!-- Node12 -->
<g id="node12" class="node">
<title>Node12</title>
<g id="a_node12"><a xlink:href="MarmotMaterialHypoElastic_8cpp.html" target="_top" xlink:title=" ">
<polygon fill="white" stroke="black" points="1606.5,-84 1606.5,-114 1800.5,-114 1800.5,-84 1606.5,-84"/>
<text text-anchor="start" x="1614.5" y="-102" font-family="Helvetica,sans-Serif" font-size="10.00">modules/core/MarmotMechanics</text>
<text text-anchor="middle" x="1703.5" y="-91" font-family="Helvetica,sans-Serif" font-size="10.00">Core/src/MarmotMaterialHypoElastic.cpp</text>
</a>
</g>
</g>
<!-- Node1&#45;&gt;Node12 -->
<g id="edge11" class="edge">
<title>Node1&#45;&gt;Node12</title>
<path fill="none" stroke="midnightblue" d="M1194.57,-163.57C1293.62,-155.42 1457.36,-140.36 1597.5,-120 1609.27,-118.29 1621.72,-116.2 1633.79,-114.02"/>
<polygon fill="midnightblue" stroke="midnightblue" points="1194.28,-160.08 1184.59,-164.39 1194.85,-167.06 1194.28,-160.08"/>
</g>
<!-- Node13 -->
<g id="node13" class="node">
<title>Node13</title>
<g id="a_node13"><a xlink:href="MarmotMaterialHypoElasticNonLocal_8cpp.html" target="_top" xlink:title=" ">
<polygon fill="white" stroke="black" points="1818.5,-78.5 1818.5,-119.5 1994.5,-119.5 1994.5,-78.5 1818.5,-78.5"/>
<text text-anchor="start" x="1826.5" y="-107.5" font-family="Helvetica,sans-Serif" font-size="10.00">modules/core/MarmotMechanics</text>
<text text-anchor="start" x="1826.5" y="-96.5" font-family="Helvetica,sans-Serif" font-size="10.00">Core/src/MarmotMaterialHypoElastic</text>
<text text-anchor="middle" x="1906.5" y="-85.5" font-family="Helvetica,sans-Serif" font-size="10.00">NonLocal.cpp</text>
</a>
</g>
</g>
<!-- Node1&#45;&gt;Node13 -->
<g id="edge13" class="edge">
<title>Node1&#45;&gt;Node13</title>
<path fill="none" stroke="midnightblue" d="M1194.94,-167.83C1329.47,-163.01 1590.04,-150.35 1809.5,-120 1812.4,-119.6 1815.33,-119.16 1818.3,-118.7"/>
<polygon fill="midnightblue" stroke="midnightblue" points="1194.55,-164.35 1184.68,-168.2 1194.8,-171.34 1194.55,-164.35"/>
</g>
<!-- Node14 -->
<g id="node14" class="node">
<title>Node14</title>
<g id="a_node14"><a xlink:href="MarmotVoigt_8cpp.html" target="_top" xlink:title=" ">
<polygon fill="white" stroke="black" points="2012.5,-84 2012.5,-114 2170.5,-114 2170.5,-84 2012.5,-84"/>
<text text-anchor="start" x="2020.5" y="-102" font-family="Helvetica,sans-Serif" font-size="10.00">modules/core/MarmotMechanics</text>
<text text-anchor="middle" x="2091.5" y="-91" font-family="Helvetica,sans-Serif" font-size="10.00">Core/src/MarmotVoigt.cpp</text>
</a>
</g>
</g>
<!-- Node1&#45;&gt;Node14 -->
<g id="edge14" class="edge">
<title>Node1&#45;&gt;Node14</title>
<path fill="none" stroke="midnightblue" d="M1195.05,-170.41C1357.72,-169.13 1709.83,-161.32 2003.5,-120 2014.21,-118.49 2025.53,-116.35 2036.37,-114.01"/>
<polygon fill="midnightblue" stroke="midnightblue" points="1194.59,-166.91 1184.61,-170.48 1194.64,-173.91 1194.59,-166.91"/>
</g>
<!-- Node15 -->
<g id="node15" class="node">
<title>Node15</title>
<g id="a_node15"><a xlink:href="VonMises_8cpp.html" target="_top" xlink:title=" ">
<polygon fill="white" stroke="black" points="2189,-84 2189,-114 2332,-114 2332,-84 2189,-84"/>
<text text-anchor="start" x="2197" y="-102" font-family="Helvetica,sans-Serif" font-size="10.00">modules/materials/VonMises</text>
<text text-anchor="middle" x="2260.5" y="-91" font-family="Helvetica,sans-Serif" font-size="10.00">/src/VonMises.cpp</text>
</a>
</g>
</g>
<!-- Node1&#45;&gt;Node15 -->
<g id="edge15" class="edge">
<title>Node1&#45;&gt;Node15</title>
<path fill="none" stroke="midnightblue" d="M1194.62,-168.53C1417.55,-163.29 1990.47,-147.51 2179.5,-120 2189.53,-118.54 2200.14,-116.38 2210.25,-114.02"/>
<polygon fill="midnightblue" stroke="midnightblue" points="1194.5,-165.03 1184.59,-168.76 1194.67,-172.03 1194.5,-165.03"/>
</g>
<!-- Node3 -->
<g id="node3" class="node">
<title>Node3</title>
<g id="a_node3"><a xlink:href="MarmotAutomaticDifferentiation_8cpp.html" target="_top" xlink:title=" ">
<polygon fill="white" stroke="black" points="0,-6 0,-36 191,-36 191,-6 0,-6"/>
<text text-anchor="start" x="8" y="-24" font-family="Helvetica,sans-Serif" font-size="10.00">modules/core/MarmotMathCore</text>
<text text-anchor="middle" x="95.5" y="-13" font-family="Helvetica,sans-Serif" font-size="10.00">/src/MarmotAutomaticDifferentiation.cpp</text>
</a>
</g>
</g>
<!-- Node2&#45;&gt;Node3 -->
<g id="edge2" class="edge">
<title>Node2&#45;&gt;Node3</title>
<path fill="none" stroke="midnightblue" d="M155.36,-71.99C141.02,-60.02 124.56,-46.27 112.53,-36.23"/>
<polygon fill="midnightblue" stroke="midnightblue" points="153.15,-74.7 163.07,-78.43 157.63,-69.33 153.15,-74.7"/>
</g>
<!-- Node2&#45;&gt;Node4 -->
<g id="edge3" class="edge">
<title>Node2&#45;&gt;Node4</title>
<path fill="none" stroke="midnightblue" d="M223.55,-72.64C238.37,-62.49 255.17,-50.98 269.01,-41.51"/>
<polygon fill="midnightblue" stroke="midnightblue" points="221.36,-69.89 215.09,-78.43 225.31,-75.67 221.36,-69.89"/>
</g>
</g>
</svg>
