<?xml version="1.0" encoding="UTF-8" standalone="no"?>
<!DOCTYPE svg PUBLIC "-//W3C//DTD SVG 1.1//EN"
 "http://www.w3.org/Graphics/SVG/1.1/DTD/svg11.dtd">
<!-- Generated by graphviz version 3.0.0 (20220413.0106)
 -->
<!-- Title: modules/core/MarmotMechanicsCore/src/MarmotVoigt.cpp Pages: 1 -->
<svg width="647pt" height="330pt"
 viewBox="0.00 0.00 646.50 330.00" xmlns="http://www.w3.org/2000/svg" xmlns:xlink="http://www.w3.org/1999/xlink">
<g id="graph0" class="graph" transform="scale(1 1) rotate(0) translate(4 326)">
<title>modules/core/MarmotMechanicsCore/src/MarmotVoigt.cpp</title>
<polygon fill="white" stroke="transparent" points="-4,4 -4,-326 642.5,-326 642.5,4 -4,4"/>
<!-- Node1 -->
<g id="node1" class="node">
<title>Node1</title>
<g id="a_node1"><a xlink:title=" ">
<polygon fill="#bfbfbf" stroke="black" points="248.5,-291.5 248.5,-321.5 406.5,-321.5 406.5,-291.5 248.5,-291.5"/>
<text text-anchor="start" x="256.5" y="-309.5" font-family="Helvetica,sans-Serif" font-size="10.00">modules/core/MarmotMechanics</text>
<text text-anchor="middle" x="327.5" y="-298.5" font-family="Helvetica,sans-Serif" font-size="10.00">Core/src/MarmotVoigt.cpp</text>
</a>
</g>
</g>
<!-- Node2 -->
<g id="node2" class="node">
<title>Node2</title>
<g id="a_node2"><a xlink:href="HaighWestergaard_8h.html" target="_top" xlink:title=" ">
<polygon fill="white" stroke="black" points="257.5,-235.5 257.5,-254.5 397.5,-254.5 397.5,-235.5 257.5,-235.5"/>
<text text-anchor="middle" x="327.5" y="-242.5" font-family="Helvetica,sans-Serif" font-size="10.00">Marmot/HaighWestergaard.h</text>
</a>
</g>
</g>
<!-- Node1&#45;&gt;Node2 -->
<g id="edge1" class="edge">
<title>Node1&#45;&gt;Node2</title>
<path fill="none" stroke="midnightblue" d="M327.5,-291.4C327.5,-283.47 327.5,-273.46 327.5,-264.86"/>
<polygon fill="midnightblue" stroke="midnightblue" points="331,-264.66 327.5,-254.66 324,-264.66 331,-264.66"/>
</g>
<!-- Node3 -->
<g id="node3" class="node">
<title>Node3</title>
<g id="a_node3"><a xlink:href="MarmotMath_8h.html" target="_top" xlink:title=" ">
<polygon fill="white" stroke="black" points="124,-123.5 124,-142.5 239,-142.5 239,-123.5 124,-123.5"/>
<text text-anchor="middle" x="181.5" y="-130.5" font-family="Helvetica,sans-Serif" font-size="10.00">Marmot/MarmotMath.h</text>
</a>
</g>
</g>
<!-- Node1&#45;&gt;Node3 -->
<g id="edge20" class="edge">
<title>Node1&#45;&gt;Node3</title>
<path fill="none" stroke="midnightblue" d="M272.39,-291.46C251.98,-283.74 230.25,-272.14 215.5,-255 190.21,-225.61 183.65,-178.72 182,-152.78"/>
<polygon fill="midnightblue" stroke="midnightblue" points="185.49,-152.6 181.54,-142.77 178.5,-152.92 185.49,-152.6"/>
</g>
<!-- Node4 -->
<g id="node4" class="node">
<title>Node4</title>
<g id="a_node4"><a xlink:href="MarmotConstants_8h.html" target="_top" xlink:title=" ">
<polygon fill="white" stroke="black" points="0,-67.5 0,-86.5 137,-86.5 137,-67.5 0,-67.5"/>
<text text-anchor="middle" x="68.5" y="-74.5" font-family="Helvetica,sans-Serif" font-size="10.00">Marmot/MarmotConstants.h</text>
</a>
</g>
</g>
<!-- Node1&#45;&gt;Node4 -->
<g id="edge19" class="edge">
<title>Node1&#45;&gt;Node4</title>
<path fill="none" stroke="midnightblue" d="M272.6,-291.44C248.29,-283.43 220.32,-271.6 198.5,-255 139.39,-210.05 94.97,-131.04 77.11,-95.82"/>
<polygon fill="midnightblue" stroke="midnightblue" points="80.19,-94.14 72.61,-86.74 73.91,-97.25 80.19,-94.14"/>
</g>
<!-- Node6 -->
<g id="node6" class="node">
<title>Node6</title>
<g id="a_node6"><a xlink:href="MarmotTypedefs_8h.html" target="_top" xlink:title=" ">
<polygon fill="white" stroke="black" points="301,-67.5 301,-86.5 434,-86.5 434,-67.5 301,-67.5"/>
<text text-anchor="middle" x="367.5" y="-74.5" font-family="Helvetica,sans-Serif" font-size="10.00">Marmot/MarmotTypedefs.h</text>
</a>
</g>
</g>
<!-- Node1&#45;&gt;Node6 -->
<g id="edge27" class="edge">
<title>Node1&#45;&gt;Node6</title>
<path fill="none" stroke="midnightblue" d="M290.19,-291.36C274.35,-283.28 257.49,-271.42 248.5,-255 244.23,-247.2 245.71,-243.44 248.5,-235 268.41,-174.7 322.04,-119.28 350,-93.38"/>
<polygon fill="midnightblue" stroke="midnightblue" points="352.42,-95.91 357.47,-86.6 347.72,-90.73 352.42,-95.91"/>
</g>
<!-- Node12 -->
<g id="node12" class="node">
<title>Node12</title>
<g id="a_node12"><a xlink:href="MarmotVoigt_8h.html" target="_top" xlink:title=" ">
<polygon fill="white" stroke="black" points="333.5,-179.5 333.5,-198.5 449.5,-198.5 449.5,-179.5 333.5,-179.5"/>
<text text-anchor="middle" x="391.5" y="-186.5" font-family="Helvetica,sans-Serif" font-size="10.00">Marmot/MarmotVoigt.h</text>
</a>
</g>
</g>
<!-- Node1&#45;&gt;Node12 -->
<g id="edge28" class="edge">
<title>Node1&#45;&gt;Node12</title>
<path fill="none" stroke="midnightblue" d="M364.81,-291.36C380.65,-283.28 397.51,-271.42 406.5,-255 414.65,-240.12 408.56,-220.99 401.86,-207.35"/>
<polygon fill="midnightblue" stroke="midnightblue" points="404.92,-205.64 397.07,-198.52 398.77,-208.98 404.92,-205.64"/>
</g>
<!-- Node14 -->
<g id="node14" class="node">
<title>Node14</title>
<g id="a_node14"><a xlink:title=" ">
<polygon fill="white" stroke="#bfbfbf" points="584.5,-67.5 584.5,-86.5 638.5,-86.5 638.5,-67.5 584.5,-67.5"/>
<text text-anchor="middle" x="611.5" y="-74.5" font-family="Helvetica,sans-Serif" font-size="10.00">iostream</text>
</a>
</g>
</g>
<!-- Node1&#45;&gt;Node14 -->
<g id="edge29" class="edge">
<title>Node1&#45;&gt;Node14</title>
<path fill="none" stroke="midnightblue" d="M406.62,-298.21C472.33,-290.71 559.28,-276.98 586.5,-255 634.2,-216.49 636.32,-183.51 626.5,-123 625.03,-113.96 622.01,-104.28 619.06,-96.22"/>
<polygon fill="midnightblue" stroke="midnightblue" points="622.26,-94.79 615.36,-86.75 615.74,-97.34 622.26,-94.79"/>
</g>
<!-- Node17 -->
<g id="node17" class="node">
<title>Node17</title>
<g id="a_node17"><a xlink:href="MarmotTensor_8h.html" target="_top" xlink:title=" ">
<polygon fill="white" stroke="black" points="454,-235.5 454,-254.5 577,-254.5 577,-235.5 454,-235.5"/>
<text text-anchor="middle" x="515.5" y="-242.5" font-family="Helvetica,sans-Serif" font-size="10.00">Marmot/MarmotTensor.h</text>
</a>
</g>
</g>
<!-- Node1&#45;&gt;Node17 -->
<g id="edge21" class="edge">
<title>Node1&#45;&gt;Node17</title>
<path fill="none" stroke="midnightblue" d="M372.05,-291.4C404.54,-281.12 448.04,-267.35 478.59,-257.68"/>
<polygon fill="midnightblue" stroke="midnightblue" points="479.94,-260.93 488.42,-254.57 477.83,-254.25 479.94,-260.93"/>
</g>
<!-- Node2&#45;&gt;Node3 -->
<g id="edge2" class="edge">
<title>Node2&#45;&gt;Node3</title>
<path fill="none" stroke="midnightblue" d="M316.04,-235.37C291.2,-216.65 232.14,-172.15 201.19,-148.83"/>
<polygon fill="midnightblue" stroke="midnightblue" points="203,-145.81 192.9,-142.59 198.78,-151.4 203,-145.81"/>
</g>
<!-- Node2&#45;&gt;Node6 -->
<g id="edge11" class="edge">
<title>Node2&#45;&gt;Node6</title>
<path fill="none" stroke="midnightblue" d="M325.79,-235.48C323.57,-222.96 320.44,-198.92 324.5,-179 330.79,-148.15 346.87,-115.06 357.48,-95.46"/>
<polygon fill="midnightblue" stroke="midnightblue" points="360.65,-96.97 362.46,-86.53 354.53,-93.56 360.65,-96.97"/>
</g>
<!-- Node2&#45;&gt;Node12 -->
<g id="edge12" class="edge">
<title>Node2&#45;&gt;Node12</title>
<path fill="none" stroke="midnightblue" d="M337.78,-235.32C347.34,-227.26 361.78,-215.08 373.28,-205.37"/>
<polygon fill="midnightblue" stroke="midnightblue" points="375.64,-207.96 381.03,-198.83 371.13,-202.61 375.64,-207.96"/>
</g>
<!-- Node3&#45;&gt;Node4 -->
<g id="edge3" class="edge">
<title>Node3&#45;&gt;Node4</title>
<path fill="none" stroke="midnightblue" d="M163.59,-123.44C145.25,-114.68 116.49,-100.94 95.41,-90.86"/>
<polygon fill="midnightblue" stroke="midnightblue" points="96.85,-87.67 86.32,-86.52 93.83,-93.99 96.85,-87.67"/>
</g>
<!-- Node3&#45;&gt;Node6 -->
<g id="edge5" class="edge">
<title>Node3&#45;&gt;Node6</title>
<path fill="none" stroke="midnightblue" d="M210.97,-123.44C242.67,-114.24 293.23,-99.56 328.27,-89.39"/>
<polygon fill="midnightblue" stroke="midnightblue" points="329.54,-92.67 338.17,-86.52 327.59,-85.94 329.54,-92.67"/>
</g>
<!-- Node10 -->
<g id="node10" class="node">
<title>Node10</title>
<g id="a_node10"><a xlink:title=" ">
<polygon fill="white" stroke="#bfbfbf" points="226.5,-67.5 226.5,-86.5 282.5,-86.5 282.5,-67.5 226.5,-67.5"/>
<text text-anchor="middle" x="254.5" y="-74.5" font-family="Helvetica,sans-Serif" font-size="10.00">algorithm</text>
</a>
</g>
</g>
<!-- Node3&#45;&gt;Node10 -->
<g id="edge9" class="edge">
<title>Node3&#45;&gt;Node10</title>
<path fill="none" stroke="midnightblue" d="M193.23,-123.32C204.34,-115.11 221.24,-102.6 234.48,-92.81"/>
<polygon fill="midnightblue" stroke="midnightblue" points="236.6,-95.59 242.56,-86.83 232.44,-89.97 236.6,-95.59"/>
</g>
<!-- Node11 -->
<g id="node11" class="node">
<title>Node11</title>
<g id="a_node11"><a xlink:title=" ">
<polygon fill="white" stroke="#bfbfbf" points="155,-67.5 155,-86.5 208,-86.5 208,-67.5 155,-67.5"/>
<text text-anchor="middle" x="181.5" y="-74.5" font-family="Helvetica,sans-Serif" font-size="10.00">complex</text>
</a>
</g>
</g>
<!-- Node3&#45;&gt;Node11 -->
<g id="edge10" class="edge">
<title>Node3&#45;&gt;Node11</title>
<path fill="none" stroke="midnightblue" d="M181.5,-123.08C181.5,-116.01 181.5,-105.86 181.5,-96.99"/>
<polygon fill="midnightblue" stroke="midnightblue" points="185,-96.75 181.5,-86.75 178,-96.75 185,-96.75"/>
</g>
<!-- Node5 -->
<g id="node5" class="node">
<title>Node5</title>
<g id="a_node5"><a xlink:title=" ">
<polygon fill="white" stroke="#bfbfbf" points="46.5,-6 46.5,-25 90.5,-25 90.5,-6 46.5,-6"/>
<text text-anchor="middle" x="68.5" y="-13" font-family="Helvetica,sans-Serif" font-size="10.00">cmath</text>
</a>
</g>
</g>
<!-- Node4&#45;&gt;Node5 -->
<g id="edge4" class="edge">
<title>Node4&#45;&gt;Node5</title>
<path fill="none" stroke="midnightblue" d="M68.5,-67.48C68.5,-59.08 68.5,-45.98 68.5,-35.16"/>
<polygon fill="midnightblue" stroke="midnightblue" points="72,-35.01 68.5,-25.01 65,-35.01 72,-35.01"/>
</g>
<!-- Node7 -->
<g id="node7" class="node">
<title>Node7</title>
<g id="a_node7"><a xlink:title=" ">
<polygon fill="white" stroke="#bfbfbf" points="249.5,-6 249.5,-25 313.5,-25 313.5,-6 249.5,-6"/>
<text text-anchor="middle" x="281.5" y="-13" font-family="Helvetica,sans-Serif" font-size="10.00">Eigen/Core</text>
</a>
</g>
</g>
<!-- Node6&#45;&gt;Node7 -->
<g id="edge6" class="edge">
<title>Node6&#45;&gt;Node7</title>
<path fill="none" stroke="midnightblue" d="M355.18,-67.48C341.38,-57.93 318.8,-42.31 302.27,-30.87"/>
<polygon fill="midnightblue" stroke="midnightblue" points="304.01,-27.82 293.8,-25.01 300.03,-33.58 304.01,-27.82"/>
</g>
<!-- Node8 -->
<g id="node8" class="node">
<title>Node8</title>
<g id="a_node8"><a xlink:title=" ">
<polygon fill="white" stroke="#bfbfbf" points="332,-6 332,-25 403,-25 403,-6 332,-6"/>
<text text-anchor="middle" x="367.5" y="-13" font-family="Helvetica,sans-Serif" font-size="10.00">Eigen/Dense</text>
</a>
</g>
</g>
<!-- Node6&#45;&gt;Node8 -->
<g id="edge7" class="edge">
<title>Node6&#45;&gt;Node8</title>
<path fill="none" stroke="midnightblue" d="M367.5,-67.48C367.5,-59.08 367.5,-45.98 367.5,-35.16"/>
<polygon fill="midnightblue" stroke="midnightblue" points="371,-35.01 367.5,-25.01 364,-35.01 371,-35.01"/>
</g>
<!-- Node9 -->
<g id="node9" class="node">
<title>Node9</title>
<g id="a_node9"><a xlink:title=" ">
<polygon fill="white" stroke="#bfbfbf" points="421,-0.5 421,-30.5 552,-30.5 552,-0.5 421,-0.5"/>
<text text-anchor="start" x="429" y="-18.5" font-family="Helvetica,sans-Serif" font-size="10.00">unsupported/Eigen/CXX11</text>
<text text-anchor="middle" x="486.5" y="-7.5" font-family="Helvetica,sans-Serif" font-size="10.00">/Tensor</text>
</a>
</g>
</g>
<!-- Node6&#45;&gt;Node9 -->
<g id="edge8" class="edge">
<title>Node6&#45;&gt;Node9</title>
<path fill="none" stroke="midnightblue" d="M384.55,-67.48C401.42,-59.04 427.79,-45.86 449.48,-35.01"/>
<polygon fill="midnightblue" stroke="midnightblue" points="451.08,-38.13 458.45,-30.52 447.94,-31.86 451.08,-38.13"/>
</g>
<!-- Node12&#45;&gt;Node3 -->
<g id="edge17" class="edge">
<title>Node12&#45;&gt;Node3</title>
<path fill="none" stroke="midnightblue" d="M358.22,-179.44C322.05,-170.14 264.12,-155.25 224.52,-145.06"/>
<polygon fill="midnightblue" stroke="midnightblue" points="225.18,-141.62 214.62,-142.52 223.43,-148.4 225.18,-141.62"/>
</g>
<!-- Node12&#45;&gt;Node6 -->
<g id="edge18" class="edge">
<title>Node12&#45;&gt;Node6</title>
<path fill="none" stroke="midnightblue" d="M389.62,-179.37C385.74,-161.62 376.81,-120.67 371.56,-96.6"/>
<polygon fill="midnightblue" stroke="midnightblue" points="374.93,-95.62 369.37,-86.59 368.09,-97.11 374.93,-95.62"/>
</g>
<!-- Node13 -->
<g id="node13" class="node">
<title>Node13</title>
<g id="a_node13"><a xlink:href="MarmotJournal_8h.html" target="_top" xlink:title=" ">
<polygon fill="white" stroke="black" points="458,-123.5 458,-142.5 583,-142.5 583,-123.5 458,-123.5"/>
<text text-anchor="middle" x="520.5" y="-130.5" font-family="Helvetica,sans-Serif" font-size="10.00">Marmot/MarmotJournal.h</text>
</a>
</g>
</g>
<!-- Node12&#45;&gt;Node13 -->
<g id="edge13" class="edge">
<title>Node12&#45;&gt;Node13</title>
<path fill="none" stroke="midnightblue" d="M411.94,-179.44C433.17,-170.56 466.6,-156.56 490.75,-146.45"/>
<polygon fill="midnightblue" stroke="midnightblue" points="492.28,-149.61 500.16,-142.52 489.58,-143.15 492.28,-149.61"/>
</g>
<!-- Node13&#45;&gt;Node14 -->
<g id="edge14" class="edge">
<title>Node13&#45;&gt;Node14</title>
<path fill="none" stroke="midnightblue" d="M535.12,-123.32C549.45,-114.82 571.51,-101.73 588.25,-91.8"/>
<polygon fill="midnightblue" stroke="midnightblue" points="590.1,-94.77 596.92,-86.65 586.53,-88.75 590.1,-94.77"/>
</g>
<!-- Node15 -->
<g id="node15" class="node">
<title>Node15</title>
<g id="a_node15"><a xlink:title=" ">
<polygon fill="white" stroke="#bfbfbf" points="453.5,-67.5 453.5,-86.5 505.5,-86.5 505.5,-67.5 453.5,-67.5"/>
<text text-anchor="middle" x="479.5" y="-74.5" font-family="Helvetica,sans-Serif" font-size="10.00">sstream</text>
</a>
</g>
</g>
<!-- Node13&#45;&gt;Node15 -->
<g id="edge15" class="edge">
<title>Node13&#45;&gt;Node15</title>
<path fill="none" stroke="midnightblue" d="M513.73,-123.08C507.94,-115.46 499.44,-104.26 492.36,-94.94"/>
<polygon fill="midnightblue" stroke="midnightblue" points="494.98,-92.6 486.14,-86.75 489.4,-96.83 494.98,-92.6"/>
</g>
<!-- Node16 -->
<g id="node16" class="node">
<title>Node16</title>
<g id="a_node16"><a xlink:title=" ">
<polygon fill="white" stroke="#bfbfbf" points="524,-67.5 524,-86.5 565,-86.5 565,-67.5 524,-67.5"/>
<text text-anchor="middle" x="544.5" y="-74.5" font-family="Helvetica,sans-Serif" font-size="10.00">string</text>
</a>
</g>
</g>
<!-- Node13&#45;&gt;Node16 -->
<g id="edge16" class="edge">
<title>Node13&#45;&gt;Node16</title>
<path fill="none" stroke="midnightblue" d="M524.46,-123.08C527.71,-115.77 532.42,-105.18 536.45,-96.1"/>
<polygon fill="midnightblue" stroke="midnightblue" points="539.75,-97.31 540.61,-86.75 533.35,-94.47 539.75,-97.31"/>
</g>
<!-- Node17&#45;&gt;Node6 -->
<g id="edge23" class="edge">
<title>Node17&#45;&gt;Node6</title>
<path fill="none" stroke="midnightblue" d="M507.79,-235.14C496.87,-222.59 476.25,-198.97 458.5,-179 431.75,-148.9 400.23,-114.06 382.19,-94.16"/>
<polygon fill="midnightblue" stroke="midnightblue" points="384.64,-91.66 375.33,-86.61 379.46,-96.37 384.64,-91.66"/>
</g>
<!-- Node17&#45;&gt;Node12 -->
<g id="edge24" class="edge">
<title>Node17&#45;&gt;Node12</title>
<path fill="none" stroke="midnightblue" d="M495.85,-235.44C475.54,-226.6 443.6,-212.69 420.4,-202.59"/>
<polygon fill="midnightblue" stroke="midnightblue" points="421.62,-199.3 411.06,-198.52 418.83,-205.72 421.62,-199.3"/>
</g>
<!-- Node17&#45;&gt;Node13 -->
<g id="edge22" class="edge">
<title>Node17&#45;&gt;Node13</title>
<path fill="none" stroke="midnightblue" d="M515.89,-235.37C516.7,-217.62 518.56,-176.67 519.65,-152.6"/>
<polygon fill="midnightblue" stroke="midnightblue" points="523.15,-152.74 520.11,-142.59 516.16,-152.42 523.15,-152.74"/>
</g>
<!-- Node17&#45;&gt;Node14 -->
<g id="edge25" class="edge">
<title>Node17&#45;&gt;Node14</title>
<path fill="none" stroke="midnightblue" d="M541.82,-235.38C559.02,-228.35 580.46,-216.65 592.5,-199 613.7,-167.93 614.68,-122.02 613.25,-96.62"/>
<polygon fill="midnightblue" stroke="midnightblue" points="616.73,-96.22 612.49,-86.51 609.75,-96.75 616.73,-96.22"/>
</g>
<!-- Node18 -->
<g id="node18" class="node">
<title>Node18</title>
<g id="a_node18"><a xlink:title=" ">
<polygon fill="white" stroke="#bfbfbf" points="544,-179.5 544,-198.5 583,-198.5 583,-179.5 544,-179.5"/>
<text text-anchor="middle" x="563.5" y="-186.5" font-family="Helvetica,sans-Serif" font-size="10.00">utility</text>
</a>
</g>
</g>
<!-- Node17&#45;&gt;Node18 -->
<g id="edge26" class="edge">
<title>Node17&#45;&gt;Node18</title>
<path fill="none" stroke="midnightblue" d="M523.43,-235.08C530.35,-227.3 540.57,-215.8 548.95,-206.37"/>
<polygon fill="midnightblue" stroke="midnightblue" points="551.69,-208.55 555.72,-198.75 546.46,-203.9 551.69,-208.55"/>
</g>
</g>
</svg>
