<?xml version="1.0" encoding="UTF-8" standalone="no"?>
<!DOCTYPE svg PUBLIC "-//W3C//DTD SVG 1.1//EN"
 "http://www.w3.org/Graphics/SVG/1.1/DTD/svg11.dtd">
<!-- Generated by graphviz version 2.46.1 (20210215.1649)
 -->
<!-- Title: include/Marmot/MarmotUtils.h Pages: 1 -->
<svg width="981pt" height="385pt"
 viewBox="0.00 0.00 980.50 385.00" xmlns="http://www.w3.org/2000/svg" xmlns:xlink="http://www.w3.org/1999/xlink">
<g id="graph0" class="graph" transform="scale(1 1) rotate(0) translate(4 381)">
<title>include/Marmot/MarmotUtils.h</title>
<polygon fill="white" stroke="transparent" points="-4,4 -4,-381 976.5,-381 976.5,4 -4,4"/>
<!-- Node1 -->
<g id="node1" class="node">
<title>Node1</title>
<g id="a_node1"><a xlink:title=" ">
<polygon fill="#bfbfbf" stroke="black" points="97.5,-357.5 97.5,-376.5 244.5,-376.5 244.5,-357.5 97.5,-357.5"/>
<text text-anchor="middle" x="171" y="-364.5" font-family="Helvetica,sans-Serif" font-size="10.00">include/Marmot/MarmotUtils.h</text>
</a>
</g>
</g>
<!-- Node2 -->
<g id="node2" class="node">
<title>Node2</title>
<g id="a_node2"><a xlink:href="MarmotElement_8h.html" target="_top" xlink:title=" ">
<polygon fill="white" stroke="black" points="0,-301.5 0,-320.5 162,-320.5 162,-301.5 0,-301.5"/>
<text text-anchor="middle" x="81" y="-308.5" font-family="Helvetica,sans-Serif" font-size="10.00">include/Marmot/MarmotElement.h</text>
</a>
</g>
</g>
<!-- Node1&#45;&gt;Node2 -->
<g id="edge1" class="edge">
<title>Node1&#45;&gt;Node2</title>
<path fill="none" stroke="midnightblue" d="M147.96,-352.18C131.4,-342.24 109.58,-329.15 95.42,-320.65"/>
<polygon fill="midnightblue" stroke="midnightblue" points="146.16,-355.18 156.54,-357.32 149.77,-349.18 146.16,-355.18"/>
</g>
<!-- Node6 -->
<g id="node6" class="node">
<title>Node6</title>
<g id="a_node6"><a xlink:href="MarmotMaterial_8h.html" target="_top" xlink:title=" ">
<polygon fill="white" stroke="black" points="180.5,-301.5 180.5,-320.5 341.5,-320.5 341.5,-301.5 180.5,-301.5"/>
<text text-anchor="middle" x="261" y="-308.5" font-family="Helvetica,sans-Serif" font-size="10.00">include/Marmot/MarmotMaterial.h</text>
</a>
</g>
</g>
<!-- Node1&#45;&gt;Node6 -->
<g id="edge5" class="edge">
<title>Node1&#45;&gt;Node6</title>
<path fill="none" stroke="midnightblue" d="M194.04,-352.18C210.6,-342.24 232.42,-329.15 246.58,-320.65"/>
<polygon fill="midnightblue" stroke="midnightblue" points="192.23,-349.18 185.46,-357.32 195.84,-355.18 192.23,-349.18"/>
</g>
<!-- Node3 -->
<g id="node3" class="node">
<title>Node3</title>
<g id="a_node3"><a xlink:href="Marmot_8h.html" target="_top" xlink:title=" ">
<polygon fill="white" stroke="black" points="17.5,-234.5 17.5,-253.5 144.5,-253.5 144.5,-234.5 17.5,-234.5"/>
<text text-anchor="middle" x="81" y="-241.5" font-family="Helvetica,sans-Serif" font-size="10.00">include/Marmot/Marmot.h</text>
</a>
</g>
</g>
<!-- Node2&#45;&gt;Node3 -->
<g id="edge2" class="edge">
<title>Node2&#45;&gt;Node3</title>
<path fill="none" stroke="midnightblue" d="M81,-291.04C81,-278.67 81,-263.12 81,-253.63"/>
<polygon fill="midnightblue" stroke="midnightblue" points="77.5,-291.23 81,-301.23 84.5,-291.23 77.5,-291.23"/>
</g>
<!-- Node4 -->
<g id="node4" class="node">
<title>Node4</title>
<g id="a_node4"><a xlink:href="MarmotMaterialRegistrationHelper_8h.html" target="_top" xlink:title=" ">
<polygon fill="white" stroke="black" points="1,-73 1,-103 155,-103 155,-73 1,-73"/>
<text text-anchor="start" x="9" y="-91" font-family="Helvetica,sans-Serif" font-size="10.00">include/Marmot/MarmotMaterial</text>
<text text-anchor="middle" x="78" y="-80" font-family="Helvetica,sans-Serif" font-size="10.00">RegistrationHelper.h</text>
</a>
</g>
</g>
<!-- Node3&#45;&gt;Node4 -->
<g id="edge3" class="edge">
<title>Node3&#45;&gt;Node4</title>
<path fill="none" stroke="midnightblue" d="M80.63,-223.88C80.02,-192.53 78.82,-130.93 78.28,-103.16"/>
<polygon fill="midnightblue" stroke="midnightblue" points="77.14,-224.35 80.83,-234.28 84.13,-224.21 77.14,-224.35"/>
</g>
<!-- Node5 -->
<g id="node5" class="node">
<title>Node5</title>
<g id="a_node5"><a xlink:href="LinearElasticRegistration_8cpp.html" target="_top" xlink:title=" ">
<polygon fill="white" stroke="black" points="280.5,-0.5 280.5,-30.5 471.5,-30.5 471.5,-0.5 280.5,-0.5"/>
<text text-anchor="start" x="288.5" y="-18.5" font-family="Helvetica,sans-Serif" font-size="10.00">modules/materials/Linear</text>
<text text-anchor="middle" x="376" y="-7.5" font-family="Helvetica,sans-Serif" font-size="10.00">Elastic/src/LinearElasticRegistration.cpp</text>
</a>
</g>
</g>
<!-- Node4&#45;&gt;Node5 -->
<g id="edge4" class="edge">
<title>Node4&#45;&gt;Node5</title>
<path fill="none" stroke="midnightblue" d="M147.25,-70.62C198.58,-58.47 267.81,-42.09 316.63,-30.55"/>
<polygon fill="midnightblue" stroke="midnightblue" points="146.16,-67.28 137.23,-72.99 147.77,-74.09 146.16,-67.28"/>
</g>
<!-- Node6&#45;&gt;Node3 -->
<g id="edge6" class="edge">
<title>Node6&#45;&gt;Node3</title>
<path fill="none" stroke="midnightblue" d="M227.59,-297.94C191.88,-285.04 136.17,-264.92 104.71,-253.56"/>
<polygon fill="midnightblue" stroke="midnightblue" points="226.5,-301.26 237.1,-301.37 228.88,-294.68 226.5,-301.26"/>
</g>
<!-- Node7 -->
<g id="node7" class="node">
<title>Node7</title>
<g id="a_node7"><a xlink:href="MarmotMaterialGradientEnhancedMechanical_8h.html" target="_top" xlink:title=" ">
<polygon fill="white" stroke="black" points="172.5,-223.5 172.5,-264.5 349.5,-264.5 349.5,-223.5 172.5,-223.5"/>
<text text-anchor="start" x="180.5" y="-252.5" font-family="Helvetica,sans-Serif" font-size="10.00">modules/core/MarmotMechanics</text>
<text text-anchor="start" x="180.5" y="-241.5" font-family="Helvetica,sans-Serif" font-size="10.00">Core/include/Marmot/MarmotMaterial</text>
<text text-anchor="middle" x="261" y="-230.5" font-family="Helvetica,sans-Serif" font-size="10.00">GradientEnhancedMechanical.h</text>
</a>
</g>
</g>
<!-- Node6&#45;&gt;Node7 -->
<g id="edge7" class="edge">
<title>Node6&#45;&gt;Node7</title>
<path fill="none" stroke="midnightblue" d="M261,-291.04C261,-282.71 261,-272.94 261,-264.54"/>
<polygon fill="midnightblue" stroke="midnightblue" points="257.5,-291.23 261,-301.23 264.5,-291.23 257.5,-291.23"/>
</g>
<!-- Node10 -->
<g id="node10" class="node">
<title>Node10</title>
<g id="a_node10"><a xlink:href="MarmotMaterialMechanical_8h.html" target="_top" xlink:title=" ">
<polygon fill="white" stroke="black" points="479.5,-223.5 479.5,-264.5 656.5,-264.5 656.5,-223.5 479.5,-223.5"/>
<text text-anchor="start" x="487.5" y="-252.5" font-family="Helvetica,sans-Serif" font-size="10.00">modules/core/MarmotMechanics</text>
<text text-anchor="start" x="487.5" y="-241.5" font-family="Helvetica,sans-Serif" font-size="10.00">Core/include/Marmot/MarmotMaterial</text>
<text text-anchor="middle" x="568" y="-230.5" font-family="Helvetica,sans-Serif" font-size="10.00">Mechanical.h</text>
</a>
</g>
</g>
<!-- Node6&#45;&gt;Node10 -->
<g id="edge10" class="edge">
<title>Node6&#45;&gt;Node10</title>
<path fill="none" stroke="midnightblue" d="M311.36,-299.34C356.82,-289.71 424.73,-275.33 479.27,-263.79"/>
<polygon fill="midnightblue" stroke="midnightblue" points="310.51,-295.94 301.45,-301.44 311.96,-302.79 310.51,-295.94"/>
</g>
<!-- Node8 -->
<g id="node8" class="node">
<title>Node8</title>
<g id="a_node8"><a xlink:href="MarmotMaterialGradientEnhancedHypoElastic_8h.html" target="_top" xlink:title=" ">
<polygon fill="white" stroke="black" points="172.5,-145.5 172.5,-186.5 349.5,-186.5 349.5,-145.5 172.5,-145.5"/>
<text text-anchor="start" x="180.5" y="-174.5" font-family="Helvetica,sans-Serif" font-size="10.00">modules/core/MarmotMechanics</text>
<text text-anchor="start" x="180.5" y="-163.5" font-family="Helvetica,sans-Serif" font-size="10.00">Core/include/Marmot/MarmotMaterial</text>
<text text-anchor="middle" x="261" y="-152.5" font-family="Helvetica,sans-Serif" font-size="10.00">GradientEnhancedHypoElastic.h</text>
</a>
</g>
</g>
<!-- Node7&#45;&gt;Node8 -->
<g id="edge8" class="edge">
<title>Node7&#45;&gt;Node8</title>
<path fill="none" stroke="midnightblue" d="M261,-213.3C261,-204.3 261,-194.65 261,-186.51"/>
<polygon fill="midnightblue" stroke="midnightblue" points="257.5,-213.43 261,-223.43 264.5,-213.43 257.5,-213.43"/>
</g>
<!-- Node9 -->
<g id="node9" class="node">
<title>Node9</title>
<g id="a_node9"><a xlink:href="MarmotMaterialHypoElasticNonLocal_8cpp.html" target="_top" xlink:title=" ">
<polygon fill="white" stroke="black" points="173,-67.5 173,-108.5 349,-108.5 349,-67.5 173,-67.5"/>
<text text-anchor="start" x="181" y="-96.5" font-family="Helvetica,sans-Serif" font-size="10.00">modules/core/MarmotMechanics</text>
<text text-anchor="start" x="181" y="-85.5" font-family="Helvetica,sans-Serif" font-size="10.00">Core/src/MarmotMaterialHypoElastic</text>
<text text-anchor="middle" x="261" y="-74.5" font-family="Helvetica,sans-Serif" font-size="10.00">NonLocal.cpp</text>
</a>
</g>
</g>
<!-- Node8&#45;&gt;Node9 -->
<g id="edge9" class="edge">
<title>Node8&#45;&gt;Node9</title>
<path fill="none" stroke="midnightblue" d="M261,-135.3C261,-126.3 261,-116.65 261,-108.51"/>
<polygon fill="midnightblue" stroke="midnightblue" points="257.5,-135.43 261,-145.43 264.5,-135.43 257.5,-135.43"/>
</g>
<!-- Node11 -->
<g id="node11" class="node">
<title>Node11</title>
<g id="a_node11"><a xlink:href="MarmotMaterialHyperElastic_8h.html" target="_top" xlink:title=" ">
<polygon fill="white" stroke="black" points="382.5,-145.5 382.5,-186.5 559.5,-186.5 559.5,-145.5 382.5,-145.5"/>
<text text-anchor="start" x="390.5" y="-174.5" font-family="Helvetica,sans-Serif" font-size="10.00">modules/core/MarmotMechanics</text>
<text text-anchor="start" x="390.5" y="-163.5" font-family="Helvetica,sans-Serif" font-size="10.00">Core/include/Marmot/MarmotMaterial</text>
<text text-anchor="middle" x="471" y="-152.5" font-family="Helvetica,sans-Serif" font-size="10.00">HyperElastic.h</text>
</a>
</g>
</g>
<!-- Node10&#45;&gt;Node11 -->
<g id="edge11" class="edge">
<title>Node10&#45;&gt;Node11</title>
<path fill="none" stroke="midnightblue" d="M534.9,-217.06C522.13,-207.06 507.76,-195.8 495.9,-186.51"/>
<polygon fill="midnightblue" stroke="midnightblue" points="532.99,-220.02 543.02,-223.43 537.31,-214.51 532.99,-220.02"/>
</g>
<!-- Node13 -->
<g id="node13" class="node">
<title>Node13</title>
<g id="a_node13"><a xlink:href="MarmotMaterialHypoElastic_8h.html" target="_top" xlink:title=" ">
<polygon fill="white" stroke="black" points="586.5,-145.5 586.5,-186.5 763.5,-186.5 763.5,-145.5 586.5,-145.5"/>
<text text-anchor="start" x="594.5" y="-174.5" font-family="Helvetica,sans-Serif" font-size="10.00">modules/core/MarmotMechanics</text>
<text text-anchor="start" x="594.5" y="-163.5" font-family="Helvetica,sans-Serif" font-size="10.00">Core/include/Marmot/MarmotMaterial</text>
<text text-anchor="middle" x="675" y="-152.5" font-family="Helvetica,sans-Serif" font-size="10.00">HypoElastic.h</text>
</a>
</g>
</g>
<!-- Node10&#45;&gt;Node13 -->
<g id="edge13" class="edge">
<title>Node10&#45;&gt;Node13</title>
<path fill="none" stroke="midnightblue" d="M603.71,-217.64C618,-207.49 634.2,-195.98 647.54,-186.51"/>
<polygon fill="midnightblue" stroke="midnightblue" points="601.68,-214.78 595.56,-223.43 605.73,-220.49 601.68,-214.78"/>
</g>
<!-- Node17 -->
<g id="node17" class="node">
<title>Node17</title>
<g id="a_node17"><a xlink:href="MarmotMaterialMechanical_8cpp.html" target="_top" xlink:title=" ">
<polygon fill="white" stroke="black" points="781.5,-151 781.5,-181 972.5,-181 972.5,-151 781.5,-151"/>
<text text-anchor="start" x="789.5" y="-169" font-family="Helvetica,sans-Serif" font-size="10.00">modules/core/MarmotMechanics</text>
<text text-anchor="middle" x="877" y="-158" font-family="Helvetica,sans-Serif" font-size="10.00">Core/src/MarmotMaterialMechanical.cpp</text>
</a>
</g>
</g>
<!-- Node10&#45;&gt;Node17 -->
<g id="edge18" class="edge">
<title>Node10&#45;&gt;Node17</title>
<path fill="none" stroke="midnightblue" d="M657.52,-220.98C709.78,-208.13 774.16,-192.29 819.65,-181.11"/>
<polygon fill="midnightblue" stroke="midnightblue" points="656.45,-217.64 647.58,-223.43 658.12,-224.44 656.45,-217.64"/>
</g>
<!-- Node12 -->
<g id="node12" class="node">
<title>Node12</title>
<g id="a_node12"><a xlink:href="MarmotMaterialHyperElastic_8cpp.html" target="_top" xlink:title=" ">
<polygon fill="white" stroke="black" points="367.5,-73 367.5,-103 564.5,-103 564.5,-73 367.5,-73"/>
<text text-anchor="start" x="375.5" y="-91" font-family="Helvetica,sans-Serif" font-size="10.00">modules/core/MarmotMechanics</text>
<text text-anchor="middle" x="466" y="-80" font-family="Helvetica,sans-Serif" font-size="10.00">Core/src/MarmotMaterialHyperElastic.cpp</text>
</a>
</g>
</g>
<!-- Node11&#45;&gt;Node12 -->
<g id="edge12" class="edge">
<title>Node11&#45;&gt;Node12</title>
<path fill="none" stroke="midnightblue" d="M469.04,-135.28C468.32,-124.25 467.53,-112.25 466.94,-103.23"/>
<polygon fill="midnightblue" stroke="midnightblue" points="465.56,-135.68 469.71,-145.43 472.55,-135.22 465.56,-135.68"/>
</g>
<!-- Node14 -->
<g id="node14" class="node">
<title>Node14</title>
<g id="a_node14"><a xlink:href="MarmotMaterialHypoElastic_8cpp.html" target="_top" xlink:title=" ">
<polygon fill="white" stroke="black" points="583,-73 583,-103 777,-103 777,-73 583,-73"/>
<text text-anchor="start" x="591" y="-91" font-family="Helvetica,sans-Serif" font-size="10.00">modules/core/MarmotMechanics</text>
<text text-anchor="middle" x="680" y="-80" font-family="Helvetica,sans-Serif" font-size="10.00">Core/src/MarmotMaterialHypoElastic.cpp</text>
</a>
</g>
</g>
<!-- Node13&#45;&gt;Node14 -->
<g id="edge14" class="edge">
<title>Node13&#45;&gt;Node14</title>
<path fill="none" stroke="midnightblue" d="M676.96,-135.28C677.68,-124.25 678.47,-112.25 679.06,-103.23"/>
<polygon fill="midnightblue" stroke="midnightblue" points="673.45,-135.22 676.29,-145.43 680.44,-135.68 673.45,-135.22"/>
</g>
<!-- Node15 -->
<g id="node15" class="node">
<title>Node15</title>
<g id="a_node15"><a xlink:href="LinearElastic_8h.html" target="_top" xlink:title=" ">
<polygon fill="white" stroke="black" points="795,-67.5 795,-108.5 921,-108.5 921,-67.5 795,-67.5"/>
<text text-anchor="start" x="803" y="-96.5" font-family="Helvetica,sans-Serif" font-size="10.00">modules/materials/Linear</text>
<text text-anchor="start" x="803" y="-85.5" font-family="Helvetica,sans-Serif" font-size="10.00">Elastic/include/Marmot</text>
<text text-anchor="middle" x="858" y="-74.5" font-family="Helvetica,sans-Serif" font-size="10.00">/LinearElastic.h</text>
</a>
</g>
</g>
<!-- Node13&#45;&gt;Node15 -->
<g id="edge15" class="edge">
<title>Node13&#45;&gt;Node15</title>
<path fill="none" stroke="midnightblue" d="M731.66,-141.47C757.13,-130.89 786.83,-118.56 811.03,-108.51"/>
<polygon fill="midnightblue" stroke="midnightblue" points="730.02,-138.36 722.13,-145.43 732.7,-144.82 730.02,-138.36"/>
</g>
<!-- Node15&#45;&gt;Node5 -->
<g id="edge17" class="edge">
<title>Node15&#45;&gt;Node5</title>
<path fill="none" stroke="midnightblue" d="M785.08,-66.96C672.45,-44.98 553.05,-31.75 471.91,-24.26"/>
<polygon fill="midnightblue" stroke="midnightblue" points="784.42,-70.4 794.91,-68.9 785.78,-63.53 784.42,-70.4"/>
</g>
<!-- Node16 -->
<g id="node16" class="node">
<title>Node16</title>
<g id="a_node16"><a xlink:href="LinearElastic_8cpp.html" target="_top" xlink:title=" ">
<polygon fill="white" stroke="black" points="788,-0.5 788,-30.5 928,-30.5 928,-0.5 788,-0.5"/>
<text text-anchor="start" x="796" y="-18.5" font-family="Helvetica,sans-Serif" font-size="10.00">modules/materials/Linear</text>
<text text-anchor="middle" x="858" y="-7.5" font-family="Helvetica,sans-Serif" font-size="10.00">Elastic/src/LinearElastic.cpp</text>
</a>
</g>
</g>
<!-- Node15&#45;&gt;Node16 -->
<g id="edge16" class="edge">
<title>Node15&#45;&gt;Node16</title>
<path fill="none" stroke="midnightblue" d="M858,-57.08C858,-48.01 858,-38.45 858,-30.89"/>
<polygon fill="midnightblue" stroke="midnightblue" points="854.5,-57.36 858,-67.36 861.5,-57.36 854.5,-57.36"/>
</g>
</g>
</svg>
