<?xml version="1.0" encoding="UTF-8" standalone="no"?>
<!DOCTYPE svg PUBLIC "-//W3C//DTD SVG 1.1//EN"
 "http://www.w3.org/Graphics/SVG/1.1/DTD/svg11.dtd">
<!-- Generated by graphviz version 3.0.0 (20220413.0106)
 -->
<!-- Title: modules/core/MarmotMechanicsCore/include/Marmot/MarmotVoigt.h Pages: 1 -->
<svg width="513pt" height="162pt"
 viewBox="0.00 0.00 512.50 162.00" xmlns="http://www.w3.org/2000/svg" xmlns:xlink="http://www.w3.org/1999/xlink">
<g id="graph0" class="graph" transform="scale(1 1) rotate(0) translate(4 158)">
<title>modules/core/MarmotMechanicsCore/include/Marmot/MarmotVoigt.h</title>
<polygon fill="white" stroke="transparent" points="-4,4 -4,-158 508.5,-158 508.5,4 -4,4"/>
<!-- Node1 -->
<g id="node1" class="node">
<title>Node1</title>
<g id="a_node1"><a xlink:title=" ">
<polygon fill="#bfbfbf" stroke="black" points="116.5,-123.5 116.5,-153.5 289.5,-153.5 289.5,-123.5 116.5,-123.5"/>
<text text-anchor="start" x="124.5" y="-141.5" font-family="Helvetica,sans-Serif" font-size="10.00">modules/core/MarmotMechanics</text>
<text text-anchor="middle" x="203" y="-130.5" font-family="Helvetica,sans-Serif" font-size="10.00">Core/include/Marmot/MarmotVoigt.h</text>
</a>
</g>
</g>
<!-- Node2 -->
<g id="node2" class="node">
<title>Node2</title>
<g id="a_node2"><a xlink:href="MarmotJournal_8h.html" target="_top" xlink:title=" ">
<polygon fill="white" stroke="black" points="67.5,-67.5 67.5,-86.5 192.5,-86.5 192.5,-67.5 67.5,-67.5"/>
<text text-anchor="middle" x="130" y="-74.5" font-family="Helvetica,sans-Serif" font-size="10.00">Marmot/MarmotJournal.h</text>
</a>
</g>
</g>
<!-- Node1&#45;&gt;Node2 -->
<g id="edge1" class="edge">
<title>Node1&#45;&gt;Node2</title>
<path fill="none" stroke="midnightblue" d="M185.7,-123.4C174.55,-114.31 160.05,-102.49 148.64,-93.19"/>
<polygon fill="midnightblue" stroke="midnightblue" points="150.58,-90.26 140.62,-86.66 146.16,-95.69 150.58,-90.26"/>
</g>
<!-- Node6 -->
<g id="node6" class="node">
<title>Node6</title>
<g id="a_node6"><a xlink:href="MarmotTypedefs_8h.html" target="_top" xlink:title=" ">
<polygon fill="white" stroke="black" points="231.5,-67.5 231.5,-86.5 364.5,-86.5 364.5,-67.5 231.5,-67.5"/>
<text text-anchor="middle" x="298" y="-74.5" font-family="Helvetica,sans-Serif" font-size="10.00">Marmot/MarmotTypedefs.h</text>
</a>
</g>
</g>
<!-- Node1&#45;&gt;Node6 -->
<g id="edge5" class="edge">
<title>Node1&#45;&gt;Node6</title>
<path fill="none" stroke="midnightblue" d="M225.51,-123.4C240.6,-113.95 260.39,-101.56 275.47,-92.11"/>
<polygon fill="midnightblue" stroke="midnightblue" points="277.56,-94.93 284.18,-86.66 273.84,-89 277.56,-94.93"/>
</g>
<!-- Node3 -->
<g id="node3" class="node">
<title>Node3</title>
<g id="a_node3"><a xlink:title=" ">
<polygon fill="white" stroke="#bfbfbf" points="0,-6 0,-25 54,-25 54,-6 0,-6"/>
<text text-anchor="middle" x="27" y="-13" font-family="Helvetica,sans-Serif" font-size="10.00">iostream</text>
</a>
</g>
</g>
<!-- Node2&#45;&gt;Node3 -->
<g id="edge2" class="edge">
<title>Node2&#45;&gt;Node3</title>
<path fill="none" stroke="midnightblue" d="M115.24,-67.48C98.34,-57.71 70.42,-41.58 50.51,-30.08"/>
<polygon fill="midnightblue" stroke="midnightblue" points="52.14,-26.98 41.73,-25.01 48.64,-33.04 52.14,-26.98"/>
</g>
<!-- Node4 -->
<g id="node4" class="node">
<title>Node4</title>
<g id="a_node4"><a xlink:title=" ">
<polygon fill="white" stroke="#bfbfbf" points="72,-6 72,-25 124,-25 124,-6 72,-6"/>
<text text-anchor="middle" x="98" y="-13" font-family="Helvetica,sans-Serif" font-size="10.00">sstream</text>
</a>
</g>
</g>
<!-- Node2&#45;&gt;Node4 -->
<g id="edge3" class="edge">
<title>Node2&#45;&gt;Node4</title>
<path fill="none" stroke="midnightblue" d="M125.42,-67.48C120.76,-58.82 113.41,-45.15 107.49,-34.15"/>
<polygon fill="midnightblue" stroke="midnightblue" points="110.4,-32.16 102.58,-25.01 104.23,-35.47 110.4,-32.16"/>
</g>
<!-- Node5 -->
<g id="node5" class="node">
<title>Node5</title>
<g id="a_node5"><a xlink:title=" ">
<polygon fill="white" stroke="#bfbfbf" points="142.5,-6 142.5,-25 183.5,-25 183.5,-6 142.5,-6"/>
<text text-anchor="middle" x="163" y="-13" font-family="Helvetica,sans-Serif" font-size="10.00">string</text>
</a>
</g>
</g>
<!-- Node2&#45;&gt;Node5 -->
<g id="edge4" class="edge">
<title>Node2&#45;&gt;Node5</title>
<path fill="none" stroke="midnightblue" d="M134.73,-67.48C139.58,-58.73 147.27,-44.87 153.4,-33.81"/>
<polygon fill="midnightblue" stroke="midnightblue" points="156.49,-35.45 158.28,-25.01 150.37,-32.06 156.49,-35.45"/>
</g>
<!-- Node7 -->
<g id="node7" class="node">
<title>Node7</title>
<g id="a_node7"><a xlink:title=" ">
<polygon fill="white" stroke="#bfbfbf" points="202,-6 202,-25 266,-25 266,-6 202,-6"/>
<text text-anchor="middle" x="234" y="-13" font-family="Helvetica,sans-Serif" font-size="10.00">Eigen/Core</text>
</a>
</g>
</g>
<!-- Node6&#45;&gt;Node7 -->
<g id="edge6" class="edge">
<title>Node6&#45;&gt;Node7</title>
<path fill="none" stroke="midnightblue" d="M288.83,-67.48C278.85,-58.2 262.69,-43.17 250.49,-31.83"/>
<polygon fill="midnightblue" stroke="midnightblue" points="252.86,-29.25 243.15,-25.01 248.09,-34.38 252.86,-29.25"/>
</g>
<!-- Node8 -->
<g id="node8" class="node">
<title>Node8</title>
<g id="a_node8"><a xlink:title=" ">
<polygon fill="white" stroke="#bfbfbf" points="284.5,-6 284.5,-25 355.5,-25 355.5,-6 284.5,-6"/>
<text text-anchor="middle" x="320" y="-13" font-family="Helvetica,sans-Serif" font-size="10.00">Eigen/Dense</text>
</a>
</g>
</g>
<!-- Node6&#45;&gt;Node8 -->
<g id="edge7" class="edge">
<title>Node6&#45;&gt;Node8</title>
<path fill="none" stroke="midnightblue" d="M301.15,-67.48C304.32,-58.9 309.3,-45.43 313.35,-34.48"/>
<polygon fill="midnightblue" stroke="midnightblue" points="316.67,-35.6 316.85,-25.01 310.1,-33.17 316.67,-35.6"/>
</g>
<!-- Node9 -->
<g id="node9" class="node">
<title>Node9</title>
<g id="a_node9"><a xlink:title=" ">
<polygon fill="white" stroke="#bfbfbf" points="373.5,-0.5 373.5,-30.5 504.5,-30.5 504.5,-0.5 373.5,-0.5"/>
<text text-anchor="start" x="381.5" y="-18.5" font-family="Helvetica,sans-Serif" font-size="10.00">unsupported/Eigen/CXX11</text>
<text text-anchor="middle" x="439" y="-7.5" font-family="Helvetica,sans-Serif" font-size="10.00">/Tensor</text>
</a>
</g>
</g>
<!-- Node6&#45;&gt;Node9 -->
<g id="edge8" class="edge">
<title>Node6&#45;&gt;Node9</title>
<path fill="none" stroke="midnightblue" d="M318.2,-67.48C338.55,-58.89 370.56,-45.38 396.51,-34.43"/>
<polygon fill="midnightblue" stroke="midnightblue" points="397.92,-37.64 405.77,-30.52 395.2,-31.19 397.92,-37.64"/>
</g>
</g>
</svg>
