<?xml version="1.0" encoding="UTF-8" standalone="no"?>
<!DOCTYPE svg PUBLIC "-//W3C//DTD SVG 1.1//EN"
 "http://www.w3.org/Graphics/SVG/1.1/DTD/svg11.dtd">
<!-- Generated by graphviz version 2.46.0 (20210122.1329)
 -->
<!-- Title: include/Marmot/MarmotJournal.h Pages: 1 -->
<!--zoomable 262 -->
<svg id="main" version="1.1" xmlns="http://www.w3.org/2000/svg" xmlns:xlink="http://www.w3.org/1999/xlink" xml:space="preserve" onload="init(evt)">
<style type="text/css"><![CDATA[
.edge:hover path { stroke: red; }
.edge:hover polygon { stroke: red; fill: red; }
]]></style>
<script type="text/javascript"><![CDATA[
var edges = document.getElementsByTagName('g');
if (edges && edges.length) {
  for (var i=0;i<edges.length;i++) {
    if (edges[i].id.substr(0,4)=='edge') {
      edges[i].setAttribute('class','edge');
    }
  }
}
]]></script>
        <defs>
                <circle id="rim" cx="0" cy="0" r="7"/>
                <circle id="rim2" cx="0" cy="0" r="3.5"/>
                <g id="zoomPlus">
                        <use xlink:href="#rim" fill="#404040">
                                <set attributeName="fill" to="#808080" begin="zoomplus.mouseover" end="zoomplus.mouseout"/>
                        </use>
                        <path d="M-4,0h8M0,-4v8" fill="none" stroke="white" stroke-width="1.5" pointer-events="none"/>
                </g>
                <g id="zoomMin">
                        <use xlink:href="#rim" fill="#404040">
                                <set attributeName="fill" to="#808080" begin="zoomminus.mouseover" end="zoomminus.mouseout"/>
                        </use>
                        <path d="M-4,0h8" fill="none" stroke="white" stroke-width="1.5" pointer-events="none"/>
                </g>
                <g id="dirArrow">
                        <path fill="none" stroke="white" stroke-width="1.5" d="M0,-3.0v7 M-2.5,-0.5L0,-3.0L2.5,-0.5"/>
                </g>
               <g id="resetDef">
                       <use xlink:href="#rim2" fill="#404040">
                               <set attributeName="fill" to="#808080" begin="reset.mouseover" end="reset.mouseout"/>
                       </use>
               </g>
        </defs>

<script type="text/javascript">
var viewWidth = 2261;
var viewHeight = 262;
var sectionId = 'dynsection-1';
</script>
<script xlink:href="svgpan.js"/>
<svg id="graph" class="graph">
<g id="viewport">
<title>include/Marmot/MarmotJournal.h</title>
<polygon fill="white" stroke="transparent" points="-4,4 -4,-258 2257.22,-258 2257.22,4 -4,4"/>
<!-- Node1 -->
<g id="node1" class="node">
<title>Node1</title>
<g id="a_node1"><a xlink:title=" ">
<polygon fill="#bfbfbf" stroke="black" points="1231.5,-234.5 1231.5,-253.5 1389.5,-253.5 1389.5,-234.5 1231.5,-234.5"/>
<text text-anchor="middle" x="1310.5" y="-241.5" font-family="Helvetica,sans-Serif" font-size="10.00">include/Marmot/MarmotJournal.h</text>
</a>
</g>
</g>
<!-- Node2 -->
<g id="node2" class="node">
<title>Node2</title>
<g id="a_node2"><a xlink:href="AdaptiveSubstepper_8h.html" target="_top" xlink:title=" ">
<polygon fill="white" stroke="black" points="0,-162 0,-192 205,-192 205,-162 0,-162"/>
<text text-anchor="start" x="8" y="-180" font-family="Helvetica,sans-Serif" font-size="10.00">modules/core/MarmotMechanics</text>
<text text-anchor="middle" x="102.5" y="-169" font-family="Helvetica,sans-Serif" font-size="10.00">Core/include/Marmot/AdaptiveSubstepper.h</text>
</a>
</g>
</g>
<!-- Node1&#45;&gt;Node2 -->
<g id="edge1" class="edge">
<title>Node1&#45;&gt;Node2</title>
<path fill="none" stroke="midnightblue" d="M1221.33,-243.48C1034.05,-243.57 586.29,-239.03 213.5,-198 199.97,-196.51 185.61,-194.36 171.86,-192.01"/>
<polygon fill="midnightblue" stroke="midnightblue" points="1221.41,-246.98 1231.4,-243.47 1221.4,-239.98 1221.41,-246.98"/>
</g>
<!-- Node3 -->
<g id="node3" class="node">
<title>Node3</title>
<g id="a_node3"><a xlink:href="AdaptiveSubstepperExplicit_8h.html" target="_top" xlink:title=" ">
<polygon fill="white" stroke="black" points="223,-156.5 223,-197.5 420,-197.5 420,-156.5 223,-156.5"/>
<text text-anchor="start" x="231" y="-185.5" font-family="Helvetica,sans-Serif" font-size="10.00">modules/core/MarmotMechanics</text>
<text text-anchor="start" x="231" y="-174.5" font-family="Helvetica,sans-Serif" font-size="10.00">Core/include/Marmot/AdaptiveSubstepper</text>
<text text-anchor="middle" x="321.5" y="-163.5" font-family="Helvetica,sans-Serif" font-size="10.00">Explicit.h</text>
</a>
</g>
</g>
<!-- Node1&#45;&gt;Node3 -->
<g id="edge2" class="edge">
<title>Node1&#45;&gt;Node3</title>
<path fill="none" stroke="midnightblue" d="M1221.22,-242.06C1062.46,-239.57 720.81,-230.56 434.5,-198 429.75,-197.46 424.9,-196.84 420,-196.17"/>
<polygon fill="midnightblue" stroke="midnightblue" points="1221.36,-245.56 1231.41,-242.21 1221.46,-238.56 1221.36,-245.56"/>
</g>
<!-- Node4 -->
<g id="node4" class="node">
<title>Node4</title>
<g id="a_node4"><a xlink:href="MarmotKinematics_8h.html" target="_top" xlink:title=" ">
<polygon fill="white" stroke="black" points="629,-84 629,-114 828,-114 828,-84 629,-84"/>
<text text-anchor="start" x="637" y="-102" font-family="Helvetica,sans-Serif" font-size="10.00">modules/core/MarmotMechanics</text>
<text text-anchor="middle" x="728.5" y="-91" font-family="Helvetica,sans-Serif" font-size="10.00">Core/include/Marmot/MarmotKinematics.h</text>
</a>
</g>
</g>
<!-- Node1&#45;&gt;Node4 -->
<g id="edge3" class="edge">
<title>Node1&#45;&gt;Node4</title>
<path fill="none" stroke="midnightblue" d="M1265.94,-232.05C1161.56,-206.41 901.34,-142.47 785.58,-114.03"/>
<polygon fill="midnightblue" stroke="midnightblue" points="1265.29,-235.5 1275.84,-234.48 1266.96,-228.7 1265.29,-235.5"/>
</g>
<!-- Node7 -->
<g id="node7" class="node">
<title>Node7</title>
<g id="a_node7"><a xlink:href="MarmotMaterialHyperElastic_8cpp.html" target="_top" xlink:title=" ">
<polygon fill="white" stroke="black" points="194,-6 194,-36 391,-36 391,-6 194,-6"/>
<text text-anchor="start" x="202" y="-24" font-family="Helvetica,sans-Serif" font-size="10.00">modules/core/MarmotMechanics</text>
<text text-anchor="middle" x="292.5" y="-13" font-family="Helvetica,sans-Serif" font-size="10.00">Core/src/MarmotMaterialHyperElastic.cpp</text>
</a>
</g>
</g>
<!-- Node1&#45;&gt;Node7 -->
<g id="edge45" class="edge">
<title>Node1&#45;&gt;Node7</title>
<path fill="none" stroke="midnightblue" d="M1220.92,-242.18C1058.07,-239.88 719.92,-231.15 607.5,-198 484.62,-161.77 357.05,-71.11 310.7,-36.1"/>
<polygon fill="midnightblue" stroke="midnightblue" points="1221.35,-245.69 1231.39,-242.32 1221.44,-238.69 1221.35,-245.69"/>
</g>
<!-- Node8 -->
<g id="node8" class="node">
<title>Node8</title>
<g id="a_node8"><a xlink:href="MarmotMaterialHypoElastic_8cpp.html" target="_top" xlink:title=" ">
<polygon fill="white" stroke="black" points="409.5,-6 409.5,-36 603.5,-36 603.5,-6 409.5,-6"/>
<text text-anchor="start" x="417.5" y="-24" font-family="Helvetica,sans-Serif" font-size="10.00">modules/core/MarmotMechanics</text>
<text text-anchor="middle" x="506.5" y="-13" font-family="Helvetica,sans-Serif" font-size="10.00">Core/src/MarmotMaterialHypoElastic.cpp</text>
</a>
</g>
</g>
<!-- Node1&#45;&gt;Node8 -->
<g id="edge46" class="edge">
<title>Node1&#45;&gt;Node8</title>
<path fill="none" stroke="midnightblue" d="M1221.26,-240.42C1056.32,-235.11 716.08,-221.46 667.5,-198 591.24,-161.17 534.08,-70.87 514.17,-36.03"/>
<polygon fill="midnightblue" stroke="midnightblue" points="1221.28,-243.92 1231.38,-240.74 1221.5,-236.92 1221.28,-243.92"/>
</g>
<!-- Node9 -->
<g id="node9" class="node">
<title>Node9</title>
<g id="a_node9"><a xlink:href="MarmotMaterialHypoElasticNonLocal_8cpp.html" target="_top" xlink:title=" ">
<polygon fill="white" stroke="black" points="621.5,-0.5 621.5,-41.5 797.5,-41.5 797.5,-0.5 621.5,-0.5"/>
<text text-anchor="start" x="629.5" y="-29.5" font-family="Helvetica,sans-Serif" font-size="10.00">modules/core/MarmotMechanics</text>
<text text-anchor="start" x="629.5" y="-18.5" font-family="Helvetica,sans-Serif" font-size="10.00">Core/src/MarmotMaterialHypoElastic</text>
<text text-anchor="middle" x="709.5" y="-7.5" font-family="Helvetica,sans-Serif" font-size="10.00">NonLocal.cpp</text>
</a>
</g>
</g>
<!-- Node1&#45;&gt;Node9 -->
<g id="edge47" class="edge">
<title>Node1&#45;&gt;Node9</title>
<path fill="none" stroke="midnightblue" d="M1221.29,-241.09C1051.74,-235.35 693.23,-212.32 619.5,-120 607.85,-105.41 610.43,-94.32 619.5,-78 628.26,-62.23 643.5,-50.33 658.98,-41.65"/>
<polygon fill="midnightblue" stroke="midnightblue" points="1221.34,-244.6 1231.44,-241.43 1221.56,-237.6 1221.34,-244.6"/>
</g>
<!-- Node10 -->
<g id="node10" class="node">
<title>Node10</title>
<g id="a_node10"><a xlink:href="MarmotTensor_8h.html" target="_top" xlink:title=" ">
<polygon fill="white" stroke="black" points="1083.5,-84 1083.5,-114 1263.5,-114 1263.5,-84 1083.5,-84"/>
<text text-anchor="start" x="1091.5" y="-102" font-family="Helvetica,sans-Serif" font-size="10.00">modules/core/MarmotMechanics</text>
<text text-anchor="middle" x="1173.5" y="-91" font-family="Helvetica,sans-Serif" font-size="10.00">Core/include/Marmot/MarmotTensor.h</text>
</a>
</g>
</g>
<!-- Node1&#45;&gt;Node10 -->
<g id="edge9" class="edge">
<title>Node1&#45;&gt;Node10</title>
<path fill="none" stroke="midnightblue" d="M1268.53,-230.98C1250,-223.91 1229.14,-213.27 1214.5,-198 1191.4,-173.9 1180.47,-134.89 1176.05,-114.1"/>
<polygon fill="midnightblue" stroke="midnightblue" points="1267.36,-234.28 1277.96,-234.37 1269.73,-227.7 1267.36,-234.28"/>
</g>
<!-- Node15 -->
<g id="node15" class="node">
<title>Node15</title>
<g id="a_node15"><a xlink:href="MarmotVoigt_8h.html" target="_top" xlink:title=" ">
<polygon fill="white" stroke="black" points="1224,-162 1224,-192 1397,-192 1397,-162 1224,-162"/>
<text text-anchor="start" x="1232" y="-180" font-family="Helvetica,sans-Serif" font-size="10.00">modules/core/MarmotMechanics</text>
<text text-anchor="middle" x="1310.5" y="-169" font-family="Helvetica,sans-Serif" font-size="10.00">Core/include/Marmot/MarmotVoigt.h</text>
</a>
</g>
</g>
<!-- Node1&#45;&gt;Node15 -->
<g id="edge19" class="edge">
<title>Node1&#45;&gt;Node15</title>
<path fill="none" stroke="midnightblue" d="M1310.5,-223.91C1310.5,-213.72 1310.5,-201.4 1310.5,-192.09"/>
<polygon fill="midnightblue" stroke="midnightblue" points="1307,-224.23 1310.5,-234.23 1314,-224.23 1307,-224.23"/>
</g>
<!-- Node19 -->
<g id="node19" class="node">
<title>Node19</title>
<g id="a_node19"><a xlink:href="LinearElastic_8cpp.html" target="_top" xlink:title=" ">
<polygon fill="white" stroke="black" points="2059.5,-6 2059.5,-36 2199.5,-36 2199.5,-6 2059.5,-6"/>
<text text-anchor="start" x="2067.5" y="-24" font-family="Helvetica,sans-Serif" font-size="10.00">modules/materials/Linear</text>
<text text-anchor="middle" x="2129.5" y="-13" font-family="Helvetica,sans-Serif" font-size="10.00">Elastic/src/LinearElastic.cpp</text>
</a>
</g>
</g>
<!-- Node1&#45;&gt;Node19 -->
<g id="edge50" class="edge">
<title>Node1&#45;&gt;Node19</title>
<path fill="none" stroke="midnightblue" d="M1382.08,-232.41C1413.18,-225.7 1449.12,-214.96 1478.5,-198 1501.36,-184.8 1496.37,-166.71 1520.5,-156 1594.12,-123.34 2188.98,-178.35 2244.5,-120 2257.37,-106.48 2254.4,-93.83 2244.5,-78 2231.73,-57.57 2209.12,-44.4 2187.32,-36"/>
<polygon fill="midnightblue" stroke="midnightblue" points="1381.26,-229.01 1372.17,-234.45 1382.67,-235.87 1381.26,-229.01"/>
</g>
<!-- Node21 -->
<g id="node21" class="node">
<title>Node21</title>
<g id="a_node21"><a xlink:href="MarmotMaterialMechanical_8cpp.html" target="_top" xlink:title=" ">
<polygon fill="white" stroke="black" points="1868,-84 1868,-114 2059,-114 2059,-84 1868,-84"/>
<text text-anchor="start" x="1876" y="-102" font-family="Helvetica,sans-Serif" font-size="10.00">modules/core/MarmotMechanics</text>
<text text-anchor="middle" x="1963.5" y="-91" font-family="Helvetica,sans-Serif" font-size="10.00">Core/src/MarmotMaterialMechanical.cpp</text>
</a>
</g>
</g>
<!-- Node1&#45;&gt;Node21 -->
<g id="edge48" class="edge">
<title>Node1&#45;&gt;Node21</title>
<path fill="none" stroke="midnightblue" d="M1343.3,-230.53C1362.28,-222.59 1386.16,-211.29 1405.5,-198 1427.78,-182.68 1424.88,-167.16 1449.5,-156 1531.6,-118.79 1764.18,-132.07 1853.5,-120 1865.91,-118.32 1879.04,-116.22 1891.76,-114.02"/>
<polygon fill="midnightblue" stroke="midnightblue" points="1341.81,-227.36 1333.87,-234.38 1344.46,-233.84 1341.81,-227.36"/>
</g>
<!-- Node22 -->
<g id="node22" class="node">
<title>Node22</title>
<g id="a_node22"><a xlink:href="MarmotUtility_8cpp.html" target="_top" xlink:title=" ">
<polygon fill="white" stroke="black" points="2077.5,-84 2077.5,-114 2235.5,-114 2235.5,-84 2077.5,-84"/>
<text text-anchor="start" x="2085.5" y="-102" font-family="Helvetica,sans-Serif" font-size="10.00">modules/core/MarmotMechanics</text>
<text text-anchor="middle" x="2156.5" y="-91" font-family="Helvetica,sans-Serif" font-size="10.00">Core/src/MarmotUtility.cpp</text>
</a>
</g>
</g>
<!-- Node1&#45;&gt;Node22 -->
<g id="edge49" class="edge">
<title>Node1&#45;&gt;Node22</title>
<path fill="none" stroke="midnightblue" d="M1358.04,-231.74C1383.85,-224.41 1415.66,-213.33 1441.5,-198 1465.31,-183.88 1462.01,-166.8 1487.5,-156 1606.6,-105.51 1940.46,-138.39 2068.5,-120 2079.05,-118.49 2090.2,-116.36 2100.89,-114.07"/>
<polygon fill="midnightblue" stroke="midnightblue" points="1356.83,-228.45 1348.11,-234.47 1358.68,-235.2 1356.83,-228.45"/>
</g>
<!-- Node23 -->
<g id="node23" class="node">
<title>Node23</title>
<g id="a_node23"><a xlink:href="PerezFougetSubstepper_8h.html" target="_top" xlink:title=" ">
<polygon fill="white" stroke="black" points="1529.5,-156.5 1529.5,-197.5 1693.5,-197.5 1693.5,-156.5 1529.5,-156.5"/>
<text text-anchor="start" x="1537.5" y="-185.5" font-family="Helvetica,sans-Serif" font-size="10.00">modules/core/MarmotMechanics</text>
<text text-anchor="start" x="1537.5" y="-174.5" font-family="Helvetica,sans-Serif" font-size="10.00">Core/include/Marmot/PerezFouget</text>
<text text-anchor="middle" x="1611.5" y="-163.5" font-family="Helvetica,sans-Serif" font-size="10.00">Substepper.h</text>
</a>
</g>
</g>
<!-- Node1&#45;&gt;Node23 -->
<g id="edge41" class="edge">
<title>Node1&#45;&gt;Node23</title>
<path fill="none" stroke="midnightblue" d="M1360.17,-232.27C1406.13,-222.35 1475.31,-207.41 1529.46,-195.72"/>
<polygon fill="midnightblue" stroke="midnightblue" points="1359.2,-228.9 1350.16,-234.44 1360.67,-235.75 1359.2,-228.9"/>
</g>
<!-- Node24 -->
<g id="node24" class="node">
<title>Node24</title>
<g id="a_node24"><a xlink:href="PerezFougetSubstepperExplicitMarkII_8h.html" target="_top" xlink:title=" ">
<polygon fill="white" stroke="black" points="1711.5,-156.5 1711.5,-197.5 1875.5,-197.5 1875.5,-156.5 1711.5,-156.5"/>
<text text-anchor="start" x="1719.5" y="-185.5" font-family="Helvetica,sans-Serif" font-size="10.00">modules/core/MarmotMechanics</text>
<text text-anchor="start" x="1719.5" y="-174.5" font-family="Helvetica,sans-Serif" font-size="10.00">Core/include/Marmot/PerezFouget</text>
<text text-anchor="middle" x="1793.5" y="-163.5" font-family="Helvetica,sans-Serif" font-size="10.00">SubstepperExplicitMarkII.h</text>
</a>
</g>
</g>
<!-- Node1&#45;&gt;Node24 -->
<g id="edge42" class="edge">
<title>Node1&#45;&gt;Node24</title>
<path fill="none" stroke="midnightblue" d="M1399.67,-235.38C1479.36,-227.95 1599.15,-215.24 1702.5,-198 1705.37,-197.52 1708.29,-197.01 1711.23,-196.47"/>
<polygon fill="midnightblue" stroke="midnightblue" points="1399.3,-231.9 1389.67,-236.3 1399.95,-238.87 1399.3,-231.9"/>
</g>
<!-- Node25 -->
<g id="node25" class="node">
<title>Node25</title>
<g id="a_node25"><a xlink:href="PerezFougetSubstepperMarkII_8h.html" target="_top" xlink:title=" ">
<polygon fill="white" stroke="black" points="1893.5,-156.5 1893.5,-197.5 2057.5,-197.5 2057.5,-156.5 1893.5,-156.5"/>
<text text-anchor="start" x="1901.5" y="-185.5" font-family="Helvetica,sans-Serif" font-size="10.00">modules/core/MarmotMechanics</text>
<text text-anchor="start" x="1901.5" y="-174.5" font-family="Helvetica,sans-Serif" font-size="10.00">Core/include/Marmot/PerezFouget</text>
<text text-anchor="middle" x="1975.5" y="-163.5" font-family="Helvetica,sans-Serif" font-size="10.00">SubstepperMarkII.h</text>
</a>
</g>
</g>
<!-- Node1&#45;&gt;Node25 -->
<g id="edge43" class="edge">
<title>Node1&#45;&gt;Node25</title>
<path fill="none" stroke="midnightblue" d="M1399.82,-239.82C1513.08,-234.91 1714.14,-223.28 1884.5,-198 1887.38,-197.57 1890.31,-197.11 1893.25,-196.61"/>
<polygon fill="midnightblue" stroke="midnightblue" points="1399.65,-236.32 1389.81,-240.25 1399.95,-243.32 1399.65,-236.32"/>
</g>
<!-- Node26 -->
<g id="node26" class="node">
<title>Node26</title>
<g id="a_node26"><a xlink:href="PerezFougetSubstepperTime_8h.html" target="_top" xlink:title=" ">
<polygon fill="white" stroke="black" points="2075.5,-156.5 2075.5,-197.5 2239.5,-197.5 2239.5,-156.5 2075.5,-156.5"/>
<text text-anchor="start" x="2083.5" y="-185.5" font-family="Helvetica,sans-Serif" font-size="10.00">modules/core/MarmotMechanics</text>
<text text-anchor="start" x="2083.5" y="-174.5" font-family="Helvetica,sans-Serif" font-size="10.00">Core/include/Marmot/PerezFouget</text>
<text text-anchor="middle" x="2157.5" y="-163.5" font-family="Helvetica,sans-Serif" font-size="10.00">SubstepperTime.h</text>
</a>
</g>
</g>
<!-- Node1&#45;&gt;Node26 -->
<g id="edge44" class="edge">
<title>Node1&#45;&gt;Node26</title>
<path fill="none" stroke="midnightblue" d="M1399.92,-242.21C1541.85,-239.93 1827.16,-231.21 2066.5,-198 2069.38,-197.6 2072.31,-197.16 2075.26,-196.68"/>
<polygon fill="midnightblue" stroke="midnightblue" points="1399.48,-238.71 1389.53,-242.37 1399.59,-245.71 1399.48,-238.71"/>
</g>
<!-- Node5 -->
<g id="node5" class="node">
<title>Node5</title>
<g id="a_node5"><a xlink:href="HughesWinget_8cpp.html" target="_top" xlink:title=" ">
<polygon fill="white" stroke="black" points="991.5,-6 991.5,-36 1149.5,-36 1149.5,-6 991.5,-6"/>
<text text-anchor="start" x="999.5" y="-24" font-family="Helvetica,sans-Serif" font-size="10.00">modules/core/MarmotMechanics</text>
<text text-anchor="middle" x="1070.5" y="-13" font-family="Helvetica,sans-Serif" font-size="10.00">Core/src/HughesWinget.cpp</text>
</a>
</g>
</g>
<!-- Node4&#45;&gt;Node5 -->
<g id="edge4" class="edge">
<title>Node4&#45;&gt;Node5</title>
<path fill="none" stroke="midnightblue" d="M802.61,-81.79C853.29,-70.68 921.98,-55.55 982.5,-42 991.06,-40.08 1000.09,-38.05 1008.97,-36.04"/>
<polygon fill="midnightblue" stroke="midnightblue" points="801.74,-78.4 792.73,-83.96 803.24,-85.24 801.74,-78.4"/>
</g>
<!-- Node6 -->
<g id="node6" class="node">
<title>Node6</title>
<g id="a_node6"><a xlink:href="MarmotKinematics_8cpp.html" target="_top" xlink:title=" ">
<polygon fill="white" stroke="black" points="815.5,-6 815.5,-36 973.5,-36 973.5,-6 815.5,-6"/>
<text text-anchor="start" x="823.5" y="-24" font-family="Helvetica,sans-Serif" font-size="10.00">modules/core/MarmotMechanics</text>
<text text-anchor="middle" x="894.5" y="-13" font-family="Helvetica,sans-Serif" font-size="10.00">Core/src/MarmotKinematics.cpp</text>
</a>
</g>
</g>
<!-- Node4&#45;&gt;Node6 -->
<g id="edge5" class="edge">
<title>Node4&#45;&gt;Node6</title>
<path fill="none" stroke="midnightblue" d="M768.47,-79.7C797.78,-66.28 836.98,-48.34 863.83,-36.04"/>
<polygon fill="midnightblue" stroke="midnightblue" points="766.97,-76.54 759.33,-83.88 769.88,-82.9 766.97,-76.54"/>
</g>
<!-- Node4&#45;&gt;Node7 -->
<g id="edge6" class="edge">
<title>Node4&#45;&gt;Node7</title>
<path fill="none" stroke="midnightblue" d="M634.61,-82.33C568.99,-71.29 479.35,-56.03 400.5,-42 389.8,-40.1 378.51,-38.05 367.42,-36.01"/>
<polygon fill="midnightblue" stroke="midnightblue" points="634.08,-85.79 644.52,-83.99 635.24,-78.89 634.08,-85.79"/>
</g>
<!-- Node4&#45;&gt;Node8 -->
<g id="edge7" class="edge">
<title>Node4&#45;&gt;Node8</title>
<path fill="none" stroke="midnightblue" d="M677.83,-80.65C638.4,-67.16 584.38,-48.66 547.61,-36.07"/>
<polygon fill="midnightblue" stroke="midnightblue" points="676.93,-84.04 687.52,-83.97 679.2,-77.42 676.93,-84.04"/>
</g>
<!-- Node4&#45;&gt;Node9 -->
<g id="edge8" class="edge">
<title>Node4&#45;&gt;Node9</title>
<path fill="none" stroke="midnightblue" d="M722.5,-73.98C719.89,-63.58 716.89,-51.55 714.42,-41.68"/>
<polygon fill="midnightblue" stroke="midnightblue" points="719.11,-74.85 724.93,-83.7 725.9,-73.15 719.11,-74.85"/>
</g>
<!-- Node10&#45;&gt;Node5 -->
<g id="edge11" class="edge">
<title>Node10&#45;&gt;Node5</title>
<path fill="none" stroke="midnightblue" d="M1145.87,-77.61C1128.15,-64.54 1105.59,-47.89 1089.79,-36.23"/>
<polygon fill="midnightblue" stroke="midnightblue" points="1144,-80.58 1154.13,-83.7 1148.16,-74.95 1144,-80.58"/>
</g>
<!-- Node10&#45;&gt;Node6 -->
<g id="edge12" class="edge">
<title>Node10&#45;&gt;Node6</title>
<path fill="none" stroke="midnightblue" d="M1112.33,-81.34C1062.58,-67.78 993.16,-48.88 946.17,-36.07"/>
<polygon fill="midnightblue" stroke="midnightblue" points="1111.43,-84.72 1122,-83.97 1113.27,-77.97 1111.43,-84.72"/>
</g>
<!-- Node10&#45;&gt;Node7 -->
<g id="edge14" class="edge">
<title>Node10&#45;&gt;Node7</title>
<path fill="none" stroke="midnightblue" d="M1074.87,-82.64C1061.66,-80.89 1048.26,-79.28 1035.5,-78 754.24,-49.7 681.15,-75.8 400.5,-42 387.63,-40.45 373.97,-38.31 360.86,-36.01"/>
<polygon fill="midnightblue" stroke="midnightblue" points="1074.55,-86.13 1084.93,-84 1075.49,-79.19 1074.55,-86.13"/>
</g>
<!-- Node10&#45;&gt;Node8 -->
<g id="edge15" class="edge">
<title>Node10&#45;&gt;Node8</title>
<path fill="none" stroke="midnightblue" d="M1073.27,-82.77C1060.57,-81.04 1047.74,-79.41 1035.5,-78 848.05,-56.46 799.45,-67.52 612.5,-42 600.44,-40.35 587.67,-38.25 575.33,-36.04"/>
<polygon fill="midnightblue" stroke="midnightblue" points="1073.02,-86.27 1083.41,-84.16 1073.98,-79.33 1073.02,-86.27"/>
</g>
<!-- Node10&#45;&gt;Node9 -->
<g id="edge16" class="edge">
<title>Node10&#45;&gt;Node9</title>
<path fill="none" stroke="midnightblue" d="M1093.53,-82.17C1085.42,-80.7 1077.3,-79.28 1069.5,-78 953.09,-58.85 922.78,-61.92 806.5,-42 803.62,-41.51 800.69,-40.99 797.74,-40.46"/>
<polygon fill="midnightblue" stroke="midnightblue" points="1092.92,-85.62 1103.38,-83.98 1094.18,-78.73 1092.92,-85.62"/>
</g>
<!-- Node11 -->
<g id="node11" class="node">
<title>Node11</title>
<g id="a_node11"><a xlink:href="HaighWestergaard_8cpp.html" target="_top" xlink:title=" ">
<polygon fill="white" stroke="black" points="1343.5,-6 1343.5,-36 1501.5,-36 1501.5,-6 1343.5,-6"/>
<text text-anchor="start" x="1351.5" y="-24" font-family="Helvetica,sans-Serif" font-size="10.00">modules/core/MarmotMechanics</text>
<text text-anchor="middle" x="1422.5" y="-13" font-family="Helvetica,sans-Serif" font-size="10.00">Core/src/HaighWestergaard.cpp</text>
</a>
</g>
</g>
<!-- Node10&#45;&gt;Node11 -->
<g id="edge10" class="edge">
<title>Node10&#45;&gt;Node11</title>
<path fill="none" stroke="midnightblue" d="M1229.21,-81C1273.53,-67.47 1334.79,-48.77 1376.39,-36.07"/>
<polygon fill="midnightblue" stroke="midnightblue" points="1228,-77.7 1219.46,-83.97 1230.05,-84.4 1228,-77.7"/>
</g>
<!-- Node12 -->
<g id="node12" class="node">
<title>Node12</title>
<g id="a_node12"><a xlink:href="MarmotLowerDimensionalStress_8cpp.html" target="_top" xlink:title=" ">
<polygon fill="white" stroke="black" points="1695.5,-0.5 1695.5,-41.5 1865.5,-41.5 1865.5,-0.5 1695.5,-0.5"/>
<text text-anchor="start" x="1703.5" y="-29.5" font-family="Helvetica,sans-Serif" font-size="10.00">modules/core/MarmotMechanics</text>
<text text-anchor="start" x="1703.5" y="-18.5" font-family="Helvetica,sans-Serif" font-size="10.00">Core/src/MarmotLowerDimensional</text>
<text text-anchor="middle" x="1780.5" y="-7.5" font-family="Helvetica,sans-Serif" font-size="10.00">Stress.cpp</text>
</a>
</g>
</g>
<!-- Node10&#45;&gt;Node12 -->
<g id="edge13" class="edge">
<title>Node10&#45;&gt;Node12</title>
<path fill="none" stroke="midnightblue" d="M1273.65,-88.28C1399.82,-75.82 1609.47,-54.37 1686.5,-42 1689.38,-41.54 1692.31,-41.04 1695.26,-40.53"/>
<polygon fill="midnightblue" stroke="midnightblue" points="1273.2,-84.81 1263.59,-89.27 1273.88,-91.77 1273.2,-84.81"/>
</g>
<!-- Node13 -->
<g id="node13" class="node">
<title>Node13</title>
<g id="a_node13"><a xlink:href="MarmotTensor_8cpp.html" target="_top" xlink:title=" ">
<polygon fill="white" stroke="black" points="1167.5,-6 1167.5,-36 1325.5,-36 1325.5,-6 1167.5,-6"/>
<text text-anchor="start" x="1175.5" y="-24" font-family="Helvetica,sans-Serif" font-size="10.00">modules/core/MarmotMechanics</text>
<text text-anchor="middle" x="1246.5" y="-13" font-family="Helvetica,sans-Serif" font-size="10.00">Core/src/MarmotTensor.cpp</text>
</a>
</g>
</g>
<!-- Node10&#45;&gt;Node13 -->
<g id="edge17" class="edge">
<title>Node10&#45;&gt;Node13</title>
<path fill="none" stroke="midnightblue" d="M1194.47,-76.17C1206.8,-63.33 1222.04,-47.47 1232.83,-36.23"/>
<polygon fill="midnightblue" stroke="midnightblue" points="1191.63,-74.07 1187.23,-83.7 1196.68,-78.92 1191.63,-74.07"/>
</g>
<!-- Node14 -->
<g id="node14" class="node">
<title>Node14</title>
<g id="a_node14"><a xlink:href="MarmotVoigt_8cpp.html" target="_top" xlink:title=" ">
<polygon fill="white" stroke="black" points="1519.5,-6 1519.5,-36 1677.5,-36 1677.5,-6 1519.5,-6"/>
<text text-anchor="start" x="1527.5" y="-24" font-family="Helvetica,sans-Serif" font-size="10.00">modules/core/MarmotMechanics</text>
<text text-anchor="middle" x="1598.5" y="-13" font-family="Helvetica,sans-Serif" font-size="10.00">Core/src/MarmotVoigt.cpp</text>
</a>
</g>
</g>
<!-- Node10&#45;&gt;Node14 -->
<g id="edge18" class="edge">
<title>Node10&#45;&gt;Node14</title>
<path fill="none" stroke="midnightblue" d="M1273.67,-82.93C1340.85,-72.44 1431.21,-57.59 1510.5,-42 1519.72,-40.19 1529.46,-38.13 1538.96,-36.03"/>
<polygon fill="midnightblue" stroke="midnightblue" points="1272.86,-79.52 1263.52,-84.52 1273.94,-86.44 1272.86,-79.52"/>
</g>
<!-- Node15&#45;&gt;Node4 -->
<g id="edge27" class="edge">
<title>Node15&#45;&gt;Node4</title>
<path fill="none" stroke="midnightblue" d="M1213.8,-166.45C1117.83,-156.53 966.67,-139.72 836.5,-120 824.91,-118.24 812.65,-116.18 800.72,-114.05"/>
<polygon fill="midnightblue" stroke="midnightblue" points="1213.47,-169.93 1223.78,-167.48 1214.19,-162.97 1213.47,-169.93"/>
</g>
<!-- Node15&#45;&gt;Node5 -->
<g id="edge32" class="edge">
<title>Node15&#45;&gt;Node5</title>
<path fill="none" stroke="midnightblue" d="M1307.33,-151.74C1303.15,-129.48 1293.66,-97.15 1272.5,-78 1261.83,-68.34 1187.16,-49.22 1131.69,-36.03"/>
<polygon fill="midnightblue" stroke="midnightblue" points="1303.9,-152.46 1308.98,-161.76 1310.81,-151.32 1303.9,-152.46"/>
</g>
<!-- Node15&#45;&gt;Node7 -->
<g id="edge34" class="edge">
<title>Node15&#45;&gt;Node7</title>
<path fill="none" stroke="midnightblue" d="M1213.59,-173.02C1038.73,-166.94 677.35,-151 555.5,-120 511.55,-108.82 504.76,-94.45 462.5,-78 421.53,-62.05 373.91,-46.62 339.51,-36.01"/>
<polygon fill="midnightblue" stroke="midnightblue" points="1213.7,-176.52 1223.81,-173.37 1213.94,-169.53 1213.7,-176.52"/>
</g>
<!-- Node15&#45;&gt;Node8 -->
<g id="edge35" class="edge">
<title>Node15&#45;&gt;Node8</title>
<path fill="none" stroke="midnightblue" d="M1213.66,-175.54C1049.48,-173.53 724.12,-163.94 619.5,-120 575.21,-101.4 535.92,-58.5 517.53,-36.14"/>
<polygon fill="midnightblue" stroke="midnightblue" points="1213.72,-179.04 1223.76,-175.65 1213.8,-172.04 1213.72,-179.04"/>
</g>
<!-- Node15&#45;&gt;Node9 -->
<g id="edge36" class="edge">
<title>Node15&#45;&gt;Node9</title>
<path fill="none" stroke="midnightblue" d="M1213.79,-166.14C1169.1,-158.4 1116.69,-144.59 1074.5,-120 1052.49,-107.17 1057.99,-89.97 1035.5,-78 944.56,-29.59 907.87,-60.41 806.5,-42 803.62,-41.48 800.7,-40.94 797.75,-40.38"/>
<polygon fill="midnightblue" stroke="midnightblue" points="1213.36,-169.61 1223.8,-167.79 1214.5,-162.71 1213.36,-169.61"/>
</g>
<!-- Node15&#45;&gt;Node10 -->
<g id="edge30" class="edge">
<title>Node15&#45;&gt;Node10</title>
<path fill="none" stroke="midnightblue" d="M1276.25,-157C1252.21,-143.66 1220.59,-126.12 1198.81,-114.04"/>
<polygon fill="midnightblue" stroke="midnightblue" points="1274.61,-160.09 1285.05,-161.88 1278.01,-153.97 1274.61,-160.09"/>
</g>
<!-- Node15&#45;&gt;Node11 -->
<g id="edge31" class="edge">
<title>Node15&#45;&gt;Node11</title>
<path fill="none" stroke="midnightblue" d="M1317.4,-152.21C1324.25,-131.25 1336.25,-100.63 1353.5,-78 1366.31,-61.19 1385.17,-46.33 1399.94,-36.15"/>
<polygon fill="midnightblue" stroke="midnightblue" points="1314,-151.33 1314.36,-161.91 1320.68,-153.42 1314,-151.33"/>
</g>
<!-- Node15&#45;&gt;Node12 -->
<g id="edge33" class="edge">
<title>Node15&#45;&gt;Node12</title>
<path fill="none" stroke="midnightblue" d="M1341.48,-156.28C1356.34,-146.21 1374.02,-133.28 1388.5,-120 1406.62,-103.38 1402.92,-89.77 1424.5,-78 1527.69,-21.72 1570.72,-62.24 1686.5,-42 1689.46,-41.48 1692.47,-40.94 1695.5,-40.38"/>
<polygon fill="midnightblue" stroke="midnightblue" points="1339.47,-153.41 1333.09,-161.87 1343.36,-159.24 1339.47,-153.41"/>
</g>
<!-- Node15&#45;&gt;Node14 -->
<g id="edge39" class="edge">
<title>Node15&#45;&gt;Node14</title>
<path fill="none" stroke="midnightblue" d="M1327.9,-153.52C1349.21,-126.23 1383.46,-83.18 1391.5,-78 1404.1,-69.89 1482.72,-49.83 1539.34,-36.06"/>
<polygon fill="midnightblue" stroke="midnightblue" points="1324.87,-151.72 1321.49,-161.76 1330.39,-156.02 1324.87,-151.72"/>
</g>
<!-- Node16 -->
<g id="node16" class="node">
<title>Node16</title>
<g id="a_node16"><a xlink:href="HughesWinget_8h.html" target="_top" xlink:title=" ">
<polygon fill="white" stroke="black" points="846,-84 846,-114 1027,-114 1027,-84 846,-84"/>
<text text-anchor="start" x="854" y="-102" font-family="Helvetica,sans-Serif" font-size="10.00">modules/core/MarmotMechanics</text>
<text text-anchor="middle" x="936.5" y="-91" font-family="Helvetica,sans-Serif" font-size="10.00">Core/include/Marmot/HughesWinget.h</text>
</a>
</g>
</g>
<!-- Node15&#45;&gt;Node16 -->
<g id="edge20" class="edge">
<title>Node15&#45;&gt;Node16</title>
<path fill="none" stroke="midnightblue" d="M1231.38,-159.92C1164.4,-146.31 1069.36,-127 1005.45,-114.01"/>
<polygon fill="midnightblue" stroke="midnightblue" points="1230.97,-163.41 1241.47,-161.97 1232.36,-156.55 1230.97,-163.41"/>
</g>
<!-- Node17 -->
<g id="node17" class="node">
<title>Node17</title>
<g id="a_node17"><a xlink:href="MarmotElasticity_8h.html" target="_top" xlink:title=" ">
<polygon fill="white" stroke="black" points="1622,-84 1622,-114 1811,-114 1811,-84 1622,-84"/>
<text text-anchor="start" x="1630" y="-102" font-family="Helvetica,sans-Serif" font-size="10.00">modules/core/MarmotMechanics</text>
<text text-anchor="middle" x="1716.5" y="-91" font-family="Helvetica,sans-Serif" font-size="10.00">Core/include/Marmot/MarmotElasticity.h</text>
</a>
</g>
</g>
<!-- Node15&#45;&gt;Node17 -->
<g id="edge24" class="edge">
<title>Node15&#45;&gt;Node17</title>
<path fill="none" stroke="midnightblue" d="M1390.8,-159.96C1397.8,-158.6 1404.77,-157.27 1411.5,-156 1500.68,-139.18 1523.27,-136.57 1612.5,-120 1622.71,-118.1 1633.48,-116.07 1644.07,-114.05"/>
<polygon fill="midnightblue" stroke="midnightblue" points="1389.7,-156.61 1380.56,-161.96 1391.04,-163.48 1389.7,-156.61"/>
</g>
<!-- Node15&#45;&gt;Node19 -->
<g id="edge40" class="edge">
<title>Node15&#45;&gt;Node19</title>
<path fill="none" stroke="midnightblue" d="M1378.95,-159.95C1386.53,-158.48 1394.16,-157.12 1401.5,-156 1493.89,-141.94 1736.52,-160.99 1820.5,-120 1843.39,-108.83 1837.2,-90.31 1859.5,-78 1935.13,-36.26 1966.14,-60.61 2050.5,-42 2058.79,-40.17 2067.53,-38.1 2076.06,-36"/>
<polygon fill="midnightblue" stroke="midnightblue" points="1378.14,-156.55 1369.03,-161.96 1379.53,-163.41 1378.14,-156.55"/>
</g>
<!-- Node20 -->
<g id="node20" class="node">
<title>Node20</title>
<g id="a_node20"><a xlink:href="MarmotLowerDimensionalStress_8h.html" target="_top" xlink:title=" ">
<polygon fill="white" stroke="black" points="1433.5,-78.5 1433.5,-119.5 1603.5,-119.5 1603.5,-78.5 1433.5,-78.5"/>
<text text-anchor="start" x="1441.5" y="-107.5" font-family="Helvetica,sans-Serif" font-size="10.00">modules/core/MarmotMechanics</text>
<text text-anchor="start" x="1441.5" y="-96.5" font-family="Helvetica,sans-Serif" font-size="10.00">Core/include/Marmot/MarmotLower</text>
<text text-anchor="middle" x="1518.5" y="-85.5" font-family="Helvetica,sans-Serif" font-size="10.00">DimensionalStress.h</text>
</a>
</g>
</g>
<!-- Node15&#45;&gt;Node20 -->
<g id="edge28" class="edge">
<title>Node15&#45;&gt;Node20</title>
<path fill="none" stroke="midnightblue" d="M1358.65,-158.41C1390.38,-146.81 1431.98,-131.61 1464.78,-119.63"/>
<polygon fill="midnightblue" stroke="midnightblue" points="1357.33,-155.16 1349.14,-161.88 1359.73,-161.74 1357.33,-155.16"/>
</g>
<!-- Node15&#45;&gt;Node21 -->
<g id="edge37" class="edge">
<title>Node15&#45;&gt;Node21</title>
<path fill="none" stroke="midnightblue" d="M1385.37,-160.19C1394.16,-158.62 1403.01,-157.18 1411.5,-156 1606.71,-128.81 1658.08,-145.66 1853.5,-120 1866.01,-118.36 1879.26,-116.26 1892.06,-114.04"/>
<polygon fill="midnightblue" stroke="midnightblue" points="1384.72,-156.75 1375.51,-161.99 1385.98,-163.63 1384.72,-156.75"/>
</g>
<!-- Node15&#45;&gt;Node22 -->
<g id="edge38" class="edge">
<title>Node15&#45;&gt;Node22</title>
<path fill="none" stroke="midnightblue" d="M1407.34,-160.99C1421.46,-159.12 1435.84,-157.38 1449.5,-156 1723.69,-128.35 1795.65,-158.67 2068.5,-120 2079.05,-118.51 2090.2,-116.39 2100.89,-114.1"/>
<polygon fill="midnightblue" stroke="midnightblue" points="1406.55,-157.57 1397.11,-162.38 1407.49,-164.5 1406.55,-157.57"/>
</g>
<!-- Node16&#45;&gt;Node5 -->
<g id="edge21" class="edge">
<title>Node16&#45;&gt;Node5</title>
<path fill="none" stroke="midnightblue" d="M970.31,-78.82C993.79,-65.51 1024.53,-48.07 1045.74,-36.04"/>
<polygon fill="midnightblue" stroke="midnightblue" points="968.36,-75.91 961.39,-83.88 971.82,-81.99 968.36,-75.91"/>
</g>
<!-- Node16&#45;&gt;Node8 -->
<g id="edge22" class="edge">
<title>Node16&#45;&gt;Node8</title>
<path fill="none" stroke="midnightblue" d="M858.25,-82.05C850.91,-80.65 843.57,-79.27 836.5,-78 737.27,-60.11 711.83,-59.35 612.5,-42 601.8,-40.13 590.51,-38.08 579.44,-36.03"/>
<polygon fill="midnightblue" stroke="midnightblue" points="857.77,-85.53 868.25,-83.99 859.1,-78.65 857.77,-85.53"/>
</g>
<!-- Node16&#45;&gt;Node9 -->
<g id="edge23" class="edge">
<title>Node16&#45;&gt;Node9</title>
<path fill="none" stroke="midnightblue" d="M885.08,-80.79C850.22,-69.11 804.07,-53.66 767.83,-41.53"/>
<polygon fill="midnightblue" stroke="midnightblue" points="884.01,-84.12 894.6,-83.97 886.23,-77.48 884.01,-84.12"/>
</g>
<!-- Node18 -->
<g id="node18" class="node">
<title>Node18</title>
<g id="a_node18"><a xlink:href="MarmotElasticity_8cpp.html" target="_top" xlink:title=" ">
<polygon fill="white" stroke="black" points="1883.5,-6 1883.5,-36 2041.5,-36 2041.5,-6 1883.5,-6"/>
<text text-anchor="start" x="1891.5" y="-24" font-family="Helvetica,sans-Serif" font-size="10.00">modules/core/MarmotMechanics</text>
<text text-anchor="middle" x="1962.5" y="-13" font-family="Helvetica,sans-Serif" font-size="10.00">Core/src/MarmotElasticity.cpp</text>
</a>
</g>
</g>
<!-- Node17&#45;&gt;Node18 -->
<g id="edge25" class="edge">
<title>Node17&#45;&gt;Node18</title>
<path fill="none" stroke="midnightblue" d="M1771.54,-81C1815.32,-67.47 1875.85,-48.77 1916.94,-36.07"/>
<polygon fill="midnightblue" stroke="midnightblue" points="1770.43,-77.68 1761.91,-83.97 1772.49,-84.36 1770.43,-77.68"/>
</g>
<!-- Node17&#45;&gt;Node19 -->
<g id="edge26" class="edge">
<title>Node17&#45;&gt;Node19</title>
<path fill="none" stroke="midnightblue" d="M1801.89,-82.14C1809.87,-80.72 1817.83,-79.32 1825.5,-78 1925.31,-60.86 1951.31,-62.45 2050.5,-42 2058.95,-40.26 2067.86,-38.21 2076.53,-36.1"/>
<polygon fill="midnightblue" stroke="midnightblue" points="1801.03,-78.74 1791.81,-83.95 1802.27,-85.63 1801.03,-78.74"/>
</g>
<!-- Node20&#45;&gt;Node12 -->
<g id="edge29" class="edge">
<title>Node20&#45;&gt;Node12</title>
<path fill="none" stroke="midnightblue" d="M1595.79,-75.58C1633.08,-64.76 1677.38,-51.91 1713.26,-41.51"/>
<polygon fill="midnightblue" stroke="midnightblue" points="1594.6,-72.28 1585.97,-78.43 1596.55,-79 1594.6,-72.28"/>
</g>
</g>
</svg>
        <g id="navigator" transform="translate(0 0)" fill="#404254">
                <rect fill="#f2f5e9" fill-opacity="0.5" stroke="#606060" stroke-width=".5" x="0" y="0" width="60" height="60"/>
                <use id="zoomplus" xlink:href="#zoomPlus" x="17" y="9" onmousedown="handleZoom(evt,'in')"/>
                <use id="zoomminus" xlink:href="#zoomMin" x="42" y="9" onmousedown="handleZoom(evt,'out')"/>
                <use id="reset" xlink:href="#resetDef" x="30" y="36" onmousedown="handleReset()"/>
                <g id="arrowUp" xlink:href="#dirArrow" transform="translate(30 24)" onmousedown="handlePan(0,-1)">
                  <use xlink:href="#rim" fill="#404040">
                        <set attributeName="fill" to="#808080" begin="arrowUp.mouseover" end="arrowUp.mouseout"/>
                  </use>
                  <path fill="none" stroke="white" stroke-width="1.5" d="M0,-3.0v7 M-2.5,-0.5L0,-3.0L2.5,-0.5"/>
                </g>
                <g id="arrowRight" xlink:href="#dirArrow" transform="rotate(90) translate(36 -43)" onmousedown="handlePan(1,0)">
                  <use xlink:href="#rim" fill="#404040">
                        <set attributeName="fill" to="#808080" begin="arrowRight.mouseover" end="arrowRight.mouseout"/>
                  </use>
                  <path fill="none" stroke="white" stroke-width="1.5" d="M0,-3.0v7 M-2.5,-0.5L0,-3.0L2.5,-0.5"/>
                </g>
                <g id="arrowDown" xlink:href="#dirArrow" transform="rotate(180) translate(-30 -48)" onmousedown="handlePan(0,1)">
                  <use xlink:href="#rim" fill="#404040">
                        <set attributeName="fill" to="#808080" begin="arrowDown.mouseover" end="arrowDown.mouseout"/>
                  </use>
                  <path fill="none" stroke="white" stroke-width="1.5" d="M0,-3.0v7 M-2.5,-0.5L0,-3.0L2.5,-0.5"/>
                </g>
                <g id="arrowLeft" xlink:href="#dirArrow" transform="rotate(270) translate(-36 17)" onmousedown="handlePan(-1,0)">
                  <use xlink:href="#rim" fill="#404040">
                        <set attributeName="fill" to="#808080" begin="arrowLeft.mouseover" end="arrowLeft.mouseout"/>
                  </use>
                  <path fill="none" stroke="white" stroke-width="1.5" d="M0,-3.0v7 M-2.5,-0.5L0,-3.0L2.5,-0.5"/>
                </g>
        </g>
        <svg viewBox="0 0 15 15" width="100%" height="30px" preserveAspectRatio="xMaxYMin meet">
         <g id="arrow_out" transform="scale(0.3 0.3)">
          <a xlink:href="MarmotJournal_8h__dep__incl_org.svg" target="_base">
           <rect id="button" ry="5" rx="5" y="6" x="6" height="38" width="38"
                fill="#f2f5e9" fill-opacity="0.5" stroke="#606060" stroke-width="1.0"/>
           <path id="arrow"
             d="M 11.500037,31.436501 C 11.940474,20.09759 22.043105,11.32322 32.158766,21.979434 L 37.068811,17.246167 C 37.068811,17.246167 37.088388,32 37.088388,32 L 22.160133,31.978069 C 22.160133,31.978069 26.997745,27.140456 26.997745,27.140456 C 18.528582,18.264221 13.291696,25.230495 11.500037,31.436501 z"
             style="fill:#404040;"/>
          </a>
         </g>
        </svg>
</svg>
