<?xml version="1.0" encoding="UTF-8" standalone="no"?>
<!DOCTYPE svg PUBLIC "-//W3C//DTD SVG 1.1//EN"
 "http://www.w3.org/Graphics/SVG/1.1/DTD/svg11.dtd">
<!-- Generated by graphviz version 2.46.0 (20210122.1329)
 -->
<!-- Title: modules/core/MarmotMechanicsCore/include/Marmot/MarmotVoigt.h Pages: 1 -->
<svg width="1436pt" height="184pt"
 viewBox="0.00 0.00 1436.00 184.00" xmlns="http://www.w3.org/2000/svg" xmlns:xlink="http://www.w3.org/1999/xlink">
<g id="graph0" class="graph" transform="scale(1 1) rotate(0) translate(4 180)">
<title>modules/core/MarmotMechanicsCore/include/Marmot/MarmotVoigt.h</title>
<polygon fill="white" stroke="transparent" points="-4,4 -4,-180 1432,-180 1432,4 -4,4"/>
<!-- Node1 -->
<g id="node1" class="node">
<title>Node1</title>
<g id="a_node1"><a xlink:title=" ">
<polygon fill="#bfbfbf" stroke="black" points="631.5,-145.5 631.5,-175.5 804.5,-175.5 804.5,-145.5 631.5,-145.5"/>
<text text-anchor="start" x="639.5" y="-163.5" font-family="Helvetica,sans-Serif" font-size="10.00">modules/core/MarmotMechanics</text>
<text text-anchor="middle" x="718" y="-152.5" font-family="Helvetica,sans-Serif" font-size="10.00">Core/include/Marmot/MarmotVoigt.h</text>
</a>
</g>
</g>
<!-- Node2 -->
<g id="node2" class="node">
<title>Node2</title>
<g id="a_node2"><a xlink:href="HughesWinget_8h.html" target="_top" xlink:title=" ">
<polygon fill="white" stroke="black" points="134.5,-78.5 134.5,-108.5 315.5,-108.5 315.5,-78.5 134.5,-78.5"/>
<text text-anchor="start" x="142.5" y="-96.5" font-family="Helvetica,sans-Serif" font-size="10.00">modules/core/MarmotMechanics</text>
<text text-anchor="middle" x="225" y="-85.5" font-family="Helvetica,sans-Serif" font-size="10.00">Core/include/Marmot/HughesWinget.h</text>
</a>
</g>
</g>
<!-- Node1&#45;&gt;Node2 -->
<g id="edge1" class="edge">
<title>Node1&#45;&gt;Node2</title>
<path fill="none" stroke="midnightblue" d="M620.93,-147.08C542.43,-136.98 429.07,-122.29 330,-109 325.35,-108.38 320.58,-107.73 315.77,-107.08"/>
<polygon fill="midnightblue" stroke="midnightblue" points="620.93,-150.61 631.29,-148.41 621.82,-143.66 620.93,-150.61"/>
</g>
<!-- Node3 -->
<g id="node3" class="node">
<title>Node3</title>
<g id="a_node3"><a xlink:href="HughesWinget_8cpp.html" target="_top" xlink:title=" ">
<polygon fill="white" stroke="black" points="212,-6 212,-36 370,-36 370,-6 212,-6"/>
<text text-anchor="start" x="220" y="-24" font-family="Helvetica,sans-Serif" font-size="10.00">modules/core/MarmotMechanics</text>
<text text-anchor="middle" x="291" y="-13" font-family="Helvetica,sans-Serif" font-size="10.00">Core/src/HughesWinget.cpp</text>
</a>
</g>
</g>
<!-- Node1&#45;&gt;Node3 -->
<g id="edge19" class="edge">
<title>Node1&#45;&gt;Node3</title>
<path fill="none" stroke="midnightblue" d="M621.3,-153.58C531.71,-146.7 406.02,-133.08 363,-109 332.38,-91.86 309.38,-56.15 298.31,-36.22"/>
<polygon fill="midnightblue" stroke="midnightblue" points="621.25,-157.08 631.49,-154.34 621.78,-150.1 621.25,-157.08"/>
</g>
<!-- Node4 -->
<g id="node4" class="node">
<title>Node4</title>
<g id="a_node4"><a xlink:href="MarmotMaterialHypoElastic_8cpp.html" target="_top" xlink:title=" ">
<polygon fill="white" stroke="black" points="0,-6 0,-36 194,-36 194,-6 0,-6"/>
<text text-anchor="start" x="8" y="-24" font-family="Helvetica,sans-Serif" font-size="10.00">modules/core/MarmotMechanics</text>
<text text-anchor="middle" x="97" y="-13" font-family="Helvetica,sans-Serif" font-size="10.00">Core/src/MarmotMaterialHypoElastic.cpp</text>
</a>
</g>
</g>
<!-- Node1&#45;&gt;Node4 -->
<g id="edge21" class="edge">
<title>Node1&#45;&gt;Node4</title>
<path fill="none" stroke="midnightblue" d="M621.2,-157.06C463.02,-152.21 162.87,-139.14 125,-109 102.78,-91.31 97.94,-55.83 97.04,-36.08"/>
<polygon fill="midnightblue" stroke="midnightblue" points="621.31,-160.56 631.41,-157.36 621.52,-153.56 621.31,-160.56"/>
</g>
<!-- Node5 -->
<g id="node5" class="node">
<title>Node5</title>
<g id="a_node5"><a xlink:href="MarmotMaterialHypoElasticNonLocal_8cpp.html" target="_top" xlink:title=" ">
<polygon fill="white" stroke="black" points="388,-0.5 388,-41.5 564,-41.5 564,-0.5 388,-0.5"/>
<text text-anchor="start" x="396" y="-29.5" font-family="Helvetica,sans-Serif" font-size="10.00">modules/core/MarmotMechanics</text>
<text text-anchor="start" x="396" y="-18.5" font-family="Helvetica,sans-Serif" font-size="10.00">Core/src/MarmotMaterialHypoElastic</text>
<text text-anchor="middle" x="476" y="-7.5" font-family="Helvetica,sans-Serif" font-size="10.00">NonLocal.cpp</text>
</a>
</g>
</g>
<!-- Node1&#45;&gt;Node5 -->
<g id="edge22" class="edge">
<title>Node1&#45;&gt;Node5</title>
<path fill="none" stroke="midnightblue" d="M677.13,-140.93C658.87,-132.07 637.38,-120.82 619,-109 600.38,-97.02 598.49,-90.19 580,-78 559.8,-64.68 536.12,-51.74 516.47,-41.67"/>
<polygon fill="midnightblue" stroke="midnightblue" points="675.81,-144.19 686.35,-145.34 678.83,-137.87 675.81,-144.19"/>
</g>
<!-- Node6 -->
<g id="node6" class="node">
<title>Node6</title>
<g id="a_node6"><a xlink:href="MarmotKinematics_8h.html" target="_top" xlink:title=" ">
<polygon fill="white" stroke="black" points="372.5,-78.5 372.5,-108.5 571.5,-108.5 571.5,-78.5 372.5,-78.5"/>
<text text-anchor="start" x="380.5" y="-96.5" font-family="Helvetica,sans-Serif" font-size="10.00">modules/core/MarmotMechanics</text>
<text text-anchor="middle" x="472" y="-85.5" font-family="Helvetica,sans-Serif" font-size="10.00">Core/include/Marmot/MarmotKinematics.h</text>
</a>
</g>
</g>
<!-- Node1&#45;&gt;Node6 -->
<g id="edge5" class="edge">
<title>Node1&#45;&gt;Node6</title>
<path fill="none" stroke="midnightblue" d="M655.24,-142.92C615.1,-132.31 563.58,-118.7 525.4,-108.61"/>
<polygon fill="midnightblue" stroke="midnightblue" points="654.36,-146.31 664.92,-145.48 656.15,-139.54 654.36,-146.31"/>
</g>
<!-- Node8 -->
<g id="node8" class="node">
<title>Node8</title>
<g id="a_node8"><a xlink:href="MarmotMaterialHyperElastic_8cpp.html" target="_top" xlink:title=" ">
<polygon fill="white" stroke="black" points="758.5,-6 758.5,-36 955.5,-36 955.5,-6 758.5,-6"/>
<text text-anchor="start" x="766.5" y="-24" font-family="Helvetica,sans-Serif" font-size="10.00">modules/core/MarmotMechanics</text>
<text text-anchor="middle" x="857" y="-13" font-family="Helvetica,sans-Serif" font-size="10.00">Core/src/MarmotMaterialHyperElastic.cpp</text>
</a>
</g>
</g>
<!-- Node1&#45;&gt;Node8 -->
<g id="edge20" class="edge">
<title>Node1&#45;&gt;Node8</title>
<path fill="none" stroke="midnightblue" d="M769.25,-141.3C786.07,-133.39 803.81,-122.74 817,-109 837.15,-88.01 848.44,-55.06 853.57,-36.31"/>
<polygon fill="midnightblue" stroke="midnightblue" points="767.74,-138.14 760.04,-145.41 770.6,-144.53 767.74,-138.14"/>
</g>
<!-- Node9 -->
<g id="node9" class="node">
<title>Node9</title>
<g id="a_node9"><a xlink:href="MarmotTensor_8h.html" target="_top" xlink:title=" ">
<polygon fill="white" stroke="black" points="628,-78.5 628,-108.5 808,-108.5 808,-78.5 628,-78.5"/>
<text text-anchor="start" x="636" y="-96.5" font-family="Helvetica,sans-Serif" font-size="10.00">modules/core/MarmotMechanics</text>
<text text-anchor="middle" x="718" y="-85.5" font-family="Helvetica,sans-Serif" font-size="10.00">Core/include/Marmot/MarmotTensor.h</text>
</a>
</g>
</g>
<!-- Node1&#45;&gt;Node9 -->
<g id="edge11" class="edge">
<title>Node1&#45;&gt;Node9</title>
<path fill="none" stroke="midnightblue" d="M718,-135.11C718,-126.15 718,-116.32 718,-108.58"/>
<polygon fill="midnightblue" stroke="midnightblue" points="714.5,-135.4 718,-145.4 721.5,-135.4 714.5,-135.4"/>
</g>
<!-- Node11 -->
<g id="node11" class="node">
<title>Node11</title>
<g id="a_node11"><a xlink:href="MarmotVoigt_8cpp.html" target="_top" xlink:title=" ">
<polygon fill="white" stroke="black" points="1150,-6 1150,-36 1308,-36 1308,-6 1150,-6"/>
<text text-anchor="start" x="1158" y="-24" font-family="Helvetica,sans-Serif" font-size="10.00">modules/core/MarmotMechanics</text>
<text text-anchor="middle" x="1229" y="-13" font-family="Helvetica,sans-Serif" font-size="10.00">Core/src/MarmotVoigt.cpp</text>
</a>
</g>
</g>
<!-- Node1&#45;&gt;Node11 -->
<g id="edge25" class="edge">
<title>Node1&#45;&gt;Node11</title>
<path fill="none" stroke="midnightblue" d="M766.29,-141.79C789.54,-132.77 817.6,-121.15 842,-109 866.08,-97 868.64,-87 894,-78 998.54,-40.88 1031.94,-62.31 1141,-42 1150.4,-40.25 1160.31,-38.2 1169.96,-36.09"/>
<polygon fill="midnightblue" stroke="midnightblue" points="764.73,-138.64 756.65,-145.49 767.24,-145.17 764.73,-138.64"/>
</g>
<!-- Node12 -->
<g id="node12" class="node">
<title>Node12</title>
<g id="a_node12"><a xlink:href="MarmotMaterialMechanical_8cpp.html" target="_top" xlink:title=" ">
<polygon fill="white" stroke="black" points="902.5,-78.5 902.5,-108.5 1093.5,-108.5 1093.5,-78.5 902.5,-78.5"/>
<text text-anchor="start" x="910.5" y="-96.5" font-family="Helvetica,sans-Serif" font-size="10.00">modules/core/MarmotMechanics</text>
<text text-anchor="middle" x="998" y="-85.5" font-family="Helvetica,sans-Serif" font-size="10.00">Core/src/MarmotMaterialMechanical.cpp</text>
</a>
</g>
</g>
<!-- Node1&#45;&gt;Node12 -->
<g id="edge23" class="edge">
<title>Node1&#45;&gt;Node12</title>
<path fill="none" stroke="midnightblue" d="M788.28,-143.19C834.13,-132.54 893.39,-118.78 937.21,-108.61"/>
<polygon fill="midnightblue" stroke="midnightblue" points="787.36,-139.81 778.41,-145.48 788.94,-146.62 787.36,-139.81"/>
</g>
<!-- Node13 -->
<g id="node13" class="node">
<title>Node13</title>
<g id="a_node13"><a xlink:href="MarmotUtility_8cpp.html" target="_top" xlink:title=" ">
<polygon fill="white" stroke="black" points="1112,-78.5 1112,-108.5 1270,-108.5 1270,-78.5 1112,-78.5"/>
<text text-anchor="start" x="1120" y="-96.5" font-family="Helvetica,sans-Serif" font-size="10.00">modules/core/MarmotMechanics</text>
<text text-anchor="middle" x="1191" y="-85.5" font-family="Helvetica,sans-Serif" font-size="10.00">Core/src/MarmotUtility.cpp</text>
</a>
</g>
</g>
<!-- Node1&#45;&gt;Node13 -->
<g id="edge24" class="edge">
<title>Node1&#45;&gt;Node13</title>
<path fill="none" stroke="midnightblue" d="M814.79,-147.7C892.72,-137.98 1005.03,-123.49 1103,-109 1105.91,-108.57 1108.87,-108.12 1111.87,-107.67"/>
<polygon fill="midnightblue" stroke="midnightblue" points="814,-144.27 804.51,-148.98 814.86,-151.22 814,-144.27"/>
</g>
<!-- Node14 -->
<g id="node14" class="node">
<title>Node14</title>
<g id="a_node14"><a xlink:href="LinearElastic_8cpp.html" target="_top" xlink:title=" ">
<polygon fill="white" stroke="black" points="1288,-78.5 1288,-108.5 1428,-108.5 1428,-78.5 1288,-78.5"/>
<text text-anchor="start" x="1296" y="-96.5" font-family="Helvetica,sans-Serif" font-size="10.00">modules/materials/Linear</text>
<text text-anchor="middle" x="1358" y="-85.5" font-family="Helvetica,sans-Serif" font-size="10.00">Elastic/src/LinearElastic.cpp</text>
</a>
</g>
</g>
<!-- Node1&#45;&gt;Node14 -->
<g id="edge26" class="edge">
<title>Node1&#45;&gt;Node14</title>
<path fill="none" stroke="midnightblue" d="M815.04,-153.48C927.13,-145.9 1116.92,-131.12 1279,-109 1281.9,-108.6 1284.86,-108.18 1287.84,-107.72"/>
<polygon fill="midnightblue" stroke="midnightblue" points="814.52,-150.01 804.77,-154.17 814.98,-156.99 814.52,-150.01"/>
</g>
<!-- Node2&#45;&gt;Node3 -->
<g id="edge2" class="edge">
<title>Node2&#45;&gt;Node3</title>
<path fill="none" stroke="midnightblue" d="M245.25,-70.86C255.79,-59.61 268.36,-46.18 277.66,-36.25"/>
<polygon fill="midnightblue" stroke="midnightblue" points="242.64,-68.54 238.36,-78.23 247.75,-73.33 242.64,-68.54"/>
</g>
<!-- Node2&#45;&gt;Node4 -->
<g id="edge3" class="edge">
<title>Node2&#45;&gt;Node4</title>
<path fill="none" stroke="midnightblue" d="M190.61,-73.56C169.18,-61.76 142.07,-46.83 122.55,-36.07"/>
<polygon fill="midnightblue" stroke="midnightblue" points="188.96,-76.64 199.4,-78.4 192.33,-70.51 188.96,-76.64"/>
</g>
<!-- Node2&#45;&gt;Node5 -->
<g id="edge4" class="edge">
<title>Node2&#45;&gt;Node5</title>
<path fill="none" stroke="midnightblue" d="M284.89,-75.68C321.36,-65.44 368.11,-52.3 406.25,-41.59"/>
<polygon fill="midnightblue" stroke="midnightblue" points="283.57,-72.41 274.89,-78.49 285.46,-79.15 283.57,-72.41"/>
</g>
<!-- Node6&#45;&gt;Node3 -->
<g id="edge6" class="edge">
<title>Node6&#45;&gt;Node3</title>
<path fill="none" stroke="midnightblue" d="M426.18,-74.65C395.47,-62.69 355.6,-47.16 327.13,-36.07"/>
<polygon fill="midnightblue" stroke="midnightblue" points="425.22,-78.03 435.81,-78.4 427.76,-71.51 425.22,-78.03"/>
</g>
<!-- Node6&#45;&gt;Node4 -->
<g id="edge9" class="edge">
<title>Node6&#45;&gt;Node4</title>
<path fill="none" stroke="midnightblue" d="M387.18,-76.6C334.23,-66.66 264.64,-53.6 203,-42 192.79,-40.08 182.02,-38.05 171.42,-36.05"/>
<polygon fill="midnightblue" stroke="midnightblue" points="386.73,-80.07 397.21,-78.48 388.02,-73.19 386.73,-80.07"/>
</g>
<!-- Node6&#45;&gt;Node5 -->
<g id="edge10" class="edge">
<title>Node6&#45;&gt;Node5</title>
<path fill="none" stroke="midnightblue" d="M473.39,-67.98C473.88,-59.35 474.42,-49.76 474.89,-41.59"/>
<polygon fill="midnightblue" stroke="midnightblue" points="469.88,-68.05 472.81,-78.23 476.87,-68.45 469.88,-68.05"/>
</g>
<!-- Node7 -->
<g id="node7" class="node">
<title>Node7</title>
<g id="a_node7"><a xlink:href="MarmotKinematics_8cpp.html" target="_top" xlink:title=" ">
<polygon fill="white" stroke="black" points="582,-6 582,-36 740,-36 740,-6 582,-6"/>
<text text-anchor="start" x="590" y="-24" font-family="Helvetica,sans-Serif" font-size="10.00">modules/core/MarmotMechanics</text>
<text text-anchor="middle" x="661" y="-13" font-family="Helvetica,sans-Serif" font-size="10.00">Core/src/MarmotKinematics.cpp</text>
</a>
</g>
</g>
<!-- Node6&#45;&gt;Node7 -->
<g id="edge7" class="edge">
<title>Node6&#45;&gt;Node7</title>
<path fill="none" stroke="midnightblue" d="M519.42,-74.81C551.55,-62.83 593.42,-47.21 623.27,-36.07"/>
<polygon fill="midnightblue" stroke="midnightblue" points="517.94,-71.63 509.79,-78.4 520.39,-78.19 517.94,-71.63"/>
</g>
<!-- Node6&#45;&gt;Node8 -->
<g id="edge8" class="edge">
<title>Node6&#45;&gt;Node8</title>
<path fill="none" stroke="midnightblue" d="M559.3,-76.65C613.84,-66.73 685.52,-53.66 749,-42 759.5,-40.07 770.58,-38.03 781.47,-36.01"/>
<polygon fill="midnightblue" stroke="midnightblue" points="558.54,-73.23 549.32,-78.46 559.79,-80.12 558.54,-73.23"/>
</g>
<!-- Node9&#45;&gt;Node3 -->
<g id="edge12" class="edge">
<title>Node9&#45;&gt;Node3</title>
<path fill="none" stroke="midnightblue" d="M617.53,-79.56C549.9,-70.36 458.82,-56.99 379,-42 369.61,-40.24 359.69,-38.18 350.04,-36.06"/>
<polygon fill="midnightblue" stroke="midnightblue" points="617.38,-83.07 627.76,-80.95 618.32,-76.14 617.38,-83.07"/>
</g>
<!-- Node9&#45;&gt;Node4 -->
<g id="edge15" class="edge">
<title>Node9&#45;&gt;Node4</title>
<path fill="none" stroke="midnightblue" d="M617.69,-81.85C605,-80.53 592.2,-79.22 580,-78 412.52,-61.21 369.65,-65.63 203,-42 191.13,-40.32 178.57,-38.23 166.41,-36.04"/>
<polygon fill="midnightblue" stroke="midnightblue" points="617.51,-85.35 627.82,-82.9 618.24,-78.39 617.51,-85.35"/>
</g>
<!-- Node9&#45;&gt;Node5 -->
<g id="edge16" class="edge">
<title>Node9&#45;&gt;Node5</title>
<path fill="none" stroke="midnightblue" d="M660.26,-75.68C625.1,-65.44 580.02,-52.3 543.25,-41.59"/>
<polygon fill="midnightblue" stroke="midnightblue" points="659.32,-79.05 669.9,-78.49 661.28,-72.33 659.32,-79.05"/>
</g>
<!-- Node9&#45;&gt;Node7 -->
<g id="edge13" class="edge">
<title>Node9&#45;&gt;Node7</title>
<path fill="none" stroke="midnightblue" d="M699.98,-70.21C690.99,-59.1 680.39,-45.99 672.52,-36.25"/>
<polygon fill="midnightblue" stroke="midnightblue" points="697.46,-72.66 706.47,-78.23 702.9,-68.26 697.46,-72.66"/>
</g>
<!-- Node9&#45;&gt;Node8 -->
<g id="edge14" class="edge">
<title>Node9&#45;&gt;Node8</title>
<path fill="none" stroke="midnightblue" d="M754.73,-73.87C778.09,-62.02 807.86,-46.92 829.25,-36.07"/>
<polygon fill="midnightblue" stroke="midnightblue" points="753.13,-70.76 745.79,-78.4 756.3,-77 753.13,-70.76"/>
</g>
<!-- Node10 -->
<g id="node10" class="node">
<title>Node10</title>
<g id="a_node10"><a xlink:href="MarmotTensor_8cpp.html" target="_top" xlink:title=" ">
<polygon fill="white" stroke="black" points="974,-6 974,-36 1132,-36 1132,-6 974,-6"/>
<text text-anchor="start" x="982" y="-24" font-family="Helvetica,sans-Serif" font-size="10.00">modules/core/MarmotMechanics</text>
<text text-anchor="middle" x="1053" y="-13" font-family="Helvetica,sans-Serif" font-size="10.00">Core/src/MarmotTensor.cpp</text>
</a>
</g>
</g>
<!-- Node9&#45;&gt;Node10 -->
<g id="edge17" class="edge">
<title>Node9&#45;&gt;Node10</title>
<path fill="none" stroke="midnightblue" d="M798.7,-76.46C847,-66.75 909.58,-53.96 965,-42 973.73,-40.12 982.93,-38.08 991.97,-36.05"/>
<polygon fill="midnightblue" stroke="midnightblue" points="797.74,-73.09 788.62,-78.49 799.11,-79.95 797.74,-73.09"/>
</g>
<!-- Node9&#45;&gt;Node11 -->
<g id="edge18" class="edge">
<title>Node9&#45;&gt;Node11</title>
<path fill="none" stroke="midnightblue" d="M818.15,-81.77C923.13,-70.3 1080.99,-52.37 1141,-42 1150.73,-40.32 1160.99,-38.25 1170.95,-36.1"/>
<polygon fill="midnightblue" stroke="midnightblue" points="817.73,-78.29 808.17,-82.86 818.49,-85.25 817.73,-78.29"/>
</g>
</g>
</svg>
