<?xml version="1.0" encoding="UTF-8" standalone="no"?>
<!DOCTYPE svg PUBLIC "-//W3C//DTD SVG 1.1//EN"
 "http://www.w3.org/Graphics/SVG/1.1/DTD/svg11.dtd">
<!-- Generated by graphviz version 2.44.0 ()
 -->
<!-- Title: modules/core/MarmotMechanicsCore/src/MarmotVoigt.cpp Pages: 1 -->
<svg width="1045pt" height="341pt"
 viewBox="0.00 0.00 1044.50 341.00" xmlns="http://www.w3.org/2000/svg" xmlns:xlink="http://www.w3.org/1999/xlink">
<g id="graph0" class="graph" transform="scale(1 1) rotate(0) translate(4 337)">
<title>modules/core/MarmotMechanicsCore/src/MarmotVoigt.cpp</title>
<polygon fill="white" stroke="transparent" points="-4,4 -4,-337 1040.5,-337 1040.5,4 -4,4"/>
<!-- Node1 -->
<g id="node1" class="node">
<title>Node1</title>
<g id="a_node1"><a xlink:title=" ">
<polygon fill="#bfbfbf" stroke="black" points="572.5,-302.5 572.5,-332.5 730.5,-332.5 730.5,-302.5 572.5,-302.5"/>
<text text-anchor="start" x="580.5" y="-320.5" font-family="Helvetica,sans-Serif" font-size="10.00">modules/core/MarmotMechanics</text>
<text text-anchor="middle" x="651.5" y="-309.5" font-family="Helvetica,sans-Serif" font-size="10.00">Core/src/MarmotVoigt.cpp</text>
</a>
</g>
</g>
<!-- Node2 -->
<g id="node2" class="node">
<title>Node2</title>
<g id="a_node2"><a xlink:href="MarmotVoigt_8h.html" target="_top" xlink:title=" ">
<polygon fill="white" stroke="black" points="627.5,-190.5 627.5,-209.5 743.5,-209.5 743.5,-190.5 627.5,-190.5"/>
<text text-anchor="middle" x="685.5" y="-197.5" font-family="Helvetica,sans-Serif" font-size="10.00">Marmot/MarmotVoigt.h</text>
</a>
</g>
</g>
<!-- Node1&#45;&gt;Node2 -->
<g id="edge1" class="edge">
<title>Node1&#45;&gt;Node2</title>
<path fill="none" stroke="midnightblue" d="M662.4,-302.35C669.21,-292.68 677.42,-279.25 681.5,-266 686.13,-250.96 686.91,-233.05 686.65,-219.85"/>
<polygon fill="midnightblue" stroke="midnightblue" points="690.14,-219.49 686.24,-209.64 683.15,-219.78 690.14,-219.49"/>
</g>
<!-- Node7 -->
<g id="node7" class="node">
<title>Node7</title>
<g id="a_node7"><a xlink:href="MarmotMath_8h.html" target="_top" xlink:title=" ">
<polygon fill="white" stroke="black" points="450,-134.5 450,-153.5 565,-153.5 565,-134.5 450,-134.5"/>
<text text-anchor="middle" x="507.5" y="-141.5" font-family="Helvetica,sans-Serif" font-size="10.00">Marmot/MarmotMath.h</text>
</a>
</g>
</g>
<!-- Node1&#45;&gt;Node7 -->
<g id="edge24" class="edge">
<title>Node1&#45;&gt;Node7</title>
<path fill="none" stroke="midnightblue" d="M578.54,-302.44C557.81,-294.96 537.18,-283.51 523.5,-266 500.32,-236.33 501.61,-189.55 504.57,-163.71"/>
<polygon fill="midnightblue" stroke="midnightblue" points="508.05,-164.11 505.92,-153.73 501.11,-163.17 508.05,-164.11"/>
</g>
<!-- Node8 -->
<g id="node8" class="node">
<title>Node8</title>
<g id="a_node8"><a xlink:href="MarmotConstants_8h.html" target="_top" xlink:title=" ">
<polygon fill="white" stroke="black" points="0,-73 0,-92 137,-92 137,-73 0,-73"/>
<text text-anchor="middle" x="68.5" y="-80" font-family="Helvetica,sans-Serif" font-size="10.00">Marmot/MarmotConstants.h</text>
</a>
</g>
</g>
<!-- Node1&#45;&gt;Node8 -->
<g id="edge23" class="edge">
<title>Node1&#45;&gt;Node8</title>
<path fill="none" stroke="midnightblue" d="M610.29,-302.46C581.83,-292.62 543.2,-278.96 509.5,-266 352.85,-205.78 168.03,-126.61 97.67,-96.17"/>
<polygon fill="midnightblue" stroke="midnightblue" points="98.7,-92.81 88.14,-92.04 95.92,-99.23 98.7,-92.81"/>
</g>
<!-- Node10 -->
<g id="node10" class="node">
<title>Node10</title>
<g id="a_node10"><a xlink:href="MarmotTypedefs_8h.html" target="_top" xlink:title=" ">
<polygon fill="white" stroke="black" points="701,-73 701,-92 834,-92 834,-73 701,-73"/>
<text text-anchor="middle" x="767.5" y="-80" font-family="Helvetica,sans-Serif" font-size="10.00">Marmot/MarmotTypedefs.h</text>
</a>
</g>
</g>
<!-- Node1&#45;&gt;Node10 -->
<g id="edge31" class="edge">
<title>Node1&#45;&gt;Node10</title>
<path fill="none" stroke="midnightblue" d="M670.98,-302.44C694.7,-284.12 733.89,-249.68 752.5,-210 769.03,-174.75 769.92,-128.16 768.86,-102.5"/>
<polygon fill="midnightblue" stroke="midnightblue" points="772.34,-102.08 768.29,-92.29 765.35,-102.47 772.34,-102.08"/>
</g>
<!-- Node19 -->
<g id="node19" class="node">
<title>Node19</title>
<g id="a_node19"><a xlink:href="HaighWestergaard_8h.html" target="_top" xlink:title=" ">
<polygon fill="white" stroke="black" points="532.5,-246.5 532.5,-265.5 672.5,-265.5 672.5,-246.5 532.5,-246.5"/>
<text text-anchor="middle" x="602.5" y="-253.5" font-family="Helvetica,sans-Serif" font-size="10.00">Marmot/HaighWestergaard.h</text>
</a>
</g>
</g>
<!-- Node1&#45;&gt;Node19 -->
<g id="edge19" class="edge">
<title>Node1&#45;&gt;Node19</title>
<path fill="none" stroke="midnightblue" d="M639.89,-302.4C632.77,-293.75 623.62,-282.64 616.15,-273.58"/>
<polygon fill="midnightblue" stroke="midnightblue" points="618.69,-271.15 609.63,-265.66 613.29,-275.6 618.69,-271.15"/>
</g>
<!-- Node20 -->
<g id="node20" class="node">
<title>Node20</title>
<g id="a_node20"><a xlink:href="MarmotTensor_8h.html" target="_top" xlink:title=" ">
<polygon fill="white" stroke="black" points="800,-246.5 800,-265.5 923,-265.5 923,-246.5 800,-246.5"/>
<text text-anchor="middle" x="861.5" y="-253.5" font-family="Helvetica,sans-Serif" font-size="10.00">Marmot/MarmotTensor.h</text>
</a>
</g>
</g>
<!-- Node1&#45;&gt;Node20 -->
<g id="edge25" class="edge">
<title>Node1&#45;&gt;Node20</title>
<path fill="none" stroke="midnightblue" d="M701,-302.47C737.86,-292.03 787.53,-277.96 821.81,-268.25"/>
<polygon fill="midnightblue" stroke="midnightblue" points="822.81,-271.6 831.48,-265.51 820.9,-264.87 822.81,-271.6"/>
</g>
<!-- Node3 -->
<g id="node3" class="node">
<title>Node3</title>
<g id="a_node3"><a xlink:href="MarmotJournal_8h.html" target="_top" xlink:title=" ">
<polygon fill="white" stroke="black" points="846,-134.5 846,-153.5 971,-153.5 971,-134.5 846,-134.5"/>
<text text-anchor="middle" x="908.5" y="-141.5" font-family="Helvetica,sans-Serif" font-size="10.00">Marmot/MarmotJournal.h</text>
</a>
</g>
</g>
<!-- Node2&#45;&gt;Node3 -->
<g id="edge2" class="edge">
<title>Node2&#45;&gt;Node3</title>
<path fill="none" stroke="midnightblue" d="M720.84,-190.44C759.41,-181.1 821.28,-166.12 863.35,-155.93"/>
<polygon fill="midnightblue" stroke="midnightblue" points="864.43,-159.27 873.33,-153.52 862.79,-152.47 864.43,-159.27"/>
</g>
<!-- Node2&#45;&gt;Node7 -->
<g id="edge6" class="edge">
<title>Node2&#45;&gt;Node7</title>
<path fill="none" stroke="midnightblue" d="M657.3,-190.44C627.09,-181.28 578.99,-166.69 545.47,-156.52"/>
<polygon fill="midnightblue" stroke="midnightblue" points="546.16,-153.07 535.57,-153.52 544.13,-159.77 546.16,-153.07"/>
</g>
<!-- Node2&#45;&gt;Node10 -->
<g id="edge18" class="edge">
<title>Node2&#45;&gt;Node10</title>
<path fill="none" stroke="midnightblue" d="M691.66,-190.32C705.2,-171.26 737.72,-125.45 755.46,-100.46"/>
<polygon fill="midnightblue" stroke="midnightblue" points="758.33,-102.46 761.27,-92.28 752.62,-98.41 758.33,-102.46"/>
</g>
<!-- Node4 -->
<g id="node4" class="node">
<title>Node4</title>
<g id="a_node4"><a xlink:title=" ">
<polygon fill="white" stroke="#bfbfbf" points="982.5,-73 982.5,-92 1036.5,-92 1036.5,-73 982.5,-73"/>
<text text-anchor="middle" x="1009.5" y="-80" font-family="Helvetica,sans-Serif" font-size="10.00">iostream</text>
</a>
</g>
</g>
<!-- Node3&#45;&gt;Node4 -->
<g id="edge3" class="edge">
<title>Node3&#45;&gt;Node4</title>
<path fill="none" stroke="midnightblue" d="M922.97,-134.48C939.47,-124.75 966.68,-108.73 986.18,-97.24"/>
<polygon fill="midnightblue" stroke="midnightblue" points="988.22,-100.1 995.06,-92.01 984.66,-94.07 988.22,-100.1"/>
</g>
<!-- Node5 -->
<g id="node5" class="node">
<title>Node5</title>
<g id="a_node5"><a xlink:title=" ">
<polygon fill="white" stroke="#bfbfbf" points="852.5,-73 852.5,-92 904.5,-92 904.5,-73 852.5,-73"/>
<text text-anchor="middle" x="878.5" y="-80" font-family="Helvetica,sans-Serif" font-size="10.00">sstream</text>
</a>
</g>
</g>
<!-- Node3&#45;&gt;Node5 -->
<g id="edge4" class="edge">
<title>Node3&#45;&gt;Node5</title>
<path fill="none" stroke="midnightblue" d="M904.2,-134.48C899.84,-125.82 892.94,-112.15 887.4,-101.15"/>
<polygon fill="midnightblue" stroke="midnightblue" points="890.42,-99.36 882.79,-92.01 884.17,-102.51 890.42,-99.36"/>
</g>
<!-- Node6 -->
<g id="node6" class="node">
<title>Node6</title>
<g id="a_node6"><a xlink:title=" ">
<polygon fill="white" stroke="#bfbfbf" points="923,-73 923,-92 964,-92 964,-73 923,-73"/>
<text text-anchor="middle" x="943.5" y="-80" font-family="Helvetica,sans-Serif" font-size="10.00">string</text>
</a>
</g>
</g>
<!-- Node3&#45;&gt;Node6 -->
<g id="edge5" class="edge">
<title>Node3&#45;&gt;Node6</title>
<path fill="none" stroke="midnightblue" d="M913.51,-134.48C918.66,-125.73 926.81,-111.87 933.32,-100.81"/>
<polygon fill="midnightblue" stroke="midnightblue" points="936.44,-102.4 938.49,-92.01 930.41,-98.85 936.44,-102.4"/>
</g>
<!-- Node7&#45;&gt;Node8 -->
<g id="edge7" class="edge">
<title>Node7&#45;&gt;Node8</title>
<path fill="none" stroke="midnightblue" d="M449.83,-136.89C378.44,-129.07 253.22,-114.56 146.5,-98 138.47,-96.75 130,-95.31 121.71,-93.83"/>
<polygon fill="midnightblue" stroke="midnightblue" points="122.21,-90.36 111.74,-92.01 120.95,-97.25 122.21,-90.36"/>
</g>
<!-- Node7&#45;&gt;Node10 -->
<g id="edge9" class="edge">
<title>Node7&#45;&gt;Node10</title>
<path fill="none" stroke="midnightblue" d="M544.75,-134.48C590.99,-123.89 669.9,-105.84 720.32,-94.3"/>
<polygon fill="midnightblue" stroke="midnightblue" points="721.35,-97.65 730.32,-92.01 719.79,-90.83 721.35,-97.65"/>
</g>
<!-- Node14 -->
<g id="node14" class="node">
<title>Node14</title>
<g id="a_node14"><a xlink:title=" ">
<polygon fill="white" stroke="#bfbfbf" points="155.5,-73 155.5,-92 277.5,-92 277.5,-73 155.5,-73"/>
<text text-anchor="middle" x="216.5" y="-80" font-family="Helvetica,sans-Serif" font-size="10.00">autodiff/forward/dual.hpp</text>
</a>
</g>
</g>
<!-- Node7&#45;&gt;Node14 -->
<g id="edge13" class="edge">
<title>Node7&#45;&gt;Node14</title>
<path fill="none" stroke="midnightblue" d="M465.54,-134.5C421.07,-125.48 348.83,-110.8 286.5,-98 280.36,-96.74 273.91,-95.41 267.52,-94.09"/>
<polygon fill="midnightblue" stroke="midnightblue" points="268.08,-90.63 257.58,-92.03 266.67,-97.49 268.08,-90.63"/>
</g>
<!-- Node15 -->
<g id="node15" class="node">
<title>Node15</title>
<g id="a_node15"><a xlink:title=" ">
<polygon fill="white" stroke="#bfbfbf" points="295.5,-73 295.5,-92 415.5,-92 415.5,-73 295.5,-73"/>
<text text-anchor="middle" x="355.5" y="-80" font-family="Helvetica,sans-Serif" font-size="10.00">autodiff/forward/real.hpp</text>
</a>
</g>
</g>
<!-- Node7&#45;&gt;Node15 -->
<g id="edge14" class="edge">
<title>Node7&#45;&gt;Node15</title>
<path fill="none" stroke="midnightblue" d="M485.72,-134.48C459.76,-124.31 416.19,-107.26 386.67,-95.7"/>
<polygon fill="midnightblue" stroke="midnightblue" points="387.83,-92.4 377.24,-92.01 385.27,-98.91 387.83,-92.4"/>
</g>
<!-- Node16 -->
<g id="node16" class="node">
<title>Node16</title>
<g id="a_node16"><a xlink:title=" ">
<polygon fill="white" stroke="#bfbfbf" points="433.5,-73 433.5,-92 489.5,-92 489.5,-73 433.5,-73"/>
<text text-anchor="middle" x="461.5" y="-80" font-family="Helvetica,sans-Serif" font-size="10.00">algorithm</text>
</a>
</g>
</g>
<!-- Node7&#45;&gt;Node16 -->
<g id="edge15" class="edge">
<title>Node7&#45;&gt;Node16</title>
<path fill="none" stroke="midnightblue" d="M500.91,-134.48C494.01,-125.55 483,-111.31 474.37,-100.14"/>
<polygon fill="midnightblue" stroke="midnightblue" points="476.96,-97.78 468.08,-92.01 471.43,-102.06 476.96,-97.78"/>
</g>
<!-- Node17 -->
<g id="node17" class="node">
<title>Node17</title>
<g id="a_node17"><a xlink:title=" ">
<polygon fill="white" stroke="#bfbfbf" points="507.5,-67.5 507.5,-97.5 611.5,-97.5 611.5,-67.5 507.5,-67.5"/>
<text text-anchor="start" x="515.5" y="-85.5" font-family="Helvetica,sans-Serif" font-size="10.00">autodiff/forward/dual</text>
<text text-anchor="middle" x="559.5" y="-74.5" font-family="Helvetica,sans-Serif" font-size="10.00">/dual.hpp</text>
</a>
</g>
</g>
<!-- Node7&#45;&gt;Node17 -->
<g id="edge16" class="edge">
<title>Node7&#45;&gt;Node17</title>
<path fill="none" stroke="midnightblue" d="M514.95,-134.48C521.6,-126.87 531.62,-115.4 540.48,-105.26"/>
<polygon fill="midnightblue" stroke="midnightblue" points="543.3,-107.36 547.24,-97.52 538.03,-102.75 543.3,-107.36"/>
</g>
<!-- Node18 -->
<g id="node18" class="node">
<title>Node18</title>
<g id="a_node18"><a xlink:title=" ">
<polygon fill="white" stroke="#bfbfbf" points="630,-73 630,-92 683,-92 683,-73 630,-73"/>
<text text-anchor="middle" x="656.5" y="-80" font-family="Helvetica,sans-Serif" font-size="10.00">complex</text>
</a>
</g>
</g>
<!-- Node7&#45;&gt;Node18 -->
<g id="edge17" class="edge">
<title>Node7&#45;&gt;Node18</title>
<path fill="none" stroke="midnightblue" d="M529.17,-134.4C551.93,-125.36 588.74,-110.72 620.5,-98 622.13,-97.35 623.81,-96.67 625.5,-95.99"/>
<polygon fill="midnightblue" stroke="midnightblue" points="627.21,-99.08 635.19,-92.1 624.6,-92.58 627.21,-99.08"/>
</g>
<!-- Node9 -->
<g id="node9" class="node">
<title>Node9</title>
<g id="a_node9"><a xlink:title=" ">
<polygon fill="white" stroke="#bfbfbf" points="46.5,-6 46.5,-25 90.5,-25 90.5,-6 46.5,-6"/>
<text text-anchor="middle" x="68.5" y="-13" font-family="Helvetica,sans-Serif" font-size="10.00">cmath</text>
</a>
</g>
</g>
<!-- Node8&#45;&gt;Node9 -->
<g id="edge8" class="edge">
<title>Node8&#45;&gt;Node9</title>
<path fill="none" stroke="midnightblue" d="M68.5,-72.73C68.5,-63.18 68.5,-47.62 68.5,-35.28"/>
<polygon fill="midnightblue" stroke="midnightblue" points="72,-35.13 68.5,-25.13 65,-35.13 72,-35.13"/>
</g>
<!-- Node11 -->
<g id="node11" class="node">
<title>Node11</title>
<g id="a_node11"><a xlink:title=" ">
<polygon fill="white" stroke="#bfbfbf" points="649.5,-6 649.5,-25 713.5,-25 713.5,-6 649.5,-6"/>
<text text-anchor="middle" x="681.5" y="-13" font-family="Helvetica,sans-Serif" font-size="10.00">Eigen/Core</text>
</a>
</g>
</g>
<!-- Node10&#45;&gt;Node11 -->
<g id="edge10" class="edge">
<title>Node10&#45;&gt;Node11</title>
<path fill="none" stroke="midnightblue" d="M755.9,-72.73C741.85,-62.11 717.95,-44.05 701.03,-31.26"/>
<polygon fill="midnightblue" stroke="midnightblue" points="703,-28.36 692.91,-25.13 698.78,-33.95 703,-28.36"/>
</g>
<!-- Node12 -->
<g id="node12" class="node">
<title>Node12</title>
<g id="a_node12"><a xlink:title=" ">
<polygon fill="white" stroke="#bfbfbf" points="732,-6 732,-25 803,-25 803,-6 732,-6"/>
<text text-anchor="middle" x="767.5" y="-13" font-family="Helvetica,sans-Serif" font-size="10.00">Eigen/Dense</text>
</a>
</g>
</g>
<!-- Node10&#45;&gt;Node12 -->
<g id="edge11" class="edge">
<title>Node10&#45;&gt;Node12</title>
<path fill="none" stroke="midnightblue" d="M767.5,-72.73C767.5,-63.18 767.5,-47.62 767.5,-35.28"/>
<polygon fill="midnightblue" stroke="midnightblue" points="771,-35.13 767.5,-25.13 764,-35.13 771,-35.13"/>
</g>
<!-- Node13 -->
<g id="node13" class="node">
<title>Node13</title>
<g id="a_node13"><a xlink:title=" ">
<polygon fill="white" stroke="#bfbfbf" points="821,-0.5 821,-30.5 952,-30.5 952,-0.5 821,-0.5"/>
<text text-anchor="start" x="829" y="-18.5" font-family="Helvetica,sans-Serif" font-size="10.00">unsupported/Eigen/CXX11</text>
<text text-anchor="middle" x="886.5" y="-7.5" font-family="Helvetica,sans-Serif" font-size="10.00">/Tensor</text>
</a>
</g>
</g>
<!-- Node10&#45;&gt;Node13 -->
<g id="edge12" class="edge">
<title>Node10&#45;&gt;Node13</title>
<path fill="none" stroke="midnightblue" d="M783.55,-72.73C800.95,-63.23 829.24,-47.78 851.77,-35.47"/>
<polygon fill="midnightblue" stroke="midnightblue" points="853.61,-38.45 860.71,-30.59 850.25,-32.31 853.61,-38.45"/>
</g>
<!-- Node19&#45;&gt;Node2 -->
<g id="edge22" class="edge">
<title>Node19&#45;&gt;Node2</title>
<path fill="none" stroke="midnightblue" d="M615.84,-246.32C628.66,-237.98 648.28,-225.21 663.44,-215.35"/>
<polygon fill="midnightblue" stroke="midnightblue" points="665.72,-218.04 672.2,-209.65 661.91,-212.17 665.72,-218.04"/>
</g>
<!-- Node19&#45;&gt;Node7 -->
<g id="edge20" class="edge">
<title>Node19&#45;&gt;Node7</title>
<path fill="none" stroke="midnightblue" d="M595.05,-246.37C579.23,-228.05 542.09,-185.05 521.63,-161.36"/>
<polygon fill="midnightblue" stroke="midnightblue" points="524.1,-158.87 514.92,-153.59 518.81,-163.45 524.1,-158.87"/>
</g>
<!-- Node19&#45;&gt;Node10 -->
<g id="edge21" class="edge">
<title>Node19&#45;&gt;Node10</title>
<path fill="none" stroke="midnightblue" d="M602.76,-246.23C603.55,-232.97 606.63,-207.51 618.5,-190 648.71,-145.45 704.12,-113.25 738.19,-96.54"/>
<polygon fill="midnightblue" stroke="midnightblue" points="740.09,-99.52 747.62,-92.05 737.08,-93.2 740.09,-99.52"/>
</g>
<!-- Node20&#45;&gt;Node2 -->
<g id="edge28" class="edge">
<title>Node20&#45;&gt;Node2</title>
<path fill="none" stroke="midnightblue" d="M833.61,-246.44C803.75,-237.28 756.19,-222.69 723.04,-212.52"/>
<polygon fill="midnightblue" stroke="midnightblue" points="723.84,-209.1 713.26,-209.52 721.79,-215.8 723.84,-209.1"/>
</g>
<!-- Node20&#45;&gt;Node3 -->
<g id="edge26" class="edge">
<title>Node20&#45;&gt;Node3</title>
<path fill="none" stroke="midnightblue" d="M867.82,-246.43C874.06,-237.66 883.49,-223.44 889.5,-210 896.25,-194.91 901.32,-176.78 904.51,-163.51"/>
<polygon fill="midnightblue" stroke="midnightblue" points="907.94,-164.2 906.75,-153.68 901.12,-162.65 907.94,-164.2"/>
</g>
<!-- Node20&#45;&gt;Node4 -->
<g id="edge29" class="edge">
<title>Node20&#45;&gt;Node4</title>
<path fill="none" stroke="midnightblue" d="M875.5,-246.38C899.87,-230.73 950.38,-195.42 980.5,-154 992.02,-138.15 999.92,-117.05 1004.53,-102.08"/>
<polygon fill="midnightblue" stroke="midnightblue" points="1007.9,-103 1007.31,-92.42 1001.18,-101.06 1007.9,-103"/>
</g>
<!-- Node20&#45;&gt;Node10 -->
<g id="edge27" class="edge">
<title>Node20&#45;&gt;Node10</title>
<path fill="none" stroke="midnightblue" d="M855.46,-246.19C849.4,-237.24 839.93,-222.88 832.5,-210 810.68,-172.2 788.01,-126.3 776.06,-101.5"/>
<polygon fill="midnightblue" stroke="midnightblue" points="779.1,-99.75 771.63,-92.25 772.79,-102.78 779.1,-99.75"/>
</g>
<!-- Node21 -->
<g id="node21" class="node">
<title>Node21</title>
<g id="a_node21"><a xlink:title=" ">
<polygon fill="white" stroke="#bfbfbf" points="841,-190.5 841,-209.5 880,-209.5 880,-190.5 841,-190.5"/>
<text text-anchor="middle" x="860.5" y="-197.5" font-family="Helvetica,sans-Serif" font-size="10.00">utility</text>
</a>
</g>
</g>
<!-- Node20&#45;&gt;Node21 -->
<g id="edge30" class="edge">
<title>Node20&#45;&gt;Node21</title>
<path fill="none" stroke="midnightblue" d="M861.33,-246.08C861.2,-239.01 861.02,-228.86 860.85,-219.99"/>
<polygon fill="midnightblue" stroke="midnightblue" points="864.35,-219.68 860.66,-209.75 857.35,-219.81 864.35,-219.68"/>
</g>
</g>
</svg>
