<?xml version="1.0" encoding="UTF-8" standalone="no"?>
<!DOCTYPE svg PUBLIC "-//W3C//DTD SVG 1.1//EN"
 "http://www.w3.org/Graphics/SVG/1.1/DTD/svg11.dtd">
<!-- Generated by graphviz version 2.44.0 ()
 -->
<!-- Title: modules/core/MarmotMathCore/include/Marmot/MarmotAutomaticDifferentiationForFastor.h Pages: 1 -->
<svg width="1436pt" height="430pt"
 viewBox="0.00 0.00 1435.50 430.00" xmlns="http://www.w3.org/2000/svg" xmlns:xlink="http://www.w3.org/1999/xlink">
<g id="graph0" class="graph" transform="scale(1 1) rotate(0) translate(4 426)">
<title>modules/core/MarmotMathCore/include/Marmot/MarmotAutomaticDifferentiationForFastor.h</title>
<polygon fill="white" stroke="transparent" points="-4,4 -4,-426 1431.5,-426 1431.5,4 -4,4"/>
<!-- Node1 -->
<g id="node1" class="node">
<title>Node1</title>
<g id="a_node1"><a xlink:title=" ">
<polygon fill="#bfbfbf" stroke="black" points="224.5,-380.5 224.5,-421.5 391.5,-421.5 391.5,-380.5 224.5,-380.5"/>
<text text-anchor="start" x="232.5" y="-409.5" font-family="Helvetica,sans-Serif" font-size="10.00">modules/core/MarmotMathCore</text>
<text text-anchor="start" x="232.5" y="-398.5" font-family="Helvetica,sans-Serif" font-size="10.00">/include/Marmot/MarmotAutomatic</text>
<text text-anchor="middle" x="308" y="-387.5" font-family="Helvetica,sans-Serif" font-size="10.00">DifferentiationForFastor.h</text>
</a>
</g>
</g>
<!-- Node2 -->
<g id="node2" class="node">
<title>Node2</title>
<g id="a_node2"><a xlink:title=" ">
<polygon fill="white" stroke="#bfbfbf" points="335.5,-252 335.5,-271 418.5,-271 418.5,-252 335.5,-252"/>
<text text-anchor="middle" x="377" y="-259" font-family="Helvetica,sans-Serif" font-size="10.00">Fastor/Fastor.h</text>
</a>
</g>
</g>
<!-- Node1&#45;&gt;Node2 -->
<g id="edge1" class="edge">
<title>Node1&#45;&gt;Node2</title>
<path fill="none" stroke="midnightblue" d="M317.89,-380.3C331.37,-353.42 355.33,-305.67 368.22,-280"/>
<polygon fill="midnightblue" stroke="midnightblue" points="371.36,-281.55 372.72,-271.04 365.1,-278.41 371.36,-281.55"/>
</g>
<!-- Node3 -->
<g id="node3" class="node">
<title>Node3</title>
<g id="a_node3"><a xlink:href="MarmotAutomaticDifferentiation_8h.html" target="_top" xlink:title=" ">
<polygon fill="white" stroke="black" points="44.5,-319 44.5,-338 241.5,-338 241.5,-319 44.5,-319"/>
<text text-anchor="middle" x="143" y="-326" font-family="Helvetica,sans-Serif" font-size="10.00">Marmot/MarmotAutomaticDifferentiation.h</text>
</a>
</g>
</g>
<!-- Node1&#45;&gt;Node3 -->
<g id="edge2" class="edge">
<title>Node1&#45;&gt;Node3</title>
<path fill="none" stroke="midnightblue" d="M262.04,-380.36C233.42,-368.13 197.44,-352.76 172.57,-342.14"/>
<polygon fill="midnightblue" stroke="midnightblue" points="173.87,-338.88 163.3,-338.17 171.12,-345.32 173.87,-338.88"/>
</g>
<!-- Node4 -->
<g id="node4" class="node">
<title>Node4</title>
<g id="a_node4"><a xlink:title=" ">
<polygon fill="white" stroke="#bfbfbf" points="0,-246.5 0,-276.5 104,-276.5 104,-246.5 0,-246.5"/>
<text text-anchor="start" x="8" y="-264.5" font-family="Helvetica,sans-Serif" font-size="10.00">autodiff/forward/dual</text>
<text text-anchor="middle" x="52" y="-253.5" font-family="Helvetica,sans-Serif" font-size="10.00">/eigen.hpp</text>
</a>
</g>
</g>
<!-- Node1&#45;&gt;Node4 -->
<g id="edge33" class="edge">
<title>Node1&#45;&gt;Node4</title>
<path fill="none" stroke="midnightblue" d="M224.43,-394.23C153.17,-387.36 58.62,-372.96 35,-344 21.66,-327.65 29.06,-303.45 37.89,-285.66"/>
<polygon fill="midnightblue" stroke="midnightblue" points="41.14,-287 42.81,-276.54 34.98,-283.67 41.14,-287"/>
</g>
<!-- Node5 -->
<g id="node5" class="node">
<title>Node5</title>
<g id="a_node5"><a xlink:title=" ">
<polygon fill="white" stroke="#bfbfbf" points="304,-67.5 304,-97.5 408,-97.5 408,-67.5 304,-67.5"/>
<text text-anchor="start" x="312" y="-85.5" font-family="Helvetica,sans-Serif" font-size="10.00">autodiff/forward/dual</text>
<text text-anchor="middle" x="356" y="-74.5" font-family="Helvetica,sans-Serif" font-size="10.00">/dual.hpp</text>
</a>
</g>
</g>
<!-- Node1&#45;&gt;Node5 -->
<g id="edge34" class="edge">
<title>Node1&#45;&gt;Node5</title>
<path fill="none" stroke="midnightblue" d="M309.86,-380.5C312.75,-351.21 318.75,-294.18 326,-246 333.41,-196.77 344.56,-139.61 350.97,-107.9"/>
<polygon fill="midnightblue" stroke="midnightblue" points="354.47,-108.29 353.03,-97.79 347.61,-106.89 354.47,-108.29"/>
</g>
<!-- Node6 -->
<g id="node6" class="node">
<title>Node6</title>
<g id="a_node6"><a xlink:title=" ">
<polygon fill="white" stroke="#bfbfbf" points="195.5,-252 195.5,-271 254.5,-271 254.5,-252 195.5,-252"/>
<text text-anchor="middle" x="225" y="-259" font-family="Helvetica,sans-Serif" font-size="10.00">functional</text>
</a>
</g>
</g>
<!-- Node1&#45;&gt;Node6 -->
<g id="edge35" class="edge">
<title>Node1&#45;&gt;Node6</title>
<path fill="none" stroke="midnightblue" d="M296.11,-380.3C279.81,-353.3 250.81,-305.25 235.36,-279.66"/>
<polygon fill="midnightblue" stroke="midnightblue" points="238.32,-277.79 230.15,-271.04 232.33,-281.41 238.32,-277.79"/>
</g>
<!-- Node7 -->
<g id="node7" class="node">
<title>Node7</title>
<g id="a_node7"><a xlink:href="MarmotFastorTensorBasics_8h.html" target="_top" xlink:title=" ">
<polygon fill="white" stroke="black" points="375.5,-313.5 375.5,-343.5 518.5,-343.5 518.5,-313.5 375.5,-313.5"/>
<text text-anchor="start" x="383.5" y="-331.5" font-family="Helvetica,sans-Serif" font-size="10.00">Marmot/MarmotFastorTensor</text>
<text text-anchor="middle" x="447" y="-320.5" font-family="Helvetica,sans-Serif" font-size="10.00">Basics.h</text>
</a>
</g>
</g>
<!-- Node1&#45;&gt;Node7 -->
<g id="edge6" class="edge">
<title>Node1&#45;&gt;Node7</title>
<path fill="none" stroke="midnightblue" d="M346.72,-380.36C366.55,-370.3 390.58,-358.12 410.14,-348.2"/>
<polygon fill="midnightblue" stroke="midnightblue" points="411.73,-351.31 419.06,-343.67 408.56,-345.07 411.73,-351.31"/>
</g>
<!-- Node21 -->
<g id="node21" class="node">
<title>Node21</title>
<g id="a_node21"><a xlink:title=" ">
<polygon fill="white" stroke="#bfbfbf" points="1104,-73 1104,-92 1226,-92 1226,-73 1104,-73"/>
<text text-anchor="middle" x="1165" y="-80" font-family="Helvetica,sans-Serif" font-size="10.00">autodiff/forward/dual.hpp</text>
</a>
</g>
</g>
<!-- Node1&#45;&gt;Node21 -->
<g id="edge32" class="edge">
<title>Node1&#45;&gt;Node21</title>
<path fill="none" stroke="midnightblue" d="M391.54,-392.63C580.41,-374.84 1024,-326.26 1024,-262.5 1024,-262.5 1024,-262.5 1024,-199 1024,-145.24 1086.09,-111.97 1127.87,-95.67"/>
<polygon fill="midnightblue" stroke="midnightblue" points="1129.34,-98.85 1137.48,-92.07 1126.89,-92.3 1129.34,-98.85"/>
</g>
<!-- Node3&#45;&gt;Node4 -->
<g id="edge3" class="edge">
<title>Node3&#45;&gt;Node4</title>
<path fill="none" stroke="midnightblue" d="M130.73,-318.73C117.84,-309.53 97.13,-294.73 80.18,-282.63"/>
<polygon fill="midnightblue" stroke="midnightblue" points="81.9,-279.55 71.72,-276.59 77.83,-285.25 81.9,-279.55"/>
</g>
<!-- Node3&#45;&gt;Node5 -->
<g id="edge4" class="edge">
<title>Node3&#45;&gt;Node5</title>
<path fill="none" stroke="midnightblue" d="M146.56,-318.96C153.16,-303.61 168.24,-270.67 186,-246 228.07,-187.57 292.86,-132.52 329.1,-103.93"/>
<polygon fill="midnightblue" stroke="midnightblue" points="331.51,-106.49 337.23,-97.57 327.2,-100.97 331.51,-106.49"/>
</g>
<!-- Node3&#45;&gt;Node6 -->
<g id="edge5" class="edge">
<title>Node3&#45;&gt;Node6</title>
<path fill="none" stroke="midnightblue" d="M154.06,-318.73C167.34,-308.21 189.83,-290.38 205.93,-277.62"/>
<polygon fill="midnightblue" stroke="midnightblue" points="208.45,-280.08 214.12,-271.13 204.11,-274.6 208.45,-280.08"/>
</g>
<!-- Node7&#45;&gt;Node2 -->
<g id="edge8" class="edge">
<title>Node7&#45;&gt;Node2</title>
<path fill="none" stroke="midnightblue" d="M431.81,-313.4C420.68,-303.06 405.56,-289.02 394.03,-278.31"/>
<polygon fill="midnightblue" stroke="midnightblue" points="396.07,-275.43 386.36,-271.19 391.31,-280.56 396.07,-275.43"/>
</g>
<!-- Node7&#45;&gt;Node5 -->
<g id="edge31" class="edge">
<title>Node7&#45;&gt;Node5</title>
<path fill="none" stroke="midnightblue" d="M444.32,-313.45C441.01,-297.04 434.85,-269.18 427,-246 409.73,-194.95 382.88,-137.73 367.63,-106.65"/>
<polygon fill="midnightblue" stroke="midnightblue" points="370.68,-104.93 363.11,-97.52 364.4,-108.04 370.68,-104.93"/>
</g>
<!-- Node8 -->
<g id="node8" class="node">
<title>Node8</title>
<g id="a_node8"><a xlink:title=" ">
<polygon fill="white" stroke="#bfbfbf" points="453,-6 453,-25 517,-25 517,-6 453,-6"/>
<text text-anchor="middle" x="485" y="-13" font-family="Helvetica,sans-Serif" font-size="10.00">Eigen/Core</text>
</a>
</g>
</g>
<!-- Node7&#45;&gt;Node8 -->
<g id="edge7" class="edge">
<title>Node7&#45;&gt;Node8</title>
<path fill="none" stroke="midnightblue" d="M454.15,-313.5C465.16,-290.59 485,-243.42 485,-201 485,-201 485,-201 485,-143 485,-104.7 485,-59.88 485,-35.2"/>
<polygon fill="midnightblue" stroke="midnightblue" points="488.5,-35.09 485,-25.09 481.5,-35.09 488.5,-35.09"/>
</g>
<!-- Node9 -->
<g id="node9" class="node">
<title>Node9</title>
<g id="a_node9"><a xlink:href="MarmotTensor_8h.html" target="_top" xlink:title=" ">
<polygon fill="white" stroke="black" points="673.5,-252 673.5,-271 796.5,-271 796.5,-252 673.5,-252"/>
<text text-anchor="middle" x="735" y="-259" font-family="Helvetica,sans-Serif" font-size="10.00">Marmot/MarmotTensor.h</text>
</a>
</g>
</g>
<!-- Node7&#45;&gt;Node9 -->
<g id="edge9" class="edge">
<title>Node7&#45;&gt;Node9</title>
<path fill="none" stroke="midnightblue" d="M509.14,-313.48C562.55,-301.42 638.47,-284.29 687.24,-273.28"/>
<polygon fill="midnightblue" stroke="midnightblue" points="688.23,-276.64 697.21,-271.03 686.69,-269.82 688.23,-276.64"/>
</g>
<!-- Node10 -->
<g id="node10" class="node">
<title>Node10</title>
<g id="a_node10"><a xlink:href="MarmotJournal_8h.html" target="_top" xlink:title=" ">
<polygon fill="white" stroke="black" points="1208.5,-134.5 1208.5,-153.5 1333.5,-153.5 1333.5,-134.5 1208.5,-134.5"/>
<text text-anchor="middle" x="1271" y="-141.5" font-family="Helvetica,sans-Serif" font-size="10.00">Marmot/MarmotJournal.h</text>
</a>
</g>
</g>
<!-- Node9&#45;&gt;Node10 -->
<g id="edge10" class="edge">
<title>Node9&#45;&gt;Node10</title>
<path fill="none" stroke="midnightblue" d="M774.85,-251.91C871,-231.19 1115.56,-178.5 1221.17,-155.74"/>
<polygon fill="midnightblue" stroke="midnightblue" points="1222.21,-159.09 1231.25,-153.56 1220.74,-152.25 1222.21,-159.09"/>
</g>
<!-- Node14 -->
<g id="node14" class="node">
<title>Node14</title>
<g id="a_node14"><a xlink:href="MarmotTypedefs_8h.html" target="_top" xlink:title=" ">
<polygon fill="white" stroke="black" points="513.5,-73 513.5,-92 646.5,-92 646.5,-73 513.5,-73"/>
<text text-anchor="middle" x="580" y="-80" font-family="Helvetica,sans-Serif" font-size="10.00">Marmot/MarmotTypedefs.h</text>
</a>
</g>
</g>
<!-- Node9&#45;&gt;Node14 -->
<g id="edge14" class="edge">
<title>Node9&#45;&gt;Node14</title>
<path fill="none" stroke="midnightblue" d="M721.15,-251.95C706.85,-242.71 684.36,-227 668,-210 634.59,-175.29 604.63,-126.81 589.81,-101.11"/>
<polygon fill="midnightblue" stroke="midnightblue" points="592.71,-99.14 584.73,-92.17 586.63,-102.6 592.71,-99.14"/>
</g>
<!-- Node17 -->
<g id="node17" class="node">
<title>Node17</title>
<g id="a_node17"><a xlink:href="MarmotVoigt_8h.html" target="_top" xlink:title=" ">
<polygon fill="white" stroke="black" points="677,-190.5 677,-209.5 793,-209.5 793,-190.5 677,-190.5"/>
<text text-anchor="middle" x="735" y="-197.5" font-family="Helvetica,sans-Serif" font-size="10.00">Marmot/MarmotVoigt.h</text>
</a>
</g>
</g>
<!-- Node9&#45;&gt;Node17 -->
<g id="edge18" class="edge">
<title>Node9&#45;&gt;Node17</title>
<path fill="none" stroke="midnightblue" d="M735,-251.98C735,-243.58 735,-230.48 735,-219.66"/>
<polygon fill="midnightblue" stroke="midnightblue" points="738.5,-219.51 735,-209.51 731.5,-219.51 738.5,-219.51"/>
</g>
<!-- Node25 -->
<g id="node25" class="node">
<title>Node25</title>
<g id="a_node25"><a xlink:title=" ">
<polygon fill="white" stroke="#bfbfbf" points="811.5,-190.5 811.5,-209.5 850.5,-209.5 850.5,-190.5 811.5,-190.5"/>
<text text-anchor="middle" x="831" y="-197.5" font-family="Helvetica,sans-Serif" font-size="10.00">utility</text>
</a>
</g>
</g>
<!-- Node9&#45;&gt;Node25 -->
<g id="edge30" class="edge">
<title>Node9&#45;&gt;Node25</title>
<path fill="none" stroke="midnightblue" d="M748.75,-251.98C764.37,-242.3 790.06,-226.37 808.58,-214.89"/>
<polygon fill="midnightblue" stroke="midnightblue" points="810.62,-217.75 817.27,-209.51 806.93,-211.8 810.62,-217.75"/>
</g>
<!-- Node11 -->
<g id="node11" class="node">
<title>Node11</title>
<g id="a_node11"><a xlink:title=" ">
<polygon fill="white" stroke="#bfbfbf" points="1244,-73 1244,-92 1298,-92 1298,-73 1244,-73"/>
<text text-anchor="middle" x="1271" y="-80" font-family="Helvetica,sans-Serif" font-size="10.00">iostream</text>
</a>
</g>
</g>
<!-- Node10&#45;&gt;Node11 -->
<g id="edge11" class="edge">
<title>Node10&#45;&gt;Node11</title>
<path fill="none" stroke="midnightblue" d="M1271,-134.48C1271,-126.08 1271,-112.98 1271,-102.16"/>
<polygon fill="midnightblue" stroke="midnightblue" points="1274.5,-102.01 1271,-92.01 1267.5,-102.01 1274.5,-102.01"/>
</g>
<!-- Node12 -->
<g id="node12" class="node">
<title>Node12</title>
<g id="a_node12"><a xlink:title=" ">
<polygon fill="white" stroke="#bfbfbf" points="1316,-73 1316,-92 1368,-92 1368,-73 1316,-73"/>
<text text-anchor="middle" x="1342" y="-80" font-family="Helvetica,sans-Serif" font-size="10.00">sstream</text>
</a>
</g>
</g>
<!-- Node10&#45;&gt;Node12 -->
<g id="edge12" class="edge">
<title>Node10&#45;&gt;Node12</title>
<path fill="none" stroke="midnightblue" d="M1281.17,-134.48C1292.35,-125.11 1310.52,-109.88 1324.09,-98.51"/>
<polygon fill="midnightblue" stroke="midnightblue" points="1326.43,-101.11 1331.85,-92.01 1321.93,-95.75 1326.43,-101.11"/>
</g>
<!-- Node13 -->
<g id="node13" class="node">
<title>Node13</title>
<g id="a_node13"><a xlink:title=" ">
<polygon fill="white" stroke="#bfbfbf" points="1386.5,-73 1386.5,-92 1427.5,-92 1427.5,-73 1386.5,-73"/>
<text text-anchor="middle" x="1407" y="-80" font-family="Helvetica,sans-Serif" font-size="10.00">string</text>
</a>
</g>
</g>
<!-- Node10&#45;&gt;Node13 -->
<g id="edge13" class="edge">
<title>Node10&#45;&gt;Node13</title>
<path fill="none" stroke="midnightblue" d="M1292.25,-134.34C1313.75,-125.49 1347.87,-111.21 1377,-98 1378.16,-97.48 1379.33,-96.93 1380.52,-96.38"/>
<polygon fill="midnightblue" stroke="midnightblue" points="1382.08,-99.52 1389.62,-92.08 1379.08,-93.19 1382.08,-99.52"/>
</g>
<!-- Node14&#45;&gt;Node8 -->
<g id="edge15" class="edge">
<title>Node14&#45;&gt;Node8</title>
<path fill="none" stroke="midnightblue" d="M567.19,-72.73C551.52,-62.01 524.78,-43.72 506.07,-30.91"/>
<polygon fill="midnightblue" stroke="midnightblue" points="507.84,-27.89 497.61,-25.13 503.89,-33.66 507.84,-27.89"/>
</g>
<!-- Node15 -->
<g id="node15" class="node">
<title>Node15</title>
<g id="a_node15"><a xlink:title=" ">
<polygon fill="white" stroke="#bfbfbf" points="535.5,-6 535.5,-25 606.5,-25 606.5,-6 535.5,-6"/>
<text text-anchor="middle" x="571" y="-13" font-family="Helvetica,sans-Serif" font-size="10.00">Eigen/Dense</text>
</a>
</g>
</g>
<!-- Node14&#45;&gt;Node15 -->
<g id="edge16" class="edge">
<title>Node14&#45;&gt;Node15</title>
<path fill="none" stroke="midnightblue" d="M578.79,-72.73C577.46,-63.18 575.31,-47.62 573.6,-35.28"/>
<polygon fill="midnightblue" stroke="midnightblue" points="577.03,-34.55 572.19,-25.13 570.1,-35.51 577.03,-34.55"/>
</g>
<!-- Node16 -->
<g id="node16" class="node">
<title>Node16</title>
<g id="a_node16"><a xlink:title=" ">
<polygon fill="white" stroke="#bfbfbf" points="624.5,-0.5 624.5,-30.5 755.5,-30.5 755.5,-0.5 624.5,-0.5"/>
<text text-anchor="start" x="632.5" y="-18.5" font-family="Helvetica,sans-Serif" font-size="10.00">unsupported/Eigen/CXX11</text>
<text text-anchor="middle" x="690" y="-7.5" font-family="Helvetica,sans-Serif" font-size="10.00">/Tensor</text>
</a>
</g>
</g>
<!-- Node14&#45;&gt;Node16 -->
<g id="edge17" class="edge">
<title>Node14&#45;&gt;Node16</title>
<path fill="none" stroke="midnightblue" d="M594.84,-72.73C610.77,-63.32 636.61,-48.05 657.34,-35.8"/>
<polygon fill="midnightblue" stroke="midnightblue" points="659.33,-38.69 666.16,-30.59 655.77,-32.66 659.33,-38.69"/>
</g>
<!-- Node17&#45;&gt;Node10 -->
<g id="edge19" class="edge">
<title>Node17&#45;&gt;Node10</title>
<path fill="none" stroke="midnightblue" d="M793.09,-191.06C796.1,-190.69 799.09,-190.34 802,-190 942.01,-173.89 1105.99,-159.08 1198.27,-151.12"/>
<polygon fill="midnightblue" stroke="midnightblue" points="1198.67,-154.6 1208.34,-150.25 1198.07,-147.62 1198.67,-154.6"/>
</g>
<!-- Node17&#45;&gt;Node14 -->
<g id="edge29" class="edge">
<title>Node17&#45;&gt;Node14</title>
<path fill="none" stroke="midnightblue" d="M723.35,-190.32C697.09,-170.75 633.03,-123.02 600.17,-98.53"/>
<polygon fill="midnightblue" stroke="midnightblue" points="601.9,-95.45 591.79,-92.28 597.71,-101.06 601.9,-95.45"/>
</g>
<!-- Node18 -->
<g id="node18" class="node">
<title>Node18</title>
<g id="a_node18"><a xlink:href="MarmotMath_8h.html" target="_top" xlink:title=" ">
<polygon fill="white" stroke="black" points="710.5,-134.5 710.5,-153.5 825.5,-153.5 825.5,-134.5 710.5,-134.5"/>
<text text-anchor="middle" x="768" y="-141.5" font-family="Helvetica,sans-Serif" font-size="10.00">Marmot/MarmotMath.h</text>
</a>
</g>
</g>
<!-- Node17&#45;&gt;Node18 -->
<g id="edge20" class="edge">
<title>Node17&#45;&gt;Node18</title>
<path fill="none" stroke="midnightblue" d="M740.45,-190.08C745.01,-182.61 751.67,-171.72 757.29,-162.52"/>
<polygon fill="midnightblue" stroke="midnightblue" points="760.42,-164.11 762.65,-153.75 754.45,-160.46 760.42,-164.11"/>
</g>
<!-- Node18&#45;&gt;Node5 -->
<g id="edge27" class="edge">
<title>Node18&#45;&gt;Node5</title>
<path fill="none" stroke="midnightblue" d="M710.28,-134.66C633.34,-123.55 497.71,-103.96 418.45,-92.52"/>
<polygon fill="midnightblue" stroke="midnightblue" points="418.52,-88.99 408.12,-91.03 417.52,-95.92 418.52,-88.99"/>
</g>
<!-- Node18&#45;&gt;Node14 -->
<g id="edge23" class="edge">
<title>Node18&#45;&gt;Node14</title>
<path fill="none" stroke="midnightblue" d="M741.06,-134.48C708.4,-124.14 653.18,-106.66 616.66,-95.1"/>
<polygon fill="midnightblue" stroke="midnightblue" points="617.48,-91.69 606.89,-92.01 615.36,-98.36 617.48,-91.69"/>
</g>
<!-- Node19 -->
<g id="node19" class="node">
<title>Node19</title>
<g id="a_node19"><a xlink:href="MarmotConstants_8h.html" target="_top" xlink:title=" ">
<polygon fill="white" stroke="black" points="664.5,-73 664.5,-92 801.5,-92 801.5,-73 664.5,-73"/>
<text text-anchor="middle" x="733" y="-80" font-family="Helvetica,sans-Serif" font-size="10.00">Marmot/MarmotConstants.h</text>
</a>
</g>
</g>
<!-- Node18&#45;&gt;Node19 -->
<g id="edge21" class="edge">
<title>Node18&#45;&gt;Node19</title>
<path fill="none" stroke="midnightblue" d="M762.99,-134.48C757.84,-125.73 749.69,-111.87 743.18,-100.81"/>
<polygon fill="midnightblue" stroke="midnightblue" points="746.09,-98.85 738.01,-92.01 740.06,-102.4 746.09,-98.85"/>
</g>
<!-- Node18&#45;&gt;Node21 -->
<g id="edge24" class="edge">
<title>Node18&#45;&gt;Node21</title>
<path fill="none" stroke="midnightblue" d="M825.77,-136.25C891.26,-128.31 1001.11,-114.17 1095,-98 1101.82,-96.83 1108.99,-95.47 1116.04,-94.08"/>
<polygon fill="midnightblue" stroke="midnightblue" points="1117.1,-97.44 1126.21,-92.02 1115.72,-90.57 1117.1,-97.44"/>
</g>
<!-- Node22 -->
<g id="node22" class="node">
<title>Node22</title>
<g id="a_node22"><a xlink:title=" ">
<polygon fill="white" stroke="#bfbfbf" points="820,-73 820,-92 940,-92 940,-73 820,-73"/>
<text text-anchor="middle" x="880" y="-80" font-family="Helvetica,sans-Serif" font-size="10.00">autodiff/forward/real.hpp</text>
</a>
</g>
</g>
<!-- Node18&#45;&gt;Node22 -->
<g id="edge25" class="edge">
<title>Node18&#45;&gt;Node22</title>
<path fill="none" stroke="midnightblue" d="M784.05,-134.48C802.59,-124.62 833.34,-108.29 855.02,-96.77"/>
<polygon fill="midnightblue" stroke="midnightblue" points="856.79,-99.79 863.98,-92.01 853.51,-93.61 856.79,-99.79"/>
</g>
<!-- Node23 -->
<g id="node23" class="node">
<title>Node23</title>
<g id="a_node23"><a xlink:title=" ">
<polygon fill="white" stroke="#bfbfbf" points="958,-73 958,-92 1014,-92 1014,-73 958,-73"/>
<text text-anchor="middle" x="986" y="-80" font-family="Helvetica,sans-Serif" font-size="10.00">algorithm</text>
</a>
</g>
</g>
<!-- Node18&#45;&gt;Node23 -->
<g id="edge26" class="edge">
<title>Node18&#45;&gt;Node23</title>
<path fill="none" stroke="midnightblue" d="M808.68,-134.47C845.64,-126.35 901.49,-113.14 949,-98 951.27,-97.28 953.61,-96.48 955.95,-95.65"/>
<polygon fill="midnightblue" stroke="midnightblue" points="957.28,-98.89 965.43,-92.11 954.83,-92.33 957.28,-98.89"/>
</g>
<!-- Node24 -->
<g id="node24" class="node">
<title>Node24</title>
<g id="a_node24"><a xlink:title=" ">
<polygon fill="white" stroke="#bfbfbf" points="1032.5,-73 1032.5,-92 1085.5,-92 1085.5,-73 1032.5,-73"/>
<text text-anchor="middle" x="1059" y="-80" font-family="Helvetica,sans-Serif" font-size="10.00">complex</text>
</a>
</g>
</g>
<!-- Node18&#45;&gt;Node24 -->
<g id="edge28" class="edge">
<title>Node18&#45;&gt;Node24</title>
<path fill="none" stroke="midnightblue" d="M825.74,-136.3C877.94,-129.43 956.55,-117.02 1023,-98 1025.44,-97.3 1027.94,-96.5 1030.42,-95.63"/>
<polygon fill="midnightblue" stroke="midnightblue" points="1031.71,-98.89 1039.83,-92.08 1029.24,-92.34 1031.71,-98.89"/>
</g>
<!-- Node20 -->
<g id="node20" class="node">
<title>Node20</title>
<g id="a_node20"><a xlink:title=" ">
<polygon fill="white" stroke="#bfbfbf" points="774,-6 774,-25 818,-25 818,-6 774,-6"/>
<text text-anchor="middle" x="796" y="-13" font-family="Helvetica,sans-Serif" font-size="10.00">cmath</text>
</a>
</g>
</g>
<!-- Node19&#45;&gt;Node20 -->
<g id="edge22" class="edge">
<title>Node19&#45;&gt;Node20</title>
<path fill="none" stroke="midnightblue" d="M741.5,-72.73C751.51,-62.4 768.34,-45.04 780.66,-32.33"/>
<polygon fill="midnightblue" stroke="midnightblue" points="783.19,-34.74 787.64,-25.13 778.17,-29.87 783.19,-34.74"/>
</g>
</g>
</svg>
