<?xml version="1.0" encoding="UTF-8" standalone="no"?>
<!DOCTYPE svg PUBLIC "-//W3C//DTD SVG 1.1//EN"
 "http://www.w3.org/Graphics/SVG/1.1/DTD/svg11.dtd">
<!-- Generated by graphviz version 2.44.0 ()
 -->
<!-- Title: modules/core/MarmotMathCore/include/Marmot/MarmotTensor.h Pages: 1 -->
<!--zoomable 117 -->
<svg id="main" version="1.1" xmlns="http://www.w3.org/2000/svg" xmlns:xlink="http://www.w3.org/1999/xlink" xml:space="preserve" onload="init(evt)">
<style type="text/css"><![CDATA[
.edge:hover path { stroke: red; }
.edge:hover polygon { stroke: red; fill: red; }
]]></style>
<script type="text/javascript"><![CDATA[
var edges = document.getElementsByTagName('g');
if (edges && edges.length) {
  for (var i=0;i<edges.length;i++) {
    if (edges[i].id.substr(0,4)=='edge') {
      edges[i].setAttribute('class','edge');
    }
  }
}
]]></script>
        <defs>
                <circle id="rim" cx="0" cy="0" r="7"/>
                <circle id="rim2" cx="0" cy="0" r="3.5"/>
                <g id="zoomPlus">
                        <use xlink:href="#rim" fill="#404040">
                                <set attributeName="fill" to="#808080" begin="zoomplus.mouseover" end="zoomplus.mouseout"/>
                        </use>
                        <path d="M-4,0h8M0,-4v8" fill="none" stroke="white" stroke-width="1.5" pointer-events="none"/>
                </g>
                <g id="zoomMin">
                        <use xlink:href="#rim" fill="#404040">
                                <set attributeName="fill" to="#808080" begin="zoomminus.mouseover" end="zoomminus.mouseout"/>
                        </use>
                        <path d="M-4,0h8" fill="none" stroke="white" stroke-width="1.5" pointer-events="none"/>
                </g>
                <g id="dirArrow">
                        <path fill="none" stroke="white" stroke-width="1.5" d="M0,-3.0v7 M-2.5,-0.5L0,-3.0L2.5,-0.5"/>
                </g>
               <g id="resetDef">
                       <use xlink:href="#rim2" fill="#404040">
                               <set attributeName="fill" to="#808080" begin="reset.mouseover" end="reset.mouseout"/>
                       </use>
               </g>
        </defs>

<script type="text/javascript">
var viewWidth = 2014;
var viewHeight = 117;
var sectionId = 'dynsection-1';
</script>
<script xlink:href="svgpan.js"/>
<svg id="graph" class="graph">
<g id="viewport">
<title>modules/core/MarmotMathCore/include/Marmot/MarmotTensor.h</title>
<polygon fill="white" stroke="transparent" points="-4,4 -4,-113 2010,-113 2010,4 -4,4"/>
<!-- Node1 -->
<g id="node1" class="node">
<title>Node1</title>
<g id="a_node1"><a xlink:title=" ">
<polygon fill="#bfbfbf" stroke="black" points="881.5,-78.5 881.5,-108.5 1041.5,-108.5 1041.5,-78.5 881.5,-78.5"/>
<text text-anchor="start" x="889.5" y="-96.5" font-family="Helvetica,sans-Serif" font-size="10.00">modules/core/MarmotMathCore</text>
<text text-anchor="middle" x="961.5" y="-85.5" font-family="Helvetica,sans-Serif" font-size="10.00">/include/Marmot/MarmotTensor.h</text>
</a>
</g>
</g>
<!-- Node2 -->
<g id="node2" class="node">
<title>Node2</title>
<g id="a_node2"><a xlink:href="MarmotTensor_8cpp.html" target="_top" xlink:title=" ">
<polygon fill="white" stroke="black" points="0,-6 0,-36 153,-36 153,-6 0,-6"/>
<text text-anchor="start" x="8" y="-24" font-family="Helvetica,sans-Serif" font-size="10.00">modules/core/MarmotMathCore</text>
<text text-anchor="middle" x="76.5" y="-13" font-family="Helvetica,sans-Serif" font-size="10.00">/src/MarmotTensor.cpp</text>
</a>
</g>
</g>
<!-- Node1&#45;&gt;Node2 -->
<g id="edge1" class="edge">
<title>Node1&#45;&gt;Node2</title>
<path fill="none" stroke="midnightblue" d="M870.95,-91.64C722.28,-89.14 417.49,-79.45 162.5,-42 152.19,-40.49 141.28,-38.36 130.83,-36.07"/>
<polygon fill="midnightblue" stroke="midnightblue" points="871.32,-95.15 881.38,-91.81 871.43,-88.15 871.32,-95.15"/>
</g>
<!-- Node3 -->
<g id="node3" class="node">
<title>Node3</title>
<g id="a_node3"><a xlink:href="HaighWestergaard_8cpp.html" target="_top" xlink:title=" ">
<polygon fill="white" stroke="black" points="171.5,-6 171.5,-36 329.5,-36 329.5,-6 171.5,-6"/>
<text text-anchor="start" x="179.5" y="-24" font-family="Helvetica,sans-Serif" font-size="10.00">modules/core/MarmotMechanics</text>
<text text-anchor="middle" x="250.5" y="-13" font-family="Helvetica,sans-Serif" font-size="10.00">Core/src/HaighWestergaard.cpp</text>
</a>
</g>
</g>
<!-- Node1&#45;&gt;Node3 -->
<g id="edge2" class="edge">
<title>Node1&#45;&gt;Node3</title>
<path fill="none" stroke="midnightblue" d="M871.41,-89.23C749.84,-83.9 526.81,-70.88 338.5,-42 328.12,-40.41 317.15,-38.28 306.61,-36.01"/>
<polygon fill="midnightblue" stroke="midnightblue" points="871.28,-92.73 881.42,-89.66 871.58,-85.73 871.28,-92.73"/>
</g>
<!-- Node4 -->
<g id="node4" class="node">
<title>Node4</title>
<g id="a_node4"><a xlink:href="HughesWinget_8cpp.html" target="_top" xlink:title=" ">
<polygon fill="white" stroke="black" points="347.5,-6 347.5,-36 505.5,-36 505.5,-6 347.5,-6"/>
<text text-anchor="start" x="355.5" y="-24" font-family="Helvetica,sans-Serif" font-size="10.00">modules/core/MarmotMechanics</text>
<text text-anchor="middle" x="426.5" y="-13" font-family="Helvetica,sans-Serif" font-size="10.00">Core/src/HughesWinget.cpp</text>
</a>
</g>
</g>
<!-- Node1&#45;&gt;Node4 -->
<g id="edge3" class="edge">
<title>Node1&#45;&gt;Node4</title>
<path fill="none" stroke="midnightblue" d="M870.95,-85.24C780.35,-77.28 637.2,-62.81 514.5,-42 504.61,-40.32 494.17,-38.24 484.07,-36.05"/>
<polygon fill="midnightblue" stroke="midnightblue" points="870.92,-88.75 881.18,-86.13 871.53,-81.78 870.92,-88.75"/>
</g>
<!-- Node5 -->
<g id="node5" class="node">
<title>Node5</title>
<g id="a_node5"><a xlink:href="MarmotKinematics_8cpp.html" target="_top" xlink:title=" ">
<polygon fill="white" stroke="black" points="523.5,-6 523.5,-36 681.5,-36 681.5,-6 523.5,-6"/>
<text text-anchor="start" x="531.5" y="-24" font-family="Helvetica,sans-Serif" font-size="10.00">modules/core/MarmotMechanics</text>
<text text-anchor="middle" x="602.5" y="-13" font-family="Helvetica,sans-Serif" font-size="10.00">Core/src/MarmotKinematics.cpp</text>
</a>
</g>
</g>
<!-- Node1&#45;&gt;Node5 -->
<g id="edge4" class="edge">
<title>Node1&#45;&gt;Node5</title>
<path fill="none" stroke="midnightblue" d="M871.23,-76.73C818.19,-67.22 749.91,-54.55 689.5,-42 680.7,-40.17 671.42,-38.15 662.33,-36.11"/>
<polygon fill="midnightblue" stroke="midnightblue" points="870.83,-80.21 881.29,-78.53 872.06,-73.32 870.83,-80.21"/>
</g>
<!-- Node6 -->
<g id="node6" class="node">
<title>Node6</title>
<g id="a_node6"><a xlink:href="MarmotLocalization_8cpp.html" target="_top" xlink:title=" ">
<polygon fill="white" stroke="black" points="699,-6 699,-36 858,-36 858,-6 699,-6"/>
<text text-anchor="start" x="707" y="-24" font-family="Helvetica,sans-Serif" font-size="10.00">modules/core/MarmotMechanics</text>
<text text-anchor="middle" x="778.5" y="-13" font-family="Helvetica,sans-Serif" font-size="10.00">Core/src/MarmotLocalization.cpp</text>
</a>
</g>
</g>
<!-- Node1&#45;&gt;Node6 -->
<g id="edge5" class="edge">
<title>Node1&#45;&gt;Node6</title>
<path fill="none" stroke="midnightblue" d="M915.18,-74.65C884.13,-62.69 843.81,-47.16 815.03,-36.07"/>
<polygon fill="midnightblue" stroke="midnightblue" points="914.32,-78.07 924.91,-78.4 916.83,-71.54 914.32,-78.07"/>
</g>
<!-- Node7 -->
<g id="node7" class="node">
<title>Node7</title>
<g id="a_node7"><a xlink:href="MarmotLowerDimensionalStress_8cpp.html" target="_top" xlink:title=" ">
<polygon fill="white" stroke="black" points="876.5,-0.5 876.5,-41.5 1046.5,-41.5 1046.5,-0.5 876.5,-0.5"/>
<text text-anchor="start" x="884.5" y="-29.5" font-family="Helvetica,sans-Serif" font-size="10.00">modules/core/MarmotMechanics</text>
<text text-anchor="start" x="884.5" y="-18.5" font-family="Helvetica,sans-Serif" font-size="10.00">Core/src/MarmotLowerDimensional</text>
<text text-anchor="middle" x="961.5" y="-7.5" font-family="Helvetica,sans-Serif" font-size="10.00">Stress.cpp</text>
</a>
</g>
</g>
<!-- Node1&#45;&gt;Node7 -->
<g id="edge6" class="edge">
<title>Node1&#45;&gt;Node7</title>
<path fill="none" stroke="midnightblue" d="M961.5,-67.98C961.5,-59.35 961.5,-49.76 961.5,-41.59"/>
<polygon fill="midnightblue" stroke="midnightblue" points="958,-68.23 961.5,-78.23 965,-68.23 958,-68.23"/>
</g>
<!-- Node8 -->
<g id="node8" class="node">
<title>Node8</title>
<g id="a_node8"><a xlink:href="MarmotMaterialHyperElastic_8cpp.html" target="_top" xlink:title=" ">
<polygon fill="white" stroke="black" points="1065,-6 1065,-36 1262,-36 1262,-6 1065,-6"/>
<text text-anchor="start" x="1073" y="-24" font-family="Helvetica,sans-Serif" font-size="10.00">modules/core/MarmotMechanics</text>
<text text-anchor="middle" x="1163.5" y="-13" font-family="Helvetica,sans-Serif" font-size="10.00">Core/src/MarmotMaterialHyperElastic.cpp</text>
</a>
</g>
</g>
<!-- Node1&#45;&gt;Node8 -->
<g id="edge7" class="edge">
<title>Node1&#45;&gt;Node8</title>
<path fill="none" stroke="midnightblue" d="M1011.74,-74.96C1046.13,-62.96 1091.13,-47.26 1123.18,-36.07"/>
<polygon fill="midnightblue" stroke="midnightblue" points="1010.18,-71.8 1001.89,-78.4 1012.49,-78.41 1010.18,-71.8"/>
</g>
<!-- Node9 -->
<g id="node9" class="node">
<title>Node9</title>
<g id="a_node9"><a xlink:href="MarmotMaterialHypoElastic_8cpp.html" target="_top" xlink:title=" ">
<polygon fill="white" stroke="black" points="1280.5,-6 1280.5,-36 1474.5,-36 1474.5,-6 1280.5,-6"/>
<text text-anchor="start" x="1288.5" y="-24" font-family="Helvetica,sans-Serif" font-size="10.00">modules/core/MarmotMechanics</text>
<text text-anchor="middle" x="1377.5" y="-13" font-family="Helvetica,sans-Serif" font-size="10.00">Core/src/MarmotMaterialHypoElastic.cpp</text>
</a>
</g>
</g>
<!-- Node1&#45;&gt;Node9 -->
<g id="edge8" class="edge">
<title>Node1&#45;&gt;Node9</title>
<path fill="none" stroke="midnightblue" d="M1051.69,-78.42C1113.59,-68.6 1197.61,-54.99 1271.5,-42 1282.2,-40.12 1293.49,-38.06 1304.56,-36.01"/>
<polygon fill="midnightblue" stroke="midnightblue" points="1050.89,-75 1041.56,-80.02 1051.98,-81.91 1050.89,-75"/>
</g>
<!-- Node10 -->
<g id="node10" class="node">
<title>Node10</title>
<g id="a_node10"><a xlink:href="MarmotMaterialHypoElasticNonLocal_8cpp.html" target="_top" xlink:title=" ">
<polygon fill="white" stroke="black" points="1492.5,-0.5 1492.5,-41.5 1668.5,-41.5 1668.5,-0.5 1492.5,-0.5"/>
<text text-anchor="start" x="1500.5" y="-29.5" font-family="Helvetica,sans-Serif" font-size="10.00">modules/core/MarmotMechanics</text>
<text text-anchor="start" x="1500.5" y="-18.5" font-family="Helvetica,sans-Serif" font-size="10.00">Core/src/MarmotMaterialHypoElastic</text>
<text text-anchor="middle" x="1580.5" y="-7.5" font-family="Helvetica,sans-Serif" font-size="10.00">NonLocal.cpp</text>
</a>
</g>
</g>
<!-- Node1&#45;&gt;Node10 -->
<g id="edge9" class="edge">
<title>Node1&#45;&gt;Node10</title>
<path fill="none" stroke="midnightblue" d="M1052.05,-86.69C1156.44,-79.31 1332.99,-64.73 1483.5,-42 1486.39,-41.56 1489.32,-41.1 1492.28,-40.61"/>
<polygon fill="midnightblue" stroke="midnightblue" points="1051.6,-83.21 1041.86,-87.4 1052.08,-90.2 1051.6,-83.21"/>
</g>
<!-- Node11 -->
<g id="node11" class="node">
<title>Node11</title>
<g id="a_node11"><a xlink:href="MarmotVoigt_8cpp.html" target="_top" xlink:title=" ">
<polygon fill="white" stroke="black" points="1686.5,-6 1686.5,-36 1844.5,-36 1844.5,-6 1686.5,-6"/>
<text text-anchor="start" x="1694.5" y="-24" font-family="Helvetica,sans-Serif" font-size="10.00">modules/core/MarmotMechanics</text>
<text text-anchor="middle" x="1765.5" y="-13" font-family="Helvetica,sans-Serif" font-size="10.00">Core/src/MarmotVoigt.cpp</text>
</a>
</g>
</g>
<!-- Node1&#45;&gt;Node11 -->
<g id="edge10" class="edge">
<title>Node1&#45;&gt;Node11</title>
<path fill="none" stroke="midnightblue" d="M1052.05,-90.55C1188.39,-86.61 1454.19,-75.05 1677.5,-42 1687.88,-40.46 1698.86,-38.36 1709.41,-36.09"/>
<polygon fill="midnightblue" stroke="midnightblue" points="1051.56,-87.06 1041.66,-90.84 1051.76,-94.06 1051.56,-87.06"/>
</g>
<!-- Node12 -->
<g id="node12" class="node">
<title>Node12</title>
<g id="a_node12"><a xlink:href="VonMises_8cpp.html" target="_top" xlink:title=" ">
<polygon fill="white" stroke="black" points="1863,-6 1863,-36 2006,-36 2006,-6 1863,-6"/>
<text text-anchor="start" x="1871" y="-24" font-family="Helvetica,sans-Serif" font-size="10.00">modules/materials/VonMises</text>
<text text-anchor="middle" x="1934.5" y="-13" font-family="Helvetica,sans-Serif" font-size="10.00">/src/VonMises.cpp</text>
</a>
</g>
</g>
<!-- Node1&#45;&gt;Node12 -->
<g id="edge11" class="edge">
<title>Node1&#45;&gt;Node12</title>
<path fill="none" stroke="midnightblue" d="M1052.05,-92.9C1213.85,-92.39 1562.89,-85.72 1853.5,-42 1863.38,-40.51 1873.82,-38.37 1883.8,-36.04"/>
<polygon fill="midnightblue" stroke="midnightblue" points="1051.66,-89.4 1041.67,-92.92 1051.67,-96.4 1051.66,-89.4"/>
</g>
</g>
</svg>
        <g id="navigator" transform="translate(0 0)" fill="#404254">
                <rect fill="#f2f5e9" fill-opacity="0.5" stroke="#606060" stroke-width=".5" x="0" y="0" width="60" height="60"/>
                <use id="zoomplus" xlink:href="#zoomPlus" x="17" y="9" onmousedown="handleZoom(evt,'in')"/>
                <use id="zoomminus" xlink:href="#zoomMin" x="42" y="9" onmousedown="handleZoom(evt,'out')"/>
                <use id="reset" xlink:href="#resetDef" x="30" y="36" onmousedown="handleReset()"/>
                <g id="arrowUp" xlink:href="#dirArrow" transform="translate(30 24)" onmousedown="handlePan(0,-1)">
                  <use xlink:href="#rim" fill="#404040">
                        <set attributeName="fill" to="#808080" begin="arrowUp.mouseover" end="arrowUp.mouseout"/>
                  </use>
                  <path fill="none" stroke="white" stroke-width="1.5" d="M0,-3.0v7 M-2.5,-0.5L0,-3.0L2.5,-0.5"/>
                </g>
                <g id="arrowRight" xlink:href="#dirArrow" transform="rotate(90) translate(36 -43)" onmousedown="handlePan(1,0)">
                  <use xlink:href="#rim" fill="#404040">
                        <set attributeName="fill" to="#808080" begin="arrowRight.mouseover" end="arrowRight.mouseout"/>
                  </use>
                  <path fill="none" stroke="white" stroke-width="1.5" d="M0,-3.0v7 M-2.5,-0.5L0,-3.0L2.5,-0.5"/>
                </g>
                <g id="arrowDown" xlink:href="#dirArrow" transform="rotate(180) translate(-30 -48)" onmousedown="handlePan(0,1)">
                  <use xlink:href="#rim" fill="#404040">
                        <set attributeName="fill" to="#808080" begin="arrowDown.mouseover" end="arrowDown.mouseout"/>
                  </use>
                  <path fill="none" stroke="white" stroke-width="1.5" d="M0,-3.0v7 M-2.5,-0.5L0,-3.0L2.5,-0.5"/>
                </g>
                <g id="arrowLeft" xlink:href="#dirArrow" transform="rotate(270) translate(-36 17)" onmousedown="handlePan(-1,0)">
                  <use xlink:href="#rim" fill="#404040">
                        <set attributeName="fill" to="#808080" begin="arrowLeft.mouseover" end="arrowLeft.mouseout"/>
                  </use>
                  <path fill="none" stroke="white" stroke-width="1.5" d="M0,-3.0v7 M-2.5,-0.5L0,-3.0L2.5,-0.5"/>
                </g>
        </g>
        <svg viewBox="0 0 15 15" width="100%" height="30px" preserveAspectRatio="xMaxYMin meet">
         <g id="arrow_out" transform="scale(0.3 0.3)">
          <a xlink:href="MarmotTensor_8h__dep__incl_org.svg" target="_base">
           <rect id="button" ry="5" rx="5" y="6" x="6" height="38" width="38"
                fill="#f2f5e9" fill-opacity="0.5" stroke="#606060" stroke-width="1.0"/>
           <path id="arrow"
             d="M 11.500037,31.436501 C 11.940474,20.09759 22.043105,11.32322 32.158766,21.979434 L 37.068811,17.246167 C 37.068811,17.246167 37.088388,32 37.088388,32 L 22.160133,31.978069 C 22.160133,31.978069 26.997745,27.140456 26.997745,27.140456 C 18.528582,18.264221 13.291696,25.230495 11.500037,31.436501 z"
             style="fill:#404040;"/>
          </a>
         </g>
        </svg>
</svg>
