<?xml version="1.0" encoding="UTF-8" standalone="no"?>
<!DOCTYPE svg PUBLIC "-//W3C//DTD SVG 1.1//EN"
 "http://www.w3.org/Graphics/SVG/1.1/DTD/svg11.dtd">
<!-- Generated by graphviz version 3.0.0 (20220413.0106)
 -->
<!-- Title: modules/core/MarmotMathCore/include/Marmot/MarmotAutomaticDifferentiation.h Pages: 1 -->
<svg width="330pt" height="117pt"
 viewBox="0.00 0.00 329.50 117.00" xmlns="http://www.w3.org/2000/svg" xmlns:xlink="http://www.w3.org/1999/xlink">
<g id="graph0" class="graph" transform="scale(1 1) rotate(0) translate(4 113)">
<title>modules/core/MarmotMathCore/include/Marmot/MarmotAutomaticDifferentiation.h</title>
<polygon fill="white" stroke="transparent" points="-4,4 -4,-113 325.5,-113 325.5,4 -4,4"/>
<!-- Node1 -->
<g id="node1" class="node">
<title>Node1</title>
<g id="a_node1"><a xlink:title=" ">
<polygon fill="#bfbfbf" stroke="black" points="108.5,-67.5 108.5,-108.5 275.5,-108.5 275.5,-67.5 108.5,-67.5"/>
<text text-anchor="start" x="116.5" y="-96.5" font-family="Helvetica,sans-Serif" font-size="10.00">modules/core/MarmotMathCore</text>
<text text-anchor="start" x="116.5" y="-85.5" font-family="Helvetica,sans-Serif" font-size="10.00">/include/Marmot/MarmotAutomatic</text>
<text text-anchor="middle" x="192" y="-74.5" font-family="Helvetica,sans-Serif" font-size="10.00">Differentiation.h</text>
</a>
</g>
</g>
<!-- Node2 -->
<g id="node2" class="node">
<title>Node2</title>
<g id="a_node2"><a xlink:title=" ">
<polygon fill="white" stroke="#bfbfbf" points="0,-6 0,-25 122,-25 122,-6 0,-6"/>
<text text-anchor="middle" x="61" y="-13" font-family="Helvetica,sans-Serif" font-size="10.00">autodiff/forward/dual.hpp</text>
</a>
</g>
</g>
<!-- Node1&#45;&gt;Node2 -->
<g id="edge1" class="edge">
<title>Node1&#45;&gt;Node2</title>
<path fill="none" stroke="midnightblue" d="M155.51,-67.36C133.39,-55.46 105.74,-40.58 86.07,-29.99"/>
<polygon fill="midnightblue" stroke="midnightblue" points="87.58,-26.83 77.12,-25.17 84.26,-32.99 87.58,-26.83"/>
</g>
<!-- Node3 -->
<g id="node3" class="node">
<title>Node3</title>
<g id="a_node3"><a xlink:title=" ">
<polygon fill="white" stroke="#bfbfbf" points="140,-0.5 140,-30.5 244,-30.5 244,-0.5 140,-0.5"/>
<text text-anchor="start" x="148" y="-18.5" font-family="Helvetica,sans-Serif" font-size="10.00">autodiff/forward/dual</text>
<text text-anchor="middle" x="192" y="-7.5" font-family="Helvetica,sans-Serif" font-size="10.00">/eigen.hpp</text>
</a>
</g>
</g>
<!-- Node1&#45;&gt;Node3 -->
<g id="edge2" class="edge">
<title>Node1&#45;&gt;Node3</title>
<path fill="none" stroke="midnightblue" d="M192,-67.36C192,-59.23 192,-49.7 192,-41.11"/>
<polygon fill="midnightblue" stroke="midnightblue" points="195.5,-40.89 192,-30.89 188.5,-40.89 195.5,-40.89"/>
</g>
<!-- Node4 -->
<g id="node4" class="node">
<title>Node4</title>
<g id="a_node4"><a xlink:title=" ">
<polygon fill="white" stroke="#bfbfbf" points="262.5,-6 262.5,-25 321.5,-25 321.5,-6 262.5,-6"/>
<text text-anchor="middle" x="292" y="-13" font-family="Helvetica,sans-Serif" font-size="10.00">functional</text>
</a>
</g>
</g>
<!-- Node1&#45;&gt;Node4 -->
<g id="edge3" class="edge">
<title>Node1&#45;&gt;Node4</title>
<path fill="none" stroke="midnightblue" d="M219.86,-67.36C236.13,-55.89 256.32,-41.65 271.2,-31.16"/>
<polygon fill="midnightblue" stroke="midnightblue" points="273.54,-33.8 279.7,-25.17 269.51,-28.07 273.54,-33.8"/>
</g>
</g>
</svg>
