<?xml version="1.0" encoding="UTF-8" standalone="no"?>
<!DOCTYPE svg PUBLIC "-//W3C//DTD SVG 1.1//EN"
 "http://www.w3.org/Graphics/SVG/1.1/DTD/svg11.dtd">
<!-- Generated by graphviz version 2.44.0 ()
 -->
<!-- Title: modules/core/MarmotMathCore/include/Marmot/MarmotTensor.h Pages: 1 -->
<svg width="1126pt" height="285pt"
 viewBox="0.00 0.00 1126.00 285.00" xmlns="http://www.w3.org/2000/svg" xmlns:xlink="http://www.w3.org/1999/xlink">
<g id="graph0" class="graph" transform="scale(1 1) rotate(0) translate(4 281)">
<title>modules/core/MarmotMathCore/include/Marmot/MarmotTensor.h</title>
<polygon fill="white" stroke="transparent" points="-4,4 -4,-281 1122,-281 1122,4 -4,4"/>
<!-- Node1 -->
<g id="node1" class="node">
<title>Node1</title>
<g id="a_node1"><a xlink:title=" ">
<polygon fill="#bfbfbf" stroke="black" points="434,-246.5 434,-276.5 594,-276.5 594,-246.5 434,-246.5"/>
<text text-anchor="start" x="442" y="-264.5" font-family="Helvetica,sans-Serif" font-size="10.00">modules/core/MarmotMathCore</text>
<text text-anchor="middle" x="514" y="-253.5" font-family="Helvetica,sans-Serif" font-size="10.00">/include/Marmot/MarmotTensor.h</text>
</a>
</g>
</g>
<!-- Node2 -->
<g id="node2" class="node">
<title>Node2</title>
<g id="a_node2"><a xlink:href="MarmotJournal_8h.html" target="_top" xlink:title=" ">
<polygon fill="white" stroke="black" points="100.5,-134.5 100.5,-153.5 225.5,-153.5 225.5,-134.5 100.5,-134.5"/>
<text text-anchor="middle" x="163" y="-141.5" font-family="Helvetica,sans-Serif" font-size="10.00">Marmot/MarmotJournal.h</text>
</a>
</g>
</g>
<!-- Node1&#45;&gt;Node2 -->
<g id="edge1" class="edge">
<title>Node1&#45;&gt;Node2</title>
<path fill="none" stroke="midnightblue" d="M471.31,-246.45C401.42,-223.46 263.86,-178.19 198.76,-156.77"/>
<polygon fill="midnightblue" stroke="midnightblue" points="199.55,-153.34 188.96,-153.54 197.36,-159.99 199.55,-153.34"/>
</g>
<!-- Node3 -->
<g id="node3" class="node">
<title>Node3</title>
<g id="a_node3"><a xlink:title=" ">
<polygon fill="white" stroke="#bfbfbf" points="0,-73 0,-92 54,-92 54,-73 0,-73"/>
<text text-anchor="middle" x="27" y="-80" font-family="Helvetica,sans-Serif" font-size="10.00">iostream</text>
</a>
</g>
</g>
<!-- Node1&#45;&gt;Node3 -->
<g id="edge21" class="edge">
<title>Node1&#45;&gt;Node3</title>
<path fill="none" stroke="midnightblue" d="M433.75,-254.47C344.4,-244.68 198.44,-219.27 91,-154 68.8,-140.51 49.74,-117.01 38.33,-100.88"/>
<polygon fill="midnightblue" stroke="midnightblue" points="41.05,-98.66 32.53,-92.36 35.26,-102.6 41.05,-98.66"/>
</g>
<!-- Node6 -->
<g id="node6" class="node">
<title>Node6</title>
<g id="a_node6"><a xlink:href="MarmotTypedefs_8h.html" target="_top" xlink:title=" ">
<polygon fill="white" stroke="black" points="903.5,-73 903.5,-92 1036.5,-92 1036.5,-73 903.5,-73"/>
<text text-anchor="middle" x="970" y="-80" font-family="Helvetica,sans-Serif" font-size="10.00">Marmot/MarmotTypedefs.h</text>
</a>
</g>
</g>
<!-- Node1&#45;&gt;Node6 -->
<g id="edge5" class="edge">
<title>Node1&#45;&gt;Node6</title>
<path fill="none" stroke="midnightblue" d="M540.08,-246.49C568.58,-231.47 615.81,-207.44 658,-190 754.5,-150.1 871.92,-112.98 931.43,-94.94"/>
<polygon fill="midnightblue" stroke="midnightblue" points="932.6,-98.24 941.16,-92.01 930.58,-91.54 932.6,-98.24"/>
</g>
<!-- Node10 -->
<g id="node10" class="node">
<title>Node10</title>
<g id="a_node10"><a xlink:href="MarmotVoigt_8h.html" target="_top" xlink:title=" ">
<polygon fill="white" stroke="black" points="456,-190.5 456,-209.5 572,-209.5 572,-190.5 456,-190.5"/>
<text text-anchor="middle" x="514" y="-197.5" font-family="Helvetica,sans-Serif" font-size="10.00">Marmot/MarmotVoigt.h</text>
</a>
</g>
</g>
<!-- Node1&#45;&gt;Node10 -->
<g id="edge9" class="edge">
<title>Node1&#45;&gt;Node10</title>
<path fill="none" stroke="midnightblue" d="M514,-246.4C514,-238.47 514,-228.46 514,-219.86"/>
<polygon fill="midnightblue" stroke="midnightblue" points="517.5,-219.66 514,-209.66 510.5,-219.66 517.5,-219.66"/>
</g>
<!-- Node19 -->
<g id="node19" class="node">
<title>Node19</title>
<g id="a_node19"><a xlink:title=" ">
<polygon fill="white" stroke="#bfbfbf" points="666.5,-190.5 666.5,-209.5 705.5,-209.5 705.5,-190.5 666.5,-190.5"/>
<text text-anchor="middle" x="686" y="-197.5" font-family="Helvetica,sans-Serif" font-size="10.00">utility</text>
</a>
</g>
</g>
<!-- Node1&#45;&gt;Node19 -->
<g id="edge22" class="edge">
<title>Node1&#45;&gt;Node19</title>
<path fill="none" stroke="midnightblue" d="M554.76,-246.4C586.08,-235.56 628.59,-220.86 656.64,-211.16"/>
<polygon fill="midnightblue" stroke="midnightblue" points="657.96,-214.4 666.27,-207.83 655.67,-207.79 657.96,-214.4"/>
</g>
<!-- Node2&#45;&gt;Node3 -->
<g id="edge2" class="edge">
<title>Node2&#45;&gt;Node3</title>
<path fill="none" stroke="midnightblue" d="M143.51,-134.48C120.59,-124.45 82.31,-107.7 55.92,-96.15"/>
<polygon fill="midnightblue" stroke="midnightblue" points="57.01,-92.81 46.45,-92.01 54.21,-99.22 57.01,-92.81"/>
</g>
<!-- Node4 -->
<g id="node4" class="node">
<title>Node4</title>
<g id="a_node4"><a xlink:title=" ">
<polygon fill="white" stroke="#bfbfbf" points="72,-73 72,-92 124,-92 124,-73 72,-73"/>
<text text-anchor="middle" x="98" y="-80" font-family="Helvetica,sans-Serif" font-size="10.00">sstream</text>
</a>
</g>
</g>
<!-- Node2&#45;&gt;Node4 -->
<g id="edge3" class="edge">
<title>Node2&#45;&gt;Node4</title>
<path fill="none" stroke="midnightblue" d="M153.69,-134.48C143.55,-125.2 127.14,-110.17 114.75,-98.83"/>
<polygon fill="midnightblue" stroke="midnightblue" points="117.04,-96.18 107.3,-92.01 112.31,-101.34 117.04,-96.18"/>
</g>
<!-- Node5 -->
<g id="node5" class="node">
<title>Node5</title>
<g id="a_node5"><a xlink:title=" ">
<polygon fill="white" stroke="#bfbfbf" points="142.5,-73 142.5,-92 183.5,-92 183.5,-73 142.5,-73"/>
<text text-anchor="middle" x="163" y="-80" font-family="Helvetica,sans-Serif" font-size="10.00">string</text>
</a>
</g>
</g>
<!-- Node2&#45;&gt;Node5 -->
<g id="edge4" class="edge">
<title>Node2&#45;&gt;Node5</title>
<path fill="none" stroke="midnightblue" d="M163,-134.48C163,-126.08 163,-112.98 163,-102.16"/>
<polygon fill="midnightblue" stroke="midnightblue" points="166.5,-102.01 163,-92.01 159.5,-102.01 166.5,-102.01"/>
</g>
<!-- Node7 -->
<g id="node7" class="node">
<title>Node7</title>
<g id="a_node7"><a xlink:title=" ">
<polygon fill="white" stroke="#bfbfbf" points="1054,-6 1054,-25 1118,-25 1118,-6 1054,-6"/>
<text text-anchor="middle" x="1086" y="-13" font-family="Helvetica,sans-Serif" font-size="10.00">Eigen/Core</text>
</a>
</g>
</g>
<!-- Node6&#45;&gt;Node7 -->
<g id="edge6" class="edge">
<title>Node6&#45;&gt;Node7</title>
<path fill="none" stroke="midnightblue" d="M985.64,-72.73C1005.21,-61.77 1038.92,-42.88 1061.82,-30.05"/>
<polygon fill="midnightblue" stroke="midnightblue" points="1063.59,-33.07 1070.6,-25.13 1060.17,-26.96 1063.59,-33.07"/>
</g>
<!-- Node8 -->
<g id="node8" class="node">
<title>Node8</title>
<g id="a_node8"><a xlink:title=" ">
<polygon fill="white" stroke="#bfbfbf" points="815.5,-6 815.5,-25 886.5,-25 886.5,-6 815.5,-6"/>
<text text-anchor="middle" x="851" y="-13" font-family="Helvetica,sans-Serif" font-size="10.00">Eigen/Dense</text>
</a>
</g>
</g>
<!-- Node6&#45;&gt;Node8 -->
<g id="edge7" class="edge">
<title>Node6&#45;&gt;Node8</title>
<path fill="none" stroke="midnightblue" d="M953.95,-72.73C933.88,-61.77 899.3,-42.88 875.81,-30.05"/>
<polygon fill="midnightblue" stroke="midnightblue" points="877.25,-26.85 866.79,-25.13 873.89,-32.99 877.25,-26.85"/>
</g>
<!-- Node9 -->
<g id="node9" class="node">
<title>Node9</title>
<g id="a_node9"><a xlink:title=" ">
<polygon fill="white" stroke="#bfbfbf" points="904.5,-0.5 904.5,-30.5 1035.5,-30.5 1035.5,-0.5 904.5,-0.5"/>
<text text-anchor="start" x="912.5" y="-18.5" font-family="Helvetica,sans-Serif" font-size="10.00">unsupported/Eigen/CXX11</text>
<text text-anchor="middle" x="970" y="-7.5" font-family="Helvetica,sans-Serif" font-size="10.00">/Tensor</text>
</a>
</g>
</g>
<!-- Node6&#45;&gt;Node9 -->
<g id="edge8" class="edge">
<title>Node6&#45;&gt;Node9</title>
<path fill="none" stroke="midnightblue" d="M970,-72.73C970,-64.54 970,-51.92 970,-40.71"/>
<polygon fill="midnightblue" stroke="midnightblue" points="973.5,-40.59 970,-30.59 966.5,-40.59 973.5,-40.59"/>
</g>
<!-- Node10&#45;&gt;Node2 -->
<g id="edge10" class="edge">
<title>Node10&#45;&gt;Node2</title>
<path fill="none" stroke="midnightblue" d="M458.38,-190.44C395.87,-180.83 294.48,-165.23 228.27,-155.04"/>
<polygon fill="midnightblue" stroke="midnightblue" points="228.77,-151.58 218.36,-153.52 227.71,-158.5 228.77,-151.58"/>
</g>
<!-- Node10&#45;&gt;Node6 -->
<g id="edge20" class="edge">
<title>Node10&#45;&gt;Node6</title>
<path fill="none" stroke="midnightblue" d="M527.03,-190.4C551.52,-174.39 603.77,-141 624,-134 738.41,-94.41 774.49,-117.35 894,-98 901.65,-96.76 909.7,-95.35 917.6,-93.9"/>
<polygon fill="midnightblue" stroke="midnightblue" points="918.28,-97.33 927.47,-92.05 916.99,-90.45 918.28,-97.33"/>
</g>
<!-- Node11 -->
<g id="node11" class="node">
<title>Node11</title>
<g id="a_node11"><a xlink:href="MarmotMath_8h.html" target="_top" xlink:title=" ">
<polygon fill="white" stroke="black" points="456.5,-134.5 456.5,-153.5 571.5,-153.5 571.5,-134.5 456.5,-134.5"/>
<text text-anchor="middle" x="514" y="-141.5" font-family="Helvetica,sans-Serif" font-size="10.00">Marmot/MarmotMath.h</text>
</a>
</g>
</g>
<!-- Node10&#45;&gt;Node11 -->
<g id="edge11" class="edge">
<title>Node10&#45;&gt;Node11</title>
<path fill="none" stroke="midnightblue" d="M514,-190.08C514,-183.01 514,-172.86 514,-163.99"/>
<polygon fill="midnightblue" stroke="midnightblue" points="517.5,-163.75 514,-153.75 510.5,-163.75 517.5,-163.75"/>
</g>
<!-- Node11&#45;&gt;Node6 -->
<g id="edge14" class="edge">
<title>Node11&#45;&gt;Node6</title>
<path fill="none" stroke="midnightblue" d="M571.76,-135.74C576.58,-135.15 581.37,-134.56 586,-134 722.82,-117.45 757.78,-118.93 894,-98 901.84,-96.8 910.11,-95.37 918.19,-93.9"/>
<polygon fill="midnightblue" stroke="midnightblue" points="919.09,-97.29 928.28,-92.02 917.81,-90.41 919.09,-97.29"/>
</g>
<!-- Node12 -->
<g id="node12" class="node">
<title>Node12</title>
<g id="a_node12"><a xlink:href="MarmotConstants_8h.html" target="_top" xlink:title=" ">
<polygon fill="white" stroke="black" points="607.5,-73 607.5,-92 744.5,-92 744.5,-73 607.5,-73"/>
<text text-anchor="middle" x="676" y="-80" font-family="Helvetica,sans-Serif" font-size="10.00">Marmot/MarmotConstants.h</text>
</a>
</g>
</g>
<!-- Node11&#45;&gt;Node12 -->
<g id="edge12" class="edge">
<title>Node11&#45;&gt;Node12</title>
<path fill="none" stroke="midnightblue" d="M537.21,-134.48C565,-124.27 611.72,-107.11 643.19,-95.55"/>
<polygon fill="midnightblue" stroke="midnightblue" points="644.65,-98.74 652.83,-92.01 642.24,-92.17 644.65,-98.74"/>
</g>
<!-- Node14 -->
<g id="node14" class="node">
<title>Node14</title>
<g id="a_node14"><a xlink:title=" ">
<polygon fill="white" stroke="#bfbfbf" points="763,-73 763,-92 885,-92 885,-73 763,-73"/>
<text text-anchor="middle" x="824" y="-80" font-family="Helvetica,sans-Serif" font-size="10.00">autodiff/forward/dual.hpp</text>
</a>
</g>
</g>
<!-- Node11&#45;&gt;Node14 -->
<g id="edge15" class="edge">
<title>Node11&#45;&gt;Node14</title>
<path fill="none" stroke="midnightblue" d="M560.96,-134.47C609.38,-125.6 687.04,-111.21 754,-98 760.23,-96.77 766.77,-95.45 773.24,-94.13"/>
<polygon fill="midnightblue" stroke="midnightblue" points="774.22,-97.5 783.31,-92.06 772.81,-90.65 774.22,-97.5"/>
</g>
<!-- Node15 -->
<g id="node15" class="node">
<title>Node15</title>
<g id="a_node15"><a xlink:title=" ">
<polygon fill="white" stroke="#bfbfbf" points="202,-73 202,-92 322,-92 322,-73 202,-73"/>
<text text-anchor="middle" x="262" y="-80" font-family="Helvetica,sans-Serif" font-size="10.00">autodiff/forward/real.hpp</text>
</a>
</g>
</g>
<!-- Node11&#45;&gt;Node15 -->
<g id="edge16" class="edge">
<title>Node11&#45;&gt;Node15</title>
<path fill="none" stroke="midnightblue" d="M477.89,-134.48C433.17,-123.92 356.92,-105.91 308.03,-94.37"/>
<polygon fill="midnightblue" stroke="midnightblue" points="308.58,-90.9 298.04,-92.01 306.97,-97.71 308.58,-90.9"/>
</g>
<!-- Node16 -->
<g id="node16" class="node">
<title>Node16</title>
<g id="a_node16"><a xlink:title=" ">
<polygon fill="white" stroke="#bfbfbf" points="340,-73 340,-92 396,-92 396,-73 340,-73"/>
<text text-anchor="middle" x="368" y="-80" font-family="Helvetica,sans-Serif" font-size="10.00">algorithm</text>
</a>
</g>
</g>
<!-- Node11&#45;&gt;Node16 -->
<g id="edge17" class="edge">
<title>Node11&#45;&gt;Node16</title>
<path fill="none" stroke="midnightblue" d="M493.08,-134.48C468.25,-124.36 426.66,-107.4 398.31,-95.85"/>
<polygon fill="midnightblue" stroke="midnightblue" points="399.46,-92.54 388.88,-92.01 396.82,-99.02 399.46,-92.54"/>
</g>
<!-- Node17 -->
<g id="node17" class="node">
<title>Node17</title>
<g id="a_node17"><a xlink:title=" ">
<polygon fill="white" stroke="#bfbfbf" points="414,-67.5 414,-97.5 518,-97.5 518,-67.5 414,-67.5"/>
<text text-anchor="start" x="422" y="-85.5" font-family="Helvetica,sans-Serif" font-size="10.00">autodiff/forward/dual</text>
<text text-anchor="middle" x="466" y="-74.5" font-family="Helvetica,sans-Serif" font-size="10.00">/dual.hpp</text>
</a>
</g>
</g>
<!-- Node11&#45;&gt;Node17 -->
<g id="edge18" class="edge">
<title>Node11&#45;&gt;Node17</title>
<path fill="none" stroke="midnightblue" d="M507.12,-134.48C501.05,-126.94 491.92,-115.63 483.8,-105.57"/>
<polygon fill="midnightblue" stroke="midnightblue" points="486.32,-103.11 477.31,-97.52 480.87,-107.5 486.32,-103.11"/>
</g>
<!-- Node18 -->
<g id="node18" class="node">
<title>Node18</title>
<g id="a_node18"><a xlink:title=" ">
<polygon fill="white" stroke="#bfbfbf" points="536.5,-73 536.5,-92 589.5,-92 589.5,-73 536.5,-73"/>
<text text-anchor="middle" x="563" y="-80" font-family="Helvetica,sans-Serif" font-size="10.00">complex</text>
</a>
</g>
</g>
<!-- Node11&#45;&gt;Node18 -->
<g id="edge19" class="edge">
<title>Node11&#45;&gt;Node18</title>
<path fill="none" stroke="midnightblue" d="M521.02,-134.48C528.44,-125.46 540.33,-111.02 549.57,-99.81"/>
<polygon fill="midnightblue" stroke="midnightblue" points="552.34,-101.95 555.99,-92.01 546.93,-97.5 552.34,-101.95"/>
</g>
<!-- Node13 -->
<g id="node13" class="node">
<title>Node13</title>
<g id="a_node13"><a xlink:title=" ">
<polygon fill="white" stroke="#bfbfbf" points="654,-6 654,-25 698,-25 698,-6 654,-6"/>
<text text-anchor="middle" x="676" y="-13" font-family="Helvetica,sans-Serif" font-size="10.00">cmath</text>
</a>
</g>
</g>
<!-- Node12&#45;&gt;Node13 -->
<g id="edge13" class="edge">
<title>Node12&#45;&gt;Node13</title>
<path fill="none" stroke="midnightblue" d="M676,-72.73C676,-63.18 676,-47.62 676,-35.28"/>
<polygon fill="midnightblue" stroke="midnightblue" points="679.5,-35.13 676,-25.13 672.5,-35.13 679.5,-35.13"/>
</g>
</g>
</svg>
