<?xml version="1.0" encoding="UTF-8" standalone="no"?>
<!DOCTYPE svg PUBLIC "-//W3C//DTD SVG 1.1//EN"
 "http://www.w3.org/Graphics/SVG/1.1/DTD/svg11.dtd">
<!-- Generated by graphviz version 2.44.0 ()
 -->
<!-- Title: modules/core/MarmotMechanicsCore/src/MarmotMaterialHypoElasticNonLocal.cpp Pages: 1 -->
<!--zoomable 374 -->
<svg id="main" version="1.1" xmlns="http://www.w3.org/2000/svg" xmlns:xlink="http://www.w3.org/1999/xlink" xml:space="preserve" onload="init(evt)">
<style type="text/css"><![CDATA[
.edge:hover path { stroke: red; }
.edge:hover polygon { stroke: red; fill: red; }
]]></style>
<script type="text/javascript"><![CDATA[
var edges = document.getElementsByTagName('g');
if (edges && edges.length) {
  for (var i=0;i<edges.length;i++) {
    if (edges[i].id.substr(0,4)=='edge') {
      edges[i].setAttribute('class','edge');
    }
  }
}
]]></script>
        <defs>
                <circle id="rim" cx="0" cy="0" r="7"/>
                <circle id="rim2" cx="0" cy="0" r="3.5"/>
                <g id="zoomPlus">
                        <use xlink:href="#rim" fill="#404040">
                                <set attributeName="fill" to="#808080" begin="zoomplus.mouseover" end="zoomplus.mouseout"/>
                        </use>
                        <path d="M-4,0h8M0,-4v8" fill="none" stroke="white" stroke-width="1.5" pointer-events="none"/>
                </g>
                <g id="zoomMin">
                        <use xlink:href="#rim" fill="#404040">
                                <set attributeName="fill" to="#808080" begin="zoomminus.mouseover" end="zoomminus.mouseout"/>
                        </use>
                        <path d="M-4,0h8" fill="none" stroke="white" stroke-width="1.5" pointer-events="none"/>
                </g>
                <g id="dirArrow">
                        <path fill="none" stroke="white" stroke-width="1.5" d="M0,-3.0v7 M-2.5,-0.5L0,-3.0L2.5,-0.5"/>
                </g>
               <g id="resetDef">
                       <use xlink:href="#rim2" fill="#404040">
                               <set attributeName="fill" to="#808080" begin="reset.mouseover" end="reset.mouseout"/>
                       </use>
               </g>
        </defs>

<script type="text/javascript">
var viewWidth = 1222;
var viewHeight = 374;
var sectionId = 'dynsection-0';
</script>
<script xlink:href="svgpan.js"/>
<svg id="graph" class="graph">
<g id="viewport">
<title>modules/core/MarmotMechanicsCore/src/MarmotMaterialHypoElasticNonLocal.cpp</title>
<polygon fill="white" stroke="transparent" points="-4,4 -4,-370 1218,-370 1218,4 -4,4"/>
<!-- Node1 -->
<g id="node1" class="node">
<title>Node1</title>
<g id="a_node1"><a xlink:title=" ">
<polygon fill="#bfbfbf" stroke="black" points="623.5,-324.5 623.5,-365.5 799.5,-365.5 799.5,-324.5 623.5,-324.5"/>
<text text-anchor="start" x="631.5" y="-353.5" font-family="Helvetica,sans-Serif" font-size="10.00">modules/core/MarmotMechanics</text>
<text text-anchor="start" x="631.5" y="-342.5" font-family="Helvetica,sans-Serif" font-size="10.00">Core/src/MarmotMaterialHypoElastic</text>
<text text-anchor="middle" x="711.5" y="-331.5" font-family="Helvetica,sans-Serif" font-size="10.00">NonLocal.cpp</text>
</a>
</g>
</g>
<!-- Node2 -->
<g id="node2" class="node">
<title>Node2</title>
<g id="a_node2"><a xlink:href="HughesWinget_8h.html" target="_top" xlink:title=" ">
<polygon fill="white" stroke="black" points="574.5,-263 574.5,-282 698.5,-282 698.5,-263 574.5,-263"/>
<text text-anchor="middle" x="636.5" y="-270" font-family="Helvetica,sans-Serif" font-size="10.00">Marmot/HughesWinget.h</text>
</a>
</g>
</g>
<!-- Node1&#45;&gt;Node2 -->
<g id="edge1" class="edge">
<title>Node1&#45;&gt;Node2</title>
<path fill="none" stroke="midnightblue" d="M690.61,-324.36C678.75,-313.21 664.11,-299.46 653.06,-289.06"/>
<polygon fill="midnightblue" stroke="midnightblue" points="655.41,-286.47 645.73,-282.17 650.62,-291.57 655.41,-286.47"/>
</g>
<!-- Node3 -->
<g id="node3" class="node">
<title>Node3</title>
<g id="a_node3"><a xlink:href="MarmotVoigt_8h.html" target="_top" xlink:title=" ">
<polygon fill="white" stroke="black" points="599.5,-196 599.5,-215 715.5,-215 715.5,-196 599.5,-196"/>
<text text-anchor="middle" x="657.5" y="-203" font-family="Helvetica,sans-Serif" font-size="10.00">Marmot/MarmotVoigt.h</text>
</a>
</g>
</g>
<!-- Node1&#45;&gt;Node3 -->
<g id="edge38" class="edge">
<title>Node1&#45;&gt;Node3</title>
<path fill="none" stroke="midnightblue" d="M623.38,-341.46C536.34,-336.87 411.92,-324.02 381.5,-288 372.61,-277.47 372.68,-267.58 381.5,-257 407.45,-225.87 516.31,-213.87 589.3,-209.29"/>
<polygon fill="midnightblue" stroke="midnightblue" points="589.58,-212.78 599.35,-208.69 589.16,-205.79 589.58,-212.78"/>
</g>
<!-- Node4 -->
<g id="node4" class="node">
<title>Node4</title>
<g id="a_node4"><a xlink:href="MarmotJournal_8h.html" target="_top" xlink:title=" ">
<polygon fill="white" stroke="black" points="872,-134.5 872,-153.5 997,-153.5 997,-134.5 872,-134.5"/>
<text text-anchor="middle" x="934.5" y="-141.5" font-family="Helvetica,sans-Serif" font-size="10.00">Marmot/MarmotJournal.h</text>
</a>
</g>
</g>
<!-- Node1&#45;&gt;Node4 -->
<g id="edge20" class="edge">
<title>Node1&#45;&gt;Node4</title>
<path fill="none" stroke="midnightblue" d="M799.64,-339.56C877.69,-333.57 983.2,-319.7 1009.5,-288 1037.31,-254.48 1030.96,-227.9 1009.5,-190 1001.15,-175.26 985.84,-164.82 971.21,-157.73"/>
<polygon fill="midnightblue" stroke="midnightblue" points="972.34,-154.4 961.78,-153.55 969.5,-160.8 972.34,-154.4"/>
</g>
<!-- Node8 -->
<g id="node8" class="node">
<title>Node8</title>
<g id="a_node8"><a xlink:href="MarmotMath_8h.html" target="_top" xlink:title=" ">
<polygon fill="white" stroke="black" points="369,-134.5 369,-153.5 484,-153.5 484,-134.5 369,-134.5"/>
<text text-anchor="middle" x="426.5" y="-141.5" font-family="Helvetica,sans-Serif" font-size="10.00">Marmot/MarmotMath.h</text>
</a>
</g>
</g>
<!-- Node1&#45;&gt;Node8 -->
<g id="edge32" class="edge">
<title>Node1&#45;&gt;Node8</title>
<path fill="none" stroke="midnightblue" d="M623.22,-341.97C533.45,-337.83 403.2,-325.34 371.5,-288 338.91,-249.61 384.6,-189.8 410.61,-161.24"/>
<polygon fill="midnightblue" stroke="midnightblue" points="413.36,-163.43 417.65,-153.75 408.25,-158.64 413.36,-163.43"/>
</g>
<!-- Node20 -->
<g id="node20" class="node">
<title>Node20</title>
<g id="a_node20"><a xlink:href="MarmotKinematics_8h.html" target="_top" xlink:title=" ">
<polygon fill="white" stroke="black" points="716.5,-263 716.5,-282 858.5,-282 858.5,-263 716.5,-263"/>
<text text-anchor="middle" x="787.5" y="-270" font-family="Helvetica,sans-Serif" font-size="10.00">Marmot/MarmotKinematics.h</text>
</a>
</g>
</g>
<!-- Node1&#45;&gt;Node20 -->
<g id="edge21" class="edge">
<title>Node1&#45;&gt;Node20</title>
<path fill="none" stroke="midnightblue" d="M732.67,-324.36C744.69,-313.21 759.52,-299.46 770.72,-289.06"/>
<polygon fill="midnightblue" stroke="midnightblue" points="773.2,-291.54 778.15,-282.17 768.44,-286.41 773.2,-291.54"/>
</g>
<!-- Node21 -->
<g id="node21" class="node">
<title>Node21</title>
<g id="a_node21"><a xlink:href="MarmotLowerDimensionalStress_8h.html" target="_top" xlink:title=" ">
<polygon fill="white" stroke="black" points="390.5,-257.5 390.5,-287.5 556.5,-287.5 556.5,-257.5 390.5,-257.5"/>
<text text-anchor="start" x="398.5" y="-275.5" font-family="Helvetica,sans-Serif" font-size="10.00">Marmot/MarmotLowerDimensional</text>
<text text-anchor="middle" x="473.5" y="-264.5" font-family="Helvetica,sans-Serif" font-size="10.00">Stress.h</text>
</a>
</g>
</g>
<!-- Node1&#45;&gt;Node21 -->
<g id="edge25" class="edge">
<title>Node1&#45;&gt;Node21</title>
<path fill="none" stroke="midnightblue" d="M645.52,-324.46C609.58,-313.81 565.54,-300.76 531.02,-290.54"/>
<polygon fill="midnightblue" stroke="midnightblue" points="531.67,-287.08 521.09,-287.6 529.68,-293.79 531.67,-287.08"/>
</g>
<!-- Node22 -->
<g id="node22" class="node">
<title>Node22</title>
<g id="a_node22"><a xlink:href="MarmotMaterialGradientEnhancedHypoElastic_8h.html" target="_top" xlink:title=" ">
<polygon fill="white" stroke="black" points="1057,-257.5 1057,-287.5 1214,-287.5 1214,-257.5 1057,-257.5"/>
<text text-anchor="start" x="1065" y="-275.5" font-family="Helvetica,sans-Serif" font-size="10.00">Marmot/MarmotMaterialGradient</text>
<text text-anchor="middle" x="1135.5" y="-264.5" font-family="Helvetica,sans-Serif" font-size="10.00">EnhancedHypoElastic.h</text>
</a>
</g>
</g>
<!-- Node1&#45;&gt;Node22 -->
<g id="edge27" class="edge">
<title>Node1&#45;&gt;Node22</title>
<path fill="none" stroke="midnightblue" d="M799.61,-329.35C872.03,-317.31 974.15,-300.33 1046.75,-288.26"/>
<polygon fill="midnightblue" stroke="midnightblue" points="1047.5,-291.68 1056.79,-286.59 1046.35,-284.78 1047.5,-291.68"/>
</g>
<!-- Node26 -->
<g id="node26" class="node">
<title>Node26</title>
<g id="a_node26"><a xlink:href="MarmotTensor_8h.html" target="_top" xlink:title=" ">
<polygon fill="white" stroke="black" points="877,-263 877,-282 1000,-282 1000,-263 877,-263"/>
<text text-anchor="middle" x="938.5" y="-270" font-family="Helvetica,sans-Serif" font-size="10.00">Marmot/MarmotTensor.h</text>
</a>
</g>
</g>
<!-- Node1&#45;&gt;Node26 -->
<g id="edge33" class="edge">
<title>Node1&#45;&gt;Node26</title>
<path fill="none" stroke="midnightblue" d="M774.43,-324.46C815.27,-311.77 867.1,-295.68 901.45,-285.01"/>
<polygon fill="midnightblue" stroke="midnightblue" points="902.58,-288.32 911.09,-282.01 900.5,-281.64 902.58,-288.32"/>
</g>
<!-- Node2&#45;&gt;Node3 -->
<g id="edge2" class="edge">
<title>Node2&#45;&gt;Node3</title>
<path fill="none" stroke="midnightblue" d="M639.33,-262.73C642.45,-253.09 647.55,-237.3 651.55,-224.91"/>
<polygon fill="midnightblue" stroke="midnightblue" points="654.97,-225.72 654.71,-215.13 648.31,-223.57 654.97,-225.72"/>
</g>
<!-- Node3&#45;&gt;Node4 -->
<g id="edge3" class="edge">
<title>Node3&#45;&gt;Node4</title>
<path fill="none" stroke="midnightblue" d="M697.19,-195.98C746.66,-185.35 831.22,-167.18 884.91,-155.65"/>
<polygon fill="midnightblue" stroke="midnightblue" points="885.84,-159.03 894.89,-153.51 884.37,-152.19 885.84,-159.03"/>
</g>
<!-- Node3&#45;&gt;Node8 -->
<g id="edge7" class="edge">
<title>Node3&#45;&gt;Node8</title>
<path fill="none" stroke="midnightblue" d="M624.4,-195.98C583.58,-185.46 514.09,-167.56 469.26,-156.01"/>
<polygon fill="midnightblue" stroke="midnightblue" points="470.09,-152.61 459.54,-153.51 468.35,-159.39 470.09,-152.61"/>
</g>
<!-- Node11 -->
<g id="node11" class="node">
<title>Node11</title>
<g id="a_node11"><a xlink:href="MarmotTypedefs_8h.html" target="_top" xlink:title=" ">
<polygon fill="white" stroke="black" points="701,-73 701,-92 834,-92 834,-73 701,-73"/>
<text text-anchor="middle" x="767.5" y="-80" font-family="Helvetica,sans-Serif" font-size="10.00">Marmot/MarmotTypedefs.h</text>
</a>
</g>
</g>
<!-- Node3&#45;&gt;Node11 -->
<g id="edge19" class="edge">
<title>Node3&#45;&gt;Node11</title>
<path fill="none" stroke="midnightblue" d="M665.41,-195.8C683.72,-175.65 729.27,-125.56 752.84,-99.62"/>
<polygon fill="midnightblue" stroke="midnightblue" points="755.52,-101.88 759.66,-92.12 750.34,-97.17 755.52,-101.88"/>
</g>
<!-- Node5 -->
<g id="node5" class="node">
<title>Node5</title>
<g id="a_node5"><a xlink:title=" ">
<polygon fill="white" stroke="#bfbfbf" points="935.5,-73 935.5,-92 989.5,-92 989.5,-73 935.5,-73"/>
<text text-anchor="middle" x="962.5" y="-80" font-family="Helvetica,sans-Serif" font-size="10.00">iostream</text>
</a>
</g>
</g>
<!-- Node4&#45;&gt;Node5 -->
<g id="edge4" class="edge">
<title>Node4&#45;&gt;Node5</title>
<path fill="none" stroke="midnightblue" d="M938.51,-134.48C942.59,-125.82 949.02,-112.15 954.2,-101.15"/>
<polygon fill="midnightblue" stroke="midnightblue" points="957.4,-102.55 958.5,-92.01 951.07,-99.57 957.4,-102.55"/>
</g>
<!-- Node6 -->
<g id="node6" class="node">
<title>Node6</title>
<g id="a_node6"><a xlink:title=" ">
<polygon fill="white" stroke="#bfbfbf" points="865.5,-73 865.5,-92 917.5,-92 917.5,-73 865.5,-73"/>
<text text-anchor="middle" x="891.5" y="-80" font-family="Helvetica,sans-Serif" font-size="10.00">sstream</text>
</a>
</g>
</g>
<!-- Node4&#45;&gt;Node6 -->
<g id="edge5" class="edge">
<title>Node4&#45;&gt;Node6</title>
<path fill="none" stroke="midnightblue" d="M928.34,-134.48C921.89,-125.55 911.6,-111.31 903.53,-100.14"/>
<polygon fill="midnightblue" stroke="midnightblue" points="906.34,-98.06 897.65,-92.01 900.67,-102.16 906.34,-98.06"/>
</g>
<!-- Node7 -->
<g id="node7" class="node">
<title>Node7</title>
<g id="a_node7"><a xlink:title=" ">
<polygon fill="white" stroke="#bfbfbf" points="1015,-73 1015,-92 1056,-92 1056,-73 1015,-73"/>
<text text-anchor="middle" x="1035.5" y="-80" font-family="Helvetica,sans-Serif" font-size="10.00">string</text>
</a>
</g>
</g>
<!-- Node4&#45;&gt;Node7 -->
<g id="edge6" class="edge">
<title>Node4&#45;&gt;Node7</title>
<path fill="none" stroke="midnightblue" d="M948.97,-134.48C965.47,-124.75 992.68,-108.73 1012.18,-97.24"/>
<polygon fill="midnightblue" stroke="midnightblue" points="1014.22,-100.1 1021.06,-92.01 1010.66,-94.07 1014.22,-100.1"/>
</g>
<!-- Node9 -->
<g id="node9" class="node">
<title>Node9</title>
<g id="a_node9"><a xlink:href="MarmotConstants_8h.html" target="_top" xlink:title=" ">
<polygon fill="white" stroke="black" points="71,-73 71,-92 208,-92 208,-73 71,-73"/>
<text text-anchor="middle" x="139.5" y="-80" font-family="Helvetica,sans-Serif" font-size="10.00">Marmot/MarmotConstants.h</text>
</a>
</g>
</g>
<!-- Node8&#45;&gt;Node9 -->
<g id="edge8" class="edge">
<title>Node8&#45;&gt;Node9</title>
<path fill="none" stroke="midnightblue" d="M385.38,-134.48C334.02,-123.83 246.14,-105.61 190.54,-94.08"/>
<polygon fill="midnightblue" stroke="midnightblue" points="191.05,-90.61 180.54,-92.01 189.63,-97.47 191.05,-90.61"/>
</g>
<!-- Node8&#45;&gt;Node11 -->
<g id="edge10" class="edge">
<title>Node8&#45;&gt;Node11</title>
<path fill="none" stroke="midnightblue" d="M478.85,-134.43C532.34,-125.6 617.79,-111.29 691.5,-98 698.68,-96.71 706.23,-95.31 713.68,-93.91"/>
<polygon fill="midnightblue" stroke="midnightblue" points="714.55,-97.31 723.72,-92.01 713.25,-90.43 714.55,-97.31"/>
</g>
<!-- Node15 -->
<g id="node15" class="node">
<title>Node15</title>
<g id="a_node15"><a xlink:title=" ">
<polygon fill="white" stroke="#bfbfbf" points="226.5,-73 226.5,-92 348.5,-92 348.5,-73 226.5,-73"/>
<text text-anchor="middle" x="287.5" y="-80" font-family="Helvetica,sans-Serif" font-size="10.00">autodiff/forward/dual.hpp</text>
</a>
</g>
</g>
<!-- Node8&#45;&gt;Node15 -->
<g id="edge14" class="edge">
<title>Node8&#45;&gt;Node15</title>
<path fill="none" stroke="midnightblue" d="M406.58,-134.48C383.05,-124.4 343.69,-107.55 316.71,-96"/>
<polygon fill="midnightblue" stroke="midnightblue" points="317.95,-92.73 307.38,-92.01 315.19,-99.16 317.95,-92.73"/>
</g>
<!-- Node16 -->
<g id="node16" class="node">
<title>Node16</title>
<g id="a_node16"><a xlink:title=" ">
<polygon fill="white" stroke="#bfbfbf" points="366.5,-73 366.5,-92 486.5,-92 486.5,-73 366.5,-73"/>
<text text-anchor="middle" x="426.5" y="-80" font-family="Helvetica,sans-Serif" font-size="10.00">autodiff/forward/real.hpp</text>
</a>
</g>
</g>
<!-- Node8&#45;&gt;Node16 -->
<g id="edge15" class="edge">
<title>Node8&#45;&gt;Node16</title>
<path fill="none" stroke="midnightblue" d="M426.5,-134.48C426.5,-126.08 426.5,-112.98 426.5,-102.16"/>
<polygon fill="midnightblue" stroke="midnightblue" points="430,-102.01 426.5,-92.01 423,-102.01 430,-102.01"/>
</g>
<!-- Node17 -->
<g id="node17" class="node">
<title>Node17</title>
<g id="a_node17"><a xlink:title=" ">
<polygon fill="white" stroke="#bfbfbf" points="504.5,-73 504.5,-92 560.5,-92 560.5,-73 504.5,-73"/>
<text text-anchor="middle" x="532.5" y="-80" font-family="Helvetica,sans-Serif" font-size="10.00">algorithm</text>
</a>
</g>
</g>
<!-- Node8&#45;&gt;Node17 -->
<g id="edge16" class="edge">
<title>Node8&#45;&gt;Node17</title>
<path fill="none" stroke="midnightblue" d="M441.69,-134.48C459.16,-124.67 488.08,-108.43 508.58,-96.92"/>
<polygon fill="midnightblue" stroke="midnightblue" points="510.33,-99.96 517.34,-92.01 506.91,-93.85 510.33,-99.96"/>
</g>
<!-- Node18 -->
<g id="node18" class="node">
<title>Node18</title>
<g id="a_node18"><a xlink:title=" ">
<polygon fill="white" stroke="#bfbfbf" points="578.5,-67.5 578.5,-97.5 682.5,-97.5 682.5,-67.5 578.5,-67.5"/>
<text text-anchor="start" x="586.5" y="-85.5" font-family="Helvetica,sans-Serif" font-size="10.00">autodiff/forward/dual</text>
<text text-anchor="middle" x="630.5" y="-74.5" font-family="Helvetica,sans-Serif" font-size="10.00">/dual.hpp</text>
</a>
</g>
</g>
<!-- Node8&#45;&gt;Node18 -->
<g id="edge17" class="edge">
<title>Node8&#45;&gt;Node18</title>
<path fill="none" stroke="midnightblue" d="M455.73,-134.48C486.07,-125.63 534.33,-111.55 572.46,-100.43"/>
<polygon fill="midnightblue" stroke="midnightblue" points="573.8,-103.68 582.42,-97.52 571.84,-96.96 573.8,-103.68"/>
</g>
<!-- Node19 -->
<g id="node19" class="node">
<title>Node19</title>
<g id="a_node19"><a xlink:title=" ">
<polygon fill="white" stroke="#bfbfbf" points="0,-73 0,-92 53,-92 53,-73 0,-73"/>
<text text-anchor="middle" x="26.5" y="-80" font-family="Helvetica,sans-Serif" font-size="10.00">complex</text>
</a>
</g>
</g>
<!-- Node8&#45;&gt;Node19 -->
<g id="edge18" class="edge">
<title>Node8&#45;&gt;Node19</title>
<path fill="none" stroke="midnightblue" d="M368.69,-140.69C295.96,-136.68 167.69,-125.99 61.5,-98 59.05,-97.35 56.55,-96.58 54.06,-95.72"/>
<polygon fill="midnightblue" stroke="midnightblue" points="55.3,-92.44 44.71,-92.13 52.79,-98.98 55.3,-92.44"/>
</g>
<!-- Node10 -->
<g id="node10" class="node">
<title>Node10</title>
<g id="a_node10"><a xlink:title=" ">
<polygon fill="white" stroke="#bfbfbf" points="117.5,-6 117.5,-25 161.5,-25 161.5,-6 117.5,-6"/>
<text text-anchor="middle" x="139.5" y="-13" font-family="Helvetica,sans-Serif" font-size="10.00">cmath</text>
</a>
</g>
</g>
<!-- Node9&#45;&gt;Node10 -->
<g id="edge9" class="edge">
<title>Node9&#45;&gt;Node10</title>
<path fill="none" stroke="midnightblue" d="M139.5,-72.73C139.5,-63.18 139.5,-47.62 139.5,-35.28"/>
<polygon fill="midnightblue" stroke="midnightblue" points="143,-35.13 139.5,-25.13 136,-35.13 143,-35.13"/>
</g>
<!-- Node12 -->
<g id="node12" class="node">
<title>Node12</title>
<g id="a_node12"><a xlink:title=" ">
<polygon fill="white" stroke="#bfbfbf" points="649.5,-6 649.5,-25 713.5,-25 713.5,-6 649.5,-6"/>
<text text-anchor="middle" x="681.5" y="-13" font-family="Helvetica,sans-Serif" font-size="10.00">Eigen/Core</text>
</a>
</g>
</g>
<!-- Node11&#45;&gt;Node12 -->
<g id="edge11" class="edge">
<title>Node11&#45;&gt;Node12</title>
<path fill="none" stroke="midnightblue" d="M755.9,-72.73C741.85,-62.11 717.95,-44.05 701.03,-31.26"/>
<polygon fill="midnightblue" stroke="midnightblue" points="703,-28.36 692.91,-25.13 698.78,-33.95 703,-28.36"/>
</g>
<!-- Node13 -->
<g id="node13" class="node">
<title>Node13</title>
<g id="a_node13"><a xlink:title=" ">
<polygon fill="white" stroke="#bfbfbf" points="732,-6 732,-25 803,-25 803,-6 732,-6"/>
<text text-anchor="middle" x="767.5" y="-13" font-family="Helvetica,sans-Serif" font-size="10.00">Eigen/Dense</text>
</a>
</g>
</g>
<!-- Node11&#45;&gt;Node13 -->
<g id="edge12" class="edge">
<title>Node11&#45;&gt;Node13</title>
<path fill="none" stroke="midnightblue" d="M767.5,-72.73C767.5,-63.18 767.5,-47.62 767.5,-35.28"/>
<polygon fill="midnightblue" stroke="midnightblue" points="771,-35.13 767.5,-25.13 764,-35.13 771,-35.13"/>
</g>
<!-- Node14 -->
<g id="node14" class="node">
<title>Node14</title>
<g id="a_node14"><a xlink:title=" ">
<polygon fill="white" stroke="#bfbfbf" points="821,-0.5 821,-30.5 952,-30.5 952,-0.5 821,-0.5"/>
<text text-anchor="start" x="829" y="-18.5" font-family="Helvetica,sans-Serif" font-size="10.00">unsupported/Eigen/CXX11</text>
<text text-anchor="middle" x="886.5" y="-7.5" font-family="Helvetica,sans-Serif" font-size="10.00">/Tensor</text>
</a>
</g>
</g>
<!-- Node11&#45;&gt;Node14 -->
<g id="edge13" class="edge">
<title>Node11&#45;&gt;Node14</title>
<path fill="none" stroke="midnightblue" d="M783.55,-72.73C800.95,-63.23 829.24,-47.78 851.77,-35.47"/>
<polygon fill="midnightblue" stroke="midnightblue" points="853.61,-38.45 860.71,-30.59 850.25,-32.31 853.61,-38.45"/>
</g>
<!-- Node20&#45;&gt;Node3 -->
<g id="edge24" class="edge">
<title>Node20&#45;&gt;Node3</title>
<path fill="none" stroke="midnightblue" d="M770.24,-262.87C748.19,-251.84 709.81,-232.66 684.04,-219.77"/>
<polygon fill="midnightblue" stroke="midnightblue" points="685.34,-216.51 674.83,-215.17 682.21,-222.77 685.34,-216.51"/>
</g>
<!-- Node20&#45;&gt;Node4 -->
<g id="edge22" class="edge">
<title>Node20&#45;&gt;Node4</title>
<path fill="none" stroke="midnightblue" d="M797.6,-262.81C822.15,-241.68 885.2,-187.43 916.42,-160.56"/>
<polygon fill="midnightblue" stroke="midnightblue" points="919.03,-162.93 924.33,-153.76 914.46,-157.63 919.03,-162.93"/>
</g>
<!-- Node20&#45;&gt;Node11 -->
<g id="edge23" class="edge">
<title>Node20&#45;&gt;Node11</title>
<path fill="none" stroke="midnightblue" d="M786.59,-262.93C783.55,-234.37 773.72,-141.93 769.48,-102.07"/>
<polygon fill="midnightblue" stroke="midnightblue" points="772.95,-101.69 768.42,-92.12 765.99,-102.43 772.95,-101.69"/>
</g>
<!-- Node21&#45;&gt;Node3 -->
<g id="edge26" class="edge">
<title>Node21&#45;&gt;Node3</title>
<path fill="none" stroke="midnightblue" d="M513.43,-257.4C546.42,-245.74 592.75,-229.37 623.88,-218.38"/>
<polygon fill="midnightblue" stroke="midnightblue" points="625.16,-221.64 633.42,-215.01 622.82,-215.04 625.16,-221.64"/>
</g>
<!-- Node23 -->
<g id="node23" class="node">
<title>Node23</title>
<g id="a_node23"><a xlink:href="MarmotMaterialGradientEnhancedMechanical_8h.html" target="_top" xlink:title=" ">
<polygon fill="white" stroke="black" points="1057,-190.5 1057,-220.5 1214,-220.5 1214,-190.5 1057,-190.5"/>
<text text-anchor="start" x="1065" y="-208.5" font-family="Helvetica,sans-Serif" font-size="10.00">Marmot/MarmotMaterialGradient</text>
<text text-anchor="middle" x="1135.5" y="-197.5" font-family="Helvetica,sans-Serif" font-size="10.00">EnhancedMechanical.h</text>
</a>
</g>
</g>
<!-- Node22&#45;&gt;Node23 -->
<g id="edge28" class="edge">
<title>Node22&#45;&gt;Node23</title>
<path fill="none" stroke="midnightblue" d="M1135.5,-257.4C1135.5,-249.64 1135.5,-239.81 1135.5,-230.86"/>
<polygon fill="midnightblue" stroke="midnightblue" points="1139,-230.58 1135.5,-220.58 1132,-230.58 1139,-230.58"/>
</g>
<!-- Node24 -->
<g id="node24" class="node">
<title>Node24</title>
<g id="a_node24"><a xlink:href="MarmotMaterial_8h.html" target="_top" xlink:title=" ">
<polygon fill="white" stroke="black" points="1069.5,-134.5 1069.5,-153.5 1197.5,-153.5 1197.5,-134.5 1069.5,-134.5"/>
<text text-anchor="middle" x="1133.5" y="-141.5" font-family="Helvetica,sans-Serif" font-size="10.00">Marmot/MarmotMaterial.h</text>
</a>
</g>
</g>
<!-- Node23&#45;&gt;Node24 -->
<g id="edge29" class="edge">
<title>Node23&#45;&gt;Node24</title>
<path fill="none" stroke="midnightblue" d="M1135.03,-190.4C1134.76,-182.47 1134.42,-172.46 1134.13,-163.86"/>
<polygon fill="midnightblue" stroke="midnightblue" points="1137.63,-163.53 1133.79,-153.66 1130.63,-163.77 1137.63,-163.53"/>
</g>
<!-- Node24&#45;&gt;Node7 -->
<g id="edge31" class="edge">
<title>Node24&#45;&gt;Node7</title>
<path fill="none" stroke="midnightblue" d="M1119.46,-134.48C1103.45,-124.75 1077.05,-108.73 1058.13,-97.24"/>
<polygon fill="midnightblue" stroke="midnightblue" points="1059.88,-94.21 1049.51,-92.01 1056.25,-100.19 1059.88,-94.21"/>
</g>
<!-- Node25 -->
<g id="node25" class="node">
<title>Node25</title>
<g id="a_node25"><a xlink:href="MarmotUtils_8h.html" target="_top" xlink:title=" ">
<polygon fill="white" stroke="black" points="1077,-73 1077,-92 1190,-92 1190,-73 1077,-73"/>
<text text-anchor="middle" x="1133.5" y="-80" font-family="Helvetica,sans-Serif" font-size="10.00">Marmot/MarmotUtils.h</text>
</a>
</g>
</g>
<!-- Node24&#45;&gt;Node25 -->
<g id="edge30" class="edge">
<title>Node24&#45;&gt;Node25</title>
<path fill="none" stroke="midnightblue" d="M1133.5,-134.48C1133.5,-126.08 1133.5,-112.98 1133.5,-102.16"/>
<polygon fill="midnightblue" stroke="midnightblue" points="1137,-102.01 1133.5,-92.01 1130,-102.01 1137,-102.01"/>
</g>
<!-- Node26&#45;&gt;Node3 -->
<g id="edge36" class="edge">
<title>Node26&#45;&gt;Node3</title>
<path fill="none" stroke="midnightblue" d="M901.48,-262.94C850.83,-251.22 759.92,-230.19 704.52,-217.38"/>
<polygon fill="midnightblue" stroke="midnightblue" points="705.14,-213.93 694.61,-215.08 703.56,-220.75 705.14,-213.93"/>
</g>
<!-- Node26&#45;&gt;Node4 -->
<g id="edge34" class="edge">
<title>Node26&#45;&gt;Node4</title>
<path fill="none" stroke="midnightblue" d="M938.23,-262.81C937.58,-242.49 935.97,-191.55 935.09,-163.78"/>
<polygon fill="midnightblue" stroke="midnightblue" points="938.59,-163.64 934.78,-153.76 931.59,-163.86 938.59,-163.64"/>
</g>
<!-- Node26&#45;&gt;Node11 -->
<g id="edge35" class="edge">
<title>Node26&#45;&gt;Node11</title>
<path fill="none" stroke="midnightblue" d="M930.71,-262.93C904.22,-233.82 817.38,-138.34 782.35,-99.82"/>
<polygon fill="midnightblue" stroke="midnightblue" points="784.66,-97.16 775.34,-92.12 779.48,-101.87 784.66,-97.16"/>
</g>
<!-- Node27 -->
<g id="node27" class="node">
<title>Node27</title>
<g id="a_node27"><a xlink:title=" ">
<polygon fill="white" stroke="#bfbfbf" points="961,-196 961,-215 1000,-215 1000,-196 961,-196"/>
<text text-anchor="middle" x="980.5" y="-203" font-family="Helvetica,sans-Serif" font-size="10.00">utility</text>
</a>
</g>
</g>
<!-- Node26&#45;&gt;Node27 -->
<g id="edge37" class="edge">
<title>Node26&#45;&gt;Node27</title>
<path fill="none" stroke="midnightblue" d="M944.16,-262.73C950.59,-252.79 961.22,-236.34 969.33,-223.79"/>
<polygon fill="midnightblue" stroke="midnightblue" points="972.44,-225.43 974.93,-215.13 966.56,-221.63 972.44,-225.43"/>
</g>
</g>
</svg>
        <g id="navigator" transform="translate(0 0)" fill="#404254">
                <rect fill="#f2f5e9" fill-opacity="0.5" stroke="#606060" stroke-width=".5" x="0" y="0" width="60" height="60"/>
                <use id="zoomplus" xlink:href="#zoomPlus" x="17" y="9" onmousedown="handleZoom(evt,'in')"/>
                <use id="zoomminus" xlink:href="#zoomMin" x="42" y="9" onmousedown="handleZoom(evt,'out')"/>
                <use id="reset" xlink:href="#resetDef" x="30" y="36" onmousedown="handleReset()"/>
                <g id="arrowUp" xlink:href="#dirArrow" transform="translate(30 24)" onmousedown="handlePan(0,-1)">
                  <use xlink:href="#rim" fill="#404040">
                        <set attributeName="fill" to="#808080" begin="arrowUp.mouseover" end="arrowUp.mouseout"/>
                  </use>
                  <path fill="none" stroke="white" stroke-width="1.5" d="M0,-3.0v7 M-2.5,-0.5L0,-3.0L2.5,-0.5"/>
                </g>
                <g id="arrowRight" xlink:href="#dirArrow" transform="rotate(90) translate(36 -43)" onmousedown="handlePan(1,0)">
                  <use xlink:href="#rim" fill="#404040">
                        <set attributeName="fill" to="#808080" begin="arrowRight.mouseover" end="arrowRight.mouseout"/>
                  </use>
                  <path fill="none" stroke="white" stroke-width="1.5" d="M0,-3.0v7 M-2.5,-0.5L0,-3.0L2.5,-0.5"/>
                </g>
                <g id="arrowDown" xlink:href="#dirArrow" transform="rotate(180) translate(-30 -48)" onmousedown="handlePan(0,1)">
                  <use xlink:href="#rim" fill="#404040">
                        <set attributeName="fill" to="#808080" begin="arrowDown.mouseover" end="arrowDown.mouseout"/>
                  </use>
                  <path fill="none" stroke="white" stroke-width="1.5" d="M0,-3.0v7 M-2.5,-0.5L0,-3.0L2.5,-0.5"/>
                </g>
                <g id="arrowLeft" xlink:href="#dirArrow" transform="rotate(270) translate(-36 17)" onmousedown="handlePan(-1,0)">
                  <use xlink:href="#rim" fill="#404040">
                        <set attributeName="fill" to="#808080" begin="arrowLeft.mouseover" end="arrowLeft.mouseout"/>
                  </use>
                  <path fill="none" stroke="white" stroke-width="1.5" d="M0,-3.0v7 M-2.5,-0.5L0,-3.0L2.5,-0.5"/>
                </g>
        </g>
        <svg viewBox="0 0 15 15" width="100%" height="30px" preserveAspectRatio="xMaxYMin meet">
         <g id="arrow_out" transform="scale(0.3 0.3)">
          <a xlink:href="MarmotMaterialHypoElasticNonLocal_8cpp__incl_org.svg" target="_base">
           <rect id="button" ry="5" rx="5" y="6" x="6" height="38" width="38"
                fill="#f2f5e9" fill-opacity="0.5" stroke="#606060" stroke-width="1.0"/>
           <path id="arrow"
             d="M 11.500037,31.436501 C 11.940474,20.09759 22.043105,11.32322 32.158766,21.979434 L 37.068811,17.246167 C 37.068811,17.246167 37.088388,32 37.088388,32 L 22.160133,31.978069 C 22.160133,31.978069 26.997745,27.140456 26.997745,27.140456 C 18.528582,18.264221 13.291696,25.230495 11.500037,31.436501 z"
             style="fill:#404040;"/>
          </a>
         </g>
        </svg>
</svg>
