<?xml version="1.0" encoding="UTF-8" standalone="no"?>
<!DOCTYPE svg PUBLIC "-//W3C//DTD SVG 1.1//EN"
 "http://www.w3.org/Graphics/SVG/1.1/DTD/svg11.dtd">
<!-- Generated by graphviz version 2.44.0 ()
 -->
<!-- Title: modules/core/MarmotMechanicsCore/include/Marmot/MarmotKelvinChain.h Pages: 1 -->
<svg width="520pt" height="173pt"
 viewBox="0.00 0.00 519.50 173.00" xmlns="http://www.w3.org/2000/svg" xmlns:xlink="http://www.w3.org/1999/xlink">
<g id="graph0" class="graph" transform="scale(1 1) rotate(0) translate(4 169)">
<title>modules/core/MarmotMechanicsCore/include/Marmot/MarmotKelvinChain.h</title>
<polygon fill="white" stroke="transparent" points="-4,4 -4,-169 515.5,-169 515.5,4 -4,4"/>
<!-- Node1 -->
<g id="node1" class="node">
<title>Node1</title>
<g id="a_node1"><a xlink:title=" ">
<polygon fill="#bfbfbf" stroke="black" points="173.5,-123.5 173.5,-164.5 343.5,-164.5 343.5,-123.5 173.5,-123.5"/>
<text text-anchor="start" x="181.5" y="-152.5" font-family="Helvetica,sans-Serif" font-size="10.00">modules/core/MarmotMechanics</text>
<text text-anchor="start" x="181.5" y="-141.5" font-family="Helvetica,sans-Serif" font-size="10.00">Core/include/Marmot/MarmotKelvin</text>
<text text-anchor="middle" x="258.5" y="-130.5" font-family="Helvetica,sans-Serif" font-size="10.00">Chain.h</text>
</a>
</g>
</g>
<!-- Node2 -->
<g id="node2" class="node">
<title>Node2</title>
<g id="a_node2"><a xlink:href="MarmotNumericalIntegration_8h.html" target="_top" xlink:title=" ">
<polygon fill="white" stroke="black" points="0,-67.5 0,-86.5 183,-86.5 183,-67.5 0,-67.5"/>
<text text-anchor="middle" x="91.5" y="-74.5" font-family="Helvetica,sans-Serif" font-size="10.00">Marmot/MarmotNumericalIntegration.h</text>
</a>
</g>
</g>
<!-- Node1&#45;&gt;Node2 -->
<g id="edge1" class="edge">
<title>Node1&#45;&gt;Node2</title>
<path fill="none" stroke="midnightblue" d="M208.39,-123.5C180.7,-112.72 147.13,-99.65 123.09,-90.29"/>
<polygon fill="midnightblue" stroke="midnightblue" points="124.32,-87.02 113.73,-86.65 121.78,-93.54 124.32,-87.02"/>
</g>
<!-- Node3 -->
<g id="node3" class="node">
<title>Node3</title>
<g id="a_node3"><a xlink:title=" ">
<polygon fill="white" stroke="#bfbfbf" points="87,-6 87,-25 146,-25 146,-6 87,-6"/>
<text text-anchor="middle" x="116.5" y="-13" font-family="Helvetica,sans-Serif" font-size="10.00">functional</text>
</a>
</g>
</g>
<!-- Node1&#45;&gt;Node3 -->
<g id="edge8" class="edge">
<title>Node1&#45;&gt;Node3</title>
<path fill="none" stroke="midnightblue" d="M243.49,-123.33C230.66,-107.2 211.2,-84.29 191.5,-67 175.67,-53.11 155.84,-39.91 140.54,-30.49"/>
<polygon fill="midnightblue" stroke="midnightblue" points="142.05,-27.31 131.68,-25.14 138.43,-33.3 142.05,-27.31"/>
</g>
<!-- Node4 -->
<g id="node4" class="node">
<title>Node4</title>
<g id="a_node4"><a xlink:href="MarmotTypedefs_8h.html" target="_top" xlink:title=" ">
<polygon fill="white" stroke="black" points="240,-67.5 240,-86.5 373,-86.5 373,-67.5 240,-67.5"/>
<text text-anchor="middle" x="306.5" y="-74.5" font-family="Helvetica,sans-Serif" font-size="10.00">Marmot/MarmotTypedefs.h</text>
</a>
</g>
</g>
<!-- Node1&#45;&gt;Node4 -->
<g id="edge3" class="edge">
<title>Node1&#45;&gt;Node4</title>
<path fill="none" stroke="midnightblue" d="M272.9,-123.5C279.62,-114.39 287.55,-103.66 294.01,-94.91"/>
<polygon fill="midnightblue" stroke="midnightblue" points="296.99,-96.78 300.11,-86.65 291.35,-92.62 296.99,-96.78"/>
</g>
<!-- Node8 -->
<g id="node8" class="node">
<title>Node8</title>
<g id="a_node8"><a xlink:title=" ">
<polygon fill="white" stroke="#bfbfbf" points="391.5,-67.5 391.5,-86.5 511.5,-86.5 511.5,-67.5 391.5,-67.5"/>
<text text-anchor="middle" x="451.5" y="-74.5" font-family="Helvetica,sans-Serif" font-size="10.00">autodiff/forward/real.hpp</text>
</a>
</g>
</g>
<!-- Node1&#45;&gt;Node8 -->
<g id="edge7" class="edge">
<title>Node1&#45;&gt;Node8</title>
<path fill="none" stroke="midnightblue" d="M316.41,-123.5C348.94,-112.54 388.48,-99.22 416.36,-89.84"/>
<polygon fill="midnightblue" stroke="midnightblue" points="417.7,-93.08 426.06,-86.57 415.47,-86.44 417.7,-93.08"/>
</g>
<!-- Node2&#45;&gt;Node3 -->
<g id="edge2" class="edge">
<title>Node2&#45;&gt;Node3</title>
<path fill="none" stroke="midnightblue" d="M95.08,-67.48C98.68,-58.9 104.35,-45.43 108.94,-34.48"/>
<polygon fill="midnightblue" stroke="midnightblue" points="112.28,-35.58 112.92,-25.01 105.82,-32.87 112.28,-35.58"/>
</g>
<!-- Node5 -->
<g id="node5" class="node">
<title>Node5</title>
<g id="a_node5"><a xlink:title=" ">
<polygon fill="white" stroke="#bfbfbf" points="188.5,-6 188.5,-25 252.5,-25 252.5,-6 188.5,-6"/>
<text text-anchor="middle" x="220.5" y="-13" font-family="Helvetica,sans-Serif" font-size="10.00">Eigen/Core</text>
</a>
</g>
</g>
<!-- Node4&#45;&gt;Node5 -->
<g id="edge4" class="edge">
<title>Node4&#45;&gt;Node5</title>
<path fill="none" stroke="midnightblue" d="M294.18,-67.48C280.38,-57.93 257.8,-42.31 241.27,-30.87"/>
<polygon fill="midnightblue" stroke="midnightblue" points="243.01,-27.82 232.8,-25.01 239.03,-33.58 243.01,-27.82"/>
</g>
<!-- Node6 -->
<g id="node6" class="node">
<title>Node6</title>
<g id="a_node6"><a xlink:title=" ">
<polygon fill="white" stroke="#bfbfbf" points="271,-6 271,-25 342,-25 342,-6 271,-6"/>
<text text-anchor="middle" x="306.5" y="-13" font-family="Helvetica,sans-Serif" font-size="10.00">Eigen/Dense</text>
</a>
</g>
</g>
<!-- Node4&#45;&gt;Node6 -->
<g id="edge5" class="edge">
<title>Node4&#45;&gt;Node6</title>
<path fill="none" stroke="midnightblue" d="M306.5,-67.48C306.5,-59.08 306.5,-45.98 306.5,-35.16"/>
<polygon fill="midnightblue" stroke="midnightblue" points="310,-35.01 306.5,-25.01 303,-35.01 310,-35.01"/>
</g>
<!-- Node7 -->
<g id="node7" class="node">
<title>Node7</title>
<g id="a_node7"><a xlink:title=" ">
<polygon fill="white" stroke="#bfbfbf" points="360,-0.5 360,-30.5 491,-30.5 491,-0.5 360,-0.5"/>
<text text-anchor="start" x="368" y="-18.5" font-family="Helvetica,sans-Serif" font-size="10.00">unsupported/Eigen/CXX11</text>
<text text-anchor="middle" x="425.5" y="-7.5" font-family="Helvetica,sans-Serif" font-size="10.00">/Tensor</text>
</a>
</g>
</g>
<!-- Node4&#45;&gt;Node7 -->
<g id="edge6" class="edge">
<title>Node4&#45;&gt;Node7</title>
<path fill="none" stroke="midnightblue" d="M323.55,-67.48C340.42,-59.04 366.79,-45.86 388.48,-35.01"/>
<polygon fill="midnightblue" stroke="midnightblue" points="390.08,-38.13 397.45,-30.52 386.94,-31.86 390.08,-38.13"/>
</g>
</g>
</svg>
