<?xml version="1.0" encoding="UTF-8" standalone="no"?>
<!DOCTYPE svg PUBLIC "-//W3C//DTD SVG 1.1//EN"
 "http://www.w3.org/Graphics/SVG/1.1/DTD/svg11.dtd">
<!-- Generated by graphviz version 3.0.0 (20220413.0106)
 -->
<!-- Title: modules/core/MarmotFiniteElementCore/include/Marmot/MarmotGeometryElement.h Pages: 1 -->
<!--zoomable 285 -->
<svg id="main" version="1.1" xmlns="http://www.w3.org/2000/svg" xmlns:xlink="http://www.w3.org/1999/xlink" xml:space="preserve" onload="init(evt)">
<style type="text/css"><![CDATA[
.edge:hover path { stroke: red; }
.edge:hover polygon { stroke: red; fill: red; }
]]></style>
<script type="text/javascript"><![CDATA[
var edges = document.getElementsByTagName('g');
if (edges && edges.length) {
  for (var i=0;i<edges.length;i++) {
    if (edges[i].id.substr(0,4)=='edge') {
      edges[i].setAttribute('class','edge');
    }
  }
}
]]></script>
        <defs>
                <circle id="rim" cx="0" cy="0" r="7"/>
                <circle id="rim2" cx="0" cy="0" r="3.5"/>
                <g id="zoomPlus">
                        <use xlink:href="#rim" fill="#404040">
                                <set attributeName="fill" to="#808080" begin="zoomplus.mouseover" end="zoomplus.mouseout"/>
                        </use>
                        <path d="M-4,0h8M0,-4v8" fill="none" stroke="white" stroke-width="1.5" pointer-events="none"/>
                </g>
                <g id="zoomMin">
                        <use xlink:href="#rim" fill="#404040">
                                <set attributeName="fill" to="#808080" begin="zoomminus.mouseover" end="zoomminus.mouseout"/>
                        </use>
                        <path d="M-4,0h8" fill="none" stroke="white" stroke-width="1.5" pointer-events="none"/>
                </g>
                <g id="dirArrow">
                        <path fill="none" stroke="white" stroke-width="1.5" d="M0,-3.0v7 M-2.5,-0.5L0,-3.0L2.5,-0.5"/>
                </g>
               <g id="resetDef">
                       <use xlink:href="#rim2" fill="#404040">
                               <set attributeName="fill" to="#808080" begin="reset.mouseover" end="reset.mouseout"/>
                       </use>
               </g>
        </defs>

<script type="text/javascript">
var viewWidth = 663;
var viewHeight = 285;
var sectionId = 'dynsection-0';
</script>
<script xlink:href="svgpan.js"/>
<svg id="graph" class="graph">
<g id="viewport">
<title>modules/core/MarmotFiniteElementCore/include/Marmot/MarmotGeometryElement.h</title>
<polygon fill="white" stroke="transparent" points="-4,4 -4,-281 658.5,-281 658.5,4 -4,4"/>
<!-- Node1 -->
<g id="node1" class="node">
<title>Node1</title>
<g id="a_node1"><a xlink:title=" ">
<polygon fill="#bfbfbf" stroke="black" points="194,-235.5 194,-276.5 336,-276.5 336,-235.5 194,-235.5"/>
<text text-anchor="start" x="202" y="-264.5" font-family="Helvetica,sans-Serif" font-size="10.00">modules/core/MarmotFinite</text>
<text text-anchor="start" x="202" y="-253.5" font-family="Helvetica,sans-Serif" font-size="10.00">ElementCore/include/Marmot</text>
<text text-anchor="middle" x="265" y="-242.5" font-family="Helvetica,sans-Serif" font-size="10.00">/MarmotGeometryElement.h</text>
</a>
</g>
</g>
<!-- Node2 -->
<g id="node2" class="node">
<title>Node2</title>
<g id="a_node2"><a xlink:href="MarmotFiniteElement_8h.html" target="_top" xlink:title=" ">
<polygon fill="white" stroke="black" points="37,-179.5 37,-198.5 189,-198.5 189,-179.5 37,-179.5"/>
<text text-anchor="middle" x="113" y="-186.5" font-family="Helvetica,sans-Serif" font-size="10.00">Marmot/MarmotFiniteElement.h</text>
</a>
</g>
</g>
<!-- Node1&#45;&gt;Node2 -->
<g id="edge1" class="edge">
<title>Node1&#45;&gt;Node2</title>
<path fill="none" stroke="midnightblue" d="M219.39,-235.5C194.52,-224.86 164.45,-212 142.63,-202.67"/>
<polygon fill="midnightblue" stroke="midnightblue" points="143.8,-199.37 133.23,-198.65 141.05,-205.8 143.8,-199.37"/>
</g>
<!-- Node3 -->
<g id="node3" class="node">
<title>Node3</title>
<g id="a_node3"><a xlink:href="MarmotTypedefs_8h.html" target="_top" xlink:title=" ">
<polygon fill="white" stroke="black" points="220.5,-67.5 220.5,-86.5 353.5,-86.5 353.5,-67.5 220.5,-67.5"/>
<text text-anchor="middle" x="287" y="-74.5" font-family="Helvetica,sans-Serif" font-size="10.00">Marmot/MarmotTypedefs.h</text>
</a>
</g>
</g>
<!-- Node1&#45;&gt;Node3 -->
<g id="edge7" class="edge">
<title>Node1&#45;&gt;Node3</title>
<path fill="none" stroke="midnightblue" d="M299.34,-235.36C312.06,-226.12 325.07,-213.83 332,-199 348.92,-162.81 320.47,-118.36 301.62,-94.7"/>
<polygon fill="midnightblue" stroke="midnightblue" points="304.06,-92.16 294.98,-86.7 298.68,-96.63 304.06,-92.16"/>
</g>
<!-- Node8 -->
<g id="node8" class="node">
<title>Node8</title>
<g id="a_node8"><a xlink:href="MarmotVoigt_8h.html" target="_top" xlink:title=" ">
<polygon fill="white" stroke="black" points="207,-179.5 207,-198.5 323,-198.5 323,-179.5 207,-179.5"/>
<text text-anchor="middle" x="265" y="-186.5" font-family="Helvetica,sans-Serif" font-size="10.00">Marmot/MarmotVoigt.h</text>
</a>
</g>
</g>
<!-- Node1&#45;&gt;Node8 -->
<g id="edge8" class="edge">
<title>Node1&#45;&gt;Node8</title>
<path fill="none" stroke="midnightblue" d="M265,-235.5C265,-227.07 265,-217.24 265,-208.87"/>
<polygon fill="midnightblue" stroke="midnightblue" points="268.5,-208.65 265,-198.65 261.5,-208.65 268.5,-208.65"/>
</g>
<!-- Node10 -->
<g id="node10" class="node">
<title>Node10</title>
<g id="a_node10"><a xlink:title=" ">
<polygon fill="white" stroke="#bfbfbf" points="0,-67.5 0,-86.5 54,-86.5 54,-67.5 0,-67.5"/>
<text text-anchor="middle" x="27" y="-74.5" font-family="Helvetica,sans-Serif" font-size="10.00">iostream</text>
</a>
</g>
</g>
<!-- Node1&#45;&gt;Node10 -->
<g id="edge20" class="edge">
<title>Node1&#45;&gt;Node10</title>
<path fill="none" stroke="midnightblue" d="M193.88,-247.8C131.81,-239.88 48.54,-224.74 28,-199 4.61,-169.69 13.35,-122.43 20.79,-96.5"/>
<polygon fill="midnightblue" stroke="midnightblue" points="24.18,-97.39 23.8,-86.8 17.49,-95.32 24.18,-97.39"/>
</g>
<!-- Node18 -->
<g id="node18" class="node">
<title>Node18</title>
<g id="a_node18"><a xlink:title=" ">
<polygon fill="white" stroke="#bfbfbf" points="379.5,-179.5 379.5,-198.5 414.5,-198.5 414.5,-179.5 379.5,-179.5"/>
<text text-anchor="middle" x="397" y="-186.5" font-family="Helvetica,sans-Serif" font-size="10.00">map</text>
</a>
</g>
</g>
<!-- Node1&#45;&gt;Node18 -->
<g id="edge21" class="edge">
<title>Node1&#45;&gt;Node18</title>
<path fill="none" stroke="midnightblue" d="M304.6,-235.5C325.82,-225.05 351.38,-212.46 370.24,-203.18"/>
<polygon fill="midnightblue" stroke="midnightblue" points="372,-206.21 379.43,-198.65 368.91,-199.93 372,-206.21"/>
</g>
<!-- Node2&#45;&gt;Node3 -->
<g id="edge2" class="edge">
<title>Node2&#45;&gt;Node3</title>
<path fill="none" stroke="midnightblue" d="M149.14,-179.49C174,-172.46 206.92,-160.71 232,-143 250.22,-130.13 266.08,-109.84 276.02,-95.35"/>
<polygon fill="midnightblue" stroke="midnightblue" points="279.07,-97.08 281.67,-86.81 273.23,-93.22 279.07,-97.08"/>
</g>
<!-- Node7 -->
<g id="node7" class="node">
<title>Node7</title>
<g id="a_node7"><a xlink:title=" ">
<polygon fill="white" stroke="#bfbfbf" points="37,-123.5 37,-142.5 81,-142.5 81,-123.5 37,-123.5"/>
<text text-anchor="middle" x="59" y="-130.5" font-family="Helvetica,sans-Serif" font-size="10.00">vector</text>
</a>
</g>
</g>
<!-- Node2&#45;&gt;Node7 -->
<g id="edge6" class="edge">
<title>Node2&#45;&gt;Node7</title>
<path fill="none" stroke="midnightblue" d="M104.08,-179.08C96.22,-171.22 84.57,-159.57 75.08,-150.08"/>
<polygon fill="midnightblue" stroke="midnightblue" points="77.3,-147.35 67.75,-142.75 72.35,-152.3 77.3,-147.35"/>
</g>
<!-- Node4 -->
<g id="node4" class="node">
<title>Node4</title>
<g id="a_node4"><a xlink:title=" ">
<polygon fill="white" stroke="#bfbfbf" points="133,-6 133,-25 197,-25 197,-6 133,-6"/>
<text text-anchor="middle" x="165" y="-13" font-family="Helvetica,sans-Serif" font-size="10.00">Eigen/Core</text>
</a>
</g>
</g>
<!-- Node3&#45;&gt;Node4 -->
<g id="edge3" class="edge">
<title>Node3&#45;&gt;Node4</title>
<path fill="none" stroke="midnightblue" d="M269.52,-67.48C249.14,-57.53 215.22,-40.99 191.58,-29.46"/>
<polygon fill="midnightblue" stroke="midnightblue" points="192.97,-26.25 182.45,-25.01 189.9,-32.54 192.97,-26.25"/>
</g>
<!-- Node5 -->
<g id="node5" class="node">
<title>Node5</title>
<g id="a_node5"><a xlink:title=" ">
<polygon fill="white" stroke="#bfbfbf" points="215.5,-6 215.5,-25 286.5,-25 286.5,-6 215.5,-6"/>
<text text-anchor="middle" x="251" y="-13" font-family="Helvetica,sans-Serif" font-size="10.00">Eigen/Dense</text>
</a>
</g>
</g>
<!-- Node3&#45;&gt;Node5 -->
<g id="edge4" class="edge">
<title>Node3&#45;&gt;Node5</title>
<path fill="none" stroke="midnightblue" d="M281.84,-67.48C276.55,-58.73 268.16,-44.87 261.47,-33.81"/>
<polygon fill="midnightblue" stroke="midnightblue" points="264.32,-31.75 256.15,-25.01 258.33,-35.38 264.32,-31.75"/>
</g>
<!-- Node6 -->
<g id="node6" class="node">
<title>Node6</title>
<g id="a_node6"><a xlink:title=" ">
<polygon fill="white" stroke="#bfbfbf" points="304.5,-0.5 304.5,-30.5 435.5,-30.5 435.5,-0.5 304.5,-0.5"/>
<text text-anchor="start" x="312.5" y="-18.5" font-family="Helvetica,sans-Serif" font-size="10.00">unsupported/Eigen/CXX11</text>
<text text-anchor="middle" x="370" y="-7.5" font-family="Helvetica,sans-Serif" font-size="10.00">/Tensor</text>
</a>
</g>
</g>
<!-- Node3&#45;&gt;Node6 -->
<g id="edge5" class="edge">
<title>Node3&#45;&gt;Node6</title>
<path fill="none" stroke="midnightblue" d="M298.89,-67.48C310.13,-59.42 327.42,-47.02 342.14,-36.47"/>
<polygon fill="midnightblue" stroke="midnightblue" points="344.35,-39.19 350.44,-30.52 340.27,-33.5 344.35,-39.19"/>
</g>
<!-- Node8&#45;&gt;Node3 -->
<g id="edge19" class="edge">
<title>Node8&#45;&gt;Node3</title>
<path fill="none" stroke="midnightblue" d="M266.73,-179.37C270.28,-161.62 278.47,-120.67 283.28,-96.6"/>
<polygon fill="midnightblue" stroke="midnightblue" points="286.75,-97.08 285.28,-86.59 279.89,-95.71 286.75,-97.08"/>
</g>
<!-- Node9 -->
<g id="node9" class="node">
<title>Node9</title>
<g id="a_node9"><a xlink:href="MarmotJournal_8h.html" target="_top" xlink:title=" ">
<polygon fill="white" stroke="black" points="98.5,-123.5 98.5,-142.5 223.5,-142.5 223.5,-123.5 98.5,-123.5"/>
<text text-anchor="middle" x="161" y="-130.5" font-family="Helvetica,sans-Serif" font-size="10.00">Marmot/MarmotJournal.h</text>
</a>
</g>
</g>
<!-- Node8&#45;&gt;Node9 -->
<g id="edge9" class="edge">
<title>Node8&#45;&gt;Node9</title>
<path fill="none" stroke="midnightblue" d="M248.29,-179.32C231.69,-170.7 206,-157.36 186.78,-147.39"/>
<polygon fill="midnightblue" stroke="midnightblue" points="188.16,-144.16 177.67,-142.65 184.93,-150.37 188.16,-144.16"/>
</g>
<!-- Node13 -->
<g id="node13" class="node">
<title>Node13</title>
<g id="a_node13"><a xlink:href="MarmotMath_8h.html" target="_top" xlink:title=" ">
<polygon fill="white" stroke="black" points="382.5,-123.5 382.5,-142.5 497.5,-142.5 497.5,-123.5 382.5,-123.5"/>
<text text-anchor="middle" x="440" y="-130.5" font-family="Helvetica,sans-Serif" font-size="10.00">Marmot/MarmotMath.h</text>
</a>
</g>
</g>
<!-- Node8&#45;&gt;Node13 -->
<g id="edge13" class="edge">
<title>Node8&#45;&gt;Node13</title>
<path fill="none" stroke="midnightblue" d="M292.73,-179.44C322.43,-170.28 369.72,-155.69 402.67,-145.52"/>
<polygon fill="midnightblue" stroke="midnightblue" points="403.88,-148.81 412.4,-142.52 401.81,-142.12 403.88,-148.81"/>
</g>
<!-- Node9&#45;&gt;Node10 -->
<g id="edge10" class="edge">
<title>Node9&#45;&gt;Node10</title>
<path fill="none" stroke="midnightblue" d="M139.77,-123.44C117.62,-114.52 82.68,-100.44 57.56,-90.32"/>
<polygon fill="midnightblue" stroke="midnightblue" points="58.72,-87.01 48.13,-86.52 56.1,-93.5 58.72,-87.01"/>
</g>
<!-- Node11 -->
<g id="node11" class="node">
<title>Node11</title>
<g id="a_node11"><a xlink:title=" ">
<polygon fill="white" stroke="#bfbfbf" points="80,-67.5 80,-86.5 132,-86.5 132,-67.5 80,-67.5"/>
<text text-anchor="middle" x="106" y="-74.5" font-family="Helvetica,sans-Serif" font-size="10.00">sstream</text>
</a>
</g>
</g>
<!-- Node9&#45;&gt;Node11 -->
<g id="edge11" class="edge">
<title>Node9&#45;&gt;Node11</title>
<path fill="none" stroke="midnightblue" d="M151.92,-123.08C143.83,-115.14 131.8,-103.34 122.09,-93.8"/>
<polygon fill="midnightblue" stroke="midnightblue" points="124.5,-91.26 114.91,-86.75 119.6,-96.25 124.5,-91.26"/>
</g>
<!-- Node12 -->
<g id="node12" class="node">
<title>Node12</title>
<g id="a_node12"><a xlink:title=" ">
<polygon fill="white" stroke="#bfbfbf" points="150.5,-67.5 150.5,-86.5 191.5,-86.5 191.5,-67.5 150.5,-67.5"/>
<text text-anchor="middle" x="171" y="-74.5" font-family="Helvetica,sans-Serif" font-size="10.00">string</text>
</a>
</g>
</g>
<!-- Node9&#45;&gt;Node12 -->
<g id="edge12" class="edge">
<title>Node9&#45;&gt;Node12</title>
<path fill="none" stroke="midnightblue" d="M162.65,-123.08C163.98,-115.93 165.88,-105.64 167.54,-96.69"/>
<polygon fill="midnightblue" stroke="midnightblue" points="171,-97.22 169.38,-86.75 164.12,-95.95 171,-97.22"/>
</g>
<!-- Node13&#45;&gt;Node3 -->
<g id="edge16" class="edge">
<title>Node13&#45;&gt;Node3</title>
<path fill="none" stroke="midnightblue" d="M415.76,-123.44C390.13,-114.4 349.51,-100.06 320.76,-89.92"/>
<polygon fill="midnightblue" stroke="midnightblue" points="321.72,-86.54 311.13,-86.52 319.39,-93.15 321.72,-86.54"/>
</g>
<!-- Node14 -->
<g id="node14" class="node">
<title>Node14</title>
<g id="a_node14"><a xlink:href="MarmotConstants_8h.html" target="_top" xlink:title=" ">
<polygon fill="white" stroke="black" points="371.5,-67.5 371.5,-86.5 508.5,-86.5 508.5,-67.5 371.5,-67.5"/>
<text text-anchor="middle" x="440" y="-74.5" font-family="Helvetica,sans-Serif" font-size="10.00">Marmot/MarmotConstants.h</text>
</a>
</g>
</g>
<!-- Node13&#45;&gt;Node14 -->
<g id="edge14" class="edge">
<title>Node13&#45;&gt;Node14</title>
<path fill="none" stroke="midnightblue" d="M440,-123.08C440,-116.01 440,-105.86 440,-96.99"/>
<polygon fill="midnightblue" stroke="midnightblue" points="443.5,-96.75 440,-86.75 436.5,-96.75 443.5,-96.75"/>
</g>
<!-- Node16 -->
<g id="node16" class="node">
<title>Node16</title>
<g id="a_node16"><a xlink:title=" ">
<polygon fill="white" stroke="#bfbfbf" points="527,-67.5 527,-86.5 583,-86.5 583,-67.5 527,-67.5"/>
<text text-anchor="middle" x="555" y="-74.5" font-family="Helvetica,sans-Serif" font-size="10.00">algorithm</text>
</a>
</g>
</g>
<!-- Node13&#45;&gt;Node16 -->
<g id="edge17" class="edge">
<title>Node13&#45;&gt;Node16</title>
<path fill="none" stroke="midnightblue" d="M458.22,-123.44C476.9,-114.68 506.16,-100.94 527.62,-90.86"/>
<polygon fill="midnightblue" stroke="midnightblue" points="529.3,-93.93 536.86,-86.52 526.32,-87.6 529.3,-93.93"/>
</g>
<!-- Node17 -->
<g id="node17" class="node">
<title>Node17</title>
<g id="a_node17"><a xlink:title=" ">
<polygon fill="white" stroke="#bfbfbf" points="601.5,-67.5 601.5,-86.5 654.5,-86.5 654.5,-67.5 601.5,-67.5"/>
<text text-anchor="middle" x="628" y="-74.5" font-family="Helvetica,sans-Serif" font-size="10.00">complex</text>
</a>
</g>
</g>
<!-- Node13&#45;&gt;Node17 -->
<g id="edge18" class="edge">
<title>Node13&#45;&gt;Node17</title>
<path fill="none" stroke="midnightblue" d="M469.79,-123.44C502.77,-113.97 555.96,-98.69 591.44,-88.5"/>
<polygon fill="midnightblue" stroke="midnightblue" points="592.74,-91.77 601.39,-85.64 590.81,-85.04 592.74,-91.77"/>
</g>
<!-- Node15 -->
<g id="node15" class="node">
<title>Node15</title>
<g id="a_node15"><a xlink:title=" ">
<polygon fill="white" stroke="#bfbfbf" points="454,-6 454,-25 498,-25 498,-6 454,-6"/>
<text text-anchor="middle" x="476" y="-13" font-family="Helvetica,sans-Serif" font-size="10.00">cmath</text>
</a>
</g>
</g>
<!-- Node14&#45;&gt;Node15 -->
<g id="edge15" class="edge">
<title>Node14&#45;&gt;Node15</title>
<path fill="none" stroke="midnightblue" d="M445.16,-67.48C450.45,-58.73 458.84,-44.87 465.53,-33.81"/>
<polygon fill="midnightblue" stroke="midnightblue" points="468.67,-35.38 470.85,-25.01 462.68,-31.75 468.67,-35.38"/>
</g>
</g>
</svg>
        <g id="navigator" transform="translate(0 0)" fill="#404254">
                <rect fill="#f2f5e9" fill-opacity="0.5" stroke="#606060" stroke-width=".5" x="0" y="0" width="60" height="60"/>
                <use id="zoomplus" xlink:href="#zoomPlus" x="17" y="9" onmousedown="handleZoom(evt,'in')"/>
                <use id="zoomminus" xlink:href="#zoomMin" x="42" y="9" onmousedown="handleZoom(evt,'out')"/>
                <use id="reset" xlink:href="#resetDef" x="30" y="36" onmousedown="handleReset()"/>
                <g id="arrowUp" xlink:href="#dirArrow" transform="translate(30 24)" onmousedown="handlePan(0,-1)">
                  <use xlink:href="#rim" fill="#404040">
                        <set attributeName="fill" to="#808080" begin="arrowUp.mouseover" end="arrowUp.mouseout"/>
                  </use>
                  <path fill="none" stroke="white" stroke-width="1.5" d="M0,-3.0v7 M-2.5,-0.5L0,-3.0L2.5,-0.5"/>
                </g>
                <g id="arrowRight" xlink:href="#dirArrow" transform="rotate(90) translate(36 -43)" onmousedown="handlePan(1,0)">
                  <use xlink:href="#rim" fill="#404040">
                        <set attributeName="fill" to="#808080" begin="arrowRight.mouseover" end="arrowRight.mouseout"/>
                  </use>
                  <path fill="none" stroke="white" stroke-width="1.5" d="M0,-3.0v7 M-2.5,-0.5L0,-3.0L2.5,-0.5"/>
                </g>
                <g id="arrowDown" xlink:href="#dirArrow" transform="rotate(180) translate(-30 -48)" onmousedown="handlePan(0,1)">
                  <use xlink:href="#rim" fill="#404040">
                        <set attributeName="fill" to="#808080" begin="arrowDown.mouseover" end="arrowDown.mouseout"/>
                  </use>
                  <path fill="none" stroke="white" stroke-width="1.5" d="M0,-3.0v7 M-2.5,-0.5L0,-3.0L2.5,-0.5"/>
                </g>
                <g id="arrowLeft" xlink:href="#dirArrow" transform="rotate(270) translate(-36 17)" onmousedown="handlePan(-1,0)">
                  <use xlink:href="#rim" fill="#404040">
                        <set attributeName="fill" to="#808080" begin="arrowLeft.mouseover" end="arrowLeft.mouseout"/>
                  </use>
                  <path fill="none" stroke="white" stroke-width="1.5" d="M0,-3.0v7 M-2.5,-0.5L0,-3.0L2.5,-0.5"/>
                </g>
        </g>
        <svg viewBox="0 0 15 15" width="100%" height="30px" preserveAspectRatio="xMaxYMin meet">
         <g id="arrow_out" transform="scale(0.3 0.3)">
          <a xlink:href="MarmotGeometryElement_8h__incl_org.svg" target="_base">
           <rect id="button" ry="5" rx="5" y="6" x="6" height="38" width="38"
                fill="#f2f5e9" fill-opacity="0.5" stroke="#606060" stroke-width="1.0"/>
           <path id="arrow"
             d="M 11.500037,31.436501 C 11.940474,20.09759 22.043105,11.32322 32.158766,21.979434 L 37.068811,17.246167 C 37.068811,17.246167 37.088388,32 37.088388,32 L 22.160133,31.978069 C 22.160133,31.978069 26.997745,27.140456 26.997745,27.140456 C 18.528582,18.264221 13.291696,25.230495 11.500037,31.436501 z"
             style="fill:#404040;"/>
          </a>
         </g>
        </svg>
</svg>
