<?xml version="1.0" encoding="UTF-8" standalone="no"?>
<!DOCTYPE svg PUBLIC "-//W3C//DTD SVG 1.1//EN"
 "http://www.w3.org/Graphics/SVG/1.1/DTD/svg11.dtd">
<!-- Generated by graphviz version 2.44.0 ()
 -->
<!-- Title: modules/core/MarmotMechanicsCore/include/Marmot/MarmotVoigt.h Pages: 1 -->
<svg width="3332pt" height="273pt"
 viewBox="0.00 0.00 3331.50 273.00" xmlns="http://www.w3.org/2000/svg" xmlns:xlink="http://www.w3.org/1999/xlink">
<g id="graph0" class="graph" transform="scale(1 1) rotate(0) translate(4 269)">
<title>modules/core/MarmotMechanicsCore/include/Marmot/MarmotVoigt.h</title>
<polygon fill="white" stroke="transparent" points="-4,4 -4,-269 3327.5,-269 3327.5,4 -4,4"/>
<!-- Node1 -->
<g id="node1" class="node">
<title>Node1</title>
<g id="a_node1"><a xlink:title=" ">
<polygon fill="#bfbfbf" stroke="black" points="1860,-234.5 1860,-264.5 2033,-264.5 2033,-234.5 1860,-234.5"/>
<text text-anchor="start" x="1868" y="-252.5" font-family="Helvetica,sans-Serif" font-size="10.00">modules/core/MarmotMechanics</text>
<text text-anchor="middle" x="1946.5" y="-241.5" font-family="Helvetica,sans-Serif" font-size="10.00">Core/include/Marmot/MarmotVoigt.h</text>
</a>
</g>
</g>
<!-- Node2 -->
<g id="node2" class="node">
<title>Node2</title>
<g id="a_node2"><a xlink:href="MarmotGeometryElement_8h.html" target="_top" xlink:title=" ">
<polygon fill="white" stroke="black" points="192.5,-156.5 192.5,-197.5 334.5,-197.5 334.5,-156.5 192.5,-156.5"/>
<text text-anchor="start" x="200.5" y="-185.5" font-family="Helvetica,sans-Serif" font-size="10.00">modules/core/MarmotFinite</text>
<text text-anchor="start" x="200.5" y="-174.5" font-family="Helvetica,sans-Serif" font-size="10.00">ElementCore/include/Marmot</text>
<text text-anchor="middle" x="263.5" y="-163.5" font-family="Helvetica,sans-Serif" font-size="10.00">/MarmotGeometryElement.h</text>
</a>
</g>
</g>
<!-- Node1&#45;&gt;Node2 -->
<g id="edge1" class="edge">
<title>Node1&#45;&gt;Node2</title>
<path fill="none" stroke="midnightblue" d="M1849.78,-248.41C1608.39,-247.5 960.05,-240.91 421.5,-198 392.97,-195.73 361.69,-192.02 334.54,-188.42"/>
<polygon fill="midnightblue" stroke="midnightblue" points="1849.92,-251.91 1859.93,-248.44 1849.95,-244.91 1849.92,-251.91"/>
</g>
<!-- Node4 -->
<g id="node4" class="node">
<title>Node4</title>
<g id="a_node4"><a xlink:href="DisplacementFiniteElement_8h.html" target="_top" xlink:title=" ">
<polygon fill="white" stroke="black" points="184.5,-78.5 184.5,-119.5 342.5,-119.5 342.5,-78.5 184.5,-78.5"/>
<text text-anchor="start" x="192.5" y="-107.5" font-family="Helvetica,sans-Serif" font-size="10.00">modules/elements/Displacement</text>
<text text-anchor="start" x="192.5" y="-96.5" font-family="Helvetica,sans-Serif" font-size="10.00">FiniteElement/include/Marmot</text>
<text text-anchor="middle" x="263.5" y="-85.5" font-family="Helvetica,sans-Serif" font-size="10.00">/DisplacementFiniteElement.h</text>
</a>
</g>
</g>
<!-- Node1&#45;&gt;Node4 -->
<g id="edge54" class="edge">
<title>Node1&#45;&gt;Node4</title>
<path fill="none" stroke="midnightblue" d="M1849.59,-248.35C1578.71,-247.39 817.5,-240.83 571.5,-198 476.69,-181.49 370.68,-143.12 311.03,-119.59"/>
<polygon fill="midnightblue" stroke="midnightblue" points="1849.78,-251.85 1859.79,-248.38 1849.8,-244.85 1849.78,-251.85"/>
</g>
<!-- Node6 -->
<g id="node6" class="node">
<title>Node6</title>
<g id="a_node6"><a xlink:href="MarmotFiniteElementSpatialWrapper_8cpp.html" target="_top" xlink:title=" ">
<polygon fill="white" stroke="black" points="2732.5,-156.5 2732.5,-197.5 2916.5,-197.5 2916.5,-156.5 2732.5,-156.5"/>
<text text-anchor="start" x="2740.5" y="-185.5" font-family="Helvetica,sans-Serif" font-size="10.00">modules/core/MarmotFinite</text>
<text text-anchor="start" x="2740.5" y="-174.5" font-family="Helvetica,sans-Serif" font-size="10.00">ElementCore/src/MarmotFiniteElement</text>
<text text-anchor="middle" x="2824.5" y="-163.5" font-family="Helvetica,sans-Serif" font-size="10.00">SpatialWrapper.cpp</text>
</a>
</g>
</g>
<!-- Node1&#45;&gt;Node6 -->
<g id="edge5" class="edge">
<title>Node1&#45;&gt;Node6</title>
<path fill="none" stroke="midnightblue" d="M2043.39,-245.93C2190.01,-241.19 2476.79,-228.59 2718.5,-198 2723.05,-197.42 2727.7,-196.77 2732.39,-196.07"/>
<polygon fill="midnightblue" stroke="midnightblue" points="2042.96,-242.44 2033.08,-246.26 2043.19,-249.44 2042.96,-242.44"/>
</g>
<!-- Node7 -->
<g id="node7" class="node">
<title>Node7</title>
<g id="a_node7"><a xlink:href="MarmotTensor_8h.html" target="_top" xlink:title=" ">
<polygon fill="white" stroke="black" points="1720.5,-162 1720.5,-192 1880.5,-192 1880.5,-162 1720.5,-162"/>
<text text-anchor="start" x="1728.5" y="-180" font-family="Helvetica,sans-Serif" font-size="10.00">modules/core/MarmotMathCore</text>
<text text-anchor="middle" x="1800.5" y="-169" font-family="Helvetica,sans-Serif" font-size="10.00">/include/Marmot/MarmotTensor.h</text>
</a>
</g>
</g>
<!-- Node1&#45;&gt;Node7 -->
<g id="edge6" class="edge">
<title>Node1&#45;&gt;Node7</title>
<path fill="none" stroke="midnightblue" d="M1908.25,-230.03C1883.66,-218.16 1852.21,-202.97 1829.64,-192.07"/>
<polygon fill="midnightblue" stroke="midnightblue" points="1906.78,-233.21 1917.31,-234.4 1909.82,-226.9 1906.78,-233.21"/>
</g>
<!-- Node9 -->
<g id="node9" class="node">
<title>Node9</title>
<g id="a_node9"><a xlink:href="HaighWestergaard_8cpp.html" target="_top" xlink:title=" ">
<polygon fill="white" stroke="black" points="740.5,-84 740.5,-114 898.5,-114 898.5,-84 740.5,-84"/>
<text text-anchor="start" x="748.5" y="-102" font-family="Helvetica,sans-Serif" font-size="10.00">modules/core/MarmotMechanics</text>
<text text-anchor="middle" x="819.5" y="-91" font-family="Helvetica,sans-Serif" font-size="10.00">Core/src/HaighWestergaard.cpp</text>
</a>
</g>
</g>
<!-- Node1&#45;&gt;Node9 -->
<g id="edge45" class="edge">
<title>Node1&#45;&gt;Node9</title>
<path fill="none" stroke="midnightblue" d="M1849.63,-247.08C1651.26,-243.52 1204.99,-231.89 1056.5,-198 975.98,-179.62 887.71,-136.42 845.2,-114.02"/>
<polygon fill="midnightblue" stroke="midnightblue" points="1849.69,-250.59 1859.75,-247.26 1849.82,-243.59 1849.69,-250.59"/>
</g>
<!-- Node10 -->
<g id="node10" class="node">
<title>Node10</title>
<g id="a_node10"><a xlink:href="HughesWinget_8cpp.html" target="_top" xlink:title=" ">
<polygon fill="white" stroke="black" points="2747.5,-84 2747.5,-114 2905.5,-114 2905.5,-84 2747.5,-84"/>
<text text-anchor="start" x="2755.5" y="-102" font-family="Helvetica,sans-Serif" font-size="10.00">modules/core/MarmotMechanics</text>
<text text-anchor="middle" x="2826.5" y="-91" font-family="Helvetica,sans-Serif" font-size="10.00">Core/src/HughesWinget.cpp</text>
</a>
</g>
</g>
<!-- Node1&#45;&gt;Node10 -->
<g id="edge46" class="edge">
<title>Node1&#45;&gt;Node10</title>
<path fill="none" stroke="midnightblue" d="M2043.55,-245.21C2223.1,-238.57 2593.84,-222.14 2647.5,-198 2671.86,-187.04 2668.19,-170.69 2690.5,-156 2718.23,-137.75 2752.87,-123.59 2780.24,-114.08"/>
<polygon fill="midnightblue" stroke="midnightblue" points="2043.17,-241.72 2033.31,-245.58 2043.43,-248.71 2043.17,-241.72"/>
</g>
<!-- Node13 -->
<g id="node13" class="node">
<title>Node13</title>
<g id="a_node13"><a xlink:href="MarmotLowerDimensionalStress_8cpp.html" target="_top" xlink:title=" ">
<polygon fill="white" stroke="black" points="1761.5,-78.5 1761.5,-119.5 1931.5,-119.5 1931.5,-78.5 1761.5,-78.5"/>
<text text-anchor="start" x="1769.5" y="-107.5" font-family="Helvetica,sans-Serif" font-size="10.00">modules/core/MarmotMechanics</text>
<text text-anchor="start" x="1769.5" y="-96.5" font-family="Helvetica,sans-Serif" font-size="10.00">Core/src/MarmotLowerDimensional</text>
<text text-anchor="middle" x="1846.5" y="-85.5" font-family="Helvetica,sans-Serif" font-size="10.00">Stress.cpp</text>
</a>
</g>
</g>
<!-- Node1&#45;&gt;Node13 -->
<g id="edge47" class="edge">
<title>Node1&#45;&gt;Node13</title>
<path fill="none" stroke="midnightblue" d="M1933.28,-225.6C1922.11,-206.62 1905.44,-179.12 1889.5,-156 1880.94,-143.59 1870.68,-130.17 1862.33,-119.59"/>
<polygon fill="midnightblue" stroke="midnightblue" points="1930.37,-227.56 1938.44,-234.43 1936.41,-224.03 1930.37,-227.56"/>
</g>
<!-- Node14 -->
<g id="node14" class="node">
<title>Node14</title>
<g id="a_node14"><a xlink:href="MarmotMaterialHyperElastic_8cpp.html" target="_top" xlink:title=" ">
<polygon fill="white" stroke="black" points="2126,-84 2126,-114 2323,-114 2323,-84 2126,-84"/>
<text text-anchor="start" x="2134" y="-102" font-family="Helvetica,sans-Serif" font-size="10.00">modules/core/MarmotMechanics</text>
<text text-anchor="middle" x="2224.5" y="-91" font-family="Helvetica,sans-Serif" font-size="10.00">Core/src/MarmotMaterialHyperElastic.cpp</text>
</a>
</g>
</g>
<!-- Node1&#45;&gt;Node14 -->
<g id="edge48" class="edge">
<title>Node1&#45;&gt;Node14</title>
<path fill="none" stroke="midnightblue" d="M1944.68,-224.4C1944.5,-203.5 1947.82,-173.86 1965.5,-156 1972.11,-149.32 2075.93,-128.33 2150.08,-114.03"/>
<polygon fill="midnightblue" stroke="midnightblue" points="1941.19,-224.56 1945.04,-234.43 1948.18,-224.31 1941.19,-224.56"/>
</g>
<!-- Node15 -->
<g id="node15" class="node">
<title>Node15</title>
<g id="a_node15"><a xlink:href="MarmotMaterialHypoElastic_8cpp.html" target="_top" xlink:title=" ">
<polygon fill="white" stroke="black" points="2535.5,-84 2535.5,-114 2729.5,-114 2729.5,-84 2535.5,-84"/>
<text text-anchor="start" x="2543.5" y="-102" font-family="Helvetica,sans-Serif" font-size="10.00">modules/core/MarmotMechanics</text>
<text text-anchor="middle" x="2632.5" y="-91" font-family="Helvetica,sans-Serif" font-size="10.00">Core/src/MarmotMaterialHypoElastic.cpp</text>
</a>
</g>
</g>
<!-- Node1&#45;&gt;Node15 -->
<g id="edge49" class="edge">
<title>Node1&#45;&gt;Node15</title>
<path fill="none" stroke="midnightblue" d="M2043.5,-244.92C2158.22,-239.46 2341.45,-226.5 2403.5,-198 2428.36,-186.58 2424.8,-169.67 2448.5,-156 2482.78,-136.23 2524.74,-122.76 2559.94,-114"/>
<polygon fill="midnightblue" stroke="midnightblue" points="2043.13,-241.44 2033.31,-245.4 2043.46,-248.43 2043.13,-241.44"/>
</g>
<!-- Node16 -->
<g id="node16" class="node">
<title>Node16</title>
<g id="a_node16"><a xlink:href="MarmotMaterialHypoElasticNonLocal_8cpp.html" target="_top" xlink:title=" ">
<polygon fill="white" stroke="black" points="2341.5,-78.5 2341.5,-119.5 2517.5,-119.5 2517.5,-78.5 2341.5,-78.5"/>
<text text-anchor="start" x="2349.5" y="-107.5" font-family="Helvetica,sans-Serif" font-size="10.00">modules/core/MarmotMechanics</text>
<text text-anchor="start" x="2349.5" y="-96.5" font-family="Helvetica,sans-Serif" font-size="10.00">Core/src/MarmotMaterialHypoElastic</text>
<text text-anchor="middle" x="2429.5" y="-85.5" font-family="Helvetica,sans-Serif" font-size="10.00">NonLocal.cpp</text>
</a>
</g>
</g>
<!-- Node1&#45;&gt;Node16 -->
<g id="edge50" class="edge">
<title>Node1&#45;&gt;Node16</title>
<path fill="none" stroke="midnightblue" d="M2043.67,-246.69C2151.79,-242.99 2318.18,-231.81 2370.5,-198 2398.86,-179.68 2415.57,-142.47 2423.6,-119.54"/>
<polygon fill="midnightblue" stroke="midnightblue" points="2043.27,-243.2 2033.39,-247.02 2043.5,-250.19 2043.27,-243.2"/>
</g>
<!-- Node17 -->
<g id="node17" class="node">
<title>Node17</title>
<g id="a_node17"><a xlink:href="MarmotVoigt_8cpp.html" target="_top" xlink:title=" ">
<polygon fill="white" stroke="black" points="360.5,-84 360.5,-114 518.5,-114 518.5,-84 360.5,-84"/>
<text text-anchor="start" x="368.5" y="-102" font-family="Helvetica,sans-Serif" font-size="10.00">modules/core/MarmotMechanics</text>
<text text-anchor="middle" x="439.5" y="-91" font-family="Helvetica,sans-Serif" font-size="10.00">Core/src/MarmotVoigt.cpp</text>
</a>
</g>
</g>
<!-- Node1&#45;&gt;Node17 -->
<g id="edge53" class="edge">
<title>Node1&#45;&gt;Node17</title>
<path fill="none" stroke="midnightblue" d="M1849.37,-248.34C1597.64,-247.31 928.69,-240.52 711.5,-198 620.13,-180.11 518.36,-136.69 469.23,-114.13"/>
<polygon fill="midnightblue" stroke="midnightblue" points="1849.58,-251.84 1859.59,-248.38 1849.61,-244.84 1849.58,-251.84"/>
</g>
<!-- Node18 -->
<g id="node18" class="node">
<title>Node18</title>
<g id="a_node18"><a xlink:href="VonMises_8cpp.html" target="_top" xlink:title=" ">
<polygon fill="white" stroke="black" points="917,-84 917,-114 1060,-114 1060,-84 917,-84"/>
<text text-anchor="start" x="925" y="-102" font-family="Helvetica,sans-Serif" font-size="10.00">modules/materials/VonMises</text>
<text text-anchor="middle" x="988.5" y="-91" font-family="Helvetica,sans-Serif" font-size="10.00">/src/VonMises.cpp</text>
</a>
</g>
</g>
<!-- Node1&#45;&gt;Node18 -->
<g id="edge56" class="edge">
<title>Node1&#45;&gt;Node18</title>
<path fill="none" stroke="midnightblue" d="M1849.72,-248.65C1664.53,-247.92 1266.94,-241.19 1137.5,-198 1083.17,-179.87 1029.55,-136.76 1003.99,-114.25"/>
<polygon fill="midnightblue" stroke="midnightblue" points="1849.71,-252.15 1859.72,-248.68 1849.73,-245.15 1849.71,-252.15"/>
</g>
<!-- Node19 -->
<g id="node19" class="node">
<title>Node19</title>
<g id="a_node19"><a xlink:href="HaighWestergaard_8h.html" target="_top" xlink:title=" ">
<polygon fill="white" stroke="black" points="721,-162 721,-192 918,-192 918,-162 721,-162"/>
<text text-anchor="start" x="729" y="-180" font-family="Helvetica,sans-Serif" font-size="10.00">modules/core/MarmotMechanics</text>
<text text-anchor="middle" x="819.5" y="-169" font-family="Helvetica,sans-Serif" font-size="10.00">Core/include/Marmot/HaighWestergaard.h</text>
</a>
</g>
</g>
<!-- Node1&#45;&gt;Node19 -->
<g id="edge18" class="edge">
<title>Node1&#45;&gt;Node19</title>
<path fill="none" stroke="midnightblue" d="M1849.79,-246.2C1673.74,-241.42 1289.3,-228.22 966.5,-198 949.45,-196.4 931.33,-194.29 913.86,-192.03"/>
<polygon fill="midnightblue" stroke="midnightblue" points="1849.71,-249.7 1859.8,-246.47 1849.9,-242.7 1849.71,-249.7"/>
</g>
<!-- Node22 -->
<g id="node22" class="node">
<title>Node22</title>
<g id="a_node22"><a xlink:href="HughesWinget_8h.html" target="_top" xlink:title=" ">
<polygon fill="white" stroke="black" points="2457,-162 2457,-192 2638,-192 2638,-162 2457,-162"/>
<text text-anchor="start" x="2465" y="-180" font-family="Helvetica,sans-Serif" font-size="10.00">modules/core/MarmotMechanics</text>
<text text-anchor="middle" x="2547.5" y="-169" font-family="Helvetica,sans-Serif" font-size="10.00">Core/include/Marmot/HughesWinget.h</text>
</a>
</g>
</g>
<!-- Node1&#45;&gt;Node22 -->
<g id="edge24" class="edge">
<title>Node1&#45;&gt;Node22</title>
<path fill="none" stroke="midnightblue" d="M2043.35,-241.14C2143.55,-232.94 2304.42,-218.14 2442.5,-198 2454.16,-196.3 2466.5,-194.21 2478.46,-192.03"/>
<polygon fill="midnightblue" stroke="midnightblue" points="2042.93,-237.66 2033.25,-241.96 2043.5,-244.64 2042.93,-237.66"/>
</g>
<!-- Node23 -->
<g id="node23" class="node">
<title>Node23</title>
<g id="a_node23"><a xlink:href="MarmotElasticity_8h.html" target="_top" xlink:title=" ">
<polygon fill="white" stroke="black" points="1147,-162 1147,-192 1336,-192 1336,-162 1147,-162"/>
<text text-anchor="start" x="1155" y="-180" font-family="Helvetica,sans-Serif" font-size="10.00">modules/core/MarmotMechanics</text>
<text text-anchor="middle" x="1241.5" y="-169" font-family="Helvetica,sans-Serif" font-size="10.00">Core/include/Marmot/MarmotElasticity.h</text>
</a>
</g>
</g>
<!-- Node1&#45;&gt;Node23 -->
<g id="edge28" class="edge">
<title>Node1&#45;&gt;Node23</title>
<path fill="none" stroke="midnightblue" d="M1849.34,-238.78C1713.97,-225.25 1470.16,-200.87 1336.14,-187.46"/>
<polygon fill="midnightblue" stroke="midnightblue" points="1849.4,-242.31 1859.7,-239.82 1850.1,-235.34 1849.4,-242.31"/>
</g>
<!-- Node25 -->
<g id="node25" class="node">
<title>Node25</title>
<g id="a_node25"><a xlink:href="LinearElastic_8cpp.html" target="_top" xlink:title=" ">
<polygon fill="white" stroke="black" points="1254.5,-84 1254.5,-114 1394.5,-114 1394.5,-84 1254.5,-84"/>
<text text-anchor="start" x="1262.5" y="-102" font-family="Helvetica,sans-Serif" font-size="10.00">modules/materials/Linear</text>
<text text-anchor="middle" x="1324.5" y="-91" font-family="Helvetica,sans-Serif" font-size="10.00">Elastic/src/LinearElastic.cpp</text>
</a>
</g>
</g>
<!-- Node1&#45;&gt;Node25 -->
<g id="edge55" class="edge">
<title>Node1&#45;&gt;Node25</title>
<path fill="none" stroke="midnightblue" d="M1868.12,-232.4C1822.35,-222.81 1763.55,-210.18 1711.5,-198 1591.54,-169.93 1451.59,-133.6 1377.25,-114"/>
<polygon fill="midnightblue" stroke="midnightblue" points="1867.47,-235.84 1877.97,-234.46 1868.9,-228.99 1867.47,-235.84"/>
</g>
<!-- Node26 -->
<g id="node26" class="node">
<title>Node26</title>
<g id="a_node26"><a xlink:href="MarmotKinematics_8h.html" target="_top" xlink:title=" ">
<polygon fill="white" stroke="black" points="2163,-162 2163,-192 2362,-192 2362,-162 2163,-162"/>
<text text-anchor="start" x="2171" y="-180" font-family="Helvetica,sans-Serif" font-size="10.00">modules/core/MarmotMechanics</text>
<text text-anchor="middle" x="2262.5" y="-169" font-family="Helvetica,sans-Serif" font-size="10.00">Core/include/Marmot/MarmotKinematics.h</text>
</a>
</g>
</g>
<!-- Node1&#45;&gt;Node26 -->
<g id="edge32" class="edge">
<title>Node1&#45;&gt;Node26</title>
<path fill="none" stroke="midnightblue" d="M2019.25,-232.27C2073.75,-220.11 2147.56,-203.64 2199.54,-192.05"/>
<polygon fill="midnightblue" stroke="midnightblue" points="2018.31,-228.89 2009.31,-234.49 2019.83,-235.73 2018.31,-228.89"/>
</g>
<!-- Node27 -->
<g id="node27" class="node">
<title>Node27</title>
<g id="a_node27"><a xlink:href="MarmotLowerDimensionalStress_8h.html" target="_top" xlink:title=" ">
<polygon fill="white" stroke="black" points="1974.5,-156.5 1974.5,-197.5 2144.5,-197.5 2144.5,-156.5 1974.5,-156.5"/>
<text text-anchor="start" x="1982.5" y="-185.5" font-family="Helvetica,sans-Serif" font-size="10.00">modules/core/MarmotMechanics</text>
<text text-anchor="start" x="1982.5" y="-174.5" font-family="Helvetica,sans-Serif" font-size="10.00">Core/include/Marmot/MarmotLower</text>
<text text-anchor="middle" x="2059.5" y="-163.5" font-family="Helvetica,sans-Serif" font-size="10.00">DimensionalStress.h</text>
</a>
</g>
</g>
<!-- Node1&#45;&gt;Node27 -->
<g id="edge38" class="edge">
<title>Node1&#45;&gt;Node27</title>
<path fill="none" stroke="midnightblue" d="M1977.87,-228.93C1993.49,-219.19 2012.32,-207.44 2027.96,-197.68"/>
<polygon fill="midnightblue" stroke="midnightblue" points="1975.73,-226.14 1969.1,-234.4 1979.43,-232.08 1975.73,-226.14"/>
</g>
<!-- Node28 -->
<g id="node28" class="node">
<title>Node28</title>
<g id="a_node28"><a xlink:href="MarmotMaterialMechanical_8cpp.html" target="_top" xlink:title=" ">
<polygon fill="white" stroke="black" points="2924,-84 2924,-114 3115,-114 3115,-84 2924,-84"/>
<text text-anchor="start" x="2932" y="-102" font-family="Helvetica,sans-Serif" font-size="10.00">modules/core/MarmotMechanics</text>
<text text-anchor="middle" x="3019.5" y="-91" font-family="Helvetica,sans-Serif" font-size="10.00">Core/src/MarmotMaterialMechanical.cpp</text>
</a>
</g>
</g>
<!-- Node1&#45;&gt;Node28 -->
<g id="edge51" class="edge">
<title>Node1&#45;&gt;Node28</title>
<path fill="none" stroke="midnightblue" d="M2043.25,-245.7C2229.8,-239.73 2625.92,-224.15 2682.5,-198 2706.18,-187.05 2700.51,-168.32 2723.5,-156 2799.64,-115.2 2829.63,-136.08 2914.5,-120 2924.71,-118.07 2935.48,-116.02 2946.07,-114.01"/>
<polygon fill="midnightblue" stroke="midnightblue" points="2043.05,-242.2 2033.17,-246.02 2043.27,-249.2 2043.05,-242.2"/>
</g>
<!-- Node29 -->
<g id="node29" class="node">
<title>Node29</title>
<g id="a_node29"><a xlink:href="MarmotViscoelasticity_8h.html" target="_top" xlink:title=" ">
<polygon fill="white" stroke="black" points="2935,-162 2935,-192 3148,-192 3148,-162 2935,-162"/>
<text text-anchor="start" x="2943" y="-180" font-family="Helvetica,sans-Serif" font-size="10.00">modules/core/MarmotMechanics</text>
<text text-anchor="middle" x="3041.5" y="-169" font-family="Helvetica,sans-Serif" font-size="10.00">Core/include/Marmot/MarmotViscoelasticity.h</text>
</a>
</g>
</g>
<!-- Node1&#45;&gt;Node29 -->
<g id="edge44" class="edge">
<title>Node1&#45;&gt;Node29</title>
<path fill="none" stroke="midnightblue" d="M2043.23,-247.33C2219.29,-244.34 2603.61,-233.92 2925.5,-198 2939.31,-196.46 2953.97,-194.33 2968.05,-192.02"/>
<polygon fill="midnightblue" stroke="midnightblue" points="2043.16,-243.83 2033.21,-247.49 2043.27,-250.83 2043.16,-243.83"/>
</g>
<!-- Node30 -->
<g id="node30" class="node">
<title>Node30</title>
<g id="a_node30"><a xlink:href="MarmotUtility_8cpp.html" target="_top" xlink:title=" ">
<polygon fill="white" stroke="black" points="3165.5,-162 3165.5,-192 3323.5,-192 3323.5,-162 3165.5,-162"/>
<text text-anchor="start" x="3173.5" y="-180" font-family="Helvetica,sans-Serif" font-size="10.00">modules/core/MarmotMechanics</text>
<text text-anchor="middle" x="3244.5" y="-169" font-family="Helvetica,sans-Serif" font-size="10.00">Core/src/MarmotUtility.cpp</text>
</a>
</g>
</g>
<!-- Node1&#45;&gt;Node30 -->
<g id="edge52" class="edge">
<title>Node1&#45;&gt;Node30</title>
<path fill="none" stroke="midnightblue" d="M2043.28,-246.77C2290.89,-241.96 2942.94,-226.89 3157.5,-198 3168.25,-196.55 3179.63,-194.4 3190.48,-192.04"/>
<polygon fill="midnightblue" stroke="midnightblue" points="2043.15,-243.27 2033.22,-246.96 2043.28,-250.27 2043.15,-243.27"/>
</g>
<!-- Node3 -->
<g id="node3" class="node">
<title>Node3</title>
<g id="a_node3"><a xlink:href="MarmotGeometryElement_8cpp.html" target="_top" xlink:title=" ">
<polygon fill="white" stroke="black" points="0,-78.5 0,-119.5 167,-119.5 167,-78.5 0,-78.5"/>
<text text-anchor="start" x="8" y="-107.5" font-family="Helvetica,sans-Serif" font-size="10.00">modules/core/MarmotFinite</text>
<text text-anchor="start" x="8" y="-96.5" font-family="Helvetica,sans-Serif" font-size="10.00">ElementCore/src/MarmotGeometry</text>
<text text-anchor="middle" x="83.5" y="-85.5" font-family="Helvetica,sans-Serif" font-size="10.00">Element.cpp</text>
</a>
</g>
</g>
<!-- Node2&#45;&gt;Node3 -->
<g id="edge2" class="edge">
<title>Node2&#45;&gt;Node3</title>
<path fill="none" stroke="midnightblue" d="M207.77,-152.47C182.72,-141.89 153.5,-129.56 129.7,-119.51"/>
<polygon fill="midnightblue" stroke="midnightblue" points="206.57,-155.76 217.15,-156.43 209.29,-149.31 206.57,-155.76"/>
</g>
<!-- Node2&#45;&gt;Node4 -->
<g id="edge3" class="edge">
<title>Node2&#45;&gt;Node4</title>
<path fill="none" stroke="midnightblue" d="M263.5,-146.3C263.5,-137.3 263.5,-127.65 263.5,-119.51"/>
<polygon fill="midnightblue" stroke="midnightblue" points="260,-146.43 263.5,-156.43 267,-146.43 260,-146.43"/>
</g>
<!-- Node5 -->
<g id="node5" class="node">
<title>Node5</title>
<g id="a_node5"><a xlink:href="DisplacementFiniteElementRegistration_8cpp.html" target="_top" xlink:title=" ">
<polygon fill="white" stroke="black" points="174,-0.5 174,-41.5 353,-41.5 353,-0.5 174,-0.5"/>
<text text-anchor="start" x="182" y="-29.5" font-family="Helvetica,sans-Serif" font-size="10.00">modules/elements/Displacement</text>
<text text-anchor="start" x="182" y="-18.5" font-family="Helvetica,sans-Serif" font-size="10.00">FiniteElement/src/DisplacementFinite</text>
<text text-anchor="middle" x="263.5" y="-7.5" font-family="Helvetica,sans-Serif" font-size="10.00">ElementRegistration.cpp</text>
</a>
</g>
</g>
<!-- Node4&#45;&gt;Node5 -->
<g id="edge4" class="edge">
<title>Node4&#45;&gt;Node5</title>
<path fill="none" stroke="midnightblue" d="M263.5,-68.3C263.5,-59.3 263.5,-49.65 263.5,-41.51"/>
<polygon fill="midnightblue" stroke="midnightblue" points="260,-68.43 263.5,-78.43 267,-68.43 260,-68.43"/>
</g>
<!-- Node8 -->
<g id="node8" class="node">
<title>Node8</title>
<g id="a_node8"><a xlink:href="MarmotTensor_8cpp.html" target="_top" xlink:title=" ">
<polygon fill="white" stroke="black" points="1413,-84 1413,-114 1566,-114 1566,-84 1413,-84"/>
<text text-anchor="start" x="1421" y="-102" font-family="Helvetica,sans-Serif" font-size="10.00">modules/core/MarmotMathCore</text>
<text text-anchor="middle" x="1489.5" y="-91" font-family="Helvetica,sans-Serif" font-size="10.00">/src/MarmotTensor.cpp</text>
</a>
</g>
</g>
<!-- Node7&#45;&gt;Node8 -->
<g id="edge7" class="edge">
<title>Node7&#45;&gt;Node8</title>
<path fill="none" stroke="midnightblue" d="M1733.33,-159.59C1677.72,-145.99 1599.54,-126.89 1546.83,-114.01"/>
<polygon fill="midnightblue" stroke="midnightblue" points="1732.55,-163 1743.1,-161.97 1734.21,-156.2 1732.55,-163"/>
</g>
<!-- Node7&#45;&gt;Node9 -->
<g id="edge8" class="edge">
<title>Node7&#45;&gt;Node9</title>
<path fill="none" stroke="midnightblue" d="M1709.98,-172.18C1514.96,-163.64 1060.44,-142.03 907.5,-120 896.96,-118.48 885.8,-116.36 875.11,-114.06"/>
<polygon fill="midnightblue" stroke="midnightblue" points="1710.05,-175.68 1720.19,-172.62 1710.36,-168.69 1710.05,-175.68"/>
</g>
<!-- Node7&#45;&gt;Node10 -->
<g id="edge9" class="edge">
<title>Node7&#45;&gt;Node10</title>
<path fill="none" stroke="midnightblue" d="M1890.45,-163.87C1914.77,-160.93 1941.11,-158.04 1965.5,-156 2308.23,-127.29 2397.7,-166.29 2738.5,-120 2749.21,-118.54 2760.54,-116.42 2771.38,-114.1"/>
<polygon fill="midnightblue" stroke="midnightblue" points="1890.02,-160.4 1880.52,-165.09 1890.88,-167.35 1890.02,-160.4"/>
</g>
<!-- Node11 -->
<g id="node11" class="node">
<title>Node11</title>
<g id="a_node11"><a xlink:href="MarmotKinematics_8cpp.html" target="_top" xlink:title=" ">
<polygon fill="white" stroke="black" points="1949.5,-84 1949.5,-114 2107.5,-114 2107.5,-84 1949.5,-84"/>
<text text-anchor="start" x="1957.5" y="-102" font-family="Helvetica,sans-Serif" font-size="10.00">modules/core/MarmotMechanics</text>
<text text-anchor="middle" x="2028.5" y="-91" font-family="Helvetica,sans-Serif" font-size="10.00">Core/src/MarmotKinematics.cpp</text>
</a>
</g>
</g>
<!-- Node7&#45;&gt;Node11 -->
<g id="edge10" class="edge">
<title>Node7&#45;&gt;Node11</title>
<path fill="none" stroke="midnightblue" d="M1852.28,-158.74C1892.8,-145.23 1948.43,-126.69 1986.28,-114.07"/>
<polygon fill="midnightblue" stroke="midnightblue" points="1850.96,-155.49 1842.58,-161.97 1853.18,-162.13 1850.96,-155.49"/>
</g>
<!-- Node12 -->
<g id="node12" class="node">
<title>Node12</title>
<g id="a_node12"><a xlink:href="MarmotLocalization_8cpp.html" target="_top" xlink:title=" ">
<polygon fill="white" stroke="black" points="1584,-84 1584,-114 1743,-114 1743,-84 1584,-84"/>
<text text-anchor="start" x="1592" y="-102" font-family="Helvetica,sans-Serif" font-size="10.00">modules/core/MarmotMechanics</text>
<text text-anchor="middle" x="1663.5" y="-91" font-family="Helvetica,sans-Serif" font-size="10.00">Core/src/MarmotLocalization.cpp</text>
</a>
</g>
</g>
<!-- Node7&#45;&gt;Node12 -->
<g id="edge11" class="edge">
<title>Node7&#45;&gt;Node12</title>
<path fill="none" stroke="midnightblue" d="M1766.25,-157C1742.21,-143.66 1710.59,-126.12 1688.81,-114.04"/>
<polygon fill="midnightblue" stroke="midnightblue" points="1764.61,-160.09 1775.05,-161.88 1768.01,-153.97 1764.61,-160.09"/>
</g>
<!-- Node7&#45;&gt;Node13 -->
<g id="edge12" class="edge">
<title>Node7&#45;&gt;Node13</title>
<path fill="none" stroke="midnightblue" d="M1814.45,-152.95C1820.88,-142.33 1828.43,-129.85 1834.59,-119.68"/>
<polygon fill="midnightblue" stroke="midnightblue" points="1811.34,-151.34 1809.15,-161.7 1817.32,-154.96 1811.34,-151.34"/>
</g>
<!-- Node7&#45;&gt;Node14 -->
<g id="edge13" class="edge">
<title>Node7&#45;&gt;Node14</title>
<path fill="none" stroke="midnightblue" d="M1890.67,-160.21C1953.9,-149.09 2040.39,-133.79 2116.5,-120 2127.1,-118.08 2138.28,-116.03 2149.27,-114.01"/>
<polygon fill="midnightblue" stroke="midnightblue" points="1889.97,-156.78 1880.73,-161.96 1891.18,-163.67 1889.97,-156.78"/>
</g>
<!-- Node7&#45;&gt;Node15 -->
<g id="edge14" class="edge">
<title>Node7&#45;&gt;Node15</title>
<path fill="none" stroke="midnightblue" d="M1890.48,-164.16C1914.8,-161.21 1941.13,-158.26 1965.5,-156 2214.28,-132.96 2278.61,-151.22 2526.5,-120 2538.95,-118.43 2552.14,-116.31 2564.84,-114.04"/>
<polygon fill="midnightblue" stroke="midnightblue" points="1890.05,-160.68 1880.55,-165.37 1890.9,-167.63 1890.05,-160.68"/>
</g>
<!-- Node7&#45;&gt;Node16 -->
<g id="edge15" class="edge">
<title>Node7&#45;&gt;Node16</title>
<path fill="none" stroke="midnightblue" d="M1890.53,-164.71C1914.85,-161.77 1941.17,-158.67 1965.5,-156 2127.98,-138.16 2169.88,-144.37 2331.5,-120 2334.76,-119.51 2338.08,-118.98 2341.43,-118.42"/>
<polygon fill="midnightblue" stroke="midnightblue" points="1890.11,-161.24 1880.61,-165.92 1890.95,-168.19 1890.11,-161.24"/>
</g>
<!-- Node7&#45;&gt;Node17 -->
<g id="edge16" class="edge">
<title>Node7&#45;&gt;Node17</title>
<path fill="none" stroke="midnightblue" d="M1709.95,-172.03C1419.41,-159.29 529.33,-120.25 527.5,-120 516.63,-118.54 505.13,-116.38 494.15,-114.02"/>
<polygon fill="midnightblue" stroke="midnightblue" points="1709.89,-175.53 1720.03,-172.47 1710.2,-168.54 1709.89,-175.53"/>
</g>
<!-- Node7&#45;&gt;Node18 -->
<g id="edge17" class="edge">
<title>Node7&#45;&gt;Node18</title>
<path fill="none" stroke="midnightblue" d="M1710.34,-173.89C1571.77,-169.57 1298.46,-156.78 1069.5,-120 1059.92,-118.46 1049.8,-116.36 1040.09,-114.09"/>
<polygon fill="midnightblue" stroke="midnightblue" points="1710.39,-177.39 1720.49,-174.2 1710.6,-170.4 1710.39,-177.39"/>
</g>
<!-- Node19&#45;&gt;Node9 -->
<g id="edge21" class="edge">
<title>Node19&#45;&gt;Node9</title>
<path fill="none" stroke="midnightblue" d="M819.5,-151.59C819.5,-139.26 819.5,-124.72 819.5,-114.23"/>
<polygon fill="midnightblue" stroke="midnightblue" points="816,-151.7 819.5,-161.7 823,-151.71 816,-151.7"/>
</g>
<!-- Node19&#45;&gt;Node17 -->
<g id="edge22" class="edge">
<title>Node19&#45;&gt;Node17</title>
<path fill="none" stroke="midnightblue" d="M732.62,-160.14C674.47,-149.32 596.27,-134.41 527.5,-120 518.61,-118.14 509.22,-116.09 500.03,-114.04"/>
<polygon fill="midnightblue" stroke="midnightblue" points="732.04,-163.59 742.51,-161.97 733.31,-156.71 732.04,-163.59"/>
</g>
<!-- Node19&#45;&gt;Node18 -->
<g id="edge23" class="edge">
<title>Node19&#45;&gt;Node18</title>
<path fill="none" stroke="midnightblue" d="M860.2,-157.7C890.03,-144.28 929.94,-126.34 957.28,-114.04"/>
<polygon fill="midnightblue" stroke="midnightblue" points="858.58,-154.59 850.89,-161.88 861.45,-160.97 858.58,-154.59"/>
</g>
<!-- Node20 -->
<g id="node20" class="node">
<title>Node20</title>
<g id="a_node20"><a xlink:href="MenetreyWillam_8h.html" target="_top" xlink:title=" ">
<polygon fill="white" stroke="black" points="536.5,-84 536.5,-114 722.5,-114 722.5,-84 536.5,-84"/>
<text text-anchor="start" x="544.5" y="-102" font-family="Helvetica,sans-Serif" font-size="10.00">modules/core/MarmotMechanics</text>
<text text-anchor="middle" x="629.5" y="-91" font-family="Helvetica,sans-Serif" font-size="10.00">Core/include/Marmot/MenetreyWillam.h</text>
</a>
</g>
</g>
<!-- Node19&#45;&gt;Node20 -->
<g id="edge19" class="edge">
<title>Node19&#45;&gt;Node20</title>
<path fill="none" stroke="midnightblue" d="M774.62,-158.05C740.98,-144.59 695.61,-126.44 664.6,-114.04"/>
<polygon fill="midnightblue" stroke="midnightblue" points="773.62,-161.42 784.21,-161.88 776.22,-154.92 773.62,-161.42"/>
</g>
<!-- Node21 -->
<g id="node21" class="node">
<title>Node21</title>
<g id="a_node21"><a xlink:href="MenetreyWillam_8cpp.html" target="_top" xlink:title=" ">
<polygon fill="white" stroke="black" points="550.5,-6 550.5,-36 708.5,-36 708.5,-6 550.5,-6"/>
<text text-anchor="start" x="558.5" y="-24" font-family="Helvetica,sans-Serif" font-size="10.00">modules/core/MarmotMechanics</text>
<text text-anchor="middle" x="629.5" y="-13" font-family="Helvetica,sans-Serif" font-size="10.00">Core/src/MenetreyWillam.cpp</text>
</a>
</g>
</g>
<!-- Node20&#45;&gt;Node21 -->
<g id="edge20" class="edge">
<title>Node20&#45;&gt;Node21</title>
<path fill="none" stroke="midnightblue" d="M629.5,-73.59C629.5,-61.26 629.5,-46.72 629.5,-36.23"/>
<polygon fill="midnightblue" stroke="midnightblue" points="626,-73.7 629.5,-83.7 633,-73.71 626,-73.7"/>
</g>
<!-- Node22&#45;&gt;Node10 -->
<g id="edge25" class="edge">
<title>Node22&#45;&gt;Node10</title>
<path fill="none" stroke="midnightblue" d="M2608.67,-159.34C2658.42,-145.78 2727.84,-126.88 2774.83,-114.07"/>
<polygon fill="midnightblue" stroke="midnightblue" points="2607.73,-155.97 2599,-161.97 2609.57,-162.72 2607.73,-155.97"/>
</g>
<!-- Node22&#45;&gt;Node15 -->
<g id="edge26" class="edge">
<title>Node22&#45;&gt;Node15</title>
<path fill="none" stroke="midnightblue" d="M2571.11,-154.89C2585.6,-141.93 2603.78,-125.68 2616.58,-114.23"/>
<polygon fill="midnightblue" stroke="midnightblue" points="2568.61,-152.43 2563.49,-161.7 2573.28,-157.65 2568.61,-152.43"/>
</g>
<!-- Node22&#45;&gt;Node16 -->
<g id="edge27" class="edge">
<title>Node22&#45;&gt;Node16</title>
<path fill="none" stroke="midnightblue" d="M2516.9,-156.29C2499.46,-145.06 2477.66,-131.02 2460.2,-119.77"/>
<polygon fill="midnightblue" stroke="midnightblue" points="2515.28,-159.41 2525.58,-161.88 2519.07,-153.53 2515.28,-159.41"/>
</g>
<!-- Node23&#45;&gt;Node18 -->
<g id="edge31" class="edge">
<title>Node23&#45;&gt;Node18</title>
<path fill="none" stroke="midnightblue" d="M1185.18,-159.08C1140.13,-145.55 1077.7,-126.8 1035.35,-114.07"/>
<polygon fill="midnightblue" stroke="midnightblue" points="1184.22,-162.45 1194.8,-161.97 1186.23,-155.74 1184.22,-162.45"/>
</g>
<!-- Node24 -->
<g id="node24" class="node">
<title>Node24</title>
<g id="a_node24"><a xlink:href="MarmotElasticity_8cpp.html" target="_top" xlink:title=" ">
<polygon fill="white" stroke="black" points="1078.5,-84 1078.5,-114 1236.5,-114 1236.5,-84 1078.5,-84"/>
<text text-anchor="start" x="1086.5" y="-102" font-family="Helvetica,sans-Serif" font-size="10.00">modules/core/MarmotMechanics</text>
<text text-anchor="middle" x="1157.5" y="-91" font-family="Helvetica,sans-Serif" font-size="10.00">Core/src/MarmotElasticity.cpp</text>
</a>
</g>
</g>
<!-- Node23&#45;&gt;Node24 -->
<g id="edge29" class="edge">
<title>Node23&#45;&gt;Node24</title>
<path fill="none" stroke="midnightblue" d="M1218.17,-154.89C1203.85,-141.93 1185.88,-125.68 1173.23,-114.23"/>
<polygon fill="midnightblue" stroke="midnightblue" points="1215.94,-157.59 1225.7,-161.7 1220.63,-152.4 1215.94,-157.59"/>
</g>
<!-- Node23&#45;&gt;Node25 -->
<g id="edge30" class="edge">
<title>Node23&#45;&gt;Node25</title>
<path fill="none" stroke="midnightblue" d="M1264.55,-154.89C1278.71,-141.93 1296.46,-125.68 1308.96,-114.23"/>
<polygon fill="midnightblue" stroke="midnightblue" points="1262.12,-152.37 1257.11,-161.7 1266.85,-157.53 1262.12,-152.37"/>
</g>
<!-- Node26&#45;&gt;Node10 -->
<g id="edge33" class="edge">
<title>Node26&#45;&gt;Node10</title>
<path fill="none" stroke="midnightblue" d="M2372.01,-163.74C2501.3,-149.17 2703.31,-126.05 2738.5,-120 2748.38,-118.3 2758.82,-116.2 2768.93,-114.01"/>
<polygon fill="midnightblue" stroke="midnightblue" points="2371.6,-160.26 2362.06,-164.86 2372.38,-167.22 2371.6,-160.26"/>
</g>
<!-- Node26&#45;&gt;Node11 -->
<g id="edge34" class="edge">
<title>Node26&#45;&gt;Node11</title>
<path fill="none" stroke="midnightblue" d="M2209.62,-158.83C2168.02,-145.31 2110.76,-126.72 2071.84,-114.07"/>
<polygon fill="midnightblue" stroke="midnightblue" points="2208.72,-162.21 2219.31,-161.97 2210.88,-155.55 2208.72,-162.21"/>
</g>
<!-- Node26&#45;&gt;Node14 -->
<g id="edge35" class="edge">
<title>Node26&#45;&gt;Node14</title>
<path fill="none" stroke="midnightblue" d="M2250.85,-152.7C2244.57,-140.14 2237.02,-125.04 2231.62,-114.23"/>
<polygon fill="midnightblue" stroke="midnightblue" points="2247.75,-154.33 2255.35,-161.7 2254.01,-151.2 2247.75,-154.33"/>
</g>
<!-- Node26&#45;&gt;Node15 -->
<g id="edge36" class="edge">
<title>Node26&#45;&gt;Node15</title>
<path fill="none" stroke="midnightblue" d="M2340.77,-159.92C2407.03,-146.31 2501.06,-127 2564.29,-114.01"/>
<polygon fill="midnightblue" stroke="midnightblue" points="2339.89,-156.53 2330.79,-161.97 2341.29,-163.39 2339.89,-156.53"/>
</g>
<!-- Node26&#45;&gt;Node16 -->
<g id="edge37" class="edge">
<title>Node26&#45;&gt;Node16</title>
<path fill="none" stroke="midnightblue" d="M2302.81,-157.65C2328.07,-146.16 2360.6,-131.36 2386.37,-119.63"/>
<polygon fill="midnightblue" stroke="midnightblue" points="2301.17,-154.56 2293.52,-161.88 2304.07,-160.93 2301.17,-154.56"/>
</g>
<!-- Node27&#45;&gt;Node4 -->
<g id="edge43" class="edge">
<title>Node27&#45;&gt;Node4</title>
<path fill="none" stroke="midnightblue" d="M1964.5,-163.23C1940.1,-160.39 1913.86,-157.71 1889.5,-156 1548.47,-132 690.77,-162.09 351.5,-120 348.55,-119.63 345.55,-119.21 342.52,-118.74"/>
<polygon fill="midnightblue" stroke="midnightblue" points="1964.13,-166.71 1974.47,-164.41 1964.95,-159.76 1964.13,-166.71"/>
</g>
<!-- Node27&#45;&gt;Node13 -->
<g id="edge39" class="edge">
<title>Node27&#45;&gt;Node13</title>
<path fill="none" stroke="midnightblue" d="M1995.11,-153.03C1965.13,-142.33 1929.83,-129.73 1901.17,-119.51"/>
<polygon fill="midnightblue" stroke="midnightblue" points="1994.05,-156.36 2004.65,-156.43 1996.41,-149.77 1994.05,-156.36"/>
</g>
<!-- Node27&#45;&gt;Node15 -->
<g id="edge40" class="edge">
<title>Node27&#45;&gt;Node15</title>
<path fill="none" stroke="midnightblue" d="M2154.74,-155.9C2319.85,-131.12 2364.83,-143.01 2526.5,-120 2538.37,-118.31 2550.92,-116.22 2563.09,-114.03"/>
<polygon fill="midnightblue" stroke="midnightblue" points="2154.09,-152.46 2144.73,-157.43 2155.14,-159.38 2154.09,-152.46"/>
</g>
<!-- Node27&#45;&gt;Node16 -->
<g id="edge41" class="edge">
<title>Node27&#45;&gt;Node16</title>
<path fill="none" stroke="midnightblue" d="M2154.55,-155.79C2234.17,-139.31 2255.49,-135.44 2331.5,-120 2334.73,-119.34 2338.03,-118.67 2341.35,-118"/>
<polygon fill="midnightblue" stroke="midnightblue" points="2153.63,-152.41 2144.55,-157.86 2155.05,-159.26 2153.63,-152.41"/>
</g>
<!-- Node27&#45;&gt;Node28 -->
<g id="edge42" class="edge">
<title>Node27&#45;&gt;Node28</title>
<path fill="none" stroke="midnightblue" d="M2154.73,-155.96C2491.07,-113.54 2581.53,-159.39 2914.5,-120 2927.22,-118.5 2940.7,-116.35 2953.63,-114.02"/>
<polygon fill="midnightblue" stroke="midnightblue" points="2154.18,-152.5 2144.7,-157.24 2155.07,-159.45 2154.18,-152.5"/>
</g>
</g>
</svg>
