<?xml version="1.0" encoding="UTF-8" standalone="no"?>
<!DOCTYPE svg PUBLIC "-//W3C//DTD SVG 1.1//EN"
 "http://www.w3.org/Graphics/SVG/1.1/DTD/svg11.dtd">
<!-- Generated by graphviz version 2.44.0 ()
 -->
<!-- Title: include/Marmot/Marmot.h Pages: 1 -->
<svg width="2002pt" height="184pt"
 viewBox="0.00 0.00 2002.00 184.00" xmlns="http://www.w3.org/2000/svg" xmlns:xlink="http://www.w3.org/1999/xlink">
<g id="graph0" class="graph" transform="scale(1 1) rotate(0) translate(4 180)">
<title>include/Marmot/Marmot.h</title>
<polygon fill="white" stroke="transparent" points="-4,4 -4,-180 1998,-180 1998,4 -4,4"/>
<!-- Node1 -->
<g id="node1" class="node">
<title>Node1</title>
<g id="a_node1"><a xlink:title=" ">
<polygon fill="#bfbfbf" stroke="black" points="1591,-156.5 1591,-175.5 1718,-175.5 1718,-156.5 1591,-156.5"/>
<text text-anchor="middle" x="1654.5" y="-163.5" font-family="Helvetica,sans-Serif" font-size="10.00">include/Marmot/Marmot.h</text>
</a>
</g>
</g>
<!-- Node2 -->
<g id="node2" class="node">
<title>Node2</title>
<g id="a_node2"><a xlink:href="MarmotMaterialRegistrationHelper_8h.html" target="_top" xlink:title=" ">
<polygon fill="white" stroke="black" points="764.5,-84 764.5,-114 918.5,-114 918.5,-84 764.5,-84"/>
<text text-anchor="start" x="772.5" y="-102" font-family="Helvetica,sans-Serif" font-size="10.00">include/Marmot/MarmotMaterial</text>
<text text-anchor="middle" x="841.5" y="-91" font-family="Helvetica,sans-Serif" font-size="10.00">RegistrationHelper.h</text>
</a>
</g>
</g>
<!-- Node1&#45;&gt;Node2 -->
<g id="edge1" class="edge">
<title>Node1&#45;&gt;Node2</title>
<path fill="none" stroke="midnightblue" d="M1580.44,-159.08C1426.85,-146.8 1075.01,-118.67 918.74,-106.18"/>
<polygon fill="midnightblue" stroke="midnightblue" points="1580.46,-162.59 1590.71,-159.9 1581.02,-155.61 1580.46,-162.59"/>
</g>
<!-- Node11 -->
<g id="node11" class="node">
<title>Node11</title>
<g id="a_node11"><a xlink:href="DisplacementFiniteElement_8h.html" target="_top" xlink:title=" ">
<polygon fill="white" stroke="black" points="1468.5,-78.5 1468.5,-119.5 1626.5,-119.5 1626.5,-78.5 1468.5,-78.5"/>
<text text-anchor="start" x="1476.5" y="-107.5" font-family="Helvetica,sans-Serif" font-size="10.00">modules/elements/Displacement</text>
<text text-anchor="start" x="1476.5" y="-96.5" font-family="Helvetica,sans-Serif" font-size="10.00">FiniteElement/include/Marmot</text>
<text text-anchor="middle" x="1547.5" y="-85.5" font-family="Helvetica,sans-Serif" font-size="10.00">/DisplacementFiniteElement.h</text>
</a>
</g>
</g>
<!-- Node1&#45;&gt;Node11 -->
<g id="edge10" class="edge">
<title>Node1&#45;&gt;Node11</title>
<path fill="none" stroke="midnightblue" d="M1631.36,-150.94C1616.25,-141.76 1596.31,-129.65 1579.67,-119.54"/>
<polygon fill="midnightblue" stroke="midnightblue" points="1629.71,-154.03 1640.07,-156.23 1633.34,-148.05 1629.71,-154.03"/>
</g>
<!-- Node12 -->
<g id="node12" class="node">
<title>Node12</title>
<g id="a_node12"><a xlink:href="DisplacementFiniteElementRegistration_8cpp.html" target="_top" xlink:title=" ">
<polygon fill="white" stroke="black" points="1565,-0.5 1565,-41.5 1744,-41.5 1744,-0.5 1565,-0.5"/>
<text text-anchor="start" x="1573" y="-29.5" font-family="Helvetica,sans-Serif" font-size="10.00">modules/elements/Displacement</text>
<text text-anchor="start" x="1573" y="-18.5" font-family="Helvetica,sans-Serif" font-size="10.00">FiniteElement/src/DisplacementFinite</text>
<text text-anchor="middle" x="1654.5" y="-7.5" font-family="Helvetica,sans-Serif" font-size="10.00">ElementRegistration.cpp</text>
</a>
</g>
</g>
<!-- Node1&#45;&gt;Node12 -->
<g id="edge12" class="edge">
<title>Node1&#45;&gt;Node12</title>
<path fill="none" stroke="midnightblue" d="M1654.5,-146.42C1654.5,-119.36 1654.5,-69.31 1654.5,-41.65"/>
<polygon fill="midnightblue" stroke="midnightblue" points="1651,-146.48 1654.5,-156.48 1658,-146.48 1651,-146.48"/>
</g>
<!-- Node13 -->
<g id="node13" class="node">
<title>Node13</title>
<g id="a_node13"><a xlink:href="DisplacementFiniteStrainULElement_8h.html" target="_top" xlink:title=" ">
<polygon fill="white" stroke="black" points="1683,-78.5 1683,-119.5 1904,-119.5 1904,-78.5 1683,-78.5"/>
<text text-anchor="start" x="1691" y="-107.5" font-family="Helvetica,sans-Serif" font-size="10.00">modules/elements/Displacement</text>
<text text-anchor="start" x="1691" y="-96.5" font-family="Helvetica,sans-Serif" font-size="10.00">FiniteStrainULElement/include</text>
<text text-anchor="middle" x="1793.5" y="-85.5" font-family="Helvetica,sans-Serif" font-size="10.00">/Marmot/DisplacementFiniteStrainULElement.h</text>
</a>
</g>
</g>
<!-- Node1&#45;&gt;Node13 -->
<g id="edge13" class="edge">
<title>Node1&#45;&gt;Node13</title>
<path fill="none" stroke="midnightblue" d="M1682.06,-152.11C1701.9,-142.84 1729.01,-130.16 1751.53,-119.63"/>
<polygon fill="midnightblue" stroke="midnightblue" points="1680.53,-148.96 1672.96,-156.37 1683.5,-155.3 1680.53,-148.96"/>
</g>
<!-- Node14 -->
<g id="node14" class="node">
<title>Node14</title>
<g id="a_node14"><a xlink:href="DisplacementFiniteStrainULElement_8cpp.html" target="_top" xlink:title=" ">
<polygon fill="white" stroke="black" points="1799,-0.5 1799,-41.5 1994,-41.5 1994,-0.5 1799,-0.5"/>
<text text-anchor="start" x="1807" y="-29.5" font-family="Helvetica,sans-Serif" font-size="10.00">modules/elements/Displacement</text>
<text text-anchor="start" x="1807" y="-18.5" font-family="Helvetica,sans-Serif" font-size="10.00">FiniteStrainULElement/src</text>
<text text-anchor="middle" x="1896.5" y="-7.5" font-family="Helvetica,sans-Serif" font-size="10.00">/DisplacementFiniteStrainULElement.cpp</text>
</a>
</g>
</g>
<!-- Node1&#45;&gt;Node14 -->
<g id="edge15" class="edge">
<title>Node1&#45;&gt;Node14</title>
<path fill="none" stroke="midnightblue" d="M1728.32,-162.44C1796.35,-158.35 1890.2,-147.7 1913.5,-120 1931.95,-98.06 1919.33,-63.37 1908.17,-41.69"/>
<polygon fill="midnightblue" stroke="midnightblue" points="1727.84,-158.96 1718.06,-163.02 1728.24,-165.95 1727.84,-158.96"/>
</g>
<!-- Node3 -->
<g id="node3" class="node">
<title>Node3</title>
<g id="a_node3"><a xlink:href="ADLinearElasticRegistration_8cpp.html" target="_top" xlink:title=" ">
<polygon fill="white" stroke="black" points="0,-6 0,-36 205,-36 205,-6 0,-6"/>
<text text-anchor="start" x="8" y="-24" font-family="Helvetica,sans-Serif" font-size="10.00">modules/materials/ADLinear</text>
<text text-anchor="middle" x="102.5" y="-13" font-family="Helvetica,sans-Serif" font-size="10.00">Elastic/src/ADLinearElasticRegistration.cpp</text>
</a>
</g>
</g>
<!-- Node2&#45;&gt;Node3 -->
<g id="edge2" class="edge">
<title>Node2&#45;&gt;Node3</title>
<path fill="none" stroke="midnightblue" d="M754.4,-92.7C632.91,-84.75 405.81,-67.85 213.5,-42 200.98,-40.32 187.73,-38.21 174.9,-36.01"/>
<polygon fill="midnightblue" stroke="midnightblue" points="754.19,-96.2 764.4,-93.35 754.65,-89.21 754.19,-96.2"/>
</g>
<!-- Node4 -->
<g id="node4" class="node">
<title>Node4</title>
<g id="a_node4"><a xlink:href="ADVonMisesRegistration_8cpp.html" target="_top" xlink:title=" ">
<polygon fill="white" stroke="black" points="223,-6 223,-36 386,-36 386,-6 223,-6"/>
<text text-anchor="start" x="231" y="-24" font-family="Helvetica,sans-Serif" font-size="10.00">modules/materials/ADVonMises</text>
<text text-anchor="middle" x="304.5" y="-13" font-family="Helvetica,sans-Serif" font-size="10.00">/src/ADVonMisesRegistration.cpp</text>
</a>
</g>
</g>
<!-- Node2&#45;&gt;Node4 -->
<g id="edge3" class="edge">
<title>Node2&#45;&gt;Node4</title>
<path fill="none" stroke="midnightblue" d="M754.05,-89.41C663.88,-79.99 519.35,-63.34 395.5,-42 385.46,-40.27 374.85,-38.18 364.56,-36.01"/>
<polygon fill="midnightblue" stroke="midnightblue" points="753.93,-92.91 764.23,-90.47 754.65,-85.95 753.93,-92.91"/>
</g>
<!-- Node5 -->
<g id="node5" class="node">
<title>Node5</title>
<g id="a_node5"><a xlink:href="B4Registration_8cpp.html" target="_top" xlink:title=" ">
<polygon fill="white" stroke="black" points="404.5,-6 404.5,-36 522.5,-36 522.5,-6 404.5,-6"/>
<text text-anchor="start" x="412.5" y="-24" font-family="Helvetica,sans-Serif" font-size="10.00">modules/materials/B4</text>
<text text-anchor="middle" x="463.5" y="-13" font-family="Helvetica,sans-Serif" font-size="10.00">/src/B4Registration.cpp</text>
</a>
</g>
</g>
<!-- Node2&#45;&gt;Node5 -->
<g id="edge4" class="edge">
<title>Node2&#45;&gt;Node5</title>
<path fill="none" stroke="midnightblue" d="M754.07,-84.78C691.69,-74.72 605.99,-59.63 531.5,-42 524.08,-40.24 516.26,-38.16 508.68,-36.02"/>
<polygon fill="midnightblue" stroke="midnightblue" points="753.84,-88.29 764.27,-86.41 754.95,-81.37 753.84,-88.29"/>
</g>
<!-- Node6 -->
<g id="node6" class="node">
<title>Node6</title>
<g id="a_node6"><a xlink:href="CompressibleNeoHookeRegistration_8cpp.html" target="_top" xlink:title=" ">
<polygon fill="white" stroke="black" points="540.5,-0.5 540.5,-41.5 728.5,-41.5 728.5,-0.5 540.5,-0.5"/>
<text text-anchor="start" x="548.5" y="-29.5" font-family="Helvetica,sans-Serif" font-size="10.00">modules/materials/Compressible</text>
<text text-anchor="start" x="548.5" y="-18.5" font-family="Helvetica,sans-Serif" font-size="10.00">NeoHooke/src/CompressibleNeoHooke</text>
<text text-anchor="middle" x="634.5" y="-7.5" font-family="Helvetica,sans-Serif" font-size="10.00">Registration.cpp</text>
</a>
</g>
</g>
<!-- Node2&#45;&gt;Node6 -->
<g id="edge5" class="edge">
<title>Node2&#45;&gt;Node6</title>
<path fill="none" stroke="midnightblue" d="M793.58,-80.41C762,-68.81 720.61,-53.61 687.96,-41.63"/>
<polygon fill="midnightblue" stroke="midnightblue" points="792.46,-83.72 803.05,-83.88 794.87,-77.15 792.46,-83.72"/>
</g>
<!-- Node7 -->
<g id="node7" class="node">
<title>Node7</title>
<g id="a_node7"><a xlink:href="FiniteStrainJ2PlasticityRegistration_8cpp.html" target="_top" xlink:title=" ">
<polygon fill="white" stroke="black" points="747,-0.5 747,-41.5 936,-41.5 936,-0.5 747,-0.5"/>
<text text-anchor="start" x="755" y="-29.5" font-family="Helvetica,sans-Serif" font-size="10.00">modules/materials/Finite</text>
<text text-anchor="start" x="755" y="-18.5" font-family="Helvetica,sans-Serif" font-size="10.00">StrainJ2Plasticity/src</text>
<text text-anchor="middle" x="841.5" y="-7.5" font-family="Helvetica,sans-Serif" font-size="10.00">/FiniteStrainJ2PlasticityRegistration.cpp</text>
</a>
</g>
</g>
<!-- Node2&#45;&gt;Node7 -->
<g id="edge6" class="edge">
<title>Node2&#45;&gt;Node7</title>
<path fill="none" stroke="midnightblue" d="M841.5,-73.66C841.5,-63.33 841.5,-51.44 841.5,-41.68"/>
<polygon fill="midnightblue" stroke="midnightblue" points="838,-73.7 841.5,-83.7 845,-73.71 838,-73.7"/>
</g>
<!-- Node8 -->
<g id="node8" class="node">
<title>Node8</title>
<g id="a_node8"><a xlink:href="LinearElasticRegistration_8cpp.html" target="_top" xlink:title=" ">
<polygon fill="white" stroke="black" points="954,-6 954,-36 1145,-36 1145,-6 954,-6"/>
<text text-anchor="start" x="962" y="-24" font-family="Helvetica,sans-Serif" font-size="10.00">modules/materials/Linear</text>
<text text-anchor="middle" x="1049.5" y="-13" font-family="Helvetica,sans-Serif" font-size="10.00">Elastic/src/LinearElasticRegistration.cpp</text>
</a>
</g>
</g>
<!-- Node2&#45;&gt;Node8 -->
<g id="edge7" class="edge">
<title>Node2&#45;&gt;Node8</title>
<path fill="none" stroke="midnightblue" d="M889.69,-80.39C926.6,-66.9 976.84,-48.55 1011.07,-36.04"/>
<polygon fill="midnightblue" stroke="midnightblue" points="888.33,-77.16 880.14,-83.88 890.73,-83.74 888.33,-77.16"/>
</g>
<!-- Node9 -->
<g id="node9" class="node">
<title>Node9</title>
<g id="a_node9"><a xlink:href="LinearViscoelasticPowerLawRegistration_8cpp.html" target="_top" xlink:title=" ">
<polygon fill="white" stroke="black" points="1163.5,-0.5 1163.5,-41.5 1379.5,-41.5 1379.5,-0.5 1163.5,-0.5"/>
<text text-anchor="start" x="1171.5" y="-29.5" font-family="Helvetica,sans-Serif" font-size="10.00">modules/materials/Linear</text>
<text text-anchor="start" x="1171.5" y="-18.5" font-family="Helvetica,sans-Serif" font-size="10.00">ViscoelasticPowerLaw/src</text>
<text text-anchor="middle" x="1271.5" y="-7.5" font-family="Helvetica,sans-Serif" font-size="10.00">/LinearViscoelasticPowerLawRegistration.cpp</text>
</a>
</g>
</g>
<!-- Node2&#45;&gt;Node9 -->
<g id="edge8" class="edge">
<title>Node2&#45;&gt;Node9</title>
<path fill="none" stroke="midnightblue" d="M929.08,-82.52C996.77,-70.56 1090.82,-53.93 1163.23,-41.14"/>
<polygon fill="midnightblue" stroke="midnightblue" points="928.11,-79.14 918.87,-84.32 929.33,-86.03 928.11,-79.14"/>
</g>
<!-- Node10 -->
<g id="node10" class="node">
<title>Node10</title>
<g id="a_node10"><a xlink:href="VonMisesRegistration_8cpp.html" target="_top" xlink:title=" ">
<polygon fill="white" stroke="black" points="1398,-6 1398,-36 1547,-36 1547,-6 1398,-6"/>
<text text-anchor="start" x="1406" y="-24" font-family="Helvetica,sans-Serif" font-size="10.00">modules/materials/VonMises</text>
<text text-anchor="middle" x="1472.5" y="-13" font-family="Helvetica,sans-Serif" font-size="10.00">/src/VonMisesRegistration.cpp</text>
</a>
</g>
</g>
<!-- Node2&#45;&gt;Node10 -->
<g id="edge9" class="edge">
<title>Node2&#45;&gt;Node10</title>
<path fill="none" stroke="midnightblue" d="M929.17,-92.6C1037.6,-85.1 1227.57,-69.27 1388.5,-42 1398.11,-40.37 1408.25,-38.28 1418.04,-36.07"/>
<polygon fill="midnightblue" stroke="midnightblue" points="928.67,-89.12 918.93,-93.3 929.15,-96.11 928.67,-89.12"/>
</g>
<!-- Node11&#45;&gt;Node12 -->
<g id="edge11" class="edge">
<title>Node11&#45;&gt;Node12</title>
<path fill="none" stroke="midnightblue" d="M1583.21,-72.64C1597.5,-62.49 1613.7,-50.98 1627.04,-41.51"/>
<polygon fill="midnightblue" stroke="midnightblue" points="1581.18,-69.78 1575.06,-78.43 1585.23,-75.49 1581.18,-69.78"/>
</g>
<!-- Node13&#45;&gt;Node14 -->
<g id="edge14" class="edge">
<title>Node13&#45;&gt;Node14</title>
<path fill="none" stroke="midnightblue" d="M1828.26,-72.35C1841.92,-62.27 1857.34,-50.89 1870.06,-41.51"/>
<polygon fill="midnightblue" stroke="midnightblue" points="1825.99,-69.67 1820.03,-78.43 1830.15,-75.31 1825.99,-69.67"/>
</g>
</g>
</svg>
