<?xml version="1.0" encoding="UTF-8" standalone="no"?>
<!DOCTYPE svg PUBLIC "-//W3C//DTD SVG 1.1//EN"
 "http://www.w3.org/Graphics/SVG/1.1/DTD/svg11.dtd">
<!-- Generated by graphviz version 2.44.0 ()
 -->
<!-- Title: modules/core/MarmotMechanicsCore/src/MarmotUtility.cpp Pages: 1 -->
<svg width="513pt" height="218pt"
 viewBox="0.00 0.00 512.50 218.00" xmlns="http://www.w3.org/2000/svg" xmlns:xlink="http://www.w3.org/1999/xlink">
<g id="graph0" class="graph" transform="scale(1 1) rotate(0) translate(4 214)">
<title>modules/core/MarmotMechanicsCore/src/MarmotUtility.cpp</title>
<polygon fill="white" stroke="transparent" points="-4,4 -4,-214 508.5,-214 508.5,4 -4,4"/>
<!-- Node1 -->
<g id="node1" class="node">
<title>Node1</title>
<g id="a_node1"><a xlink:title=" ">
<polygon fill="#bfbfbf" stroke="black" points="169,-179.5 169,-209.5 327,-209.5 327,-179.5 169,-179.5"/>
<text text-anchor="start" x="177" y="-197.5" font-family="Helvetica,sans-Serif" font-size="10.00">modules/core/MarmotMechanics</text>
<text text-anchor="middle" x="248" y="-186.5" font-family="Helvetica,sans-Serif" font-size="10.00">Core/src/MarmotUtility.cpp</text>
</a>
</g>
</g>
<!-- Node2 -->
<g id="node2" class="node">
<title>Node2</title>
<g id="a_node2"><a xlink:href="MarmotUtility_8h.html" target="_top" xlink:title=" ">
<polygon fill="white" stroke="black" points="59,-123.5 59,-142.5 177,-142.5 177,-123.5 59,-123.5"/>
<text text-anchor="middle" x="118" y="-130.5" font-family="Helvetica,sans-Serif" font-size="10.00">Marmot/MarmotUtility.h</text>
</a>
</g>
</g>
<!-- Node1&#45;&gt;Node2 -->
<g id="edge1" class="edge">
<title>Node1&#45;&gt;Node2</title>
<path fill="none" stroke="midnightblue" d="M217.19,-179.4C195.67,-169.55 167.16,-156.5 146.23,-146.92"/>
<polygon fill="midnightblue" stroke="midnightblue" points="147.47,-143.64 136.92,-142.66 144.55,-150 147.47,-143.64"/>
</g>
<!-- Node3 -->
<g id="node3" class="node">
<title>Node3</title>
<g id="a_node3"><a xlink:href="MarmotTypedefs_8h.html" target="_top" xlink:title=" ">
<polygon fill="white" stroke="black" points="80.5,-67.5 80.5,-86.5 213.5,-86.5 213.5,-67.5 80.5,-67.5"/>
<text text-anchor="middle" x="147" y="-74.5" font-family="Helvetica,sans-Serif" font-size="10.00">Marmot/MarmotTypedefs.h</text>
</a>
</g>
</g>
<!-- Node1&#45;&gt;Node3 -->
<g id="edge10" class="edge">
<title>Node1&#45;&gt;Node3</title>
<path fill="none" stroke="midnightblue" d="M235.62,-179.34C216.84,-157.86 181.25,-117.17 161.37,-94.43"/>
<polygon fill="midnightblue" stroke="midnightblue" points="163.8,-91.89 154.58,-86.67 158.53,-96.5 163.8,-91.89"/>
</g>
<!-- Node7 -->
<g id="node7" class="node">
<title>Node7</title>
<g id="a_node7"><a xlink:href="MarmotJournal_8h.html" target="_top" xlink:title=" ">
<polygon fill="white" stroke="black" points="314.5,-67.5 314.5,-86.5 439.5,-86.5 439.5,-67.5 314.5,-67.5"/>
<text text-anchor="middle" x="377" y="-74.5" font-family="Helvetica,sans-Serif" font-size="10.00">Marmot/MarmotJournal.h</text>
</a>
</g>
</g>
<!-- Node1&#45;&gt;Node7 -->
<g id="edge6" class="edge">
<title>Node1&#45;&gt;Node7</title>
<path fill="none" stroke="midnightblue" d="M301.19,-179.49C321.47,-171.74 343.23,-160.1 358,-143 369.16,-130.08 373.77,-110.91 375.67,-96.73"/>
<polygon fill="midnightblue" stroke="midnightblue" points="379.17,-96.95 376.69,-86.65 372.2,-96.25 379.17,-96.95"/>
</g>
<!-- Node11 -->
<g id="node11" class="node">
<title>Node11</title>
<g id="a_node11"><a xlink:href="MarmotVoigt_8h.html" target="_top" xlink:title=" ">
<polygon fill="white" stroke="black" points="233,-123.5 233,-142.5 349,-142.5 349,-123.5 233,-123.5"/>
<text text-anchor="middle" x="291" y="-130.5" font-family="Helvetica,sans-Serif" font-size="10.00">Marmot/MarmotVoigt.h</text>
</a>
</g>
</g>
<!-- Node1&#45;&gt;Node11 -->
<g id="edge11" class="edge">
<title>Node1&#45;&gt;Node11</title>
<path fill="none" stroke="midnightblue" d="M258.19,-179.4C264.37,-170.84 272.3,-159.87 278.82,-150.86"/>
<polygon fill="midnightblue" stroke="midnightblue" points="281.72,-152.81 284.74,-142.66 276.05,-148.71 281.72,-152.81"/>
</g>
<!-- Node2&#45;&gt;Node3 -->
<g id="edge2" class="edge">
<title>Node2&#45;&gt;Node3</title>
<path fill="none" stroke="midnightblue" d="M122.79,-123.08C126.76,-115.69 132.53,-104.95 137.43,-95.81"/>
<polygon fill="midnightblue" stroke="midnightblue" points="140.65,-97.22 142.3,-86.75 134.49,-93.91 140.65,-97.22"/>
</g>
<!-- Node4 -->
<g id="node4" class="node">
<title>Node4</title>
<g id="a_node4"><a xlink:title=" ">
<polygon fill="white" stroke="#bfbfbf" points="0,-6 0,-25 64,-25 64,-6 0,-6"/>
<text text-anchor="middle" x="32" y="-13" font-family="Helvetica,sans-Serif" font-size="10.00">Eigen/Core</text>
</a>
</g>
</g>
<!-- Node3&#45;&gt;Node4 -->
<g id="edge3" class="edge">
<title>Node3&#45;&gt;Node4</title>
<path fill="none" stroke="midnightblue" d="M130.52,-67.48C111.39,-57.58 79.63,-41.14 57.35,-29.62"/>
<polygon fill="midnightblue" stroke="midnightblue" points="58.94,-26.5 48.45,-25.01 55.72,-32.71 58.94,-26.5"/>
</g>
<!-- Node5 -->
<g id="node5" class="node">
<title>Node5</title>
<g id="a_node5"><a xlink:title=" ">
<polygon fill="white" stroke="#bfbfbf" points="82.5,-6 82.5,-25 153.5,-25 153.5,-6 82.5,-6"/>
<text text-anchor="middle" x="118" y="-13" font-family="Helvetica,sans-Serif" font-size="10.00">Eigen/Dense</text>
</a>
</g>
</g>
<!-- Node3&#45;&gt;Node5 -->
<g id="edge4" class="edge">
<title>Node3&#45;&gt;Node5</title>
<path fill="none" stroke="midnightblue" d="M142.85,-67.48C138.62,-58.82 131.96,-45.15 126.6,-34.15"/>
<polygon fill="midnightblue" stroke="midnightblue" points="129.67,-32.46 122.15,-25.01 123.38,-35.53 129.67,-32.46"/>
</g>
<!-- Node6 -->
<g id="node6" class="node">
<title>Node6</title>
<g id="a_node6"><a xlink:title=" ">
<polygon fill="white" stroke="#bfbfbf" points="171.5,-0.5 171.5,-30.5 302.5,-30.5 302.5,-0.5 171.5,-0.5"/>
<text text-anchor="start" x="179.5" y="-18.5" font-family="Helvetica,sans-Serif" font-size="10.00">unsupported/Eigen/CXX11</text>
<text text-anchor="middle" x="237" y="-7.5" font-family="Helvetica,sans-Serif" font-size="10.00">/Tensor</text>
</a>
</g>
</g>
<!-- Node3&#45;&gt;Node6 -->
<g id="edge5" class="edge">
<title>Node3&#45;&gt;Node6</title>
<path fill="none" stroke="midnightblue" d="M159.89,-67.48C172.2,-59.34 191.18,-46.79 207.23,-36.18"/>
<polygon fill="midnightblue" stroke="midnightblue" points="209.38,-38.96 215.79,-30.52 205.52,-33.12 209.38,-38.96"/>
</g>
<!-- Node8 -->
<g id="node8" class="node">
<title>Node8</title>
<g id="a_node8"><a xlink:title=" ">
<polygon fill="white" stroke="#bfbfbf" points="321,-6 321,-25 375,-25 375,-6 321,-6"/>
<text text-anchor="middle" x="348" y="-13" font-family="Helvetica,sans-Serif" font-size="10.00">iostream</text>
</a>
</g>
</g>
<!-- Node7&#45;&gt;Node8 -->
<g id="edge7" class="edge">
<title>Node7&#45;&gt;Node8</title>
<path fill="none" stroke="midnightblue" d="M372.85,-67.48C368.62,-58.82 361.96,-45.15 356.6,-34.15"/>
<polygon fill="midnightblue" stroke="midnightblue" points="359.67,-32.46 352.15,-25.01 353.38,-35.53 359.67,-32.46"/>
</g>
<!-- Node9 -->
<g id="node9" class="node">
<title>Node9</title>
<g id="a_node9"><a xlink:title=" ">
<polygon fill="white" stroke="#bfbfbf" points="393,-6 393,-25 445,-25 445,-6 393,-6"/>
<text text-anchor="middle" x="419" y="-13" font-family="Helvetica,sans-Serif" font-size="10.00">sstream</text>
</a>
</g>
</g>
<!-- Node7&#45;&gt;Node9 -->
<g id="edge8" class="edge">
<title>Node7&#45;&gt;Node9</title>
<path fill="none" stroke="midnightblue" d="M383.02,-67.48C389.26,-58.64 399.17,-44.59 407.02,-33.48"/>
<polygon fill="midnightblue" stroke="midnightblue" points="410.09,-35.2 412.99,-25.01 404.37,-31.16 410.09,-35.2"/>
</g>
<!-- Node10 -->
<g id="node10" class="node">
<title>Node10</title>
<g id="a_node10"><a xlink:title=" ">
<polygon fill="white" stroke="#bfbfbf" points="463.5,-6 463.5,-25 504.5,-25 504.5,-6 463.5,-6"/>
<text text-anchor="middle" x="484" y="-13" font-family="Helvetica,sans-Serif" font-size="10.00">string</text>
</a>
</g>
</g>
<!-- Node7&#45;&gt;Node10 -->
<g id="edge9" class="edge">
<title>Node7&#45;&gt;Node10</title>
<path fill="none" stroke="midnightblue" d="M392.33,-67.48C409.97,-57.67 439.16,-41.43 459.86,-29.92"/>
<polygon fill="midnightblue" stroke="midnightblue" points="461.66,-32.93 468.7,-25.01 458.26,-26.81 461.66,-32.93"/>
</g>
<!-- Node11&#45;&gt;Node3 -->
<g id="edge13" class="edge">
<title>Node11&#45;&gt;Node3</title>
<path fill="none" stroke="midnightblue" d="M268.18,-123.44C244.17,-114.44 206.17,-100.19 179.13,-90.05"/>
<polygon fill="midnightblue" stroke="midnightblue" points="180.3,-86.75 169.71,-86.52 177.84,-93.3 180.3,-86.75"/>
</g>
<!-- Node11&#45;&gt;Node7 -->
<g id="edge12" class="edge">
<title>Node11&#45;&gt;Node7</title>
<path fill="none" stroke="midnightblue" d="M304.82,-123.32C318.23,-114.9 338.82,-101.97 354.59,-92.07"/>
<polygon fill="midnightblue" stroke="midnightblue" points="356.61,-94.94 363.22,-86.65 352.89,-89.01 356.61,-94.94"/>
</g>
</g>
</svg>
