<?xml version="1.0" encoding="UTF-8" standalone="no"?>
<!DOCTYPE svg PUBLIC "-//W3C//DTD SVG 1.1//EN"
 "http://www.w3.org/Graphics/SVG/1.1/DTD/svg11.dtd">
<!-- Generated by graphviz version 3.0.0 (20220413.0106)
 -->
<!-- Title: modules/core/MarmotMechanicsCore/include/Marmot/MarmotMaterialHypoElastic.h Pages: 1 -->
<svg width="748pt" height="206pt"
 viewBox="0.00 0.00 747.50 206.00" xmlns="http://www.w3.org/2000/svg" xmlns:xlink="http://www.w3.org/1999/xlink">
<g id="graph0" class="graph" transform="scale(1 1) rotate(0) translate(4 202)">
<title>modules/core/MarmotMechanicsCore/include/Marmot/MarmotMaterialHypoElastic.h</title>
<polygon fill="white" stroke="transparent" points="-4,4 -4,-202 743.5,-202 743.5,4 -4,4"/>
<!-- Node1 -->
<g id="node1" class="node">
<title>Node1</title>
<g id="a_node1"><a xlink:title=" ">
<polygon fill="#bfbfbf" stroke="black" points="202.5,-156.5 202.5,-197.5 379.5,-197.5 379.5,-156.5 202.5,-156.5"/>
<text text-anchor="start" x="210.5" y="-185.5" font-family="Helvetica,sans-Serif" font-size="10.00">modules/core/MarmotMechanics</text>
<text text-anchor="start" x="210.5" y="-174.5" font-family="Helvetica,sans-Serif" font-size="10.00">Core/include/Marmot/MarmotMaterial</text>
<text text-anchor="middle" x="291" y="-163.5" font-family="Helvetica,sans-Serif" font-size="10.00">HypoElastic.h</text>
</a>
</g>
</g>
<!-- Node2 -->
<g id="node2" class="node">
<title>Node2</title>
<g id="a_node2"><a xlink:href="MarmotMaterialHypoElastic_8cpp.html" target="_top" xlink:title=" ">
<polygon fill="white" stroke="black" points="0,-84 0,-114 194,-114 194,-84 0,-84"/>
<text text-anchor="start" x="8" y="-102" font-family="Helvetica,sans-Serif" font-size="10.00">modules/core/MarmotMechanics</text>
<text text-anchor="middle" x="97" y="-91" font-family="Helvetica,sans-Serif" font-size="10.00">Core/src/MarmotMaterialHypoElastic.cpp</text>
</a>
</g>
</g>
<!-- Node1&#45;&gt;Node2 -->
<g id="edge1" class="edge">
<title>Node1&#45;&gt;Node2</title>
<path fill="none" stroke="midnightblue" d="M231.71,-152.77C199.48,-140.15 160.67,-124.94 133.01,-114.11"/>
<polygon fill="midnightblue" stroke="midnightblue" points="230.45,-156.04 241.04,-156.43 233.01,-149.52 230.45,-156.04"/>
</g>
<!-- Node3 -->
<g id="node3" class="node">
<title>Node3</title>
<g id="a_node3"><a xlink:href="DisplacementFiniteElement_8h.html" target="_top" xlink:title=" ">
<polygon fill="white" stroke="black" points="212,-78.5 212,-119.5 370,-119.5 370,-78.5 212,-78.5"/>
<text text-anchor="start" x="220" y="-107.5" font-family="Helvetica,sans-Serif" font-size="10.00">modules/elements/Displacement</text>
<text text-anchor="start" x="220" y="-96.5" font-family="Helvetica,sans-Serif" font-size="10.00">FiniteElement/include/Marmot</text>
<text text-anchor="middle" x="291" y="-85.5" font-family="Helvetica,sans-Serif" font-size="10.00">/DisplacementFiniteElement.h</text>
</a>
</g>
</g>
<!-- Node1&#45;&gt;Node3 -->
<g id="edge2" class="edge">
<title>Node1&#45;&gt;Node3</title>
<path fill="none" stroke="midnightblue" d="M291,-146.3C291,-137.3 291,-127.65 291,-119.51"/>
<polygon fill="midnightblue" stroke="midnightblue" points="287.5,-146.43 291,-156.43 294.5,-146.43 287.5,-146.43"/>
</g>
<!-- Node5 -->
<g id="node5" class="node">
<title>Node5</title>
<g id="a_node5"><a xlink:href="LinearElastic_8h.html" target="_top" xlink:title=" ">
<polygon fill="white" stroke="black" points="397,-78.5 397,-119.5 523,-119.5 523,-78.5 397,-78.5"/>
<text text-anchor="start" x="405" y="-107.5" font-family="Helvetica,sans-Serif" font-size="10.00">modules/materials/Linear</text>
<text text-anchor="start" x="405" y="-96.5" font-family="Helvetica,sans-Serif" font-size="10.00">Elastic/include/Marmot</text>
<text text-anchor="middle" x="460" y="-85.5" font-family="Helvetica,sans-Serif" font-size="10.00">/LinearElastic.h</text>
</a>
</g>
</g>
<!-- Node1&#45;&gt;Node5 -->
<g id="edge4" class="edge">
<title>Node1&#45;&gt;Node5</title>
<path fill="none" stroke="midnightblue" d="M343.95,-152.19C367.33,-141.67 394.47,-129.47 416.63,-119.51"/>
<polygon fill="midnightblue" stroke="midnightblue" points="342.21,-149.13 334.52,-156.43 345.08,-155.52 342.21,-149.13"/>
</g>
<!-- Node4 -->
<g id="node4" class="node">
<title>Node4</title>
<g id="a_node4"><a xlink:href="DisplacementFiniteElementRegistration_8cpp.html" target="_top" xlink:title=" ">
<polygon fill="white" stroke="black" points="192.5,-0.5 192.5,-41.5 371.5,-41.5 371.5,-0.5 192.5,-0.5"/>
<text text-anchor="start" x="200.5" y="-29.5" font-family="Helvetica,sans-Serif" font-size="10.00">modules/elements/Displacement</text>
<text text-anchor="start" x="200.5" y="-18.5" font-family="Helvetica,sans-Serif" font-size="10.00">FiniteElement/src/DisplacementFinite</text>
<text text-anchor="middle" x="282" y="-7.5" font-family="Helvetica,sans-Serif" font-size="10.00">ElementRegistration.cpp</text>
</a>
</g>
</g>
<!-- Node3&#45;&gt;Node4 -->
<g id="edge3" class="edge">
<title>Node3&#45;&gt;Node4</title>
<path fill="none" stroke="midnightblue" d="M287.48,-68.3C286.42,-59.3 285.27,-49.65 284.31,-41.51"/>
<polygon fill="midnightblue" stroke="midnightblue" points="284.03,-68.91 288.68,-78.43 290.98,-68.09 284.03,-68.91"/>
</g>
<!-- Node6 -->
<g id="node6" class="node">
<title>Node6</title>
<g id="a_node6"><a xlink:href="LinearElastic_8cpp.html" target="_top" xlink:title=" ">
<polygon fill="white" stroke="black" points="390,-6 390,-36 530,-36 530,-6 390,-6"/>
<text text-anchor="start" x="398" y="-24" font-family="Helvetica,sans-Serif" font-size="10.00">modules/materials/Linear</text>
<text text-anchor="middle" x="460" y="-13" font-family="Helvetica,sans-Serif" font-size="10.00">Elastic/src/LinearElastic.cpp</text>
</a>
</g>
</g>
<!-- Node5&#45;&gt;Node6 -->
<g id="edge5" class="edge">
<title>Node5&#45;&gt;Node6</title>
<path fill="none" stroke="midnightblue" d="M460,-68.28C460,-57.25 460,-45.25 460,-36.23"/>
<polygon fill="midnightblue" stroke="midnightblue" points="456.5,-68.43 460,-78.43 463.5,-68.43 456.5,-68.43"/>
</g>
<!-- Node7 -->
<g id="node7" class="node">
<title>Node7</title>
<g id="a_node7"><a xlink:href="LinearElasticRegistration_8cpp.html" target="_top" xlink:title=" ">
<polygon fill="white" stroke="black" points="548.5,-6 548.5,-36 739.5,-36 739.5,-6 548.5,-6"/>
<text text-anchor="start" x="556.5" y="-24" font-family="Helvetica,sans-Serif" font-size="10.00">modules/materials/Linear</text>
<text text-anchor="middle" x="644" y="-13" font-family="Helvetica,sans-Serif" font-size="10.00">Elastic/src/LinearElasticRegistration.cpp</text>
</a>
</g>
</g>
<!-- Node5&#45;&gt;Node7 -->
<g id="edge6" class="edge">
<title>Node5&#45;&gt;Node7</title>
<path fill="none" stroke="midnightblue" d="M516.63,-74.61C547.12,-62.02 583.72,-46.9 609.85,-36.11"/>
<polygon fill="midnightblue" stroke="midnightblue" points="515.29,-71.38 507.38,-78.43 517.96,-77.85 515.29,-71.38"/>
</g>
</g>
</svg>
