<?xml version="1.0" encoding="UTF-8" standalone="no"?>
<!DOCTYPE svg PUBLIC "-//W3C//DTD SVG 1.1//EN"
 "http://www.w3.org/Graphics/SVG/1.1/DTD/svg11.dtd">
<!-- Generated by graphviz version 2.46.1 (20210215.1649)
 -->
<!-- Title: modules/core/MarmotMechanicsCore/src/MarmotMaterialHyperElastic.cpp Pages: 1 -->
<!--zoomable 285 -->
<svg id="main" version="1.1" xmlns="http://www.w3.org/2000/svg" xmlns:xlink="http://www.w3.org/1999/xlink" xml:space="preserve" onload="init(evt)">
<style type="text/css"><![CDATA[
.edge:hover path { stroke: red; }
.edge:hover polygon { stroke: red; fill: red; }
]]></style>
<script type="text/javascript"><![CDATA[
var edges = document.getElementsByTagName('g');
if (edges && edges.length) {
  for (var i=0;i<edges.length;i++) {
    if (edges[i].id.substr(0,4)=='edge') {
      edges[i].setAttribute('class','edge');
    }
  }
}
]]></script>
        <defs>
                <circle id="rim" cx="0" cy="0" r="7"/>
                <circle id="rim2" cx="0" cy="0" r="3.5"/>
                <g id="zoomPlus">
                        <use xlink:href="#rim" fill="#404040">
                                <set attributeName="fill" to="#808080" begin="zoomplus.mouseover" end="zoomplus.mouseout"/>
                        </use>
                        <path d="M-4,0h8M0,-4v8" fill="none" stroke="white" stroke-width="1.5" pointer-events="none"/>
                </g>
                <g id="zoomMin">
                        <use xlink:href="#rim" fill="#404040">
                                <set attributeName="fill" to="#808080" begin="zoomminus.mouseover" end="zoomminus.mouseout"/>
                        </use>
                        <path d="M-4,0h8" fill="none" stroke="white" stroke-width="1.5" pointer-events="none"/>
                </g>
                <g id="dirArrow">
                        <path fill="none" stroke="white" stroke-width="1.5" d="M0,-3.0v7 M-2.5,-0.5L0,-3.0L2.5,-0.5"/>
                </g>
               <g id="resetDef">
                       <use xlink:href="#rim2" fill="#404040">
                               <set attributeName="fill" to="#808080" begin="reset.mouseover" end="reset.mouseout"/>
                       </use>
               </g>
        </defs>

<script type="text/javascript">
var viewWidth = 910;
var viewHeight = 285;
var sectionId = 'dynsection-0';
</script>
<script xlink:href="svgpan.js"/>
<svg id="graph" class="graph">
<g id="viewport">
<title>modules/core/MarmotMechanicsCore/src/MarmotMaterialHyperElastic.cpp</title>
<polygon fill="white" stroke="transparent" points="-4,4 -4,-281 906,-281 906,4 -4,4"/>
<!-- Node1 -->
<g id="node1" class="node">
<title>Node1</title>
<g id="a_node1"><a xlink:title=" ">
<polygon fill="#bfbfbf" stroke="black" points="378,-246.5 378,-276.5 575,-276.5 575,-246.5 378,-246.5"/>
<text text-anchor="start" x="386" y="-264.5" font-family="Helvetica,sans-Serif" font-size="10.00">modules/core/MarmotMechanics</text>
<text text-anchor="middle" x="476.5" y="-253.5" font-family="Helvetica,sans-Serif" font-size="10.00">Core/src/MarmotMaterialHyperElastic.cpp</text>
</a>
</g>
</g>
<!-- Node2 -->
<g id="node2" class="node">
<title>Node2</title>
<g id="a_node2"><a xlink:href="MarmotConstants_8h.html" target="_top" xlink:title=" ">
<polygon fill="white" stroke="black" points="0,-123.5 0,-142.5 137,-142.5 137,-123.5 0,-123.5"/>
<text text-anchor="middle" x="68.5" y="-130.5" font-family="Helvetica,sans-Serif" font-size="10.00">Marmot/MarmotConstants.h</text>
</a>
</g>
</g>
<!-- Node1&#45;&gt;Node2 -->
<g id="edge1" class="edge">
<title>Node1&#45;&gt;Node2</title>
<path fill="none" stroke="midnightblue" d="M377.78,-256.87C284.15,-251.68 151.71,-239.28 109.5,-210 89.91,-196.41 78.84,-170.39 73.26,-152.61"/>
<polygon fill="midnightblue" stroke="midnightblue" points="76.57,-151.46 70.47,-142.8 69.84,-153.38 76.57,-151.46"/>
</g>
<!-- Node4 -->
<g id="node4" class="node">
<title>Node4</title>
<g id="a_node4"><a xlink:href="MarmotJournal_8h.html" target="_top" xlink:title=" ">
<polygon fill="white" stroke="black" points="487,-67.5 487,-86.5 612,-86.5 612,-67.5 487,-67.5"/>
<text text-anchor="middle" x="549.5" y="-74.5" font-family="Helvetica,sans-Serif" font-size="10.00">Marmot/MarmotJournal.h</text>
</a>
</g>
</g>
<!-- Node1&#45;&gt;Node4 -->
<g id="edge3" class="edge">
<title>Node1&#45;&gt;Node4</title>
<path fill="none" stroke="midnightblue" d="M481.75,-246.31C487.81,-230.01 498.15,-202.49 507.5,-179 519.11,-149.84 533.24,-116.23 541.79,-96.07"/>
<polygon fill="midnightblue" stroke="midnightblue" points="545.12,-97.18 545.81,-86.61 538.68,-94.44 545.12,-97.18"/>
</g>
<!-- Node5 -->
<g id="node5" class="node">
<title>Node5</title>
<g id="a_node5"><a xlink:title=" ">
<polygon fill="white" stroke="#bfbfbf" points="629.5,-6 629.5,-25 683.5,-25 683.5,-6 629.5,-6"/>
<text text-anchor="middle" x="656.5" y="-13" font-family="Helvetica,sans-Serif" font-size="10.00">iostream</text>
</a>
</g>
</g>
<!-- Node1&#45;&gt;Node5 -->
<g id="edge32" class="edge">
<title>Node1&#45;&gt;Node5</title>
<path fill="none" stroke="midnightblue" d="M575.08,-250.79C602.28,-243.46 629.51,-231.01 648.5,-210 691.67,-162.25 680.76,-130.7 671.5,-67 669.91,-56.08 666.49,-44.24 663.32,-34.77"/>
<polygon fill="midnightblue" stroke="midnightblue" points="666.59,-33.52 659.95,-25.27 659.99,-35.86 666.59,-33.52"/>
</g>
<!-- Node8 -->
<g id="node8" class="node">
<title>Node8</title>
<g id="a_node8"><a xlink:href="MarmotKinematics_8h.html" target="_top" xlink:title=" ">
<polygon fill="white" stroke="black" points="253.5,-185 253.5,-204 395.5,-204 395.5,-185 253.5,-185"/>
<text text-anchor="middle" x="324.5" y="-192" font-family="Helvetica,sans-Serif" font-size="10.00">Marmot/MarmotKinematics.h</text>
</a>
</g>
</g>
<!-- Node1&#45;&gt;Node8 -->
<g id="edge7" class="edge">
<title>Node1&#45;&gt;Node8</title>
<path fill="none" stroke="midnightblue" d="M443.52,-246.4C416.73,-234.94 379.31,-218.94 353.62,-207.95"/>
<polygon fill="midnightblue" stroke="midnightblue" points="354.96,-204.72 344.39,-204.01 352.21,-211.16 354.96,-204.72"/>
</g>
<!-- Node13 -->
<g id="node13" class="node">
<title>Node13</title>
<g id="a_node13"><a xlink:href="MarmotVoigt_8h.html" target="_top" xlink:title=" ">
<polygon fill="white" stroke="black" points="343.5,-123.5 343.5,-142.5 459.5,-142.5 459.5,-123.5 343.5,-123.5"/>
<text text-anchor="middle" x="401.5" y="-130.5" font-family="Helvetica,sans-Serif" font-size="10.00">Marmot/MarmotVoigt.h</text>
</a>
</g>
</g>
<!-- Node1&#45;&gt;Node13 -->
<g id="edge31" class="edge">
<title>Node1&#45;&gt;Node13</title>
<path fill="none" stroke="midnightblue" d="M468.19,-246.48C454.45,-223.31 427.04,-177.07 411.99,-151.69"/>
<polygon fill="midnightblue" stroke="midnightblue" points="414.82,-149.61 406.71,-142.79 408.8,-153.18 414.82,-149.61"/>
</g>
<!-- Node14 -->
<g id="node14" class="node">
<title>Node14</title>
<g id="a_node14"><a xlink:href="MarmotMaterialHyperElastic_8h.html" target="_top" xlink:title=" ">
<polygon fill="white" stroke="black" points="732.5,-179.5 732.5,-209.5 878.5,-209.5 878.5,-179.5 732.5,-179.5"/>
<text text-anchor="start" x="740.5" y="-197.5" font-family="Helvetica,sans-Serif" font-size="10.00">Marmot/MarmotMaterialHyper</text>
<text text-anchor="middle" x="805.5" y="-186.5" font-family="Helvetica,sans-Serif" font-size="10.00">Elastic.h</text>
</a>
</g>
</g>
<!-- Node1&#45;&gt;Node14 -->
<g id="edge16" class="edge">
<title>Node1&#45;&gt;Node14</title>
<path fill="none" stroke="midnightblue" d="M547.48,-246.48C599.5,-236.2 670.2,-222.23 724.43,-211.52"/>
<polygon fill="midnightblue" stroke="midnightblue" points="725.23,-214.93 734.36,-209.55 723.87,-208.06 725.23,-214.93"/>
</g>
<!-- Node18 -->
<g id="node18" class="node">
<title>Node18</title>
<g id="a_node18"><a xlink:href="MarmotMath_8h.html" target="_top" xlink:title=" ">
<polygon fill="white" stroke="black" points="119,-185 119,-204 234,-204 234,-185 119,-185"/>
<text text-anchor="middle" x="176.5" y="-192" font-family="Helvetica,sans-Serif" font-size="10.00">Marmot/MarmotMath.h</text>
</a>
</g>
</g>
<!-- Node1&#45;&gt;Node18 -->
<g id="edge21" class="edge">
<title>Node1&#45;&gt;Node18</title>
<path fill="none" stroke="midnightblue" d="M411.77,-246.48C356.02,-234.4 276.72,-217.21 225.94,-206.21"/>
<polygon fill="midnightblue" stroke="midnightblue" points="226.38,-202.73 215.86,-204.03 224.9,-209.57 226.38,-202.73"/>
</g>
<!-- Node20 -->
<g id="node20" class="node">
<title>Node20</title>
<g id="a_node20"><a xlink:href="MarmotTensor_8h.html" target="_top" xlink:title=" ">
<polygon fill="white" stroke="black" points="516,-185 516,-204 639,-204 639,-185 516,-185"/>
<text text-anchor="middle" x="577.5" y="-192" font-family="Helvetica,sans-Serif" font-size="10.00">Marmot/MarmotTensor.h</text>
</a>
</g>
</g>
<!-- Node1&#45;&gt;Node20 -->
<g id="edge25" class="edge">
<title>Node1&#45;&gt;Node20</title>
<path fill="none" stroke="midnightblue" d="M498.42,-246.4C515.35,-235.5 538.69,-220.48 555.62,-209.58"/>
<polygon fill="midnightblue" stroke="midnightblue" points="557.77,-212.36 564.28,-204.01 553.98,-206.48 557.77,-212.36"/>
</g>
<!-- Node3 -->
<g id="node3" class="node">
<title>Node3</title>
<g id="a_node3"><a xlink:title=" ">
<polygon fill="white" stroke="#bfbfbf" points="46.5,-67.5 46.5,-86.5 90.5,-86.5 90.5,-67.5 46.5,-67.5"/>
<text text-anchor="middle" x="68.5" y="-74.5" font-family="Helvetica,sans-Serif" font-size="10.00">cmath</text>
</a>
</g>
</g>
<!-- Node2&#45;&gt;Node3 -->
<g id="edge2" class="edge">
<title>Node2&#45;&gt;Node3</title>
<path fill="none" stroke="midnightblue" d="M68.5,-123.08C68.5,-116.01 68.5,-105.86 68.5,-96.99"/>
<polygon fill="midnightblue" stroke="midnightblue" points="72,-96.75 68.5,-86.75 65,-96.75 72,-96.75"/>
</g>
<!-- Node4&#45;&gt;Node5 -->
<g id="edge4" class="edge">
<title>Node4&#45;&gt;Node5</title>
<path fill="none" stroke="midnightblue" d="M564.83,-67.48C582.47,-57.67 611.66,-41.43 632.36,-29.92"/>
<polygon fill="midnightblue" stroke="midnightblue" points="634.16,-32.93 641.2,-25.01 630.76,-26.81 634.16,-32.93"/>
</g>
<!-- Node6 -->
<g id="node6" class="node">
<title>Node6</title>
<g id="a_node6"><a xlink:title=" ">
<polygon fill="white" stroke="#bfbfbf" points="523.5,-6 523.5,-25 575.5,-25 575.5,-6 523.5,-6"/>
<text text-anchor="middle" x="549.5" y="-13" font-family="Helvetica,sans-Serif" font-size="10.00">sstream</text>
</a>
</g>
</g>
<!-- Node4&#45;&gt;Node6 -->
<g id="edge5" class="edge">
<title>Node4&#45;&gt;Node6</title>
<path fill="none" stroke="midnightblue" d="M549.5,-67.48C549.5,-59.08 549.5,-45.98 549.5,-35.16"/>
<polygon fill="midnightblue" stroke="midnightblue" points="553,-35.01 549.5,-25.01 546,-35.01 553,-35.01"/>
</g>
<!-- Node7 -->
<g id="node7" class="node">
<title>Node7</title>
<g id="a_node7"><a xlink:title=" ">
<polygon fill="white" stroke="#bfbfbf" points="702,-6 702,-25 743,-25 743,-6 702,-6"/>
<text text-anchor="middle" x="722.5" y="-13" font-family="Helvetica,sans-Serif" font-size="10.00">string</text>
</a>
</g>
</g>
<!-- Node4&#45;&gt;Node7 -->
<g id="edge6" class="edge">
<title>Node4&#45;&gt;Node7</title>
<path fill="none" stroke="midnightblue" d="M581.2,-67.46C610.49,-59.23 655,-45.87 692.5,-31 693.88,-30.45 695.28,-29.87 696.69,-29.27"/>
<polygon fill="midnightblue" stroke="midnightblue" points="698.23,-32.41 705.87,-25.07 695.32,-26.04 698.23,-32.41"/>
</g>
<!-- Node8&#45;&gt;Node4 -->
<g id="edge8" class="edge">
<title>Node8&#45;&gt;Node4</title>
<path fill="none" stroke="midnightblue" d="M322.88,-184.81C320.67,-170.03 318.61,-139.96 334.5,-123 353.73,-102.46 422.23,-90.65 476.81,-84.33"/>
<polygon fill="midnightblue" stroke="midnightblue" points="477.27,-87.8 486.82,-83.21 476.5,-80.84 477.27,-87.8"/>
</g>
<!-- Node9 -->
<g id="node9" class="node">
<title>Node9</title>
<g id="a_node9"><a xlink:href="MarmotTypedefs_8h.html" target="_top" xlink:title=" ">
<polygon fill="white" stroke="black" points="239,-67.5 239,-86.5 372,-86.5 372,-67.5 239,-67.5"/>
<text text-anchor="middle" x="305.5" y="-74.5" font-family="Helvetica,sans-Serif" font-size="10.00">Marmot/MarmotTypedefs.h</text>
</a>
</g>
</g>
<!-- Node8&#45;&gt;Node9 -->
<g id="edge9" class="edge">
<title>Node8&#45;&gt;Node9</title>
<path fill="none" stroke="midnightblue" d="M319.23,-184.96C313.56,-175.22 304.89,-158.63 301.5,-143 298.16,-127.62 299.64,-109.74 301.68,-96.64"/>
<polygon fill="midnightblue" stroke="midnightblue" points="305.17,-96.99 303.51,-86.53 298.28,-95.74 305.17,-96.99"/>
</g>
<!-- Node8&#45;&gt;Node13 -->
<g id="edge13" class="edge">
<title>Node8&#45;&gt;Node13</title>
<path fill="none" stroke="midnightblue" d="M335.53,-184.98C347.77,-175.52 367.73,-160.1 382.49,-148.69"/>
<polygon fill="midnightblue" stroke="midnightblue" points="384.72,-151.39 390.49,-142.51 380.44,-145.85 384.72,-151.39"/>
</g>
<!-- Node10 -->
<g id="node10" class="node">
<title>Node10</title>
<g id="a_node10"><a xlink:title=" ">
<polygon fill="white" stroke="#bfbfbf" points="187.5,-6 187.5,-25 251.5,-25 251.5,-6 187.5,-6"/>
<text text-anchor="middle" x="219.5" y="-13" font-family="Helvetica,sans-Serif" font-size="10.00">Eigen/Core</text>
</a>
</g>
</g>
<!-- Node9&#45;&gt;Node10 -->
<g id="edge10" class="edge">
<title>Node9&#45;&gt;Node10</title>
<path fill="none" stroke="midnightblue" d="M293.18,-67.48C279.38,-57.93 256.8,-42.31 240.27,-30.87"/>
<polygon fill="midnightblue" stroke="midnightblue" points="242.01,-27.82 231.8,-25.01 238.03,-33.58 242.01,-27.82"/>
</g>
<!-- Node11 -->
<g id="node11" class="node">
<title>Node11</title>
<g id="a_node11"><a xlink:title=" ">
<polygon fill="white" stroke="#bfbfbf" points="270,-6 270,-25 341,-25 341,-6 270,-6"/>
<text text-anchor="middle" x="305.5" y="-13" font-family="Helvetica,sans-Serif" font-size="10.00">Eigen/Dense</text>
</a>
</g>
</g>
<!-- Node9&#45;&gt;Node11 -->
<g id="edge11" class="edge">
<title>Node9&#45;&gt;Node11</title>
<path fill="none" stroke="midnightblue" d="M305.5,-67.48C305.5,-59.08 305.5,-45.98 305.5,-35.16"/>
<polygon fill="midnightblue" stroke="midnightblue" points="309,-35.01 305.5,-25.01 302,-35.01 309,-35.01"/>
</g>
<!-- Node12 -->
<g id="node12" class="node">
<title>Node12</title>
<g id="a_node12"><a xlink:title=" ">
<polygon fill="white" stroke="#bfbfbf" points="359,-0.5 359,-30.5 490,-30.5 490,-0.5 359,-0.5"/>
<text text-anchor="start" x="367" y="-18.5" font-family="Helvetica,sans-Serif" font-size="10.00">unsupported/Eigen/CXX11</text>
<text text-anchor="middle" x="424.5" y="-7.5" font-family="Helvetica,sans-Serif" font-size="10.00">/Tensor</text>
</a>
</g>
</g>
<!-- Node9&#45;&gt;Node12 -->
<g id="edge12" class="edge">
<title>Node9&#45;&gt;Node12</title>
<path fill="none" stroke="midnightblue" d="M322.55,-67.48C339.42,-59.04 365.79,-45.86 387.48,-35.01"/>
<polygon fill="midnightblue" stroke="midnightblue" points="389.08,-38.13 396.45,-30.52 385.94,-31.86 389.08,-38.13"/>
</g>
<!-- Node13&#45;&gt;Node4 -->
<g id="edge14" class="edge">
<title>Node13&#45;&gt;Node4</title>
<path fill="none" stroke="midnightblue" d="M424.95,-123.44C449.63,-114.44 488.69,-100.19 516.48,-90.05"/>
<polygon fill="midnightblue" stroke="midnightblue" points="517.96,-93.23 526.16,-86.52 515.56,-86.66 517.96,-93.23"/>
</g>
<!-- Node13&#45;&gt;Node9 -->
<g id="edge15" class="edge">
<title>Node13&#45;&gt;Node9</title>
<path fill="none" stroke="midnightblue" d="M386.08,-123.32C370.96,-114.82 347.68,-101.73 330.03,-91.8"/>
<polygon fill="midnightblue" stroke="midnightblue" points="331.32,-88.51 320.89,-86.65 327.89,-94.61 331.32,-88.51"/>
</g>
<!-- Node15 -->
<g id="node15" class="node">
<title>Node15</title>
<g id="a_node15"><a xlink:href="MarmotMaterialMechanical_8h.html" target="_top" xlink:title=" ">
<polygon fill="white" stroke="black" points="725,-123.5 725,-142.5 902,-142.5 902,-123.5 725,-123.5"/>
<text text-anchor="middle" x="813.5" y="-130.5" font-family="Helvetica,sans-Serif" font-size="10.00">Marmot/MarmotMaterialMechanical.h</text>
</a>
</g>
</g>
<!-- Node14&#45;&gt;Node15 -->
<g id="edge17" class="edge">
<title>Node14&#45;&gt;Node15</title>
<path fill="none" stroke="midnightblue" d="M807.4,-179.4C808.47,-171.38 809.84,-161.23 811,-152.57"/>
<polygon fill="midnightblue" stroke="midnightblue" points="814.47,-153.04 812.34,-142.66 807.53,-152.1 814.47,-153.04"/>
</g>
<!-- Node16 -->
<g id="node16" class="node">
<title>Node16</title>
<g id="a_node16"><a xlink:href="MarmotMaterial_8h.html" target="_top" xlink:title=" ">
<polygon fill="white" stroke="black" points="749.5,-67.5 749.5,-86.5 877.5,-86.5 877.5,-67.5 749.5,-67.5"/>
<text text-anchor="middle" x="813.5" y="-74.5" font-family="Helvetica,sans-Serif" font-size="10.00">Marmot/MarmotMaterial.h</text>
</a>
</g>
</g>
<!-- Node15&#45;&gt;Node16 -->
<g id="edge18" class="edge">
<title>Node15&#45;&gt;Node16</title>
<path fill="none" stroke="midnightblue" d="M813.5,-123.08C813.5,-116.01 813.5,-105.86 813.5,-96.99"/>
<polygon fill="midnightblue" stroke="midnightblue" points="817,-96.75 813.5,-86.75 810,-96.75 817,-96.75"/>
</g>
<!-- Node16&#45;&gt;Node7 -->
<g id="edge20" class="edge">
<title>Node16&#45;&gt;Node7</title>
<path fill="none" stroke="midnightblue" d="M800.46,-67.48C785.73,-57.84 761.53,-42.02 743.99,-30.55"/>
<polygon fill="midnightblue" stroke="midnightblue" points="745.8,-27.55 735.51,-25.01 741.97,-33.41 745.8,-27.55"/>
</g>
<!-- Node17 -->
<g id="node17" class="node">
<title>Node17</title>
<g id="a_node17"><a xlink:href="MarmotUtils_8h.html" target="_top" xlink:title=" ">
<polygon fill="white" stroke="black" points="761,-6 761,-25 874,-25 874,-6 761,-6"/>
<text text-anchor="middle" x="817.5" y="-13" font-family="Helvetica,sans-Serif" font-size="10.00">Marmot/MarmotUtils.h</text>
</a>
</g>
</g>
<!-- Node16&#45;&gt;Node17 -->
<g id="edge19" class="edge">
<title>Node16&#45;&gt;Node17</title>
<path fill="none" stroke="midnightblue" d="M814.07,-67.48C814.64,-59.08 815.52,-45.98 816.25,-35.16"/>
<polygon fill="midnightblue" stroke="midnightblue" points="819.75,-35.22 816.93,-25.01 812.76,-34.75 819.75,-35.22"/>
</g>
<!-- Node18&#45;&gt;Node2 -->
<g id="edge22" class="edge">
<title>Node18&#45;&gt;Node2</title>
<path fill="none" stroke="midnightblue" d="M161.03,-184.98C143.22,-175.17 113.76,-158.93 92.87,-147.42"/>
<polygon fill="midnightblue" stroke="midnightblue" points="94.39,-144.27 83.95,-142.51 91.01,-150.4 94.39,-144.27"/>
</g>
<!-- Node18&#45;&gt;Node9 -->
<g id="edge23" class="edge">
<title>Node18&#45;&gt;Node9</title>
<path fill="none" stroke="midnightblue" d="M174.8,-184.62C172.56,-170.09 170.38,-141.05 184.5,-123 197.38,-106.54 216.93,-96.1 236.58,-89.48"/>
<polygon fill="midnightblue" stroke="midnightblue" points="237.67,-92.81 246.2,-86.53 235.62,-86.11 237.67,-92.81"/>
</g>
<!-- Node19 -->
<g id="node19" class="node">
<title>Node19</title>
<g id="a_node19"><a xlink:title=" ">
<polygon fill="white" stroke="#bfbfbf" points="193.5,-123.5 193.5,-142.5 249.5,-142.5 249.5,-123.5 193.5,-123.5"/>
<text text-anchor="middle" x="221.5" y="-130.5" font-family="Helvetica,sans-Serif" font-size="10.00">algorithm</text>
</a>
</g>
</g>
<!-- Node18&#45;&gt;Node19 -->
<g id="edge24" class="edge">
<title>Node18&#45;&gt;Node19</title>
<path fill="none" stroke="midnightblue" d="M182.95,-184.98C189.7,-176.05 200.47,-161.81 208.91,-150.64"/>
<polygon fill="midnightblue" stroke="midnightblue" points="211.82,-152.6 215.06,-142.51 206.24,-148.37 211.82,-152.6"/>
</g>
<!-- Node20&#45;&gt;Node4 -->
<g id="edge26" class="edge">
<title>Node20&#45;&gt;Node4</title>
<path fill="none" stroke="midnightblue" d="M575.4,-184.82C570.88,-166.17 560.15,-121.94 554.02,-96.63"/>
<polygon fill="midnightblue" stroke="midnightblue" points="557.39,-95.68 551.63,-86.78 550.58,-97.33 557.39,-95.68"/>
</g>
<!-- Node20&#45;&gt;Node5 -->
<g id="edge29" class="edge">
<title>Node20&#45;&gt;Node5</title>
<path fill="none" stroke="midnightblue" d="M594.22,-184.97C609.03,-176.47 629.88,-161.96 640.5,-143 659.72,-108.68 659.97,-61.05 658.32,-35.13"/>
<polygon fill="midnightblue" stroke="midnightblue" points="661.81,-34.85 657.52,-25.16 654.83,-35.41 661.81,-34.85"/>
</g>
<!-- Node20&#45;&gt;Node9 -->
<g id="edge27" class="edge">
<title>Node20&#45;&gt;Node9</title>
<path fill="none" stroke="midnightblue" d="M566.7,-184.89C547.82,-170.24 507.16,-140.34 468.5,-123 433.94,-107.49 392.81,-96.19 360.51,-88.78"/>
<polygon fill="midnightblue" stroke="midnightblue" points="360.87,-85.28 350.35,-86.52 359.35,-92.11 360.87,-85.28"/>
</g>
<!-- Node20&#45;&gt;Node13 -->
<g id="edge28" class="edge">
<title>Node20&#45;&gt;Node13</title>
<path fill="none" stroke="midnightblue" d="M552.28,-184.98C521.83,-174.68 470.45,-157.31 436.26,-145.75"/>
<polygon fill="midnightblue" stroke="midnightblue" points="437.26,-142.4 426.67,-142.51 435.02,-149.03 437.26,-142.4"/>
</g>
<!-- Node21 -->
<g id="node21" class="node">
<title>Node21</title>
<g id="a_node21"><a xlink:title=" ">
<polygon fill="white" stroke="#bfbfbf" points="592,-123.5 592,-142.5 631,-142.5 631,-123.5 592,-123.5"/>
<text text-anchor="middle" x="611.5" y="-130.5" font-family="Helvetica,sans-Serif" font-size="10.00">utility</text>
</a>
</g>
</g>
<!-- Node20&#45;&gt;Node21 -->
<g id="edge30" class="edge">
<title>Node20&#45;&gt;Node21</title>
<path fill="none" stroke="midnightblue" d="M582.37,-184.98C587.37,-176.23 595.29,-162.37 601.61,-151.31"/>
<polygon fill="midnightblue" stroke="midnightblue" points="604.72,-152.93 606.64,-142.51 598.64,-149.46 604.72,-152.93"/>
</g>
</g>
</svg>
        <g id="navigator" transform="translate(0 0)" fill="#404254">
                <rect fill="#f2f5e9" fill-opacity="0.5" stroke="#606060" stroke-width=".5" x="0" y="0" width="60" height="60"/>
                <use id="zoomplus" xlink:href="#zoomPlus" x="17" y="9" onmousedown="handleZoom(evt,'in')"/>
                <use id="zoomminus" xlink:href="#zoomMin" x="42" y="9" onmousedown="handleZoom(evt,'out')"/>
                <use id="reset" xlink:href="#resetDef" x="30" y="36" onmousedown="handleReset()"/>
                <g id="arrowUp" xlink:href="#dirArrow" transform="translate(30 24)" onmousedown="handlePan(0,-1)">
                  <use xlink:href="#rim" fill="#404040">
                        <set attributeName="fill" to="#808080" begin="arrowUp.mouseover" end="arrowUp.mouseout"/>
                  </use>
                  <path fill="none" stroke="white" stroke-width="1.5" d="M0,-3.0v7 M-2.5,-0.5L0,-3.0L2.5,-0.5"/>
                </g>
                <g id="arrowRight" xlink:href="#dirArrow" transform="rotate(90) translate(36 -43)" onmousedown="handlePan(1,0)">
                  <use xlink:href="#rim" fill="#404040">
                        <set attributeName="fill" to="#808080" begin="arrowRight.mouseover" end="arrowRight.mouseout"/>
                  </use>
                  <path fill="none" stroke="white" stroke-width="1.5" d="M0,-3.0v7 M-2.5,-0.5L0,-3.0L2.5,-0.5"/>
                </g>
                <g id="arrowDown" xlink:href="#dirArrow" transform="rotate(180) translate(-30 -48)" onmousedown="handlePan(0,1)">
                  <use xlink:href="#rim" fill="#404040">
                        <set attributeName="fill" to="#808080" begin="arrowDown.mouseover" end="arrowDown.mouseout"/>
                  </use>
                  <path fill="none" stroke="white" stroke-width="1.5" d="M0,-3.0v7 M-2.5,-0.5L0,-3.0L2.5,-0.5"/>
                </g>
                <g id="arrowLeft" xlink:href="#dirArrow" transform="rotate(270) translate(-36 17)" onmousedown="handlePan(-1,0)">
                  <use xlink:href="#rim" fill="#404040">
                        <set attributeName="fill" to="#808080" begin="arrowLeft.mouseover" end="arrowLeft.mouseout"/>
                  </use>
                  <path fill="none" stroke="white" stroke-width="1.5" d="M0,-3.0v7 M-2.5,-0.5L0,-3.0L2.5,-0.5"/>
                </g>
        </g>
        <svg viewBox="0 0 15 15" width="100%" height="30px" preserveAspectRatio="xMaxYMin meet">
         <g id="arrow_out" transform="scale(0.3 0.3)">
          <a xlink:href="MarmotMaterialHyperElastic_8cpp__incl_org.svg" target="_base">
           <rect id="button" ry="5" rx="5" y="6" x="6" height="38" width="38"
                fill="#f2f5e9" fill-opacity="0.5" stroke="#606060" stroke-width="1.0"/>
           <path id="arrow"
             d="M 11.500037,31.436501 C 11.940474,20.09759 22.043105,11.32322 32.158766,21.979434 L 37.068811,17.246167 C 37.068811,17.246167 37.088388,32 37.088388,32 L 22.160133,31.978069 C 22.160133,31.978069 26.997745,27.140456 26.997745,27.140456 C 18.528582,18.264221 13.291696,25.230495 11.500037,31.436501 z"
             style="fill:#404040;"/>
          </a>
         </g>
        </svg>
</svg>
