<?xml version="1.0" encoding="UTF-8" standalone="no"?>
<!DOCTYPE svg PUBLIC "-//W3C//DTD SVG 1.1//EN"
 "http://www.w3.org/Graphics/SVG/1.1/DTD/svg11.dtd">
<!-- Generated by graphviz version 2.44.0 ()
 -->
<!-- Title: modules/core/MarmotFiniteStrainMechanicsCore/include/Marmot/MarmotStressMeasures.h Pages: 1 -->
<svg width="1074pt" height="419pt"
 viewBox="0.00 0.00 1074.18 419.00" xmlns="http://www.w3.org/2000/svg" xmlns:xlink="http://www.w3.org/1999/xlink">
<g id="graph0" class="graph" transform="scale(1 1) rotate(0) translate(4 415)">
<title>modules/core/MarmotFiniteStrainMechanicsCore/include/Marmot/MarmotStressMeasures.h</title>
<polygon fill="white" stroke="transparent" points="-4,4 -4,-415 1070.18,-415 1070.18,4 -4,4"/>
<!-- Node1 -->
<g id="node1" class="node">
<title>Node1</title>
<g id="a_node1"><a xlink:title=" ">
<polygon fill="#bfbfbf" stroke="black" points="119.68,-369.5 119.68,-410.5 286.68,-410.5 286.68,-369.5 119.68,-369.5"/>
<text text-anchor="start" x="127.68" y="-398.5" font-family="Helvetica,sans-Serif" font-size="10.00">modules/core/MarmotFinite</text>
<text text-anchor="start" x="127.68" y="-387.5" font-family="Helvetica,sans-Serif" font-size="10.00">StrainMechanicsCore/include</text>
<text text-anchor="middle" x="203.18" y="-376.5" font-family="Helvetica,sans-Serif" font-size="10.00">/Marmot/MarmotStressMeasures.h</text>
</a>
</g>
</g>
<!-- Node2 -->
<g id="node2" class="node">
<title>Node2</title>
<g id="a_node2"><a xlink:href="MarmotFastorTensorBasics_8h.html" target="_top" xlink:title=" ">
<polygon fill="white" stroke="black" points="58.68,-302.5 58.68,-332.5 201.68,-332.5 201.68,-302.5 58.68,-302.5"/>
<text text-anchor="start" x="66.68" y="-320.5" font-family="Helvetica,sans-Serif" font-size="10.00">Marmot/MarmotFastorTensor</text>
<text text-anchor="middle" x="130.18" y="-309.5" font-family="Helvetica,sans-Serif" font-size="10.00">Basics.h</text>
</a>
</g>
</g>
<!-- Node1&#45;&gt;Node2 -->
<g id="edge1" class="edge">
<title>Node1&#45;&gt;Node2</title>
<path fill="none" stroke="midnightblue" d="M182.84,-369.36C173.39,-360.23 162.12,-349.35 152.44,-340"/>
<polygon fill="midnightblue" stroke="midnightblue" points="154.7,-337.32 145.08,-332.89 149.84,-342.36 154.7,-337.32"/>
</g>
<!-- Node23 -->
<g id="node23" class="node">
<title>Node23</title>
<g id="a_node23"><a xlink:title=" ">
<polygon fill="white" stroke="#bfbfbf" points="219.68,-308 219.68,-327 334.68,-327 334.68,-308 219.68,-308"/>
<text text-anchor="middle" x="277.18" y="-315" font-family="Helvetica,sans-Serif" font-size="10.00">Fastor/tensor/Tensor.h</text>
</a>
</g>
</g>
<!-- Node1&#45;&gt;Node23 -->
<g id="edge28" class="edge">
<title>Node1&#45;&gt;Node23</title>
<path fill="none" stroke="midnightblue" d="M223.79,-369.36C235.38,-358.32 249.65,-344.72 260.52,-334.37"/>
<polygon fill="midnightblue" stroke="midnightblue" points="263.25,-336.61 268.07,-327.17 258.42,-331.54 263.25,-336.61"/>
</g>
<!-- Node3 -->
<g id="node3" class="node">
<title>Node3</title>
<g id="a_node3"><a xlink:title=" ">
<polygon fill="white" stroke="#bfbfbf" points="38.18,-6 38.18,-25 102.18,-25 102.18,-6 38.18,-6"/>
<text text-anchor="middle" x="70.18" y="-13" font-family="Helvetica,sans-Serif" font-size="10.00">Eigen/Core</text>
</a>
</g>
</g>
<!-- Node2&#45;&gt;Node3 -->
<g id="edge2" class="edge">
<title>Node2&#45;&gt;Node3</title>
<path fill="none" stroke="midnightblue" d="M76.22,-302.49C55.84,-294.75 34.01,-283.12 19.18,-266 -0.53,-243.26 0.18,-231.1 0.18,-201 0.18,-201 0.18,-201 0.18,-143 0.18,-108.07 2.86,-97.33 20.18,-67 27.9,-53.47 40.17,-41.01 50.62,-31.84"/>
<polygon fill="midnightblue" stroke="midnightblue" points="53.07,-34.35 58.49,-25.25 48.58,-28.99 53.07,-34.35"/>
</g>
<!-- Node4 -->
<g id="node4" class="node">
<title>Node4</title>
<g id="a_node4"><a xlink:title=" ">
<polygon fill="white" stroke="#bfbfbf" points="28.68,-246.5 28.68,-265.5 111.68,-265.5 111.68,-246.5 28.68,-246.5"/>
<text text-anchor="middle" x="70.18" y="-253.5" font-family="Helvetica,sans-Serif" font-size="10.00">Fastor/Fastor.h</text>
</a>
</g>
</g>
<!-- Node2&#45;&gt;Node4 -->
<g id="edge3" class="edge">
<title>Node2&#45;&gt;Node4</title>
<path fill="none" stroke="midnightblue" d="M115.96,-302.4C106.97,-293.49 95.34,-281.95 86.05,-272.74"/>
<polygon fill="midnightblue" stroke="midnightblue" points="88.47,-270.21 78.91,-265.66 83.54,-275.18 88.47,-270.21"/>
</g>
<!-- Node5 -->
<g id="node5" class="node">
<title>Node5</title>
<g id="a_node5"><a xlink:href="MarmotTensor_8h.html" target="_top" xlink:title=" ">
<polygon fill="white" stroke="black" points="129.68,-246.5 129.68,-265.5 252.68,-265.5 252.68,-246.5 129.68,-246.5"/>
<text text-anchor="middle" x="191.18" y="-253.5" font-family="Helvetica,sans-Serif" font-size="10.00">Marmot/MarmotTensor.h</text>
</a>
</g>
</g>
<!-- Node2&#45;&gt;Node5 -->
<g id="edge4" class="edge">
<title>Node2&#45;&gt;Node5</title>
<path fill="none" stroke="midnightblue" d="M144.63,-302.4C153.77,-293.49 165.6,-281.95 175.04,-272.74"/>
<polygon fill="midnightblue" stroke="midnightblue" points="177.59,-275.15 182.3,-265.66 172.7,-270.13 177.59,-275.15"/>
</g>
<!-- Node20 -->
<g id="node20" class="node">
<title>Node20</title>
<g id="a_node20"><a xlink:title=" ">
<polygon fill="white" stroke="#bfbfbf" points="962.18,-67.5 962.18,-97.5 1066.18,-97.5 1066.18,-67.5 962.18,-67.5"/>
<text text-anchor="start" x="970.18" y="-85.5" font-family="Helvetica,sans-Serif" font-size="10.00">autodiff/forward/dual</text>
<text text-anchor="middle" x="1014.18" y="-74.5" font-family="Helvetica,sans-Serif" font-size="10.00">/dual.hpp</text>
</a>
</g>
</g>
<!-- Node2&#45;&gt;Node20 -->
<g id="edge27" class="edge">
<title>Node2&#45;&gt;Node20</title>
<path fill="none" stroke="midnightblue" d="M183.49,-302.45C338.15,-261.68 786.48,-143.52 951.9,-99.91"/>
<polygon fill="midnightblue" stroke="midnightblue" points="953.14,-103.21 961.92,-97.27 951.35,-96.44 953.14,-103.21"/>
</g>
<!-- Node6 -->
<g id="node6" class="node">
<title>Node6</title>
<g id="a_node6"><a xlink:href="MarmotJournal_8h.html" target="_top" xlink:title=" ">
<polygon fill="white" stroke="black" points="124.68,-134.5 124.68,-153.5 249.68,-153.5 249.68,-134.5 124.68,-134.5"/>
<text text-anchor="middle" x="187.18" y="-141.5" font-family="Helvetica,sans-Serif" font-size="10.00">Marmot/MarmotJournal.h</text>
</a>
</g>
</g>
<!-- Node5&#45;&gt;Node6 -->
<g id="edge5" class="edge">
<title>Node5&#45;&gt;Node6</title>
<path fill="none" stroke="midnightblue" d="M190.86,-246.37C190.22,-228.62 188.73,-187.67 187.85,-163.6"/>
<polygon fill="midnightblue" stroke="midnightblue" points="191.35,-163.46 187.49,-153.59 184.36,-163.71 191.35,-163.46"/>
</g>
<!-- Node7 -->
<g id="node7" class="node">
<title>Node7</title>
<g id="a_node7"><a xlink:title=" ">
<polygon fill="white" stroke="#bfbfbf" points="29.18,-73 29.18,-92 83.18,-92 83.18,-73 29.18,-73"/>
<text text-anchor="middle" x="56.18" y="-80" font-family="Helvetica,sans-Serif" font-size="10.00">iostream</text>
</a>
</g>
</g>
<!-- Node5&#45;&gt;Node7 -->
<g id="edge25" class="edge">
<title>Node5&#45;&gt;Node7</title>
<path fill="none" stroke="midnightblue" d="M184.3,-246.26C162.9,-219.08 97.27,-135.71 69.17,-100.01"/>
<polygon fill="midnightblue" stroke="midnightblue" points="71.82,-97.71 62.88,-92.02 66.32,-102.04 71.82,-97.71"/>
</g>
<!-- Node10 -->
<g id="node10" class="node">
<title>Node10</title>
<g id="a_node10"><a xlink:href="MarmotTypedefs_8h.html" target="_top" xlink:title=" ">
<polygon fill="white" stroke="black" points="231.68,-73 231.68,-92 364.68,-92 364.68,-73 231.68,-73"/>
<text text-anchor="middle" x="298.18" y="-80" font-family="Helvetica,sans-Serif" font-size="10.00">Marmot/MarmotTypedefs.h</text>
</a>
</g>
</g>
<!-- Node5&#45;&gt;Node10 -->
<g id="edge9" class="edge">
<title>Node5&#45;&gt;Node10</title>
<path fill="none" stroke="midnightblue" d="M197.12,-246.48C209.07,-229.26 236.7,-188.96 258.18,-154 269.07,-136.27 280.73,-115.5 288.63,-101.12"/>
<polygon fill="midnightblue" stroke="midnightblue" points="291.72,-102.75 293.44,-92.3 285.58,-99.4 291.72,-102.75"/>
</g>
<!-- Node13 -->
<g id="node13" class="node">
<title>Node13</title>
<g id="a_node13"><a xlink:href="MarmotVoigt_8h.html" target="_top" xlink:title=" ">
<polygon fill="white" stroke="black" points="306.18,-190.5 306.18,-209.5 422.18,-209.5 422.18,-190.5 306.18,-190.5"/>
<text text-anchor="middle" x="364.18" y="-197.5" font-family="Helvetica,sans-Serif" font-size="10.00">Marmot/MarmotVoigt.h</text>
</a>
</g>
</g>
<!-- Node5&#45;&gt;Node13 -->
<g id="edge13" class="edge">
<title>Node5&#45;&gt;Node13</title>
<path fill="none" stroke="midnightblue" d="M218.59,-246.44C247.95,-237.28 294.7,-222.69 327.27,-212.52"/>
<polygon fill="midnightblue" stroke="midnightblue" points="328.39,-215.84 336.89,-209.52 326.31,-209.16 328.39,-215.84"/>
</g>
<!-- Node22 -->
<g id="node22" class="node">
<title>Node22</title>
<g id="a_node22"><a xlink:title=" ">
<polygon fill="white" stroke="#bfbfbf" points="28.68,-190.5 28.68,-209.5 67.68,-209.5 67.68,-190.5 28.68,-190.5"/>
<text text-anchor="middle" x="48.18" y="-197.5" font-family="Helvetica,sans-Serif" font-size="10.00">utility</text>
</a>
</g>
</g>
<!-- Node5&#45;&gt;Node22 -->
<g id="edge26" class="edge">
<title>Node5&#45;&gt;Node22</title>
<path fill="none" stroke="midnightblue" d="M168.52,-246.44C143.94,-237.16 104.6,-222.31 77.64,-212.13"/>
<polygon fill="midnightblue" stroke="midnightblue" points="78.56,-208.73 67.97,-208.47 76.09,-215.28 78.56,-208.73"/>
</g>
<!-- Node6&#45;&gt;Node7 -->
<g id="edge6" class="edge">
<title>Node6&#45;&gt;Node7</title>
<path fill="none" stroke="midnightblue" d="M168.41,-134.48C146.33,-124.45 109.46,-107.7 84.04,-96.15"/>
<polygon fill="midnightblue" stroke="midnightblue" points="85.46,-92.96 74.91,-92.01 82.57,-99.33 85.46,-92.96"/>
</g>
<!-- Node8 -->
<g id="node8" class="node">
<title>Node8</title>
<g id="a_node8"><a xlink:title=" ">
<polygon fill="white" stroke="#bfbfbf" points="161.18,-73 161.18,-92 213.18,-92 213.18,-73 161.18,-73"/>
<text text-anchor="middle" x="187.18" y="-80" font-family="Helvetica,sans-Serif" font-size="10.00">sstream</text>
</a>
</g>
</g>
<!-- Node6&#45;&gt;Node8 -->
<g id="edge7" class="edge">
<title>Node6&#45;&gt;Node8</title>
<path fill="none" stroke="midnightblue" d="M187.18,-134.48C187.18,-126.08 187.18,-112.98 187.18,-102.16"/>
<polygon fill="midnightblue" stroke="midnightblue" points="190.68,-102.01 187.18,-92.01 183.68,-102.01 190.68,-102.01"/>
</g>
<!-- Node9 -->
<g id="node9" class="node">
<title>Node9</title>
<g id="a_node9"><a xlink:title=" ">
<polygon fill="white" stroke="#bfbfbf" points="101.68,-73 101.68,-92 142.68,-92 142.68,-73 101.68,-73"/>
<text text-anchor="middle" x="122.18" y="-80" font-family="Helvetica,sans-Serif" font-size="10.00">string</text>
</a>
</g>
</g>
<!-- Node6&#45;&gt;Node9 -->
<g id="edge8" class="edge">
<title>Node6&#45;&gt;Node9</title>
<path fill="none" stroke="midnightblue" d="M177.87,-134.48C167.73,-125.2 151.31,-110.17 138.93,-98.83"/>
<polygon fill="midnightblue" stroke="midnightblue" points="141.21,-96.18 131.47,-92.01 136.49,-101.34 141.21,-96.18"/>
</g>
<!-- Node10&#45;&gt;Node3 -->
<g id="edge10" class="edge">
<title>Node10&#45;&gt;Node3</title>
<path fill="none" stroke="midnightblue" d="M267.9,-72.87C227.25,-61.28 154.93,-40.66 109.93,-27.83"/>
<polygon fill="midnightblue" stroke="midnightblue" points="110.79,-24.44 100.22,-25.06 108.87,-31.17 110.79,-24.44"/>
</g>
<!-- Node11 -->
<g id="node11" class="node">
<title>Node11</title>
<g id="a_node11"><a xlink:title=" ">
<polygon fill="white" stroke="#bfbfbf" points="300.68,-6 300.68,-25 371.68,-25 371.68,-6 300.68,-6"/>
<text text-anchor="middle" x="336.18" y="-13" font-family="Helvetica,sans-Serif" font-size="10.00">Eigen/Dense</text>
</a>
</g>
</g>
<!-- Node10&#45;&gt;Node11 -->
<g id="edge11" class="edge">
<title>Node10&#45;&gt;Node11</title>
<path fill="none" stroke="midnightblue" d="M303.3,-72.73C309.11,-62.79 318.73,-46.34 326.07,-33.79"/>
<polygon fill="midnightblue" stroke="midnightblue" points="329.11,-35.53 331.13,-25.13 323.07,-31.99 329.11,-35.53"/>
</g>
<!-- Node12 -->
<g id="node12" class="node">
<title>Node12</title>
<g id="a_node12"><a xlink:title=" ">
<polygon fill="white" stroke="#bfbfbf" points="151.68,-0.5 151.68,-30.5 282.68,-30.5 282.68,-0.5 151.68,-0.5"/>
<text text-anchor="start" x="159.68" y="-18.5" font-family="Helvetica,sans-Serif" font-size="10.00">unsupported/Eigen/CXX11</text>
<text text-anchor="middle" x="217.18" y="-7.5" font-family="Helvetica,sans-Serif" font-size="10.00">/Tensor</text>
</a>
</g>
</g>
<!-- Node10&#45;&gt;Node12 -->
<g id="edge12" class="edge">
<title>Node10&#45;&gt;Node12</title>
<path fill="none" stroke="midnightblue" d="M287.25,-72.73C275.89,-63.61 257.68,-49 242.68,-36.96"/>
<polygon fill="midnightblue" stroke="midnightblue" points="244.73,-34.12 234.74,-30.59 240.34,-39.58 244.73,-34.12"/>
</g>
<!-- Node13&#45;&gt;Node6 -->
<g id="edge14" class="edge">
<title>Node13&#45;&gt;Node6</title>
<path fill="none" stroke="midnightblue" d="M336.13,-190.44C306.1,-181.28 258.27,-166.69 224.94,-156.52"/>
<polygon fill="midnightblue" stroke="midnightblue" points="225.68,-153.09 215.09,-153.52 223.64,-159.78 225.68,-153.09"/>
</g>
<!-- Node13&#45;&gt;Node10 -->
<g id="edge24" class="edge">
<title>Node13&#45;&gt;Node10</title>
<path fill="none" stroke="midnightblue" d="M359.22,-190.32C348.42,-171.42 322.61,-126.25 308.25,-101.12"/>
<polygon fill="midnightblue" stroke="midnightblue" points="311.2,-99.23 303.2,-92.28 305.12,-102.7 311.2,-99.23"/>
</g>
<!-- Node14 -->
<g id="node14" class="node">
<title>Node14</title>
<g id="a_node14"><a xlink:href="MarmotMath_8h.html" target="_top" xlink:title=" ">
<polygon fill="white" stroke="black" points="610.68,-134.5 610.68,-153.5 725.68,-153.5 725.68,-134.5 610.68,-134.5"/>
<text text-anchor="middle" x="668.18" y="-141.5" font-family="Helvetica,sans-Serif" font-size="10.00">Marmot/MarmotMath.h</text>
</a>
</g>
</g>
<!-- Node13&#45;&gt;Node14 -->
<g id="edge15" class="edge">
<title>Node13&#45;&gt;Node14</title>
<path fill="none" stroke="midnightblue" d="M412.35,-190.44C466.05,-180.9 552.86,-165.48 610.23,-155.29"/>
<polygon fill="midnightblue" stroke="midnightblue" points="611,-158.71 620.23,-153.52 609.78,-151.82 611,-158.71"/>
</g>
<!-- Node14&#45;&gt;Node10 -->
<g id="edge18" class="edge">
<title>Node14&#45;&gt;Node10</title>
<path fill="none" stroke="midnightblue" d="M610.41,-134.88C550.86,-126.34 455.37,-112.21 373.18,-98 365.99,-96.76 358.43,-95.38 350.99,-93.98"/>
<polygon fill="midnightblue" stroke="midnightblue" points="351.44,-90.5 340.96,-92.07 350.13,-97.38 351.44,-90.5"/>
</g>
<!-- Node15 -->
<g id="node15" class="node">
<title>Node15</title>
<g id="a_node15"><a xlink:href="MarmotConstants_8h.html" target="_top" xlink:title=" ">
<polygon fill="white" stroke="black" points="382.68,-73 382.68,-92 519.68,-92 519.68,-73 382.68,-73"/>
<text text-anchor="middle" x="451.18" y="-80" font-family="Helvetica,sans-Serif" font-size="10.00">Marmot/MarmotConstants.h</text>
</a>
</g>
</g>
<!-- Node14&#45;&gt;Node15 -->
<g id="edge16" class="edge">
<title>Node14&#45;&gt;Node15</title>
<path fill="none" stroke="midnightblue" d="M637.09,-134.48C598.9,-124 534.01,-106.21 491.88,-94.66"/>
<polygon fill="midnightblue" stroke="midnightblue" points="492.78,-91.28 482.21,-92.01 490.93,-98.03 492.78,-91.28"/>
</g>
<!-- Node17 -->
<g id="node17" class="node">
<title>Node17</title>
<g id="a_node17"><a xlink:title=" ">
<polygon fill="white" stroke="#bfbfbf" points="538.18,-73 538.18,-92 660.18,-92 660.18,-73 538.18,-73"/>
<text text-anchor="middle" x="599.18" y="-80" font-family="Helvetica,sans-Serif" font-size="10.00">autodiff/forward/dual.hpp</text>
</a>
</g>
</g>
<!-- Node14&#45;&gt;Node17 -->
<g id="edge19" class="edge">
<title>Node14&#45;&gt;Node17</title>
<path fill="none" stroke="midnightblue" d="M658.29,-134.48C647.53,-125.2 630.11,-110.17 616.96,-98.83"/>
<polygon fill="midnightblue" stroke="midnightblue" points="618.9,-95.89 609.05,-92.01 614.33,-101.19 618.9,-95.89"/>
</g>
<!-- Node18 -->
<g id="node18" class="node">
<title>Node18</title>
<g id="a_node18"><a xlink:title=" ">
<polygon fill="white" stroke="#bfbfbf" points="678.18,-73 678.18,-92 798.18,-92 798.18,-73 678.18,-73"/>
<text text-anchor="middle" x="738.18" y="-80" font-family="Helvetica,sans-Serif" font-size="10.00">autodiff/forward/real.hpp</text>
</a>
</g>
</g>
<!-- Node14&#45;&gt;Node18 -->
<g id="edge20" class="edge">
<title>Node14&#45;&gt;Node18</title>
<path fill="none" stroke="midnightblue" d="M678.21,-134.48C689.23,-125.11 707.14,-109.88 720.52,-98.51"/>
<polygon fill="midnightblue" stroke="midnightblue" points="722.81,-101.15 728.17,-92.01 718.28,-95.82 722.81,-101.15"/>
</g>
<!-- Node19 -->
<g id="node19" class="node">
<title>Node19</title>
<g id="a_node19"><a xlink:title=" ">
<polygon fill="white" stroke="#bfbfbf" points="816.18,-73 816.18,-92 872.18,-92 872.18,-73 816.18,-73"/>
<text text-anchor="middle" x="844.18" y="-80" font-family="Helvetica,sans-Serif" font-size="10.00">algorithm</text>
</a>
</g>
</g>
<!-- Node14&#45;&gt;Node19 -->
<g id="edge21" class="edge">
<title>Node14&#45;&gt;Node19</title>
<path fill="none" stroke="midnightblue" d="M696.3,-134.44C724.5,-125.73 769.08,-111.62 807.18,-98 809.29,-97.25 811.46,-96.45 813.64,-95.63"/>
<polygon fill="midnightblue" stroke="midnightblue" points="815.04,-98.85 823.13,-92 812.54,-92.31 815.04,-98.85"/>
</g>
<!-- Node14&#45;&gt;Node20 -->
<g id="edge22" class="edge">
<title>Node14&#45;&gt;Node20</title>
<path fill="none" stroke="midnightblue" d="M725.78,-135.12C783.31,-126.97 874.16,-113.28 952.18,-98 952.28,-97.98 952.38,-97.96 952.48,-97.94"/>
<polygon fill="midnightblue" stroke="midnightblue" points="953.05,-101.4 962.14,-95.96 951.64,-94.54 953.05,-101.4"/>
</g>
<!-- Node21 -->
<g id="node21" class="node">
<title>Node21</title>
<g id="a_node21"><a xlink:title=" ">
<polygon fill="white" stroke="#bfbfbf" points="890.68,-73 890.68,-92 943.68,-92 943.68,-73 890.68,-73"/>
<text text-anchor="middle" x="917.18" y="-80" font-family="Helvetica,sans-Serif" font-size="10.00">complex</text>
</a>
</g>
</g>
<!-- Node14&#45;&gt;Node21 -->
<g id="edge23" class="edge">
<title>Node14&#45;&gt;Node21</title>
<path fill="none" stroke="midnightblue" d="M721.35,-134.43C764.84,-126.79 827.67,-114.29 881.18,-98 883.46,-97.3 885.8,-96.52 888.14,-95.69"/>
<polygon fill="midnightblue" stroke="midnightblue" points="889.49,-98.93 897.59,-92.11 887,-92.38 889.49,-98.93"/>
</g>
<!-- Node16 -->
<g id="node16" class="node">
<title>Node16</title>
<g id="a_node16"><a xlink:title=" ">
<polygon fill="white" stroke="#bfbfbf" points="429.18,-6 429.18,-25 473.18,-25 473.18,-6 429.18,-6"/>
<text text-anchor="middle" x="451.18" y="-13" font-family="Helvetica,sans-Serif" font-size="10.00">cmath</text>
</a>
</g>
</g>
<!-- Node15&#45;&gt;Node16 -->
<g id="edge17" class="edge">
<title>Node15&#45;&gt;Node16</title>
<path fill="none" stroke="midnightblue" d="M451.18,-72.73C451.18,-63.18 451.18,-47.62 451.18,-35.28"/>
<polygon fill="midnightblue" stroke="midnightblue" points="454.68,-35.13 451.18,-25.13 447.68,-35.13 454.68,-35.13"/>
</g>
</g>
</svg>
