<?xml version="1.0" encoding="UTF-8" standalone="no"?>
<!DOCTYPE svg PUBLIC "-//W3C//DTD SVG 1.1//EN"
 "http://www.w3.org/Graphics/SVG/1.1/DTD/svg11.dtd">
<!-- Generated by graphviz version 2.44.0 ()
 -->
<!-- Title: modules/core/MarmotMechanicsCore/include/Marmot/MarmotMaterialHypoElastic.h Pages: 1 -->
<!--zoomable 273 -->
<svg id="main" version="1.1" xmlns="http://www.w3.org/2000/svg" xmlns:xlink="http://www.w3.org/1999/xlink" xml:space="preserve" onload="init(evt)">
<style type="text/css"><![CDATA[
.edge:hover path { stroke: red; }
.edge:hover polygon { stroke: red; fill: red; }
]]></style>
<script type="text/javascript"><![CDATA[
var edges = document.getElementsByTagName('g');
if (edges && edges.length) {
  for (var i=0;i<edges.length;i++) {
    if (edges[i].id.substr(0,4)=='edge') {
      edges[i].setAttribute('class','edge');
    }
  }
}
]]></script>
        <defs>
                <circle id="rim" cx="0" cy="0" r="7"/>
                <circle id="rim2" cx="0" cy="0" r="3.5"/>
                <g id="zoomPlus">
                        <use xlink:href="#rim" fill="#404040">
                                <set attributeName="fill" to="#808080" begin="zoomplus.mouseover" end="zoomplus.mouseout"/>
                        </use>
                        <path d="M-4,0h8M0,-4v8" fill="none" stroke="white" stroke-width="1.5" pointer-events="none"/>
                </g>
                <g id="zoomMin">
                        <use xlink:href="#rim" fill="#404040">
                                <set attributeName="fill" to="#808080" begin="zoomminus.mouseover" end="zoomminus.mouseout"/>
                        </use>
                        <path d="M-4,0h8" fill="none" stroke="white" stroke-width="1.5" pointer-events="none"/>
                </g>
                <g id="dirArrow">
                        <path fill="none" stroke="white" stroke-width="1.5" d="M0,-3.0v7 M-2.5,-0.5L0,-3.0L2.5,-0.5"/>
                </g>
               <g id="resetDef">
                       <use xlink:href="#rim2" fill="#404040">
                               <set attributeName="fill" to="#808080" begin="reset.mouseover" end="reset.mouseout"/>
                       </use>
               </g>
        </defs>

<script type="text/javascript">
var viewWidth = 2125;
var viewHeight = 273;
var sectionId = 'dynsection-1';
</script>
<script xlink:href="svgpan.js"/>
<svg id="graph" class="graph">
<g id="viewport">
<title>modules/core/MarmotMechanicsCore/include/Marmot/MarmotMaterialHypoElastic.h</title>
<polygon fill="white" stroke="transparent" points="-4,4 -4,-269 2121,-269 2121,4 -4,4"/>
<!-- Node1 -->
<g id="node1" class="node">
<title>Node1</title>
<g id="a_node1"><a xlink:title=" ">
<polygon fill="#bfbfbf" stroke="black" points="815,-223.5 815,-264.5 992,-264.5 992,-223.5 815,-223.5"/>
<text text-anchor="start" x="823" y="-252.5" font-family="Helvetica,sans-Serif" font-size="10.00">modules/core/MarmotMechanics</text>
<text text-anchor="start" x="823" y="-241.5" font-family="Helvetica,sans-Serif" font-size="10.00">Core/include/Marmot/MarmotMaterial</text>
<text text-anchor="middle" x="903.5" y="-230.5" font-family="Helvetica,sans-Serif" font-size="10.00">HypoElastic.h</text>
</a>
</g>
</g>
<!-- Node2 -->
<g id="node2" class="node">
<title>Node2</title>
<g id="a_node2"><a xlink:href="MarmotTesting_8h.html" target="_top" xlink:title=" ">
<polygon fill="white" stroke="black" points="92,-156.5 92,-175.5 251,-175.5 251,-156.5 92,-156.5"/>
<text text-anchor="middle" x="171.5" y="-163.5" font-family="Helvetica,sans-Serif" font-size="10.00">include/Marmot/MarmotTesting.h</text>
</a>
</g>
</g>
<!-- Node1&#45;&gt;Node2 -->
<g id="edge1" class="edge">
<title>Node1&#45;&gt;Node2</title>
<path fill="none" stroke="midnightblue" d="M804.67,-238.61C677.83,-232.01 451.26,-216.98 259.5,-187 241.08,-184.12 220.77,-179.6 204.31,-175.58"/>
<polygon fill="midnightblue" stroke="midnightblue" points="804.59,-242.11 814.75,-239.13 804.95,-235.12 804.59,-242.11"/>
</g>
<!-- Node3 -->
<g id="node3" class="node">
<title>Node3</title>
<g id="a_node3"><a xlink:href="MarmotMaterialHypoElasticAD_8h.html" target="_top" xlink:title=" ">
<polygon fill="white" stroke="black" points="269,-145.5 269,-186.5 446,-186.5 446,-145.5 269,-145.5"/>
<text text-anchor="start" x="277" y="-174.5" font-family="Helvetica,sans-Serif" font-size="10.00">modules/core/MarmotMechanics</text>
<text text-anchor="start" x="277" y="-163.5" font-family="Helvetica,sans-Serif" font-size="10.00">Core/include/Marmot/MarmotMaterial</text>
<text text-anchor="middle" x="357.5" y="-152.5" font-family="Helvetica,sans-Serif" font-size="10.00">HypoElasticAD.h</text>
</a>
</g>
</g>
<!-- Node1&#45;&gt;Node3 -->
<g id="edge2" class="edge">
<title>Node1&#45;&gt;Node3</title>
<path fill="none" stroke="midnightblue" d="M804.55,-232.94C713.35,-223.12 574.4,-206.81 454.5,-187 451.79,-186.55 449.03,-186.08 446.25,-185.59"/>
<polygon fill="midnightblue" stroke="midnightblue" points="804.28,-236.43 814.6,-234.01 805.03,-229.47 804.28,-236.43"/>
</g>
<!-- Node11 -->
<g id="node11" class="node">
<title>Node11</title>
<g id="a_node11"><a xlink:href="MarmotMaterialHypoElastic_8cpp.html" target="_top" xlink:title=" ">
<polygon fill="white" stroke="black" points="463.5,-151 463.5,-181 657.5,-181 657.5,-151 463.5,-151"/>
<text text-anchor="start" x="471.5" y="-169" font-family="Helvetica,sans-Serif" font-size="10.00">modules/core/MarmotMechanics</text>
<text text-anchor="middle" x="560.5" y="-158" font-family="Helvetica,sans-Serif" font-size="10.00">Core/src/MarmotMaterialHypoElastic.cpp</text>
</a>
</g>
</g>
<!-- Node1&#45;&gt;Node11 -->
<g id="edge10" class="edge">
<title>Node1&#45;&gt;Node11</title>
<path fill="none" stroke="midnightblue" d="M805.2,-221.22C746.9,-208.3 674.71,-192.31 623.9,-181.05"/>
<polygon fill="midnightblue" stroke="midnightblue" points="804.65,-224.68 815.17,-223.43 806.16,-217.85 804.65,-224.68"/>
</g>
<!-- Node12 -->
<g id="node12" class="node">
<title>Node12</title>
<g id="a_node12"><a xlink:href="DisplacementFiniteElement_8h.html" target="_top" xlink:title=" ">
<polygon fill="white" stroke="black" points="675.5,-145.5 675.5,-186.5 833.5,-186.5 833.5,-145.5 675.5,-145.5"/>
<text text-anchor="start" x="683.5" y="-174.5" font-family="Helvetica,sans-Serif" font-size="10.00">modules/elements/Displacement</text>
<text text-anchor="start" x="683.5" y="-163.5" font-family="Helvetica,sans-Serif" font-size="10.00">FiniteElement/include/Marmot</text>
<text text-anchor="middle" x="754.5" y="-152.5" font-family="Helvetica,sans-Serif" font-size="10.00">/DisplacementFiniteElement.h</text>
</a>
</g>
</g>
<!-- Node1&#45;&gt;Node12 -->
<g id="edge11" class="edge">
<title>Node1&#45;&gt;Node12</title>
<path fill="none" stroke="midnightblue" d="M855.99,-218.77C835.57,-208.35 812.01,-196.34 792.74,-186.51"/>
<polygon fill="midnightblue" stroke="midnightblue" points="854.63,-222 865.13,-223.43 857.81,-215.77 854.63,-222"/>
</g>
<!-- Node14 -->
<g id="node14" class="node">
<title>Node14</title>
<g id="a_node14"><a xlink:href="B4_8h.html" target="_top" xlink:title=" ">
<polygon fill="white" stroke="black" points="890,-151 890,-181 1001,-181 1001,-151 890,-151"/>
<text text-anchor="start" x="898" y="-169" font-family="Helvetica,sans-Serif" font-size="10.00">modules/materials/B4</text>
<text text-anchor="middle" x="945.5" y="-158" font-family="Helvetica,sans-Serif" font-size="10.00">/include/Marmot/B4.h</text>
</a>
</g>
</g>
<!-- Node1&#45;&gt;Node14 -->
<g id="edge13" class="edge">
<title>Node1&#45;&gt;Node14</title>
<path fill="none" stroke="midnightblue" d="M919.17,-214.64C925.47,-203.25 932.45,-190.62 937.64,-181.23"/>
<polygon fill="midnightblue" stroke="midnightblue" points="916.09,-212.98 914.32,-223.43 922.22,-216.37 916.09,-212.98"/>
</g>
<!-- Node15 -->
<g id="node15" class="node">
<title>Node15</title>
<g id="a_node15"><a xlink:href="B4_8cpp.html" target="_top" xlink:title=" ">
<polygon fill="white" stroke="black" points="757,-73 757,-103 868,-103 868,-73 757,-73"/>
<text text-anchor="start" x="765" y="-91" font-family="Helvetica,sans-Serif" font-size="10.00">modules/materials/B4</text>
<text text-anchor="middle" x="812.5" y="-80" font-family="Helvetica,sans-Serif" font-size="10.00">/src/B4.cpp</text>
</a>
</g>
</g>
<!-- Node1&#45;&gt;Node15 -->
<g id="edge16" class="edge">
<title>Node1&#45;&gt;Node15</title>
<path fill="none" stroke="midnightblue" d="M886.83,-214.78C867.36,-181.85 835.94,-128.66 820.96,-103.32"/>
<polygon fill="midnightblue" stroke="midnightblue" points="883.87,-216.67 891.97,-223.5 889.9,-213.11 883.87,-216.67"/>
</g>
<!-- Node17 -->
<g id="node17" class="node">
<title>Node17</title>
<g id="a_node17"><a xlink:href="LinearElastic_8h.html" target="_top" xlink:title=" ">
<polygon fill="white" stroke="black" points="1029.5,-145.5 1029.5,-186.5 1155.5,-186.5 1155.5,-145.5 1029.5,-145.5"/>
<text text-anchor="start" x="1037.5" y="-174.5" font-family="Helvetica,sans-Serif" font-size="10.00">modules/materials/Linear</text>
<text text-anchor="start" x="1037.5" y="-163.5" font-family="Helvetica,sans-Serif" font-size="10.00">Elastic/include/Marmot</text>
<text text-anchor="middle" x="1092.5" y="-152.5" font-family="Helvetica,sans-Serif" font-size="10.00">/LinearElastic.h</text>
</a>
</g>
</g>
<!-- Node1&#45;&gt;Node17 -->
<g id="edge17" class="edge">
<title>Node1&#45;&gt;Node17</title>
<path fill="none" stroke="midnightblue" d="M961.67,-219.61C988.05,-209 1018.89,-196.6 1043.99,-186.51"/>
<polygon fill="midnightblue" stroke="midnightblue" points="960.14,-216.45 952.17,-223.43 962.76,-222.94 960.14,-216.45"/>
</g>
<!-- Node20 -->
<g id="node20" class="node">
<title>Node20</title>
<g id="a_node20"><a xlink:href="LinearViscoelasticPowerLaw_8h.html" target="_top" xlink:title=" ">
<polygon fill="white" stroke="black" points="1377.5,-145.5 1377.5,-186.5 1567.5,-186.5 1567.5,-145.5 1377.5,-145.5"/>
<text text-anchor="start" x="1385.5" y="-174.5" font-family="Helvetica,sans-Serif" font-size="10.00">modules/materials/Linear</text>
<text text-anchor="start" x="1385.5" y="-163.5" font-family="Helvetica,sans-Serif" font-size="10.00">ViscoelasticPowerLaw/include</text>
<text text-anchor="middle" x="1472.5" y="-152.5" font-family="Helvetica,sans-Serif" font-size="10.00">/Marmot/LinearViscoelasticPowerLaw.h</text>
</a>
</g>
</g>
<!-- Node1&#45;&gt;Node20 -->
<g id="edge20" class="edge">
<title>Node1&#45;&gt;Node20</title>
<path fill="none" stroke="midnightblue" d="M1002.1,-229.83C1107.5,-215.75 1273.46,-193.59 1377.47,-179.69"/>
<polygon fill="midnightblue" stroke="midnightblue" points="1001.54,-226.37 992.09,-231.17 1002.47,-233.31 1001.54,-226.37"/>
</g>
<!-- Node21 -->
<g id="node21" class="node">
<title>Node21</title>
<g id="a_node21"><a xlink:href="LinearViscoelasticPowerLaw_8cpp.html" target="_top" xlink:title=" ">
<polygon fill="white" stroke="black" points="1390.5,-67.5 1390.5,-108.5 1554.5,-108.5 1554.5,-67.5 1390.5,-67.5"/>
<text text-anchor="start" x="1398.5" y="-96.5" font-family="Helvetica,sans-Serif" font-size="10.00">modules/materials/Linear</text>
<text text-anchor="start" x="1398.5" y="-85.5" font-family="Helvetica,sans-Serif" font-size="10.00">ViscoelasticPowerLaw/src</text>
<text text-anchor="middle" x="1472.5" y="-74.5" font-family="Helvetica,sans-Serif" font-size="10.00">/LinearViscoelasticPowerLaw.cpp</text>
</a>
</g>
</g>
<!-- Node1&#45;&gt;Node21 -->
<g id="edge23" class="edge">
<title>Node1&#45;&gt;Node21</title>
<path fill="none" stroke="midnightblue" d="M1002.18,-224.17C1051.24,-214.22 1111.28,-201.14 1164.5,-187 1253.71,-163.3 1355.45,-129.59 1416.78,-108.52"/>
<polygon fill="midnightblue" stroke="midnightblue" points="1001.31,-220.78 992.2,-226.19 1002.69,-227.64 1001.31,-220.78"/>
</g>
<!-- Node23 -->
<g id="node23" class="node">
<title>Node23</title>
<g id="a_node23"><a xlink:href="VonMises_8h.html" target="_top" xlink:title=" ">
<polygon fill="white" stroke="black" points="1807,-151 1807,-181 1950,-181 1950,-151 1807,-151"/>
<text text-anchor="start" x="1815" y="-169" font-family="Helvetica,sans-Serif" font-size="10.00">modules/materials/VonMises</text>
<text text-anchor="middle" x="1878.5" y="-158" font-family="Helvetica,sans-Serif" font-size="10.00">/include/Marmot/VonMises.h</text>
</a>
</g>
</g>
<!-- Node1&#45;&gt;Node23 -->
<g id="edge24" class="edge">
<title>Node1&#45;&gt;Node23</title>
<path fill="none" stroke="midnightblue" d="M1002.21,-235.31C1198.71,-219.99 1634.7,-186 1806.71,-172.6"/>
<polygon fill="midnightblue" stroke="midnightblue" points="1001.87,-231.82 992.18,-236.09 1002.42,-238.8 1001.87,-231.82"/>
</g>
<!-- Node4 -->
<g id="node4" class="node">
<title>Node4</title>
<g id="a_node4"><a xlink:href="MarmotMaterialHypoElasticAD_8cpp.html" target="_top" xlink:title=" ">
<polygon fill="white" stroke="black" points="17.5,-67.5 17.5,-108.5 193.5,-108.5 193.5,-67.5 17.5,-67.5"/>
<text text-anchor="start" x="25.5" y="-96.5" font-family="Helvetica,sans-Serif" font-size="10.00">modules/core/MarmotMechanics</text>
<text text-anchor="start" x="25.5" y="-85.5" font-family="Helvetica,sans-Serif" font-size="10.00">Core/src/MarmotMaterialHypoElastic</text>
<text text-anchor="middle" x="105.5" y="-74.5" font-family="Helvetica,sans-Serif" font-size="10.00">AD.cpp</text>
</a>
</g>
</g>
<!-- Node3&#45;&gt;Node4 -->
<g id="edge3" class="edge">
<title>Node3&#45;&gt;Node4</title>
<path fill="none" stroke="midnightblue" d="M282.7,-142.44C246.94,-131.66 204.53,-118.87 170.18,-108.51"/>
<polygon fill="midnightblue" stroke="midnightblue" points="282.02,-145.89 292.6,-145.43 284.04,-139.19 282.02,-145.89"/>
</g>
<!-- Node5 -->
<g id="node5" class="node">
<title>Node5</title>
<g id="a_node5"><a xlink:href="ADLinearElastic_8h.html" target="_top" xlink:title=" ">
<polygon fill="white" stroke="black" points="211.5,-67.5 211.5,-108.5 351.5,-108.5 351.5,-67.5 211.5,-67.5"/>
<text text-anchor="start" x="219.5" y="-96.5" font-family="Helvetica,sans-Serif" font-size="10.00">modules/materials/ADLinear</text>
<text text-anchor="start" x="219.5" y="-85.5" font-family="Helvetica,sans-Serif" font-size="10.00">Elastic/include/Marmot</text>
<text text-anchor="middle" x="281.5" y="-74.5" font-family="Helvetica,sans-Serif" font-size="10.00">/ADLinearElastic.h</text>
</a>
</g>
</g>
<!-- Node3&#45;&gt;Node5 -->
<g id="edge4" class="edge">
<title>Node3&#45;&gt;Node5</title>
<path fill="none" stroke="midnightblue" d="M330.7,-138.2C320.92,-128.42 310.04,-117.54 301.01,-108.51"/>
<polygon fill="midnightblue" stroke="midnightblue" points="328.38,-140.83 337.93,-145.43 333.33,-135.88 328.38,-140.83"/>
</g>
<!-- Node8 -->
<g id="node8" class="node">
<title>Node8</title>
<g id="a_node8"><a xlink:href="ADVonMises_8h.html" target="_top" xlink:title=" ">
<polygon fill="white" stroke="black" points="385.5,-73 385.5,-103 541.5,-103 541.5,-73 385.5,-73"/>
<text text-anchor="start" x="393.5" y="-91" font-family="Helvetica,sans-Serif" font-size="10.00">modules/materials/ADVonMises</text>
<text text-anchor="middle" x="463.5" y="-80" font-family="Helvetica,sans-Serif" font-size="10.00">/include/Marmot/ADVonMises.h</text>
</a>
</g>
</g>
<!-- Node3&#45;&gt;Node8 -->
<g id="edge7" class="edge">
<title>Node3&#45;&gt;Node8</title>
<path fill="none" stroke="midnightblue" d="M393.31,-139.32C410.12,-127.27 429.52,-113.36 443.66,-103.23"/>
<polygon fill="midnightblue" stroke="midnightblue" points="390.89,-136.76 384.8,-145.43 394.96,-142.45 390.89,-136.76"/>
</g>
<!-- Node6 -->
<g id="node6" class="node">
<title>Node6</title>
<g id="a_node6"><a xlink:href="ADLinearElastic_8cpp.html" target="_top" xlink:title=" ">
<polygon fill="white" stroke="black" points="0,-0.5 0,-30.5 153,-30.5 153,-0.5 0,-0.5"/>
<text text-anchor="start" x="8" y="-18.5" font-family="Helvetica,sans-Serif" font-size="10.00">modules/materials/ADLinear</text>
<text text-anchor="middle" x="76.5" y="-7.5" font-family="Helvetica,sans-Serif" font-size="10.00">Elastic/src/ADLinearElastic.cpp</text>
</a>
</g>
</g>
<!-- Node5&#45;&gt;Node6 -->
<g id="edge5" class="edge">
<title>Node5&#45;&gt;Node6</title>
<path fill="none" stroke="midnightblue" d="M214.9,-64.1C182.81,-53.06 145.34,-40.17 117.49,-30.6"/>
<polygon fill="midnightblue" stroke="midnightblue" points="214.07,-67.51 224.67,-67.46 216.35,-60.89 214.07,-67.51"/>
</g>
<!-- Node7 -->
<g id="node7" class="node">
<title>Node7</title>
<g id="a_node7"><a xlink:href="ADLinearElasticRegistration_8cpp.html" target="_top" xlink:title=" ">
<polygon fill="white" stroke="black" points="171,-0.5 171,-30.5 376,-30.5 376,-0.5 171,-0.5"/>
<text text-anchor="start" x="179" y="-18.5" font-family="Helvetica,sans-Serif" font-size="10.00">modules/materials/ADLinear</text>
<text text-anchor="middle" x="273.5" y="-7.5" font-family="Helvetica,sans-Serif" font-size="10.00">Elastic/src/ADLinearElasticRegistration.cpp</text>
</a>
</g>
</g>
<!-- Node5&#45;&gt;Node7 -->
<g id="edge6" class="edge">
<title>Node5&#45;&gt;Node7</title>
<path fill="none" stroke="midnightblue" d="M278.14,-57.38C277.1,-48.21 276,-38.53 275.13,-30.89"/>
<polygon fill="midnightblue" stroke="midnightblue" points="274.67,-57.82 279.27,-67.36 281.62,-57.03 274.67,-57.82"/>
</g>
<!-- Node9 -->
<g id="node9" class="node">
<title>Node9</title>
<g id="a_node9"><a xlink:href="ADVonMises_8cpp.html" target="_top" xlink:title=" ">
<polygon fill="white" stroke="black" points="394.5,-0.5 394.5,-30.5 550.5,-30.5 550.5,-0.5 394.5,-0.5"/>
<text text-anchor="start" x="402.5" y="-18.5" font-family="Helvetica,sans-Serif" font-size="10.00">modules/materials/ADVonMises</text>
<text text-anchor="middle" x="472.5" y="-7.5" font-family="Helvetica,sans-Serif" font-size="10.00">/src/ADVonMises.cpp</text>
</a>
</g>
</g>
<!-- Node8&#45;&gt;Node9 -->
<g id="edge8" class="edge">
<title>Node8&#45;&gt;Node9</title>
<path fill="none" stroke="midnightblue" d="M466.6,-62.73C467.96,-52.07 469.51,-39.91 470.68,-30.75"/>
<polygon fill="midnightblue" stroke="midnightblue" points="463.12,-62.37 465.32,-72.73 470.06,-63.26 463.12,-62.37"/>
</g>
<!-- Node10 -->
<g id="node10" class="node">
<title>Node10</title>
<g id="a_node10"><a xlink:href="ADVonMisesRegistration_8cpp.html" target="_top" xlink:title=" ">
<polygon fill="white" stroke="black" points="569,-0.5 569,-30.5 732,-30.5 732,-0.5 569,-0.5"/>
<text text-anchor="start" x="577" y="-18.5" font-family="Helvetica,sans-Serif" font-size="10.00">modules/materials/ADVonMises</text>
<text text-anchor="middle" x="650.5" y="-7.5" font-family="Helvetica,sans-Serif" font-size="10.00">/src/ADVonMisesRegistration.cpp</text>
</a>
</g>
</g>
<!-- Node8&#45;&gt;Node10 -->
<g id="edge9" class="edge">
<title>Node8&#45;&gt;Node10</title>
<path fill="none" stroke="midnightblue" d="M510.42,-69.31C542.21,-57.33 583.63,-41.71 613.17,-30.57"/>
<polygon fill="midnightblue" stroke="midnightblue" points="509.02,-66.1 500.89,-72.9 511.48,-72.65 509.02,-66.1"/>
</g>
<!-- Node13 -->
<g id="node13" class="node">
<title>Node13</title>
<g id="a_node13"><a xlink:href="DisplacementFiniteElementRegistration_8cpp.html" target="_top" xlink:title=" ">
<polygon fill="white" stroke="black" points="560,-67.5 560,-108.5 739,-108.5 739,-67.5 560,-67.5"/>
<text text-anchor="start" x="568" y="-96.5" font-family="Helvetica,sans-Serif" font-size="10.00">modules/elements/Displacement</text>
<text text-anchor="start" x="568" y="-85.5" font-family="Helvetica,sans-Serif" font-size="10.00">FiniteElement/src/DisplacementFinite</text>
<text text-anchor="middle" x="649.5" y="-74.5" font-family="Helvetica,sans-Serif" font-size="10.00">ElementRegistration.cpp</text>
</a>
</g>
</g>
<!-- Node12&#45;&gt;Node13 -->
<g id="edge12" class="edge">
<title>Node12&#45;&gt;Node13</title>
<path fill="none" stroke="midnightblue" d="M719.06,-139.35C705.14,-129.27 689.42,-117.89 676.45,-108.51"/>
<polygon fill="midnightblue" stroke="midnightblue" points="717.31,-142.4 727.46,-145.43 721.41,-136.73 717.31,-142.4"/>
</g>
<!-- Node14&#45;&gt;Node15 -->
<g id="edge14" class="edge">
<title>Node14&#45;&gt;Node15</title>
<path fill="none" stroke="midnightblue" d="M911.94,-145.82C888.64,-132.51 858.12,-115.07 837.07,-103.04"/>
<polygon fill="midnightblue" stroke="midnightblue" points="910.38,-148.96 920.8,-150.88 913.85,-142.88 910.38,-148.96"/>
</g>
<!-- Node16 -->
<g id="node16" class="node">
<title>Node16</title>
<g id="a_node16"><a xlink:href="B4Registration_8cpp.html" target="_top" xlink:title=" ">
<polygon fill="white" stroke="black" points="886.5,-73 886.5,-103 1004.5,-103 1004.5,-73 886.5,-73"/>
<text text-anchor="start" x="894.5" y="-91" font-family="Helvetica,sans-Serif" font-size="10.00">modules/materials/B4</text>
<text text-anchor="middle" x="945.5" y="-80" font-family="Helvetica,sans-Serif" font-size="10.00">/src/B4Registration.cpp</text>
</a>
</g>
</g>
<!-- Node14&#45;&gt;Node16 -->
<g id="edge15" class="edge">
<title>Node14&#45;&gt;Node16</title>
<path fill="none" stroke="midnightblue" d="M945.5,-140.59C945.5,-128.26 945.5,-113.72 945.5,-103.23"/>
<polygon fill="midnightblue" stroke="midnightblue" points="942,-140.7 945.5,-150.7 949,-140.71 942,-140.7"/>
</g>
<!-- Node18 -->
<g id="node18" class="node">
<title>Node18</title>
<g id="a_node18"><a xlink:href="LinearElastic_8cpp.html" target="_top" xlink:title=" ">
<polygon fill="white" stroke="black" points="1022.5,-73 1022.5,-103 1162.5,-103 1162.5,-73 1022.5,-73"/>
<text text-anchor="start" x="1030.5" y="-91" font-family="Helvetica,sans-Serif" font-size="10.00">modules/materials/Linear</text>
<text text-anchor="middle" x="1092.5" y="-80" font-family="Helvetica,sans-Serif" font-size="10.00">Elastic/src/LinearElastic.cpp</text>
</a>
</g>
</g>
<!-- Node17&#45;&gt;Node18 -->
<g id="edge18" class="edge">
<title>Node17&#45;&gt;Node18</title>
<path fill="none" stroke="midnightblue" d="M1092.5,-135.28C1092.5,-124.25 1092.5,-112.25 1092.5,-103.23"/>
<polygon fill="midnightblue" stroke="midnightblue" points="1089,-135.43 1092.5,-145.43 1096,-135.43 1089,-135.43"/>
</g>
<!-- Node19 -->
<g id="node19" class="node">
<title>Node19</title>
<g id="a_node19"><a xlink:href="LinearElasticRegistration_8cpp.html" target="_top" xlink:title=" ">
<polygon fill="white" stroke="black" points="1181,-73 1181,-103 1372,-103 1372,-73 1181,-73"/>
<text text-anchor="start" x="1189" y="-91" font-family="Helvetica,sans-Serif" font-size="10.00">modules/materials/Linear</text>
<text text-anchor="middle" x="1276.5" y="-80" font-family="Helvetica,sans-Serif" font-size="10.00">Elastic/src/LinearElasticRegistration.cpp</text>
</a>
</g>
</g>
<!-- Node17&#45;&gt;Node19 -->
<g id="edge19" class="edge">
<title>Node17&#45;&gt;Node19</title>
<path fill="none" stroke="midnightblue" d="M1149.13,-141.61C1179.62,-129.02 1216.22,-113.9 1242.35,-103.11"/>
<polygon fill="midnightblue" stroke="midnightblue" points="1147.79,-138.38 1139.88,-145.43 1150.46,-144.85 1147.79,-138.38"/>
</g>
<!-- Node20&#45;&gt;Node21 -->
<g id="edge21" class="edge">
<title>Node20&#45;&gt;Node21</title>
<path fill="none" stroke="midnightblue" d="M1472.5,-135.3C1472.5,-126.3 1472.5,-116.65 1472.5,-108.51"/>
<polygon fill="midnightblue" stroke="midnightblue" points="1469,-135.43 1472.5,-145.43 1476,-135.43 1469,-135.43"/>
</g>
<!-- Node22 -->
<g id="node22" class="node">
<title>Node22</title>
<g id="a_node22"><a xlink:href="LinearViscoelasticPowerLawRegistration_8cpp.html" target="_top" xlink:title=" ">
<polygon fill="white" stroke="black" points="1572.5,-67.5 1572.5,-108.5 1788.5,-108.5 1788.5,-67.5 1572.5,-67.5"/>
<text text-anchor="start" x="1580.5" y="-96.5" font-family="Helvetica,sans-Serif" font-size="10.00">modules/materials/Linear</text>
<text text-anchor="start" x="1580.5" y="-85.5" font-family="Helvetica,sans-Serif" font-size="10.00">ViscoelasticPowerLaw/src</text>
<text text-anchor="middle" x="1680.5" y="-74.5" font-family="Helvetica,sans-Serif" font-size="10.00">/LinearViscoelasticPowerLawRegistration.cpp</text>
</a>
</g>
</g>
<!-- Node20&#45;&gt;Node22 -->
<g id="edge22" class="edge">
<title>Node20&#45;&gt;Node22</title>
<path fill="none" stroke="midnightblue" d="M1535.76,-141.89C1564.95,-131.22 1599.24,-118.69 1627.12,-108.51"/>
<polygon fill="midnightblue" stroke="midnightblue" points="1534.26,-138.71 1526.07,-145.43 1536.66,-145.28 1534.26,-138.71"/>
</g>
<!-- Node24 -->
<g id="node24" class="node">
<title>Node24</title>
<g id="a_node24"><a xlink:href="VonMises_8cpp.html" target="_top" xlink:title=" ">
<polygon fill="white" stroke="black" points="1807,-73 1807,-103 1950,-103 1950,-73 1807,-73"/>
<text text-anchor="start" x="1815" y="-91" font-family="Helvetica,sans-Serif" font-size="10.00">modules/materials/VonMises</text>
<text text-anchor="middle" x="1878.5" y="-80" font-family="Helvetica,sans-Serif" font-size="10.00">/src/VonMises.cpp</text>
</a>
</g>
</g>
<!-- Node23&#45;&gt;Node24 -->
<g id="edge25" class="edge">
<title>Node23&#45;&gt;Node24</title>
<path fill="none" stroke="midnightblue" d="M1878.5,-140.59C1878.5,-128.26 1878.5,-113.72 1878.5,-103.23"/>
<polygon fill="midnightblue" stroke="midnightblue" points="1875,-140.7 1878.5,-150.7 1882,-140.71 1875,-140.7"/>
</g>
<!-- Node25 -->
<g id="node25" class="node">
<title>Node25</title>
<g id="a_node25"><a xlink:href="VonMisesRegistration_8cpp.html" target="_top" xlink:title=" ">
<polygon fill="white" stroke="black" points="1968,-73 1968,-103 2117,-103 2117,-73 1968,-73"/>
<text text-anchor="start" x="1976" y="-91" font-family="Helvetica,sans-Serif" font-size="10.00">modules/materials/VonMises</text>
<text text-anchor="middle" x="2042.5" y="-80" font-family="Helvetica,sans-Serif" font-size="10.00">/src/VonMisesRegistration.cpp</text>
</a>
</g>
</g>
<!-- Node23&#45;&gt;Node25 -->
<g id="edge26" class="edge">
<title>Node23&#45;&gt;Node25</title>
<path fill="none" stroke="midnightblue" d="M1918.37,-146.52C1947.28,-133.13 1985.78,-115.28 2012.2,-103.04"/>
<polygon fill="midnightblue" stroke="midnightblue" points="1916.56,-143.5 1908.96,-150.88 1919.51,-149.85 1916.56,-143.5"/>
</g>
</g>
</svg>
        <g id="navigator" transform="translate(0 0)" fill="#404254">
                <rect fill="#f2f5e9" fill-opacity="0.5" stroke="#606060" stroke-width=".5" x="0" y="0" width="60" height="60"/>
                <use id="zoomplus" xlink:href="#zoomPlus" x="17" y="9" onmousedown="handleZoom(evt,'in')"/>
                <use id="zoomminus" xlink:href="#zoomMin" x="42" y="9" onmousedown="handleZoom(evt,'out')"/>
                <use id="reset" xlink:href="#resetDef" x="30" y="36" onmousedown="handleReset()"/>
                <g id="arrowUp" xlink:href="#dirArrow" transform="translate(30 24)" onmousedown="handlePan(0,-1)">
                  <use xlink:href="#rim" fill="#404040">
                        <set attributeName="fill" to="#808080" begin="arrowUp.mouseover" end="arrowUp.mouseout"/>
                  </use>
                  <path fill="none" stroke="white" stroke-width="1.5" d="M0,-3.0v7 M-2.5,-0.5L0,-3.0L2.5,-0.5"/>
                </g>
                <g id="arrowRight" xlink:href="#dirArrow" transform="rotate(90) translate(36 -43)" onmousedown="handlePan(1,0)">
                  <use xlink:href="#rim" fill="#404040">
                        <set attributeName="fill" to="#808080" begin="arrowRight.mouseover" end="arrowRight.mouseout"/>
                  </use>
                  <path fill="none" stroke="white" stroke-width="1.5" d="M0,-3.0v7 M-2.5,-0.5L0,-3.0L2.5,-0.5"/>
                </g>
                <g id="arrowDown" xlink:href="#dirArrow" transform="rotate(180) translate(-30 -48)" onmousedown="handlePan(0,1)">
                  <use xlink:href="#rim" fill="#404040">
                        <set attributeName="fill" to="#808080" begin="arrowDown.mouseover" end="arrowDown.mouseout"/>
                  </use>
                  <path fill="none" stroke="white" stroke-width="1.5" d="M0,-3.0v7 M-2.5,-0.5L0,-3.0L2.5,-0.5"/>
                </g>
                <g id="arrowLeft" xlink:href="#dirArrow" transform="rotate(270) translate(-36 17)" onmousedown="handlePan(-1,0)">
                  <use xlink:href="#rim" fill="#404040">
                        <set attributeName="fill" to="#808080" begin="arrowLeft.mouseover" end="arrowLeft.mouseout"/>
                  </use>
                  <path fill="none" stroke="white" stroke-width="1.5" d="M0,-3.0v7 M-2.5,-0.5L0,-3.0L2.5,-0.5"/>
                </g>
        </g>
        <svg viewBox="0 0 15 15" width="100%" height="30px" preserveAspectRatio="xMaxYMin meet">
         <g id="arrow_out" transform="scale(0.3 0.3)">
          <a xlink:href="MarmotMaterialHypoElastic_8h__dep__incl_org.svg" target="_base">
           <rect id="button" ry="5" rx="5" y="6" x="6" height="38" width="38"
                fill="#f2f5e9" fill-opacity="0.5" stroke="#606060" stroke-width="1.0"/>
           <path id="arrow"
             d="M 11.500037,31.436501 C 11.940474,20.09759 22.043105,11.32322 32.158766,21.979434 L 37.068811,17.246167 C 37.068811,17.246167 37.088388,32 37.088388,32 L 22.160133,31.978069 C 22.160133,31.978069 26.997745,27.140456 26.997745,27.140456 C 18.528582,18.264221 13.291696,25.230495 11.500037,31.436501 z"
             style="fill:#404040;"/>
          </a>
         </g>
        </svg>
</svg>
