<?xml version="1.0" encoding="UTF-8" standalone="no"?>
<!DOCTYPE svg PUBLIC "-//W3C//DTD SVG 1.1//EN"
 "http://www.w3.org/Graphics/SVG/1.1/DTD/svg11.dtd">
<!-- Generated by graphviz version 2.47.1 (20210421.1823)
 -->
<!-- Title: modules/core/MarmotMechanicsCore/include/Marmot/MarmotVoigt.h Pages: 1 -->
<!--zoomable 195 -->
<svg id="main" version="1.1" xmlns="http://www.w3.org/2000/svg" xmlns:xlink="http://www.w3.org/1999/xlink" xml:space="preserve" onload="init(evt)">
<style type="text/css"><![CDATA[
.edge:hover path { stroke: red; }
.edge:hover polygon { stroke: red; fill: red; }
]]></style>
<script type="text/javascript"><![CDATA[
var edges = document.getElementsByTagName('g');
if (edges && edges.length) {
  for (var i=0;i<edges.length;i++) {
    if (edges[i].id.substr(0,4)=='edge') {
      edges[i].setAttribute('class','edge');
    }
  }
}
]]></script>
        <defs>
                <circle id="rim" cx="0" cy="0" r="7"/>
                <circle id="rim2" cx="0" cy="0" r="3.5"/>
                <g id="zoomPlus">
                        <use xlink:href="#rim" fill="#404040">
                                <set attributeName="fill" to="#808080" begin="zoomplus.mouseover" end="zoomplus.mouseout"/>
                        </use>
                        <path d="M-4,0h8M0,-4v8" fill="none" stroke="white" stroke-width="1.5" pointer-events="none"/>
                </g>
                <g id="zoomMin">
                        <use xlink:href="#rim" fill="#404040">
                                <set attributeName="fill" to="#808080" begin="zoomminus.mouseover" end="zoomminus.mouseout"/>
                        </use>
                        <path d="M-4,0h8" fill="none" stroke="white" stroke-width="1.5" pointer-events="none"/>
                </g>
                <g id="dirArrow">
                        <path fill="none" stroke="white" stroke-width="1.5" d="M0,-3.0v7 M-2.5,-0.5L0,-3.0L2.5,-0.5"/>
                </g>
               <g id="resetDef">
                       <use xlink:href="#rim2" fill="#404040">
                               <set attributeName="fill" to="#808080" begin="reset.mouseover" end="reset.mouseout"/>
                       </use>
               </g>
        </defs>

<script type="text/javascript">
var viewWidth = 2181;
var viewHeight = 195;
var sectionId = 'dynsection-1';
</script>
<script xlink:href="svgpan.js"/>
<svg id="graph" class="graph">
<g id="viewport">
<title>modules/core/MarmotMechanicsCore/include/Marmot/MarmotVoigt.h</title>
<polygon fill="white" stroke="transparent" points="-4,4 -4,-191 2177,-191 2177,4 -4,4"/>
<!-- Node1 -->
<g id="node1" class="node">
<title>Node1</title>
<g id="a_node1"><a xlink:title=" ">
<polygon fill="#bfbfbf" stroke="black" points="1079.5,-156.5 1079.5,-186.5 1252.5,-186.5 1252.5,-156.5 1079.5,-156.5"/>
<text text-anchor="start" x="1087.5" y="-174.5" font-family="Helvetica,sans-Serif" font-size="10.00">modules/core/MarmotMechanics</text>
<text text-anchor="middle" x="1166" y="-163.5" font-family="Helvetica,sans-Serif" font-size="10.00">Core/include/Marmot/MarmotVoigt.h</text>
</a>
</g>
</g>
<!-- Node2 -->
<g id="node2" class="node">
<title>Node2</title>
<g id="a_node2"><a xlink:href="MarmotTensor_8h.html" target="_top" xlink:title=" ">
<polygon fill="white" stroke="black" points="847,-84 847,-114 1007,-114 1007,-84 847,-84"/>
<text text-anchor="start" x="855" y="-102" font-family="Helvetica,sans-Serif" font-size="10.00">modules/core/MarmotMathCore</text>
<text text-anchor="middle" x="927" y="-91" font-family="Helvetica,sans-Serif" font-size="10.00">/include/Marmot/MarmotTensor.h</text>
</a>
</g>
</g>
<!-- Node1&#45;&gt;Node2 -->
<g id="edge1" class="edge">
<title>Node1&#45;&gt;Node2</title>
<path fill="none" stroke="midnightblue" d="M1108.67,-153.59C1067.77,-141.52 1013.39,-125.48 974.82,-114.11"/>
<polygon fill="midnightblue" stroke="midnightblue" points="1107.91,-157.01 1118.5,-156.49 1109.89,-150.3 1107.91,-157.01"/>
</g>
<!-- Node4 -->
<g id="node4" class="node">
<title>Node4</title>
<g id="a_node4"><a xlink:href="HaighWestergaard_8cpp.html" target="_top" xlink:title=" ">
<polygon fill="white" stroke="black" points="188,-6 188,-36 346,-36 346,-6 188,-6"/>
<text text-anchor="start" x="196" y="-24" font-family="Helvetica,sans-Serif" font-size="10.00">modules/core/MarmotMechanics</text>
<text text-anchor="middle" x="267" y="-13" font-family="Helvetica,sans-Serif" font-size="10.00">Core/src/HaighWestergaard.cpp</text>
</a>
</g>
</g>
<!-- Node1&#45;&gt;Node4 -->
<g id="edge26" class="edge">
<title>Node1&#45;&gt;Node4</title>
<path fill="none" stroke="midnightblue" d="M1069.38,-165.38C966.54,-158.89 799.35,-145.36 657,-120 583.77,-106.96 567.12,-96.2 495,-78 437.3,-63.44 371.26,-47.27 325.15,-36.07"/>
<polygon fill="midnightblue" stroke="midnightblue" points="1069.24,-168.88 1079.43,-166 1069.67,-161.89 1069.24,-168.88"/>
</g>
<!-- Node5 -->
<g id="node5" class="node">
<title>Node5</title>
<g id="a_node5"><a xlink:href="HughesWinget_8cpp.html" target="_top" xlink:title=" ">
<polygon fill="white" stroke="black" points="1103,-6 1103,-36 1261,-36 1261,-6 1103,-6"/>
<text text-anchor="start" x="1111" y="-24" font-family="Helvetica,sans-Serif" font-size="10.00">modules/core/MarmotMechanics</text>
<text text-anchor="middle" x="1182" y="-13" font-family="Helvetica,sans-Serif" font-size="10.00">Core/src/HughesWinget.cpp</text>
</a>
</g>
</g>
<!-- Node1&#45;&gt;Node5 -->
<g id="edge27" class="edge">
<title>Node1&#45;&gt;Node5</title>
<path fill="none" stroke="midnightblue" d="M1096.57,-152.4C1080.97,-144.96 1066.29,-134.55 1057,-120 1046.95,-104.27 1046.85,-93.67 1057,-78 1070.32,-57.44 1093.15,-44.36 1115.69,-36.07"/>
<polygon fill="midnightblue" stroke="midnightblue" points="1095.27,-155.65 1105.84,-156.45 1098.07,-149.24 1095.27,-155.65"/>
</g>
<!-- Node7 -->
<g id="node7" class="node">
<title>Node7</title>
<g id="a_node7"><a xlink:href="MarmotLowerDimensionalStress_8cpp.html" target="_top" xlink:title=" ">
<polygon fill="white" stroke="black" points="0,-0.5 0,-41.5 170,-41.5 170,-0.5 0,-0.5"/>
<text text-anchor="start" x="8" y="-29.5" font-family="Helvetica,sans-Serif" font-size="10.00">modules/core/MarmotMechanics</text>
<text text-anchor="start" x="8" y="-18.5" font-family="Helvetica,sans-Serif" font-size="10.00">Core/src/MarmotLowerDimensional</text>
<text text-anchor="middle" x="85" y="-7.5" font-family="Helvetica,sans-Serif" font-size="10.00">Stress.cpp</text>
</a>
</g>
</g>
<!-- Node1&#45;&gt;Node7 -->
<g id="edge28" class="edge">
<title>Node1&#45;&gt;Node7</title>
<path fill="none" stroke="midnightblue" d="M1069.43,-168.06C938.56,-163.66 697.91,-151.68 495,-120 372.62,-100.89 232.85,-64.22 152.17,-41.55"/>
<polygon fill="midnightblue" stroke="midnightblue" points="1069.32,-171.56 1079.43,-168.39 1069.55,-164.57 1069.32,-171.56"/>
</g>
<!-- Node8 -->
<g id="node8" class="node">
<title>Node8</title>
<g id="a_node8"><a xlink:href="MarmotMaterialHyperElastic_8cpp.html" target="_top" xlink:title=" ">
<polygon fill="white" stroke="black" points="711.5,-6 711.5,-36 908.5,-36 908.5,-6 711.5,-6"/>
<text text-anchor="start" x="719.5" y="-24" font-family="Helvetica,sans-Serif" font-size="10.00">modules/core/MarmotMechanics</text>
<text text-anchor="middle" x="810" y="-13" font-family="Helvetica,sans-Serif" font-size="10.00">Core/src/MarmotMaterialHyperElastic.cpp</text>
</a>
</g>
</g>
<!-- Node1&#45;&gt;Node8 -->
<g id="edge29" class="edge">
<title>Node1&#45;&gt;Node8</title>
<path fill="none" stroke="midnightblue" d="M1069.07,-166.93C984.95,-161.85 871.53,-149.57 838,-120 813.71,-98.58 809.84,-57.71 809.61,-36.14"/>
<polygon fill="midnightblue" stroke="midnightblue" points="1068.99,-170.43 1079.18,-167.51 1069.4,-163.44 1068.99,-170.43"/>
</g>
<!-- Node9 -->
<g id="node9" class="node">
<title>Node9</title>
<g id="a_node9"><a xlink:href="MarmotMaterialHypoElastic_8cpp.html" target="_top" xlink:title=" ">
<polygon fill="white" stroke="black" points="1279,-6 1279,-36 1473,-36 1473,-6 1279,-6"/>
<text text-anchor="start" x="1287" y="-24" font-family="Helvetica,sans-Serif" font-size="10.00">modules/core/MarmotMechanics</text>
<text text-anchor="middle" x="1376" y="-13" font-family="Helvetica,sans-Serif" font-size="10.00">Core/src/MarmotMaterialHypoElastic.cpp</text>
</a>
</g>
</g>
<!-- Node1&#45;&gt;Node9 -->
<g id="edge30" class="edge">
<title>Node1&#45;&gt;Node9</title>
<path fill="none" stroke="midnightblue" d="M1262.93,-167.81C1342.53,-163.31 1446.35,-151.39 1473,-120 1485.08,-105.77 1482.33,-94.17 1473,-78 1461.58,-58.21 1440.2,-44.79 1420.42,-36.06"/>
<polygon fill="midnightblue" stroke="midnightblue" points="1262.66,-164.32 1252.86,-168.34 1263.03,-171.31 1262.66,-164.32"/>
</g>
<!-- Node10 -->
<g id="node10" class="node">
<title>Node10</title>
<g id="a_node10"><a xlink:href="MarmotMaterialHypoElasticNonLocal_8cpp.html" target="_top" xlink:title=" ">
<polygon fill="white" stroke="black" points="1491,-0.5 1491,-41.5 1667,-41.5 1667,-0.5 1491,-0.5"/>
<text text-anchor="start" x="1499" y="-29.5" font-family="Helvetica,sans-Serif" font-size="10.00">modules/core/MarmotMechanics</text>
<text text-anchor="start" x="1499" y="-18.5" font-family="Helvetica,sans-Serif" font-size="10.00">Core/src/MarmotMaterialHypoElastic</text>
<text text-anchor="middle" x="1579" y="-7.5" font-family="Helvetica,sans-Serif" font-size="10.00">NonLocal.cpp</text>
</a>
</g>
</g>
<!-- Node1&#45;&gt;Node10 -->
<g id="edge31" class="edge">
<title>Node1&#45;&gt;Node10</title>
<path fill="none" stroke="midnightblue" d="M1262.86,-162.77C1344.32,-154.95 1453.48,-141 1492,-120 1525.76,-101.59 1552.86,-64.78 1567.38,-41.88"/>
<polygon fill="midnightblue" stroke="midnightblue" points="1262.19,-159.32 1252.56,-163.74 1262.85,-166.29 1262.19,-159.32"/>
</g>
<!-- Node11 -->
<g id="node11" class="node">
<title>Node11</title>
<g id="a_node11"><a xlink:href="MarmotVoigt_8cpp.html" target="_top" xlink:title=" ">
<polygon fill="white" stroke="black" points="364,-6 364,-36 522,-36 522,-6 364,-6"/>
<text text-anchor="start" x="372" y="-24" font-family="Helvetica,sans-Serif" font-size="10.00">modules/core/MarmotMechanics</text>
<text text-anchor="middle" x="443" y="-13" font-family="Helvetica,sans-Serif" font-size="10.00">Core/src/MarmotVoigt.cpp</text>
</a>
</g>
</g>
<!-- Node1&#45;&gt;Node11 -->
<g id="edge34" class="edge">
<title>Node1&#45;&gt;Node11</title>
<path fill="none" stroke="midnightblue" d="M1068.95,-159.92C997.5,-151.34 898.21,-137.76 812,-120 742.09,-105.6 725.97,-96.37 657,-78 602.63,-63.52 540.41,-47.27 497.12,-36.02"/>
<polygon fill="midnightblue" stroke="midnightblue" points="1068.94,-163.44 1079.29,-161.15 1069.77,-156.49 1068.94,-163.44"/>
</g>
<!-- Node12 -->
<g id="node12" class="node">
<title>Node12</title>
<g id="a_node12"><a xlink:href="HughesWinget_8h.html" target="_top" xlink:title=" ">
<polygon fill="white" stroke="black" points="1283.5,-84 1283.5,-114 1464.5,-114 1464.5,-84 1283.5,-84"/>
<text text-anchor="start" x="1291.5" y="-102" font-family="Helvetica,sans-Serif" font-size="10.00">modules/core/MarmotMechanics</text>
<text text-anchor="middle" x="1374" y="-91" font-family="Helvetica,sans-Serif" font-size="10.00">Core/include/Marmot/HughesWinget.h</text>
</a>
</g>
</g>
<!-- Node1&#45;&gt;Node12 -->
<g id="edge11" class="edge">
<title>Node1&#45;&gt;Node12</title>
<path fill="none" stroke="midnightblue" d="M1217.28,-153.12C1252.75,-141.1 1299.34,-125.31 1332.48,-114.07"/>
<polygon fill="midnightblue" stroke="midnightblue" points="1215.94,-149.88 1207.59,-156.4 1218.19,-156.51 1215.94,-149.88"/>
</g>
<!-- Node13 -->
<g id="node13" class="node">
<title>Node13</title>
<g id="a_node13"><a xlink:href="MarmotElasticity_8h.html" target="_top" xlink:title=" ">
<polygon fill="white" stroke="black" points="1559.5,-84 1559.5,-114 1748.5,-114 1748.5,-84 1559.5,-84"/>
<text text-anchor="start" x="1567.5" y="-102" font-family="Helvetica,sans-Serif" font-size="10.00">modules/core/MarmotMechanics</text>
<text text-anchor="middle" x="1654" y="-91" font-family="Helvetica,sans-Serif" font-size="10.00">Core/include/Marmot/MarmotElasticity.h</text>
</a>
</g>
</g>
<!-- Node1&#45;&gt;Node13 -->
<g id="edge15" class="edge">
<title>Node1&#45;&gt;Node13</title>
<path fill="none" stroke="midnightblue" d="M1262.85,-158.92C1339.54,-149.43 1449.31,-135.14 1545,-120 1556.4,-118.2 1568.45,-116.14 1580.21,-114.05"/>
<polygon fill="midnightblue" stroke="midnightblue" points="1262.22,-155.47 1252.73,-160.17 1263.08,-162.42 1262.22,-155.47"/>
</g>
<!-- Node15 -->
<g id="node15" class="node">
<title>Node15</title>
<g id="a_node15"><a xlink:href="LinearElastic_8cpp.html" target="_top" xlink:title=" ">
<polygon fill="white" stroke="black" points="1861,-6 1861,-36 2001,-36 2001,-6 1861,-6"/>
<text text-anchor="start" x="1869" y="-24" font-family="Helvetica,sans-Serif" font-size="10.00">modules/materials/Linear</text>
<text text-anchor="middle" x="1931" y="-13" font-family="Helvetica,sans-Serif" font-size="10.00">Elastic/src/LinearElastic.cpp</text>
</a>
</g>
</g>
<!-- Node1&#45;&gt;Node15 -->
<g id="edge35" class="edge">
<title>Node1&#45;&gt;Node15</title>
<path fill="none" stroke="midnightblue" d="M1262.89,-170.61C1407.86,-169.38 1673.29,-161.31 1758,-120 1780.9,-108.83 1776.11,-92.57 1797,-78 1823.57,-59.46 1857.23,-45.43 1884.17,-36.04"/>
<polygon fill="midnightblue" stroke="midnightblue" points="1262.63,-167.11 1252.66,-170.69 1262.69,-174.11 1262.63,-167.11"/>
</g>
<!-- Node16 -->
<g id="node16" class="node">
<title>Node16</title>
<g id="a_node16"><a xlink:href="MarmotKinematics_8h.html" target="_top" xlink:title=" ">
<polygon fill="white" stroke="black" points="1066.5,-84 1066.5,-114 1265.5,-114 1265.5,-84 1066.5,-84"/>
<text text-anchor="start" x="1074.5" y="-102" font-family="Helvetica,sans-Serif" font-size="10.00">modules/core/MarmotMechanics</text>
<text text-anchor="middle" x="1166" y="-91" font-family="Helvetica,sans-Serif" font-size="10.00">Core/include/Marmot/MarmotKinematics.h</text>
</a>
</g>
</g>
<!-- Node1&#45;&gt;Node16 -->
<g id="edge18" class="edge">
<title>Node1&#45;&gt;Node16</title>
<path fill="none" stroke="midnightblue" d="M1166,-146.23C1166,-135.57 1166,-123.41 1166,-114.25"/>
<polygon fill="midnightblue" stroke="midnightblue" points="1162.5,-146.23 1166,-156.23 1169.5,-146.23 1162.5,-146.23"/>
</g>
<!-- Node17 -->
<g id="node17" class="node">
<title>Node17</title>
<g id="a_node17"><a xlink:href="MarmotLowerDimensionalStress_8h.html" target="_top" xlink:title=" ">
<polygon fill="white" stroke="black" points="34,-78.5 34,-119.5 204,-119.5 204,-78.5 34,-78.5"/>
<text text-anchor="start" x="42" y="-107.5" font-family="Helvetica,sans-Serif" font-size="10.00">modules/core/MarmotMechanics</text>
<text text-anchor="start" x="42" y="-96.5" font-family="Helvetica,sans-Serif" font-size="10.00">Core/include/Marmot/MarmotLower</text>
<text text-anchor="middle" x="119" y="-85.5" font-family="Helvetica,sans-Serif" font-size="10.00">DimensionalStress.h</text>
</a>
</g>
</g>
<!-- Node1&#45;&gt;Node17 -->
<g id="edge24" class="edge">
<title>Node1&#45;&gt;Node17</title>
<path fill="none" stroke="midnightblue" d="M1069.36,-163.99C866.07,-150.3 397.08,-118.72 204.21,-105.74"/>
<polygon fill="midnightblue" stroke="midnightblue" points="1069.22,-167.49 1079.43,-164.67 1069.69,-160.51 1069.22,-167.49"/>
</g>
<!-- Node18 -->
<g id="node18" class="node">
<title>Node18</title>
<g id="a_node18"><a xlink:href="MarmotMaterialMechanical_8cpp.html" target="_top" xlink:title=" ">
<polygon fill="white" stroke="black" points="1805.5,-84 1805.5,-114 1996.5,-114 1996.5,-84 1805.5,-84"/>
<text text-anchor="start" x="1813.5" y="-102" font-family="Helvetica,sans-Serif" font-size="10.00">modules/core/MarmotMechanics</text>
<text text-anchor="middle" x="1901" y="-91" font-family="Helvetica,sans-Serif" font-size="10.00">Core/src/MarmotMaterialMechanical.cpp</text>
</a>
</g>
</g>
<!-- Node1&#45;&gt;Node18 -->
<g id="edge32" class="edge">
<title>Node1&#45;&gt;Node18</title>
<path fill="none" stroke="midnightblue" d="M1262.88,-165.66C1386.01,-158.82 1604.91,-144.37 1791,-120 1803.51,-118.36 1816.76,-116.27 1829.56,-114.05"/>
<polygon fill="midnightblue" stroke="midnightblue" points="1262.52,-162.17 1252.73,-166.22 1262.91,-169.16 1262.52,-162.17"/>
</g>
<!-- Node19 -->
<g id="node19" class="node">
<title>Node19</title>
<g id="a_node19"><a xlink:href="MarmotUtility_8cpp.html" target="_top" xlink:title=" ">
<polygon fill="white" stroke="black" points="2015,-84 2015,-114 2173,-114 2173,-84 2015,-84"/>
<text text-anchor="start" x="2023" y="-102" font-family="Helvetica,sans-Serif" font-size="10.00">modules/core/MarmotMechanics</text>
<text text-anchor="middle" x="2094" y="-91" font-family="Helvetica,sans-Serif" font-size="10.00">Core/src/MarmotUtility.cpp</text>
</a>
</g>
</g>
<!-- Node1&#45;&gt;Node19 -->
<g id="edge33" class="edge">
<title>Node1&#45;&gt;Node19</title>
<path fill="none" stroke="midnightblue" d="M1262.72,-169.81C1419.54,-167.54 1738.7,-158.15 2006,-120 2016.55,-118.49 2027.7,-116.38 2038.39,-114.08"/>
<polygon fill="midnightblue" stroke="midnightblue" points="1262.58,-166.31 1252.63,-169.95 1262.67,-173.31 1262.58,-166.31"/>
</g>
<!-- Node3 -->
<g id="node3" class="node">
<title>Node3</title>
<g id="a_node3"><a xlink:href="MarmotTensor_8cpp.html" target="_top" xlink:title=" ">
<polygon fill="white" stroke="black" points="540.5,-6 540.5,-36 693.5,-36 693.5,-6 540.5,-6"/>
<text text-anchor="start" x="548.5" y="-24" font-family="Helvetica,sans-Serif" font-size="10.00">modules/core/MarmotMathCore</text>
<text text-anchor="middle" x="617" y="-13" font-family="Helvetica,sans-Serif" font-size="10.00">/src/MarmotTensor.cpp</text>
</a>
</g>
</g>
<!-- Node2&#45;&gt;Node3 -->
<g id="edge2" class="edge">
<title>Node2&#45;&gt;Node3</title>
<path fill="none" stroke="midnightblue" d="M860.05,-81.59C804.61,-67.99 726.69,-48.89 674.15,-36.01"/>
<polygon fill="midnightblue" stroke="midnightblue" points="859.23,-84.99 869.78,-83.97 860.9,-78.19 859.23,-84.99"/>
</g>
<!-- Node2&#45;&gt;Node4 -->
<g id="edge3" class="edge">
<title>Node2&#45;&gt;Node4</title>
<path fill="none" stroke="midnightblue" d="M836.9,-90.57C699.83,-79.04 445.33,-56.63 355,-42 344.95,-40.37 334.33,-38.28 324.07,-36.07"/>
<polygon fill="midnightblue" stroke="midnightblue" points="836.71,-94.07 846.96,-91.42 837.29,-87.09 836.71,-94.07"/>
</g>
<!-- Node2&#45;&gt;Node5 -->
<g id="edge4" class="edge">
<title>Node2&#45;&gt;Node5</title>
<path fill="none" stroke="midnightblue" d="M983.77,-81.08C1029.17,-67.55 1092.09,-48.8 1134.77,-36.07"/>
<polygon fill="midnightblue" stroke="midnightblue" points="982.65,-77.76 974.07,-83.97 984.65,-84.47 982.65,-77.76"/>
</g>
<!-- Node6 -->
<g id="node6" class="node">
<title>Node6</title>
<g id="a_node6"><a xlink:href="MarmotKinematics_8cpp.html" target="_top" xlink:title=" ">
<polygon fill="white" stroke="black" points="927,-6 927,-36 1085,-36 1085,-6 927,-6"/>
<text text-anchor="start" x="935" y="-24" font-family="Helvetica,sans-Serif" font-size="10.00">modules/core/MarmotMechanics</text>
<text text-anchor="middle" x="1006" y="-13" font-family="Helvetica,sans-Serif" font-size="10.00">Core/src/MarmotKinematics.cpp</text>
</a>
</g>
</g>
<!-- Node2&#45;&gt;Node6 -->
<g id="edge5" class="edge">
<title>Node2&#45;&gt;Node6</title>
<path fill="none" stroke="midnightblue" d="M949.31,-76.53C962.73,-63.63 979.42,-47.57 991.21,-36.23"/>
<polygon fill="midnightblue" stroke="midnightblue" points="946.64,-74.25 941.86,-83.7 951.49,-79.29 946.64,-74.25"/>
</g>
<!-- Node2&#45;&gt;Node7 -->
<g id="edge6" class="edge">
<title>Node2&#45;&gt;Node7</title>
<path fill="none" stroke="midnightblue" d="M836.59,-95.17C695.53,-89.86 414.81,-75.76 179,-42 176.11,-41.59 173.18,-41.14 170.22,-40.66"/>
<polygon fill="midnightblue" stroke="midnightblue" points="836.79,-98.68 846.91,-95.55 837.05,-91.68 836.79,-98.68"/>
</g>
<!-- Node2&#45;&gt;Node8 -->
<g id="edge7" class="edge">
<title>Node2&#45;&gt;Node8</title>
<path fill="none" stroke="midnightblue" d="M896.66,-78.29C876.27,-65.05 849.89,-47.91 831.62,-36.04"/>
<polygon fill="midnightblue" stroke="midnightblue" points="894.97,-81.37 905.27,-83.88 898.79,-75.5 894.97,-81.37"/>
</g>
<!-- Node2&#45;&gt;Node9 -->
<g id="edge8" class="edge">
<title>Node2&#45;&gt;Node9</title>
<path fill="none" stroke="midnightblue" d="M1017.14,-83.9C1086.38,-72.93 1184.33,-57.07 1270,-42 1280.7,-40.12 1291.99,-38.06 1303.06,-36.01"/>
<polygon fill="midnightblue" stroke="midnightblue" points="1016.47,-80.47 1007.14,-85.49 1017.57,-87.38 1016.47,-80.47"/>
</g>
<!-- Node2&#45;&gt;Node10 -->
<g id="edge9" class="edge">
<title>Node2&#45;&gt;Node10</title>
<path fill="none" stroke="midnightblue" d="M1017.4,-83.28C1030.66,-81.36 1044.17,-79.53 1057,-78 1245.23,-55.57 1294.39,-69.19 1482,-42 1484.89,-41.58 1487.83,-41.13 1490.79,-40.65"/>
<polygon fill="midnightblue" stroke="midnightblue" points="1016.71,-79.85 1007.33,-84.77 1017.73,-86.77 1016.71,-79.85"/>
</g>
<!-- Node2&#45;&gt;Node11 -->
<g id="edge10" class="edge">
<title>Node2&#45;&gt;Node11</title>
<path fill="none" stroke="midnightblue" d="M836.56,-87.38C756.08,-77.41 635.29,-61.19 531,-42 521.45,-40.24 511.36,-38.16 501.56,-36.02"/>
<polygon fill="midnightblue" stroke="midnightblue" points="836.31,-90.88 846.67,-88.62 837.17,-83.93 836.31,-90.88"/>
</g>
<!-- Node12&#45;&gt;Node5 -->
<g id="edge12" class="edge">
<title>Node12&#45;&gt;Node5</title>
<path fill="none" stroke="midnightblue" d="M1328.64,-80.05C1294.66,-66.59 1248.8,-48.44 1217.47,-36.04"/>
<polygon fill="midnightblue" stroke="midnightblue" points="1327.75,-83.46 1338.34,-83.88 1330.33,-76.95 1327.75,-83.46"/>
</g>
<!-- Node12&#45;&gt;Node9 -->
<g id="edge13" class="edge">
<title>Node12&#45;&gt;Node9</title>
<path fill="none" stroke="midnightblue" d="M1374.64,-73.59C1374.97,-61.26 1375.35,-46.72 1375.63,-36.23"/>
<polygon fill="midnightblue" stroke="midnightblue" points="1371.14,-73.62 1374.38,-83.7 1378.14,-73.8 1371.14,-73.62"/>
</g>
<!-- Node12&#45;&gt;Node10 -->
<g id="edge14" class="edge">
<title>Node12&#45;&gt;Node10</title>
<path fill="none" stroke="midnightblue" d="M1421.86,-80.26C1453.08,-68.68 1493.86,-53.56 1526.06,-41.63"/>
<polygon fill="midnightblue" stroke="midnightblue" points="1420.24,-77.13 1412.08,-83.88 1422.67,-83.69 1420.24,-77.13"/>
</g>
<!-- Node14 -->
<g id="node14" class="node">
<title>Node14</title>
<g id="a_node14"><a xlink:href="MarmotElasticity_8cpp.html" target="_top" xlink:title=" ">
<polygon fill="white" stroke="black" points="1685,-6 1685,-36 1843,-36 1843,-6 1685,-6"/>
<text text-anchor="start" x="1693" y="-24" font-family="Helvetica,sans-Serif" font-size="10.00">modules/core/MarmotMechanics</text>
<text text-anchor="middle" x="1764" y="-13" font-family="Helvetica,sans-Serif" font-size="10.00">Core/src/MarmotElasticity.cpp</text>
</a>
</g>
</g>
<!-- Node13&#45;&gt;Node14 -->
<g id="edge16" class="edge">
<title>Node13&#45;&gt;Node14</title>
<path fill="none" stroke="midnightblue" d="M1682.79,-78.11C1701.92,-64.89 1726.58,-47.86 1743.68,-36.04"/>
<polygon fill="midnightblue" stroke="midnightblue" points="1680.67,-75.32 1674.43,-83.88 1684.65,-81.08 1680.67,-75.32"/>
</g>
<!-- Node13&#45;&gt;Node15 -->
<g id="edge17" class="edge">
<title>Node13&#45;&gt;Node15</title>
<path fill="none" stroke="midnightblue" d="M1715.04,-81.25C1764.41,-67.71 1833.14,-48.85 1879.7,-36.07"/>
<polygon fill="midnightblue" stroke="midnightblue" points="1713.85,-77.95 1705.13,-83.97 1715.7,-84.7 1713.85,-77.95"/>
</g>
<!-- Node16&#45;&gt;Node5 -->
<g id="edge19" class="edge">
<title>Node16&#45;&gt;Node5</title>
<path fill="none" stroke="midnightblue" d="M1171.14,-73.59C1173.74,-61.26 1176.8,-46.72 1179,-36.23"/>
<polygon fill="midnightblue" stroke="midnightblue" points="1167.64,-73.2 1169.01,-83.7 1174.49,-74.64 1167.64,-73.2"/>
</g>
<!-- Node16&#45;&gt;Node6 -->
<g id="edge20" class="edge">
<title>Node16&#45;&gt;Node6</title>
<path fill="none" stroke="midnightblue" d="M1127.1,-79.52C1098.9,-66.13 1061.33,-48.28 1035.56,-36.04"/>
<polygon fill="midnightblue" stroke="midnightblue" points="1125.75,-82.75 1136.28,-83.88 1128.75,-76.43 1125.75,-82.75"/>
</g>
<!-- Node16&#45;&gt;Node8 -->
<g id="edge21" class="edge">
<title>Node16&#45;&gt;Node8</title>
<path fill="none" stroke="midnightblue" d="M1090.3,-81.84C1026.56,-68.23 936.34,-48.97 875.63,-36.01"/>
<polygon fill="midnightblue" stroke="midnightblue" points="1089.78,-85.31 1100.29,-83.97 1091.24,-78.46 1089.78,-85.31"/>
</g>
<!-- Node16&#45;&gt;Node9 -->
<g id="edge22" class="edge">
<title>Node16&#45;&gt;Node9</title>
<path fill="none" stroke="midnightblue" d="M1214.65,-80.39C1251.92,-66.9 1302.64,-48.55 1337.2,-36.04"/>
<polygon fill="midnightblue" stroke="midnightblue" points="1213.22,-77.19 1205.01,-83.88 1215.6,-83.77 1213.22,-77.19"/>
</g>
<!-- Node16&#45;&gt;Node10 -->
<g id="edge23" class="edge">
<title>Node16&#45;&gt;Node10</title>
<path fill="none" stroke="midnightblue" d="M1251.3,-82.11C1258.97,-80.71 1266.63,-79.32 1274,-78 1366.35,-61.46 1389.82,-59.48 1482,-42 1484.96,-41.44 1487.96,-40.86 1491,-40.27"/>
<polygon fill="midnightblue" stroke="midnightblue" points="1250.42,-78.71 1241.22,-83.95 1251.69,-85.6 1250.42,-78.71"/>
</g>
<!-- Node17&#45;&gt;Node7 -->
<g id="edge25" class="edge">
<title>Node17&#45;&gt;Node7</title>
<path fill="none" stroke="midnightblue" d="M106.1,-69.17C101.97,-59.93 97.49,-49.92 93.73,-41.51"/>
<polygon fill="midnightblue" stroke="midnightblue" points="102.97,-70.73 110.24,-78.43 109.36,-67.87 102.97,-70.73"/>
</g>
</g>
</svg>
        <g id="navigator" transform="translate(0 0)" fill="#404254">
                <rect fill="#f2f5e9" fill-opacity="0.5" stroke="#606060" stroke-width=".5" x="0" y="0" width="60" height="60"/>
                <use id="zoomplus" xlink:href="#zoomPlus" x="17" y="9" onmousedown="handleZoom(evt,'in')"/>
                <use id="zoomminus" xlink:href="#zoomMin" x="42" y="9" onmousedown="handleZoom(evt,'out')"/>
                <use id="reset" xlink:href="#resetDef" x="30" y="36" onmousedown="handleReset()"/>
                <g id="arrowUp" xlink:href="#dirArrow" transform="translate(30 24)" onmousedown="handlePan(0,-1)">
                  <use xlink:href="#rim" fill="#404040">
                        <set attributeName="fill" to="#808080" begin="arrowUp.mouseover" end="arrowUp.mouseout"/>
                  </use>
                  <path fill="none" stroke="white" stroke-width="1.5" d="M0,-3.0v7 M-2.5,-0.5L0,-3.0L2.5,-0.5"/>
                </g>
                <g id="arrowRight" xlink:href="#dirArrow" transform="rotate(90) translate(36 -43)" onmousedown="handlePan(1,0)">
                  <use xlink:href="#rim" fill="#404040">
                        <set attributeName="fill" to="#808080" begin="arrowRight.mouseover" end="arrowRight.mouseout"/>
                  </use>
                  <path fill="none" stroke="white" stroke-width="1.5" d="M0,-3.0v7 M-2.5,-0.5L0,-3.0L2.5,-0.5"/>
                </g>
                <g id="arrowDown" xlink:href="#dirArrow" transform="rotate(180) translate(-30 -48)" onmousedown="handlePan(0,1)">
                  <use xlink:href="#rim" fill="#404040">
                        <set attributeName="fill" to="#808080" begin="arrowDown.mouseover" end="arrowDown.mouseout"/>
                  </use>
                  <path fill="none" stroke="white" stroke-width="1.5" d="M0,-3.0v7 M-2.5,-0.5L0,-3.0L2.5,-0.5"/>
                </g>
                <g id="arrowLeft" xlink:href="#dirArrow" transform="rotate(270) translate(-36 17)" onmousedown="handlePan(-1,0)">
                  <use xlink:href="#rim" fill="#404040">
                        <set attributeName="fill" to="#808080" begin="arrowLeft.mouseover" end="arrowLeft.mouseout"/>
                  </use>
                  <path fill="none" stroke="white" stroke-width="1.5" d="M0,-3.0v7 M-2.5,-0.5L0,-3.0L2.5,-0.5"/>
                </g>
        </g>
        <svg viewBox="0 0 15 15" width="100%" height="30px" preserveAspectRatio="xMaxYMin meet">
         <g id="arrow_out" transform="scale(0.3 0.3)">
          <a xlink:href="MarmotVoigt_8h__dep__incl_org.svg" target="_base">
           <rect id="button" ry="5" rx="5" y="6" x="6" height="38" width="38"
                fill="#f2f5e9" fill-opacity="0.5" stroke="#606060" stroke-width="1.0"/>
           <path id="arrow"
             d="M 11.500037,31.436501 C 11.940474,20.09759 22.043105,11.32322 32.158766,21.979434 L 37.068811,17.246167 C 37.068811,17.246167 37.088388,32 37.088388,32 L 22.160133,31.978069 C 22.160133,31.978069 26.997745,27.140456 26.997745,27.140456 C 18.528582,18.264221 13.291696,25.230495 11.500037,31.436501 z"
             style="fill:#404040;"/>
          </a>
         </g>
        </svg>
</svg>
