<?xml version="1.0" encoding="UTF-8" standalone="no"?>
<!DOCTYPE svg PUBLIC "-//W3C//DTD SVG 1.1//EN"
 "http://www.w3.org/Graphics/SVG/1.1/DTD/svg11.dtd">
<!-- Generated by graphviz version 3.0.0 (20220413.0106)
 -->
<!-- Title: modules/core/MarmotMathCore/include/Marmot/MarmotTensor.h Pages: 1 -->
<svg width="331pt" height="207pt"
 viewBox="0.00 0.00 330.50 207.00" xmlns="http://www.w3.org/2000/svg" xmlns:xlink="http://www.w3.org/1999/xlink">
<g id="graph0" class="graph" transform="scale(1 1) rotate(0) translate(4 203)">
<title>modules/core/MarmotMathCore/include/Marmot/MarmotTensor.h</title>
<polygon fill="white" stroke="transparent" points="-4,4 -4,-203 326.5,-203 326.5,4 -4,4"/>
<!-- Node1 -->
<g id="node1" class="node">
<title>Node1</title>
<g id="a_node1"><a xlink:title=" ">
<polygon fill="#bfbfbf" stroke="black" points="89,-168.5 89,-198.5 249,-198.5 249,-168.5 89,-168.5"/>
<text text-anchor="start" x="97" y="-186.5" font-family="Helvetica,sans-Serif" font-size="10.00">modules/core/MarmotMathCore</text>
<text text-anchor="middle" x="169" y="-175.5" font-family="Helvetica,sans-Serif" font-size="10.00">/include/Marmot/MarmotTensor.h</text>
</a>
</g>
</g>
<!-- Node2 -->
<g id="node2" class="node">
<title>Node2</title>
<g id="a_node2"><a xlink:href="MarmotJournal_8h.html" target="_top" xlink:title=" ">
<polygon fill="white" stroke="black" points="45.5,-56.5 45.5,-75.5 170.5,-75.5 170.5,-56.5 45.5,-56.5"/>
<text text-anchor="middle" x="108" y="-63.5" font-family="Helvetica,sans-Serif" font-size="10.00">Marmot/MarmotJournal.h</text>
</a>
</g>
</g>
<!-- Node1&#45;&gt;Node2 -->
<g id="edge1" class="edge">
<title>Node1&#45;&gt;Node2</title>
<path fill="none" stroke="midnightblue" d="M139.31,-168.34C125.26,-159.92 109.86,-147.77 102,-132 94.74,-117.43 97.51,-98.76 101.35,-85.16"/>
<polygon fill="midnightblue" stroke="midnightblue" points="104.72,-86.12 104.48,-75.53 98.06,-83.96 104.72,-86.12"/>
</g>
<!-- Node3 -->
<g id="node3" class="node">
<title>Node3</title>
<g id="a_node3"><a xlink:title=" ">
<polygon fill="white" stroke="#bfbfbf" points="0,-0.5 0,-19.5 54,-19.5 54,-0.5 0,-0.5"/>
<text text-anchor="middle" x="27" y="-7.5" font-family="Helvetica,sans-Serif" font-size="10.00">iostream</text>
</a>
</g>
</g>
<!-- Node1&#45;&gt;Node3 -->
<g id="edge9" class="edge">
<title>Node1&#45;&gt;Node3</title>
<path fill="none" stroke="midnightblue" d="M139.49,-168.5C107.57,-151.56 58.25,-119.77 36,-76 28.66,-61.56 26.7,-43.11 26.4,-29.56"/>
<polygon fill="midnightblue" stroke="midnightblue" points="29.9,-29.54 26.47,-19.52 22.9,-29.5 29.9,-29.54"/>
</g>
<!-- Node6 -->
<g id="node6" class="node">
<title>Node6</title>
<g id="a_node6"><a xlink:title=" ">
<polygon fill="white" stroke="#bfbfbf" points="188.5,-56.5 188.5,-75.5 321.5,-75.5 321.5,-56.5 188.5,-56.5"/>
<text text-anchor="middle" x="255" y="-63.5" font-family="Helvetica,sans-Serif" font-size="10.00">Marmot/MarmotTypedefs.h</text>
</a>
</g>
</g>
<!-- Node1&#45;&gt;Node6 -->
<g id="edge5" class="edge">
<title>Node1&#45;&gt;Node6</title>
<path fill="none" stroke="midnightblue" d="M195.21,-168.34C209.17,-159.57 225.57,-147.1 236,-132 245.5,-118.25 250.31,-99.72 252.71,-85.96"/>
<polygon fill="midnightblue" stroke="midnightblue" points="256.22,-86.14 254.2,-75.74 249.29,-85.13 256.22,-86.14"/>
</g>
<!-- Node7 -->
<g id="node7" class="node">
<title>Node7</title>
<g id="a_node7"><a xlink:href="MarmotVoigt_8h.html" target="_top" xlink:title=" ">
<polygon fill="white" stroke="black" points="111,-112.5 111,-131.5 227,-131.5 227,-112.5 111,-112.5"/>
<text text-anchor="middle" x="169" y="-119.5" font-family="Helvetica,sans-Serif" font-size="10.00">Marmot/MarmotVoigt.h</text>
</a>
</g>
</g>
<!-- Node1&#45;&gt;Node7 -->
<g id="edge6" class="edge">
<title>Node1&#45;&gt;Node7</title>
<path fill="none" stroke="midnightblue" d="M169,-168.4C169,-160.47 169,-150.46 169,-141.86"/>
<polygon fill="midnightblue" stroke="midnightblue" points="172.5,-141.66 169,-131.66 165.5,-141.66 172.5,-141.66"/>
</g>
<!-- Node8 -->
<g id="node8" class="node">
<title>Node8</title>
<g id="a_node8"><a xlink:title=" ">
<polygon fill="white" stroke="#bfbfbf" points="283.5,-112.5 283.5,-131.5 322.5,-131.5 322.5,-112.5 283.5,-112.5"/>
<text text-anchor="middle" x="303" y="-119.5" font-family="Helvetica,sans-Serif" font-size="10.00">utility</text>
</a>
</g>
</g>
<!-- Node1&#45;&gt;Node8 -->
<g id="edge10" class="edge">
<title>Node1&#45;&gt;Node8</title>
<path fill="none" stroke="midnightblue" d="M200.76,-168.4C223.04,-158.51 252.59,-145.38 274.19,-135.79"/>
<polygon fill="midnightblue" stroke="midnightblue" points="275.78,-138.91 283.5,-131.66 272.94,-132.52 275.78,-138.91"/>
</g>
<!-- Node2&#45;&gt;Node3 -->
<g id="edge2" class="edge">
<title>Node2&#45;&gt;Node3</title>
<path fill="none" stroke="midnightblue" d="M94.99,-56.32C82.47,-47.98 63.32,-35.21 48.53,-25.35"/>
<polygon fill="midnightblue" stroke="midnightblue" points="50.24,-22.29 39.98,-19.65 46.36,-28.11 50.24,-22.29"/>
</g>
<!-- Node4 -->
<g id="node4" class="node">
<title>Node4</title>
<g id="a_node4"><a xlink:title=" ">
<polygon fill="white" stroke="#bfbfbf" points="77,-0.5 77,-19.5 129,-19.5 129,-0.5 77,-0.5"/>
<text text-anchor="middle" x="103" y="-7.5" font-family="Helvetica,sans-Serif" font-size="10.00">sstream</text>
</a>
</g>
</g>
<!-- Node2&#45;&gt;Node4 -->
<g id="edge3" class="edge">
<title>Node2&#45;&gt;Node4</title>
<path fill="none" stroke="midnightblue" d="M107.17,-56.08C106.52,-49.01 105.58,-38.86 104.76,-29.99"/>
<polygon fill="midnightblue" stroke="midnightblue" points="108.22,-29.39 103.81,-19.75 101.25,-30.03 108.22,-29.39"/>
</g>
<!-- Node5 -->
<g id="node5" class="node">
<title>Node5</title>
<g id="a_node5"><a xlink:title=" ">
<polygon fill="white" stroke="#bfbfbf" points="147.5,-0.5 147.5,-19.5 188.5,-19.5 188.5,-0.5 147.5,-0.5"/>
<text text-anchor="middle" x="168" y="-7.5" font-family="Helvetica,sans-Serif" font-size="10.00">string</text>
</a>
</g>
</g>
<!-- Node2&#45;&gt;Node5 -->
<g id="edge4" class="edge">
<title>Node2&#45;&gt;Node5</title>
<path fill="none" stroke="midnightblue" d="M117.64,-56.32C126.51,-48.34 139.87,-36.31 150.61,-26.65"/>
<polygon fill="midnightblue" stroke="midnightblue" points="153.09,-29.13 158.18,-19.83 148.41,-23.92 153.09,-29.13"/>
</g>
<!-- Node7&#45;&gt;Node2 -->
<g id="edge7" class="edge">
<title>Node7&#45;&gt;Node2</title>
<path fill="none" stroke="midnightblue" d="M159.2,-112.32C150.18,-104.34 136.59,-92.31 125.68,-82.65"/>
<polygon fill="midnightblue" stroke="midnightblue" points="127.79,-79.84 117.98,-75.83 123.15,-85.08 127.79,-79.84"/>
</g>
<!-- Node7&#45;&gt;Node6 -->
<g id="edge8" class="edge">
<title>Node7&#45;&gt;Node6</title>
<path fill="none" stroke="midnightblue" d="M182.82,-112.32C196.23,-103.9 216.82,-90.97 232.59,-81.07"/>
<polygon fill="midnightblue" stroke="midnightblue" points="234.61,-83.94 241.22,-75.65 230.89,-78.01 234.61,-83.94"/>
</g>
</g>
</svg>
