<?xml version="1.0" encoding="UTF-8" standalone="no"?>
<!DOCTYPE svg PUBLIC "-//W3C//DTD SVG 1.1//EN"
 "http://www.w3.org/Graphics/SVG/1.1/DTD/svg11.dtd">
<!-- Generated by graphviz version 3.0.0 (20220413.0106)
 -->
<!-- Title: modules/core/MarmotMechanicsCore/src/MarmotLowerDimensionalStress.cpp Pages: 1 -->
<!--zoomable 352 -->
<svg id="main" version="1.1" xmlns="http://www.w3.org/2000/svg" xmlns:xlink="http://www.w3.org/1999/xlink" xml:space="preserve" onload="init(evt)">
<style type="text/css"><![CDATA[
.edge:hover path { stroke: red; }
.edge:hover polygon { stroke: red; fill: red; }
]]></style>
<script type="text/javascript"><![CDATA[
var edges = document.getElementsByTagName('g');
if (edges && edges.length) {
  for (var i=0;i<edges.length;i++) {
    if (edges[i].id.substr(0,4)=='edge') {
      edges[i].setAttribute('class','edge');
    }
  }
}
]]></script>
        <defs>
                <circle id="rim" cx="0" cy="0" r="7"/>
                <circle id="rim2" cx="0" cy="0" r="3.5"/>
                <g id="zoomPlus">
                        <use xlink:href="#rim" fill="#404040">
                                <set attributeName="fill" to="#808080" begin="zoomplus.mouseover" end="zoomplus.mouseout"/>
                        </use>
                        <path d="M-4,0h8M0,-4v8" fill="none" stroke="white" stroke-width="1.5" pointer-events="none"/>
                </g>
                <g id="zoomMin">
                        <use xlink:href="#rim" fill="#404040">
                                <set attributeName="fill" to="#808080" begin="zoomminus.mouseover" end="zoomminus.mouseout"/>
                        </use>
                        <path d="M-4,0h8" fill="none" stroke="white" stroke-width="1.5" pointer-events="none"/>
                </g>
                <g id="dirArrow">
                        <path fill="none" stroke="white" stroke-width="1.5" d="M0,-3.0v7 M-2.5,-0.5L0,-3.0L2.5,-0.5"/>
                </g>
               <g id="resetDef">
                       <use xlink:href="#rim2" fill="#404040">
                               <set attributeName="fill" to="#808080" begin="reset.mouseover" end="reset.mouseout"/>
                       </use>
               </g>
        </defs>

<script type="text/javascript">
var viewWidth = 759;
var viewHeight = 352;
var sectionId = 'dynsection-0';
</script>
<script xlink:href="svgpan.js"/>
<svg id="graph" class="graph">
<g id="viewport">
<title>modules/core/MarmotMechanicsCore/src/MarmotLowerDimensionalStress.cpp</title>
<polygon fill="white" stroke="transparent" points="-4,4 -4,-348 754.5,-348 754.5,4 -4,4"/>
<!-- Node1 -->
<g id="node1" class="node">
<title>Node1</title>
<g id="a_node1"><a xlink:title=" ">
<polygon fill="#bfbfbf" stroke="black" points="226.5,-302.5 226.5,-343.5 396.5,-343.5 396.5,-302.5 226.5,-302.5"/>
<text text-anchor="start" x="234.5" y="-331.5" font-family="Helvetica,sans-Serif" font-size="10.00">modules/core/MarmotMechanics</text>
<text text-anchor="start" x="234.5" y="-320.5" font-family="Helvetica,sans-Serif" font-size="10.00">Core/src/MarmotLowerDimensional</text>
<text text-anchor="middle" x="311.5" y="-309.5" font-family="Helvetica,sans-Serif" font-size="10.00">Stress.cpp</text>
</a>
</g>
</g>
<!-- Node2 -->
<g id="node2" class="node">
<title>Node2</title>
<g id="a_node2"><a xlink:href="MarmotLowerDimensionalStress_8h.html" target="_top" xlink:title=" ">
<polygon fill="white" stroke="black" points="117.5,-235.5 117.5,-265.5 283.5,-265.5 283.5,-235.5 117.5,-235.5"/>
<text text-anchor="start" x="125.5" y="-253.5" font-family="Helvetica,sans-Serif" font-size="10.00">Marmot/MarmotLowerDimensional</text>
<text text-anchor="middle" x="200.5" y="-242.5" font-family="Helvetica,sans-Serif" font-size="10.00">Stress.h</text>
</a>
</g>
</g>
<!-- Node1&#45;&gt;Node2 -->
<g id="edge1" class="edge">
<title>Node1&#45;&gt;Node2</title>
<path fill="none" stroke="midnightblue" d="M280.58,-302.36C265.24,-292.62 246.77,-280.89 231.43,-271.15"/>
<polygon fill="midnightblue" stroke="midnightblue" points="233.13,-268.08 222.81,-265.67 229.38,-273.99 233.13,-268.08"/>
</g>
<!-- Node3 -->
<g id="node3" class="node">
<title>Node3</title>
<g id="a_node3"><a xlink:href="MarmotVoigt_8h.html" target="_top" xlink:title=" ">
<polygon fill="white" stroke="black" points="175.5,-179.5 175.5,-198.5 291.5,-198.5 291.5,-179.5 175.5,-179.5"/>
<text text-anchor="middle" x="233.5" y="-186.5" font-family="Helvetica,sans-Serif" font-size="10.00">Marmot/MarmotVoigt.h</text>
</a>
</g>
</g>
<!-- Node1&#45;&gt;Node3 -->
<g id="edge23" class="edge">
<title>Node1&#45;&gt;Node3</title>
<path fill="none" stroke="midnightblue" d="M311.02,-302.22C309.73,-283.56 305.54,-255.47 292.5,-235 284.28,-222.1 271,-211.48 259.11,-203.81"/>
<polygon fill="midnightblue" stroke="midnightblue" points="260.77,-200.72 250.4,-198.53 257.14,-206.71 260.77,-200.72"/>
</g>
<!-- Node17 -->
<g id="node17" class="node">
<title>Node17</title>
<g id="a_node17"><a xlink:href="MarmotTensor_8h.html" target="_top" xlink:title=" ">
<polygon fill="white" stroke="black" points="340,-241 340,-260 463,-260 463,-241 340,-241"/>
<text text-anchor="middle" x="401.5" y="-248" font-family="Helvetica,sans-Serif" font-size="10.00">Marmot/MarmotTensor.h</text>
</a>
</g>
</g>
<!-- Node1&#45;&gt;Node17 -->
<g id="edge17" class="edge">
<title>Node1&#45;&gt;Node17</title>
<path fill="none" stroke="midnightblue" d="M336.57,-302.36C351.08,-291 369.05,-276.92 382.4,-266.46"/>
<polygon fill="midnightblue" stroke="midnightblue" points="384.71,-269.1 390.43,-260.17 380.4,-263.58 384.71,-269.1"/>
</g>
<!-- Node2&#45;&gt;Node3 -->
<g id="edge2" class="edge">
<title>Node2&#45;&gt;Node3</title>
<path fill="none" stroke="midnightblue" d="M208.32,-235.4C212.97,-227.02 218.9,-216.33 223.84,-207.42"/>
<polygon fill="midnightblue" stroke="midnightblue" points="226.91,-209.1 228.7,-198.66 220.79,-205.71 226.91,-209.1"/>
</g>
<!-- Node4 -->
<g id="node4" class="node">
<title>Node4</title>
<g id="a_node4"><a xlink:href="MarmotJournal_8h.html" target="_top" xlink:title=" ">
<polygon fill="white" stroke="black" points="525,-123.5 525,-142.5 650,-142.5 650,-123.5 525,-123.5"/>
<text text-anchor="middle" x="587.5" y="-130.5" font-family="Helvetica,sans-Serif" font-size="10.00">Marmot/MarmotJournal.h</text>
</a>
</g>
</g>
<!-- Node3&#45;&gt;Node4 -->
<g id="edge3" class="edge">
<title>Node3&#45;&gt;Node4</title>
<path fill="none" stroke="midnightblue" d="M289.59,-179.44C352.64,-169.83 454.9,-154.23 521.68,-144.04"/>
<polygon fill="midnightblue" stroke="midnightblue" points="522.31,-147.48 531.67,-142.52 521.26,-140.56 522.31,-147.48"/>
</g>
<!-- Node8 -->
<g id="node8" class="node">
<title>Node8</title>
<g id="a_node8"><a xlink:href="MarmotMath_8h.html" target="_top" xlink:title=" ">
<polygon fill="white" stroke="black" points="348,-123.5 348,-142.5 463,-142.5 463,-123.5 348,-123.5"/>
<text text-anchor="middle" x="405.5" y="-130.5" font-family="Helvetica,sans-Serif" font-size="10.00">Marmot/MarmotMath.h</text>
</a>
</g>
</g>
<!-- Node3&#45;&gt;Node8 -->
<g id="edge7" class="edge">
<title>Node3&#45;&gt;Node8</title>
<path fill="none" stroke="midnightblue" d="M260.75,-179.44C289.94,-170.28 336.42,-155.69 368.81,-145.52"/>
<polygon fill="midnightblue" stroke="midnightblue" points="369.88,-148.85 378.37,-142.52 367.78,-142.17 369.88,-148.85"/>
</g>
<!-- Node11 -->
<g id="node11" class="node">
<title>Node11</title>
<g id="a_node11"><a xlink:href="MarmotTypedefs_8h.html" target="_top" xlink:title=" ">
<polygon fill="white" stroke="black" points="115,-67.5 115,-86.5 248,-86.5 248,-67.5 115,-67.5"/>
<text text-anchor="middle" x="181.5" y="-74.5" font-family="Helvetica,sans-Serif" font-size="10.00">Marmot/MarmotTypedefs.h</text>
</a>
</g>
</g>
<!-- Node3&#45;&gt;Node11 -->
<g id="edge16" class="edge">
<title>Node3&#45;&gt;Node11</title>
<path fill="none" stroke="midnightblue" d="M229.42,-179.37C220.95,-161.46 201.32,-119.92 189.98,-95.95"/>
<polygon fill="midnightblue" stroke="midnightblue" points="193,-94.14 185.56,-86.59 186.67,-97.13 193,-94.14"/>
</g>
<!-- Node5 -->
<g id="node5" class="node">
<title>Node5</title>
<g id="a_node5"><a xlink:title=" ">
<polygon fill="white" stroke="#bfbfbf" points="696.5,-67.5 696.5,-86.5 750.5,-86.5 750.5,-67.5 696.5,-67.5"/>
<text text-anchor="middle" x="723.5" y="-74.5" font-family="Helvetica,sans-Serif" font-size="10.00">iostream</text>
</a>
</g>
</g>
<!-- Node4&#45;&gt;Node5 -->
<g id="edge4" class="edge">
<title>Node4&#45;&gt;Node5</title>
<path fill="none" stroke="midnightblue" d="M609.05,-123.44C631.53,-114.52 666.99,-100.44 692.48,-90.32"/>
<polygon fill="midnightblue" stroke="midnightblue" points="694.05,-93.46 702.05,-86.52 691.47,-86.95 694.05,-93.46"/>
</g>
<!-- Node6 -->
<g id="node6" class="node">
<title>Node6</title>
<g id="a_node6"><a xlink:title=" ">
<polygon fill="white" stroke="#bfbfbf" points="626.5,-67.5 626.5,-86.5 678.5,-86.5 678.5,-67.5 626.5,-67.5"/>
<text text-anchor="middle" x="652.5" y="-74.5" font-family="Helvetica,sans-Serif" font-size="10.00">sstream</text>
</a>
</g>
</g>
<!-- Node4&#45;&gt;Node6 -->
<g id="edge5" class="edge">
<title>Node4&#45;&gt;Node6</title>
<path fill="none" stroke="midnightblue" d="M597.94,-123.32C607.65,-115.26 622.32,-103.08 634,-93.37"/>
<polygon fill="midnightblue" stroke="midnightblue" points="636.41,-95.92 641.87,-86.83 631.94,-90.53 636.41,-95.92"/>
</g>
<!-- Node7 -->
<g id="node7" class="node">
<title>Node7</title>
<g id="a_node7"><a xlink:title=" ">
<polygon fill="white" stroke="#bfbfbf" points="567,-67.5 567,-86.5 608,-86.5 608,-67.5 567,-67.5"/>
<text text-anchor="middle" x="587.5" y="-74.5" font-family="Helvetica,sans-Serif" font-size="10.00">string</text>
</a>
</g>
</g>
<!-- Node4&#45;&gt;Node7 -->
<g id="edge6" class="edge">
<title>Node4&#45;&gt;Node7</title>
<path fill="none" stroke="midnightblue" d="M587.5,-123.08C587.5,-116.01 587.5,-105.86 587.5,-96.99"/>
<polygon fill="midnightblue" stroke="midnightblue" points="591,-96.75 587.5,-86.75 584,-96.75 591,-96.75"/>
</g>
<!-- Node9 -->
<g id="node9" class="node">
<title>Node9</title>
<g id="a_node9"><a xlink:href="MarmotConstants_8h.html" target="_top" xlink:title=" ">
<polygon fill="white" stroke="black" points="337,-67.5 337,-86.5 474,-86.5 474,-67.5 337,-67.5"/>
<text text-anchor="middle" x="405.5" y="-74.5" font-family="Helvetica,sans-Serif" font-size="10.00">Marmot/MarmotConstants.h</text>
</a>
</g>
</g>
<!-- Node8&#45;&gt;Node9 -->
<g id="edge8" class="edge">
<title>Node8&#45;&gt;Node9</title>
<path fill="none" stroke="midnightblue" d="M405.5,-123.08C405.5,-116.01 405.5,-105.86 405.5,-96.99"/>
<polygon fill="midnightblue" stroke="midnightblue" points="409,-96.75 405.5,-86.75 402,-96.75 409,-96.75"/>
</g>
<!-- Node8&#45;&gt;Node11 -->
<g id="edge10" class="edge">
<title>Node8&#45;&gt;Node11</title>
<path fill="none" stroke="midnightblue" d="M370.01,-123.44C331.18,-114.08 268.84,-99.06 226.58,-88.87"/>
<polygon fill="midnightblue" stroke="midnightblue" points="227.37,-85.46 216.83,-86.52 225.73,-92.26 227.37,-85.46"/>
</g>
<!-- Node15 -->
<g id="node15" class="node">
<title>Node15</title>
<g id="a_node15"><a xlink:title=" ">
<polygon fill="white" stroke="#bfbfbf" points="492.5,-67.5 492.5,-86.5 548.5,-86.5 548.5,-67.5 492.5,-67.5"/>
<text text-anchor="middle" x="520.5" y="-74.5" font-family="Helvetica,sans-Serif" font-size="10.00">algorithm</text>
</a>
</g>
</g>
<!-- Node8&#45;&gt;Node15 -->
<g id="edge14" class="edge">
<title>Node8&#45;&gt;Node15</title>
<path fill="none" stroke="midnightblue" d="M423.72,-123.44C442.4,-114.68 471.66,-100.94 493.12,-90.86"/>
<polygon fill="midnightblue" stroke="midnightblue" points="494.8,-93.93 502.36,-86.52 491.82,-87.6 494.8,-93.93"/>
</g>
<!-- Node16 -->
<g id="node16" class="node">
<title>Node16</title>
<g id="a_node16"><a xlink:title=" ">
<polygon fill="white" stroke="#bfbfbf" points="266,-67.5 266,-86.5 319,-86.5 319,-67.5 266,-67.5"/>
<text text-anchor="middle" x="292.5" y="-74.5" font-family="Helvetica,sans-Serif" font-size="10.00">complex</text>
</a>
</g>
</g>
<!-- Node8&#45;&gt;Node16 -->
<g id="edge15" class="edge">
<title>Node8&#45;&gt;Node16</title>
<path fill="none" stroke="midnightblue" d="M387.59,-123.44C369.25,-114.68 340.49,-100.94 319.41,-90.86"/>
<polygon fill="midnightblue" stroke="midnightblue" points="320.85,-87.67 310.32,-86.52 317.83,-93.99 320.85,-87.67"/>
</g>
<!-- Node10 -->
<g id="node10" class="node">
<title>Node10</title>
<g id="a_node10"><a xlink:title=" ">
<polygon fill="white" stroke="#bfbfbf" points="383.5,-6 383.5,-25 427.5,-25 427.5,-6 383.5,-6"/>
<text text-anchor="middle" x="405.5" y="-13" font-family="Helvetica,sans-Serif" font-size="10.00">cmath</text>
</a>
</g>
</g>
<!-- Node9&#45;&gt;Node10 -->
<g id="edge9" class="edge">
<title>Node9&#45;&gt;Node10</title>
<path fill="none" stroke="midnightblue" d="M405.5,-67.48C405.5,-59.08 405.5,-45.98 405.5,-35.16"/>
<polygon fill="midnightblue" stroke="midnightblue" points="409,-35.01 405.5,-25.01 402,-35.01 409,-35.01"/>
</g>
<!-- Node12 -->
<g id="node12" class="node">
<title>Node12</title>
<g id="a_node12"><a xlink:title=" ">
<polygon fill="white" stroke="#bfbfbf" points="149.5,-6 149.5,-25 213.5,-25 213.5,-6 149.5,-6"/>
<text text-anchor="middle" x="181.5" y="-13" font-family="Helvetica,sans-Serif" font-size="10.00">Eigen/Core</text>
</a>
</g>
</g>
<!-- Node11&#45;&gt;Node12 -->
<g id="edge11" class="edge">
<title>Node11&#45;&gt;Node12</title>
<path fill="none" stroke="midnightblue" d="M181.5,-67.48C181.5,-59.08 181.5,-45.98 181.5,-35.16"/>
<polygon fill="midnightblue" stroke="midnightblue" points="185,-35.01 181.5,-25.01 178,-35.01 185,-35.01"/>
</g>
<!-- Node13 -->
<g id="node13" class="node">
<title>Node13</title>
<g id="a_node13"><a xlink:title=" ">
<polygon fill="white" stroke="#bfbfbf" points="232,-6 232,-25 303,-25 303,-6 232,-6"/>
<text text-anchor="middle" x="267.5" y="-13" font-family="Helvetica,sans-Serif" font-size="10.00">Eigen/Dense</text>
</a>
</g>
</g>
<!-- Node11&#45;&gt;Node13 -->
<g id="edge12" class="edge">
<title>Node11&#45;&gt;Node13</title>
<path fill="none" stroke="midnightblue" d="M193.82,-67.48C207.62,-57.93 230.2,-42.31 246.73,-30.87"/>
<polygon fill="midnightblue" stroke="midnightblue" points="248.97,-33.58 255.2,-25.01 244.99,-27.82 248.97,-33.58"/>
</g>
<!-- Node14 -->
<g id="node14" class="node">
<title>Node14</title>
<g id="a_node14"><a xlink:title=" ">
<polygon fill="white" stroke="#bfbfbf" points="0,-0.5 0,-30.5 131,-30.5 131,-0.5 0,-0.5"/>
<text text-anchor="start" x="8" y="-18.5" font-family="Helvetica,sans-Serif" font-size="10.00">unsupported/Eigen/CXX11</text>
<text text-anchor="middle" x="65.5" y="-7.5" font-family="Helvetica,sans-Serif" font-size="10.00">/Tensor</text>
</a>
</g>
</g>
<!-- Node11&#45;&gt;Node14 -->
<g id="edge13" class="edge">
<title>Node11&#45;&gt;Node14</title>
<path fill="none" stroke="midnightblue" d="M164.88,-67.48C148.51,-59.08 122.96,-45.97 101.87,-35.15"/>
<polygon fill="midnightblue" stroke="midnightblue" points="103.33,-31.97 92.84,-30.52 100.14,-38.2 103.33,-31.97"/>
</g>
<!-- Node17&#45;&gt;Node3 -->
<g id="edge20" class="edge">
<title>Node17&#45;&gt;Node3</title>
<path fill="none" stroke="midnightblue" d="M377.43,-240.98C348.49,-230.72 299.74,-213.46 267.1,-201.9"/>
<polygon fill="midnightblue" stroke="midnightblue" points="268.12,-198.55 257.53,-198.51 265.78,-205.15 268.12,-198.55"/>
</g>
<!-- Node17&#45;&gt;Node4 -->
<g id="edge18" class="edge">
<title>Node17&#45;&gt;Node4</title>
<path fill="none" stroke="midnightblue" d="M415.48,-240.82C447.39,-221 525.84,-172.29 564.79,-148.1"/>
<polygon fill="midnightblue" stroke="midnightblue" points="566.71,-151.03 573.36,-142.78 563.02,-145.08 566.71,-151.03"/>
</g>
<!-- Node17&#45;&gt;Node5 -->
<g id="edge21" class="edge">
<title>Node17&#45;&gt;Node5</title>
<path fill="none" stroke="midnightblue" d="M433.28,-240.9C484.06,-226.2 585.33,-192.91 659.5,-143 679.52,-129.53 698.38,-109.07 710.37,-94.71"/>
<polygon fill="midnightblue" stroke="midnightblue" points="713.31,-96.64 716.9,-86.67 707.88,-92.23 713.31,-96.64"/>
</g>
<!-- Node17&#45;&gt;Node11 -->
<g id="edge19" class="edge">
<title>Node17&#45;&gt;Node11</title>
<path fill="none" stroke="midnightblue" d="M390.59,-241C355.48,-213.62 245.08,-127.57 200.48,-92.79"/>
<polygon fill="midnightblue" stroke="midnightblue" points="202.51,-89.94 192.48,-86.56 198.21,-95.46 202.51,-89.94"/>
</g>
<!-- Node18 -->
<g id="node18" class="node">
<title>Node18</title>
<g id="a_node18"><a xlink:title=" ">
<polygon fill="white" stroke="#bfbfbf" points="382,-179.5 382,-198.5 421,-198.5 421,-179.5 382,-179.5"/>
<text text-anchor="middle" x="401.5" y="-186.5" font-family="Helvetica,sans-Serif" font-size="10.00">utility</text>
</a>
</g>
</g>
<!-- Node17&#45;&gt;Node18 -->
<g id="edge22" class="edge">
<title>Node17&#45;&gt;Node18</title>
<path fill="none" stroke="midnightblue" d="M401.5,-240.98C401.5,-232.58 401.5,-219.48 401.5,-208.66"/>
<polygon fill="midnightblue" stroke="midnightblue" points="405,-208.51 401.5,-198.51 398,-208.51 405,-208.51"/>
</g>
</g>
</svg>
        <g id="navigator" transform="translate(0 0)" fill="#404254">
                <rect fill="#f2f5e9" fill-opacity="0.5" stroke="#606060" stroke-width=".5" x="0" y="0" width="60" height="60"/>
                <use id="zoomplus" xlink:href="#zoomPlus" x="17" y="9" onmousedown="handleZoom(evt,'in')"/>
                <use id="zoomminus" xlink:href="#zoomMin" x="42" y="9" onmousedown="handleZoom(evt,'out')"/>
                <use id="reset" xlink:href="#resetDef" x="30" y="36" onmousedown="handleReset()"/>
                <g id="arrowUp" xlink:href="#dirArrow" transform="translate(30 24)" onmousedown="handlePan(0,-1)">
                  <use xlink:href="#rim" fill="#404040">
                        <set attributeName="fill" to="#808080" begin="arrowUp.mouseover" end="arrowUp.mouseout"/>
                  </use>
                  <path fill="none" stroke="white" stroke-width="1.5" d="M0,-3.0v7 M-2.5,-0.5L0,-3.0L2.5,-0.5"/>
                </g>
                <g id="arrowRight" xlink:href="#dirArrow" transform="rotate(90) translate(36 -43)" onmousedown="handlePan(1,0)">
                  <use xlink:href="#rim" fill="#404040">
                        <set attributeName="fill" to="#808080" begin="arrowRight.mouseover" end="arrowRight.mouseout"/>
                  </use>
                  <path fill="none" stroke="white" stroke-width="1.5" d="M0,-3.0v7 M-2.5,-0.5L0,-3.0L2.5,-0.5"/>
                </g>
                <g id="arrowDown" xlink:href="#dirArrow" transform="rotate(180) translate(-30 -48)" onmousedown="handlePan(0,1)">
                  <use xlink:href="#rim" fill="#404040">
                        <set attributeName="fill" to="#808080" begin="arrowDown.mouseover" end="arrowDown.mouseout"/>
                  </use>
                  <path fill="none" stroke="white" stroke-width="1.5" d="M0,-3.0v7 M-2.5,-0.5L0,-3.0L2.5,-0.5"/>
                </g>
                <g id="arrowLeft" xlink:href="#dirArrow" transform="rotate(270) translate(-36 17)" onmousedown="handlePan(-1,0)">
                  <use xlink:href="#rim" fill="#404040">
                        <set attributeName="fill" to="#808080" begin="arrowLeft.mouseover" end="arrowLeft.mouseout"/>
                  </use>
                  <path fill="none" stroke="white" stroke-width="1.5" d="M0,-3.0v7 M-2.5,-0.5L0,-3.0L2.5,-0.5"/>
                </g>
        </g>
        <svg viewBox="0 0 15 15" width="100%" height="30px" preserveAspectRatio="xMaxYMin meet">
         <g id="arrow_out" transform="scale(0.3 0.3)">
          <a xlink:href="MarmotLowerDimensionalStress_8cpp__incl_org.svg" target="_base">
           <rect id="button" ry="5" rx="5" y="6" x="6" height="38" width="38"
                fill="#f2f5e9" fill-opacity="0.5" stroke="#606060" stroke-width="1.0"/>
           <path id="arrow"
             d="M 11.500037,31.436501 C 11.940474,20.09759 22.043105,11.32322 32.158766,21.979434 L 37.068811,17.246167 C 37.068811,17.246167 37.088388,32 37.088388,32 L 22.160133,31.978069 C 22.160133,31.978069 26.997745,27.140456 26.997745,27.140456 C 18.528582,18.264221 13.291696,25.230495 11.500037,31.436501 z"
             style="fill:#404040;"/>
          </a>
         </g>
        </svg>
</svg>
