<?xml version="1.0" encoding="UTF-8" standalone="no"?>
<!DOCTYPE svg PUBLIC "-//W3C//DTD SVG 1.1//EN"
 "http://www.w3.org/Graphics/SVG/1.1/DTD/svg11.dtd">
<!-- Generated by graphviz version 2.47.0 (20210316.2052)
 -->
<!-- Title: modules/core/MarmotMechanicsCore/src/MarmotMaterialHyperElastic.cpp Pages: 1 -->
<svg width="890pt" height="285pt"
 viewBox="0.00 0.00 889.91 285.00" xmlns="http://www.w3.org/2000/svg" xmlns:xlink="http://www.w3.org/1999/xlink">
<g id="graph0" class="graph" transform="scale(1 1) rotate(0) translate(4 281)">
<title>modules/core/MarmotMechanicsCore/src/MarmotMaterialHyperElastic.cpp</title>
<polygon fill="white" stroke="transparent" points="-4,4 -4,-281 885.91,-281 885.91,4 -4,4"/>
<!-- Node1 -->
<g id="node1" class="node">
<title>Node1</title>
<g id="a_node1"><a xlink:title=" ">
<polygon fill="#bfbfbf" stroke="black" points="364,-246.5 364,-276.5 561,-276.5 561,-246.5 364,-246.5"/>
<text text-anchor="start" x="372" y="-264.5" font-family="Helvetica,sans-Serif" font-size="10.00">modules/core/MarmotMechanics</text>
<text text-anchor="middle" x="462.5" y="-253.5" font-family="Helvetica,sans-Serif" font-size="10.00">Core/src/MarmotMaterialHyperElastic.cpp</text>
</a>
</g>
</g>
<!-- Node2 -->
<g id="node2" class="node">
<title>Node2</title>
<g id="a_node2"><a xlink:href="MarmotMaterialHyperElastic_8h.html" target="_top" xlink:title=" ">
<polygon fill="white" stroke="black" points="23.5,-179.5 23.5,-209.5 169.5,-209.5 169.5,-179.5 23.5,-179.5"/>
<text text-anchor="start" x="31.5" y="-197.5" font-family="Helvetica,sans-Serif" font-size="10.00">Marmot/MarmotMaterialHyper</text>
<text text-anchor="middle" x="96.5" y="-186.5" font-family="Helvetica,sans-Serif" font-size="10.00">Elastic.h</text>
</a>
</g>
</g>
<!-- Node1&#45;&gt;Node2 -->
<g id="edge1" class="edge">
<title>Node1&#45;&gt;Node2</title>
<path fill="none" stroke="midnightblue" d="M383.53,-246.48C323.42,-235.8 240.87,-221.14 179.73,-210.28"/>
<polygon fill="midnightblue" stroke="midnightblue" points="180.18,-206.81 169.72,-208.5 178.96,-213.7 180.18,-206.81"/>
</g>
<!-- Node7 -->
<g id="node7" class="node">
<title>Node7</title>
<g id="a_node7"><a xlink:href="MarmotConstants_8h.html" target="_top" xlink:title=" ">
<polygon fill="white" stroke="black" points="727,-123.5 727,-142.5 864,-142.5 864,-123.5 727,-123.5"/>
<text text-anchor="middle" x="795.5" y="-130.5" font-family="Helvetica,sans-Serif" font-size="10.00">Marmot/MarmotConstants.h</text>
</a>
</g>
</g>
<!-- Node1&#45;&gt;Node7 -->
<g id="edge6" class="edge">
<title>Node1&#45;&gt;Node7</title>
<path fill="none" stroke="midnightblue" d="M561.21,-252.98C608.93,-246.31 665.83,-233.73 712.5,-210 741.24,-195.39 767.41,-168.04 782.39,-150.44"/>
<polygon fill="midnightblue" stroke="midnightblue" points="785.13,-152.62 788.8,-142.69 779.73,-148.16 785.13,-152.62"/>
</g>
<!-- Node9 -->
<g id="node9" class="node">
<title>Node9</title>
<g id="a_node9"><a xlink:href="MarmotJournal_8h.html" target="_top" xlink:title=" ">
<polygon fill="white" stroke="black" points="183,-67.5 183,-86.5 308,-86.5 308,-67.5 183,-67.5"/>
<text text-anchor="middle" x="245.5" y="-74.5" font-family="Helvetica,sans-Serif" font-size="10.00">Marmot/MarmotJournal.h</text>
</a>
</g>
</g>
<!-- Node1&#45;&gt;Node9 -->
<g id="edge8" class="edge">
<title>Node1&#45;&gt;Node9</title>
<path fill="none" stroke="midnightblue" d="M363.84,-251.44C308.29,-244.07 246.68,-231.3 229.5,-210 202.9,-177.02 222.67,-123.47 235.99,-95.81"/>
<polygon fill="midnightblue" stroke="midnightblue" points="239.27,-97.07 240.67,-86.57 233.03,-93.91 239.27,-97.07"/>
</g>
<!-- Node10 -->
<g id="node10" class="node">
<title>Node10</title>
<g id="a_node10"><a xlink:title=" ">
<polygon fill="white" stroke="#bfbfbf" points="610.5,-6 610.5,-25 664.5,-25 664.5,-6 610.5,-6"/>
<text text-anchor="middle" x="637.5" y="-13" font-family="Helvetica,sans-Serif" font-size="10.00">iostream</text>
</a>
</g>
</g>
<!-- Node1&#45;&gt;Node10 -->
<g id="edge32" class="edge">
<title>Node1&#45;&gt;Node10</title>
<path fill="none" stroke="midnightblue" d="M561.04,-250.76C616.83,-243.34 687.29,-230.76 747.5,-210 807.46,-189.32 840.83,-197.37 873.5,-143 921.06,-63.84 752.69,-31.36 674.88,-20.78"/>
<polygon fill="midnightblue" stroke="midnightblue" points="674.9,-17.26 664.53,-19.43 673.99,-24.2 674.9,-17.26"/>
</g>
<!-- Node12 -->
<g id="node12" class="node">
<title>Node12</title>
<g id="a_node12"><a xlink:href="MarmotKinematics_8h.html" target="_top" xlink:title=" ">
<polygon fill="white" stroke="black" points="238.5,-185 238.5,-204 380.5,-204 380.5,-185 238.5,-185"/>
<text text-anchor="middle" x="309.5" y="-192" font-family="Helvetica,sans-Serif" font-size="10.00">Marmot/MarmotKinematics.h</text>
</a>
</g>
</g>
<!-- Node1&#45;&gt;Node12 -->
<g id="edge12" class="edge">
<title>Node1&#45;&gt;Node12</title>
<path fill="none" stroke="midnightblue" d="M429.3,-246.4C402.34,-234.94 364.67,-218.94 338.81,-207.95"/>
<polygon fill="midnightblue" stroke="midnightblue" points="340.1,-204.7 329.52,-204.01 337.36,-211.14 340.1,-204.7"/>
</g>
<!-- Node17 -->
<g id="node17" class="node">
<title>Node17</title>
<g id="a_node17"><a xlink:href="MarmotVoigt_8h.html" target="_top" xlink:title=" ">
<polygon fill="white" stroke="black" points="308.5,-123.5 308.5,-142.5 424.5,-142.5 424.5,-123.5 308.5,-123.5"/>
<text text-anchor="middle" x="366.5" y="-130.5" font-family="Helvetica,sans-Serif" font-size="10.00">Marmot/MarmotVoigt.h</text>
</a>
</g>
</g>
<!-- Node1&#45;&gt;Node17 -->
<g id="edge31" class="edge">
<title>Node1&#45;&gt;Node17</title>
<path fill="none" stroke="midnightblue" d="M451.86,-246.48C434.12,-223.1 398.57,-176.25 379.42,-151.02"/>
<polygon fill="midnightblue" stroke="midnightblue" points="382,-148.64 373.17,-142.79 376.43,-152.87 382,-148.64"/>
</g>
<!-- Node18 -->
<g id="node18" class="node">
<title>Node18</title>
<g id="a_node18"><a xlink:href="MarmotMath_8h.html" target="_top" xlink:title=" ">
<polygon fill="white" stroke="black" points="588,-185 588,-204 703,-204 703,-185 588,-185"/>
<text text-anchor="middle" x="645.5" y="-192" font-family="Helvetica,sans-Serif" font-size="10.00">Marmot/MarmotMath.h</text>
</a>
</g>
</g>
<!-- Node1&#45;&gt;Node18 -->
<g id="edge21" class="edge">
<title>Node1&#45;&gt;Node18</title>
<path fill="none" stroke="midnightblue" d="M502.21,-246.4C535.03,-234.74 581.1,-218.37 612.06,-207.38"/>
<polygon fill="midnightblue" stroke="midnightblue" points="613.3,-210.65 621.55,-204.01 610.95,-204.06 613.3,-210.65"/>
</g>
<!-- Node20 -->
<g id="node20" class="node">
<title>Node20</title>
<g id="a_node20"><a xlink:href="MarmotTensor_8h.html" target="_top" xlink:title=" ">
<polygon fill="white" stroke="black" points="445,-185 445,-204 568,-204 568,-185 445,-185"/>
<text text-anchor="middle" x="506.5" y="-192" font-family="Helvetica,sans-Serif" font-size="10.00">Marmot/MarmotTensor.h</text>
</a>
</g>
</g>
<!-- Node1&#45;&gt;Node20 -->
<g id="edge25" class="edge">
<title>Node1&#45;&gt;Node20</title>
<path fill="none" stroke="midnightblue" d="M472.05,-246.4C478.77,-236.46 487.81,-223.11 494.94,-212.57"/>
<polygon fill="midnightblue" stroke="midnightblue" points="497.91,-214.44 500.61,-204.19 492.11,-210.51 497.91,-214.44"/>
</g>
<!-- Node3 -->
<g id="node3" class="node">
<title>Node3</title>
<g id="a_node3"><a xlink:href="MarmotMaterialMechanical_8h.html" target="_top" xlink:title=" ">
<polygon fill="white" stroke="black" points="0,-123.5 0,-142.5 177,-142.5 177,-123.5 0,-123.5"/>
<text text-anchor="middle" x="88.5" y="-130.5" font-family="Helvetica,sans-Serif" font-size="10.00">Marmot/MarmotMaterialMechanical.h</text>
</a>
</g>
</g>
<!-- Node2&#45;&gt;Node3 -->
<g id="edge2" class="edge">
<title>Node2&#45;&gt;Node3</title>
<path fill="none" stroke="midnightblue" d="M94.6,-179.4C93.53,-171.38 92.16,-161.23 91,-152.57"/>
<polygon fill="midnightblue" stroke="midnightblue" points="94.47,-152.1 89.66,-142.66 87.53,-153.04 94.47,-152.1"/>
</g>
<!-- Node4 -->
<g id="node4" class="node">
<title>Node4</title>
<g id="a_node4"><a xlink:href="MarmotMaterial_8h.html" target="_top" xlink:title=" ">
<polygon fill="white" stroke="black" points="24.5,-67.5 24.5,-86.5 152.5,-86.5 152.5,-67.5 24.5,-67.5"/>
<text text-anchor="middle" x="88.5" y="-74.5" font-family="Helvetica,sans-Serif" font-size="10.00">Marmot/MarmotMaterial.h</text>
</a>
</g>
</g>
<!-- Node3&#45;&gt;Node4 -->
<g id="edge3" class="edge">
<title>Node3&#45;&gt;Node4</title>
<path fill="none" stroke="midnightblue" d="M88.5,-123.08C88.5,-116.01 88.5,-105.86 88.5,-96.99"/>
<polygon fill="midnightblue" stroke="midnightblue" points="92,-96.75 88.5,-86.75 85,-96.75 92,-96.75"/>
</g>
<!-- Node5 -->
<g id="node5" class="node">
<title>Node5</title>
<g id="a_node5"><a xlink:href="MarmotUtils_8h.html" target="_top" xlink:title=" ">
<polygon fill="white" stroke="black" points="29,-6 29,-25 142,-25 142,-6 29,-6"/>
<text text-anchor="middle" x="85.5" y="-13" font-family="Helvetica,sans-Serif" font-size="10.00">Marmot/MarmotUtils.h</text>
</a>
</g>
</g>
<!-- Node4&#45;&gt;Node5 -->
<g id="edge4" class="edge">
<title>Node4&#45;&gt;Node5</title>
<path fill="none" stroke="midnightblue" d="M88.07,-67.48C87.65,-59.08 86.99,-45.98 86.44,-35.16"/>
<polygon fill="midnightblue" stroke="midnightblue" points="89.93,-34.82 85.93,-25.01 82.94,-35.17 89.93,-34.82"/>
</g>
<!-- Node6 -->
<g id="node6" class="node">
<title>Node6</title>
<g id="a_node6"><a xlink:title=" ">
<polygon fill="white" stroke="#bfbfbf" points="160,-6 160,-25 201,-25 201,-6 160,-6"/>
<text text-anchor="middle" x="180.5" y="-13" font-family="Helvetica,sans-Serif" font-size="10.00">string</text>
</a>
</g>
</g>
<!-- Node4&#45;&gt;Node6 -->
<g id="edge5" class="edge">
<title>Node4&#45;&gt;Node6</title>
<path fill="none" stroke="midnightblue" d="M101.68,-67.48C116.57,-57.84 141.04,-42.02 158.77,-30.55"/>
<polygon fill="midnightblue" stroke="midnightblue" points="160.85,-33.38 167.34,-25.01 157.05,-27.5 160.85,-33.38"/>
</g>
<!-- Node8 -->
<g id="node8" class="node">
<title>Node8</title>
<g id="a_node8"><a xlink:title=" ">
<polygon fill="white" stroke="#bfbfbf" points="773.5,-67.5 773.5,-86.5 817.5,-86.5 817.5,-67.5 773.5,-67.5"/>
<text text-anchor="middle" x="795.5" y="-74.5" font-family="Helvetica,sans-Serif" font-size="10.00">cmath</text>
</a>
</g>
</g>
<!-- Node7&#45;&gt;Node8 -->
<g id="edge7" class="edge">
<title>Node7&#45;&gt;Node8</title>
<path fill="none" stroke="midnightblue" d="M795.5,-123.08C795.5,-116.01 795.5,-105.86 795.5,-96.99"/>
<polygon fill="midnightblue" stroke="midnightblue" points="799,-96.75 795.5,-86.75 792,-96.75 799,-96.75"/>
</g>
<!-- Node9&#45;&gt;Node6 -->
<g id="edge11" class="edge">
<title>Node9&#45;&gt;Node6</title>
<path fill="none" stroke="midnightblue" d="M236.19,-67.48C226.05,-58.2 209.64,-43.17 197.25,-31.83"/>
<polygon fill="midnightblue" stroke="midnightblue" points="199.54,-29.18 189.8,-25.01 194.81,-34.34 199.54,-29.18"/>
</g>
<!-- Node9&#45;&gt;Node10 -->
<g id="edge9" class="edge">
<title>Node9&#45;&gt;Node10</title>
<path fill="none" stroke="midnightblue" d="M308.1,-70.04C394.99,-61.44 547.54,-45.03 601.5,-31 604.01,-30.35 606.58,-29.56 609.13,-28.7"/>
<polygon fill="midnightblue" stroke="midnightblue" points="610.61,-31.89 618.75,-25.11 608.16,-25.33 610.61,-31.89"/>
</g>
<!-- Node11 -->
<g id="node11" class="node">
<title>Node11</title>
<g id="a_node11"><a xlink:title=" ">
<polygon fill="white" stroke="#bfbfbf" points="219.5,-6 219.5,-25 271.5,-25 271.5,-6 219.5,-6"/>
<text text-anchor="middle" x="245.5" y="-13" font-family="Helvetica,sans-Serif" font-size="10.00">sstream</text>
</a>
</g>
</g>
<!-- Node9&#45;&gt;Node11 -->
<g id="edge10" class="edge">
<title>Node9&#45;&gt;Node11</title>
<path fill="none" stroke="midnightblue" d="M245.5,-67.48C245.5,-59.08 245.5,-45.98 245.5,-35.16"/>
<polygon fill="midnightblue" stroke="midnightblue" points="249,-35.01 245.5,-25.01 242,-35.01 249,-35.01"/>
</g>
<!-- Node12&#45;&gt;Node9 -->
<g id="edge13" class="edge">
<title>Node12&#45;&gt;Node9</title>
<path fill="none" stroke="midnightblue" d="M300.04,-184.66C290.39,-175.19 275.59,-159.29 266.5,-143 258.37,-128.44 252.84,-110.26 249.5,-96.83"/>
<polygon fill="midnightblue" stroke="midnightblue" points="252.86,-95.82 247.2,-86.86 246.04,-97.39 252.86,-95.82"/>
</g>
<!-- Node13 -->
<g id="node13" class="node">
<title>Node13</title>
<g id="a_node13"><a xlink:href="MarmotTypedefs_8h.html" target="_top" xlink:title=" ">
<polygon fill="white" stroke="black" points="378,-67.5 378,-86.5 511,-86.5 511,-67.5 378,-67.5"/>
<text text-anchor="middle" x="444.5" y="-74.5" font-family="Helvetica,sans-Serif" font-size="10.00">Marmot/MarmotTypedefs.h</text>
</a>
</g>
</g>
<!-- Node12&#45;&gt;Node13 -->
<g id="edge14" class="edge">
<title>Node12&#45;&gt;Node13</title>
<path fill="none" stroke="midnightblue" d="M304.61,-184.72C297.32,-170.34 285.86,-141.51 299.5,-123 315.51,-101.27 341.92,-89.72 367.84,-83.69"/>
<polygon fill="midnightblue" stroke="midnightblue" points="368.65,-87.1 377.73,-81.64 367.23,-80.24 368.65,-87.1"/>
</g>
<!-- Node12&#45;&gt;Node17 -->
<g id="edge18" class="edge">
<title>Node12&#45;&gt;Node17</title>
<path fill="none" stroke="midnightblue" d="M317.67,-184.98C326.39,-175.87 340.4,-161.24 351.19,-149.98"/>
<polygon fill="midnightblue" stroke="midnightblue" points="353.96,-152.15 358.35,-142.51 348.9,-147.31 353.96,-152.15"/>
</g>
<!-- Node14 -->
<g id="node14" class="node">
<title>Node14</title>
<g id="a_node14"><a xlink:title=" ">
<polygon fill="white" stroke="#bfbfbf" points="528.5,-6 528.5,-25 592.5,-25 592.5,-6 528.5,-6"/>
<text text-anchor="middle" x="560.5" y="-13" font-family="Helvetica,sans-Serif" font-size="10.00">Eigen/Core</text>
</a>
</g>
</g>
<!-- Node13&#45;&gt;Node14 -->
<g id="edge15" class="edge">
<title>Node13&#45;&gt;Node14</title>
<path fill="none" stroke="midnightblue" d="M461.12,-67.48C480.42,-57.58 512.46,-41.14 534.93,-29.62"/>
<polygon fill="midnightblue" stroke="midnightblue" points="536.61,-32.69 543.91,-25.01 533.42,-26.46 536.61,-32.69"/>
</g>
<!-- Node15 -->
<g id="node15" class="node">
<title>Node15</title>
<g id="a_node15"><a xlink:title=" ">
<polygon fill="white" stroke="#bfbfbf" points="290,-6 290,-25 361,-25 361,-6 290,-6"/>
<text text-anchor="middle" x="325.5" y="-13" font-family="Helvetica,sans-Serif" font-size="10.00">Eigen/Dense</text>
</a>
</g>
</g>
<!-- Node13&#45;&gt;Node15 -->
<g id="edge16" class="edge">
<title>Node13&#45;&gt;Node15</title>
<path fill="none" stroke="midnightblue" d="M427.45,-67.48C407.66,-57.58 374.78,-41.14 351.73,-29.62"/>
<polygon fill="midnightblue" stroke="midnightblue" points="353.03,-26.35 342.52,-25.01 349.9,-32.61 353.03,-26.35"/>
</g>
<!-- Node16 -->
<g id="node16" class="node">
<title>Node16</title>
<g id="a_node16"><a xlink:title=" ">
<polygon fill="white" stroke="#bfbfbf" points="379,-0.5 379,-30.5 510,-30.5 510,-0.5 379,-0.5"/>
<text text-anchor="start" x="387" y="-18.5" font-family="Helvetica,sans-Serif" font-size="10.00">unsupported/Eigen/CXX11</text>
<text text-anchor="middle" x="444.5" y="-7.5" font-family="Helvetica,sans-Serif" font-size="10.00">/Tensor</text>
</a>
</g>
</g>
<!-- Node13&#45;&gt;Node16 -->
<g id="edge17" class="edge">
<title>Node13&#45;&gt;Node16</title>
<path fill="none" stroke="midnightblue" d="M444.5,-67.48C444.5,-60.47 444.5,-50.19 444.5,-40.7"/>
<polygon fill="midnightblue" stroke="midnightblue" points="448,-40.52 444.5,-30.52 441,-40.52 448,-40.52"/>
</g>
<!-- Node17&#45;&gt;Node9 -->
<g id="edge19" class="edge">
<title>Node17&#45;&gt;Node9</title>
<path fill="none" stroke="midnightblue" d="M347.33,-123.44C327.59,-114.64 296.61,-100.81 274.01,-90.72"/>
<polygon fill="midnightblue" stroke="midnightblue" points="275.14,-87.4 264.58,-86.52 272.29,-93.79 275.14,-87.4"/>
</g>
<!-- Node17&#45;&gt;Node13 -->
<g id="edge20" class="edge">
<title>Node17&#45;&gt;Node13</title>
<path fill="none" stroke="midnightblue" d="M379.03,-123.32C391.09,-114.98 409.53,-102.21 423.77,-92.35"/>
<polygon fill="midnightblue" stroke="midnightblue" points="425.77,-95.22 432,-86.65 421.78,-89.47 425.77,-95.22"/>
</g>
<!-- Node18&#45;&gt;Node7 -->
<g id="edge22" class="edge">
<title>Node18&#45;&gt;Node7</title>
<path fill="none" stroke="midnightblue" d="M666.99,-184.98C692.61,-174.81 735.61,-157.76 764.74,-146.2"/>
<polygon fill="midnightblue" stroke="midnightblue" points="766.04,-149.45 774.05,-142.51 763.46,-142.94 766.04,-149.45"/>
</g>
<!-- Node18&#45;&gt;Node13 -->
<g id="edge23" class="edge">
<title>Node18&#45;&gt;Node13</title>
<path fill="none" stroke="midnightblue" d="M655.35,-184.94C670.36,-170.87 695.6,-142.48 679.5,-123 659.61,-98.94 582.07,-87.62 521.43,-82.37"/>
<polygon fill="midnightblue" stroke="midnightblue" points="521.34,-78.85 511.09,-81.52 520.77,-85.83 521.34,-78.85"/>
</g>
<!-- Node19 -->
<g id="node19" class="node">
<title>Node19</title>
<g id="a_node19"><a xlink:title=" ">
<polygon fill="white" stroke="#bfbfbf" points="614.5,-123.5 614.5,-142.5 670.5,-142.5 670.5,-123.5 614.5,-123.5"/>
<text text-anchor="middle" x="642.5" y="-130.5" font-family="Helvetica,sans-Serif" font-size="10.00">algorithm</text>
</a>
</g>
</g>
<!-- Node18&#45;&gt;Node19 -->
<g id="edge24" class="edge">
<title>Node18&#45;&gt;Node19</title>
<path fill="none" stroke="midnightblue" d="M645.07,-184.98C644.65,-176.58 643.99,-163.48 643.44,-152.66"/>
<polygon fill="midnightblue" stroke="midnightblue" points="646.93,-152.32 642.93,-142.51 639.94,-152.67 646.93,-152.32"/>
</g>
<!-- Node20&#45;&gt;Node9 -->
<g id="edge26" class="edge">
<title>Node20&#45;&gt;Node9</title>
<path fill="none" stroke="midnightblue" d="M507.46,-184.69C508.55,-169.73 508.37,-139.39 491.5,-123 467.26,-99.45 381.54,-87.9 318.07,-82.47"/>
<polygon fill="midnightblue" stroke="midnightblue" points="318.34,-78.98 308.08,-81.65 317.76,-85.95 318.34,-78.98"/>
</g>
<!-- Node20&#45;&gt;Node10 -->
<g id="edge29" class="edge">
<title>Node20&#45;&gt;Node10</title>
<path fill="none" stroke="midnightblue" d="M512.82,-184.96C533.17,-157.46 597.3,-70.82 624.79,-33.68"/>
<polygon fill="midnightblue" stroke="midnightblue" points="627.8,-35.49 630.94,-25.37 622.17,-31.32 627.8,-35.49"/>
</g>
<!-- Node20&#45;&gt;Node13 -->
<g id="edge27" class="edge">
<title>Node20&#45;&gt;Node13</title>
<path fill="none" stroke="midnightblue" d="M512.76,-184.67C521.8,-170.71 536.23,-143.06 524.5,-123 515.64,-107.85 499.59,-97.41 484.19,-90.42"/>
<polygon fill="midnightblue" stroke="midnightblue" points="485.33,-87.11 474.75,-86.51 482.65,-93.57 485.33,-87.11"/>
</g>
<!-- Node20&#45;&gt;Node17 -->
<g id="edge28" class="edge">
<title>Node20&#45;&gt;Node17</title>
<path fill="none" stroke="midnightblue" d="M486.44,-184.98C462.74,-174.9 423.09,-158.05 395.92,-146.5"/>
<polygon fill="midnightblue" stroke="midnightblue" points="397.09,-143.2 386.52,-142.51 394.36,-149.64 397.09,-143.2"/>
</g>
<!-- Node21 -->
<g id="node21" class="node">
<title>Node21</title>
<g id="a_node21"><a xlink:title=" ">
<polygon fill="white" stroke="#bfbfbf" points="443,-123.5 443,-142.5 482,-142.5 482,-123.5 443,-123.5"/>
<text text-anchor="middle" x="462.5" y="-130.5" font-family="Helvetica,sans-Serif" font-size="10.00">utility</text>
</a>
</g>
</g>
<!-- Node20&#45;&gt;Node21 -->
<g id="edge30" class="edge">
<title>Node20&#45;&gt;Node21</title>
<path fill="none" stroke="midnightblue" d="M500.2,-184.98C493.6,-176.05 483.06,-161.81 474.81,-150.64"/>
<polygon fill="midnightblue" stroke="midnightblue" points="477.55,-148.47 468.79,-142.51 471.92,-152.63 477.55,-148.47"/>
</g>
</g>
</svg>
