<?xml version="1.0" encoding="UTF-8" standalone="no"?>
<!DOCTYPE svg PUBLIC "-//W3C//DTD SVG 1.1//EN"
 "http://www.w3.org/Graphics/SVG/1.1/DTD/svg11.dtd">
<!-- Generated by graphviz version 2.44.0 ()
 -->
<!-- Title: modules/materials/B4/src/MarmotSolidification.cpp Pages: 1 -->
<svg width="520pt" height="274pt"
 viewBox="0.00 0.00 519.50 274.00" xmlns="http://www.w3.org/2000/svg" xmlns:xlink="http://www.w3.org/1999/xlink">
<g id="graph0" class="graph" transform="scale(1 1) rotate(0) translate(4 270)">
<title>modules/materials/B4/src/MarmotSolidification.cpp</title>
<polygon fill="white" stroke="transparent" points="-4,4 -4,-270 515.5,-270 515.5,4 -4,4"/>
<!-- Node1 -->
<g id="node1" class="node">
<title>Node1</title>
<g id="a_node1"><a xlink:title=" ">
<polygon fill="#bfbfbf" stroke="black" points="187.5,-235.5 187.5,-265.5 329.5,-265.5 329.5,-235.5 187.5,-235.5"/>
<text text-anchor="start" x="195.5" y="-253.5" font-family="Helvetica,sans-Serif" font-size="10.00">modules/materials/B4</text>
<text text-anchor="middle" x="258.5" y="-242.5" font-family="Helvetica,sans-Serif" font-size="10.00">/src/MarmotSolidification.cpp</text>
</a>
</g>
</g>
<!-- Node2 -->
<g id="node2" class="node">
<title>Node2</title>
<g id="a_node2"><a xlink:href="MarmotSolidification_8h.html" target="_top" xlink:title=" ">
<polygon fill="white" stroke="black" points="184.5,-179.5 184.5,-198.5 332.5,-198.5 332.5,-179.5 184.5,-179.5"/>
<text text-anchor="middle" x="258.5" y="-186.5" font-family="Helvetica,sans-Serif" font-size="10.00">Marmot/MarmotSolidification.h</text>
</a>
</g>
</g>
<!-- Node1&#45;&gt;Node2 -->
<g id="edge1" class="edge">
<title>Node1&#45;&gt;Node2</title>
<path fill="none" stroke="midnightblue" d="M258.5,-235.4C258.5,-227.47 258.5,-217.46 258.5,-208.86"/>
<polygon fill="midnightblue" stroke="midnightblue" points="262,-208.66 258.5,-198.66 255,-208.66 262,-208.66"/>
</g>
<!-- Node3 -->
<g id="node3" class="node">
<title>Node3</title>
<g id="a_node3"><a xlink:href="MarmotKelvinChain_8h.html" target="_top" xlink:title=" ">
<polygon fill="white" stroke="black" points="186,-123.5 186,-142.5 331,-142.5 331,-123.5 186,-123.5"/>
<text text-anchor="middle" x="258.5" y="-130.5" font-family="Helvetica,sans-Serif" font-size="10.00">Marmot/MarmotKelvinChain.h</text>
</a>
</g>
</g>
<!-- Node2&#45;&gt;Node3 -->
<g id="edge2" class="edge">
<title>Node2&#45;&gt;Node3</title>
<path fill="none" stroke="midnightblue" d="M258.5,-179.08C258.5,-172.01 258.5,-161.86 258.5,-152.99"/>
<polygon fill="midnightblue" stroke="midnightblue" points="262,-152.75 258.5,-142.75 255,-152.75 262,-152.75"/>
</g>
<!-- Node4 -->
<g id="node4" class="node">
<title>Node4</title>
<g id="a_node4"><a xlink:href="MarmotNumericalIntegration_8h.html" target="_top" xlink:title=" ">
<polygon fill="white" stroke="black" points="0,-67.5 0,-86.5 183,-86.5 183,-67.5 0,-67.5"/>
<text text-anchor="middle" x="91.5" y="-74.5" font-family="Helvetica,sans-Serif" font-size="10.00">Marmot/MarmotNumericalIntegration.h</text>
</a>
</g>
</g>
<!-- Node3&#45;&gt;Node4 -->
<g id="edge3" class="edge">
<title>Node3&#45;&gt;Node4</title>
<path fill="none" stroke="midnightblue" d="M232.04,-123.44C203.82,-114.32 158.96,-99.81 127.53,-89.65"/>
<polygon fill="midnightblue" stroke="midnightblue" points="128.43,-86.26 117.84,-86.52 126.28,-92.92 128.43,-86.26"/>
</g>
<!-- Node5 -->
<g id="node5" class="node">
<title>Node5</title>
<g id="a_node5"><a xlink:title=" ">
<polygon fill="white" stroke="#bfbfbf" points="87,-6 87,-25 146,-25 146,-6 87,-6"/>
<text text-anchor="middle" x="116.5" y="-13" font-family="Helvetica,sans-Serif" font-size="10.00">functional</text>
</a>
</g>
</g>
<!-- Node3&#45;&gt;Node5 -->
<g id="edge10" class="edge">
<title>Node3&#45;&gt;Node5</title>
<path fill="none" stroke="midnightblue" d="M250.28,-123.07C238.08,-110.05 214.16,-85.38 191.5,-67 174.94,-53.57 154.84,-40.18 139.62,-30.56"/>
<polygon fill="midnightblue" stroke="midnightblue" points="141.19,-27.41 130.85,-25.1 137.49,-33.35 141.19,-27.41"/>
</g>
<!-- Node6 -->
<g id="node6" class="node">
<title>Node6</title>
<g id="a_node6"><a xlink:href="MarmotTypedefs_8h.html" target="_top" xlink:title=" ">
<polygon fill="white" stroke="black" points="240,-67.5 240,-86.5 373,-86.5 373,-67.5 240,-67.5"/>
<text text-anchor="middle" x="306.5" y="-74.5" font-family="Helvetica,sans-Serif" font-size="10.00">Marmot/MarmotTypedefs.h</text>
</a>
</g>
</g>
<!-- Node3&#45;&gt;Node6 -->
<g id="edge5" class="edge">
<title>Node3&#45;&gt;Node6</title>
<path fill="none" stroke="midnightblue" d="M266.43,-123.08C273.35,-115.3 283.57,-103.8 291.95,-94.37"/>
<polygon fill="midnightblue" stroke="midnightblue" points="294.69,-96.55 298.72,-86.75 289.46,-91.9 294.69,-96.55"/>
</g>
<!-- Node10 -->
<g id="node10" class="node">
<title>Node10</title>
<g id="a_node10"><a xlink:title=" ">
<polygon fill="white" stroke="#bfbfbf" points="391.5,-67.5 391.5,-86.5 511.5,-86.5 511.5,-67.5 391.5,-67.5"/>
<text text-anchor="middle" x="451.5" y="-74.5" font-family="Helvetica,sans-Serif" font-size="10.00">autodiff/forward/real.hpp</text>
</a>
</g>
</g>
<!-- Node3&#45;&gt;Node10 -->
<g id="edge9" class="edge">
<title>Node3&#45;&gt;Node10</title>
<path fill="none" stroke="midnightblue" d="M289.08,-123.44C322.11,-114.2 374.89,-99.44 411.27,-89.26"/>
<polygon fill="midnightblue" stroke="midnightblue" points="412.37,-92.58 421.06,-86.52 410.49,-85.84 412.37,-92.58"/>
</g>
<!-- Node4&#45;&gt;Node5 -->
<g id="edge4" class="edge">
<title>Node4&#45;&gt;Node5</title>
<path fill="none" stroke="midnightblue" d="M95.08,-67.48C98.68,-58.9 104.35,-45.43 108.94,-34.48"/>
<polygon fill="midnightblue" stroke="midnightblue" points="112.28,-35.58 112.92,-25.01 105.82,-32.87 112.28,-35.58"/>
</g>
<!-- Node7 -->
<g id="node7" class="node">
<title>Node7</title>
<g id="a_node7"><a xlink:title=" ">
<polygon fill="white" stroke="#bfbfbf" points="188.5,-6 188.5,-25 252.5,-25 252.5,-6 188.5,-6"/>
<text text-anchor="middle" x="220.5" y="-13" font-family="Helvetica,sans-Serif" font-size="10.00">Eigen/Core</text>
</a>
</g>
</g>
<!-- Node6&#45;&gt;Node7 -->
<g id="edge6" class="edge">
<title>Node6&#45;&gt;Node7</title>
<path fill="none" stroke="midnightblue" d="M294.18,-67.48C280.38,-57.93 257.8,-42.31 241.27,-30.87"/>
<polygon fill="midnightblue" stroke="midnightblue" points="243.01,-27.82 232.8,-25.01 239.03,-33.58 243.01,-27.82"/>
</g>
<!-- Node8 -->
<g id="node8" class="node">
<title>Node8</title>
<g id="a_node8"><a xlink:title=" ">
<polygon fill="white" stroke="#bfbfbf" points="271,-6 271,-25 342,-25 342,-6 271,-6"/>
<text text-anchor="middle" x="306.5" y="-13" font-family="Helvetica,sans-Serif" font-size="10.00">Eigen/Dense</text>
</a>
</g>
</g>
<!-- Node6&#45;&gt;Node8 -->
<g id="edge7" class="edge">
<title>Node6&#45;&gt;Node8</title>
<path fill="none" stroke="midnightblue" d="M306.5,-67.48C306.5,-59.08 306.5,-45.98 306.5,-35.16"/>
<polygon fill="midnightblue" stroke="midnightblue" points="310,-35.01 306.5,-25.01 303,-35.01 310,-35.01"/>
</g>
<!-- Node9 -->
<g id="node9" class="node">
<title>Node9</title>
<g id="a_node9"><a xlink:title=" ">
<polygon fill="white" stroke="#bfbfbf" points="360,-0.5 360,-30.5 491,-30.5 491,-0.5 360,-0.5"/>
<text text-anchor="start" x="368" y="-18.5" font-family="Helvetica,sans-Serif" font-size="10.00">unsupported/Eigen/CXX11</text>
<text text-anchor="middle" x="425.5" y="-7.5" font-family="Helvetica,sans-Serif" font-size="10.00">/Tensor</text>
</a>
</g>
</g>
<!-- Node6&#45;&gt;Node9 -->
<g id="edge8" class="edge">
<title>Node6&#45;&gt;Node9</title>
<path fill="none" stroke="midnightblue" d="M323.55,-67.48C340.42,-59.04 366.79,-45.86 388.48,-35.01"/>
<polygon fill="midnightblue" stroke="midnightblue" points="390.08,-38.13 397.45,-30.52 386.94,-31.86 390.08,-38.13"/>
</g>
</g>
</svg>
