<?xml version="1.0" encoding="UTF-8" standalone="no"?>
<!DOCTYPE svg PUBLIC "-//W3C//DTD SVG 1.1//EN"
 "http://www.w3.org/Graphics/SVG/1.1/DTD/svg11.dtd">
<!-- Generated by graphviz version 2.44.0 ()
 -->
<!-- Title: modules/core/MarmotMathCore/include/Marmot/MarmotNumericalDifferentiationForFastor.h Pages: 1 -->
<!--zoomable 419 -->
<svg id="main" version="1.1" xmlns="http://www.w3.org/2000/svg" xmlns:xlink="http://www.w3.org/1999/xlink" xml:space="preserve" onload="init(evt)">
<style type="text/css"><![CDATA[
.edge:hover path { stroke: red; }
.edge:hover polygon { stroke: red; fill: red; }
]]></style>
<script type="text/javascript"><![CDATA[
var edges = document.getElementsByTagName('g');
if (edges && edges.length) {
  for (var i=0;i<edges.length;i++) {
    if (edges[i].id.substr(0,4)=='edge') {
      edges[i].setAttribute('class','edge');
    }
  }
}
]]></script>
        <defs>
                <circle id="rim" cx="0" cy="0" r="7"/>
                <circle id="rim2" cx="0" cy="0" r="3.5"/>
                <g id="zoomPlus">
                        <use xlink:href="#rim" fill="#404040">
                                <set attributeName="fill" to="#808080" begin="zoomplus.mouseover" end="zoomplus.mouseout"/>
                        </use>
                        <path d="M-4,0h8M0,-4v8" fill="none" stroke="white" stroke-width="1.5" pointer-events="none"/>
                </g>
                <g id="zoomMin">
                        <use xlink:href="#rim" fill="#404040">
                                <set attributeName="fill" to="#808080" begin="zoomminus.mouseover" end="zoomminus.mouseout"/>
                        </use>
                        <path d="M-4,0h8" fill="none" stroke="white" stroke-width="1.5" pointer-events="none"/>
                </g>
                <g id="dirArrow">
                        <path fill="none" stroke="white" stroke-width="1.5" d="M0,-3.0v7 M-2.5,-0.5L0,-3.0L2.5,-0.5"/>
                </g>
               <g id="resetDef">
                       <use xlink:href="#rim2" fill="#404040">
                               <set attributeName="fill" to="#808080" begin="reset.mouseover" end="reset.mouseout"/>
                       </use>
               </g>
        </defs>

<script type="text/javascript">
var viewWidth = 1185;
var viewHeight = 419;
var sectionId = 'dynsection-0';
</script>
<script xlink:href="svgpan.js"/>
<svg id="graph" class="graph">
<g id="viewport">
<title>modules/core/MarmotMathCore/include/Marmot/MarmotNumericalDifferentiationForFastor.h</title>
<polygon fill="white" stroke="transparent" points="-4,4 -4,-415 1181,-415 1181,4 -4,4"/>
<!-- Node1 -->
<g id="node1" class="node">
<title>Node1</title>
<g id="a_node1"><a xlink:title=" ">
<polygon fill="#bfbfbf" stroke="black" points="616,-369.5 616,-410.5 783,-410.5 783,-369.5 616,-369.5"/>
<text text-anchor="start" x="624" y="-398.5" font-family="Helvetica,sans-Serif" font-size="10.00">modules/core/MarmotMathCore</text>
<text text-anchor="start" x="624" y="-387.5" font-family="Helvetica,sans-Serif" font-size="10.00">/include/Marmot/MarmotNumerical</text>
<text text-anchor="middle" x="699.5" y="-376.5" font-family="Helvetica,sans-Serif" font-size="10.00">DifferentiationForFastor.h</text>
</a>
</g>
</g>
<!-- Node2 -->
<g id="node2" class="node">
<title>Node2</title>
<g id="a_node2"><a xlink:title=" ">
<polygon fill="white" stroke="#bfbfbf" points="0,-246.5 0,-265.5 83,-265.5 83,-246.5 0,-246.5"/>
<text text-anchor="middle" x="41.5" y="-253.5" font-family="Helvetica,sans-Serif" font-size="10.00">Fastor/Fastor.h</text>
</a>
</g>
</g>
<!-- Node1&#45;&gt;Node2 -->
<g id="edge1" class="edge">
<title>Node1&#45;&gt;Node2</title>
<path fill="none" stroke="midnightblue" d="M615.84,-384.01C490.1,-375.84 258.68,-357.96 179.5,-333 134.46,-318.8 87.41,-289.19 61.54,-271.41"/>
<polygon fill="midnightblue" stroke="midnightblue" points="63.51,-268.52 53.31,-265.66 59.5,-274.26 63.51,-268.52"/>
</g>
<!-- Node3 -->
<g id="node3" class="node">
<title>Node3</title>
<g id="a_node3"><a xlink:href="MarmotConstants_8h.html" target="_top" xlink:title=" ">
<polygon fill="white" stroke="black" points="1040,-73 1040,-92 1177,-92 1177,-73 1040,-73"/>
<text text-anchor="middle" x="1108.5" y="-80" font-family="Helvetica,sans-Serif" font-size="10.00">Marmot/MarmotConstants.h</text>
</a>
</g>
</g>
<!-- Node1&#45;&gt;Node3 -->
<g id="edge2" class="edge">
<title>Node1&#45;&gt;Node3</title>
<path fill="none" stroke="midnightblue" d="M763.54,-369.37C784.42,-360.69 806.56,-348.78 823.5,-333 851.58,-306.84 864.5,-295.38 864.5,-257 864.5,-257 864.5,-257 864.5,-199 864.5,-155.28 994.1,-113.94 1064.4,-94.73"/>
<polygon fill="midnightblue" stroke="midnightblue" points="1065.57,-98.04 1074.32,-92.06 1063.75,-91.28 1065.57,-98.04"/>
</g>
<!-- Node5 -->
<g id="node5" class="node">
<title>Node5</title>
<g id="a_node5"><a xlink:href="MarmotFastorTensorBasics_8h.html" target="_top" xlink:title=" ">
<polygon fill="white" stroke="black" points="189,-302.5 189,-332.5 332,-332.5 332,-302.5 189,-302.5"/>
<text text-anchor="start" x="197" y="-320.5" font-family="Helvetica,sans-Serif" font-size="10.00">Marmot/MarmotFastorTensor</text>
<text text-anchor="middle" x="260.5" y="-309.5" font-family="Helvetica,sans-Serif" font-size="10.00">Basics.h</text>
</a>
</g>
</g>
<!-- Node1&#45;&gt;Node5 -->
<g id="edge4" class="edge">
<title>Node1&#45;&gt;Node5</title>
<path fill="none" stroke="midnightblue" d="M615.89,-375.57C537.33,-362.96 420.46,-344.19 342.44,-331.66"/>
<polygon fill="midnightblue" stroke="midnightblue" points="342.6,-328.14 332.17,-330.01 341.49,-335.05 342.6,-328.14"/>
</g>
<!-- Node12 -->
<g id="node12" class="node">
<title>Node12</title>
<g id="a_node12"><a xlink:href="MarmotTypedefs_8h.html" target="_top" xlink:title=" ">
<polygon fill="white" stroke="black" points="342,-73 342,-92 475,-92 475,-73 342,-73"/>
<text text-anchor="middle" x="408.5" y="-80" font-family="Helvetica,sans-Serif" font-size="10.00">Marmot/MarmotTypedefs.h</text>
</a>
</g>
</g>
<!-- Node1&#45;&gt;Node12 -->
<g id="edge35" class="edge">
<title>Node1&#45;&gt;Node12</title>
<path fill="none" stroke="midnightblue" d="M628.89,-369.41C577,-350.21 515.5,-315.19 515.5,-257 515.5,-257 515.5,-257 515.5,-199 515.5,-151.73 466.67,-115.62 434.99,-97.16"/>
<polygon fill="midnightblue" stroke="midnightblue" points="436.6,-94.05 426.17,-92.22 433.18,-100.16 436.6,-94.05"/>
</g>
<!-- Node16 -->
<g id="node16" class="node">
<title>Node16</title>
<g id="a_node16"><a xlink:href="MarmotMath_8h.html" target="_top" xlink:title=" ">
<polygon fill="white" stroke="black" points="614,-134.5 614,-153.5 729,-153.5 729,-134.5 614,-134.5"/>
<text text-anchor="middle" x="671.5" y="-141.5" font-family="Helvetica,sans-Serif" font-size="10.00">Marmot/MarmotMath.h</text>
</a>
</g>
</g>
<!-- Node1&#45;&gt;Node16 -->
<g id="edge30" class="edge">
<title>Node1&#45;&gt;Node16</title>
<path fill="none" stroke="midnightblue" d="M634.62,-369.39C617.65,-360.99 601.37,-349.24 591.5,-333 555.17,-273.23 622.27,-193.99 655.02,-160.74"/>
<polygon fill="midnightblue" stroke="midnightblue" points="657.52,-163.19 662.17,-153.67 652.6,-158.22 657.52,-163.19"/>
</g>
<!-- Node23 -->
<g id="node23" class="node">
<title>Node23</title>
<g id="a_node23"><a xlink:href="MarmotNumericalDifferentiation_8h.html" target="_top" xlink:title=" ">
<polygon fill="white" stroke="black" points="601,-308 601,-327 798,-327 798,-308 601,-308"/>
<text text-anchor="middle" x="699.5" y="-315" font-family="Helvetica,sans-Serif" font-size="10.00">Marmot/MarmotNumericalDifferentiation.h</text>
</a>
</g>
</g>
<!-- Node1&#45;&gt;Node23 -->
<g id="edge31" class="edge">
<title>Node1&#45;&gt;Node23</title>
<path fill="none" stroke="midnightblue" d="M699.5,-369.36C699.5,-359.3 699.5,-347.1 699.5,-337.18"/>
<polygon fill="midnightblue" stroke="midnightblue" points="703,-337.17 699.5,-327.17 696,-337.17 703,-337.17"/>
</g>
<!-- Node24 -->
<g id="node24" class="node">
<title>Node24</title>
<g id="a_node24"><a xlink:title=" ">
<polygon fill="white" stroke="#bfbfbf" points="753,-246.5 753,-265.5 812,-265.5 812,-246.5 753,-246.5"/>
<text text-anchor="middle" x="782.5" y="-253.5" font-family="Helvetica,sans-Serif" font-size="10.00">functional</text>
</a>
</g>
</g>
<!-- Node1&#45;&gt;Node24 -->
<g id="edge38" class="edge">
<title>Node1&#45;&gt;Node24</title>
<path fill="none" stroke="midnightblue" d="M764.38,-369.39C781.35,-360.99 797.63,-349.24 807.5,-333 818.84,-314.35 806.83,-289.95 795.87,-273.9"/>
<polygon fill="midnightblue" stroke="midnightblue" points="798.46,-271.51 789.73,-265.52 792.82,-275.65 798.46,-271.51"/>
</g>
<!-- Node25 -->
<g id="node25" class="node">
<title>Node25</title>
<g id="a_node25"><a xlink:title=" ">
<polygon fill="white" stroke="#bfbfbf" points="892.5,-308 892.5,-327 1008.5,-327 1008.5,-308 892.5,-308"/>
<text text-anchor="middle" x="950.5" y="-315" font-family="Helvetica,sans-Serif" font-size="10.00">Fastor/config/macros.h</text>
</a>
</g>
</g>
<!-- Node1&#45;&gt;Node25 -->
<g id="edge36" class="edge">
<title>Node1&#45;&gt;Node25</title>
<path fill="none" stroke="midnightblue" d="M769.08,-369.46C814.63,-356.66 872.53,-340.4 910.51,-329.73"/>
<polygon fill="midnightblue" stroke="midnightblue" points="911.51,-333.09 920.19,-327.01 909.62,-326.35 911.51,-333.09"/>
</g>
<!-- Node26 -->
<g id="node26" class="node">
<title>Node26</title>
<g id="a_node26"><a xlink:title=" ">
<polygon fill="white" stroke="#bfbfbf" points="1027,-308 1027,-327 1142,-327 1142,-308 1027,-308"/>
<text text-anchor="middle" x="1084.5" y="-315" font-family="Helvetica,sans-Serif" font-size="10.00">Fastor/tensor/Tensor.h</text>
</a>
</g>
</g>
<!-- Node1&#45;&gt;Node26 -->
<g id="edge37" class="edge">
<title>Node1&#45;&gt;Node26</title>
<path fill="none" stroke="midnightblue" d="M783.02,-375.2C847.26,-364.37 938.15,-348.57 1017.5,-333 1023.63,-331.8 1030.07,-330.48 1036.42,-329.14"/>
<polygon fill="midnightblue" stroke="midnightblue" points="1037.24,-332.55 1046.29,-327.04 1035.78,-325.7 1037.24,-332.55"/>
</g>
<!-- Node4 -->
<g id="node4" class="node">
<title>Node4</title>
<g id="a_node4"><a xlink:title=" ">
<polygon fill="white" stroke="#bfbfbf" points="1086.5,-6 1086.5,-25 1130.5,-25 1130.5,-6 1086.5,-6"/>
<text text-anchor="middle" x="1108.5" y="-13" font-family="Helvetica,sans-Serif" font-size="10.00">cmath</text>
</a>
</g>
</g>
<!-- Node3&#45;&gt;Node4 -->
<g id="edge3" class="edge">
<title>Node3&#45;&gt;Node4</title>
<path fill="none" stroke="midnightblue" d="M1108.5,-72.73C1108.5,-63.18 1108.5,-47.62 1108.5,-35.28"/>
<polygon fill="midnightblue" stroke="midnightblue" points="1112,-35.13 1108.5,-25.13 1105,-35.13 1112,-35.13"/>
</g>
<!-- Node5&#45;&gt;Node2 -->
<g id="edge6" class="edge">
<title>Node5&#45;&gt;Node2</title>
<path fill="none" stroke="midnightblue" d="M208.88,-302.47C170.44,-292.03 118.64,-277.96 82.9,-268.25"/>
<polygon fill="midnightblue" stroke="midnightblue" points="83.38,-264.75 72.81,-265.51 81.54,-271.51 83.38,-264.75"/>
</g>
<!-- Node6 -->
<g id="node6" class="node">
<title>Node6</title>
<g id="a_node6"><a xlink:title=" ">
<polygon fill="white" stroke="#bfbfbf" points="184.5,-6 184.5,-25 248.5,-25 248.5,-6 184.5,-6"/>
<text text-anchor="middle" x="216.5" y="-13" font-family="Helvetica,sans-Serif" font-size="10.00">Eigen/Core</text>
</a>
</g>
</g>
<!-- Node5&#45;&gt;Node6 -->
<g id="edge5" class="edge">
<title>Node5&#45;&gt;Node6</title>
<path fill="none" stroke="midnightblue" d="M214.17,-302.36C170.43,-285.79 111.5,-253.7 111.5,-201 111.5,-201 111.5,-201 111.5,-143 111.5,-108.18 109.64,-94.88 130.5,-67 143.37,-49.81 163.95,-37.42 181.76,-29.22"/>
<polygon fill="midnightblue" stroke="midnightblue" points="183.51,-32.27 191.3,-25.09 180.73,-25.85 183.51,-32.27"/>
</g>
<!-- Node7 -->
<g id="node7" class="node">
<title>Node7</title>
<g id="a_node7"><a xlink:href="MarmotTensor_8h.html" target="_top" xlink:title=" ">
<polygon fill="white" stroke="black" points="199,-246.5 199,-265.5 322,-265.5 322,-246.5 199,-246.5"/>
<text text-anchor="middle" x="260.5" y="-253.5" font-family="Helvetica,sans-Serif" font-size="10.00">Marmot/MarmotTensor.h</text>
</a>
</g>
</g>
<!-- Node5&#45;&gt;Node7 -->
<g id="edge7" class="edge">
<title>Node5&#45;&gt;Node7</title>
<path fill="none" stroke="midnightblue" d="M260.5,-302.4C260.5,-294.47 260.5,-284.46 260.5,-275.86"/>
<polygon fill="midnightblue" stroke="midnightblue" points="264,-275.66 260.5,-265.66 257,-275.66 264,-275.66"/>
</g>
<!-- Node20 -->
<g id="node20" class="node">
<title>Node20</title>
<g id="a_node20"><a xlink:title=" ">
<polygon fill="white" stroke="#bfbfbf" points="493.5,-67.5 493.5,-97.5 597.5,-97.5 597.5,-67.5 493.5,-67.5"/>
<text text-anchor="start" x="501.5" y="-85.5" font-family="Helvetica,sans-Serif" font-size="10.00">autodiff/forward/dual</text>
<text text-anchor="middle" x="545.5" y="-74.5" font-family="Helvetica,sans-Serif" font-size="10.00">/dual.hpp</text>
</a>
</g>
</g>
<!-- Node5&#45;&gt;Node20 -->
<g id="edge29" class="edge">
<title>Node5&#45;&gt;Node20</title>
<path fill="none" stroke="midnightblue" d="M298.44,-302.46C340.91,-285.38 410.11,-253.38 458.5,-210 492.08,-179.89 519.28,-134.31 533.86,-106.87"/>
<polygon fill="midnightblue" stroke="midnightblue" points="537.15,-108.14 538.65,-97.65 530.94,-104.91 537.15,-108.14"/>
</g>
<!-- Node8 -->
<g id="node8" class="node">
<title>Node8</title>
<g id="a_node8"><a xlink:href="MarmotJournal_8h.html" target="_top" xlink:title=" ">
<polygon fill="white" stroke="black" points="198,-134.5 198,-153.5 323,-153.5 323,-134.5 198,-134.5"/>
<text text-anchor="middle" x="260.5" y="-141.5" font-family="Helvetica,sans-Serif" font-size="10.00">Marmot/MarmotJournal.h</text>
</a>
</g>
</g>
<!-- Node7&#45;&gt;Node8 -->
<g id="edge8" class="edge">
<title>Node7&#45;&gt;Node8</title>
<path fill="none" stroke="midnightblue" d="M260.5,-246.37C260.5,-228.62 260.5,-187.67 260.5,-163.6"/>
<polygon fill="midnightblue" stroke="midnightblue" points="264,-163.59 260.5,-153.59 257,-163.59 264,-163.59"/>
</g>
<!-- Node9 -->
<g id="node9" class="node">
<title>Node9</title>
<g id="a_node9"><a xlink:title=" ">
<polygon fill="white" stroke="#bfbfbf" points="139.5,-73 139.5,-92 193.5,-92 193.5,-73 139.5,-73"/>
<text text-anchor="middle" x="166.5" y="-80" font-family="Helvetica,sans-Serif" font-size="10.00">iostream</text>
</a>
</g>
</g>
<!-- Node7&#45;&gt;Node9 -->
<g id="edge27" class="edge">
<title>Node7&#45;&gt;Node9</title>
<path fill="none" stroke="midnightblue" d="M252.92,-246.42C238.52,-229.73 206.98,-191.22 188.5,-154 180.14,-137.16 174.14,-116.48 170.54,-101.89"/>
<polygon fill="midnightblue" stroke="midnightblue" points="173.93,-101.02 168.25,-92.08 167.11,-102.61 173.93,-101.02"/>
</g>
<!-- Node7&#45;&gt;Node12 -->
<g id="edge12" class="edge">
<title>Node7&#45;&gt;Node12</title>
<path fill="none" stroke="midnightblue" d="M268.04,-246.26C291.5,-219.08 363.45,-135.71 394.26,-100.01"/>
<polygon fill="midnightblue" stroke="midnightblue" points="397.26,-101.88 401.15,-92.02 391.96,-97.3 397.26,-101.88"/>
</g>
<!-- Node15 -->
<g id="node15" class="node">
<title>Node15</title>
<g id="a_node15"><a xlink:href="MarmotVoigt_8h.html" target="_top" xlink:title=" ">
<polygon fill="white" stroke="black" points="333.5,-190.5 333.5,-209.5 449.5,-209.5 449.5,-190.5 333.5,-190.5"/>
<text text-anchor="middle" x="391.5" y="-197.5" font-family="Helvetica,sans-Serif" font-size="10.00">Marmot/MarmotVoigt.h</text>
</a>
</g>
</g>
<!-- Node7&#45;&gt;Node15 -->
<g id="edge16" class="edge">
<title>Node7&#45;&gt;Node15</title>
<path fill="none" stroke="midnightblue" d="M281.26,-246.44C302.82,-237.56 336.76,-223.56 361.29,-213.45"/>
<polygon fill="midnightblue" stroke="midnightblue" points="362.93,-216.56 370.84,-209.52 360.26,-210.09 362.93,-216.56"/>
</g>
<!-- Node22 -->
<g id="node22" class="node">
<title>Node22</title>
<g id="a_node22"><a xlink:title=" ">
<polygon fill="white" stroke="#bfbfbf" points="140,-190.5 140,-209.5 179,-209.5 179,-190.5 140,-190.5"/>
<text text-anchor="middle" x="159.5" y="-197.5" font-family="Helvetica,sans-Serif" font-size="10.00">utility</text>
</a>
</g>
</g>
<!-- Node7&#45;&gt;Node22 -->
<g id="edge28" class="edge">
<title>Node7&#45;&gt;Node22</title>
<path fill="none" stroke="midnightblue" d="M244.27,-246.32C228.15,-237.7 203.2,-224.36 184.54,-214.39"/>
<polygon fill="midnightblue" stroke="midnightblue" points="186.16,-211.28 175.69,-209.65 182.86,-217.46 186.16,-211.28"/>
</g>
<!-- Node8&#45;&gt;Node9 -->
<g id="edge9" class="edge">
<title>Node8&#45;&gt;Node9</title>
<path fill="none" stroke="midnightblue" d="M247.03,-134.48C231.82,-124.84 206.81,-109.02 188.7,-97.55"/>
<polygon fill="midnightblue" stroke="midnightblue" points="190.26,-94.4 179.94,-92.01 186.52,-100.31 190.26,-94.4"/>
</g>
<!-- Node10 -->
<g id="node10" class="node">
<title>Node10</title>
<g id="a_node10"><a xlink:title=" ">
<polygon fill="white" stroke="#bfbfbf" points="271.5,-73 271.5,-92 323.5,-92 323.5,-73 271.5,-73"/>
<text text-anchor="middle" x="297.5" y="-80" font-family="Helvetica,sans-Serif" font-size="10.00">sstream</text>
</a>
</g>
</g>
<!-- Node8&#45;&gt;Node10 -->
<g id="edge10" class="edge">
<title>Node8&#45;&gt;Node10</title>
<path fill="none" stroke="midnightblue" d="M265.8,-134.48C271.24,-125.73 279.86,-111.87 286.74,-100.81"/>
<polygon fill="midnightblue" stroke="midnightblue" points="289.9,-102.35 292.21,-92.01 283.96,-98.65 289.9,-102.35"/>
</g>
<!-- Node11 -->
<g id="node11" class="node">
<title>Node11</title>
<g id="a_node11"><a xlink:title=" ">
<polygon fill="white" stroke="#bfbfbf" points="212,-73 212,-92 253,-92 253,-73 212,-73"/>
<text text-anchor="middle" x="232.5" y="-80" font-family="Helvetica,sans-Serif" font-size="10.00">string</text>
</a>
</g>
</g>
<!-- Node8&#45;&gt;Node11 -->
<g id="edge11" class="edge">
<title>Node8&#45;&gt;Node11</title>
<path fill="none" stroke="midnightblue" d="M256.49,-134.48C252.41,-125.82 245.98,-112.15 240.8,-101.15"/>
<polygon fill="midnightblue" stroke="midnightblue" points="243.93,-99.57 236.5,-92.01 237.6,-102.55 243.93,-99.57"/>
</g>
<!-- Node12&#45;&gt;Node6 -->
<g id="edge13" class="edge">
<title>Node12&#45;&gt;Node6</title>
<path fill="none" stroke="midnightblue" d="M383,-72.87C349.2,-61.42 289.4,-41.18 251.42,-28.32"/>
<polygon fill="midnightblue" stroke="midnightblue" points="252.39,-24.96 241.8,-25.06 250.15,-31.59 252.39,-24.96"/>
</g>
<!-- Node13 -->
<g id="node13" class="node">
<title>Node13</title>
<g id="a_node13"><a xlink:title=" ">
<polygon fill="white" stroke="#bfbfbf" points="313,-6 313,-25 384,-25 384,-6 313,-6"/>
<text text-anchor="middle" x="348.5" y="-13" font-family="Helvetica,sans-Serif" font-size="10.00">Eigen/Dense</text>
</a>
</g>
</g>
<!-- Node12&#45;&gt;Node13 -->
<g id="edge14" class="edge">
<title>Node12&#45;&gt;Node13</title>
<path fill="none" stroke="midnightblue" d="M400.41,-72.73C390.96,-62.5 375.14,-45.36 363.45,-32.69"/>
<polygon fill="midnightblue" stroke="midnightblue" points="365.82,-30.1 356.46,-25.13 360.67,-34.85 365.82,-30.1"/>
</g>
<!-- Node14 -->
<g id="node14" class="node">
<title>Node14</title>
<g id="a_node14"><a xlink:title=" ">
<polygon fill="white" stroke="#bfbfbf" points="402,-0.5 402,-30.5 533,-30.5 533,-0.5 402,-0.5"/>
<text text-anchor="start" x="410" y="-18.5" font-family="Helvetica,sans-Serif" font-size="10.00">unsupported/Eigen/CXX11</text>
<text text-anchor="middle" x="467.5" y="-7.5" font-family="Helvetica,sans-Serif" font-size="10.00">/Tensor</text>
</a>
</g>
</g>
<!-- Node12&#45;&gt;Node14 -->
<g id="edge15" class="edge">
<title>Node12&#45;&gt;Node14</title>
<path fill="none" stroke="midnightblue" d="M416.46,-72.73C424.43,-63.95 437.02,-50.08 447.7,-38.31"/>
<polygon fill="midnightblue" stroke="midnightblue" points="450.58,-40.35 454.71,-30.59 445.4,-35.64 450.58,-40.35"/>
</g>
<!-- Node15&#45;&gt;Node8 -->
<g id="edge17" class="edge">
<title>Node15&#45;&gt;Node8</title>
<path fill="none" stroke="midnightblue" d="M370.74,-190.44C349.18,-181.56 315.24,-167.56 290.71,-157.45"/>
<polygon fill="midnightblue" stroke="midnightblue" points="291.74,-154.09 281.16,-153.52 289.07,-160.56 291.74,-154.09"/>
</g>
<!-- Node15&#45;&gt;Node12 -->
<g id="edge26" class="edge">
<title>Node15&#45;&gt;Node12</title>
<path fill="none" stroke="midnightblue" d="M392.78,-190.32C395.51,-171.76 401.97,-127.84 405.71,-102.47"/>
<polygon fill="midnightblue" stroke="midnightblue" points="409.21,-102.69 407.21,-92.28 402.29,-101.67 409.21,-102.69"/>
</g>
<!-- Node15&#45;&gt;Node16 -->
<g id="edge18" class="edge">
<title>Node15&#45;&gt;Node16</title>
<path fill="none" stroke="midnightblue" d="M435.87,-190.44C485.12,-180.94 564.63,-165.61 617.47,-155.42"/>
<polygon fill="midnightblue" stroke="midnightblue" points="618.18,-158.85 627.34,-153.52 616.86,-151.97 618.18,-158.85"/>
</g>
<!-- Node16&#45;&gt;Node3 -->
<g id="edge19" class="edge">
<title>Node16&#45;&gt;Node3</title>
<path fill="none" stroke="midnightblue" d="M729.16,-136.83C800.2,-128.99 924.52,-114.48 1030.5,-98 1038.53,-96.75 1047,-95.31 1055.29,-93.83"/>
<polygon fill="midnightblue" stroke="midnightblue" points="1056.05,-97.25 1065.26,-92.01 1054.79,-90.36 1056.05,-97.25"/>
</g>
<!-- Node16&#45;&gt;Node12 -->
<g id="edge20" class="edge">
<title>Node16&#45;&gt;Node12</title>
<path fill="none" stroke="midnightblue" d="M633.82,-134.48C586.95,-123.87 506.89,-105.76 455.9,-94.22"/>
<polygon fill="midnightblue" stroke="midnightblue" points="456.64,-90.8 446.11,-92.01 455.09,-97.63 456.64,-90.8"/>
</g>
<!-- Node17 -->
<g id="node17" class="node">
<title>Node17</title>
<g id="a_node17"><a xlink:title=" ">
<polygon fill="white" stroke="#bfbfbf" points="761.5,-73 761.5,-92 883.5,-92 883.5,-73 761.5,-73"/>
<text text-anchor="middle" x="822.5" y="-80" font-family="Helvetica,sans-Serif" font-size="10.00">autodiff/forward/dual.hpp</text>
</a>
</g>
</g>
<!-- Node16&#45;&gt;Node17 -->
<g id="edge21" class="edge">
<title>Node16&#45;&gt;Node17</title>
<path fill="none" stroke="midnightblue" d="M693.13,-134.48C718.92,-124.31 762.21,-107.26 791.54,-95.7"/>
<polygon fill="midnightblue" stroke="midnightblue" points="792.88,-98.93 800.91,-92.01 790.32,-92.42 792.88,-98.93"/>
</g>
<!-- Node18 -->
<g id="node18" class="node">
<title>Node18</title>
<g id="a_node18"><a xlink:title=" ">
<polygon fill="white" stroke="#bfbfbf" points="901.5,-73 901.5,-92 1021.5,-92 1021.5,-73 901.5,-73"/>
<text text-anchor="middle" x="961.5" y="-80" font-family="Helvetica,sans-Serif" font-size="10.00">autodiff/forward/real.hpp</text>
</a>
</g>
</g>
<!-- Node16&#45;&gt;Node18 -->
<g id="edge22" class="edge">
<title>Node16&#45;&gt;Node18</title>
<path fill="none" stroke="midnightblue" d="M713.88,-134.45C758.38,-125.46 830.38,-110.85 892.5,-98 898.56,-96.75 904.91,-95.42 911.21,-94.11"/>
<polygon fill="midnightblue" stroke="midnightblue" points="911.94,-97.53 921.01,-92.05 910.5,-90.68 911.94,-97.53"/>
</g>
<!-- Node19 -->
<g id="node19" class="node">
<title>Node19</title>
<g id="a_node19"><a xlink:title=" ">
<polygon fill="white" stroke="#bfbfbf" points="615.5,-73 615.5,-92 671.5,-92 671.5,-73 615.5,-73"/>
<text text-anchor="middle" x="643.5" y="-80" font-family="Helvetica,sans-Serif" font-size="10.00">algorithm</text>
</a>
</g>
</g>
<!-- Node16&#45;&gt;Node19 -->
<g id="edge23" class="edge">
<title>Node16&#45;&gt;Node19</title>
<path fill="none" stroke="midnightblue" d="M667.49,-134.48C663.41,-125.82 656.98,-112.15 651.8,-101.15"/>
<polygon fill="midnightblue" stroke="midnightblue" points="654.93,-99.57 647.5,-92.01 648.6,-102.55 654.93,-99.57"/>
</g>
<!-- Node16&#45;&gt;Node20 -->
<g id="edge24" class="edge">
<title>Node16&#45;&gt;Node20</title>
<path fill="none" stroke="midnightblue" d="M653.45,-134.48C635.51,-126 607.41,-112.74 584.39,-101.86"/>
<polygon fill="midnightblue" stroke="midnightblue" points="585.73,-98.63 575.2,-97.52 582.74,-104.96 585.73,-98.63"/>
</g>
<!-- Node21 -->
<g id="node21" class="node">
<title>Node21</title>
<g id="a_node21"><a xlink:title=" ">
<polygon fill="white" stroke="#bfbfbf" points="690,-73 690,-92 743,-92 743,-73 690,-73"/>
<text text-anchor="middle" x="716.5" y="-80" font-family="Helvetica,sans-Serif" font-size="10.00">complex</text>
</a>
</g>
</g>
<!-- Node16&#45;&gt;Node21 -->
<g id="edge25" class="edge">
<title>Node16&#45;&gt;Node21</title>
<path fill="none" stroke="midnightblue" d="M677.95,-134.48C684.7,-125.55 695.47,-111.31 703.91,-100.14"/>
<polygon fill="midnightblue" stroke="midnightblue" points="706.82,-102.1 710.06,-92.01 701.24,-97.87 706.82,-102.1"/>
</g>
<!-- Node23&#45;&gt;Node12 -->
<g id="edge33" class="edge">
<title>Node23&#45;&gt;Node12</title>
<path fill="none" stroke="midnightblue" d="M693.42,-307.65C673.25,-278.9 605.55,-186.94 529.5,-134 504.62,-116.68 472.89,-103.72 448.16,-95.26"/>
<polygon fill="midnightblue" stroke="midnightblue" points="448.97,-91.84 438.38,-92.03 446.77,-98.49 448.97,-91.84"/>
</g>
<!-- Node23&#45;&gt;Node16 -->
<g id="edge32" class="edge">
<title>Node23&#45;&gt;Node16</title>
<path fill="none" stroke="midnightblue" d="M698.07,-307.76C693.73,-281.15 680.6,-200.71 674.58,-163.84"/>
<polygon fill="midnightblue" stroke="midnightblue" points="677.96,-162.82 672.89,-153.52 671.05,-163.95 677.96,-162.82"/>
</g>
<!-- Node23&#45;&gt;Node24 -->
<g id="edge34" class="edge">
<title>Node23&#45;&gt;Node24</title>
<path fill="none" stroke="midnightblue" d="M711.39,-307.98C724.7,-298.43 746.5,-282.81 762.46,-271.37"/>
<polygon fill="midnightblue" stroke="midnightblue" points="764.54,-274.18 770.63,-265.51 760.46,-268.49 764.54,-274.18"/>
</g>
</g>
</svg>
        <g id="navigator" transform="translate(0 0)" fill="#404254">
                <rect fill="#f2f5e9" fill-opacity="0.5" stroke="#606060" stroke-width=".5" x="0" y="0" width="60" height="60"/>
                <use id="zoomplus" xlink:href="#zoomPlus" x="17" y="9" onmousedown="handleZoom(evt,'in')"/>
                <use id="zoomminus" xlink:href="#zoomMin" x="42" y="9" onmousedown="handleZoom(evt,'out')"/>
                <use id="reset" xlink:href="#resetDef" x="30" y="36" onmousedown="handleReset()"/>
                <g id="arrowUp" xlink:href="#dirArrow" transform="translate(30 24)" onmousedown="handlePan(0,-1)">
                  <use xlink:href="#rim" fill="#404040">
                        <set attributeName="fill" to="#808080" begin="arrowUp.mouseover" end="arrowUp.mouseout"/>
                  </use>
                  <path fill="none" stroke="white" stroke-width="1.5" d="M0,-3.0v7 M-2.5,-0.5L0,-3.0L2.5,-0.5"/>
                </g>
                <g id="arrowRight" xlink:href="#dirArrow" transform="rotate(90) translate(36 -43)" onmousedown="handlePan(1,0)">
                  <use xlink:href="#rim" fill="#404040">
                        <set attributeName="fill" to="#808080" begin="arrowRight.mouseover" end="arrowRight.mouseout"/>
                  </use>
                  <path fill="none" stroke="white" stroke-width="1.5" d="M0,-3.0v7 M-2.5,-0.5L0,-3.0L2.5,-0.5"/>
                </g>
                <g id="arrowDown" xlink:href="#dirArrow" transform="rotate(180) translate(-30 -48)" onmousedown="handlePan(0,1)">
                  <use xlink:href="#rim" fill="#404040">
                        <set attributeName="fill" to="#808080" begin="arrowDown.mouseover" end="arrowDown.mouseout"/>
                  </use>
                  <path fill="none" stroke="white" stroke-width="1.5" d="M0,-3.0v7 M-2.5,-0.5L0,-3.0L2.5,-0.5"/>
                </g>
                <g id="arrowLeft" xlink:href="#dirArrow" transform="rotate(270) translate(-36 17)" onmousedown="handlePan(-1,0)">
                  <use xlink:href="#rim" fill="#404040">
                        <set attributeName="fill" to="#808080" begin="arrowLeft.mouseover" end="arrowLeft.mouseout"/>
                  </use>
                  <path fill="none" stroke="white" stroke-width="1.5" d="M0,-3.0v7 M-2.5,-0.5L0,-3.0L2.5,-0.5"/>
                </g>
        </g>
        <svg viewBox="0 0 15 15" width="100%" height="30px" preserveAspectRatio="xMaxYMin meet">
         <g id="arrow_out" transform="scale(0.3 0.3)">
          <a xlink:href="MarmotNumericalDifferentiationForFastor_8h__incl_org.svg" target="_base">
           <rect id="button" ry="5" rx="5" y="6" x="6" height="38" width="38"
                fill="#f2f5e9" fill-opacity="0.5" stroke="#606060" stroke-width="1.0"/>
           <path id="arrow"
             d="M 11.500037,31.436501 C 11.940474,20.09759 22.043105,11.32322 32.158766,21.979434 L 37.068811,17.246167 C 37.068811,17.246167 37.088388,32 37.088388,32 L 22.160133,31.978069 C 22.160133,31.978069 26.997745,27.140456 26.997745,27.140456 C 18.528582,18.264221 13.291696,25.230495 11.500037,31.436501 z"
             style="fill:#404040;"/>
          </a>
         </g>
        </svg>
</svg>
