<?xml version="1.0" encoding="UTF-8" standalone="no"?>
<!DOCTYPE svg PUBLIC "-//W3C//DTD SVG 1.1//EN"
 "http://www.w3.org/Graphics/SVG/1.1/DTD/svg11.dtd">
<!-- Generated by graphviz version 2.44.0 ()
 -->
<!-- Title: modules/core/MarmotMathCore/include/Marmot/MarmotMath.h Pages: 1 -->
<svg width="3185pt" height="351pt"
 viewBox="0.00 0.00 3185.00 351.00" xmlns="http://www.w3.org/2000/svg" xmlns:xlink="http://www.w3.org/1999/xlink">
<g id="graph0" class="graph" transform="scale(1 1) rotate(0) translate(4 347)">
<title>modules/core/MarmotMathCore/include/Marmot/MarmotMath.h</title>
<polygon fill="white" stroke="transparent" points="-4,4 -4,-347 3181,-347 3181,4 -4,4"/>
<!-- Node1 -->
<g id="node1" class="node">
<title>Node1</title>
<g id="a_node1"><a xlink:title=" ">
<polygon fill="#bfbfbf" stroke="black" points="1648.5,-312.5 1648.5,-342.5 1801.5,-342.5 1801.5,-312.5 1648.5,-312.5"/>
<text text-anchor="start" x="1656.5" y="-330.5" font-family="Helvetica,sans-Serif" font-size="10.00">modules/core/MarmotMathCore</text>
<text text-anchor="middle" x="1725" y="-319.5" font-family="Helvetica,sans-Serif" font-size="10.00">/include/Marmot/MarmotMath.h</text>
</a>
</g>
</g>
<!-- Node2 -->
<g id="node2" class="node">
<title>Node2</title>
<g id="a_node2"><a xlink:href="MarmotMath_8cpp.html" target="_top" xlink:title=" ">
<polygon fill="white" stroke="black" points="291.5,-240 291.5,-270 444.5,-270 444.5,-240 291.5,-240"/>
<text text-anchor="start" x="299.5" y="-258" font-family="Helvetica,sans-Serif" font-size="10.00">modules/core/MarmotMathCore</text>
<text text-anchor="middle" x="368" y="-247" font-family="Helvetica,sans-Serif" font-size="10.00">/src/MarmotMath.cpp</text>
</a>
</g>
</g>
<!-- Node1&#45;&gt;Node2 -->
<g id="edge1" class="edge">
<title>Node1&#45;&gt;Node2</title>
<path fill="none" stroke="midnightblue" d="M1638.26,-325.03C1391.34,-320.55 687.76,-305.47 459,-276 447.77,-274.55 435.88,-272.4 424.52,-270.04"/>
<polygon fill="midnightblue" stroke="midnightblue" points="1638.2,-328.53 1648.26,-325.22 1638.32,-321.53 1638.2,-328.53"/>
</g>
<!-- Node3 -->
<g id="node3" class="node">
<title>Node3</title>
<g id="a_node3"><a xlink:href="HaighWestergaard_8h.html" target="_top" xlink:title=" ">
<polygon fill="white" stroke="black" points="501.5,-162 501.5,-192 698.5,-192 698.5,-162 501.5,-162"/>
<text text-anchor="start" x="509.5" y="-180" font-family="Helvetica,sans-Serif" font-size="10.00">modules/core/MarmotMechanics</text>
<text text-anchor="middle" x="600" y="-169" font-family="Helvetica,sans-Serif" font-size="10.00">Core/include/Marmot/HaighWestergaard.h</text>
</a>
</g>
</g>
<!-- Node1&#45;&gt;Node3 -->
<g id="edge2" class="edge">
<title>Node1&#45;&gt;Node3</title>
<path fill="none" stroke="midnightblue" d="M1638.21,-324.57C1415.25,-319.24 834.03,-302.94 751,-276 696.01,-258.16 641.64,-214.92 615.71,-192.32"/>
<polygon fill="midnightblue" stroke="midnightblue" points="1638.15,-328.07 1648.23,-324.81 1638.32,-321.07 1638.15,-328.07"/>
</g>
<!-- Node6 -->
<g id="node6" class="node">
<title>Node6</title>
<g id="a_node6"><a xlink:href="HaighWestergaard_8cpp.html" target="_top" xlink:title=" ">
<polygon fill="white" stroke="black" points="204,-84 204,-114 362,-114 362,-84 204,-84"/>
<text text-anchor="start" x="212" y="-102" font-family="Helvetica,sans-Serif" font-size="10.00">modules/core/MarmotMechanics</text>
<text text-anchor="middle" x="283" y="-91" font-family="Helvetica,sans-Serif" font-size="10.00">Core/src/HaighWestergaard.cpp</text>
</a>
</g>
</g>
<!-- Node1&#45;&gt;Node6 -->
<g id="edge60" class="edge">
<title>Node1&#45;&gt;Node6</title>
<path fill="none" stroke="midnightblue" d="M1638.15,-326.43C1419.78,-325.58 852.22,-319.18 669,-276 522.04,-241.37 362.92,-149.34 305.36,-114.05"/>
<polygon fill="midnightblue" stroke="midnightblue" points="1638.27,-329.93 1648.28,-326.46 1638.29,-322.93 1638.27,-329.93"/>
</g>
<!-- Node7 -->
<g id="node7" class="node">
<title>Node7</title>
<g id="a_node7"><a xlink:href="MarmotVoigt_8cpp.html" target="_top" xlink:title=" ">
<polygon fill="white" stroke="black" points="380,-84 380,-114 538,-114 538,-84 380,-84"/>
<text text-anchor="start" x="388" y="-102" font-family="Helvetica,sans-Serif" font-size="10.00">modules/core/MarmotMechanics</text>
<text text-anchor="middle" x="459" y="-91" font-family="Helvetica,sans-Serif" font-size="10.00">Core/src/MarmotVoigt.cpp</text>
</a>
</g>
</g>
<!-- Node1&#45;&gt;Node7 -->
<g id="edge66" class="edge">
<title>Node1&#45;&gt;Node7</title>
<path fill="none" stroke="midnightblue" d="M1638.19,-320.29C1534.91,-312.38 1357.41,-297.16 1206,-276 1014.94,-249.3 959.93,-264.94 779,-198 744.26,-185.14 741.48,-169.56 707,-156 639.17,-129.32 618.09,-136.08 547,-120 538.44,-118.06 529.42,-116.02 520.54,-114"/>
<polygon fill="midnightblue" stroke="midnightblue" points="1638.02,-323.78 1648.26,-321.05 1638.55,-316.8 1638.02,-323.78"/>
</g>
<!-- Node9 -->
<g id="node9" class="node">
<title>Node9</title>
<g id="a_node9"><a xlink:href="MarmotVoigt_8h.html" target="_top" xlink:title=" ">
<polygon fill="white" stroke="black" points="1638.5,-240 1638.5,-270 1811.5,-270 1811.5,-240 1638.5,-240"/>
<text text-anchor="start" x="1646.5" y="-258" font-family="Helvetica,sans-Serif" font-size="10.00">modules/core/MarmotMechanics</text>
<text text-anchor="middle" x="1725" y="-247" font-family="Helvetica,sans-Serif" font-size="10.00">Core/include/Marmot/MarmotVoigt.h</text>
</a>
</g>
</g>
<!-- Node1&#45;&gt;Node9 -->
<g id="edge8" class="edge">
<title>Node1&#45;&gt;Node9</title>
<path fill="none" stroke="midnightblue" d="M1725,-302.23C1725,-291.57 1725,-279.41 1725,-270.25"/>
<polygon fill="midnightblue" stroke="midnightblue" points="1721.5,-302.23 1725,-312.23 1728.5,-302.23 1721.5,-302.23"/>
</g>
<!-- Node12 -->
<g id="node12" class="node">
<title>Node12</title>
<g id="a_node12"><a xlink:href="DisplacementFiniteElement_8h.html" target="_top" xlink:title=" ">
<polygon fill="white" stroke="black" points="2386,-78.5 2386,-119.5 2544,-119.5 2544,-78.5 2386,-78.5"/>
<text text-anchor="start" x="2394" y="-107.5" font-family="Helvetica,sans-Serif" font-size="10.00">modules/elements/Displacement</text>
<text text-anchor="start" x="2394" y="-96.5" font-family="Helvetica,sans-Serif" font-size="10.00">FiniteElement/include/Marmot</text>
<text text-anchor="middle" x="2465" y="-85.5" font-family="Helvetica,sans-Serif" font-size="10.00">/DisplacementFiniteElement.h</text>
</a>
</g>
</g>
<!-- Node1&#45;&gt;Node12 -->
<g id="edge67" class="edge">
<title>Node1&#45;&gt;Node12</title>
<path fill="none" stroke="midnightblue" d="M1811.84,-321.92C1930.35,-312.54 2146.46,-284.07 2308,-198 2331.86,-185.29 2329.86,-171.51 2352,-156 2372.26,-141.8 2396.65,-129.23 2417.58,-119.61"/>
<polygon fill="midnightblue" stroke="midnightblue" points="1811.43,-318.44 1801.73,-322.7 1811.96,-325.42 1811.43,-318.44"/>
</g>
<!-- Node19 -->
<g id="node19" class="node">
<title>Node19</title>
<g id="a_node19"><a xlink:href="MarmotLocalization_8cpp.html" target="_top" xlink:title=" ">
<polygon fill="white" stroke="black" points="2955.5,-84 2955.5,-114 3114.5,-114 3114.5,-84 2955.5,-84"/>
<text text-anchor="start" x="2963.5" y="-102" font-family="Helvetica,sans-Serif" font-size="10.00">modules/core/MarmotMechanics</text>
<text text-anchor="middle" x="3035" y="-91" font-family="Helvetica,sans-Serif" font-size="10.00">Core/src/MarmotLocalization.cpp</text>
</a>
</g>
</g>
<!-- Node1&#45;&gt;Node19 -->
<g id="edge61" class="edge">
<title>Node1&#45;&gt;Node19</title>
<path fill="none" stroke="midnightblue" d="M1811.72,-325.27C2021.09,-321.79 2549.71,-309.83 2723,-276 2826.46,-255.8 2859.23,-256.4 2947,-198 2981.65,-174.95 3011.51,-135.14 3025.88,-114.05"/>
<polygon fill="midnightblue" stroke="midnightblue" points="1811.63,-321.77 1801.69,-325.43 1811.74,-328.77 1811.63,-321.77"/>
</g>
<!-- Node21 -->
<g id="node21" class="node">
<title>Node21</title>
<g id="a_node21"><a xlink:href="MarmotMaterialHyperElastic_8cpp.html" target="_top" xlink:title=" ">
<polygon fill="white" stroke="black" points="1788.5,-84 1788.5,-114 1985.5,-114 1985.5,-84 1788.5,-84"/>
<text text-anchor="start" x="1796.5" y="-102" font-family="Helvetica,sans-Serif" font-size="10.00">modules/core/MarmotMechanics</text>
<text text-anchor="middle" x="1887" y="-91" font-family="Helvetica,sans-Serif" font-size="10.00">Core/src/MarmotMaterialHyperElastic.cpp</text>
</a>
</g>
</g>
<!-- Node1&#45;&gt;Node21 -->
<g id="edge62" class="edge">
<title>Node1&#45;&gt;Node21</title>
<path fill="none" stroke="midnightblue" d="M1777.61,-308.68C1824.33,-289.59 1889.24,-254.21 1916,-198 1929.5,-169.64 1910.47,-133.65 1897.44,-114.14"/>
<polygon fill="midnightblue" stroke="midnightblue" points="1776.23,-305.46 1768.23,-312.4 1778.81,-311.97 1776.23,-305.46"/>
</g>
<!-- Node22 -->
<g id="node22" class="node">
<title>Node22</title>
<g id="a_node22"><a xlink:href="MarmotMaterialHypoElastic_8cpp.html" target="_top" xlink:title=" ">
<polygon fill="white" stroke="black" points="1576,-84 1576,-114 1770,-114 1770,-84 1576,-84"/>
<text text-anchor="start" x="1584" y="-102" font-family="Helvetica,sans-Serif" font-size="10.00">modules/core/MarmotMechanics</text>
<text text-anchor="middle" x="1673" y="-91" font-family="Helvetica,sans-Serif" font-size="10.00">Core/src/MarmotMaterialHypoElastic.cpp</text>
</a>
</g>
</g>
<!-- Node1&#45;&gt;Node22 -->
<g id="edge63" class="edge">
<title>Node1&#45;&gt;Node22</title>
<path fill="none" stroke="midnightblue" d="M1638.4,-312.78C1572.12,-297.24 1485.01,-264.77 1442,-198 1431.89,-182.31 1430.46,-170.67 1442,-156 1447.21,-149.37 1539.99,-128.37 1606.36,-114.05"/>
<polygon fill="midnightblue" stroke="midnightblue" points="1637.91,-316.26 1648.43,-315.04 1639.45,-309.43 1637.91,-316.26"/>
</g>
<!-- Node23 -->
<g id="node23" class="node">
<title>Node23</title>
<g id="a_node23"><a xlink:href="MarmotMaterialHypoElasticNonLocal_8cpp.html" target="_top" xlink:title=" ">
<polygon fill="white" stroke="black" points="2004,-78.5 2004,-119.5 2180,-119.5 2180,-78.5 2004,-78.5"/>
<text text-anchor="start" x="2012" y="-107.5" font-family="Helvetica,sans-Serif" font-size="10.00">modules/core/MarmotMechanics</text>
<text text-anchor="start" x="2012" y="-96.5" font-family="Helvetica,sans-Serif" font-size="10.00">Core/src/MarmotMaterialHypoElastic</text>
<text text-anchor="middle" x="2092" y="-85.5" font-family="Helvetica,sans-Serif" font-size="10.00">NonLocal.cpp</text>
</a>
</g>
</g>
<!-- Node1&#45;&gt;Node23 -->
<g id="edge64" class="edge">
<title>Node1&#45;&gt;Node23</title>
<path fill="none" stroke="midnightblue" d="M1797.71,-309.7C1825.4,-301.67 1856.62,-290.57 1883,-276 1962.52,-232.08 2040.02,-155.38 2074.03,-119.52"/>
<polygon fill="midnightblue" stroke="midnightblue" points="1796.75,-306.33 1788.07,-312.41 1798.65,-313.07 1796.75,-306.33"/>
</g>
<!-- Node27 -->
<g id="node27" class="node">
<title>Node27</title>
<g id="a_node27"><a xlink:href="LinearElastic_8cpp.html" target="_top" xlink:title=" ">
<polygon fill="white" stroke="black" points="894,-84 894,-114 1034,-114 1034,-84 894,-84"/>
<text text-anchor="start" x="902" y="-102" font-family="Helvetica,sans-Serif" font-size="10.00">modules/materials/Linear</text>
<text text-anchor="middle" x="964" y="-91" font-family="Helvetica,sans-Serif" font-size="10.00">Elastic/src/LinearElastic.cpp</text>
</a>
</g>
</g>
<!-- Node1&#45;&gt;Node27 -->
<g id="edge68" class="edge">
<title>Node1&#45;&gt;Node27</title>
<path fill="none" stroke="midnightblue" d="M1638.18,-320.52C1517.17,-309.46 1293.28,-279.01 1121,-198 1093.49,-185.06 1092.44,-172.65 1067,-156 1042.82,-140.17 1013.77,-124.67 992.7,-114.01"/>
<polygon fill="midnightblue" stroke="midnightblue" points="1638.22,-324.04 1648.49,-321.44 1638.84,-317.06 1638.22,-324.04"/>
</g>
<!-- Node30 -->
<g id="node30" class="node">
<title>Node30</title>
<g id="a_node30"><a xlink:href="MarmotMaterialMechanical_8cpp.html" target="_top" xlink:title=" ">
<polygon fill="white" stroke="black" points="2746.5,-84 2746.5,-114 2937.5,-114 2937.5,-84 2746.5,-84"/>
<text text-anchor="start" x="2754.5" y="-102" font-family="Helvetica,sans-Serif" font-size="10.00">modules/core/MarmotMechanics</text>
<text text-anchor="middle" x="2842" y="-91" font-family="Helvetica,sans-Serif" font-size="10.00">Core/src/MarmotMaterialMechanical.cpp</text>
</a>
</g>
</g>
<!-- Node1&#45;&gt;Node30 -->
<g id="edge65" class="edge">
<title>Node1&#45;&gt;Node30</title>
<path fill="none" stroke="midnightblue" d="M1812.18,-323.78C2076.2,-314.64 2853.52,-280.86 2928,-198 2940.48,-184.12 2936.9,-172.41 2928,-156 2917.56,-136.73 2897.29,-123.05 2879.06,-114.04"/>
<polygon fill="midnightblue" stroke="midnightblue" points="1811.75,-320.29 1801.88,-324.13 1811.99,-327.28 1811.75,-320.29"/>
</g>
<!-- Node32 -->
<g id="node32" class="node">
<title>Node32</title>
<g id="a_node32"><a xlink:href="PerezFougetSubstepperMarkII_8h.html" target="_top" xlink:title=" ">
<polygon fill="white" stroke="black" points="3013,-234.5 3013,-275.5 3177,-275.5 3177,-234.5 3013,-234.5"/>
<text text-anchor="start" x="3021" y="-263.5" font-family="Helvetica,sans-Serif" font-size="10.00">modules/core/MarmotMechanics</text>
<text text-anchor="start" x="3021" y="-252.5" font-family="Helvetica,sans-Serif" font-size="10.00">Core/include/Marmot/PerezFouget</text>
<text text-anchor="middle" x="3095" y="-241.5" font-family="Helvetica,sans-Serif" font-size="10.00">SubstepperMarkII.h</text>
</a>
</g>
</g>
<!-- Node1&#45;&gt;Node32 -->
<g id="edge59" class="edge">
<title>Node1&#45;&gt;Node32</title>
<path fill="none" stroke="midnightblue" d="M1811.84,-324.93C2059.88,-320.17 2768.49,-304.38 2999,-276 3003.56,-275.44 3008.23,-274.77 3012.93,-274.03"/>
<polygon fill="midnightblue" stroke="midnightblue" points="1811.72,-321.44 1801.79,-325.13 1811.86,-328.43 1811.72,-321.44"/>
</g>
<!-- Node4 -->
<g id="node4" class="node">
<title>Node4</title>
<g id="a_node4"><a xlink:href="MenetreyWillam_8h.html" target="_top" xlink:title=" ">
<polygon fill="white" stroke="black" points="0,-84 0,-114 186,-114 186,-84 0,-84"/>
<text text-anchor="start" x="8" y="-102" font-family="Helvetica,sans-Serif" font-size="10.00">modules/core/MarmotMechanics</text>
<text text-anchor="middle" x="93" y="-91" font-family="Helvetica,sans-Serif" font-size="10.00">Core/include/Marmot/MenetreyWillam.h</text>
</a>
</g>
</g>
<!-- Node3&#45;&gt;Node4 -->
<g id="edge3" class="edge">
<title>Node3&#45;&gt;Node4</title>
<path fill="none" stroke="midnightblue" d="M490.85,-162.6C409.19,-152.16 294.87,-136.68 195,-120 184.23,-118.2 172.86,-116.14 161.76,-114.03"/>
<polygon fill="midnightblue" stroke="midnightblue" points="490.78,-166.12 501.14,-163.91 491.67,-159.17 490.78,-166.12"/>
</g>
<!-- Node3&#45;&gt;Node6 -->
<g id="edge5" class="edge">
<title>Node3&#45;&gt;Node6</title>
<path fill="none" stroke="midnightblue" d="M531.54,-159.59C474.85,-145.99 395.17,-126.89 341.44,-114.01"/>
<polygon fill="midnightblue" stroke="midnightblue" points="530.95,-163.04 541.49,-161.97 532.58,-156.24 530.95,-163.04"/>
</g>
<!-- Node3&#45;&gt;Node7 -->
<g id="edge6" class="edge">
<title>Node3&#45;&gt;Node7</title>
<path fill="none" stroke="midnightblue" d="M564.75,-157C540,-143.66 507.47,-126.12 485.05,-114.04"/>
<polygon fill="midnightblue" stroke="midnightblue" points="563.35,-160.22 573.81,-161.88 566.67,-154.06 563.35,-160.22"/>
</g>
<!-- Node8 -->
<g id="node8" class="node">
<title>Node8</title>
<g id="a_node8"><a xlink:href="VonMises_8cpp.html" target="_top" xlink:title=" ">
<polygon fill="white" stroke="black" points="556.5,-84 556.5,-114 699.5,-114 699.5,-84 556.5,-84"/>
<text text-anchor="start" x="564.5" y="-102" font-family="Helvetica,sans-Serif" font-size="10.00">modules/materials/VonMises</text>
<text text-anchor="middle" x="628" y="-91" font-family="Helvetica,sans-Serif" font-size="10.00">/src/VonMises.cpp</text>
</a>
</g>
</g>
<!-- Node3&#45;&gt;Node8 -->
<g id="edge7" class="edge">
<title>Node3&#45;&gt;Node8</title>
<path fill="none" stroke="midnightblue" d="M608.86,-151.96C613.43,-139.55 618.85,-124.83 622.76,-114.23"/>
<polygon fill="midnightblue" stroke="midnightblue" points="605.44,-151.11 605.27,-161.7 612.01,-153.53 605.44,-151.11"/>
</g>
<!-- Node5 -->
<g id="node5" class="node">
<title>Node5</title>
<g id="a_node5"><a xlink:href="MenetreyWillam_8cpp.html" target="_top" xlink:title=" ">
<polygon fill="white" stroke="black" points="14,-6 14,-36 172,-36 172,-6 14,-6"/>
<text text-anchor="start" x="22" y="-24" font-family="Helvetica,sans-Serif" font-size="10.00">modules/core/MarmotMechanics</text>
<text text-anchor="middle" x="93" y="-13" font-family="Helvetica,sans-Serif" font-size="10.00">Core/src/MenetreyWillam.cpp</text>
</a>
</g>
</g>
<!-- Node4&#45;&gt;Node5 -->
<g id="edge4" class="edge">
<title>Node4&#45;&gt;Node5</title>
<path fill="none" stroke="midnightblue" d="M93,-73.59C93,-61.26 93,-46.72 93,-36.23"/>
<polygon fill="midnightblue" stroke="midnightblue" points="89.5,-73.7 93,-83.7 96.5,-73.71 89.5,-73.7"/>
</g>
<!-- Node9&#45;&gt;Node3 -->
<g id="edge26" class="edge">
<title>Node9&#45;&gt;Node3</title>
<path fill="none" stroke="midnightblue" d="M1628.14,-252.5C1447.58,-248.85 1047.58,-236.72 713,-198 699.64,-196.45 685.47,-194.33 671.85,-192.05"/>
<polygon fill="midnightblue" stroke="midnightblue" points="1628.33,-256 1638.4,-252.7 1628.47,-249.01 1628.33,-256"/>
</g>
<!-- Node9&#45;&gt;Node6 -->
<g id="edge47" class="edge">
<title>Node9&#45;&gt;Node6</title>
<path fill="none" stroke="midnightblue" d="M1628.35,-254.28C1419.41,-253.9 931.84,-247.56 775,-198 741.13,-187.3 740.61,-167.51 707,-156 564.92,-107.33 519.15,-144.68 371,-120 361.11,-118.35 350.66,-116.28 340.56,-114.09"/>
<polygon fill="midnightblue" stroke="midnightblue" points="1628.39,-257.78 1638.39,-254.29 1628.4,-250.78 1628.39,-257.78"/>
</g>
<!-- Node9&#45;&gt;Node7 -->
<g id="edge55" class="edge">
<title>Node9&#45;&gt;Node7</title>
<path fill="none" stroke="midnightblue" d="M1628.17,-252.14C1409.06,-247.35 888.62,-232.46 817,-198 794.32,-187.09 801.16,-167.95 779,-156 687.16,-106.46 649.49,-139.57 547,-120 537.61,-118.21 527.7,-116.13 518.05,-114.01"/>
<polygon fill="midnightblue" stroke="midnightblue" points="1628.3,-255.65 1638.38,-252.36 1628.46,-248.65 1628.3,-255.65"/>
</g>
<!-- Node9&#45;&gt;Node8 -->
<g id="edge58" class="edge">
<title>Node9&#45;&gt;Node8</title>
<path fill="none" stroke="midnightblue" d="M1628.33,-251.52C1417.3,-245.55 928.68,-228.6 860,-198 835.6,-187.13 840.04,-169.52 817,-156 804.97,-148.94 731.64,-128.17 679.94,-114.01"/>
<polygon fill="midnightblue" stroke="midnightblue" points="1628.38,-255.02 1638.47,-251.8 1628.58,-248.02 1628.38,-255.02"/>
</g>
<!-- Node10 -->
<g id="node10" class="node">
<title>Node10</title>
<g id="a_node10"><a xlink:href="MarmotGeometryElement_8h.html" target="_top" xlink:title=" ">
<polygon fill="white" stroke="black" points="2361,-156.5 2361,-197.5 2503,-197.5 2503,-156.5 2361,-156.5"/>
<text text-anchor="start" x="2369" y="-185.5" font-family="Helvetica,sans-Serif" font-size="10.00">modules/core/MarmotFinite</text>
<text text-anchor="start" x="2369" y="-174.5" font-family="Helvetica,sans-Serif" font-size="10.00">ElementCore/include/Marmot</text>
<text text-anchor="middle" x="2432" y="-163.5" font-family="Helvetica,sans-Serif" font-size="10.00">/MarmotGeometryElement.h</text>
</a>
</g>
</g>
<!-- Node9&#45;&gt;Node10 -->
<g id="edge9" class="edge">
<title>Node9&#45;&gt;Node10</title>
<path fill="none" stroke="midnightblue" d="M1822.05,-246.65C1938.11,-237.42 2138.14,-220.06 2309,-198 2325.84,-195.83 2343.92,-193.1 2360.9,-190.38"/>
<polygon fill="midnightblue" stroke="midnightblue" points="1821.47,-243.19 1811.78,-247.47 1822.02,-250.17 1821.47,-243.19"/>
</g>
<!-- Node9&#45;&gt;Node12 -->
<g id="edge56" class="edge">
<title>Node9&#45;&gt;Node12</title>
<path fill="none" stroke="midnightblue" d="M1821.94,-250.71C1955.86,-245.03 2189.81,-230.68 2268,-198 2295.09,-186.68 2293.63,-170.78 2319,-156 2344.45,-141.17 2374.55,-128.85 2400.79,-119.58"/>
<polygon fill="midnightblue" stroke="midnightblue" points="1821.53,-247.22 1811.68,-251.14 1821.82,-254.22 1821.53,-247.22"/>
</g>
<!-- Node14 -->
<g id="node14" class="node">
<title>Node14</title>
<g id="a_node14"><a xlink:href="MarmotFiniteElementSpatialWrapper_8cpp.html" target="_top" xlink:title=" ">
<polygon fill="white" stroke="black" points="2559,-156.5 2559,-197.5 2743,-197.5 2743,-156.5 2559,-156.5"/>
<text text-anchor="start" x="2567" y="-185.5" font-family="Helvetica,sans-Serif" font-size="10.00">modules/core/MarmotFinite</text>
<text text-anchor="start" x="2567" y="-174.5" font-family="Helvetica,sans-Serif" font-size="10.00">ElementCore/src/MarmotFiniteElement</text>
<text text-anchor="middle" x="2651" y="-163.5" font-family="Helvetica,sans-Serif" font-size="10.00">SpatialWrapper.cpp</text>
</a>
</g>
</g>
<!-- Node9&#45;&gt;Node14 -->
<g id="edge13" class="edge">
<title>Node9&#45;&gt;Node14</title>
<path fill="none" stroke="midnightblue" d="M1821.86,-251.1C1975.64,-245.65 2284.89,-231.3 2545,-198 2549.55,-197.42 2554.2,-196.76 2558.89,-196.06"/>
<polygon fill="midnightblue" stroke="midnightblue" points="1821.38,-247.61 1811.51,-251.46 1821.63,-254.61 1821.38,-247.61"/>
</g>
<!-- Node15 -->
<g id="node15" class="node">
<title>Node15</title>
<g id="a_node15"><a xlink:href="MarmotTensor_8h.html" target="_top" xlink:title=" ">
<polygon fill="white" stroke="black" points="1235,-162 1235,-192 1395,-192 1395,-162 1235,-162"/>
<text text-anchor="start" x="1243" y="-180" font-family="Helvetica,sans-Serif" font-size="10.00">modules/core/MarmotMathCore</text>
<text text-anchor="middle" x="1315" y="-169" font-family="Helvetica,sans-Serif" font-size="10.00">/include/Marmot/MarmotTensor.h</text>
</a>
</g>
</g>
<!-- Node9&#45;&gt;Node15 -->
<g id="edge14" class="edge">
<title>Node9&#45;&gt;Node15</title>
<path fill="none" stroke="midnightblue" d="M1639.17,-238.09C1565.7,-224.47 1460.94,-205.05 1390.58,-192.01"/>
<polygon fill="midnightblue" stroke="midnightblue" points="1638.85,-241.59 1649.32,-239.97 1640.13,-234.71 1638.85,-241.59"/>
</g>
<!-- Node17 -->
<g id="node17" class="node">
<title>Node17</title>
<g id="a_node17"><a xlink:href="HughesWinget_8cpp.html" target="_top" xlink:title=" ">
<polygon fill="white" stroke="black" points="1224,-84 1224,-114 1382,-114 1382,-84 1224,-84"/>
<text text-anchor="start" x="1232" y="-102" font-family="Helvetica,sans-Serif" font-size="10.00">modules/core/MarmotMechanics</text>
<text text-anchor="middle" x="1303" y="-91" font-family="Helvetica,sans-Serif" font-size="10.00">Core/src/HughesWinget.cpp</text>
</a>
</g>
</g>
<!-- Node9&#45;&gt;Node17 -->
<g id="edge48" class="edge">
<title>Node9&#45;&gt;Node17</title>
<path fill="none" stroke="midnightblue" d="M1628.31,-249.97C1490.78,-243.22 1252.29,-227.4 1226,-198 1213.56,-184.08 1217.53,-172.63 1226,-156 1235.53,-137.29 1254.55,-123.36 1271.31,-114.08"/>
<polygon fill="midnightblue" stroke="midnightblue" points="1628.28,-253.47 1638.44,-250.46 1628.62,-246.48 1628.28,-253.47"/>
</g>
<!-- Node20 -->
<g id="node20" class="node">
<title>Node20</title>
<g id="a_node20"><a xlink:href="MarmotLowerDimensionalStress_8cpp.html" target="_top" xlink:title=" ">
<polygon fill="white" stroke="black" points="2198,-78.5 2198,-119.5 2368,-119.5 2368,-78.5 2198,-78.5"/>
<text text-anchor="start" x="2206" y="-107.5" font-family="Helvetica,sans-Serif" font-size="10.00">modules/core/MarmotMechanics</text>
<text text-anchor="start" x="2206" y="-96.5" font-family="Helvetica,sans-Serif" font-size="10.00">Core/src/MarmotLowerDimensional</text>
<text text-anchor="middle" x="2283" y="-85.5" font-family="Helvetica,sans-Serif" font-size="10.00">Stress.cpp</text>
</a>
</g>
</g>
<!-- Node9&#45;&gt;Node20 -->
<g id="edge49" class="edge">
<title>Node9&#45;&gt;Node20</title>
<path fill="none" stroke="midnightblue" d="M1822.05,-254.55C1951.96,-253.43 2173.52,-244.48 2238,-198 2263.67,-179.5 2275.06,-142.72 2279.83,-119.85"/>
<polygon fill="midnightblue" stroke="midnightblue" points="1821.68,-251.05 1811.71,-254.62 1821.73,-258.05 1821.68,-251.05"/>
</g>
<!-- Node9&#45;&gt;Node21 -->
<g id="edge50" class="edge">
<title>Node9&#45;&gt;Node21</title>
<path fill="none" stroke="midnightblue" d="M1821.7,-244.34C1850.59,-236.41 1879.26,-222.43 1897,-198 1915.09,-173.09 1902.8,-134.76 1893.9,-114.2"/>
<polygon fill="midnightblue" stroke="midnightblue" points="1820.75,-240.97 1811.91,-246.8 1822.46,-247.76 1820.75,-240.97"/>
</g>
<!-- Node9&#45;&gt;Node22 -->
<g id="edge51" class="edge">
<title>Node9&#45;&gt;Node22</title>
<path fill="none" stroke="midnightblue" d="M1702.53,-232.43C1693.92,-222.77 1684.99,-210.7 1680,-198 1668.97,-169.9 1669.84,-133.81 1671.44,-114.21"/>
<polygon fill="midnightblue" stroke="midnightblue" points="1700.19,-235.05 1709.59,-239.94 1705.29,-230.25 1700.19,-235.05"/>
</g>
<!-- Node9&#45;&gt;Node23 -->
<g id="edge52" class="edge">
<title>Node9&#45;&gt;Node23</title>
<path fill="none" stroke="midnightblue" d="M1795.64,-237.32C1832.23,-227.67 1877.25,-214.23 1916,-198 1969.55,-175.57 2027.65,-141.02 2061.89,-119.5"/>
<polygon fill="midnightblue" stroke="midnightblue" points="1794.35,-234.04 1785.55,-239.94 1796.11,-240.81 1794.35,-234.04"/>
</g>
<!-- Node24 -->
<g id="node24" class="node">
<title>Node24</title>
<g id="a_node24"><a xlink:href="HughesWinget_8h.html" target="_top" xlink:title=" ">
<polygon fill="white" stroke="black" points="1451.5,-162 1451.5,-192 1632.5,-192 1632.5,-162 1451.5,-162"/>
<text text-anchor="start" x="1459.5" y="-180" font-family="Helvetica,sans-Serif" font-size="10.00">modules/core/MarmotMechanics</text>
<text text-anchor="middle" x="1542" y="-169" font-family="Helvetica,sans-Serif" font-size="10.00">Core/include/Marmot/HughesWinget.h</text>
</a>
</g>
</g>
<!-- Node9&#45;&gt;Node24 -->
<g id="edge27" class="edge">
<title>Node9&#45;&gt;Node24</title>
<path fill="none" stroke="midnightblue" d="M1681.77,-236.05C1649.38,-222.59 1605.67,-204.44 1575.81,-192.04"/>
<polygon fill="midnightblue" stroke="midnightblue" points="1680.43,-239.28 1691.01,-239.88 1683.12,-232.82 1680.43,-239.28"/>
</g>
<!-- Node25 -->
<g id="node25" class="node">
<title>Node25</title>
<g id="a_node25"><a xlink:href="MarmotElasticity_8h.html" target="_top" xlink:title=" ">
<polygon fill="white" stroke="black" points="869.5,-162 869.5,-192 1058.5,-192 1058.5,-162 869.5,-162"/>
<text text-anchor="start" x="877.5" y="-180" font-family="Helvetica,sans-Serif" font-size="10.00">modules/core/MarmotMechanics</text>
<text text-anchor="middle" x="964" y="-169" font-family="Helvetica,sans-Serif" font-size="10.00">Core/include/Marmot/MarmotElasticity.h</text>
</a>
</g>
</g>
<!-- Node9&#45;&gt;Node25 -->
<g id="edge31" class="edge">
<title>Node9&#45;&gt;Node25</title>
<path fill="none" stroke="midnightblue" d="M1628.14,-244.98C1513.3,-234.2 1316.14,-215.44 1147,-198 1118.39,-195.05 1087.28,-191.7 1058.96,-188.6"/>
<polygon fill="midnightblue" stroke="midnightblue" points="1628.02,-248.49 1638.31,-245.93 1628.68,-241.52 1628.02,-248.49"/>
</g>
<!-- Node9&#45;&gt;Node27 -->
<g id="edge57" class="edge">
<title>Node9&#45;&gt;Node27</title>
<path fill="none" stroke="midnightblue" d="M1628.06,-252.26C1524.22,-248.36 1355.4,-236.07 1215,-198 1170.84,-186.03 1163.47,-173.03 1121,-156 1082.59,-140.6 1038.1,-124.93 1006.31,-114.1"/>
<polygon fill="midnightblue" stroke="midnightblue" points="1628.09,-255.77 1638.21,-252.63 1628.34,-248.77 1628.09,-255.77"/>
</g>
<!-- Node28 -->
<g id="node28" class="node">
<title>Node28</title>
<g id="a_node28"><a xlink:href="MarmotKinematics_8h.html" target="_top" xlink:title=" ">
<polygon fill="white" stroke="black" points="1689.5,-162 1689.5,-192 1888.5,-192 1888.5,-162 1689.5,-162"/>
<text text-anchor="start" x="1697.5" y="-180" font-family="Helvetica,sans-Serif" font-size="10.00">modules/core/MarmotMechanics</text>
<text text-anchor="middle" x="1789" y="-169" font-family="Helvetica,sans-Serif" font-size="10.00">Core/include/Marmot/MarmotKinematics.h</text>
</a>
</g>
</g>
<!-- Node9&#45;&gt;Node28 -->
<g id="edge35" class="edge">
<title>Node9&#45;&gt;Node28</title>
<path fill="none" stroke="midnightblue" d="M1743.69,-231.81C1754.45,-219.03 1767.64,-203.36 1777.02,-192.23"/>
<polygon fill="midnightblue" stroke="midnightblue" points="1740.8,-229.8 1737.04,-239.7 1746.16,-234.31 1740.8,-229.8"/>
</g>
<!-- Node29 -->
<g id="node29" class="node">
<title>Node29</title>
<g id="a_node29"><a xlink:href="MarmotLowerDimensionalStress_8h.html" target="_top" xlink:title=" ">
<polygon fill="white" stroke="black" points="2059,-156.5 2059,-197.5 2229,-197.5 2229,-156.5 2059,-156.5"/>
<text text-anchor="start" x="2067" y="-185.5" font-family="Helvetica,sans-Serif" font-size="10.00">modules/core/MarmotMechanics</text>
<text text-anchor="start" x="2067" y="-174.5" font-family="Helvetica,sans-Serif" font-size="10.00">Core/include/Marmot/MarmotLower</text>
<text text-anchor="middle" x="2144" y="-163.5" font-family="Helvetica,sans-Serif" font-size="10.00">DimensionalStress.h</text>
</a>
</g>
</g>
<!-- Node9&#45;&gt;Node29 -->
<g id="edge41" class="edge">
<title>Node9&#45;&gt;Node29</title>
<path fill="none" stroke="midnightblue" d="M1812.35,-238.16C1884.74,-225.03 1987.04,-206.47 2058.82,-193.45"/>
<polygon fill="midnightblue" stroke="midnightblue" points="1811.55,-234.74 1802.34,-239.97 1812.8,-241.63 1811.55,-234.74"/>
</g>
<!-- Node9&#45;&gt;Node30 -->
<g id="edge53" class="edge">
<title>Node9&#45;&gt;Node30</title>
<path fill="none" stroke="midnightblue" d="M1821.62,-251.15C2018.22,-244.77 2451.36,-227.53 2512,-198 2534.63,-186.98 2528.06,-168.34 2550,-156 2550.6,-155.66 2682.21,-130.5 2768.51,-114.02"/>
<polygon fill="midnightblue" stroke="midnightblue" points="1821.47,-247.65 1811.58,-251.47 1821.69,-254.65 1821.47,-247.65"/>
</g>
<!-- Node31 -->
<g id="node31" class="node">
<title>Node31</title>
<g id="a_node31"><a xlink:href="MarmotUtility_8cpp.html" target="_top" xlink:title=" ">
<polygon fill="white" stroke="black" points="2761,-162 2761,-192 2919,-192 2919,-162 2761,-162"/>
<text text-anchor="start" x="2769" y="-180" font-family="Helvetica,sans-Serif" font-size="10.00">modules/core/MarmotMechanics</text>
<text text-anchor="middle" x="2840" y="-169" font-family="Helvetica,sans-Serif" font-size="10.00">Core/src/MarmotUtility.cpp</text>
</a>
</g>
</g>
<!-- Node9&#45;&gt;Node31 -->
<g id="edge54" class="edge">
<title>Node9&#45;&gt;Node31</title>
<path fill="none" stroke="midnightblue" d="M1821.82,-254.15C2004.56,-253.25 2412.47,-245.49 2752,-198 2762.71,-196.5 2774.03,-194.36 2784.87,-192.03"/>
<polygon fill="midnightblue" stroke="midnightblue" points="1821.68,-250.66 1811.7,-254.2 1821.71,-257.66 1821.68,-250.66"/>
</g>
<!-- Node11 -->
<g id="node11" class="node">
<title>Node11</title>
<g id="a_node11"><a xlink:href="MarmotGeometryElement_8cpp.html" target="_top" xlink:title=" ">
<polygon fill="white" stroke="black" points="2561.5,-78.5 2561.5,-119.5 2728.5,-119.5 2728.5,-78.5 2561.5,-78.5"/>
<text text-anchor="start" x="2569.5" y="-107.5" font-family="Helvetica,sans-Serif" font-size="10.00">modules/core/MarmotFinite</text>
<text text-anchor="start" x="2569.5" y="-96.5" font-family="Helvetica,sans-Serif" font-size="10.00">ElementCore/src/MarmotGeometry</text>
<text text-anchor="middle" x="2645" y="-85.5" font-family="Helvetica,sans-Serif" font-size="10.00">Element.cpp</text>
</a>
</g>
</g>
<!-- Node10&#45;&gt;Node11 -->
<g id="edge10" class="edge">
<title>Node10&#45;&gt;Node11</title>
<path fill="none" stroke="midnightblue" d="M2496.39,-153.03C2526.37,-142.33 2561.67,-129.73 2590.33,-119.51"/>
<polygon fill="midnightblue" stroke="midnightblue" points="2495.09,-149.77 2486.85,-156.43 2497.45,-156.36 2495.09,-149.77"/>
</g>
<!-- Node10&#45;&gt;Node12 -->
<g id="edge11" class="edge">
<title>Node10&#45;&gt;Node12</title>
<path fill="none" stroke="midnightblue" d="M2444.52,-147.17C2448.53,-137.93 2452.88,-127.92 2456.53,-119.51"/>
<polygon fill="midnightblue" stroke="midnightblue" points="2441.27,-145.86 2440.5,-156.43 2447.69,-148.65 2441.27,-145.86"/>
</g>
<!-- Node13 -->
<g id="node13" class="node">
<title>Node13</title>
<g id="a_node13"><a xlink:href="DisplacementFiniteElementRegistration_8cpp.html" target="_top" xlink:title=" ">
<polygon fill="white" stroke="black" points="2375.5,-0.5 2375.5,-41.5 2554.5,-41.5 2554.5,-0.5 2375.5,-0.5"/>
<text text-anchor="start" x="2383.5" y="-29.5" font-family="Helvetica,sans-Serif" font-size="10.00">modules/elements/Displacement</text>
<text text-anchor="start" x="2383.5" y="-18.5" font-family="Helvetica,sans-Serif" font-size="10.00">FiniteElement/src/DisplacementFinite</text>
<text text-anchor="middle" x="2465" y="-7.5" font-family="Helvetica,sans-Serif" font-size="10.00">ElementRegistration.cpp</text>
</a>
</g>
</g>
<!-- Node12&#45;&gt;Node13 -->
<g id="edge12" class="edge">
<title>Node12&#45;&gt;Node13</title>
<path fill="none" stroke="midnightblue" d="M2465,-68.3C2465,-59.3 2465,-49.65 2465,-41.51"/>
<polygon fill="midnightblue" stroke="midnightblue" points="2461.5,-68.43 2465,-78.43 2468.5,-68.43 2461.5,-68.43"/>
</g>
<!-- Node15&#45;&gt;Node6 -->
<g id="edge16" class="edge">
<title>Node15&#45;&gt;Node6</title>
<path fill="none" stroke="midnightblue" d="M1224.75,-168.09C1177.74,-164.13 1119.3,-159.46 1067,-156 757.93,-135.55 677.82,-162.48 371,-120 360.29,-118.52 348.96,-116.38 338.13,-114.05"/>
<polygon fill="midnightblue" stroke="midnightblue" points="1224.65,-171.6 1234.91,-168.95 1225.24,-164.62 1224.65,-171.6"/>
</g>
<!-- Node15&#45;&gt;Node7 -->
<g id="edge24" class="edge">
<title>Node15&#45;&gt;Node7</title>
<path fill="none" stroke="midnightblue" d="M1224.72,-168.47C1177.71,-164.61 1119.27,-159.92 1067,-156 835.98,-138.69 776.19,-153.77 547,-120 536.46,-118.45 525.31,-116.31 514.62,-114"/>
<polygon fill="midnightblue" stroke="midnightblue" points="1224.63,-171.98 1234.88,-169.31 1225.2,-165 1224.63,-171.98"/>
</g>
<!-- Node15&#45;&gt;Node8 -->
<g id="edge25" class="edge">
<title>Node15&#45;&gt;Node8</title>
<path fill="none" stroke="midnightblue" d="M1224.69,-168.41C1068.18,-155.14 758.48,-128.35 709,-120 699.57,-118.41 689.62,-116.31 680.05,-114.07"/>
<polygon fill="midnightblue" stroke="midnightblue" points="1224.51,-171.91 1234.77,-169.26 1225.1,-164.93 1224.51,-171.91"/>
</g>
<!-- Node16 -->
<g id="node16" class="node">
<title>Node16</title>
<g id="a_node16"><a xlink:href="MarmotTensor_8cpp.html" target="_top" xlink:title=" ">
<polygon fill="white" stroke="black" points="1052.5,-84 1052.5,-114 1205.5,-114 1205.5,-84 1052.5,-84"/>
<text text-anchor="start" x="1060.5" y="-102" font-family="Helvetica,sans-Serif" font-size="10.00">modules/core/MarmotMathCore</text>
<text text-anchor="middle" x="1129" y="-91" font-family="Helvetica,sans-Serif" font-size="10.00">/src/MarmotTensor.cpp</text>
</a>
</g>
</g>
<!-- Node15&#45;&gt;Node16 -->
<g id="edge15" class="edge">
<title>Node15&#45;&gt;Node16</title>
<path fill="none" stroke="midnightblue" d="M1271.06,-158.05C1238.14,-144.59 1193.71,-126.44 1163.36,-114.04"/>
<polygon fill="midnightblue" stroke="midnightblue" points="1269.87,-161.34 1280.45,-161.88 1272.52,-154.86 1269.87,-161.34"/>
</g>
<!-- Node15&#45;&gt;Node17 -->
<g id="edge17" class="edge">
<title>Node15&#45;&gt;Node17</title>
<path fill="none" stroke="midnightblue" d="M1311.15,-151.59C1309.2,-139.26 1306.9,-124.72 1305.25,-114.23"/>
<polygon fill="midnightblue" stroke="midnightblue" points="1307.73,-152.37 1312.74,-161.7 1314.64,-151.28 1307.73,-152.37"/>
</g>
<!-- Node18 -->
<g id="node18" class="node">
<title>Node18</title>
<g id="a_node18"><a xlink:href="MarmotKinematics_8cpp.html" target="_top" xlink:title=" ">
<polygon fill="white" stroke="black" points="1400,-84 1400,-114 1558,-114 1558,-84 1400,-84"/>
<text text-anchor="start" x="1408" y="-102" font-family="Helvetica,sans-Serif" font-size="10.00">modules/core/MarmotMechanics</text>
<text text-anchor="middle" x="1479" y="-91" font-family="Helvetica,sans-Serif" font-size="10.00">Core/src/MarmotKinematics.cpp</text>
</a>
</g>
</g>
<!-- Node15&#45;&gt;Node18 -->
<g id="edge18" class="edge">
<title>Node15&#45;&gt;Node18</title>
<path fill="none" stroke="midnightblue" d="M1354.87,-157.52C1383.78,-144.13 1422.28,-126.28 1448.7,-114.04"/>
<polygon fill="midnightblue" stroke="midnightblue" points="1353.06,-154.5 1345.46,-161.88 1356.01,-160.85 1353.06,-154.5"/>
</g>
<!-- Node15&#45;&gt;Node19 -->
<g id="edge19" class="edge">
<title>Node15&#45;&gt;Node19</title>
<path fill="none" stroke="midnightblue" d="M1403.62,-160.51C1416.46,-158.71 1429.55,-157.12 1442,-156 2107.93,-95.86 2282.37,-201.7 2946,-120 2957.16,-118.63 2968.98,-116.48 2980.22,-114.09"/>
<polygon fill="midnightblue" stroke="midnightblue" points="1402.78,-157.1 1393.38,-161.99 1403.78,-164.03 1402.78,-157.1"/>
</g>
<!-- Node15&#45;&gt;Node20 -->
<g id="edge20" class="edge">
<title>Node15&#45;&gt;Node20</title>
<path fill="none" stroke="midnightblue" d="M1405.37,-160.54C1417.65,-158.8 1430.12,-157.22 1442,-156 1772.65,-122.1 1859.37,-162.73 2189,-120 2191.9,-119.62 2194.83,-119.21 2197.8,-118.76"/>
<polygon fill="midnightblue" stroke="midnightblue" points="1404.5,-157.13 1395.11,-162.04 1405.51,-164.06 1404.5,-157.13"/>
</g>
<!-- Node15&#45;&gt;Node21 -->
<g id="edge21" class="edge">
<title>Node15&#45;&gt;Node21</title>
<path fill="none" stroke="midnightblue" d="M1405.45,-161.19C1417.72,-159.35 1430.16,-157.56 1442,-156 1591.33,-136.28 1629.95,-141.73 1779,-120 1790.89,-118.27 1803.47,-116.18 1815.67,-114.01"/>
<polygon fill="midnightblue" stroke="midnightblue" points="1404.55,-157.79 1395.19,-162.75 1405.61,-164.71 1404.55,-157.79"/>
</g>
<!-- Node15&#45;&gt;Node22 -->
<g id="edge22" class="edge">
<title>Node15&#45;&gt;Node22</title>
<path fill="none" stroke="midnightblue" d="M1391.16,-159.79C1397.19,-158.51 1403.2,-157.23 1409,-156 1476.37,-141.69 1553.42,-125.35 1606.82,-114.03"/>
<polygon fill="midnightblue" stroke="midnightblue" points="1390.05,-156.45 1380.99,-161.95 1391.5,-163.3 1390.05,-156.45"/>
</g>
<!-- Node15&#45;&gt;Node23 -->
<g id="edge23" class="edge">
<title>Node15&#45;&gt;Node23</title>
<path fill="none" stroke="midnightblue" d="M1405.39,-160.73C1417.67,-158.96 1430.13,-157.32 1442,-156 1686.35,-128.85 1750.32,-152.66 1994,-120 1997.27,-119.56 2000.59,-119.08 2003.95,-118.56"/>
<polygon fill="midnightblue" stroke="midnightblue" points="1404.51,-157.32 1395.13,-162.25 1405.54,-164.25 1404.51,-157.32"/>
</g>
<!-- Node24&#45;&gt;Node17 -->
<g id="edge28" class="edge">
<title>Node24&#45;&gt;Node17</title>
<path fill="none" stroke="midnightblue" d="M1488.26,-158.91C1445.74,-145.39 1387.1,-126.74 1347.26,-114.07"/>
<polygon fill="midnightblue" stroke="midnightblue" points="1487.29,-162.28 1497.89,-161.97 1489.42,-155.61 1487.29,-162.28"/>
</g>
<!-- Node24&#45;&gt;Node22 -->
<g id="edge29" class="edge">
<title>Node24&#45;&gt;Node22</title>
<path fill="none" stroke="midnightblue" d="M1575.06,-156.82C1598.01,-143.51 1628.06,-126.07 1648.8,-114.04"/>
<polygon fill="midnightblue" stroke="midnightblue" points="1573.23,-153.84 1566.33,-161.88 1576.74,-159.89 1573.23,-153.84"/>
</g>
<!-- Node24&#45;&gt;Node23 -->
<g id="edge30" class="edge">
<title>Node24&#45;&gt;Node23</title>
<path fill="none" stroke="midnightblue" d="M1642.57,-161.07C1655.17,-159.3 1667.88,-157.57 1680,-156 1819.3,-137.92 1855.27,-142.07 1994,-120 1997.26,-119.48 2000.57,-118.93 2003.92,-118.35"/>
<polygon fill="midnightblue" stroke="midnightblue" points="1641.92,-157.63 1632.51,-162.49 1642.9,-164.56 1641.92,-157.63"/>
</g>
<!-- Node25&#45;&gt;Node8 -->
<g id="edge34" class="edge">
<title>Node25&#45;&gt;Node8</title>
<path fill="none" stroke="midnightblue" d="M887.94,-159.84C837.19,-148.92 769,-133.99 709,-120 700.96,-118.12 692.48,-116.09 684.17,-114.07"/>
<polygon fill="midnightblue" stroke="midnightblue" points="887.34,-163.29 897.85,-161.96 888.81,-156.44 887.34,-163.29"/>
</g>
<!-- Node26 -->
<g id="node26" class="node">
<title>Node26</title>
<g id="a_node26"><a xlink:href="MarmotElasticity_8cpp.html" target="_top" xlink:title=" ">
<polygon fill="white" stroke="black" points="718,-84 718,-114 876,-114 876,-84 718,-84"/>
<text text-anchor="start" x="726" y="-102" font-family="Helvetica,sans-Serif" font-size="10.00">modules/core/MarmotMechanics</text>
<text text-anchor="middle" x="797" y="-91" font-family="Helvetica,sans-Serif" font-size="10.00">Core/src/MarmotElasticity.cpp</text>
</a>
</g>
</g>
<!-- Node25&#45;&gt;Node26 -->
<g id="edge32" class="edge">
<title>Node25&#45;&gt;Node26</title>
<path fill="none" stroke="midnightblue" d="M923.79,-157.7C894.3,-144.28 854.87,-126.34 827.85,-114.04"/>
<polygon fill="midnightblue" stroke="midnightblue" points="922.43,-160.93 932.98,-161.88 925.33,-154.56 922.43,-160.93"/>
</g>
<!-- Node25&#45;&gt;Node27 -->
<g id="edge33" class="edge">
<title>Node25&#45;&gt;Node27</title>
<path fill="none" stroke="midnightblue" d="M964,-151.59C964,-139.26 964,-124.72 964,-114.23"/>
<polygon fill="midnightblue" stroke="midnightblue" points="960.5,-151.7 964,-161.7 967.5,-151.71 960.5,-151.7"/>
</g>
<!-- Node28&#45;&gt;Node17 -->
<g id="edge36" class="edge">
<title>Node28&#45;&gt;Node17</title>
<path fill="none" stroke="midnightblue" d="M1679.52,-161.08C1571.6,-146.29 1418.87,-125.12 1391,-120 1381.45,-118.25 1371.36,-116.17 1361.56,-114.03"/>
<polygon fill="midnightblue" stroke="midnightblue" points="1679.11,-164.55 1689.49,-162.44 1680.06,-157.62 1679.11,-164.55"/>
</g>
<!-- Node28&#45;&gt;Node18 -->
<g id="edge37" class="edge">
<title>Node28&#45;&gt;Node18</title>
<path fill="none" stroke="midnightblue" d="M1722.05,-159.59C1666.61,-145.99 1588.69,-126.89 1536.15,-114.01"/>
<polygon fill="midnightblue" stroke="midnightblue" points="1721.23,-162.99 1731.78,-161.97 1722.9,-156.19 1721.23,-162.99"/>
</g>
<!-- Node28&#45;&gt;Node21 -->
<g id="edge38" class="edge">
<title>Node28&#45;&gt;Node21</title>
<path fill="none" stroke="midnightblue" d="M1815.75,-155.25C1832.54,-142.23 1853.75,-125.78 1868.65,-114.23"/>
<polygon fill="midnightblue" stroke="midnightblue" points="1813.19,-152.81 1807.43,-161.7 1817.48,-158.34 1813.19,-152.81"/>
</g>
<!-- Node28&#45;&gt;Node22 -->
<g id="edge39" class="edge">
<title>Node28&#45;&gt;Node22</title>
<path fill="none" stroke="midnightblue" d="M1758.91,-156.29C1738.7,-143.05 1712.55,-125.91 1694.43,-114.04"/>
<polygon fill="midnightblue" stroke="midnightblue" points="1757.17,-159.33 1767.45,-161.88 1761.01,-153.48 1757.17,-159.33"/>
</g>
<!-- Node28&#45;&gt;Node23 -->
<g id="edge40" class="edge">
<title>Node28&#45;&gt;Node23</title>
<path fill="none" stroke="midnightblue" d="M1854.67,-159.53C1901.53,-147.78 1964.73,-131.92 2014.14,-119.53"/>
<polygon fill="midnightblue" stroke="midnightblue" points="1853.78,-156.14 1844.93,-161.97 1855.48,-162.93 1853.78,-156.14"/>
</g>
<!-- Node29&#45;&gt;Node12 -->
<g id="edge46" class="edge">
<title>Node29&#45;&gt;Node12</title>
<path fill="none" stroke="midnightblue" d="M2236.6,-154.08C2283.86,-142.89 2340.75,-129.42 2385.93,-118.72"/>
<polygon fill="midnightblue" stroke="midnightblue" points="2235.59,-150.72 2226.67,-156.43 2237.2,-157.53 2235.59,-150.72"/>
</g>
<!-- Node29&#45;&gt;Node20 -->
<g id="edge42" class="edge">
<title>Node29&#45;&gt;Node20</title>
<path fill="none" stroke="midnightblue" d="M2188.58,-151.63C2207.57,-141.24 2229.43,-129.29 2247.33,-119.51"/>
<polygon fill="midnightblue" stroke="midnightblue" points="2186.89,-148.56 2179.8,-156.43 2190.25,-154.7 2186.89,-148.56"/>
</g>
<!-- Node29&#45;&gt;Node22 -->
<g id="edge43" class="edge">
<title>Node29&#45;&gt;Node22</title>
<path fill="none" stroke="midnightblue" d="M2048.49,-162.26C1974.77,-151.43 1870.28,-135.61 1779,-120 1768.2,-118.15 1756.8,-116.11 1745.64,-114.05"/>
<polygon fill="midnightblue" stroke="midnightblue" points="2048.28,-165.77 2058.68,-163.75 2049.3,-158.84 2048.28,-165.77"/>
</g>
<!-- Node29&#45;&gt;Node23 -->
<g id="edge44" class="edge">
<title>Node29&#45;&gt;Node23</title>
<path fill="none" stroke="midnightblue" d="M2124.87,-148.05C2118.39,-138.57 2111.28,-128.18 2105.35,-119.51"/>
<polygon fill="midnightblue" stroke="midnightblue" points="2122.07,-150.15 2130.61,-156.43 2127.85,-146.2 2122.07,-150.15"/>
</g>
<!-- Node29&#45;&gt;Node30 -->
<g id="edge45" class="edge">
<title>Node29&#45;&gt;Node30</title>
<path fill="none" stroke="midnightblue" d="M2239.32,-166.78C2274.71,-163.37 2315.18,-159.49 2352,-156 2523.09,-139.78 2566.84,-144.11 2737,-120 2748.85,-118.32 2761.4,-116.22 2773.53,-114.01"/>
<polygon fill="midnightblue" stroke="midnightblue" points="2238.62,-163.33 2229,-167.78 2239.29,-170.3 2238.62,-163.33"/>
</g>
</g>
</svg>
