<?xml version="1.0" encoding="UTF-8" standalone="no"?>
<!DOCTYPE svg PUBLIC "-//W3C//DTD SVG 1.1//EN"
 "http://www.w3.org/Graphics/SVG/1.1/DTD/svg11.dtd">
<!-- Generated by graphviz version 2.44.0 ()
 -->
<!-- Title: modules/core/MarmotMathCore/src/MarmotAutomaticDifferentiation.cpp Pages: 1 -->
<svg width="406pt" height="173pt"
 viewBox="0.00 0.00 406.00 173.00" xmlns="http://www.w3.org/2000/svg" xmlns:xlink="http://www.w3.org/1999/xlink">
<g id="graph0" class="graph" transform="scale(1 1) rotate(0) translate(4 169)">
<title>modules/core/MarmotMathCore/src/MarmotAutomaticDifferentiation.cpp</title>
<polygon fill="white" stroke="transparent" points="-4,4 -4,-169 402,-169 402,4 -4,4"/>
<!-- Node1 -->
<g id="node1" class="node">
<title>Node1</title>
<g id="a_node1"><a xlink:title=" ">
<polygon fill="#bfbfbf" stroke="black" points="81.5,-134.5 81.5,-164.5 272.5,-164.5 272.5,-134.5 81.5,-134.5"/>
<text text-anchor="start" x="89.5" y="-152.5" font-family="Helvetica,sans-Serif" font-size="10.00">modules/core/MarmotMathCore</text>
<text text-anchor="middle" x="177" y="-141.5" font-family="Helvetica,sans-Serif" font-size="10.00">/src/MarmotAutomaticDifferentiation.cpp</text>
</a>
</g>
</g>
<!-- Node2 -->
<g id="node2" class="node">
<title>Node2</title>
<g id="a_node2"><a xlink:href="MarmotAutomaticDifferentiation_8h.html" target="_top" xlink:title=" ">
<polygon fill="white" stroke="black" points="78.5,-73 78.5,-92 275.5,-92 275.5,-73 78.5,-73"/>
<text text-anchor="middle" x="177" y="-80" font-family="Helvetica,sans-Serif" font-size="10.00">Marmot/MarmotAutomaticDifferentiation.h</text>
</a>
</g>
</g>
<!-- Node1&#45;&gt;Node2 -->
<g id="edge1" class="edge">
<title>Node1&#45;&gt;Node2</title>
<path fill="none" stroke="midnightblue" d="M177,-134.4C177,-125.06 177,-112.71 177,-102.52"/>
<polygon fill="midnightblue" stroke="midnightblue" points="180.5,-102.19 177,-92.19 173.5,-102.19 180.5,-102.19"/>
</g>
<!-- Node3 -->
<g id="node3" class="node">
<title>Node3</title>
<g id="a_node3"><a xlink:title=" ">
<polygon fill="white" stroke="#bfbfbf" points="0,-0.5 0,-30.5 104,-30.5 104,-0.5 0,-0.5"/>
<text text-anchor="start" x="8" y="-18.5" font-family="Helvetica,sans-Serif" font-size="10.00">autodiff/forward/dual</text>
<text text-anchor="middle" x="52" y="-7.5" font-family="Helvetica,sans-Serif" font-size="10.00">/eigen.hpp</text>
</a>
</g>
</g>
<!-- Node1&#45;&gt;Node3 -->
<g id="edge5" class="edge">
<title>Node1&#45;&gt;Node3</title>
<path fill="none" stroke="midnightblue" d="M122.96,-134.41C103.28,-126.71 82.55,-115.12 69,-98 56.22,-81.86 52.4,-58.45 51.53,-40.85"/>
<polygon fill="midnightblue" stroke="midnightblue" points="55.02,-40.69 51.31,-30.77 48.02,-40.84 55.02,-40.69"/>
</g>
<!-- Node6 -->
<g id="node6" class="node">
<title>Node6</title>
<g id="a_node6"><a xlink:title=" ">
<polygon fill="white" stroke="#bfbfbf" points="294,-67.5 294,-97.5 398,-97.5 398,-67.5 294,-67.5"/>
<text text-anchor="start" x="302" y="-85.5" font-family="Helvetica,sans-Serif" font-size="10.00">autodiff/forward/utils</text>
<text text-anchor="middle" x="346" y="-74.5" font-family="Helvetica,sans-Serif" font-size="10.00">/derivative.hpp</text>
</a>
</g>
</g>
<!-- Node1&#45;&gt;Node6 -->
<g id="edge6" class="edge">
<title>Node1&#45;&gt;Node6</title>
<path fill="none" stroke="midnightblue" d="M213.67,-134.4C238.92,-124.69 272.66,-111.71 299.75,-101.29"/>
<polygon fill="midnightblue" stroke="midnightblue" points="301.32,-104.43 309.4,-97.58 298.81,-97.9 301.32,-104.43"/>
</g>
<!-- Node2&#45;&gt;Node3 -->
<g id="edge2" class="edge">
<title>Node2&#45;&gt;Node3</title>
<path fill="none" stroke="midnightblue" d="M160.4,-72.87C142.11,-63.36 112.13,-47.77 88.32,-35.39"/>
<polygon fill="midnightblue" stroke="midnightblue" points="89.7,-32.16 79.21,-30.65 86.47,-38.37 89.7,-32.16"/>
</g>
<!-- Node4 -->
<g id="node4" class="node">
<title>Node4</title>
<g id="a_node4"><a xlink:title=" ">
<polygon fill="white" stroke="#bfbfbf" points="123,-0.5 123,-30.5 227,-30.5 227,-0.5 123,-0.5"/>
<text text-anchor="start" x="131" y="-18.5" font-family="Helvetica,sans-Serif" font-size="10.00">autodiff/forward/dual</text>
<text text-anchor="middle" x="175" y="-7.5" font-family="Helvetica,sans-Serif" font-size="10.00">/dual.hpp</text>
</a>
</g>
</g>
<!-- Node2&#45;&gt;Node4 -->
<g id="edge3" class="edge">
<title>Node2&#45;&gt;Node4</title>
<path fill="none" stroke="midnightblue" d="M176.73,-72.73C176.48,-64.54 176.09,-51.92 175.75,-40.71"/>
<polygon fill="midnightblue" stroke="midnightblue" points="179.24,-40.48 175.43,-30.59 172.24,-40.69 179.24,-40.48"/>
</g>
<!-- Node5 -->
<g id="node5" class="node">
<title>Node5</title>
<g id="a_node5"><a xlink:title=" ">
<polygon fill="white" stroke="#bfbfbf" points="245.5,-6 245.5,-25 304.5,-25 304.5,-6 245.5,-6"/>
<text text-anchor="middle" x="275" y="-13" font-family="Helvetica,sans-Serif" font-size="10.00">functional</text>
</a>
</g>
</g>
<!-- Node2&#45;&gt;Node5 -->
<g id="edge4" class="edge">
<title>Node2&#45;&gt;Node5</title>
<path fill="none" stroke="midnightblue" d="M190.22,-72.73C206.45,-61.96 234.22,-43.55 253.53,-30.74"/>
<polygon fill="midnightblue" stroke="midnightblue" points="255.59,-33.57 261.99,-25.13 251.72,-27.74 255.59,-33.57"/>
</g>
</g>
</svg>
