<?xml version="1.0" encoding="UTF-8" standalone="no"?>
<!DOCTYPE svg PUBLIC "-//W3C//DTD SVG 1.1//EN"
 "http://www.w3.org/Graphics/SVG/1.1/DTD/svg11.dtd">
<!-- Generated by graphviz version 2.47.0 (20210316.2052)
 -->
<!-- Title: modules/core/MarmotMechanicsCore/include/Marmot/MarmotMaterialGradientEnhancedHypoElastic.h Pages: 1 -->
<svg width="200pt" height="229pt"
 viewBox="0.00 0.00 200.00 229.00" xmlns="http://www.w3.org/2000/svg" xmlns:xlink="http://www.w3.org/1999/xlink">
<g id="graph0" class="graph" transform="scale(1 1) rotate(0) translate(4 225)">
<title>modules/core/MarmotMechanicsCore/include/Marmot/MarmotMaterialGradientEnhancedHypoElastic.h</title>
<polygon fill="white" stroke="transparent" points="-4,4 -4,-225 196,-225 196,4 -4,4"/>
<!-- Node1 -->
<g id="node1" class="node">
<title>Node1</title>
<g id="a_node1"><a xlink:title=" ">
<polygon fill="#bfbfbf" stroke="black" points="15,-179.5 15,-220.5 192,-220.5 192,-179.5 15,-179.5"/>
<text text-anchor="start" x="23" y="-208.5" font-family="Helvetica,sans-Serif" font-size="10.00">modules/core/MarmotMechanics</text>
<text text-anchor="start" x="23" y="-197.5" font-family="Helvetica,sans-Serif" font-size="10.00">Core/include/Marmot/MarmotMaterial</text>
<text text-anchor="middle" x="103.5" y="-186.5" font-family="Helvetica,sans-Serif" font-size="10.00">GradientEnhancedHypoElastic.h</text>
</a>
</g>
</g>
<!-- Node2 -->
<g id="node2" class="node">
<title>Node2</title>
<g id="a_node2"><a xlink:href="MarmotMaterialGradientEnhancedMechanical_8h.html" target="_top" xlink:title=" ">
<polygon fill="white" stroke="black" points="25,-112.5 25,-142.5 182,-142.5 182,-112.5 25,-112.5"/>
<text text-anchor="start" x="33" y="-130.5" font-family="Helvetica,sans-Serif" font-size="10.00">Marmot/MarmotMaterialGradient</text>
<text text-anchor="middle" x="103.5" y="-119.5" font-family="Helvetica,sans-Serif" font-size="10.00">EnhancedMechanical.h</text>
</a>
</g>
</g>
<!-- Node1&#45;&gt;Node2 -->
<g id="edge1" class="edge">
<title>Node1&#45;&gt;Node2</title>
<path fill="none" stroke="midnightblue" d="M103.5,-179.36C103.5,-171.23 103.5,-161.7 103.5,-153.11"/>
<polygon fill="midnightblue" stroke="midnightblue" points="107,-152.89 103.5,-142.89 100,-152.89 107,-152.89"/>
</g>
<!-- Node3 -->
<g id="node3" class="node">
<title>Node3</title>
<g id="a_node3"><a xlink:href="MarmotMaterial_8h.html" target="_top" xlink:title=" ">
<polygon fill="white" stroke="black" points="39.5,-56.5 39.5,-75.5 167.5,-75.5 167.5,-56.5 39.5,-56.5"/>
<text text-anchor="middle" x="103.5" y="-63.5" font-family="Helvetica,sans-Serif" font-size="10.00">Marmot/MarmotMaterial.h</text>
</a>
</g>
</g>
<!-- Node2&#45;&gt;Node3 -->
<g id="edge2" class="edge">
<title>Node2&#45;&gt;Node3</title>
<path fill="none" stroke="midnightblue" d="M103.5,-112.4C103.5,-104.47 103.5,-94.46 103.5,-85.86"/>
<polygon fill="midnightblue" stroke="midnightblue" points="107,-85.66 103.5,-75.66 100,-85.66 107,-85.66"/>
</g>
<!-- Node4 -->
<g id="node4" class="node">
<title>Node4</title>
<g id="a_node4"><a xlink:href="MarmotUtils_8h.html" target="_top" xlink:title=" ">
<polygon fill="white" stroke="black" points="0,-0.5 0,-19.5 113,-19.5 113,-0.5 0,-0.5"/>
<text text-anchor="middle" x="56.5" y="-7.5" font-family="Helvetica,sans-Serif" font-size="10.00">Marmot/MarmotUtils.h</text>
</a>
</g>
</g>
<!-- Node3&#45;&gt;Node4 -->
<g id="edge3" class="edge">
<title>Node3&#45;&gt;Node4</title>
<path fill="none" stroke="midnightblue" d="M95.74,-56.08C88.96,-48.3 78.96,-36.8 70.74,-27.37"/>
<polygon fill="midnightblue" stroke="midnightblue" points="73.32,-25 64.12,-19.75 68.04,-29.59 73.32,-25"/>
</g>
<!-- Node5 -->
<g id="node5" class="node">
<title>Node5</title>
<g id="a_node5"><a xlink:title=" ">
<polygon fill="white" stroke="#bfbfbf" points="131,-0.5 131,-19.5 172,-19.5 172,-0.5 131,-0.5"/>
<text text-anchor="middle" x="151.5" y="-7.5" font-family="Helvetica,sans-Serif" font-size="10.00">string</text>
</a>
</g>
</g>
<!-- Node3&#45;&gt;Node5 -->
<g id="edge4" class="edge">
<title>Node3&#45;&gt;Node5</title>
<path fill="none" stroke="midnightblue" d="M111.43,-56.08C118.35,-48.3 128.57,-36.8 136.95,-27.37"/>
<polygon fill="midnightblue" stroke="midnightblue" points="139.69,-29.55 143.72,-19.75 134.46,-24.9 139.69,-29.55"/>
</g>
</g>
</svg>
