<?xml version="1.0" encoding="UTF-8" standalone="no"?>
<!DOCTYPE svg PUBLIC "-//W3C//DTD SVG 1.1//EN"
 "http://www.w3.org/Graphics/SVG/1.1/DTD/svg11.dtd">
<!-- Generated by graphviz version 2.44.0 ()
 -->
<!-- Title: modules/core/MarmotMathCore/src/MarmotAutomaticDifferentiation.cpp Pages: 1 -->
<svg width="1065pt" height="419pt"
 viewBox="0.00 0.00 1065.00 419.00" xmlns="http://www.w3.org/2000/svg" xmlns:xlink="http://www.w3.org/1999/xlink">
<g id="graph0" class="graph" transform="scale(1 1) rotate(0) translate(4 415)">
<title>modules/core/MarmotMathCore/src/MarmotAutomaticDifferentiation.cpp</title>
<polygon fill="white" stroke="transparent" points="-4,4 -4,-415 1061,-415 1061,4 -4,4"/>
<!-- Node1 -->
<g id="node1" class="node">
<title>Node1</title>
<g id="a_node1"><a xlink:title=" ">
<polygon fill="#bfbfbf" stroke="black" points="486.5,-380.5 486.5,-410.5 677.5,-410.5 677.5,-380.5 486.5,-380.5"/>
<text text-anchor="start" x="494.5" y="-398.5" font-family="Helvetica,sans-Serif" font-size="10.00">modules/core/MarmotMathCore</text>
<text text-anchor="middle" x="582" y="-387.5" font-family="Helvetica,sans-Serif" font-size="10.00">/src/MarmotAutomaticDifferentiation.cpp</text>
</a>
</g>
</g>
<!-- Node2 -->
<g id="node2" class="node">
<title>Node2</title>
<g id="a_node2"><a xlink:href="MarmotAutomaticDifferentiation_8h.html" target="_top" xlink:title=" ">
<polygon fill="white" stroke="black" points="483.5,-319 483.5,-338 680.5,-338 680.5,-319 483.5,-319"/>
<text text-anchor="middle" x="582" y="-326" font-family="Helvetica,sans-Serif" font-size="10.00">Marmot/MarmotAutomaticDifferentiation.h</text>
</a>
</g>
</g>
<!-- Node1&#45;&gt;Node2 -->
<g id="edge1" class="edge">
<title>Node1&#45;&gt;Node2</title>
<path fill="none" stroke="midnightblue" d="M582,-380.4C582,-371.06 582,-358.71 582,-348.52"/>
<polygon fill="midnightblue" stroke="midnightblue" points="585.5,-348.19 582,-338.19 578.5,-348.19 585.5,-348.19"/>
</g>
<!-- Node6 -->
<g id="node6" class="node">
<title>Node6</title>
<g id="a_node6"><a xlink:title=" ">
<polygon fill="white" stroke="#bfbfbf" points="20,-73 20,-92 74,-92 74,-73 20,-73"/>
<text text-anchor="middle" x="47" y="-80" font-family="Helvetica,sans-Serif" font-size="10.00">iostream</text>
</a>
</g>
</g>
<!-- Node1&#45;&gt;Node6 -->
<g id="edge31" class="edge">
<title>Node1&#45;&gt;Node6</title>
<path fill="none" stroke="midnightblue" d="M486.22,-392.34C321.01,-386 0,-360.99 0,-262.5 0,-262.5 0,-262.5 0,-199 0,-161.85 21.12,-122.61 35.04,-100.77"/>
<polygon fill="midnightblue" stroke="midnightblue" points="38.06,-102.55 40.66,-92.28 32.22,-98.69 38.06,-102.55"/>
</g>
<!-- Node25 -->
<g id="node25" class="node">
<title>Node25</title>
<g id="a_node25"><a xlink:title=" ">
<polygon fill="white" stroke="#bfbfbf" points="699,-313.5 699,-343.5 803,-343.5 803,-313.5 699,-313.5"/>
<text text-anchor="start" x="707" y="-331.5" font-family="Helvetica,sans-Serif" font-size="10.00">autodiff/forward/utils</text>
<text text-anchor="middle" x="751" y="-320.5" font-family="Helvetica,sans-Serif" font-size="10.00">/derivative.hpp</text>
</a>
</g>
</g>
<!-- Node1&#45;&gt;Node25 -->
<g id="edge30" class="edge">
<title>Node1&#45;&gt;Node25</title>
<path fill="none" stroke="midnightblue" d="M618.67,-380.4C643.92,-370.69 677.66,-357.71 704.75,-347.29"/>
<polygon fill="midnightblue" stroke="midnightblue" points="706.32,-350.43 714.4,-343.58 703.81,-343.9 706.32,-350.43"/>
</g>
<!-- Node3 -->
<g id="node3" class="node">
<title>Node3</title>
<g id="a_node3"><a xlink:href="MarmotTensor_8h.html" target="_top" xlink:title=" ">
<polygon fill="white" stroke="black" points="204.5,-252 204.5,-271 327.5,-271 327.5,-252 204.5,-252"/>
<text text-anchor="middle" x="266" y="-259" font-family="Helvetica,sans-Serif" font-size="10.00">Marmot/MarmotTensor.h</text>
</a>
</g>
</g>
<!-- Node2&#45;&gt;Node3 -->
<g id="edge2" class="edge">
<title>Node2&#45;&gt;Node3</title>
<path fill="none" stroke="midnightblue" d="M540.36,-318.94C482.97,-307.13 379.62,-285.87 317.46,-273.09"/>
<polygon fill="midnightblue" stroke="midnightblue" points="317.98,-269.62 307.48,-271.03 316.57,-276.47 317.98,-269.62"/>
</g>
<!-- Node17 -->
<g id="node17" class="node">
<title>Node17</title>
<g id="a_node17"><a xlink:title=" ">
<polygon fill="white" stroke="#bfbfbf" points="373,-73 373,-92 495,-92 495,-73 373,-73"/>
<text text-anchor="middle" x="434" y="-80" font-family="Helvetica,sans-Serif" font-size="10.00">autodiff/forward/dual.hpp</text>
</a>
</g>
</g>
<!-- Node2&#45;&gt;Node17 -->
<g id="edge26" class="edge">
<title>Node2&#45;&gt;Node17</title>
<path fill="none" stroke="midnightblue" d="M576.73,-318.82C555.2,-283.31 473.62,-148.82 444.45,-100.73"/>
<polygon fill="midnightblue" stroke="midnightblue" points="447.38,-98.81 439.2,-92.08 441.4,-102.45 447.38,-98.81"/>
</g>
<!-- Node20 -->
<g id="node20" class="node">
<title>Node20</title>
<g id="a_node20"><a xlink:title=" ">
<polygon fill="white" stroke="#bfbfbf" points="953,-67.5 953,-97.5 1057,-97.5 1057,-67.5 953,-67.5"/>
<text text-anchor="start" x="961" y="-85.5" font-family="Helvetica,sans-Serif" font-size="10.00">autodiff/forward/dual</text>
<text text-anchor="middle" x="1005" y="-74.5" font-family="Helvetica,sans-Serif" font-size="10.00">/dual.hpp</text>
</a>
</g>
</g>
<!-- Node2&#45;&gt;Node20 -->
<g id="edge28" class="edge">
<title>Node2&#45;&gt;Node20</title>
<path fill="none" stroke="midnightblue" d="M591.68,-318.98C609.66,-303.37 649.8,-269.64 687,-246 781.61,-185.86 901.23,-129.6 963.32,-101.75"/>
<polygon fill="midnightblue" stroke="midnightblue" points="965.07,-104.8 972.78,-97.53 962.22,-98.41 965.07,-104.8"/>
</g>
<!-- Node23 -->
<g id="node23" class="node">
<title>Node23</title>
<g id="a_node23"><a xlink:title=" ">
<polygon fill="white" stroke="#bfbfbf" points="696,-246.5 696,-276.5 800,-276.5 800,-246.5 696,-246.5"/>
<text text-anchor="start" x="704" y="-264.5" font-family="Helvetica,sans-Serif" font-size="10.00">autodiff/forward/dual</text>
<text text-anchor="middle" x="748" y="-253.5" font-family="Helvetica,sans-Serif" font-size="10.00">/eigen.hpp</text>
</a>
</g>
</g>
<!-- Node2&#45;&gt;Node23 -->
<g id="edge27" class="edge">
<title>Node2&#45;&gt;Node23</title>
<path fill="none" stroke="midnightblue" d="M604.04,-318.87C629.06,-309.07 670.54,-292.83 702.57,-280.29"/>
<polygon fill="midnightblue" stroke="midnightblue" points="704.14,-283.43 712.17,-276.53 701.59,-276.92 704.14,-283.43"/>
</g>
<!-- Node24 -->
<g id="node24" class="node">
<title>Node24</title>
<g id="a_node24"><a xlink:title=" ">
<polygon fill="white" stroke="#bfbfbf" points="818.5,-252 818.5,-271 877.5,-271 877.5,-252 818.5,-252"/>
<text text-anchor="middle" x="848" y="-259" font-family="Helvetica,sans-Serif" font-size="10.00">functional</text>
</a>
</g>
</g>
<!-- Node2&#45;&gt;Node24 -->
<g id="edge29" class="edge">
<title>Node2&#45;&gt;Node24</title>
<path fill="none" stroke="midnightblue" d="M629,-319C675.24,-310.18 747.63,-295.14 809,-277 811.64,-276.22 814.35,-275.35 817.06,-274.44"/>
<polygon fill="midnightblue" stroke="midnightblue" points="818.47,-277.65 826.72,-271.01 816.13,-271.06 818.47,-277.65"/>
</g>
<!-- Node4 -->
<g id="node4" class="node">
<title>Node4</title>
<g id="a_node4"><a xlink:title=" ">
<polygon fill="white" stroke="#bfbfbf" points="28.5,-190.5 28.5,-209.5 111.5,-209.5 111.5,-190.5 28.5,-190.5"/>
<text text-anchor="middle" x="70" y="-197.5" font-family="Helvetica,sans-Serif" font-size="10.00">Fastor/Fastor.h</text>
</a>
</g>
</g>
<!-- Node3&#45;&gt;Node4 -->
<g id="edge3" class="edge">
<title>Node3&#45;&gt;Node4</title>
<path fill="none" stroke="midnightblue" d="M237.92,-251.98C203.71,-241.59 145.8,-224.01 107.73,-212.45"/>
<polygon fill="midnightblue" stroke="midnightblue" points="108.62,-209.06 98.03,-209.51 106.58,-215.76 108.62,-209.06"/>
</g>
<!-- Node5 -->
<g id="node5" class="node">
<title>Node5</title>
<g id="a_node5"><a xlink:href="MarmotJournal_8h.html" target="_top" xlink:title=" ">
<polygon fill="white" stroke="black" points="120.5,-134.5 120.5,-153.5 245.5,-153.5 245.5,-134.5 120.5,-134.5"/>
<text text-anchor="middle" x="183" y="-141.5" font-family="Helvetica,sans-Serif" font-size="10.00">Marmot/MarmotJournal.h</text>
</a>
</g>
</g>
<!-- Node3&#45;&gt;Node5 -->
<g id="edge4" class="edge">
<title>Node3&#45;&gt;Node5</title>
<path fill="none" stroke="midnightblue" d="M259.76,-251.82C246.06,-232.76 213.14,-186.95 195.19,-161.96"/>
<polygon fill="midnightblue" stroke="midnightblue" points="197.99,-159.86 189.31,-153.78 192.3,-163.95 197.99,-159.86"/>
</g>
<!-- Node3&#45;&gt;Node6 -->
<g id="edge24" class="edge">
<title>Node3&#45;&gt;Node6</title>
<path fill="none" stroke="midnightblue" d="M251.08,-251.86C222.46,-234.93 158.46,-195.45 111,-154 91.85,-137.28 72.61,-115.2 60.3,-100.24"/>
<polygon fill="midnightblue" stroke="midnightblue" points="62.92,-97.91 53.9,-92.35 57.48,-102.32 62.92,-97.91"/>
</g>
<!-- Node9 -->
<g id="node9" class="node">
<title>Node9</title>
<g id="a_node9"><a xlink:href="MarmotTypedefs_8h.html" target="_top" xlink:title=" ">
<polygon fill="white" stroke="black" points="221.5,-73 221.5,-92 354.5,-92 354.5,-73 221.5,-73"/>
<text text-anchor="middle" x="288" y="-80" font-family="Helvetica,sans-Serif" font-size="10.00">Marmot/MarmotTypedefs.h</text>
</a>
</g>
</g>
<!-- Node3&#45;&gt;Node9 -->
<g id="edge8" class="edge">
<title>Node3&#45;&gt;Node9</title>
<path fill="none" stroke="midnightblue" d="M267.06,-251.96C270.42,-224.93 280.89,-140.74 285.62,-102.61"/>
<polygon fill="midnightblue" stroke="midnightblue" points="289.14,-102.72 286.9,-92.37 282.19,-101.86 289.14,-102.72"/>
</g>
<!-- Node13 -->
<g id="node13" class="node">
<title>Node13</title>
<g id="a_node13"><a xlink:href="MarmotVoigt_8h.html" target="_top" xlink:title=" ">
<polygon fill="white" stroke="black" points="294,-190.5 294,-209.5 410,-209.5 410,-190.5 294,-190.5"/>
<text text-anchor="middle" x="352" y="-197.5" font-family="Helvetica,sans-Serif" font-size="10.00">Marmot/MarmotVoigt.h</text>
</a>
</g>
</g>
<!-- Node3&#45;&gt;Node13 -->
<g id="edge12" class="edge">
<title>Node3&#45;&gt;Node13</title>
<path fill="none" stroke="midnightblue" d="M278.32,-251.98C292.12,-242.43 314.7,-226.81 331.23,-215.37"/>
<polygon fill="midnightblue" stroke="midnightblue" points="333.47,-218.08 339.7,-209.51 329.49,-212.32 333.47,-218.08"/>
</g>
<!-- Node22 -->
<g id="node22" class="node">
<title>Node22</title>
<g id="a_node22"><a xlink:title=" ">
<polygon fill="white" stroke="#bfbfbf" points="428.5,-190.5 428.5,-209.5 467.5,-209.5 467.5,-190.5 428.5,-190.5"/>
<text text-anchor="middle" x="448" y="-197.5" font-family="Helvetica,sans-Serif" font-size="10.00">utility</text>
</a>
</g>
</g>
<!-- Node3&#45;&gt;Node22 -->
<g id="edge25" class="edge">
<title>Node3&#45;&gt;Node22</title>
<path fill="none" stroke="midnightblue" d="M292.08,-251.98C325.62,-241.01 383.73,-222.01 418.75,-210.56"/>
<polygon fill="midnightblue" stroke="midnightblue" points="419.98,-213.84 428.4,-207.41 417.81,-207.19 419.98,-213.84"/>
</g>
<!-- Node5&#45;&gt;Node6 -->
<g id="edge5" class="edge">
<title>Node5&#45;&gt;Node6</title>
<path fill="none" stroke="midnightblue" d="M163.51,-134.48C140.59,-124.45 102.31,-107.7 75.92,-96.15"/>
<polygon fill="midnightblue" stroke="midnightblue" points="77.01,-92.81 66.45,-92.01 74.21,-99.22 77.01,-92.81"/>
</g>
<!-- Node7 -->
<g id="node7" class="node">
<title>Node7</title>
<g id="a_node7"><a xlink:title=" ">
<polygon fill="white" stroke="#bfbfbf" points="92,-73 92,-92 144,-92 144,-73 92,-73"/>
<text text-anchor="middle" x="118" y="-80" font-family="Helvetica,sans-Serif" font-size="10.00">sstream</text>
</a>
</g>
</g>
<!-- Node5&#45;&gt;Node7 -->
<g id="edge6" class="edge">
<title>Node5&#45;&gt;Node7</title>
<path fill="none" stroke="midnightblue" d="M173.69,-134.48C163.55,-125.2 147.14,-110.17 134.75,-98.83"/>
<polygon fill="midnightblue" stroke="midnightblue" points="137.04,-96.18 127.3,-92.01 132.31,-101.34 137.04,-96.18"/>
</g>
<!-- Node8 -->
<g id="node8" class="node">
<title>Node8</title>
<g id="a_node8"><a xlink:title=" ">
<polygon fill="white" stroke="#bfbfbf" points="162.5,-73 162.5,-92 203.5,-92 203.5,-73 162.5,-73"/>
<text text-anchor="middle" x="183" y="-80" font-family="Helvetica,sans-Serif" font-size="10.00">string</text>
</a>
</g>
</g>
<!-- Node5&#45;&gt;Node8 -->
<g id="edge7" class="edge">
<title>Node5&#45;&gt;Node8</title>
<path fill="none" stroke="midnightblue" d="M183,-134.48C183,-126.08 183,-112.98 183,-102.16"/>
<polygon fill="midnightblue" stroke="midnightblue" points="186.5,-102.01 183,-92.01 179.5,-102.01 186.5,-102.01"/>
</g>
<!-- Node10 -->
<g id="node10" class="node">
<title>Node10</title>
<g id="a_node10"><a xlink:title=" ">
<polygon fill="white" stroke="#bfbfbf" points="170,-6 170,-25 234,-25 234,-6 170,-6"/>
<text text-anchor="middle" x="202" y="-13" font-family="Helvetica,sans-Serif" font-size="10.00">Eigen/Core</text>
</a>
</g>
</g>
<!-- Node9&#45;&gt;Node10 -->
<g id="edge9" class="edge">
<title>Node9&#45;&gt;Node10</title>
<path fill="none" stroke="midnightblue" d="M276.4,-72.73C262.35,-62.11 238.45,-44.05 221.53,-31.26"/>
<polygon fill="midnightblue" stroke="midnightblue" points="223.5,-28.36 213.41,-25.13 219.28,-33.95 223.5,-28.36"/>
</g>
<!-- Node11 -->
<g id="node11" class="node">
<title>Node11</title>
<g id="a_node11"><a xlink:title=" ">
<polygon fill="white" stroke="#bfbfbf" points="252.5,-6 252.5,-25 323.5,-25 323.5,-6 252.5,-6"/>
<text text-anchor="middle" x="288" y="-13" font-family="Helvetica,sans-Serif" font-size="10.00">Eigen/Dense</text>
</a>
</g>
</g>
<!-- Node9&#45;&gt;Node11 -->
<g id="edge10" class="edge">
<title>Node9&#45;&gt;Node11</title>
<path fill="none" stroke="midnightblue" d="M288,-72.73C288,-63.18 288,-47.62 288,-35.28"/>
<polygon fill="midnightblue" stroke="midnightblue" points="291.5,-35.13 288,-25.13 284.5,-35.13 291.5,-35.13"/>
</g>
<!-- Node12 -->
<g id="node12" class="node">
<title>Node12</title>
<g id="a_node12"><a xlink:title=" ">
<polygon fill="white" stroke="#bfbfbf" points="341.5,-0.5 341.5,-30.5 472.5,-30.5 472.5,-0.5 341.5,-0.5"/>
<text text-anchor="start" x="349.5" y="-18.5" font-family="Helvetica,sans-Serif" font-size="10.00">unsupported/Eigen/CXX11</text>
<text text-anchor="middle" x="407" y="-7.5" font-family="Helvetica,sans-Serif" font-size="10.00">/Tensor</text>
</a>
</g>
</g>
<!-- Node9&#45;&gt;Node12 -->
<g id="edge11" class="edge">
<title>Node9&#45;&gt;Node12</title>
<path fill="none" stroke="midnightblue" d="M304.05,-72.73C321.45,-63.23 349.74,-47.78 372.27,-35.47"/>
<polygon fill="midnightblue" stroke="midnightblue" points="374.11,-38.45 381.21,-30.59 370.75,-32.31 374.11,-38.45"/>
</g>
<!-- Node13&#45;&gt;Node5 -->
<g id="edge13" class="edge">
<title>Node13&#45;&gt;Node5</title>
<path fill="none" stroke="midnightblue" d="M325.22,-190.44C296.67,-181.32 251.27,-166.81 219.46,-156.65"/>
<polygon fill="midnightblue" stroke="midnightblue" points="220.24,-153.23 209.65,-153.52 218.11,-159.89 220.24,-153.23"/>
</g>
<!-- Node13&#45;&gt;Node9 -->
<g id="edge23" class="edge">
<title>Node13&#45;&gt;Node9</title>
<path fill="none" stroke="midnightblue" d="M347.19,-190.32C336.72,-171.42 311.69,-126.25 297.76,-101.12"/>
<polygon fill="midnightblue" stroke="midnightblue" points="300.77,-99.33 292.87,-92.28 294.65,-102.73 300.77,-99.33"/>
</g>
<!-- Node14 -->
<g id="node14" class="node">
<title>Node14</title>
<g id="a_node14"><a xlink:href="MarmotMath_8h.html" target="_top" xlink:title=" ">
<polygon fill="white" stroke="black" points="524.5,-134.5 524.5,-153.5 639.5,-153.5 639.5,-134.5 524.5,-134.5"/>
<text text-anchor="middle" x="582" y="-141.5" font-family="Helvetica,sans-Serif" font-size="10.00">Marmot/MarmotMath.h</text>
</a>
</g>
</g>
<!-- Node13&#45;&gt;Node14 -->
<g id="edge14" class="edge">
<title>Node13&#45;&gt;Node14</title>
<path fill="none" stroke="midnightblue" d="M388.44,-190.44C428.4,-181.06 492.59,-165.99 535.98,-155.8"/>
<polygon fill="midnightblue" stroke="midnightblue" points="536.79,-159.21 545.73,-153.52 535.19,-152.39 536.79,-159.21"/>
</g>
<!-- Node14&#45;&gt;Node9 -->
<g id="edge17" class="edge">
<title>Node14&#45;&gt;Node9</title>
<path fill="none" stroke="midnightblue" d="M539.88,-134.48C487.15,-123.8 396.87,-105.53 339.93,-94.01"/>
<polygon fill="midnightblue" stroke="midnightblue" points="340.54,-90.56 330.04,-92.01 339.15,-97.42 340.54,-90.56"/>
</g>
<!-- Node15 -->
<g id="node15" class="node">
<title>Node15</title>
<g id="a_node15"><a xlink:href="MarmotConstants_8h.html" target="_top" xlink:title=" ">
<polygon fill="white" stroke="black" points="513.5,-73 513.5,-92 650.5,-92 650.5,-73 513.5,-73"/>
<text text-anchor="middle" x="582" y="-80" font-family="Helvetica,sans-Serif" font-size="10.00">Marmot/MarmotConstants.h</text>
</a>
</g>
</g>
<!-- Node14&#45;&gt;Node15 -->
<g id="edge15" class="edge">
<title>Node14&#45;&gt;Node15</title>
<path fill="none" stroke="midnightblue" d="M582,-134.48C582,-126.08 582,-112.98 582,-102.16"/>
<polygon fill="midnightblue" stroke="midnightblue" points="585.5,-102.01 582,-92.01 578.5,-102.01 585.5,-102.01"/>
</g>
<!-- Node14&#45;&gt;Node17 -->
<g id="edge18" class="edge">
<title>Node14&#45;&gt;Node17</title>
<path fill="none" stroke="midnightblue" d="M560.8,-134.48C535.63,-124.36 493.46,-107.4 464.72,-95.85"/>
<polygon fill="midnightblue" stroke="midnightblue" points="465.75,-92.49 455.17,-92.01 463.14,-98.99 465.75,-92.49"/>
</g>
<!-- Node18 -->
<g id="node18" class="node">
<title>Node18</title>
<g id="a_node18"><a xlink:title=" ">
<polygon fill="white" stroke="#bfbfbf" points="669,-73 669,-92 789,-92 789,-73 669,-73"/>
<text text-anchor="middle" x="729" y="-80" font-family="Helvetica,sans-Serif" font-size="10.00">autodiff/forward/real.hpp</text>
</a>
</g>
</g>
<!-- Node14&#45;&gt;Node18 -->
<g id="edge19" class="edge">
<title>Node14&#45;&gt;Node18</title>
<path fill="none" stroke="midnightblue" d="M603.06,-134.48C628.06,-124.36 669.94,-107.4 698.49,-95.85"/>
<polygon fill="midnightblue" stroke="midnightblue" points="700.02,-99.01 707.98,-92.01 697.39,-92.52 700.02,-99.01"/>
</g>
<!-- Node19 -->
<g id="node19" class="node">
<title>Node19</title>
<g id="a_node19"><a xlink:title=" ">
<polygon fill="white" stroke="#bfbfbf" points="807,-73 807,-92 863,-92 863,-73 807,-73"/>
<text text-anchor="middle" x="835" y="-80" font-family="Helvetica,sans-Serif" font-size="10.00">algorithm</text>
</a>
</g>
</g>
<!-- Node14&#45;&gt;Node19 -->
<g id="edge20" class="edge">
<title>Node14&#45;&gt;Node19</title>
<path fill="none" stroke="midnightblue" d="M635.44,-134.45C679.53,-126.78 743.48,-114.24 798,-98 800.43,-97.28 802.92,-96.46 805.42,-95.6"/>
<polygon fill="midnightblue" stroke="midnightblue" points="806.7,-98.86 814.86,-92.1 804.27,-92.29 806.7,-98.86"/>
</g>
<!-- Node14&#45;&gt;Node20 -->
<g id="edge21" class="edge">
<title>Node14&#45;&gt;Node20</title>
<path fill="none" stroke="midnightblue" d="M639.77,-135.78C644.58,-135.18 649.37,-134.58 654,-134 782.44,-117.97 815.58,-120.77 943,-98 943.1,-97.98 943.2,-97.96 943.31,-97.95"/>
<polygon fill="midnightblue" stroke="midnightblue" points="943.83,-101.41 952.99,-96.09 942.51,-94.53 943.83,-101.41"/>
</g>
<!-- Node21 -->
<g id="node21" class="node">
<title>Node21</title>
<g id="a_node21"><a xlink:title=" ">
<polygon fill="white" stroke="#bfbfbf" points="881.5,-73 881.5,-92 934.5,-92 934.5,-73 881.5,-73"/>
<text text-anchor="middle" x="908" y="-80" font-family="Helvetica,sans-Serif" font-size="10.00">complex</text>
</a>
</g>
</g>
<!-- Node14&#45;&gt;Node21 -->
<g id="edge22" class="edge">
<title>Node14&#45;&gt;Node21</title>
<path fill="none" stroke="midnightblue" d="M639.66,-135.64C711.33,-126.22 829.38,-109.72 872,-98 874.5,-97.31 877.06,-96.5 879.61,-95.62"/>
<polygon fill="midnightblue" stroke="midnightblue" points="881.1,-98.81 889.22,-92.01 878.63,-92.26 881.1,-98.81"/>
</g>
<!-- Node16 -->
<g id="node16" class="node">
<title>Node16</title>
<g id="a_node16"><a xlink:title=" ">
<polygon fill="white" stroke="#bfbfbf" points="560,-6 560,-25 604,-25 604,-6 560,-6"/>
<text text-anchor="middle" x="582" y="-13" font-family="Helvetica,sans-Serif" font-size="10.00">cmath</text>
</a>
</g>
</g>
<!-- Node15&#45;&gt;Node16 -->
<g id="edge16" class="edge">
<title>Node15&#45;&gt;Node16</title>
<path fill="none" stroke="midnightblue" d="M582,-72.73C582,-63.18 582,-47.62 582,-35.28"/>
<polygon fill="midnightblue" stroke="midnightblue" points="585.5,-35.13 582,-25.13 578.5,-35.13 585.5,-35.13"/>
</g>
</g>
</svg>
