<?xml version="1.0" encoding="UTF-8" standalone="no"?>
<!DOCTYPE svg PUBLIC "-//W3C//DTD SVG 1.1//EN"
 "http://www.w3.org/Graphics/SVG/1.1/DTD/svg11.dtd">
<!-- Generated by graphviz version 2.44.0 ()
 -->
<!-- Title: modules/core/MarmotMechanicsCore/include/Marmot/MarmotStateVarVectorManager.h Pages: 1 -->
<svg width="413pt" height="106pt"
 viewBox="0.00 0.00 413.00 106.00" xmlns="http://www.w3.org/2000/svg" xmlns:xlink="http://www.w3.org/1999/xlink">
<g id="graph0" class="graph" transform="scale(1 1) rotate(0) translate(4 102)">
<title>modules/core/MarmotMechanicsCore/include/Marmot/MarmotStateVarVectorManager.h</title>
<polygon fill="white" stroke="transparent" points="-4,4 -4,-102 409,-102 409,4 -4,4"/>
<!-- Node1 -->
<g id="node1" class="node">
<title>Node1</title>
<g id="a_node1"><a xlink:title=" ">
<polygon fill="#bfbfbf" stroke="black" points="148.5,-56.5 148.5,-97.5 314.5,-97.5 314.5,-56.5 148.5,-56.5"/>
<text text-anchor="start" x="156.5" y="-85.5" font-family="Helvetica,sans-Serif" font-size="10.00">modules/core/MarmotMechanics</text>
<text text-anchor="start" x="156.5" y="-74.5" font-family="Helvetica,sans-Serif" font-size="10.00">Core/include/Marmot/MarmotState</text>
<text text-anchor="middle" x="231.5" y="-63.5" font-family="Helvetica,sans-Serif" font-size="10.00">VarVectorManager.h</text>
</a>
</g>
</g>
<!-- Node2 -->
<g id="node2" class="node">
<title>Node2</title>
<g id="a_node2"><a xlink:href="MarmotUtils_8h.html" target="_top" xlink:title=" ">
<polygon fill="white" stroke="black" points="0,-0.5 0,-19.5 113,-19.5 113,-0.5 0,-0.5"/>
<text text-anchor="middle" x="56.5" y="-7.5" font-family="Helvetica,sans-Serif" font-size="10.00">Marmot/MarmotUtils.h</text>
</a>
</g>
</g>
<!-- Node1&#45;&gt;Node2 -->
<g id="edge1" class="edge">
<title>Node1&#45;&gt;Node2</title>
<path fill="none" stroke="midnightblue" d="M178.99,-56.5C149.84,-45.67 114.48,-32.54 89.26,-23.17"/>
<polygon fill="midnightblue" stroke="midnightblue" points="90.39,-19.85 79.8,-19.65 87.95,-26.42 90.39,-19.85"/>
</g>
<!-- Node3 -->
<g id="node3" class="node">
<title>Node3</title>
<g id="a_node3"><a xlink:title=" ">
<polygon fill="white" stroke="#bfbfbf" points="131,-0.5 131,-19.5 172,-19.5 172,-0.5 131,-0.5"/>
<text text-anchor="middle" x="151.5" y="-7.5" font-family="Helvetica,sans-Serif" font-size="10.00">string</text>
</a>
</g>
</g>
<!-- Node1&#45;&gt;Node3 -->
<g id="edge2" class="edge">
<title>Node1&#45;&gt;Node3</title>
<path fill="none" stroke="midnightblue" d="M207.5,-56.5C195.47,-46.72 181.13,-35.07 169.97,-26.01"/>
<polygon fill="midnightblue" stroke="midnightblue" points="172.12,-23.24 162.15,-19.65 167.7,-28.67 172.12,-23.24"/>
</g>
<!-- Node4 -->
<g id="node4" class="node">
<title>Node4</title>
<g id="a_node4"><a xlink:title=" ">
<polygon fill="white" stroke="#bfbfbf" points="190,-0.5 190,-19.5 273,-19.5 273,-0.5 190,-0.5"/>
<text text-anchor="middle" x="231.5" y="-7.5" font-family="Helvetica,sans-Serif" font-size="10.00">unordered_map</text>
</a>
</g>
</g>
<!-- Node1&#45;&gt;Node4 -->
<g id="edge3" class="edge">
<title>Node1&#45;&gt;Node4</title>
<path fill="none" stroke="midnightblue" d="M231.5,-56.5C231.5,-48.07 231.5,-38.24 231.5,-29.87"/>
<polygon fill="midnightblue" stroke="midnightblue" points="235,-29.65 231.5,-19.65 228,-29.65 235,-29.65"/>
</g>
<!-- Node5 -->
<g id="node5" class="node">
<title>Node5</title>
<g id="a_node5"><a xlink:title=" ">
<polygon fill="white" stroke="#bfbfbf" points="291.5,-0.5 291.5,-19.5 335.5,-19.5 335.5,-0.5 291.5,-0.5"/>
<text text-anchor="middle" x="313.5" y="-7.5" font-family="Helvetica,sans-Serif" font-size="10.00">vector</text>
</a>
</g>
</g>
<!-- Node1&#45;&gt;Node5 -->
<g id="edge4" class="edge">
<title>Node1&#45;&gt;Node5</title>
<path fill="none" stroke="midnightblue" d="M256.1,-56.5C268.43,-46.72 283.13,-35.07 294.57,-26.01"/>
<polygon fill="midnightblue" stroke="midnightblue" points="296.92,-28.61 302.58,-19.65 292.57,-23.12 296.92,-28.61"/>
</g>
<!-- Node6 -->
<g id="node6" class="node">
<title>Node6</title>
<g id="a_node6"><a xlink:title=" ">
<polygon fill="white" stroke="#bfbfbf" points="354,-0.5 354,-19.5 405,-19.5 405,-0.5 354,-0.5"/>
<text text-anchor="middle" x="379.5" y="-7.5" font-family="Helvetica,sans-Serif" font-size="10.00">memory</text>
</a>
</g>
</g>
<!-- Node1&#45;&gt;Node6 -->
<g id="edge5" class="edge">
<title>Node1&#45;&gt;Node6</title>
<path fill="none" stroke="midnightblue" d="M275.9,-56.5C300.01,-45.91 329.14,-33.12 350.36,-23.8"/>
<polygon fill="midnightblue" stroke="midnightblue" points="352.05,-26.88 359.8,-19.65 349.24,-20.47 352.05,-26.88"/>
</g>
</g>
</svg>
