<?xml version="1.0" encoding="UTF-8" standalone="no"?>
<!DOCTYPE svg PUBLIC "-//W3C//DTD SVG 1.1//EN"
 "http://www.w3.org/Graphics/SVG/1.1/DTD/svg11.dtd">
<!-- Generated by graphviz version 3.0.0 (20220413.0106)
 -->
<!-- Title: modules/core/MarmotMechanicsCore/src/MarmotMaterialMechanical.cpp Pages: 1 -->
<svg width="803pt" height="341pt"
 viewBox="0.00 0.00 803.00 341.00" xmlns="http://www.w3.org/2000/svg" xmlns:xlink="http://www.w3.org/1999/xlink">
<g id="graph0" class="graph" transform="scale(1 1) rotate(0) translate(4 337)">
<title>modules/core/MarmotMechanicsCore/src/MarmotMaterialMechanical.cpp</title>
<polygon fill="white" stroke="transparent" points="-4,4 -4,-337 799,-337 799,4 -4,4"/>
<!-- Node1 -->
<g id="node1" class="node">
<title>Node1</title>
<g id="a_node1"><a xlink:title=" ">
<polygon fill="#bfbfbf" stroke="black" points="247,-302.5 247,-332.5 438,-332.5 438,-302.5 247,-302.5"/>
<text text-anchor="start" x="255" y="-320.5" font-family="Helvetica,sans-Serif" font-size="10.00">modules/core/MarmotMechanics</text>
<text text-anchor="middle" x="342.5" y="-309.5" font-family="Helvetica,sans-Serif" font-size="10.00">Core/src/MarmotMaterialMechanical.cpp</text>
</a>
</g>
</g>
<!-- Node2 -->
<g id="node2" class="node">
<title>Node2</title>
<g id="a_node2"><a xlink:href="MarmotMaterialMechanical_8h.html" target="_top" xlink:title=" ">
<polygon fill="white" stroke="black" points="60,-241 60,-260 237,-260 237,-241 60,-241"/>
<text text-anchor="middle" x="148.5" y="-248" font-family="Helvetica,sans-Serif" font-size="10.00">Marmot/MarmotMaterialMechanical.h</text>
</a>
</g>
</g>
<!-- Node1&#45;&gt;Node2 -->
<g id="edge1" class="edge">
<title>Node1&#45;&gt;Node2</title>
<path fill="none" stroke="midnightblue" d="M300.4,-302.4C265.46,-290.69 216.34,-274.23 183.52,-263.23"/>
<polygon fill="midnightblue" stroke="midnightblue" points="184.48,-259.87 173.89,-260.01 182.26,-266.5 184.48,-259.87"/>
</g>
<!-- Node6 -->
<g id="node6" class="node">
<title>Node6</title>
<g id="a_node6"><a xlink:href="MarmotJournal_8h.html" target="_top" xlink:title=" ">
<polygon fill="white" stroke="black" points="170,-123.5 170,-142.5 295,-142.5 295,-123.5 170,-123.5"/>
<text text-anchor="middle" x="232.5" y="-130.5" font-family="Helvetica,sans-Serif" font-size="10.00">Marmot/MarmotJournal.h</text>
</a>
</g>
</g>
<!-- Node1&#45;&gt;Node6 -->
<g id="edge5" class="edge">
<title>Node1&#45;&gt;Node6</title>
<path fill="none" stroke="midnightblue" d="M333.06,-302.47C326.35,-292.41 317.21,-278.47 309.5,-266 284.51,-225.55 256.77,-177.05 242.38,-151.59"/>
<polygon fill="midnightblue" stroke="midnightblue" points="245.35,-149.73 237.39,-142.74 239.26,-153.17 245.35,-149.73"/>
</g>
<!-- Node7 -->
<g id="node7" class="node">
<title>Node7</title>
<g id="a_node7"><a xlink:title=" ">
<polygon fill="white" stroke="#bfbfbf" points="277.5,-67.5 277.5,-86.5 331.5,-86.5 331.5,-67.5 277.5,-67.5"/>
<text text-anchor="middle" x="304.5" y="-74.5" font-family="Helvetica,sans-Serif" font-size="10.00">iostream</text>
</a>
</g>
</g>
<!-- Node1&#45;&gt;Node7 -->
<g id="edge24" class="edge">
<title>Node1&#45;&gt;Node7</title>
<path fill="none" stroke="midnightblue" d="M340.24,-302.29C333.71,-261.35 314.86,-143.05 307.5,-96.83"/>
<polygon fill="midnightblue" stroke="midnightblue" points="310.96,-96.27 305.93,-86.95 304.04,-97.37 310.96,-96.27"/>
</g>
<!-- Node9 -->
<g id="node9" class="node">
<title>Node9</title>
<g id="a_node9"><a xlink:href="MarmotLowerDimensionalStress_8h.html" target="_top" xlink:title=" ">
<polygon fill="white" stroke="black" points="389.5,-235.5 389.5,-265.5 555.5,-265.5 555.5,-235.5 389.5,-235.5"/>
<text text-anchor="start" x="397.5" y="-253.5" font-family="Helvetica,sans-Serif" font-size="10.00">Marmot/MarmotLowerDimensional</text>
<text text-anchor="middle" x="472.5" y="-242.5" font-family="Helvetica,sans-Serif" font-size="10.00">Stress.h</text>
</a>
</g>
</g>
<!-- Node1&#45;&gt;Node9 -->
<g id="edge9" class="edge">
<title>Node1&#45;&gt;Node9</title>
<path fill="none" stroke="midnightblue" d="M370.71,-302.4C389.62,-292.94 414.72,-280.39 435.27,-270.12"/>
<polygon fill="midnightblue" stroke="midnightblue" points="436.97,-273.18 444.35,-265.58 433.84,-266.92 436.97,-273.18"/>
</g>
<!-- Node10 -->
<g id="node10" class="node">
<title>Node10</title>
<g id="a_node10"><a xlink:href="MarmotVoigt_8h.html" target="_top" xlink:title=" ">
<polygon fill="white" stroke="black" points="365.5,-179.5 365.5,-198.5 481.5,-198.5 481.5,-179.5 365.5,-179.5"/>
<text text-anchor="middle" x="423.5" y="-186.5" font-family="Helvetica,sans-Serif" font-size="10.00">Marmot/MarmotVoigt.h</text>
</a>
</g>
</g>
<!-- Node1&#45;&gt;Node10 -->
<g id="edge23" class="edge">
<title>Node1&#45;&gt;Node10</title>
<path fill="none" stroke="midnightblue" d="M347.53,-302.21C353.82,-285.32 365.61,-256.78 380.5,-235 387.8,-224.32 397.68,-213.78 406.13,-205.6"/>
<polygon fill="midnightblue" stroke="midnightblue" points="408.75,-207.93 413.66,-198.54 403.97,-202.82 408.75,-207.93"/>
</g>
<!-- Node11 -->
<g id="node11" class="node">
<title>Node11</title>
<g id="a_node11"><a xlink:href="MarmotMath_8h.html" target="_top" xlink:title=" ">
<polygon fill="white" stroke="black" points="525,-123.5 525,-142.5 640,-142.5 640,-123.5 525,-123.5"/>
<text text-anchor="middle" x="582.5" y="-130.5" font-family="Helvetica,sans-Serif" font-size="10.00">Marmot/MarmotMath.h</text>
</a>
</g>
</g>
<!-- Node1&#45;&gt;Node11 -->
<g id="edge22" class="edge">
<title>Node1&#45;&gt;Node11</title>
<path fill="none" stroke="midnightblue" d="M438.29,-305.61C490.17,-297.68 547.15,-284.95 564.5,-266 592.91,-234.96 590.03,-181.37 585.99,-152.96"/>
<polygon fill="midnightblue" stroke="midnightblue" points="589.39,-152.08 584.33,-142.78 582.48,-153.21 589.39,-152.08"/>
</g>
<!-- Node3 -->
<g id="node3" class="node">
<title>Node3</title>
<g id="a_node3"><a xlink:href="MarmotMaterial_8h.html" target="_top" xlink:title=" ">
<polygon fill="white" stroke="black" points="77.5,-179.5 77.5,-198.5 205.5,-198.5 205.5,-179.5 77.5,-179.5"/>
<text text-anchor="middle" x="141.5" y="-186.5" font-family="Helvetica,sans-Serif" font-size="10.00">Marmot/MarmotMaterial.h</text>
</a>
</g>
</g>
<!-- Node2&#45;&gt;Node3 -->
<g id="edge2" class="edge">
<title>Node2&#45;&gt;Node3</title>
<path fill="none" stroke="midnightblue" d="M147.5,-240.98C146.51,-232.58 144.97,-219.48 143.7,-208.66"/>
<polygon fill="midnightblue" stroke="midnightblue" points="147.15,-208.03 142.5,-198.51 140.19,-208.85 147.15,-208.03"/>
</g>
<!-- Node4 -->
<g id="node4" class="node">
<title>Node4</title>
<g id="a_node4"><a xlink:href="MarmotUtils_8h.html" target="_top" xlink:title=" ">
<polygon fill="white" stroke="black" points="0,-123.5 0,-142.5 113,-142.5 113,-123.5 0,-123.5"/>
<text text-anchor="middle" x="56.5" y="-130.5" font-family="Helvetica,sans-Serif" font-size="10.00">Marmot/MarmotUtils.h</text>
</a>
</g>
</g>
<!-- Node3&#45;&gt;Node4 -->
<g id="edge3" class="edge">
<title>Node3&#45;&gt;Node4</title>
<path fill="none" stroke="midnightblue" d="M127.84,-179.32C114.58,-170.9 94.23,-157.97 78.65,-148.07"/>
<polygon fill="midnightblue" stroke="midnightblue" points="80.44,-145.06 70.12,-142.65 76.69,-150.97 80.44,-145.06"/>
</g>
<!-- Node5 -->
<g id="node5" class="node">
<title>Node5</title>
<g id="a_node5"><a xlink:title=" ">
<polygon fill="white" stroke="#bfbfbf" points="134,-67.5 134,-86.5 175,-86.5 175,-67.5 134,-67.5"/>
<text text-anchor="middle" x="154.5" y="-74.5" font-family="Helvetica,sans-Serif" font-size="10.00">string</text>
</a>
</g>
</g>
<!-- Node3&#45;&gt;Node5 -->
<g id="edge4" class="edge">
<title>Node3&#45;&gt;Node5</title>
<path fill="none" stroke="midnightblue" d="M142.52,-179.37C144.62,-161.62 149.46,-120.67 152.3,-96.6"/>
<polygon fill="midnightblue" stroke="midnightblue" points="155.79,-96.93 153.48,-86.59 148.84,-96.11 155.79,-96.93"/>
</g>
<!-- Node6&#45;&gt;Node5 -->
<g id="edge8" class="edge">
<title>Node6&#45;&gt;Node5</title>
<path fill="none" stroke="midnightblue" d="M219.97,-123.32C207.91,-114.98 189.47,-102.21 175.23,-92.35"/>
<polygon fill="midnightblue" stroke="midnightblue" points="177.22,-89.47 167,-86.65 173.23,-95.22 177.22,-89.47"/>
</g>
<!-- Node6&#45;&gt;Node7 -->
<g id="edge6" class="edge">
<title>Node6&#45;&gt;Node7</title>
<path fill="none" stroke="midnightblue" d="M244.07,-123.32C254.92,-115.18 271.38,-102.84 284.38,-93.09"/>
<polygon fill="midnightblue" stroke="midnightblue" points="286.82,-95.63 292.72,-86.83 282.62,-90.03 286.82,-95.63"/>
</g>
<!-- Node8 -->
<g id="node8" class="node">
<title>Node8</title>
<g id="a_node8"><a xlink:title=" ">
<polygon fill="white" stroke="#bfbfbf" points="206.5,-67.5 206.5,-86.5 258.5,-86.5 258.5,-67.5 206.5,-67.5"/>
<text text-anchor="middle" x="232.5" y="-74.5" font-family="Helvetica,sans-Serif" font-size="10.00">sstream</text>
</a>
</g>
</g>
<!-- Node6&#45;&gt;Node8 -->
<g id="edge7" class="edge">
<title>Node6&#45;&gt;Node8</title>
<path fill="none" stroke="midnightblue" d="M232.5,-123.08C232.5,-116.01 232.5,-105.86 232.5,-96.99"/>
<polygon fill="midnightblue" stroke="midnightblue" points="236,-96.75 232.5,-86.75 229,-96.75 236,-96.75"/>
</g>
<!-- Node9&#45;&gt;Node10 -->
<g id="edge10" class="edge">
<title>Node9&#45;&gt;Node10</title>
<path fill="none" stroke="midnightblue" d="M460.89,-235.4C453.77,-226.75 444.62,-215.64 437.15,-206.58"/>
<polygon fill="midnightblue" stroke="midnightblue" points="439.69,-204.15 430.63,-198.66 434.29,-208.6 439.69,-204.15"/>
</g>
<!-- Node10&#45;&gt;Node6 -->
<g id="edge11" class="edge">
<title>Node10&#45;&gt;Node6</title>
<path fill="none" stroke="midnightblue" d="M393.24,-179.44C360.54,-170.2 308.32,-155.44 272.32,-145.26"/>
<polygon fill="midnightblue" stroke="midnightblue" points="273.2,-141.87 262.62,-142.52 271.29,-148.61 273.2,-141.87"/>
</g>
<!-- Node10&#45;&gt;Node11 -->
<g id="edge12" class="edge">
<title>Node10&#45;&gt;Node11</title>
<path fill="none" stroke="midnightblue" d="M448.69,-179.44C475.44,-170.36 517.9,-155.94 547.81,-145.78"/>
<polygon fill="midnightblue" stroke="midnightblue" points="549.08,-149.05 557.42,-142.52 546.83,-142.42 549.08,-149.05"/>
</g>
<!-- Node14 -->
<g id="node14" class="node">
<title>Node14</title>
<g id="a_node14"><a xlink:href="MarmotTypedefs_8h.html" target="_top" xlink:title=" ">
<polygon fill="white" stroke="black" points="357,-67.5 357,-86.5 490,-86.5 490,-67.5 357,-67.5"/>
<text text-anchor="middle" x="423.5" y="-74.5" font-family="Helvetica,sans-Serif" font-size="10.00">Marmot/MarmotTypedefs.h</text>
</a>
</g>
</g>
<!-- Node10&#45;&gt;Node14 -->
<g id="edge21" class="edge">
<title>Node10&#45;&gt;Node14</title>
<path fill="none" stroke="midnightblue" d="M423.5,-179.37C423.5,-161.62 423.5,-120.67 423.5,-96.6"/>
<polygon fill="midnightblue" stroke="midnightblue" points="427,-96.59 423.5,-86.59 420,-96.59 427,-96.59"/>
</g>
<!-- Node12 -->
<g id="node12" class="node">
<title>Node12</title>
<g id="a_node12"><a xlink:href="MarmotConstants_8h.html" target="_top" xlink:title=" ">
<polygon fill="white" stroke="black" points="512,-67.5 512,-86.5 649,-86.5 649,-67.5 512,-67.5"/>
<text text-anchor="middle" x="580.5" y="-74.5" font-family="Helvetica,sans-Serif" font-size="10.00">Marmot/MarmotConstants.h</text>
</a>
</g>
</g>
<!-- Node11&#45;&gt;Node12 -->
<g id="edge13" class="edge">
<title>Node11&#45;&gt;Node12</title>
<path fill="none" stroke="midnightblue" d="M582.17,-123.08C581.91,-116.01 581.53,-105.86 581.2,-96.99"/>
<polygon fill="midnightblue" stroke="midnightblue" points="584.69,-96.61 580.82,-86.75 577.7,-96.87 584.69,-96.61"/>
</g>
<!-- Node11&#45;&gt;Node14 -->
<g id="edge15" class="edge">
<title>Node11&#45;&gt;Node14</title>
<path fill="none" stroke="midnightblue" d="M557.31,-123.44C530.56,-114.36 488.1,-99.94 458.19,-89.78"/>
<polygon fill="midnightblue" stroke="midnightblue" points="459.17,-86.42 448.58,-86.52 456.92,-93.05 459.17,-86.42"/>
</g>
<!-- Node18 -->
<g id="node18" class="node">
<title>Node18</title>
<g id="a_node18"><a xlink:title=" ">
<polygon fill="white" stroke="#bfbfbf" points="667.5,-67.5 667.5,-86.5 723.5,-86.5 723.5,-67.5 667.5,-67.5"/>
<text text-anchor="middle" x="695.5" y="-74.5" font-family="Helvetica,sans-Serif" font-size="10.00">algorithm</text>
</a>
</g>
</g>
<!-- Node11&#45;&gt;Node18 -->
<g id="edge19" class="edge">
<title>Node11&#45;&gt;Node18</title>
<path fill="none" stroke="midnightblue" d="M600.41,-123.44C618.75,-114.68 647.51,-100.94 668.59,-90.86"/>
<polygon fill="midnightblue" stroke="midnightblue" points="670.17,-93.99 677.68,-86.52 667.15,-87.67 670.17,-93.99"/>
</g>
<!-- Node19 -->
<g id="node19" class="node">
<title>Node19</title>
<g id="a_node19"><a xlink:title=" ">
<polygon fill="white" stroke="#bfbfbf" points="742,-67.5 742,-86.5 795,-86.5 795,-67.5 742,-67.5"/>
<text text-anchor="middle" x="768.5" y="-74.5" font-family="Helvetica,sans-Serif" font-size="10.00">complex</text>
</a>
</g>
</g>
<!-- Node11&#45;&gt;Node19 -->
<g id="edge20" class="edge">
<title>Node11&#45;&gt;Node19</title>
<path fill="none" stroke="midnightblue" d="M611.97,-123.44C644.51,-114 696.92,-98.78 732.02,-88.59"/>
<polygon fill="midnightblue" stroke="midnightblue" points="733.25,-91.88 741.88,-85.73 731.3,-85.16 733.25,-91.88"/>
</g>
<!-- Node13 -->
<g id="node13" class="node">
<title>Node13</title>
<g id="a_node13"><a xlink:title=" ">
<polygon fill="white" stroke="#bfbfbf" points="560.5,-6 560.5,-25 604.5,-25 604.5,-6 560.5,-6"/>
<text text-anchor="middle" x="582.5" y="-13" font-family="Helvetica,sans-Serif" font-size="10.00">cmath</text>
</a>
</g>
</g>
<!-- Node12&#45;&gt;Node13 -->
<g id="edge14" class="edge">
<title>Node12&#45;&gt;Node13</title>
<path fill="none" stroke="midnightblue" d="M580.79,-67.48C581.07,-59.08 581.51,-45.98 581.87,-35.16"/>
<polygon fill="midnightblue" stroke="midnightblue" points="585.38,-35.12 582.21,-25.01 578.38,-34.89 585.38,-35.12"/>
</g>
<!-- Node15 -->
<g id="node15" class="node">
<title>Node15</title>
<g id="a_node15"><a xlink:title=" ">
<polygon fill="white" stroke="#bfbfbf" points="388.5,-6 388.5,-25 452.5,-25 452.5,-6 388.5,-6"/>
<text text-anchor="middle" x="420.5" y="-13" font-family="Helvetica,sans-Serif" font-size="10.00">Eigen/Core</text>
</a>
</g>
</g>
<!-- Node14&#45;&gt;Node15 -->
<g id="edge16" class="edge">
<title>Node14&#45;&gt;Node15</title>
<path fill="none" stroke="midnightblue" d="M423.07,-67.48C422.65,-59.08 421.99,-45.98 421.44,-35.16"/>
<polygon fill="midnightblue" stroke="midnightblue" points="424.93,-34.82 420.93,-25.01 417.94,-35.17 424.93,-34.82"/>
</g>
<!-- Node16 -->
<g id="node16" class="node">
<title>Node16</title>
<g id="a_node16"><a xlink:title=" ">
<polygon fill="white" stroke="#bfbfbf" points="471,-6 471,-25 542,-25 542,-6 471,-6"/>
<text text-anchor="middle" x="506.5" y="-13" font-family="Helvetica,sans-Serif" font-size="10.00">Eigen/Dense</text>
</a>
</g>
</g>
<!-- Node14&#45;&gt;Node16 -->
<g id="edge17" class="edge">
<title>Node14&#45;&gt;Node16</title>
<path fill="none" stroke="midnightblue" d="M435.39,-67.48C448.7,-57.93 470.5,-42.31 486.46,-30.87"/>
<polygon fill="midnightblue" stroke="midnightblue" points="488.54,-33.68 494.63,-25.01 484.46,-27.99 488.54,-33.68"/>
</g>
<!-- Node17 -->
<g id="node17" class="node">
<title>Node17</title>
<g id="a_node17"><a xlink:title=" ">
<polygon fill="white" stroke="#bfbfbf" points="239,-0.5 239,-30.5 370,-30.5 370,-0.5 239,-0.5"/>
<text text-anchor="start" x="247" y="-18.5" font-family="Helvetica,sans-Serif" font-size="10.00">unsupported/Eigen/CXX11</text>
<text text-anchor="middle" x="304.5" y="-7.5" font-family="Helvetica,sans-Serif" font-size="10.00">/Tensor</text>
</a>
</g>
</g>
<!-- Node14&#45;&gt;Node17 -->
<g id="edge18" class="edge">
<title>Node14&#45;&gt;Node17</title>
<path fill="none" stroke="midnightblue" d="M406.45,-67.48C389.58,-59.04 363.21,-45.86 341.52,-35.01"/>
<polygon fill="midnightblue" stroke="midnightblue" points="343.06,-31.86 332.55,-30.52 339.92,-38.13 343.06,-31.86"/>
</g>
</g>
</svg>
