<?xml version="1.0" encoding="UTF-8" standalone="no"?>
<!DOCTYPE svg PUBLIC "-//W3C//DTD SVG 1.1//EN"
 "http://www.w3.org/Graphics/SVG/1.1/DTD/svg11.dtd">
<!-- Generated by graphviz version 3.0.0 (20220413.0106)
 -->
<!-- Title: modules/core/MarmotMechanicsCore/src/MarmotUtility.cpp Pages: 1 -->
<!--zoomable 274 -->
<svg id="main" version="1.1" xmlns="http://www.w3.org/2000/svg" xmlns:xlink="http://www.w3.org/1999/xlink" xml:space="preserve" onload="init(evt)">
<style type="text/css"><![CDATA[
.edge:hover path { stroke: red; }
.edge:hover polygon { stroke: red; fill: red; }
]]></style>
<script type="text/javascript"><![CDATA[
var edges = document.getElementsByTagName('g');
if (edges && edges.length) {
  for (var i=0;i<edges.length;i++) {
    if (edges[i].id.substr(0,4)=='edge') {
      edges[i].setAttribute('class','edge');
    }
  }
}
]]></script>
        <defs>
                <circle id="rim" cx="0" cy="0" r="7"/>
                <circle id="rim2" cx="0" cy="0" r="3.5"/>
                <g id="zoomPlus">
                        <use xlink:href="#rim" fill="#404040">
                                <set attributeName="fill" to="#808080" begin="zoomplus.mouseover" end="zoomplus.mouseout"/>
                        </use>
                        <path d="M-4,0h8M0,-4v8" fill="none" stroke="white" stroke-width="1.5" pointer-events="none"/>
                </g>
                <g id="zoomMin">
                        <use xlink:href="#rim" fill="#404040">
                                <set attributeName="fill" to="#808080" begin="zoomminus.mouseover" end="zoomminus.mouseout"/>
                        </use>
                        <path d="M-4,0h8" fill="none" stroke="white" stroke-width="1.5" pointer-events="none"/>
                </g>
                <g id="dirArrow">
                        <path fill="none" stroke="white" stroke-width="1.5" d="M0,-3.0v7 M-2.5,-0.5L0,-3.0L2.5,-0.5"/>
                </g>
               <g id="resetDef">
                       <use xlink:href="#rim2" fill="#404040">
                               <set attributeName="fill" to="#808080" begin="reset.mouseover" end="reset.mouseout"/>
                       </use>
               </g>
        </defs>

<script type="text/javascript">
var viewWidth = 1003;
var viewHeight = 274;
var sectionId = 'dynsection-0';
</script>
<script xlink:href="svgpan.js"/>
<svg id="graph" class="graph">
<g id="viewport">
<title>modules/core/MarmotMechanicsCore/src/MarmotUtility.cpp</title>
<polygon fill="white" stroke="transparent" points="-4,4 -4,-270 999,-270 999,4 -4,4"/>
<!-- Node1 -->
<g id="node1" class="node">
<title>Node1</title>
<g id="a_node1"><a xlink:title=" ">
<polygon fill="#bfbfbf" stroke="black" points="613,-235.5 613,-265.5 771,-265.5 771,-235.5 613,-235.5"/>
<text text-anchor="start" x="621" y="-253.5" font-family="Helvetica,sans-Serif" font-size="10.00">modules/core/MarmotMechanics</text>
<text text-anchor="middle" x="692" y="-242.5" font-family="Helvetica,sans-Serif" font-size="10.00">Core/src/MarmotUtility.cpp</text>
</a>
</g>
</g>
<!-- Node2 -->
<g id="node2" class="node">
<title>Node2</title>
<g id="a_node2"><a xlink:href="MarmotUtility_8h.html" target="_top" xlink:title=" ">
<polygon fill="white" stroke="black" points="701,-179.5 701,-198.5 819,-198.5 819,-179.5 701,-179.5"/>
<text text-anchor="middle" x="760" y="-186.5" font-family="Helvetica,sans-Serif" font-size="10.00">Marmot/MarmotUtility.h</text>
</a>
</g>
</g>
<!-- Node1&#45;&gt;Node2 -->
<g id="edge1" class="edge">
<title>Node1&#45;&gt;Node2</title>
<path fill="none" stroke="midnightblue" d="M708.12,-235.4C718.4,-226.4 731.75,-214.72 742.33,-205.47"/>
<polygon fill="midnightblue" stroke="midnightblue" points="744.88,-207.88 750.11,-198.66 740.27,-202.61 744.88,-207.88"/>
</g>
<!-- Node3 -->
<g id="node3" class="node">
<title>Node3</title>
<g id="a_node3"><a xlink:href="MarmotTypedefs_8h.html" target="_top" xlink:title=" ">
<polygon fill="white" stroke="black" points="780.5,-67.5 780.5,-86.5 913.5,-86.5 913.5,-67.5 780.5,-67.5"/>
<text text-anchor="middle" x="847" y="-74.5" font-family="Helvetica,sans-Serif" font-size="10.00">Marmot/MarmotTypedefs.h</text>
</a>
</g>
</g>
<!-- Node1&#45;&gt;Node3 -->
<g id="edge10" class="edge">
<title>Node1&#45;&gt;Node3</title>
<path fill="none" stroke="midnightblue" d="M771.29,-235.47C792.58,-228 813.65,-216.55 828,-199 851.92,-169.75 851.79,-122.8 849.47,-96.82"/>
<polygon fill="midnightblue" stroke="midnightblue" points="852.94,-96.35 848.37,-86.79 845.98,-97.12 852.94,-96.35"/>
</g>
<!-- Node7 -->
<g id="node7" class="node">
<title>Node7</title>
<g id="a_node7"><a xlink:href="MarmotJournal_8h.html" target="_top" xlink:title=" ">
<polygon fill="white" stroke="black" points="100.5,-123.5 100.5,-142.5 225.5,-142.5 225.5,-123.5 100.5,-123.5"/>
<text text-anchor="middle" x="163" y="-130.5" font-family="Helvetica,sans-Serif" font-size="10.00">Marmot/MarmotJournal.h</text>
</a>
</g>
</g>
<!-- Node1&#45;&gt;Node7 -->
<g id="edge6" class="edge">
<title>Node1&#45;&gt;Node7</title>
<path fill="none" stroke="midnightblue" d="M627.66,-235.45C520.6,-212.08 308.16,-165.69 212.15,-144.73"/>
<polygon fill="midnightblue" stroke="midnightblue" points="212.64,-141.26 202.12,-142.54 211.15,-148.09 212.64,-141.26"/>
</g>
<!-- Node11 -->
<g id="node11" class="node">
<title>Node11</title>
<g id="a_node11"><a xlink:href="MarmotVoigt_8h.html" target="_top" xlink:title=" ">
<polygon fill="white" stroke="black" points="567,-179.5 567,-198.5 683,-198.5 683,-179.5 567,-179.5"/>
<text text-anchor="middle" x="625" y="-186.5" font-family="Helvetica,sans-Serif" font-size="10.00">Marmot/MarmotVoigt.h</text>
</a>
</g>
</g>
<!-- Node1&#45;&gt;Node11 -->
<g id="edge11" class="edge">
<title>Node1&#45;&gt;Node11</title>
<path fill="none" stroke="midnightblue" d="M676.12,-235.4C665.98,-226.4 652.84,-214.72 642.41,-205.47"/>
<polygon fill="midnightblue" stroke="midnightblue" points="644.55,-202.68 634.75,-198.66 639.9,-207.92 644.55,-202.68"/>
</g>
<!-- Node2&#45;&gt;Node3 -->
<g id="edge2" class="edge">
<title>Node2&#45;&gt;Node3</title>
<path fill="none" stroke="midnightblue" d="M766.83,-179.37C781.25,-161.14 815.03,-118.43 833.81,-94.68"/>
<polygon fill="midnightblue" stroke="midnightblue" points="836.75,-96.61 840.2,-86.59 831.26,-92.26 836.75,-96.61"/>
</g>
<!-- Node4 -->
<g id="node4" class="node">
<title>Node4</title>
<g id="a_node4"><a xlink:title=" ">
<polygon fill="white" stroke="#bfbfbf" points="931,-6 931,-25 995,-25 995,-6 931,-6"/>
<text text-anchor="middle" x="963" y="-13" font-family="Helvetica,sans-Serif" font-size="10.00">Eigen/Core</text>
</a>
</g>
</g>
<!-- Node3&#45;&gt;Node4 -->
<g id="edge3" class="edge">
<title>Node3&#45;&gt;Node4</title>
<path fill="none" stroke="midnightblue" d="M863.62,-67.48C882.92,-57.58 914.96,-41.14 937.43,-29.62"/>
<polygon fill="midnightblue" stroke="midnightblue" points="939.11,-32.69 946.41,-25.01 935.92,-26.46 939.11,-32.69"/>
</g>
<!-- Node5 -->
<g id="node5" class="node">
<title>Node5</title>
<g id="a_node5"><a xlink:title=" ">
<polygon fill="white" stroke="#bfbfbf" points="692.5,-6 692.5,-25 763.5,-25 763.5,-6 692.5,-6"/>
<text text-anchor="middle" x="728" y="-13" font-family="Helvetica,sans-Serif" font-size="10.00">Eigen/Dense</text>
</a>
</g>
</g>
<!-- Node3&#45;&gt;Node5 -->
<g id="edge4" class="edge">
<title>Node3&#45;&gt;Node5</title>
<path fill="none" stroke="midnightblue" d="M829.95,-67.48C810.16,-57.58 777.28,-41.14 754.23,-29.62"/>
<polygon fill="midnightblue" stroke="midnightblue" points="755.53,-26.35 745.02,-25.01 752.4,-32.61 755.53,-26.35"/>
</g>
<!-- Node6 -->
<g id="node6" class="node">
<title>Node6</title>
<g id="a_node6"><a xlink:title=" ">
<polygon fill="white" stroke="#bfbfbf" points="781.5,-0.5 781.5,-30.5 912.5,-30.5 912.5,-0.5 781.5,-0.5"/>
<text text-anchor="start" x="789.5" y="-18.5" font-family="Helvetica,sans-Serif" font-size="10.00">unsupported/Eigen/CXX11</text>
<text text-anchor="middle" x="847" y="-7.5" font-family="Helvetica,sans-Serif" font-size="10.00">/Tensor</text>
</a>
</g>
</g>
<!-- Node3&#45;&gt;Node6 -->
<g id="edge5" class="edge">
<title>Node3&#45;&gt;Node6</title>
<path fill="none" stroke="midnightblue" d="M847,-67.48C847,-60.47 847,-50.19 847,-40.7"/>
<polygon fill="midnightblue" stroke="midnightblue" points="850.5,-40.52 847,-30.52 843.5,-40.52 850.5,-40.52"/>
</g>
<!-- Node8 -->
<g id="node8" class="node">
<title>Node8</title>
<g id="a_node8"><a xlink:title=" ">
<polygon fill="white" stroke="#bfbfbf" points="0,-67.5 0,-86.5 54,-86.5 54,-67.5 0,-67.5"/>
<text text-anchor="middle" x="27" y="-74.5" font-family="Helvetica,sans-Serif" font-size="10.00">iostream</text>
</a>
</g>
</g>
<!-- Node7&#45;&gt;Node8 -->
<g id="edge7" class="edge">
<title>Node7&#45;&gt;Node8</title>
<path fill="none" stroke="midnightblue" d="M141.45,-123.44C118.97,-114.52 83.51,-100.44 58.02,-90.32"/>
<polygon fill="midnightblue" stroke="midnightblue" points="59.03,-86.95 48.45,-86.52 56.45,-93.46 59.03,-86.95"/>
</g>
<!-- Node9 -->
<g id="node9" class="node">
<title>Node9</title>
<g id="a_node9"><a xlink:title=" ">
<polygon fill="white" stroke="#bfbfbf" points="72,-67.5 72,-86.5 124,-86.5 124,-67.5 72,-67.5"/>
<text text-anchor="middle" x="98" y="-74.5" font-family="Helvetica,sans-Serif" font-size="10.00">sstream</text>
</a>
</g>
</g>
<!-- Node7&#45;&gt;Node9 -->
<g id="edge8" class="edge">
<title>Node7&#45;&gt;Node9</title>
<path fill="none" stroke="midnightblue" d="M152.56,-123.32C142.85,-115.26 128.18,-103.08 116.5,-93.37"/>
<polygon fill="midnightblue" stroke="midnightblue" points="118.56,-90.53 108.63,-86.83 114.09,-95.92 118.56,-90.53"/>
</g>
<!-- Node10 -->
<g id="node10" class="node">
<title>Node10</title>
<g id="a_node10"><a xlink:title=" ">
<polygon fill="white" stroke="#bfbfbf" points="142.5,-67.5 142.5,-86.5 183.5,-86.5 183.5,-67.5 142.5,-67.5"/>
<text text-anchor="middle" x="163" y="-74.5" font-family="Helvetica,sans-Serif" font-size="10.00">string</text>
</a>
</g>
</g>
<!-- Node7&#45;&gt;Node10 -->
<g id="edge9" class="edge">
<title>Node7&#45;&gt;Node10</title>
<path fill="none" stroke="midnightblue" d="M163,-123.08C163,-116.01 163,-105.86 163,-96.99"/>
<polygon fill="midnightblue" stroke="midnightblue" points="166.5,-96.75 163,-86.75 159.5,-96.75 166.5,-96.75"/>
</g>
<!-- Node11&#45;&gt;Node3 -->
<g id="edge21" class="edge">
<title>Node11&#45;&gt;Node3</title>
<path fill="none" stroke="midnightblue" d="M642.42,-179.37C681.16,-160.17 774.66,-113.84 820.61,-91.07"/>
<polygon fill="midnightblue" stroke="midnightblue" points="822.25,-94.17 829.66,-86.59 819.15,-87.9 822.25,-94.17"/>
</g>
<!-- Node11&#45;&gt;Node7 -->
<g id="edge12" class="edge">
<title>Node11&#45;&gt;Node7</title>
<path fill="none" stroke="midnightblue" d="M566.96,-181.22C482.86,-171.39 327.21,-153.19 235.62,-142.49"/>
<polygon fill="midnightblue" stroke="midnightblue" points="235.94,-139 225.6,-141.32 235.13,-145.95 235.94,-139"/>
</g>
<!-- Node12 -->
<g id="node12" class="node">
<title>Node12</title>
<g id="a_node12"><a xlink:href="MarmotMath_8h.html" target="_top" xlink:title=" ">
<polygon fill="white" stroke="black" points="567.5,-123.5 567.5,-142.5 682.5,-142.5 682.5,-123.5 567.5,-123.5"/>
<text text-anchor="middle" x="625" y="-130.5" font-family="Helvetica,sans-Serif" font-size="10.00">Marmot/MarmotMath.h</text>
</a>
</g>
</g>
<!-- Node11&#45;&gt;Node12 -->
<g id="edge13" class="edge">
<title>Node11&#45;&gt;Node12</title>
<path fill="none" stroke="midnightblue" d="M625,-179.08C625,-172.01 625,-161.86 625,-152.99"/>
<polygon fill="midnightblue" stroke="midnightblue" points="628.5,-152.75 625,-142.75 621.5,-152.75 628.5,-152.75"/>
</g>
<!-- Node12&#45;&gt;Node3 -->
<g id="edge16" class="edge">
<title>Node12&#45;&gt;Node3</title>
<path fill="none" stroke="midnightblue" d="M660.18,-123.44C698.58,-114.1 760.18,-99.12 802.06,-88.93"/>
<polygon fill="midnightblue" stroke="midnightblue" points="803.1,-92.28 811.99,-86.52 801.44,-85.48 803.1,-92.28"/>
</g>
<!-- Node13 -->
<g id="node13" class="node">
<title>Node13</title>
<g id="a_node13"><a xlink:href="MarmotConstants_8h.html" target="_top" xlink:title=" ">
<polygon fill="white" stroke="black" points="272.5,-67.5 272.5,-86.5 409.5,-86.5 409.5,-67.5 272.5,-67.5"/>
<text text-anchor="middle" x="341" y="-74.5" font-family="Helvetica,sans-Serif" font-size="10.00">Marmot/MarmotConstants.h</text>
</a>
</g>
</g>
<!-- Node12&#45;&gt;Node13 -->
<g id="edge14" class="edge">
<title>Node12&#45;&gt;Node13</title>
<path fill="none" stroke="midnightblue" d="M580,-123.44C530.04,-113.94 449.4,-98.61 395.8,-88.42"/>
<polygon fill="midnightblue" stroke="midnightblue" points="396.27,-84.95 385.79,-86.52 394.96,-91.82 396.27,-84.95"/>
</g>
<!-- Node15 -->
<g id="node15" class="node">
<title>Node15</title>
<g id="a_node15"><a xlink:title=" ">
<polygon fill="white" stroke="#bfbfbf" points="428,-67.5 428,-86.5 550,-86.5 550,-67.5 428,-67.5"/>
<text text-anchor="middle" x="489" y="-74.5" font-family="Helvetica,sans-Serif" font-size="10.00">autodiff/forward/dual.hpp</text>
</a>
</g>
</g>
<!-- Node12&#45;&gt;Node15 -->
<g id="edge17" class="edge">
<title>Node12&#45;&gt;Node15</title>
<path fill="none" stroke="midnightblue" d="M603.45,-123.44C580.97,-114.52 545.51,-100.44 520.02,-90.32"/>
<polygon fill="midnightblue" stroke="midnightblue" points="521.03,-86.95 510.45,-86.52 518.45,-93.46 521.03,-86.95"/>
</g>
<!-- Node16 -->
<g id="node16" class="node">
<title>Node16</title>
<g id="a_node16"><a xlink:title=" ">
<polygon fill="white" stroke="#bfbfbf" points="568,-67.5 568,-86.5 688,-86.5 688,-67.5 568,-67.5"/>
<text text-anchor="middle" x="628" y="-74.5" font-family="Helvetica,sans-Serif" font-size="10.00">autodiff/forward/real.hpp</text>
</a>
</g>
</g>
<!-- Node12&#45;&gt;Node16 -->
<g id="edge18" class="edge">
<title>Node12&#45;&gt;Node16</title>
<path fill="none" stroke="midnightblue" d="M625.5,-123.08C625.89,-116.01 626.45,-105.86 626.95,-96.99"/>
<polygon fill="midnightblue" stroke="midnightblue" points="630.45,-96.93 627.51,-86.75 623.46,-96.54 630.45,-96.93"/>
</g>
<!-- Node17 -->
<g id="node17" class="node">
<title>Node17</title>
<g id="a_node17"><a xlink:title=" ">
<polygon fill="white" stroke="#bfbfbf" points="706,-67.5 706,-86.5 762,-86.5 762,-67.5 706,-67.5"/>
<text text-anchor="middle" x="734" y="-74.5" font-family="Helvetica,sans-Serif" font-size="10.00">algorithm</text>
</a>
</g>
</g>
<!-- Node12&#45;&gt;Node17 -->
<g id="edge19" class="edge">
<title>Node12&#45;&gt;Node17</title>
<path fill="none" stroke="midnightblue" d="M642.51,-123.32C660.07,-114.62 687.33,-101.12 707.53,-91.11"/>
<polygon fill="midnightblue" stroke="midnightblue" points="709.12,-94.23 716.53,-86.65 706.02,-87.96 709.12,-94.23"/>
</g>
<!-- Node18 -->
<g id="node18" class="node">
<title>Node18</title>
<g id="a_node18"><a xlink:title=" ">
<polygon fill="white" stroke="#bfbfbf" points="201.5,-67.5 201.5,-86.5 254.5,-86.5 254.5,-67.5 201.5,-67.5"/>
<text text-anchor="middle" x="228" y="-74.5" font-family="Helvetica,sans-Serif" font-size="10.00">complex</text>
</a>
</g>
</g>
<!-- Node12&#45;&gt;Node18 -->
<g id="edge20" class="edge">
<title>Node12&#45;&gt;Node18</title>
<path fill="none" stroke="midnightblue" d="M567.46,-126.99C497.97,-120.46 377.4,-107.6 264.51,-86.88"/>
<polygon fill="midnightblue" stroke="midnightblue" points="265.13,-83.43 254.66,-85.05 263.85,-90.32 265.13,-83.43"/>
</g>
<!-- Node14 -->
<g id="node14" class="node">
<title>Node14</title>
<g id="a_node14"><a xlink:title=" ">
<polygon fill="white" stroke="#bfbfbf" points="319,-6 319,-25 363,-25 363,-6 319,-6"/>
<text text-anchor="middle" x="341" y="-13" font-family="Helvetica,sans-Serif" font-size="10.00">cmath</text>
</a>
</g>
</g>
<!-- Node13&#45;&gt;Node14 -->
<g id="edge15" class="edge">
<title>Node13&#45;&gt;Node14</title>
<path fill="none" stroke="midnightblue" d="M341,-67.48C341,-59.08 341,-45.98 341,-35.16"/>
<polygon fill="midnightblue" stroke="midnightblue" points="344.5,-35.01 341,-25.01 337.5,-35.01 344.5,-35.01"/>
</g>
</g>
</svg>
        <g id="navigator" transform="translate(0 0)" fill="#404254">
                <rect fill="#f2f5e9" fill-opacity="0.5" stroke="#606060" stroke-width=".5" x="0" y="0" width="60" height="60"/>
                <use id="zoomplus" xlink:href="#zoomPlus" x="17" y="9" onmousedown="handleZoom(evt,'in')"/>
                <use id="zoomminus" xlink:href="#zoomMin" x="42" y="9" onmousedown="handleZoom(evt,'out')"/>
                <use id="reset" xlink:href="#resetDef" x="30" y="36" onmousedown="handleReset()"/>
                <g id="arrowUp" xlink:href="#dirArrow" transform="translate(30 24)" onmousedown="handlePan(0,-1)">
                  <use xlink:href="#rim" fill="#404040">
                        <set attributeName="fill" to="#808080" begin="arrowUp.mouseover" end="arrowUp.mouseout"/>
                  </use>
                  <path fill="none" stroke="white" stroke-width="1.5" d="M0,-3.0v7 M-2.5,-0.5L0,-3.0L2.5,-0.5"/>
                </g>
                <g id="arrowRight" xlink:href="#dirArrow" transform="rotate(90) translate(36 -43)" onmousedown="handlePan(1,0)">
                  <use xlink:href="#rim" fill="#404040">
                        <set attributeName="fill" to="#808080" begin="arrowRight.mouseover" end="arrowRight.mouseout"/>
                  </use>
                  <path fill="none" stroke="white" stroke-width="1.5" d="M0,-3.0v7 M-2.5,-0.5L0,-3.0L2.5,-0.5"/>
                </g>
                <g id="arrowDown" xlink:href="#dirArrow" transform="rotate(180) translate(-30 -48)" onmousedown="handlePan(0,1)">
                  <use xlink:href="#rim" fill="#404040">
                        <set attributeName="fill" to="#808080" begin="arrowDown.mouseover" end="arrowDown.mouseout"/>
                  </use>
                  <path fill="none" stroke="white" stroke-width="1.5" d="M0,-3.0v7 M-2.5,-0.5L0,-3.0L2.5,-0.5"/>
                </g>
                <g id="arrowLeft" xlink:href="#dirArrow" transform="rotate(270) translate(-36 17)" onmousedown="handlePan(-1,0)">
                  <use xlink:href="#rim" fill="#404040">
                        <set attributeName="fill" to="#808080" begin="arrowLeft.mouseover" end="arrowLeft.mouseout"/>
                  </use>
                  <path fill="none" stroke="white" stroke-width="1.5" d="M0,-3.0v7 M-2.5,-0.5L0,-3.0L2.5,-0.5"/>
                </g>
        </g>
        <svg viewBox="0 0 15 15" width="100%" height="30px" preserveAspectRatio="xMaxYMin meet">
         <g id="arrow_out" transform="scale(0.3 0.3)">
          <a xlink:href="MarmotUtility_8cpp__incl_org.svg" target="_base">
           <rect id="button" ry="5" rx="5" y="6" x="6" height="38" width="38"
                fill="#f2f5e9" fill-opacity="0.5" stroke="#606060" stroke-width="1.0"/>
           <path id="arrow"
             d="M 11.500037,31.436501 C 11.940474,20.09759 22.043105,11.32322 32.158766,21.979434 L 37.068811,17.246167 C 37.068811,17.246167 37.088388,32 37.088388,32 L 22.160133,31.978069 C 22.160133,31.978069 26.997745,27.140456 26.997745,27.140456 C 18.528582,18.264221 13.291696,25.230495 11.500037,31.436501 z"
             style="fill:#404040;"/>
          </a>
         </g>
        </svg>
</svg>
