<?xml version="1.0" encoding="UTF-8" standalone="no"?>
<!DOCTYPE svg PUBLIC "-//W3C//DTD SVG 1.1//EN"
 "http://www.w3.org/Graphics/SVG/1.1/DTD/svg11.dtd">
<!-- Generated by graphviz version 2.44.0 ()
 -->
<!-- Title: include/Marmot/MarmotUtils.h Pages: 1 -->
<svg width="1739pt" height="396pt"
 viewBox="0.00 0.00 1738.50 396.00" xmlns="http://www.w3.org/2000/svg" xmlns:xlink="http://www.w3.org/1999/xlink">
<g id="graph0" class="graph" transform="scale(1 1) rotate(0) translate(4 392)">
<title>include/Marmot/MarmotUtils.h</title>
<polygon fill="white" stroke="transparent" points="-4,4 -4,-392 1734.5,-392 1734.5,4 -4,4"/>
<!-- Node1 -->
<g id="node1" class="node">
<title>Node1</title>
<g id="a_node1"><a xlink:title=" ">
<polygon fill="#bfbfbf" stroke="black" points="562.5,-368.5 562.5,-387.5 709.5,-387.5 709.5,-368.5 562.5,-368.5"/>
<text text-anchor="middle" x="636" y="-375.5" font-family="Helvetica,sans-Serif" font-size="10.00">include/Marmot/MarmotUtils.h</text>
</a>
</g>
</g>
<!-- Node2 -->
<g id="node2" class="node">
<title>Node2</title>
<g id="a_node2"><a xlink:href="MarmotElement_8h.html" target="_top" xlink:title=" ">
<polygon fill="white" stroke="black" points="322,-245.5 322,-264.5 484,-264.5 484,-245.5 322,-245.5"/>
<text text-anchor="middle" x="403" y="-252.5" font-family="Helvetica,sans-Serif" font-size="10.00">include/Marmot/MarmotElement.h</text>
</a>
</g>
</g>
<!-- Node1&#45;&gt;Node2 -->
<g id="edge1" class="edge">
<title>Node1&#45;&gt;Node2</title>
<path fill="none" stroke="midnightblue" d="M610.51,-363.76C562.51,-338.83 459.91,-285.55 419.68,-264.66"/>
<polygon fill="midnightblue" stroke="midnightblue" points="609.13,-366.99 619.62,-368.49 612.35,-360.78 609.13,-366.99"/>
</g>
<!-- Node11 -->
<g id="node11" class="node">
<title>Node11</title>
<g id="a_node11"><a xlink:href="MarmotMaterial_8h.html" target="_top" xlink:title=" ">
<polygon fill="white" stroke="black" points="802.5,-312.5 802.5,-331.5 963.5,-331.5 963.5,-312.5 802.5,-312.5"/>
<text text-anchor="middle" x="883" y="-319.5" font-family="Helvetica,sans-Serif" font-size="10.00">include/Marmot/MarmotMaterial.h</text>
</a>
</g>
</g>
<!-- Node1&#45;&gt;Node11 -->
<g id="edge13" class="edge">
<title>Node1&#45;&gt;Node11</title>
<path fill="none" stroke="midnightblue" d="M685.03,-366.28C731.7,-356.08 801.03,-340.92 844.05,-331.52"/>
<polygon fill="midnightblue" stroke="midnightblue" points="684.16,-362.89 675.14,-368.44 685.65,-369.73 684.16,-362.89"/>
</g>
<!-- Node27 -->
<g id="node27" class="node">
<title>Node27</title>
<g id="a_node27"><a xlink:href="MarmotStateVarVectorManager_8h.html" target="_top" xlink:title=" ">
<polygon fill="white" stroke="black" points="553,-156.5 553,-197.5 719,-197.5 719,-156.5 553,-156.5"/>
<text text-anchor="start" x="561" y="-185.5" font-family="Helvetica,sans-Serif" font-size="10.00">modules/core/MarmotMechanics</text>
<text text-anchor="start" x="561" y="-174.5" font-family="Helvetica,sans-Serif" font-size="10.00">Core/include/Marmot/MarmotState</text>
<text text-anchor="middle" x="636" y="-163.5" font-family="Helvetica,sans-Serif" font-size="10.00">VarVectorManager.h</text>
</a>
</g>
</g>
<!-- Node1&#45;&gt;Node27 -->
<g id="edge33" class="edge">
<title>Node1&#45;&gt;Node27</title>
<path fill="none" stroke="midnightblue" d="M636,-358.4C636,-320.84 636,-236.2 636,-197.72"/>
<polygon fill="midnightblue" stroke="midnightblue" points="632.5,-358.45 636,-368.45 639.5,-358.45 632.5,-358.45"/>
</g>
<!-- Node3 -->
<g id="node3" class="node">
<title>Node3</title>
<g id="a_node3"><a xlink:href="Marmot_8h.html" target="_top" xlink:title=" ">
<polygon fill="white" stroke="black" points="385.5,-167.5 385.5,-186.5 512.5,-186.5 512.5,-167.5 385.5,-167.5"/>
<text text-anchor="middle" x="449" y="-174.5" font-family="Helvetica,sans-Serif" font-size="10.00">include/Marmot/Marmot.h</text>
</a>
</g>
</g>
<!-- Node2&#45;&gt;Node3 -->
<g id="edge2" class="edge">
<title>Node2&#45;&gt;Node3</title>
<path fill="none" stroke="midnightblue" d="M413.55,-236.57C423,-220.95 436.47,-198.7 443.78,-186.62"/>
<polygon fill="midnightblue" stroke="midnightblue" points="410.46,-234.91 408.28,-245.28 416.45,-238.54 410.46,-234.91"/>
</g>
<!-- Node7 -->
<g id="node7" class="node">
<title>Node7</title>
<g id="a_node7"><a xlink:href="DisplacementFiniteElement_8h.html" target="_top" xlink:title=" ">
<polygon fill="white" stroke="black" points="278,-78.5 278,-119.5 436,-119.5 436,-78.5 278,-78.5"/>
<text text-anchor="start" x="286" y="-107.5" font-family="Helvetica,sans-Serif" font-size="10.00">modules/elements/Displacement</text>
<text text-anchor="start" x="286" y="-96.5" font-family="Helvetica,sans-Serif" font-size="10.00">FiniteElement/include/Marmot</text>
<text text-anchor="middle" x="357" y="-85.5" font-family="Helvetica,sans-Serif" font-size="10.00">/DisplacementFiniteElement.h</text>
</a>
</g>
</g>
<!-- Node2&#45;&gt;Node7 -->
<g id="edge12" class="edge">
<title>Node2&#45;&gt;Node7</title>
<path fill="none" stroke="midnightblue" d="M393.05,-236.37C387.33,-225.58 380.42,-211.33 376,-198 367.21,-171.52 361.96,-139.58 359.28,-119.53"/>
<polygon fill="midnightblue" stroke="midnightblue" points="390,-238.09 397.86,-245.18 396.14,-234.73 390,-238.09"/>
</g>
<!-- Node9 -->
<g id="node9" class="node">
<title>Node9</title>
<g id="a_node9"><a xlink:href="MarmotFiniteElementSpatialWrapper_8h.html" target="_top" xlink:title=" ">
<polygon fill="white" stroke="black" points="119.5,-156.5 119.5,-197.5 304.5,-197.5 304.5,-156.5 119.5,-156.5"/>
<text text-anchor="start" x="127.5" y="-185.5" font-family="Helvetica,sans-Serif" font-size="10.00">modules/core/MarmotFinite</text>
<text text-anchor="start" x="127.5" y="-174.5" font-family="Helvetica,sans-Serif" font-size="10.00">ElementCore/include/Marmot</text>
<text text-anchor="middle" x="212" y="-163.5" font-family="Helvetica,sans-Serif" font-size="10.00">/MarmotFiniteElementSpatialWrapper.h</text>
</a>
</g>
</g>
<!-- Node2&#45;&gt;Node9 -->
<g id="edge9" class="edge">
<title>Node2&#45;&gt;Node9</title>
<path fill="none" stroke="midnightblue" d="M371.95,-241.64C341.98,-229.72 296.15,-211.49 261.22,-197.59"/>
<polygon fill="midnightblue" stroke="midnightblue" points="370.88,-244.98 381.46,-245.43 373.46,-238.48 370.88,-244.98"/>
</g>
<!-- Node4 -->
<g id="node4" class="node">
<title>Node4</title>
<g id="a_node4"><a xlink:href="MarmotMaterialRegistrationHelper_8h.html" target="_top" xlink:title=" ">
<polygon fill="white" stroke="black" points="454,-84 454,-114 608,-114 608,-84 454,-84"/>
<text text-anchor="start" x="462" y="-102" font-family="Helvetica,sans-Serif" font-size="10.00">include/Marmot/MarmotMaterial</text>
<text text-anchor="middle" x="531" y="-91" font-family="Helvetica,sans-Serif" font-size="10.00">RegistrationHelper.h</text>
</a>
</g>
</g>
<!-- Node3&#45;&gt;Node4 -->
<g id="edge3" class="edge">
<title>Node3&#45;&gt;Node4</title>
<path fill="none" stroke="midnightblue" d="M465.83,-160.4C480.53,-146.77 501.69,-127.16 515.87,-114.02"/>
<polygon fill="midnightblue" stroke="midnightblue" points="463.36,-157.92 458.41,-167.28 468.12,-163.05 463.36,-157.92"/>
</g>
<!-- Node3&#45;&gt;Node7 -->
<g id="edge6" class="edge">
<title>Node3&#45;&gt;Node7</title>
<path fill="none" stroke="midnightblue" d="M430.35,-160.59C416.06,-148.79 396.23,-132.41 380.8,-119.66"/>
<polygon fill="midnightblue" stroke="midnightblue" points="428.51,-163.61 438.45,-167.28 432.97,-158.21 428.51,-163.61"/>
</g>
<!-- Node8 -->
<g id="node8" class="node">
<title>Node8</title>
<g id="a_node8"><a xlink:href="DisplacementFiniteElementRegistration_8cpp.html" target="_top" xlink:title=" ">
<polygon fill="white" stroke="black" points="160.5,-0.5 160.5,-41.5 339.5,-41.5 339.5,-0.5 160.5,-0.5"/>
<text text-anchor="start" x="168.5" y="-29.5" font-family="Helvetica,sans-Serif" font-size="10.00">modules/elements/Displacement</text>
<text text-anchor="start" x="168.5" y="-18.5" font-family="Helvetica,sans-Serif" font-size="10.00">FiniteElement/src/DisplacementFinite</text>
<text text-anchor="middle" x="250" y="-7.5" font-family="Helvetica,sans-Serif" font-size="10.00">ElementRegistration.cpp</text>
</a>
</g>
</g>
<!-- Node3&#45;&gt;Node8 -->
<g id="edge8" class="edge">
<title>Node3&#45;&gt;Node8</title>
<path fill="none" stroke="midnightblue" d="M375.01,-170.56C338.1,-163.97 295.74,-149.86 269,-120 249.81,-98.57 247.52,-63.72 248.28,-41.87"/>
<polygon fill="midnightblue" stroke="midnightblue" points="374.82,-174.08 385.26,-172.23 375.95,-167.17 374.82,-174.08"/>
</g>
<!-- Node5 -->
<g id="node5" class="node">
<title>Node5</title>
<g id="a_node5"><a xlink:href="LinearElasticRegistration_8cpp.html" target="_top" xlink:title=" ">
<polygon fill="white" stroke="black" points="786.5,-6 786.5,-36 977.5,-36 977.5,-6 786.5,-6"/>
<text text-anchor="start" x="794.5" y="-24" font-family="Helvetica,sans-Serif" font-size="10.00">modules/materials/Linear</text>
<text text-anchor="middle" x="882" y="-13" font-family="Helvetica,sans-Serif" font-size="10.00">Elastic/src/LinearElasticRegistration.cpp</text>
</a>
</g>
</g>
<!-- Node4&#45;&gt;Node5 -->
<g id="edge4" class="edge">
<title>Node4&#45;&gt;Node5</title>
<path fill="none" stroke="midnightblue" d="M600.62,-81.68C606.16,-80.42 611.67,-79.18 617,-78 683.79,-63.18 760.27,-47.11 813.84,-36.01"/>
<polygon fill="midnightblue" stroke="midnightblue" points="599.61,-78.32 590.64,-83.96 601.17,-85.15 599.61,-78.32"/>
</g>
<!-- Node6 -->
<g id="node6" class="node">
<title>Node6</title>
<g id="a_node6"><a xlink:href="VonMisesRegistration_8cpp.html" target="_top" xlink:title=" ">
<polygon fill="white" stroke="black" points="457.5,-6 457.5,-36 606.5,-36 606.5,-6 457.5,-6"/>
<text text-anchor="start" x="465.5" y="-24" font-family="Helvetica,sans-Serif" font-size="10.00">modules/materials/VonMises</text>
<text text-anchor="middle" x="532" y="-13" font-family="Helvetica,sans-Serif" font-size="10.00">/src/VonMisesRegistration.cpp</text>
</a>
</g>
</g>
<!-- Node4&#45;&gt;Node6 -->
<g id="edge5" class="edge">
<title>Node4&#45;&gt;Node6</title>
<path fill="none" stroke="midnightblue" d="M531.32,-73.59C531.48,-61.26 531.67,-46.72 531.81,-36.23"/>
<polygon fill="midnightblue" stroke="midnightblue" points="527.82,-73.66 531.19,-83.7 534.82,-73.75 527.82,-73.66"/>
</g>
<!-- Node7&#45;&gt;Node8 -->
<g id="edge7" class="edge">
<title>Node7&#45;&gt;Node8</title>
<path fill="none" stroke="midnightblue" d="M321.29,-72.64C307,-62.49 290.8,-50.98 277.46,-41.51"/>
<polygon fill="midnightblue" stroke="midnightblue" points="319.27,-75.49 329.44,-78.43 323.32,-69.78 319.27,-75.49"/>
</g>
<!-- Node9&#45;&gt;Node8 -->
<g id="edge11" class="edge">
<title>Node9&#45;&gt;Node8</title>
<path fill="none" stroke="midnightblue" d="M219.14,-146.67C223.9,-127.19 230.29,-101.06 236,-78 238.98,-65.94 242.36,-52.42 245.05,-41.69"/>
<polygon fill="midnightblue" stroke="midnightblue" points="215.72,-145.93 216.75,-156.47 222.52,-147.58 215.72,-145.93"/>
</g>
<!-- Node10 -->
<g id="node10" class="node">
<title>Node10</title>
<g id="a_node10"><a xlink:href="MarmotFiniteElementSpatialWrapper_8cpp.html" target="_top" xlink:title=" ">
<polygon fill="white" stroke="black" points="0,-78.5 0,-119.5 184,-119.5 184,-78.5 0,-78.5"/>
<text text-anchor="start" x="8" y="-107.5" font-family="Helvetica,sans-Serif" font-size="10.00">modules/core/MarmotFinite</text>
<text text-anchor="start" x="8" y="-96.5" font-family="Helvetica,sans-Serif" font-size="10.00">ElementCore/src/MarmotFiniteElement</text>
<text text-anchor="middle" x="92" y="-85.5" font-family="Helvetica,sans-Serif" font-size="10.00">SpatialWrapper.cpp</text>
</a>
</g>
</g>
<!-- Node9&#45;&gt;Node10 -->
<g id="edge10" class="edge">
<title>Node9&#45;&gt;Node10</title>
<path fill="none" stroke="midnightblue" d="M172.4,-150.92C156.27,-140.7 137.9,-129.07 122.8,-119.51"/>
<polygon fill="midnightblue" stroke="midnightblue" points="170.78,-154.03 181.1,-156.43 174.52,-148.12 170.78,-154.03"/>
</g>
<!-- Node11&#45;&gt;Node3 -->
<g id="edge14" class="edge">
<title>Node11&#45;&gt;Node3</title>
<path fill="none" stroke="midnightblue" d="M847.44,-309.28C762.49,-281.29 549.25,-211.03 474.99,-186.56"/>
<polygon fill="midnightblue" stroke="midnightblue" points="846.56,-312.68 857.15,-312.48 848.75,-306.03 846.56,-312.68"/>
</g>
<!-- Node12 -->
<g id="node12" class="node">
<title>Node12</title>
<g id="a_node12"><a xlink:href="MarmotMaterialGradientEnhancedMechanical_8h.html" target="_top" xlink:title=" ">
<polygon fill="white" stroke="black" points="1351.5,-234.5 1351.5,-275.5 1528.5,-275.5 1528.5,-234.5 1351.5,-234.5"/>
<text text-anchor="start" x="1359.5" y="-263.5" font-family="Helvetica,sans-Serif" font-size="10.00">modules/core/MarmotMechanics</text>
<text text-anchor="start" x="1359.5" y="-252.5" font-family="Helvetica,sans-Serif" font-size="10.00">Core/include/Marmot/MarmotMaterial</text>
<text text-anchor="middle" x="1440" y="-241.5" font-family="Helvetica,sans-Serif" font-size="10.00">GradientEnhancedMechanical.h</text>
</a>
</g>
</g>
<!-- Node11&#45;&gt;Node12 -->
<g id="edge15" class="edge">
<title>Node11&#45;&gt;Node12</title>
<path fill="none" stroke="midnightblue" d="M966.19,-311.29C1069.56,-299.23 1245.23,-278.73 1351.16,-266.37"/>
<polygon fill="midnightblue" stroke="midnightblue" points="965.63,-307.83 956.1,-312.47 966.44,-314.79 965.63,-307.83"/>
</g>
<!-- Node15 -->
<g id="node15" class="node">
<title>Node15</title>
<g id="a_node15"><a xlink:href="MarmotMaterialMechanical_8h.html" target="_top" xlink:title=" ">
<polygon fill="white" stroke="black" points="954.5,-234.5 954.5,-275.5 1131.5,-275.5 1131.5,-234.5 954.5,-234.5"/>
<text text-anchor="start" x="962.5" y="-263.5" font-family="Helvetica,sans-Serif" font-size="10.00">modules/core/MarmotMechanics</text>
<text text-anchor="start" x="962.5" y="-252.5" font-family="Helvetica,sans-Serif" font-size="10.00">Core/include/Marmot/MarmotMaterial</text>
<text text-anchor="middle" x="1043" y="-241.5" font-family="Helvetica,sans-Serif" font-size="10.00">Mechanical.h</text>
</a>
</g>
</g>
<!-- Node11&#45;&gt;Node15 -->
<g id="edge18" class="edge">
<title>Node11&#45;&gt;Node15</title>
<path fill="none" stroke="midnightblue" d="M913.79,-308.49C936.7,-299.18 968.42,-286.3 994.69,-275.63"/>
<polygon fill="midnightblue" stroke="midnightblue" points="912.19,-305.36 904.25,-312.37 914.83,-311.85 912.19,-305.36"/>
</g>
<!-- Node13 -->
<g id="node13" class="node">
<title>Node13</title>
<g id="a_node13"><a xlink:href="MarmotMaterialGradientEnhancedHypoElastic_8h.html" target="_top" xlink:title=" ">
<polygon fill="white" stroke="black" points="1553.5,-156.5 1553.5,-197.5 1730.5,-197.5 1730.5,-156.5 1553.5,-156.5"/>
<text text-anchor="start" x="1561.5" y="-185.5" font-family="Helvetica,sans-Serif" font-size="10.00">modules/core/MarmotMechanics</text>
<text text-anchor="start" x="1561.5" y="-174.5" font-family="Helvetica,sans-Serif" font-size="10.00">Core/include/Marmot/MarmotMaterial</text>
<text text-anchor="middle" x="1642" y="-163.5" font-family="Helvetica,sans-Serif" font-size="10.00">GradientEnhancedHypoElastic.h</text>
</a>
</g>
</g>
<!-- Node12&#45;&gt;Node13 -->
<g id="edge16" class="edge">
<title>Node12&#45;&gt;Node13</title>
<path fill="none" stroke="midnightblue" d="M1501.43,-230.89C1529.79,-220.22 1563.09,-207.69 1590.16,-197.51"/>
<polygon fill="midnightblue" stroke="midnightblue" points="1500.15,-227.63 1492.02,-234.43 1502.61,-234.18 1500.15,-227.63"/>
</g>
<!-- Node14 -->
<g id="node14" class="node">
<title>Node14</title>
<g id="a_node14"><a xlink:href="MarmotMaterialHypoElasticNonLocal_8cpp.html" target="_top" xlink:title=" ">
<polygon fill="white" stroke="black" points="1554,-78.5 1554,-119.5 1730,-119.5 1730,-78.5 1554,-78.5"/>
<text text-anchor="start" x="1562" y="-107.5" font-family="Helvetica,sans-Serif" font-size="10.00">modules/core/MarmotMechanics</text>
<text text-anchor="start" x="1562" y="-96.5" font-family="Helvetica,sans-Serif" font-size="10.00">Core/src/MarmotMaterialHypoElastic</text>
<text text-anchor="middle" x="1642" y="-85.5" font-family="Helvetica,sans-Serif" font-size="10.00">NonLocal.cpp</text>
</a>
</g>
</g>
<!-- Node13&#45;&gt;Node14 -->
<g id="edge17" class="edge">
<title>Node13&#45;&gt;Node14</title>
<path fill="none" stroke="midnightblue" d="M1642,-146.3C1642,-137.3 1642,-127.65 1642,-119.51"/>
<polygon fill="midnightblue" stroke="midnightblue" points="1638.5,-146.43 1642,-156.43 1645.5,-146.43 1638.5,-146.43"/>
</g>
<!-- Node16 -->
<g id="node16" class="node">
<title>Node16</title>
<g id="a_node16"><a xlink:href="MarmotMaterialHyperElastic_8h.html" target="_top" xlink:title=" ">
<polygon fill="white" stroke="black" points="954.5,-156.5 954.5,-197.5 1131.5,-197.5 1131.5,-156.5 954.5,-156.5"/>
<text text-anchor="start" x="962.5" y="-185.5" font-family="Helvetica,sans-Serif" font-size="10.00">modules/core/MarmotMechanics</text>
<text text-anchor="start" x="962.5" y="-174.5" font-family="Helvetica,sans-Serif" font-size="10.00">Core/include/Marmot/MarmotMaterial</text>
<text text-anchor="middle" x="1043" y="-163.5" font-family="Helvetica,sans-Serif" font-size="10.00">HyperElastic.h</text>
</a>
</g>
</g>
<!-- Node15&#45;&gt;Node16 -->
<g id="edge19" class="edge">
<title>Node15&#45;&gt;Node16</title>
<path fill="none" stroke="midnightblue" d="M1043,-224.3C1043,-215.3 1043,-205.65 1043,-197.51"/>
<polygon fill="midnightblue" stroke="midnightblue" points="1039.5,-224.43 1043,-234.43 1046.5,-224.43 1039.5,-224.43"/>
</g>
<!-- Node18 -->
<g id="node18" class="node">
<title>Node18</title>
<g id="a_node18"><a xlink:href="MarmotMaterialHypoElastic_8h.html" target="_top" xlink:title=" ">
<polygon fill="white" stroke="black" points="759.5,-156.5 759.5,-197.5 936.5,-197.5 936.5,-156.5 759.5,-156.5"/>
<text text-anchor="start" x="767.5" y="-185.5" font-family="Helvetica,sans-Serif" font-size="10.00">modules/core/MarmotMechanics</text>
<text text-anchor="start" x="767.5" y="-174.5" font-family="Helvetica,sans-Serif" font-size="10.00">Core/include/Marmot/MarmotMaterial</text>
<text text-anchor="middle" x="848" y="-163.5" font-family="Helvetica,sans-Serif" font-size="10.00">HypoElastic.h</text>
</a>
</g>
</g>
<!-- Node15&#45;&gt;Node18 -->
<g id="edge21" class="edge">
<title>Node15&#45;&gt;Node18</title>
<path fill="none" stroke="midnightblue" d="M983.34,-230.75C956.04,-220.11 924.06,-207.65 898.05,-197.51"/>
<polygon fill="midnightblue" stroke="midnightblue" points="982.19,-234.06 992.78,-234.43 984.74,-227.54 982.19,-234.06"/>
</g>
<!-- Node24 -->
<g id="node24" class="node">
<title>Node24</title>
<g id="a_node24"><a xlink:href="MarmotMaterialHypoElasticAD_8h.html" target="_top" xlink:title=" ">
<polygon fill="white" stroke="black" points="1358.5,-156.5 1358.5,-197.5 1535.5,-197.5 1535.5,-156.5 1358.5,-156.5"/>
<text text-anchor="start" x="1366.5" y="-185.5" font-family="Helvetica,sans-Serif" font-size="10.00">modules/core/MarmotMechanics</text>
<text text-anchor="start" x="1366.5" y="-174.5" font-family="Helvetica,sans-Serif" font-size="10.00">Core/include/Marmot/MarmotMaterial</text>
<text text-anchor="middle" x="1447" y="-163.5" font-family="Helvetica,sans-Serif" font-size="10.00">HypoElasticAD.h</text>
</a>
</g>
</g>
<!-- Node15&#45;&gt;Node24 -->
<g id="edge30" class="edge">
<title>Node15&#45;&gt;Node24</title>
<path fill="none" stroke="midnightblue" d="M1141.66,-236.6C1201.91,-225.82 1280.48,-211.51 1350,-198 1352.79,-197.46 1355.61,-196.9 1358.47,-196.34"/>
<polygon fill="midnightblue" stroke="midnightblue" points="1141,-233.16 1131.77,-238.36 1142.23,-240.05 1141,-233.16"/>
</g>
<!-- Node26 -->
<g id="node26" class="node">
<title>Node26</title>
<g id="a_node26"><a xlink:href="MarmotMaterialMechanical_8cpp.html" target="_top" xlink:title=" ">
<polygon fill="white" stroke="black" points="1149.5,-162 1149.5,-192 1340.5,-192 1340.5,-162 1149.5,-162"/>
<text text-anchor="start" x="1157.5" y="-180" font-family="Helvetica,sans-Serif" font-size="10.00">modules/core/MarmotMechanics</text>
<text text-anchor="middle" x="1245" y="-169" font-family="Helvetica,sans-Serif" font-size="10.00">Core/src/MarmotMaterialMechanical.cpp</text>
</a>
</g>
</g>
<!-- Node15&#45;&gt;Node26 -->
<g id="edge32" class="edge">
<title>Node15&#45;&gt;Node26</title>
<path fill="none" stroke="midnightblue" d="M1104.74,-230.77C1138.3,-218.15 1178.7,-202.94 1207.51,-192.11"/>
<polygon fill="midnightblue" stroke="midnightblue" points="1103.15,-227.63 1095.02,-234.43 1105.61,-234.18 1103.15,-227.63"/>
</g>
<!-- Node17 -->
<g id="node17" class="node">
<title>Node17</title>
<g id="a_node17"><a xlink:href="MarmotMaterialHyperElastic_8cpp.html" target="_top" xlink:title=" ">
<polygon fill="white" stroke="black" points="1144.5,-84 1144.5,-114 1341.5,-114 1341.5,-84 1144.5,-84"/>
<text text-anchor="start" x="1152.5" y="-102" font-family="Helvetica,sans-Serif" font-size="10.00">modules/core/MarmotMechanics</text>
<text text-anchor="middle" x="1243" y="-91" font-family="Helvetica,sans-Serif" font-size="10.00">Core/src/MarmotMaterialHyperElastic.cpp</text>
</a>
</g>
</g>
<!-- Node16&#45;&gt;Node17 -->
<g id="edge20" class="edge">
<title>Node16&#45;&gt;Node17</title>
<path fill="none" stroke="midnightblue" d="M1104.13,-152.77C1137.35,-140.15 1177.36,-124.94 1205.88,-114.11"/>
<polygon fill="midnightblue" stroke="midnightblue" points="1102.61,-149.6 1094.5,-156.43 1105.1,-156.15 1102.61,-149.6"/>
</g>
<!-- Node18&#45;&gt;Node7 -->
<g id="edge23" class="edge">
<title>Node18&#45;&gt;Node7</title>
<path fill="none" stroke="midnightblue" d="M748.9,-159.17C741.83,-158.07 734.81,-157 728,-156 602.55,-137.57 569.85,-142.08 445,-120 442.07,-119.48 439.09,-118.93 436.08,-118.35"/>
<polygon fill="midnightblue" stroke="midnightblue" points="748.84,-162.71 759.26,-160.82 749.93,-155.8 748.84,-162.71"/>
</g>
<!-- Node19 -->
<g id="node19" class="node">
<title>Node19</title>
<g id="a_node19"><a xlink:href="MarmotMaterialHypoElastic_8cpp.html" target="_top" xlink:title=" ">
<polygon fill="white" stroke="black" points="788,-84 788,-114 982,-114 982,-84 788,-84"/>
<text text-anchor="start" x="796" y="-102" font-family="Helvetica,sans-Serif" font-size="10.00">modules/core/MarmotMechanics</text>
<text text-anchor="middle" x="885" y="-91" font-family="Helvetica,sans-Serif" font-size="10.00">Core/src/MarmotMaterialHypoElastic.cpp</text>
</a>
</g>
</g>
<!-- Node18&#45;&gt;Node19 -->
<g id="edge22" class="edge">
<title>Node18&#45;&gt;Node19</title>
<path fill="none" stroke="midnightblue" d="M861.97,-147.3C867.47,-136 873.55,-123.52 878.07,-114.23"/>
<polygon fill="midnightblue" stroke="midnightblue" points="858.76,-145.9 857.53,-156.43 865.05,-148.97 858.76,-145.9"/>
</g>
<!-- Node20 -->
<g id="node20" class="node">
<title>Node20</title>
<g id="a_node20"><a xlink:href="LinearElastic_8h.html" target="_top" xlink:title=" ">
<polygon fill="white" stroke="black" points="1000,-78.5 1000,-119.5 1126,-119.5 1126,-78.5 1000,-78.5"/>
<text text-anchor="start" x="1008" y="-107.5" font-family="Helvetica,sans-Serif" font-size="10.00">modules/materials/Linear</text>
<text text-anchor="start" x="1008" y="-96.5" font-family="Helvetica,sans-Serif" font-size="10.00">Elastic/include/Marmot</text>
<text text-anchor="middle" x="1063" y="-85.5" font-family="Helvetica,sans-Serif" font-size="10.00">/LinearElastic.h</text>
</a>
</g>
</g>
<!-- Node18&#45;&gt;Node20 -->
<g id="edge24" class="edge">
<title>Node18&#45;&gt;Node20</title>
<path fill="none" stroke="midnightblue" d="M912.99,-153.03C943.26,-142.33 978.88,-129.73 1007.82,-119.51"/>
<polygon fill="midnightblue" stroke="midnightblue" points="911.63,-149.8 903.37,-156.43 913.96,-156.4 911.63,-149.8"/>
</g>
<!-- Node22 -->
<g id="node22" class="node">
<title>Node22</title>
<g id="a_node22"><a xlink:href="VonMises_8h.html" target="_top" xlink:title=" ">
<polygon fill="white" stroke="black" points="626.5,-84 626.5,-114 769.5,-114 769.5,-84 626.5,-84"/>
<text text-anchor="start" x="634.5" y="-102" font-family="Helvetica,sans-Serif" font-size="10.00">modules/materials/VonMises</text>
<text text-anchor="middle" x="698" y="-91" font-family="Helvetica,sans-Serif" font-size="10.00">/include/Marmot/VonMises.h</text>
</a>
</g>
</g>
<!-- Node18&#45;&gt;Node22 -->
<g id="edge27" class="edge">
<title>Node18&#45;&gt;Node22</title>
<path fill="none" stroke="midnightblue" d="M800.25,-151.81C775.81,-139.43 746.91,-124.78 726.08,-114.23"/>
<polygon fill="midnightblue" stroke="midnightblue" points="798.87,-155.03 809.37,-156.43 802.03,-148.79 798.87,-155.03"/>
</g>
<!-- Node20&#45;&gt;Node5 -->
<g id="edge26" class="edge">
<title>Node20&#45;&gt;Node5</title>
<path fill="none" stroke="midnightblue" d="M1006.9,-74.45C976.99,-61.89 941.19,-46.85 915.6,-36.11"/>
<polygon fill="midnightblue" stroke="midnightblue" points="1005.81,-77.78 1016.39,-78.43 1008.52,-71.33 1005.81,-77.78"/>
</g>
<!-- Node21 -->
<g id="node21" class="node">
<title>Node21</title>
<g id="a_node21"><a xlink:href="LinearElastic_8cpp.html" target="_top" xlink:title=" ">
<polygon fill="white" stroke="black" points="996,-6 996,-36 1136,-36 1136,-6 996,-6"/>
<text text-anchor="start" x="1004" y="-24" font-family="Helvetica,sans-Serif" font-size="10.00">modules/materials/Linear</text>
<text text-anchor="middle" x="1066" y="-13" font-family="Helvetica,sans-Serif" font-size="10.00">Elastic/src/LinearElastic.cpp</text>
</a>
</g>
</g>
<!-- Node20&#45;&gt;Node21 -->
<g id="edge25" class="edge">
<title>Node20&#45;&gt;Node21</title>
<path fill="none" stroke="midnightblue" d="M1064.17,-68.28C1064.61,-57.25 1065.08,-45.25 1065.44,-36.23"/>
<polygon fill="midnightblue" stroke="midnightblue" points="1060.67,-68.3 1063.77,-78.43 1067.66,-68.57 1060.67,-68.3"/>
</g>
<!-- Node22&#45;&gt;Node6 -->
<g id="edge29" class="edge">
<title>Node22&#45;&gt;Node6</title>
<path fill="none" stroke="midnightblue" d="M658.03,-79.7C628.72,-66.28 589.52,-48.34 562.67,-36.04"/>
<polygon fill="midnightblue" stroke="midnightblue" points="656.62,-82.9 667.17,-83.88 659.53,-76.54 656.62,-82.9"/>
</g>
<!-- Node23 -->
<g id="node23" class="node">
<title>Node23</title>
<g id="a_node23"><a xlink:href="VonMises_8cpp.html" target="_top" xlink:title=" ">
<polygon fill="white" stroke="black" points="625.5,-6 625.5,-36 768.5,-36 768.5,-6 625.5,-6"/>
<text text-anchor="start" x="633.5" y="-24" font-family="Helvetica,sans-Serif" font-size="10.00">modules/materials/VonMises</text>
<text text-anchor="middle" x="697" y="-13" font-family="Helvetica,sans-Serif" font-size="10.00">/src/VonMises.cpp</text>
</a>
</g>
</g>
<!-- Node22&#45;&gt;Node23 -->
<g id="edge28" class="edge">
<title>Node22&#45;&gt;Node23</title>
<path fill="none" stroke="midnightblue" d="M697.68,-73.59C697.52,-61.26 697.33,-46.72 697.19,-36.23"/>
<polygon fill="midnightblue" stroke="midnightblue" points="694.18,-73.75 697.81,-83.7 701.18,-73.66 694.18,-73.75"/>
</g>
<!-- Node25 -->
<g id="node25" class="node">
<title>Node25</title>
<g id="a_node25"><a xlink:href="MarmotMaterialHypoElasticAD_8cpp.html" target="_top" xlink:title=" ">
<polygon fill="white" stroke="black" points="1360,-78.5 1360,-119.5 1536,-119.5 1536,-78.5 1360,-78.5"/>
<text text-anchor="start" x="1368" y="-107.5" font-family="Helvetica,sans-Serif" font-size="10.00">modules/core/MarmotMechanics</text>
<text text-anchor="start" x="1368" y="-96.5" font-family="Helvetica,sans-Serif" font-size="10.00">Core/src/MarmotMaterialHypoElastic</text>
<text text-anchor="middle" x="1448" y="-85.5" font-family="Helvetica,sans-Serif" font-size="10.00">AD.cpp</text>
</a>
</g>
</g>
<!-- Node24&#45;&gt;Node25 -->
<g id="edge31" class="edge">
<title>Node24&#45;&gt;Node25</title>
<path fill="none" stroke="midnightblue" d="M1447.39,-146.3C1447.51,-137.3 1447.64,-127.65 1447.74,-119.51"/>
<polygon fill="midnightblue" stroke="midnightblue" points="1443.89,-146.38 1447.26,-156.43 1450.89,-146.48 1443.89,-146.38"/>
</g>
<!-- Node27&#45;&gt;Node7 -->
<g id="edge34" class="edge">
<title>Node27&#45;&gt;Node7</title>
<path fill="none" stroke="midnightblue" d="M554.46,-153.79C514.59,-142.93 467.05,-129.98 428.61,-119.51"/>
<polygon fill="midnightblue" stroke="midnightblue" points="553.58,-157.18 564.15,-156.43 555.42,-150.42 553.58,-157.18"/>
</g>
<!-- Node27&#45;&gt;Node22 -->
<g id="edge35" class="edge">
<title>Node27&#45;&gt;Node22</title>
<path fill="none" stroke="midnightblue" d="M658.31,-148.65C667.81,-137 678.51,-123.9 686.4,-114.23"/>
<polygon fill="midnightblue" stroke="midnightblue" points="655.58,-146.47 651.97,-156.43 661,-150.89 655.58,-146.47"/>
</g>
</g>
</svg>
