<?xml version="1.0" encoding="UTF-8" standalone="no"?>
<!DOCTYPE svg PUBLIC "-//W3C//DTD SVG 1.1//EN"
 "http://www.w3.org/Graphics/SVG/1.1/DTD/svg11.dtd">
<!-- Generated by graphviz version 2.47.1 (20210421.1823)
 -->
<!-- Title: modules/core/MarmotMechanicsCore/src/MarmotMaterialHypoElastic.cpp Pages: 1 -->
<svg width="875pt" height="274pt"
 viewBox="0.00 0.00 875.00 274.00" xmlns="http://www.w3.org/2000/svg" xmlns:xlink="http://www.w3.org/1999/xlink">
<g id="graph0" class="graph" transform="scale(1 1) rotate(0) translate(4 270)">
<title>modules/core/MarmotMechanicsCore/src/MarmotMaterialHypoElastic.cpp</title>
<polygon fill="white" stroke="transparent" points="-4,4 -4,-270 871,-270 871,4 -4,4"/>
<!-- Node1 -->
<g id="node1" class="node">
<title>Node1</title>
<g id="a_node1"><a xlink:title=" ">
<polygon fill="#bfbfbf" stroke="black" points="310.5,-235.5 310.5,-265.5 504.5,-265.5 504.5,-235.5 310.5,-235.5"/>
<text text-anchor="start" x="318.5" y="-253.5" font-family="Helvetica,sans-Serif" font-size="10.00">modules/core/MarmotMechanics</text>
<text text-anchor="middle" x="407.5" y="-242.5" font-family="Helvetica,sans-Serif" font-size="10.00">Core/src/MarmotMaterialHypoElastic.cpp</text>
</a>
</g>
</g>
<!-- Node2 -->
<g id="node2" class="node">
<title>Node2</title>
<g id="a_node2"><a xlink:href="MarmotMaterialHypoElastic_8h.html" target="_top" xlink:title=" ">
<polygon fill="white" stroke="black" points="25,-168.5 25,-198.5 168,-198.5 168,-168.5 25,-168.5"/>
<text text-anchor="start" x="33" y="-186.5" font-family="Helvetica,sans-Serif" font-size="10.00">Marmot/MarmotMaterialHypo</text>
<text text-anchor="middle" x="96.5" y="-175.5" font-family="Helvetica,sans-Serif" font-size="10.00">Elastic.h</text>
</a>
</g>
</g>
<!-- Node1&#45;&gt;Node2 -->
<g id="edge1" class="edge">
<title>Node1&#45;&gt;Node2</title>
<path fill="none" stroke="midnightblue" d="M340.4,-235.48C291.43,-225.24 224.96,-211.35 173.77,-200.65"/>
<polygon fill="midnightblue" stroke="midnightblue" points="174.25,-197.17 163.75,-198.55 172.82,-204.03 174.25,-197.17"/>
</g>
<!-- Node7 -->
<g id="node7" class="node">
<title>Node7</title>
<g id="a_node7"><a xlink:href="HughesWinget_8h.html" target="_top" xlink:title=" ">
<polygon fill="white" stroke="black" points="270.5,-174 270.5,-193 394.5,-193 394.5,-174 270.5,-174"/>
<text text-anchor="middle" x="332.5" y="-181" font-family="Helvetica,sans-Serif" font-size="10.00">Marmot/HughesWinget.h</text>
</a>
</g>
</g>
<!-- Node1&#45;&gt;Node7 -->
<g id="edge6" class="edge">
<title>Node1&#45;&gt;Node7</title>
<path fill="none" stroke="midnightblue" d="M391.23,-235.4C379.18,-224.96 362.79,-210.75 350.38,-200"/>
<polygon fill="midnightblue" stroke="midnightblue" points="352.38,-197.1 342.53,-193.19 347.8,-202.39 352.38,-197.1"/>
</g>
<!-- Node8 -->
<g id="node8" class="node">
<title>Node8</title>
<g id="a_node8"><a xlink:href="MarmotVoigt_8h.html" target="_top" xlink:title=" ">
<polygon fill="white" stroke="black" points="274.5,-112.5 274.5,-131.5 390.5,-131.5 390.5,-112.5 274.5,-112.5"/>
<text text-anchor="middle" x="332.5" y="-119.5" font-family="Helvetica,sans-Serif" font-size="10.00">Marmot/MarmotVoigt.h</text>
</a>
</g>
</g>
<!-- Node1&#45;&gt;Node8 -->
<g id="edge20" class="edge">
<title>Node1&#45;&gt;Node8</title>
<path fill="none" stroke="midnightblue" d="M313.01,-235.49C292.87,-227.96 273.95,-216.48 261.5,-199 253.51,-187.78 254.86,-180.07 261.5,-168 269.39,-153.66 283.99,-143.25 297.9,-136.08"/>
<polygon fill="midnightblue" stroke="midnightblue" points="299.79,-139.06 307.34,-131.62 296.8,-132.73 299.79,-139.06"/>
</g>
<!-- Node9 -->
<g id="node9" class="node">
<title>Node9</title>
<g id="a_node9"><a xlink:href="MarmotJournal_8h.html" target="_top" xlink:title=" ">
<polygon fill="white" stroke="black" points="270,-56.5 270,-75.5 395,-75.5 395,-56.5 270,-56.5"/>
<text text-anchor="middle" x="332.5" y="-63.5" font-family="Helvetica,sans-Serif" font-size="10.00">Marmot/MarmotJournal.h</text>
</a>
</g>
</g>
<!-- Node1&#45;&gt;Node9 -->
<g id="edge13" class="edge">
<title>Node1&#45;&gt;Node9</title>
<path fill="none" stroke="midnightblue" d="M310.12,-237.66C287.7,-230.15 266.38,-218.12 252.5,-199 239.99,-181.77 262.75,-115.99 265.5,-112 274.87,-98.41 289.81,-87.8 303.2,-80.3"/>
<polygon fill="midnightblue" stroke="midnightblue" points="304.91,-83.36 312.14,-75.61 301.66,-77.16 304.91,-83.36"/>
</g>
<!-- Node10 -->
<g id="node10" class="node">
<title>Node10</title>
<g id="a_node10"><a xlink:title=" ">
<polygon fill="white" stroke="#bfbfbf" points="465.5,-0.5 465.5,-19.5 519.5,-19.5 519.5,-0.5 465.5,-0.5"/>
<text text-anchor="middle" x="492.5" y="-7.5" font-family="Helvetica,sans-Serif" font-size="10.00">iostream</text>
</a>
</g>
</g>
<!-- Node1&#45;&gt;Node10 -->
<g id="edge21" class="edge">
<title>Node1&#45;&gt;Node10</title>
<path fill="none" stroke="midnightblue" d="M504.68,-238.07C527.55,-230.57 549.35,-218.45 563.5,-199 579.69,-176.74 604.91,-142.51 556.5,-56 548.81,-42.27 534.97,-31.74 522.12,-24.34"/>
<polygon fill="midnightblue" stroke="midnightblue" points="523.52,-21.12 513.05,-19.5 520.22,-27.3 523.52,-21.12"/>
</g>
<!-- Node13 -->
<g id="node13" class="node">
<title>Node13</title>
<g id="a_node13"><a xlink:href="MarmotKinematics_8h.html" target="_top" xlink:title=" ">
<polygon fill="white" stroke="black" points="412.5,-174 412.5,-193 554.5,-193 554.5,-174 412.5,-174"/>
<text text-anchor="middle" x="483.5" y="-181" font-family="Helvetica,sans-Serif" font-size="10.00">Marmot/MarmotKinematics.h</text>
</a>
</g>
</g>
<!-- Node1&#45;&gt;Node13 -->
<g id="edge14" class="edge">
<title>Node1&#45;&gt;Node13</title>
<path fill="none" stroke="midnightblue" d="M423.99,-235.4C436.19,-224.96 452.81,-210.75 465.38,-200"/>
<polygon fill="midnightblue" stroke="midnightblue" points="468.01,-202.35 473.33,-193.19 463.46,-197.03 468.01,-202.35"/>
</g>
<!-- Node14 -->
<g id="node14" class="node">
<title>Node14</title>
<g id="a_node14"><a xlink:title=" ">
<polygon fill="white" stroke="#bfbfbf" points="611,-174 611,-193 726,-193 726,-174 611,-174"/>
<text text-anchor="middle" x="668.5" y="-181" font-family="Helvetica,sans-Serif" font-size="10.00">Marmot/MarmotMath.h</text>
</a>
</g>
</g>
<!-- Node1&#45;&gt;Node14 -->
<g id="edge18" class="edge">
<title>Node1&#45;&gt;Node14</title>
<path fill="none" stroke="midnightblue" d="M463.81,-235.48C511.92,-223.5 580.16,-206.5 624.38,-195.49"/>
<polygon fill="midnightblue" stroke="midnightblue" points="625.4,-198.84 634.25,-193.03 623.7,-192.05 625.4,-198.84"/>
</g>
<!-- Node15 -->
<g id="node15" class="node">
<title>Node15</title>
<g id="a_node15"><a xlink:title=" ">
<polygon fill="white" stroke="#bfbfbf" points="744,-174 744,-193 867,-193 867,-174 744,-174"/>
<text text-anchor="middle" x="805.5" y="-181" font-family="Helvetica,sans-Serif" font-size="10.00">Marmot/MarmotTensor.h</text>
</a>
</g>
</g>
<!-- Node1&#45;&gt;Node15 -->
<g id="edge19" class="edge">
<title>Node1&#45;&gt;Node15</title>
<path fill="none" stroke="midnightblue" d="M504.59,-235.89C569.99,-226.39 658.1,-212.96 735.5,-199 742.15,-197.8 749.13,-196.46 756.01,-195.08"/>
<polygon fill="midnightblue" stroke="midnightblue" points="756.85,-198.48 765.96,-193.06 755.46,-191.62 756.85,-198.48"/>
</g>
<!-- Node3 -->
<g id="node3" class="node">
<title>Node3</title>
<g id="a_node3"><a xlink:href="MarmotMaterialMechanical_8h.html" target="_top" xlink:title=" ">
<polygon fill="white" stroke="black" points="0,-112.5 0,-131.5 177,-131.5 177,-112.5 0,-112.5"/>
<text text-anchor="middle" x="88.5" y="-119.5" font-family="Helvetica,sans-Serif" font-size="10.00">Marmot/MarmotMaterialMechanical.h</text>
</a>
</g>
</g>
<!-- Node2&#45;&gt;Node3 -->
<g id="edge2" class="edge">
<title>Node2&#45;&gt;Node3</title>
<path fill="none" stroke="midnightblue" d="M94.6,-168.4C93.53,-160.38 92.16,-150.23 91,-141.57"/>
<polygon fill="midnightblue" stroke="midnightblue" points="94.47,-141.1 89.66,-131.66 87.53,-142.04 94.47,-141.1"/>
</g>
<!-- Node4 -->
<g id="node4" class="node">
<title>Node4</title>
<g id="a_node4"><a xlink:href="MarmotMaterial_8h.html" target="_top" xlink:title=" ">
<polygon fill="white" stroke="black" points="45.5,-56.5 45.5,-75.5 173.5,-75.5 173.5,-56.5 45.5,-56.5"/>
<text text-anchor="middle" x="109.5" y="-63.5" font-family="Helvetica,sans-Serif" font-size="10.00">Marmot/MarmotMaterial.h</text>
</a>
</g>
</g>
<!-- Node3&#45;&gt;Node4 -->
<g id="edge3" class="edge">
<title>Node3&#45;&gt;Node4</title>
<path fill="none" stroke="midnightblue" d="M91.97,-112.08C94.81,-104.77 98.93,-94.18 102.46,-85.1"/>
<polygon fill="midnightblue" stroke="midnightblue" points="105.73,-86.34 106.1,-75.75 99.21,-83.8 105.73,-86.34"/>
</g>
<!-- Node5 -->
<g id="node5" class="node">
<title>Node5</title>
<g id="a_node5"><a xlink:href="MarmotUtils_8h.html" target="_top" xlink:title=" ">
<polygon fill="white" stroke="black" points="53,-0.5 53,-19.5 166,-19.5 166,-0.5 53,-0.5"/>
<text text-anchor="middle" x="109.5" y="-7.5" font-family="Helvetica,sans-Serif" font-size="10.00">Marmot/MarmotUtils.h</text>
</a>
</g>
</g>
<!-- Node4&#45;&gt;Node5 -->
<g id="edge4" class="edge">
<title>Node4&#45;&gt;Node5</title>
<path fill="none" stroke="midnightblue" d="M109.5,-56.08C109.5,-49.01 109.5,-38.86 109.5,-29.99"/>
<polygon fill="midnightblue" stroke="midnightblue" points="113,-29.75 109.5,-19.75 106,-29.75 113,-29.75"/>
</g>
<!-- Node6 -->
<g id="node6" class="node">
<title>Node6</title>
<g id="a_node6"><a xlink:title=" ">
<polygon fill="white" stroke="#bfbfbf" points="226,-0.5 226,-19.5 267,-19.5 267,-0.5 226,-0.5"/>
<text text-anchor="middle" x="246.5" y="-7.5" font-family="Helvetica,sans-Serif" font-size="10.00">string</text>
</a>
</g>
</g>
<!-- Node4&#45;&gt;Node6 -->
<g id="edge5" class="edge">
<title>Node4&#45;&gt;Node6</title>
<path fill="none" stroke="midnightblue" d="M131.21,-56.44C154.12,-47.41 190.41,-33.11 216.15,-22.96"/>
<polygon fill="midnightblue" stroke="midnightblue" points="217.77,-26.09 225.79,-19.16 215.2,-19.57 217.77,-26.09"/>
</g>
<!-- Node7&#45;&gt;Node8 -->
<g id="edge7" class="edge">
<title>Node7&#45;&gt;Node8</title>
<path fill="none" stroke="midnightblue" d="M332.5,-173.98C332.5,-165.58 332.5,-152.48 332.5,-141.66"/>
<polygon fill="midnightblue" stroke="midnightblue" points="336,-141.51 332.5,-131.51 329,-141.51 336,-141.51"/>
</g>
<!-- Node8&#45;&gt;Node9 -->
<g id="edge8" class="edge">
<title>Node8&#45;&gt;Node9</title>
<path fill="none" stroke="midnightblue" d="M332.5,-112.08C332.5,-105.01 332.5,-94.86 332.5,-85.99"/>
<polygon fill="midnightblue" stroke="midnightblue" points="336,-85.75 332.5,-75.75 329,-85.75 336,-85.75"/>
</g>
<!-- Node12 -->
<g id="node12" class="node">
<title>Node12</title>
<g id="a_node12"><a xlink:title=" ">
<polygon fill="white" stroke="#bfbfbf" points="414,-56.5 414,-75.5 547,-75.5 547,-56.5 414,-56.5"/>
<text text-anchor="middle" x="480.5" y="-63.5" font-family="Helvetica,sans-Serif" font-size="10.00">Marmot/MarmotTypedefs.h</text>
</a>
</g>
</g>
<!-- Node8&#45;&gt;Node12 -->
<g id="edge12" class="edge">
<title>Node8&#45;&gt;Node12</title>
<path fill="none" stroke="midnightblue" d="M355.95,-112.44C380.63,-103.44 419.69,-89.19 447.48,-79.05"/>
<polygon fill="midnightblue" stroke="midnightblue" points="448.96,-82.23 457.16,-75.52 446.56,-75.66 448.96,-82.23"/>
</g>
<!-- Node9&#45;&gt;Node6 -->
<g id="edge11" class="edge">
<title>Node9&#45;&gt;Node6</title>
<path fill="none" stroke="midnightblue" d="M318.68,-56.32C305.27,-47.9 284.68,-34.97 268.91,-25.07"/>
<polygon fill="midnightblue" stroke="midnightblue" points="270.61,-22.01 260.28,-19.65 266.89,-27.94 270.61,-22.01"/>
</g>
<!-- Node9&#45;&gt;Node10 -->
<g id="edge9" class="edge">
<title>Node9&#45;&gt;Node10</title>
<path fill="none" stroke="midnightblue" d="M357.85,-56.44C384.77,-47.36 427.5,-32.94 457.59,-22.78"/>
<polygon fill="midnightblue" stroke="midnightblue" points="458.91,-26.03 467.27,-19.52 456.67,-19.4 458.91,-26.03"/>
</g>
<!-- Node11 -->
<g id="node11" class="node">
<title>Node11</title>
<g id="a_node11"><a xlink:title=" ">
<polygon fill="white" stroke="#bfbfbf" points="306.5,-0.5 306.5,-19.5 358.5,-19.5 358.5,-0.5 306.5,-0.5"/>
<text text-anchor="middle" x="332.5" y="-7.5" font-family="Helvetica,sans-Serif" font-size="10.00">sstream</text>
</a>
</g>
</g>
<!-- Node9&#45;&gt;Node11 -->
<g id="edge10" class="edge">
<title>Node9&#45;&gt;Node11</title>
<path fill="none" stroke="midnightblue" d="M332.5,-56.08C332.5,-49.01 332.5,-38.86 332.5,-29.99"/>
<polygon fill="midnightblue" stroke="midnightblue" points="336,-29.75 332.5,-19.75 329,-29.75 336,-29.75"/>
</g>
<!-- Node13&#45;&gt;Node8 -->
<g id="edge17" class="edge">
<title>Node13&#45;&gt;Node8</title>
<path fill="none" stroke="midnightblue" d="M461.87,-173.98C436.08,-163.81 392.79,-146.76 363.46,-135.2"/>
<polygon fill="midnightblue" stroke="midnightblue" points="364.68,-131.92 354.09,-131.51 362.12,-138.43 364.68,-131.92"/>
</g>
<!-- Node13&#45;&gt;Node9 -->
<g id="edge15" class="edge">
<title>Node13&#45;&gt;Node9</title>
<path fill="none" stroke="midnightblue" d="M473.95,-173.9C458.64,-160.26 427.5,-133.06 399.5,-112 384.94,-101.05 367.89,-89.62 354.64,-81.02"/>
<polygon fill="midnightblue" stroke="midnightblue" points="356.44,-78.02 346.14,-75.55 352.66,-83.91 356.44,-78.02"/>
</g>
<!-- Node13&#45;&gt;Node12 -->
<g id="edge16" class="edge">
<title>Node13&#45;&gt;Node12</title>
<path fill="none" stroke="midnightblue" d="M483.27,-173.82C482.79,-155.26 481.65,-111.34 480.99,-85.97"/>
<polygon fill="midnightblue" stroke="midnightblue" points="484.49,-85.69 480.73,-75.78 477.49,-85.87 484.49,-85.69"/>
</g>
</g>
</svg>
