<?xml version="1.0" encoding="UTF-8" standalone="no"?>
<!DOCTYPE svg PUBLIC "-//W3C//DTD SVG 1.1//EN"
 "http://www.w3.org/Graphics/SVG/1.1/DTD/svg11.dtd">
<!-- Generated by graphviz version 2.44.0 ()
 -->
<!-- Title: modules/core/MarmotMechanicsCore/include/Marmot/MarmotMaterialMechanical.h Pages: 1 -->
<svg width="2248pt" height="351pt"
 viewBox="0.00 0.00 2248.00 351.00" xmlns="http://www.w3.org/2000/svg" xmlns:xlink="http://www.w3.org/1999/xlink">
<g id="graph0" class="graph" transform="scale(1 1) rotate(0) translate(4 347)">
<title>modules/core/MarmotMechanicsCore/include/Marmot/MarmotMaterialMechanical.h</title>
<polygon fill="white" stroke="transparent" points="-4,4 -4,-347 2244,-347 2244,4 -4,4"/>
<!-- Node1 -->
<g id="node1" class="node">
<title>Node1</title>
<g id="a_node1"><a xlink:title=" ">
<polygon fill="#bfbfbf" stroke="black" points="896,-301.5 896,-342.5 1073,-342.5 1073,-301.5 896,-301.5"/>
<text text-anchor="start" x="904" y="-330.5" font-family="Helvetica,sans-Serif" font-size="10.00">modules/core/MarmotMechanics</text>
<text text-anchor="start" x="904" y="-319.5" font-family="Helvetica,sans-Serif" font-size="10.00">Core/include/Marmot/MarmotMaterial</text>
<text text-anchor="middle" x="984.5" y="-308.5" font-family="Helvetica,sans-Serif" font-size="10.00">Mechanical.h</text>
</a>
</g>
</g>
<!-- Node2 -->
<g id="node2" class="node">
<title>Node2</title>
<g id="a_node2"><a xlink:href="MarmotMaterialHyperElastic_8h.html" target="_top" xlink:title=" ">
<polygon fill="white" stroke="black" points="356,-223.5 356,-264.5 533,-264.5 533,-223.5 356,-223.5"/>
<text text-anchor="start" x="364" y="-252.5" font-family="Helvetica,sans-Serif" font-size="10.00">modules/core/MarmotMechanics</text>
<text text-anchor="start" x="364" y="-241.5" font-family="Helvetica,sans-Serif" font-size="10.00">Core/include/Marmot/MarmotMaterial</text>
<text text-anchor="middle" x="444.5" y="-230.5" font-family="Helvetica,sans-Serif" font-size="10.00">HyperElastic.h</text>
</a>
</g>
</g>
<!-- Node1&#45;&gt;Node2 -->
<g id="edge1" class="edge">
<title>Node1&#45;&gt;Node2</title>
<path fill="none" stroke="midnightblue" d="M885.75,-307.1C784.99,-292.92 630.04,-271.11 533.11,-257.47"/>
<polygon fill="midnightblue" stroke="midnightblue" points="885.54,-310.61 895.93,-308.54 886.52,-303.68 885.54,-310.61"/>
</g>
<!-- Node4 -->
<g id="node4" class="node">
<title>Node4</title>
<g id="a_node4"><a xlink:href="MarmotMaterialHypoElastic_8h.html" target="_top" xlink:title=" ">
<polygon fill="white" stroke="black" points="896,-223.5 896,-264.5 1073,-264.5 1073,-223.5 896,-223.5"/>
<text text-anchor="start" x="904" y="-252.5" font-family="Helvetica,sans-Serif" font-size="10.00">modules/core/MarmotMechanics</text>
<text text-anchor="start" x="904" y="-241.5" font-family="Helvetica,sans-Serif" font-size="10.00">Core/include/Marmot/MarmotMaterial</text>
<text text-anchor="middle" x="984.5" y="-230.5" font-family="Helvetica,sans-Serif" font-size="10.00">HypoElastic.h</text>
</a>
</g>
</g>
<!-- Node1&#45;&gt;Node4 -->
<g id="edge3" class="edge">
<title>Node1&#45;&gt;Node4</title>
<path fill="none" stroke="midnightblue" d="M984.5,-291.3C984.5,-282.3 984.5,-272.65 984.5,-264.51"/>
<polygon fill="midnightblue" stroke="midnightblue" points="981,-291.43 984.5,-301.43 988,-291.43 981,-291.43"/>
</g>
<!-- Node29 -->
<g id="node29" class="node">
<title>Node29</title>
<g id="a_node29"><a xlink:href="MarmotMaterialMechanical_8cpp.html" target="_top" xlink:title=" ">
<polygon fill="white" stroke="black" points="1091,-229 1091,-259 1282,-259 1282,-229 1091,-229"/>
<text text-anchor="start" x="1099" y="-247" font-family="Helvetica,sans-Serif" font-size="10.00">modules/core/MarmotMechanics</text>
<text text-anchor="middle" x="1186.5" y="-236" font-family="Helvetica,sans-Serif" font-size="10.00">Core/src/MarmotMaterialMechanical.cpp</text>
</a>
</g>
</g>
<!-- Node1&#45;&gt;Node29 -->
<g id="edge30" class="edge">
<title>Node1&#45;&gt;Node29</title>
<path fill="none" stroke="midnightblue" d="M1046.24,-297.77C1079.8,-285.15 1120.2,-269.94 1149.01,-259.11"/>
<polygon fill="midnightblue" stroke="midnightblue" points="1044.65,-294.63 1036.52,-301.43 1047.11,-301.18 1044.65,-294.63"/>
</g>
<!-- Node3 -->
<g id="node3" class="node">
<title>Node3</title>
<g id="a_node3"><a xlink:href="MarmotMaterialHyperElastic_8cpp.html" target="_top" xlink:title=" ">
<polygon fill="white" stroke="black" points="0,-151 0,-181 197,-181 197,-151 0,-151"/>
<text text-anchor="start" x="8" y="-169" font-family="Helvetica,sans-Serif" font-size="10.00">modules/core/MarmotMechanics</text>
<text text-anchor="middle" x="98.5" y="-158" font-family="Helvetica,sans-Serif" font-size="10.00">Core/src/MarmotMaterialHyperElastic.cpp</text>
</a>
</g>
</g>
<!-- Node2&#45;&gt;Node3 -->
<g id="edge2" class="edge">
<title>Node2&#45;&gt;Node3</title>
<path fill="none" stroke="midnightblue" d="M345.77,-221.31C286.85,-208.37 213.74,-192.31 162.35,-181.02"/>
<polygon fill="midnightblue" stroke="midnightblue" points="345.33,-224.8 355.85,-223.53 346.83,-217.96 345.33,-224.8"/>
</g>
<!-- Node5 -->
<g id="node5" class="node">
<title>Node5</title>
<g id="a_node5"><a xlink:href="MarmotTesting_8h.html" target="_top" xlink:title=" ">
<polygon fill="white" stroke="black" points="215,-156.5 215,-175.5 374,-175.5 374,-156.5 215,-156.5"/>
<text text-anchor="middle" x="294.5" y="-163.5" font-family="Helvetica,sans-Serif" font-size="10.00">include/Marmot/MarmotTesting.h</text>
</a>
</g>
</g>
<!-- Node4&#45;&gt;Node5 -->
<g id="edge4" class="edge">
<title>Node4&#45;&gt;Node5</title>
<path fill="none" stroke="midnightblue" d="M885.57,-237.77C765.88,-230.54 558.51,-215.06 382.5,-187 364.09,-184.06 343.78,-179.54 327.31,-175.53"/>
<polygon fill="midnightblue" stroke="midnightblue" points="885.62,-241.28 895.81,-238.39 886.04,-234.3 885.62,-241.28"/>
</g>
<!-- Node6 -->
<g id="node6" class="node">
<title>Node6</title>
<g id="a_node6"><a xlink:href="MarmotMaterialHypoElasticAD_8h.html" target="_top" xlink:title=" ">
<polygon fill="white" stroke="black" points="392,-145.5 392,-186.5 569,-186.5 569,-145.5 392,-145.5"/>
<text text-anchor="start" x="400" y="-174.5" font-family="Helvetica,sans-Serif" font-size="10.00">modules/core/MarmotMechanics</text>
<text text-anchor="start" x="400" y="-163.5" font-family="Helvetica,sans-Serif" font-size="10.00">Core/include/Marmot/MarmotMaterial</text>
<text text-anchor="middle" x="480.5" y="-152.5" font-family="Helvetica,sans-Serif" font-size="10.00">HypoElasticAD.h</text>
</a>
</g>
</g>
<!-- Node4&#45;&gt;Node6 -->
<g id="edge5" class="edge">
<title>Node4&#45;&gt;Node6</title>
<path fill="none" stroke="midnightblue" d="M885.58,-231.26C802.99,-221.01 682.27,-204.99 577.5,-187 574.7,-186.52 571.87,-186.02 569,-185.5"/>
<polygon fill="midnightblue" stroke="midnightblue" points="885.36,-234.76 895.71,-232.51 886.22,-227.81 885.36,-234.76"/>
</g>
<!-- Node14 -->
<g id="node14" class="node">
<title>Node14</title>
<g id="a_node14"><a xlink:href="MarmotMaterialHypoElastic_8cpp.html" target="_top" xlink:title=" ">
<polygon fill="white" stroke="black" points="586.5,-151 586.5,-181 780.5,-181 780.5,-151 586.5,-151"/>
<text text-anchor="start" x="594.5" y="-169" font-family="Helvetica,sans-Serif" font-size="10.00">modules/core/MarmotMechanics</text>
<text text-anchor="middle" x="683.5" y="-158" font-family="Helvetica,sans-Serif" font-size="10.00">Core/src/MarmotMaterialHypoElastic.cpp</text>
</a>
</g>
</g>
<!-- Node4&#45;&gt;Node14 -->
<g id="edge13" class="edge">
<title>Node4&#45;&gt;Node14</title>
<path fill="none" stroke="midnightblue" d="M896.98,-220.9C846.13,-208.06 783.58,-192.27 739.37,-181.11"/>
<polygon fill="midnightblue" stroke="midnightblue" points="896.43,-224.37 906.99,-223.43 898.15,-217.59 896.43,-224.37"/>
</g>
<!-- Node15 -->
<g id="node15" class="node">
<title>Node15</title>
<g id="a_node15"><a xlink:href="DisplacementFiniteElement_8h.html" target="_top" xlink:title=" ">
<polygon fill="white" stroke="black" points="798.5,-145.5 798.5,-186.5 956.5,-186.5 956.5,-145.5 798.5,-145.5"/>
<text text-anchor="start" x="806.5" y="-174.5" font-family="Helvetica,sans-Serif" font-size="10.00">modules/elements/Displacement</text>
<text text-anchor="start" x="806.5" y="-163.5" font-family="Helvetica,sans-Serif" font-size="10.00">FiniteElement/include/Marmot</text>
<text text-anchor="middle" x="877.5" y="-152.5" font-family="Helvetica,sans-Serif" font-size="10.00">/DisplacementFiniteElement.h</text>
</a>
</g>
</g>
<!-- Node4&#45;&gt;Node15 -->
<g id="edge14" class="edge">
<title>Node4&#45;&gt;Node15</title>
<path fill="none" stroke="midnightblue" d="M948.79,-217.64C934.5,-207.49 918.3,-195.98 904.96,-186.51"/>
<polygon fill="midnightblue" stroke="midnightblue" points="946.77,-220.49 956.94,-223.43 950.82,-214.78 946.77,-220.49"/>
</g>
<!-- Node17 -->
<g id="node17" class="node">
<title>Node17</title>
<g id="a_node17"><a xlink:href="B4_8h.html" target="_top" xlink:title=" ">
<polygon fill="white" stroke="black" points="1013,-151 1013,-181 1124,-181 1124,-151 1013,-151"/>
<text text-anchor="start" x="1021" y="-169" font-family="Helvetica,sans-Serif" font-size="10.00">modules/materials/B4</text>
<text text-anchor="middle" x="1068.5" y="-158" font-family="Helvetica,sans-Serif" font-size="10.00">/include/Marmot/B4.h</text>
</a>
</g>
</g>
<!-- Node4&#45;&gt;Node17 -->
<g id="edge16" class="edge">
<title>Node4&#45;&gt;Node17</title>
<path fill="none" stroke="midnightblue" d="M1013.61,-216.66C1026.76,-204.76 1041.78,-191.18 1052.78,-181.23"/>
<polygon fill="midnightblue" stroke="midnightblue" points="1011.2,-214.12 1006.13,-223.43 1015.9,-219.31 1011.2,-214.12"/>
</g>
<!-- Node18 -->
<g id="node18" class="node">
<title>Node18</title>
<g id="a_node18"><a xlink:href="B4_8cpp.html" target="_top" xlink:title=" ">
<polygon fill="white" stroke="black" points="880,-73 880,-103 991,-103 991,-73 880,-73"/>
<text text-anchor="start" x="888" y="-91" font-family="Helvetica,sans-Serif" font-size="10.00">modules/materials/B4</text>
<text text-anchor="middle" x="935.5" y="-80" font-family="Helvetica,sans-Serif" font-size="10.00">/src/B4.cpp</text>
</a>
</g>
</g>
<!-- Node4&#45;&gt;Node18 -->
<g id="edge19" class="edge">
<title>Node4&#45;&gt;Node18</title>
<path fill="none" stroke="midnightblue" d="M981.12,-213.43C978.3,-193.66 973.42,-167.28 965.5,-145 960.18,-130.04 951.35,-114.19 944.65,-103.18"/>
<polygon fill="midnightblue" stroke="midnightblue" points="977.66,-213.94 982.45,-223.39 984.6,-213.02 977.66,-213.94"/>
</g>
<!-- Node20 -->
<g id="node20" class="node">
<title>Node20</title>
<g id="a_node20"><a xlink:href="LinearElastic_8h.html" target="_top" xlink:title=" ">
<polygon fill="white" stroke="black" points="1152.5,-145.5 1152.5,-186.5 1278.5,-186.5 1278.5,-145.5 1152.5,-145.5"/>
<text text-anchor="start" x="1160.5" y="-174.5" font-family="Helvetica,sans-Serif" font-size="10.00">modules/materials/Linear</text>
<text text-anchor="start" x="1160.5" y="-163.5" font-family="Helvetica,sans-Serif" font-size="10.00">Elastic/include/Marmot</text>
<text text-anchor="middle" x="1215.5" y="-152.5" font-family="Helvetica,sans-Serif" font-size="10.00">/LinearElastic.h</text>
</a>
</g>
</g>
<!-- Node4&#45;&gt;Node20 -->
<g id="edge20" class="edge">
<title>Node4&#45;&gt;Node20</title>
<path fill="none" stroke="midnightblue" d="M1053.91,-220.17C1086.52,-209.44 1124.99,-196.78 1156.21,-186.51"/>
<polygon fill="midnightblue" stroke="midnightblue" points="1052.39,-216.98 1043.99,-223.43 1054.58,-223.63 1052.39,-216.98"/>
</g>
<!-- Node23 -->
<g id="node23" class="node">
<title>Node23</title>
<g id="a_node23"><a xlink:href="LinearViscoelasticPowerLaw_8h.html" target="_top" xlink:title=" ">
<polygon fill="white" stroke="black" points="1500.5,-145.5 1500.5,-186.5 1690.5,-186.5 1690.5,-145.5 1500.5,-145.5"/>
<text text-anchor="start" x="1508.5" y="-174.5" font-family="Helvetica,sans-Serif" font-size="10.00">modules/materials/Linear</text>
<text text-anchor="start" x="1508.5" y="-163.5" font-family="Helvetica,sans-Serif" font-size="10.00">ViscoelasticPowerLaw/include</text>
<text text-anchor="middle" x="1595.5" y="-152.5" font-family="Helvetica,sans-Serif" font-size="10.00">/Marmot/LinearViscoelasticPowerLaw.h</text>
</a>
</g>
</g>
<!-- Node4&#45;&gt;Node23 -->
<g id="edge23" class="edge">
<title>Node4&#45;&gt;Node23</title>
<path fill="none" stroke="midnightblue" d="M1083.29,-222.88C1148.76,-213.82 1371.06,-190.36 1500.47,-176.86"/>
<polygon fill="midnightblue" stroke="midnightblue" points="1082.63,-219.44 1073.24,-224.35 1083.65,-226.37 1082.63,-219.44"/>
</g>
<!-- Node24 -->
<g id="node24" class="node">
<title>Node24</title>
<g id="a_node24"><a xlink:href="LinearViscoelasticPowerLaw_8cpp.html" target="_top" xlink:title=" ">
<polygon fill="white" stroke="black" points="1513.5,-67.5 1513.5,-108.5 1677.5,-108.5 1677.5,-67.5 1513.5,-67.5"/>
<text text-anchor="start" x="1521.5" y="-96.5" font-family="Helvetica,sans-Serif" font-size="10.00">modules/materials/Linear</text>
<text text-anchor="start" x="1521.5" y="-85.5" font-family="Helvetica,sans-Serif" font-size="10.00">ViscoelasticPowerLaw/src</text>
<text text-anchor="middle" x="1595.5" y="-74.5" font-family="Helvetica,sans-Serif" font-size="10.00">/LinearViscoelasticPowerLaw.cpp</text>
</a>
</g>
</g>
<!-- Node4&#45;&gt;Node24 -->
<g id="edge26" class="edge">
<title>Node4&#45;&gt;Node24</title>
<path fill="none" stroke="midnightblue" d="M1083,-222.76C1174.55,-205.82 1200.32,-208.38 1287.5,-187 1377.97,-164.81 1480.61,-130.19 1541.61,-108.59"/>
<polygon fill="midnightblue" stroke="midnightblue" points="1082.21,-219.35 1073.03,-224.63 1083.5,-226.23 1082.21,-219.35"/>
</g>
<!-- Node26 -->
<g id="node26" class="node">
<title>Node26</title>
<g id="a_node26"><a xlink:href="VonMises_8h.html" target="_top" xlink:title=" ">
<polygon fill="white" stroke="black" points="1930,-151 1930,-181 2073,-181 2073,-151 1930,-151"/>
<text text-anchor="start" x="1938" y="-169" font-family="Helvetica,sans-Serif" font-size="10.00">modules/materials/VonMises</text>
<text text-anchor="middle" x="2001.5" y="-158" font-family="Helvetica,sans-Serif" font-size="10.00">/include/Marmot/VonMises.h</text>
</a>
</g>
</g>
<!-- Node4&#45;&gt;Node26 -->
<g id="edge27" class="edge">
<title>Node4&#45;&gt;Node26</title>
<path fill="none" stroke="midnightblue" d="M1083.42,-222.84C1356.04,-187.53 1428.25,-203.88 1699.5,-187 1778.3,-182.1 1868.63,-176.06 1929.81,-171.91"/>
<polygon fill="midnightblue" stroke="midnightblue" points="1082.68,-219.4 1073.22,-224.17 1083.59,-226.35 1082.68,-219.4"/>
</g>
<!-- Node7 -->
<g id="node7" class="node">
<title>Node7</title>
<g id="a_node7"><a xlink:href="MarmotMaterialHypoElasticAD_8cpp.html" target="_top" xlink:title=" ">
<polygon fill="white" stroke="black" points="140.5,-67.5 140.5,-108.5 316.5,-108.5 316.5,-67.5 140.5,-67.5"/>
<text text-anchor="start" x="148.5" y="-96.5" font-family="Helvetica,sans-Serif" font-size="10.00">modules/core/MarmotMechanics</text>
<text text-anchor="start" x="148.5" y="-85.5" font-family="Helvetica,sans-Serif" font-size="10.00">Core/src/MarmotMaterialHypoElastic</text>
<text text-anchor="middle" x="228.5" y="-74.5" font-family="Helvetica,sans-Serif" font-size="10.00">AD.cpp</text>
</a>
</g>
</g>
<!-- Node6&#45;&gt;Node7 -->
<g id="edge6" class="edge">
<title>Node6&#45;&gt;Node7</title>
<path fill="none" stroke="midnightblue" d="M405.7,-142.44C369.94,-131.66 327.53,-118.87 293.18,-108.51"/>
<polygon fill="midnightblue" stroke="midnightblue" points="405.02,-145.89 415.6,-145.43 407.04,-139.19 405.02,-145.89"/>
</g>
<!-- Node8 -->
<g id="node8" class="node">
<title>Node8</title>
<g id="a_node8"><a xlink:href="ADLinearElastic_8h.html" target="_top" xlink:title=" ">
<polygon fill="white" stroke="black" points="334.5,-67.5 334.5,-108.5 474.5,-108.5 474.5,-67.5 334.5,-67.5"/>
<text text-anchor="start" x="342.5" y="-96.5" font-family="Helvetica,sans-Serif" font-size="10.00">modules/materials/ADLinear</text>
<text text-anchor="start" x="342.5" y="-85.5" font-family="Helvetica,sans-Serif" font-size="10.00">Elastic/include/Marmot</text>
<text text-anchor="middle" x="404.5" y="-74.5" font-family="Helvetica,sans-Serif" font-size="10.00">/ADLinearElastic.h</text>
</a>
</g>
</g>
<!-- Node6&#45;&gt;Node8 -->
<g id="edge7" class="edge">
<title>Node6&#45;&gt;Node8</title>
<path fill="none" stroke="midnightblue" d="M453.7,-138.2C443.92,-128.42 433.04,-117.54 424.01,-108.51"/>
<polygon fill="midnightblue" stroke="midnightblue" points="451.38,-140.83 460.93,-145.43 456.33,-135.88 451.38,-140.83"/>
</g>
<!-- Node11 -->
<g id="node11" class="node">
<title>Node11</title>
<g id="a_node11"><a xlink:href="ADVonMises_8h.html" target="_top" xlink:title=" ">
<polygon fill="white" stroke="black" points="508.5,-73 508.5,-103 664.5,-103 664.5,-73 508.5,-73"/>
<text text-anchor="start" x="516.5" y="-91" font-family="Helvetica,sans-Serif" font-size="10.00">modules/materials/ADVonMises</text>
<text text-anchor="middle" x="586.5" y="-80" font-family="Helvetica,sans-Serif" font-size="10.00">/include/Marmot/ADVonMises.h</text>
</a>
</g>
</g>
<!-- Node6&#45;&gt;Node11 -->
<g id="edge10" class="edge">
<title>Node6&#45;&gt;Node11</title>
<path fill="none" stroke="midnightblue" d="M516.31,-139.32C533.12,-127.27 552.52,-113.36 566.66,-103.23"/>
<polygon fill="midnightblue" stroke="midnightblue" points="513.89,-136.76 507.8,-145.43 517.96,-142.45 513.89,-136.76"/>
</g>
<!-- Node9 -->
<g id="node9" class="node">
<title>Node9</title>
<g id="a_node9"><a xlink:href="ADLinearElastic_8cpp.html" target="_top" xlink:title=" ">
<polygon fill="white" stroke="black" points="123,-0.5 123,-30.5 276,-30.5 276,-0.5 123,-0.5"/>
<text text-anchor="start" x="131" y="-18.5" font-family="Helvetica,sans-Serif" font-size="10.00">modules/materials/ADLinear</text>
<text text-anchor="middle" x="199.5" y="-7.5" font-family="Helvetica,sans-Serif" font-size="10.00">Elastic/src/ADLinearElastic.cpp</text>
</a>
</g>
</g>
<!-- Node8&#45;&gt;Node9 -->
<g id="edge8" class="edge">
<title>Node8&#45;&gt;Node9</title>
<path fill="none" stroke="midnightblue" d="M337.9,-64.1C305.81,-53.06 268.34,-40.17 240.49,-30.6"/>
<polygon fill="midnightblue" stroke="midnightblue" points="337.07,-67.51 347.67,-67.46 339.35,-60.89 337.07,-67.51"/>
</g>
<!-- Node10 -->
<g id="node10" class="node">
<title>Node10</title>
<g id="a_node10"><a xlink:href="ADLinearElasticRegistration_8cpp.html" target="_top" xlink:title=" ">
<polygon fill="white" stroke="black" points="294,-0.5 294,-30.5 499,-30.5 499,-0.5 294,-0.5"/>
<text text-anchor="start" x="302" y="-18.5" font-family="Helvetica,sans-Serif" font-size="10.00">modules/materials/ADLinear</text>
<text text-anchor="middle" x="396.5" y="-7.5" font-family="Helvetica,sans-Serif" font-size="10.00">Elastic/src/ADLinearElasticRegistration.cpp</text>
</a>
</g>
</g>
<!-- Node8&#45;&gt;Node10 -->
<g id="edge9" class="edge">
<title>Node8&#45;&gt;Node10</title>
<path fill="none" stroke="midnightblue" d="M401.14,-57.38C400.1,-48.21 399,-38.53 398.13,-30.89"/>
<polygon fill="midnightblue" stroke="midnightblue" points="397.67,-57.82 402.27,-67.36 404.62,-57.03 397.67,-57.82"/>
</g>
<!-- Node12 -->
<g id="node12" class="node">
<title>Node12</title>
<g id="a_node12"><a xlink:href="ADVonMises_8cpp.html" target="_top" xlink:title=" ">
<polygon fill="white" stroke="black" points="517.5,-0.5 517.5,-30.5 673.5,-30.5 673.5,-0.5 517.5,-0.5"/>
<text text-anchor="start" x="525.5" y="-18.5" font-family="Helvetica,sans-Serif" font-size="10.00">modules/materials/ADVonMises</text>
<text text-anchor="middle" x="595.5" y="-7.5" font-family="Helvetica,sans-Serif" font-size="10.00">/src/ADVonMises.cpp</text>
</a>
</g>
</g>
<!-- Node11&#45;&gt;Node12 -->
<g id="edge11" class="edge">
<title>Node11&#45;&gt;Node12</title>
<path fill="none" stroke="midnightblue" d="M589.6,-62.73C590.96,-52.07 592.51,-39.91 593.68,-30.75"/>
<polygon fill="midnightblue" stroke="midnightblue" points="586.12,-62.37 588.32,-72.73 593.06,-63.26 586.12,-62.37"/>
</g>
<!-- Node13 -->
<g id="node13" class="node">
<title>Node13</title>
<g id="a_node13"><a xlink:href="ADVonMisesRegistration_8cpp.html" target="_top" xlink:title=" ">
<polygon fill="white" stroke="black" points="692,-0.5 692,-30.5 855,-30.5 855,-0.5 692,-0.5"/>
<text text-anchor="start" x="700" y="-18.5" font-family="Helvetica,sans-Serif" font-size="10.00">modules/materials/ADVonMises</text>
<text text-anchor="middle" x="773.5" y="-7.5" font-family="Helvetica,sans-Serif" font-size="10.00">/src/ADVonMisesRegistration.cpp</text>
</a>
</g>
</g>
<!-- Node11&#45;&gt;Node13 -->
<g id="edge12" class="edge">
<title>Node11&#45;&gt;Node13</title>
<path fill="none" stroke="midnightblue" d="M633.42,-69.31C665.21,-57.33 706.63,-41.71 736.17,-30.57"/>
<polygon fill="midnightblue" stroke="midnightblue" points="632.02,-66.1 623.89,-72.9 634.48,-72.65 632.02,-66.1"/>
</g>
<!-- Node16 -->
<g id="node16" class="node">
<title>Node16</title>
<g id="a_node16"><a xlink:href="DisplacementFiniteElementRegistration_8cpp.html" target="_top" xlink:title=" ">
<polygon fill="white" stroke="black" points="683,-67.5 683,-108.5 862,-108.5 862,-67.5 683,-67.5"/>
<text text-anchor="start" x="691" y="-96.5" font-family="Helvetica,sans-Serif" font-size="10.00">modules/elements/Displacement</text>
<text text-anchor="start" x="691" y="-85.5" font-family="Helvetica,sans-Serif" font-size="10.00">FiniteElement/src/DisplacementFinite</text>
<text text-anchor="middle" x="772.5" y="-74.5" font-family="Helvetica,sans-Serif" font-size="10.00">ElementRegistration.cpp</text>
</a>
</g>
</g>
<!-- Node15&#45;&gt;Node16 -->
<g id="edge15" class="edge">
<title>Node15&#45;&gt;Node16</title>
<path fill="none" stroke="midnightblue" d="M842.06,-139.35C828.14,-129.27 812.42,-117.89 799.45,-108.51"/>
<polygon fill="midnightblue" stroke="midnightblue" points="840.31,-142.4 850.46,-145.43 844.41,-136.73 840.31,-142.4"/>
</g>
<!-- Node17&#45;&gt;Node18 -->
<g id="edge17" class="edge">
<title>Node17&#45;&gt;Node18</title>
<path fill="none" stroke="midnightblue" d="M1034.94,-145.82C1011.64,-132.51 981.12,-115.07 960.07,-103.04"/>
<polygon fill="midnightblue" stroke="midnightblue" points="1033.38,-148.96 1043.8,-150.88 1036.85,-142.88 1033.38,-148.96"/>
</g>
<!-- Node19 -->
<g id="node19" class="node">
<title>Node19</title>
<g id="a_node19"><a xlink:href="B4Registration_8cpp.html" target="_top" xlink:title=" ">
<polygon fill="white" stroke="black" points="1009.5,-73 1009.5,-103 1127.5,-103 1127.5,-73 1009.5,-73"/>
<text text-anchor="start" x="1017.5" y="-91" font-family="Helvetica,sans-Serif" font-size="10.00">modules/materials/B4</text>
<text text-anchor="middle" x="1068.5" y="-80" font-family="Helvetica,sans-Serif" font-size="10.00">/src/B4Registration.cpp</text>
</a>
</g>
</g>
<!-- Node17&#45;&gt;Node19 -->
<g id="edge18" class="edge">
<title>Node17&#45;&gt;Node19</title>
<path fill="none" stroke="midnightblue" d="M1068.5,-140.59C1068.5,-128.26 1068.5,-113.72 1068.5,-103.23"/>
<polygon fill="midnightblue" stroke="midnightblue" points="1065,-140.7 1068.5,-150.7 1072,-140.71 1065,-140.7"/>
</g>
<!-- Node21 -->
<g id="node21" class="node">
<title>Node21</title>
<g id="a_node21"><a xlink:href="LinearElastic_8cpp.html" target="_top" xlink:title=" ">
<polygon fill="white" stroke="black" points="1145.5,-73 1145.5,-103 1285.5,-103 1285.5,-73 1145.5,-73"/>
<text text-anchor="start" x="1153.5" y="-91" font-family="Helvetica,sans-Serif" font-size="10.00">modules/materials/Linear</text>
<text text-anchor="middle" x="1215.5" y="-80" font-family="Helvetica,sans-Serif" font-size="10.00">Elastic/src/LinearElastic.cpp</text>
</a>
</g>
</g>
<!-- Node20&#45;&gt;Node21 -->
<g id="edge21" class="edge">
<title>Node20&#45;&gt;Node21</title>
<path fill="none" stroke="midnightblue" d="M1215.5,-135.28C1215.5,-124.25 1215.5,-112.25 1215.5,-103.23"/>
<polygon fill="midnightblue" stroke="midnightblue" points="1212,-135.43 1215.5,-145.43 1219,-135.43 1212,-135.43"/>
</g>
<!-- Node22 -->
<g id="node22" class="node">
<title>Node22</title>
<g id="a_node22"><a xlink:href="LinearElasticRegistration_8cpp.html" target="_top" xlink:title=" ">
<polygon fill="white" stroke="black" points="1304,-73 1304,-103 1495,-103 1495,-73 1304,-73"/>
<text text-anchor="start" x="1312" y="-91" font-family="Helvetica,sans-Serif" font-size="10.00">modules/materials/Linear</text>
<text text-anchor="middle" x="1399.5" y="-80" font-family="Helvetica,sans-Serif" font-size="10.00">Elastic/src/LinearElasticRegistration.cpp</text>
</a>
</g>
</g>
<!-- Node20&#45;&gt;Node22 -->
<g id="edge22" class="edge">
<title>Node20&#45;&gt;Node22</title>
<path fill="none" stroke="midnightblue" d="M1272.13,-141.61C1302.62,-129.02 1339.22,-113.9 1365.35,-103.11"/>
<polygon fill="midnightblue" stroke="midnightblue" points="1270.79,-138.38 1262.88,-145.43 1273.46,-144.85 1270.79,-138.38"/>
</g>
<!-- Node23&#45;&gt;Node24 -->
<g id="edge24" class="edge">
<title>Node23&#45;&gt;Node24</title>
<path fill="none" stroke="midnightblue" d="M1595.5,-135.3C1595.5,-126.3 1595.5,-116.65 1595.5,-108.51"/>
<polygon fill="midnightblue" stroke="midnightblue" points="1592,-135.43 1595.5,-145.43 1599,-135.43 1592,-135.43"/>
</g>
<!-- Node25 -->
<g id="node25" class="node">
<title>Node25</title>
<g id="a_node25"><a xlink:href="LinearViscoelasticPowerLawRegistration_8cpp.html" target="_top" xlink:title=" ">
<polygon fill="white" stroke="black" points="1695.5,-67.5 1695.5,-108.5 1911.5,-108.5 1911.5,-67.5 1695.5,-67.5"/>
<text text-anchor="start" x="1703.5" y="-96.5" font-family="Helvetica,sans-Serif" font-size="10.00">modules/materials/Linear</text>
<text text-anchor="start" x="1703.5" y="-85.5" font-family="Helvetica,sans-Serif" font-size="10.00">ViscoelasticPowerLaw/src</text>
<text text-anchor="middle" x="1803.5" y="-74.5" font-family="Helvetica,sans-Serif" font-size="10.00">/LinearViscoelasticPowerLawRegistration.cpp</text>
</a>
</g>
</g>
<!-- Node23&#45;&gt;Node25 -->
<g id="edge25" class="edge">
<title>Node23&#45;&gt;Node25</title>
<path fill="none" stroke="midnightblue" d="M1658.76,-141.89C1687.95,-131.22 1722.24,-118.69 1750.12,-108.51"/>
<polygon fill="midnightblue" stroke="midnightblue" points="1657.26,-138.71 1649.07,-145.43 1659.66,-145.28 1657.26,-138.71"/>
</g>
<!-- Node27 -->
<g id="node27" class="node">
<title>Node27</title>
<g id="a_node27"><a xlink:href="VonMises_8cpp.html" target="_top" xlink:title=" ">
<polygon fill="white" stroke="black" points="1930,-73 1930,-103 2073,-103 2073,-73 1930,-73"/>
<text text-anchor="start" x="1938" y="-91" font-family="Helvetica,sans-Serif" font-size="10.00">modules/materials/VonMises</text>
<text text-anchor="middle" x="2001.5" y="-80" font-family="Helvetica,sans-Serif" font-size="10.00">/src/VonMises.cpp</text>
</a>
</g>
</g>
<!-- Node26&#45;&gt;Node27 -->
<g id="edge28" class="edge">
<title>Node26&#45;&gt;Node27</title>
<path fill="none" stroke="midnightblue" d="M2001.5,-140.59C2001.5,-128.26 2001.5,-113.72 2001.5,-103.23"/>
<polygon fill="midnightblue" stroke="midnightblue" points="1998,-140.7 2001.5,-150.7 2005,-140.71 1998,-140.7"/>
</g>
<!-- Node28 -->
<g id="node28" class="node">
<title>Node28</title>
<g id="a_node28"><a xlink:href="VonMisesRegistration_8cpp.html" target="_top" xlink:title=" ">
<polygon fill="white" stroke="black" points="2091,-73 2091,-103 2240,-103 2240,-73 2091,-73"/>
<text text-anchor="start" x="2099" y="-91" font-family="Helvetica,sans-Serif" font-size="10.00">modules/materials/VonMises</text>
<text text-anchor="middle" x="2165.5" y="-80" font-family="Helvetica,sans-Serif" font-size="10.00">/src/VonMisesRegistration.cpp</text>
</a>
</g>
</g>
<!-- Node26&#45;&gt;Node28 -->
<g id="edge29" class="edge">
<title>Node26&#45;&gt;Node28</title>
<path fill="none" stroke="midnightblue" d="M2041.37,-146.52C2070.28,-133.13 2108.78,-115.28 2135.2,-103.04"/>
<polygon fill="midnightblue" stroke="midnightblue" points="2039.56,-143.5 2031.96,-150.88 2042.51,-149.85 2039.56,-143.5"/>
</g>
</g>
</svg>
