<?xml version="1.0" encoding="UTF-8" standalone="no"?>
<!DOCTYPE svg PUBLIC "-//W3C//DTD SVG 1.1//EN"
 "http://www.w3.org/Graphics/SVG/1.1/DTD/svg11.dtd">
<!-- Generated by graphviz version 2.44.0 ()
 -->
<!-- Title: modules/core/MarmotMechanicsCore/src/MarmotLowerDimensionalStress.cpp Pages: 1 -->
<svg width="1044pt" height="363pt"
 viewBox="0.00 0.00 1043.50 363.00" xmlns="http://www.w3.org/2000/svg" xmlns:xlink="http://www.w3.org/1999/xlink">
<g id="graph0" class="graph" transform="scale(1 1) rotate(0) translate(4 359)">
<title>modules/core/MarmotMechanicsCore/src/MarmotLowerDimensionalStress.cpp</title>
<polygon fill="white" stroke="transparent" points="-4,4 -4,-359 1039.5,-359 1039.5,4 -4,4"/>
<!-- Node1 -->
<g id="node1" class="node">
<title>Node1</title>
<g id="a_node1"><a xlink:title=" ">
<polygon fill="#bfbfbf" stroke="black" points="654,-313.5 654,-354.5 824,-354.5 824,-313.5 654,-313.5"/>
<text text-anchor="start" x="662" y="-342.5" font-family="Helvetica,sans-Serif" font-size="10.00">modules/core/MarmotMechanics</text>
<text text-anchor="start" x="662" y="-331.5" font-family="Helvetica,sans-Serif" font-size="10.00">Core/src/MarmotLowerDimensional</text>
<text text-anchor="middle" x="739" y="-320.5" font-family="Helvetica,sans-Serif" font-size="10.00">Stress.cpp</text>
</a>
</g>
</g>
<!-- Node2 -->
<g id="node2" class="node">
<title>Node2</title>
<g id="a_node2"><a xlink:href="MarmotLowerDimensionalStress_8h.html" target="_top" xlink:title=" ">
<polygon fill="white" stroke="black" points="545,-246.5 545,-276.5 711,-276.5 711,-246.5 545,-246.5"/>
<text text-anchor="start" x="553" y="-264.5" font-family="Helvetica,sans-Serif" font-size="10.00">Marmot/MarmotLowerDimensional</text>
<text text-anchor="middle" x="628" y="-253.5" font-family="Helvetica,sans-Serif" font-size="10.00">Stress.h</text>
</a>
</g>
</g>
<!-- Node1&#45;&gt;Node2 -->
<g id="edge1" class="edge">
<title>Node1&#45;&gt;Node2</title>
<path fill="none" stroke="midnightblue" d="M708.08,-313.36C692.74,-303.62 674.27,-291.89 658.93,-282.15"/>
<polygon fill="midnightblue" stroke="midnightblue" points="660.63,-279.08 650.31,-276.67 656.88,-284.99 660.63,-279.08"/>
</g>
<!-- Node3 -->
<g id="node3" class="node">
<title>Node3</title>
<g id="a_node3"><a xlink:href="MarmotVoigt_8h.html" target="_top" xlink:title=" ">
<polygon fill="white" stroke="black" points="664,-190.5 664,-209.5 780,-209.5 780,-190.5 664,-190.5"/>
<text text-anchor="middle" x="722" y="-197.5" font-family="Helvetica,sans-Serif" font-size="10.00">Marmot/MarmotVoigt.h</text>
</a>
</g>
</g>
<!-- Node1&#45;&gt;Node3 -->
<g id="edge25" class="edge">
<title>Node1&#45;&gt;Node3</title>
<path fill="none" stroke="midnightblue" d="M736.45,-313.24C733.21,-288.03 727.63,-244.74 724.44,-219.93"/>
<polygon fill="midnightblue" stroke="midnightblue" points="727.87,-219.16 723.12,-209.69 720.92,-220.05 727.87,-219.16"/>
</g>
<!-- Node20 -->
<g id="node20" class="node">
<title>Node20</title>
<g id="a_node20"><a xlink:href="MarmotTensor_8h.html" target="_top" xlink:title=" ">
<polygon fill="white" stroke="black" points="767.5,-252 767.5,-271 890.5,-271 890.5,-252 767.5,-252"/>
<text text-anchor="middle" x="829" y="-259" font-family="Helvetica,sans-Serif" font-size="10.00">Marmot/MarmotTensor.h</text>
</a>
</g>
</g>
<!-- Node1&#45;&gt;Node20 -->
<g id="edge20" class="edge">
<title>Node1&#45;&gt;Node20</title>
<path fill="none" stroke="midnightblue" d="M764.07,-313.36C778.58,-302 796.55,-287.92 809.9,-277.46"/>
<polygon fill="midnightblue" stroke="midnightblue" points="812.21,-280.1 817.93,-271.17 807.9,-274.58 812.21,-280.1"/>
</g>
<!-- Node2&#45;&gt;Node3 -->
<g id="edge2" class="edge">
<title>Node2&#45;&gt;Node3</title>
<path fill="none" stroke="midnightblue" d="M650.28,-246.4C665.2,-236.95 684.78,-224.56 699.71,-215.11"/>
<polygon fill="midnightblue" stroke="midnightblue" points="701.74,-217.96 708.32,-209.66 698,-212.05 701.74,-217.96"/>
</g>
<!-- Node4 -->
<g id="node4" class="node">
<title>Node4</title>
<g id="a_node4"><a xlink:href="MarmotJournal_8h.html" target="_top" xlink:title=" ">
<polygon fill="white" stroke="black" points="836.5,-134.5 836.5,-153.5 961.5,-153.5 961.5,-134.5 836.5,-134.5"/>
<text text-anchor="middle" x="899" y="-141.5" font-family="Helvetica,sans-Serif" font-size="10.00">Marmot/MarmotJournal.h</text>
</a>
</g>
</g>
<!-- Node3&#45;&gt;Node4 -->
<g id="edge3" class="edge">
<title>Node3&#45;&gt;Node4</title>
<path fill="none" stroke="midnightblue" d="M750.05,-190.44C780.08,-181.28 827.91,-166.69 861.24,-156.52"/>
<polygon fill="midnightblue" stroke="midnightblue" points="862.54,-159.78 871.09,-153.52 860.5,-153.09 862.54,-159.78"/>
</g>
<!-- Node8 -->
<g id="node8" class="node">
<title>Node8</title>
<g id="a_node8"><a xlink:href="MarmotMath_8h.html" target="_top" xlink:title=" ">
<polygon fill="white" stroke="black" points="395.5,-134.5 395.5,-153.5 510.5,-153.5 510.5,-134.5 395.5,-134.5"/>
<text text-anchor="middle" x="453" y="-141.5" font-family="Helvetica,sans-Serif" font-size="10.00">Marmot/MarmotMath.h</text>
</a>
</g>
</g>
<!-- Node3&#45;&gt;Node8 -->
<g id="edge7" class="edge">
<title>Node3&#45;&gt;Node8</title>
<path fill="none" stroke="midnightblue" d="M679.38,-190.44C632.25,-180.98 556.31,-165.74 505.54,-155.55"/>
<polygon fill="midnightblue" stroke="midnightblue" points="505.92,-152.05 495.42,-153.52 504.54,-158.92 505.92,-152.05"/>
</g>
<!-- Node11 -->
<g id="node11" class="node">
<title>Node11</title>
<g id="a_node11"><a xlink:href="MarmotTypedefs_8h.html" target="_top" xlink:title=" ">
<polygon fill="white" stroke="black" points="700.5,-73 700.5,-92 833.5,-92 833.5,-73 700.5,-73"/>
<text text-anchor="middle" x="767" y="-80" font-family="Helvetica,sans-Serif" font-size="10.00">Marmot/MarmotTypedefs.h</text>
</a>
</g>
</g>
<!-- Node3&#45;&gt;Node11 -->
<g id="edge19" class="edge">
<title>Node3&#45;&gt;Node11</title>
<path fill="none" stroke="midnightblue" d="M725.38,-190.32C732.68,-171.59 750.03,-127.05 759.87,-101.79"/>
<polygon fill="midnightblue" stroke="midnightblue" points="763.21,-102.87 763.58,-92.28 756.69,-100.33 763.21,-102.87"/>
</g>
<!-- Node5 -->
<g id="node5" class="node">
<title>Node5</title>
<g id="a_node5"><a xlink:title=" ">
<polygon fill="white" stroke="#bfbfbf" points="852,-73 852,-92 906,-92 906,-73 852,-73"/>
<text text-anchor="middle" x="879" y="-80" font-family="Helvetica,sans-Serif" font-size="10.00">iostream</text>
</a>
</g>
</g>
<!-- Node4&#45;&gt;Node5 -->
<g id="edge4" class="edge">
<title>Node4&#45;&gt;Node5</title>
<path fill="none" stroke="midnightblue" d="M896.13,-134.48C893.28,-125.99 888.82,-112.7 885.16,-101.82"/>
<polygon fill="midnightblue" stroke="midnightblue" points="888.36,-100.37 881.86,-92.01 881.73,-102.6 888.36,-100.37"/>
</g>
<!-- Node6 -->
<g id="node6" class="node">
<title>Node6</title>
<g id="a_node6"><a xlink:title=" ">
<polygon fill="white" stroke="#bfbfbf" points="924,-73 924,-92 976,-92 976,-73 924,-73"/>
<text text-anchor="middle" x="950" y="-80" font-family="Helvetica,sans-Serif" font-size="10.00">sstream</text>
</a>
</g>
</g>
<!-- Node4&#45;&gt;Node6 -->
<g id="edge5" class="edge">
<title>Node4&#45;&gt;Node6</title>
<path fill="none" stroke="midnightblue" d="M906.31,-134.48C914.03,-125.46 926.41,-111.02 936.02,-99.81"/>
<polygon fill="midnightblue" stroke="midnightblue" points="938.86,-101.88 942.71,-92.01 933.54,-97.32 938.86,-101.88"/>
</g>
<!-- Node7 -->
<g id="node7" class="node">
<title>Node7</title>
<g id="a_node7"><a xlink:title=" ">
<polygon fill="white" stroke="#bfbfbf" points="994.5,-73 994.5,-92 1035.5,-92 1035.5,-73 994.5,-73"/>
<text text-anchor="middle" x="1015" y="-80" font-family="Helvetica,sans-Serif" font-size="10.00">string</text>
</a>
</g>
</g>
<!-- Node4&#45;&gt;Node7 -->
<g id="edge6" class="edge">
<title>Node4&#45;&gt;Node7</title>
<path fill="none" stroke="midnightblue" d="M915.62,-134.48C934.92,-124.58 966.96,-108.14 989.43,-96.62"/>
<polygon fill="midnightblue" stroke="midnightblue" points="991.11,-99.69 998.41,-92.01 987.92,-93.46 991.11,-99.69"/>
</g>
<!-- Node9 -->
<g id="node9" class="node">
<title>Node9</title>
<g id="a_node9"><a xlink:href="MarmotConstants_8h.html" target="_top" xlink:title=" ">
<polygon fill="white" stroke="black" points="545.5,-73 545.5,-92 682.5,-92 682.5,-73 545.5,-73"/>
<text text-anchor="middle" x="614" y="-80" font-family="Helvetica,sans-Serif" font-size="10.00">Marmot/MarmotConstants.h</text>
</a>
</g>
</g>
<!-- Node8&#45;&gt;Node9 -->
<g id="edge8" class="edge">
<title>Node8&#45;&gt;Node9</title>
<path fill="none" stroke="midnightblue" d="M476.07,-134.48C503.68,-124.27 550.12,-107.11 581.4,-95.55"/>
<polygon fill="midnightblue" stroke="midnightblue" points="582.81,-98.76 590.98,-92.01 580.38,-92.19 582.81,-98.76"/>
</g>
<!-- Node8&#45;&gt;Node11 -->
<g id="edge10" class="edge">
<title>Node8&#45;&gt;Node11</title>
<path fill="none" stroke="midnightblue" d="M498.19,-134.48C546.06,-125.45 623.87,-110.75 691,-98 697.83,-96.7 705,-95.34 712.1,-93.99"/>
<polygon fill="midnightblue" stroke="midnightblue" points="713.23,-97.33 722.39,-92.02 711.92,-90.46 713.23,-97.33"/>
</g>
<!-- Node15 -->
<g id="node15" class="node">
<title>Node15</title>
<g id="a_node15"><a xlink:title=" ">
<polygon fill="white" stroke="#bfbfbf" points="0,-73 0,-92 122,-92 122,-73 0,-73"/>
<text text-anchor="middle" x="61" y="-80" font-family="Helvetica,sans-Serif" font-size="10.00">autodiff/forward/dual.hpp</text>
</a>
</g>
</g>
<!-- Node8&#45;&gt;Node15 -->
<g id="edge14" class="edge">
<title>Node8&#45;&gt;Node15</title>
<path fill="none" stroke="midnightblue" d="M395.24,-136.08C330.66,-128.08 223.05,-113.95 131,-98 124.18,-96.82 117.01,-95.46 109.97,-94.07"/>
<polygon fill="midnightblue" stroke="midnightblue" points="110.29,-90.56 99.79,-92.01 108.9,-97.42 110.29,-90.56"/>
</g>
<!-- Node16 -->
<g id="node16" class="node">
<title>Node16</title>
<g id="a_node16"><a xlink:title=" ">
<polygon fill="white" stroke="#bfbfbf" points="140,-73 140,-92 260,-92 260,-73 140,-73"/>
<text text-anchor="middle" x="200" y="-80" font-family="Helvetica,sans-Serif" font-size="10.00">autodiff/forward/real.hpp</text>
</a>
</g>
</g>
<!-- Node8&#45;&gt;Node16 -->
<g id="edge15" class="edge">
<title>Node8&#45;&gt;Node16</title>
<path fill="none" stroke="midnightblue" d="M416.75,-134.48C371.85,-123.92 295.29,-105.91 246.22,-94.37"/>
<polygon fill="midnightblue" stroke="midnightblue" points="246.72,-90.89 236.18,-92.01 245.11,-97.71 246.72,-90.89"/>
</g>
<!-- Node17 -->
<g id="node17" class="node">
<title>Node17</title>
<g id="a_node17"><a xlink:title=" ">
<polygon fill="white" stroke="#bfbfbf" points="278,-73 278,-92 334,-92 334,-73 278,-73"/>
<text text-anchor="middle" x="306" y="-80" font-family="Helvetica,sans-Serif" font-size="10.00">algorithm</text>
</a>
</g>
</g>
<!-- Node8&#45;&gt;Node17 -->
<g id="edge16" class="edge">
<title>Node8&#45;&gt;Node17</title>
<path fill="none" stroke="midnightblue" d="M431.94,-134.48C406.94,-124.36 365.06,-107.4 336.51,-95.85"/>
<polygon fill="midnightblue" stroke="midnightblue" points="337.61,-92.52 327.02,-92.01 334.98,-99.01 337.61,-92.52"/>
</g>
<!-- Node18 -->
<g id="node18" class="node">
<title>Node18</title>
<g id="a_node18"><a xlink:title=" ">
<polygon fill="white" stroke="#bfbfbf" points="352,-67.5 352,-97.5 456,-97.5 456,-67.5 352,-67.5"/>
<text text-anchor="start" x="360" y="-85.5" font-family="Helvetica,sans-Serif" font-size="10.00">autodiff/forward/dual</text>
<text text-anchor="middle" x="404" y="-74.5" font-family="Helvetica,sans-Serif" font-size="10.00">/dual.hpp</text>
</a>
</g>
</g>
<!-- Node8&#45;&gt;Node18 -->
<g id="edge17" class="edge">
<title>Node8&#45;&gt;Node18</title>
<path fill="none" stroke="midnightblue" d="M445.98,-134.48C439.72,-126.87 430.27,-115.4 421.92,-105.26"/>
<polygon fill="midnightblue" stroke="midnightblue" points="424.61,-103.02 415.55,-97.52 419.2,-107.47 424.61,-103.02"/>
</g>
<!-- Node19 -->
<g id="node19" class="node">
<title>Node19</title>
<g id="a_node19"><a xlink:title=" ">
<polygon fill="white" stroke="#bfbfbf" points="474.5,-73 474.5,-92 527.5,-92 527.5,-73 474.5,-73"/>
<text text-anchor="middle" x="501" y="-80" font-family="Helvetica,sans-Serif" font-size="10.00">complex</text>
</a>
</g>
</g>
<!-- Node8&#45;&gt;Node19 -->
<g id="edge18" class="edge">
<title>Node8&#45;&gt;Node19</title>
<path fill="none" stroke="midnightblue" d="M459.88,-134.48C467.15,-125.46 478.8,-111.02 487.84,-99.81"/>
<polygon fill="midnightblue" stroke="midnightblue" points="490.58,-101.99 494.14,-92.01 485.13,-97.59 490.58,-101.99"/>
</g>
<!-- Node10 -->
<g id="node10" class="node">
<title>Node10</title>
<g id="a_node10"><a xlink:title=" ">
<polygon fill="white" stroke="#bfbfbf" points="589,-6 589,-25 633,-25 633,-6 589,-6"/>
<text text-anchor="middle" x="611" y="-13" font-family="Helvetica,sans-Serif" font-size="10.00">cmath</text>
</a>
</g>
</g>
<!-- Node9&#45;&gt;Node10 -->
<g id="edge9" class="edge">
<title>Node9&#45;&gt;Node10</title>
<path fill="none" stroke="midnightblue" d="M613.6,-72.73C613.15,-63.18 612.44,-47.62 611.87,-35.28"/>
<polygon fill="midnightblue" stroke="midnightblue" points="615.36,-34.96 611.4,-25.13 608.36,-35.28 615.36,-34.96"/>
</g>
<!-- Node12 -->
<g id="node12" class="node">
<title>Node12</title>
<g id="a_node12"><a xlink:title=" ">
<polygon fill="white" stroke="#bfbfbf" points="651,-6 651,-25 715,-25 715,-6 651,-6"/>
<text text-anchor="middle" x="683" y="-13" font-family="Helvetica,sans-Serif" font-size="10.00">Eigen/Core</text>
</a>
</g>
</g>
<!-- Node11&#45;&gt;Node12 -->
<g id="edge11" class="edge">
<title>Node11&#45;&gt;Node12</title>
<path fill="none" stroke="midnightblue" d="M755.67,-72.73C741.94,-62.11 718.6,-44.05 702.08,-31.26"/>
<polygon fill="midnightblue" stroke="midnightblue" points="704.2,-28.48 694.15,-25.13 699.92,-34.02 704.2,-28.48"/>
</g>
<!-- Node13 -->
<g id="node13" class="node">
<title>Node13</title>
<g id="a_node13"><a xlink:title=" ">
<polygon fill="white" stroke="#bfbfbf" points="733.5,-6 733.5,-25 804.5,-25 804.5,-6 733.5,-6"/>
<text text-anchor="middle" x="769" y="-13" font-family="Helvetica,sans-Serif" font-size="10.00">Eigen/Dense</text>
</a>
</g>
</g>
<!-- Node11&#45;&gt;Node13 -->
<g id="edge12" class="edge">
<title>Node11&#45;&gt;Node13</title>
<path fill="none" stroke="midnightblue" d="M767.27,-72.73C767.56,-63.18 768.04,-47.62 768.42,-35.28"/>
<polygon fill="midnightblue" stroke="midnightblue" points="771.93,-35.23 768.73,-25.13 764.93,-35.01 771.93,-35.23"/>
</g>
<!-- Node14 -->
<g id="node14" class="node">
<title>Node14</title>
<g id="a_node14"><a xlink:title=" ">
<polygon fill="white" stroke="#bfbfbf" points="822.5,-0.5 822.5,-30.5 953.5,-30.5 953.5,-0.5 822.5,-0.5"/>
<text text-anchor="start" x="830.5" y="-18.5" font-family="Helvetica,sans-Serif" font-size="10.00">unsupported/Eigen/CXX11</text>
<text text-anchor="middle" x="888" y="-7.5" font-family="Helvetica,sans-Serif" font-size="10.00">/Tensor</text>
</a>
</g>
</g>
<!-- Node11&#45;&gt;Node14 -->
<g id="edge13" class="edge">
<title>Node11&#45;&gt;Node14</title>
<path fill="none" stroke="midnightblue" d="M783.32,-72.73C801.01,-63.23 829.78,-47.78 852.68,-35.47"/>
<polygon fill="midnightblue" stroke="midnightblue" points="854.62,-38.4 861.77,-30.59 851.31,-32.24 854.62,-38.4"/>
</g>
<!-- Node20&#45;&gt;Node3 -->
<g id="edge23" class="edge">
<title>Node20&#45;&gt;Node3</title>
<path fill="none" stroke="midnightblue" d="M813.67,-251.98C796.03,-242.17 766.84,-225.93 746.14,-214.42"/>
<polygon fill="midnightblue" stroke="midnightblue" points="747.74,-211.31 737.3,-209.51 744.34,-217.43 747.74,-211.31"/>
</g>
<!-- Node20&#45;&gt;Node4 -->
<g id="edge21" class="edge">
<title>Node20&#45;&gt;Node4</title>
<path fill="none" stroke="midnightblue" d="M832.76,-251.99C838.85,-238.47 851.58,-211.43 865,-190 871.17,-180.15 878.93,-169.75 885.48,-161.44"/>
<polygon fill="midnightblue" stroke="midnightblue" points="888.22,-163.62 891.75,-153.64 882.76,-159.24 888.22,-163.62"/>
</g>
<!-- Node20&#45;&gt;Node11 -->
<g id="edge22" class="edge">
<title>Node20&#45;&gt;Node11</title>
<path fill="none" stroke="midnightblue" d="M826.01,-251.96C816.5,-224.81 786.8,-140.01 773.52,-102.12"/>
<polygon fill="midnightblue" stroke="midnightblue" points="776.72,-100.65 770.11,-92.37 770.11,-102.96 776.72,-100.65"/>
</g>
<!-- Node21 -->
<g id="node21" class="node">
<title>Node21</title>
<g id="a_node21"><a xlink:title=" ">
<polygon fill="white" stroke="#bfbfbf" points="874.5,-190.5 874.5,-209.5 913.5,-209.5 913.5,-190.5 874.5,-190.5"/>
<text text-anchor="middle" x="894" y="-197.5" font-family="Helvetica,sans-Serif" font-size="10.00">utility</text>
</a>
</g>
</g>
<!-- Node20&#45;&gt;Node21 -->
<g id="edge24" class="edge">
<title>Node20&#45;&gt;Node21</title>
<path fill="none" stroke="midnightblue" d="M838.31,-251.98C848.45,-242.7 864.86,-227.67 877.25,-216.33"/>
<polygon fill="midnightblue" stroke="midnightblue" points="879.69,-218.84 884.7,-209.51 874.96,-213.68 879.69,-218.84"/>
</g>
</g>
</svg>
