<?xml version="1.0" encoding="UTF-8" standalone="no"?>
<!DOCTYPE svg PUBLIC "-//W3C//DTD SVG 1.1//EN"
 "http://www.w3.org/Graphics/SVG/1.1/DTD/svg11.dtd">
<!-- Generated by graphviz version 2.47.1 (20210421.1823)
 -->
<!-- Title: modules/core/MarmotMechanicsCore/src/MenetreyWillam.cpp Pages: 1 -->
<svg width="462pt" height="274pt"
 viewBox="0.00 0.00 462.00 274.00" xmlns="http://www.w3.org/2000/svg" xmlns:xlink="http://www.w3.org/1999/xlink">
<g id="graph0" class="graph" transform="scale(1 1) rotate(0) translate(4 270)">
<title>modules/core/MarmotMechanicsCore/src/MenetreyWillam.cpp</title>
<polygon fill="white" stroke="transparent" points="-4,4 -4,-270 458,-270 458,4 -4,4"/>
<!-- Node1 -->
<g id="node1" class="node">
<title>Node1</title>
<g id="a_node1"><a xlink:title=" ">
<polygon fill="#bfbfbf" stroke="black" points="246,-235.5 246,-265.5 404,-265.5 404,-235.5 246,-235.5"/>
<text text-anchor="start" x="254" y="-253.5" font-family="Helvetica,sans-Serif" font-size="10.00">modules/core/MarmotMechanics</text>
<text text-anchor="middle" x="325" y="-242.5" font-family="Helvetica,sans-Serif" font-size="10.00">Core/src/MenetreyWillam.cpp</text>
</a>
</g>
</g>
<!-- Node2 -->
<g id="node2" class="node">
<title>Node2</title>
<g id="a_node2"><a xlink:href="MenetreyWillam_8h.html" target="_top" xlink:title=" ">
<polygon fill="white" stroke="black" points="61.5,-179.5 61.5,-198.5 190.5,-198.5 190.5,-179.5 61.5,-179.5"/>
<text text-anchor="middle" x="126" y="-186.5" font-family="Helvetica,sans-Serif" font-size="10.00">Marmot/MenetreyWillam.h</text>
</a>
</g>
</g>
<!-- Node1&#45;&gt;Node2 -->
<g id="edge1" class="edge">
<title>Node1&#45;&gt;Node2</title>
<path fill="none" stroke="midnightblue" d="M278.09,-235.47C243.31,-225.08 196.5,-211.08 164.03,-201.37"/>
<polygon fill="midnightblue" stroke="midnightblue" points="165.03,-198.02 154.45,-198.51 163.03,-204.72 165.03,-198.02"/>
</g>
<!-- Node9 -->
<g id="node9" class="node">
<title>Node9</title>
<g id="a_node9"><a xlink:href="MarmotConstants_8h.html" target="_top" xlink:title=" ">
<polygon fill="white" stroke="black" points="208.5,-179.5 208.5,-198.5 345.5,-198.5 345.5,-179.5 208.5,-179.5"/>
<text text-anchor="middle" x="277" y="-186.5" font-family="Helvetica,sans-Serif" font-size="10.00">Marmot/MarmotConstants.h</text>
</a>
</g>
</g>
<!-- Node1&#45;&gt;Node9 -->
<g id="edge8" class="edge">
<title>Node1&#45;&gt;Node9</title>
<path fill="none" stroke="midnightblue" d="M313.62,-235.4C306.65,-226.75 297.69,-215.64 290.37,-206.58"/>
<polygon fill="midnightblue" stroke="midnightblue" points="292.99,-204.24 283.98,-198.66 287.54,-208.64 292.99,-204.24"/>
</g>
<!-- Node10 -->
<g id="node10" class="node">
<title>Node10</title>
<g id="a_node10"><a xlink:title=" ">
<polygon fill="white" stroke="#bfbfbf" points="308,-123.5 308,-142.5 352,-142.5 352,-123.5 308,-123.5"/>
<text text-anchor="middle" x="330" y="-130.5" font-family="Helvetica,sans-Serif" font-size="10.00">cmath</text>
</a>
</g>
</g>
<!-- Node1&#45;&gt;Node10 -->
<g id="edge10" class="edge">
<title>Node1&#45;&gt;Node10</title>
<path fill="none" stroke="midnightblue" d="M336.17,-235.43C343.09,-225.79 351.33,-212.37 355,-199 359.59,-182.3 351.21,-163.94 342.95,-151"/>
<polygon fill="midnightblue" stroke="midnightblue" points="345.72,-148.86 337.14,-142.65 339.97,-152.85 345.72,-148.86"/>
</g>
<!-- Node11 -->
<g id="node11" class="node">
<title>Node11</title>
<g id="a_node11"><a xlink:title=" ">
<polygon fill="white" stroke="#bfbfbf" points="402,-179.5 402,-198.5 454,-198.5 454,-179.5 402,-179.5"/>
<text text-anchor="middle" x="428" y="-186.5" font-family="Helvetica,sans-Serif" font-size="10.00">sstream</text>
</a>
</g>
</g>
<!-- Node1&#45;&gt;Node11 -->
<g id="edge11" class="edge">
<title>Node1&#45;&gt;Node11</title>
<path fill="none" stroke="midnightblue" d="M349.41,-235.4C365.92,-225.86 387.62,-213.32 404.04,-203.84"/>
<polygon fill="midnightblue" stroke="midnightblue" points="406.1,-206.69 413.01,-198.66 402.6,-200.63 406.1,-206.69"/>
</g>
<!-- Node3 -->
<g id="node3" class="node">
<title>Node3</title>
<g id="a_node3"><a xlink:href="HaighWestergaard_8h.html" target="_top" xlink:title=" ">
<polygon fill="white" stroke="black" points="48,-123.5 48,-142.5 188,-142.5 188,-123.5 48,-123.5"/>
<text text-anchor="middle" x="118" y="-130.5" font-family="Helvetica,sans-Serif" font-size="10.00">Marmot/HaighWestergaard.h</text>
</a>
</g>
</g>
<!-- Node2&#45;&gt;Node3 -->
<g id="edge2" class="edge">
<title>Node2&#45;&gt;Node3</title>
<path fill="none" stroke="midnightblue" d="M124.68,-179.08C123.62,-171.93 122.09,-161.64 120.77,-152.69"/>
<polygon fill="midnightblue" stroke="midnightblue" points="124.22,-152.13 119.3,-142.75 117.3,-153.16 124.22,-152.13"/>
</g>
<!-- Node8 -->
<g id="node8" class="node">
<title>Node8</title>
<g id="a_node8"><a xlink:title=" ">
<polygon fill="white" stroke="#bfbfbf" points="206.5,-123.5 206.5,-142.5 245.5,-142.5 245.5,-123.5 206.5,-123.5"/>
<text text-anchor="middle" x="226" y="-130.5" font-family="Helvetica,sans-Serif" font-size="10.00">utility</text>
</a>
</g>
</g>
<!-- Node2&#45;&gt;Node8 -->
<g id="edge7" class="edge">
<title>Node2&#45;&gt;Node8</title>
<path fill="none" stroke="midnightblue" d="M142.07,-179.32C157.96,-170.74 182.51,-157.49 200.96,-147.52"/>
<polygon fill="midnightblue" stroke="midnightblue" points="202.84,-150.49 209.97,-142.65 199.51,-144.33 202.84,-150.49"/>
</g>
<!-- Node4 -->
<g id="node4" class="node">
<title>Node4</title>
<g id="a_node4"><a xlink:href="MarmotTypedefs_8h.html" target="_top" xlink:title=" ">
<polygon fill="white" stroke="black" points="51.5,-67.5 51.5,-86.5 184.5,-86.5 184.5,-67.5 51.5,-67.5"/>
<text text-anchor="middle" x="118" y="-74.5" font-family="Helvetica,sans-Serif" font-size="10.00">Marmot/MarmotTypedefs.h</text>
</a>
</g>
</g>
<!-- Node3&#45;&gt;Node4 -->
<g id="edge3" class="edge">
<title>Node3&#45;&gt;Node4</title>
<path fill="none" stroke="midnightblue" d="M118,-123.08C118,-116.01 118,-105.86 118,-96.99"/>
<polygon fill="midnightblue" stroke="midnightblue" points="121.5,-96.75 118,-86.75 114.5,-96.75 121.5,-96.75"/>
</g>
<!-- Node5 -->
<g id="node5" class="node">
<title>Node5</title>
<g id="a_node5"><a xlink:title=" ">
<polygon fill="white" stroke="#bfbfbf" points="0,-6 0,-25 64,-25 64,-6 0,-6"/>
<text text-anchor="middle" x="32" y="-13" font-family="Helvetica,sans-Serif" font-size="10.00">Eigen/Core</text>
</a>
</g>
</g>
<!-- Node4&#45;&gt;Node5 -->
<g id="edge4" class="edge">
<title>Node4&#45;&gt;Node5</title>
<path fill="none" stroke="midnightblue" d="M105.68,-67.48C91.88,-57.93 69.3,-42.31 52.77,-30.87"/>
<polygon fill="midnightblue" stroke="midnightblue" points="54.51,-27.82 44.3,-25.01 50.53,-33.58 54.51,-27.82"/>
</g>
<!-- Node6 -->
<g id="node6" class="node">
<title>Node6</title>
<g id="a_node6"><a xlink:title=" ">
<polygon fill="white" stroke="#bfbfbf" points="82.5,-6 82.5,-25 153.5,-25 153.5,-6 82.5,-6"/>
<text text-anchor="middle" x="118" y="-13" font-family="Helvetica,sans-Serif" font-size="10.00">Eigen/Dense</text>
</a>
</g>
</g>
<!-- Node4&#45;&gt;Node6 -->
<g id="edge5" class="edge">
<title>Node4&#45;&gt;Node6</title>
<path fill="none" stroke="midnightblue" d="M118,-67.48C118,-59.08 118,-45.98 118,-35.16"/>
<polygon fill="midnightblue" stroke="midnightblue" points="121.5,-35.01 118,-25.01 114.5,-35.01 121.5,-35.01"/>
</g>
<!-- Node7 -->
<g id="node7" class="node">
<title>Node7</title>
<g id="a_node7"><a xlink:title=" ">
<polygon fill="white" stroke="#bfbfbf" points="171.5,-0.5 171.5,-30.5 302.5,-30.5 302.5,-0.5 171.5,-0.5"/>
<text text-anchor="start" x="179.5" y="-18.5" font-family="Helvetica,sans-Serif" font-size="10.00">unsupported/Eigen/CXX11</text>
<text text-anchor="middle" x="237" y="-7.5" font-family="Helvetica,sans-Serif" font-size="10.00">/Tensor</text>
</a>
</g>
</g>
<!-- Node4&#45;&gt;Node7 -->
<g id="edge6" class="edge">
<title>Node4&#45;&gt;Node7</title>
<path fill="none" stroke="midnightblue" d="M135.05,-67.48C151.92,-59.04 178.29,-45.86 199.98,-35.01"/>
<polygon fill="midnightblue" stroke="midnightblue" points="201.58,-38.13 208.95,-30.52 198.44,-31.86 201.58,-38.13"/>
</g>
<!-- Node9&#45;&gt;Node10 -->
<g id="edge9" class="edge">
<title>Node9&#45;&gt;Node10</title>
<path fill="none" stroke="midnightblue" d="M285.75,-179.08C293.47,-171.22 304.9,-159.57 314.22,-150.08"/>
<polygon fill="midnightblue" stroke="midnightblue" points="316.9,-152.34 321.41,-142.75 311.91,-147.44 316.9,-152.34"/>
</g>
</g>
</svg>
