<?xml version="1.0" encoding="UTF-8" standalone="no"?>
<!DOCTYPE svg PUBLIC "-//W3C//DTD SVG 1.1//EN"
 "http://www.w3.org/Graphics/SVG/1.1/DTD/svg11.dtd">
<!-- Generated by graphviz version 2.44.0 ()
 -->
<!-- Title: modules/core/MarmotMechanicsCore/src/MenetreyWillam.cpp Pages: 1 -->
<svg width="1125pt" height="397pt"
 viewBox="0.00 0.00 1125.01 397.00" xmlns="http://www.w3.org/2000/svg" xmlns:xlink="http://www.w3.org/1999/xlink">
<g id="graph0" class="graph" transform="scale(1 1) rotate(0) translate(4 393)">
<title>modules/core/MarmotMechanicsCore/src/MenetreyWillam.cpp</title>
<polygon fill="white" stroke="transparent" points="-4,4 -4,-393 1121.01,-393 1121.01,4 -4,4"/>
<!-- Node1 -->
<g id="node1" class="node">
<title>Node1</title>
<g id="a_node1"><a xlink:title=" ">
<polygon fill="#bfbfbf" stroke="black" points="857,-358.5 857,-388.5 1015,-388.5 1015,-358.5 857,-358.5"/>
<text text-anchor="start" x="865" y="-376.5" font-family="Helvetica,sans-Serif" font-size="10.00">modules/core/MarmotMechanics</text>
<text text-anchor="middle" x="936" y="-365.5" font-family="Helvetica,sans-Serif" font-size="10.00">Core/src/MenetreyWillam.cpp</text>
</a>
</g>
</g>
<!-- Node2 -->
<g id="node2" class="node">
<title>Node2</title>
<g id="a_node2"><a xlink:href="MenetreyWillam_8h.html" target="_top" xlink:title=" ">
<polygon fill="white" stroke="black" points="361.5,-302.5 361.5,-321.5 490.5,-321.5 490.5,-302.5 361.5,-302.5"/>
<text text-anchor="middle" x="426" y="-309.5" font-family="Helvetica,sans-Serif" font-size="10.00">Marmot/MenetreyWillam.h</text>
</a>
</g>
</g>
<!-- Node1&#45;&gt;Node2 -->
<g id="edge1" class="edge">
<title>Node1&#45;&gt;Node2</title>
<path fill="none" stroke="midnightblue" d="M856.87,-363.27C759.69,-351.93 596.06,-332.84 500.87,-321.74"/>
<polygon fill="midnightblue" stroke="midnightblue" points="501.08,-318.24 490.75,-320.55 500.27,-325.19 501.08,-318.24"/>
</g>
<!-- Node5 -->
<g id="node5" class="node">
<title>Node5</title>
<g id="a_node5"><a xlink:href="MarmotConstants_8h.html" target="_top" xlink:title=" ">
<polygon fill="white" stroke="black" points="749.5,-73 749.5,-92 886.5,-92 886.5,-73 749.5,-73"/>
<text text-anchor="middle" x="818" y="-80" font-family="Helvetica,sans-Serif" font-size="10.00">Marmot/MarmotConstants.h</text>
</a>
</g>
</g>
<!-- Node1&#45;&gt;Node5 -->
<g id="edge24" class="edge">
<title>Node1&#45;&gt;Node5</title>
<path fill="none" stroke="midnightblue" d="M907.67,-358.42C875.08,-339.98 826,-304.35 826,-257 826,-257 826,-257 826,-199 826,-164.78 822.46,-125 820.09,-102.18"/>
<polygon fill="midnightblue" stroke="midnightblue" points="823.57,-101.75 819.01,-92.18 816.61,-102.5 823.57,-101.75"/>
</g>
<!-- Node6 -->
<g id="node6" class="node">
<title>Node6</title>
<g id="a_node6"><a xlink:title=" ">
<polygon fill="white" stroke="#bfbfbf" points="945,-6 945,-25 989,-25 989,-6 945,-6"/>
<text text-anchor="middle" x="967" y="-13" font-family="Helvetica,sans-Serif" font-size="10.00">cmath</text>
</a>
</g>
</g>
<!-- Node1&#45;&gt;Node6 -->
<g id="edge25" class="edge">
<title>Node1&#45;&gt;Node6</title>
<path fill="none" stroke="midnightblue" d="M1002,-358.44C1053.38,-343.18 1116,-313.07 1116,-257 1116,-257 1116,-257 1116,-143 1116,-108.18 1120.03,-93.12 1097,-67 1071.86,-38.49 1028.67,-25.95 999.01,-20.52"/>
<polygon fill="midnightblue" stroke="midnightblue" points="999.58,-17.07 989.14,-18.89 998.43,-23.98 999.58,-17.07"/>
</g>
<!-- Node19 -->
<g id="node19" class="node">
<title>Node19</title>
<g id="a_node19"><a xlink:title=" ">
<polygon fill="white" stroke="#bfbfbf" points="1036,-73 1036,-92 1088,-92 1088,-73 1036,-73"/>
<text text-anchor="middle" x="1062" y="-80" font-family="Helvetica,sans-Serif" font-size="10.00">sstream</text>
</a>
</g>
</g>
<!-- Node1&#45;&gt;Node19 -->
<g id="edge26" class="edge">
<title>Node1&#45;&gt;Node19</title>
<path fill="none" stroke="midnightblue" d="M961.73,-358.44C992.23,-339.68 1039,-303.35 1039,-257 1039,-257 1039,-257 1039,-199 1039,-164.03 1049.26,-124.24 1056.08,-101.67"/>
<polygon fill="midnightblue" stroke="midnightblue" points="1059.44,-102.67 1059.09,-92.08 1052.76,-100.57 1059.44,-102.67"/>
</g>
<!-- Node3 -->
<g id="node3" class="node">
<title>Node3</title>
<g id="a_node3"><a xlink:href="HaighWestergaard_8h.html" target="_top" xlink:title=" ">
<polygon fill="white" stroke="black" points="356,-246.5 356,-265.5 496,-265.5 496,-246.5 356,-246.5"/>
<text text-anchor="middle" x="426" y="-253.5" font-family="Helvetica,sans-Serif" font-size="10.00">Marmot/HaighWestergaard.h</text>
</a>
</g>
</g>
<!-- Node2&#45;&gt;Node3 -->
<g id="edge2" class="edge">
<title>Node2&#45;&gt;Node3</title>
<path fill="none" stroke="midnightblue" d="M426,-302.08C426,-295.01 426,-284.86 426,-275.99"/>
<polygon fill="midnightblue" stroke="midnightblue" points="429.5,-275.75 426,-265.75 422.5,-275.75 429.5,-275.75"/>
</g>
<!-- Node21 -->
<g id="node21" class="node">
<title>Node21</title>
<g id="a_node21"><a xlink:title=" ">
<polygon fill="white" stroke="#bfbfbf" points="298.5,-246.5 298.5,-265.5 337.5,-265.5 337.5,-246.5 298.5,-246.5"/>
<text text-anchor="middle" x="318" y="-253.5" font-family="Helvetica,sans-Serif" font-size="10.00">utility</text>
</a>
</g>
</g>
<!-- Node2&#45;&gt;Node21 -->
<g id="edge23" class="edge">
<title>Node2&#45;&gt;Node21</title>
<path fill="none" stroke="midnightblue" d="M408.65,-302.32C391.33,-293.66 364.48,-280.24 344.5,-270.25"/>
<polygon fill="midnightblue" stroke="midnightblue" points="345.82,-267 335.31,-265.65 342.69,-273.26 345.82,-267"/>
</g>
<!-- Node4 -->
<g id="node4" class="node">
<title>Node4</title>
<g id="a_node4"><a xlink:href="MarmotMath_8h.html" target="_top" xlink:title=" ">
<polygon fill="white" stroke="black" points="368.5,-134.5 368.5,-153.5 483.5,-153.5 483.5,-134.5 368.5,-134.5"/>
<text text-anchor="middle" x="426" y="-141.5" font-family="Helvetica,sans-Serif" font-size="10.00">Marmot/MarmotMath.h</text>
</a>
</g>
</g>
<!-- Node3&#45;&gt;Node4 -->
<g id="edge3" class="edge">
<title>Node3&#45;&gt;Node4</title>
<path fill="none" stroke="midnightblue" d="M419.63,-246.23C413.74,-237.53 405.39,-223.57 402,-210 397.82,-193.28 405.83,-174.93 413.7,-162"/>
<polygon fill="midnightblue" stroke="midnightblue" points="416.63,-163.91 419.23,-153.64 410.79,-160.05 416.63,-163.91"/>
</g>
<!-- Node7 -->
<g id="node7" class="node">
<title>Node7</title>
<g id="a_node7"><a xlink:href="MarmotTypedefs_8h.html" target="_top" xlink:title=" ">
<polygon fill="white" stroke="black" points="51.5,-73 51.5,-92 184.5,-92 184.5,-73 51.5,-73"/>
<text text-anchor="middle" x="118" y="-80" font-family="Helvetica,sans-Serif" font-size="10.00">Marmot/MarmotTypedefs.h</text>
</a>
</g>
</g>
<!-- Node3&#45;&gt;Node7 -->
<g id="edge15" class="edge">
<title>Node3&#45;&gt;Node7</title>
<path fill="none" stroke="midnightblue" d="M410.73,-246.5C360.95,-218.78 203.14,-130.91 142.27,-97.01"/>
<polygon fill="midnightblue" stroke="midnightblue" points="143.81,-93.86 133.37,-92.06 140.4,-99.98 143.81,-93.86"/>
</g>
<!-- Node16 -->
<g id="node16" class="node">
<title>Node16</title>
<g id="a_node16"><a xlink:href="MarmotVoigt_8h.html" target="_top" xlink:title=" ">
<polygon fill="white" stroke="black" points="411,-190.5 411,-209.5 527,-209.5 527,-190.5 411,-190.5"/>
<text text-anchor="middle" x="469" y="-197.5" font-family="Helvetica,sans-Serif" font-size="10.00">Marmot/MarmotVoigt.h</text>
</a>
</g>
</g>
<!-- Node3&#45;&gt;Node16 -->
<g id="edge16" class="edge">
<title>Node3&#45;&gt;Node16</title>
<path fill="none" stroke="midnightblue" d="M433.1,-246.08C439.24,-238.38 448.27,-227.03 455.74,-217.65"/>
<polygon fill="midnightblue" stroke="midnightblue" points="458.54,-219.75 462.03,-209.75 453.06,-215.39 458.54,-219.75"/>
</g>
<!-- Node4&#45;&gt;Node5 -->
<g id="edge4" class="edge">
<title>Node4&#45;&gt;Node5</title>
<path fill="none" stroke="midnightblue" d="M483.69,-135.46C546.76,-127.05 650.75,-112.69 740,-98 747.74,-96.73 755.9,-95.3 763.9,-93.86"/>
<polygon fill="midnightblue" stroke="midnightblue" points="764.71,-97.27 773.92,-92.02 763.45,-90.38 764.71,-97.27"/>
</g>
<!-- Node4&#45;&gt;Node7 -->
<g id="edge6" class="edge">
<title>Node4&#45;&gt;Node7</title>
<path fill="none" stroke="midnightblue" d="M381.87,-134.48C326.52,-123.78 231.66,-105.46 172.03,-93.94"/>
<polygon fill="midnightblue" stroke="midnightblue" points="172.53,-90.47 162.05,-92.01 171.2,-97.34 172.53,-90.47"/>
</g>
<!-- Node11 -->
<g id="node11" class="node">
<title>Node11</title>
<g id="a_node11"><a xlink:title=" ">
<polygon fill="white" stroke="#bfbfbf" points="471,-73 471,-92 593,-92 593,-73 471,-73"/>
<text text-anchor="middle" x="532" y="-80" font-family="Helvetica,sans-Serif" font-size="10.00">autodiff/forward/dual.hpp</text>
</a>
</g>
</g>
<!-- Node4&#45;&gt;Node11 -->
<g id="edge10" class="edge">
<title>Node4&#45;&gt;Node11</title>
<path fill="none" stroke="midnightblue" d="M441.19,-134.48C458.66,-124.67 487.58,-108.43 508.08,-96.92"/>
<polygon fill="midnightblue" stroke="midnightblue" points="509.83,-99.96 516.84,-92.01 506.41,-93.85 509.83,-99.96"/>
</g>
<!-- Node12 -->
<g id="node12" class="node">
<title>Node12</title>
<g id="a_node12"><a xlink:title=" ">
<polygon fill="white" stroke="#bfbfbf" points="611,-73 611,-92 731,-92 731,-73 611,-73"/>
<text text-anchor="middle" x="671" y="-80" font-family="Helvetica,sans-Serif" font-size="10.00">autodiff/forward/real.hpp</text>
</a>
</g>
</g>
<!-- Node4&#45;&gt;Node12 -->
<g id="edge11" class="edge">
<title>Node4&#45;&gt;Node12</title>
<path fill="none" stroke="midnightblue" d="M461.1,-134.48C504.49,-123.94 578.41,-105.99 625.95,-94.44"/>
<polygon fill="midnightblue" stroke="midnightblue" points="627.07,-97.77 635.96,-92.01 625.42,-90.97 627.07,-97.77"/>
</g>
<!-- Node13 -->
<g id="node13" class="node">
<title>Node13</title>
<g id="a_node13"><a xlink:title=" ">
<polygon fill="white" stroke="#bfbfbf" points="203,-73 203,-92 259,-92 259,-73 203,-73"/>
<text text-anchor="middle" x="231" y="-80" font-family="Helvetica,sans-Serif" font-size="10.00">algorithm</text>
</a>
</g>
</g>
<!-- Node4&#45;&gt;Node13 -->
<g id="edge12" class="edge">
<title>Node4&#45;&gt;Node13</title>
<path fill="none" stroke="midnightblue" d="M392.42,-134.44C360.24,-126 310.43,-112.32 268,-98 265.88,-97.28 263.69,-96.51 261.5,-95.72"/>
<polygon fill="midnightblue" stroke="midnightblue" points="262.59,-92.39 252,-92.13 260.12,-98.94 262.59,-92.39"/>
</g>
<!-- Node14 -->
<g id="node14" class="node">
<title>Node14</title>
<g id="a_node14"><a xlink:title=" ">
<polygon fill="white" stroke="#bfbfbf" points="277,-67.5 277,-97.5 381,-97.5 381,-67.5 277,-67.5"/>
<text text-anchor="start" x="285" y="-85.5" font-family="Helvetica,sans-Serif" font-size="10.00">autodiff/forward/dual</text>
<text text-anchor="middle" x="329" y="-74.5" font-family="Helvetica,sans-Serif" font-size="10.00">/dual.hpp</text>
</a>
</g>
</g>
<!-- Node4&#45;&gt;Node14 -->
<g id="edge13" class="edge">
<title>Node4&#45;&gt;Node14</title>
<path fill="none" stroke="midnightblue" d="M412.1,-134.48C398.72,-126.27 378,-113.56 360.6,-102.88"/>
<polygon fill="midnightblue" stroke="midnightblue" points="362.22,-99.77 351.86,-97.52 358.56,-105.74 362.22,-99.77"/>
</g>
<!-- Node15 -->
<g id="node15" class="node">
<title>Node15</title>
<g id="a_node15"><a xlink:title=" ">
<polygon fill="white" stroke="#bfbfbf" points="399.5,-73 399.5,-92 452.5,-92 452.5,-73 399.5,-73"/>
<text text-anchor="middle" x="426" y="-80" font-family="Helvetica,sans-Serif" font-size="10.00">complex</text>
</a>
</g>
</g>
<!-- Node4&#45;&gt;Node15 -->
<g id="edge14" class="edge">
<title>Node4&#45;&gt;Node15</title>
<path fill="none" stroke="midnightblue" d="M426,-134.48C426,-126.08 426,-112.98 426,-102.16"/>
<polygon fill="midnightblue" stroke="midnightblue" points="429.5,-102.01 426,-92.01 422.5,-102.01 429.5,-102.01"/>
</g>
<!-- Node5&#45;&gt;Node6 -->
<g id="edge5" class="edge">
<title>Node5&#45;&gt;Node6</title>
<path fill="none" stroke="midnightblue" d="M837.79,-72.87C863.39,-61.7 908.21,-42.15 937.75,-29.26"/>
<polygon fill="midnightblue" stroke="midnightblue" points="939.37,-32.37 947.13,-25.17 936.57,-25.96 939.37,-32.37"/>
</g>
<!-- Node8 -->
<g id="node8" class="node">
<title>Node8</title>
<g id="a_node8"><a xlink:title=" ">
<polygon fill="white" stroke="#bfbfbf" points="0,-6 0,-25 64,-25 64,-6 0,-6"/>
<text text-anchor="middle" x="32" y="-13" font-family="Helvetica,sans-Serif" font-size="10.00">Eigen/Core</text>
</a>
</g>
</g>
<!-- Node7&#45;&gt;Node8 -->
<g id="edge7" class="edge">
<title>Node7&#45;&gt;Node8</title>
<path fill="none" stroke="midnightblue" d="M106.4,-72.73C92.35,-62.11 68.45,-44.05 51.53,-31.26"/>
<polygon fill="midnightblue" stroke="midnightblue" points="53.5,-28.36 43.41,-25.13 49.28,-33.95 53.5,-28.36"/>
</g>
<!-- Node9 -->
<g id="node9" class="node">
<title>Node9</title>
<g id="a_node9"><a xlink:title=" ">
<polygon fill="white" stroke="#bfbfbf" points="82.5,-6 82.5,-25 153.5,-25 153.5,-6 82.5,-6"/>
<text text-anchor="middle" x="118" y="-13" font-family="Helvetica,sans-Serif" font-size="10.00">Eigen/Dense</text>
</a>
</g>
</g>
<!-- Node7&#45;&gt;Node9 -->
<g id="edge8" class="edge">
<title>Node7&#45;&gt;Node9</title>
<path fill="none" stroke="midnightblue" d="M118,-72.73C118,-63.18 118,-47.62 118,-35.28"/>
<polygon fill="midnightblue" stroke="midnightblue" points="121.5,-35.13 118,-25.13 114.5,-35.13 121.5,-35.13"/>
</g>
<!-- Node10 -->
<g id="node10" class="node">
<title>Node10</title>
<g id="a_node10"><a xlink:title=" ">
<polygon fill="white" stroke="#bfbfbf" points="171.5,-0.5 171.5,-30.5 302.5,-30.5 302.5,-0.5 171.5,-0.5"/>
<text text-anchor="start" x="179.5" y="-18.5" font-family="Helvetica,sans-Serif" font-size="10.00">unsupported/Eigen/CXX11</text>
<text text-anchor="middle" x="237" y="-7.5" font-family="Helvetica,sans-Serif" font-size="10.00">/Tensor</text>
</a>
</g>
</g>
<!-- Node7&#45;&gt;Node10 -->
<g id="edge9" class="edge">
<title>Node7&#45;&gt;Node10</title>
<path fill="none" stroke="midnightblue" d="M134.05,-72.73C151.45,-63.23 179.74,-47.78 202.27,-35.47"/>
<polygon fill="midnightblue" stroke="midnightblue" points="204.11,-38.45 211.21,-30.59 200.75,-32.31 204.11,-38.45"/>
</g>
<!-- Node16&#45;&gt;Node4 -->
<g id="edge21" class="edge">
<title>Node16&#45;&gt;Node4</title>
<path fill="none" stroke="midnightblue" d="M461.9,-190.08C455.76,-182.38 446.73,-171.03 439.26,-161.65"/>
<polygon fill="midnightblue" stroke="midnightblue" points="441.94,-159.39 432.97,-153.75 436.46,-163.75 441.94,-159.39"/>
</g>
<!-- Node16&#45;&gt;Node7 -->
<g id="edge22" class="edge">
<title>Node16&#45;&gt;Node7</title>
<path fill="none" stroke="midnightblue" d="M442.9,-190.41C380.97,-170.03 225,-118.71 154.09,-95.38"/>
<polygon fill="midnightblue" stroke="midnightblue" points="154.86,-91.94 144.27,-92.14 152.67,-98.59 154.86,-91.94"/>
</g>
<!-- Node17 -->
<g id="node17" class="node">
<title>Node17</title>
<g id="a_node17"><a xlink:href="MarmotJournal_8h.html" target="_top" xlink:title=" ">
<polygon fill="white" stroke="black" points="873.5,-134.5 873.5,-153.5 998.5,-153.5 998.5,-134.5 873.5,-134.5"/>
<text text-anchor="middle" x="936" y="-141.5" font-family="Helvetica,sans-Serif" font-size="10.00">Marmot/MarmotJournal.h</text>
</a>
</g>
</g>
<!-- Node16&#45;&gt;Node17 -->
<g id="edge17" class="edge">
<title>Node16&#45;&gt;Node17</title>
<path fill="none" stroke="midnightblue" d="M527.2,-192.27C612.28,-182.43 770.53,-164.13 863.2,-153.42"/>
<polygon fill="midnightblue" stroke="midnightblue" points="863.8,-156.87 873.33,-152.25 863,-149.92 863.8,-156.87"/>
</g>
<!-- Node18 -->
<g id="node18" class="node">
<title>Node18</title>
<g id="a_node18"><a xlink:title=" ">
<polygon fill="white" stroke="#bfbfbf" points="964,-73 964,-92 1018,-92 1018,-73 964,-73"/>
<text text-anchor="middle" x="991" y="-80" font-family="Helvetica,sans-Serif" font-size="10.00">iostream</text>
</a>
</g>
</g>
<!-- Node17&#45;&gt;Node18 -->
<g id="edge18" class="edge">
<title>Node17&#45;&gt;Node18</title>
<path fill="none" stroke="midnightblue" d="M943.88,-134.48C952.29,-125.37 965.82,-110.74 976.23,-99.48"/>
<polygon fill="midnightblue" stroke="midnightblue" points="978.92,-101.73 983.13,-92.01 973.78,-96.98 978.92,-101.73"/>
</g>
<!-- Node17&#45;&gt;Node19 -->
<g id="edge19" class="edge">
<title>Node17&#45;&gt;Node19</title>
<path fill="none" stroke="midnightblue" d="M954.05,-134.48C975.2,-124.49 1010.44,-107.85 1034.88,-96.31"/>
<polygon fill="midnightblue" stroke="midnightblue" points="1036.43,-99.44 1043.98,-92.01 1033.44,-93.11 1036.43,-99.44"/>
</g>
<!-- Node20 -->
<g id="node20" class="node">
<title>Node20</title>
<g id="a_node20"><a xlink:title=" ">
<polygon fill="white" stroke="#bfbfbf" points="904.5,-73 904.5,-92 945.5,-92 945.5,-73 904.5,-73"/>
<text text-anchor="middle" x="925" y="-80" font-family="Helvetica,sans-Serif" font-size="10.00">string</text>
</a>
</g>
</g>
<!-- Node17&#45;&gt;Node20 -->
<g id="edge20" class="edge">
<title>Node17&#45;&gt;Node20</title>
<path fill="none" stroke="midnightblue" d="M934.42,-134.48C932.87,-126.08 930.45,-112.98 928.45,-102.16"/>
<polygon fill="midnightblue" stroke="midnightblue" points="931.83,-101.21 926.57,-92.01 924.95,-102.48 931.83,-101.21"/>
</g>
</g>
</svg>
