<?xml version="1.0" encoding="UTF-8" standalone="no"?>
<!DOCTYPE svg PUBLIC "-//W3C//DTD SVG 1.1//EN"
 "http://www.w3.org/Graphics/SVG/1.1/DTD/svg11.dtd">
<!-- Generated by graphviz version 2.47.1 (20210421.1823)
 -->
<!-- Title: modules/core/MarmotMechanicsCore/src/NumericalDifferentiation.cpp Pages: 1 -->
<svg width="399pt" height="218pt"
 viewBox="0.00 0.00 399.00 218.00" xmlns="http://www.w3.org/2000/svg" xmlns:xlink="http://www.w3.org/1999/xlink">
<g id="graph0" class="graph" transform="scale(1 1) rotate(0) translate(4 214)">
<title>modules/core/MarmotMechanicsCore/src/NumericalDifferentiation.cpp</title>
<polygon fill="white" stroke="transparent" points="-4,4 -4,-214 395,-214 395,4 -4,4"/>
<!-- Node1 -->
<g id="node1" class="node">
<title>Node1</title>
<g id="a_node1"><a xlink:title=" ">
<polygon fill="#bfbfbf" stroke="black" points="148.5,-179.5 148.5,-209.5 326.5,-209.5 326.5,-179.5 148.5,-179.5"/>
<text text-anchor="start" x="156.5" y="-197.5" font-family="Helvetica,sans-Serif" font-size="10.00">modules/core/MarmotMechanics</text>
<text text-anchor="middle" x="237.5" y="-186.5" font-family="Helvetica,sans-Serif" font-size="10.00">Core/src/NumericalDifferentiation.cpp</text>
</a>
</g>
</g>
<!-- Node2 -->
<g id="node2" class="node">
<title>Node2</title>
<g id="a_node2"><a xlink:href="MarmotConstants_8h.html" target="_top" xlink:title=" ">
<polygon fill="white" stroke="black" points="0,-123.5 0,-142.5 137,-142.5 137,-123.5 0,-123.5"/>
<text text-anchor="middle" x="68.5" y="-130.5" font-family="Helvetica,sans-Serif" font-size="10.00">Marmot/MarmotConstants.h</text>
</a>
</g>
</g>
<!-- Node1&#45;&gt;Node2 -->
<g id="edge1" class="edge">
<title>Node1&#45;&gt;Node2</title>
<path fill="none" stroke="midnightblue" d="M197.45,-179.4C168.59,-169.24 130.05,-155.67 102.65,-146.02"/>
<polygon fill="midnightblue" stroke="midnightblue" points="103.69,-142.68 93.09,-142.66 101.36,-149.28 103.69,-142.68"/>
</g>
<!-- Node4 -->
<g id="node4" class="node">
<title>Node4</title>
<g id="a_node4"><a xlink:href="NumericalDifferentiation_8h.html" target="_top" xlink:title=" ">
<polygon fill="white" stroke="black" points="155.5,-123.5 155.5,-142.5 319.5,-142.5 319.5,-123.5 155.5,-123.5"/>
<text text-anchor="middle" x="237.5" y="-130.5" font-family="Helvetica,sans-Serif" font-size="10.00">Marmot/NumericalDifferentiation.h</text>
</a>
</g>
</g>
<!-- Node1&#45;&gt;Node4 -->
<g id="edge3" class="edge">
<title>Node1&#45;&gt;Node4</title>
<path fill="none" stroke="midnightblue" d="M237.5,-179.4C237.5,-171.47 237.5,-161.46 237.5,-152.86"/>
<polygon fill="midnightblue" stroke="midnightblue" points="241,-152.66 237.5,-142.66 234,-152.66 241,-152.66"/>
</g>
<!-- Node10 -->
<g id="node10" class="node">
<title>Node10</title>
<g id="a_node10"><a xlink:title=" ">
<polygon fill="white" stroke="#bfbfbf" points="338,-123.5 338,-142.5 391,-142.5 391,-123.5 338,-123.5"/>
<text text-anchor="middle" x="364.5" y="-130.5" font-family="Helvetica,sans-Serif" font-size="10.00">complex</text>
</a>
</g>
</g>
<!-- Node1&#45;&gt;Node10 -->
<g id="edge9" class="edge">
<title>Node1&#45;&gt;Node10</title>
<path fill="none" stroke="midnightblue" d="M267.6,-179.4C288.62,-169.55 316.47,-156.5 336.92,-146.92"/>
<polygon fill="midnightblue" stroke="midnightblue" points="338.45,-150.07 346.02,-142.66 335.48,-143.73 338.45,-150.07"/>
</g>
<!-- Node3 -->
<g id="node3" class="node">
<title>Node3</title>
<g id="a_node3"><a xlink:title=" ">
<polygon fill="white" stroke="#bfbfbf" points="46.5,-67.5 46.5,-86.5 90.5,-86.5 90.5,-67.5 46.5,-67.5"/>
<text text-anchor="middle" x="68.5" y="-74.5" font-family="Helvetica,sans-Serif" font-size="10.00">cmath</text>
</a>
</g>
</g>
<!-- Node2&#45;&gt;Node3 -->
<g id="edge2" class="edge">
<title>Node2&#45;&gt;Node3</title>
<path fill="none" stroke="midnightblue" d="M68.5,-123.08C68.5,-116.01 68.5,-105.86 68.5,-96.99"/>
<polygon fill="midnightblue" stroke="midnightblue" points="72,-96.75 68.5,-86.75 65,-96.75 72,-96.75"/>
</g>
<!-- Node5 -->
<g id="node5" class="node">
<title>Node5</title>
<g id="a_node5"><a xlink:href="MarmotTypedefs_8h.html" target="_top" xlink:title=" ">
<polygon fill="white" stroke="black" points="140,-67.5 140,-86.5 273,-86.5 273,-67.5 140,-67.5"/>
<text text-anchor="middle" x="206.5" y="-74.5" font-family="Helvetica,sans-Serif" font-size="10.00">Marmot/MarmotTypedefs.h</text>
</a>
</g>
</g>
<!-- Node4&#45;&gt;Node5 -->
<g id="edge4" class="edge">
<title>Node4&#45;&gt;Node5</title>
<path fill="none" stroke="midnightblue" d="M232.38,-123.08C228.09,-115.61 221.84,-104.72 216.56,-95.52"/>
<polygon fill="midnightblue" stroke="midnightblue" points="219.54,-93.68 211.52,-86.75 213.47,-97.17 219.54,-93.68"/>
</g>
<!-- Node9 -->
<g id="node9" class="node">
<title>Node9</title>
<g id="a_node9"><a xlink:title=" ">
<polygon fill="white" stroke="#bfbfbf" points="291,-67.5 291,-86.5 350,-86.5 350,-67.5 291,-67.5"/>
<text text-anchor="middle" x="320.5" y="-74.5" font-family="Helvetica,sans-Serif" font-size="10.00">functional</text>
</a>
</g>
</g>
<!-- Node4&#45;&gt;Node9 -->
<g id="edge8" class="edge">
<title>Node4&#45;&gt;Node9</title>
<path fill="none" stroke="midnightblue" d="M250.84,-123.32C263.66,-114.98 283.28,-102.21 298.44,-92.35"/>
<polygon fill="midnightblue" stroke="midnightblue" points="300.72,-95.04 307.2,-86.65 296.91,-89.17 300.72,-95.04"/>
</g>
<!-- Node6 -->
<g id="node6" class="node">
<title>Node6</title>
<g id="a_node6"><a xlink:title=" ">
<polygon fill="white" stroke="#bfbfbf" points="88.5,-6 88.5,-25 152.5,-25 152.5,-6 88.5,-6"/>
<text text-anchor="middle" x="120.5" y="-13" font-family="Helvetica,sans-Serif" font-size="10.00">Eigen/Core</text>
</a>
</g>
</g>
<!-- Node5&#45;&gt;Node6 -->
<g id="edge5" class="edge">
<title>Node5&#45;&gt;Node6</title>
<path fill="none" stroke="midnightblue" d="M194.18,-67.48C180.38,-57.93 157.8,-42.31 141.27,-30.87"/>
<polygon fill="midnightblue" stroke="midnightblue" points="143.01,-27.82 132.8,-25.01 139.03,-33.58 143.01,-27.82"/>
</g>
<!-- Node7 -->
<g id="node7" class="node">
<title>Node7</title>
<g id="a_node7"><a xlink:title=" ">
<polygon fill="white" stroke="#bfbfbf" points="171,-6 171,-25 242,-25 242,-6 171,-6"/>
<text text-anchor="middle" x="206.5" y="-13" font-family="Helvetica,sans-Serif" font-size="10.00">Eigen/Dense</text>
</a>
</g>
</g>
<!-- Node5&#45;&gt;Node7 -->
<g id="edge6" class="edge">
<title>Node5&#45;&gt;Node7</title>
<path fill="none" stroke="midnightblue" d="M206.5,-67.48C206.5,-59.08 206.5,-45.98 206.5,-35.16"/>
<polygon fill="midnightblue" stroke="midnightblue" points="210,-35.01 206.5,-25.01 203,-35.01 210,-35.01"/>
</g>
<!-- Node8 -->
<g id="node8" class="node">
<title>Node8</title>
<g id="a_node8"><a xlink:title=" ">
<polygon fill="white" stroke="#bfbfbf" points="260,-0.5 260,-30.5 391,-30.5 391,-0.5 260,-0.5"/>
<text text-anchor="start" x="268" y="-18.5" font-family="Helvetica,sans-Serif" font-size="10.00">unsupported/Eigen/CXX11</text>
<text text-anchor="middle" x="325.5" y="-7.5" font-family="Helvetica,sans-Serif" font-size="10.00">/Tensor</text>
</a>
</g>
</g>
<!-- Node5&#45;&gt;Node8 -->
<g id="edge7" class="edge">
<title>Node5&#45;&gt;Node8</title>
<path fill="none" stroke="midnightblue" d="M223.55,-67.48C240.42,-59.04 266.79,-45.86 288.48,-35.01"/>
<polygon fill="midnightblue" stroke="midnightblue" points="290.08,-38.13 297.45,-30.52 286.94,-31.86 290.08,-38.13"/>
</g>
</g>
</svg>
