<?xml version="1.0" encoding="UTF-8" standalone="no"?>
<!DOCTYPE svg PUBLIC "-//W3C//DTD SVG 1.1//EN"
 "http://www.w3.org/Graphics/SVG/1.1/DTD/svg11.dtd">
<!-- Generated by graphviz version 2.46.0 (20210122.1329)
 -->
<!-- Title: modules/core/MarmotMechanicsCore/include/Marmot/PerezFougetSubstepperTime.h Pages: 1 -->
<svg width="513pt" height="173pt"
 viewBox="0.00 0.00 512.50 173.00" xmlns="http://www.w3.org/2000/svg" xmlns:xlink="http://www.w3.org/1999/xlink">
<g id="graph0" class="graph" transform="scale(1 1) rotate(0) translate(4 169)">
<title>modules/core/MarmotMechanicsCore/include/Marmot/PerezFougetSubstepperTime.h</title>
<polygon fill="white" stroke="transparent" points="-4,4 -4,-169 508.5,-169 508.5,4 -4,4"/>
<!-- Node1 -->
<g id="node1" class="node">
<title>Node1</title>
<g id="a_node1"><a xlink:title=" ">
<polygon fill="#bfbfbf" stroke="black" points="186,-123.5 186,-164.5 350,-164.5 350,-123.5 186,-123.5"/>
<text text-anchor="start" x="194" y="-152.5" font-family="Helvetica,sans-Serif" font-size="10.00">modules/core/MarmotMechanics</text>
<text text-anchor="start" x="194" y="-141.5" font-family="Helvetica,sans-Serif" font-size="10.00">Core/include/Marmot/PerezFouget</text>
<text text-anchor="middle" x="268" y="-130.5" font-family="Helvetica,sans-Serif" font-size="10.00">SubstepperTime.h</text>
</a>
</g>
</g>
<!-- Node2 -->
<g id="node2" class="node">
<title>Node2</title>
<g id="a_node2"><a xlink:href="MarmotTypedefs_8h.html" target="_top" xlink:title=" ">
<polygon fill="white" stroke="black" points="128.5,-67.5 128.5,-86.5 261.5,-86.5 261.5,-67.5 128.5,-67.5"/>
<text text-anchor="middle" x="195" y="-74.5" font-family="Helvetica,sans-Serif" font-size="10.00">Marmot/MarmotTypedefs.h</text>
</a>
</g>
</g>
<!-- Node1&#45;&gt;Node2 -->
<g id="edge1" class="edge">
<title>Node1&#45;&gt;Node2</title>
<path fill="none" stroke="midnightblue" d="M246.1,-123.5C235.34,-113.92 222.55,-102.53 212.46,-93.54"/>
<polygon fill="midnightblue" stroke="midnightblue" points="214.51,-90.69 204.72,-86.65 209.86,-95.92 214.51,-90.69"/>
</g>
<!-- Node6 -->
<g id="node6" class="node">
<title>Node6</title>
<g id="a_node6"><a xlink:href="MarmotJournal_8h.html" target="_top" xlink:title=" ">
<polygon fill="white" stroke="black" points="320.5,-67.5 320.5,-86.5 445.5,-86.5 445.5,-67.5 320.5,-67.5"/>
<text text-anchor="middle" x="383" y="-74.5" font-family="Helvetica,sans-Serif" font-size="10.00">Marmot/MarmotJournal.h</text>
</a>
</g>
</g>
<!-- Node1&#45;&gt;Node6 -->
<g id="edge5" class="edge">
<title>Node1&#45;&gt;Node6</title>
<path fill="none" stroke="midnightblue" d="M302.5,-123.5C320.64,-113.24 342.44,-100.93 358.77,-91.69"/>
<polygon fill="midnightblue" stroke="midnightblue" points="360.71,-94.62 367.69,-86.65 357.26,-88.53 360.71,-94.62"/>
</g>
<!-- Node3 -->
<g id="node3" class="node">
<title>Node3</title>
<g id="a_node3"><a xlink:title=" ">
<polygon fill="white" stroke="#bfbfbf" points="0,-6 0,-25 64,-25 64,-6 0,-6"/>
<text text-anchor="middle" x="32" y="-13" font-family="Helvetica,sans-Serif" font-size="10.00">Eigen/Core</text>
</a>
</g>
</g>
<!-- Node2&#45;&gt;Node3 -->
<g id="edge2" class="edge">
<title>Node2&#45;&gt;Node3</title>
<path fill="none" stroke="midnightblue" d="M171.65,-67.48C143.69,-57.27 96.67,-40.11 65.01,-28.55"/>
<polygon fill="midnightblue" stroke="midnightblue" points="65.9,-25.15 55.31,-25.01 63.5,-31.73 65.9,-25.15"/>
</g>
<!-- Node4 -->
<g id="node4" class="node">
<title>Node4</title>
<g id="a_node4"><a xlink:title=" ">
<polygon fill="white" stroke="#bfbfbf" points="82.5,-6 82.5,-25 153.5,-25 153.5,-6 82.5,-6"/>
<text text-anchor="middle" x="118" y="-13" font-family="Helvetica,sans-Serif" font-size="10.00">Eigen/Dense</text>
</a>
</g>
</g>
<!-- Node2&#45;&gt;Node4 -->
<g id="edge3" class="edge">
<title>Node2&#45;&gt;Node4</title>
<path fill="none" stroke="midnightblue" d="M183.97,-67.48C171.73,-58.02 151.77,-42.6 137.01,-31.19"/>
<polygon fill="midnightblue" stroke="midnightblue" points="139.06,-28.35 129.01,-25.01 134.78,-33.89 139.06,-28.35"/>
</g>
<!-- Node5 -->
<g id="node5" class="node">
<title>Node5</title>
<g id="a_node5"><a xlink:title=" ">
<polygon fill="white" stroke="#bfbfbf" points="171.5,-0.5 171.5,-30.5 302.5,-30.5 302.5,-0.5 171.5,-0.5"/>
<text text-anchor="start" x="179.5" y="-18.5" font-family="Helvetica,sans-Serif" font-size="10.00">unsupported/Eigen/CXX11</text>
<text text-anchor="middle" x="237" y="-7.5" font-family="Helvetica,sans-Serif" font-size="10.00">/Tensor</text>
</a>
</g>
</g>
<!-- Node2&#45;&gt;Node5 -->
<g id="edge4" class="edge">
<title>Node2&#45;&gt;Node5</title>
<path fill="none" stroke="midnightblue" d="M201.02,-67.48C206.28,-60.02 214.16,-48.85 221.21,-38.87"/>
<polygon fill="midnightblue" stroke="midnightblue" points="224.19,-40.71 227.1,-30.52 218.48,-36.67 224.19,-40.71"/>
</g>
<!-- Node7 -->
<g id="node7" class="node">
<title>Node7</title>
<g id="a_node7"><a xlink:title=" ">
<polygon fill="white" stroke="#bfbfbf" points="321,-6 321,-25 375,-25 375,-6 321,-6"/>
<text text-anchor="middle" x="348" y="-13" font-family="Helvetica,sans-Serif" font-size="10.00">iostream</text>
</a>
</g>
</g>
<!-- Node6&#45;&gt;Node7 -->
<g id="edge6" class="edge">
<title>Node6&#45;&gt;Node7</title>
<path fill="none" stroke="midnightblue" d="M377.99,-67.48C372.84,-58.73 364.69,-44.87 358.18,-33.81"/>
<polygon fill="midnightblue" stroke="midnightblue" points="361.09,-31.85 353.01,-25.01 355.06,-35.4 361.09,-31.85"/>
</g>
<!-- Node8 -->
<g id="node8" class="node">
<title>Node8</title>
<g id="a_node8"><a xlink:title=" ">
<polygon fill="white" stroke="#bfbfbf" points="393,-6 393,-25 445,-25 445,-6 393,-6"/>
<text text-anchor="middle" x="419" y="-13" font-family="Helvetica,sans-Serif" font-size="10.00">sstream</text>
</a>
</g>
</g>
<!-- Node6&#45;&gt;Node8 -->
<g id="edge7" class="edge">
<title>Node6&#45;&gt;Node8</title>
<path fill="none" stroke="midnightblue" d="M388.16,-67.48C393.45,-58.73 401.84,-44.87 408.53,-33.81"/>
<polygon fill="midnightblue" stroke="midnightblue" points="411.67,-35.38 413.85,-25.01 405.68,-31.75 411.67,-35.38"/>
</g>
<!-- Node9 -->
<g id="node9" class="node">
<title>Node9</title>
<g id="a_node9"><a xlink:title=" ">
<polygon fill="white" stroke="#bfbfbf" points="463.5,-6 463.5,-25 504.5,-25 504.5,-6 463.5,-6"/>
<text text-anchor="middle" x="484" y="-13" font-family="Helvetica,sans-Serif" font-size="10.00">string</text>
</a>
</g>
</g>
<!-- Node6&#45;&gt;Node9 -->
<g id="edge8" class="edge">
<title>Node6&#45;&gt;Node9</title>
<path fill="none" stroke="midnightblue" d="M397.47,-67.48C413.97,-57.75 441.18,-41.73 460.68,-30.24"/>
<polygon fill="midnightblue" stroke="midnightblue" points="462.72,-33.1 469.56,-25.01 459.16,-27.07 462.72,-33.1"/>
</g>
</g>
</svg>
