<?xml version="1.0" encoding="UTF-8" standalone="no"?>
<!DOCTYPE svg PUBLIC "-//W3C//DTD SVG 1.1//EN"
 "http://www.w3.org/Graphics/SVG/1.1/DTD/svg11.dtd">
<!-- Generated by graphviz version 3.0.0 (20220413.0106)
 -->
<!-- Title: modules/core/MarmotMechanicsCore/include/Marmot/PerezFougetSubstepperMarkII.h Pages: 1 -->
<svg width="453pt" height="162pt"
 viewBox="0.00 0.00 452.50 162.00" xmlns="http://www.w3.org/2000/svg" xmlns:xlink="http://www.w3.org/1999/xlink">
<g id="graph0" class="graph" transform="scale(1 1) rotate(0) translate(4 158)">
<title>modules/core/MarmotMechanicsCore/include/Marmot/PerezFougetSubstepperMarkII.h</title>
<polygon fill="white" stroke="transparent" points="-4,4 -4,-158 448.5,-158 448.5,4 -4,4"/>
<!-- Node1 -->
<g id="node1" class="node">
<title>Node1</title>
<g id="a_node1"><a xlink:title=" ">
<polygon fill="#bfbfbf" stroke="black" points="154,-112.5 154,-153.5 318,-153.5 318,-112.5 154,-112.5"/>
<text text-anchor="start" x="162" y="-141.5" font-family="Helvetica,sans-Serif" font-size="10.00">modules/core/MarmotMechanics</text>
<text text-anchor="start" x="162" y="-130.5" font-family="Helvetica,sans-Serif" font-size="10.00">Core/include/Marmot/PerezFouget</text>
<text text-anchor="middle" x="236" y="-119.5" font-family="Helvetica,sans-Serif" font-size="10.00">SubstepperMarkII.h</text>
</a>
</g>
</g>
<!-- Node2 -->
<g id="node2" class="node">
<title>Node2</title>
<g id="a_node2"><a xlink:href="MarmotJournal_8h.html" target="_top" xlink:title=" ">
<polygon fill="white" stroke="black" points="35.5,-56.5 35.5,-75.5 160.5,-75.5 160.5,-56.5 35.5,-56.5"/>
<text text-anchor="middle" x="98" y="-63.5" font-family="Helvetica,sans-Serif" font-size="10.00">Marmot/MarmotJournal.h</text>
</a>
</g>
</g>
<!-- Node1&#45;&gt;Node2 -->
<g id="edge1" class="edge">
<title>Node1&#45;&gt;Node2</title>
<path fill="none" stroke="midnightblue" d="M194.6,-112.5C172.22,-101.96 145.2,-89.23 125.44,-79.92"/>
<polygon fill="midnightblue" stroke="midnightblue" points="126.91,-76.75 116.37,-75.65 123.93,-83.08 126.91,-76.75"/>
</g>
<!-- Node6 -->
<g id="node6" class="node">
<title>Node6</title>
<g id="a_node6"><a xlink:title=" ">
<polygon fill="white" stroke="#bfbfbf" points="178.5,-56.5 178.5,-75.5 293.5,-75.5 293.5,-56.5 178.5,-56.5"/>
<text text-anchor="middle" x="236" y="-63.5" font-family="Helvetica,sans-Serif" font-size="10.00">Marmot/MarmotMath.h</text>
</a>
</g>
</g>
<!-- Node1&#45;&gt;Node6 -->
<g id="edge5" class="edge">
<title>Node1&#45;&gt;Node6</title>
<path fill="none" stroke="midnightblue" d="M236,-112.5C236,-104.07 236,-94.24 236,-85.87"/>
<polygon fill="midnightblue" stroke="midnightblue" points="239.5,-85.65 236,-75.65 232.5,-85.65 239.5,-85.65"/>
</g>
<!-- Node7 -->
<g id="node7" class="node">
<title>Node7</title>
<g id="a_node7"><a xlink:title=" ">
<polygon fill="white" stroke="#bfbfbf" points="311.5,-56.5 311.5,-75.5 444.5,-75.5 444.5,-56.5 311.5,-56.5"/>
<text text-anchor="middle" x="378" y="-63.5" font-family="Helvetica,sans-Serif" font-size="10.00">Marmot/MarmotTypedefs.h</text>
</a>
</g>
</g>
<!-- Node1&#45;&gt;Node7 -->
<g id="edge6" class="edge">
<title>Node1&#45;&gt;Node7</title>
<path fill="none" stroke="midnightblue" d="M278.6,-112.5C301.63,-101.96 329.43,-89.23 349.77,-79.92"/>
<polygon fill="midnightblue" stroke="midnightblue" points="351.46,-83 359.1,-75.65 348.55,-76.63 351.46,-83"/>
</g>
<!-- Node3 -->
<g id="node3" class="node">
<title>Node3</title>
<g id="a_node3"><a xlink:title=" ">
<polygon fill="white" stroke="#bfbfbf" points="0,-0.5 0,-19.5 54,-19.5 54,-0.5 0,-0.5"/>
<text text-anchor="middle" x="27" y="-7.5" font-family="Helvetica,sans-Serif" font-size="10.00">iostream</text>
</a>
</g>
</g>
<!-- Node2&#45;&gt;Node3 -->
<g id="edge2" class="edge">
<title>Node2&#45;&gt;Node3</title>
<path fill="none" stroke="midnightblue" d="M86.59,-56.32C75.89,-48.18 59.66,-35.84 46.84,-26.09"/>
<polygon fill="midnightblue" stroke="midnightblue" points="48.69,-23.1 38.61,-19.83 44.46,-28.67 48.69,-23.1"/>
</g>
<!-- Node4 -->
<g id="node4" class="node">
<title>Node4</title>
<g id="a_node4"><a xlink:title=" ">
<polygon fill="white" stroke="#bfbfbf" points="72,-0.5 72,-19.5 124,-19.5 124,-0.5 72,-0.5"/>
<text text-anchor="middle" x="98" y="-7.5" font-family="Helvetica,sans-Serif" font-size="10.00">sstream</text>
</a>
</g>
</g>
<!-- Node2&#45;&gt;Node4 -->
<g id="edge3" class="edge">
<title>Node2&#45;&gt;Node4</title>
<path fill="none" stroke="midnightblue" d="M98,-56.08C98,-49.01 98,-38.86 98,-29.99"/>
<polygon fill="midnightblue" stroke="midnightblue" points="101.5,-29.75 98,-19.75 94.5,-29.75 101.5,-29.75"/>
</g>
<!-- Node5 -->
<g id="node5" class="node">
<title>Node5</title>
<g id="a_node5"><a xlink:title=" ">
<polygon fill="white" stroke="#bfbfbf" points="142.5,-0.5 142.5,-19.5 183.5,-19.5 183.5,-0.5 142.5,-0.5"/>
<text text-anchor="middle" x="163" y="-7.5" font-family="Helvetica,sans-Serif" font-size="10.00">string</text>
</a>
</g>
</g>
<!-- Node2&#45;&gt;Node5 -->
<g id="edge4" class="edge">
<title>Node2&#45;&gt;Node5</title>
<path fill="none" stroke="midnightblue" d="M108.44,-56.32C118.15,-48.26 132.82,-36.08 144.5,-26.37"/>
<polygon fill="midnightblue" stroke="midnightblue" points="146.91,-28.92 152.37,-19.83 142.44,-23.53 146.91,-28.92"/>
</g>
</g>
</svg>
