<?xml version="1.0" encoding="UTF-8" standalone="no"?>
<!DOCTYPE svg PUBLIC "-//W3C//DTD SVG 1.1//EN"
 "http://www.w3.org/Graphics/SVG/1.1/DTD/svg11.dtd">
<!-- Generated by graphviz version 2.44.0 ()
 -->
<!-- Title: modules/materials/VonMises/src/VonMises.cpp Pages: 1 -->
<svg width="1591pt" height="352pt"
 viewBox="0.00 0.00 1591.00 352.00" xmlns="http://www.w3.org/2000/svg" xmlns:xlink="http://www.w3.org/1999/xlink">
<g id="graph0" class="graph" transform="scale(1 1) rotate(0) translate(4 348)">
<title>modules/materials/VonMises/src/VonMises.cpp</title>
<polygon fill="white" stroke="transparent" points="-4,4 -4,-348 1587,-348 1587,4 -4,4"/>
<!-- Node1 -->
<g id="node1" class="node">
<title>Node1</title>
<g id="a_node1"><a xlink:title=" ">
<polygon fill="#bfbfbf" stroke="black" points="1037,-313.5 1037,-343.5 1180,-343.5 1180,-313.5 1037,-313.5"/>
<text text-anchor="start" x="1045" y="-331.5" font-family="Helvetica,sans-Serif" font-size="10.00">modules/materials/VonMises</text>
<text text-anchor="middle" x="1108.5" y="-320.5" font-family="Helvetica,sans-Serif" font-size="10.00">/src/VonMises.cpp</text>
</a>
</g>
</g>
<!-- Node2 -->
<g id="node2" class="node">
<title>Node2</title>
<g id="a_node2"><a xlink:href="VonMises_8h.html" target="_top" xlink:title=" ">
<polygon fill="white" stroke="black" points="575.5,-257.5 575.5,-276.5 679.5,-276.5 679.5,-257.5 575.5,-257.5"/>
<text text-anchor="middle" x="627.5" y="-264.5" font-family="Helvetica,sans-Serif" font-size="10.00">Marmot/VonMises.h</text>
</a>
</g>
</g>
<!-- Node1&#45;&gt;Node2 -->
<g id="edge1" class="edge">
<title>Node1&#45;&gt;Node2</title>
<path fill="none" stroke="midnightblue" d="M1036.65,-318.73C954.78,-308.72 816.99,-291.81 698.5,-277 695.67,-276.65 692.77,-276.28 689.85,-275.92"/>
<polygon fill="midnightblue" stroke="midnightblue" points="690.2,-272.43 679.84,-274.66 689.33,-279.38 690.2,-272.43"/>
</g>
<!-- Node12 -->
<g id="node12" class="node">
<title>Node12</title>
<g id="a_node12"><a xlink:href="MarmotTypedefs_8h.html" target="_top" xlink:title=" ">
<polygon fill="white" stroke="black" points="948,-73 948,-92 1081,-92 1081,-73 948,-73"/>
<text text-anchor="middle" x="1014.5" y="-80" font-family="Helvetica,sans-Serif" font-size="10.00">Marmot/MarmotTypedefs.h</text>
</a>
</g>
</g>
<!-- Node1&#45;&gt;Node12 -->
<g id="edge44" class="edge">
<title>Node1&#45;&gt;Node12</title>
<path fill="none" stroke="midnightblue" d="M1100.82,-313.12C1095.62,-303.13 1088.77,-289.43 1083.5,-277 1056.74,-213.89 1031.27,-136.47 1020.23,-101.81"/>
<polygon fill="midnightblue" stroke="midnightblue" points="1023.53,-100.61 1017.18,-92.12 1016.85,-102.71 1023.53,-100.61"/>
</g>
<!-- Node16 -->
<g id="node16" class="node">
<title>Node16</title>
<g id="a_node16"><a xlink:href="HaighWestergaard_8h.html" target="_top" xlink:title=" ">
<polygon fill="white" stroke="black" points="707.5,-257.5 707.5,-276.5 847.5,-276.5 847.5,-257.5 707.5,-257.5"/>
<text text-anchor="middle" x="777.5" y="-264.5" font-family="Helvetica,sans-Serif" font-size="10.00">Marmot/HaighWestergaard.h</text>
</a>
</g>
</g>
<!-- Node1&#45;&gt;Node16 -->
<g id="edge17" class="edge">
<title>Node1&#45;&gt;Node16</title>
<path fill="none" stroke="midnightblue" d="M1036.68,-314.59C976.36,-303.75 891.28,-288.45 835.28,-278.39"/>
<polygon fill="midnightblue" stroke="midnightblue" points="835.64,-274.9 825.18,-276.57 834.4,-281.79 835.64,-274.9"/>
</g>
<!-- Node18 -->
<g id="node18" class="node">
<title>Node18</title>
<g id="a_node18"><a xlink:href="MarmotConstants_8h.html" target="_top" xlink:title=" ">
<polygon fill="white" stroke="black" points="1208,-73 1208,-92 1345,-92 1345,-73 1208,-73"/>
<text text-anchor="middle" x="1276.5" y="-80" font-family="Helvetica,sans-Serif" font-size="10.00">Marmot/MarmotConstants.h</text>
</a>
</g>
</g>
<!-- Node1&#45;&gt;Node18 -->
<g id="edge35" class="edge">
<title>Node1&#45;&gt;Node18</title>
<path fill="none" stroke="midnightblue" d="M1166.78,-313.48C1187.57,-305.82 1209.52,-294.25 1224.5,-277 1269.14,-225.58 1275.92,-139.66 1276.63,-102.06"/>
<polygon fill="midnightblue" stroke="midnightblue" points="1280.13,-102.06 1276.7,-92.04 1273.13,-102.02 1280.13,-102.06"/>
</g>
<!-- Node25 -->
<g id="node25" class="node">
<title>Node25</title>
<g id="a_node25"><a xlink:href="MarmotVoigt_8h.html" target="_top" xlink:title=" ">
<polygon fill="white" stroke="black" points="913.5,-196 913.5,-215 1029.5,-215 1029.5,-196 913.5,-196"/>
<text text-anchor="middle" x="971.5" y="-203" font-family="Helvetica,sans-Serif" font-size="10.00">Marmot/MarmotVoigt.h</text>
</a>
</g>
</g>
<!-- Node1&#45;&gt;Node25 -->
<g id="edge45" class="edge">
<title>Node1&#45;&gt;Node25</title>
<path fill="none" stroke="midnightblue" d="M1091.87,-313.47C1079.99,-303.4 1063.67,-289.47 1049.5,-277 1028.26,-258.32 1004.15,-236.42 988.43,-222.04"/>
<polygon fill="midnightblue" stroke="midnightblue" points="990.77,-219.44 981.03,-215.27 986.04,-224.6 990.77,-219.44"/>
</g>
<!-- Node27 -->
<g id="node27" class="node">
<title>Node27</title>
<g id="a_node27"><a xlink:title=" ">
<polygon fill="white" stroke="#bfbfbf" points="1363.5,-73 1363.5,-92 1417.5,-92 1417.5,-73 1363.5,-73"/>
<text text-anchor="middle" x="1390.5" y="-80" font-family="Helvetica,sans-Serif" font-size="10.00">iostream</text>
</a>
</g>
</g>
<!-- Node1&#45;&gt;Node27 -->
<g id="edge47" class="edge">
<title>Node1&#45;&gt;Node27</title>
<path fill="none" stroke="midnightblue" d="M1168.85,-313.43C1194.19,-305.54 1222.94,-293.81 1245.5,-277 1311.96,-227.47 1362.15,-139.24 1381.64,-101.47"/>
<polygon fill="midnightblue" stroke="midnightblue" points="1384.93,-102.73 1386.31,-92.23 1378.68,-99.57 1384.93,-102.73"/>
</g>
<!-- Node29 -->
<g id="node29" class="node">
<title>Node29</title>
<g id="a_node29"><a xlink:href="MarmotElasticity_8h.html" target="_top" xlink:title=" ">
<polygon fill="white" stroke="black" points="865.5,-257.5 865.5,-276.5 997.5,-276.5 997.5,-257.5 865.5,-257.5"/>
<text text-anchor="middle" x="931.5" y="-264.5" font-family="Helvetica,sans-Serif" font-size="10.00">Marmot/MarmotElasticity.h</text>
</a>
</g>
</g>
<!-- Node1&#45;&gt;Node29 -->
<g id="edge36" class="edge">
<title>Node1&#45;&gt;Node29</title>
<path fill="none" stroke="midnightblue" d="M1066.55,-313.4C1036.1,-303.16 995.37,-289.47 966.63,-279.81"/>
<polygon fill="midnightblue" stroke="midnightblue" points="967.59,-276.44 957,-276.57 965.36,-283.07 967.59,-276.44"/>
</g>
<!-- Node30 -->
<g id="node30" class="node">
<title>Node30</title>
<g id="a_node30"><a xlink:href="MarmotTensor_8h.html" target="_top" xlink:title=" ">
<polygon fill="white" stroke="black" points="1092,-257.5 1092,-276.5 1215,-276.5 1215,-257.5 1092,-257.5"/>
<text text-anchor="middle" x="1153.5" y="-264.5" font-family="Helvetica,sans-Serif" font-size="10.00">Marmot/MarmotTensor.h</text>
</a>
</g>
</g>
<!-- Node1&#45;&gt;Node30 -->
<g id="edge38" class="edge">
<title>Node1&#45;&gt;Node30</title>
<path fill="none" stroke="midnightblue" d="M1119.16,-313.4C1125.64,-304.84 1133.93,-293.87 1140.75,-284.86"/>
<polygon fill="midnightblue" stroke="midnightblue" points="1143.71,-286.74 1146.95,-276.66 1138.13,-282.52 1143.71,-286.74"/>
</g>
<!-- Node32 -->
<g id="node32" class="node">
<title>Node32</title>
<g id="a_node32"><a xlink:href="VonMisesConstants_8h.html" target="_top" xlink:title=" ">
<polygon fill="white" stroke="black" points="1381.5,-257.5 1381.5,-276.5 1529.5,-276.5 1529.5,-257.5 1381.5,-257.5"/>
<text text-anchor="middle" x="1455.5" y="-264.5" font-family="Helvetica,sans-Serif" font-size="10.00">Marmot/VonMisesConstants.h</text>
</a>
</g>
</g>
<!-- Node1&#45;&gt;Node32 -->
<g id="edge46" class="edge">
<title>Node1&#45;&gt;Node32</title>
<path fill="none" stroke="midnightblue" d="M1180.4,-315.17C1244.11,-304.25 1336.04,-288.48 1395.78,-278.24"/>
<polygon fill="midnightblue" stroke="midnightblue" points="1396.55,-281.66 1405.81,-276.52 1395.36,-274.76 1396.55,-281.66"/>
</g>
<!-- Node33 -->
<g id="node33" class="node">
<title>Node33</title>
<g id="a_node33"><a xlink:title=" ">
<polygon fill="white" stroke="#bfbfbf" points="1548,-257.5 1548,-276.5 1583,-276.5 1583,-257.5 1548,-257.5"/>
<text text-anchor="middle" x="1565.5" y="-264.5" font-family="Helvetica,sans-Serif" font-size="10.00">map</text>
</a>
</g>
</g>
<!-- Node1&#45;&gt;Node33 -->
<g id="edge48" class="edge">
<title>Node1&#45;&gt;Node33</title>
<path fill="none" stroke="midnightblue" d="M1180.01,-323.59C1263.86,-318.01 1406.95,-305.36 1538.1,-276.62"/>
<polygon fill="midnightblue" stroke="midnightblue" points="1538.93,-280.02 1547.93,-274.43 1537.41,-273.19 1538.93,-280.02"/>
</g>
<!-- Node3 -->
<g id="node3" class="node">
<title>Node3</title>
<g id="a_node3"><a xlink:href="MarmotMaterialHypoElastic_8h.html" target="_top" xlink:title=" ">
<polygon fill="white" stroke="black" points="466,-190.5 466,-220.5 609,-220.5 609,-190.5 466,-190.5"/>
<text text-anchor="start" x="474" y="-208.5" font-family="Helvetica,sans-Serif" font-size="10.00">Marmot/MarmotMaterialHypo</text>
<text text-anchor="middle" x="537.5" y="-197.5" font-family="Helvetica,sans-Serif" font-size="10.00">Elastic.h</text>
</a>
</g>
</g>
<!-- Node2&#45;&gt;Node3 -->
<g id="edge2" class="edge">
<title>Node2&#45;&gt;Node3</title>
<path fill="none" stroke="midnightblue" d="M614.61,-257.48C602.3,-249.34 583.32,-236.79 567.27,-226.18"/>
<polygon fill="midnightblue" stroke="midnightblue" points="568.98,-223.12 558.71,-220.52 565.12,-228.96 568.98,-223.12"/>
</g>
<!-- Node8 -->
<g id="node8" class="node">
<title>Node8</title>
<g id="a_node8"><a xlink:href="MarmotStateVarVectorManager_8h.html" target="_top" xlink:title=" ">
<polygon fill="white" stroke="black" points="85.5,-67.5 85.5,-97.5 237.5,-97.5 237.5,-67.5 85.5,-67.5"/>
<text text-anchor="start" x="93.5" y="-85.5" font-family="Helvetica,sans-Serif" font-size="10.00">Marmot/MarmotStateVarVector</text>
<text text-anchor="middle" x="161.5" y="-74.5" font-family="Helvetica,sans-Serif" font-size="10.00">Manager.h</text>
</a>
</g>
</g>
<!-- Node2&#45;&gt;Node8 -->
<g id="edge7" class="edge">
<title>Node2&#45;&gt;Node8</title>
<path fill="none" stroke="midnightblue" d="M586.8,-257.45C551.76,-249.58 500.1,-236.75 456.5,-221 359.54,-185.97 250.95,-131.03 196.55,-102.35"/>
<polygon fill="midnightblue" stroke="midnightblue" points="198.14,-99.24 187.67,-97.65 194.87,-105.42 198.14,-99.24"/>
</g>
<!-- Node2&#45;&gt;Node12 -->
<g id="edge13" class="edge">
<title>Node2&#45;&gt;Node12</title>
<path fill="none" stroke="midnightblue" d="M645.65,-257.44C707.86,-228.1 912.76,-131.48 987.18,-96.38"/>
<polygon fill="midnightblue" stroke="midnightblue" points="988.84,-99.47 996.39,-92.04 985.85,-93.14 988.84,-99.47"/>
</g>
<!-- Node4 -->
<g id="node4" class="node">
<title>Node4</title>
<g id="a_node4"><a xlink:href="MarmotMaterialMechanical_8h.html" target="_top" xlink:title=" ">
<polygon fill="white" stroke="black" points="429,-134.5 429,-153.5 606,-153.5 606,-134.5 429,-134.5"/>
<text text-anchor="middle" x="517.5" y="-141.5" font-family="Helvetica,sans-Serif" font-size="10.00">Marmot/MarmotMaterialMechanical.h</text>
</a>
</g>
</g>
<!-- Node3&#45;&gt;Node4 -->
<g id="edge3" class="edge">
<title>Node3&#45;&gt;Node4</title>
<path fill="none" stroke="midnightblue" d="M532.76,-190.4C530.03,-182.29 526.58,-172.01 523.64,-163.28"/>
<polygon fill="midnightblue" stroke="midnightblue" points="526.91,-162.02 520.41,-153.66 520.28,-164.25 526.91,-162.02"/>
</g>
<!-- Node5 -->
<g id="node5" class="node">
<title>Node5</title>
<g id="a_node5"><a xlink:href="MarmotMaterial_8h.html" target="_top" xlink:title=" ">
<polygon fill="white" stroke="black" points="255.5,-73 255.5,-92 383.5,-92 383.5,-73 255.5,-73"/>
<text text-anchor="middle" x="319.5" y="-80" font-family="Helvetica,sans-Serif" font-size="10.00">Marmot/MarmotMaterial.h</text>
</a>
</g>
</g>
<!-- Node4&#45;&gt;Node5 -->
<g id="edge4" class="edge">
<title>Node4&#45;&gt;Node5</title>
<path fill="none" stroke="midnightblue" d="M489.13,-134.48C454.58,-124.09 396.08,-106.51 357.62,-94.95"/>
<polygon fill="midnightblue" stroke="midnightblue" points="358.4,-91.54 347.82,-92.01 356.39,-98.24 358.4,-91.54"/>
</g>
<!-- Node6 -->
<g id="node6" class="node">
<title>Node6</title>
<g id="a_node6"><a xlink:href="MarmotUtils_8h.html" target="_top" xlink:title=" ">
<polygon fill="white" stroke="black" points="233,-6 233,-25 346,-25 346,-6 233,-6"/>
<text text-anchor="middle" x="289.5" y="-13" font-family="Helvetica,sans-Serif" font-size="10.00">Marmot/MarmotUtils.h</text>
</a>
</g>
</g>
<!-- Node5&#45;&gt;Node6 -->
<g id="edge5" class="edge">
<title>Node5&#45;&gt;Node6</title>
<path fill="none" stroke="midnightblue" d="M315.45,-72.73C310.96,-62.99 303.57,-46.98 297.82,-34.53"/>
<polygon fill="midnightblue" stroke="midnightblue" points="300.85,-32.74 293.48,-25.13 294.49,-35.67 300.85,-32.74"/>
</g>
<!-- Node7 -->
<g id="node7" class="node">
<title>Node7</title>
<g id="a_node7"><a xlink:title=" ">
<polygon fill="white" stroke="#bfbfbf" points="364,-6 364,-25 405,-25 405,-6 364,-6"/>
<text text-anchor="middle" x="384.5" y="-13" font-family="Helvetica,sans-Serif" font-size="10.00">string</text>
</a>
</g>
</g>
<!-- Node5&#45;&gt;Node7 -->
<g id="edge6" class="edge">
<title>Node5&#45;&gt;Node7</title>
<path fill="none" stroke="midnightblue" d="M328.27,-72.73C338.6,-62.4 355.96,-45.04 368.67,-32.33"/>
<polygon fill="midnightblue" stroke="midnightblue" points="371.28,-34.67 375.87,-25.13 366.33,-29.72 371.28,-34.67"/>
</g>
<!-- Node8&#45;&gt;Node6 -->
<g id="edge8" class="edge">
<title>Node8&#45;&gt;Node6</title>
<path fill="none" stroke="midnightblue" d="M189.27,-67.4C211.44,-56.14 242.24,-40.5 263.83,-29.54"/>
<polygon fill="midnightblue" stroke="midnightblue" points="265.42,-32.66 272.75,-25.01 262.25,-26.41 265.42,-32.66"/>
</g>
<!-- Node8&#45;&gt;Node7 -->
<g id="edge10" class="edge">
<title>Node8&#45;&gt;Node7</title>
<path fill="none" stroke="midnightblue" d="M228.14,-67.44C265.78,-58.66 313.39,-46.15 354.5,-31 355.92,-30.47 357.37,-29.91 358.82,-29.31"/>
<polygon fill="midnightblue" stroke="midnightblue" points="360.56,-32.36 368.24,-25.07 357.69,-25.98 360.56,-32.36"/>
</g>
<!-- Node9 -->
<g id="node9" class="node">
<title>Node9</title>
<g id="a_node9"><a xlink:title=" ">
<polygon fill="white" stroke="#bfbfbf" points="0,-6 0,-25 51,-25 51,-6 0,-6"/>
<text text-anchor="middle" x="25.5" y="-13" font-family="Helvetica,sans-Serif" font-size="10.00">memory</text>
</a>
</g>
</g>
<!-- Node8&#45;&gt;Node9 -->
<g id="edge9" class="edge">
<title>Node8&#45;&gt;Node9</title>
<path fill="none" stroke="midnightblue" d="M131.99,-67.4C108.34,-56.09 75.42,-40.36 52.47,-29.39"/>
<polygon fill="midnightblue" stroke="midnightblue" points="53.83,-26.16 43.3,-25.01 50.81,-32.48 53.83,-26.16"/>
</g>
<!-- Node10 -->
<g id="node10" class="node">
<title>Node10</title>
<g id="a_node10"><a xlink:title=" ">
<polygon fill="white" stroke="#bfbfbf" points="69,-6 69,-25 152,-25 152,-6 69,-6"/>
<text text-anchor="middle" x="110.5" y="-13" font-family="Helvetica,sans-Serif" font-size="10.00">unordered_map</text>
</a>
</g>
</g>
<!-- Node8&#45;&gt;Node10 -->
<g id="edge11" class="edge">
<title>Node8&#45;&gt;Node10</title>
<path fill="none" stroke="midnightblue" d="M150.43,-67.4C142.56,-57.36 131.95,-43.84 123.65,-33.25"/>
<polygon fill="midnightblue" stroke="midnightblue" points="126.25,-30.9 117.32,-25.19 120.74,-35.22 126.25,-30.9"/>
</g>
<!-- Node11 -->
<g id="node11" class="node">
<title>Node11</title>
<g id="a_node11"><a xlink:title=" ">
<polygon fill="white" stroke="#bfbfbf" points="170.5,-6 170.5,-25 214.5,-25 214.5,-6 170.5,-6"/>
<text text-anchor="middle" x="192.5" y="-13" font-family="Helvetica,sans-Serif" font-size="10.00">vector</text>
</a>
</g>
</g>
<!-- Node8&#45;&gt;Node11 -->
<g id="edge12" class="edge">
<title>Node8&#45;&gt;Node11</title>
<path fill="none" stroke="midnightblue" d="M168.23,-67.4C172.82,-57.76 178.95,-44.91 183.9,-34.54"/>
<polygon fill="midnightblue" stroke="midnightblue" points="187.21,-35.73 188.35,-25.19 180.89,-32.71 187.21,-35.73"/>
</g>
<!-- Node13 -->
<g id="node13" class="node">
<title>Node13</title>
<g id="a_node13"><a xlink:title=" ">
<polygon fill="white" stroke="#bfbfbf" points="896.5,-6 896.5,-25 960.5,-25 960.5,-6 896.5,-6"/>
<text text-anchor="middle" x="928.5" y="-13" font-family="Helvetica,sans-Serif" font-size="10.00">Eigen/Core</text>
</a>
</g>
</g>
<!-- Node12&#45;&gt;Node13 -->
<g id="edge14" class="edge">
<title>Node12&#45;&gt;Node13</title>
<path fill="none" stroke="midnightblue" d="M1002.9,-72.73C988.85,-62.11 964.95,-44.05 948.03,-31.26"/>
<polygon fill="midnightblue" stroke="midnightblue" points="950,-28.36 939.91,-25.13 945.78,-33.95 950,-28.36"/>
</g>
<!-- Node14 -->
<g id="node14" class="node">
<title>Node14</title>
<g id="a_node14"><a xlink:title=" ">
<polygon fill="white" stroke="#bfbfbf" points="979,-6 979,-25 1050,-25 1050,-6 979,-6"/>
<text text-anchor="middle" x="1014.5" y="-13" font-family="Helvetica,sans-Serif" font-size="10.00">Eigen/Dense</text>
</a>
</g>
</g>
<!-- Node12&#45;&gt;Node14 -->
<g id="edge15" class="edge">
<title>Node12&#45;&gt;Node14</title>
<path fill="none" stroke="midnightblue" d="M1014.5,-72.73C1014.5,-63.18 1014.5,-47.62 1014.5,-35.28"/>
<polygon fill="midnightblue" stroke="midnightblue" points="1018,-35.13 1014.5,-25.13 1011,-35.13 1018,-35.13"/>
</g>
<!-- Node15 -->
<g id="node15" class="node">
<title>Node15</title>
<g id="a_node15"><a xlink:title=" ">
<polygon fill="white" stroke="#bfbfbf" points="1068,-0.5 1068,-30.5 1199,-30.5 1199,-0.5 1068,-0.5"/>
<text text-anchor="start" x="1076" y="-18.5" font-family="Helvetica,sans-Serif" font-size="10.00">unsupported/Eigen/CXX11</text>
<text text-anchor="middle" x="1133.5" y="-7.5" font-family="Helvetica,sans-Serif" font-size="10.00">/Tensor</text>
</a>
</g>
</g>
<!-- Node12&#45;&gt;Node15 -->
<g id="edge16" class="edge">
<title>Node12&#45;&gt;Node15</title>
<path fill="none" stroke="midnightblue" d="M1030.55,-72.73C1047.95,-63.23 1076.24,-47.78 1098.77,-35.47"/>
<polygon fill="midnightblue" stroke="midnightblue" points="1100.61,-38.45 1107.71,-30.59 1097.25,-32.31 1100.61,-38.45"/>
</g>
<!-- Node16&#45;&gt;Node12 -->
<g id="edge27" class="edge">
<title>Node16&#45;&gt;Node12</title>
<path fill="none" stroke="midnightblue" d="M796.61,-257.39C814.14,-249.12 840.51,-235.73 861.5,-221 916.34,-182.51 972.96,-126.6 999.31,-99.46"/>
<polygon fill="midnightblue" stroke="midnightblue" points="1002.07,-101.65 1006.48,-92.02 997.02,-96.79 1002.07,-101.65"/>
</g>
<!-- Node17 -->
<g id="node17" class="node">
<title>Node17</title>
<g id="a_node17"><a xlink:href="MarmotMath_8h.html" target="_top" xlink:title=" ">
<polygon fill="white" stroke="black" points="704,-134.5 704,-153.5 819,-153.5 819,-134.5 704,-134.5"/>
<text text-anchor="middle" x="761.5" y="-141.5" font-family="Helvetica,sans-Serif" font-size="10.00">Marmot/MarmotMath.h</text>
</a>
</g>
</g>
<!-- Node16&#45;&gt;Node17 -->
<g id="edge18" class="edge">
<title>Node16&#45;&gt;Node17</title>
<path fill="none" stroke="midnightblue" d="M776.35,-257.3C773.77,-237.76 767.46,-190.06 763.95,-163.55"/>
<polygon fill="midnightblue" stroke="midnightblue" points="767.42,-163.08 762.64,-153.62 760.48,-164 767.42,-163.08"/>
</g>
<!-- Node16&#45;&gt;Node25 -->
<g id="edge28" class="edge">
<title>Node16&#45;&gt;Node25</title>
<path fill="none" stroke="midnightblue" d="M805.3,-257.48C839.15,-247.09 896.47,-229.51 934.15,-217.95"/>
<polygon fill="midnightblue" stroke="midnightblue" points="935.22,-221.29 943.76,-215.01 933.17,-214.6 935.22,-221.29"/>
</g>
<!-- Node17&#45;&gt;Node12 -->
<g id="edge21" class="edge">
<title>Node17&#45;&gt;Node12</title>
<path fill="none" stroke="midnightblue" d="M797.75,-134.48C842.65,-123.92 919.21,-105.91 968.28,-94.37"/>
<polygon fill="midnightblue" stroke="midnightblue" points="969.39,-97.71 978.32,-92.01 967.78,-90.89 969.39,-97.71"/>
</g>
<!-- Node17&#45;&gt;Node18 -->
<g id="edge19" class="edge">
<title>Node17&#45;&gt;Node18</title>
<path fill="none" stroke="midnightblue" d="M819.3,-138.55C903.12,-131.76 1063.19,-117.51 1198.5,-98 1206.83,-96.8 1215.62,-95.35 1224.19,-93.83"/>
<polygon fill="midnightblue" stroke="midnightblue" points="1224.88,-97.26 1234.1,-92.03 1223.63,-90.37 1224.88,-97.26"/>
</g>
<!-- Node20 -->
<g id="node20" class="node">
<title>Node20</title>
<g id="a_node20"><a xlink:title=" ">
<polygon fill="white" stroke="#bfbfbf" points="807.5,-73 807.5,-92 929.5,-92 929.5,-73 807.5,-73"/>
<text text-anchor="middle" x="868.5" y="-80" font-family="Helvetica,sans-Serif" font-size="10.00">autodiff/forward/dual.hpp</text>
</a>
</g>
</g>
<!-- Node17&#45;&gt;Node20 -->
<g id="edge22" class="edge">
<title>Node17&#45;&gt;Node20</title>
<path fill="none" stroke="midnightblue" d="M776.83,-134.48C794.47,-124.67 823.66,-108.43 844.36,-96.92"/>
<polygon fill="midnightblue" stroke="midnightblue" points="846.16,-99.93 853.2,-92.01 842.76,-93.81 846.16,-99.93"/>
</g>
<!-- Node21 -->
<g id="node21" class="node">
<title>Node21</title>
<g id="a_node21"><a xlink:title=" ">
<polygon fill="white" stroke="#bfbfbf" points="401.5,-73 401.5,-92 521.5,-92 521.5,-73 401.5,-73"/>
<text text-anchor="middle" x="461.5" y="-80" font-family="Helvetica,sans-Serif" font-size="10.00">autodiff/forward/real.hpp</text>
</a>
</g>
</g>
<!-- Node17&#45;&gt;Node21 -->
<g id="edge23" class="edge">
<title>Node17&#45;&gt;Node21</title>
<path fill="none" stroke="midnightblue" d="M716.75,-134.48C670.18,-125.58 595.17,-111.09 530.5,-98 524.36,-96.76 517.91,-95.43 511.53,-94.11"/>
<polygon fill="midnightblue" stroke="midnightblue" points="512.12,-90.65 501.61,-92.03 510.69,-97.5 512.12,-90.65"/>
</g>
<!-- Node22 -->
<g id="node22" class="node">
<title>Node22</title>
<g id="a_node22"><a xlink:title=" ">
<polygon fill="white" stroke="#bfbfbf" points="539.5,-73 539.5,-92 595.5,-92 595.5,-73 539.5,-73"/>
<text text-anchor="middle" x="567.5" y="-80" font-family="Helvetica,sans-Serif" font-size="10.00">algorithm</text>
</a>
</g>
</g>
<!-- Node17&#45;&gt;Node22 -->
<g id="edge24" class="edge">
<title>Node17&#45;&gt;Node22</title>
<path fill="none" stroke="midnightblue" d="M728.44,-134.5C696.48,-126.05 646.8,-112.32 604.5,-98 602.38,-97.28 600.2,-96.51 598.01,-95.71"/>
<polygon fill="midnightblue" stroke="midnightblue" points="599.1,-92.39 588.51,-92.13 596.62,-98.93 599.1,-92.39"/>
</g>
<!-- Node23 -->
<g id="node23" class="node">
<title>Node23</title>
<g id="a_node23"><a xlink:title=" ">
<polygon fill="white" stroke="#bfbfbf" points="613.5,-67.5 613.5,-97.5 717.5,-97.5 717.5,-67.5 613.5,-67.5"/>
<text text-anchor="start" x="621.5" y="-85.5" font-family="Helvetica,sans-Serif" font-size="10.00">autodiff/forward/dual</text>
<text text-anchor="middle" x="665.5" y="-74.5" font-family="Helvetica,sans-Serif" font-size="10.00">/dual.hpp</text>
</a>
</g>
</g>
<!-- Node17&#45;&gt;Node23 -->
<g id="edge25" class="edge">
<title>Node17&#45;&gt;Node23</title>
<path fill="none" stroke="midnightblue" d="M747.75,-134.48C734.5,-126.27 714,-113.56 696.78,-102.88"/>
<polygon fill="midnightblue" stroke="midnightblue" points="698.47,-99.82 688.13,-97.52 694.78,-105.77 698.47,-99.82"/>
</g>
<!-- Node24 -->
<g id="node24" class="node">
<title>Node24</title>
<g id="a_node24"><a xlink:title=" ">
<polygon fill="white" stroke="#bfbfbf" points="736,-73 736,-92 789,-92 789,-73 736,-73"/>
<text text-anchor="middle" x="762.5" y="-80" font-family="Helvetica,sans-Serif" font-size="10.00">complex</text>
</a>
</g>
</g>
<!-- Node17&#45;&gt;Node24 -->
<g id="edge26" class="edge">
<title>Node17&#45;&gt;Node24</title>
<path fill="none" stroke="midnightblue" d="M761.64,-134.48C761.78,-126.08 762,-112.98 762.19,-102.16"/>
<polygon fill="midnightblue" stroke="midnightblue" points="765.69,-102.07 762.36,-92.01 758.69,-101.95 765.69,-102.07"/>
</g>
<!-- Node19 -->
<g id="node19" class="node">
<title>Node19</title>
<g id="a_node19"><a xlink:title=" ">
<polygon fill="white" stroke="#bfbfbf" points="1254.5,-6 1254.5,-25 1298.5,-25 1298.5,-6 1254.5,-6"/>
<text text-anchor="middle" x="1276.5" y="-13" font-family="Helvetica,sans-Serif" font-size="10.00">cmath</text>
</a>
</g>
</g>
<!-- Node18&#45;&gt;Node19 -->
<g id="edge20" class="edge">
<title>Node18&#45;&gt;Node19</title>
<path fill="none" stroke="midnightblue" d="M1276.5,-72.73C1276.5,-63.18 1276.5,-47.62 1276.5,-35.28"/>
<polygon fill="midnightblue" stroke="midnightblue" points="1280,-35.13 1276.5,-25.13 1273,-35.13 1280,-35.13"/>
</g>
<!-- Node25&#45;&gt;Node12 -->
<g id="edge34" class="edge">
<title>Node25&#45;&gt;Node12</title>
<path fill="none" stroke="midnightblue" d="M974.59,-195.8C981.57,-176.18 998.64,-128.14 1008.03,-101.69"/>
<polygon fill="midnightblue" stroke="midnightblue" points="1011.38,-102.72 1011.44,-92.12 1004.79,-100.37 1011.38,-102.72"/>
</g>
<!-- Node25&#45;&gt;Node17 -->
<g id="edge33" class="edge">
<title>Node25&#45;&gt;Node17</title>
<path fill="none" stroke="midnightblue" d="M941.41,-195.98C904.61,-185.55 842.19,-167.86 801.41,-156.31"/>
<polygon fill="midnightblue" stroke="midnightblue" points="802.11,-152.87 791.53,-153.51 800.2,-159.6 802.11,-152.87"/>
</g>
<!-- Node26 -->
<g id="node26" class="node">
<title>Node26</title>
<g id="a_node26"><a xlink:href="MarmotJournal_8h.html" target="_top" xlink:title=" ">
<polygon fill="white" stroke="black" points="1124,-134.5 1124,-153.5 1249,-153.5 1249,-134.5 1124,-134.5"/>
<text text-anchor="middle" x="1186.5" y="-141.5" font-family="Helvetica,sans-Serif" font-size="10.00">Marmot/MarmotJournal.h</text>
</a>
</g>
</g>
<!-- Node25&#45;&gt;Node26 -->
<g id="edge29" class="edge">
<title>Node25&#45;&gt;Node26</title>
<path fill="none" stroke="midnightblue" d="M1002.3,-195.98C1040.06,-185.53 1104.16,-167.79 1145.91,-156.23"/>
<polygon fill="midnightblue" stroke="midnightblue" points="1147.05,-159.55 1155.75,-153.51 1145.18,-152.8 1147.05,-159.55"/>
</g>
<!-- Node26&#45;&gt;Node7 -->
<g id="edge32" class="edge">
<title>Node26&#45;&gt;Node7</title>
<path fill="none" stroke="midnightblue" d="M1175.32,-134.45C1163.59,-125.46 1144.66,-110.85 1128.5,-98 1111.44,-84.43 1110.76,-75.04 1090.5,-67 965.07,-17.21 535.16,-15.68 415.58,-16.25"/>
<polygon fill="midnightblue" stroke="midnightblue" points="415.29,-12.76 405.31,-16.31 415.33,-19.76 415.29,-12.76"/>
</g>
<!-- Node26&#45;&gt;Node27 -->
<g id="edge30" class="edge">
<title>Node26&#45;&gt;Node27</title>
<path fill="none" stroke="midnightblue" d="M1223.59,-134.44C1257.88,-126.19 1310.11,-112.82 1354.5,-98 1356.63,-97.29 1358.81,-96.52 1361,-95.71"/>
<polygon fill="midnightblue" stroke="midnightblue" points="1362.4,-98.92 1370.48,-92.06 1359.89,-92.39 1362.4,-98.92"/>
</g>
<!-- Node28 -->
<g id="node28" class="node">
<title>Node28</title>
<g id="a_node28"><a xlink:title=" ">
<polygon fill="white" stroke="#bfbfbf" points="1137.5,-73 1137.5,-92 1189.5,-92 1189.5,-73 1137.5,-73"/>
<text text-anchor="middle" x="1163.5" y="-80" font-family="Helvetica,sans-Serif" font-size="10.00">sstream</text>
</a>
</g>
</g>
<!-- Node26&#45;&gt;Node28 -->
<g id="edge31" class="edge">
<title>Node26&#45;&gt;Node28</title>
<path fill="none" stroke="midnightblue" d="M1183.2,-134.48C1179.89,-125.9 1174.68,-112.43 1170.45,-101.48"/>
<polygon fill="midnightblue" stroke="midnightblue" points="1173.66,-100.07 1166.79,-92.01 1167.13,-102.6 1173.66,-100.07"/>
</g>
<!-- Node29&#45;&gt;Node25 -->
<g id="edge37" class="edge">
<title>Node29&#45;&gt;Node25</title>
<path fill="none" stroke="midnightblue" d="M937.23,-257.48C943.17,-248.64 952.62,-234.59 960.09,-223.48"/>
<polygon fill="midnightblue" stroke="midnightblue" points="963.11,-225.26 965.78,-215.01 957.3,-221.36 963.11,-225.26"/>
</g>
<!-- Node30&#45;&gt;Node12 -->
<g id="edge40" class="edge">
<title>Node30&#45;&gt;Node12</title>
<path fill="none" stroke="midnightblue" d="M1152.99,-257.39C1151.78,-242.61 1147.75,-211.87 1134.5,-190 1109.87,-149.33 1064.73,-115.54 1037.38,-97.55"/>
<polygon fill="midnightblue" stroke="midnightblue" points="1039.15,-94.52 1028.85,-92.06 1035.37,-100.41 1039.15,-94.52"/>
</g>
<!-- Node30&#45;&gt;Node25 -->
<g id="edge41" class="edge">
<title>Node30&#45;&gt;Node25</title>
<path fill="none" stroke="midnightblue" d="M1127.42,-257.48C1095.93,-247.18 1042.8,-229.81 1007.44,-218.25"/>
<polygon fill="midnightblue" stroke="midnightblue" points="1008.12,-214.79 997.53,-215.01 1005.95,-221.44 1008.12,-214.79"/>
</g>
<!-- Node30&#45;&gt;Node26 -->
<g id="edge39" class="edge">
<title>Node30&#45;&gt;Node26</title>
<path fill="none" stroke="midnightblue" d="M1156.33,-257.42C1159.27,-248.39 1163.92,-233.76 1167.5,-221 1172.94,-201.61 1178.44,-179.23 1182.11,-163.8"/>
<polygon fill="midnightblue" stroke="midnightblue" points="1185.55,-164.47 1184.44,-153.94 1178.74,-162.87 1185.55,-164.47"/>
</g>
<!-- Node30&#45;&gt;Node27 -->
<g id="edge42" class="edge">
<title>Node30&#45;&gt;Node27</title>
<path fill="none" stroke="midnightblue" d="M1164.61,-257.44C1202.09,-228.58 1324.12,-134.61 1371.48,-98.15"/>
<polygon fill="midnightblue" stroke="midnightblue" points="1373.62,-100.91 1379.41,-92.04 1369.35,-95.37 1373.62,-100.91"/>
</g>
<!-- Node31 -->
<g id="node31" class="node">
<title>Node31</title>
<g id="a_node31"><a xlink:title=" ">
<polygon fill="white" stroke="#bfbfbf" points="1086,-196 1086,-215 1125,-215 1125,-196 1086,-196"/>
<text text-anchor="middle" x="1105.5" y="-203" font-family="Helvetica,sans-Serif" font-size="10.00">utility</text>
</a>
</g>
</g>
<!-- Node30&#45;&gt;Node31 -->
<g id="edge43" class="edge">
<title>Node30&#45;&gt;Node31</title>
<path fill="none" stroke="midnightblue" d="M1146.62,-257.48C1139.35,-248.46 1127.7,-234.02 1118.66,-222.81"/>
<polygon fill="midnightblue" stroke="midnightblue" points="1121.37,-220.59 1112.36,-215.01 1115.92,-224.99 1121.37,-220.59"/>
</g>
</g>
</svg>
