<?xml version="1.0" encoding="UTF-8" standalone="no"?>
<!DOCTYPE svg PUBLIC "-//W3C//DTD SVG 1.1//EN"
 "http://www.w3.org/Graphics/SVG/1.1/DTD/svg11.dtd">
<!-- Generated by graphviz version 2.44.0 ()
 -->
<!-- Title: modules/materials/VonMises/src/VonMisesRegistration.cpp Pages: 1 -->
<svg width="1355pt" height="352pt"
 viewBox="0.00 0.00 1354.50 352.00" xmlns="http://www.w3.org/2000/svg" xmlns:xlink="http://www.w3.org/1999/xlink">
<g id="graph0" class="graph" transform="scale(1 1) rotate(0) translate(4 348)">
<title>modules/materials/VonMises/src/VonMisesRegistration.cpp</title>
<polygon fill="white" stroke="transparent" points="-4,4 -4,-348 1350.5,-348 1350.5,4 -4,4"/>
<!-- Node1 -->
<g id="node1" class="node">
<title>Node1</title>
<g id="a_node1"><a xlink:title=" ">
<polygon fill="#bfbfbf" stroke="black" points="688.5,-313.5 688.5,-343.5 837.5,-343.5 837.5,-313.5 688.5,-313.5"/>
<text text-anchor="start" x="696.5" y="-331.5" font-family="Helvetica,sans-Serif" font-size="10.00">modules/materials/VonMises</text>
<text text-anchor="middle" x="763" y="-320.5" font-family="Helvetica,sans-Serif" font-size="10.00">/src/VonMisesRegistration.cpp</text>
</a>
</g>
</g>
<!-- Node2 -->
<g id="node2" class="node">
<title>Node2</title>
<g id="a_node2"><a xlink:href="MarmotMaterialRegistrationHelper_8h.html" target="_top" xlink:title=" ">
<polygon fill="white" stroke="black" points="599,-246.5 599,-276.5 771,-276.5 771,-246.5 599,-246.5"/>
<text text-anchor="start" x="607" y="-264.5" font-family="Helvetica,sans-Serif" font-size="10.00">Marmot/MarmotMaterialRegistration</text>
<text text-anchor="middle" x="685" y="-253.5" font-family="Helvetica,sans-Serif" font-size="10.00">Helper.h</text>
</a>
</g>
</g>
<!-- Node1&#45;&gt;Node2 -->
<g id="edge1" class="edge">
<title>Node1&#45;&gt;Node2</title>
<path fill="none" stroke="midnightblue" d="M746.08,-313.4C735.45,-304.54 721.55,-292.96 709.7,-283.09"/>
<polygon fill="midnightblue" stroke="midnightblue" points="711.81,-280.29 701.89,-276.58 707.33,-285.67 711.81,-280.29"/>
</g>
<!-- Node16 -->
<g id="node16" class="node">
<title>Node16</title>
<g id="a_node16"><a xlink:href="VonMises_8h.html" target="_top" xlink:title=" ">
<polygon fill="white" stroke="black" points="802,-252 802,-271 906,-271 906,-252 802,-252"/>
<text text-anchor="middle" x="854" y="-259" font-family="Helvetica,sans-Serif" font-size="10.00">Marmot/VonMises.h</text>
</a>
</g>
</g>
<!-- Node1&#45;&gt;Node16 -->
<g id="edge20" class="edge">
<title>Node1&#45;&gt;Node16</title>
<path fill="none" stroke="midnightblue" d="M782.75,-313.4C797.86,-302.6 818.64,-287.76 833.86,-276.89"/>
<polygon fill="midnightblue" stroke="midnightblue" points="835.99,-279.67 842.09,-271.01 831.92,-273.97 835.99,-279.67"/>
</g>
<!-- Node3 -->
<g id="node3" class="node">
<title>Node3</title>
<g id="a_node3"><a xlink:href="Marmot_8h.html" target="_top" xlink:title=" ">
<polygon fill="white" stroke="black" points="479.5,-185 479.5,-204 572.5,-204 572.5,-185 479.5,-185"/>
<text text-anchor="middle" x="526" y="-192" font-family="Helvetica,sans-Serif" font-size="10.00">Marmot/Marmot.h</text>
</a>
</g>
</g>
<!-- Node2&#45;&gt;Node3 -->
<g id="edge2" class="edge">
<title>Node2&#45;&gt;Node3</title>
<path fill="none" stroke="midnightblue" d="M650.5,-246.4C622.35,-234.89 582.99,-218.8 556.11,-207.81"/>
<polygon fill="midnightblue" stroke="midnightblue" points="557.39,-204.55 546.81,-204.01 554.74,-211.03 557.39,-204.55"/>
</g>
<!-- Node4 -->
<g id="node4" class="node">
<title>Node4</title>
<g id="a_node4"><a xlink:href="MarmotElement_8h.html" target="_top" xlink:title=" ">
<polygon fill="white" stroke="black" points="361,-118 361,-137 489,-137 489,-118 361,-118"/>
<text text-anchor="middle" x="425" y="-125" font-family="Helvetica,sans-Serif" font-size="10.00">Marmot/MarmotElement.h</text>
</a>
</g>
</g>
<!-- Node3&#45;&gt;Node4 -->
<g id="edge3" class="edge">
<title>Node3&#45;&gt;Node4</title>
<path fill="none" stroke="midnightblue" d="M512.38,-184.73C495.57,-173.92 466.77,-155.38 446.86,-142.57"/>
<polygon fill="midnightblue" stroke="midnightblue" points="448.71,-139.6 438.41,-137.13 444.92,-145.48 448.71,-139.6"/>
</g>
<!-- Node7 -->
<g id="node7" class="node">
<title>Node7</title>
<g id="a_node7"><a xlink:title=" ">
<polygon fill="white" stroke="#bfbfbf" points="0,-0.5 0,-19.5 54,-19.5 54,-0.5 0,-0.5"/>
<text text-anchor="middle" x="27" y="-7.5" font-family="Helvetica,sans-Serif" font-size="10.00">iostream</text>
</a>
</g>
</g>
<!-- Node3&#45;&gt;Node7 -->
<g id="edge17" class="edge">
<title>Node3&#45;&gt;Node7</title>
<path fill="none" stroke="midnightblue" d="M479.18,-189.1C368.23,-177.64 94.24,-143.03 36,-76 25.15,-63.51 23.71,-44.28 24.5,-29.97"/>
<polygon fill="midnightblue" stroke="midnightblue" points="28.01,-30.06 25.47,-19.78 21.04,-29.4 28.01,-30.06"/>
</g>
<!-- Node9 -->
<g id="node9" class="node">
<title>Node9</title>
<g id="a_node9"><a xlink:title=" ">
<polygon fill="white" stroke="#bfbfbf" points="216.5,-0.5 216.5,-19.5 257.5,-19.5 257.5,-0.5 216.5,-0.5"/>
<text text-anchor="middle" x="237" y="-7.5" font-family="Helvetica,sans-Serif" font-size="10.00">string</text>
</a>
</g>
</g>
<!-- Node3&#45;&gt;Node9 -->
<g id="edge18" class="edge">
<title>Node3&#45;&gt;Node9</title>
<path fill="none" stroke="midnightblue" d="M479.31,-190.43C412.2,-183.15 291.05,-158.63 241,-76 232.67,-62.25 232.36,-43.72 233.73,-29.97"/>
<polygon fill="midnightblue" stroke="midnightblue" points="237.24,-30.13 235.14,-19.74 230.31,-29.17 237.24,-30.13"/>
</g>
<!-- Node13 -->
<g id="node13" class="node">
<title>Node13</title>
<g id="a_node13"><a xlink:href="MarmotMaterial_8h.html" target="_top" xlink:title=" ">
<polygon fill="white" stroke="black" points="873,-56.5 873,-75.5 1001,-75.5 1001,-56.5 873,-56.5"/>
<text text-anchor="middle" x="937" y="-63.5" font-family="Helvetica,sans-Serif" font-size="10.00">Marmot/MarmotMaterial.h</text>
</a>
</g>
</g>
<!-- Node3&#45;&gt;Node13 -->
<g id="edge13" class="edge">
<title>Node3&#45;&gt;Node13</title>
<path fill="none" stroke="midnightblue" d="M572.56,-192.02C629.21,-188.66 726.6,-177.82 802,-143 821.79,-133.86 821.53,-123.57 840,-112 860.73,-99.02 885.81,-87.48 905.28,-79.34"/>
<polygon fill="midnightblue" stroke="midnightblue" points="906.69,-82.55 914.61,-75.51 904.03,-76.07 906.69,-82.55"/>
</g>
<!-- Node14 -->
<g id="node14" class="node">
<title>Node14</title>
<g id="a_node14"><a xlink:title=" ">
<polygon fill="white" stroke="#bfbfbf" points="554.5,-118 554.5,-137 613.5,-137 613.5,-118 554.5,-118"/>
<text text-anchor="middle" x="584" y="-125" font-family="Helvetica,sans-Serif" font-size="10.00">functional</text>
</a>
</g>
</g>
<!-- Node3&#45;&gt;Node14 -->
<g id="edge16" class="edge">
<title>Node3&#45;&gt;Node14</title>
<path fill="none" stroke="midnightblue" d="M533.82,-184.73C542.95,-174.5 558.24,-157.36 569.55,-144.69"/>
<polygon fill="midnightblue" stroke="midnightblue" points="572.26,-146.92 576.3,-137.13 567.03,-142.26 572.26,-146.92"/>
</g>
<!-- Node15 -->
<g id="node15" class="node">
<title>Node15</title>
<g id="a_node15"><a xlink:title=" ">
<polygon fill="white" stroke="#bfbfbf" points="625.5,-56.5 625.5,-75.5 708.5,-75.5 708.5,-56.5 625.5,-56.5"/>
<text text-anchor="middle" x="667" y="-63.5" font-family="Helvetica,sans-Serif" font-size="10.00">unordered_map</text>
</a>
</g>
</g>
<!-- Node3&#45;&gt;Node15 -->
<g id="edge19" class="edge">
<title>Node3&#45;&gt;Node15</title>
<path fill="none" stroke="midnightblue" d="M525.51,-184.69C525.08,-168.3 526.54,-132.91 545,-112 555.79,-99.78 593.21,-87.03 623.79,-78.24"/>
<polygon fill="midnightblue" stroke="midnightblue" points="624.76,-81.6 633.44,-75.53 622.87,-74.86 624.76,-81.6"/>
</g>
<!-- Node5 -->
<g id="node5" class="node">
<title>Node5</title>
<g id="a_node5"><a xlink:href="MarmotElementProperty_8h.html" target="_top" xlink:title=" ">
<polygon fill="white" stroke="black" points="343,-56.5 343,-75.5 507,-75.5 507,-56.5 343,-56.5"/>
<text text-anchor="middle" x="425" y="-63.5" font-family="Helvetica,sans-Serif" font-size="10.00">Marmot/MarmotElementProperty.h</text>
</a>
</g>
</g>
<!-- Node4&#45;&gt;Node5 -->
<g id="edge4" class="edge">
<title>Node4&#45;&gt;Node5</title>
<path fill="none" stroke="midnightblue" d="M425,-117.98C425,-109.58 425,-96.48 425,-85.66"/>
<polygon fill="midnightblue" stroke="midnightblue" points="428.5,-85.51 425,-75.51 421.5,-85.51 428.5,-85.51"/>
</g>
<!-- Node6 -->
<g id="node6" class="node">
<title>Node6</title>
<g id="a_node6"><a xlink:href="MarmotJournal_8h.html" target="_top" xlink:title=" ">
<polygon fill="white" stroke="black" points="45.5,-56.5 45.5,-75.5 170.5,-75.5 170.5,-56.5 45.5,-56.5"/>
<text text-anchor="middle" x="108" y="-63.5" font-family="Helvetica,sans-Serif" font-size="10.00">Marmot/MarmotJournal.h</text>
</a>
</g>
</g>
<!-- Node4&#45;&gt;Node6 -->
<g id="edge5" class="edge">
<title>Node4&#45;&gt;Node6</title>
<path fill="none" stroke="midnightblue" d="M379.58,-117.98C322.5,-107.26 224.58,-88.88 163.23,-77.37"/>
<polygon fill="midnightblue" stroke="midnightblue" points="163.81,-73.91 153.33,-75.51 162.52,-80.79 163.81,-73.91"/>
</g>
<!-- Node4&#45;&gt;Node9 -->
<g id="edge11" class="edge">
<title>Node4&#45;&gt;Node9</title>
<path fill="none" stroke="midnightblue" d="M360.81,-122.03C325.55,-116.33 283.53,-103.69 256,-76 243.97,-63.89 239.47,-44.61 237.83,-30.19"/>
<polygon fill="midnightblue" stroke="midnightblue" points="241.3,-29.59 237.04,-19.89 234.32,-30.13 241.3,-29.59"/>
</g>
<!-- Node10 -->
<g id="node10" class="node">
<title>Node10</title>
<g id="a_node10"><a xlink:href="MarmotUtils_8h.html" target="_top" xlink:title=" ">
<polygon fill="white" stroke="black" points="788.5,-0.5 788.5,-19.5 901.5,-19.5 901.5,-0.5 788.5,-0.5"/>
<text text-anchor="middle" x="845" y="-7.5" font-family="Helvetica,sans-Serif" font-size="10.00">Marmot/MarmotUtils.h</text>
</a>
</g>
</g>
<!-- Node4&#45;&gt;Node10 -->
<g id="edge9" class="edge">
<title>Node4&#45;&gt;Node10</title>
<path fill="none" stroke="midnightblue" d="M440.44,-117.87C473.37,-99.51 547.99,-58.04 554,-56 628.37,-30.79 718.27,-19.63 778.28,-14.74"/>
<polygon fill="midnightblue" stroke="midnightblue" points="778.69,-18.22 788.39,-13.95 778.14,-11.24 778.69,-18.22"/>
</g>
<!-- Node11 -->
<g id="node11" class="node">
<title>Node11</title>
<g id="a_node11"><a xlink:title=" ">
<polygon fill="white" stroke="#bfbfbf" points="265.5,-56.5 265.5,-75.5 324.5,-75.5 324.5,-56.5 265.5,-56.5"/>
<text text-anchor="middle" x="295" y="-63.5" font-family="Helvetica,sans-Serif" font-size="10.00">stdexcept</text>
</a>
</g>
</g>
<!-- Node4&#45;&gt;Node11 -->
<g id="edge10" class="edge">
<title>Node4&#45;&gt;Node11</title>
<path fill="none" stroke="midnightblue" d="M406.37,-117.98C384.56,-107.99 348.2,-91.35 322.98,-79.81"/>
<polygon fill="midnightblue" stroke="midnightblue" points="324.14,-76.49 313.59,-75.51 321.23,-82.85 324.14,-76.49"/>
</g>
<!-- Node12 -->
<g id="node12" class="node">
<title>Node12</title>
<g id="a_node12"><a xlink:title=" ">
<polygon fill="white" stroke="#bfbfbf" points="563,-56.5 563,-75.5 607,-75.5 607,-56.5 563,-56.5"/>
<text text-anchor="middle" x="585" y="-63.5" font-family="Helvetica,sans-Serif" font-size="10.00">vector</text>
</a>
</g>
</g>
<!-- Node4&#45;&gt;Node12 -->
<g id="edge12" class="edge">
<title>Node4&#45;&gt;Node12</title>
<path fill="none" stroke="midnightblue" d="M447.92,-117.98C475.6,-107.68 522.3,-90.31 553.39,-78.75"/>
<polygon fill="midnightblue" stroke="midnightblue" points="554.74,-81.99 562.89,-75.22 552.3,-75.43 554.74,-81.99"/>
</g>
<!-- Node6&#45;&gt;Node7 -->
<g id="edge6" class="edge">
<title>Node6&#45;&gt;Node7</title>
<path fill="none" stroke="midnightblue" d="M94.99,-56.32C82.47,-47.98 63.32,-35.21 48.53,-25.35"/>
<polygon fill="midnightblue" stroke="midnightblue" points="50.24,-22.29 39.98,-19.65 46.36,-28.11 50.24,-22.29"/>
</g>
<!-- Node8 -->
<g id="node8" class="node">
<title>Node8</title>
<g id="a_node8"><a xlink:title=" ">
<polygon fill="white" stroke="#bfbfbf" points="82,-0.5 82,-19.5 134,-19.5 134,-0.5 82,-0.5"/>
<text text-anchor="middle" x="108" y="-7.5" font-family="Helvetica,sans-Serif" font-size="10.00">sstream</text>
</a>
</g>
</g>
<!-- Node6&#45;&gt;Node8 -->
<g id="edge7" class="edge">
<title>Node6&#45;&gt;Node8</title>
<path fill="none" stroke="midnightblue" d="M108,-56.08C108,-49.01 108,-38.86 108,-29.99"/>
<polygon fill="midnightblue" stroke="midnightblue" points="111.5,-29.75 108,-19.75 104.5,-29.75 111.5,-29.75"/>
</g>
<!-- Node6&#45;&gt;Node9 -->
<g id="edge8" class="edge">
<title>Node6&#45;&gt;Node9</title>
<path fill="none" stroke="midnightblue" d="M128.44,-56.44C149.67,-47.56 183.1,-33.56 207.25,-23.45"/>
<polygon fill="midnightblue" stroke="midnightblue" points="208.78,-26.61 216.66,-19.52 206.08,-20.15 208.78,-26.61"/>
</g>
<!-- Node13&#45;&gt;Node9 -->
<g id="edge15" class="edge">
<title>Node13&#45;&gt;Node9</title>
<path fill="none" stroke="midnightblue" d="M872.73,-59.74C857.42,-58.5 841.13,-57.19 826,-56 612.29,-39.17 354.88,-19.82 267.62,-13.29"/>
<polygon fill="midnightblue" stroke="midnightblue" points="267.84,-9.8 257.61,-12.54 267.32,-16.78 267.84,-9.8"/>
</g>
<!-- Node13&#45;&gt;Node10 -->
<g id="edge14" class="edge">
<title>Node13&#45;&gt;Node10</title>
<path fill="none" stroke="midnightblue" d="M922.22,-56.32C907.73,-47.82 885.43,-34.73 868.51,-24.8"/>
<polygon fill="midnightblue" stroke="midnightblue" points="870.14,-21.7 859.74,-19.65 866.6,-27.74 870.14,-21.7"/>
</g>
<!-- Node17 -->
<g id="node17" class="node">
<title>Node17</title>
<g id="a_node17"><a xlink:href="MarmotMaterialHypoElastic_8h.html" target="_top" xlink:title=" ">
<polygon fill="white" stroke="black" points="810.5,-179.5 810.5,-209.5 953.5,-209.5 953.5,-179.5 810.5,-179.5"/>
<text text-anchor="start" x="818.5" y="-197.5" font-family="Helvetica,sans-Serif" font-size="10.00">Marmot/MarmotMaterialHypo</text>
<text text-anchor="middle" x="882" y="-186.5" font-family="Helvetica,sans-Serif" font-size="10.00">Elastic.h</text>
</a>
</g>
</g>
<!-- Node16&#45;&gt;Node17 -->
<g id="edge21" class="edge">
<title>Node16&#45;&gt;Node17</title>
<path fill="none" stroke="midnightblue" d="M857.78,-251.73C861.38,-243.37 866.97,-230.4 871.87,-219.02"/>
<polygon fill="midnightblue" stroke="midnightblue" points="875.19,-220.16 875.93,-209.59 868.76,-217.39 875.19,-220.16"/>
</g>
<!-- Node19 -->
<g id="node19" class="node">
<title>Node19</title>
<g id="a_node19"><a xlink:href="MarmotStateVarVectorManager_8h.html" target="_top" xlink:title=" ">
<polygon fill="white" stroke="black" points="641,-112.5 641,-142.5 793,-142.5 793,-112.5 641,-112.5"/>
<text text-anchor="start" x="649" y="-130.5" font-family="Helvetica,sans-Serif" font-size="10.00">Marmot/MarmotStateVarVector</text>
<text text-anchor="middle" x="717" y="-119.5" font-family="Helvetica,sans-Serif" font-size="10.00">Manager.h</text>
</a>
</g>
</g>
<!-- Node16&#45;&gt;Node19 -->
<g id="edge24" class="edge">
<title>Node16&#45;&gt;Node19</title>
<path fill="none" stroke="midnightblue" d="M845.01,-251.84C823.72,-231.32 769.7,-179.28 739.07,-149.77"/>
<polygon fill="midnightblue" stroke="midnightblue" points="741.45,-147.2 731.82,-142.78 736.6,-152.24 741.45,-147.2"/>
</g>
<!-- Node21 -->
<g id="node21" class="node">
<title>Node21</title>
<g id="a_node21"><a xlink:href="MarmotTypedefs_8h.html" target="_top" xlink:title=" ">
<polygon fill="white" stroke="black" points="1100.5,-185 1100.5,-204 1233.5,-204 1233.5,-185 1100.5,-185"/>
<text text-anchor="middle" x="1167" y="-192" font-family="Helvetica,sans-Serif" font-size="10.00">Marmot/MarmotTypedefs.h</text>
</a>
</g>
</g>
<!-- Node16&#45;&gt;Node21 -->
<g id="edge30" class="edge">
<title>Node16&#45;&gt;Node21</title>
<path fill="none" stroke="midnightblue" d="M895.24,-251.94C952.01,-240.15 1054.17,-218.93 1115.77,-206.14"/>
<polygon fill="midnightblue" stroke="midnightblue" points="1116.59,-209.54 1125.67,-204.08 1115.16,-202.69 1116.59,-209.54"/>
</g>
<!-- Node18 -->
<g id="node18" class="node">
<title>Node18</title>
<g id="a_node18"><a xlink:href="MarmotMaterialMechanical_8h.html" target="_top" xlink:title=" ">
<polygon fill="white" stroke="black" points="848.5,-118 848.5,-137 1025.5,-137 1025.5,-118 848.5,-118"/>
<text text-anchor="middle" x="937" y="-125" font-family="Helvetica,sans-Serif" font-size="10.00">Marmot/MarmotMaterialMechanical.h</text>
</a>
</g>
</g>
<!-- Node17&#45;&gt;Node18 -->
<g id="edge22" class="edge">
<title>Node17&#45;&gt;Node18</title>
<path fill="none" stroke="midnightblue" d="M893.93,-179.4C902.51,-169.26 914.1,-155.57 923.09,-144.94"/>
<polygon fill="midnightblue" stroke="midnightblue" points="925.86,-147.09 929.64,-137.19 920.51,-142.57 925.86,-147.09"/>
</g>
<!-- Node18&#45;&gt;Node13 -->
<g id="edge23" class="edge">
<title>Node18&#45;&gt;Node13</title>
<path fill="none" stroke="midnightblue" d="M937,-117.98C937,-109.58 937,-96.48 937,-85.66"/>
<polygon fill="midnightblue" stroke="midnightblue" points="940.5,-85.51 937,-75.51 933.5,-85.51 940.5,-85.51"/>
</g>
<!-- Node19&#45;&gt;Node9 -->
<g id="edge27" class="edge">
<title>Node19&#45;&gt;Node9</title>
<path fill="none" stroke="midnightblue" d="M722.27,-112.34C727.15,-96.51 731.77,-71.11 718,-56 687.66,-22.68 369.25,-13.59 267.84,-11.53"/>
<polygon fill="midnightblue" stroke="midnightblue" points="267.71,-8.03 257.64,-11.33 267.57,-15.03 267.71,-8.03"/>
</g>
<!-- Node19&#45;&gt;Node10 -->
<g id="edge25" class="edge">
<title>Node19&#45;&gt;Node10</title>
<path fill="none" stroke="midnightblue" d="M769.44,-112.5C789.61,-104.73 811.31,-93.07 826,-76 837.14,-63.06 841.75,-43.89 843.66,-29.72"/>
<polygon fill="midnightblue" stroke="midnightblue" points="847.16,-29.94 844.69,-19.64 840.19,-29.24 847.16,-29.94"/>
</g>
<!-- Node19&#45;&gt;Node12 -->
<g id="edge29" class="edge">
<title>Node19&#45;&gt;Node12</title>
<path fill="none" stroke="midnightblue" d="M685.72,-112.4C663.77,-102.51 634.66,-89.38 613.38,-79.79"/>
<polygon fill="midnightblue" stroke="midnightblue" points="614.76,-76.58 604.21,-75.66 611.89,-82.96 614.76,-76.58"/>
</g>
<!-- Node19&#45;&gt;Node15 -->
<g id="edge28" class="edge">
<title>Node19&#45;&gt;Node15</title>
<path fill="none" stroke="midnightblue" d="M705.15,-112.4C697.89,-103.75 688.55,-92.64 680.93,-83.58"/>
<polygon fill="midnightblue" stroke="midnightblue" points="683.39,-81.06 674.28,-75.66 678.03,-85.57 683.39,-81.06"/>
</g>
<!-- Node20 -->
<g id="node20" class="node">
<title>Node20</title>
<g id="a_node20"><a xlink:title=" ">
<polygon fill="white" stroke="#bfbfbf" points="765.5,-56.5 765.5,-75.5 816.5,-75.5 816.5,-56.5 765.5,-56.5"/>
<text text-anchor="middle" x="791" y="-63.5" font-family="Helvetica,sans-Serif" font-size="10.00">memory</text>
</a>
</g>
</g>
<!-- Node19&#45;&gt;Node20 -->
<g id="edge26" class="edge">
<title>Node19&#45;&gt;Node20</title>
<path fill="none" stroke="midnightblue" d="M734.54,-112.4C745.84,-103.31 760.54,-91.49 772.11,-82.19"/>
<polygon fill="midnightblue" stroke="midnightblue" points="774.63,-84.65 780.23,-75.66 770.25,-79.2 774.63,-84.65"/>
</g>
<!-- Node22 -->
<g id="node22" class="node">
<title>Node22</title>
<g id="a_node22"><a xlink:title=" ">
<polygon fill="white" stroke="#bfbfbf" points="1193,-118 1193,-137 1257,-137 1257,-118 1193,-118"/>
<text text-anchor="middle" x="1225" y="-125" font-family="Helvetica,sans-Serif" font-size="10.00">Eigen/Core</text>
</a>
</g>
</g>
<!-- Node21&#45;&gt;Node22 -->
<g id="edge31" class="edge">
<title>Node21&#45;&gt;Node22</title>
<path fill="none" stroke="midnightblue" d="M1174.82,-184.73C1183.95,-174.5 1199.24,-157.36 1210.55,-144.69"/>
<polygon fill="midnightblue" stroke="midnightblue" points="1213.26,-146.92 1217.3,-137.13 1208.03,-142.26 1213.26,-146.92"/>
</g>
<!-- Node23 -->
<g id="node23" class="node">
<title>Node23</title>
<g id="a_node23"><a xlink:title=" ">
<polygon fill="white" stroke="#bfbfbf" points="1275.5,-118 1275.5,-137 1346.5,-137 1346.5,-118 1275.5,-118"/>
<text text-anchor="middle" x="1311" y="-125" font-family="Helvetica,sans-Serif" font-size="10.00">Eigen/Dense</text>
</a>
</g>
</g>
<!-- Node21&#45;&gt;Node23 -->
<g id="edge32" class="edge">
<title>Node21&#45;&gt;Node23</title>
<path fill="none" stroke="midnightblue" d="M1186.12,-184.87C1210.76,-173.75 1253.81,-154.32 1282.36,-141.43"/>
<polygon fill="midnightblue" stroke="midnightblue" points="1284.12,-144.47 1291.8,-137.17 1281.24,-138.09 1284.12,-144.47"/>
</g>
<!-- Node24 -->
<g id="node24" class="node">
<title>Node24</title>
<g id="a_node24"><a xlink:title=" ">
<polygon fill="white" stroke="#bfbfbf" points="1043.5,-112.5 1043.5,-142.5 1174.5,-142.5 1174.5,-112.5 1043.5,-112.5"/>
<text text-anchor="start" x="1051.5" y="-130.5" font-family="Helvetica,sans-Serif" font-size="10.00">unsupported/Eigen/CXX11</text>
<text text-anchor="middle" x="1109" y="-119.5" font-family="Helvetica,sans-Serif" font-size="10.00">/Tensor</text>
</a>
</g>
</g>
<!-- Node21&#45;&gt;Node24 -->
<g id="edge33" class="edge">
<title>Node21&#45;&gt;Node24</title>
<path fill="none" stroke="midnightblue" d="M1159.18,-184.73C1151.34,-175.95 1138.96,-162.08 1128.46,-150.31"/>
<polygon fill="midnightblue" stroke="midnightblue" points="1130.84,-147.72 1121.57,-142.59 1125.62,-152.38 1130.84,-147.72"/>
</g>
</g>
</svg>
