<?xml version="1.0" encoding="UTF-8" standalone="no"?>
<!DOCTYPE svg PUBLIC "-//W3C//DTD SVG 1.1//EN"
 "http://www.w3.org/Graphics/SVG/1.1/DTD/svg11.dtd">
<!-- Generated by graphviz version 2.44.0 ()
 -->
<!-- Title: modules/materials/VonMises/src/VonMisesRegistration.cpp Pages: 1 -->
<!--zoomable 363 -->
<svg id="main" version="1.1" xmlns="http://www.w3.org/2000/svg" xmlns:xlink="http://www.w3.org/1999/xlink" xml:space="preserve" onload="init(evt)">
<style type="text/css"><![CDATA[
.edge:hover path { stroke: red; }
.edge:hover polygon { stroke: red; fill: red; }
]]></style>
<script type="text/javascript"><![CDATA[
var edges = document.getElementsByTagName('g');
if (edges && edges.length) {
  for (var i=0;i<edges.length;i++) {
    if (edges[i].id.substr(0,4)=='edge') {
      edges[i].setAttribute('class','edge');
    }
  }
}
]]></script>
        <defs>
                <circle id="rim" cx="0" cy="0" r="7"/>
                <circle id="rim2" cx="0" cy="0" r="3.5"/>
                <g id="zoomPlus">
                        <use xlink:href="#rim" fill="#404040">
                                <set attributeName="fill" to="#808080" begin="zoomplus.mouseover" end="zoomplus.mouseout"/>
                        </use>
                        <path d="M-4,0h8M0,-4v8" fill="none" stroke="white" stroke-width="1.5" pointer-events="none"/>
                </g>
                <g id="zoomMin">
                        <use xlink:href="#rim" fill="#404040">
                                <set attributeName="fill" to="#808080" begin="zoomminus.mouseover" end="zoomminus.mouseout"/>
                        </use>
                        <path d="M-4,0h8" fill="none" stroke="white" stroke-width="1.5" pointer-events="none"/>
                </g>
                <g id="dirArrow">
                        <path fill="none" stroke="white" stroke-width="1.5" d="M0,-3.0v7 M-2.5,-0.5L0,-3.0L2.5,-0.5"/>
                </g>
               <g id="resetDef">
                       <use xlink:href="#rim2" fill="#404040">
                               <set attributeName="fill" to="#808080" begin="reset.mouseover" end="reset.mouseout"/>
                       </use>
               </g>
        </defs>

<script type="text/javascript">
var viewWidth = 854;
var viewHeight = 363;
var sectionId = 'dynsection-0';
</script>
<script xlink:href="svgpan.js"/>
<svg id="graph" class="graph">
<g id="viewport">
<title>modules/materials/VonMises/src/VonMisesRegistration.cpp</title>
<polygon fill="white" stroke="transparent" points="-4,4 -4,-359 850,-359 850,4 -4,4"/>
<!-- Node1 -->
<g id="node1" class="node">
<title>Node1</title>
<g id="a_node1"><a xlink:title=" ">
<polygon fill="#bfbfbf" stroke="black" points="314.5,-324.5 314.5,-354.5 463.5,-354.5 463.5,-324.5 314.5,-324.5"/>
<text text-anchor="start" x="322.5" y="-342.5" font-family="Helvetica,sans-Serif" font-size="10.00">modules/materials/VonMises</text>
<text text-anchor="middle" x="389" y="-331.5" font-family="Helvetica,sans-Serif" font-size="10.00">/src/VonMisesRegistration.cpp</text>
</a>
</g>
</g>
<!-- Node2 -->
<g id="node2" class="node">
<title>Node2</title>
<g id="a_node2"><a xlink:href="MarmotMaterialRegistrationHelper_8h.html" target="_top" xlink:title=" ">
<polygon fill="white" stroke="black" points="225,-257.5 225,-287.5 397,-287.5 397,-257.5 225,-257.5"/>
<text text-anchor="start" x="233" y="-275.5" font-family="Helvetica,sans-Serif" font-size="10.00">Marmot/MarmotMaterialRegistration</text>
<text text-anchor="middle" x="311" y="-264.5" font-family="Helvetica,sans-Serif" font-size="10.00">Helper.h</text>
</a>
</g>
</g>
<!-- Node1&#45;&gt;Node2 -->
<g id="edge1" class="edge">
<title>Node1&#45;&gt;Node2</title>
<path fill="none" stroke="midnightblue" d="M372.08,-324.4C361.45,-315.54 347.55,-303.96 335.7,-294.09"/>
<polygon fill="midnightblue" stroke="midnightblue" points="337.81,-291.29 327.89,-287.58 333.33,-296.67 337.81,-291.29"/>
</g>
<!-- Node13 -->
<g id="node13" class="node">
<title>Node13</title>
<g id="a_node13"><a xlink:href="VonMises_8h.html" target="_top" xlink:title=" ">
<polygon fill="white" stroke="black" points="430,-263 430,-282 534,-282 534,-263 430,-263"/>
<text text-anchor="middle" x="482" y="-270" font-family="Helvetica,sans-Serif" font-size="10.00">Marmot/VonMises.h</text>
</a>
</g>
</g>
<!-- Node1&#45;&gt;Node13 -->
<g id="edge15" class="edge">
<title>Node1&#45;&gt;Node13</title>
<path fill="none" stroke="midnightblue" d="M409.18,-324.4C424.63,-313.6 445.86,-298.76 461.42,-287.89"/>
<polygon fill="midnightblue" stroke="midnightblue" points="463.64,-290.6 469.83,-282.01 459.63,-284.87 463.64,-290.6"/>
</g>
<!-- Node3 -->
<g id="node3" class="node">
<title>Node3</title>
<g id="a_node3"><a xlink:href="Marmot_8h.html" target="_top" xlink:title=" ">
<polygon fill="white" stroke="black" points="199.5,-129 199.5,-148 292.5,-148 292.5,-129 199.5,-129"/>
<text text-anchor="middle" x="246" y="-136" font-family="Helvetica,sans-Serif" font-size="10.00">Marmot/Marmot.h</text>
</a>
</g>
</g>
<!-- Node2&#45;&gt;Node3 -->
<g id="edge2" class="edge">
<title>Node2&#45;&gt;Node3</title>
<path fill="none" stroke="midnightblue" d="M304.04,-257.37C292.13,-233.18 267.85,-183.88 254.79,-157.35"/>
<polygon fill="midnightblue" stroke="midnightblue" points="257.79,-155.52 250.23,-148.1 251.51,-158.61 257.79,-155.52"/>
</g>
<!-- Node4 -->
<g id="node4" class="node">
<title>Node4</title>
<g id="a_node4"><a xlink:href="MarmotElement_8h.html" target="_top" xlink:title=" ">
<polygon fill="white" stroke="black" points="18,-62 18,-81 146,-81 146,-62 18,-62"/>
<text text-anchor="middle" x="82" y="-69" font-family="Helvetica,sans-Serif" font-size="10.00">Marmot/MarmotElement.h</text>
</a>
</g>
</g>
<!-- Node3&#45;&gt;Node4 -->
<g id="edge3" class="edge">
<title>Node3&#45;&gt;Node4</title>
<path fill="none" stroke="midnightblue" d="M224.22,-128.87C195.72,-117.57 145.57,-97.7 113.08,-84.82"/>
<polygon fill="midnightblue" stroke="midnightblue" points="114.19,-81.49 103.61,-81.06 111.61,-88 114.19,-81.49"/>
</g>
<!-- Node7 -->
<g id="node7" class="node">
<title>Node7</title>
<g id="a_node7"><a xlink:title=" ">
<polygon fill="white" stroke="#bfbfbf" points="222.5,-0.5 222.5,-19.5 263.5,-19.5 263.5,-0.5 222.5,-0.5"/>
<text text-anchor="middle" x="243" y="-7.5" font-family="Helvetica,sans-Serif" font-size="10.00">string</text>
</a>
</g>
</g>
<!-- Node3&#45;&gt;Node7 -->
<g id="edge13" class="edge">
<title>Node3&#45;&gt;Node7</title>
<path fill="none" stroke="midnightblue" d="M199.44,-134.35C137.34,-129.08 32.49,-116.02 9,-87 0.33,-76.29 0.23,-66.62 9,-56 15.48,-48.16 150.05,-25.82 212.12,-15.87"/>
<polygon fill="midnightblue" stroke="midnightblue" points="212.8,-19.31 222.13,-14.28 211.7,-12.4 212.8,-19.31"/>
</g>
<!-- Node9 -->
<g id="node9" class="node">
<title>Node9</title>
<g id="a_node9"><a xlink:href="MarmotMaterial_8h.html" target="_top" xlink:title=" ">
<polygon fill="white" stroke="black" points="314,-62 314,-81 442,-81 442,-62 314,-62"/>
<text text-anchor="middle" x="378" y="-69" font-family="Helvetica,sans-Serif" font-size="10.00">Marmot/MarmotMaterial.h</text>
</a>
</g>
</g>
<!-- Node3&#45;&gt;Node9 -->
<g id="edge8" class="edge">
<title>Node3&#45;&gt;Node9</title>
<path fill="none" stroke="midnightblue" d="M263.53,-128.87C286.01,-117.8 325.23,-98.49 351.4,-85.6"/>
<polygon fill="midnightblue" stroke="midnightblue" points="352.97,-88.72 360.4,-81.17 349.88,-82.44 352.97,-88.72"/>
</g>
<!-- Node10 -->
<g id="node10" class="node">
<title>Node10</title>
<g id="a_node10"><a xlink:title=" ">
<polygon fill="white" stroke="#bfbfbf" points="164.5,-62 164.5,-81 223.5,-81 223.5,-62 164.5,-62"/>
<text text-anchor="middle" x="194" y="-69" font-family="Helvetica,sans-Serif" font-size="10.00">functional</text>
</a>
</g>
</g>
<!-- Node3&#45;&gt;Node10 -->
<g id="edge11" class="edge">
<title>Node3&#45;&gt;Node10</title>
<path fill="none" stroke="midnightblue" d="M238.99,-128.73C230.88,-118.6 217.35,-101.69 207.24,-89.06"/>
<polygon fill="midnightblue" stroke="midnightblue" points="209.88,-86.75 200.9,-81.13 204.42,-91.12 209.88,-86.75"/>
</g>
<!-- Node11 -->
<g id="node11" class="node">
<title>Node11</title>
<g id="a_node11"><a xlink:title=" ">
<polygon fill="white" stroke="#bfbfbf" points="242,-62 242,-81 296,-81 296,-62 242,-62"/>
<text text-anchor="middle" x="269" y="-69" font-family="Helvetica,sans-Serif" font-size="10.00">iostream</text>
</a>
</g>
</g>
<!-- Node3&#45;&gt;Node11 -->
<g id="edge12" class="edge">
<title>Node3&#45;&gt;Node11</title>
<path fill="none" stroke="midnightblue" d="M249.1,-128.73C252.52,-119.09 258.1,-103.3 262.49,-90.91"/>
<polygon fill="midnightblue" stroke="midnightblue" points="265.91,-91.72 265.95,-81.13 259.31,-89.39 265.91,-91.72"/>
</g>
<!-- Node12 -->
<g id="node12" class="node">
<title>Node12</title>
<g id="a_node12"><a xlink:title=" ">
<polygon fill="white" stroke="#bfbfbf" points="590.5,-0.5 590.5,-19.5 673.5,-19.5 673.5,-0.5 590.5,-0.5"/>
<text text-anchor="middle" x="632" y="-7.5" font-family="Helvetica,sans-Serif" font-size="10.00">unordered_map</text>
</a>
</g>
</g>
<!-- Node3&#45;&gt;Node12 -->
<g id="edge14" class="edge">
<title>Node3&#45;&gt;Node12</title>
<path fill="none" stroke="midnightblue" d="M275.22,-128.95C283.5,-126.76 292.56,-124.58 301,-123 371.34,-109.84 569.6,-136.79 621,-87 636.08,-72.39 636.77,-46.99 635.07,-29.61"/>
<polygon fill="midnightblue" stroke="midnightblue" points="638.51,-28.99 633.73,-19.54 631.58,-29.91 638.51,-28.99"/>
</g>
<!-- Node5 -->
<g id="node5" class="node">
<title>Node5</title>
<g id="a_node5"><a xlink:href="MarmotElementProperty_8h.html" target="_top" xlink:title=" ">
<polygon fill="white" stroke="black" points="0,-0.5 0,-19.5 164,-19.5 164,-0.5 0,-0.5"/>
<text text-anchor="middle" x="82" y="-7.5" font-family="Helvetica,sans-Serif" font-size="10.00">Marmot/MarmotElementProperty.h</text>
</a>
</g>
</g>
<!-- Node4&#45;&gt;Node5 -->
<g id="edge4" class="edge">
<title>Node4&#45;&gt;Node5</title>
<path fill="none" stroke="midnightblue" d="M82,-61.98C82,-53.58 82,-40.48 82,-29.66"/>
<polygon fill="midnightblue" stroke="midnightblue" points="85.5,-29.51 82,-19.51 78.5,-29.51 85.5,-29.51"/>
</g>
<!-- Node6 -->
<g id="node6" class="node">
<title>Node6</title>
<g id="a_node6"><a xlink:href="MarmotUtils_8h.html" target="_top" xlink:title=" ">
<polygon fill="white" stroke="black" points="318.5,-0.5 318.5,-19.5 431.5,-19.5 431.5,-0.5 318.5,-0.5"/>
<text text-anchor="middle" x="375" y="-7.5" font-family="Helvetica,sans-Serif" font-size="10.00">Marmot/MarmotUtils.h</text>
</a>
</g>
</g>
<!-- Node4&#45;&gt;Node6 -->
<g id="edge5" class="edge">
<title>Node4&#45;&gt;Node6</title>
<path fill="none" stroke="midnightblue" d="M123.98,-61.98C176.52,-51.3 266.5,-33.03 323.25,-21.51"/>
<polygon fill="midnightblue" stroke="midnightblue" points="323.99,-24.93 333.1,-19.51 322.6,-18.07 323.99,-24.93"/>
</g>
<!-- Node4&#45;&gt;Node7 -->
<g id="edge6" class="edge">
<title>Node4&#45;&gt;Node7</title>
<path fill="none" stroke="midnightblue" d="M105.07,-61.98C133.31,-51.54 181.24,-33.82 212.5,-22.27"/>
<polygon fill="midnightblue" stroke="midnightblue" points="213.86,-25.5 222.02,-18.75 211.43,-18.94 213.86,-25.5"/>
</g>
<!-- Node8 -->
<g id="node8" class="node">
<title>Node8</title>
<g id="a_node8"><a xlink:title=" ">
<polygon fill="white" stroke="#bfbfbf" points="450,-0.5 450,-19.5 494,-19.5 494,-0.5 450,-0.5"/>
<text text-anchor="middle" x="472" y="-7.5" font-family="Helvetica,sans-Serif" font-size="10.00">vector</text>
</a>
</g>
</g>
<!-- Node4&#45;&gt;Node8 -->
<g id="edge7" class="edge">
<title>Node4&#45;&gt;Node8</title>
<path fill="none" stroke="midnightblue" d="M122.45,-61.94C133.02,-59.85 144.41,-57.72 155,-56 277.82,-36.07 313.09,-44.88 439.64,-19.75"/>
<polygon fill="midnightblue" stroke="midnightblue" points="440.61,-23.13 449.72,-17.72 439.23,-16.27 440.61,-23.13"/>
</g>
<!-- Node9&#45;&gt;Node6 -->
<g id="edge9" class="edge">
<title>Node9&#45;&gt;Node6</title>
<path fill="none" stroke="midnightblue" d="M377.57,-61.98C377.15,-53.58 376.49,-40.48 375.94,-29.66"/>
<polygon fill="midnightblue" stroke="midnightblue" points="379.43,-29.32 375.43,-19.51 372.44,-29.67 379.43,-29.32"/>
</g>
<!-- Node9&#45;&gt;Node7 -->
<g id="edge10" class="edge">
<title>Node9&#45;&gt;Node7</title>
<path fill="none" stroke="midnightblue" d="M358.66,-61.98C335.9,-51.95 297.91,-35.2 271.71,-23.65"/>
<polygon fill="midnightblue" stroke="midnightblue" points="272.87,-20.34 262.31,-19.51 270.05,-26.74 272.87,-20.34"/>
</g>
<!-- Node14 -->
<g id="node14" class="node">
<title>Node14</title>
<g id="a_node14"><a xlink:href="MarmotMaterialHypoElastic_8h.html" target="_top" xlink:title=" ">
<polygon fill="white" stroke="black" points="335.5,-190.5 335.5,-220.5 478.5,-220.5 478.5,-190.5 335.5,-190.5"/>
<text text-anchor="start" x="343.5" y="-208.5" font-family="Helvetica,sans-Serif" font-size="10.00">Marmot/MarmotMaterialHypo</text>
<text text-anchor="middle" x="407" y="-197.5" font-family="Helvetica,sans-Serif" font-size="10.00">Elastic.h</text>
</a>
</g>
</g>
<!-- Node13&#45;&gt;Node14 -->
<g id="edge16" class="edge">
<title>Node13&#45;&gt;Node14</title>
<path fill="none" stroke="midnightblue" d="M471.89,-262.73C461.46,-253.7 444.82,-239.27 431,-227.3"/>
<polygon fill="midnightblue" stroke="midnightblue" points="433.11,-224.49 423.26,-220.59 428.52,-229.78 433.11,-224.49"/>
</g>
<!-- Node16 -->
<g id="node16" class="node">
<title>Node16</title>
<g id="a_node16"><a xlink:href="MarmotStateVarVectorManager_8h.html" target="_top" xlink:title=" ">
<polygon fill="white" stroke="black" points="460,-56.5 460,-86.5 612,-86.5 612,-56.5 460,-56.5"/>
<text text-anchor="start" x="468" y="-74.5" font-family="Helvetica,sans-Serif" font-size="10.00">Marmot/MarmotStateVarVector</text>
<text text-anchor="middle" x="536" y="-63.5" font-family="Helvetica,sans-Serif" font-size="10.00">Manager.h</text>
</a>
</g>
</g>
<!-- Node13&#45;&gt;Node16 -->
<g id="edge19" class="edge">
<title>Node13&#45;&gt;Node16</title>
<path fill="none" stroke="midnightblue" d="M484.32,-262.95C492.11,-234.23 517.54,-140.54 529.57,-96.19"/>
<polygon fill="midnightblue" stroke="midnightblue" points="532.95,-97.1 532.19,-86.53 526.2,-95.27 532.95,-97.1"/>
</g>
<!-- Node18 -->
<g id="node18" class="node">
<title>Node18</title>
<g id="a_node18"><a xlink:href="MarmotTypedefs_8h.html" target="_top" xlink:title=" ">
<polygon fill="white" stroke="black" points="587.5,-196 587.5,-215 720.5,-215 720.5,-196 587.5,-196"/>
<text text-anchor="middle" x="654" y="-203" font-family="Helvetica,sans-Serif" font-size="10.00">Marmot/MarmotTypedefs.h</text>
</a>
</g>
</g>
<!-- Node13&#45;&gt;Node18 -->
<g id="edge25" class="edge">
<title>Node13&#45;&gt;Node18</title>
<path fill="none" stroke="midnightblue" d="M504.84,-262.87C534.87,-251.52 587.78,-231.52 621.84,-218.65"/>
<polygon fill="midnightblue" stroke="midnightblue" points="623.22,-221.87 631.34,-215.06 620.75,-215.32 623.22,-221.87"/>
</g>
<!-- Node15 -->
<g id="node15" class="node">
<title>Node15</title>
<g id="a_node15"><a xlink:href="MarmotMaterialMechanical_8h.html" target="_top" xlink:title=" ">
<polygon fill="white" stroke="black" points="310.5,-129 310.5,-148 487.5,-148 487.5,-129 310.5,-129"/>
<text text-anchor="middle" x="399" y="-136" font-family="Helvetica,sans-Serif" font-size="10.00">Marmot/MarmotMaterialMechanical.h</text>
</a>
</g>
</g>
<!-- Node14&#45;&gt;Node15 -->
<g id="edge17" class="edge">
<title>Node14&#45;&gt;Node15</title>
<path fill="none" stroke="midnightblue" d="M405.26,-190.4C404.1,-180.96 402.56,-168.45 401.3,-158.19"/>
<polygon fill="midnightblue" stroke="midnightblue" points="404.77,-157.69 400.07,-148.19 397.82,-158.55 404.77,-157.69"/>
</g>
<!-- Node15&#45;&gt;Node9 -->
<g id="edge18" class="edge">
<title>Node15&#45;&gt;Node9</title>
<path fill="none" stroke="midnightblue" d="M396.17,-128.73C393.05,-119.09 387.95,-103.3 383.95,-90.91"/>
<polygon fill="midnightblue" stroke="midnightblue" points="387.19,-89.57 380.79,-81.13 380.53,-91.72 387.19,-89.57"/>
</g>
<!-- Node16&#45;&gt;Node6 -->
<g id="edge20" class="edge">
<title>Node16&#45;&gt;Node6</title>
<path fill="none" stroke="midnightblue" d="M497.85,-56.4C470.47,-46.28 433.96,-32.79 407.87,-23.15"/>
<polygon fill="midnightblue" stroke="midnightblue" points="409.02,-19.84 398.43,-19.66 406.59,-26.41 409.02,-19.84"/>
</g>
<!-- Node16&#45;&gt;Node7 -->
<g id="edge21" class="edge">
<title>Node16&#45;&gt;Node7</title>
<path fill="none" stroke="midnightblue" d="M466.93,-56.47C405.56,-44.01 318.75,-26.38 273.35,-17.16"/>
<polygon fill="midnightblue" stroke="midnightblue" points="274.02,-13.73 263.53,-15.17 272.63,-20.59 274.02,-13.73"/>
</g>
<!-- Node16&#45;&gt;Node8 -->
<g id="edge23" class="edge">
<title>Node16&#45;&gt;Node8</title>
<path fill="none" stroke="midnightblue" d="M520.83,-56.4C511.25,-47.49 498.84,-35.95 488.93,-26.74"/>
<polygon fill="midnightblue" stroke="midnightblue" points="491.02,-23.9 481.31,-19.66 486.25,-29.03 491.02,-23.9"/>
</g>
<!-- Node16&#45;&gt;Node12 -->
<g id="edge22" class="edge">
<title>Node16&#45;&gt;Node12</title>
<path fill="none" stroke="midnightblue" d="M558.75,-56.4C573.99,-46.95 593.99,-34.56 609.24,-25.11"/>
<polygon fill="midnightblue" stroke="midnightblue" points="611.38,-27.9 618.03,-19.66 607.69,-21.95 611.38,-27.9"/>
</g>
<!-- Node17 -->
<g id="node17" class="node">
<title>Node17</title>
<g id="a_node17"><a xlink:title=" ">
<polygon fill="white" stroke="#bfbfbf" points="512.5,-0.5 512.5,-19.5 563.5,-19.5 563.5,-0.5 512.5,-0.5"/>
<text text-anchor="middle" x="538" y="-7.5" font-family="Helvetica,sans-Serif" font-size="10.00">memory</text>
</a>
</g>
</g>
<!-- Node16&#45;&gt;Node17 -->
<g id="edge24" class="edge">
<title>Node16&#45;&gt;Node17</title>
<path fill="none" stroke="midnightblue" d="M536.47,-56.4C536.74,-48.47 537.08,-38.46 537.37,-29.86"/>
<polygon fill="midnightblue" stroke="midnightblue" points="540.87,-29.77 537.71,-19.66 533.87,-29.53 540.87,-29.77"/>
</g>
<!-- Node19 -->
<g id="node19" class="node">
<title>Node19</title>
<g id="a_node19"><a xlink:title=" ">
<polygon fill="white" stroke="#bfbfbf" points="782,-129 782,-148 846,-148 846,-129 782,-129"/>
<text text-anchor="middle" x="814" y="-136" font-family="Helvetica,sans-Serif" font-size="10.00">Eigen/Core</text>
</a>
</g>
</g>
<!-- Node18&#45;&gt;Node19 -->
<g id="edge26" class="edge">
<title>Node18&#45;&gt;Node19</title>
<path fill="none" stroke="midnightblue" d="M675.25,-195.87C702.94,-184.62 751.56,-164.87 783.27,-151.99"/>
<polygon fill="midnightblue" stroke="midnightblue" points="784.97,-155.07 792.92,-148.06 782.34,-148.58 784.97,-155.07"/>
</g>
<!-- Node20 -->
<g id="node20" class="node">
<title>Node20</title>
<g id="a_node20"><a xlink:title=" ">
<polygon fill="white" stroke="#bfbfbf" points="543.5,-129 543.5,-148 614.5,-148 614.5,-129 543.5,-129"/>
<text text-anchor="middle" x="579" y="-136" font-family="Helvetica,sans-Serif" font-size="10.00">Eigen/Dense</text>
</a>
</g>
</g>
<!-- Node18&#45;&gt;Node20 -->
<g id="edge27" class="edge">
<title>Node18&#45;&gt;Node20</title>
<path fill="none" stroke="midnightblue" d="M643.89,-195.73C631.85,-185.31 611.55,-167.71 596.85,-154.97"/>
<polygon fill="midnightblue" stroke="midnightblue" points="598.8,-152.03 588.95,-148.13 594.22,-157.32 598.8,-152.03"/>
</g>
<!-- Node21 -->
<g id="node21" class="node">
<title>Node21</title>
<g id="a_node21"><a xlink:title=" ">
<polygon fill="white" stroke="#bfbfbf" points="632.5,-123.5 632.5,-153.5 763.5,-153.5 763.5,-123.5 632.5,-123.5"/>
<text text-anchor="start" x="640.5" y="-141.5" font-family="Helvetica,sans-Serif" font-size="10.00">unsupported/Eigen/CXX11</text>
<text text-anchor="middle" x="698" y="-130.5" font-family="Helvetica,sans-Serif" font-size="10.00">/Tensor</text>
</a>
</g>
</g>
<!-- Node18&#45;&gt;Node21 -->
<g id="edge28" class="edge">
<title>Node18&#45;&gt;Node21</title>
<path fill="none" stroke="midnightblue" d="M659.93,-195.73C665.77,-187.12 674.91,-173.61 682.77,-161.99"/>
<polygon fill="midnightblue" stroke="midnightblue" points="685.76,-163.83 688.46,-153.59 679.96,-159.91 685.76,-163.83"/>
</g>
</g>
</svg>
        <g id="navigator" transform="translate(0 0)" fill="#404254">
                <rect fill="#f2f5e9" fill-opacity="0.5" stroke="#606060" stroke-width=".5" x="0" y="0" width="60" height="60"/>
                <use id="zoomplus" xlink:href="#zoomPlus" x="17" y="9" onmousedown="handleZoom(evt,'in')"/>
                <use id="zoomminus" xlink:href="#zoomMin" x="42" y="9" onmousedown="handleZoom(evt,'out')"/>
                <use id="reset" xlink:href="#resetDef" x="30" y="36" onmousedown="handleReset()"/>
                <g id="arrowUp" xlink:href="#dirArrow" transform="translate(30 24)" onmousedown="handlePan(0,-1)">
                  <use xlink:href="#rim" fill="#404040">
                        <set attributeName="fill" to="#808080" begin="arrowUp.mouseover" end="arrowUp.mouseout"/>
                  </use>
                  <path fill="none" stroke="white" stroke-width="1.5" d="M0,-3.0v7 M-2.5,-0.5L0,-3.0L2.5,-0.5"/>
                </g>
                <g id="arrowRight" xlink:href="#dirArrow" transform="rotate(90) translate(36 -43)" onmousedown="handlePan(1,0)">
                  <use xlink:href="#rim" fill="#404040">
                        <set attributeName="fill" to="#808080" begin="arrowRight.mouseover" end="arrowRight.mouseout"/>
                  </use>
                  <path fill="none" stroke="white" stroke-width="1.5" d="M0,-3.0v7 M-2.5,-0.5L0,-3.0L2.5,-0.5"/>
                </g>
                <g id="arrowDown" xlink:href="#dirArrow" transform="rotate(180) translate(-30 -48)" onmousedown="handlePan(0,1)">
                  <use xlink:href="#rim" fill="#404040">
                        <set attributeName="fill" to="#808080" begin="arrowDown.mouseover" end="arrowDown.mouseout"/>
                  </use>
                  <path fill="none" stroke="white" stroke-width="1.5" d="M0,-3.0v7 M-2.5,-0.5L0,-3.0L2.5,-0.5"/>
                </g>
                <g id="arrowLeft" xlink:href="#dirArrow" transform="rotate(270) translate(-36 17)" onmousedown="handlePan(-1,0)">
                  <use xlink:href="#rim" fill="#404040">
                        <set attributeName="fill" to="#808080" begin="arrowLeft.mouseover" end="arrowLeft.mouseout"/>
                  </use>
                  <path fill="none" stroke="white" stroke-width="1.5" d="M0,-3.0v7 M-2.5,-0.5L0,-3.0L2.5,-0.5"/>
                </g>
        </g>
        <svg viewBox="0 0 15 15" width="100%" height="30px" preserveAspectRatio="xMaxYMin meet">
         <g id="arrow_out" transform="scale(0.3 0.3)">
          <a xlink:href="VonMisesRegistration_8cpp__incl_org.svg" target="_base">
           <rect id="button" ry="5" rx="5" y="6" x="6" height="38" width="38"
                fill="#f2f5e9" fill-opacity="0.5" stroke="#606060" stroke-width="1.0"/>
           <path id="arrow"
             d="M 11.500037,31.436501 C 11.940474,20.09759 22.043105,11.32322 32.158766,21.979434 L 37.068811,17.246167 C 37.068811,17.246167 37.088388,32 37.088388,32 L 22.160133,31.978069 C 22.160133,31.978069 26.997745,27.140456 26.997745,27.140456 C 18.528582,18.264221 13.291696,25.230495 11.500037,31.436501 z"
             style="fill:#404040;"/>
          </a>
         </g>
        </svg>
</svg>
